<?xml version="1.0" encoding="utf-8" standalone="no"?>
<!DOCTYPE svg PUBLIC "-//W3C//DTD SVG 1.1//EN"
  "http://www.w3.org/Graphics/SVG/1.1/DTD/svg11.dtd">
<svg xmlns:xlink="http://www.w3.org/1999/xlink" width="996.48pt" height="325.44pt" viewBox="0 0 996.48 325.44" xmlns="http://www.w3.org/2000/svg" version="1.1">
 <metadata>
  <rdf:RDF xmlns:dc="http://purl.org/dc/elements/1.1/" xmlns:cc="http://creativecommons.org/ns#" xmlns:rdf="http://www.w3.org/1999/02/22-rdf-syntax-ns#">
   <cc:Work>
    <dc:type rdf:resource="http://purl.org/dc/dcmitype/StillImage"/>
    <dc:date>2024-06-27T17:35:22.886618</dc:date>
    <dc:format>image/svg+xml</dc:format>
    <dc:creator>
     <cc:Agent>
      <dc:title>Matplotlib v3.8.4, https://matplotlib.org/</dc:title>
     </cc:Agent>
    </dc:creator>
   </cc:Work>
  </rdf:RDF>
 </metadata>
 <defs>
  <style type="text/css">*{stroke-linejoin: round; stroke-linecap: butt}</style>
 </defs>
 <g id="figure_1">
  <g id="patch_1">
   <path d="M 0 325.44 
L 996.48 325.44 
L 996.48 0 
L 0 0 
L 0 325.44 
z
" style="fill: none"/>
  </g>
  <g id="axes_1">
   <g id="patch_2">
    <path d="M 42.418977 291.745354 
L 993.645354 291.745354 
L 993.645354 2.834646 
L 42.418977 2.834646 
L 42.418977 291.745354 
z
" style="fill: none"/>
   </g>
   <g id="line2d_1">
    <path d="M 69.340478 282.929555 
L 83.698612 282.822446 
L 93.270701 282.516696 
L 102.543663 281.999006 
L 112.41488 281.220079 
L 123.18348 280.137662 
L 135.148592 278.702438 
L 148.609343 276.85843 
L 164.163988 274.494976 
L 181.812528 271.58239 
L 202.452345 267.944343 
L 229.074719 263.010921 
L 340.649385 242.078966 
L 387.911576 233.615958 
L 466.881313 219.739776 
L 655.032694 186.935317 
L 966.723853 132.843881 
L 966.723853 132.843881 
" clip-path="url(#pad77562141)" style="fill: none; stroke: #ff6347; stroke-width: 4"/>
   </g>
   <g id="matplotlib.axis_1">
    <g id="xtick_1">
     <g id="line2d_2">
      <defs>
       <path id="mc57ea477d1" d="M 0 0 
L 0 -5 
" style="stroke: #000000"/>
      </defs>
      <g>
       <use xlink:href="#mc57ea477d1" x="69.340478" y="291.745354" style="stroke: #000000"/>
      </g>
     </g>
     <g id="text_1">
      <!-- $0$ -->
      <g transform="translate(62.340478 316.520979) scale(0.28 -0.28)">
       <defs>
        <path id="Cmr10-30" d="M 1600 -141 
Q 816 -141 533 504 
Q 250 1150 250 2041 
Q 250 2597 351 3087 
Q 453 3578 754 3920 
Q 1056 4263 1600 4263 
Q 2022 4263 2290 4056 
Q 2559 3850 2700 3523 
Q 2841 3197 2892 2823 
Q 2944 2450 2944 2041 
Q 2944 1491 2842 1011 
Q 2741 531 2444 195 
Q 2147 -141 1600 -141 
z
M 1600 25 
Q 1956 25 2131 390 
Q 2306 756 2347 1200 
Q 2388 1644 2388 2144 
Q 2388 2625 2347 3031 
Q 2306 3438 2132 3767 
Q 1959 4097 1600 4097 
Q 1238 4097 1063 3765 
Q 888 3434 847 3029 
Q 806 2625 806 2144 
Q 806 1788 823 1472 
Q 841 1156 916 820 
Q 991 484 1158 254 
Q 1325 25 1600 25 
z
" transform="scale(0.015625)"/>
       </defs>
       <use xlink:href="#Cmr10-30" transform="translate(0 0.390625)"/>
      </g>
     </g>
    </g>
    <g id="xtick_2">
     <g id="line2d_3">
      <g>
       <use xlink:href="#mc57ea477d1" x="368.46827" y="291.745354" style="stroke: #000000"/>
      </g>
     </g>
     <g id="text_2">
      <!-- $10$ -->
      <g transform="translate(354.46827 316.520979) scale(0.28 -0.28)">
       <defs>
        <path id="Cmr10-31" d="M 594 0 
L 594 225 
Q 1394 225 1394 428 
L 1394 3788 
Q 1063 3628 556 3628 
L 556 3853 
Q 1341 3853 1741 4263 
L 1831 4263 
Q 1853 4263 1873 4245 
Q 1894 4228 1894 4206 
L 1894 428 
Q 1894 225 2694 225 
L 2694 0 
L 594 0 
z
" transform="scale(0.015625)"/>
       </defs>
       <use xlink:href="#Cmr10-31" transform="translate(0 0.390625)"/>
       <use xlink:href="#Cmr10-30" transform="translate(50 0.390625)"/>
      </g>
     </g>
    </g>
    <g id="xtick_3">
     <g id="line2d_4">
      <g>
       <use xlink:href="#mc57ea477d1" x="667.596061" y="291.745354" style="stroke: #000000"/>
      </g>
     </g>
     <g id="text_3">
      <!-- $20$ -->
      <g transform="translate(653.596061 316.520979) scale(0.28 -0.28)">
       <defs>
        <path id="Cmr10-32" d="M 319 0 
L 319 172 
Q 319 188 331 206 
L 1325 1306 
Q 1550 1550 1690 1715 
Q 1831 1881 1968 2097 
Q 2106 2313 2186 2536 
Q 2266 2759 2266 3009 
Q 2266 3272 2169 3511 
Q 2072 3750 1880 3894 
Q 1688 4038 1416 4038 
Q 1138 4038 916 3870 
Q 694 3703 603 3438 
Q 628 3444 672 3444 
Q 816 3444 917 3347 
Q 1019 3250 1019 3097 
Q 1019 2950 917 2848 
Q 816 2747 672 2747 
Q 522 2747 420 2851 
Q 319 2956 319 3097 
Q 319 3338 409 3548 
Q 500 3759 670 3923 
Q 841 4088 1055 4175 
Q 1269 4263 1509 4263 
Q 1875 4263 2190 4108 
Q 2506 3953 2690 3670 
Q 2875 3388 2875 3009 
Q 2875 2731 2753 2481 
Q 2631 2231 2440 2026 
Q 2250 1822 1953 1562 
Q 1656 1303 1563 1216 
L 838 519 
L 1453 519 
Q 1906 519 2211 526 
Q 2516 534 2534 550 
Q 2609 631 2688 1141 
L 2875 1141 
L 2694 0 
L 319 0 
z
" transform="scale(0.015625)"/>
       </defs>
       <use xlink:href="#Cmr10-32" transform="translate(0 0.390625)"/>
       <use xlink:href="#Cmr10-30" transform="translate(50 0.390625)"/>
      </g>
     </g>
    </g>
    <g id="xtick_4">
     <g id="line2d_5">
      <g>
       <use xlink:href="#mc57ea477d1" x="966.723853" y="291.745354" style="stroke: #000000"/>
      </g>
     </g>
     <g id="text_4">
      <!-- $30$ -->
      <g transform="translate(952.723853 316.520979) scale(0.28 -0.28)">
       <defs>
        <path id="Cmr10-33" d="M 609 494 
Q 759 275 1012 169 
Q 1266 63 1556 63 
Q 1928 63 2084 380 
Q 2241 697 2241 1100 
Q 2241 1281 2208 1462 
Q 2175 1644 2097 1800 
Q 2019 1956 1883 2050 
Q 1747 2144 1550 2144 
L 1125 2144 
Q 1069 2144 1069 2203 
L 1069 2259 
Q 1069 2309 1125 2309 
L 1478 2338 
Q 1703 2338 1851 2506 
Q 2000 2675 2069 2917 
Q 2138 3159 2138 3378 
Q 2138 3684 1994 3881 
Q 1850 4078 1556 4078 
Q 1313 4078 1091 3986 
Q 869 3894 738 3706 
Q 750 3709 759 3711 
Q 769 3713 781 3713 
Q 925 3713 1022 3613 
Q 1119 3513 1119 3372 
Q 1119 3234 1022 3134 
Q 925 3034 781 3034 
Q 641 3034 541 3134 
Q 441 3234 441 3372 
Q 441 3647 606 3850 
Q 772 4053 1033 4158 
Q 1294 4263 1556 4263 
Q 1750 4263 1965 4205 
Q 2181 4147 2356 4039 
Q 2531 3931 2642 3762 
Q 2753 3594 2753 3378 
Q 2753 3109 2633 2881 
Q 2513 2653 2303 2487 
Q 2094 2322 1844 2241 
Q 2122 2188 2372 2031 
Q 2622 1875 2773 1631 
Q 2925 1388 2925 1106 
Q 2925 753 2731 467 
Q 2538 181 2222 20 
Q 1906 -141 1556 -141 
Q 1256 -141 954 -26 
Q 653 88 461 316 
Q 269 544 269 863 
Q 269 1022 375 1128 
Q 481 1234 641 1234 
Q 744 1234 830 1186 
Q 916 1138 964 1050 
Q 1013 963 1013 863 
Q 1013 706 903 600 
Q 794 494 641 494 
L 609 494 
z
" transform="scale(0.015625)"/>
       </defs>
       <use xlink:href="#Cmr10-33" transform="translate(0 0.390625)"/>
       <use xlink:href="#Cmr10-30" transform="translate(50 0.390625)"/>
      </g>
     </g>
    </g>
   </g>
   <g id="matplotlib.axis_2">
    <g id="ytick_1">
     <g id="line2d_6">
      <defs>
       <path id="mffbae6c178" d="M 0 0 
L 5 0 
" style="stroke: #000000"/>
      </defs>
      <g>
       <use xlink:href="#mffbae6c178" x="42.418977" y="282.929555" style="stroke: #000000"/>
      </g>
     </g>
     <g id="text_5">
      <!-- $1.0$ -->
      <g transform="translate(3.078977 293.567367) scale(0.28 -0.28)">
       <defs>
        <path id="Cmmi10-3a" d="M 538 353 
Q 538 497 644 600 
Q 750 703 891 703 
Q 978 703 1062 656 
Q 1147 609 1194 525 
Q 1241 441 1241 353 
Q 1241 213 1137 106 
Q 1034 0 891 0 
Q 750 0 644 106 
Q 538 213 538 353 
z
" transform="scale(0.015625)"/>
       </defs>
       <use xlink:href="#Cmr10-31" transform="translate(0 0.390625)"/>
       <use xlink:href="#Cmmi10-3a" transform="translate(50 0.390625)"/>
       <use xlink:href="#Cmr10-30" transform="translate(77.685547 0.390625)"/>
      </g>
     </g>
    </g>
    <g id="ytick_2">
     <g id="line2d_7">
      <g>
       <use xlink:href="#mffbae6c178" x="42.418977" y="218.187128" style="stroke: #000000"/>
      </g>
     </g>
     <g id="text_6">
      <!-- $1.5$ -->
      <g transform="translate(3.078977 228.824941) scale(0.28 -0.28)">
       <defs>
        <path id="Cmr10-35" d="M 556 728 
Q 622 541 758 387 
Q 894 234 1080 148 
Q 1266 63 1466 63 
Q 1928 63 2103 422 
Q 2278 781 2278 1294 
Q 2278 1516 2270 1667 
Q 2263 1819 2228 1959 
Q 2169 2184 2020 2353 
Q 1872 2522 1656 2522 
Q 1441 2522 1286 2456 
Q 1131 2391 1034 2303 
Q 938 2216 863 2119 
Q 788 2022 769 2016 
L 697 2016 
Q 681 2016 657 2036 
Q 634 2056 634 2075 
L 634 4213 
Q 634 4228 654 4245 
Q 675 4263 697 4263 
L 716 4263 
Q 1147 4056 1631 4056 
Q 2106 4056 2547 4263 
L 2566 4263 
Q 2588 4263 2606 4247 
Q 2625 4231 2625 4213 
L 2625 4153 
Q 2625 4122 2613 4122 
Q 2394 3831 2064 3668 
Q 1734 3506 1381 3506 
Q 1125 3506 856 3578 
L 856 2369 
Q 1069 2541 1236 2614 
Q 1403 2688 1663 2688 
Q 2016 2688 2295 2484 
Q 2575 2281 2725 1954 
Q 2875 1628 2875 1288 
Q 2875 903 2686 575 
Q 2497 247 2172 53 
Q 1847 -141 1466 -141 
Q 1150 -141 886 21 
Q 622 184 470 459 
Q 319 734 319 1044 
Q 319 1188 412 1278 
Q 506 1369 647 1369 
Q 788 1369 883 1276 
Q 978 1184 978 1044 
Q 978 906 883 811 
Q 788 716 647 716 
Q 625 716 597 720 
Q 569 725 556 728 
z
" transform="scale(0.015625)"/>
       </defs>
       <use xlink:href="#Cmr10-31" transform="translate(0 0.390625)"/>
       <use xlink:href="#Cmmi10-3a" transform="translate(50 0.390625)"/>
       <use xlink:href="#Cmr10-35" transform="translate(77.685547 0.390625)"/>
      </g>
     </g>
    </g>
    <g id="ytick_3">
     <g id="line2d_8">
      <g>
       <use xlink:href="#mffbae6c178" x="42.418977" y="153.444702" style="stroke: #000000"/>
      </g>
     </g>
     <g id="text_7">
      <!-- $2.0$ -->
      <g transform="translate(3.078977 164.082515) scale(0.28 -0.28)">
       <use xlink:href="#Cmr10-32" transform="translate(0 0.390625)"/>
       <use xlink:href="#Cmmi10-3a" transform="translate(50 0.390625)"/>
       <use xlink:href="#Cmr10-30" transform="translate(77.685547 0.390625)"/>
      </g>
     </g>
    </g>
    <g id="ytick_4">
     <g id="line2d_9">
      <g>
       <use xlink:href="#mffbae6c178" x="42.418977" y="88.702276" style="stroke: #000000"/>
      </g>
     </g>
     <g id="text_8">
      <!-- $2.5$ -->
      <g transform="translate(3.078977 99.340088) scale(0.28 -0.28)">
       <use xlink:href="#Cmr10-32" transform="translate(0 0.390625)"/>
       <use xlink:href="#Cmmi10-3a" transform="translate(50 0.390625)"/>
       <use xlink:href="#Cmr10-35" transform="translate(77.685547 0.390625)"/>
      </g>
     </g>
    </g>
    <g id="ytick_5">
     <g id="line2d_10">
      <g>
       <use xlink:href="#mffbae6c178" x="42.418977" y="23.959849" style="stroke: #000000"/>
      </g>
     </g>
     <g id="text_9">
      <!-- $3.0$ -->
      <g transform="translate(3.078977 34.597662) scale(0.28 -0.28)">
       <use xlink:href="#Cmr10-33" transform="translate(0 0.390625)"/>
       <use xlink:href="#Cmmi10-3a" transform="translate(50 0.390625)"/>
       <use xlink:href="#Cmr10-30" transform="translate(77.685547 0.390625)"/>
      </g>
     </g>
    </g>
   </g>
   <g id="line2d_11">
    <path d="M 69.340478 282.929555 
L 966.723853 127.547731 
L 966.723853 127.547731 
" clip-path="url(#pad77562141)" style="fill: none; stroke: #ff0000; stroke-width: 4"/>
   </g>
   <g id="patch_3">
    <path d="M 42.418977 291.745354 
L 42.418977 2.834646 
" style="fill: none; stroke: #000000; stroke-width: 2; stroke-linejoin: miter; stroke-linecap: square"/>
   </g>
   <g id="patch_4">
    <path d="M 42.418977 291.745354 
L 993.645354 291.745354 
" style="fill: none; stroke: #000000; stroke-width: 2; stroke-linejoin: miter; stroke-linecap: square"/>
   </g>
   <g id="line2d_12">
    <path d="M 69.340478 282.929555 
L 74.42565 283.344118 
L 79.809951 283.550166 
L 85.194251 283.531452 
L 90.877679 283.288285 
L 96.860235 282.810101 
L 103.441046 282.053851 
L 110.620113 280.99426 
L 118.397436 279.616161 
L 127.072142 277.847023 
L 136.644231 275.661323 
L 147.113704 273.036139 
L 158.48056 269.949658 
L 170.744799 266.385867 
L 184.803806 262.060756 
L 201.85409 256.571412 
L 228.177335 247.832236 
L 272.747376 233.047567 
L 299.968005 224.269276 
L 325.992123 216.107204 
L 350.81973 208.549104 
L 372.356931 202.217574 
L 389.108087 197.510575 
L 401.970582 194.113537 
L 411.841799 191.72266 
L 419.619122 190.052475 
L 425.900806 188.919344 
L 431.285106 188.173406 
L 435.772023 187.780622 
L 439.361556 187.676629 
L 442.651962 187.801858 
L 445.344112 188.107221 
L 447.737134 188.572603 
L 450.130157 189.265252 
L 452.224051 190.100059 
L 454.317946 191.193609 
L 456.112713 192.373923 
L 457.907479 193.812838 
L 459.702246 195.541717 
L 461.497013 197.586589 
L 463.29178 199.959032 
L 465.385674 203.128328 
L 468.077824 207.676038 
L 472.564741 215.345235 
L 474.658636 218.445366 
L 476.453402 220.6741 
L 477.949041 222.183187 
L 479.44468 223.362837 
L 480.940319 224.220081 
L 482.435958 224.776969 
L 483.931597 225.066548 
L 485.427236 225.128524 
L 487.222003 224.961982 
L 489.315898 224.525112 
L 492.307175 223.638443 
L 497.392348 222.08845 
L 499.486242 221.686382 
L 501.281009 221.561755 
L 502.776648 221.675054 
L 504.272287 222.014042 
L 505.767926 222.6114 
L 506.964437 223.308403 
L 508.160948 224.229209 
L 509.35746 225.392922 
L 510.853099 227.193599 
L 512.348737 229.342542 
L 514.442632 232.759458 
L 518.032166 238.675148 
L 519.527804 240.746576 
L 521.023443 242.417244 
L 522.219955 243.429489 
L 523.416466 244.150706 
L 524.612977 244.59833 
L 525.809488 244.802731 
L 527.005999 244.800444 
L 528.501638 244.563506 
L 530.296405 244.029267 
L 536.278961 241.948767 
L 537.7746 241.716462 
L 539.270239 241.729149 
L 540.46675 241.971275 
L 541.663261 242.466145 
L 542.859772 243.248654 
L 544.056283 244.336868 
L 545.252795 245.723917 
L 546.748434 247.818076 
L 549.440584 252.119516 
L 551.534478 255.261999 
L 552.730989 256.730569 
L 553.927501 257.873789 
L 555.124012 258.669494 
L 556.320523 259.128053 
L 557.517034 259.280513 
L 558.713545 259.173605 
L 560.209184 258.758207 
L 562.003951 257.995008 
L 566.19174 256.117332 
L 567.687379 255.752543 
L 568.88389 255.694711 
L 570.080401 255.901128 
L 570.977785 256.255832 
L 571.875168 256.796295 
L 573.071679 257.813218 
L 574.26819 259.151867 
L 575.763829 261.188176 
L 579.652491 266.755763 
L 580.849002 268.018711 
L 582.045513 268.913259 
L 582.942896 269.331089 
L 583.84028 269.5396 
L 584.737663 269.555766 
L 585.934174 269.319255 
L 587.130685 268.849095 
L 588.925452 267.863939 
L 592.514986 265.783847 
L 594.010625 265.230719 
L 595.207136 265.051831 
L 596.104519 265.110179 
L 597.001903 265.356098 
L 597.899286 265.803171 
L 598.796669 266.455789 
L 599.99318 267.629259 
L 601.488819 269.480516 
L 604.779225 273.787009 
L 605.975736 274.938612 
L 606.87312 275.552212 
L 607.770503 275.936217 
L 608.667886 276.094217 
L 609.56527 276.042275 
L 610.761781 275.690578 
L 611.958292 275.084784 
L 613.753059 273.879313 
L 617.043465 271.586141 
L 618.239976 270.987327 
L 619.436487 270.634633 
L 620.33387 270.572548 
L 621.231254 270.709767 
L 622.128637 271.060965 
L 623.02602 271.629295 
L 624.222532 272.701518 
L 625.718171 274.424057 
L 628.410321 277.684367 
L 629.606832 278.776589 
L 630.504215 279.34558 
L 631.401599 279.678151 
L 632.298982 279.774502 
L 633.196365 279.649706 
L 634.093749 279.329856 
L 635.29026 278.658401 
L 637.085027 277.310955 
L 640.375432 274.73094 
L 641.571943 274.050335 
L 642.768455 273.638612 
L 643.665838 273.549445 
L 644.563221 273.674553 
L 645.460605 274.026547 
L 646.357988 274.604571 
L 647.554499 275.689708 
L 649.349266 277.735288 
L 651.144033 279.751339 
L 652.340544 280.789526 
L 653.237927 281.31895 
L 654.135311 281.605537 
L 655.032694 281.645393 
L 655.930078 281.453016 
L 656.827461 281.057416 
L 658.023972 280.281758 
L 659.818739 278.800296 
L 662.510889 276.543101 
L 663.7074 275.769707 
L 664.903911 275.270941 
L 665.801295 275.128606 
L 666.698678 275.20922 
L 667.596061 275.525715 
L 668.493445 276.077007 
L 669.689956 277.132813 
L 671.484723 279.1231 
L 673.279489 281.035357 
L 674.476001 281.966441 
L 675.373384 282.396656 
L 676.270767 282.571919 
L 677.168151 282.493983 
L 678.065534 282.18413 
L 679.262045 281.474166 
L 680.757684 280.266356 
L 684.347218 277.183785 
L 685.543729 276.455445 
L 686.441112 276.108611 
L 687.338496 275.977133 
L 688.235879 276.088923 
L 689.133262 276.446454 
L 690.030646 277.041936 
L 691.227157 278.146917 
L 695.115818 282.153011 
L 696.013202 282.688394 
L 696.910585 282.967513 
L 697.807968 282.982791 
L 698.705352 282.749757 
L 699.602735 282.301742 
L 700.799246 281.448217 
L 702.893141 279.585889 
L 704.987035 277.792457 
L 706.183547 277.03598 
L 707.08093 276.680106 
L 707.978313 276.542133 
L 708.875697 276.641726 
L 709.77308 276.998489 
L 710.670463 277.608984 
L 711.866975 278.743378 
L 715.15738 282.18422 
L 716.054764 282.789812 
L 716.952147 283.141362 
L 717.84953 283.223876 
L 718.746914 283.047594 
L 719.644297 282.642619 
L 720.840808 281.823032 
L 722.635575 280.24203 
L 725.028597 278.136878 
L 726.225109 277.370747 
L 727.122492 277.015718 
L 728.019875 276.886501 
L 728.917259 277.009783 
L 729.814642 277.400679 
L 730.712025 278.044226 
L 731.908537 279.204042 
L 734.899815 282.304719 
L 735.797198 282.917078 
L 736.694581 283.270394 
L 737.591965 283.345291 
L 738.489348 283.151047 
L 739.386731 282.720598 
L 740.583243 281.865154 
L 742.677137 279.972435 
L 744.471904 278.415159 
L 745.668415 277.650936 
L 746.565798 277.300048 
L 747.463182 277.184706 
L 748.360565 277.335596 
L 749.257949 277.761354 
L 750.155332 278.438949 
L 751.351843 279.630519 
L 753.744865 282.157433 
L 754.642249 282.84825 
L 755.539632 283.283928 
L 756.437016 283.435199 
L 757.334399 283.305964 
L 758.231782 282.925997 
L 759.428293 282.110418 
L 761.22306 280.502706 
L 763.316955 278.643534 
L 764.513466 277.864196 
L 765.410849 277.511773 
L 766.308233 277.40674 
L 767.205616 277.576201 
L 768.102999 278.023221 
L 769.000383 278.720012 
L 770.496022 280.256108 
L 772.290788 282.141559 
L 773.188172 282.850687 
L 774.085555 283.300441 
L 774.982939 283.461927 
L 775.880322 283.336924 
L 776.777705 282.953189 
L 777.974217 282.125643 
L 779.768983 280.50475 
L 781.862878 278.663503 
L 783.059389 277.928239 
L 783.956772 277.6299 
L 784.854156 277.594899 
L 785.751539 277.844762 
L 786.648922 278.373929 
L 787.845434 279.440246 
L 791.135839 282.750798 
L 792.033223 283.257299 
L 792.930606 283.470122 
L 793.827989 283.385257 
L 794.725373 283.029812 
L 795.921884 282.221476 
L 797.716651 280.602914 
L 799.810545 278.762018 
L 801.007056 278.042685 
L 801.90444 277.768069 
L 802.801823 277.767205 
L 803.699207 278.059326 
L 804.59659 278.633184 
L 805.793101 279.750465 
L 808.485251 282.513895 
L 809.382635 283.113417 
L 810.280018 283.429302 
L 811.177401 283.441767 
L 812.074785 283.165476 
L 812.972168 282.642869 
L 814.168679 281.671317 
L 817.459085 278.737339 
L 818.356468 278.204327 
L 819.253852 277.904084 
L 820.151235 277.883315 
L 821.048619 278.164272 
L 821.946002 278.733686 
L 823.142513 279.848392 
L 825.834663 282.598132 
L 826.732047 283.174294 
L 827.62943 283.451763 
L 828.526813 283.41499 
L 829.424197 283.087118 
L 830.32158 282.519811 
L 831.817219 281.231367 
L 834.210241 279.061728 
L 835.406753 278.309508 
L 836.304136 278.017705 
L 837.201519 278.010484 
L 838.098903 278.314542 
L 838.996286 278.914929 
L 840.192797 280.059964 
L 842.58582 282.512008 
L 843.483203 283.122276 
L 844.380586 283.434884 
L 845.27797 283.425951 
L 846.175353 283.115003 
L 847.072736 282.55557 
L 848.568375 281.271593 
L 850.961398 279.111707 
L 852.157909 278.384634 
L 853.055292 278.123726 
L 853.952676 278.161067 
L 854.850059 278.515762 
L 855.747442 279.163392 
L 856.943954 280.35057 
L 859.037848 282.501937 
L 859.935231 283.123402 
L 860.832615 283.43953 
L 861.729998 283.428277 
L 862.627382 283.113016 
L 863.524765 282.545693 
L 865.020404 281.242454 
L 867.413426 279.103836 
L 868.31081 278.549056 
L 869.208193 278.242697 
L 870.105576 278.237378 
L 871.00296 278.554939 
L 871.900343 279.174408 
L 873.096854 280.343287 
L 875.190749 282.499761 
L 876.088132 283.121027 
L 876.985516 283.431675 
L 877.882899 283.40952 
L 878.780282 283.078134 
L 879.677666 282.494153 
L 881.173305 281.172851 
L 883.267199 279.28017 
L 884.164583 278.696059 
L 885.061966 278.358778 
L 885.959349 278.322929 
L 886.856733 278.613483 
L 887.754116 279.21363 
L 888.950627 280.371564 
L 891.044522 282.524179 
L 891.941905 283.136678 
L 892.839289 283.431691 
L 893.736672 283.388918 
L 894.634055 283.034618 
L 895.531439 282.428822 
L 897.027078 281.08523 
L 898.821844 279.451796 
L 899.719228 278.83966 
L 900.616611 278.471114 
L 901.513994 278.405555 
L 902.411378 278.672128 
L 903.308761 279.258372 
L 904.505272 280.409223 
L 906.599167 282.54094 
L 907.49655 283.143835 
L 908.393934 283.42819 
L 908.992189 283.426472 
L 909.889573 283.149872 
L 910.786956 282.594003 
L 911.983467 281.563065 
L 914.37649 279.382264 
L 915.273873 278.810588 
L 916.171256 278.499335 
L 916.769512 278.467524 
L 917.367767 278.588913 
L 918.265151 279.050086 
L 919.162534 279.798911 
L 922.45294 282.986934 
L 923.350323 283.371025 
L 923.948579 283.432258 
L 924.845962 283.238001 
L 925.743346 282.745735 
L 926.939857 281.764775 
L 929.632007 279.333138 
L 930.52939 278.804729 
L 931.426774 278.555946 
L 932.025029 278.573821 
L 932.623285 278.74771 
L 933.520668 279.287172 
L 934.717179 280.404705 
L 936.811074 282.54541 
L 937.708457 283.150624 
L 938.605841 283.420616 
L 939.204096 283.400048 
L 940.10148 283.088673 
L 940.998863 282.502589 
L 942.494502 281.164044 
L 944.289269 279.542902 
L 945.186652 278.967371 
L 946.084035 278.663374 
L 946.682291 278.643839 
L 947.280547 278.782476 
L 948.17793 279.278528 
L 949.075313 280.060905 
L 952.066591 282.970011 
L 952.963975 283.368456 
L 953.56223 283.432932 
L 954.160486 283.338641 
L 955.057869 282.929312 
L 955.955253 282.265547 
L 959.843914 278.991657 
L 960.741297 278.718573 
L 961.339553 278.726121 
L 961.937808 278.894382 
L 962.835192 279.43363 
L 964.031703 280.561191 
L 966.125597 282.677189 
L 966.723853 283.081229 
L 966.723853 283.081229 
" clip-path="url(#pad77562141)" style="fill: none; stroke: #1c86ee; stroke-width: 4"/>
   </g>
   <g id="line2d_13">
    <path d="M 69.340478 282.929555 
L 966.723853 11.011364 
L 966.723853 11.011364 
" clip-path="url(#pad77562141)" style="fill: none; stroke: #191970; stroke-width: 4"/>
   </g>
  </g>
 </g>
 <defs>
  <clipPath id="pad77562141">
   <rect x="42.418977" y="2.834646" width="951.226378" height="288.910709"/>
  </clipPath>
 </defs>
</svg>
