<?xml version="1.0" encoding="utf-8" standalone="no"?>
<!DOCTYPE svg PUBLIC "-//W3C//DTD SVG 1.1//EN"
  "http://www.w3.org/Graphics/SVG/1.1/DTD/svg11.dtd">
<svg xmlns:xlink="http://www.w3.org/1999/xlink" width="434.88pt" height="155.52pt" viewBox="0 0 434.88 155.52" xmlns="http://www.w3.org/2000/svg" version="1.1">
 <metadata>
  <rdf:RDF xmlns:dc="http://purl.org/dc/elements/1.1/" xmlns:cc="http://creativecommons.org/ns#" xmlns:rdf="http://www.w3.org/1999/02/22-rdf-syntax-ns#">
   <cc:Work>
    <dc:type rdf:resource="http://purl.org/dc/dcmitype/StillImage"/>
    <dc:date>2024-08-16T15:10:56.981961</dc:date>
    <dc:format>image/svg+xml</dc:format>
    <dc:creator>
     <cc:Agent>
      <dc:title>Matplotlib v3.8.4, https://matplotlib.org/</dc:title>
     </cc:Agent>
    </dc:creator>
   </cc:Work>
  </rdf:RDF>
 </metadata>
 <defs>
  <style type="text/css">*{stroke-linejoin: round; stroke-linecap: butt}</style>
 </defs>
 <g id="figure_1">
  <g id="patch_1">
   <path d="M 0 155.52 
L 434.88 155.52 
L 434.88 0 
L 0 0 
L 0 155.52 
z
" style="fill: none"/>
  </g>
  <g id="axes_1">
   <g id="patch_2">
    <path d="M 21.004646 121.825354 
L 423.54183 121.825354 
L 423.54183 6.670676 
L 21.004646 6.670676 
L 21.004646 121.825354 
z
" style="fill: none"/>
   </g>
   <g id="line2d_1">
    <path d="M 32.397207 94.483765 
L 66.954645 96.896579 
L 103.031091 99.191552 
L 140.816421 101.372291 
L 180.500511 103.44035 
L 221.323858 105.353611 
L 221.513734 94.484523 
L 255.881295 96.884598 
L 291.767865 99.169134 
L 329.553195 101.352013 
L 369.806914 103.450248 
L 410.440384 105.354072 
L 410.63026 94.48528 
L 412.149268 94.596031 
L 412.149268 94.596031 
" clip-path="url(#pd324c031d8)" style="fill: none; stroke: #800080; stroke-width: 4"/>
   </g>
   <g id="matplotlib.axis_1">
    <g id="xtick_1">
     <g id="line2d_2">
      <defs>
       <path id="mbaaff9b407" d="M 0 0 
L 0 -5 
" style="stroke: #000000"/>
      </defs>
      <g>
       <use xlink:href="#mbaaff9b407" x="32.397207" y="121.825354" style="stroke: #000000"/>
      </g>
     </g>
     <g id="text_1">
      <!-- $0.0$ -->
      <g transform="translate(14.477207 146.600979) scale(0.28 -0.28)">
       <defs>
        <path id="Cmr10-30" d="M 1600 -141 
Q 816 -141 533 504 
Q 250 1150 250 2041 
Q 250 2597 351 3087 
Q 453 3578 754 3920 
Q 1056 4263 1600 4263 
Q 2022 4263 2290 4056 
Q 2559 3850 2700 3523 
Q 2841 3197 2892 2823 
Q 2944 2450 2944 2041 
Q 2944 1491 2842 1011 
Q 2741 531 2444 195 
Q 2147 -141 1600 -141 
z
M 1600 25 
Q 1956 25 2131 390 
Q 2306 756 2347 1200 
Q 2388 1644 2388 2144 
Q 2388 2625 2347 3031 
Q 2306 3438 2132 3767 
Q 1959 4097 1600 4097 
Q 1238 4097 1063 3765 
Q 888 3434 847 3029 
Q 806 2625 806 2144 
Q 806 1788 823 1472 
Q 841 1156 916 820 
Q 991 484 1158 254 
Q 1325 25 1600 25 
z
" transform="scale(0.015625)"/>
        <path id="Cmmi10-3a" d="M 538 353 
Q 538 497 644 600 
Q 750 703 891 703 
Q 978 703 1062 656 
Q 1147 609 1194 525 
Q 1241 441 1241 353 
Q 1241 213 1137 106 
Q 1034 0 891 0 
Q 750 0 644 106 
Q 538 213 538 353 
z
" transform="scale(0.015625)"/>
       </defs>
       <use xlink:href="#Cmr10-30" transform="translate(0 0.390625)"/>
       <use xlink:href="#Cmmi10-3a" transform="translate(50 0.390625)"/>
       <use xlink:href="#Cmr10-30" transform="translate(77.685547 0.390625)"/>
      </g>
     </g>
    </g>
    <g id="xtick_2">
     <g id="line2d_3">
      <g>
       <use xlink:href="#mbaaff9b407" x="127.335223" y="121.825354" style="stroke: #000000"/>
      </g>
     </g>
     <g id="text_2">
      <!-- $0.5$ -->
      <g transform="translate(109.415223 146.600979) scale(0.28 -0.28)">
       <defs>
        <path id="Cmr10-35" d="M 556 728 
Q 622 541 758 387 
Q 894 234 1080 148 
Q 1266 63 1466 63 
Q 1928 63 2103 422 
Q 2278 781 2278 1294 
Q 2278 1516 2270 1667 
Q 2263 1819 2228 1959 
Q 2169 2184 2020 2353 
Q 1872 2522 1656 2522 
Q 1441 2522 1286 2456 
Q 1131 2391 1034 2303 
Q 938 2216 863 2119 
Q 788 2022 769 2016 
L 697 2016 
Q 681 2016 657 2036 
Q 634 2056 634 2075 
L 634 4213 
Q 634 4228 654 4245 
Q 675 4263 697 4263 
L 716 4263 
Q 1147 4056 1631 4056 
Q 2106 4056 2547 4263 
L 2566 4263 
Q 2588 4263 2606 4247 
Q 2625 4231 2625 4213 
L 2625 4153 
Q 2625 4122 2613 4122 
Q 2394 3831 2064 3668 
Q 1734 3506 1381 3506 
Q 1125 3506 856 3578 
L 856 2369 
Q 1069 2541 1236 2614 
Q 1403 2688 1663 2688 
Q 2016 2688 2295 2484 
Q 2575 2281 2725 1954 
Q 2875 1628 2875 1288 
Q 2875 903 2686 575 
Q 2497 247 2172 53 
Q 1847 -141 1466 -141 
Q 1150 -141 886 21 
Q 622 184 470 459 
Q 319 734 319 1044 
Q 319 1188 412 1278 
Q 506 1369 647 1369 
Q 788 1369 883 1276 
Q 978 1184 978 1044 
Q 978 906 883 811 
Q 788 716 647 716 
Q 625 716 597 720 
Q 569 725 556 728 
z
" transform="scale(0.015625)"/>
       </defs>
       <use xlink:href="#Cmr10-30" transform="translate(0 0.390625)"/>
       <use xlink:href="#Cmmi10-3a" transform="translate(50 0.390625)"/>
       <use xlink:href="#Cmr10-35" transform="translate(77.685547 0.390625)"/>
      </g>
     </g>
    </g>
    <g id="xtick_3">
     <g id="line2d_4">
      <g>
       <use xlink:href="#mbaaff9b407" x="222.273238" y="121.825354" style="stroke: #000000"/>
      </g>
     </g>
     <g id="text_3">
      <!-- $1.0$ -->
      <g transform="translate(204.353238 146.600979) scale(0.28 -0.28)">
       <defs>
        <path id="Cmr10-31" d="M 594 0 
L 594 225 
Q 1394 225 1394 428 
L 1394 3788 
Q 1063 3628 556 3628 
L 556 3853 
Q 1341 3853 1741 4263 
L 1831 4263 
Q 1853 4263 1873 4245 
Q 1894 4228 1894 4206 
L 1894 428 
Q 1894 225 2694 225 
L 2694 0 
L 594 0 
z
" transform="scale(0.015625)"/>
       </defs>
       <use xlink:href="#Cmr10-31" transform="translate(0 0.390625)"/>
       <use xlink:href="#Cmmi10-3a" transform="translate(50 0.390625)"/>
       <use xlink:href="#Cmr10-30" transform="translate(77.685547 0.390625)"/>
      </g>
     </g>
    </g>
    <g id="xtick_4">
     <g id="line2d_5">
      <g>
       <use xlink:href="#mbaaff9b407" x="317.211253" y="121.825354" style="stroke: #000000"/>
      </g>
     </g>
     <g id="text_4">
      <!-- $1.5$ -->
      <g transform="translate(299.291253 146.600979) scale(0.28 -0.28)">
       <use xlink:href="#Cmr10-31" transform="translate(0 0.390625)"/>
       <use xlink:href="#Cmmi10-3a" transform="translate(50 0.390625)"/>
       <use xlink:href="#Cmr10-35" transform="translate(77.685547 0.390625)"/>
      </g>
     </g>
    </g>
    <g id="xtick_5">
     <g id="line2d_6">
      <g>
       <use xlink:href="#mbaaff9b407" x="412.149268" y="121.825354" style="stroke: #000000"/>
      </g>
     </g>
     <g id="text_5">
      <!-- $2.0$ -->
      <g transform="translate(394.229268 146.600979) scale(0.28 -0.28)">
       <defs>
        <path id="Cmr10-32" d="M 319 0 
L 319 172 
Q 319 188 331 206 
L 1325 1306 
Q 1550 1550 1690 1715 
Q 1831 1881 1968 2097 
Q 2106 2313 2186 2536 
Q 2266 2759 2266 3009 
Q 2266 3272 2169 3511 
Q 2072 3750 1880 3894 
Q 1688 4038 1416 4038 
Q 1138 4038 916 3870 
Q 694 3703 603 3438 
Q 628 3444 672 3444 
Q 816 3444 917 3347 
Q 1019 3250 1019 3097 
Q 1019 2950 917 2848 
Q 816 2747 672 2747 
Q 522 2747 420 2851 
Q 319 2956 319 3097 
Q 319 3338 409 3548 
Q 500 3759 670 3923 
Q 841 4088 1055 4175 
Q 1269 4263 1509 4263 
Q 1875 4263 2190 4108 
Q 2506 3953 2690 3670 
Q 2875 3388 2875 3009 
Q 2875 2731 2753 2481 
Q 2631 2231 2440 2026 
Q 2250 1822 1953 1562 
Q 1656 1303 1563 1216 
L 838 519 
L 1453 519 
Q 1906 519 2211 526 
Q 2516 534 2534 550 
Q 2609 631 2688 1141 
L 2875 1141 
L 2694 0 
L 319 0 
z
" transform="scale(0.015625)"/>
       </defs>
       <use xlink:href="#Cmr10-32" transform="translate(0 0.390625)"/>
       <use xlink:href="#Cmmi10-3a" transform="translate(50 0.390625)"/>
       <use xlink:href="#Cmr10-30" transform="translate(77.685547 0.390625)"/>
      </g>
     </g>
    </g>
   </g>
   <g id="matplotlib.axis_2">
    <g id="ytick_1">
     <g id="line2d_7">
      <defs>
       <path id="md6219abc03" d="M 0 0 
L 5 0 
" style="stroke: #000000"/>
      </defs>
      <g>
       <use xlink:href="#md6219abc03" x="21.004646" y="100.425202" style="stroke: #000000"/>
      </g>
     </g>
     <g id="text_6">
      <!-- $1$ -->
      <g transform="translate(3.504646 111.063014) scale(0.28 -0.28)">
       <use xlink:href="#Cmr10-31" transform="translate(0 0.390625)"/>
      </g>
     </g>
    </g>
    <g id="ytick_2">
     <g id="line2d_8">
      <g>
       <use xlink:href="#md6219abc03" x="21.004646" y="78.660748" style="stroke: #000000"/>
      </g>
     </g>
     <g id="text_7">
      <!-- $2$ -->
      <g transform="translate(3.504646 89.29856) scale(0.28 -0.28)">
       <use xlink:href="#Cmr10-32" transform="translate(0 0.390625)"/>
      </g>
     </g>
    </g>
    <g id="ytick_3">
     <g id="line2d_9">
      <g>
       <use xlink:href="#md6219abc03" x="21.004646" y="56.896294" style="stroke: #000000"/>
      </g>
     </g>
     <g id="text_8">
      <!-- $3$ -->
      <g transform="translate(3.504646 67.534106) scale(0.28 -0.28)">
       <defs>
        <path id="Cmr10-33" d="M 609 494 
Q 759 275 1012 169 
Q 1266 63 1556 63 
Q 1928 63 2084 380 
Q 2241 697 2241 1100 
Q 2241 1281 2208 1462 
Q 2175 1644 2097 1800 
Q 2019 1956 1883 2050 
Q 1747 2144 1550 2144 
L 1125 2144 
Q 1069 2144 1069 2203 
L 1069 2259 
Q 1069 2309 1125 2309 
L 1478 2338 
Q 1703 2338 1851 2506 
Q 2000 2675 2069 2917 
Q 2138 3159 2138 3378 
Q 2138 3684 1994 3881 
Q 1850 4078 1556 4078 
Q 1313 4078 1091 3986 
Q 869 3894 738 3706 
Q 750 3709 759 3711 
Q 769 3713 781 3713 
Q 925 3713 1022 3613 
Q 1119 3513 1119 3372 
Q 1119 3234 1022 3134 
Q 925 3034 781 3034 
Q 641 3034 541 3134 
Q 441 3234 441 3372 
Q 441 3647 606 3850 
Q 772 4053 1033 4158 
Q 1294 4263 1556 4263 
Q 1750 4263 1965 4205 
Q 2181 4147 2356 4039 
Q 2531 3931 2642 3762 
Q 2753 3594 2753 3378 
Q 2753 3109 2633 2881 
Q 2513 2653 2303 2487 
Q 2094 2322 1844 2241 
Q 2122 2188 2372 2031 
Q 2622 1875 2773 1631 
Q 2925 1388 2925 1106 
Q 2925 753 2731 467 
Q 2538 181 2222 20 
Q 1906 -141 1556 -141 
Q 1256 -141 954 -26 
Q 653 88 461 316 
Q 269 544 269 863 
Q 269 1022 375 1128 
Q 481 1234 641 1234 
Q 744 1234 830 1186 
Q 916 1138 964 1050 
Q 1013 963 1013 863 
Q 1013 706 903 600 
Q 794 494 641 494 
L 609 494 
z
" transform="scale(0.015625)"/>
       </defs>
       <use xlink:href="#Cmr10-33" transform="translate(0 0.390625)"/>
      </g>
     </g>
    </g>
    <g id="ytick_4">
     <g id="line2d_10">
      <g>
       <use xlink:href="#md6219abc03" x="21.004646" y="35.13184" style="stroke: #000000"/>
      </g>
     </g>
     <g id="text_9">
      <!-- $4$ -->
      <g transform="translate(3.504646 45.769652) scale(0.28 -0.28)">
       <defs>
        <path id="Cmr10-34" d="M 178 1056 
L 178 1281 
L 2156 4231 
Q 2178 4263 2222 4263 
L 2316 4263 
Q 2388 4263 2388 4191 
L 2388 1281 
L 3016 1281 
L 3016 1056 
L 2388 1056 
L 2388 428 
Q 2388 297 2575 261 
Q 2763 225 3009 225 
L 3009 0 
L 1247 0 
L 1247 225 
Q 1494 225 1681 261 
Q 1869 297 1869 428 
L 1869 1056 
L 178 1056 
z
M 391 1281 
L 1906 1281 
L 1906 3547 
L 391 1281 
z
" transform="scale(0.015625)"/>
       </defs>
       <use xlink:href="#Cmr10-34" transform="translate(0 0.390625)"/>
      </g>
     </g>
    </g>
    <g id="ytick_5">
     <g id="line2d_11">
      <g>
       <use xlink:href="#md6219abc03" x="21.004646" y="13.367386" style="stroke: #000000"/>
      </g>
     </g>
     <g id="text_10">
      <!-- $5$ -->
      <g transform="translate(3.504646 24.005198) scale(0.28 -0.28)">
       <use xlink:href="#Cmr10-35" transform="translate(0 0.390625)"/>
      </g>
     </g>
    </g>
   </g>
   <g id="line2d_12">
    <path d="M 32.397207 9.956787 
L 35.435224 18.689805 
L 38.283364 26.259849 
L 41.131505 33.276215 
L 43.979645 39.779399 
L 46.827786 45.806937 
L 49.675926 51.393617 
L 52.713943 56.904659 
L 55.751959 61.986999 
L 58.979852 66.950211 
L 62.39762 71.764417 
L 65.625513 75.921561 
L 69.043281 79.9539 
L 72.46105 83.631191 
L 75.688942 86.813342 
L 79.106711 89.89341 
L 82.52448 92.7085 
L 86.511876 95.681278 
L 90.499273 98.35508 
L 94.296793 100.650638 
L 98.28419 102.823878 
L 102.461463 104.865925 
L 107.39824 107.002211 
L 112.335016 108.875501 
L 117.271793 110.51814 
L 122.398446 112.009877 
L 128.474479 113.532165 
L 134.550512 114.827606 
L 141.386049 116.054428 
L 149.170966 117.204396 
L 157.525512 118.200242 
L 161.133156 118.56626 
L 161.323032 9.943278 
L 164.361049 18.677222 
L 167.209189 26.248186 
L 170.05733 33.265405 
L 172.90547 39.76938 
L 175.753611 45.797651 
L 178.601751 51.38501 
L 181.639767 56.89669 
L 184.487908 61.672258 
L 187.525924 66.383461 
L 190.753817 70.984296 
L 194.171585 75.446857 
L 197.399478 79.300477 
L 200.817247 83.03828 
L 204.235015 86.447036 
L 207.652784 89.562552 
L 211.64018 92.85257 
L 215.437701 95.678087 
L 219.425098 98.352182 
L 223.222618 100.648019 
L 227.210015 102.821514 
L 231.387287 104.863831 
L 236.324064 107.000383 
L 241.260841 108.873883 
L 246.197618 110.516716 
L 251.324271 112.008646 
L 257.400304 113.531112 
L 263.476337 114.826709 
L 270.311874 116.053687 
L 278.096791 117.203796 
L 286.451336 118.199759 
L 290.058981 118.56582 
L 290.248857 9.92977 
L 293.286873 18.664639 
L 296.135014 26.236524 
L 298.983154 33.254596 
L 301.831295 39.759362 
L 304.679435 45.788365 
L 307.527576 51.376403 
L 310.565592 56.88872 
L 313.413733 61.664871 
L 316.451749 66.376662 
L 319.679642 70.978134 
L 323.09741 75.441161 
L 326.325303 79.295316 
L 329.743071 83.03351 
L 333.16084 86.442691 
L 336.578608 89.558608 
L 340.566005 92.84904 
L 344.363526 95.674897 
L 348.350922 98.349284 
L 352.148443 100.645401 
L 356.135839 102.81915 
L 360.313112 104.861737 
L 365.249889 106.998555 
L 370.186666 108.872264 
L 375.123443 110.515291 
L 380.250095 112.007416 
L 386.326128 113.53006 
L 392.402161 114.825812 
L 399.237698 116.052945 
L 407.022616 117.203196 
L 412.149268 117.840417 
L 412.149268 117.840417 
" clip-path="url(#pd324c031d8)" style="fill: none; stroke: #2baad5; stroke-width: 4"/>
   </g>
   <g id="patch_3">
    <path d="M 21.004646 121.825354 
L 21.004646 6.670676 
" style="fill: none; stroke: #000000; stroke-width: 2; stroke-linejoin: miter; stroke-linecap: square"/>
   </g>
   <g id="patch_4">
    <path d="M 21.004646 121.825354 
L 423.54183 121.825354 
" style="fill: none; stroke: #000000; stroke-width: 2; stroke-linejoin: miter; stroke-linecap: square"/>
   </g>
  </g>
 </g>
 <defs>
  <clipPath id="pd324c031d8">
   <rect x="21.004646" y="6.670676" width="402.537185" height="115.154679"/>
  </clipPath>
 </defs>
</svg>
