<?xml version="1.0" encoding="utf-8" standalone="no"?>
<!DOCTYPE svg PUBLIC "-//W3C//DTD SVG 1.1//EN"
  "http://www.w3.org/Graphics/SVG/1.1/DTD/svg11.dtd">
<svg xmlns:xlink="http://www.w3.org/1999/xlink" width="469.44pt" height="144pt" viewBox="0 0 469.44 144" xmlns="http://www.w3.org/2000/svg" version="1.1">
 <metadata>
  <rdf:RDF xmlns:dc="http://purl.org/dc/elements/1.1/" xmlns:cc="http://creativecommons.org/ns#" xmlns:rdf="http://www.w3.org/1999/02/22-rdf-syntax-ns#">
   <cc:Work>
    <dc:type rdf:resource="http://purl.org/dc/dcmitype/StillImage"/>
    <dc:date>2024-08-16T15:10:56.764909</dc:date>
    <dc:format>image/svg+xml</dc:format>
    <dc:creator>
     <cc:Agent>
      <dc:title>Matplotlib v3.8.4, https://matplotlib.org/</dc:title>
     </cc:Agent>
    </dc:creator>
   </cc:Work>
  </rdf:RDF>
 </metadata>
 <defs>
  <style type="text/css">*{stroke-linejoin: round; stroke-linecap: butt}</style>
 </defs>
 <g id="figure_1">
  <g id="patch_1">
   <path d="M 0 144 
L 469.44 144 
L 469.44 0 
L 0 0 
L 0 144 
z
" style="fill: none"/>
  </g>
  <g id="axes_1">
   <g id="patch_2">
    <path d="M 64.170808 127.743444 
L 466.605354 127.743444 
L 466.605354 10.496538 
L 64.170808 10.496538 
L 64.170808 127.743444 
z
" style="fill: none"/>
   </g>
   <g id="line2d_1">
    <path d="M 75.560465 13.815762 
L 77.268913 13.948875 
L 78.977362 14.304955 
L 80.68581 14.879756 
L 82.584087 15.768939 
L 84.482363 16.914142 
L 86.570467 18.458919 
L 88.65857 20.289274 
L 90.936502 22.594665 
L 93.404261 25.432727 
L 96.061847 28.853599 
L 98.909262 32.897047 
L 102.136331 37.893127 
L 105.743056 43.911711 
L 109.919263 51.320261 
L 115.803919 62.257846 
L 127.383404 83.871234 
L 131.939267 91.846036 
L 135.735819 98.063578 
L 139.152716 103.244651 
L 142.189958 107.468636 
L 145.037372 111.066056 
L 147.694959 114.080647 
L 150.162718 116.564239 
L 152.630477 118.728152 
L 154.908408 120.430402 
L 156.996512 121.733849 
L 159.084616 122.785499 
L 161.17272 123.580604 
L 163.070996 124.077728 
L 164.969272 124.357921 
L 166.867548 124.420109 
L 168.765824 124.264051 
L 170.664101 123.890368 
L 172.562377 123.300548 
L 174.65048 122.404965 
L 176.738584 121.255139 
L 178.826688 119.856764 
L 181.104619 118.056015 
L 183.382551 115.978505 
L 185.85031 113.430093 
L 188.507896 110.35947 
L 191.355311 106.722199 
L 194.392553 102.484237 
L 197.80945 97.329905 
L 201.79583 90.88873 
L 206.54152 82.774658 
L 214.134625 69.273799 
L 222.107385 55.220695 
L 226.853075 47.29242 
L 230.839455 41.048055 
L 234.44618 35.810289 
L 237.673249 31.508837 
L 240.710491 27.829724 
L 243.557905 24.731749 
L 246.215492 22.16522 
L 248.683251 20.07541 
L 251.15101 18.277311 
L 253.428941 16.882349 
L 255.706873 15.745959 
L 257.984804 14.870744 
L 260.072908 14.29894 
L 262.161012 13.947669 
L 264.249115 13.815995 
L 265.957564 13.901087 
L 267.666012 14.20926 
L 269.374461 14.737165 
L 271.272737 15.575573 
L 273.171013 16.671623 
L 275.069289 18.016569 
L 277.157393 19.771871 
L 279.435325 22.000165 
L 281.713256 24.535439 
L 284.181015 27.604236 
L 286.838602 31.250388 
L 289.875844 35.80328 
L 293.292741 41.345246 
L 297.279121 48.260602 
L 302.404466 57.643618 
L 319.109296 88.600851 
L 323.095676 95.33772 
L 326.702401 101.010499 
L 329.929471 105.682025 
L 332.966712 109.684175 
L 335.814127 113.055049 
L 338.471713 115.843616 
L 340.939472 118.106045 
L 343.217404 119.902623 
L 345.495335 121.409294 
L 347.583439 122.528883 
L 349.671543 123.393084 
L 351.569819 123.953775 
L 353.468095 124.298011 
L 355.366371 124.424472 
L 357.264647 124.33267 
L 359.162924 124.02297 
L 361.0612 123.496603 
L 362.959476 122.755681 
L 365.04758 121.696459 
L 367.135683 120.3865 
L 369.413615 118.679158 
L 371.691546 116.691358 
L 374.159305 114.235248 
L 376.816892 111.257679 
L 379.664306 107.711907 
L 382.701548 103.561251 
L 386.118445 98.491508 
L 389.914997 92.44149 
L 394.47086 84.738317 
L 400.924999 73.332885 
L 411.365518 54.877415 
L 416.111208 46.968729 
L 420.097588 40.746458 
L 423.704313 35.532318 
L 426.931383 31.255053 
L 429.968624 27.600501 
L 432.816039 24.527264 
L 435.473625 21.985094 
L 437.941384 19.918519 
L 440.409143 18.144433 
L 442.687075 16.772041 
L 444.965006 15.658583 
L 447.242937 14.806334 
L 449.331041 14.255702 
L 451.419145 13.925555 
L 453.507249 13.814846 
L 455.215697 13.925708 
L 455.215697 13.925708 
" clip-path="url(#p97634226e2)" style="fill: none; stroke: #800080; stroke-width: 4"/>
   </g>
   <g id="matplotlib.axis_1">
    <g id="xtick_1"/>
    <g id="xtick_2"/>
    <g id="xtick_3"/>
    <g id="xtick_4"/>
    <g id="xtick_5"/>
   </g>
   <g id="matplotlib.axis_2">
    <g id="ytick_1">
     <g id="line2d_2">
      <defs>
       <path id="m50e7fb954e" d="M 0 0 
L 5 0 
" style="stroke: #000000"/>
      </defs>
      <g>
       <use xlink:href="#m50e7fb954e" x="64.170808" y="124.42516" style="stroke: #000000"/>
      </g>
     </g>
     <g id="text_1">
      <!-- $-1.0$ -->
      <g transform="translate(2.990808 135.062973) scale(0.28 -0.28)">
       <defs>
        <path id="Cmsy10-a1" d="M 653 1472 
Q 600 1472 565 1512 
Q 531 1553 531 1600 
Q 531 1647 565 1687 
Q 600 1728 653 1728 
L 4325 1728 
Q 4375 1728 4408 1687 
Q 4441 1647 4441 1600 
Q 4441 1553 4408 1512 
Q 4375 1472 4325 1472 
L 653 1472 
z
" transform="scale(0.015625)"/>
        <path id="Cmr10-31" d="M 594 0 
L 594 225 
Q 1394 225 1394 428 
L 1394 3788 
Q 1063 3628 556 3628 
L 556 3853 
Q 1341 3853 1741 4263 
L 1831 4263 
Q 1853 4263 1873 4245 
Q 1894 4228 1894 4206 
L 1894 428 
Q 1894 225 2694 225 
L 2694 0 
L 594 0 
z
" transform="scale(0.015625)"/>
        <path id="Cmmi10-3a" d="M 538 353 
Q 538 497 644 600 
Q 750 703 891 703 
Q 978 703 1062 656 
Q 1147 609 1194 525 
Q 1241 441 1241 353 
Q 1241 213 1137 106 
Q 1034 0 891 0 
Q 750 0 644 106 
Q 538 213 538 353 
z
" transform="scale(0.015625)"/>
        <path id="Cmr10-30" d="M 1600 -141 
Q 816 -141 533 504 
Q 250 1150 250 2041 
Q 250 2597 351 3087 
Q 453 3578 754 3920 
Q 1056 4263 1600 4263 
Q 2022 4263 2290 4056 
Q 2559 3850 2700 3523 
Q 2841 3197 2892 2823 
Q 2944 2450 2944 2041 
Q 2944 1491 2842 1011 
Q 2741 531 2444 195 
Q 2147 -141 1600 -141 
z
M 1600 25 
Q 1956 25 2131 390 
Q 2306 756 2347 1200 
Q 2388 1644 2388 2144 
Q 2388 2625 2347 3031 
Q 2306 3438 2132 3767 
Q 1959 4097 1600 4097 
Q 1238 4097 1063 3765 
Q 888 3434 847 3029 
Q 806 2625 806 2144 
Q 806 1788 823 1472 
Q 841 1156 916 820 
Q 991 484 1158 254 
Q 1325 25 1600 25 
z
" transform="scale(0.015625)"/>
       </defs>
       <use xlink:href="#Cmsy10-a1" transform="translate(0 0.390625)"/>
       <use xlink:href="#Cmr10-31" transform="translate(77.685547 0.390625)"/>
       <use xlink:href="#Cmmi10-3a" transform="translate(127.685547 0.390625)"/>
       <use xlink:href="#Cmr10-30" transform="translate(155.371094 0.390625)"/>
      </g>
     </g>
    </g>
    <g id="ytick_2">
     <g id="line2d_3">
      <g>
       <use xlink:href="#m50e7fb954e" x="64.170808" y="96.77258" style="stroke: #000000"/>
      </g>
     </g>
     <g id="text_2">
      <!-- $-0.5$ -->
      <g transform="translate(2.990808 107.410393) scale(0.28 -0.28)">
       <defs>
        <path id="Cmr10-35" d="M 556 728 
Q 622 541 758 387 
Q 894 234 1080 148 
Q 1266 63 1466 63 
Q 1928 63 2103 422 
Q 2278 781 2278 1294 
Q 2278 1516 2270 1667 
Q 2263 1819 2228 1959 
Q 2169 2184 2020 2353 
Q 1872 2522 1656 2522 
Q 1441 2522 1286 2456 
Q 1131 2391 1034 2303 
Q 938 2216 863 2119 
Q 788 2022 769 2016 
L 697 2016 
Q 681 2016 657 2036 
Q 634 2056 634 2075 
L 634 4213 
Q 634 4228 654 4245 
Q 675 4263 697 4263 
L 716 4263 
Q 1147 4056 1631 4056 
Q 2106 4056 2547 4263 
L 2566 4263 
Q 2588 4263 2606 4247 
Q 2625 4231 2625 4213 
L 2625 4153 
Q 2625 4122 2613 4122 
Q 2394 3831 2064 3668 
Q 1734 3506 1381 3506 
Q 1125 3506 856 3578 
L 856 2369 
Q 1069 2541 1236 2614 
Q 1403 2688 1663 2688 
Q 2016 2688 2295 2484 
Q 2575 2281 2725 1954 
Q 2875 1628 2875 1288 
Q 2875 903 2686 575 
Q 2497 247 2172 53 
Q 1847 -141 1466 -141 
Q 1150 -141 886 21 
Q 622 184 470 459 
Q 319 734 319 1044 
Q 319 1188 412 1278 
Q 506 1369 647 1369 
Q 788 1369 883 1276 
Q 978 1184 978 1044 
Q 978 906 883 811 
Q 788 716 647 716 
Q 625 716 597 720 
Q 569 725 556 728 
z
" transform="scale(0.015625)"/>
       </defs>
       <use xlink:href="#Cmsy10-a1" transform="translate(0 0.390625)"/>
       <use xlink:href="#Cmr10-30" transform="translate(77.685547 0.390625)"/>
       <use xlink:href="#Cmmi10-3a" transform="translate(127.685547 0.390625)"/>
       <use xlink:href="#Cmr10-35" transform="translate(155.371094 0.390625)"/>
      </g>
     </g>
    </g>
    <g id="ytick_3">
     <g id="line2d_4">
      <g>
       <use xlink:href="#m50e7fb954e" x="64.170808" y="69.120001" style="stroke: #000000"/>
      </g>
     </g>
     <g id="text_3">
      <!-- $0.0$ -->
      <g transform="translate(24.830808 79.757813) scale(0.28 -0.28)">
       <use xlink:href="#Cmr10-30" transform="translate(0 0.390625)"/>
       <use xlink:href="#Cmmi10-3a" transform="translate(50 0.390625)"/>
       <use xlink:href="#Cmr10-30" transform="translate(77.685547 0.390625)"/>
      </g>
     </g>
    </g>
    <g id="ytick_4">
     <g id="line2d_5">
      <g>
       <use xlink:href="#m50e7fb954e" x="64.170808" y="41.467421" style="stroke: #000000"/>
      </g>
     </g>
     <g id="text_4">
      <!-- $0.5$ -->
      <g transform="translate(24.830808 52.105233) scale(0.28 -0.28)">
       <use xlink:href="#Cmr10-30" transform="translate(0 0.390625)"/>
       <use xlink:href="#Cmmi10-3a" transform="translate(50 0.390625)"/>
       <use xlink:href="#Cmr10-35" transform="translate(77.685547 0.390625)"/>
      </g>
     </g>
    </g>
    <g id="ytick_5">
     <g id="line2d_6">
      <g>
       <use xlink:href="#m50e7fb954e" x="64.170808" y="13.814841" style="stroke: #000000"/>
      </g>
     </g>
     <g id="text_5">
      <!-- $1.0$ -->
      <g transform="translate(24.830808 24.452653) scale(0.28 -0.28)">
       <use xlink:href="#Cmr10-31" transform="translate(0 0.390625)"/>
       <use xlink:href="#Cmmi10-3a" transform="translate(50 0.390625)"/>
       <use xlink:href="#Cmr10-30" transform="translate(77.685547 0.390625)"/>
      </g>
     </g>
    </g>
   </g>
   <g id="line2d_7">
    <path d="M 75.560465 13.818281 
L 75.94012 13.966636 
L 76.319775 14.329451 
L 76.889258 15.251453 
L 77.458741 16.605218 
L 78.218051 19.034591 
L 79.167189 22.945221 
L 80.306155 28.70866 
L 81.634948 36.587187 
L 83.91288 51.812536 
L 88.65857 83.781116 
L 90.556846 94.753954 
L 92.265295 103.232968 
L 93.594088 108.820704 
L 94.922882 113.517358 
L 96.061847 116.832403 
L 97.200813 119.503839 
L 98.339779 121.557512 
L 99.288917 122.825494 
L 100.238055 123.710278 
L 100.997365 124.158469 
L 101.756676 124.387249 
L 102.515986 124.410795 
L 103.275297 124.242273 
L 104.224435 123.780248 
L 105.173573 123.062291 
L 106.312539 121.896153 
L 107.641332 120.167836 
L 108.970125 118.108069 
L 110.868401 114.689354 
L 113.146333 110.039025 
L 116.183575 103.278245 
L 127.952887 76.791729 
L 131.369784 69.93516 
L 135.735819 61.776347 
L 141.24082 51.987626 
L 144.467889 46.646773 
L 147.505131 42.051803 
L 150.542373 37.911936 
L 153.389787 34.438664 
L 156.237202 31.344491 
L 159.084616 28.605829 
L 161.93203 26.196042 
L 164.779444 24.087563 
L 167.626859 22.253162 
L 170.664101 20.569303 
L 173.701342 19.137406 
L 176.928412 17.861971 
L 180.345309 16.755758 
L 183.952034 15.825565 
L 187.748586 15.074608 
L 191.924794 14.480198 
L 196.480656 14.066308 
L 201.416174 13.848126 
L 204.643244 13.863254 
L 205.022899 14.117876 
L 205.592382 14.88456 
L 206.161865 16.100581 
L 206.921175 18.350019 
L 207.870313 22.070998 
L 209.009279 27.660567 
L 210.338072 35.367728 
L 212.426176 49.149393 
L 217.171867 81.378556 
L 219.070143 92.650343 
L 220.588764 100.534082 
L 222.107385 107.301699 
L 223.436178 112.250934 
L 224.764971 116.309972 
L 225.903937 119.091983 
L 227.042903 121.251515 
L 227.992041 122.599928 
L 228.941179 123.560644 
L 229.890317 124.156462 
L 230.649627 124.386499 
L 231.408938 124.411242 
L 232.168248 124.243835 
L 233.117386 123.783098 
L 234.066524 123.066311 
L 235.20549 121.901449 
L 236.534283 120.174327 
L 237.863077 118.115654 
L 239.761353 114.698124 
L 242.039284 110.048795 
L 245.266354 102.857459 
L 255.706873 79.192142 
L 259.313597 71.80001 
L 263.489805 63.86704 
L 268.994806 53.971324 
L 272.60153 47.870957 
L 275.8286 42.887829 
L 278.486187 39.163194 
L 281.333601 35.558694 
L 284.181015 32.339942 
L 287.028429 29.485082 
L 289.875844 26.968205 
L 292.723258 24.761881 
L 295.570672 22.838661 
L 298.607914 21.069547 
L 301.645156 19.561455 
L 304.682398 18.286722 
L 307.909467 17.159832 
L 311.516192 16.142842 
L 315.312744 15.313536 
L 319.488952 14.645958 
L 323.854987 14.179982 
L 328.600677 13.899387 
L 333.346368 13.817417 
L 333.726023 13.960523 
L 334.105678 14.318393 
L 334.675161 15.233114 
L 335.244644 16.580555 
L 336.003954 19.001772 
L 336.953092 22.903717 
L 338.092058 28.658984 
L 339.420851 36.529624 
L 341.698783 51.749728 
L 346.444473 83.725265 
L 348.342749 94.705289 
L 350.051198 103.191416 
L 351.379991 108.785755 
L 352.708785 113.48809 
L 353.84775 116.808415 
L 354.986716 119.485057 
L 356.125682 121.543556 
L 357.07482 122.815285 
L 358.023958 123.703603 
L 358.783268 124.154447 
L 359.542579 124.385742 
L 360.301889 124.411681 
L 361.0612 124.245389 
L 362.010338 123.785942 
L 362.959476 123.070326 
L 364.098442 121.90674 
L 365.427235 120.180816 
L 366.756028 118.123236 
L 368.654304 114.706889 
L 370.932236 110.058565 
L 374.159305 102.867806 
L 384.599824 79.201722 
L 388.206549 71.808966 
L 392.382756 63.875403 
L 397.887757 53.979275 
L 401.494482 47.878308 
L 404.721551 42.89451 
L 407.379138 39.169234 
L 410.226552 35.564107 
L 413.073967 32.344758 
L 415.921381 29.48934 
L 418.768795 26.971948 
L 421.616209 24.765153 
L 424.463624 22.841505 
L 427.500865 21.071996 
L 430.538107 19.56354 
L 433.575349 18.288474 
L 436.802419 17.161262 
L 440.409143 16.143974 
L 444.205696 15.314394 
L 448.381903 14.646561 
L 452.747938 14.180356 
L 455.215697 14.007616 
L 455.215697 14.007616 
" clip-path="url(#p97634226e2)" style="fill: none; stroke: #2baad5; stroke-width: 4"/>
   </g>
   <g id="patch_3">
    <path d="M 64.170808 127.743444 
L 64.170808 10.496538 
" style="fill: none; stroke: #000000; stroke-width: 2; stroke-linejoin: miter; stroke-linecap: square"/>
   </g>
  </g>
 </g>
 <defs>
  <clipPath id="p97634226e2">
   <rect x="64.170808" y="10.496538" width="402.434547" height="117.246906"/>
  </clipPath>
 </defs>
</svg>
