<?xml version="1.0" encoding="utf-8" standalone="no"?>
<!DOCTYPE svg PUBLIC "-//W3C//DTD SVG 1.1//EN"
  "http://www.w3.org/Graphics/SVG/1.1/DTD/svg11.dtd">
<svg xmlns:xlink="http://www.w3.org/1999/xlink" width="469.44pt" height="144pt" viewBox="0 0 469.44 144" xmlns="http://www.w3.org/2000/svg" version="1.1">
 <metadata>
  <rdf:RDF xmlns:dc="http://purl.org/dc/elements/1.1/" xmlns:cc="http://creativecommons.org/ns#" xmlns:rdf="http://www.w3.org/1999/02/22-rdf-syntax-ns#">
   <cc:Work>
    <dc:type rdf:resource="http://purl.org/dc/dcmitype/StillImage"/>
    <dc:date>2024-08-16T13:36:30.277304</dc:date>
    <dc:format>image/svg+xml</dc:format>
    <dc:creator>
     <cc:Agent>
      <dc:title>Matplotlib v3.8.4, https://matplotlib.org/</dc:title>
     </cc:Agent>
    </dc:creator>
   </cc:Work>
  </rdf:RDF>
 </metadata>
 <defs>
  <style type="text/css">*{stroke-linejoin: round; stroke-linecap: butt}</style>
 </defs>
 <g id="figure_1">
  <g id="patch_1">
   <path d="M 0 144 
L 469.44 144 
L 469.44 0 
L 0 0 
L 0 144 
z
" style="fill: none"/>
  </g>
  <g id="axes_1">
   <g id="patch_2">
    <path d="M 64.170808 127.743464 
L 466.605354 127.743464 
L 466.605354 10.496533 
L 64.170808 10.496533 
L 64.170808 127.743464 
z
" style="fill: none"/>
   </g>
   <g id="line2d_1">
    <path d="M 75.560465 13.815263 
L 77.268913 13.941806 
L 78.977362 14.291414 
L 80.68581 14.859877 
L 82.584087 15.742207 
L 84.482363 16.880779 
L 86.570467 18.418564 
L 88.65857 20.242289 
L 90.936502 22.540766 
L 93.404261 25.371979 
L 96.061847 28.786011 
L 98.909262 32.822981 
L 102.136331 37.812794 
L 105.743056 43.825712 
L 109.919263 51.229414 
L 115.803919 62.163595 
L 127.383404 83.781249 
L 131.939267 91.761349 
L 135.735819 97.984719 
L 139.152716 103.172051 
L 142.189958 107.402283 
L 145.037372 111.006133 
L 147.694959 114.027172 
L 150.162718 116.51708 
L 152.630477 118.687602 
L 154.908408 120.396176 
L 156.996512 121.705582 
L 159.084616 122.763315 
L 161.17272 123.564605 
L 163.070996 124.067415 
L 164.969272 124.353336 
L 166.867548 124.421267 
L 168.765824 124.270949 
L 170.664101 123.902978 
L 172.562377 123.31882 
L 174.65048 122.429379 
L 176.738584 121.285575 
L 178.826688 119.893068 
L 181.104619 118.098518 
L 183.382551 116.026949 
L 185.85031 113.484648 
L 188.507896 110.420164 
L 191.355311 106.788922 
L 194.392553 102.556712 
L 197.80945 97.407889 
L 201.79583 90.971856 
L 206.54152 82.861941 
L 213.944797 69.702858 
L 222.297212 54.980781 
L 227.042903 47.066159 
L 231.029283 40.837195 
L 234.636007 35.615926 
L 237.863077 31.331384 
L 240.900319 27.669409 
L 243.747733 24.588706 
L 246.405319 22.039192 
L 248.873078 19.96559 
L 251.340837 18.184275 
L 253.618769 16.805068 
L 255.8967 15.684709 
L 258.174632 14.825531 
L 260.262735 14.268518 
L 262.350839 13.932006 
L 264.438943 13.814983 
L 266.147392 13.917968 
L 267.85584 14.244302 
L 269.564289 14.789981 
L 271.462565 15.647651 
L 273.360841 16.762353 
L 275.259117 18.125266 
L 277.347221 19.899511 
L 279.625152 22.14717 
L 281.903084 24.70068 
L 284.56067 28.037822 
L 287.408085 32.001276 
L 290.445326 36.618945 
L 293.862223 42.221868 
L 297.848603 49.19037 
L 303.163777 58.970672 
L 318.160158 86.847882 
L 322.336366 94.00653 
L 325.943091 99.776819 
L 329.17016 104.549289 
L 332.207402 108.657426 
L 335.054816 112.136248 
L 337.712403 115.032296 
L 340.180162 117.399744 
L 342.458093 119.297095 
L 344.736025 120.907762 
L 346.824128 122.12503 
L 348.912232 123.088736 
L 351.000336 123.794514 
L 352.898612 124.209568 
L 354.796888 124.407188 
L 356.695164 124.386611 
L 358.593441 124.147922 
L 360.491717 123.692068 
L 362.389993 123.020874 
L 364.478097 122.037099 
L 366.566201 120.800895 
L 368.844132 119.171656 
L 371.122063 117.259026 
L 373.589822 114.880476 
L 376.247409 111.981308 
L 378.904996 108.755236 
L 381.942237 104.70198 
L 385.169307 100.014079 
L 388.776032 94.377651 
L 392.952239 87.435138 
L 398.45724 77.823686 
L 413.073967 52.06139 
L 417.440002 44.92546 
L 421.236554 39.12737 
L 424.653451 34.301723 
L 427.880521 30.13417 
L 430.727935 26.80209 
L 433.575349 23.817278 
L 436.232936 21.361539 
L 438.700695 19.378317 
L 441.168454 17.689559 
L 443.446385 16.39743 
L 445.724317 15.365058 
L 447.81242 14.648742 
L 449.900524 14.153007 
L 451.988628 13.877564 
L 454.076732 13.824716 
L 455.215697 13.919279 
L 455.215697 13.919279 
" clip-path="url(#p8a943eb60a)" style="fill: none; stroke: #800080; stroke-width: 4"/>
   </g>
   <g id="matplotlib.axis_1">
    <g id="xtick_1"/>
    <g id="xtick_2"/>
    <g id="xtick_3"/>
    <g id="xtick_4"/>
    <g id="xtick_5"/>
   </g>
   <g id="matplotlib.axis_2">
    <g id="ytick_1">
     <g id="line2d_2">
      <defs>
       <path id="me84e9da114" d="M 0 0 
L 5 0 
" style="stroke: #000000"/>
      </defs>
      <g>
       <use xlink:href="#me84e9da114" x="64.170808" y="124.425158" style="stroke: #000000"/>
      </g>
     </g>
     <g id="text_1">
      <!-- $-1.0$ -->
      <g transform="translate(2.990808 135.062971) scale(0.28 -0.28)">
       <defs>
        <path id="Cmsy10-a1" d="M 653 1472 
Q 600 1472 565 1512 
Q 531 1553 531 1600 
Q 531 1647 565 1687 
Q 600 1728 653 1728 
L 4325 1728 
Q 4375 1728 4408 1687 
Q 4441 1647 4441 1600 
Q 4441 1553 4408 1512 
Q 4375 1472 4325 1472 
L 653 1472 
z
" transform="scale(0.015625)"/>
        <path id="Cmr10-31" d="M 594 0 
L 594 225 
Q 1394 225 1394 428 
L 1394 3788 
Q 1063 3628 556 3628 
L 556 3853 
Q 1341 3853 1741 4263 
L 1831 4263 
Q 1853 4263 1873 4245 
Q 1894 4228 1894 4206 
L 1894 428 
Q 1894 225 2694 225 
L 2694 0 
L 594 0 
z
" transform="scale(0.015625)"/>
        <path id="Cmmi10-3a" d="M 538 353 
Q 538 497 644 600 
Q 750 703 891 703 
Q 978 703 1062 656 
Q 1147 609 1194 525 
Q 1241 441 1241 353 
Q 1241 213 1137 106 
Q 1034 0 891 0 
Q 750 0 644 106 
Q 538 213 538 353 
z
" transform="scale(0.015625)"/>
        <path id="Cmr10-30" d="M 1600 -141 
Q 816 -141 533 504 
Q 250 1150 250 2041 
Q 250 2597 351 3087 
Q 453 3578 754 3920 
Q 1056 4263 1600 4263 
Q 2022 4263 2290 4056 
Q 2559 3850 2700 3523 
Q 2841 3197 2892 2823 
Q 2944 2450 2944 2041 
Q 2944 1491 2842 1011 
Q 2741 531 2444 195 
Q 2147 -141 1600 -141 
z
M 1600 25 
Q 1956 25 2131 390 
Q 2306 756 2347 1200 
Q 2388 1644 2388 2144 
Q 2388 2625 2347 3031 
Q 2306 3438 2132 3767 
Q 1959 4097 1600 4097 
Q 1238 4097 1063 3765 
Q 888 3434 847 3029 
Q 806 2625 806 2144 
Q 806 1788 823 1472 
Q 841 1156 916 820 
Q 991 484 1158 254 
Q 1325 25 1600 25 
z
" transform="scale(0.015625)"/>
       </defs>
       <use xlink:href="#Cmsy10-a1" transform="translate(0 0.390625)"/>
       <use xlink:href="#Cmr10-31" transform="translate(77.685547 0.390625)"/>
       <use xlink:href="#Cmmi10-3a" transform="translate(127.685547 0.390625)"/>
       <use xlink:href="#Cmr10-30" transform="translate(155.371094 0.390625)"/>
      </g>
     </g>
    </g>
    <g id="ytick_2">
     <g id="line2d_3">
      <g>
       <use xlink:href="#me84e9da114" x="64.170808" y="96.772579" style="stroke: #000000"/>
      </g>
     </g>
     <g id="text_2">
      <!-- $-0.5$ -->
      <g transform="translate(2.990808 107.410392) scale(0.28 -0.28)">
       <defs>
        <path id="Cmr10-35" d="M 556 728 
Q 622 541 758 387 
Q 894 234 1080 148 
Q 1266 63 1466 63 
Q 1928 63 2103 422 
Q 2278 781 2278 1294 
Q 2278 1516 2270 1667 
Q 2263 1819 2228 1959 
Q 2169 2184 2020 2353 
Q 1872 2522 1656 2522 
Q 1441 2522 1286 2456 
Q 1131 2391 1034 2303 
Q 938 2216 863 2119 
Q 788 2022 769 2016 
L 697 2016 
Q 681 2016 657 2036 
Q 634 2056 634 2075 
L 634 4213 
Q 634 4228 654 4245 
Q 675 4263 697 4263 
L 716 4263 
Q 1147 4056 1631 4056 
Q 2106 4056 2547 4263 
L 2566 4263 
Q 2588 4263 2606 4247 
Q 2625 4231 2625 4213 
L 2625 4153 
Q 2625 4122 2613 4122 
Q 2394 3831 2064 3668 
Q 1734 3506 1381 3506 
Q 1125 3506 856 3578 
L 856 2369 
Q 1069 2541 1236 2614 
Q 1403 2688 1663 2688 
Q 2016 2688 2295 2484 
Q 2575 2281 2725 1954 
Q 2875 1628 2875 1288 
Q 2875 903 2686 575 
Q 2497 247 2172 53 
Q 1847 -141 1466 -141 
Q 1150 -141 886 21 
Q 622 184 470 459 
Q 319 734 319 1044 
Q 319 1188 412 1278 
Q 506 1369 647 1369 
Q 788 1369 883 1276 
Q 978 1184 978 1044 
Q 978 906 883 811 
Q 788 716 647 716 
Q 625 716 597 720 
Q 569 725 556 728 
z
" transform="scale(0.015625)"/>
       </defs>
       <use xlink:href="#Cmsy10-a1" transform="translate(0 0.390625)"/>
       <use xlink:href="#Cmr10-30" transform="translate(77.685547 0.390625)"/>
       <use xlink:href="#Cmmi10-3a" transform="translate(127.685547 0.390625)"/>
       <use xlink:href="#Cmr10-35" transform="translate(155.371094 0.390625)"/>
      </g>
     </g>
    </g>
    <g id="ytick_3">
     <g id="line2d_4">
      <g>
       <use xlink:href="#me84e9da114" x="64.170808" y="69.12" style="stroke: #000000"/>
      </g>
     </g>
     <g id="text_3">
      <!-- $0.0$ -->
      <g transform="translate(24.830808 79.757813) scale(0.28 -0.28)">
       <use xlink:href="#Cmr10-30" transform="translate(0 0.390625)"/>
       <use xlink:href="#Cmmi10-3a" transform="translate(50 0.390625)"/>
       <use xlink:href="#Cmr10-30" transform="translate(77.685547 0.390625)"/>
      </g>
     </g>
    </g>
    <g id="ytick_4">
     <g id="line2d_5">
      <g>
       <use xlink:href="#me84e9da114" x="64.170808" y="41.467421" style="stroke: #000000"/>
      </g>
     </g>
     <g id="text_4">
      <!-- $0.5$ -->
      <g transform="translate(24.830808 52.105233) scale(0.28 -0.28)">
       <use xlink:href="#Cmr10-30" transform="translate(0 0.390625)"/>
       <use xlink:href="#Cmmi10-3a" transform="translate(50 0.390625)"/>
       <use xlink:href="#Cmr10-35" transform="translate(77.685547 0.390625)"/>
      </g>
     </g>
    </g>
    <g id="ytick_5">
     <g id="line2d_6">
      <g>
       <use xlink:href="#me84e9da114" x="64.170808" y="13.814842" style="stroke: #000000"/>
      </g>
     </g>
     <g id="text_5">
      <!-- $1.0$ -->
      <g transform="translate(24.830808 24.452654) scale(0.28 -0.28)">
       <use xlink:href="#Cmr10-31" transform="translate(0 0.390625)"/>
       <use xlink:href="#Cmmi10-3a" transform="translate(50 0.390625)"/>
       <use xlink:href="#Cmr10-30" transform="translate(77.685547 0.390625)"/>
      </g>
     </g>
    </g>
   </g>
   <g id="line2d_7">
    <path d="M 75.560465 13.841153 
L 75.94012 14.057964 
L 76.509603 14.771712 
L 77.079086 15.938048 
L 77.838396 18.125281 
L 78.787534 21.779754 
L 79.9265 27.306876 
L 81.255293 34.957828 
L 83.153569 47.3863 
L 88.65857 84.505721 
L 90.556846 95.384291 
L 92.265295 103.771506 
L 93.783916 109.992492 
L 95.112709 114.484071 
L 96.251675 117.616808 
L 97.390641 120.116508 
L 98.339779 121.737469 
L 99.288917 122.956408 
L 100.238055 123.794951 
L 100.997365 124.208008 
L 101.756676 124.404198 
L 102.515986 124.396623 
L 103.275297 124.199037 
L 104.224435 123.703426 
L 105.173573 122.95499 
L 106.312539 121.755922 
L 107.641332 119.997384 
L 109.159953 117.583595 
L 111.058229 114.086293 
L 113.525988 108.968531 
L 117.132713 100.820442 
L 126.244438 80.140703 
L 129.661335 73.067022 
L 133.078232 66.45449 
L 138.203578 57.113777 
L 142.569613 49.537939 
L 145.796683 44.402857 
L 148.644097 40.283159 
L 151.301684 36.798321 
L 154.149098 33.444252 
L 156.996512 30.462514 
L 159.843926 27.828275 
L 162.691341 25.514431 
L 165.538755 23.493412 
L 168.575997 21.630536 
L 171.613239 20.038362 
L 174.65048 18.688559 
L 177.87755 17.490873 
L 181.484275 16.405042 
L 185.280827 15.513134 
L 189.267207 14.814612 
L 193.633242 14.287124 
L 198.189105 13.959921 
L 203.314451 13.818198 
L 204.643244 13.919737 
L 205.022899 14.241174 
L 205.592382 15.10288 
L 206.161865 16.404327 
L 206.921175 18.764805 
L 207.870313 22.602871 
L 209.009279 28.299664 
L 210.338072 36.111441 
L 212.426176 49.974494 
L 217.171867 82.13058 
L 219.070143 93.311026 
L 220.588764 101.102823 
L 222.107385 107.783307 
L 223.436178 112.648912 
L 224.575144 116.114827 
L 225.714109 118.936665 
L 226.853075 121.134955 
L 227.802213 122.513114 
L 228.751351 123.501945 
L 229.700489 124.124128 
L 230.4598 124.373844 
L 231.21911 124.417293 
L 231.978421 124.267277 
L 232.927559 123.82666 
L 233.876697 123.128144 
L 235.015662 121.983302 
L 236.344456 120.275153 
L 237.863077 117.91572 
L 239.761353 114.467459 
L 242.229112 109.386757 
L 245.076526 103.018163 
L 256.276355 77.736373 
L 260.072908 70.081151 
L 264.249115 62.259175 
L 269.943944 52.117252 
L 273.360841 46.465451 
L 276.398083 41.888343 
L 279.245497 38.00852 
L 282.092911 34.525002 
L 284.940326 31.421145 
L 287.78774 28.673475 
L 290.635154 26.255401 
L 293.482568 24.13936 
L 296.51981 22.184985 
L 299.367224 20.607949 
L 302.404466 19.170236 
L 305.631536 17.889059 
L 309.048433 16.777774 
L 312.655158 15.842745 
L 316.45171 15.087462 
L 320.627917 14.489017 
L 325.18378 14.071405 
L 330.119298 13.849875 
L 333.346368 13.838644 
L 333.726023 14.050244 
L 334.295506 14.756726 
L 334.864989 15.91614 
L 335.624299 18.094821 
L 336.573437 21.740102 
L 337.712403 27.258509 
L 339.041196 34.901863 
L 340.939472 47.324216 
L 346.444473 84.450749 
L 348.342749 95.336538 
L 350.051198 103.730686 
L 351.569819 109.958492 
L 352.898612 114.456421 
L 354.037578 117.594592 
L 355.176544 120.098984 
L 356.125682 121.723891 
L 357.07482 122.946579 
L 358.023958 123.788655 
L 358.783268 124.204422 
L 359.542579 124.403083 
L 360.301889 124.397873 
L 361.0612 124.202503 
L 362.010338 123.709449 
L 362.959476 122.963332 
L 364.098442 121.76675 
L 365.427235 120.010449 
L 366.945856 117.599261 
L 368.844132 114.104219 
L 371.311891 108.988272 
L 374.728788 101.277695 
L 384.030341 80.160292 
L 387.447238 73.085197 
L 391.053963 66.116877 
L 396.369136 56.45241 
L 400.545344 49.23891 
L 403.772413 44.129035 
L 406.43 40.295673 
L 409.087587 36.809558 
L 411.935001 33.454274 
L 414.782415 30.471394 
L 417.629829 27.836097 
L 420.477244 25.521283 
L 423.324658 23.49938 
L 426.3619 21.635692 
L 429.399142 20.04277 
L 432.436383 18.692279 
L 435.663453 17.493911 
L 439.270178 16.407473 
L 443.06673 15.514993 
L 447.05311 14.815947 
L 451.419145 14.287995 
L 455.215697 14.000771 
L 455.215697 14.000771 
" clip-path="url(#p8a943eb60a)" style="fill: none; stroke: #2baad5; stroke-width: 4"/>
   </g>
   <g id="patch_3">
    <path d="M 64.170808 127.743464 
L 64.170808 10.496533 
" style="fill: none; stroke: #000000; stroke-width: 2; stroke-linejoin: miter; stroke-linecap: square"/>
   </g>
  </g>
 </g>
 <defs>
  <clipPath id="p8a943eb60a">
   <rect x="64.170808" y="10.496533" width="402.434547" height="117.246931"/>
  </clipPath>
 </defs>
</svg>
