<?xml version="1.0" encoding="utf-8" standalone="no"?>
<!DOCTYPE svg PUBLIC "-//W3C//DTD SVG 1.1//EN"
  "http://www.w3.org/Graphics/SVG/1.1/DTD/svg11.dtd">
<svg xmlns:xlink="http://www.w3.org/1999/xlink" width="987.84pt" height="325.44pt" viewBox="0 0 987.84 325.44" xmlns="http://www.w3.org/2000/svg" version="1.1">
 <metadata>
  <rdf:RDF xmlns:dc="http://purl.org/dc/elements/1.1/" xmlns:cc="http://creativecommons.org/ns#" xmlns:rdf="http://www.w3.org/1999/02/22-rdf-syntax-ns#">
   <cc:Work>
    <dc:type rdf:resource="http://purl.org/dc/dcmitype/StillImage"/>
    <dc:date>2024-04-27T16:44:32.107511</dc:date>
    <dc:format>image/svg+xml</dc:format>
    <dc:creator>
     <cc:Agent>
      <dc:title>Matplotlib v3.7.0, https://matplotlib.org/</dc:title>
     </cc:Agent>
    </dc:creator>
   </cc:Work>
  </rdf:RDF>
 </metadata>
 <defs>
  <style type="text/css">*{stroke-linejoin: round; stroke-linecap: butt}</style>
 </defs>
 <g id="figure_1">
  <g id="patch_1">
   <path d="M 0 325.44 
L 987.84 325.44 
L 987.84 0 
L 0 0 
L 0 325.44 
z
" style="fill: none"/>
  </g>
  <g id="axes_1">
   <g id="patch_2">
    <path d="M 42.418977 291.745354 
L 985.005354 291.745354 
L 985.005354 2.834646 
L 42.418977 2.834646 
L 42.418977 291.745354 
z
" style="fill: none"/>
   </g>
   <g id="line2d_1">
    <path d="M 69.09595 282.929555 
L 83.323669 282.822446 
L 92.808815 282.516696 
L 101.99755 281.999006 
L 111.779106 281.220079 
L 122.449896 280.137662 
L 134.306328 278.702438 
L 147.644814 276.85843 
L 163.058177 274.494976 
L 180.546414 271.58239 
L 200.99876 267.944343 
L 227.379323 263.010921 
L 337.940555 242.078966 
L 384.773463 233.615958 
L 463.025917 219.739776 
L 649.468317 186.935317 
L 958.328381 132.843881 
L 958.328381 132.843881 
" clip-path="url(#p5923aae939)" style="fill: none; stroke: #ff6347; stroke-width: 6"/>
   </g>
   <g id="matplotlib.axis_1">
    <g id="xtick_1">
     <g id="line2d_2">
      <defs>
       <path id="m841af4006f" d="M 0 0 
L 0 -5 
" style="stroke: #000000"/>
      </defs>
      <g>
       <use xlink:href="#m841af4006f" x="69.09595" y="291.745354" style="stroke: #000000"/>
      </g>
     </g>
     <g id="text_1">
      <!-- $0$ -->
      <g transform="translate(62.09595 316.520979) scale(0.28 -0.28)">
       <defs>
        <path id="Cmr10-30" d="M 1600 -141 
Q 816 -141 533 504 
Q 250 1150 250 2041 
Q 250 2597 351 3087 
Q 453 3578 754 3920 
Q 1056 4263 1600 4263 
Q 2022 4263 2290 4056 
Q 2559 3850 2700 3523 
Q 2841 3197 2892 2823 
Q 2944 2450 2944 2041 
Q 2944 1491 2842 1011 
Q 2741 531 2444 195 
Q 2147 -141 1600 -141 
z
M 1600 25 
Q 1956 25 2131 390 
Q 2306 756 2347 1200 
Q 2388 1644 2388 2144 
Q 2388 2625 2347 3031 
Q 2306 3438 2132 3767 
Q 1959 4097 1600 4097 
Q 1238 4097 1063 3765 
Q 888 3434 847 3029 
Q 806 2625 806 2144 
Q 806 1788 823 1472 
Q 841 1156 916 820 
Q 991 484 1158 254 
Q 1325 25 1600 25 
z
" transform="scale(0.015625)"/>
       </defs>
       <use xlink:href="#Cmr10-30" transform="translate(0 0.390625)"/>
      </g>
     </g>
    </g>
    <g id="xtick_2">
     <g id="line2d_3">
      <g>
       <use xlink:href="#m841af4006f" x="365.50676" y="291.745354" style="stroke: #000000"/>
      </g>
     </g>
     <g id="text_2">
      <!-- $10$ -->
      <g transform="translate(351.50676 316.520979) scale(0.28 -0.28)">
       <defs>
        <path id="Cmr10-31" d="M 594 0 
L 594 225 
Q 1394 225 1394 428 
L 1394 3788 
Q 1063 3628 556 3628 
L 556 3853 
Q 1341 3853 1741 4263 
L 1831 4263 
Q 1853 4263 1873 4245 
Q 1894 4228 1894 4206 
L 1894 428 
Q 1894 225 2694 225 
L 2694 0 
L 594 0 
z
" transform="scale(0.015625)"/>
       </defs>
       <use xlink:href="#Cmr10-31" transform="translate(0 0.390625)"/>
       <use xlink:href="#Cmr10-30" transform="translate(50 0.390625)"/>
      </g>
     </g>
    </g>
    <g id="xtick_3">
     <g id="line2d_4">
      <g>
       <use xlink:href="#m841af4006f" x="661.917571" y="291.745354" style="stroke: #000000"/>
      </g>
     </g>
     <g id="text_3">
      <!-- $20$ -->
      <g transform="translate(647.917571 316.520979) scale(0.28 -0.28)">
       <defs>
        <path id="Cmr10-32" d="M 319 0 
L 319 172 
Q 319 188 331 206 
L 1325 1306 
Q 1550 1550 1690 1715 
Q 1831 1881 1968 2097 
Q 2106 2313 2186 2536 
Q 2266 2759 2266 3009 
Q 2266 3272 2169 3511 
Q 2072 3750 1880 3894 
Q 1688 4038 1416 4038 
Q 1138 4038 916 3870 
Q 694 3703 603 3438 
Q 628 3444 672 3444 
Q 816 3444 917 3347 
Q 1019 3250 1019 3097 
Q 1019 2950 917 2848 
Q 816 2747 672 2747 
Q 522 2747 420 2851 
Q 319 2956 319 3097 
Q 319 3338 409 3548 
Q 500 3759 670 3923 
Q 841 4088 1055 4175 
Q 1269 4263 1509 4263 
Q 1875 4263 2190 4108 
Q 2506 3953 2690 3670 
Q 2875 3388 2875 3009 
Q 2875 2731 2753 2481 
Q 2631 2231 2440 2026 
Q 2250 1822 1953 1562 
Q 1656 1303 1563 1216 
L 838 519 
L 1453 519 
Q 1906 519 2211 526 
Q 2516 534 2534 550 
Q 2609 631 2688 1141 
L 2875 1141 
L 2694 0 
L 319 0 
z
" transform="scale(0.015625)"/>
       </defs>
       <use xlink:href="#Cmr10-32" transform="translate(0 0.390625)"/>
       <use xlink:href="#Cmr10-30" transform="translate(50 0.390625)"/>
      </g>
     </g>
    </g>
    <g id="xtick_4">
     <g id="line2d_5">
      <g>
       <use xlink:href="#m841af4006f" x="958.328381" y="291.745354" style="stroke: #000000"/>
      </g>
     </g>
     <g id="text_4">
      <!-- $30$ -->
      <g transform="translate(944.328381 316.520979) scale(0.28 -0.28)">
       <defs>
        <path id="Cmr10-33" d="M 609 494 
Q 759 275 1012 169 
Q 1266 63 1556 63 
Q 1928 63 2084 380 
Q 2241 697 2241 1100 
Q 2241 1281 2208 1462 
Q 2175 1644 2097 1800 
Q 2019 1956 1883 2050 
Q 1747 2144 1550 2144 
L 1125 2144 
Q 1069 2144 1069 2203 
L 1069 2259 
Q 1069 2309 1125 2309 
L 1478 2338 
Q 1703 2338 1851 2506 
Q 2000 2675 2069 2917 
Q 2138 3159 2138 3378 
Q 2138 3684 1994 3881 
Q 1850 4078 1556 4078 
Q 1313 4078 1091 3986 
Q 869 3894 738 3706 
Q 750 3709 759 3711 
Q 769 3713 781 3713 
Q 925 3713 1022 3613 
Q 1119 3513 1119 3372 
Q 1119 3234 1022 3134 
Q 925 3034 781 3034 
Q 641 3034 541 3134 
Q 441 3234 441 3372 
Q 441 3647 606 3850 
Q 772 4053 1033 4158 
Q 1294 4263 1556 4263 
Q 1750 4263 1965 4205 
Q 2181 4147 2356 4039 
Q 2531 3931 2642 3762 
Q 2753 3594 2753 3378 
Q 2753 3109 2633 2881 
Q 2513 2653 2303 2487 
Q 2094 2322 1844 2241 
Q 2122 2188 2372 2031 
Q 2622 1875 2773 1631 
Q 2925 1388 2925 1106 
Q 2925 753 2731 467 
Q 2538 181 2222 20 
Q 1906 -141 1556 -141 
Q 1256 -141 954 -26 
Q 653 88 461 316 
Q 269 544 269 863 
Q 269 1022 375 1128 
Q 481 1234 641 1234 
Q 744 1234 830 1186 
Q 916 1138 964 1050 
Q 1013 963 1013 863 
Q 1013 706 903 600 
Q 794 494 641 494 
L 609 494 
z
" transform="scale(0.015625)"/>
       </defs>
       <use xlink:href="#Cmr10-33" transform="translate(0 0.390625)"/>
       <use xlink:href="#Cmr10-30" transform="translate(50 0.390625)"/>
      </g>
     </g>
    </g>
   </g>
   <g id="matplotlib.axis_2">
    <g id="ytick_1">
     <g id="line2d_6">
      <defs>
       <path id="me66f585d3b" d="M 0 0 
L 5 0 
" style="stroke: #000000"/>
      </defs>
      <g>
       <use xlink:href="#me66f585d3b" x="42.418977" y="282.929555" style="stroke: #000000"/>
      </g>
     </g>
     <g id="text_5">
      <!-- $1.0$ -->
      <g transform="translate(3.078977 293.567367) scale(0.28 -0.28)">
       <defs>
        <path id="Cmmi10-3a" d="M 538 353 
Q 538 497 644 600 
Q 750 703 891 703 
Q 978 703 1062 656 
Q 1147 609 1194 525 
Q 1241 441 1241 353 
Q 1241 213 1137 106 
Q 1034 0 891 0 
Q 750 0 644 106 
Q 538 213 538 353 
z
" transform="scale(0.015625)"/>
       </defs>
       <use xlink:href="#Cmr10-31" transform="translate(0 0.390625)"/>
       <use xlink:href="#Cmmi10-3a" transform="translate(50 0.390625)"/>
       <use xlink:href="#Cmr10-30" transform="translate(77.685547 0.390625)"/>
      </g>
     </g>
    </g>
    <g id="ytick_2">
     <g id="line2d_7">
      <g>
       <use xlink:href="#me66f585d3b" x="42.418977" y="218.187128" style="stroke: #000000"/>
      </g>
     </g>
     <g id="text_6">
      <!-- $1.5$ -->
      <g transform="translate(3.078977 228.824941) scale(0.28 -0.28)">
       <defs>
        <path id="Cmr10-35" d="M 556 728 
Q 622 541 758 387 
Q 894 234 1080 148 
Q 1266 63 1466 63 
Q 1928 63 2103 422 
Q 2278 781 2278 1294 
Q 2278 1516 2270 1667 
Q 2263 1819 2228 1959 
Q 2169 2184 2020 2353 
Q 1872 2522 1656 2522 
Q 1441 2522 1286 2456 
Q 1131 2391 1034 2303 
Q 938 2216 863 2119 
Q 788 2022 769 2016 
L 697 2016 
Q 681 2016 657 2036 
Q 634 2056 634 2075 
L 634 4213 
Q 634 4228 654 4245 
Q 675 4263 697 4263 
L 716 4263 
Q 1147 4056 1631 4056 
Q 2106 4056 2547 4263 
L 2566 4263 
Q 2588 4263 2606 4247 
Q 2625 4231 2625 4213 
L 2625 4153 
Q 2625 4122 2613 4122 
Q 2394 3831 2064 3668 
Q 1734 3506 1381 3506 
Q 1125 3506 856 3578 
L 856 2369 
Q 1069 2541 1236 2614 
Q 1403 2688 1663 2688 
Q 2016 2688 2295 2484 
Q 2575 2281 2725 1954 
Q 2875 1628 2875 1288 
Q 2875 903 2686 575 
Q 2497 247 2172 53 
Q 1847 -141 1466 -141 
Q 1150 -141 886 21 
Q 622 184 470 459 
Q 319 734 319 1044 
Q 319 1188 412 1278 
Q 506 1369 647 1369 
Q 788 1369 883 1276 
Q 978 1184 978 1044 
Q 978 906 883 811 
Q 788 716 647 716 
Q 625 716 597 720 
Q 569 725 556 728 
z
" transform="scale(0.015625)"/>
       </defs>
       <use xlink:href="#Cmr10-31" transform="translate(0 0.390625)"/>
       <use xlink:href="#Cmmi10-3a" transform="translate(50 0.390625)"/>
       <use xlink:href="#Cmr10-35" transform="translate(77.685547 0.390625)"/>
      </g>
     </g>
    </g>
    <g id="ytick_3">
     <g id="line2d_8">
      <g>
       <use xlink:href="#me66f585d3b" x="42.418977" y="153.444702" style="stroke: #000000"/>
      </g>
     </g>
     <g id="text_7">
      <!-- $2.0$ -->
      <g transform="translate(3.078977 164.082515) scale(0.28 -0.28)">
       <use xlink:href="#Cmr10-32" transform="translate(0 0.390625)"/>
       <use xlink:href="#Cmmi10-3a" transform="translate(50 0.390625)"/>
       <use xlink:href="#Cmr10-30" transform="translate(77.685547 0.390625)"/>
      </g>
     </g>
    </g>
    <g id="ytick_4">
     <g id="line2d_9">
      <g>
       <use xlink:href="#me66f585d3b" x="42.418977" y="88.702276" style="stroke: #000000"/>
      </g>
     </g>
     <g id="text_8">
      <!-- $2.5$ -->
      <g transform="translate(3.078977 99.340088) scale(0.28 -0.28)">
       <use xlink:href="#Cmr10-32" transform="translate(0 0.390625)"/>
       <use xlink:href="#Cmmi10-3a" transform="translate(50 0.390625)"/>
       <use xlink:href="#Cmr10-35" transform="translate(77.685547 0.390625)"/>
      </g>
     </g>
    </g>
    <g id="ytick_5">
     <g id="line2d_10">
      <g>
       <use xlink:href="#me66f585d3b" x="42.418977" y="23.959849" style="stroke: #000000"/>
      </g>
     </g>
     <g id="text_9">
      <!-- $3.0$ -->
      <g transform="translate(3.078977 34.597662) scale(0.28 -0.28)">
       <use xlink:href="#Cmr10-33" transform="translate(0 0.390625)"/>
       <use xlink:href="#Cmmi10-3a" transform="translate(50 0.390625)"/>
       <use xlink:href="#Cmr10-30" transform="translate(77.685547 0.390625)"/>
      </g>
     </g>
    </g>
   </g>
   <g id="line2d_11">
    <path d="M 69.09595 282.929555 
L 958.328381 127.547731 
L 958.328381 127.547731 
" clip-path="url(#p5923aae939)" style="fill: none; stroke: #ff0000; stroke-width: 6"/>
   </g>
   <g id="patch_3">
    <path d="M 42.418977 291.745354 
L 42.418977 2.834646 
" style="fill: none; stroke: #000000; stroke-width: 2; stroke-linejoin: miter; stroke-linecap: square"/>
   </g>
   <g id="patch_4">
    <path d="M 42.418977 291.745354 
L 985.005354 291.745354 
" style="fill: none; stroke: #000000; stroke-width: 2; stroke-linejoin: miter; stroke-linecap: square"/>
   </g>
   <g id="line2d_12">
    <path d="M 69.09595 282.929555 
L 74.134933 283.344118 
L 79.470328 283.550166 
L 84.805723 283.531452 
L 90.437528 283.288285 
L 96.365744 282.810101 
L 102.886782 282.053851 
L 110.000642 280.99426 
L 117.707323 279.616161 
L 126.303236 277.847023 
L 135.788382 275.661323 
L 146.16276 273.036139 
L 157.426371 269.949658 
L 169.579214 266.385867 
L 183.510523 262.060756 
L 200.405939 256.571412 
L 226.49009 247.832236 
L 270.655301 233.047567 
L 297.628685 224.269276 
L 323.712836 216.014755 
L 348.314933 208.45957 
L 369.656512 202.131532 
L 386.255517 197.428983 
L 399.001182 194.037776 
L 408.782739 191.654344 
L 416.48942 189.993412 
L 422.714047 188.871702 
L 427.75303 188.173406 
L 432.199193 187.780622 
L 435.756122 187.676629 
L 439.016641 187.801858 
L 441.684339 188.107221 
L 444.055625 188.572603 
L 446.426912 189.265252 
L 448.501787 190.100059 
L 450.576663 191.193609 
L 452.355128 192.373923 
L 454.133593 193.812838 
L 455.912057 195.541717 
L 457.690522 197.586589 
L 459.468987 199.959032 
L 461.543863 203.128328 
L 464.21156 207.676038 
L 468.657722 215.345235 
L 470.732598 218.445366 
L 472.511063 220.6741 
L 473.993117 222.183187 
L 475.475171 223.362837 
L 476.957225 224.220081 
L 478.439279 224.776969 
L 479.921333 225.066548 
L 481.403387 225.128524 
L 483.181852 224.961982 
L 485.256728 224.525112 
L 488.220836 223.638443 
L 493.25982 222.08845 
L 495.334695 221.686382 
L 497.11316 221.561755 
L 498.595214 221.675054 
L 500.077268 222.014042 
L 501.559322 222.6114 
L 502.744966 223.308403 
L 503.930609 224.229209 
L 505.116252 225.392922 
L 506.598306 227.193599 
L 508.08036 229.342542 
L 510.155236 232.759458 
L 513.712166 238.675148 
L 515.19422 240.746576 
L 516.676274 242.417244 
L 517.861917 243.429489 
L 519.04756 244.150706 
L 520.233203 244.59833 
L 521.418847 244.802731 
L 522.60449 244.800444 
L 524.086544 244.563506 
L 525.865009 244.029267 
L 531.793225 241.948767 
L 533.275279 241.716462 
L 534.757333 241.729149 
L 535.942976 241.971275 
L 537.12862 242.466145 
L 538.314263 243.248654 
L 539.499906 244.336868 
L 540.685549 245.723917 
L 542.167603 247.818076 
L 544.835301 252.119516 
L 546.910176 255.261999 
L 548.09582 256.730569 
L 549.281463 257.873789 
L 550.467106 258.669494 
L 551.652749 259.128053 
L 552.838393 259.280513 
L 554.024036 259.173605 
L 555.50609 258.758207 
L 557.284555 257.995008 
L 561.434306 256.117332 
L 562.91636 255.752543 
L 564.102003 255.694711 
L 565.287647 255.901128 
L 566.176879 256.255832 
L 567.066111 256.796295 
L 568.251755 257.813218 
L 569.437398 259.151867 
L 570.919452 261.188176 
L 574.772793 266.755763 
L 575.958436 268.018711 
L 577.144079 268.913259 
L 578.033311 269.331089 
L 578.922544 269.5396 
L 579.811776 269.555766 
L 580.99742 269.319255 
L 582.183063 268.849095 
L 583.961528 267.863939 
L 587.518457 265.783847 
L 589.000511 265.230719 
L 590.186155 265.051831 
L 591.075387 265.110179 
L 591.96462 265.356098 
L 592.853852 265.803171 
L 593.743084 266.455789 
L 594.928728 267.629259 
L 596.410782 269.480516 
L 599.671301 273.787009 
L 600.856944 274.938612 
L 601.746176 275.552212 
L 602.635409 275.936217 
L 603.524641 276.094217 
L 604.413874 276.042275 
L 605.599517 275.690578 
L 606.78516 275.084784 
L 608.563625 273.879313 
L 611.824144 271.586141 
L 613.009787 270.987327 
L 614.19543 270.634633 
L 615.084663 270.572548 
L 615.973895 270.709767 
L 616.863128 271.060965 
L 617.75236 271.629295 
L 618.938003 272.701518 
L 620.420057 274.424057 
L 623.087755 277.684367 
L 624.273398 278.776589 
L 625.16263 279.34558 
L 626.051863 279.678151 
L 626.941095 279.774502 
L 627.830328 279.649706 
L 628.71956 279.329856 
L 629.905203 278.658401 
L 631.683668 277.310955 
L 634.944187 274.73094 
L 636.12983 274.050335 
L 637.315474 273.638612 
L 638.204706 273.549445 
L 639.093938 273.674553 
L 639.983171 274.026547 
L 640.872403 274.604571 
L 642.058047 275.689708 
L 643.836511 277.735288 
L 645.614976 279.751339 
L 646.800619 280.789526 
L 647.689852 281.31895 
L 648.579084 281.605537 
L 649.468317 281.645393 
L 650.357549 281.453016 
L 651.246782 281.057416 
L 652.432425 280.281758 
L 654.21089 278.800296 
L 656.878587 276.543101 
L 658.06423 275.769707 
L 659.249874 275.270941 
L 660.139106 275.128606 
L 661.028338 275.20922 
L 661.917571 275.525715 
L 662.806803 276.077007 
L 663.992446 277.132813 
L 665.770911 279.1231 
L 667.549376 281.035357 
L 668.735019 281.966441 
L 669.624252 282.396656 
L 670.513484 282.571919 
L 671.402717 282.493983 
L 672.291949 282.18413 
L 673.477592 281.474166 
L 674.959646 280.266356 
L 678.516576 277.183785 
L 679.702219 276.455445 
L 680.591452 276.108611 
L 681.480684 275.977133 
L 682.369917 276.088923 
L 683.259149 276.446454 
L 684.148382 277.041936 
L 685.334025 278.146917 
L 689.187365 282.153011 
L 690.076598 282.688394 
L 690.96583 282.967513 
L 691.855063 282.982791 
L 692.744295 282.749757 
L 693.633528 282.301742 
L 694.819171 281.448217 
L 696.894046 279.585889 
L 698.968922 277.792457 
L 700.154565 277.03598 
L 701.043798 276.680106 
L 701.93303 276.542133 
L 702.822263 276.641726 
L 703.711495 276.998489 
L 704.600728 277.608984 
L 705.786371 278.743378 
L 709.04689 282.18422 
L 709.936122 282.789812 
L 710.825355 283.141362 
L 711.714587 283.223876 
L 712.603819 283.047594 
L 713.493052 282.642619 
L 714.678695 281.823032 
L 716.45716 280.24203 
L 718.828446 278.136878 
L 720.01409 277.370747 
L 720.903322 277.015718 
L 721.792555 276.886501 
L 722.681787 277.009783 
L 723.571019 277.400679 
L 724.460252 278.044226 
L 725.645895 279.204042 
L 728.610003 282.304719 
L 729.499236 282.917078 
L 730.388468 283.270394 
L 731.2777 283.345291 
L 732.166933 283.151047 
L 733.056165 282.720598 
L 734.241809 281.865154 
L 736.316684 279.972435 
L 738.095149 278.415159 
L 739.280792 277.650936 
L 740.170025 277.300048 
L 741.059257 277.184706 
L 741.94849 277.335596 
L 742.837722 277.761354 
L 743.726955 278.438949 
L 744.912598 279.630519 
L 747.283884 282.157433 
L 748.173117 282.84825 
L 749.062349 283.283928 
L 749.951582 283.435199 
L 750.840814 283.305964 
L 751.730046 282.925997 
L 752.91569 282.110418 
L 754.694155 280.502706 
L 756.76903 278.643534 
L 757.954673 277.864196 
L 758.843906 277.511773 
L 759.733138 277.40674 
L 760.622371 277.576201 
L 761.511603 278.023221 
L 762.400836 278.720012 
L 763.88289 280.256108 
L 765.661355 282.141559 
L 766.550587 282.850687 
L 767.439819 283.300441 
L 768.329052 283.461927 
L 769.218284 283.336924 
L 770.107517 282.953189 
L 771.29316 282.125643 
L 773.071625 280.50475 
L 775.1465 278.663503 
L 776.332144 277.928239 
L 777.221376 277.6299 
L 778.110609 277.594899 
L 778.999841 277.844762 
L 779.889073 278.373929 
L 781.074717 279.440246 
L 784.335236 282.750798 
L 785.224468 283.257299 
L 786.1137 283.470122 
L 787.002933 283.385257 
L 787.892165 283.029812 
L 789.077809 282.221476 
L 790.856273 280.602914 
L 792.931149 278.762018 
L 794.116792 278.042685 
L 795.006025 277.768069 
L 795.895257 277.767205 
L 796.78449 278.059326 
L 797.673722 278.633184 
L 798.859365 279.750465 
L 801.527063 282.513895 
L 802.416295 283.113417 
L 803.305527 283.429302 
L 804.19476 283.441767 
L 805.083992 283.165476 
L 805.973225 282.642869 
L 807.158868 281.671317 
L 810.419387 278.737339 
L 811.308619 278.204327 
L 812.197852 277.904084 
L 813.087084 277.883315 
L 813.976317 278.164272 
L 814.865549 278.733686 
L 816.051192 279.848392 
L 818.71889 282.598132 
L 819.608122 283.174294 
L 820.497354 283.451763 
L 821.386587 283.41499 
L 822.275819 283.087118 
L 823.165052 282.519811 
L 824.647106 281.231367 
L 827.018392 279.061728 
L 828.204036 278.309508 
L 829.093268 278.017705 
L 829.9825 278.010484 
L 830.871733 278.314542 
L 831.760965 278.914929 
L 832.946609 280.059964 
L 835.317895 282.512008 
L 836.207127 283.122276 
L 837.09636 283.434884 
L 837.985592 283.425951 
L 838.874825 283.115003 
L 839.764057 282.55557 
L 841.246111 281.271593 
L 843.617398 279.111707 
L 844.803041 278.384634 
L 845.692273 278.123726 
L 846.581506 278.161067 
L 847.470738 278.515762 
L 848.359971 279.163392 
L 849.545614 280.35057 
L 851.62049 282.501937 
L 852.509722 283.123402 
L 853.398954 283.43953 
L 854.288187 283.428277 
L 855.177419 283.113016 
L 856.066652 282.545693 
L 857.548706 281.242454 
L 859.919992 279.103836 
L 860.809225 278.549056 
L 861.698457 278.242697 
L 862.58769 278.237378 
L 863.476922 278.554939 
L 864.366154 279.174408 
L 865.551798 280.343287 
L 867.626673 282.499761 
L 868.515906 283.121027 
L 869.405138 283.431675 
L 870.294371 283.40952 
L 871.183603 283.078134 
L 872.072836 282.494153 
L 873.55489 281.172851 
L 875.629765 279.28017 
L 876.518998 278.696059 
L 877.40823 278.358778 
L 878.297463 278.322929 
L 879.186695 278.613483 
L 880.075927 279.21363 
L 881.261571 280.371564 
L 883.336446 282.524179 
L 884.225679 283.136678 
L 885.114911 283.431691 
L 886.004144 283.388918 
L 886.893376 283.034618 
L 887.782608 282.428822 
L 889.264663 281.08523 
L 891.043127 279.451796 
L 891.93236 278.83966 
L 892.821592 278.471114 
L 893.710825 278.405555 
L 894.600057 278.672128 
L 895.48929 279.258372 
L 896.674933 280.409223 
L 898.749808 282.54094 
L 899.639041 283.143835 
L 900.528273 283.42819 
L 901.121095 283.426472 
L 902.010327 283.149872 
L 902.89956 282.594003 
L 904.085203 281.563065 
L 906.45649 279.382264 
L 907.345722 278.810588 
L 908.234954 278.499335 
L 908.827776 278.467524 
L 909.420598 278.588913 
L 910.30983 279.050086 
L 911.199062 279.798911 
L 914.459581 282.986934 
L 915.348814 283.371025 
L 915.941635 283.432258 
L 916.830868 283.238001 
L 917.7201 282.745735 
L 918.905744 281.764775 
L 921.573441 279.333138 
L 922.462673 278.804729 
L 923.351906 278.555946 
L 923.944727 278.573821 
L 924.537549 278.74771 
L 925.426781 279.287172 
L 926.612425 280.404705 
L 928.6873 282.54541 
L 929.576533 283.150624 
L 930.465765 283.420616 
L 931.058587 283.400048 
L 931.947819 283.088673 
L 932.837052 282.502589 
L 934.319106 281.164044 
L 936.097571 279.542902 
L 936.986803 278.967371 
L 937.876035 278.663374 
L 938.468857 278.643839 
L 939.061679 278.782476 
L 939.950911 279.278528 
L 940.840144 280.060905 
L 943.804252 282.970011 
L 944.693484 283.368456 
L 945.286306 283.432932 
L 945.879127 283.338641 
L 946.76836 282.929312 
L 947.657592 282.265547 
L 951.510933 278.991657 
L 952.400165 278.718573 
L 952.992987 278.726121 
L 953.585808 278.894382 
L 954.475041 279.43363 
L 955.660684 280.561191 
L 957.73556 282.677189 
L 958.328381 283.081229 
L 958.328381 283.081229 
" clip-path="url(#p5923aae939)" style="fill: none; stroke: #1c86ee; stroke-width: 6"/>
   </g>
   <g id="line2d_13">
    <path d="M 69.09595 282.929555 
L 958.328381 11.011364 
L 958.328381 11.011364 
" clip-path="url(#p5923aae939)" style="fill: none; stroke: #191970; stroke-width: 6"/>
   </g>
  </g>
 </g>
 <defs>
  <clipPath id="p5923aae939">
   <rect x="42.418977" y="2.834646" width="942.586378" height="288.910709"/>
  </clipPath>
 </defs>
</svg>
