<?xml version="1.0" encoding="utf-8" standalone="no"?>
<!DOCTYPE svg PUBLIC "-//W3C//DTD SVG 1.1//EN"
  "http://www.w3.org/Graphics/SVG/1.1/DTD/svg11.dtd">
<svg xmlns:xlink="http://www.w3.org/1999/xlink" width="979.2pt" height="282.24pt" viewBox="0 0 979.2 282.24" xmlns="http://www.w3.org/2000/svg" version="1.1">
 <metadata>
  <rdf:RDF xmlns:dc="http://purl.org/dc/elements/1.1/" xmlns:cc="http://creativecommons.org/ns#" xmlns:rdf="http://www.w3.org/1999/02/22-rdf-syntax-ns#">
   <cc:Work>
    <dc:type rdf:resource="http://purl.org/dc/dcmitype/StillImage"/>
    <dc:date>2024-04-27T16:44:32.950999</dc:date>
    <dc:format>image/svg+xml</dc:format>
    <dc:creator>
     <cc:Agent>
      <dc:title>Matplotlib v3.7.0, https://matplotlib.org/</dc:title>
     </cc:Agent>
    </dc:creator>
   </cc:Work>
  </rdf:RDF>
 </metadata>
 <defs>
  <style type="text/css">*{stroke-linejoin: round; stroke-linecap: butt}</style>
 </defs>
 <g id="figure_1">
  <g id="patch_1">
   <path d="M 0 282.24 
L 979.2 282.24 
L 979.2 0 
L 0 0 
L 0 282.24 
z
" style="fill: none"/>
  </g>
  <g id="axes_1">
   <g id="patch_2">
    <path d="M 63.788308 248.545354 
L 976.365354 248.545354 
L 976.365354 7.281368 
L 63.788308 7.281368 
L 63.788308 248.545354 
z
" style="fill: none"/>
   </g>
   <g id="line2d_1">
    <path d="M 106.834395 14.109594 
L 115.443612 26.232445 
L 124.05283 33.013324 
L 132.662047 38.210305 
L 141.271265 42.539201 
L 149.880482 46.296459 
L 158.489699 49.639903 
L 167.098917 52.665866 
L 175.708134 55.438543 
L 184.317352 58.003432 
L 192.926569 60.394304 
L 201.535787 62.637147 
L 210.145004 64.752552 
L 218.754221 66.757247 
L 227.363439 68.66511 
L 235.972656 70.48788 
L 244.581874 72.235663 
L 253.191091 73.917309 
L 261.800308 75.540693 
L 270.409526 77.112942 
L 279.018743 78.640614 
L 287.627961 80.129851 
L 296.237178 81.586514 
L 304.846396 83.0163 
L 313.455613 84.424864 
L 322.06483 85.817934 
L 330.674048 87.201439 
L 339.283265 88.581647 
L 347.892483 89.965332 
L 356.5017 91.359963 
L 365.110917 92.773952 
L 373.720135 94.216955 
L 382.329352 95.700269 
L 390.93857 97.237353 
L 399.547787 98.844526 
L 408.157005 100.54191 
L 416.766222 102.354745 
L 425.375439 104.315205 
L 433.984657 106.464984 
L 442.593874 108.858959 
L 451.203092 111.570384 
L 459.812309 114.698141 
L 468.421527 118.376251 
L 477.030744 122.784467 
L 485.639961 128.153769 
L 494.249179 134.747159 
L 502.858396 142.771021 
L 511.467614 152.166642 
L 520.076831 162.366714 
L 528.686048 172.371715 
L 537.295266 181.284709 
L 545.904483 188.727783 
L 554.513701 194.765365 
L 563.122918 199.643105 
L 571.732136 203.620598 
L 580.341353 206.91278 
L 588.95057 209.682976 
L 597.559788 212.051735 
L 606.169005 214.107606 
L 614.778223 215.916044 
L 623.38744 217.525974 
L 631.996658 218.974446 
L 640.605875 220.289903 
L 649.215092 221.494466 
L 657.82431 222.605566 
L 666.433527 223.637096 
L 675.042745 224.600256 
L 683.651962 225.504169 
L 692.261179 226.356337 
L 700.870397 227.162983 
L 709.479614 227.929315 
L 718.088832 228.659722 
L 726.698049 229.357931 
L 735.307267 230.027129 
L 743.916484 230.670055 
L 752.525701 231.289081 
L 761.134919 231.88627 
L 769.744136 232.463427 
L 778.353354 233.022136 
L 786.962571 233.563797 
L 795.571789 234.089652 
L 804.181006 234.600805 
L 812.790223 235.098245 
L 821.399441 235.582857 
L 830.008658 236.05544 
L 838.617876 236.516713 
L 847.227093 236.967331 
L 855.83631 237.407888 
L 864.445528 237.838923 
L 873.054745 238.260932 
L 881.663963 238.674369 
L 890.27318 239.07965 
L 898.882398 239.477158 
L 907.491615 239.867249 
L 916.100832 240.250251 
L 924.71005 240.626466 
L 933.319267 240.996179 
L 941.928485 241.359651 
L 950.537702 241.717128 
" clip-path="url(#p6f438308a7)" style="fill: none; stroke: #377eb8; stroke-width: 6"/>
   </g>
   <g id="matplotlib.axis_1">
    <g id="xtick_1">
     <g id="line2d_2">
      <defs>
       <path id="m3b036b2c6b" d="M 0 0 
L 0 -5 
" style="stroke: #000000"/>
      </defs>
      <g>
       <use xlink:href="#m3b036b2c6b" x="175.708134" y="248.545354" style="stroke: #000000"/>
      </g>
     </g>
     <g id="text_1">
      <!-- $0.6$ -->
      <g transform="translate(157.788134 273.320979) scale(0.28 -0.28)">
       <defs>
        <path id="Cmr10-30" d="M 1600 -141 
Q 816 -141 533 504 
Q 250 1150 250 2041 
Q 250 2597 351 3087 
Q 453 3578 754 3920 
Q 1056 4263 1600 4263 
Q 2022 4263 2290 4056 
Q 2559 3850 2700 3523 
Q 2841 3197 2892 2823 
Q 2944 2450 2944 2041 
Q 2944 1491 2842 1011 
Q 2741 531 2444 195 
Q 2147 -141 1600 -141 
z
M 1600 25 
Q 1956 25 2131 390 
Q 2306 756 2347 1200 
Q 2388 1644 2388 2144 
Q 2388 2625 2347 3031 
Q 2306 3438 2132 3767 
Q 1959 4097 1600 4097 
Q 1238 4097 1063 3765 
Q 888 3434 847 3029 
Q 806 2625 806 2144 
Q 806 1788 823 1472 
Q 841 1156 916 820 
Q 991 484 1158 254 
Q 1325 25 1600 25 
z
" transform="scale(0.015625)"/>
        <path id="Cmmi10-3a" d="M 538 353 
Q 538 497 644 600 
Q 750 703 891 703 
Q 978 703 1062 656 
Q 1147 609 1194 525 
Q 1241 441 1241 353 
Q 1241 213 1137 106 
Q 1034 0 891 0 
Q 750 0 644 106 
Q 538 213 538 353 
z
" transform="scale(0.015625)"/>
        <path id="Cmr10-36" d="M 1600 -141 
Q 1203 -141 937 70 
Q 672 281 526 617 
Q 381 953 325 1322 
Q 269 1691 269 2069 
Q 269 2575 466 3084 
Q 663 3594 1045 3928 
Q 1428 4263 1953 4263 
Q 2172 4263 2361 4180 
Q 2550 4097 2658 3936 
Q 2766 3775 2766 3547 
Q 2766 3416 2677 3327 
Q 2588 3238 2456 3238 
Q 2331 3238 2240 3328 
Q 2150 3419 2150 3547 
Q 2150 3672 2240 3762 
Q 2331 3853 2456 3853 
L 2491 3853 
Q 2409 3969 2261 4023 
Q 2113 4078 1953 4078 
Q 1759 4078 1595 3993 
Q 1431 3909 1300 3765 
Q 1169 3622 1081 3448 
Q 994 3275 945 3053 
Q 897 2831 884 2637 
Q 872 2444 872 2150 
Q 984 2413 1190 2580 
Q 1397 2747 1656 2747 
Q 1941 2747 2175 2631 
Q 2409 2516 2578 2311 
Q 2747 2106 2836 1843 
Q 2925 1581 2925 1313 
Q 2925 938 2758 598 
Q 2591 259 2287 59 
Q 1984 -141 1600 -141 
z
M 1600 63 
Q 1847 63 1997 175 
Q 2147 288 2217 473 
Q 2288 659 2305 848 
Q 2322 1038 2322 1313 
Q 2322 1675 2287 1931 
Q 2253 2188 2100 2383 
Q 1947 2578 1631 2578 
Q 1372 2578 1205 2403 
Q 1038 2228 961 1961 
Q 884 1694 884 1447 
Q 884 1363 891 1319 
Q 891 1309 889 1303 
Q 888 1297 884 1288 
Q 884 1013 940 731 
Q 997 450 1156 256 
Q 1316 63 1600 63 
z
" transform="scale(0.015625)"/>
       </defs>
       <use xlink:href="#Cmr10-30" transform="translate(0 0.390625)"/>
       <use xlink:href="#Cmmi10-3a" transform="translate(50 0.390625)"/>
       <use xlink:href="#Cmr10-36" transform="translate(77.685547 0.390625)"/>
      </g>
     </g>
    </g>
    <g id="xtick_2">
     <g id="line2d_3">
      <g>
       <use xlink:href="#m3b036b2c6b" x="347.892483" y="248.545354" style="stroke: #000000"/>
      </g>
     </g>
     <g id="text_2">
      <!-- $0.8$ -->
      <g transform="translate(329.972483 273.320979) scale(0.28 -0.28)">
       <defs>
        <path id="Cmr10-38" d="M 269 972 
Q 269 1356 522 1651 
Q 775 1947 1172 2144 
L 934 2297 
Q 716 2441 578 2680 
Q 441 2919 441 3181 
Q 441 3488 602 3734 
Q 763 3981 1030 4122 
Q 1297 4263 1600 4263 
Q 1884 4263 2148 4147 
Q 2413 4031 2583 3815 
Q 2753 3600 2753 3303 
Q 2753 3088 2651 2903 
Q 2550 2719 2373 2572 
Q 2197 2425 1997 2322 
L 2363 2088 
Q 2616 1922 2770 1653 
Q 2925 1384 2925 1088 
Q 2925 741 2739 456 
Q 2553 172 2247 15 
Q 1941 -141 1600 -141 
Q 1269 -141 961 -6 
Q 653 128 461 383 
Q 269 638 269 972 
z
M 616 972 
Q 616 719 755 509 
Q 894 300 1122 181 
Q 1350 63 1600 63 
Q 1972 63 2275 280 
Q 2578 497 2578 856 
Q 2578 978 2529 1098 
Q 2481 1219 2395 1317 
Q 2309 1416 2203 1478 
L 1344 2034 
Q 1144 1928 976 1765 
Q 809 1603 712 1400 
Q 616 1197 616 972 
z
M 1056 2925 
L 1831 2425 
Q 2100 2581 2272 2803 
Q 2444 3025 2444 3303 
Q 2444 3519 2323 3698 
Q 2203 3878 2009 3978 
Q 1816 4078 1594 4078 
Q 1400 4078 1203 4003 
Q 1006 3928 878 3779 
Q 750 3631 750 3431 
Q 750 3131 1056 2925 
z
" transform="scale(0.015625)"/>
       </defs>
       <use xlink:href="#Cmr10-30" transform="translate(0 0.390625)"/>
       <use xlink:href="#Cmmi10-3a" transform="translate(50 0.390625)"/>
       <use xlink:href="#Cmr10-38" transform="translate(77.685547 0.390625)"/>
      </g>
     </g>
    </g>
    <g id="xtick_3">
     <g id="line2d_4">
      <g>
       <use xlink:href="#m3b036b2c6b" x="520.076831" y="248.545354" style="stroke: #000000"/>
      </g>
     </g>
     <g id="text_3">
      <!-- $1.0$ -->
      <g transform="translate(502.156831 273.320979) scale(0.28 -0.28)">
       <defs>
        <path id="Cmr10-31" d="M 594 0 
L 594 225 
Q 1394 225 1394 428 
L 1394 3788 
Q 1063 3628 556 3628 
L 556 3853 
Q 1341 3853 1741 4263 
L 1831 4263 
Q 1853 4263 1873 4245 
Q 1894 4228 1894 4206 
L 1894 428 
Q 1894 225 2694 225 
L 2694 0 
L 594 0 
z
" transform="scale(0.015625)"/>
       </defs>
       <use xlink:href="#Cmr10-31" transform="translate(0 0.390625)"/>
       <use xlink:href="#Cmmi10-3a" transform="translate(50 0.390625)"/>
       <use xlink:href="#Cmr10-30" transform="translate(77.685547 0.390625)"/>
      </g>
     </g>
    </g>
    <g id="xtick_4">
     <g id="line2d_5">
      <g>
       <use xlink:href="#m3b036b2c6b" x="692.261179" y="248.545354" style="stroke: #000000"/>
      </g>
     </g>
     <g id="text_4">
      <!-- $1.2$ -->
      <g transform="translate(674.341179 273.320979) scale(0.28 -0.28)">
       <defs>
        <path id="Cmr10-32" d="M 319 0 
L 319 172 
Q 319 188 331 206 
L 1325 1306 
Q 1550 1550 1690 1715 
Q 1831 1881 1968 2097 
Q 2106 2313 2186 2536 
Q 2266 2759 2266 3009 
Q 2266 3272 2169 3511 
Q 2072 3750 1880 3894 
Q 1688 4038 1416 4038 
Q 1138 4038 916 3870 
Q 694 3703 603 3438 
Q 628 3444 672 3444 
Q 816 3444 917 3347 
Q 1019 3250 1019 3097 
Q 1019 2950 917 2848 
Q 816 2747 672 2747 
Q 522 2747 420 2851 
Q 319 2956 319 3097 
Q 319 3338 409 3548 
Q 500 3759 670 3923 
Q 841 4088 1055 4175 
Q 1269 4263 1509 4263 
Q 1875 4263 2190 4108 
Q 2506 3953 2690 3670 
Q 2875 3388 2875 3009 
Q 2875 2731 2753 2481 
Q 2631 2231 2440 2026 
Q 2250 1822 1953 1562 
Q 1656 1303 1563 1216 
L 838 519 
L 1453 519 
Q 1906 519 2211 526 
Q 2516 534 2534 550 
Q 2609 631 2688 1141 
L 2875 1141 
L 2694 0 
L 319 0 
z
" transform="scale(0.015625)"/>
       </defs>
       <use xlink:href="#Cmr10-31" transform="translate(0 0.390625)"/>
       <use xlink:href="#Cmmi10-3a" transform="translate(50 0.390625)"/>
       <use xlink:href="#Cmr10-32" transform="translate(77.685547 0.390625)"/>
      </g>
     </g>
    </g>
    <g id="xtick_5">
     <g id="line2d_6">
      <g>
       <use xlink:href="#m3b036b2c6b" x="864.445528" y="248.545354" style="stroke: #000000"/>
      </g>
     </g>
     <g id="text_5">
      <!-- $1.4$ -->
      <g transform="translate(846.525528 273.320979) scale(0.28 -0.28)">
       <defs>
        <path id="Cmr10-34" d="M 178 1056 
L 178 1281 
L 2156 4231 
Q 2178 4263 2222 4263 
L 2316 4263 
Q 2388 4263 2388 4191 
L 2388 1281 
L 3016 1281 
L 3016 1056 
L 2388 1056 
L 2388 428 
Q 2388 297 2575 261 
Q 2763 225 3009 225 
L 3009 0 
L 1247 0 
L 1247 225 
Q 1494 225 1681 261 
Q 1869 297 1869 428 
L 1869 1056 
L 178 1056 
z
M 391 1281 
L 1906 1281 
L 1906 3547 
L 391 1281 
z
" transform="scale(0.015625)"/>
       </defs>
       <use xlink:href="#Cmr10-31" transform="translate(0 0.390625)"/>
       <use xlink:href="#Cmmi10-3a" transform="translate(50 0.390625)"/>
       <use xlink:href="#Cmr10-34" transform="translate(77.685547 0.390625)"/>
      </g>
     </g>
    </g>
   </g>
   <g id="matplotlib.axis_2">
    <g id="ytick_1">
     <g id="line2d_7">
      <defs>
       <path id="m9db1552bbf" d="M 0 0 
L 5 0 
" style="stroke: #000000"/>
      </defs>
      <g>
       <use xlink:href="#m9db1552bbf" x="63.788308" y="211.710791" style="stroke: #000000"/>
      </g>
     </g>
     <g id="text_6">
      <!-- $-0.5$ -->
      <g transform="translate(2.608308 222.348603) scale(0.28 -0.28)">
       <defs>
        <path id="Cmsy10-a1" d="M 653 1472 
Q 600 1472 565 1512 
Q 531 1553 531 1600 
Q 531 1647 565 1687 
Q 600 1728 653 1728 
L 4325 1728 
Q 4375 1728 4408 1687 
Q 4441 1647 4441 1600 
Q 4441 1553 4408 1512 
Q 4375 1472 4325 1472 
L 653 1472 
z
" transform="scale(0.015625)"/>
        <path id="Cmr10-35" d="M 556 728 
Q 622 541 758 387 
Q 894 234 1080 148 
Q 1266 63 1466 63 
Q 1928 63 2103 422 
Q 2278 781 2278 1294 
Q 2278 1516 2270 1667 
Q 2263 1819 2228 1959 
Q 2169 2184 2020 2353 
Q 1872 2522 1656 2522 
Q 1441 2522 1286 2456 
Q 1131 2391 1034 2303 
Q 938 2216 863 2119 
Q 788 2022 769 2016 
L 697 2016 
Q 681 2016 657 2036 
Q 634 2056 634 2075 
L 634 4213 
Q 634 4228 654 4245 
Q 675 4263 697 4263 
L 716 4263 
Q 1147 4056 1631 4056 
Q 2106 4056 2547 4263 
L 2566 4263 
Q 2588 4263 2606 4247 
Q 2625 4231 2625 4213 
L 2625 4153 
Q 2625 4122 2613 4122 
Q 2394 3831 2064 3668 
Q 1734 3506 1381 3506 
Q 1125 3506 856 3578 
L 856 2369 
Q 1069 2541 1236 2614 
Q 1403 2688 1663 2688 
Q 2016 2688 2295 2484 
Q 2575 2281 2725 1954 
Q 2875 1628 2875 1288 
Q 2875 903 2686 575 
Q 2497 247 2172 53 
Q 1847 -141 1466 -141 
Q 1150 -141 886 21 
Q 622 184 470 459 
Q 319 734 319 1044 
Q 319 1188 412 1278 
Q 506 1369 647 1369 
Q 788 1369 883 1276 
Q 978 1184 978 1044 
Q 978 906 883 811 
Q 788 716 647 716 
Q 625 716 597 720 
Q 569 725 556 728 
z
" transform="scale(0.015625)"/>
       </defs>
       <use xlink:href="#Cmsy10-a1" transform="translate(0 0.390625)"/>
       <use xlink:href="#Cmr10-30" transform="translate(77.685547 0.390625)"/>
       <use xlink:href="#Cmmi10-3a" transform="translate(127.685547 0.390625)"/>
       <use xlink:href="#Cmr10-35" transform="translate(155.371094 0.390625)"/>
      </g>
     </g>
    </g>
    <g id="ytick_2">
     <g id="line2d_8">
      <g>
       <use xlink:href="#m9db1552bbf" x="63.788308" y="162.366714" style="stroke: #000000"/>
      </g>
     </g>
     <g id="text_7">
      <!-- $0.0$ -->
      <g transform="translate(24.448308 173.004527) scale(0.28 -0.28)">
       <use xlink:href="#Cmr10-30" transform="translate(0 0.390625)"/>
       <use xlink:href="#Cmmi10-3a" transform="translate(50 0.390625)"/>
       <use xlink:href="#Cmr10-30" transform="translate(77.685547 0.390625)"/>
      </g>
     </g>
    </g>
    <g id="ytick_3">
     <g id="line2d_9">
      <g>
       <use xlink:href="#m9db1552bbf" x="63.788308" y="113.022638" style="stroke: #000000"/>
      </g>
     </g>
     <g id="text_8">
      <!-- $0.5$ -->
      <g transform="translate(24.448308 123.66045) scale(0.28 -0.28)">
       <use xlink:href="#Cmr10-30" transform="translate(0 0.390625)"/>
       <use xlink:href="#Cmmi10-3a" transform="translate(50 0.390625)"/>
       <use xlink:href="#Cmr10-35" transform="translate(77.685547 0.390625)"/>
      </g>
     </g>
    </g>
    <g id="ytick_4">
     <g id="line2d_10">
      <g>
       <use xlink:href="#m9db1552bbf" x="63.788308" y="63.678561" style="stroke: #000000"/>
      </g>
     </g>
     <g id="text_9">
      <!-- $1.0$ -->
      <g transform="translate(24.448308 74.316373) scale(0.28 -0.28)">
       <use xlink:href="#Cmr10-31" transform="translate(0 0.390625)"/>
       <use xlink:href="#Cmmi10-3a" transform="translate(50 0.390625)"/>
       <use xlink:href="#Cmr10-30" transform="translate(77.685547 0.390625)"/>
      </g>
     </g>
    </g>
    <g id="ytick_5">
     <g id="line2d_11">
      <g>
       <use xlink:href="#m9db1552bbf" x="63.788308" y="14.334484" style="stroke: #000000"/>
      </g>
     </g>
     <g id="text_10">
      <!-- $1.5$ -->
      <g transform="translate(24.448308 24.972297) scale(0.28 -0.28)">
       <use xlink:href="#Cmr10-31" transform="translate(0 0.390625)"/>
       <use xlink:href="#Cmmi10-3a" transform="translate(50 0.390625)"/>
       <use xlink:href="#Cmr10-35" transform="translate(77.685547 0.390625)"/>
      </g>
     </g>
    </g>
   </g>
   <g id="line2d_12">
    <path d="M 89.61596 97.331158 
L 98.225177 97.412516 
L 106.834395 97.497197 
L 115.443612 97.585408 
L 124.05283 97.677374 
L 132.662047 97.773341 
L 141.271265 97.873574 
L 149.880482 97.978364 
L 158.489699 98.088027 
L 167.098917 98.202912 
L 175.708134 98.323398 
L 184.317352 98.449905 
L 192.926569 98.582895 
L 201.535787 98.722876 
L 210.145004 98.870414 
L 218.754221 99.026134 
L 227.363439 99.190736 
L 235.972656 99.364997 
L 244.581874 99.549789 
L 253.191091 99.746094 
L 261.800308 99.955015 
L 270.409526 100.177804 
L 279.018743 100.415879 
L 287.627961 100.670861 
L 296.237178 100.944604 
L 304.846396 101.239244 
L 313.455613 101.557248 
L 322.06483 101.901486 
L 330.674048 102.275312 
L 339.283265 102.682673 
L 347.892483 103.128237 
L 356.5017 103.617573 
L 365.110917 104.157369 
L 373.720135 104.755721 
L 382.329352 105.422523 
L 390.93857 106.169974 
L 399.547787 107.013273 
L 408.157005 107.971568 
L 416.766222 109.06927 
L 425.375439 110.337885 
L 433.984657 111.81862 
L 442.593874 113.566077 
L 451.203092 115.653504 
L 459.812309 118.180099 
L 468.421527 121.280621 
L 477.030744 125.136066 
L 485.639961 129.979163 
L 494.249179 136.074897 
L 502.858396 143.630827 
L 511.467614 152.58635 
L 520.076831 162.366714 
L 528.686048 171.960397 
L 537.295266 180.459688 
L 545.904483 187.481603 
L 554.513701 193.090484 
L 563.122918 197.534104 
L 571.732136 201.07453 
L 580.341353 203.928807 
L 588.95057 206.261879 
L 597.559788 208.195477 
L 606.169005 209.819001 
L 614.778223 211.198508 
L 623.38744 212.383347 
L 631.996658 213.410865 
L 640.605875 214.309702 
L 649.215092 215.102114 
L 657.82431 215.80561 
L 666.433527 216.434127 
L 675.042745 216.998878 
L 683.651962 217.50898 
L 692.261179 217.971909 
L 700.870397 218.393856 
L 709.479614 218.779981 
L 718.088832 219.134623 
L 726.698049 219.461452 
L 735.307267 219.763594 
L 743.916484 220.043726 
L 752.525701 220.304154 
L 761.134919 220.546875 
L 769.744136 220.773627 
L 778.353354 220.985926 
L 786.962571 221.185107 
L 795.571789 221.372344 
L 804.181006 221.548675 
L 812.790223 221.715023 
L 821.399441 221.87221 
L 830.008658 222.020969 
L 838.617876 222.161958 
L 847.227093 222.295769 
L 855.83631 222.422935 
L 864.445528 222.543937 
L 873.054745 222.659213 
L 881.663963 222.769157 
L 890.27318 222.874131 
L 898.882398 222.974464 
L 907.491615 223.070456 
L 916.100832 223.162382 
L 924.71005 223.250495 
L 933.319267 223.335027 
L 941.928485 223.416191 
L 950.537702 223.494184 
" clip-path="url(#p6f438308a7)" style="fill: none; stroke: #4daf4a; stroke-width: 6"/>
   </g>
   <g id="patch_3">
    <path d="M 63.788308 248.545354 
L 63.788308 7.281368 
" style="fill: none; stroke: #000000; stroke-width: 2; stroke-linejoin: miter; stroke-linecap: square"/>
   </g>
   <g id="patch_4">
    <path d="M 63.788308 248.545354 
L 976.365354 248.545354 
" style="fill: none; stroke: #000000; stroke-width: 2; stroke-linejoin: miter; stroke-linecap: square"/>
   </g>
   <g id="line2d_13">
    <path d="M 89.61596 143.154563 
L 98.225177 141.565226 
L 106.834395 140.037122 
L 115.443612 138.567056 
L 124.05283 137.152133 
L 132.662047 135.789728 
L 141.271265 134.477465 
L 149.880482 133.213195 
L 158.489699 131.994977 
L 167.098917 130.821068 
L 175.708134 129.689907 
L 184.317352 128.600109 
L 192.926569 127.550456 
L 201.535787 126.53989 
L 210.145004 125.567515 
L 218.754221 124.632589 
L 227.363439 123.734531 
L 235.972656 122.872923 
L 244.581874 122.047515 
L 253.191091 121.258231 
L 261.800308 120.505188 
L 270.409526 119.788706 
L 279.018743 119.109333 
L 287.627961 118.467868 
L 296.237178 117.865394 
L 304.846396 117.303323 
L 313.455613 116.783442 
L 322.06483 116.307987 
L 330.674048 115.879716 
L 339.283265 115.502021 
L 347.892483 115.17906 
L 356.5017 114.915928 
L 365.110917 114.718882 
L 373.720135 114.595634 
L 382.329352 114.555738 
L 390.93857 114.611107 
L 399.547787 114.776716 
L 408.157005 115.071558 
L 416.766222 115.519974 
L 425.375439 116.153509 
L 433.984657 117.013544 
L 442.593874 118.155035 
L 451.203092 119.651818 
L 459.812309 121.604 
L 468.421527 124.147667 
L 477.030744 127.465663 
L 485.639961 131.79313 
L 494.249179 137.397778 
L 502.858396 144.489197 
L 511.467614 153.005881 
L 520.076831 162.366714 
L 528.686048 171.549247 
L 537.295266 179.635943 
L 545.904483 186.239503 
L 554.513701 191.424702 
L 563.122918 195.441751 
L 571.732136 198.555355 
L 580.341353 200.984728 
L 588.95057 202.896425 
L 597.559788 204.413309 
L 606.169005 205.625557 
L 614.778223 206.599738 
L 623.38744 207.385529 
L 631.996658 208.020468 
L 640.605875 208.533296 
L 649.215092 208.946296 
L 657.82431 209.276959 
L 666.433527 209.539168 
L 675.042745 209.744057 
L 683.651962 209.900644 
L 692.261179 210.016298 
L 700.870397 210.097089 
L 709.479614 210.148055 
L 718.088832 210.173407 
L 726.698049 210.176686 
L 735.307267 210.160888 
L 743.916484 210.128563 
L 752.525701 210.081888 
L 761.134919 210.022735 
L 769.744136 209.952717 
L 778.353354 209.873231 
L 786.962571 209.785492 
L 795.571789 209.690557 
L 804.181006 209.589353 
L 812.790223 209.482692 
L 821.399441 209.371287 
L 830.008658 209.255769 
L 838.617876 209.136694 
L 847.227093 209.014554 
L 855.83631 208.889787 
L 864.445528 208.762782 
L 873.054745 208.633883 
L 881.663963 208.5034 
L 890.27318 208.371606 
L 898.882398 208.238749 
L 907.491615 208.105049 
L 916.100832 207.970701 
L 924.71005 207.835882 
L 933.319267 207.700752 
L 941.928485 207.56545 
L 950.537702 207.430106 
" clip-path="url(#p6f438308a7)" style="fill: none; stroke: #984ea3; stroke-width: 6"/>
   </g>
  </g>
 </g>
 <defs>
  <clipPath id="p6f438308a7">
   <rect x="63.788308" y="7.281368" width="912.577047" height="241.263986"/>
  </clipPath>
 </defs>
</svg>
