<?xml version="1.0" encoding="utf-8" standalone="no"?>
<!DOCTYPE svg PUBLIC "-//W3C//DTD SVG 1.1//EN"
  "http://www.w3.org/Graphics/SVG/1.1/DTD/svg11.dtd">
<svg xmlns:xlink="http://www.w3.org/1999/xlink" width="449.28pt" height="129.6pt" viewBox="0 0 449.28 129.6" xmlns="http://www.w3.org/2000/svg" version="1.1">
 <metadata>
  <rdf:RDF xmlns:dc="http://purl.org/dc/elements/1.1/" xmlns:cc="http://creativecommons.org/ns#" xmlns:rdf="http://www.w3.org/1999/02/22-rdf-syntax-ns#">
   <cc:Work>
    <dc:type rdf:resource="http://purl.org/dc/dcmitype/StillImage"/>
    <dc:date>2024-08-20T13:25:47.498634</dc:date>
    <dc:format>image/svg+xml</dc:format>
    <dc:creator>
     <cc:Agent>
      <dc:title>Matplotlib v3.8.4, https://matplotlib.org/</dc:title>
     </cc:Agent>
    </dc:creator>
   </cc:Work>
  </rdf:RDF>
 </metadata>
 <defs>
  <style type="text/css">*{stroke-linejoin: round; stroke-linecap: butt}</style>
 </defs>
 <g id="figure_1">
  <g id="patch_1">
   <path d="M 0 129.6 
L 449.28 129.6 
L 449.28 0 
L 0 0 
L 0 129.6 
z
" style="fill: none"/>
  </g>
  <g id="axes_1">
   <g id="patch_2">
    <path d="M 64.170808 113.029635 
L 446.445354 113.029635 
L 446.445354 10.810349 
L 64.170808 10.810349 
L 64.170808 113.029635 
z
" style="fill: none"/>
   </g>
   <g id="line2d_1">
    <path d="M 74.989899 13.704145 
L 76.793081 13.845132 
L 78.596262 14.225613 
L 80.399444 14.840417 
L 82.202626 15.683345 
L 84.186126 16.865491 
L 86.169626 18.304256 
L 88.333444 20.152251 
L 90.677581 22.462902 
L 93.202035 25.283908 
L 95.906808 28.654529 
L 98.972217 32.859398 
L 102.398262 37.968407 
L 106.365262 44.309942 
L 111.414172 52.826071 
L 126.019944 77.728457 
L 130.167263 84.220116 
L 133.773626 89.458873 
L 137.019353 93.783341 
L 139.904444 97.273728 
L 142.609217 100.213773 
L 145.133672 102.646139 
L 147.477808 104.619771 
L 149.821944 106.306525 
L 151.985763 107.599869 
L 154.149581 108.632991 
L 156.133081 109.346664 
L 158.116581 109.833756 
L 160.100081 110.092021 
L 162.083581 110.120258 
L 164.067081 109.91834 
L 166.050581 109.487235 
L 168.034081 108.829031 
L 170.017581 107.946939 
L 172.181399 106.734455 
L 174.345217 105.267889 
L 176.689354 103.402531 
L 179.213808 101.086748 
L 181.738263 98.471213 
L 184.623354 95.142552 
L 187.688763 91.247588 
L 191.114808 86.514221 
L 194.90149 80.898616 
L 199.589763 73.535072 
L 207.523763 60.574052 
L 214.73649 48.952657 
L 219.244445 42.089854 
L 223.031126 36.700871 
L 226.457172 32.193742 
L 229.522581 28.50343 
L 232.407672 25.357269 
L 235.112445 22.717943 
L 237.817217 20.396163 
L 240.341672 18.528071 
L 242.685808 17.059944 
L 245.029945 15.853952 
L 247.193763 14.976893 
L 249.357581 14.328131 
L 251.521399 13.908302 
L 253.685217 13.716751 
L 255.668717 13.760655 
L 257.471899 14.047209 
L 259.275081 14.570252 
L 261.078263 15.323985 
L 263.061763 16.411461 
L 265.045263 17.759507 
L 267.209081 19.51346 
L 269.553217 21.729085 
L 271.897354 24.249815 
L 274.602127 27.505863 
L 277.487217 31.345935 
L 280.732945 36.05576 
L 284.519627 41.975056 
L 289.207899 49.760245 
L 297.502536 64.083947 
L 304.174308 75.391355 
L 308.501945 82.307414 
L 312.288627 87.946154 
L 315.534354 92.399393 
L 318.599763 96.232574 
L 321.304536 99.28158 
L 324.009309 101.992195 
L 326.533763 104.19734 
L 328.877899 105.950071 
L 331.041718 107.306278 
L 333.205536 108.403832 
L 335.189036 109.177667 
L 337.172536 109.725691 
L 339.156036 110.045387 
L 341.139536 110.135274 
L 343.123036 109.994933 
L 345.106536 109.625038 
L 347.090036 109.027373 
L 349.073536 108.204851 
L 351.237354 107.055889 
L 353.401172 105.650929 
L 355.745309 103.849746 
L 358.089445 101.770573 
L 360.6139 99.237431 
L 363.318672 96.208125 
L 366.203763 92.648973 
L 369.44949 88.286893 
L 373.055854 83.064691 
L 377.38349 76.394229 
L 383.514309 66.480813 
L 394.3334 48.937231 
L 398.841354 42.075346 
L 402.628036 36.687375 
L 406.054081 32.181344 
L 409.119491 28.492128 
L 412.004582 25.347099 
L 414.709354 22.708901 
L 417.414127 20.388305 
L 419.938582 18.521357 
L 422.282718 17.054325 
L 424.626854 15.849443 
L 426.790672 14.973421 
L 428.954491 14.3257 
L 431.118309 13.906914 
L 433.282127 13.716399 
L 435.265627 13.761569 
L 435.626263 13.799999 
L 435.626263 13.799999 
" clip-path="url(#pd4e8169c28)" style="fill: none; stroke: #800080; stroke-width: 4"/>
   </g>
   <g id="matplotlib.axis_1">
    <g id="xtick_1"/>
    <g id="xtick_2"/>
    <g id="xtick_3"/>
    <g id="xtick_4"/>
    <g id="xtick_5"/>
   </g>
   <g id="matplotlib.axis_2">
    <g id="ytick_1">
     <g id="line2d_2">
      <defs>
       <path id="m7a98e5713f" d="M 0 0 
L 5 0 
" style="stroke: #000000"/>
      </defs>
      <g>
       <use xlink:href="#m7a98e5713f" x="64.170808" y="110.136658" style="stroke: #000000"/>
      </g>
     </g>
     <g id="text_1">
      <!-- $-1.0$ -->
      <g transform="translate(2.990808 120.774471) scale(0.28 -0.28)">
       <defs>
        <path id="Cmsy10-a1" d="M 653 1472 
Q 600 1472 565 1512 
Q 531 1553 531 1600 
Q 531 1647 565 1687 
Q 600 1728 653 1728 
L 4325 1728 
Q 4375 1728 4408 1687 
Q 4441 1647 4441 1600 
Q 4441 1553 4408 1512 
Q 4375 1472 4325 1472 
L 653 1472 
z
" transform="scale(0.015625)"/>
        <path id="Cmr10-31" d="M 594 0 
L 594 225 
Q 1394 225 1394 428 
L 1394 3788 
Q 1063 3628 556 3628 
L 556 3853 
Q 1341 3853 1741 4263 
L 1831 4263 
Q 1853 4263 1873 4245 
Q 1894 4228 1894 4206 
L 1894 428 
Q 1894 225 2694 225 
L 2694 0 
L 594 0 
z
" transform="scale(0.015625)"/>
        <path id="Cmmi10-3a" d="M 538 353 
Q 538 497 644 600 
Q 750 703 891 703 
Q 978 703 1062 656 
Q 1147 609 1194 525 
Q 1241 441 1241 353 
Q 1241 213 1137 106 
Q 1034 0 891 0 
Q 750 0 644 106 
Q 538 213 538 353 
z
" transform="scale(0.015625)"/>
        <path id="Cmr10-30" d="M 1600 -141 
Q 816 -141 533 504 
Q 250 1150 250 2041 
Q 250 2597 351 3087 
Q 453 3578 754 3920 
Q 1056 4263 1600 4263 
Q 2022 4263 2290 4056 
Q 2559 3850 2700 3523 
Q 2841 3197 2892 2823 
Q 2944 2450 2944 2041 
Q 2944 1491 2842 1011 
Q 2741 531 2444 195 
Q 2147 -141 1600 -141 
z
M 1600 25 
Q 1956 25 2131 390 
Q 2306 756 2347 1200 
Q 2388 1644 2388 2144 
Q 2388 2625 2347 3031 
Q 2306 3438 2132 3767 
Q 1959 4097 1600 4097 
Q 1238 4097 1063 3765 
Q 888 3434 847 3029 
Q 806 2625 806 2144 
Q 806 1788 823 1472 
Q 841 1156 916 820 
Q 991 484 1158 254 
Q 1325 25 1600 25 
z
" transform="scale(0.015625)"/>
       </defs>
       <use xlink:href="#Cmsy10-a1" transform="translate(0 0.390625)"/>
       <use xlink:href="#Cmr10-31" transform="translate(77.685547 0.390625)"/>
       <use xlink:href="#Cmmi10-3a" transform="translate(127.685547 0.390625)"/>
       <use xlink:href="#Cmr10-30" transform="translate(155.371094 0.390625)"/>
      </g>
     </g>
    </g>
    <g id="ytick_2">
     <g id="line2d_3">
      <g>
       <use xlink:href="#m7a98e5713f" x="64.170808" y="86.028329" style="stroke: #000000"/>
      </g>
     </g>
     <g id="text_2">
      <!-- $-0.5$ -->
      <g transform="translate(2.990808 96.666142) scale(0.28 -0.28)">
       <defs>
        <path id="Cmr10-35" d="M 556 728 
Q 622 541 758 387 
Q 894 234 1080 148 
Q 1266 63 1466 63 
Q 1928 63 2103 422 
Q 2278 781 2278 1294 
Q 2278 1516 2270 1667 
Q 2263 1819 2228 1959 
Q 2169 2184 2020 2353 
Q 1872 2522 1656 2522 
Q 1441 2522 1286 2456 
Q 1131 2391 1034 2303 
Q 938 2216 863 2119 
Q 788 2022 769 2016 
L 697 2016 
Q 681 2016 657 2036 
Q 634 2056 634 2075 
L 634 4213 
Q 634 4228 654 4245 
Q 675 4263 697 4263 
L 716 4263 
Q 1147 4056 1631 4056 
Q 2106 4056 2547 4263 
L 2566 4263 
Q 2588 4263 2606 4247 
Q 2625 4231 2625 4213 
L 2625 4153 
Q 2625 4122 2613 4122 
Q 2394 3831 2064 3668 
Q 1734 3506 1381 3506 
Q 1125 3506 856 3578 
L 856 2369 
Q 1069 2541 1236 2614 
Q 1403 2688 1663 2688 
Q 2016 2688 2295 2484 
Q 2575 2281 2725 1954 
Q 2875 1628 2875 1288 
Q 2875 903 2686 575 
Q 2497 247 2172 53 
Q 1847 -141 1466 -141 
Q 1150 -141 886 21 
Q 622 184 470 459 
Q 319 734 319 1044 
Q 319 1188 412 1278 
Q 506 1369 647 1369 
Q 788 1369 883 1276 
Q 978 1184 978 1044 
Q 978 906 883 811 
Q 788 716 647 716 
Q 625 716 597 720 
Q 569 725 556 728 
z
" transform="scale(0.015625)"/>
       </defs>
       <use xlink:href="#Cmsy10-a1" transform="translate(0 0.390625)"/>
       <use xlink:href="#Cmr10-30" transform="translate(77.685547 0.390625)"/>
       <use xlink:href="#Cmmi10-3a" transform="translate(127.685547 0.390625)"/>
       <use xlink:href="#Cmr10-35" transform="translate(155.371094 0.390625)"/>
      </g>
     </g>
    </g>
    <g id="ytick_3">
     <g id="line2d_4">
      <g>
       <use xlink:href="#m7a98e5713f" x="64.170808" y="61.92" style="stroke: #000000"/>
      </g>
     </g>
     <g id="text_3">
      <!-- $0.0$ -->
      <g transform="translate(24.830808 72.557813) scale(0.28 -0.28)">
       <use xlink:href="#Cmr10-30" transform="translate(0 0.390625)"/>
       <use xlink:href="#Cmmi10-3a" transform="translate(50 0.390625)"/>
       <use xlink:href="#Cmr10-30" transform="translate(77.685547 0.390625)"/>
      </g>
     </g>
    </g>
    <g id="ytick_4">
     <g id="line2d_5">
      <g>
       <use xlink:href="#m7a98e5713f" x="64.170808" y="37.811671" style="stroke: #000000"/>
      </g>
     </g>
     <g id="text_4">
      <!-- $0.5$ -->
      <g transform="translate(24.830808 48.449484) scale(0.28 -0.28)">
       <use xlink:href="#Cmr10-30" transform="translate(0 0.390625)"/>
       <use xlink:href="#Cmmi10-3a" transform="translate(50 0.390625)"/>
       <use xlink:href="#Cmr10-35" transform="translate(77.685547 0.390625)"/>
      </g>
     </g>
    </g>
    <g id="ytick_5">
     <g id="line2d_6">
      <g>
       <use xlink:href="#m7a98e5713f" x="64.170808" y="13.703342" style="stroke: #000000"/>
      </g>
     </g>
     <g id="text_5">
      <!-- $1.0$ -->
      <g transform="translate(24.830808 24.341155) scale(0.28 -0.28)">
       <use xlink:href="#Cmr10-31" transform="translate(0 0.390625)"/>
       <use xlink:href="#Cmmi10-3a" transform="translate(50 0.390625)"/>
       <use xlink:href="#Cmr10-30" transform="translate(77.685547 0.390625)"/>
      </g>
     </g>
    </g>
   </g>
   <g id="line2d_7">
    <path d="M 74.989899 13.706341 
L 75.350535 13.835682 
L 75.89149 14.374987 
L 76.432444 15.311353 
L 77.153717 17.120405 
L 78.055308 20.200585 
L 79.137217 24.917579 
L 80.399444 31.503084 
L 82.202626 42.26726 
L 87.972808 77.701633 
L 89.595671 86.006624 
L 91.038217 92.405552 
L 92.480762 97.78356 
L 93.74299 101.655833 
L 95.005217 104.745731 
L 96.087126 106.805876 
L 96.988717 108.120669 
L 97.890308 109.089989 
L 98.791899 109.733142 
L 99.69349 110.07072 
L 100.595081 110.124134 
L 101.496672 109.915203 
L 102.398262 109.465811 
L 103.480172 108.638599 
L 104.742399 107.32659 
L 106.004626 105.688652 
L 107.62749 103.192599 
L 109.61099 99.674981 
L 112.315762 94.329488 
L 118.085944 82.114604 
L 123.315172 71.395354 
L 126.741217 64.906475 
L 130.167263 58.864077 
L 135.035853 50.751921 
L 139.002853 44.472408 
L 142.068263 40.026797 
L 144.773035 36.467066 
L 147.477808 33.256156 
L 150.002263 30.566448 
L 152.707035 27.995473 
L 155.411808 25.725349 
L 158.116581 23.732359 
L 160.821354 21.992484 
L 163.706444 20.388945 
L 166.591535 19.01985 
L 169.837263 17.729487 
L 173.08299 16.670651 
L 176.689354 15.731976 
L 180.656354 14.947783 
L 184.803672 14.363331 
L 189.311626 13.957212 
L 194.360535 13.736277 
L 197.606263 13.745551 
L 197.966899 13.967537 
L 198.507854 14.635955 
L 199.048808 15.696117 
L 199.770081 17.657243 
L 200.671672 20.901302 
L 201.753581 25.774451 
L 203.015808 32.493781 
L 204.999308 44.50904 
L 209.687581 73.650828 
L 211.490763 83.350331 
L 213.113626 90.877432 
L 214.556172 96.517003 
L 215.818399 100.614163 
L 216.900308 103.506618 
L 217.982217 105.837924 
L 219.064126 107.630478 
L 219.965717 108.737575 
L 220.867308 109.510496 
L 221.768899 109.969373 
L 222.67049 110.135339 
L 223.572081 110.030092 
L 224.473672 109.675526 
L 225.375263 109.09342 
L 226.457172 108.125129 
L 227.719399 106.664967 
L 229.161945 104.635846 
L 230.965126 101.656343 
L 233.309263 97.247571 
L 236.014036 91.709201 
L 247.374081 68.272244 
L 250.619808 62.320232 
L 254.767127 55.223899 
L 260.176672 46.422891 
L 263.422399 41.554497 
L 266.30749 37.620411 
L 269.012263 34.29311 
L 271.536717 31.498716 
L 274.24149 28.821928 
L 276.946263 26.45363 
L 279.651036 24.370502 
L 282.355808 22.548502 
L 285.240899 20.865869 
L 288.12599 19.425949 
L 291.191399 18.133979 
L 294.437127 17.000868 
L 297.863172 16.035518 
L 301.469536 15.240577 
L 305.436536 14.5909 
L 309.764172 14.109585 
L 314.452445 13.811282 
L 319.681672 13.703397 
L 320.042309 13.744042 
L 320.402945 13.963776 
L 320.943899 14.629029 
L 321.484854 15.686259 
L 322.206127 17.643671 
L 323.107718 20.883777 
L 324.189627 25.753244 
L 325.451854 32.46917 
L 327.435354 44.481584 
L 332.123627 73.625996 
L 333.926809 83.328588 
L 335.549672 90.858899 
L 336.992218 96.501767 
L 338.254445 100.6014 
L 339.336354 103.496156 
L 340.418263 105.829731 
L 341.500172 107.624391 
L 342.401763 108.733121 
L 343.303354 109.507583 
L 344.204945 109.967903 
L 345.106536 110.135209 
L 346.008127 110.031198 
L 346.909718 109.677765 
L 347.811309 109.096689 
L 348.893218 108.129548 
L 350.155445 106.670527 
L 351.59799 104.642456 
L 353.401172 101.663985 
L 355.745309 97.25607 
L 358.450081 91.718246 
L 369.810127 68.280493 
L 373.055854 62.327841 
L 377.203172 55.231103 
L 382.612718 46.429658 
L 385.858445 41.560686 
L 388.743536 37.626028 
L 391.448309 34.298168 
L 393.972763 31.503256 
L 396.677536 28.825957 
L 399.382309 26.457184 
L 402.087081 24.373618 
L 404.791854 22.55122 
L 407.676945 20.868209 
L 410.562036 19.427942 
L 413.627445 18.135633 
L 416.873172 17.002231 
L 420.299218 16.036604 
L 423.905582 15.241409 
L 427.872582 14.591491 
L 432.200218 14.109961 
L 435.626263 13.871409 
L 435.626263 13.871409 
" clip-path="url(#pd4e8169c28)" style="fill: none; stroke: #2baad5; stroke-width: 4"/>
   </g>
   <g id="patch_3">
    <path d="M 64.170808 113.029635 
L 64.170808 10.810349 
" style="fill: none; stroke: #000000; stroke-width: 2; stroke-linejoin: miter; stroke-linecap: square"/>
   </g>
  </g>
 </g>
 <defs>
  <clipPath id="pd4e8169c28">
   <rect x="64.170808" y="10.810349" width="382.274547" height="102.219286"/>
  </clipPath>
 </defs>
</svg>
