<?xml version="1.0" encoding="utf-8" standalone="no"?>
<!DOCTYPE svg PUBLIC "-//W3C//DTD SVG 1.1//EN"
  "http://www.w3.org/Graphics/SVG/1.1/DTD/svg11.dtd">
<svg xmlns:xlink="http://www.w3.org/1999/xlink" width="979.2pt" height="336.96pt" viewBox="0 0 979.2 336.96" xmlns="http://www.w3.org/2000/svg" version="1.1">
 <metadata>
  <rdf:RDF xmlns:dc="http://purl.org/dc/elements/1.1/" xmlns:cc="http://creativecommons.org/ns#" xmlns:rdf="http://www.w3.org/1999/02/22-rdf-syntax-ns#">
   <cc:Work>
    <dc:type rdf:resource="http://purl.org/dc/dcmitype/StillImage"/>
    <dc:date>2024-04-26T17:51:20.444918</dc:date>
    <dc:format>image/svg+xml</dc:format>
    <dc:creator>
     <cc:Agent>
      <dc:title>Matplotlib v3.7.0, https://matplotlib.org/</dc:title>
     </cc:Agent>
    </dc:creator>
   </cc:Work>
  </rdf:RDF>
 </metadata>
 <defs>
  <style type="text/css">*{stroke-linejoin: round; stroke-linecap: butt}</style>
 </defs>
 <g id="figure_1">
  <g id="patch_1">
   <path d="M 0 336.96 
L 979.2 336.96 
L 979.2 0 
L 0 0 
L 0 336.96 
z
" style="fill: none"/>
  </g>
  <g id="axes_1">
   <g id="patch_2">
    <path d="M 50.49491 303.265354 
L 972.800964 303.265354 
L 972.800964 2.834646 
L 50.49491 2.834646 
L 50.49491 303.265354 
z
" style="fill: none"/>
   </g>
   <g id="line2d_1">
    <path d="M 76.597912 58.479591 
L 85.298912 60.102961 
L 93.999913 61.742019 
L 102.700913 63.397015 
L 111.401914 65.068192 
L 120.102914 66.755785 
L 128.803915 68.460017 
L 137.504915 70.181101 
L 146.205916 71.919238 
L 154.906916 73.674613 
L 163.607917 75.447394 
L 172.308917 77.237735 
L 181.009918 79.045768 
L 189.710918 80.871603 
L 198.411919 82.715328 
L 207.112919 84.577006 
L 215.81392 86.456671 
L 224.51492 88.354331 
L 233.215921 90.269958 
L 241.916921 92.203495 
L 250.617922 94.154846 
L 259.318922 96.12388 
L 268.019923 98.110426 
L 276.720923 100.114269 
L 285.421924 102.135154 
L 294.122924 104.17278 
L 302.823925 106.2268 
L 311.524925 108.296818 
L 320.225926 110.382391 
L 328.926926 112.483025 
L 337.627927 114.598178 
L 346.328927 116.727255 
L 355.029928 118.869611 
L 363.730928 121.024554 
L 372.431929 123.19134 
L 381.132929 125.369178 
L 389.83393 127.55723 
L 398.53493 129.754616 
L 407.235931 131.96041 
L 415.936931 134.173652 
L 424.637932 136.393341 
L 433.338932 138.618448 
L 442.039933 140.847913 
L 450.740933 143.080653 
L 459.441934 145.315566 
L 468.142934 147.551533 
L 476.843935 149.787428 
L 485.544935 152.02212 
L 494.245936 154.254477 
L 502.946936 156.483376 
L 511.647937 158.707702 
L 520.348937 160.926358 
L 529.049938 163.138269 
L 537.750938 165.342385 
L 546.451939 167.537686 
L 555.152939 169.723189 
L 563.85394 171.897948 
L 572.55494 174.061058 
L 581.255941 176.211661 
L 589.956941 178.348946 
L 598.657942 180.47215 
L 607.358942 182.580563 
L 616.059943 184.673526 
L 624.760943 186.750436 
L 633.461944 188.810739 
L 642.162944 190.853937 
L 650.863945 192.879585 
L 659.564945 194.887288 
L 668.265946 196.876705 
L 676.966947 198.847541 
L 685.667947 200.799551 
L 694.368948 202.732535 
L 703.069948 204.646336 
L 711.770949 206.540841 
L 720.471949 208.415975 
L 729.17295 210.271699 
L 737.87395 212.108013 
L 746.574951 213.924944 
L 755.275951 215.722554 
L 763.976952 217.500929 
L 772.677952 219.260183 
L 781.378953 221.000453 
L 790.079953 222.721896 
L 798.780954 224.42469 
L 807.481954 226.109028 
L 816.182955 227.775122 
L 824.883955 229.423193 
L 833.584956 231.053478 
L 842.285956 232.666222 
L 850.986957 234.261681 
L 859.687957 235.840117 
L 868.388958 237.4018 
L 877.089958 238.947003 
L 885.790959 240.476006 
L 894.491959 241.989091 
L 903.19296 243.486541 
L 911.89396 244.968645 
L 920.594961 246.435687 
L 929.295961 247.887956 
L 937.996962 249.325739 
L 946.697962 250.749321 
" clip-path="url(#p8728de0c42)" style="fill: none; stroke: #800080; stroke-width: 6"/>
   </g>
   <g id="matplotlib.axis_1">
    <g id="xtick_1">
     <g id="line2d_2">
      <defs>
       <path id="m7c5588e1b9" d="M 0 0 
L 0 -5 
" style="stroke: #000000"/>
      </defs>
      <g>
       <use xlink:href="#m7c5588e1b9" x="76.597912" y="303.265354" style="stroke: #000000"/>
      </g>
     </g>
     <g id="text_1">
      <!-- $0.90$ -->
      <g transform="translate(51.677912 328.040979) scale(0.28 -0.28)">
       <defs>
        <path id="Cmr10-30" d="M 1600 -141 
Q 816 -141 533 504 
Q 250 1150 250 2041 
Q 250 2597 351 3087 
Q 453 3578 754 3920 
Q 1056 4263 1600 4263 
Q 2022 4263 2290 4056 
Q 2559 3850 2700 3523 
Q 2841 3197 2892 2823 
Q 2944 2450 2944 2041 
Q 2944 1491 2842 1011 
Q 2741 531 2444 195 
Q 2147 -141 1600 -141 
z
M 1600 25 
Q 1956 25 2131 390 
Q 2306 756 2347 1200 
Q 2388 1644 2388 2144 
Q 2388 2625 2347 3031 
Q 2306 3438 2132 3767 
Q 1959 4097 1600 4097 
Q 1238 4097 1063 3765 
Q 888 3434 847 3029 
Q 806 2625 806 2144 
Q 806 1788 823 1472 
Q 841 1156 916 820 
Q 991 484 1158 254 
Q 1325 25 1600 25 
z
" transform="scale(0.015625)"/>
        <path id="Cmmi10-3a" d="M 538 353 
Q 538 497 644 600 
Q 750 703 891 703 
Q 978 703 1062 656 
Q 1147 609 1194 525 
Q 1241 441 1241 353 
Q 1241 213 1137 106 
Q 1034 0 891 0 
Q 750 0 644 106 
Q 538 213 538 353 
z
" transform="scale(0.015625)"/>
        <path id="Cmr10-39" d="M 722 269 
Q 897 63 1331 63 
Q 1575 63 1786 228 
Q 1997 394 2113 634 
Q 2247 906 2284 1214 
Q 2322 1522 2322 1978 
Q 2213 1719 2008 1553 
Q 1803 1388 1538 1388 
Q 1166 1388 873 1589 
Q 581 1791 425 2120 
Q 269 2450 269 2822 
Q 269 3206 444 3539 
Q 619 3872 928 4067 
Q 1238 4263 1631 4263 
Q 2019 4263 2280 4052 
Q 2541 3841 2678 3508 
Q 2816 3175 2870 2803 
Q 2925 2431 2925 2069 
Q 2925 1575 2744 1061 
Q 2563 547 2202 203 
Q 1841 -141 1331 -141 
Q 953 -141 690 37 
Q 428 216 428 575 
Q 428 706 517 795 
Q 606 884 738 884 
Q 866 884 955 795 
Q 1044 706 1044 575 
Q 1044 450 953 359 
Q 863 269 738 269 
L 722 269 
z
M 1563 1556 
Q 1825 1556 1992 1732 
Q 2159 1909 2234 2171 
Q 2309 2434 2309 2694 
L 2309 2816 
L 2309 2841 
Q 2309 3322 2168 3700 
Q 2028 4078 1631 4078 
Q 1378 4078 1220 3967 
Q 1063 3856 988 3672 
Q 913 3488 892 3278 
Q 872 3069 872 2822 
Q 872 2459 906 2203 
Q 941 1947 1094 1751 
Q 1247 1556 1563 1556 
z
" transform="scale(0.015625)"/>
       </defs>
       <use xlink:href="#Cmr10-30" transform="translate(0 0.390625)"/>
       <use xlink:href="#Cmmi10-3a" transform="translate(50 0.390625)"/>
       <use xlink:href="#Cmr10-39" transform="translate(77.685547 0.390625)"/>
       <use xlink:href="#Cmr10-30" transform="translate(127.685547 0.390625)"/>
      </g>
     </g>
    </g>
    <g id="xtick_2">
     <g id="line2d_3">
      <g>
       <use xlink:href="#m7c5588e1b9" x="294.122924" y="303.265354" style="stroke: #000000"/>
      </g>
     </g>
     <g id="text_2">
      <!-- $0.95$ -->
      <g transform="translate(269.202924 328.040979) scale(0.28 -0.28)">
       <defs>
        <path id="Cmr10-35" d="M 556 728 
Q 622 541 758 387 
Q 894 234 1080 148 
Q 1266 63 1466 63 
Q 1928 63 2103 422 
Q 2278 781 2278 1294 
Q 2278 1516 2270 1667 
Q 2263 1819 2228 1959 
Q 2169 2184 2020 2353 
Q 1872 2522 1656 2522 
Q 1441 2522 1286 2456 
Q 1131 2391 1034 2303 
Q 938 2216 863 2119 
Q 788 2022 769 2016 
L 697 2016 
Q 681 2016 657 2036 
Q 634 2056 634 2075 
L 634 4213 
Q 634 4228 654 4245 
Q 675 4263 697 4263 
L 716 4263 
Q 1147 4056 1631 4056 
Q 2106 4056 2547 4263 
L 2566 4263 
Q 2588 4263 2606 4247 
Q 2625 4231 2625 4213 
L 2625 4153 
Q 2625 4122 2613 4122 
Q 2394 3831 2064 3668 
Q 1734 3506 1381 3506 
Q 1125 3506 856 3578 
L 856 2369 
Q 1069 2541 1236 2614 
Q 1403 2688 1663 2688 
Q 2016 2688 2295 2484 
Q 2575 2281 2725 1954 
Q 2875 1628 2875 1288 
Q 2875 903 2686 575 
Q 2497 247 2172 53 
Q 1847 -141 1466 -141 
Q 1150 -141 886 21 
Q 622 184 470 459 
Q 319 734 319 1044 
Q 319 1188 412 1278 
Q 506 1369 647 1369 
Q 788 1369 883 1276 
Q 978 1184 978 1044 
Q 978 906 883 811 
Q 788 716 647 716 
Q 625 716 597 720 
Q 569 725 556 728 
z
" transform="scale(0.015625)"/>
       </defs>
       <use xlink:href="#Cmr10-30" transform="translate(0 0.390625)"/>
       <use xlink:href="#Cmmi10-3a" transform="translate(50 0.390625)"/>
       <use xlink:href="#Cmr10-39" transform="translate(77.685547 0.390625)"/>
       <use xlink:href="#Cmr10-35" transform="translate(127.685547 0.390625)"/>
      </g>
     </g>
    </g>
    <g id="xtick_3">
     <g id="line2d_4">
      <g>
       <use xlink:href="#m7c5588e1b9" x="511.647937" y="303.265354" style="stroke: #000000"/>
      </g>
     </g>
     <g id="text_3">
      <!-- $1.00$ -->
      <g transform="translate(486.727937 328.040979) scale(0.28 -0.28)">
       <defs>
        <path id="Cmr10-31" d="M 594 0 
L 594 225 
Q 1394 225 1394 428 
L 1394 3788 
Q 1063 3628 556 3628 
L 556 3853 
Q 1341 3853 1741 4263 
L 1831 4263 
Q 1853 4263 1873 4245 
Q 1894 4228 1894 4206 
L 1894 428 
Q 1894 225 2694 225 
L 2694 0 
L 594 0 
z
" transform="scale(0.015625)"/>
       </defs>
       <use xlink:href="#Cmr10-31" transform="translate(0 0.390625)"/>
       <use xlink:href="#Cmmi10-3a" transform="translate(50 0.390625)"/>
       <use xlink:href="#Cmr10-30" transform="translate(77.685547 0.390625)"/>
       <use xlink:href="#Cmr10-30" transform="translate(127.685547 0.390625)"/>
      </g>
     </g>
    </g>
    <g id="xtick_4">
     <g id="line2d_5">
      <g>
       <use xlink:href="#m7c5588e1b9" x="729.17295" y="303.265354" style="stroke: #000000"/>
      </g>
     </g>
     <g id="text_4">
      <!-- $1.05$ -->
      <g transform="translate(704.25295 328.040979) scale(0.28 -0.28)">
       <use xlink:href="#Cmr10-31" transform="translate(0 0.390625)"/>
       <use xlink:href="#Cmmi10-3a" transform="translate(50 0.390625)"/>
       <use xlink:href="#Cmr10-30" transform="translate(77.685547 0.390625)"/>
       <use xlink:href="#Cmr10-35" transform="translate(127.685547 0.390625)"/>
      </g>
     </g>
    </g>
    <g id="xtick_5">
     <g id="line2d_6">
      <g>
       <use xlink:href="#m7c5588e1b9" x="946.697962" y="303.265354" style="stroke: #000000"/>
      </g>
     </g>
     <g id="text_5">
      <!-- $1.10$ -->
      <g transform="translate(921.777962 328.040979) scale(0.28 -0.28)">
       <use xlink:href="#Cmr10-31" transform="translate(0 0.390625)"/>
       <use xlink:href="#Cmmi10-3a" transform="translate(50 0.390625)"/>
       <use xlink:href="#Cmr10-31" transform="translate(77.685547 0.390625)"/>
       <use xlink:href="#Cmr10-30" transform="translate(127.685547 0.390625)"/>
      </g>
     </g>
    </g>
   </g>
   <g id="matplotlib.axis_2">
    <g id="ytick_1">
     <g id="line2d_7">
      <defs>
       <path id="maf4be49eb0" d="M 0 0 
L 5 0 
" style="stroke: #000000"/>
      </defs>
      <g>
       <use xlink:href="#maf4be49eb0" x="50.49491" y="53.253522" style="stroke: #000000"/>
      </g>
     </g>
     <g id="text_6">
      <!-- $-\frac{\pi}{3}$ -->
      <g transform="translate(10.31491 62.913522) scale(0.28 -0.28)">
       <defs>
        <path id="Cmsy10-a1" d="M 653 1472 
Q 600 1472 565 1512 
Q 531 1553 531 1600 
Q 531 1647 565 1687 
Q 600 1728 653 1728 
L 4325 1728 
Q 4375 1728 4408 1687 
Q 4441 1647 4441 1600 
Q 4441 1553 4408 1512 
Q 4375 1472 4325 1472 
L 653 1472 
z
" transform="scale(0.015625)"/>
        <path id="Cmmi10-bc" d="M 647 109 
Q 647 144 672 213 
Q 850 584 1004 942 
Q 1159 1300 1282 1639 
Q 1406 1978 1509 2363 
L 1100 2363 
Q 866 2363 662 2216 
Q 459 2069 325 1844 
Q 313 1819 288 1819 
L 213 1819 
Q 153 1819 153 1881 
Q 153 1894 166 1919 
Q 375 2275 614 2517 
Q 853 2759 1153 2759 
L 3475 2759 
Q 3541 2759 3587 2715 
Q 3634 2672 3634 2597 
Q 3634 2503 3567 2433 
Q 3500 2363 3406 2363 
L 2591 2363 
Q 2488 1859 2478 1381 
Q 2478 766 2694 269 
Q 2713 231 2713 191 
Q 2713 122 2672 62 
Q 2631 3 2567 -34 
Q 2503 -72 2431 -72 
Q 2263 -72 2200 203 
Q 2138 478 2138 738 
Q 2138 1103 2200 1442 
Q 2263 1781 2400 2363 
L 1703 2363 
Q 1197 313 1094 103 
Q 1003 -72 844 -72 
Q 766 -72 706 -20 
Q 647 31 647 109 
z
" transform="scale(0.015625)"/>
        <path id="Cmr10-33" d="M 609 494 
Q 759 275 1012 169 
Q 1266 63 1556 63 
Q 1928 63 2084 380 
Q 2241 697 2241 1100 
Q 2241 1281 2208 1462 
Q 2175 1644 2097 1800 
Q 2019 1956 1883 2050 
Q 1747 2144 1550 2144 
L 1125 2144 
Q 1069 2144 1069 2203 
L 1069 2259 
Q 1069 2309 1125 2309 
L 1478 2338 
Q 1703 2338 1851 2506 
Q 2000 2675 2069 2917 
Q 2138 3159 2138 3378 
Q 2138 3684 1994 3881 
Q 1850 4078 1556 4078 
Q 1313 4078 1091 3986 
Q 869 3894 738 3706 
Q 750 3709 759 3711 
Q 769 3713 781 3713 
Q 925 3713 1022 3613 
Q 1119 3513 1119 3372 
Q 1119 3234 1022 3134 
Q 925 3034 781 3034 
Q 641 3034 541 3134 
Q 441 3234 441 3372 
Q 441 3647 606 3850 
Q 772 4053 1033 4158 
Q 1294 4263 1556 4263 
Q 1750 4263 1965 4205 
Q 2181 4147 2356 4039 
Q 2531 3931 2642 3762 
Q 2753 3594 2753 3378 
Q 2753 3109 2633 2881 
Q 2513 2653 2303 2487 
Q 2094 2322 1844 2241 
Q 2122 2188 2372 2031 
Q 2622 1875 2773 1631 
Q 2925 1388 2925 1106 
Q 2925 753 2731 467 
Q 2538 181 2222 20 
Q 1906 -141 1556 -141 
Q 1256 -141 954 -26 
Q 653 88 461 316 
Q 269 544 269 863 
Q 269 1022 375 1128 
Q 481 1234 641 1234 
Q 744 1234 830 1186 
Q 916 1138 964 1050 
Q 1013 963 1013 863 
Q 1013 706 903 600 
Q 794 494 641 494 
L 609 494 
z
" transform="scale(0.015625)"/>
       </defs>
       <use xlink:href="#Cmsy10-a1" transform="translate(0 0.535938)"/>
       <use xlink:href="#Cmmi10-bc" transform="translate(77.685547 38.823437) scale(0.7)"/>
       <use xlink:href="#Cmr10-33" transform="translate(79.685547 -39.840625) scale(0.7)"/>
       <path d="M 77.685547 13.035937 
L 77.685547 19.285937 
L 117.573242 19.285937 
L 117.573242 13.035937 
L 77.685547 13.035937 
z
"/>
      </g>
     </g>
    </g>
    <g id="ytick_2">
     <g id="line2d_8">
      <g>
       <use xlink:href="#maf4be49eb0" x="50.49491" y="147.237593" style="stroke: #000000"/>
      </g>
     </g>
     <g id="text_7">
      <!-- $-\frac{\pi}{2}$ -->
      <g transform="translate(10.31491 156.897593) scale(0.28 -0.28)">
       <defs>
        <path id="Cmr10-32" d="M 319 0 
L 319 172 
Q 319 188 331 206 
L 1325 1306 
Q 1550 1550 1690 1715 
Q 1831 1881 1968 2097 
Q 2106 2313 2186 2536 
Q 2266 2759 2266 3009 
Q 2266 3272 2169 3511 
Q 2072 3750 1880 3894 
Q 1688 4038 1416 4038 
Q 1138 4038 916 3870 
Q 694 3703 603 3438 
Q 628 3444 672 3444 
Q 816 3444 917 3347 
Q 1019 3250 1019 3097 
Q 1019 2950 917 2848 
Q 816 2747 672 2747 
Q 522 2747 420 2851 
Q 319 2956 319 3097 
Q 319 3338 409 3548 
Q 500 3759 670 3923 
Q 841 4088 1055 4175 
Q 1269 4263 1509 4263 
Q 1875 4263 2190 4108 
Q 2506 3953 2690 3670 
Q 2875 3388 2875 3009 
Q 2875 2731 2753 2481 
Q 2631 2231 2440 2026 
Q 2250 1822 1953 1562 
Q 1656 1303 1563 1216 
L 838 519 
L 1453 519 
Q 1906 519 2211 526 
Q 2516 534 2534 550 
Q 2609 631 2688 1141 
L 2875 1141 
L 2694 0 
L 319 0 
z
" transform="scale(0.015625)"/>
       </defs>
       <use xlink:href="#Cmsy10-a1" transform="translate(0 0.535938)"/>
       <use xlink:href="#Cmmi10-bc" transform="translate(77.685547 38.823437) scale(0.7)"/>
       <use xlink:href="#Cmr10-32" transform="translate(79.685547 -39.840625) scale(0.7)"/>
       <path d="M 77.685547 13.035937 
L 77.685547 19.285937 
L 117.573242 19.285937 
L 117.573242 13.035937 
L 77.685547 13.035937 
z
"/>
      </g>
     </g>
    </g>
    <g id="ytick_3">
     <g id="line2d_9">
      <g>
       <use xlink:href="#maf4be49eb0" x="50.49491" y="241.221664" style="stroke: #000000"/>
      </g>
     </g>
     <g id="text_8">
      <!-- $-\frac{2\pi}{3}$ -->
      <g transform="translate(0.51491 253.121664) scale(0.28 -0.28)">
       <use xlink:href="#Cmsy10-a1" transform="translate(0 0.085938)"/>
       <use xlink:href="#Cmr10-32" transform="translate(77.685547 38.373438) scale(0.7)"/>
       <use xlink:href="#Cmmi10-bc" transform="translate(112.685547 38.373438) scale(0.7)"/>
       <use xlink:href="#Cmr10-33" transform="translate(97.685547 -40.290625) scale(0.7)"/>
       <path d="M 77.685547 12.585938 
L 77.685547 18.835938 
L 152.573242 18.835938 
L 152.573242 12.585938 
L 77.685547 12.585938 
z
"/>
      </g>
     </g>
    </g>
   </g>
   <g id="line2d_10">
    <path d="M 76.597912 11.337402 
L 85.298912 15.314338 
L 93.999913 19.198598 
L 102.700913 22.997474 
L 111.401914 26.717408 
L 120.102914 30.364129 
L 128.803915 33.942754 
L 137.504915 37.457883 
L 146.205916 40.913667 
L 154.906916 44.313871 
L 163.607917 47.66192 
L 172.308917 50.960946 
L 181.009918 54.213818 
L 189.710918 57.423179 
L 198.411919 60.591466 
L 207.112919 63.720934 
L 215.81392 66.81368 
L 224.51492 69.871651 
L 233.215921 72.896667 
L 241.916921 75.890429 
L 250.617922 78.854532 
L 259.318922 81.790475 
L 268.019923 84.699669 
L 276.720923 87.583447 
L 285.421924 90.443068 
L 294.122924 93.279725 
L 302.823925 96.09455 
L 311.524925 98.888622 
L 320.225926 101.662967 
L 328.926926 104.418566 
L 337.627927 107.156354 
L 346.328927 109.87723 
L 355.029928 112.582056 
L 363.730928 115.271659 
L 372.431929 117.946837 
L 381.132929 120.608359 
L 389.83393 123.256968 
L 398.53493 125.893384 
L 407.235931 128.518304 
L 415.936931 131.132405 
L 424.637932 133.736345 
L 433.338932 136.330766 
L 442.039933 138.916294 
L 450.740933 141.493542 
L 459.441934 144.063108 
L 468.142934 146.625582 
L 476.843935 149.18154 
L 485.544935 151.731552 
L 494.245936 154.276178 
L 502.946936 156.815971 
L 511.647937 159.351481 
L 520.348937 161.88325 
L 529.049938 164.411816 
L 537.750938 166.937717 
L 546.451939 169.461487 
L 555.152939 171.983658 
L 563.85394 174.504765 
L 572.55494 177.025341 
L 581.255941 179.545923 
L 589.956941 182.067049 
L 598.657942 184.589261 
L 607.358942 187.113109 
L 616.059943 189.639144 
L 624.760943 192.167928 
L 633.461944 194.700029 
L 642.162944 197.236024 
L 650.863945 199.776503 
L 659.564945 202.322064 
L 668.265946 204.873322 
L 676.966947 207.430904 
L 685.667947 209.995453 
L 694.368948 212.567632 
L 703.069948 215.14812 
L 711.770949 217.737621 
L 720.471949 220.33686 
L 729.17295 222.946587 
L 737.87395 225.567582 
L 746.574951 228.200654 
L 755.275951 230.846645 
L 763.976952 233.506434 
L 772.677952 236.18094 
L 781.378953 238.871123 
L 790.079953 241.577993 
L 798.780954 244.302612 
L 807.481954 247.046095 
L 816.182955 249.809625 
L 824.883955 252.594449 
L 833.584956 255.401893 
L 842.285956 258.233363 
L 850.986957 261.090361 
L 859.687957 263.97449 
L 868.388958 266.887464 
L 877.089958 269.831129 
L 885.790959 272.807468 
L 894.491959 275.818625 
L 903.19296 278.866923 
L 911.89396 281.954887 
L 920.594961 285.085268 
L 929.295961 288.261082 
L 937.996962 291.48564 
L 946.697962 294.762598 
" clip-path="url(#p8728de0c42)" style="fill: none; stroke: #0000ff; stroke-width: 6"/>
   </g>
   <g id="patch_3">
    <path d="M 50.49491 303.265354 
L 50.49491 2.834646 
" style="fill: none; stroke: #000000; stroke-width: 2; stroke-linejoin: miter; stroke-linecap: square"/>
   </g>
   <g id="patch_4">
    <path d="M 50.49491 303.265354 
L 972.800964 303.265354 
" style="fill: none; stroke: #000000; stroke-width: 2; stroke-linejoin: miter; stroke-linecap: square"/>
   </g>
   <g id="line2d_11">
    <path d="M 76.597912 51.145516 
L 85.298912 52.706139 
L 93.999913 54.281357 
L 102.700913 55.871421 
L 111.401914 57.476577 
L 120.102914 59.097065 
L 128.803915 60.733119 
L 137.504915 62.384965 
L 146.205916 64.052821 
L 154.906916 65.736892 
L 163.607917 67.437375 
L 172.308917 69.154454 
L 181.009918 70.888297 
L 189.710918 72.639056 
L 198.411919 74.406869 
L 207.112919 76.191852 
L 215.81392 77.994101 
L 224.51492 79.81369 
L 233.215921 81.650669 
L 241.916921 83.505061 
L 250.617922 85.376861 
L 259.318922 87.266036 
L 268.019923 89.172517 
L 276.720923 91.096206 
L 285.421924 93.036967 
L 294.122924 94.994627 
L 302.823925 96.968974 
L 311.524925 98.959755 
L 320.225926 100.966675 
L 328.926926 102.989396 
L 337.627927 105.027535 
L 346.328927 107.080662 
L 355.029928 109.148303 
L 363.730928 111.229935 
L 372.431929 113.324988 
L 381.132929 115.432845 
L 389.83393 117.552843 
L 398.53493 119.684272 
L 407.235931 121.826377 
L 415.936931 123.97836 
L 424.637932 126.139379 
L 433.338932 128.308554 
L 442.039933 130.484969 
L 450.740933 132.667671 
L 459.441934 134.855677 
L 468.142934 137.047978 
L 476.843935 139.24354 
L 485.544935 141.44131 
L 494.245936 143.64022 
L 502.946936 145.839192 
L 511.647937 148.037142 
L 520.348937 150.232986 
L 529.049938 152.425644 
L 537.750938 154.614046 
L 546.451939 156.797135 
L 555.152939 158.973872 
L 563.85394 161.143245 
L 572.55494 163.304265 
L 581.255941 165.455978 
L 589.956941 167.597463 
L 598.657942 169.727841 
L 607.358942 171.846272 
L 616.059943 173.95196 
L 624.760943 176.044159 
L 633.461944 178.122167 
L 642.162944 180.185333 
L 650.863945 182.233059 
L 659.564945 184.264793 
L 668.265946 186.280039 
L 676.966947 188.278347 
L 685.667947 190.259319 
L 694.368948 192.222607 
L 703.069948 194.16791 
L 711.770949 196.094972 
L 720.471949 198.003584 
L 729.17295 199.893578 
L 737.87395 201.764828 
L 746.574951 203.617246 
L 755.275951 205.45078 
L 763.976952 207.265416 
L 772.677952 209.061167 
L 781.378953 210.83808 
L 790.079953 212.596228 
L 798.780954 214.335711 
L 807.481954 216.056649 
L 816.182955 217.759188 
L 824.883955 219.44349 
L 833.584956 221.109737 
L 842.285956 222.758126 
L 850.986957 224.388865 
L 859.687957 226.00218 
L 868.388958 227.598304 
L 877.089958 229.17748 
L 885.790959 230.739959 
L 894.491959 232.286002 
L 903.19296 233.815871 
L 911.89396 235.329835 
L 920.594961 236.828169 
L 929.295961 238.311147 
L 937.996962 239.779047 
L 946.697962 241.232148 
" clip-path="url(#p8728de0c42)" style="fill: none; stroke: #008000; stroke-width: 6"/>
   </g>
   <g id="line2d_12">
    <path d="M 111.401914 57.108796 
" clip-path="url(#p8728de0c42)" style="fill: none; stroke: #ffa500; stroke-width: 6"/>
   </g>
   <g id="line2d_13">
    <path d="M 128.803915 60.493916 
" clip-path="url(#p8728de0c42)" style="fill: none; stroke: #ffa500; stroke-width: 6"/>
   </g>
   <g id="line2d_14">
    <path d="M 154.906916 65.571594 
L 163.607917 67.264154 
L 172.308917 68.956713 
L 181.009918 70.649273 
L 189.710918 72.341832 
L 198.411919 74.034392 
L 207.112919 75.726952 
" clip-path="url(#p8728de0c42)" style="fill: none; stroke: #ffa500; stroke-width: 6"/>
   </g>
   <g id="line2d_15">
    <path d="M 224.51492 79.112071 
L 233.215921 80.80463 
L 241.916921 84.189749 
L 250.617922 85.882309 
L 259.318922 87.574868 
L 268.019923 89.267428 
L 276.720923 90.959988 
L 285.421924 92.652547 
L 294.122924 94.345107 
L 302.823925 97.730226 
L 311.524925 99.422785 
L 320.225926 101.115345 
L 328.926926 102.807904 
L 337.627927 104.500464 
L 346.328927 107.885583 
L 355.029928 109.578143 
L 363.730928 111.270702 
L 372.431929 112.963262 
L 381.132929 114.655821 
L 389.83393 118.040941 
L 398.53493 119.7335 
L 407.235931 121.42606 
L 415.936931 124.811179 
L 424.637932 126.503738 
L 433.338932 128.196298 
L 442.039933 129.888857 
L 450.740933 133.273977 
L 459.441934 134.966536 
L 468.142934 136.659096 
L 476.843935 140.044215 
L 485.544935 141.736774 
L 494.245936 143.429334 
L 502.946936 145.121893 
L 511.647937 148.507013 
L 520.348937 150.199572 
L 529.049938 151.892132 
L 537.750938 155.277251 
L 546.451939 156.96981 
L 555.152939 158.66237 
L 563.85394 160.354929 
L 572.55494 163.740049 
L 581.255941 165.432608 
L 589.956941 167.125168 
L 598.657942 168.817727 
L 607.358942 172.202846 
L 616.059943 173.895406 
L 624.760943 175.587965 
L 633.461944 177.280525 
L 642.162944 180.665644 
L 650.863945 182.358204 
L 659.564945 184.050763 
L 668.265946 185.743323 
L 676.966947 187.435882 
L 685.667947 190.821001 
L 694.368948 192.513561 
L 703.069948 194.206121 
L 711.770949 195.89868 
L 720.471949 197.59124 
L 729.17295 200.637847 
L 737.87395 201.991895 
L 746.574951 204.022966 
L 755.275951 205.715526 
L 763.976952 207.746597 
L 772.677952 209.439157 
" clip-path="url(#p8728de0c42)" style="fill: none; stroke: #ffa500; stroke-width: 6"/>
   </g>
   <g id="line2d_16">
    <path d="M 76.597912 136.556311 
L 85.298912 136.556311 
L 93.999913 136.556311 
L 102.700913 136.556311 
L 111.401914 136.556311 
L 120.102914 136.556311 
L 128.803915 136.556311 
L 137.504915 136.556311 
L 146.205916 136.556311 
L 154.906916 136.556311 
L 163.607917 136.556311 
L 172.308917 136.556311 
L 181.009918 136.556311 
L 189.710918 136.556311 
L 198.411919 136.556311 
L 207.112919 136.556311 
L 215.81392 136.556311 
L 224.51492 136.556311 
L 233.215921 136.556311 
L 241.916921 136.556311 
L 250.617922 136.556311 
L 259.318922 136.556311 
L 268.019923 136.556311 
L 276.720923 136.556311 
L 285.421924 136.556311 
L 294.122924 136.556311 
L 302.823925 136.556311 
L 311.524925 136.556311 
L 320.225926 136.556311 
L 328.926926 136.556311 
L 337.627927 136.556311 
L 346.328927 136.556311 
L 355.029928 136.556311 
L 363.730928 136.556311 
L 372.431929 136.556311 
L 381.132929 136.556311 
L 389.83393 136.556311 
L 398.53493 136.556311 
L 407.235931 136.556311 
L 415.936931 136.556311 
L 424.637932 136.556311 
L 433.338932 136.556311 
L 442.039933 136.556311 
L 450.740933 136.556311 
L 459.441934 136.556311 
L 468.142934 136.556311 
L 476.843935 136.556311 
L 485.544935 136.556311 
L 494.245936 136.556311 
L 502.946936 136.556311 
L 511.647937 136.556311 
L 520.348937 136.556311 
L 529.049938 136.556311 
L 537.750938 136.556311 
L 546.451939 136.556311 
L 555.152939 136.556311 
L 563.85394 136.556311 
L 572.55494 136.556311 
L 581.255941 136.556311 
L 589.956941 136.556311 
L 598.657942 136.556311 
L 607.358942 136.556311 
L 616.059943 136.556311 
L 624.760943 136.556311 
L 633.461944 136.556311 
L 642.162944 136.556311 
L 650.863945 136.556311 
L 659.564945 136.556311 
L 668.265946 136.556311 
L 676.966947 136.556311 
L 685.667947 136.556311 
L 694.368948 136.556311 
L 703.069948 136.556311 
L 711.770949 136.556311 
L 720.471949 136.556311 
L 729.17295 136.556311 
L 737.87395 136.556311 
L 746.574951 136.556311 
L 755.275951 136.556311 
L 763.976952 136.556311 
L 772.677952 136.556311 
L 781.378953 136.556311 
L 790.079953 136.556311 
L 798.780954 136.556311 
L 807.481954 136.556311 
L 816.182955 136.556311 
L 824.883955 136.556311 
L 833.584956 136.556311 
L 842.285956 136.556311 
L 850.986957 136.556311 
L 859.687957 136.556311 
L 868.388958 136.556311 
L 877.089958 136.556311 
L 885.790959 136.556311 
L 894.491959 136.556311 
L 903.19296 136.556311 
L 911.89396 136.556311 
L 920.594961 136.556311 
L 929.295961 136.556311 
L 937.996962 136.556311 
L 946.697962 136.556311 
" clip-path="url(#p8728de0c42)" style="fill: none; stroke-dasharray: 22.2,9.6; stroke-dashoffset: 0; stroke: #000000; stroke-width: 6"/>
   </g>
  </g>
 </g>
 <defs>
  <clipPath id="p8728de0c42">
   <rect x="50.49491" y="2.834646" width="922.306054" height="300.430709"/>
  </clipPath>
 </defs>
</svg>
