<?xml version="1.0" encoding="utf-8" standalone="no"?>
<!DOCTYPE svg PUBLIC "-//W3C//DTD SVG 1.1//EN"
  "http://www.w3.org/Graphics/SVG/1.1/DTD/svg11.dtd">
<svg xmlns:xlink="http://www.w3.org/1999/xlink" width="455.04pt" height="184.32pt" viewBox="0 0 455.04 184.32" xmlns="http://www.w3.org/2000/svg" version="1.1">
 <metadata>
  <rdf:RDF xmlns:dc="http://purl.org/dc/elements/1.1/" xmlns:cc="http://creativecommons.org/ns#" xmlns:rdf="http://www.w3.org/1999/02/22-rdf-syntax-ns#">
   <cc:Work>
    <dc:type rdf:resource="http://purl.org/dc/dcmitype/StillImage"/>
    <dc:date>2024-06-27T17:35:03.178252</dc:date>
    <dc:format>image/svg+xml</dc:format>
    <dc:creator>
     <cc:Agent>
      <dc:title>Matplotlib v3.8.4, https://matplotlib.org/</dc:title>
     </cc:Agent>
    </dc:creator>
   </cc:Work>
  </rdf:RDF>
 </metadata>
 <defs>
  <style type="text/css">*{stroke-linejoin: round; stroke-linecap: butt}</style>
 </defs>
 <g id="figure_1">
  <g id="patch_1">
   <path d="M 0 184.32 
L 455.04 184.32 
L 455.04 0 
L 0 0 
L 0 184.32 
z
" style="fill: none"/>
  </g>
  <g id="axes_1">
   <g id="patch_2">
    <path d="M 42.418977 150.625354 
L 444.144019 150.625354 
L 444.144019 9.617861 
L 42.418977 9.617861 
L 42.418977 150.625354 
z
" style="fill: none"/>
   </g>
   <g id="line2d_1">
    <path d="M 53.788553 109.814702 
L 72.737848 104.608429 
L 89.792213 100.14983 
L 104.951648 96.408798 
L 118.216155 93.342246 
L 131.480661 90.504944 
L 142.850237 88.285538 
L 154.219814 86.291344 
L 165.589391 84.550784 
L 175.064038 83.313463 
L 184.538685 82.283421 
L 194.013332 81.467854 
L 203.48798 80.865622 
L 212.962627 80.464051 
L 224.332203 80.208222 
L 239.491639 80.122316 
L 264.125722 80.006883 
L 275.495298 79.713833 
L 284.969946 79.273796 
L 294.444593 78.629498 
L 303.91924 77.770813 
L 313.393887 76.698529 
L 322.868535 75.42113 
L 334.238111 73.636355 
L 345.607688 71.602652 
L 356.977265 69.348437 
L 370.241771 66.476058 
L 383.506277 63.379715 
L 398.665712 59.610142 
L 415.720077 55.125204 
L 432.774442 50.428513 
L 432.774442 50.428513 
" clip-path="url(#p18a5b2857d)" style="fill: none; stroke: #8c510a; stroke-opacity: 0.9; stroke-width: 4"/>
   </g>
   <g id="matplotlib.axis_1">
    <g id="xtick_1">
     <g id="line2d_2">
      <defs>
       <path id="m6a7af7c327" d="M 0 0 
L 0 -5 
" style="stroke: #000000"/>
      </defs>
      <g>
       <use xlink:href="#m6a7af7c327" x="53.788553" y="150.625354" style="stroke: #000000"/>
      </g>
     </g>
     <g id="text_1">
      <!-- $0.0$ -->
      <g transform="translate(35.868553 175.400979) scale(0.28 -0.28)">
       <defs>
        <path id="Cmr10-30" d="M 1600 -141 
Q 816 -141 533 504 
Q 250 1150 250 2041 
Q 250 2597 351 3087 
Q 453 3578 754 3920 
Q 1056 4263 1600 4263 
Q 2022 4263 2290 4056 
Q 2559 3850 2700 3523 
Q 2841 3197 2892 2823 
Q 2944 2450 2944 2041 
Q 2944 1491 2842 1011 
Q 2741 531 2444 195 
Q 2147 -141 1600 -141 
z
M 1600 25 
Q 1956 25 2131 390 
Q 2306 756 2347 1200 
Q 2388 1644 2388 2144 
Q 2388 2625 2347 3031 
Q 2306 3438 2132 3767 
Q 1959 4097 1600 4097 
Q 1238 4097 1063 3765 
Q 888 3434 847 3029 
Q 806 2625 806 2144 
Q 806 1788 823 1472 
Q 841 1156 916 820 
Q 991 484 1158 254 
Q 1325 25 1600 25 
z
" transform="scale(0.015625)"/>
        <path id="Cmmi10-3a" d="M 538 353 
Q 538 497 644 600 
Q 750 703 891 703 
Q 978 703 1062 656 
Q 1147 609 1194 525 
Q 1241 441 1241 353 
Q 1241 213 1137 106 
Q 1034 0 891 0 
Q 750 0 644 106 
Q 538 213 538 353 
z
" transform="scale(0.015625)"/>
       </defs>
       <use xlink:href="#Cmr10-30" transform="translate(0 0.390625)"/>
       <use xlink:href="#Cmmi10-3a" transform="translate(50 0.390625)"/>
       <use xlink:href="#Cmr10-30" transform="translate(77.685547 0.390625)"/>
      </g>
     </g>
    </g>
    <g id="xtick_2">
     <g id="line2d_3">
      <g>
       <use xlink:href="#m6a7af7c327" x="148.535026" y="150.625354" style="stroke: #000000"/>
      </g>
     </g>
     <g id="text_2">
      <!-- $0.5$ -->
      <g transform="translate(130.615026 175.400979) scale(0.28 -0.28)">
       <defs>
        <path id="Cmr10-35" d="M 556 728 
Q 622 541 758 387 
Q 894 234 1080 148 
Q 1266 63 1466 63 
Q 1928 63 2103 422 
Q 2278 781 2278 1294 
Q 2278 1516 2270 1667 
Q 2263 1819 2228 1959 
Q 2169 2184 2020 2353 
Q 1872 2522 1656 2522 
Q 1441 2522 1286 2456 
Q 1131 2391 1034 2303 
Q 938 2216 863 2119 
Q 788 2022 769 2016 
L 697 2016 
Q 681 2016 657 2036 
Q 634 2056 634 2075 
L 634 4213 
Q 634 4228 654 4245 
Q 675 4263 697 4263 
L 716 4263 
Q 1147 4056 1631 4056 
Q 2106 4056 2547 4263 
L 2566 4263 
Q 2588 4263 2606 4247 
Q 2625 4231 2625 4213 
L 2625 4153 
Q 2625 4122 2613 4122 
Q 2394 3831 2064 3668 
Q 1734 3506 1381 3506 
Q 1125 3506 856 3578 
L 856 2369 
Q 1069 2541 1236 2614 
Q 1403 2688 1663 2688 
Q 2016 2688 2295 2484 
Q 2575 2281 2725 1954 
Q 2875 1628 2875 1288 
Q 2875 903 2686 575 
Q 2497 247 2172 53 
Q 1847 -141 1466 -141 
Q 1150 -141 886 21 
Q 622 184 470 459 
Q 319 734 319 1044 
Q 319 1188 412 1278 
Q 506 1369 647 1369 
Q 788 1369 883 1276 
Q 978 1184 978 1044 
Q 978 906 883 811 
Q 788 716 647 716 
Q 625 716 597 720 
Q 569 725 556 728 
z
" transform="scale(0.015625)"/>
       </defs>
       <use xlink:href="#Cmr10-30" transform="translate(0 0.390625)"/>
       <use xlink:href="#Cmmi10-3a" transform="translate(50 0.390625)"/>
       <use xlink:href="#Cmr10-35" transform="translate(77.685547 0.390625)"/>
      </g>
     </g>
    </g>
    <g id="xtick_3">
     <g id="line2d_4">
      <g>
       <use xlink:href="#m6a7af7c327" x="243.281498" y="150.625354" style="stroke: #000000"/>
      </g>
     </g>
     <g id="text_3">
      <!-- $1.0$ -->
      <g transform="translate(225.361498 175.400979) scale(0.28 -0.28)">
       <defs>
        <path id="Cmr10-31" d="M 594 0 
L 594 225 
Q 1394 225 1394 428 
L 1394 3788 
Q 1063 3628 556 3628 
L 556 3853 
Q 1341 3853 1741 4263 
L 1831 4263 
Q 1853 4263 1873 4245 
Q 1894 4228 1894 4206 
L 1894 428 
Q 1894 225 2694 225 
L 2694 0 
L 594 0 
z
" transform="scale(0.015625)"/>
       </defs>
       <use xlink:href="#Cmr10-31" transform="translate(0 0.390625)"/>
       <use xlink:href="#Cmmi10-3a" transform="translate(50 0.390625)"/>
       <use xlink:href="#Cmr10-30" transform="translate(77.685547 0.390625)"/>
      </g>
     </g>
    </g>
    <g id="xtick_4">
     <g id="line2d_5">
      <g>
       <use xlink:href="#m6a7af7c327" x="338.02797" y="150.625354" style="stroke: #000000"/>
      </g>
     </g>
     <g id="text_4">
      <!-- $1.5$ -->
      <g transform="translate(320.10797 175.400979) scale(0.28 -0.28)">
       <use xlink:href="#Cmr10-31" transform="translate(0 0.390625)"/>
       <use xlink:href="#Cmmi10-3a" transform="translate(50 0.390625)"/>
       <use xlink:href="#Cmr10-35" transform="translate(77.685547 0.390625)"/>
      </g>
     </g>
    </g>
    <g id="xtick_5">
     <g id="line2d_6">
      <g>
       <use xlink:href="#m6a7af7c327" x="432.774442" y="150.625354" style="stroke: #000000"/>
      </g>
     </g>
     <g id="text_5">
      <!-- $2.0$ -->
      <g transform="translate(414.854442 175.400979) scale(0.28 -0.28)">
       <defs>
        <path id="Cmr10-32" d="M 319 0 
L 319 172 
Q 319 188 331 206 
L 1325 1306 
Q 1550 1550 1690 1715 
Q 1831 1881 1968 2097 
Q 2106 2313 2186 2536 
Q 2266 2759 2266 3009 
Q 2266 3272 2169 3511 
Q 2072 3750 1880 3894 
Q 1688 4038 1416 4038 
Q 1138 4038 916 3870 
Q 694 3703 603 3438 
Q 628 3444 672 3444 
Q 816 3444 917 3347 
Q 1019 3250 1019 3097 
Q 1019 2950 917 2848 
Q 816 2747 672 2747 
Q 522 2747 420 2851 
Q 319 2956 319 3097 
Q 319 3338 409 3548 
Q 500 3759 670 3923 
Q 841 4088 1055 4175 
Q 1269 4263 1509 4263 
Q 1875 4263 2190 4108 
Q 2506 3953 2690 3670 
Q 2875 3388 2875 3009 
Q 2875 2731 2753 2481 
Q 2631 2231 2440 2026 
Q 2250 1822 1953 1562 
Q 1656 1303 1563 1216 
L 838 519 
L 1453 519 
Q 1906 519 2211 526 
Q 2516 534 2534 550 
Q 2609 631 2688 1141 
L 2875 1141 
L 2694 0 
L 319 0 
z
" transform="scale(0.015625)"/>
       </defs>
       <use xlink:href="#Cmr10-32" transform="translate(0 0.390625)"/>
       <use xlink:href="#Cmmi10-3a" transform="translate(50 0.390625)"/>
       <use xlink:href="#Cmr10-30" transform="translate(77.685547 0.390625)"/>
      </g>
     </g>
    </g>
   </g>
   <g id="matplotlib.axis_2">
    <g id="ytick_1">
     <g id="line2d_7">
      <defs>
       <path id="m40ee4a716d" d="M 0 0 
L 5 0 
" style="stroke: #000000"/>
      </defs>
      <g>
       <use xlink:href="#m40ee4a716d" x="42.418977" y="146.634576" style="stroke: #000000"/>
      </g>
     </g>
     <g id="text_6">
      <!-- $0.0$ -->
      <g transform="translate(3.078977 157.272389) scale(0.28 -0.28)">
       <use xlink:href="#Cmr10-30" transform="translate(0 0.390625)"/>
       <use xlink:href="#Cmmi10-3a" transform="translate(50 0.390625)"/>
       <use xlink:href="#Cmr10-30" transform="translate(77.685547 0.390625)"/>
      </g>
     </g>
    </g>
    <g id="ytick_2">
     <g id="line2d_8">
      <g>
       <use xlink:href="#m40ee4a716d" x="42.418977" y="113.378092" style="stroke: #000000"/>
      </g>
     </g>
     <g id="text_7">
      <!-- $0.5$ -->
      <g transform="translate(3.078977 124.015904) scale(0.28 -0.28)">
       <use xlink:href="#Cmr10-30" transform="translate(0 0.390625)"/>
       <use xlink:href="#Cmmi10-3a" transform="translate(50 0.390625)"/>
       <use xlink:href="#Cmr10-35" transform="translate(77.685547 0.390625)"/>
      </g>
     </g>
    </g>
    <g id="ytick_3">
     <g id="line2d_9">
      <g>
       <use xlink:href="#m40ee4a716d" x="42.418977" y="80.121608" style="stroke: #000000"/>
      </g>
     </g>
     <g id="text_8">
      <!-- $1.0$ -->
      <g transform="translate(3.078977 90.75942) scale(0.28 -0.28)">
       <use xlink:href="#Cmr10-31" transform="translate(0 0.390625)"/>
       <use xlink:href="#Cmmi10-3a" transform="translate(50 0.390625)"/>
       <use xlink:href="#Cmr10-30" transform="translate(77.685547 0.390625)"/>
      </g>
     </g>
    </g>
    <g id="ytick_4">
     <g id="line2d_10">
      <g>
       <use xlink:href="#m40ee4a716d" x="42.418977" y="46.865123" style="stroke: #000000"/>
      </g>
     </g>
     <g id="text_9">
      <!-- $1.5$ -->
      <g transform="translate(3.078977 57.502936) scale(0.28 -0.28)">
       <use xlink:href="#Cmr10-31" transform="translate(0 0.390625)"/>
       <use xlink:href="#Cmmi10-3a" transform="translate(50 0.390625)"/>
       <use xlink:href="#Cmr10-35" transform="translate(77.685547 0.390625)"/>
      </g>
     </g>
    </g>
    <g id="ytick_5">
     <g id="line2d_11">
      <g>
       <use xlink:href="#m40ee4a716d" x="42.418977" y="13.608639" style="stroke: #000000"/>
      </g>
     </g>
     <g id="text_10">
      <!-- $2.0$ -->
      <g transform="translate(3.078977 24.246451) scale(0.28 -0.28)">
       <use xlink:href="#Cmr10-32" transform="translate(0 0.390625)"/>
       <use xlink:href="#Cmmi10-3a" transform="translate(50 0.390625)"/>
       <use xlink:href="#Cmr10-30" transform="translate(77.685547 0.390625)"/>
      </g>
     </g>
    </g>
   </g>
   <g id="line2d_12">
    <path d="M 53.788553 124.588559 
L 84.107425 114.682988 
L 108.741507 106.85582 
L 127.690802 101.042606 
L 144.745167 96.040633 
L 158.009673 92.365018 
L 169.37925 89.420854 
L 178.853897 87.159118 
L 188.328544 85.121101 
L 195.908262 83.690059 
L 203.48798 82.471846 
L 211.067697 81.498814 
L 218.647415 80.794731 
L 226.227133 80.361793 
L 233.806851 80.164915 
L 247.071357 80.118781 
L 256.546004 80.005355 
L 264.125722 79.697702 
L 271.70544 79.130889 
L 279.285157 78.290347 
L 286.864875 77.190973 
L 294.444593 75.86213 
L 303.91924 73.929139 
L 313.393887 71.750661 
L 324.763464 68.883727 
L 338.02797 65.27506 
L 353.187406 60.896459 
L 370.241771 55.738989 
L 391.085995 49.203524 
L 417.615007 40.637252 
L 432.774442 35.654656 
L 432.774442 35.654656 
" clip-path="url(#p18a5b2857d)" style="fill: none; stroke: #d8b365; stroke-opacity: 0.9; stroke-width: 4"/>
   </g>
   <g id="patch_3">
    <path d="M 42.418977 150.625354 
L 42.418977 9.617861 
" style="fill: none; stroke: #000000; stroke-width: 2; stroke-linejoin: miter; stroke-linecap: square"/>
   </g>
   <g id="patch_4">
    <path d="M 42.418977 150.625354 
L 444.144019 150.625354 
" style="fill: none; stroke: #000000; stroke-width: 2; stroke-linejoin: miter; stroke-linecap: square"/>
   </g>
   <g id="line2d_13">
    <path d="M 53.788553 134.608688 
L 108.741507 115.73493 
L 142.850237 104.239377 
L 165.589391 96.792499 
L 182.643756 91.442132 
L 194.013332 88.08112 
L 203.48798 85.493481 
L 211.067697 83.640363 
L 216.752486 82.433419 
L 222.437274 81.438108 
L 228.122062 80.709306 
L 233.806851 80.28368 
L 239.491639 80.132788 
L 252.756145 79.959535 
L 258.440933 79.533909 
L 264.125722 78.805107 
L 269.81051 77.809796 
L 275.495298 76.602852 
L 283.075016 74.749734 
L 292.549663 72.162095 
L 303.91924 68.801083 
L 319.078676 64.057989 
L 339.9229 57.261404 
L 368.346841 47.726627 
L 410.035289 33.476851 
L 432.774442 25.634527 
L 432.774442 25.634527 
" clip-path="url(#p18a5b2857d)" style="fill: none; stroke: #f6e8c3; stroke-opacity: 0.9; stroke-width: 4"/>
   </g>
   <g id="line2d_14">
    <path d="M 53.788553 140.36416 
L 144.745167 108.675717 
L 182.643756 95.677694 
L 201.59305 89.375232 
L 212.962627 85.78187 
L 220.542345 83.569385 
L 226.227133 82.101164 
L 230.016992 81.277513 
L 233.806851 80.642317 
L 237.59671 80.256629 
L 241.386568 80.127198 
L 247.071357 80.078802 
L 250.861216 79.827758 
L 254.651075 79.310951 
L 258.440933 78.57349 
L 264.125722 77.187143 
L 271.70544 75.033387 
L 281.180087 72.089799 
L 296.339522 67.114923 
L 320.973605 58.752329 
L 364.556982 43.678523 
L 432.774442 19.879056 
L 432.774442 19.879056 
" clip-path="url(#p18a5b2857d)" style="fill: none; stroke: #c7eae5; stroke-opacity: 0.9; stroke-width: 4"/>
   </g>
   <g id="line2d_15">
    <path d="M 53.788553 146.634576 
L 56.255958 145.768505 
L 79.070681 137.760423 
L 92.781378 132.9479 
L 104.373599 128.878973 
L 116.965999 124.458978 
L 128.575078 120.384133 
L 141.021238 116.015469 
L 155.441335 110.953943 
L 168.256215 106.455856 
L 179.49371 102.511439 
L 191.745596 98.210966 
L 204.070299 93.884934 
L 217.696833 89.101952 
L 230.662137 84.551066 
L 244.143045 79.8192 
L 255.491098 75.835977 
L 269.345784 70.972913 
L 282.037553 66.518039 
L 293.759381 62.403619 
L 305.63323 58.235839 
L 318.940486 53.564925 
L 330.999008 49.332324 
L 344.805184 44.486287 
L 357.588475 39.999288 
L 370.191302 35.575633 
L 382.427604 31.28063 
L 394.971379 26.877703 
L 408.71454 22.053785 
L 428.678735 15.046253 
L 432.774442 13.608639 
" clip-path="url(#p18a5b2857d)" style="fill: none; stroke-dasharray: 4,6.6; stroke-dashoffset: 0; stroke: #000000; stroke-width: 4"/>
   </g>
  </g>
 </g>
 <defs>
  <clipPath id="p18a5b2857d">
   <rect x="42.418977" y="9.617861" width="401.725042" height="141.007494"/>
  </clipPath>
 </defs>
</svg>
