<?xml version="1.0" encoding="utf-8" standalone="no"?>
<!DOCTYPE svg PUBLIC "-//W3C//DTD SVG 1.1//EN"
  "http://www.w3.org/Graphics/SVG/1.1/DTD/svg11.dtd">
<svg xmlns:xlink="http://www.w3.org/1999/xlink" width="380.16pt" height="184.32pt" viewBox="0 0 380.16 184.32" xmlns="http://www.w3.org/2000/svg" version="1.1">
 <metadata>
  <rdf:RDF xmlns:dc="http://purl.org/dc/elements/1.1/" xmlns:cc="http://creativecommons.org/ns#" xmlns:rdf="http://www.w3.org/1999/02/22-rdf-syntax-ns#">
   <cc:Work>
    <dc:type rdf:resource="http://purl.org/dc/dcmitype/StillImage"/>
    <dc:date>2024-07-16T17:23:10.503874</dc:date>
    <dc:format>image/svg+xml</dc:format>
    <dc:creator>
     <cc:Agent>
      <dc:title>Matplotlib v3.8.4, https://matplotlib.org/</dc:title>
     </cc:Agent>
    </dc:creator>
   </cc:Work>
  </rdf:RDF>
 </metadata>
 <defs>
  <style type="text/css">*{stroke-linejoin: round; stroke-linecap: butt}</style>
 </defs>
 <g id="figure_1">
  <g id="patch_1">
   <path d="M 0 184.32 
L 380.16 184.32 
L 380.16 0 
L 0 0 
L 0 184.32 
z
" style="fill: none"/>
  </g>
  <g id="axes_1">
   <g id="patch_2">
    <path d="M 41.316477 175.569834 
L 377.325354 175.569834 
L 377.325354 2.834646 
L 41.316477 2.834646 
L 41.316477 175.569834 
z
" style="fill: none"/>
   </g>
   <g id="line2d_1">
    <path d="M 50.826162 76.247101 
L 50.984657 76.361163 
L 51.1907 76.845054 
L 51.49184 78.210468 
L 51.903926 81.262276 
L 52.458658 87.261704 
L 53.219433 98.211308 
L 54.645886 122.737813 
L 55.961392 143.678068 
L 56.785565 153.524289 
L 57.435393 158.869348 
L 57.942576 161.428166 
L 58.322964 162.404854 
L 58.592405 162.614489 
L 58.798448 162.510891 
L 59.05204 162.077834 
L 59.384879 161.017803 
L 59.828664 158.789595 
L 60.399245 154.69802 
L 61.16002 147.466125 
L 62.237784 134.828128 
L 65.534475 94.812669 
L 66.501293 86.385251 
L 67.293767 81.30149 
L 67.943595 78.439365 
L 68.482477 76.967083 
L 68.910413 76.37068 
L 69.227403 76.247628 
L 69.385898 76.366617 
L 69.60779 76.877392 
L 69.92478 78.277393 
L 70.352716 81.332315 
L 70.923297 87.230111 
L 71.699921 97.840051 
L 73.126374 121.112404 
L 74.536977 142.693734 
L 75.392849 152.664083 
L 76.074376 158.263794 
L 76.613258 161.084851 
L 77.041194 162.294207 
L 77.342334 162.6051 
L 77.564227 162.555024 
L 77.817818 162.215816 
L 78.150657 161.330485 
L 78.594443 159.418031 
L 79.165024 155.844816 
L 79.8941 149.73791 
L 80.892617 139.30583 
L 83.032296 113.809167 
L 84.506297 97.782751 
L 85.552362 88.647331 
L 86.424084 82.854136 
L 87.153159 79.389578 
L 87.75544 77.494984 
L 88.246773 76.591846 
L 88.64301 76.274022 
L 88.912451 76.296619 
L 89.118494 76.631315 
L 89.403785 77.601125 
L 89.800022 79.868344 
L 90.323055 84.339779 
L 91.020431 92.454432 
L 92.034798 107.171772 
L 94.491467 143.649451 
L 95.363188 153.023814 
L 96.060565 158.335012 
L 96.615296 161.055469 
L 97.059082 162.259124 
L 97.376071 162.596644 
L 97.613813 162.570933 
L 97.867405 162.287423 
L 98.200244 161.528188 
L 98.62818 159.940849 
L 99.182911 156.946932 
L 99.896138 151.755815 
L 100.831257 143.174932 
L 102.273559 127.64866 
L 104.761927 101.035818 
L 105.934788 90.943047 
L 106.885756 84.550125 
L 107.69408 80.518492 
L 108.375607 78.155079 
L 108.946188 76.905477 
L 109.405823 76.373976 
L 109.770361 76.247111 
L 109.944705 76.351867 
L 110.182447 76.820257 
L 110.499437 78.007134 
L 110.927372 80.563409 
L 111.497954 85.488948 
L 112.242879 94.019964 
L 113.399891 110.200834 
L 115.634667 141.586346 
L 116.585635 151.66079 
L 117.330561 157.389039 
L 117.932841 160.497761 
L 118.424174 162.005605 
L 118.788712 162.533809 
L 119.058153 162.608474 
L 119.311745 162.440318 
L 119.628734 161.915506 
L 120.040821 160.734661 
L 120.563854 158.483325 
L 121.229531 154.535036 
L 122.085403 147.990974 
L 123.274114 136.985359 
L 127.601021 95.218342 
L 128.694634 87.520549 
L 129.613904 82.519725 
L 130.390528 79.413258 
L 131.056206 77.586452 
L 131.610938 76.656416 
L 132.054723 76.298591 
L 132.387562 76.270731 
L 132.593605 76.507516 
L 132.878896 77.244122 
L 133.259283 78.928667 
L 133.766466 82.320132 
L 134.432144 88.475745 
L 135.335565 99.143662 
L 137.142405 123.883317 
L 138.553008 141.666792 
L 139.519826 151.265718 
L 140.29645 156.963839 
L 140.946279 160.229474 
L 141.469312 161.84412 
L 141.881398 162.48682 
L 142.182538 162.61434 
L 142.451979 162.490455 
L 142.768968 162.066304 
L 143.165205 161.131067 
L 143.672389 159.319233 
L 144.322217 156.087294 
L 145.13054 150.852451 
L 146.192455 142.414042 
L 147.888349 126.870959 
L 150.551061 102.628122 
L 151.898266 92.408635 
L 152.99188 85.709796 
L 153.91115 81.362098 
L 154.687774 78.684334 
L 155.321753 77.213003 
L 155.844786 76.499778 
L 156.272722 76.25895 
L 156.542163 76.308935 
L 156.779905 76.652341 
L 157.096894 77.563093 
L 157.52483 79.566685 
L 158.079562 83.36273 
L 158.808638 90.077579 
L 159.823004 101.75556 
L 163.515932 146.350856 
L 164.435201 153.915609 
L 165.180127 158.36276 
L 165.798256 160.853965 
L 166.305439 162.084126 
L 166.701676 162.544164 
L 167.018666 162.604509 
L 167.319806 162.416202 
L 167.668494 161.90999 
L 168.11228 160.839412 
L 168.667011 158.876679 
L 169.364388 155.525264 
L 170.236109 150.165728 
L 171.393121 141.528404 
L 173.184112 126.22244 
L 176.195512 100.615165 
L 177.590266 90.712418 
L 178.68388 84.448598 
L 179.57145 80.561705 
L 180.316376 78.226047 
L 180.934505 76.965299 
L 181.425839 76.409605 
L 181.837925 76.248105 
L 182.075667 76.347314 
L 182.329259 76.750627 
L 182.677947 77.789768 
L 183.137582 79.964289 
L 183.724013 83.930549 
L 184.484788 90.729921 
L 185.562552 102.607999 
L 189.207931 144.545089 
L 190.174749 152.466439 
L 190.983073 157.401064 
L 191.6646 160.29595 
L 192.219332 161.790054 
L 192.663117 162.437392 
L 193.011805 162.612906 
L 193.328795 162.525541 
L 193.677483 162.166716 
L 194.105419 161.366053 
L 194.644301 159.825709 
L 195.309979 157.173634 
L 196.118303 152.976047 
L 197.132669 146.463571 
L 198.495724 136.133092 
L 200.857296 116.204652 
L 203.092072 98.059415 
L 204.391729 89.235058 
L 205.421945 83.664147 
L 206.277816 80.163346 
L 207.006892 78.04618 
L 207.609172 76.911805 
L 208.116355 76.387369 
L 208.528442 76.247454 
L 208.766184 76.351945 
L 209.035625 76.771376 
L 209.384313 77.771122 
L 209.843948 79.827914 
L 210.430379 83.551207 
L 211.191154 89.91861 
L 212.253068 100.896371 
L 216.405631 146.017398 
L 217.372449 153.252707 
L 218.180772 157.759682 
L 218.8623 160.416799 
L 219.432881 161.834596 
L 219.892516 162.450569 
L 220.257054 162.613818 
L 220.589893 162.518688 
L 220.95443 162.155608 
L 221.398216 161.36264 
L 221.937098 159.909613 
L 222.602776 157.428291 
L 223.426949 153.416648 
L 224.425466 147.371544 
L 225.693424 138.227882 
L 227.500264 123.396253 
L 230.543363 98.397839 
L 231.827171 89.755004 
L 232.873236 84.129221 
L 233.760807 80.49728 
L 234.505732 78.303504 
L 235.139711 77.060301 
L 235.678593 76.451753 
L 236.122378 76.254355 
L 236.407669 76.316791 
L 236.67711 76.672134 
L 237.025798 77.562152 
L 237.485433 79.433689 
L 238.071864 82.864996 
L 238.832639 88.792649 
L 239.862855 98.790927 
L 241.717243 119.416929 
L 243.508234 138.305079 
L 244.665246 148.262035 
L 245.600365 154.531159 
L 246.392838 158.46516 
L 247.058516 160.760447 
L 247.613248 161.970135 
L 248.072883 162.496421 
L 248.437421 162.614414 
L 248.77026 162.496867 
L 249.150647 162.106712 
L 249.610282 161.284396 
L 250.180863 159.755329 
L 250.86239 157.240117 
L 251.686563 153.28693 
L 252.68508 147.325484 
L 253.921339 138.490132 
L 255.680631 124.11097 
L 258.676182 99.62636 
L 259.991688 90.760772 
L 261.069453 84.912024 
L 261.988722 81.070323 
L 262.781196 78.651973 
L 263.446874 77.268889 
L 264.017455 76.551151 
L 264.492939 76.276613 
L 264.857477 76.291018 
L 265.111069 76.56742 
L 265.443908 77.303521 
L 265.887693 78.908439 
L 266.458274 81.929372 
L 267.171501 87.013212 
L 268.122469 95.545077 
L 269.61232 111.249255 
L 272.132386 137.651018 
L 273.321097 147.703644 
L 274.287915 154.118704 
L 275.112088 158.197855 
L 275.809465 160.613689 
L 276.395895 161.908879 
L 276.87138 162.471856 
L 277.251767 162.614572 
L 277.600455 162.510583 
L 277.980843 162.147208 
L 278.440478 161.370727 
L 278.995209 159.961175 
L 279.660887 157.623331 
L 280.46921 153.904106 
L 281.436028 148.315992 
L 282.60889 140.143639 
L 284.257235 126.927895 
L 287.601474 99.851919 
L 288.93283 91.027073 
L 290.026444 85.174839 
L 290.961563 81.299773 
L 291.769886 78.83115 
L 292.467263 77.365865 
L 293.053694 76.60576 
L 293.545028 76.294587 
L 293.941264 76.271802 
L 294.194856 76.504291 
L 294.527695 77.170455 
L 294.955631 78.598178 
L 295.494513 81.237858 
L 296.19189 85.871855 
L 297.09531 93.504482 
L 298.426666 106.891776 
L 301.596561 139.307731 
L 302.769422 148.718029 
L 303.720391 154.685516 
L 304.528714 158.471858 
L 305.226091 160.757931 
L 305.796672 161.950791 
L 306.272156 162.484319 
L 306.652544 162.614695 
L 307.001232 162.507006 
L 307.397469 162.126179 
L 307.857104 161.34855 
L 308.411835 159.945083 
L 309.077513 157.618857 
L 309.869987 153.992407 
L 310.820956 148.528741 
L 311.993817 140.402684 
L 313.673861 127.025801 
L 316.970552 100.59805 
L 318.333607 91.599786 
L 319.44307 85.657344 
L 320.394039 81.680189 
L 321.218212 79.109516 
L 321.931438 77.550128 
L 322.549567 76.693607 
L 323.0726 76.32077 
L 323.516385 76.260006 
L 323.769977 76.457795 
L 324.086967 77.031639 
L 324.499053 78.294494 
L 325.022086 80.67581 
L 325.687764 84.821438 
L 326.559485 91.790391 
L 327.779894 103.542859 
L 331.615467 141.774297 
L 332.724931 150.119348 
L 333.66005 155.590355 
L 334.452523 159.018412 
L 335.134051 161.056124 
L 335.688783 162.091842 
L 336.148417 162.530646 
L 336.528805 162.610236 
L 336.893343 162.449205 
L 337.305429 161.99238 
L 337.796763 161.07484 
L 338.383193 159.464479 
L 339.08057 156.850417 
L 339.904743 152.846541 
L 340.90326 146.8192 
L 342.171218 137.701433 
L 344.263349 120.75365 
L 346.64077 102.009516 
L 348.035524 92.697767 
L 349.192536 86.38752 
L 350.175203 82.179453 
L 351.031075 79.424974 
L 351.776 77.727767 
L 352.409979 76.793298 
L 352.948861 76.360503 
L 353.424345 76.247839 
L 353.677937 76.383933 
L 353.979077 76.843512 
L 354.375314 77.919297 
L 354.882497 80.025217 
L 355.532326 83.792425 
L 356.356498 90.00778 
L 357.481811 100.359761 
L 362.189105 145.774113 
L 363.219321 152.701123 
L 364.106892 157.254627 
L 364.851817 160.011948 
L 365.485796 161.5811 
L 366.008829 162.337974 
L 366.420915 162.594802 
L 366.785453 162.575413 
L 367.165841 162.31149 
L 367.593776 161.72168 
L 367.815669 161.29564 
L 367.815669 161.29564 
" clip-path="url(#p9784c91f37)" style="fill: none; stroke: #009afa; stroke-width: 4"/>
   </g>
   <g id="matplotlib.axis_1"/>
   <g id="matplotlib.axis_2">
    <g id="ytick_1">
     <g id="line2d_2">
      <defs>
       <path id="md34a03992f" d="M 0 0 
L 5 0 
" style="stroke: #000000"/>
      </defs>
      <g>
       <use xlink:href="#md34a03992f" x="41.316477" y="162.614695" style="stroke: #000000"/>
      </g>
     </g>
     <g id="text_1">
      <!-- $-1$ -->
      <g transform="translate(1.976477 173.252508) scale(0.28 -0.28)">
       <defs>
        <path id="Cmsy10-a1" d="M 653 1472 
Q 600 1472 565 1512 
Q 531 1553 531 1600 
Q 531 1647 565 1687 
Q 600 1728 653 1728 
L 4325 1728 
Q 4375 1728 4408 1687 
Q 4441 1647 4441 1600 
Q 4441 1553 4408 1512 
Q 4375 1472 4325 1472 
L 653 1472 
z
" transform="scale(0.015625)"/>
        <path id="Cmr10-31" d="M 594 0 
L 594 225 
Q 1394 225 1394 428 
L 1394 3788 
Q 1063 3628 556 3628 
L 556 3853 
Q 1341 3853 1741 4263 
L 1831 4263 
Q 1853 4263 1873 4245 
Q 1894 4228 1894 4206 
L 1894 428 
Q 1894 225 2694 225 
L 2694 0 
L 594 0 
z
" transform="scale(0.015625)"/>
       </defs>
       <use xlink:href="#Cmsy10-a1" transform="translate(0 0.390625)"/>
       <use xlink:href="#Cmr10-31" transform="translate(77.685547 0.390625)"/>
      </g>
     </g>
    </g>
    <g id="ytick_2">
     <g id="line2d_3">
      <g>
       <use xlink:href="#md34a03992f" x="41.316477" y="119.430898" style="stroke: #000000"/>
      </g>
     </g>
     <g id="text_2">
      <!-- $0$ -->
      <g transform="translate(23.816477 130.068711) scale(0.28 -0.28)">
       <defs>
        <path id="Cmr10-30" d="M 1600 -141 
Q 816 -141 533 504 
Q 250 1150 250 2041 
Q 250 2597 351 3087 
Q 453 3578 754 3920 
Q 1056 4263 1600 4263 
Q 2022 4263 2290 4056 
Q 2559 3850 2700 3523 
Q 2841 3197 2892 2823 
Q 2944 2450 2944 2041 
Q 2944 1491 2842 1011 
Q 2741 531 2444 195 
Q 2147 -141 1600 -141 
z
M 1600 25 
Q 1956 25 2131 390 
Q 2306 756 2347 1200 
Q 2388 1644 2388 2144 
Q 2388 2625 2347 3031 
Q 2306 3438 2132 3767 
Q 1959 4097 1600 4097 
Q 1238 4097 1063 3765 
Q 888 3434 847 3029 
Q 806 2625 806 2144 
Q 806 1788 823 1472 
Q 841 1156 916 820 
Q 991 484 1158 254 
Q 1325 25 1600 25 
z
" transform="scale(0.015625)"/>
       </defs>
       <use xlink:href="#Cmr10-30" transform="translate(0 0.390625)"/>
      </g>
     </g>
    </g>
    <g id="ytick_3">
     <g id="line2d_4">
      <g>
       <use xlink:href="#md34a03992f" x="41.316477" y="76.247101" style="stroke: #000000"/>
      </g>
     </g>
     <g id="text_3">
      <!-- $1$ -->
      <g transform="translate(23.816477 86.884913) scale(0.28 -0.28)">
       <use xlink:href="#Cmr10-31" transform="translate(0 0.390625)"/>
      </g>
     </g>
    </g>
    <g id="ytick_4">
     <g id="line2d_5">
      <g>
       <use xlink:href="#md34a03992f" x="41.316477" y="33.063304" style="stroke: #000000"/>
      </g>
     </g>
     <g id="text_4">
      <!-- $2$ -->
      <g transform="translate(23.816477 43.701116) scale(0.28 -0.28)">
       <defs>
        <path id="Cmr10-32" d="M 319 0 
L 319 172 
Q 319 188 331 206 
L 1325 1306 
Q 1550 1550 1690 1715 
Q 1831 1881 1968 2097 
Q 2106 2313 2186 2536 
Q 2266 2759 2266 3009 
Q 2266 3272 2169 3511 
Q 2072 3750 1880 3894 
Q 1688 4038 1416 4038 
Q 1138 4038 916 3870 
Q 694 3703 603 3438 
Q 628 3444 672 3444 
Q 816 3444 917 3347 
Q 1019 3250 1019 3097 
Q 1019 2950 917 2848 
Q 816 2747 672 2747 
Q 522 2747 420 2851 
Q 319 2956 319 3097 
Q 319 3338 409 3548 
Q 500 3759 670 3923 
Q 841 4088 1055 4175 
Q 1269 4263 1509 4263 
Q 1875 4263 2190 4108 
Q 2506 3953 2690 3670 
Q 2875 3388 2875 3009 
Q 2875 2731 2753 2481 
Q 2631 2231 2440 2026 
Q 2250 1822 1953 1562 
Q 1656 1303 1563 1216 
L 838 519 
L 1453 519 
Q 1906 519 2211 526 
Q 2516 534 2534 550 
Q 2609 631 2688 1141 
L 2875 1141 
L 2694 0 
L 319 0 
z
" transform="scale(0.015625)"/>
       </defs>
       <use xlink:href="#Cmr10-32" transform="translate(0 0.390625)"/>
      </g>
     </g>
    </g>
   </g>
   <g id="line2d_6">
    <path d="M 50.826162 11.471405 
L 53.631519 20.637276 
L 56.373478 28.843317 
L 59.194685 36.575849 
L 62.000042 43.610156 
L 64.757851 49.942989 
L 67.642455 56.001572 
L 69.211553 59.072431 
L 69.227403 15.934168 
L 69.338349 16.296876 
L 72.096158 24.910707 
L 74.853967 32.805449 
L 77.595926 40.000904 
L 80.432982 46.817358 
L 83.254189 53.0155 
L 86.059546 58.654076 
L 88.785655 63.674578 
L 88.801505 20.523637 
L 88.912451 20.870209 
L 91.67026 29.102093 
L 94.443918 36.688249 
L 97.201727 43.599082 
L 100.054632 50.141481 
L 102.923387 56.151113 
L 105.776293 61.610583 
L 108.660898 66.651978 
L 109.754511 68.446236 
L 109.770361 25.290347 
L 109.881307 25.620201 
L 112.639116 33.455369 
L 115.428624 40.715411 
L 118.218131 47.362093 
L 121.007639 53.447795 
L 123.908093 59.230966 
L 126.760998 64.424722 
L 129.645603 69.22078 
L 132.292465 73.252722 
L 132.308315 30.104381 
L 132.419261 30.417417 
L 135.192919 37.892774 
L 137.950728 44.70323 
L 140.740236 51.013186 
L 143.545593 56.821956 
L 146.461896 62.338063 
L 149.298952 67.23758 
L 152.183557 71.788393 
L 155.09986 75.986011 
L 156.383668 77.714586 
L 156.399517 34.563289 
L 156.510464 34.860696 
L 159.299971 42.001753 
L 162.05778 48.469005 
L 164.878987 54.52616 
L 167.684344 60.036487 
L 170.5214 65.133539 
L 173.421854 69.892641 
L 176.322308 74.234642 
L 179.302009 78.29919 
L 181.869624 81.507245 
L 181.885474 38.359153 
L 181.99642 38.643276 
L 184.801777 45.502049 
L 187.575435 51.710785 
L 190.46004 57.615257 
L 193.312945 62.948409 
L 196.19755 67.873178 
L 199.082154 72.368587 
L 201.998458 76.515018 
L 205.073256 80.49177 
L 208.100506 84.046907 
L 208.544291 84.54004 
L 208.560141 41.387089 
L 208.671087 41.66059 
L 211.476444 48.263192 
L 214.250102 54.240056 
L 217.150556 59.953816 
L 219.987612 65.05796 
L 222.888066 69.82369 
L 225.772671 74.149028 
L 228.720673 78.179891 
L 231.716224 81.908484 
L 234.791022 85.385542 
L 236.217475 86.887323 
L 236.233325 43.72998 
L 236.344271 43.995259 
L 239.149628 50.399645 
L 241.939136 56.228719 
L 244.82374 61.73932 
L 247.676646 66.716668 
L 250.56125 71.312898 
L 253.461704 75.530415 
L 256.457255 79.498475 
L 259.484505 83.144291 
L 262.591002 86.539705 
L 264.698982 88.66104 
L 264.714832 45.499837 
L 264.825778 45.758902 
L 267.631135 52.013554 
L 270.420643 57.70636 
L 273.321097 63.116368 
L 276.174003 67.97491 
L 279.058607 72.461446 
L 281.974911 76.599724 
L 285.049709 80.568603 
L 288.076959 84.116724 
L 291.151757 87.389154 
L 293.814469 89.976943 
L 293.830318 46.81072 
L 293.941264 47.065172 
L 296.746622 53.208919 
L 299.536129 58.800808 
L 302.452433 64.14262 
L 305.305338 68.912622 
L 308.189943 73.3174 
L 311.122096 77.401248 
L 314.149346 81.238519 
L 317.208294 84.760277 
L 320.298942 87.98878 
L 323.421289 90.945283 
L 323.437138 47.780665 
L 323.548084 48.031728 
L 326.353442 54.093417 
L 329.142949 59.610608 
L 332.059253 64.881082 
L 334.912158 69.587373 
L 337.796763 73.933318 
L 340.744765 77.983389 
L 343.756166 81.748636 
L 346.815114 85.223358 
L 349.921611 88.424257 
L 353.154904 91.43818 
L 353.392647 91.647852 
L 353.408496 48.483665 
L 353.519442 48.732268 
L 356.324799 54.734483 
L 359.130157 60.227178 
L 361.998912 65.362086 
L 364.883516 70.076418 
L 367.78397 74.402282 
L 367.815669 74.447346 
L 367.815669 74.447346 
" clip-path="url(#p9784c91f37)" style="fill: none; stroke: #3ea44d; stroke-width: 4"/>
   </g>
   <g id="patch_3">
    <path d="M 41.316477 175.569834 
L 41.316477 2.834646 
" style="fill: none; stroke: #000000; stroke-width: 2; stroke-linejoin: miter; stroke-linecap: square"/>
   </g>
   <g id="patch_4">
    <path d="M 41.316477 175.569834 
L 377.325354 175.569834 
" style="fill: none; stroke: #000000; stroke-width: 2; stroke-linejoin: miter; stroke-linecap: square"/>
   </g>
   <g id="line2d_7">
    <path d="M 50.826162 33.063304 
L 69.227403 37.526067 
L 88.801505 42.115535 
L 109.770361 46.882246 
L 132.308315 51.696279 
L 156.399517 56.155187 
L 181.885474 59.951052 
L 208.560141 62.978988 
L 236.233325 65.321879 
L 264.714832 67.091736 
L 293.830318 68.402619 
L 323.437138 69.372564 
L 353.408496 70.075563 
" clip-path="url(#p9784c91f37)" style="fill: none; stroke: #3ea44d; stroke-opacity: 0.5; stroke-width: 4"/>
   </g>
  </g>
 </g>
 <defs>
  <clipPath id="p9784c91f37">
   <rect x="41.316477" y="2.834646" width="336.008878" height="172.735189"/>
  </clipPath>
 </defs>
</svg>
