<?xml version="1.0" encoding="utf-8" standalone="no"?>
<!DOCTYPE svg PUBLIC "-//W3C//DTD SVG 1.1//EN"
  "http://www.w3.org/Graphics/SVG/1.1/DTD/svg11.dtd">
<svg xmlns:xlink="http://www.w3.org/1999/xlink" width="509.76pt" height="181.44pt" viewBox="0 0 509.76 181.44" xmlns="http://www.w3.org/2000/svg" version="1.1">
 <metadata>
  <rdf:RDF xmlns:dc="http://purl.org/dc/elements/1.1/" xmlns:cc="http://creativecommons.org/ns#" xmlns:rdf="http://www.w3.org/1999/02/22-rdf-syntax-ns#">
   <cc:Work>
    <dc:type rdf:resource="http://purl.org/dc/dcmitype/StillImage"/>
    <dc:date>2024-06-27T18:44:24.849196</dc:date>
    <dc:format>image/svg+xml</dc:format>
    <dc:creator>
     <cc:Agent>
      <dc:title>Matplotlib v3.8.4, https://matplotlib.org/</dc:title>
     </cc:Agent>
    </dc:creator>
   </cc:Work>
  </rdf:RDF>
 </metadata>
 <defs>
  <style type="text/css">*{stroke-linejoin: round; stroke-linecap: butt}</style>
 </defs>
 <g id="figure_1">
  <g id="patch_1">
   <path d="M 0 181.44 
L 509.76 181.44 
L 509.76 0 
L 0 0 
L 0 181.44 
z
" style="fill: none"/>
  </g>
  <g id="axes_1">
   <g id="patch_2">
    <path d="M 42.418977 168.395754 
L 506.925354 168.395754 
L 506.925354 7.284246 
L 42.418977 7.284246 
L 42.418977 168.395754 
z
" style="fill: none"/>
   </g>
   <g id="line2d_1">
    <path d="M 55.565384 14.607496 
L 60.495286 32.427681 
L 64.986975 47.835433 
L 69.106183 61.173454 
L 72.852909 72.571115 
L 76.380528 82.604323 
L 79.732862 91.468864 
L 82.855133 99.110261 
L 85.878807 105.930651 
L 88.771016 111.916755 
L 91.608449 117.283785 
L 94.413016 122.10884 
L 97.118985 126.329707 
L 99.803043 130.116434 
L 102.519967 133.568645 
L 105.225936 136.653226 
L 107.964771 139.444656 
L 110.747427 141.970043 
L 113.617725 144.278161 
L 116.630444 146.410299 
L 119.686983 148.303325 
L 122.896898 150.033377 
L 126.282097 151.607848 
L 129.886404 153.040498 
L 133.753639 154.339047 
L 137.960489 155.51549 
L 142.583642 156.573462 
L 147.677875 157.508036 
L 153.429428 158.332331 
L 159.969765 159.040795 
L 167.693279 159.645527 
L 176.906719 160.136336 
L 188.475558 160.521088 
L 203.988318 160.801341 
L 227.290324 160.979135 
L 272.327723 161.060612 
L 493.778947 161.072503 
L 493.778947 161.072503 
" clip-path="url(#pa18383b1ce)" style="fill: none; stroke: #8c510a; stroke-opacity: 0.9; stroke-width: 4"/>
   </g>
   <g id="matplotlib.axis_1"/>
   <g id="matplotlib.axis_2">
    <g id="ytick_1">
     <g id="line2d_2">
      <defs>
       <path id="m21675e498d" d="M 0 0 
L 5 0 
" style="stroke: #000000"/>
      </defs>
      <g>
       <use xlink:href="#m21675e498d" x="42.418977" y="161.072504" style="stroke: #000000"/>
      </g>
     </g>
     <g id="text_1">
      <!-- $1.0$ -->
      <g transform="translate(3.078977 171.710316) scale(0.28 -0.28)">
       <defs>
        <path id="Cmr10-31" d="M 594 0 
L 594 225 
Q 1394 225 1394 428 
L 1394 3788 
Q 1063 3628 556 3628 
L 556 3853 
Q 1341 3853 1741 4263 
L 1831 4263 
Q 1853 4263 1873 4245 
Q 1894 4228 1894 4206 
L 1894 428 
Q 1894 225 2694 225 
L 2694 0 
L 594 0 
z
" transform="scale(0.015625)"/>
        <path id="Cmmi10-3a" d="M 538 353 
Q 538 497 644 600 
Q 750 703 891 703 
Q 978 703 1062 656 
Q 1147 609 1194 525 
Q 1241 441 1241 353 
Q 1241 213 1137 106 
Q 1034 0 891 0 
Q 750 0 644 106 
Q 538 213 538 353 
z
" transform="scale(0.015625)"/>
        <path id="Cmr10-30" d="M 1600 -141 
Q 816 -141 533 504 
Q 250 1150 250 2041 
Q 250 2597 351 3087 
Q 453 3578 754 3920 
Q 1056 4263 1600 4263 
Q 2022 4263 2290 4056 
Q 2559 3850 2700 3523 
Q 2841 3197 2892 2823 
Q 2944 2450 2944 2041 
Q 2944 1491 2842 1011 
Q 2741 531 2444 195 
Q 2147 -141 1600 -141 
z
M 1600 25 
Q 1956 25 2131 390 
Q 2306 756 2347 1200 
Q 2388 1644 2388 2144 
Q 2388 2625 2347 3031 
Q 2306 3438 2132 3767 
Q 1959 4097 1600 4097 
Q 1238 4097 1063 3765 
Q 888 3434 847 3029 
Q 806 2625 806 2144 
Q 806 1788 823 1472 
Q 841 1156 916 820 
Q 991 484 1158 254 
Q 1325 25 1600 25 
z
" transform="scale(0.015625)"/>
       </defs>
       <use xlink:href="#Cmr10-31" transform="translate(0 0.390625)"/>
       <use xlink:href="#Cmmi10-3a" transform="translate(50 0.390625)"/>
       <use xlink:href="#Cmr10-30" transform="translate(77.685547 0.390625)"/>
      </g>
     </g>
    </g>
    <g id="ytick_2">
     <g id="line2d_3">
      <g>
       <use xlink:href="#m21675e498d" x="42.418977" y="87.84" style="stroke: #000000"/>
      </g>
     </g>
     <g id="text_2">
      <!-- $1.5$ -->
      <g transform="translate(3.078977 98.477812) scale(0.28 -0.28)">
       <defs>
        <path id="Cmr10-35" d="M 556 728 
Q 622 541 758 387 
Q 894 234 1080 148 
Q 1266 63 1466 63 
Q 1928 63 2103 422 
Q 2278 781 2278 1294 
Q 2278 1516 2270 1667 
Q 2263 1819 2228 1959 
Q 2169 2184 2020 2353 
Q 1872 2522 1656 2522 
Q 1441 2522 1286 2456 
Q 1131 2391 1034 2303 
Q 938 2216 863 2119 
Q 788 2022 769 2016 
L 697 2016 
Q 681 2016 657 2036 
Q 634 2056 634 2075 
L 634 4213 
Q 634 4228 654 4245 
Q 675 4263 697 4263 
L 716 4263 
Q 1147 4056 1631 4056 
Q 2106 4056 2547 4263 
L 2566 4263 
Q 2588 4263 2606 4247 
Q 2625 4231 2625 4213 
L 2625 4153 
Q 2625 4122 2613 4122 
Q 2394 3831 2064 3668 
Q 1734 3506 1381 3506 
Q 1125 3506 856 3578 
L 856 2369 
Q 1069 2541 1236 2614 
Q 1403 2688 1663 2688 
Q 2016 2688 2295 2484 
Q 2575 2281 2725 1954 
Q 2875 1628 2875 1288 
Q 2875 903 2686 575 
Q 2497 247 2172 53 
Q 1847 -141 1466 -141 
Q 1150 -141 886 21 
Q 622 184 470 459 
Q 319 734 319 1044 
Q 319 1188 412 1278 
Q 506 1369 647 1369 
Q 788 1369 883 1276 
Q 978 1184 978 1044 
Q 978 906 883 811 
Q 788 716 647 716 
Q 625 716 597 720 
Q 569 725 556 728 
z
" transform="scale(0.015625)"/>
       </defs>
       <use xlink:href="#Cmr10-31" transform="translate(0 0.390625)"/>
       <use xlink:href="#Cmmi10-3a" transform="translate(50 0.390625)"/>
       <use xlink:href="#Cmr10-35" transform="translate(77.685547 0.390625)"/>
      </g>
     </g>
    </g>
    <g id="ytick_3">
     <g id="line2d_4">
      <g>
       <use xlink:href="#m21675e498d" x="42.418977" y="14.607496" style="stroke: #000000"/>
      </g>
     </g>
     <g id="text_3">
      <!-- $2.0$ -->
      <g transform="translate(3.078977 25.245309) scale(0.28 -0.28)">
       <defs>
        <path id="Cmr10-32" d="M 319 0 
L 319 172 
Q 319 188 331 206 
L 1325 1306 
Q 1550 1550 1690 1715 
Q 1831 1881 1968 2097 
Q 2106 2313 2186 2536 
Q 2266 2759 2266 3009 
Q 2266 3272 2169 3511 
Q 2072 3750 1880 3894 
Q 1688 4038 1416 4038 
Q 1138 4038 916 3870 
Q 694 3703 603 3438 
Q 628 3444 672 3444 
Q 816 3444 917 3347 
Q 1019 3250 1019 3097 
Q 1019 2950 917 2848 
Q 816 2747 672 2747 
Q 522 2747 420 2851 
Q 319 2956 319 3097 
Q 319 3338 409 3548 
Q 500 3759 670 3923 
Q 841 4088 1055 4175 
Q 1269 4263 1509 4263 
Q 1875 4263 2190 4108 
Q 2506 3953 2690 3670 
Q 2875 3388 2875 3009 
Q 2875 2731 2753 2481 
Q 2631 2231 2440 2026 
Q 2250 1822 1953 1562 
Q 1656 1303 1563 1216 
L 838 519 
L 1453 519 
Q 1906 519 2211 526 
Q 2516 534 2534 550 
Q 2609 631 2688 1141 
L 2875 1141 
L 2694 0 
L 319 0 
z
" transform="scale(0.015625)"/>
       </defs>
       <use xlink:href="#Cmr10-32" transform="translate(0 0.390625)"/>
       <use xlink:href="#Cmmi10-3a" transform="translate(50 0.390625)"/>
       <use xlink:href="#Cmr10-30" transform="translate(77.685547 0.390625)"/>
      </g>
     </g>
    </g>
   </g>
   <g id="line2d_5">
    <path d="M 55.565384 14.607496 
L 64.756913 34.703258 
L 72.809087 51.782432 
L 79.842415 66.194357 
L 86.097914 78.520907 
L 91.707047 89.095035 
L 96.80128 98.230299 
L 101.380612 105.997828 
L 105.609373 112.743912 
L 109.553295 118.623415 
L 113.256199 123.748923 
L 116.739997 128.199646 
L 120.07042 132.104286 
L 123.335111 135.593929 
L 126.51216 138.670089 
L 129.656342 141.411272 
L 132.800524 143.863624 
L 136.043305 146.108183 
L 139.29704 148.091526 
L 142.660329 149.884143 
L 146.23177 151.530999 
L 149.934675 152.992401 
L 153.867641 154.306761 
L 158.107358 155.489644 
L 162.796243 156.561538 
L 167.945252 157.504975 
L 173.718716 158.331388 
L 180.270009 159.040465 
L 187.927791 159.640717 
L 197.152186 160.133548 
L 208.699114 160.518863 
L 224.200918 160.800103 
L 247.393371 160.978237 
L 292.299306 161.060425 
L 493.778947 161.072503 
L 493.778947 161.072503 
" clip-path="url(#pa18383b1ce)" style="fill: none; stroke: #d8b365; stroke-opacity: 0.9; stroke-width: 4"/>
   </g>
   <g id="patch_3">
    <path d="M 42.418977 168.395754 
L 42.418977 7.284246 
" style="fill: none; stroke: #000000; stroke-width: 2; stroke-linejoin: miter; stroke-linecap: square"/>
   </g>
   <g id="patch_4">
    <path d="M 42.418977 168.395754 
L 506.925354 168.395754 
" style="fill: none; stroke: #000000; stroke-width: 2; stroke-linejoin: miter; stroke-linecap: square"/>
   </g>
   <g id="line2d_6">
    <path d="M 55.565384 14.607496 
L 74.82487 37.710882 
L 91.15928 56.967464 
L 105.105427 73.073197 
L 117.013881 86.49527 
L 127.311899 97.774518 
L 136.240501 107.230127 
L 143.985925 115.117641 
L 150.843968 121.791565 
L 156.935136 127.416451 
L 162.412806 132.180483 
L 167.419396 136.247711 
L 172.108281 139.772267 
L 176.490417 142.790012 
L 180.675356 145.404035 
L 184.772653 147.699365 
L 188.760396 149.680647 
L 192.802916 151.440825 
L 196.911169 152.987285 
L 201.183751 154.357832 
L 205.697351 155.571168 
L 210.528655 156.639178 
L 215.809129 157.577878 
L 221.714056 158.398525 
L 228.418724 159.101726 
L 236.273702 159.695344 
L 245.695294 160.177124 
L 257.559926 160.552074 
L 273.609498 160.822763 
L 298.017993 160.990755 
L 347.327974 161.06394 
L 493.778947 161.072493 
L 493.778947 161.072493 
" clip-path="url(#pa18383b1ce)" style="fill: none; stroke: #f6e8c3; stroke-opacity: 0.9; stroke-width: 4"/>
   </g>
   <g id="line2d_7">
    <path d="M 55.565384 14.607496 
L 100.832845 43.003139 
L 137.500365 65.750743 
L 167.353664 84.017887 
L 191.674517 98.648036 
L 211.624189 110.398244 
L 228.079108 119.840988 
L 241.773282 127.451515 
L 253.265433 133.591838 
L 263.015685 138.557135 
L 271.407474 142.588692 
L 278.780418 145.890076 
L 285.353621 148.595467 
L 291.357147 150.831606 
L 296.999147 152.70019 
L 302.476816 154.281017 
L 307.92162 155.619659 
L 313.454066 156.750758 
L 319.348038 157.724732 
L 325.724046 158.548123 
L 332.910748 159.244627 
L 341.171074 159.815524 
L 351.206164 160.276815 
L 363.903402 160.627036 
L 381.377168 160.872179 
L 409.335194 161.016757 
L 473.588257 161.069556 
L 493.778947 161.071334 
L 493.778947 161.071334 
" clip-path="url(#pa18383b1ce)" style="fill: none; stroke: #c7eae5; stroke-opacity: 0.9; stroke-width: 4"/>
   </g>
  </g>
 </g>
 <defs>
  <clipPath id="pa18383b1ce">
   <rect x="42.418977" y="7.284246" width="464.506378" height="161.111509"/>
  </clipPath>
 </defs>
</svg>
