<?xml version="1.0" encoding="utf-8" standalone="no"?>
<!DOCTYPE svg PUBLIC "-//W3C//DTD SVG 1.1//EN"
  "http://www.w3.org/Graphics/SVG/1.1/DTD/svg11.dtd">
<svg xmlns:xlink="http://www.w3.org/1999/xlink" width="380.16pt" height="184.32pt" viewBox="0 0 380.16 184.32" xmlns="http://www.w3.org/2000/svg" version="1.1">
 <metadata>
  <rdf:RDF xmlns:dc="http://purl.org/dc/elements/1.1/" xmlns:cc="http://creativecommons.org/ns#" xmlns:rdf="http://www.w3.org/1999/02/22-rdf-syntax-ns#">
   <cc:Work>
    <dc:type rdf:resource="http://purl.org/dc/dcmitype/StillImage"/>
    <dc:date>2024-05-07T10:31:39.443485</dc:date>
    <dc:format>image/svg+xml</dc:format>
    <dc:creator>
     <cc:Agent>
      <dc:title>Matplotlib v3.7.0, https://matplotlib.org/</dc:title>
     </cc:Agent>
    </dc:creator>
   </cc:Work>
  </rdf:RDF>
 </metadata>
 <defs>
  <style type="text/css">*{stroke-linejoin: round; stroke-linecap: butt}</style>
 </defs>
 <g id="figure_1">
  <g id="patch_1">
   <path d="M 0 184.32 
L 380.16 184.32 
L 380.16 0 
L 0 0 
L 0 184.32 
z
" style="fill: none"/>
  </g>
  <g id="axes_1">
   <g id="patch_2">
    <path d="M 41.316477 175.569834 
L 377.325354 175.569834 
L 377.325354 2.834646 
L 41.316477 2.834646 
L 41.316477 175.569834 
z
" style="fill: none"/>
   </g>
   <g id="line2d_1">
    <path d="M 50.826162 76.247101 
L 51.032205 76.366159 
L 51.285797 76.83803 
L 51.618636 77.994033 
L 52.062421 80.451492 
L 52.617153 84.897555 
L 53.330379 92.570787 
L 54.313047 105.837656 
L 57.467092 150.389476 
L 58.212017 157.148041 
L 58.798448 160.658107 
L 59.242233 162.154087 
L 59.559223 162.588399 
L 59.781116 162.574899 
L 60.003008 162.30044 
L 60.304148 161.514753 
L 60.700385 159.772815 
L 61.207568 156.425566 
L 61.857397 150.474927 
L 62.697419 140.510489 
L 63.981226 122.228524 
L 65.930712 94.776454 
L 66.834132 85.130638 
L 67.515659 79.992244 
L 68.054542 77.437472 
L 68.450779 76.463276 
L 68.736069 76.247274 
L 68.942112 76.345026 
L 69.195704 76.756069 
L 69.528543 77.775873 
L 69.972328 79.958433 
L 70.52706 83.93029 
L 71.224437 90.663756 
L 72.159556 102.082691 
L 73.887149 126.617826 
L 75.297752 145.180536 
L 76.185323 154.164146 
L 76.86685 159.038406 
L 77.405732 161.466122 
L 77.801969 162.39909 
L 78.08726 162.614013 
L 78.309152 162.515776 
L 78.562744 162.120535 
L 78.911432 161.090933 
L 79.355218 158.99029 
L 79.909949 155.192006 
L 80.607326 148.767418 
L 81.526596 138.057823 
L 83.063995 117.049317 
L 84.744039 95.050926 
L 85.679158 85.556228 
L 86.392385 80.349493 
L 86.962966 77.655782 
L 87.390902 76.551921 
L 87.692042 76.257964 
L 87.913934 76.298046 
L 88.167526 76.609636 
L 88.500365 77.444038 
L 88.928301 79.208943 
L 89.467183 82.484524 
L 90.14871 88.153321 
L 91.020431 97.464318 
L 92.288389 113.698783 
L 94.665811 144.282293 
L 95.60093 153.394006 
L 96.330006 158.523927 
L 96.900587 161.145723 
L 97.344372 162.283158 
L 97.661362 162.60027 
L 97.899104 162.565595 
L 98.152695 162.271995 
L 98.485534 161.489001 
L 98.91347 159.834581 
L 99.452352 156.762785 
L 100.11803 151.57711 
L 100.973902 143.003371 
L 102.178462 128.419551 
L 105.031368 93.119923 
L 105.950637 84.762635 
L 106.679713 79.998135 
L 107.250294 77.578227 
L 107.69408 76.53839 
L 108.011069 76.25712 
L 108.248811 76.299771 
L 108.518252 76.609908 
L 108.851091 77.372832 
L 109.279027 78.956276 
L 109.817909 81.871454 
L 110.499437 86.907775 
L 111.355308 95.049293 
L 112.52817 108.551435 
L 115.761462 146.910158 
L 116.680732 154.713908 
L 117.393958 159.064072 
L 117.96454 161.33791 
L 118.408325 162.324441 
L 118.741164 162.605784 
L 118.994755 162.55516 
L 119.264197 162.251274 
L 119.612885 161.479818 
L 120.05667 159.895265 
L 120.611402 157.007882 
L 121.292929 152.192915 
L 122.148801 144.450569 
L 123.321662 131.604398 
L 126.887794 91.097772 
L 127.807064 83.767832 
L 128.53614 79.599595 
L 129.106721 77.470054 
L 129.550506 76.536484 
L 129.883345 76.259457 
L 130.152786 76.301938 
L 130.438077 76.606002 
L 130.802615 77.37789 
L 131.262249 78.949781 
L 131.83283 81.78852 
L 132.530207 86.48657 
L 133.401929 93.993365 
L 134.57479 106.215121 
L 138.473761 148.52231 
L 139.39303 155.404606 
L 140.122106 159.336283 
L 140.708537 161.413025 
L 141.168171 162.331165 
L 141.51686 162.603873 
L 141.786301 162.563226 
L 142.071592 162.282288 
L 142.43613 161.571086 
L 142.895764 160.123491 
L 143.466345 157.507175 
L 144.163722 153.167819 
L 145.035443 146.204719 
L 146.176606 135.106761 
L 148.427231 110.382694 
L 149.98048 94.680358 
L 151.026545 86.204537 
L 151.850718 81.182398 
L 152.516396 78.352347 
L 153.055278 76.920598 
L 153.467364 76.360536 
L 153.784354 76.248368 
L 154.069644 76.384259 
L 154.402483 76.824415 
L 154.81457 77.783251 
L 155.321753 79.574038 
L 155.955732 82.711408 
L 156.732356 87.794224 
L 157.699174 95.733504 
L 159.014681 108.580888 
L 162.723458 145.879662 
L 163.753674 153.541436 
L 164.577847 158.13188 
L 165.243525 160.70883 
L 165.782407 162.008404 
L 166.210343 162.525266 
L 166.527332 162.611524 
L 166.828472 162.459886 
L 167.177161 162.002082 
L 167.605096 161.032708 
L 168.128129 159.255613 
L 168.777958 156.186488 
L 169.570431 151.265194 
L 170.553099 143.634074 
L 171.868605 131.492778 
L 175.989469 92.13177 
L 177.019685 84.970166 
L 177.859707 80.585335 
L 178.541234 78.106341 
L 179.095966 76.844479 
L 179.523902 76.346812 
L 179.87259 76.250329 
L 180.18958 76.403184 
L 180.554118 76.860085 
L 180.997903 77.815947 
L 181.536785 79.549824 
L 182.202463 82.516418 
L 182.994937 87.137207 
L 183.977604 94.279521 
L 185.261412 105.379764 
L 190.079652 148.773721 
L 191.078169 155.014647 
L 191.902342 158.858899 
L 192.56802 161.011525 
L 193.106902 162.098911 
L 193.534838 162.535293 
L 193.883527 162.609238 
L 194.216366 162.444195 
L 194.596753 161.975862 
L 195.056388 161.017993 
L 195.611119 159.306663 
L 196.292647 156.413084 
L 197.10097 151.941892 
L 198.099487 145.072009 
L 199.383294 134.566774 
L 201.776565 112.689338 
L 203.646803 96.611805 
L 204.851363 88.055468 
L 205.818181 82.664476 
L 206.610655 79.39566 
L 207.260484 77.555267 
L 207.799366 76.628175 
L 208.227302 76.286403 
L 208.57599 76.267614 
L 208.924679 76.48157 
L 209.320916 77.004961 
L 209.812249 78.061317 
L 210.39868 79.895171 
L 211.111906 82.923335 
L 211.967778 87.615468 
L 213.013843 94.697818 
L 214.361049 105.465948 
L 219.559677 148.742055 
L 220.605742 154.835603 
L 221.461614 158.612428 
L 222.17484 160.83963 
L 222.761271 162.009438 
L 223.236755 162.507917 
L 223.617142 162.613501 
L 223.965831 162.48107 
L 224.362068 162.065816 
L 224.821702 161.235523 
L 225.376434 159.746207 
L 226.042112 157.283499 
L 226.850435 153.368606 
L 227.817253 147.501617 
L 229.021813 138.724276 
L 230.749406 124.309463 
L 233.951 97.474653 
L 235.234808 88.694499 
L 236.249174 83.184119 
L 237.089196 79.754456 
L 237.786573 77.762673 
L 238.357154 76.739515 
L 238.816789 76.322028 
L 239.197177 76.253634 
L 239.561715 76.423836 
L 239.973801 76.892616 
L 240.465135 77.829996 
L 241.051565 79.474579 
L 241.748942 82.143447 
L 242.588964 86.313631 
L 243.587481 92.469494 
L 244.855439 101.78701 
L 246.757376 117.653665 
L 249.531035 140.584369 
L 250.846541 149.615951 
L 251.892606 155.349595 
L 252.748478 158.893873 
L 253.461704 160.977576 
L 254.048135 162.066121 
L 254.523619 162.523552 
L 254.904007 162.612235 
L 255.268545 162.465431 
L 255.664781 162.049564 
L 256.140266 161.201935 
L 256.710847 159.693514 
L 257.392374 157.216158 
L 258.200698 153.385631 
L 259.167516 147.667031 
L 260.372076 139.1187 
L 262.06797 125.311104 
L 265.539005 96.767427 
L 266.806963 88.328072 
L 267.821329 82.966213 
L 268.661351 79.633269 
L 269.358728 77.701487 
L 269.929309 76.71318 
L 270.388944 76.314448 
L 270.769331 76.255409 
L 271.133869 76.429494 
L 271.545956 76.896924 
L 272.03729 77.825203 
L 272.62372 79.449208 
L 273.321097 82.081715 
L 274.161119 86.194624 
L 275.159636 92.270078 
L 276.411745 101.356468 
L 278.250284 116.532305 
L 281.214136 140.912444 
L 282.529642 149.848258 
L 283.559858 155.434611 
L 284.41573 158.944806 
L 285.128956 161.005887 
L 285.715387 162.079927 
L 286.190871 162.528321 
L 286.571258 162.6115 
L 286.935796 162.460823 
L 287.347883 162.020017 
L 287.823367 161.158603 
L 288.393948 159.636685 
L 289.075476 157.1474 
L 289.899648 153.223942 
L 290.882316 147.380062 
L 292.102725 138.679248 
L 293.830318 124.580181 
L 297.158708 97.218979 
L 298.442515 88.611222 
L 299.472731 83.117182 
L 300.312754 79.745977 
L 301.01013 77.778153 
L 301.580712 76.758007 
L 302.040346 76.332406 
L 302.420734 76.250494 
L 302.785272 76.402263 
L 303.197358 76.844164 
L 303.672842 77.706665 
L 304.243423 79.229657 
L 304.924951 81.719931 
L 305.749124 85.644226 
L 306.731791 91.488702 
L 307.952201 100.189814 
L 309.679793 114.288717 
L 313.008183 141.647631 
L 314.291991 150.254061 
L 315.322207 155.747059 
L 316.162229 159.117465 
L 316.859606 161.084675 
L 317.430187 162.104357 
L 317.889822 162.529613 
L 318.270209 162.611259 
L 318.634747 162.459252 
L 319.046833 162.017104 
L 319.522318 161.154347 
L 320.092899 159.631086 
L 320.774426 157.140547 
L 321.598599 153.216011 
L 322.581266 147.371355 
L 323.801676 138.670161 
L 325.529269 124.571363 
L 328.857659 97.213083 
L 330.141466 88.606953 
L 331.171682 83.114188 
L 332.011704 79.743961 
L 332.709081 77.77689 
L 333.279662 76.757311 
L 333.739297 76.332133 
L 334.119685 76.250547 
L 334.484222 76.402606 
L 334.896309 76.84481 
L 335.371793 77.707625 
L 335.942374 79.230946 
L 336.623902 81.721544 
L 337.448074 85.646134 
L 338.430742 91.49083 
L 339.651151 100.192042 
L 341.378744 114.290816 
L 344.707134 141.648955 
L 345.990942 150.255018 
L 347.021157 155.747731 
L 347.86118 159.117917 
L 348.558557 161.084958 
L 349.129138 162.104513 
L 349.588772 162.529674 
L 349.96916 162.611247 
L 350.333698 162.459176 
L 350.745784 162.01696 
L 351.221268 161.154132 
L 351.79185 159.630797 
L 352.473377 157.140186 
L 353.29755 153.215584 
L 354.280217 147.370878 
L 355.500627 138.669663 
L 357.22822 124.570894 
L 360.556609 97.212787 
L 361.840417 88.606739 
L 362.870633 83.114038 
L 363.710655 79.74386 
L 364.408032 77.776827 
L 364.978613 76.757276 
L 365.438248 76.332119 
L 365.818635 76.25055 
L 366.183173 76.402624 
L 366.59526 76.844842 
L 367.070744 77.707673 
L 367.641325 79.231011 
L 367.815669 79.800004 
L 367.815669 79.800004 
" clip-path="url(#p8d4c46ecb6)" style="fill: none; stroke: #009afa; stroke-width: 6"/>
   </g>
   <g id="matplotlib.axis_1"/>
   <g id="matplotlib.axis_2">
    <g id="ytick_1">
     <g id="line2d_2">
      <defs>
       <path id="m893c06c9f2" d="M 0 0 
L 5 0 
" style="stroke: #000000"/>
      </defs>
      <g>
       <use xlink:href="#m893c06c9f2" x="41.316477" y="162.614695" style="stroke: #000000"/>
      </g>
     </g>
     <g id="text_1">
      <!-- $-1$ -->
      <g transform="translate(1.976477 173.252508) scale(0.28 -0.28)">
       <defs>
        <path id="Cmsy10-a1" d="M 653 1472 
Q 600 1472 565 1512 
Q 531 1553 531 1600 
Q 531 1647 565 1687 
Q 600 1728 653 1728 
L 4325 1728 
Q 4375 1728 4408 1687 
Q 4441 1647 4441 1600 
Q 4441 1553 4408 1512 
Q 4375 1472 4325 1472 
L 653 1472 
z
" transform="scale(0.015625)"/>
        <path id="Cmr10-31" d="M 594 0 
L 594 225 
Q 1394 225 1394 428 
L 1394 3788 
Q 1063 3628 556 3628 
L 556 3853 
Q 1341 3853 1741 4263 
L 1831 4263 
Q 1853 4263 1873 4245 
Q 1894 4228 1894 4206 
L 1894 428 
Q 1894 225 2694 225 
L 2694 0 
L 594 0 
z
" transform="scale(0.015625)"/>
       </defs>
       <use xlink:href="#Cmsy10-a1" transform="translate(0 0.390625)"/>
       <use xlink:href="#Cmr10-31" transform="translate(77.685547 0.390625)"/>
      </g>
     </g>
    </g>
    <g id="ytick_2">
     <g id="line2d_3">
      <g>
       <use xlink:href="#m893c06c9f2" x="41.316477" y="119.430898" style="stroke: #000000"/>
      </g>
     </g>
     <g id="text_2">
      <!-- $0$ -->
      <g transform="translate(23.816477 130.068711) scale(0.28 -0.28)">
       <defs>
        <path id="Cmr10-30" d="M 1600 -141 
Q 816 -141 533 504 
Q 250 1150 250 2041 
Q 250 2597 351 3087 
Q 453 3578 754 3920 
Q 1056 4263 1600 4263 
Q 2022 4263 2290 4056 
Q 2559 3850 2700 3523 
Q 2841 3197 2892 2823 
Q 2944 2450 2944 2041 
Q 2944 1491 2842 1011 
Q 2741 531 2444 195 
Q 2147 -141 1600 -141 
z
M 1600 25 
Q 1956 25 2131 390 
Q 2306 756 2347 1200 
Q 2388 1644 2388 2144 
Q 2388 2625 2347 3031 
Q 2306 3438 2132 3767 
Q 1959 4097 1600 4097 
Q 1238 4097 1063 3765 
Q 888 3434 847 3029 
Q 806 2625 806 2144 
Q 806 1788 823 1472 
Q 841 1156 916 820 
Q 991 484 1158 254 
Q 1325 25 1600 25 
z
" transform="scale(0.015625)"/>
       </defs>
       <use xlink:href="#Cmr10-30" transform="translate(0 0.390625)"/>
      </g>
     </g>
    </g>
    <g id="ytick_3">
     <g id="line2d_4">
      <g>
       <use xlink:href="#m893c06c9f2" x="41.316477" y="76.247101" style="stroke: #000000"/>
      </g>
     </g>
     <g id="text_3">
      <!-- $1$ -->
      <g transform="translate(23.816477 86.884913) scale(0.28 -0.28)">
       <use xlink:href="#Cmr10-31" transform="translate(0 0.390625)"/>
      </g>
     </g>
    </g>
    <g id="ytick_4">
     <g id="line2d_5">
      <g>
       <use xlink:href="#m893c06c9f2" x="41.316477" y="33.063304" style="stroke: #000000"/>
      </g>
     </g>
     <g id="text_4">
      <!-- $2$ -->
      <g transform="translate(23.816477 43.701116) scale(0.28 -0.28)">
       <defs>
        <path id="Cmr10-32" d="M 319 0 
L 319 172 
Q 319 188 331 206 
L 1325 1306 
Q 1550 1550 1690 1715 
Q 1831 1881 1968 2097 
Q 2106 2313 2186 2536 
Q 2266 2759 2266 3009 
Q 2266 3272 2169 3511 
Q 2072 3750 1880 3894 
Q 1688 4038 1416 4038 
Q 1138 4038 916 3870 
Q 694 3703 603 3438 
Q 628 3444 672 3444 
Q 816 3444 917 3347 
Q 1019 3250 1019 3097 
Q 1019 2950 917 2848 
Q 816 2747 672 2747 
Q 522 2747 420 2851 
Q 319 2956 319 3097 
Q 319 3338 409 3548 
Q 500 3759 670 3923 
Q 841 4088 1055 4175 
Q 1269 4263 1509 4263 
Q 1875 4263 2190 4108 
Q 2506 3953 2690 3670 
Q 2875 3388 2875 3009 
Q 2875 2731 2753 2481 
Q 2631 2231 2440 2026 
Q 2250 1822 1953 1562 
Q 1656 1303 1563 1216 
L 838 519 
L 1453 519 
Q 1906 519 2211 526 
Q 2516 534 2534 550 
Q 2609 631 2688 1141 
L 2875 1141 
L 2694 0 
L 319 0 
z
" transform="scale(0.015625)"/>
       </defs>
       <use xlink:href="#Cmr10-32" transform="translate(0 0.390625)"/>
      </g>
     </g>
    </g>
   </g>
   <g id="line2d_6">
    <path d="M 50.826162 33.063304 
L 91.242324 42.903903 
L 123.08392 50.436622 
L 148.427231 56.211853 
L 168.841355 60.643811 
L 185.62595 64.065847 
L 199.81123 66.737997 
L 211.920229 68.79794 
L 222.824669 70.430287 
L 233.126828 71.748957 
L 243.286341 72.825164 
L 253.731145 73.706178 
L 264.952574 74.425657 
L 277.632154 75.009974 
L 292.705005 75.474614 
L 311.407386 75.818029 
L 337.384676 76.057834 
L 367.815669 76.174579 
L 367.815669 76.174579 
" clip-path="url(#p8d4c46ecb6)" style="fill: none; stroke: #3ea44e; stroke-width: 6"/>
   </g>
   <g id="patch_3">
    <path d="M 41.316477 175.569834 
L 41.316477 2.834646 
" style="fill: none; stroke: #000000; stroke-width: 2; stroke-linejoin: miter; stroke-linecap: square"/>
   </g>
  </g>
 </g>
 <defs>
  <clipPath id="p8d4c46ecb6">
   <rect x="41.316477" y="2.834646" width="336.008878" height="172.735189"/>
  </clipPath>
 </defs>
</svg>
