<?xml version="1.0" encoding="utf-8" standalone="no"?>
<!DOCTYPE svg PUBLIC "-//W3C//DTD SVG 1.1//EN"
  "http://www.w3.org/Graphics/SVG/1.1/DTD/svg11.dtd">
<svg xmlns:xlink="http://www.w3.org/1999/xlink" width="455.04pt" height="184.32pt" viewBox="0 0 455.04 184.32" xmlns="http://www.w3.org/2000/svg" version="1.1">
 <metadata>
  <rdf:RDF xmlns:dc="http://purl.org/dc/elements/1.1/" xmlns:cc="http://creativecommons.org/ns#" xmlns:rdf="http://www.w3.org/1999/02/22-rdf-syntax-ns#">
   <cc:Work>
    <dc:type rdf:resource="http://purl.org/dc/dcmitype/StillImage"/>
    <dc:date>2024-04-27T16:44:15.592304</dc:date>
    <dc:format>image/svg+xml</dc:format>
    <dc:creator>
     <cc:Agent>
      <dc:title>Matplotlib v3.7.0, https://matplotlib.org/</dc:title>
     </cc:Agent>
    </dc:creator>
   </cc:Work>
  </rdf:RDF>
 </metadata>
 <defs>
  <style type="text/css">*{stroke-linejoin: round; stroke-linecap: butt}</style>
 </defs>
 <g id="figure_1">
  <g id="patch_1">
   <path d="M 0 184.32 
L 455.04 184.32 
L 455.04 0 
L 0 0 
L 0 184.32 
z
" style="fill: none"/>
  </g>
  <g id="axes_1">
   <g id="patch_2">
    <path d="M 42.418977 171.376554 
L 452.205354 171.376554 
L 452.205354 7.183446 
L 42.418977 7.183446 
L 42.418977 171.376554 
z
" style="fill: none"/>
   </g>
   <g id="line2d_1">
    <path d="M 54.016704 14.646769 
L 56.365244 30.663248 
L 58.675125 44.913663 
L 60.975341 57.727275 
L 63.227233 69.023989 
L 65.430801 78.981681 
L 67.711688 88.250403 
L 69.876597 96.144282 
L 72.176813 103.654557 
L 74.370716 110.079095 
L 76.506631 115.656661 
L 78.797183 121.043878 
L 80.981421 125.626536 
L 83.175325 129.710571 
L 85.533529 133.657049 
L 87.795086 137.017059 
L 90.017984 139.924522 
L 92.550155 142.890352 
L 95.005007 145.428697 
L 97.343882 147.534407 
L 100.223984 149.80985 
L 103.036433 151.751741 
L 105.781229 153.380054 
L 108.767644 154.881347 
L 112.217968 156.385378 
L 115.619968 157.627528 
L 119.079957 158.652347 
L 123.632065 159.777618 
L 128.164843 160.669611 
L 132.929576 161.37445 
L 139.462963 162.127292 
L 145.938361 162.650879 
L 156.337657 163.188939 
L 166.678964 163.502138 
L 185.931192 163.777327 
L 211.13692 163.880904 
L 272.885155 163.91346 
L 440.607627 163.91309 
L 440.607627 163.91309 
" clip-path="url(#p90d6112a16)" style="fill: none; stroke: #8c510a; stroke-opacity: 0.9; stroke-width: 6"/>
   </g>
   <g id="matplotlib.axis_1"/>
   <g id="matplotlib.axis_2">
    <g id="ytick_1">
     <g id="line2d_2">
      <defs>
       <path id="m5666e78f6d" d="M 0 0 
L 5 0 
" style="stroke: #000000"/>
      </defs>
      <g>
       <use xlink:href="#m5666e78f6d" x="42.418977" y="163.913231" style="stroke: #000000"/>
      </g>
     </g>
     <g id="text_1">
      <!-- $1.0$ -->
      <g transform="translate(3.078977 174.551044) scale(0.28 -0.28)">
       <defs>
        <path id="Cmr10-31" d="M 594 0 
L 594 225 
Q 1394 225 1394 428 
L 1394 3788 
Q 1063 3628 556 3628 
L 556 3853 
Q 1341 3853 1741 4263 
L 1831 4263 
Q 1853 4263 1873 4245 
Q 1894 4228 1894 4206 
L 1894 428 
Q 1894 225 2694 225 
L 2694 0 
L 594 0 
z
" transform="scale(0.015625)"/>
        <path id="Cmmi10-3a" d="M 538 353 
Q 538 497 644 600 
Q 750 703 891 703 
Q 978 703 1062 656 
Q 1147 609 1194 525 
Q 1241 441 1241 353 
Q 1241 213 1137 106 
Q 1034 0 891 0 
Q 750 0 644 106 
Q 538 213 538 353 
z
" transform="scale(0.015625)"/>
        <path id="Cmr10-30" d="M 1600 -141 
Q 816 -141 533 504 
Q 250 1150 250 2041 
Q 250 2597 351 3087 
Q 453 3578 754 3920 
Q 1056 4263 1600 4263 
Q 2022 4263 2290 4056 
Q 2559 3850 2700 3523 
Q 2841 3197 2892 2823 
Q 2944 2450 2944 2041 
Q 2944 1491 2842 1011 
Q 2741 531 2444 195 
Q 2147 -141 1600 -141 
z
M 1600 25 
Q 1956 25 2131 390 
Q 2306 756 2347 1200 
Q 2388 1644 2388 2144 
Q 2388 2625 2347 3031 
Q 2306 3438 2132 3767 
Q 1959 4097 1600 4097 
Q 1238 4097 1063 3765 
Q 888 3434 847 3029 
Q 806 2625 806 2144 
Q 806 1788 823 1472 
Q 841 1156 916 820 
Q 991 484 1158 254 
Q 1325 25 1600 25 
z
" transform="scale(0.015625)"/>
       </defs>
       <use xlink:href="#Cmr10-31" transform="translate(0 0.390625)"/>
       <use xlink:href="#Cmmi10-3a" transform="translate(50 0.390625)"/>
       <use xlink:href="#Cmr10-30" transform="translate(77.685547 0.390625)"/>
      </g>
     </g>
    </g>
    <g id="ytick_2">
     <g id="line2d_3">
      <g>
       <use xlink:href="#m5666e78f6d" x="42.418977" y="89.28" style="stroke: #000000"/>
      </g>
     </g>
     <g id="text_2">
      <!-- $1.5$ -->
      <g transform="translate(3.078977 99.917812) scale(0.28 -0.28)">
       <defs>
        <path id="Cmr10-35" d="M 556 728 
Q 622 541 758 387 
Q 894 234 1080 148 
Q 1266 63 1466 63 
Q 1928 63 2103 422 
Q 2278 781 2278 1294 
Q 2278 1516 2270 1667 
Q 2263 1819 2228 1959 
Q 2169 2184 2020 2353 
Q 1872 2522 1656 2522 
Q 1441 2522 1286 2456 
Q 1131 2391 1034 2303 
Q 938 2216 863 2119 
Q 788 2022 769 2016 
L 697 2016 
Q 681 2016 657 2036 
Q 634 2056 634 2075 
L 634 4213 
Q 634 4228 654 4245 
Q 675 4263 697 4263 
L 716 4263 
Q 1147 4056 1631 4056 
Q 2106 4056 2547 4263 
L 2566 4263 
Q 2588 4263 2606 4247 
Q 2625 4231 2625 4213 
L 2625 4153 
Q 2625 4122 2613 4122 
Q 2394 3831 2064 3668 
Q 1734 3506 1381 3506 
Q 1125 3506 856 3578 
L 856 2369 
Q 1069 2541 1236 2614 
Q 1403 2688 1663 2688 
Q 2016 2688 2295 2484 
Q 2575 2281 2725 1954 
Q 2875 1628 2875 1288 
Q 2875 903 2686 575 
Q 2497 247 2172 53 
Q 1847 -141 1466 -141 
Q 1150 -141 886 21 
Q 622 184 470 459 
Q 319 734 319 1044 
Q 319 1188 412 1278 
Q 506 1369 647 1369 
Q 788 1369 883 1276 
Q 978 1184 978 1044 
Q 978 906 883 811 
Q 788 716 647 716 
Q 625 716 597 720 
Q 569 725 556 728 
z
" transform="scale(0.015625)"/>
       </defs>
       <use xlink:href="#Cmr10-31" transform="translate(0 0.390625)"/>
       <use xlink:href="#Cmmi10-3a" transform="translate(50 0.390625)"/>
       <use xlink:href="#Cmr10-35" transform="translate(77.685547 0.390625)"/>
      </g>
     </g>
    </g>
    <g id="ytick_3">
     <g id="line2d_4">
      <g>
       <use xlink:href="#m5666e78f6d" x="42.418977" y="14.646769" style="stroke: #000000"/>
      </g>
     </g>
     <g id="text_3">
      <!-- $2.0$ -->
      <g transform="translate(3.078977 25.284581) scale(0.28 -0.28)">
       <defs>
        <path id="Cmr10-32" d="M 319 0 
L 319 172 
Q 319 188 331 206 
L 1325 1306 
Q 1550 1550 1690 1715 
Q 1831 1881 1968 2097 
Q 2106 2313 2186 2536 
Q 2266 2759 2266 3009 
Q 2266 3272 2169 3511 
Q 2072 3750 1880 3894 
Q 1688 4038 1416 4038 
Q 1138 4038 916 3870 
Q 694 3703 603 3438 
Q 628 3444 672 3444 
Q 816 3444 917 3347 
Q 1019 3250 1019 3097 
Q 1019 2950 917 2848 
Q 816 2747 672 2747 
Q 522 2747 420 2851 
Q 319 2956 319 3097 
Q 319 3338 409 3548 
Q 500 3759 670 3923 
Q 841 4088 1055 4175 
Q 1269 4263 1509 4263 
Q 1875 4263 2190 4108 
Q 2506 3953 2690 3670 
Q 2875 3388 2875 3009 
Q 2875 2731 2753 2481 
Q 2631 2231 2440 2026 
Q 2250 1822 1953 1562 
Q 1656 1303 1563 1216 
L 838 519 
L 1453 519 
Q 1906 519 2211 526 
Q 2516 534 2534 550 
Q 2609 631 2688 1141 
L 2875 1141 
L 2694 0 
L 319 0 
z
" transform="scale(0.015625)"/>
       </defs>
       <use xlink:href="#Cmr10-32" transform="translate(0 0.390625)"/>
       <use xlink:href="#Cmmi10-3a" transform="translate(50 0.390625)"/>
       <use xlink:href="#Cmr10-30" transform="translate(77.685547 0.390625)"/>
      </g>
     </g>
    </g>
   </g>
   <g id="line2d_5">
    <path d="M 54.016704 14.646769 
L 56.954795 31.782433 
L 59.73825 46.731875 
L 62.396063 59.821717 
L 64.957227 71.347516 
L 67.450739 81.559576 
L 69.866932 90.546339 
L 72.234802 98.506952 
L 74.593006 105.681641 
L 76.844898 111.837762 
L 79.232097 117.720035 
L 81.512984 122.76302 
L 83.706887 127.086165 
L 86.12308 131.368642 
L 88.432961 135.020737 
L 90.63653 138.100054 
L 93.197694 141.294545 
L 95.671876 144.031508 
L 98.04941 146.337064 
L 100.929513 148.760255 
L 103.732297 150.831816 
L 106.467428 152.580847 
L 109.212223 154.071628 
L 112.633553 155.687377 
L 116.006559 157.035714 
L 119.292582 158.112612 
L 123.777036 159.325002 
L 128.232497 160.300494 
L 132.639633 161.039232 
L 139.057043 161.867588 
L 145.455122 162.469612 
L 152.98398 162.935016 
L 163.141657 163.360293 
L 175.009998 163.615922 
L 193.653346 163.814227 
L 239.029455 163.908102 
L 440.607627 163.913073 
L 440.607627 163.913073 
" clip-path="url(#p90d6112a16)" style="fill: none; stroke: #bf812d; stroke-opacity: 0.9; stroke-width: 6"/>
   </g>
   <g id="patch_3">
    <path d="M 42.418977 171.376554 
L 42.418977 7.183446 
" style="fill: none; stroke: #000000; stroke-width: 2; stroke-linejoin: miter; stroke-linecap: square"/>
   </g>
   <g id="patch_4">
    <path d="M 42.418977 171.376554 
L 452.205354 171.376554 
" style="fill: none; stroke: #000000; stroke-width: 2; stroke-linejoin: miter; stroke-linecap: square"/>
   </g>
   <g id="line2d_6">
    <path d="M 54.016704 14.646769 
L 58.597807 33.742737 
L 62.763324 50.170468 
L 66.580909 64.330887 
L 70.108552 76.560159 
L 73.278597 86.7777 
L 76.36166 95.976081 
L 79.212768 103.801302 
L 81.957563 110.69655 
L 84.64437 116.856081 
L 87.224865 122.22697 
L 89.699047 126.874417 
L 92.29887 131.273334 
L 94.802047 135.081214 
L 97.208575 138.346637 
L 99.682757 141.32436 
L 102.32124 144.169052 
L 104.87274 146.598491 
L 107.327593 148.634803 
L 110.333337 150.822517 
L 113.271428 152.688464 
L 116.141866 154.251255 
L 119.157275 155.633396 
L 122.820224 157.083882 
L 126.444514 158.280843 
L 130.02048 159.229142 
L 134.978508 160.304753 
L 139.907543 161.147301 
L 144.933225 161.778677 
L 152.268787 162.475015 
L 159.556026 162.944341 
L 171.73364 163.410375 
L 183.949913 163.655274 
L 208.092516 163.853811 
L 255.072978 163.912783 
L 440.607627 163.91322 
L 440.607627 163.91322 
" clip-path="url(#p90d6112a16)" style="fill: none; stroke: #dfc27d; stroke-opacity: 0.9; stroke-width: 6"/>
   </g>
   <g id="line2d_7">
    <path d="M 54.016704 14.646769 
L 62.550699 36.184772 
L 69.857267 54.049599 
L 76.12004 68.820205 
L 82.09287 82.350632 
L 87.166876 93.276822 
L 91.921944 103.006196 
L 95.952155 110.73116 
L 99.924376 117.86745 
L 103.258723 123.439948 
L 106.496422 128.425681 
L 109.647138 132.875212 
L 112.710871 136.82284 
L 115.629633 140.223853 
L 118.461411 143.187092 
L 121.206207 145.74239 
L 124.260275 148.263693 
L 127.24669 150.444646 
L 130.165451 152.304368 
L 133.006895 153.854898 
L 136.631184 155.553192 
L 140.207151 156.98511 
L 143.744457 158.163365 
L 147.378412 159.136263 
L 152.268787 160.223212 
L 157.130168 161.076498 
L 162.030208 161.709923 
L 169.394765 162.4288 
L 176.749657 162.923541 
L 186.424095 163.316261 
L 198.930312 163.623502 
L 218.221199 163.814852 
L 247.524791 163.895408 
L 357.2103 163.913098 
L 440.607627 163.91324 
L 440.607627 163.91324 
" clip-path="url(#p90d6112a16)" style="fill: none; stroke: #f6e8c3; stroke-opacity: 0.9; stroke-width: 6"/>
   </g>
   <g id="line2d_8">
    <path d="M 54.016704 14.646769 
L 71.68391 39.123041 
L 86.77062 59.648923 
L 99.847058 77.056805 
L 109.705127 89.843243 
L 119.79515 102.562304 
L 126.695798 110.960158 
L 133.509463 118.904316 
L 140.67106 126.904056 
L 145.232833 131.73469 
L 149.707622 136.152555 
L 154.105094 140.184696 
L 158.425248 143.84729 
L 162.242833 146.809983 
L 165.818799 149.292702 
L 169.327112 151.460749 
L 172.777436 153.334354 
L 176.179436 154.930628 
L 180.03568 156.477535 
L 184.143209 157.894889 
L 188.221743 159.067917 
L 192.261618 159.999644 
L 196.688084 160.781371 
L 202.902533 161.66363 
L 209.107318 162.320185 
L 215.428079 162.763219 
L 226.204301 163.279674 
L 236.932199 163.571795 
L 259.499444 163.822948 
L 289.518229 163.898085 
L 390.205835 163.913069 
L 440.607627 163.913218 
L 440.607627 163.913218 
" clip-path="url(#p90d6112a16)" style="fill: none; stroke: #c7eae5; stroke-opacity: 0.9; stroke-width: 6"/>
   </g>
   <g id="line2d_9">
    <path d="M 54.016704 14.646769 
L 94.637746 44.081409 
L 128.058531 68.028594 
L 156.60827 88.200741 
L 177.05893 102.371876 
L 198.36009 116.856412 
L 210.547369 124.856822 
L 222.676659 132.553832 
L 234.458017 139.770631 
L 241.030063 143.553389 
L 247.54412 147.047565 
L 254.009853 150.264566 
L 260.572234 153.279659 
L 265.163001 155.163554 
L 269.715109 156.792621 
L 274.228558 158.172922 
L 278.713013 159.312676 
L 283.168474 160.216362 
L 288.764377 161.095251 
L 295.636031 161.967653 
L 302.49802 162.615037 
L 309.350344 163.038348 
L 319.498355 163.388817 
L 334.420765 163.709172 
L 351.073169 163.831394 
L 394.835261 163.912153 
L 440.607627 163.9133 
L 440.607627 163.9133 
" clip-path="url(#p90d6112a16)" style="fill: none; stroke: #80cdc1; stroke-opacity: 0.9; stroke-width: 6"/>
   </g>
  </g>
 </g>
 <defs>
  <clipPath id="p90d6112a16">
   <rect x="42.418977" y="7.183446" width="409.786378" height="164.193109"/>
  </clipPath>
 </defs>
</svg>
