<?xml version="1.0" encoding="utf-8" standalone="no"?>
<!DOCTYPE svg PUBLIC "-//W3C//DTD SVG 1.1//EN"
  "http://www.w3.org/Graphics/SVG/1.1/DTD/svg11.dtd">
<svg xmlns:xlink="http://www.w3.org/1999/xlink" width="455.04pt" height="184.32pt" viewBox="0 0 455.04 184.32" xmlns="http://www.w3.org/2000/svg" version="1.1">
 <metadata>
  <rdf:RDF xmlns:dc="http://purl.org/dc/elements/1.1/" xmlns:cc="http://creativecommons.org/ns#" xmlns:rdf="http://www.w3.org/1999/02/22-rdf-syntax-ns#">
   <cc:Work>
    <dc:type rdf:resource="http://purl.org/dc/dcmitype/StillImage"/>
    <dc:date>2024-05-07T10:31:41.969927</dc:date>
    <dc:format>image/svg+xml</dc:format>
    <dc:creator>
     <cc:Agent>
      <dc:title>Matplotlib v3.7.0, https://matplotlib.org/</dc:title>
     </cc:Agent>
    </dc:creator>
   </cc:Work>
  </rdf:RDF>
 </metadata>
 <defs>
  <style type="text/css">*{stroke-linejoin: round; stroke-linecap: butt}</style>
 </defs>
 <g id="figure_1">
  <g id="patch_1">
   <path d="M 0 184.32 
L 455.04 184.32 
L 455.04 0 
L 0 0 
L 0 184.32 
z
" style="fill: none"/>
  </g>
  <g id="axes_1">
   <g id="patch_2">
    <path d="M 42.418977 171.376554 
L 452.205354 171.376554 
L 452.205354 7.183446 
L 42.418977 7.183446 
L 42.418977 171.376554 
z
" style="fill: none"/>
   </g>
   <g id="line2d_1">
    <path d="M 54.016704 14.646769 
L 56.365244 30.661541 
L 58.675125 44.908095 
L 60.946347 57.55555 
L 63.198239 68.859426 
L 65.430801 78.94647 
L 67.644034 87.937381 
L 69.847603 95.978529 
L 72.051171 103.193912 
L 74.254739 109.661282 
L 76.467972 115.477052 
L 78.69087 120.700433 
L 80.923433 125.386609 
L 83.175325 129.603752 
L 85.456211 133.408512 
L 87.766092 136.834478 
L 90.124297 139.937428 
L 92.530825 142.739076 
L 95.005007 145.27956 
L 97.556507 147.581325 
L 100.19499 149.663477 
L 102.94945 151.554859 
L 105.848882 153.275495 
L 108.912615 154.834221 
L 112.179309 156.245588 
L 115.697286 157.521259 
L 119.514871 158.666697 
L 123.709383 159.690065 
L 128.377468 160.596118 
L 133.64477 161.387313 
L 139.704582 162.067053 
L 146.837185 162.636727 
L 155.516151 163.098469 
L 166.582316 163.453614 
L 181.785004 163.703903 
L 205.801965 163.852816 
L 259.48978 163.909464 
L 440.607627 163.91323 
L 440.607627 163.91323 
" clip-path="url(#p16df158c7d)" style="fill: none; stroke: #8c510a; stroke-opacity: 0.9; stroke-width: 6"/>
   </g>
   <g id="matplotlib.axis_1"/>
   <g id="matplotlib.axis_2">
    <g id="ytick_1">
     <g id="line2d_2">
      <defs>
       <path id="m349903dcc8" d="M 0 0 
L 5 0 
" style="stroke: #000000"/>
      </defs>
      <g>
       <use xlink:href="#m349903dcc8" x="42.418977" y="163.913231" style="stroke: #000000"/>
      </g>
     </g>
     <g id="text_1">
      <!-- $1.0$ -->
      <g transform="translate(3.078977 174.551044) scale(0.28 -0.28)">
       <defs>
        <path id="Cmr10-31" d="M 594 0 
L 594 225 
Q 1394 225 1394 428 
L 1394 3788 
Q 1063 3628 556 3628 
L 556 3853 
Q 1341 3853 1741 4263 
L 1831 4263 
Q 1853 4263 1873 4245 
Q 1894 4228 1894 4206 
L 1894 428 
Q 1894 225 2694 225 
L 2694 0 
L 594 0 
z
" transform="scale(0.015625)"/>
        <path id="Cmmi10-3a" d="M 538 353 
Q 538 497 644 600 
Q 750 703 891 703 
Q 978 703 1062 656 
Q 1147 609 1194 525 
Q 1241 441 1241 353 
Q 1241 213 1137 106 
Q 1034 0 891 0 
Q 750 0 644 106 
Q 538 213 538 353 
z
" transform="scale(0.015625)"/>
        <path id="Cmr10-30" d="M 1600 -141 
Q 816 -141 533 504 
Q 250 1150 250 2041 
Q 250 2597 351 3087 
Q 453 3578 754 3920 
Q 1056 4263 1600 4263 
Q 2022 4263 2290 4056 
Q 2559 3850 2700 3523 
Q 2841 3197 2892 2823 
Q 2944 2450 2944 2041 
Q 2944 1491 2842 1011 
Q 2741 531 2444 195 
Q 2147 -141 1600 -141 
z
M 1600 25 
Q 1956 25 2131 390 
Q 2306 756 2347 1200 
Q 2388 1644 2388 2144 
Q 2388 2625 2347 3031 
Q 2306 3438 2132 3767 
Q 1959 4097 1600 4097 
Q 1238 4097 1063 3765 
Q 888 3434 847 3029 
Q 806 2625 806 2144 
Q 806 1788 823 1472 
Q 841 1156 916 820 
Q 991 484 1158 254 
Q 1325 25 1600 25 
z
" transform="scale(0.015625)"/>
       </defs>
       <use xlink:href="#Cmr10-31" transform="translate(0 0.390625)"/>
       <use xlink:href="#Cmmi10-3a" transform="translate(50 0.390625)"/>
       <use xlink:href="#Cmr10-30" transform="translate(77.685547 0.390625)"/>
      </g>
     </g>
    </g>
    <g id="ytick_2">
     <g id="line2d_3">
      <g>
       <use xlink:href="#m349903dcc8" x="42.418977" y="89.28" style="stroke: #000000"/>
      </g>
     </g>
     <g id="text_2">
      <!-- $1.5$ -->
      <g transform="translate(3.078977 99.917812) scale(0.28 -0.28)">
       <defs>
        <path id="Cmr10-35" d="M 556 728 
Q 622 541 758 387 
Q 894 234 1080 148 
Q 1266 63 1466 63 
Q 1928 63 2103 422 
Q 2278 781 2278 1294 
Q 2278 1516 2270 1667 
Q 2263 1819 2228 1959 
Q 2169 2184 2020 2353 
Q 1872 2522 1656 2522 
Q 1441 2522 1286 2456 
Q 1131 2391 1034 2303 
Q 938 2216 863 2119 
Q 788 2022 769 2016 
L 697 2016 
Q 681 2016 657 2036 
Q 634 2056 634 2075 
L 634 4213 
Q 634 4228 654 4245 
Q 675 4263 697 4263 
L 716 4263 
Q 1147 4056 1631 4056 
Q 2106 4056 2547 4263 
L 2566 4263 
Q 2588 4263 2606 4247 
Q 2625 4231 2625 4213 
L 2625 4153 
Q 2625 4122 2613 4122 
Q 2394 3831 2064 3668 
Q 1734 3506 1381 3506 
Q 1125 3506 856 3578 
L 856 2369 
Q 1069 2541 1236 2614 
Q 1403 2688 1663 2688 
Q 2016 2688 2295 2484 
Q 2575 2281 2725 1954 
Q 2875 1628 2875 1288 
Q 2875 903 2686 575 
Q 2497 247 2172 53 
Q 1847 -141 1466 -141 
Q 1150 -141 886 21 
Q 622 184 470 459 
Q 319 734 319 1044 
Q 319 1188 412 1278 
Q 506 1369 647 1369 
Q 788 1369 883 1276 
Q 978 1184 978 1044 
Q 978 906 883 811 
Q 788 716 647 716 
Q 625 716 597 720 
Q 569 725 556 728 
z
" transform="scale(0.015625)"/>
       </defs>
       <use xlink:href="#Cmr10-31" transform="translate(0 0.390625)"/>
       <use xlink:href="#Cmmi10-3a" transform="translate(50 0.390625)"/>
       <use xlink:href="#Cmr10-35" transform="translate(77.685547 0.390625)"/>
      </g>
     </g>
    </g>
    <g id="ytick_3">
     <g id="line2d_4">
      <g>
       <use xlink:href="#m349903dcc8" x="42.418977" y="14.646769" style="stroke: #000000"/>
      </g>
     </g>
     <g id="text_3">
      <!-- $2.0$ -->
      <g transform="translate(3.078977 25.284581) scale(0.28 -0.28)">
       <defs>
        <path id="Cmr10-32" d="M 319 0 
L 319 172 
Q 319 188 331 206 
L 1325 1306 
Q 1550 1550 1690 1715 
Q 1831 1881 1968 2097 
Q 2106 2313 2186 2536 
Q 2266 2759 2266 3009 
Q 2266 3272 2169 3511 
Q 2072 3750 1880 3894 
Q 1688 4038 1416 4038 
Q 1138 4038 916 3870 
Q 694 3703 603 3438 
Q 628 3444 672 3444 
Q 816 3444 917 3347 
Q 1019 3250 1019 3097 
Q 1019 2950 917 2848 
Q 816 2747 672 2747 
Q 522 2747 420 2851 
Q 319 2956 319 3097 
Q 319 3338 409 3548 
Q 500 3759 670 3923 
Q 841 4088 1055 4175 
Q 1269 4263 1509 4263 
Q 1875 4263 2190 4108 
Q 2506 3953 2690 3670 
Q 2875 3388 2875 3009 
Q 2875 2731 2753 2481 
Q 2631 2231 2440 2026 
Q 2250 1822 1953 1562 
Q 1656 1303 1563 1216 
L 838 519 
L 1453 519 
Q 1906 519 2211 526 
Q 2516 534 2534 550 
Q 2609 631 2688 1141 
L 2875 1141 
L 2694 0 
L 319 0 
z
" transform="scale(0.015625)"/>
       </defs>
       <use xlink:href="#Cmr10-32" transform="translate(0 0.390625)"/>
       <use xlink:href="#Cmmi10-3a" transform="translate(50 0.390625)"/>
       <use xlink:href="#Cmr10-30" transform="translate(77.685547 0.390625)"/>
      </g>
     </g>
    </g>
   </g>
   <g id="line2d_5">
    <path d="M 54.016704 14.646769 
L 56.945131 31.726228 
L 59.728585 46.672616 
L 62.386398 59.756721 
L 64.947563 71.272405 
L 67.431409 81.43765 
L 69.857267 90.44614 
L 72.234802 98.435604 
L 74.573677 105.531396 
L 76.893222 111.870658 
L 79.193438 117.522078 
L 81.493654 122.592589 
L 83.79387 127.132731 
L 86.103751 131.20732 
L 88.432961 134.871627 
L 90.791166 138.17261 
L 93.18803 141.150077 
L 95.642882 143.847715 
L 98.165388 146.29052 
L 100.765212 148.499902 
L 103.471348 150.507739 
L 106.293462 152.324843 
L 109.270212 153.976192 
L 112.430593 155.473295 
L 115.813263 156.827153 
L 119.466548 158.046779 
L 123.448434 159.138504 
L 127.845906 160.109818 
L 132.765275 160.964301 
L 138.361179 161.705486 
L 144.855906 162.335496 
L 152.607054 162.856689 
L 162.213839 163.270481 
L 174.816703 163.578351 
L 193.025135 163.782677 
L 225.131511 163.888425 
L 331.038095 163.91312 
L 440.607627 163.91323 
L 440.607627 163.91323 
" clip-path="url(#p16df158c7d)" style="fill: none; stroke: #bf812d; stroke-opacity: 0.9; stroke-width: 6"/>
   </g>
   <g id="patch_3">
    <path d="M 42.418977 171.376554 
L 42.418977 7.183446 
" style="fill: none; stroke: #000000; stroke-width: 2; stroke-linejoin: miter; stroke-linecap: square"/>
   </g>
   <g id="patch_4">
    <path d="M 42.418977 171.376554 
L 452.205354 171.376554 
" style="fill: none; stroke: #000000; stroke-width: 2; stroke-linejoin: miter; stroke-linecap: square"/>
   </g>
   <g id="line2d_6">
    <path d="M 54.016704 14.646769 
L 58.588142 33.700775 
L 62.715 49.974228 
L 66.484262 63.956335 
L 69.96358 76.027561 
L 73.201279 86.473946 
L 76.236018 95.531427 
L 79.11612 103.442785 
L 81.87058 110.372913 
L 84.528393 116.470443 
L 87.118552 121.865881 
L 89.650723 126.636422 
L 92.153899 130.885936 
L 94.637746 134.671796 
L 97.131257 138.071285 
L 99.634433 141.112201 
L 102.176269 143.852874 
L 104.766428 146.320619 
L 107.42424 148.54739 
L 110.178701 150.565255 
L 113.049138 152.391727 
L 116.064547 154.045518 
L 119.253923 155.539656 
L 122.665587 156.890133 
L 126.347866 158.10561 
L 130.358747 159.192267 
L 134.785213 160.157596 
L 139.743241 161.006797 
L 145.387469 161.742555 
L 151.94985 162.367328 
L 159.787981 162.88263 
L 169.520407 163.29034 
L 182.345561 163.592346 
L 201.008238 163.790999 
L 234.496676 163.891613 
L 353.170425 163.913182 
L 440.607627 163.913224 
L 440.607627 163.913224 
" clip-path="url(#p16df158c7d)" style="fill: none; stroke: #dfc27d; stroke-opacity: 0.9; stroke-width: 6"/>
   </g>
   <g id="line2d_7">
    <path d="M 54.016704 14.646769 
L 62.49271 36.036579 
L 69.866932 54.059369 
L 76.323001 69.267368 
L 82.025217 82.145361 
L 87.099223 93.069136 
L 91.660995 102.374513 
L 95.797518 110.318895 
L 99.595774 117.142261 
L 103.113752 123.014944 
L 106.419104 128.108574 
L 109.560155 132.547186 
L 112.575564 136.429455 
L 115.503991 139.842941 
L 118.384093 142.86269 
L 121.244866 145.542741 
L 124.115303 147.929275 
L 127.034065 150.067586 
L 130.030144 151.986725 
L 133.132537 153.709614 
L 136.3799 155.257955 
L 139.810895 156.646378 
L 143.483509 157.891 
L 147.484725 159.009343 
L 151.862867 159.999195 
L 156.743577 160.870389 
L 162.271827 161.626156 
L 168.660242 162.269321 
L 176.256754 162.803346 
L 185.621919 163.229493 
L 197.799533 163.549101 
L 215.157466 163.764666 
L 244.818654 163.881148 
L 330.854464 163.912784 
L 440.607627 163.913229 
L 440.607627 163.913229 
" clip-path="url(#p16df158c7d)" style="fill: none; stroke: #f6e8c3; stroke-opacity: 0.9; stroke-width: 6"/>
   </g>
   <g id="line2d_8">
    <path d="M 54.016704 14.646769 
L 71.558267 38.947702 
L 86.355035 59.077685 
L 98.890246 75.766758 
L 109.56982 89.62568 
L 118.712695 101.136699 
L 126.570156 110.682616 
L 133.42248 118.664152 
L 139.511287 125.423736 
L 144.865571 131.044648 
L 149.649634 135.75172 
L 154.008446 139.734233 
L 158.067651 143.146265 
L 161.914231 146.092726 
L 165.615839 148.651578 
L 169.240129 150.889465 
L 172.845089 152.855536 
L 176.479044 154.584777 
L 180.199981 156.10923 
L 184.08522 157.45928 
L 188.202414 158.652613 
L 192.657874 159.709716 
L 197.548249 160.638271 
L 202.950857 161.434269 
L 209.087988 162.106345 
L 216.346233 162.67156 
L 225.121847 163.123683 
L 236.410302 163.470473 
L 252.028575 163.714 
L 277.359945 163.859386 
L 336.005788 163.910516 
L 440.607627 163.913201 
L 440.607627 163.913201 
" clip-path="url(#p16df158c7d)" style="fill: none; stroke: #c7eae5; stroke-opacity: 0.9; stroke-width: 6"/>
   </g>
   <g id="line2d_9">
    <path d="M 54.016704 14.646769 
L 94.405791 43.912579 
L 127.053394 67.304055 
L 153.621856 86.075416 
L 174.95201 100.882803 
L 192.754522 112.980609 
L 207.164698 122.513468 
L 219.158682 130.189232 
L 229.277699 136.409067 
L 237.850353 141.425139 
L 245.205245 145.477924 
L 251.641984 148.776817 
L 257.411853 151.488714 
L 262.698484 153.73158 
L 267.666178 155.600212 
L 272.459905 157.16707 
L 277.234303 158.493811 
L 282.134343 159.623674 
L 287.314661 160.587988 
L 292.92023 161.401757 
L 299.202332 162.08373 
L 306.615213 162.657209 
L 315.526134 163.116818 
L 326.940231 163.468272 
L 342.442527 163.713666 
L 367.155351 163.857555 
L 424.100194 163.909895 
L 440.607627 163.911749 
L 440.607627 163.911749 
" clip-path="url(#p16df158c7d)" style="fill: none; stroke: #80cdc1; stroke-opacity: 0.9; stroke-width: 6"/>
   </g>
  </g>
 </g>
 <defs>
  <clipPath id="p16df158c7d">
   <rect x="42.418977" y="7.183446" width="409.786378" height="164.193109"/>
  </clipPath>
 </defs>
</svg>
