<?xml version="1.0" encoding="utf-8" standalone="no"?>
<!DOCTYPE svg PUBLIC "-//W3C//DTD SVG 1.1//EN"
  "http://www.w3.org/Graphics/SVG/1.1/DTD/svg11.dtd">
<svg xmlns:xlink="http://www.w3.org/1999/xlink" width="380.16pt" height="184.32pt" viewBox="0 0 380.16 184.32" xmlns="http://www.w3.org/2000/svg" version="1.1">
 <metadata>
  <rdf:RDF xmlns:dc="http://purl.org/dc/elements/1.1/" xmlns:cc="http://creativecommons.org/ns#" xmlns:rdf="http://www.w3.org/1999/02/22-rdf-syntax-ns#">
   <cc:Work>
    <dc:type rdf:resource="http://purl.org/dc/dcmitype/StillImage"/>
    <dc:date>2024-06-27T17:35:01.711400</dc:date>
    <dc:format>image/svg+xml</dc:format>
    <dc:creator>
     <cc:Agent>
      <dc:title>Matplotlib v3.8.4, https://matplotlib.org/</dc:title>
     </cc:Agent>
    </dc:creator>
   </cc:Work>
  </rdf:RDF>
 </metadata>
 <defs>
  <style type="text/css">*{stroke-linejoin: round; stroke-linecap: butt}</style>
 </defs>
 <g id="figure_1">
  <g id="patch_1">
   <path d="M 0 184.32 
L 380.16 184.32 
L 380.16 0 
L 0 0 
L 0 184.32 
z
" style="fill: none"/>
  </g>
  <g id="axes_1">
   <g id="patch_2">
    <path d="M 41.316477 175.569834 
L 377.325354 175.569834 
L 377.325354 2.834646 
L 41.316477 2.834646 
L 41.316477 175.569834 
z
" style="fill: none"/>
   </g>
   <g id="line2d_1">
    <path d="M 50.826162 76.247101 
L 51.032205 76.366214 
L 51.285797 76.838326 
L 51.618636 77.994883 
L 52.062421 80.453543 
L 52.617153 84.901618 
L 53.330379 92.578292 
L 54.313047 105.85024 
L 57.467092 150.40707 
L 58.212017 157.16169 
L 58.798448 160.667079 
L 59.242233 162.158716 
L 59.559223 162.58954 
L 59.781116 162.573429 
L 60.003008 162.296234 
L 60.304148 161.506673 
L 60.700385 159.759476 
L 61.207568 156.405274 
L 61.857397 150.445871 
L 62.697419 140.471249 
L 63.981226 122.178906 
L 65.930712 94.729705 
L 66.834132 85.09398 
L 67.515659 79.96667 
L 68.054542 77.422364 
L 68.450779 76.456695 
L 68.72022 76.248063 
L 68.926263 76.334237 
L 69.179854 76.731314 
L 69.512693 77.733381 
L 69.940629 79.800809 
L 70.495361 83.709777 
L 71.192738 90.376906 
L 72.112007 101.523912 
L 73.728654 124.431788 
L 75.234354 144.516164 
L 76.137774 153.811483 
L 76.835151 158.894836 
L 77.374033 161.383587 
L 77.78612 162.386378 
L 78.07141 162.613136 
L 78.293303 162.523942 
L 78.546894 162.138785 
L 78.879733 161.180777 
L 79.307669 159.215172 
L 79.862401 155.506315 
L 80.559778 149.17734 
L 81.463198 138.75887 
L 82.92135 118.931742 
L 84.71234 95.312672 
L 85.647459 85.750343 
L 86.376535 80.386955 
L 86.947116 77.677472 
L 87.375052 76.561898 
L 87.692042 76.255108 
L 87.913934 76.304958 
L 88.167526 76.627799 
L 88.500365 77.476986 
L 88.928301 79.260637 
L 89.467183 82.558999 
L 90.14871 88.254037 
L 91.020431 97.592741 
L 92.304239 114.065075 
L 94.634112 144.064172 
L 95.58508 153.364299 
L 96.314156 158.504823 
L 96.884737 161.134725 
L 97.328523 162.278116 
L 97.645512 162.599238 
L 97.883254 162.567398 
L 98.136846 162.276649 
L 98.469685 161.497083 
L 98.897621 159.846552 
L 99.436503 156.778639 
L 100.102181 151.596294 
L 100.958052 143.024483 
L 102.162613 128.439129 
L 105.015518 93.126272 
L 105.934788 84.765107 
L 106.663864 79.99862 
L 107.234445 77.577911 
L 107.67823 76.538026 
L 107.99522 76.257024 
L 108.232962 76.300035 
L 108.502403 76.610758 
L 108.835242 77.374627 
L 109.263178 78.959671 
L 109.80206 81.87732 
L 110.483587 86.917463 
L 111.339459 95.064436 
L 112.51232 108.573768 
L 115.729764 146.784648 
L 116.649033 154.622518 
L 117.378109 159.08116 
L 117.94869 161.348834 
L 118.392475 162.329868 
L 118.725314 162.606741 
L 118.978906 162.552532 
L 119.248347 162.244685 
L 119.597036 161.467929 
L 120.040821 159.876421 
L 120.595552 156.980256 
L 121.27708 152.154581 
L 122.148801 144.241025 
L 123.321662 131.354347 
L 126.840246 91.325596 
L 127.759515 83.93566 
L 128.488591 79.713402 
L 129.075022 77.493717 
L 129.534657 76.526001 
L 129.867496 76.257335 
L 130.136937 76.306767 
L 130.422227 76.618318 
L 130.786765 77.39991 
L 131.2464 78.984064 
L 131.816981 81.837821 
L 132.514358 86.553297 
L 133.386079 94.079494 
L 134.55894 106.32075 
L 138.442062 148.47995 
L 139.361331 155.375129 
L 140.090407 159.317112 
L 140.676838 161.401891 
L 141.136473 162.325949 
L 141.485161 162.602868 
L 141.754602 162.565288 
L 142.039893 162.287404 
L 142.404431 161.579773 
L 142.864065 160.136141 
L 143.434646 157.523883 
L 144.132023 153.187992 
L 144.987895 146.367121 
L 146.113208 135.459973 
L 148.237037 112.12999 
L 149.869533 95.410802 
L 150.931448 86.657619 
L 151.77147 81.427794 
L 152.452998 78.459983 
L 152.99188 76.98205 
L 153.419816 76.372903 
L 153.736805 76.24742 
L 154.022096 76.371549 
L 154.354935 76.79833 
L 154.767021 77.741279 
L 155.274205 79.513677 
L 155.892334 82.540798 
L 156.653109 87.460575 
L 157.604077 95.18611 
L 158.887885 107.626426 
L 162.786856 146.701002 
L 163.785373 153.975937 
L 164.593696 158.373444 
L 165.259374 160.868024 
L 165.782407 162.071686 
L 166.194493 162.539192 
L 166.511483 162.608176 
L 166.812623 162.43997 
L 167.161311 161.962908 
L 167.589247 160.969951 
L 168.128129 159.099917 
L 168.777958 155.974415 
L 169.570431 150.990503 
L 170.553099 143.294202 
L 171.884455 130.936969 
L 175.878523 92.659582 
L 176.924588 85.277803 
L 177.76461 80.805268 
L 178.461987 78.203921 
L 179.016719 76.899732 
L 179.460504 76.358245 
L 179.809192 76.248668 
L 180.126182 76.390144 
L 180.49072 76.83465 
L 180.934505 77.776581 
L 181.473387 79.495361 
L 182.123216 82.366 
L 182.91569 86.950514 
L 183.898357 94.060089 
L 185.182165 105.138851 
L 190.047953 148.964643 
L 191.04647 155.167952 
L 191.854794 158.911502 
L 192.520472 161.048233 
L 193.059354 162.120661 
L 193.48729 162.543971 
L 193.835978 162.606572 
L 194.168817 162.430191 
L 194.549204 161.948373 
L 195.008839 160.973635 
L 195.57942 159.183226 
L 196.260948 156.244036 
L 197.085121 151.62274 
L 198.099487 144.555288 
L 199.414993 133.678924 
L 204.486826 89.94945 
L 205.501192 83.878424 
L 206.341214 80.096264 
L 207.038591 77.902352 
L 207.609172 76.779322 
L 208.052957 76.334071 
L 208.417495 76.250978 
L 208.766184 76.409941 
L 209.146571 76.847497 
L 209.606206 77.738805 
L 210.176787 79.383029 
L 210.858315 82.092616 
L 211.666638 86.279684 
L 212.649305 92.617015 
L 213.901414 102.256716 
L 215.866749 119.391288 
L 218.339267 140.516748 
L 219.623075 149.631309 
L 220.637441 155.36477 
L 221.477463 158.939124 
L 222.17484 161.018762 
L 222.745421 162.090582 
L 223.205056 162.531758 
L 223.585443 162.609354 
L 223.934132 162.451653 
L 224.330369 162.008297 
L 224.805853 161.110184 
L 225.376434 159.518175 
L 226.057962 156.912497 
L 226.882134 152.810236 
L 227.864802 146.717012 
L 229.101061 137.562308 
L 230.9396 122.075575 
L 233.792505 98.184997 
L 235.092162 89.182982 
L 236.122378 83.490387 
L 236.97825 79.924121 
L 237.675627 77.877271 
L 238.262058 76.784801 
L 238.721692 76.3405 
L 239.10208 76.249475 
L 239.466618 76.397758 
L 239.862855 76.819192 
L 240.338339 77.678619 
L 240.90892 79.207911 
L 241.590447 81.718501 
L 242.398771 85.597626 
L 243.381438 91.486861 
L 244.601848 100.261935 
L 246.34529 114.608703 
L 249.594432 141.481802 
L 250.87824 150.156288 
L 251.908456 155.692822 
L 252.748478 159.089678 
L 253.445855 161.072199 
L 254.016436 162.099871 
L 254.476071 162.52865 
L 254.856458 162.611312 
L 255.220996 162.458734 
L 255.617233 162.036623 
L 256.092717 161.181587 
L 256.663298 159.664484 
L 257.344826 157.177196 
L 258.153149 153.335735 
L 259.135817 147.502452 
L 260.356226 138.803444 
L 262.083819 124.690516 
L 265.428058 97.161012 
L 266.711866 88.554584 
L 267.726232 83.141684 
L 268.566254 79.760973 
L 269.263631 77.786709 
L 269.834212 76.762315 
L 270.293847 76.333964 
L 270.674235 76.250224 
L 271.038773 76.400611 
L 271.450859 76.841373 
L 271.926343 77.70309 
L 272.496924 79.225841 
L 273.178452 81.716721 
L 274.002624 85.64284 
L 274.985292 91.49066 
L 276.205702 100.19694 
L 277.933294 114.303246 
L 281.261684 141.668948 
L 282.545492 150.273696 
L 283.559858 155.689941 
L 284.39988 159.076492 
L 285.097257 161.057564 
L 285.667838 162.088714 
L 286.127473 162.523191 
L 286.507861 162.612403 
L 286.872398 162.467556 
L 287.268635 162.05533 
L 287.74412 161.213985 
L 288.314701 159.715551 
L 288.996228 157.253031 
L 289.804551 153.443132 
L 290.771369 147.751607 
L 291.97593 139.237101 
L 293.655974 125.603465 
L 297.190407 96.594503 
L 298.458365 88.196549 
L 299.472731 82.870045 
L 300.312754 79.566672 
L 301.01013 77.659007 
L 301.580712 76.68982 
L 302.040346 76.305931 
L 302.420734 76.25872 
L 302.785272 76.443699 
L 303.197358 76.922872 
L 303.688692 77.864283 
L 304.275122 79.502617 
L 304.972499 82.150111 
L 305.812522 86.277928 
L 306.826888 92.472312 
L 308.094846 101.709188 
L 309.980934 117.315276 
L 312.833839 140.756281 
L 314.149346 149.716426 
L 315.195411 155.40499 
L 316.051283 158.921941 
L 316.764509 160.98992 
L 317.35094 162.070367 
L 317.826424 162.524357 
L 318.206811 162.612221 
L 318.571349 162.46617 
L 318.967586 162.052736 
L 319.44307 161.21008 
L 320.013651 159.710273 
L 320.695179 157.246399 
L 321.503502 153.435283 
L 322.47032 147.742826 
L 323.67488 139.227872 
L 325.354925 125.594689 
L 328.889358 96.589108 
L 330.157316 88.192654 
L 331.171682 82.867317 
L 332.011704 79.564851 
L 332.709081 77.657882 
L 333.279662 76.68922 
L 333.739297 76.305721 
L 334.119685 76.25881 
L 334.484222 76.444057 
L 334.896309 76.923508 
L 335.387643 77.865217 
L 335.974073 79.503858 
L 336.67145 82.151651 
L 337.511472 86.279733 
L 338.525839 92.474312 
L 339.793797 101.711258 
L 341.679884 117.317173 
L 344.53279 140.757542 
L 345.848296 149.717338 
L 346.894362 155.405631 
L 347.750233 158.922374 
L 348.46346 160.990192 
L 349.04989 162.070517 
L 349.525375 162.524415 
L 349.905762 162.612212 
L 350.2703 162.4661 
L 350.666537 162.052605 
L 351.142021 161.209883 
L 351.712602 159.710008 
L 352.39413 157.246067 
L 353.202453 153.43489 
L 354.169271 147.742387 
L 355.373831 139.22741 
L 357.053875 125.59425 
L 360.588308 96.588839 
L 361.856266 88.19246 
L 362.870633 82.867181 
L 363.710655 79.564761 
L 364.408032 77.657826 
L 364.978613 76.68919 
L 365.438248 76.305711 
L 365.818635 76.258814 
L 366.183173 76.444075 
L 366.59526 76.923539 
L 367.086593 77.865263 
L 367.673024 79.503919 
L 367.815669 79.984993 
L 367.815669 79.984993 
" clip-path="url(#p9783443c38)" style="fill: none; stroke: #009afa; stroke-width: 4"/>
   </g>
   <g id="matplotlib.axis_1"/>
   <g id="matplotlib.axis_2">
    <g id="ytick_1">
     <g id="line2d_2">
      <defs>
       <path id="m5c4cc2c039" d="M 0 0 
L 5 0 
" style="stroke: #000000"/>
      </defs>
      <g>
       <use xlink:href="#m5c4cc2c039" x="41.316477" y="162.614695" style="stroke: #000000"/>
      </g>
     </g>
     <g id="text_1">
      <!-- $-1$ -->
      <g transform="translate(1.976477 173.252508) scale(0.28 -0.28)">
       <defs>
        <path id="Cmsy10-a1" d="M 653 1472 
Q 600 1472 565 1512 
Q 531 1553 531 1600 
Q 531 1647 565 1687 
Q 600 1728 653 1728 
L 4325 1728 
Q 4375 1728 4408 1687 
Q 4441 1647 4441 1600 
Q 4441 1553 4408 1512 
Q 4375 1472 4325 1472 
L 653 1472 
z
" transform="scale(0.015625)"/>
        <path id="Cmr10-31" d="M 594 0 
L 594 225 
Q 1394 225 1394 428 
L 1394 3788 
Q 1063 3628 556 3628 
L 556 3853 
Q 1341 3853 1741 4263 
L 1831 4263 
Q 1853 4263 1873 4245 
Q 1894 4228 1894 4206 
L 1894 428 
Q 1894 225 2694 225 
L 2694 0 
L 594 0 
z
" transform="scale(0.015625)"/>
       </defs>
       <use xlink:href="#Cmsy10-a1" transform="translate(0 0.390625)"/>
       <use xlink:href="#Cmr10-31" transform="translate(77.685547 0.390625)"/>
      </g>
     </g>
    </g>
    <g id="ytick_2">
     <g id="line2d_3">
      <g>
       <use xlink:href="#m5c4cc2c039" x="41.316477" y="119.430898" style="stroke: #000000"/>
      </g>
     </g>
     <g id="text_2">
      <!-- $0$ -->
      <g transform="translate(23.816477 130.068711) scale(0.28 -0.28)">
       <defs>
        <path id="Cmr10-30" d="M 1600 -141 
Q 816 -141 533 504 
Q 250 1150 250 2041 
Q 250 2597 351 3087 
Q 453 3578 754 3920 
Q 1056 4263 1600 4263 
Q 2022 4263 2290 4056 
Q 2559 3850 2700 3523 
Q 2841 3197 2892 2823 
Q 2944 2450 2944 2041 
Q 2944 1491 2842 1011 
Q 2741 531 2444 195 
Q 2147 -141 1600 -141 
z
M 1600 25 
Q 1956 25 2131 390 
Q 2306 756 2347 1200 
Q 2388 1644 2388 2144 
Q 2388 2625 2347 3031 
Q 2306 3438 2132 3767 
Q 1959 4097 1600 4097 
Q 1238 4097 1063 3765 
Q 888 3434 847 3029 
Q 806 2625 806 2144 
Q 806 1788 823 1472 
Q 841 1156 916 820 
Q 991 484 1158 254 
Q 1325 25 1600 25 
z
" transform="scale(0.015625)"/>
       </defs>
       <use xlink:href="#Cmr10-30" transform="translate(0 0.390625)"/>
      </g>
     </g>
    </g>
    <g id="ytick_3">
     <g id="line2d_4">
      <g>
       <use xlink:href="#m5c4cc2c039" x="41.316477" y="76.247101" style="stroke: #000000"/>
      </g>
     </g>
     <g id="text_3">
      <!-- $1$ -->
      <g transform="translate(23.816477 86.884913) scale(0.28 -0.28)">
       <use xlink:href="#Cmr10-31" transform="translate(0 0.390625)"/>
      </g>
     </g>
    </g>
    <g id="ytick_4">
     <g id="line2d_5">
      <g>
       <use xlink:href="#m5c4cc2c039" x="41.316477" y="33.063304" style="stroke: #000000"/>
      </g>
     </g>
     <g id="text_4">
      <!-- $2$ -->
      <g transform="translate(23.816477 43.701116) scale(0.28 -0.28)">
       <defs>
        <path id="Cmr10-32" d="M 319 0 
L 319 172 
Q 319 188 331 206 
L 1325 1306 
Q 1550 1550 1690 1715 
Q 1831 1881 1968 2097 
Q 2106 2313 2186 2536 
Q 2266 2759 2266 3009 
Q 2266 3272 2169 3511 
Q 2072 3750 1880 3894 
Q 1688 4038 1416 4038 
Q 1138 4038 916 3870 
Q 694 3703 603 3438 
Q 628 3444 672 3444 
Q 816 3444 917 3347 
Q 1019 3250 1019 3097 
Q 1019 2950 917 2848 
Q 816 2747 672 2747 
Q 522 2747 420 2851 
Q 319 2956 319 3097 
Q 319 3338 409 3548 
Q 500 3759 670 3923 
Q 841 4088 1055 4175 
Q 1269 4263 1509 4263 
Q 1875 4263 2190 4108 
Q 2506 3953 2690 3670 
Q 2875 3388 2875 3009 
Q 2875 2731 2753 2481 
Q 2631 2231 2440 2026 
Q 2250 1822 1953 1562 
Q 1656 1303 1563 1216 
L 838 519 
L 1453 519 
Q 1906 519 2211 526 
Q 2516 534 2534 550 
Q 2609 631 2688 1141 
L 2875 1141 
L 2694 0 
L 319 0 
z
" transform="scale(0.015625)"/>
       </defs>
       <use xlink:href="#Cmr10-32" transform="translate(0 0.390625)"/>
      </g>
     </g>
    </g>
   </g>
   <g id="line2d_6">
    <path d="M 50.826162 33.063304 
L 91.305722 42.919611 
L 123.115619 50.445061 
L 148.47478 56.224221 
L 168.952302 60.670165 
L 185.736896 64.094122 
L 199.874628 66.75749 
L 212.094574 68.839043 
L 223.062411 70.486381 
L 233.332871 71.806669 
L 243.349739 72.871734 
L 253.651898 73.742535 
L 264.746531 74.453653 
L 277.283466 75.028841 
L 292.245371 75.484186 
L 311.169644 75.826798 
L 337.352977 76.063323 
L 367.815669 76.176962 
L 367.815669 76.176962 
" clip-path="url(#p9783443c38)" style="fill: none; stroke: #3ea44d; stroke-width: 4"/>
   </g>
   <g id="patch_3">
    <path d="M 41.316477 175.569834 
L 41.316477 2.834646 
" style="fill: none; stroke: #000000; stroke-width: 2; stroke-linejoin: miter; stroke-linecap: square"/>
   </g>
  </g>
 </g>
 <defs>
  <clipPath id="p9783443c38">
   <rect x="41.316477" y="2.834646" width="336.008878" height="172.735189"/>
  </clipPath>
 </defs>
</svg>
