<?xml version="1.0" encoding="utf-8" standalone="no"?>
<!DOCTYPE svg PUBLIC "-//W3C//DTD SVG 1.1//EN"
  "http://www.w3.org/Graphics/SVG/1.1/DTD/svg11.dtd">
<svg xmlns:xlink="http://www.w3.org/1999/xlink" width="455.04pt" height="184.32pt" viewBox="0 0 455.04 184.32" xmlns="http://www.w3.org/2000/svg" version="1.1">
 <metadata>
  <rdf:RDF xmlns:dc="http://purl.org/dc/elements/1.1/" xmlns:cc="http://creativecommons.org/ns#" xmlns:rdf="http://www.w3.org/1999/02/22-rdf-syntax-ns#">
   <cc:Work>
    <dc:type rdf:resource="http://purl.org/dc/dcmitype/StillImage"/>
    <dc:date>2024-06-27T17:35:03.674058</dc:date>
    <dc:format>image/svg+xml</dc:format>
    <dc:creator>
     <cc:Agent>
      <dc:title>Matplotlib v3.8.4, https://matplotlib.org/</dc:title>
     </cc:Agent>
    </dc:creator>
   </cc:Work>
  </rdf:RDF>
 </metadata>
 <defs>
  <style type="text/css">*{stroke-linejoin: round; stroke-linecap: butt}</style>
 </defs>
 <g id="figure_1">
  <g id="patch_1">
   <path d="M 0 184.32 
L 455.04 184.32 
L 455.04 0 
L 0 0 
L 0 184.32 
z
" style="fill: none"/>
  </g>
  <g id="axes_1">
   <g id="patch_2">
    <path d="M 42.418977 171.376554 
L 452.205354 171.376554 
L 452.205354 7.183446 
L 42.418977 7.183446 
L 42.418977 171.376554 
z
" style="fill: none"/>
   </g>
   <g id="line2d_1">
    <path d="M 54.016704 14.646769 
L 58.617136 33.828743 
L 62.73433 50.068707 
L 66.503591 64.056062 
L 69.973245 76.099507 
L 73.220608 86.58205 
L 76.255347 95.64226 
L 79.145114 103.580842 
L 81.938234 110.602374 
L 84.625041 116.752435 
L 87.205535 122.111658 
L 89.718376 126.832651 
L 92.192558 131.024124 
L 94.715064 134.858836 
L 97.21824 138.257688 
L 99.760075 141.328436 
L 102.282581 144.030805 
L 104.853411 146.465714 
L 107.549882 148.709703 
L 110.343002 150.737417 
L 113.223104 152.550472 
L 116.228849 154.180623 
L 119.418224 155.657844 
L 122.829889 156.992418 
L 126.560491 158.207278 
L 130.581037 159.279678 
L 135.036497 160.234806 
L 140.013855 161.071251 
L 145.716071 161.798623 
L 152.365435 162.415316 
L 160.290549 162.920123 
L 170.177612 163.318521 
L 183.350697 163.612903 
L 202.689908 163.803078 
L 238.362586 163.895913 
L 381.198267 163.913221 
L 440.607627 163.913231 
L 440.607627 163.913231 
" clip-path="url(#p4da8b0c1eb)" style="fill: none; stroke: #8c510a; stroke-opacity: 0.9; stroke-width: 4"/>
   </g>
   <g id="matplotlib.axis_1"/>
   <g id="matplotlib.axis_2">
    <g id="ytick_1">
     <g id="line2d_2">
      <defs>
       <path id="m5f49bf5ee0" d="M 0 0 
L 5 0 
" style="stroke: #000000"/>
      </defs>
      <g>
       <use xlink:href="#m5f49bf5ee0" x="42.418977" y="163.913231" style="stroke: #000000"/>
      </g>
     </g>
     <g id="text_1">
      <!-- $1.0$ -->
      <g transform="translate(3.078977 174.551044) scale(0.28 -0.28)">
       <defs>
        <path id="Cmr10-31" d="M 594 0 
L 594 225 
Q 1394 225 1394 428 
L 1394 3788 
Q 1063 3628 556 3628 
L 556 3853 
Q 1341 3853 1741 4263 
L 1831 4263 
Q 1853 4263 1873 4245 
Q 1894 4228 1894 4206 
L 1894 428 
Q 1894 225 2694 225 
L 2694 0 
L 594 0 
z
" transform="scale(0.015625)"/>
        <path id="Cmmi10-3a" d="M 538 353 
Q 538 497 644 600 
Q 750 703 891 703 
Q 978 703 1062 656 
Q 1147 609 1194 525 
Q 1241 441 1241 353 
Q 1241 213 1137 106 
Q 1034 0 891 0 
Q 750 0 644 106 
Q 538 213 538 353 
z
" transform="scale(0.015625)"/>
        <path id="Cmr10-30" d="M 1600 -141 
Q 816 -141 533 504 
Q 250 1150 250 2041 
Q 250 2597 351 3087 
Q 453 3578 754 3920 
Q 1056 4263 1600 4263 
Q 2022 4263 2290 4056 
Q 2559 3850 2700 3523 
Q 2841 3197 2892 2823 
Q 2944 2450 2944 2041 
Q 2944 1491 2842 1011 
Q 2741 531 2444 195 
Q 2147 -141 1600 -141 
z
M 1600 25 
Q 1956 25 2131 390 
Q 2306 756 2347 1200 
Q 2388 1644 2388 2144 
Q 2388 2625 2347 3031 
Q 2306 3438 2132 3767 
Q 1959 4097 1600 4097 
Q 1238 4097 1063 3765 
Q 888 3434 847 3029 
Q 806 2625 806 2144 
Q 806 1788 823 1472 
Q 841 1156 916 820 
Q 991 484 1158 254 
Q 1325 25 1600 25 
z
" transform="scale(0.015625)"/>
       </defs>
       <use xlink:href="#Cmr10-31" transform="translate(0 0.390625)"/>
       <use xlink:href="#Cmmi10-3a" transform="translate(50 0.390625)"/>
       <use xlink:href="#Cmr10-30" transform="translate(77.685547 0.390625)"/>
      </g>
     </g>
    </g>
    <g id="ytick_2">
     <g id="line2d_3">
      <g>
       <use xlink:href="#m5f49bf5ee0" x="42.418977" y="89.28" style="stroke: #000000"/>
      </g>
     </g>
     <g id="text_2">
      <!-- $1.5$ -->
      <g transform="translate(3.078977 99.917812) scale(0.28 -0.28)">
       <defs>
        <path id="Cmr10-35" d="M 556 728 
Q 622 541 758 387 
Q 894 234 1080 148 
Q 1266 63 1466 63 
Q 1928 63 2103 422 
Q 2278 781 2278 1294 
Q 2278 1516 2270 1667 
Q 2263 1819 2228 1959 
Q 2169 2184 2020 2353 
Q 1872 2522 1656 2522 
Q 1441 2522 1286 2456 
Q 1131 2391 1034 2303 
Q 938 2216 863 2119 
Q 788 2022 769 2016 
L 697 2016 
Q 681 2016 657 2036 
Q 634 2056 634 2075 
L 634 4213 
Q 634 4228 654 4245 
Q 675 4263 697 4263 
L 716 4263 
Q 1147 4056 1631 4056 
Q 2106 4056 2547 4263 
L 2566 4263 
Q 2588 4263 2606 4247 
Q 2625 4231 2625 4213 
L 2625 4153 
Q 2625 4122 2613 4122 
Q 2394 3831 2064 3668 
Q 1734 3506 1381 3506 
Q 1125 3506 856 3578 
L 856 2369 
Q 1069 2541 1236 2614 
Q 1403 2688 1663 2688 
Q 2016 2688 2295 2484 
Q 2575 2281 2725 1954 
Q 2875 1628 2875 1288 
Q 2875 903 2686 575 
Q 2497 247 2172 53 
Q 1847 -141 1466 -141 
Q 1150 -141 886 21 
Q 622 184 470 459 
Q 319 734 319 1044 
Q 319 1188 412 1278 
Q 506 1369 647 1369 
Q 788 1369 883 1276 
Q 978 1184 978 1044 
Q 978 906 883 811 
Q 788 716 647 716 
Q 625 716 597 720 
Q 569 725 556 728 
z
" transform="scale(0.015625)"/>
       </defs>
       <use xlink:href="#Cmr10-31" transform="translate(0 0.390625)"/>
       <use xlink:href="#Cmmi10-3a" transform="translate(50 0.390625)"/>
       <use xlink:href="#Cmr10-35" transform="translate(77.685547 0.390625)"/>
      </g>
     </g>
    </g>
    <g id="ytick_3">
     <g id="line2d_4">
      <g>
       <use xlink:href="#m5f49bf5ee0" x="42.418977" y="14.646769" style="stroke: #000000"/>
      </g>
     </g>
     <g id="text_3">
      <!-- $2.0$ -->
      <g transform="translate(3.078977 25.284581) scale(0.28 -0.28)">
       <defs>
        <path id="Cmr10-32" d="M 319 0 
L 319 172 
Q 319 188 331 206 
L 1325 1306 
Q 1550 1550 1690 1715 
Q 1831 1881 1968 2097 
Q 2106 2313 2186 2536 
Q 2266 2759 2266 3009 
Q 2266 3272 2169 3511 
Q 2072 3750 1880 3894 
Q 1688 4038 1416 4038 
Q 1138 4038 916 3870 
Q 694 3703 603 3438 
Q 628 3444 672 3444 
Q 816 3444 917 3347 
Q 1019 3250 1019 3097 
Q 1019 2950 917 2848 
Q 816 2747 672 2747 
Q 522 2747 420 2851 
Q 319 2956 319 3097 
Q 319 3338 409 3548 
Q 500 3759 670 3923 
Q 841 4088 1055 4175 
Q 1269 4263 1509 4263 
Q 1875 4263 2190 4108 
Q 2506 3953 2690 3670 
Q 2875 3388 2875 3009 
Q 2875 2731 2753 2481 
Q 2631 2231 2440 2026 
Q 2250 1822 1953 1562 
Q 1656 1303 1563 1216 
L 838 519 
L 1453 519 
Q 1906 519 2211 526 
Q 2516 534 2534 550 
Q 2609 631 2688 1141 
L 2875 1141 
L 2694 0 
L 319 0 
z
" transform="scale(0.015625)"/>
       </defs>
       <use xlink:href="#Cmr10-32" transform="translate(0 0.390625)"/>
       <use xlink:href="#Cmmi10-3a" transform="translate(50 0.390625)"/>
       <use xlink:href="#Cmr10-30" transform="translate(77.685547 0.390625)"/>
      </g>
     </g>
    </g>
   </g>
   <g id="line2d_5">
    <path d="M 54.016704 14.646769 
L 62.531369 36.136208 
L 69.915256 54.182825 
L 76.351995 69.345836 
L 82.063876 82.246495 
L 87.128217 93.150168 
L 91.67066 102.418231 
L 95.787854 110.329669 
L 99.576445 117.141428 
L 103.075092 122.989077 
L 106.361115 128.062152 
L 109.482837 132.484694 
L 112.536905 136.425994 
L 115.446002 139.823711 
L 118.306775 142.831195 
L 121.157883 145.511131 
L 124.018656 147.898792 
L 126.908423 150.025884 
L 129.885173 151.94343 
L 133.016559 153.691142 
L 136.234929 155.232668 
L 139.656258 156.624769 
L 143.338537 157.879811 
L 147.310759 158.995911 
L 151.659907 159.984761 
L 156.501958 160.854951 
L 161.972219 161.609271 
L 168.370299 162.259374 
L 175.918487 162.794931 
L 185.196669 163.222014 
L 197.248641 163.543258 
L 214.451937 163.761636 
L 243.687876 163.879952 
L 327.007884 163.912789 
L 440.607627 163.91323 
L 440.607627 163.91323 
" clip-path="url(#p4da8b0c1eb)" style="fill: none; stroke: #d8b365; stroke-opacity: 0.9; stroke-width: 4"/>
   </g>
   <g id="patch_3">
    <path d="M 42.418977 171.376554 
L 42.418977 7.183446 
" style="fill: none; stroke: #000000; stroke-width: 2; stroke-linejoin: miter; stroke-linecap: square"/>
   </g>
   <g id="patch_4">
    <path d="M 42.418977 171.376554 
L 452.205354 171.376554 
" style="fill: none; stroke: #000000; stroke-width: 2; stroke-linejoin: miter; stroke-linecap: square"/>
   </g>
   <g id="line2d_6">
    <path d="M 54.016704 14.646769 
L 71.596927 39.001894 
L 86.422688 59.171134 
L 98.93857 75.834114 
L 109.627809 89.705264 
L 118.751354 101.191762 
L 126.657139 110.797069 
L 133.509463 118.782864 
L 139.530616 125.469115 
L 144.913895 131.121863 
L 149.726952 135.861995 
L 154.124424 139.889155 
L 158.222287 143.345322 
L 162.068867 146.303255 
L 165.789805 148.883887 
L 169.356106 151.090805 
L 172.893413 153.023351 
L 176.517703 154.748064 
L 180.180652 156.245751 
L 183.998237 157.568575 
L 188.115431 158.755471 
L 192.493573 159.784512 
L 197.345289 160.692769 
L 202.81555 161.483076 
L 209.020335 162.149392 
L 216.365562 162.707197 
L 225.324807 163.155101 
L 236.777563 163.49457 
L 252.821086 163.731042 
L 278.935303 163.866206 
L 343.070737 163.911542 
L 440.607627 163.91322 
L 440.607627 163.91322 
" clip-path="url(#p4da8b0c1eb)" style="fill: none; stroke: #f6e8c3; stroke-opacity: 0.9; stroke-width: 4"/>
   </g>
   <g id="line2d_7">
    <path d="M 54.016704 14.646769 
L 94.44445 43.940791 
L 127.082389 67.32547 
L 153.583196 86.048579 
L 175.116311 100.999083 
L 192.764186 112.989912 
L 207.251681 122.573549 
L 219.264994 130.262994 
L 229.355017 136.465136 
L 237.898677 141.463109 
L 245.234239 145.504437 
L 251.661313 148.798552 
L 257.460177 151.523758 
L 262.766138 153.772537 
L 267.753161 155.644422 
L 272.527558 157.201157 
L 277.340615 158.53446 
L 282.230991 159.657088 
L 287.391979 160.612809 
L 293.026542 161.427208 
L 299.405292 162.117383 
L 306.818173 162.686553 
L 315.738759 163.139557 
L 327.172185 163.485297 
L 342.95476 163.724428 
L 368.421437 163.862833 
L 429.444814 163.911103 
L 440.607627 163.912039 
L 440.607627 163.912039 
" clip-path="url(#p4da8b0c1eb)" style="fill: none; stroke: #c7eae5; stroke-opacity: 0.9; stroke-width: 4"/>
   </g>
  </g>
 </g>
 <defs>
  <clipPath id="p4da8b0c1eb">
   <rect x="42.418977" y="7.183446" width="409.786378" height="164.193109"/>
  </clipPath>
 </defs>
</svg>
