<?xml version="1.0" encoding="utf-8" standalone="no"?>
<!DOCTYPE svg PUBLIC "-//W3C//DTD SVG 1.1//EN"
  "http://www.w3.org/Graphics/SVG/1.1/DTD/svg11.dtd">
<svg xmlns:xlink="http://www.w3.org/1999/xlink" width="380.16pt" height="184.32pt" viewBox="0 0 380.16 184.32" xmlns="http://www.w3.org/2000/svg" version="1.1">
 <metadata>
  <rdf:RDF xmlns:dc="http://purl.org/dc/elements/1.1/" xmlns:cc="http://creativecommons.org/ns#" xmlns:rdf="http://www.w3.org/1999/02/22-rdf-syntax-ns#">
   <cc:Work>
    <dc:type rdf:resource="http://purl.org/dc/dcmitype/StillImage"/>
    <dc:date>2024-05-07T10:31:40.423200</dc:date>
    <dc:format>image/svg+xml</dc:format>
    <dc:creator>
     <cc:Agent>
      <dc:title>Matplotlib v3.7.0, https://matplotlib.org/</dc:title>
     </cc:Agent>
    </dc:creator>
   </cc:Work>
  </rdf:RDF>
 </metadata>
 <defs>
  <style type="text/css">*{stroke-linejoin: round; stroke-linecap: butt}</style>
 </defs>
 <g id="figure_1">
  <g id="patch_1">
   <path d="M 0 184.32 
L 380.16 184.32 
L 380.16 0 
L 0 0 
L 0 184.32 
z
" style="fill: none"/>
  </g>
  <g id="axes_1">
   <g id="patch_2">
    <path d="M 41.316477 175.569834 
L 377.325354 175.569834 
L 377.325354 2.834646 
L 41.316477 2.834646 
L 41.316477 175.569834 
z
" style="fill: none"/>
   </g>
   <g id="line2d_1">
    <path d="M 50.826162 76.247101 
L 50.984657 76.360553 
L 51.1907 76.841989 
L 51.49184 78.200363 
L 51.903926 81.23598 
L 52.458658 87.207108 
L 53.219433 98.108949 
L 54.645886 122.558655 
L 55.961392 143.485827 
L 56.785565 153.362357 
L 57.435393 158.752123 
L 57.942576 161.356719 
L 58.338813 162.397853 
L 58.608254 162.614159 
L 58.814298 162.516987 
L 59.067889 162.093452 
L 59.400728 161.047889 
L 59.844513 158.842548 
L 60.415095 154.783504 
L 61.175869 147.598253 
L 62.253634 135.023049 
L 65.566174 94.901703 
L 66.532992 86.473089 
L 67.325466 81.375768 
L 67.975294 78.494429 
L 68.514176 77.001471 
L 68.942112 76.386008 
L 69.274951 76.247324 
L 69.433446 76.360554 
L 69.655339 76.861497 
L 69.972328 78.244366 
L 70.400264 81.271662 
L 70.970845 87.125751 
L 71.747469 97.674861 
L 73.142223 120.337631 
L 74.584526 142.439327 
L 75.456247 152.608243 
L 76.137774 158.21371 
L 76.676656 161.048712 
L 77.104592 162.275526 
L 77.405732 162.601373 
L 77.627625 162.56369 
L 77.865367 162.26862 
L 78.182356 161.479381 
L 78.610292 159.734858 
L 79.165024 156.414632 
L 79.87825 150.643986 
L 80.829219 140.966614 
L 82.509263 121.1278 
L 84.347802 100.314055 
L 85.457266 90.166319 
L 86.360686 83.811675 
L 87.121461 79.933942 
L 87.75544 77.762507 
L 88.278472 76.692572 
L 88.690559 76.299055 
L 88.991699 76.274604 
L 89.181892 76.530347 
L 89.451333 77.340508 
L 89.815871 79.231618 
L 90.307205 83.101307 
L 90.957034 90.189827 
L 91.876303 102.951002 
L 94.935252 147.391853 
L 95.743575 155.179793 
L 96.393404 159.484217 
L 96.916436 161.615889 
L 97.312673 162.437999 
L 97.597964 162.614644 
L 97.835706 162.502994 
L 98.120996 162.067735 
L 98.485534 161.052951 
L 98.961019 159.005359 
L 99.579148 155.242965 
L 100.371622 148.899222 
L 101.449386 138.298298 
L 105.85554 92.810421 
L 106.854057 85.712224 
L 107.69408 81.231766 
L 108.407306 78.547143 
L 108.993737 77.114489 
L 109.469221 76.459275 
L 109.865458 76.252242 
L 110.08735 76.321225 
L 110.309243 76.704238 
L 110.610383 77.728667 
L 111.022469 80.017297 
L 111.561352 84.400302 
L 112.274578 92.197426 
L 113.320643 106.385699 
L 115.983355 143.476402 
L 116.886775 152.63037 
L 117.615851 157.950463 
L 118.202282 160.783242 
L 118.677766 162.119986 
L 119.042304 162.570745 
L 119.311745 162.591646 
L 119.581186 162.35483 
L 119.914025 161.719077 
L 120.341961 160.372518 
L 120.896693 157.810227 
L 121.594069 153.44025 
L 122.49749 146.246642 
L 123.781297 134.04924 
L 127.426676 98.453371 
L 128.599538 89.603031 
L 129.566356 83.880783 
L 130.390528 80.230607 
L 131.087905 78.056749 
L 131.674336 76.884773 
L 132.14982 76.37403 
L 132.546057 76.247491 
L 132.736251 76.368896 
L 132.989842 76.861632 
L 133.322681 78.059781 
L 133.766466 80.566995 
L 134.352897 85.29707 
L 135.129521 93.566753 
L 136.286533 108.583835 
L 138.774901 141.300072 
L 139.757568 151.096313 
L 140.550042 156.925085 
L 141.19987 160.195963 
L 141.722903 161.821262 
L 142.134989 162.476279 
L 142.451979 162.614168 
L 142.72142 162.488354 
L 143.03841 162.063858 
L 143.450496 161.084758 
L 143.973529 159.192005 
L 144.623357 155.927957 
L 145.44753 150.554808 
L 146.541144 141.81358 
L 148.300435 125.65342 
L 150.852201 102.538241 
L 152.199406 92.35139 
L 153.29302 85.670676 
L 154.21229 81.334807 
L 154.988914 78.666034 
L 155.622893 77.201589 
L 156.145926 76.493907 
L 156.573862 76.257698 
L 156.843303 76.314362 
L 157.081045 76.66454 
L 157.398034 77.58132 
L 157.82597 79.58831 
L 158.380702 83.381029 
L 159.109778 90.083347 
L 160.124144 101.729061 
L 163.832921 146.362608 
L 164.736341 153.793239 
L 165.497116 158.346348 
L 166.115246 160.840023 
L 166.622429 162.075343 
L 167.018666 162.540759 
L 167.335655 162.605782 
L 167.636795 162.422098 
L 167.985484 161.921137 
L 168.429269 160.857321 
L 168.984001 158.902573 
L 169.681378 155.561699 
L 170.553099 150.216764 
L 171.694261 141.732959 
L 173.469402 126.627004 
L 176.5442 100.511007 
L 177.923105 90.737428 
L 179.016719 84.478227 
L 179.904289 80.587812 
L 180.649215 78.244608 
L 181.267344 76.976911 
L 181.758678 76.415415 
L 182.170764 76.248633 
L 182.408506 76.338854 
L 182.662098 76.730104 
L 183.010786 77.751316 
L 183.470421 79.899769 
L 184.056852 83.831279 
L 184.817627 90.586876 
L 185.879541 102.22255 
L 189.620018 145.025275 
L 190.586836 152.816532 
L 191.395159 157.642875 
L 192.060837 160.398266 
L 192.615568 161.847691 
L 193.059354 162.462331 
L 193.408042 162.614529 
L 193.725032 162.507971 
L 194.07372 162.130494 
L 194.501656 161.310586 
L 195.040538 159.752457 
L 195.706216 157.088117 
L 196.530389 152.796899 
L 197.560605 146.165748 
L 198.92366 135.820353 
L 201.33278 115.467611 
L 203.504158 97.888355 
L 204.803815 89.08905 
L 205.834031 83.544001 
L 206.689903 80.074311 
L 207.403129 78.024857 
L 208.005409 76.900009 
L 208.512592 76.382348 
L 208.924679 76.247255 
L 209.146571 76.34351 
L 209.416012 76.751192 
L 209.764701 77.734369 
L 210.224336 79.767328 
L 210.810766 83.457688 
L 211.571541 89.782557 
L 212.617606 100.531922 
L 216.881115 146.593853 
L 217.832084 153.578317 
L 218.640407 157.986276 
L 219.321934 160.563697 
L 219.876666 161.890518 
L 220.336301 162.474779 
L 220.700839 162.614695 
L 221.033678 162.499725 
L 221.398216 162.116468 
L 221.842001 161.301267 
L 222.396733 159.773342 
L 223.07826 157.181582 
L 223.902433 153.108273 
L 224.916799 146.897011 
L 226.200607 137.556708 
L 228.070845 122.118544 
L 230.907901 98.819384 
L 232.207558 90.008653 
L 233.253623 84.330601 
L 234.141194 80.648774 
L 234.901969 78.371613 
L 235.535948 77.103851 
L 236.07483 76.473999 
L 236.534465 76.256351 
L 236.835605 76.31825 
L 237.105046 76.674506 
L 237.453734 77.564116 
L 237.913369 79.431852 
L 238.4998 82.854235 
L 239.244725 88.627928 
L 240.259091 98.405112 
L 242.097631 118.784851 
L 243.92032 138.037875 
L 245.077332 148.032431 
L 246.0283 154.43886 
L 246.820774 158.393435 
L 247.502302 160.753698 
L 248.057033 161.964794 
L 248.516668 162.49371 
L 248.881206 162.61454 
L 249.214045 162.500055 
L 249.594432 162.113945 
L 250.054067 161.297021 
L 250.608799 159.824782 
L 251.290326 157.335201 
L 252.114499 153.410424 
L 253.097166 147.58149 
L 254.317576 138.91266 
L 256.045169 124.848309 
L 259.151666 99.457627 
L 260.467173 90.625787 
L 261.544937 84.808571 
L 262.464206 80.994391 
L 263.240831 78.639206 
L 263.906509 77.261174 
L 264.47709 76.547175 
L 264.952574 76.275449 
L 265.317112 76.293157 
L 265.570704 76.572375 
L 265.903543 77.310579 
L 266.347328 78.916021 
L 266.90206 81.836554 
L 267.615286 86.88213 
L 268.566254 95.368379 
L 270.024406 110.674588 
L 272.592021 137.568308 
L 273.780732 147.626687 
L 274.74755 154.053492 
L 275.571723 158.146821 
L 276.269099 160.577368 
L 276.85553 161.886263 
L 277.331014 162.461285 
L 277.711402 162.614068 
L 278.06009 162.519516 
L 278.440478 162.166631 
L 278.900112 161.402789 
L 279.454844 160.00816 
L 280.120522 157.687551 
L 280.912996 154.069305 
L 281.863964 148.621756 
L 283.036825 140.50535 
L 284.669321 127.465651 
L 288.140356 99.408897 
L 289.455863 90.759043 
L 290.549477 84.964777 
L 291.484596 81.142162 
L 292.27707 78.759102 
L 292.958597 77.344999 
L 293.545028 76.594216 
L 294.036361 76.2905 
L 294.432598 76.277239 
L 294.68619 76.520547 
L 295.019029 77.199086 
L 295.446965 78.640117 
L 296.001696 81.383533 
L 296.699073 86.056094 
L 297.618343 93.865949 
L 298.965548 107.446366 
L 302.024497 138.745334 
L 303.197358 148.26473 
L 304.164176 154.423821 
L 304.988349 158.34319 
L 305.685726 160.669996 
L 306.272156 161.922567 
L 306.747641 162.471346 
L 307.128028 162.614364 
L 307.476716 162.518479 
L 307.857104 162.171068 
L 308.316739 161.421186 
L 308.87147 160.050018 
L 309.537148 157.760441 
L 310.329622 154.174852 
L 311.280591 148.756142 
L 312.453452 140.674449 
L 314.117647 127.46182 
L 317.493585 100.411444 
L 318.84079 91.540895 
L 319.950254 85.61095 
L 320.901222 81.644924 
L 321.725395 79.084011 
L 322.438621 77.532902 
L 323.040901 76.699681 
L 323.563934 76.323211 
L 324.007719 76.258204 
L 324.261311 76.449957 
L 324.5783 77.015538 
L 324.990387 78.266438 
L 325.513419 80.632004 
L 326.179097 84.756823 
L 327.050818 91.698147 
L 328.271228 103.418639 
L 332.170199 142.164021 
L 333.279662 150.423087 
L 334.214781 155.816382 
L 335.007255 159.177726 
L 335.672933 161.122468 
L 336.227665 162.129419 
L 336.6873 162.545113 
L 337.067687 162.606118 
L 337.432225 162.427721 
L 337.844311 161.95175 
L 338.335645 161.012115 
L 338.922076 159.376494 
L 339.619452 156.734177 
L 340.459475 152.612624 
L 341.473841 146.429157 
L 342.773498 137.004452 
L 345.024124 118.703204 
L 347.24305 101.361185 
L 348.621954 92.252935 
L 349.763117 86.107872 
L 350.745784 81.964547 
L 351.585806 79.310146 
L 352.314882 77.678558 
L 352.948861 76.763638 
L 353.487743 76.347232 
L 353.947378 76.24893 
L 354.20097 76.395155 
L 354.50211 76.865542 
L 354.898347 77.953645 
L 355.40553 80.071768 
L 356.055358 83.849277 
L 356.879531 90.070058 
L 358.004844 100.419239 
L 362.696289 145.662495 
L 363.742354 152.702156 
L 364.629925 157.25282 
L 365.37485 160.009484 
L 366.008829 161.578991 
L 366.531862 162.336681 
L 366.959797 162.598417 
L 367.324335 162.569956 
L 367.704723 162.296798 
L 367.815669 162.170795 
L 367.815669 162.170795 
" clip-path="url(#pf4a908637c)" style="fill: none; stroke: #009afa; stroke-width: 6"/>
   </g>
   <g id="matplotlib.axis_1"/>
   <g id="matplotlib.axis_2">
    <g id="ytick_1">
     <g id="line2d_2">
      <defs>
       <path id="mb19e701236" d="M 0 0 
L 5 0 
" style="stroke: #000000"/>
      </defs>
      <g>
       <use xlink:href="#mb19e701236" x="41.316477" y="162.614695" style="stroke: #000000"/>
      </g>
     </g>
     <g id="text_1">
      <!-- $-1$ -->
      <g transform="translate(1.976477 173.252508) scale(0.28 -0.28)">
       <defs>
        <path id="Cmsy10-a1" d="M 653 1472 
Q 600 1472 565 1512 
Q 531 1553 531 1600 
Q 531 1647 565 1687 
Q 600 1728 653 1728 
L 4325 1728 
Q 4375 1728 4408 1687 
Q 4441 1647 4441 1600 
Q 4441 1553 4408 1512 
Q 4375 1472 4325 1472 
L 653 1472 
z
" transform="scale(0.015625)"/>
        <path id="Cmr10-31" d="M 594 0 
L 594 225 
Q 1394 225 1394 428 
L 1394 3788 
Q 1063 3628 556 3628 
L 556 3853 
Q 1341 3853 1741 4263 
L 1831 4263 
Q 1853 4263 1873 4245 
Q 1894 4228 1894 4206 
L 1894 428 
Q 1894 225 2694 225 
L 2694 0 
L 594 0 
z
" transform="scale(0.015625)"/>
       </defs>
       <use xlink:href="#Cmsy10-a1" transform="translate(0 0.390625)"/>
       <use xlink:href="#Cmr10-31" transform="translate(77.685547 0.390625)"/>
      </g>
     </g>
    </g>
    <g id="ytick_2">
     <g id="line2d_3">
      <g>
       <use xlink:href="#mb19e701236" x="41.316477" y="119.430898" style="stroke: #000000"/>
      </g>
     </g>
     <g id="text_2">
      <!-- $0$ -->
      <g transform="translate(23.816477 130.068711) scale(0.28 -0.28)">
       <defs>
        <path id="Cmr10-30" d="M 1600 -141 
Q 816 -141 533 504 
Q 250 1150 250 2041 
Q 250 2597 351 3087 
Q 453 3578 754 3920 
Q 1056 4263 1600 4263 
Q 2022 4263 2290 4056 
Q 2559 3850 2700 3523 
Q 2841 3197 2892 2823 
Q 2944 2450 2944 2041 
Q 2944 1491 2842 1011 
Q 2741 531 2444 195 
Q 2147 -141 1600 -141 
z
M 1600 25 
Q 1956 25 2131 390 
Q 2306 756 2347 1200 
Q 2388 1644 2388 2144 
Q 2388 2625 2347 3031 
Q 2306 3438 2132 3767 
Q 1959 4097 1600 4097 
Q 1238 4097 1063 3765 
Q 888 3434 847 3029 
Q 806 2625 806 2144 
Q 806 1788 823 1472 
Q 841 1156 916 820 
Q 991 484 1158 254 
Q 1325 25 1600 25 
z
" transform="scale(0.015625)"/>
       </defs>
       <use xlink:href="#Cmr10-30" transform="translate(0 0.390625)"/>
      </g>
     </g>
    </g>
    <g id="ytick_3">
     <g id="line2d_4">
      <g>
       <use xlink:href="#mb19e701236" x="41.316477" y="76.247101" style="stroke: #000000"/>
      </g>
     </g>
     <g id="text_3">
      <!-- $1$ -->
      <g transform="translate(23.816477 86.884913) scale(0.28 -0.28)">
       <use xlink:href="#Cmr10-31" transform="translate(0 0.390625)"/>
      </g>
     </g>
    </g>
    <g id="ytick_4">
     <g id="line2d_5">
      <g>
       <use xlink:href="#mb19e701236" x="41.316477" y="33.063304" style="stroke: #000000"/>
      </g>
     </g>
     <g id="text_4">
      <!-- $2$ -->
      <g transform="translate(23.816477 43.701116) scale(0.28 -0.28)">
       <defs>
        <path id="Cmr10-32" d="M 319 0 
L 319 172 
Q 319 188 331 206 
L 1325 1306 
Q 1550 1550 1690 1715 
Q 1831 1881 1968 2097 
Q 2106 2313 2186 2536 
Q 2266 2759 2266 3009 
Q 2266 3272 2169 3511 
Q 2072 3750 1880 3894 
Q 1688 4038 1416 4038 
Q 1138 4038 916 3870 
Q 694 3703 603 3438 
Q 628 3444 672 3444 
Q 816 3444 917 3347 
Q 1019 3250 1019 3097 
Q 1019 2950 917 2848 
Q 816 2747 672 2747 
Q 522 2747 420 2851 
Q 319 2956 319 3097 
Q 319 3338 409 3548 
Q 500 3759 670 3923 
Q 841 4088 1055 4175 
Q 1269 4263 1509 4263 
Q 1875 4263 2190 4108 
Q 2506 3953 2690 3670 
Q 2875 3388 2875 3009 
Q 2875 2731 2753 2481 
Q 2631 2231 2440 2026 
Q 2250 1822 1953 1562 
Q 1656 1303 1563 1216 
L 838 519 
L 1453 519 
Q 1906 519 2211 526 
Q 2516 534 2534 550 
Q 2609 631 2688 1141 
L 2875 1141 
L 2694 0 
L 319 0 
z
" transform="scale(0.015625)"/>
       </defs>
       <use xlink:href="#Cmr10-32" transform="translate(0 0.390625)"/>
      </g>
     </g>
    </g>
   </g>
   <g id="line2d_6">
    <path d="M 50.826162 11.471405 
L 53.568121 20.417409 
L 56.32593 28.667501 
L 59.099588 36.271761 
L 61.889096 43.277013 
L 64.694453 49.727011 
L 67.515659 55.662605 
L 69.259102 59.075156 
L 69.274951 15.931511 
L 69.385898 16.293126 
L 72.143706 24.886864 
L 74.901515 32.764548 
L 77.675173 40.025552 
L 80.464681 46.714589 
L 83.270038 52.873434 
L 86.107094 58.571534 
L 88.896602 63.698274 
L 88.912451 20.551029 
L 89.023398 20.896503 
L 91.781206 29.106675 
L 94.554864 36.67414 
L 97.344372 43.645497 
L 100.149729 50.064285 
L 102.970936 55.971159 
L 105.823841 61.433064 
L 108.692596 66.451365 
L 109.928856 68.477794 
L 109.944705 25.327391 
L 110.055651 25.656177 
L 112.82931 33.512729 
L 115.602968 40.71105 
L 118.392475 47.342341 
L 121.213682 53.481001 
L 124.050738 59.127086 
L 126.919493 64.344914 
L 129.819947 69.16156 
L 132.530207 73.280974 
L 132.546057 30.135733 
L 132.657003 30.44772 
L 135.430661 37.902831 
L 138.220169 44.770684 
L 141.025526 51.094172 
L 143.846733 56.913346 
L 146.699638 62.294158 
L 149.584243 67.264042 
L 152.500546 71.84924 
L 155.448549 76.074801 
L 156.684808 77.733141 
L 156.700657 34.591331 
L 156.811604 34.88775 
L 159.601111 42.009591 
L 162.406468 48.566935 
L 165.227675 54.601315 
L 168.064731 60.151488 
L 170.933486 65.280678 
L 173.83394 70.015502 
L 176.766093 74.381392 
L 179.745795 78.423109 
L 182.202463 81.481182 
L 182.218313 38.32176 
L 182.329259 38.605146 
L 185.118767 45.413836 
L 187.924124 51.682851 
L 190.76118 57.482879 
L 193.614085 62.814672 
L 196.49869 67.739281 
L 199.414993 72.282708 
L 202.378845 76.491249 
L 205.390246 80.382743 
L 208.449194 83.974787 
L 208.924679 84.502659 
L 208.940528 41.338207 
L 209.051474 41.611054 
L 211.856832 48.202153 
L 214.678038 54.267596 
L 217.515094 59.846339 
L 220.383849 65.001933 
L 223.284303 69.76113 
L 226.216456 74.149493 
L 229.196158 78.212016 
L 232.223407 81.966299 
L 235.314055 85.446672 
L 236.645411 86.844451 
L 236.661261 43.69017 
L 236.772207 43.954799 
L 239.577564 50.34739 
L 242.398771 56.230156 
L 245.251676 61.669769 
L 248.136281 66.693964 
L 251.052584 71.329269 
L 254.000587 75.601007 
L 256.996137 79.553247 
L 260.039237 83.203487 
L 263.145734 86.585356 
L 265.158617 88.606207 
L 265.174467 45.450298 
L 265.285413 45.708777 
L 268.09077 51.952812 
L 270.927826 57.729728 
L 273.780732 63.040274 
L 276.665336 67.94526 
L 279.58164 72.470582 
L 282.545492 76.662353 
L 285.556892 80.538341 
L 288.615841 84.116071 
L 291.738187 87.428754 
L 294.305802 89.918723 
L 294.321652 46.768996 
L 294.432598 47.022868 
L 297.253805 53.188732 
L 300.090861 58.859839 
L 302.959616 64.10079 
L 305.86007 68.938782 
L 308.792223 73.3998 
L 311.756075 77.508627 
L 314.767475 81.30792 
L 317.842273 84.83216 
L 320.980469 88.093343 
L 323.928472 90.876322 
L 323.944321 47.725295 
L 324.055268 47.975826 
L 326.876474 54.060542 
L 329.71353 59.657011 
L 332.582285 64.828987 
L 335.482739 69.603306 
L 338.414892 74.005613 
L 341.394594 78.081044 
L 344.421843 81.847257 
L 347.512491 85.338689 
L 350.666537 88.567564 
L 353.89983 91.560395 
L 353.915679 91.574327 
L 353.931529 48.425835 
L 354.042475 48.673919 
L 356.863682 54.699189 
L 359.700738 60.240982 
L 362.569493 65.362429 
L 365.469947 70.090105 
L 367.815669 73.6095 
L 367.815669 73.6095 
" clip-path="url(#pf4a908637c)" style="fill: none; stroke: #3ea44e; stroke-width: 6"/>
   </g>
   <g id="patch_3">
    <path d="M 41.316477 175.569834 
L 41.316477 2.834646 
" style="fill: none; stroke: #000000; stroke-width: 2; stroke-linejoin: miter; stroke-linecap: square"/>
   </g>
   <g id="patch_4">
    <path d="M 41.316477 175.569834 
L 377.325354 175.569834 
" style="fill: none; stroke: #000000; stroke-width: 2; stroke-linejoin: miter; stroke-linecap: square"/>
   </g>
   <g id="line2d_7">
    <path d="M 50.826162 33.063304 
L 69.274951 37.523409 
L 88.912451 42.142927 
L 109.944705 46.919289 
L 132.546057 51.727632 
L 156.700657 56.183229 
L 182.218313 59.913659 
L 208.940528 62.930106 
L 236.661261 65.282068 
L 265.174467 67.042196 
L 294.321652 68.360894 
L 323.944321 69.317194 
L 353.931529 70.017734 
" clip-path="url(#pf4a908637c)" style="fill: none; stroke: #3ea44e; stroke-opacity: 0.5; stroke-width: 4"/>
   </g>
  </g>
 </g>
 <defs>
  <clipPath id="pf4a908637c">
   <rect x="41.316477" y="2.834646" width="336.008878" height="172.735189"/>
  </clipPath>
 </defs>
</svg>
