<?xml version="1.0" encoding="utf-8" standalone="no"?>
<!DOCTYPE svg PUBLIC "-//W3C//DTD SVG 1.1//EN"
  "http://www.w3.org/Graphics/SVG/1.1/DTD/svg11.dtd">
<svg xmlns:xlink="http://www.w3.org/1999/xlink" width="380.16pt" height="184.32pt" viewBox="0 0 380.16 184.32" xmlns="http://www.w3.org/2000/svg" version="1.1">
 <metadata>
  <rdf:RDF xmlns:dc="http://purl.org/dc/elements/1.1/" xmlns:cc="http://creativecommons.org/ns#" xmlns:rdf="http://www.w3.org/1999/02/22-rdf-syntax-ns#">
   <cc:Work>
    <dc:type rdf:resource="http://purl.org/dc/dcmitype/StillImage"/>
    <dc:date>2024-04-26T17:51:00.370839</dc:date>
    <dc:format>image/svg+xml</dc:format>
    <dc:creator>
     <cc:Agent>
      <dc:title>Matplotlib v3.7.0, https://matplotlib.org/</dc:title>
     </cc:Agent>
    </dc:creator>
   </cc:Work>
  </rdf:RDF>
 </metadata>
 <defs>
  <style type="text/css">*{stroke-linejoin: round; stroke-linecap: butt}</style>
 </defs>
 <g id="figure_1">
  <g id="patch_1">
   <path d="M 0 184.32 
L 380.16 184.32 
L 380.16 0 
L 0 0 
L 0 184.32 
z
" style="fill: none"/>
  </g>
  <g id="axes_1">
   <g id="patch_2">
    <path d="M 41.316477 175.569834 
L 377.325354 175.569834 
L 377.325354 2.834646 
L 41.316477 2.834646 
L 41.316477 175.569834 
z
" style="fill: none"/>
   </g>
   <g id="line2d_1">
    <path d="M 50.826162 76.247101 
L 51.032205 76.366159 
L 51.285797 76.83803 
L 51.618636 77.994033 
L 52.062421 80.451493 
L 52.617153 84.897517 
L 53.330379 92.570702 
L 54.313047 105.837561 
L 57.467092 150.389577 
L 58.212017 157.148124 
L 58.798448 160.658148 
L 59.242233 162.154077 
L 59.559223 162.588392 
L 59.781116 162.57491 
L 60.003008 162.300478 
L 60.304148 161.51484 
L 60.700385 159.772975 
L 61.207568 156.425817 
L 61.857397 150.475261 
L 62.697419 140.510832 
L 63.981226 122.228651 
L 65.930712 94.776114 
L 66.834132 85.130239 
L 67.515659 79.991915 
L 68.054542 77.437261 
L 68.450779 76.463181 
L 68.736069 76.247272 
L 68.942112 76.345093 
L 69.195704 76.756221 
L 69.528543 77.776134 
L 69.972328 79.95882 
L 70.52706 83.930198 
L 71.224437 90.662586 
L 72.159556 102.079886 
L 73.887149 126.613143 
L 75.297752 145.176348 
L 76.185323 154.161085 
L 76.86685 159.036439 
L 77.405732 161.46505 
L 77.801969 162.398647 
L 78.08726 162.613989 
L 78.309152 162.516051 
L 78.562744 162.12112 
L 78.895583 161.1507 
L 79.339368 159.081363 
L 79.8941 155.319046 
L 80.591477 148.933034 
L 81.510746 138.260093 
L 83.032296 117.492773 
L 84.72819 95.23129 
L 85.663309 85.690874 
L 86.376535 80.441512 
L 86.947116 77.710569 
L 87.375052 76.577777 
L 87.692042 76.25783 
L 87.913934 76.298344 
L 88.167526 76.610448 
L 88.500365 77.445545 
L 88.928301 79.21135 
L 89.467183 82.488016 
L 90.14871 88.157991 
L 91.020431 97.46996 
L 92.288389 113.702948 
L 94.665811 144.276407 
L 95.60093 153.387663 
L 96.330006 158.518761 
L 96.900587 161.142271 
L 97.344372 162.281413 
L 97.661362 162.599892 
L 97.899104 162.566299 
L 98.152695 162.27389 
L 98.485534 161.492486 
L 98.91347 159.840096 
L 99.452352 156.770719 
L 100.11803 151.58762 
L 100.973902 143.016208 
L 102.178462 128.433356 
L 105.031368 93.127044 
L 105.950637 84.766711 
L 106.679713 80.000183 
L 107.250294 77.579103 
L 107.69408 76.538668 
L 108.011069 76.257153 
L 108.248811 76.299725 
L 108.518252 76.609881 
L 108.851091 77.372984 
L 109.279027 78.956904 
L 109.817909 81.873037 
L 110.499437 86.911031 
L 111.355308 95.055101 
L 112.52817 108.560765 
L 115.761462 146.921205 
L 116.680732 154.722394 
L 117.393958 159.069894 
L 117.96454 161.341377 
L 118.408325 162.326057 
L 118.741164 162.606058 
L 118.994755 162.554463 
L 119.264197 162.249615 
L 119.612885 161.477051 
L 120.05667 159.891369 
L 120.611402 157.003668 
L 121.292929 152.194372 
L 122.148801 144.462339 
L 123.321662 131.632061 
L 126.903644 90.997244 
L 127.807064 83.802579 
L 128.53614 79.624331 
L 129.12257 77.440896 
L 129.566356 76.522434 
L 129.899195 76.256701 
L 130.168636 76.308259 
L 130.453926 76.621832 
L 130.818464 77.405663 
L 131.278099 78.992171 
L 131.84868 81.848166 
L 132.546057 86.565581 
L 133.417778 94.093182 
L 134.590639 106.33538 
L 138.473761 148.491757 
L 139.39303 155.384555 
L 140.122106 159.324008 
L 140.708537 161.406282 
L 141.168171 162.328168 
L 141.51686 162.603326 
L 141.786301 162.564325 
L 142.071592 162.284889 
L 142.43613 161.575242 
L 142.895764 160.12903 
L 143.466345 157.513574 
L 144.163722 153.174117 
L 145.019594 146.349479 
L 146.144907 135.439325 
L 148.268736 112.111473 
L 149.901232 95.39997 
L 150.963147 86.652735 
L 151.803169 81.426873 
L 152.484697 78.461026 
L 153.023579 76.983547 
L 153.451515 76.373838 
L 153.768504 76.247363 
L 154.053795 76.370137 
L 154.386634 76.794749 
L 154.79872 77.734064 
L 155.305904 79.500564 
L 155.939883 82.601002 
L 156.700657 87.518718 
L 157.651626 95.230244 
L 158.935433 107.640179 
L 162.850254 146.777722 
L 163.848771 154.026885 
L 164.657094 158.406117 
L 165.322772 160.887517 
L 165.845805 162.081951 
L 166.257891 162.542829 
L 166.57488 162.607086 
L 166.876021 162.434658 
L 167.224709 161.953 
L 167.668494 160.909361 
L 168.207376 159.013348 
L 168.857205 155.858804 
L 169.649679 150.843344 
L 170.648196 142.97855 
L 171.995401 130.415084 
L 175.878523 93.108787 
L 176.940437 85.526404 
L 177.796309 80.913462 
L 178.493686 78.27524 
L 179.048418 76.941157 
L 179.492203 76.375659 
L 179.840891 76.247311 
L 180.157881 76.371873 
L 180.506569 76.772477 
L 180.934505 77.636189 
L 181.457538 79.234111 
L 182.091517 81.934107 
L 182.868141 86.29294 
L 183.81911 93.001506 
L 185.039519 103.318556 
L 187.179198 123.699576 
L 189.144533 141.55262 
L 190.349094 150.565012 
L 191.284213 156.019595 
L 192.076686 159.436408 
L 192.726515 161.338764 
L 193.249548 162.254434 
L 193.661634 162.581525 
L 193.994473 162.590489 
L 194.327312 162.371812 
L 194.723549 161.817064 
L 195.199033 160.735912 
L 195.785464 158.797335 
L 196.48284 155.6677 
L 197.322863 150.813397 
L 198.368928 143.356146 
L 199.747832 131.766406 
L 204.328331 91.882589 
L 205.406095 85.041646 
L 206.277816 80.821237 
L 207.006892 78.303906 
L 207.593323 76.990002 
L 208.068807 76.403904 
L 208.449194 76.247622 
L 208.782033 76.339177 
L 209.146571 76.682774 
L 209.590357 77.440475 
L 210.129239 78.850565 
L 210.779067 81.237891 
L 211.555692 85.01138 
L 212.490811 90.74031 
L 213.663672 99.420488 
L 215.327867 113.595856 
L 218.592859 141.625759 
L 219.844967 150.330002 
L 220.843484 155.820663 
L 221.667657 159.208136 
L 222.349184 161.156526 
L 222.903916 162.146209 
L 223.347701 162.544552 
L 223.712239 162.608305 
L 224.060928 162.447127 
L 224.457164 162.002086 
L 224.932649 161.10548 
L 225.50323 159.521967 
L 226.184757 156.936751 
L 227.00893 152.86781 
L 227.991598 146.821086 
L 229.227857 137.725594 
L 231.050546 122.443657 
L 233.982699 97.946207 
L 235.282356 88.994659 
L 236.312572 83.346588 
L 237.152594 79.87504 
L 237.849971 77.844139 
L 238.420552 76.786984 
L 238.880187 76.341322 
L 239.260574 76.249361 
L 239.625112 76.396964 
L 240.021349 76.817952 
L 240.496834 77.677308 
L 241.067415 79.207254 
L 241.748942 81.719709 
L 242.557265 85.602534 
L 243.539933 91.49807 
L 244.760342 100.282561 
L 246.503785 114.642022 
L 249.737078 141.402169 
L 251.020885 150.0906 
L 252.035252 155.56077 
L 252.891123 159.041409 
L 253.5885 161.036766 
L 254.159081 162.077852 
L 254.634566 162.527895 
L 255.014953 162.611519 
L 255.379491 162.460534 
L 255.775728 162.040812 
L 256.251212 161.189426 
L 256.821793 159.677606 
L 257.503321 157.197529 
L 258.311644 153.365257 
L 259.294311 147.543021 
L 260.498871 138.977116 
L 262.210615 125.022583 
L 265.618252 96.982363 
L 266.90206 88.40736 
L 267.916426 83.026327 
L 268.756448 79.676069 
L 269.453825 77.729425 
L 270.024406 76.728906 
L 270.484041 76.320443 
L 270.864428 76.253495 
L 271.228966 76.420177 
L 271.641053 76.879497 
L 272.132386 77.798545 
L 272.718817 79.41227 
L 273.416194 82.033769 
L 274.240367 86.049078 
L 275.238884 92.095314 
L 276.490992 101.15604 
L 278.313682 116.182811 
L 281.325082 140.964921 
L 282.640589 149.887972 
L 283.670804 155.463762 
L 284.526676 158.965154 
L 285.239902 161.019045 
L 285.826333 162.087347 
L 286.301817 162.531235 
L 286.682205 162.610919 
L 287.046743 162.456993 
L 287.458829 162.012639 
L 287.950163 161.112033 
L 288.536593 159.520883 
L 289.23397 156.926511 
L 290.058143 152.942758 
L 291.05666 146.932434 
L 292.292919 138.03274 
L 294.08391 123.325029 
L 297.206256 97.650072 
L 298.505913 88.867985 
L 299.536129 83.315841 
L 300.392001 79.836729 
L 301.089378 77.839038 
L 301.675808 76.772305 
L 302.135443 76.338309 
L 302.515831 76.249436 
L 302.880369 76.394563 
L 303.276605 76.807046 
L 303.75209 77.648638 
L 304.322671 79.147295 
L 305.004198 81.609989 
L 305.812522 85.419998 
L 306.77934 91.111562 
L 307.9839 99.626049 
L 309.663944 113.259655 
L 313.198377 142.266962 
L 314.466335 150.664468 
L 315.480701 155.99087 
L 316.320724 159.294334 
L 317.018101 161.202191 
L 317.588682 162.171605 
L 318.048316 162.55572 
L 318.428704 162.603144 
L 318.793242 162.418387 
L 319.205328 161.939486 
L 319.696662 160.998421 
L 320.283093 159.360525 
L 320.980469 156.713569 
L 321.820492 152.586404 
L 322.834858 146.392767 
L 324.102816 137.156685 
L 325.988904 121.551317 
L 328.841809 98.110015 
L 330.157316 89.149151 
L 331.203381 83.459786 
L 332.059253 79.942059 
L 332.772479 77.873367 
L 333.35891 76.792302 
L 333.834394 76.337798 
L 334.214781 76.249516 
L 334.579319 76.395165 
L 334.975556 76.808163 
L 335.45104 77.650301 
L 336.021622 79.1495 
L 336.703149 81.61268 
L 337.511472 85.423038 
L 338.47829 91.114707 
L 339.68285 99.628908 
L 341.362895 113.261537 
L 344.897328 142.267986 
L 346.165286 150.665348 
L 347.179652 155.991577 
L 348.019674 159.294863 
L 348.717051 161.202549 
L 349.287632 162.171812 
L 349.747267 162.555797 
L 350.127655 162.60311 
L 350.492193 162.418247 
L 350.904279 161.939229 
L 351.395613 160.998028 
L 351.982043 159.359977 
L 352.67942 156.712852 
L 353.519442 152.585506 
L 354.533809 146.391692 
L 355.801767 137.155461 
L 357.687854 121.550033 
L 360.54076 98.108982 
L 361.856266 89.148339 
L 362.902332 83.459179 
L 363.758203 79.941629 
L 364.47143 77.873087 
L 365.05786 76.792143 
L 365.533345 76.337734 
L 365.913732 76.249526 
L 366.27827 76.395243 
L 366.674507 76.808312 
L 367.149991 77.65053 
L 367.720572 79.149817 
L 367.815669 79.450352 
L 367.815669 79.450352 
" clip-path="url(#p786585625b)" style="fill: none; stroke: #009afa; stroke-width: 6"/>
   </g>
   <g id="matplotlib.axis_1"/>
   <g id="matplotlib.axis_2">
    <g id="ytick_1">
     <g id="line2d_2">
      <defs>
       <path id="m7bd11f4dc9" d="M 0 0 
L 5 0 
" style="stroke: #000000"/>
      </defs>
      <g>
       <use xlink:href="#m7bd11f4dc9" x="41.316477" y="162.614695" style="stroke: #000000"/>
      </g>
     </g>
     <g id="text_1">
      <!-- $-1$ -->
      <g transform="translate(1.976477 173.252508) scale(0.28 -0.28)">
       <defs>
        <path id="Cmsy10-a1" d="M 653 1472 
Q 600 1472 565 1512 
Q 531 1553 531 1600 
Q 531 1647 565 1687 
Q 600 1728 653 1728 
L 4325 1728 
Q 4375 1728 4408 1687 
Q 4441 1647 4441 1600 
Q 4441 1553 4408 1512 
Q 4375 1472 4325 1472 
L 653 1472 
z
" transform="scale(0.015625)"/>
        <path id="Cmr10-31" d="M 594 0 
L 594 225 
Q 1394 225 1394 428 
L 1394 3788 
Q 1063 3628 556 3628 
L 556 3853 
Q 1341 3853 1741 4263 
L 1831 4263 
Q 1853 4263 1873 4245 
Q 1894 4228 1894 4206 
L 1894 428 
Q 1894 225 2694 225 
L 2694 0 
L 594 0 
z
" transform="scale(0.015625)"/>
       </defs>
       <use xlink:href="#Cmsy10-a1" transform="translate(0 0.390625)"/>
       <use xlink:href="#Cmr10-31" transform="translate(77.685547 0.390625)"/>
      </g>
     </g>
    </g>
    <g id="ytick_2">
     <g id="line2d_3">
      <g>
       <use xlink:href="#m7bd11f4dc9" x="41.316477" y="119.430898" style="stroke: #000000"/>
      </g>
     </g>
     <g id="text_2">
      <!-- $0$ -->
      <g transform="translate(23.816477 130.068711) scale(0.28 -0.28)">
       <defs>
        <path id="Cmr10-30" d="M 1600 -141 
Q 816 -141 533 504 
Q 250 1150 250 2041 
Q 250 2597 351 3087 
Q 453 3578 754 3920 
Q 1056 4263 1600 4263 
Q 2022 4263 2290 4056 
Q 2559 3850 2700 3523 
Q 2841 3197 2892 2823 
Q 2944 2450 2944 2041 
Q 2944 1491 2842 1011 
Q 2741 531 2444 195 
Q 2147 -141 1600 -141 
z
M 1600 25 
Q 1956 25 2131 390 
Q 2306 756 2347 1200 
Q 2388 1644 2388 2144 
Q 2388 2625 2347 3031 
Q 2306 3438 2132 3767 
Q 1959 4097 1600 4097 
Q 1238 4097 1063 3765 
Q 888 3434 847 3029 
Q 806 2625 806 2144 
Q 806 1788 823 1472 
Q 841 1156 916 820 
Q 991 484 1158 254 
Q 1325 25 1600 25 
z
" transform="scale(0.015625)"/>
       </defs>
       <use xlink:href="#Cmr10-30" transform="translate(0 0.390625)"/>
      </g>
     </g>
    </g>
    <g id="ytick_3">
     <g id="line2d_4">
      <g>
       <use xlink:href="#m7bd11f4dc9" x="41.316477" y="76.247101" style="stroke: #000000"/>
      </g>
     </g>
     <g id="text_3">
      <!-- $1$ -->
      <g transform="translate(23.816477 86.884913) scale(0.28 -0.28)">
       <use xlink:href="#Cmr10-31" transform="translate(0 0.390625)"/>
      </g>
     </g>
    </g>
    <g id="ytick_4">
     <g id="line2d_5">
      <g>
       <use xlink:href="#m7bd11f4dc9" x="41.316477" y="33.063304" style="stroke: #000000"/>
      </g>
     </g>
     <g id="text_4">
      <!-- $2$ -->
      <g transform="translate(23.816477 43.701116) scale(0.28 -0.28)">
       <defs>
        <path id="Cmr10-32" d="M 319 0 
L 319 172 
Q 319 188 331 206 
L 1325 1306 
Q 1550 1550 1690 1715 
Q 1831 1881 1968 2097 
Q 2106 2313 2186 2536 
Q 2266 2759 2266 3009 
Q 2266 3272 2169 3511 
Q 2072 3750 1880 3894 
Q 1688 4038 1416 4038 
Q 1138 4038 916 3870 
Q 694 3703 603 3438 
Q 628 3444 672 3444 
Q 816 3444 917 3347 
Q 1019 3250 1019 3097 
Q 1019 2950 917 2848 
Q 816 2747 672 2747 
Q 522 2747 420 2851 
Q 319 2956 319 3097 
Q 319 3338 409 3548 
Q 500 3759 670 3923 
Q 841 4088 1055 4175 
Q 1269 4263 1509 4263 
Q 1875 4263 2190 4108 
Q 2506 3953 2690 3670 
Q 2875 3388 2875 3009 
Q 2875 2731 2753 2481 
Q 2631 2231 2440 2026 
Q 2250 1822 1953 1562 
Q 1656 1303 1563 1216 
L 838 519 
L 1453 519 
Q 1906 519 2211 526 
Q 2516 534 2534 550 
Q 2609 631 2688 1141 
L 2875 1141 
L 2694 0 
L 319 0 
z
" transform="scale(0.015625)"/>
       </defs>
       <use xlink:href="#Cmr10-32" transform="translate(0 0.390625)"/>
      </g>
     </g>
    </g>
   </g>
   <g id="line2d_6">
    <path d="M 50.826162 33.063304 
L 91.416668 42.946858 
L 123.733749 50.595545 
L 147.428714 56.002848 
L 169.475334 60.814051 
L 186.307477 64.245295 
L 201.824114 67.19045 
L 213.330833 69.125974 
L 224.821702 70.8334 
L 234.093646 72.008108 
L 243.92032 73.034836 
L 253.778694 73.840888 
L 265.919392 74.598394 
L 278.06009 75.133332 
L 293.687673 75.567344 
L 312.469301 75.881988 
L 345.277715 76.128846 
L 367.815669 76.18997 
L 367.815669 76.18997 
" clip-path="url(#p786585625b)" style="fill: none; stroke: #3ea44e; stroke-width: 6"/>
   </g>
   <g id="patch_3">
    <path d="M 41.316477 175.569834 
L 41.316477 2.834646 
" style="fill: none; stroke: #000000; stroke-width: 2; stroke-linejoin: miter; stroke-linecap: square"/>
   </g>
  </g>
 </g>
 <defs>
  <clipPath id="p786585625b">
   <rect x="41.316477" y="2.834646" width="336.008878" height="172.735189"/>
  </clipPath>
 </defs>
</svg>
