<?xml version="1.0" encoding="utf-8" standalone="no"?>
<!DOCTYPE svg PUBLIC "-//W3C//DTD SVG 1.1//EN"
  "http://www.w3.org/Graphics/SVG/1.1/DTD/svg11.dtd">
<svg xmlns:xlink="http://www.w3.org/1999/xlink" width="509.76pt" height="184.32pt" viewBox="0 0 509.76 184.32" xmlns="http://www.w3.org/2000/svg" version="1.1">
 <metadata>
  <rdf:RDF xmlns:dc="http://purl.org/dc/elements/1.1/" xmlns:cc="http://creativecommons.org/ns#" xmlns:rdf="http://www.w3.org/1999/02/22-rdf-syntax-ns#">
   <cc:Work>
    <dc:type rdf:resource="http://purl.org/dc/dcmitype/StillImage"/>
    <dc:date>2024-07-16T17:23:11.153428</dc:date>
    <dc:format>image/svg+xml</dc:format>
    <dc:creator>
     <cc:Agent>
      <dc:title>Matplotlib v3.8.4, https://matplotlib.org/</dc:title>
     </cc:Agent>
    </dc:creator>
   </cc:Work>
  </rdf:RDF>
 </metadata>
 <defs>
  <style type="text/css">*{stroke-linejoin: round; stroke-linecap: butt}</style>
 </defs>
 <g id="figure_1">
  <g id="patch_1">
   <path d="M 0 184.32 
L 509.76 184.32 
L 509.76 0 
L 0 0 
L 0 184.32 
z
" style="fill: none"/>
  </g>
  <g id="axes_1">
   <g id="patch_2">
    <path d="M 42.418977 150.625354 
L 500.064245 150.625354 
L 500.064245 9.617861 
L 42.418977 9.617861 
L 42.418977 150.625354 
z
" style="fill: none"/>
   </g>
   <g id="line2d_1">
    <path d="M 55.371201 109.814702 
L 76.958242 104.608429 
L 96.386579 100.14983 
L 113.656212 96.408798 
L 128.767141 93.342246 
L 143.878069 90.504944 
L 156.830294 88.285538 
L 169.782518 86.291344 
L 182.734743 84.550784 
L 193.528264 83.313463 
L 204.321784 82.283421 
L 215.115305 81.467854 
L 225.908825 80.865622 
L 236.702346 80.464051 
L 249.65457 80.208222 
L 266.924203 80.122316 
L 294.987356 80.006883 
L 307.939581 79.713833 
L 318.733101 79.273796 
L 329.526622 78.629498 
L 340.320142 77.770813 
L 351.113663 76.698529 
L 361.907183 75.42113 
L 374.859408 73.636355 
L 387.811632 71.602652 
L 400.763857 69.348437 
L 415.874786 66.476058 
L 430.985714 63.379715 
L 448.255347 59.610142 
L 467.683684 55.125204 
L 487.112021 50.428513 
L 487.112021 50.428513 
" clip-path="url(#pd5f543f2c2)" style="fill: none; stroke: #8c510a; stroke-opacity: 0.9; stroke-width: 4"/>
   </g>
   <g id="matplotlib.axis_1">
    <g id="xtick_1">
     <g id="line2d_2">
      <defs>
       <path id="m98ca5c2553" d="M 0 0 
L 0 -5 
" style="stroke: #000000"/>
      </defs>
      <g>
       <use xlink:href="#m98ca5c2553" x="55.371201" y="150.625354" style="stroke: #000000"/>
      </g>
     </g>
     <g id="text_1">
      <!-- $0.0$ -->
      <g transform="translate(37.451201 175.400979) scale(0.28 -0.28)">
       <defs>
        <path id="Cmr10-30" d="M 1600 -141 
Q 816 -141 533 504 
Q 250 1150 250 2041 
Q 250 2597 351 3087 
Q 453 3578 754 3920 
Q 1056 4263 1600 4263 
Q 2022 4263 2290 4056 
Q 2559 3850 2700 3523 
Q 2841 3197 2892 2823 
Q 2944 2450 2944 2041 
Q 2944 1491 2842 1011 
Q 2741 531 2444 195 
Q 2147 -141 1600 -141 
z
M 1600 25 
Q 1956 25 2131 390 
Q 2306 756 2347 1200 
Q 2388 1644 2388 2144 
Q 2388 2625 2347 3031 
Q 2306 3438 2132 3767 
Q 1959 4097 1600 4097 
Q 1238 4097 1063 3765 
Q 888 3434 847 3029 
Q 806 2625 806 2144 
Q 806 1788 823 1472 
Q 841 1156 916 820 
Q 991 484 1158 254 
Q 1325 25 1600 25 
z
" transform="scale(0.015625)"/>
        <path id="Cmmi10-3a" d="M 538 353 
Q 538 497 644 600 
Q 750 703 891 703 
Q 978 703 1062 656 
Q 1147 609 1194 525 
Q 1241 441 1241 353 
Q 1241 213 1137 106 
Q 1034 0 891 0 
Q 750 0 644 106 
Q 538 213 538 353 
z
" transform="scale(0.015625)"/>
       </defs>
       <use xlink:href="#Cmr10-30" transform="translate(0 0.390625)"/>
       <use xlink:href="#Cmmi10-3a" transform="translate(50 0.390625)"/>
       <use xlink:href="#Cmr10-30" transform="translate(77.685547 0.390625)"/>
      </g>
     </g>
    </g>
    <g id="xtick_2">
     <g id="line2d_3">
      <g>
       <use xlink:href="#m98ca5c2553" x="163.306406" y="150.625354" style="stroke: #000000"/>
      </g>
     </g>
     <g id="text_2">
      <!-- $0.5$ -->
      <g transform="translate(145.386406 175.400979) scale(0.28 -0.28)">
       <defs>
        <path id="Cmr10-35" d="M 556 728 
Q 622 541 758 387 
Q 894 234 1080 148 
Q 1266 63 1466 63 
Q 1928 63 2103 422 
Q 2278 781 2278 1294 
Q 2278 1516 2270 1667 
Q 2263 1819 2228 1959 
Q 2169 2184 2020 2353 
Q 1872 2522 1656 2522 
Q 1441 2522 1286 2456 
Q 1131 2391 1034 2303 
Q 938 2216 863 2119 
Q 788 2022 769 2016 
L 697 2016 
Q 681 2016 657 2036 
Q 634 2056 634 2075 
L 634 4213 
Q 634 4228 654 4245 
Q 675 4263 697 4263 
L 716 4263 
Q 1147 4056 1631 4056 
Q 2106 4056 2547 4263 
L 2566 4263 
Q 2588 4263 2606 4247 
Q 2625 4231 2625 4213 
L 2625 4153 
Q 2625 4122 2613 4122 
Q 2394 3831 2064 3668 
Q 1734 3506 1381 3506 
Q 1125 3506 856 3578 
L 856 2369 
Q 1069 2541 1236 2614 
Q 1403 2688 1663 2688 
Q 2016 2688 2295 2484 
Q 2575 2281 2725 1954 
Q 2875 1628 2875 1288 
Q 2875 903 2686 575 
Q 2497 247 2172 53 
Q 1847 -141 1466 -141 
Q 1150 -141 886 21 
Q 622 184 470 459 
Q 319 734 319 1044 
Q 319 1188 412 1278 
Q 506 1369 647 1369 
Q 788 1369 883 1276 
Q 978 1184 978 1044 
Q 978 906 883 811 
Q 788 716 647 716 
Q 625 716 597 720 
Q 569 725 556 728 
z
" transform="scale(0.015625)"/>
       </defs>
       <use xlink:href="#Cmr10-30" transform="translate(0 0.390625)"/>
       <use xlink:href="#Cmmi10-3a" transform="translate(50 0.390625)"/>
       <use xlink:href="#Cmr10-35" transform="translate(77.685547 0.390625)"/>
      </g>
     </g>
    </g>
    <g id="xtick_3">
     <g id="line2d_4">
      <g>
       <use xlink:href="#m98ca5c2553" x="271.241611" y="150.625354" style="stroke: #000000"/>
      </g>
     </g>
     <g id="text_3">
      <!-- $1.0$ -->
      <g transform="translate(253.321611 175.400979) scale(0.28 -0.28)">
       <defs>
        <path id="Cmr10-31" d="M 594 0 
L 594 225 
Q 1394 225 1394 428 
L 1394 3788 
Q 1063 3628 556 3628 
L 556 3853 
Q 1341 3853 1741 4263 
L 1831 4263 
Q 1853 4263 1873 4245 
Q 1894 4228 1894 4206 
L 1894 428 
Q 1894 225 2694 225 
L 2694 0 
L 594 0 
z
" transform="scale(0.015625)"/>
       </defs>
       <use xlink:href="#Cmr10-31" transform="translate(0 0.390625)"/>
       <use xlink:href="#Cmmi10-3a" transform="translate(50 0.390625)"/>
       <use xlink:href="#Cmr10-30" transform="translate(77.685547 0.390625)"/>
      </g>
     </g>
    </g>
    <g id="xtick_4">
     <g id="line2d_5">
      <g>
       <use xlink:href="#m98ca5c2553" x="379.176816" y="150.625354" style="stroke: #000000"/>
      </g>
     </g>
     <g id="text_4">
      <!-- $1.5$ -->
      <g transform="translate(361.256816 175.400979) scale(0.28 -0.28)">
       <use xlink:href="#Cmr10-31" transform="translate(0 0.390625)"/>
       <use xlink:href="#Cmmi10-3a" transform="translate(50 0.390625)"/>
       <use xlink:href="#Cmr10-35" transform="translate(77.685547 0.390625)"/>
      </g>
     </g>
    </g>
    <g id="xtick_5">
     <g id="line2d_6">
      <g>
       <use xlink:href="#m98ca5c2553" x="487.112021" y="150.625354" style="stroke: #000000"/>
      </g>
     </g>
     <g id="text_5">
      <!-- $2.0$ -->
      <g transform="translate(469.192021 175.400979) scale(0.28 -0.28)">
       <defs>
        <path id="Cmr10-32" d="M 319 0 
L 319 172 
Q 319 188 331 206 
L 1325 1306 
Q 1550 1550 1690 1715 
Q 1831 1881 1968 2097 
Q 2106 2313 2186 2536 
Q 2266 2759 2266 3009 
Q 2266 3272 2169 3511 
Q 2072 3750 1880 3894 
Q 1688 4038 1416 4038 
Q 1138 4038 916 3870 
Q 694 3703 603 3438 
Q 628 3444 672 3444 
Q 816 3444 917 3347 
Q 1019 3250 1019 3097 
Q 1019 2950 917 2848 
Q 816 2747 672 2747 
Q 522 2747 420 2851 
Q 319 2956 319 3097 
Q 319 3338 409 3548 
Q 500 3759 670 3923 
Q 841 4088 1055 4175 
Q 1269 4263 1509 4263 
Q 1875 4263 2190 4108 
Q 2506 3953 2690 3670 
Q 2875 3388 2875 3009 
Q 2875 2731 2753 2481 
Q 2631 2231 2440 2026 
Q 2250 1822 1953 1562 
Q 1656 1303 1563 1216 
L 838 519 
L 1453 519 
Q 1906 519 2211 526 
Q 2516 534 2534 550 
Q 2609 631 2688 1141 
L 2875 1141 
L 2694 0 
L 319 0 
z
" transform="scale(0.015625)"/>
       </defs>
       <use xlink:href="#Cmr10-32" transform="translate(0 0.390625)"/>
       <use xlink:href="#Cmmi10-3a" transform="translate(50 0.390625)"/>
       <use xlink:href="#Cmr10-30" transform="translate(77.685547 0.390625)"/>
      </g>
     </g>
    </g>
   </g>
   <g id="matplotlib.axis_2">
    <g id="ytick_1">
     <g id="line2d_7">
      <defs>
       <path id="mf920949d5f" d="M 0 0 
L 5 0 
" style="stroke: #000000"/>
      </defs>
      <g>
       <use xlink:href="#mf920949d5f" x="42.418977" y="146.634576" style="stroke: #000000"/>
      </g>
     </g>
     <g id="text_6">
      <!-- $0.0$ -->
      <g transform="translate(3.078977 157.272389) scale(0.28 -0.28)">
       <use xlink:href="#Cmr10-30" transform="translate(0 0.390625)"/>
       <use xlink:href="#Cmmi10-3a" transform="translate(50 0.390625)"/>
       <use xlink:href="#Cmr10-30" transform="translate(77.685547 0.390625)"/>
      </g>
     </g>
    </g>
    <g id="ytick_2">
     <g id="line2d_8">
      <g>
       <use xlink:href="#mf920949d5f" x="42.418977" y="113.378092" style="stroke: #000000"/>
      </g>
     </g>
     <g id="text_7">
      <!-- $0.5$ -->
      <g transform="translate(3.078977 124.015904) scale(0.28 -0.28)">
       <use xlink:href="#Cmr10-30" transform="translate(0 0.390625)"/>
       <use xlink:href="#Cmmi10-3a" transform="translate(50 0.390625)"/>
       <use xlink:href="#Cmr10-35" transform="translate(77.685547 0.390625)"/>
      </g>
     </g>
    </g>
    <g id="ytick_3">
     <g id="line2d_9">
      <g>
       <use xlink:href="#mf920949d5f" x="42.418977" y="80.121608" style="stroke: #000000"/>
      </g>
     </g>
     <g id="text_8">
      <!-- $1.0$ -->
      <g transform="translate(3.078977 90.75942) scale(0.28 -0.28)">
       <use xlink:href="#Cmr10-31" transform="translate(0 0.390625)"/>
       <use xlink:href="#Cmmi10-3a" transform="translate(50 0.390625)"/>
       <use xlink:href="#Cmr10-30" transform="translate(77.685547 0.390625)"/>
      </g>
     </g>
    </g>
    <g id="ytick_4">
     <g id="line2d_10">
      <g>
       <use xlink:href="#mf920949d5f" x="42.418977" y="46.865123" style="stroke: #000000"/>
      </g>
     </g>
     <g id="text_9">
      <!-- $1.5$ -->
      <g transform="translate(3.078977 57.502936) scale(0.28 -0.28)">
       <use xlink:href="#Cmr10-31" transform="translate(0 0.390625)"/>
       <use xlink:href="#Cmmi10-3a" transform="translate(50 0.390625)"/>
       <use xlink:href="#Cmr10-35" transform="translate(77.685547 0.390625)"/>
      </g>
     </g>
    </g>
    <g id="ytick_5">
     <g id="line2d_11">
      <g>
       <use xlink:href="#mf920949d5f" x="42.418977" y="13.608639" style="stroke: #000000"/>
      </g>
     </g>
     <g id="text_10">
      <!-- $2.0$ -->
      <g transform="translate(3.078977 24.246451) scale(0.28 -0.28)">
       <use xlink:href="#Cmr10-32" transform="translate(0 0.390625)"/>
       <use xlink:href="#Cmmi10-3a" transform="translate(50 0.390625)"/>
       <use xlink:href="#Cmr10-30" transform="translate(77.685547 0.390625)"/>
      </g>
     </g>
    </g>
   </g>
   <g id="line2d_12">
    <path d="M 55.371201 124.588559 
L 89.910467 114.682988 
L 117.97362 106.85582 
L 139.560661 101.042606 
L 158.988998 96.040633 
L 174.099927 92.365018 
L 187.052151 89.420854 
L 197.845672 87.159118 
L 208.639192 85.121101 
L 217.274009 83.690059 
L 225.908825 82.471846 
L 234.543641 81.498814 
L 243.178458 80.794731 
L 251.813274 80.361793 
L 260.448091 80.164915 
L 275.559019 80.118781 
L 286.35254 80.005355 
L 294.987356 79.697702 
L 303.622173 79.130889 
L 312.256989 78.290347 
L 320.891805 77.190973 
L 329.526622 75.86213 
L 340.320142 73.929139 
L 351.113663 71.750661 
L 364.065887 68.883727 
L 379.176816 65.27506 
L 396.446449 60.896459 
L 415.874786 55.738989 
L 439.620531 49.203524 
L 469.842388 40.637252 
L 487.112021 35.654656 
L 487.112021 35.654656 
" clip-path="url(#pd5f543f2c2)" style="fill: none; stroke: #d8b365; stroke-opacity: 0.9; stroke-width: 4"/>
   </g>
   <g id="patch_3">
    <path d="M 42.418977 150.625354 
L 42.418977 9.617861 
" style="fill: none; stroke: #000000; stroke-width: 2; stroke-linejoin: miter; stroke-linecap: square"/>
   </g>
   <g id="patch_4">
    <path d="M 42.418977 150.625354 
L 500.064245 150.625354 
" style="fill: none; stroke: #000000; stroke-width: 2; stroke-linejoin: miter; stroke-linecap: square"/>
   </g>
   <g id="line2d_13">
    <path d="M 55.371201 134.608688 
L 117.97362 115.73493 
L 156.830294 104.239377 
L 182.734743 96.792499 
L 202.16308 91.442132 
L 215.115305 88.08112 
L 225.908825 85.493481 
L 234.543641 83.640363 
L 241.019754 82.433419 
L 247.495866 81.438108 
L 253.971978 80.709306 
L 260.448091 80.28368 
L 266.924203 80.132788 
L 282.035132 79.959535 
L 288.511244 79.533909 
L 294.987356 78.805107 
L 301.463468 77.809796 
L 307.939581 76.602852 
L 316.574397 74.749734 
L 327.367918 72.162095 
L 340.320142 68.801083 
L 357.589775 64.057989 
L 379.176816 57.888132 
L 409.398673 49.009435 
L 452.572755 36.082297 
L 487.112021 25.634527 
L 487.112021 25.634527 
" clip-path="url(#pd5f543f2c2)" style="fill: none; stroke: #f6e8c3; stroke-opacity: 0.9; stroke-width: 4"/>
   </g>
   <g id="line2d_14">
    <path d="M 55.371201 140.36416 
L 158.988998 108.675717 
L 202.16308 95.677694 
L 223.750121 89.375232 
L 236.702346 85.78187 
L 245.337162 83.569385 
L 251.813274 82.101164 
L 256.130682 81.277513 
L 260.448091 80.642317 
L 264.765499 80.256629 
L 269.082907 80.127198 
L 275.559019 80.078802 
L 279.876427 79.827758 
L 284.193836 79.310951 
L 288.511244 78.57349 
L 294.987356 77.187143 
L 303.622173 75.033387 
L 314.415693 72.089799 
L 331.685326 67.114923 
L 359.748479 58.752329 
L 409.398673 43.678523 
L 487.112021 19.879056 
L 487.112021 19.879056 
" clip-path="url(#pd5f543f2c2)" style="fill: none; stroke: #c7eae5; stroke-opacity: 0.9; stroke-width: 4"/>
   </g>
   <g id="line2d_15">
    <path d="M 55.371201 146.634576 
L 58.18207 145.768505 
L 84.172608 137.760423 
L 99.791837 132.9479 
L 112.997697 128.878973 
L 127.342963 124.458978 
L 140.568029 120.384133 
L 154.746697 116.015469 
L 171.174075 110.953943 
L 185.77279 106.455856 
L 198.574547 102.511439 
L 212.531899 98.210966 
L 226.572203 93.884934 
L 242.095555 89.101952 
L 256.865632 84.551066 
L 272.223086 79.8192 
L 285.15079 75.835977 
L 300.934052 70.972913 
L 315.392519 66.518039 
L 328.746028 62.403619 
L 342.27272 58.235839 
L 357.432349 53.564925 
L 371.16942 49.332324 
L 386.897419 44.486287 
L 401.460148 39.999288 
L 415.817292 35.575633 
L 429.75689 31.28063 
L 444.046761 26.877703 
L 459.702974 22.053785 
L 482.44619 15.046253 
L 487.112021 13.608639 
" clip-path="url(#pd5f543f2c2)" style="fill: none; stroke-dasharray: 4,6.6; stroke-dashoffset: 0; stroke: #000000; stroke-width: 4"/>
   </g>
  </g>
 </g>
 <defs>
  <clipPath id="pd5f543f2c2">
   <rect x="42.418977" y="9.617861" width="457.645269" height="141.007494"/>
  </clipPath>
 </defs>
</svg>
