<?xml version="1.0" encoding="utf-8" standalone="no"?>
<!DOCTYPE svg PUBLIC "-//W3C//DTD SVG 1.1//EN"
  "http://www.w3.org/Graphics/SVG/1.1/DTD/svg11.dtd">
<svg xmlns:xlink="http://www.w3.org/1999/xlink" width="380.16pt" height="184.32pt" viewBox="0 0 380.16 184.32" xmlns="http://www.w3.org/2000/svg" version="1.1">
 <metadata>
  <rdf:RDF xmlns:dc="http://purl.org/dc/elements/1.1/" xmlns:cc="http://creativecommons.org/ns#" xmlns:rdf="http://www.w3.org/1999/02/22-rdf-syntax-ns#">
   <cc:Work>
    <dc:type rdf:resource="http://purl.org/dc/dcmitype/StillImage"/>
    <dc:date>2024-04-27T16:44:14.350283</dc:date>
    <dc:format>image/svg+xml</dc:format>
    <dc:creator>
     <cc:Agent>
      <dc:title>Matplotlib v3.7.0, https://matplotlib.org/</dc:title>
     </cc:Agent>
    </dc:creator>
   </cc:Work>
  </rdf:RDF>
 </metadata>
 <defs>
  <style type="text/css">*{stroke-linejoin: round; stroke-linecap: butt}</style>
 </defs>
 <g id="figure_1">
  <g id="patch_1">
   <path d="M 0 184.32 
L 380.16 184.32 
L 380.16 0 
L 0 0 
L 0 184.32 
z
" style="fill: none"/>
  </g>
  <g id="axes_1">
   <g id="patch_2">
    <path d="M 41.316477 175.569834 
L 377.325354 175.569834 
L 377.325354 2.834646 
L 41.316477 2.834646 
L 41.316477 175.569834 
z
" style="fill: none"/>
   </g>
   <g id="line2d_1">
    <path d="M 50.826162 76.247101 
L 50.984657 76.360553 
L 51.1907 76.841992 
L 51.49184 78.200378 
L 51.903926 81.235987 
L 52.458658 87.207501 
L 53.219433 98.109792 
L 54.645886 122.560992 
L 55.961392 143.490326 
L 56.785565 153.366628 
L 57.435393 158.757277 
L 57.942576 161.360545 
L 58.338813 162.399431 
L 58.608254 162.61422 
L 58.814298 162.516208 
L 59.067889 162.091649 
L 59.400728 161.044263 
L 59.844513 158.835008 
L 60.415095 154.768417 
L 61.175869 147.572188 
L 62.253634 134.999305 
L 65.582023 94.695171 
L 66.532992 86.43978 
L 67.325466 81.349645 
L 67.975294 78.474732 
L 68.514176 76.989148 
L 68.942112 76.380651 
L 69.274951 76.248035 
L 69.433446 76.370803 
L 69.655339 76.883721 
L 69.972328 78.282036 
L 70.400264 81.329423 
L 70.970845 87.212468 
L 71.747469 97.806393 
L 73.158073 120.798404 
L 74.568676 142.396257 
L 75.440397 152.56894 
L 76.121925 158.191344 
L 76.676656 161.101325 
L 77.104592 162.301409 
L 77.405732 162.606283 
L 77.627625 162.552052 
L 77.881216 162.208241 
L 78.214055 161.317576 
L 78.657841 159.39968 
L 79.228422 155.825543 
L 79.973347 149.590801 
L 80.971864 139.187488 
L 83.000597 115.016601 
L 84.522147 98.30867 
L 85.584061 88.942044 
L 86.455783 83.088881 
L 87.184858 79.561315 
L 87.802988 77.567455 
L 88.310171 76.610809 
L 88.706408 76.279885 
L 88.991699 76.287009 
L 89.197742 76.600784 
L 89.483032 77.53671 
L 89.86342 79.644802 
L 90.370603 83.846258 
L 91.036281 91.383021 
L 92.003099 105.157769 
L 94.729209 145.360535 
L 95.569231 153.988528 
L 96.234909 158.774365 
L 96.78964 161.302779 
L 97.217576 162.344205 
L 97.518716 162.607744 
L 97.756458 162.54776 
L 98.0259 162.201339 
L 98.374588 161.329581 
L 98.834223 159.491638 
L 99.420653 156.11327 
L 100.165579 150.399407 
L 101.164096 140.869788 
L 102.970936 121.024704 
L 104.825324 101.575955 
L 106.014035 91.279021 
L 106.980853 84.715738 
L 107.789176 80.638001 
L 108.470704 78.237489 
L 109.041285 76.957235 
L 109.50092 76.399323 
L 109.881307 76.2475 
L 110.071501 76.34648 
L 110.309243 76.802232 
L 110.626232 77.965446 
L 111.054168 80.483013 
L 111.6089 85.197826 
L 112.353825 93.62974 
L 113.463289 109.050236 
L 115.809011 142.04094 
L 116.74413 151.867653 
L 117.489055 157.527797 
L 118.091335 160.576566 
L 118.582669 162.036232 
L 118.947207 162.542328 
L 119.216648 162.606319 
L 119.47024 162.431404 
L 119.787229 161.90151 
L 120.199316 160.717773 
L 120.722348 158.464089 
L 121.388026 154.510959 
L 122.243898 147.95277 
L 123.416759 137.072572 
L 127.648569 96.216649 
L 128.789731 88.050302 
L 129.72485 82.85152 
L 130.517324 79.599941 
L 131.183002 77.71426 
L 131.737734 76.733968 
L 132.197368 76.32309 
L 132.577756 76.258549 
L 132.783799 76.458663 
L 133.05324 77.088465 
L 133.417778 78.577315 
L 133.893262 81.54204 
L 134.511392 86.916682 
L 135.351414 96.383541 
L 136.714469 114.719446 
L 138.616406 139.766286 
L 139.614923 150.093218 
L 140.423246 156.317243 
L 141.088924 159.860411 
L 141.627806 161.655135 
L 142.055742 162.414988 
L 142.388581 162.613419 
L 142.658022 162.527979 
L 142.959162 162.178857 
L 143.33955 161.368669 
L 143.830883 159.744758 
L 144.449013 156.854249 
L 145.225637 152.059349 
L 146.224154 144.392111 
L 147.714005 131.003715 
L 150.852201 102.503952 
L 152.183557 92.639798 
L 153.324719 85.689267 
L 154.243989 81.349272 
L 155.020613 78.672312 
L 155.654592 77.20443 
L 156.177625 76.495511 
L 156.60556 76.258123 
L 156.954249 76.295457 
L 157.191991 76.610015 
L 157.508981 77.471891 
L 157.921067 79.3106 
L 158.459949 82.836674 
L 159.157326 89.016635 
L 160.108295 99.638955 
L 162.089479 125.072156 
L 163.515932 141.776243 
L 164.514449 151.027497 
L 165.322772 156.621477 
L 166.004299 159.916796 
L 166.559031 161.62303 
L 167.018666 162.394523 
L 167.367354 162.609423 
L 167.668494 162.543246 
L 167.985484 162.227878 
L 168.381721 161.491183 
L 168.888904 160.020487 
L 169.507033 157.487629 
L 170.283658 153.286998 
L 171.266325 146.644317 
L 172.62938 135.740513 
L 177.368373 96.498151 
L 178.66803 87.989099 
L 179.682397 82.713992 
L 180.522419 79.441675 
L 181.203946 77.597488 
L 181.758678 76.665927 
L 182.202463 76.301179 
L 182.582851 76.253994 
L 182.804743 76.426263 
L 183.090034 76.981006 
L 183.470421 78.280566 
L 183.961755 80.843276 
L 184.595734 85.459048 
L 185.419907 93.251124 
L 186.624467 107.02039 
L 189.524921 140.840442 
L 190.570986 150.150944 
L 191.426858 155.929335 
L 192.140084 159.373584 
L 192.758214 161.325467 
L 193.265397 162.264311 
L 193.661634 162.585807 
L 193.978623 162.587381 
L 194.311462 162.349971 
L 194.707699 161.757322 
L 195.199033 160.57415 
L 195.801313 158.489498 
L 196.546238 155.037452 
L 197.465508 149.641853 
L 198.670068 141.123645 
L 200.572005 125.828308 
L 204.534374 93.959948 
L 205.691386 86.768347 
L 206.658204 82.0735 
L 207.466527 79.170591 
L 208.148054 77.485166 
L 208.702786 76.639197 
L 209.162421 76.297199 
L 209.511109 76.273643 
L 209.748851 76.508915 
L 210.065841 77.191588 
L 210.477927 78.68118 
L 211.00096 81.4798 
L 211.682487 86.465265 
L 212.570058 94.7647 
L 213.917263 109.757592 
L 216.500728 138.650069 
L 217.610191 148.485174 
L 218.529461 154.780915 
L 219.290236 158.588083 
L 219.971763 160.882967 
L 220.526495 162.046335 
L 220.97028 162.521096 
L 221.334818 162.611086 
L 221.667657 162.460863 
L 222.048044 162.023578 
L 222.507679 161.128973 
L 223.07826 159.487073 
L 223.775637 156.738378 
L 224.615659 152.462618 
L 225.677574 145.807191 
L 227.088177 135.426049 
L 229.402201 116.531323 
L 231.351686 100.259084 
L 232.651343 91.177584 
L 233.729108 85.1291 
L 234.648377 81.16899 
L 235.425001 78.726403 
L 236.090679 77.298427 
L 236.661261 76.558819 
L 237.136745 76.276943 
L 237.453734 76.296483 
L 237.707326 76.58492 
L 238.040165 77.343598 
L 238.468101 78.922672 
L 239.022832 81.901295 
L 239.736059 87.078504 
L 240.671178 95.667456 
L 242.11348 111.272505 
L 244.554299 137.578619 
L 245.711311 147.629603 
L 246.662279 154.080497 
L 247.438904 157.968328 
L 248.15213 160.469756 
L 248.75441 161.842155 
L 249.229894 162.44083 
L 249.610282 162.612344 
L 249.95897 162.531817 
L 250.339358 162.188566 
L 250.783143 161.458919 
L 251.322025 160.112884 
L 251.971854 157.854592 
L 252.764327 154.238747 
L 253.731145 148.710747 
L 254.951555 140.346864 
L 256.758395 126.223363 
L 258.43844 111.690339 
L 260.118484 98.384099 
L 261.370593 90.13276 
L 262.416658 84.615848 
L 263.320078 80.955176 
L 264.112552 78.612541 
L 264.794079 77.245867 
L 265.36466 76.553393 
L 265.855994 76.277373 
L 266.204683 76.290896 
L 266.474124 76.584246 
L 266.822812 77.361479 
L 267.266597 78.967391 
L 267.837179 81.965966 
L 268.550405 87.001746 
L 269.501373 95.463856 
L 270.959525 110.745095 
L 273.511291 137.443044 
L 274.700001 147.467319 
L 275.666819 153.857769 
L 276.427594 157.574418 
L 277.17252 160.222201 
L 277.790649 161.687216 
L 278.297832 162.381375 
L 278.709919 162.605996 
L 279.058607 162.559097 
L 279.423145 162.279896 
L 279.86693 161.627327 
L 280.389963 160.428669 
L 281.023942 158.378483 
L 281.784717 155.111203 
L 282.703986 150.111433 
L 283.845149 142.574741 
L 285.382548 130.786618 
L 287.347883 114.018262 
L 289.138873 99.847962 
L 290.43853 91.231047 
L 291.532144 85.387159 
L 292.467263 81.514527 
L 293.291436 78.989527 
L 294.004662 77.475124 
L 294.606942 76.670921 
L 295.129975 76.314245 
L 295.57376 76.264808 
L 295.827352 76.47394 
L 296.144342 77.058797 
L 296.556428 78.333614 
L 297.079461 80.732775 
L 297.745139 84.913189 
L 298.60101 91.815601 
L 299.80557 103.539473 
L 303.625294 142.03177 
L 304.718908 150.248854 
L 305.590629 155.279425 
L 306.446501 158.886766 
L 307.143877 160.956528 
L 307.730308 162.062839 
L 308.189943 162.515734 
L 308.57033 162.613096 
L 308.934868 162.470775 
L 309.331105 162.056278 
L 309.806589 161.206654 
L 310.37717 159.692634 
L 311.058698 157.207477 
L 311.882871 153.287447 
L 312.865538 147.454856 
L 314.101797 138.671359 
L 315.750143 125.239978 
L 318.444553 103.212689 
L 319.855157 93.507937 
L 321.012168 87.00617 
L 322.010685 82.594487 
L 322.882406 79.695195 
L 323.627332 77.925363 
L 324.27716 76.905365 
L 324.831892 76.409808 
L 325.323226 76.248795 
L 325.608516 76.34121 
L 325.893807 76.716827 
L 326.258345 77.599811 
L 326.733829 79.39445 
L 327.336109 82.622306 
L 328.096884 88.012746 
L 329.11125 96.951156 
L 330.743746 113.639085 
L 333.026071 136.545341 
L 334.24648 146.598823 
L 335.244997 153.114429 
L 336.180116 157.531971 
L 336.956741 160.206913 
L 337.59072 161.672224 
L 338.113752 162.376089 
L 338.525839 162.603161 
L 338.890377 162.56183 
L 339.270764 162.276413 
L 339.714549 161.632819 
L 340.237582 160.451485 
L 340.871561 158.42408 
L 341.616486 155.249937 
L 342.519906 150.349489 
L 343.61352 143.093947 
L 345.039973 132.000088 
L 349.034041 99.969563 
L 350.365397 91.420496 
L 351.47486 85.651234 
L 352.441678 81.729479 
L 353.2817 79.185632 
L 354.010776 77.627666 
L 354.644755 76.753686 
L 355.199487 76.341499 
L 355.674971 76.252127 
L 355.928563 76.41202 
L 356.245552 76.921233 
L 356.657638 78.07644 
L 357.180671 80.294297 
L 357.8305 84.102198 
L 358.670522 90.469771 
L 359.811684 101.001114 
L 364.344634 144.778035 
L 365.390699 151.904425 
L 366.325818 156.826079 
L 367.086593 159.741316 
L 367.736422 161.430389 
L 367.815669 161.585631 
L 367.815669 161.585631 
" clip-path="url(#p9f18674ac2)" style="fill: none; stroke: #009afa; stroke-width: 6"/>
   </g>
   <g id="matplotlib.axis_1"/>
   <g id="matplotlib.axis_2">
    <g id="ytick_1">
     <g id="line2d_2">
      <defs>
       <path id="m54cbcda2a4" d="M 0 0 
L 5 0 
" style="stroke: #000000"/>
      </defs>
      <g>
       <use xlink:href="#m54cbcda2a4" x="41.316477" y="162.614695" style="stroke: #000000"/>
      </g>
     </g>
     <g id="text_1">
      <!-- $-1$ -->
      <g transform="translate(1.976477 173.252508) scale(0.28 -0.28)">
       <defs>
        <path id="Cmsy10-a1" d="M 653 1472 
Q 600 1472 565 1512 
Q 531 1553 531 1600 
Q 531 1647 565 1687 
Q 600 1728 653 1728 
L 4325 1728 
Q 4375 1728 4408 1687 
Q 4441 1647 4441 1600 
Q 4441 1553 4408 1512 
Q 4375 1472 4325 1472 
L 653 1472 
z
" transform="scale(0.015625)"/>
        <path id="Cmr10-31" d="M 594 0 
L 594 225 
Q 1394 225 1394 428 
L 1394 3788 
Q 1063 3628 556 3628 
L 556 3853 
Q 1341 3853 1741 4263 
L 1831 4263 
Q 1853 4263 1873 4245 
Q 1894 4228 1894 4206 
L 1894 428 
Q 1894 225 2694 225 
L 2694 0 
L 594 0 
z
" transform="scale(0.015625)"/>
       </defs>
       <use xlink:href="#Cmsy10-a1" transform="translate(0 0.390625)"/>
       <use xlink:href="#Cmr10-31" transform="translate(77.685547 0.390625)"/>
      </g>
     </g>
    </g>
    <g id="ytick_2">
     <g id="line2d_3">
      <g>
       <use xlink:href="#m54cbcda2a4" x="41.316477" y="119.430898" style="stroke: #000000"/>
      </g>
     </g>
     <g id="text_2">
      <!-- $0$ -->
      <g transform="translate(23.816477 130.068711) scale(0.28 -0.28)">
       <defs>
        <path id="Cmr10-30" d="M 1600 -141 
Q 816 -141 533 504 
Q 250 1150 250 2041 
Q 250 2597 351 3087 
Q 453 3578 754 3920 
Q 1056 4263 1600 4263 
Q 2022 4263 2290 4056 
Q 2559 3850 2700 3523 
Q 2841 3197 2892 2823 
Q 2944 2450 2944 2041 
Q 2944 1491 2842 1011 
Q 2741 531 2444 195 
Q 2147 -141 1600 -141 
z
M 1600 25 
Q 1956 25 2131 390 
Q 2306 756 2347 1200 
Q 2388 1644 2388 2144 
Q 2388 2625 2347 3031 
Q 2306 3438 2132 3767 
Q 1959 4097 1600 4097 
Q 1238 4097 1063 3765 
Q 888 3434 847 3029 
Q 806 2625 806 2144 
Q 806 1788 823 1472 
Q 841 1156 916 820 
Q 991 484 1158 254 
Q 1325 25 1600 25 
z
" transform="scale(0.015625)"/>
       </defs>
       <use xlink:href="#Cmr10-30" transform="translate(0 0.390625)"/>
      </g>
     </g>
    </g>
    <g id="ytick_3">
     <g id="line2d_4">
      <g>
       <use xlink:href="#m54cbcda2a4" x="41.316477" y="76.247101" style="stroke: #000000"/>
      </g>
     </g>
     <g id="text_3">
      <!-- $1$ -->
      <g transform="translate(23.816477 86.884913) scale(0.28 -0.28)">
       <use xlink:href="#Cmr10-31" transform="translate(0 0.390625)"/>
      </g>
     </g>
    </g>
    <g id="ytick_4">
     <g id="line2d_5">
      <g>
       <use xlink:href="#m54cbcda2a4" x="41.316477" y="33.063304" style="stroke: #000000"/>
      </g>
     </g>
     <g id="text_4">
      <!-- $2$ -->
      <g transform="translate(23.816477 43.701116) scale(0.28 -0.28)">
       <defs>
        <path id="Cmr10-32" d="M 319 0 
L 319 172 
Q 319 188 331 206 
L 1325 1306 
Q 1550 1550 1690 1715 
Q 1831 1881 1968 2097 
Q 2106 2313 2186 2536 
Q 2266 2759 2266 3009 
Q 2266 3272 2169 3511 
Q 2072 3750 1880 3894 
Q 1688 4038 1416 4038 
Q 1138 4038 916 3870 
Q 694 3703 603 3438 
Q 628 3444 672 3444 
Q 816 3444 917 3347 
Q 1019 3250 1019 3097 
Q 1019 2950 917 2848 
Q 816 2747 672 2747 
Q 522 2747 420 2851 
Q 319 2956 319 3097 
Q 319 3338 409 3548 
Q 500 3759 670 3923 
Q 841 4088 1055 4175 
Q 1269 4263 1509 4263 
Q 1875 4263 2190 4108 
Q 2506 3953 2690 3670 
Q 2875 3388 2875 3009 
Q 2875 2731 2753 2481 
Q 2631 2231 2440 2026 
Q 2250 1822 1953 1562 
Q 1656 1303 1563 1216 
L 838 519 
L 1453 519 
Q 1906 519 2211 526 
Q 2516 534 2534 550 
Q 2609 631 2688 1141 
L 2875 1141 
L 2694 0 
L 319 0 
z
" transform="scale(0.015625)"/>
       </defs>
       <use xlink:href="#Cmr10-32" transform="translate(0 0.390625)"/>
      </g>
     </g>
    </g>
   </g>
   <g id="line2d_6">
    <path d="M 50.826162 11.471405 
L 53.568121 20.417719 
L 56.32593 28.668361 
L 59.099588 36.273971 
L 61.889096 43.282425 
L 64.742001 49.84177 
L 67.547358 55.738072 
L 69.259102 59.088801 
L 69.274951 15.958622 
L 69.385898 16.319484 
L 72.222954 25.154147 
L 74.949063 32.929382 
L 77.801969 40.385138 
L 80.528079 46.902505 
L 83.428533 53.256129 
L 86.23389 58.875582 
L 88.880752 63.727804 
L 88.896602 20.582002 
L 89.007548 20.926148 
L 91.892153 29.499366 
L 94.665811 37.062508 
L 97.360222 43.77378 
L 100.244826 50.374384 
L 103.034334 56.212581 
L 105.85554 61.596621 
L 108.755994 66.669151 
L 109.897157 68.537342 
L 109.913006 25.409929 
L 110.023952 25.736903 
L 112.940256 33.974382 
L 115.761462 41.288201 
L 118.455873 47.6687 
L 121.419725 54.080547 
L 124.28848 59.765631 
L 127.046289 64.746943 
L 130.02599 69.66084 
L 132.514358 73.426172 
L 132.530207 30.297256 
L 132.641154 30.60698 
L 135.589156 38.495062 
L 138.426212 45.464366 
L 141.168171 51.620402 
L 143.92598 57.263169 
L 146.873983 62.815317 
L 149.711039 67.694398 
L 152.516396 72.079475 
L 155.511947 76.359337 
L 156.811604 78.091885 
L 156.827453 34.951846 
L 156.938399 35.245152 
L 159.918101 42.795557 
L 162.786856 49.469155 
L 165.544665 55.333749 
L 168.254925 60.579517 
L 171.250476 65.910186 
L 174.13508 70.598427 
L 176.940437 74.740221 
L 180.015236 78.88108 
L 182.519453 81.968588 
L 182.535302 38.824611 
L 182.646248 39.104468 
L 185.62595 46.308677 
L 188.510554 52.709956 
L 191.284213 58.333422 
L 193.994473 63.332818 
L 197.005873 68.440397 
L 199.922177 72.955809 
L 202.743383 76.919906 
L 205.86573 80.916613 
L 208.908829 84.455371 
L 209.400163 84.993735 
L 209.416012 41.86121 
L 209.526959 42.130451 
L 212.52251 49.097801 
L 215.407114 55.256365 
L 218.196622 60.697981 
L 220.906882 65.504978 
L 223.949981 70.461863 
L 226.882134 74.821272 
L 229.71919 78.648191 
L 232.904935 82.555126 
L 235.995583 85.998311 
L 237.29524 87.344108 
L 237.311089 44.205899 
L 237.422035 44.466986 
L 240.417586 51.223531 
L 243.31804 57.227501 
L 246.123397 62.530969 
L 248.849507 67.214139 
L 251.892606 72.013991 
L 254.840609 76.256959 
L 257.677665 79.959719 
L 260.895108 83.776632 
L 264.033304 87.158673 
L 266.046188 89.150767 
L 266.062037 46.000218 
L 266.172984 46.255071 
L 269.184384 52.883769 
L 272.084838 58.741677 
L 274.890195 63.915963 
L 277.616305 68.485074 
L 280.675254 73.191518 
L 283.639105 77.350281 
L 286.492011 80.977266 
L 289.741153 84.730748 
L 292.911049 88.057114 
L 295.462814 90.494056 
L 295.478664 47.329474 
L 295.58961 47.579707 
L 298.60101 54.088289 
L 301.517314 59.870164 
L 304.322671 64.948159 
L 307.06463 69.45725 
L 310.123579 74.074163 
L 313.087431 78.153512 
L 315.940336 81.710837 
L 319.205328 85.410021 
L 322.391073 88.687283 
L 325.370774 91.45596 
L 325.386624 48.293999 
L 325.49757 48.54089 
L 328.50897 54.962506 
L 331.425274 60.66706 
L 334.24648 65.704053 
L 336.98844 70.150468 
L 340.063238 74.726081 
L 343.042939 78.767224 
L 345.911694 82.289555 
L 349.176686 85.932699 
L 352.362431 89.159676 
L 355.484777 92.00905 
L 355.611573 92.11852 
L 355.627423 48.952926 
L 355.738369 49.197529 
L 358.749769 55.559631 
L 361.666073 61.211336 
L 364.487279 66.201688 
L 367.292636 70.71375 
L 367.815669 71.511156 
L 367.815669 71.511156 
" clip-path="url(#p9f18674ac2)" style="fill: none; stroke: #3ea44e; stroke-width: 6"/>
   </g>
   <g id="patch_3">
    <path d="M 41.316477 175.569834 
L 41.316477 2.834646 
" style="fill: none; stroke: #000000; stroke-width: 2; stroke-linejoin: miter; stroke-linecap: square"/>
   </g>
   <g id="patch_4">
    <path d="M 41.316477 175.569834 
L 377.325354 175.569834 
" style="fill: none; stroke: #000000; stroke-width: 2; stroke-linejoin: miter; stroke-linecap: square"/>
   </g>
   <g id="line2d_7">
    <path d="M 50.826162 33.063304 
L 69.274951 37.550521 
L 88.896602 42.1739 
L 109.913006 47.001828 
L 132.530207 51.889155 
L 156.827453 56.543744 
L 182.535302 60.41651 
L 209.416012 63.453109 
L 237.311089 65.797797 
L 266.062037 67.592116 
L 295.478664 68.921372 
L 325.386624 69.885897 
L 355.627423 70.544825 
" clip-path="url(#p9f18674ac2)" style="fill: none; stroke: #3ea44e; stroke-opacity: 0.5; stroke-width: 4"/>
   </g>
  </g>
 </g>
 <defs>
  <clipPath id="p9f18674ac2">
   <rect x="41.316477" y="2.834646" width="336.008878" height="172.735189"/>
  </clipPath>
 </defs>
</svg>
