<?xml version="1.0" encoding="utf-8" standalone="no"?>
<!DOCTYPE svg PUBLIC "-//W3C//DTD SVG 1.1//EN"
  "http://www.w3.org/Graphics/SVG/1.1/DTD/svg11.dtd">
<svg xmlns:xlink="http://www.w3.org/1999/xlink" width="838.08pt" height="141.12pt" viewBox="0 0 838.08 141.12" xmlns="http://www.w3.org/2000/svg" version="1.1">
 <metadata>
  <rdf:RDF xmlns:dc="http://purl.org/dc/elements/1.1/" xmlns:cc="http://creativecommons.org/ns#" xmlns:rdf="http://www.w3.org/1999/02/22-rdf-syntax-ns#">
   <cc:Work>
    <dc:type rdf:resource="http://purl.org/dc/dcmitype/StillImage"/>
    <dc:date>2024-04-27T16:44:16.754865</dc:date>
    <dc:format>image/svg+xml</dc:format>
    <dc:creator>
     <cc:Agent>
      <dc:title>Matplotlib v3.7.0, https://matplotlib.org/</dc:title>
     </cc:Agent>
    </dc:creator>
   </cc:Work>
  </rdf:RDF>
 </metadata>
 <defs>
  <style type="text/css">*{stroke-linejoin: round; stroke-linecap: butt}</style>
 </defs>
 <g id="figure_1">
  <g id="patch_1">
   <path d="M 0 141.12 
L 838.08 141.12 
L 838.08 0 
L 0 0 
L 0 141.12 
z
" style="fill: none"/>
  </g>
  <g id="axes_1">
   <g id="patch_2">
    <path d="M 41.316477 107.425354 
L 828.585643 107.425354 
L 828.585643 2.834646 
L 41.316477 2.834646 
L 41.316477 107.425354 
z
" style="fill: none"/>
   </g>
   <g id="line2d_1">
    <path d="M 63.59768 32.30684 
L 64.303251 32.420064 
L 65.045958 32.778106 
L 65.8258 33.406854 
L 66.717048 34.425798 
L 67.719702 35.929603 
L 68.870898 38.08118 
L 70.20777 41.081813 
L 71.767454 45.156145 
L 73.735627 50.962002 
L 76.446507 59.720075 
L 82.425296 79.219313 
L 84.801958 86.116035 
L 86.77013 91.171583 
L 88.552627 95.133137 
L 90.149446 98.159437 
L 91.560589 100.378055 
L 92.823191 101.974727 
L 94.011521 103.127538 
L 95.088446 103.870174 
L 96.0911 104.295598 
L 97.056619 104.460955 
L 97.985003 104.393803 
L 98.913386 104.106265 
L 99.878905 103.576319 
L 100.918694 102.747463 
L 102.06989 101.527401 
L 103.332491 99.850814 
L 104.743634 97.593299 
L 106.340454 94.603648 
L 108.197221 90.633198 
L 110.425341 85.315479 
L 113.507574 77.30533 
L 120.897506 57.893281 
L 123.534115 51.70785 
L 125.762235 47.020541 
L 127.767544 43.298239 
L 129.624311 40.310775 
L 131.332536 37.973103 
L 132.929356 36.153652 
L 134.451905 34.75108 
L 135.900183 33.716316 
L 137.27419 33.000507 
L 138.611062 32.548069 
L 139.947935 32.330265 
L 141.024859 32.358624 
L 141.730431 32.628893 
L 142.473138 33.155356 
L 143.32725 34.054037 
L 144.255634 35.366133 
L 145.332559 37.291848 
L 146.558025 39.955996 
L 148.006303 43.660389 
L 149.788799 48.874725 
L 152.165461 56.57821 
L 159.109769 79.511861 
L 161.523566 86.553779 
L 163.491739 91.632074 
L 165.199964 95.44648 
L 166.722513 98.323951 
L 168.096521 100.466858 
L 169.359122 102.03966 
L 170.510318 103.134759 
L 171.587243 103.863394 
L 172.589897 104.284559 
L 173.555415 104.457362 
L 174.483799 104.403314 
L 175.412182 104.122614 
L 176.377701 103.595399 
L 177.417491 102.767371 
L 178.568686 101.548487 
L 179.831288 99.866265 
L 181.205295 97.654457 
L 182.764979 94.708472 
L 184.547476 90.849089 
L 186.66419 85.706071 
L 189.635017 77.834297 
L 197.247761 57.401313 
L 199.772964 51.392777 
L 201.963949 46.733046 
L 203.969257 42.982128 
L 205.788889 40.034524 
L 207.459979 37.737511 
L 209.019663 35.958217 
L 210.505077 34.594712 
L 211.91622 33.598109 
L 213.253092 32.919361 
L 214.552829 32.502176 
L 215.852565 32.317878 
L 216.780949 32.375834 
L 217.48652 32.674401 
L 218.229227 33.23561 
L 219.08334 34.180129 
L 220.048859 35.610313 
L 221.125783 37.62317 
L 222.388385 40.483311 
L 223.873798 44.435575 
L 225.69343 49.951883 
L 228.218633 58.392119 
L 234.345964 79.138769 
L 236.759761 86.260588 
L 238.727934 91.405447 
L 240.436159 95.275131 
L 241.958708 98.197868 
L 243.332716 100.377142 
L 244.595317 101.978844 
L 245.746513 103.096057 
L 246.823437 103.841445 
L 247.826092 104.274629 
L 248.754475 104.439469 
L 249.8314 104.433364 
L 250.796919 104.207595 
L 251.688167 103.773338 
L 252.579415 103.084589 
L 253.470663 102.104913 
L 254.399046 100.737246 
L 255.364565 98.900414 
L 256.404355 96.410048 
L 257.481279 93.237052 
L 260.89773 82.530472 
L 264.09137 72.122632 
L 268.918964 56.457858 
L 271.221354 49.779937 
L 273.115257 44.935391 
L 274.786347 41.240325 
L 276.308896 38.396367 
L 277.682903 36.283596 
L 278.945505 34.734348 
L 280.0967 33.654152 
L 281.173625 32.931349 
L 282.213415 32.495534 
L 283.216069 32.315594 
L 283.92164 32.382538 
L 284.515805 32.686072 
L 285.184242 33.296907 
L 285.926948 34.296234 
L 286.781061 35.838853 
L 287.783715 38.144101 
L 288.934911 41.375921 
L 290.308918 45.920767 
L 292.054279 52.508984 
L 294.765159 63.740407 
L 298.590099 79.446599 
L 300.595407 86.726483 
L 302.266497 91.98721 
L 303.714775 95.851924 
L 305.014512 98.726062 
L 306.165708 100.77622 
L 307.316903 102.332395 
L 308.356692 103.382157 
L 309.285076 104.024817 
L 310.176324 104.375049 
L 310.993301 104.464131 
L 311.810279 104.330588 
L 312.664392 103.953696 
L 313.55564 103.304395 
L 314.521159 102.311243 
L 315.560948 100.914146 
L 316.712144 98.987506 
L 318.01188 96.361154 
L 319.497294 92.824578 
L 321.205519 88.14234 
L 323.247963 81.850825 
L 326.033113 72.476905 
L 331.083519 55.390091 
L 333.274504 48.880492 
L 335.094136 44.140877 
L 336.690955 40.570001 
L 338.139234 37.85426 
L 339.43897 35.864821 
L 340.627301 34.428162 
L 341.741361 33.417542 
L 342.781151 32.768383 
L 343.74667 32.417955 
L 344.675053 32.311337 
L 345.232083 32.465316 
L 345.826249 32.866054 
L 346.494685 33.598168 
L 347.274527 34.810137 
L 348.165775 36.63492 
L 349.205564 39.300113 
L 350.43103 43.082924 
L 351.953579 48.557184 
L 353.996023 56.81112 
L 360.23476 82.598363 
L 362.054391 88.892869 
L 363.614075 93.521223 
L 364.988083 96.945578 
L 366.250684 99.525698 
L 367.40188 101.392614 
L 368.51594 102.747333 
L 369.518594 103.635201 
L 370.446978 104.173109 
L 371.30109 104.425345 
L 372.155203 104.445561 
L 373.009316 104.23578 
L 373.900564 103.775444 
L 374.828948 103.039695 
L 375.868737 101.915237 
L 376.982797 100.37372 
L 378.245399 98.231067 
L 379.656542 95.380129 
L 381.290496 91.547442 
L 383.184399 86.510782 
L 385.56106 79.52333 
L 389.720218 66.459117 
L 395.104842 49.834539 
L 396.998744 44.950517 
L 398.669835 41.22644 
L 400.192383 38.362863 
L 401.566391 36.239293 
L 402.828992 34.686751 
L 403.980188 33.609607 
L 405.057113 32.895209 
L 406.059767 32.483391 
L 407.062421 32.312543 
L 407.619451 32.386555 
L 408.213616 32.696814 
L 408.882053 33.316534 
L 409.624759 34.32595 
L 410.478872 35.878457 
L 411.481526 38.190119 
L 412.669857 41.53195 
L 414.081 46.201911 
L 415.900631 53.047843 
L 418.982864 65.675174 
L 422.250774 78.748159 
L 424.256082 85.884969 
L 425.964308 91.175738 
L 427.449722 95.094099 
L 428.823729 98.113433 
L 430.049195 100.292552 
L 431.274661 101.976305 
L 432.388722 103.136723 
L 433.391376 103.873479 
L 434.319759 104.293565 
L 435.211007 104.459727 
L 436.102255 104.395195 
L 436.993503 104.103019 
L 437.921887 103.561424 
L 438.924541 102.712148 
L 440.038601 101.458824 
L 441.264067 99.72321 
L 442.600939 97.433136 
L 444.123488 94.36863 
L 445.868849 90.336222 
L 447.948428 84.945596 
L 450.659308 77.255397 
L 453.518729 68.540882 
L 457.232263 56.973181 
L 459.608924 50.279877 
L 461.577097 45.373231 
L 463.322458 41.599779 
L 464.882142 38.736817 
L 466.293285 36.586329 
L 467.593022 34.988054 
L 468.818488 33.822498 
L 469.969684 33.030444 
L 471.046608 32.553409 
L 472.086398 32.331484 
L 472.86624 32.355326 
L 473.460405 32.61193 
L 474.128841 33.156586 
L 474.871548 34.066005 
L 475.725661 35.484695 
L 476.728315 37.618366 
L 477.879511 40.622606 
L 479.253518 44.861909 
L 480.998879 51.029457 
L 483.561217 61.013514 
L 488.054593 78.538045 
L 490.134172 85.6938 
L 491.879533 90.929671 
L 493.402082 94.834092 
L 494.813225 97.862596 
L 495.96442 99.859676 
L 497.227022 101.630245 
L 498.378217 102.879453 
L 499.418007 103.700565 
L 500.383525 104.198314 
L 501.311909 104.435382 
L 502.203157 104.440719 
L 503.094405 104.230231 
L 504.022789 103.784889 
L 505.025443 103.050524 
L 506.102368 101.97776 
L 507.290698 100.467242 
L 508.590435 98.445229 
L 510.038713 95.77257 
L 511.709804 92.198601 
L 513.640841 87.515236 
L 516.017503 81.127174 
L 518.542706 73.72892 
L 523.853059 57.379797 
L 526.266856 50.706024 
L 528.272164 45.782915 
L 530.054661 41.974257 
L 531.65148 39.064903 
L 533.099758 36.862511 
L 534.43663 35.210579 
L 535.699232 33.991677 
L 536.887563 33.148173 
L 538.001623 32.622964 
L 539.078548 32.355924 
L 540.044066 32.33311 
L 540.675367 32.565977 
L 541.343803 33.067829 
L 542.08651 33.92052 
L 542.940623 35.263612 
L 543.906142 37.213526 
L 545.057337 40.07432 
L 546.394209 44.020467 
L 548.065299 49.690236 
L 550.404826 58.504367 
L 556.012262 79.903567 
L 558.01757 86.538037 
L 559.725796 91.464616 
L 561.248344 95.21738 
L 562.622352 98.043765 
L 563.996359 100.288862 
L 565.258961 101.944836 
L 566.410156 103.099766 
L 567.449946 103.843811 
L 568.415465 104.276473 
L 569.343848 104.456376 
L 570.272232 104.404862 
L 571.200615 104.1235 
L 572.166134 103.59033 
L 573.205923 102.747604 
L 574.319983 101.54501 
L 575.54545 99.879295 
L 576.882322 97.676334 
L 578.404871 94.716556 
L 580.113096 90.888521 
L 582.118404 85.821822 
L 584.606472 78.893682 
L 586.686051 72.542629 
L 591.55078 57.693695 
L 594.001713 50.943745 
L 596.044156 45.946145 
L 597.826652 42.145274 
L 599.460607 39.170821 
L 600.946021 36.916663 
L 602.320028 35.226479 
L 603.58263 34.013359 
L 604.770961 33.169913 
L 605.885021 32.640044 
L 606.961946 32.364253 
L 607.9646 32.324235 
L 608.5959 32.534445 
L 609.264337 33.010081 
L 610.007043 33.831396 
L 610.861156 35.136143 
L 611.826675 37.040787 
L 612.940735 39.747737 
L 614.277607 43.614042 
L 615.911562 49.063998 
L 618.139682 57.342045 
L 624.378419 80.94491 
L 626.346592 87.31076 
L 628.054818 92.108509 
L 629.577366 95.745285 
L 630.877103 98.316472 
L 632.251111 100.510826 
L 633.476577 102.075945 
L 634.627772 103.195571 
L 635.667562 103.907438 
L 636.633081 104.310424 
L 637.561464 104.462355 
L 638.489848 104.383765 
L 639.418231 104.076552 
L 640.38375 103.51813 
L 641.423539 102.650437 
L 642.537599 101.424059 
L 643.763066 99.736179 
L 645.137073 97.44719 
L 646.659622 94.462091 
L 648.404983 90.527925 
L 650.447426 85.347335 
L 653.009765 78.203923 
L 655.237885 71.430177 
L 659.508449 58.721184 
L 661.996517 52.005773 
L 664.076095 47.000808 
L 665.932862 43.08831 
L 667.603953 40.059953 
L 669.163637 37.677221 
L 670.611915 35.85808 
L 671.948787 34.51742 
L 673.248524 33.523558 
L 674.47399 32.861364 
L 675.662321 32.467658 
L 676.850652 32.30983 
L 677.593359 32.391622 
L 678.261795 32.715481 
L 678.967366 33.311856 
L 679.784343 34.314619 
L 680.712727 35.836753 
L 681.752516 37.985872 
L 682.977983 41.054705 
L 684.426261 45.312371 
L 686.245892 51.403084 
L 688.882501 61.098563 
L 693.67296 78.758421 
L 695.82681 85.786202 
L 697.609306 90.883706 
L 699.206125 94.806656 
L 700.468727 97.379947 
L 701.917005 99.824134 
L 703.216742 101.60111 
L 704.405073 102.862653 
L 705.481997 103.695992 
L 706.484652 104.201324 
L 707.45017 104.43857 
L 708.378554 104.435116 
L 709.306937 104.205316 
L 710.272456 103.728501 
L 711.27511 102.980931 
L 712.352035 101.89865 
L 713.540366 100.380591 
L 714.840103 98.350544 
L 716.288381 95.665007 
L 717.922336 92.151053 
L 719.816238 87.524941 
L 722.081493 81.375718 
L 724.680967 73.675777 
L 729.694238 58.932817 
L 732.219441 52.214038 
L 734.336155 47.186779 
L 736.230057 43.245138 
L 737.938283 40.185385 
L 739.497967 37.82389 
L 740.983381 35.968086 
L 742.357388 34.595291 
L 743.657125 33.598755 
L 744.919726 32.907106 
L 746.145193 32.484276 
L 747.333523 32.313231 
L 748.150501 32.384378 
L 748.818937 32.694274 
L 749.524508 33.270152 
L 750.341486 34.242362 
L 751.269869 35.721856 
L 752.309659 37.814771 
L 753.535125 40.80856 
L 754.983403 44.969822 
L 756.765899 50.807965 
L 759.328238 60.052191 
L 764.601456 79.216179 
L 766.71817 85.986913 
L 768.537801 91.085878 
L 770.134621 94.92502 
L 771.322952 97.276407 
L 772.808365 99.767459 
L 774.145237 101.583493 
L 775.333568 102.839016 
L 776.410493 103.6738 
L 777.413147 104.185501 
L 778.378666 104.432623 
L 779.307049 104.441334 
L 780.235433 104.225521 
L 781.200952 103.764321 
L 782.203606 103.033158 
L 783.280531 101.96759 
L 784.468861 100.465485 
L 785.768598 98.448212 
L 787.216876 95.76914 
L 788.850831 92.250369 
L 790.707598 87.696698 
L 792.935718 81.607684 
L 802.850854 53.601787 
L 805.078974 48.266191 
L 806.30444 45.610752 
L 806.30444 45.610752 
" clip-path="url(#pc657dc15c3)" style="fill: none; stroke: #009afa; stroke-width: 6"/>
   </g>
   <g id="matplotlib.axis_1">
    <g id="xtick_1">
     <g id="line2d_2">
      <defs>
       <path id="mc2e8d1fd31" d="M 0 0 
L 0 -5 
" style="stroke: #000000"/>
      </defs>
      <g>
       <use xlink:href="#mc2e8d1fd31" x="63.59768" y="107.425354" style="stroke: #000000"/>
      </g>
     </g>
     <g id="text_1">
      <!-- $0.0$ -->
      <g transform="translate(45.67768 132.200979) scale(0.28 -0.28)">
       <defs>
        <path id="Cmr10-30" d="M 1600 -141 
Q 816 -141 533 504 
Q 250 1150 250 2041 
Q 250 2597 351 3087 
Q 453 3578 754 3920 
Q 1056 4263 1600 4263 
Q 2022 4263 2290 4056 
Q 2559 3850 2700 3523 
Q 2841 3197 2892 2823 
Q 2944 2450 2944 2041 
Q 2944 1491 2842 1011 
Q 2741 531 2444 195 
Q 2147 -141 1600 -141 
z
M 1600 25 
Q 1956 25 2131 390 
Q 2306 756 2347 1200 
Q 2388 1644 2388 2144 
Q 2388 2625 2347 3031 
Q 2306 3438 2132 3767 
Q 1959 4097 1600 4097 
Q 1238 4097 1063 3765 
Q 888 3434 847 3029 
Q 806 2625 806 2144 
Q 806 1788 823 1472 
Q 841 1156 916 820 
Q 991 484 1158 254 
Q 1325 25 1600 25 
z
" transform="scale(0.015625)"/>
        <path id="Cmmi10-3a" d="M 538 353 
Q 538 497 644 600 
Q 750 703 891 703 
Q 978 703 1062 656 
Q 1147 609 1194 525 
Q 1241 441 1241 353 
Q 1241 213 1137 106 
Q 1034 0 891 0 
Q 750 0 644 106 
Q 538 213 538 353 
z
" transform="scale(0.015625)"/>
       </defs>
       <use xlink:href="#Cmr10-30" transform="translate(0 0.390625)"/>
       <use xlink:href="#Cmmi10-3a" transform="translate(50 0.390625)"/>
       <use xlink:href="#Cmr10-30" transform="translate(77.685547 0.390625)"/>
      </g>
     </g>
    </g>
    <g id="xtick_2">
     <g id="line2d_3">
      <g>
       <use xlink:href="#mc2e8d1fd31" x="249.27437" y="107.425354" style="stroke: #000000"/>
      </g>
     </g>
     <g id="text_2">
      <!-- $2.5$ -->
      <g transform="translate(231.35437 132.200979) scale(0.28 -0.28)">
       <defs>
        <path id="Cmr10-32" d="M 319 0 
L 319 172 
Q 319 188 331 206 
L 1325 1306 
Q 1550 1550 1690 1715 
Q 1831 1881 1968 2097 
Q 2106 2313 2186 2536 
Q 2266 2759 2266 3009 
Q 2266 3272 2169 3511 
Q 2072 3750 1880 3894 
Q 1688 4038 1416 4038 
Q 1138 4038 916 3870 
Q 694 3703 603 3438 
Q 628 3444 672 3444 
Q 816 3444 917 3347 
Q 1019 3250 1019 3097 
Q 1019 2950 917 2848 
Q 816 2747 672 2747 
Q 522 2747 420 2851 
Q 319 2956 319 3097 
Q 319 3338 409 3548 
Q 500 3759 670 3923 
Q 841 4088 1055 4175 
Q 1269 4263 1509 4263 
Q 1875 4263 2190 4108 
Q 2506 3953 2690 3670 
Q 2875 3388 2875 3009 
Q 2875 2731 2753 2481 
Q 2631 2231 2440 2026 
Q 2250 1822 1953 1562 
Q 1656 1303 1563 1216 
L 838 519 
L 1453 519 
Q 1906 519 2211 526 
Q 2516 534 2534 550 
Q 2609 631 2688 1141 
L 2875 1141 
L 2694 0 
L 319 0 
z
" transform="scale(0.015625)"/>
        <path id="Cmr10-35" d="M 556 728 
Q 622 541 758 387 
Q 894 234 1080 148 
Q 1266 63 1466 63 
Q 1928 63 2103 422 
Q 2278 781 2278 1294 
Q 2278 1516 2270 1667 
Q 2263 1819 2228 1959 
Q 2169 2184 2020 2353 
Q 1872 2522 1656 2522 
Q 1441 2522 1286 2456 
Q 1131 2391 1034 2303 
Q 938 2216 863 2119 
Q 788 2022 769 2016 
L 697 2016 
Q 681 2016 657 2036 
Q 634 2056 634 2075 
L 634 4213 
Q 634 4228 654 4245 
Q 675 4263 697 4263 
L 716 4263 
Q 1147 4056 1631 4056 
Q 2106 4056 2547 4263 
L 2566 4263 
Q 2588 4263 2606 4247 
Q 2625 4231 2625 4213 
L 2625 4153 
Q 2625 4122 2613 4122 
Q 2394 3831 2064 3668 
Q 1734 3506 1381 3506 
Q 1125 3506 856 3578 
L 856 2369 
Q 1069 2541 1236 2614 
Q 1403 2688 1663 2688 
Q 2016 2688 2295 2484 
Q 2575 2281 2725 1954 
Q 2875 1628 2875 1288 
Q 2875 903 2686 575 
Q 2497 247 2172 53 
Q 1847 -141 1466 -141 
Q 1150 -141 886 21 
Q 622 184 470 459 
Q 319 734 319 1044 
Q 319 1188 412 1278 
Q 506 1369 647 1369 
Q 788 1369 883 1276 
Q 978 1184 978 1044 
Q 978 906 883 811 
Q 788 716 647 716 
Q 625 716 597 720 
Q 569 725 556 728 
z
" transform="scale(0.015625)"/>
       </defs>
       <use xlink:href="#Cmr10-32" transform="translate(0 0.390625)"/>
       <use xlink:href="#Cmmi10-3a" transform="translate(50 0.390625)"/>
       <use xlink:href="#Cmr10-35" transform="translate(77.685547 0.390625)"/>
      </g>
     </g>
    </g>
    <g id="xtick_3">
     <g id="line2d_4">
      <g>
       <use xlink:href="#mc2e8d1fd31" x="434.95106" y="107.425354" style="stroke: #000000"/>
      </g>
     </g>
     <g id="text_3">
      <!-- $5.0$ -->
      <g transform="translate(417.03106 132.200979) scale(0.28 -0.28)">
       <use xlink:href="#Cmr10-35" transform="translate(0 0.390625)"/>
       <use xlink:href="#Cmmi10-3a" transform="translate(50 0.390625)"/>
       <use xlink:href="#Cmr10-30" transform="translate(77.685547 0.390625)"/>
      </g>
     </g>
    </g>
    <g id="xtick_4">
     <g id="line2d_5">
      <g>
       <use xlink:href="#mc2e8d1fd31" x="620.62775" y="107.425354" style="stroke: #000000"/>
      </g>
     </g>
     <g id="text_4">
      <!-- $7.5$ -->
      <g transform="translate(602.70775 132.200979) scale(0.28 -0.28)">
       <defs>
        <path id="Cmr10-37" d="M 1113 166 
Q 1113 522 1175 862 
Q 1238 1203 1358 1536 
Q 1478 1869 1648 2189 
Q 1819 2509 2022 2791 
L 2606 3603 
L 1875 3603 
Q 738 3603 703 3572 
Q 619 3469 544 2981 
L 359 2981 
L 569 4325 
L 756 4325 
L 756 4306 
Q 756 4191 1147 4156 
Q 1538 4122 1913 4122 
L 3103 4122 
L 3103 3956 
Q 3103 3950 3101 3947 
Q 3100 3944 3097 3938 
L 2216 2700 
Q 1891 2219 1809 1631 
Q 1728 1044 1728 166 
Q 1728 41 1637 -50 
Q 1547 -141 1422 -141 
Q 1294 -141 1203 -50 
Q 1113 41 1113 166 
z
" transform="scale(0.015625)"/>
       </defs>
       <use xlink:href="#Cmr10-37" transform="translate(0 0.421875)"/>
       <use xlink:href="#Cmmi10-3a" transform="translate(50 0.421875)"/>
       <use xlink:href="#Cmr10-35" transform="translate(77.685547 0.421875)"/>
      </g>
     </g>
    </g>
    <g id="xtick_5">
     <g id="line2d_6">
      <g>
       <use xlink:href="#mc2e8d1fd31" x="806.30444" y="107.425354" style="stroke: #000000"/>
      </g>
     </g>
     <g id="text_5">
      <!-- $10.0$ -->
      <g transform="translate(781.38444 132.200979) scale(0.28 -0.28)">
       <defs>
        <path id="Cmr10-31" d="M 594 0 
L 594 225 
Q 1394 225 1394 428 
L 1394 3788 
Q 1063 3628 556 3628 
L 556 3853 
Q 1341 3853 1741 4263 
L 1831 4263 
Q 1853 4263 1873 4245 
Q 1894 4228 1894 4206 
L 1894 428 
Q 1894 225 2694 225 
L 2694 0 
L 594 0 
z
" transform="scale(0.015625)"/>
       </defs>
       <use xlink:href="#Cmr10-31" transform="translate(0 0.390625)"/>
       <use xlink:href="#Cmr10-30" transform="translate(50 0.390625)"/>
       <use xlink:href="#Cmmi10-3a" transform="translate(100 0.390625)"/>
       <use xlink:href="#Cmr10-30" transform="translate(127.685547 0.390625)"/>
      </g>
     </g>
    </g>
   </g>
   <g id="matplotlib.axis_2">
    <g id="ytick_1">
     <g id="line2d_7">
      <defs>
       <path id="m79718314eb" d="M 0 0 
L 5 0 
" style="stroke: #000000"/>
      </defs>
      <g>
       <use xlink:href="#m79718314eb" x="41.316477" y="104.46524" style="stroke: #000000"/>
      </g>
     </g>
     <g id="text_6">
      <!-- $-1$ -->
      <g transform="translate(1.976477 115.103052) scale(0.28 -0.28)">
       <defs>
        <path id="Cmsy10-a1" d="M 653 1472 
Q 600 1472 565 1512 
Q 531 1553 531 1600 
Q 531 1647 565 1687 
Q 600 1728 653 1728 
L 4325 1728 
Q 4375 1728 4408 1687 
Q 4441 1647 4441 1600 
Q 4441 1553 4408 1512 
Q 4375 1472 4325 1472 
L 653 1472 
z
" transform="scale(0.015625)"/>
       </defs>
       <use xlink:href="#Cmsy10-a1" transform="translate(0 0.390625)"/>
       <use xlink:href="#Cmr10-31" transform="translate(77.685547 0.390625)"/>
      </g>
     </g>
    </g>
    <g id="ytick_2">
     <g id="line2d_8">
      <g>
       <use xlink:href="#m79718314eb" x="41.316477" y="68.38604" style="stroke: #000000"/>
      </g>
     </g>
     <g id="text_7">
      <!-- $0$ -->
      <g transform="translate(23.816477 79.023852) scale(0.28 -0.28)">
       <use xlink:href="#Cmr10-30" transform="translate(0 0.390625)"/>
      </g>
     </g>
    </g>
    <g id="ytick_3">
     <g id="line2d_9">
      <g>
       <use xlink:href="#m79718314eb" x="41.316477" y="32.30684" style="stroke: #000000"/>
      </g>
     </g>
     <g id="text_8">
      <!-- $1$ -->
      <g transform="translate(23.816477 42.944652) scale(0.28 -0.28)">
       <use xlink:href="#Cmr10-31" transform="translate(0 0.390625)"/>
      </g>
     </g>
    </g>
   </g>
   <g id="line2d_10">
    <path d="M 63.59768 32.30684 
L 64.451792 32.420744 
L 65.305905 32.761737 
L 66.197153 33.357324 
L 67.162672 34.274127 
L 68.239597 35.620961 
L 69.427928 37.488056 
L 70.727664 39.961446 
L 72.213078 43.294347 
L 73.884168 47.612499 
L 75.889476 53.446017 
L 78.48895 61.747984 
L 85.878882 85.767327 
L 87.921326 91.427427 
L 89.629552 95.531738 
L 91.114965 98.547522 
L 92.414702 100.716032 
L 93.603033 102.285951 
L 94.679957 103.351393 
L 95.645476 104.008547 
L 96.536724 104.360158 
L 97.390837 104.465062 
L 98.24495 104.342159 
L 99.099063 103.992225 
L 99.990311 103.387431 
L 100.95583 102.460868 
L 102.032754 101.103504 
L 103.221085 99.225348 
L 104.520822 96.740686 
L 106.006236 93.396163 
L 107.714461 88.964517 
L 109.719769 83.109079 
L 112.356378 74.66725 
L 119.523499 51.343446 
L 121.565942 45.642514 
L 123.274168 41.495739 
L 124.759581 38.437754 
L 126.096453 36.17261 
L 127.284784 34.576245 
L 128.361709 33.485877 
L 129.327228 32.80581 
L 130.218476 32.432743 
L 131.072589 32.307141 
L 131.926702 32.409345 
L 132.780814 32.738709 
L 133.672062 33.322318 
L 134.637581 34.226419 
L 135.714506 35.559545 
L 136.902837 37.412233 
L 138.202574 39.870934 
L 139.650852 43.099591 
L 141.321942 47.390678 
L 143.290115 53.085826 
L 145.852453 61.236204 
L 153.576604 86.291321 
L 155.581912 91.791739 
L 157.253002 95.761902 
L 158.738416 98.738909 
L 160.038152 100.870465 
L 161.226483 102.40461 
L 162.266273 103.406595 
L 163.231791 104.043798 
L 164.12304 104.376737 
L 164.977152 104.463638 
L 165.831265 104.32274 
L 166.685378 103.954935 
L 167.613761 103.30053 
L 168.616415 102.301442 
L 169.69334 100.9 
L 170.881671 98.975593 
L 172.218543 96.365306 
L 173.703957 92.959739 
L 175.412182 88.468251 
L 177.454626 82.443881 
L 180.202641 73.581834 
L 186.701325 52.360882 
L 188.818039 46.344562 
L 190.5634 42.015709 
L 192.085949 38.802824 
L 193.422821 36.468717 
L 194.648287 34.761768 
L 195.725212 33.621718 
L 196.727866 32.873709 
L 197.65625 32.456471 
L 198.510363 32.309277 
L 199.364475 32.389876 
L 200.218588 32.697759 
L 201.109836 33.259229 
L 202.075355 34.139842 
L 203.115145 35.396918 
L 204.26634 37.148095 
L 205.566077 39.554487 
L 207.014355 42.730336 
L 208.64831 46.868658 
L 210.579347 52.391354 
L 213.03028 60.117899 
L 221.534272 87.555275 
L 223.46531 92.70968 
L 225.099265 96.465221 
L 226.547543 99.254724 
L 227.810144 101.231322 
L 228.96134 102.639365 
L 230.001129 103.573942 
L 230.966648 104.147137 
L 231.857896 104.420238 
L 232.712009 104.449509 
L 233.566122 104.251071 
L 234.45737 103.802604 
L 235.385753 103.076604 
L 236.388407 102.002086 
L 237.502468 100.465679 
L 238.727934 98.3785 
L 240.101941 95.576488 
L 241.661625 91.860672 
L 243.444122 87.0146 
L 245.635107 80.372524 
L 248.79161 70.006345 
L 253.619204 54.192612 
L 255.847325 47.66814 
L 257.666956 42.986646 
L 259.22664 39.547674 
L 260.600648 37.018469 
L 261.863249 35.145019 
L 262.977309 33.871935 
L 263.979964 33.042736 
L 264.908347 32.548995 
L 265.799595 32.326468 
L 266.653708 32.345832 
L 267.507821 32.592758 
L 268.399069 33.091334 
L 269.327452 33.868635 
L 270.367242 35.044537 
L 271.481302 36.650221 
L 272.743903 38.880893 
L 274.155046 41.853834 
L 275.751866 45.765919 
L 277.608633 50.935267 
L 279.911024 58.048463 
L 283.661693 70.493079 
L 287.412362 82.683605 
L 289.640482 89.196633 
L 291.460114 93.865808 
L 293.019798 97.292376 
L 294.393805 99.809459 
L 295.619272 101.622652 
L 296.733332 102.896841 
L 297.735986 103.727065 
L 298.664369 104.221772 
L 299.555617 104.445237 
L 300.40973 104.426773 
L 301.263843 104.180745 
L 302.155091 103.683095 
L 303.083474 102.906742 
L 304.123264 101.731872 
L 305.237324 100.127249 
L 306.499926 97.897708 
L 307.911068 94.925925 
L 309.507888 91.01499 
L 311.364655 85.846733 
L 313.667046 78.734475 
L 317.417715 66.290316 
L 321.168384 54.098883 
L 323.396504 47.584707 
L 325.216136 42.914298 
L 326.77582 39.486488 
L 328.149828 36.968192 
L 329.375294 35.153839 
L 330.489354 33.878546 
L 331.492008 33.047298 
L 332.420392 32.551624 
L 333.31164 32.327222 
L 334.165752 32.344785 
L 335.019865 32.589916 
L 335.911113 33.08664 
L 336.839497 33.862044 
L 337.879286 35.035882 
L 338.993346 36.639444 
L 340.255948 38.867853 
L 341.667091 41.838478 
L 343.26391 45.748262 
L 345.120677 50.915429 
L 347.423068 58.026747 
L 351.136602 70.345963 
L 354.924406 82.662788 
L 357.152527 89.178111 
L 358.972158 93.849753 
L 360.531842 97.278805 
L 361.90585 99.798314 
L 363.131316 101.613826 
L 364.245376 102.890223 
L 365.24803 103.722495 
L 366.176414 104.219136 
L 367.067662 104.444475 
L 367.921775 104.427813 
L 368.775887 104.183579 
L 369.667136 103.687782 
L 370.595519 102.913326 
L 371.635309 101.740521 
L 372.749369 100.13802 
L 374.01197 97.910743 
L 375.423113 94.941276 
L 377.019933 91.032642 
L 378.876699 85.866567 
L 381.17909 78.75619 
L 384.892624 66.437435 
L 388.680429 54.119702 
L 390.908549 47.603233 
L 392.728181 42.930358 
L 394.287865 39.500065 
L 395.661872 36.979343 
L 396.887338 35.162672 
L 398.001399 33.885171 
L 399.004053 33.051874 
L 399.932436 32.554267 
L 400.823684 32.327991 
L 401.677797 32.343753 
L 402.53191 32.587089 
L 403.423158 33.081959 
L 404.351541 33.855467 
L 405.391331 35.027239 
L 406.505391 36.628679 
L 407.767992 38.854824 
L 409.179135 41.823132 
L 410.775955 45.730615 
L 412.632722 50.895598 
L 414.935113 58.005034 
L 418.648646 70.323327 
L 422.436451 82.641967 
L 424.664571 89.15958 
L 426.484203 93.833688 
L 428.043887 97.265222 
L 429.417894 99.787157 
L 430.643361 101.604987 
L 431.757421 102.883591 
L 432.760075 103.717912 
L 433.688458 104.216486 
L 434.579706 104.443699 
L 435.433819 104.428838 
L 436.287932 104.186399 
L 437.17918 103.692456 
L 438.107564 102.919897 
L 439.147353 101.749157 
L 440.261413 100.148778 
L 441.524015 97.923766 
L 442.935158 94.956617 
L 444.531977 91.050285 
L 446.388744 85.886394 
L 448.691135 78.777901 
L 452.404669 66.460071 
L 456.229609 54.026061 
L 458.457729 47.519929 
L 460.27736 42.858168 
L 461.837045 39.439059 
L 463.211052 36.92926 
L 464.436518 35.123027 
L 465.550578 33.855467 
L 466.553233 33.031392 
L 467.481616 32.542484 
L 468.372864 32.324643 
L 469.226977 32.34851 
L 470.08109 32.599922 
L 470.972338 33.103132 
L 471.937857 33.921851 
L 472.977646 35.114254 
L 474.128841 36.796937 
L 475.391443 39.058082 
L 476.802586 42.06217 
L 478.399405 46.005147 
L 480.256172 51.203747 
L 482.595699 58.461847 
L 486.56918 71.668533 
L 490.097037 83.078028 
L 492.288022 89.445876 
L 494.107653 94.081559 
L 495.667338 97.474467 
L 497.041345 99.9587 
L 498.266811 101.740521 
L 499.380871 102.98485 
L 500.383525 103.787382 
L 501.311909 104.255976 
L 502.166022 104.450819 
L 503.020134 104.417946 
L 503.874247 104.157563 
L 504.765495 103.645092 
L 505.731014 102.816527 
L 506.770804 101.613826 
L 507.921999 99.920226 
L 509.184601 97.647837 
L 510.595743 94.632268 
L 512.192563 90.67792 
L 514.086465 85.35866 
L 516.425991 78.081174 
L 520.548014 64.370588 
L 523.92733 53.476975 
L 526.118315 47.133395 
L 527.900811 42.611081 
L 529.460495 39.230702 
L 530.834503 36.758681 
L 532.059969 34.988512 
L 533.174029 33.755266 
L 534.176683 32.963005 
L 535.105067 32.504091 
L 535.959179 32.318234 
L 536.813292 32.360114 
L 537.667405 32.629465 
L 538.558653 33.151192 
L 539.524172 33.989596 
L 540.563961 35.202582 
L 541.715157 36.907082 
L 542.977758 39.190693 
L 544.388901 42.217714 
L 545.985721 46.183392 
L 547.879623 51.513525 
L 550.256284 58.920388 
L 554.601119 73.379855 
L 557.831893 83.73756 
L 559.985743 89.930707 
L 561.768239 94.413493 
L 563.327923 97.753556 
L 564.701931 100.186334 
L 565.927397 101.919099 
L 567.004322 103.082826 
L 568.006976 103.853493 
L 568.935359 104.292064 
L 569.789472 104.459042 
L 570.643585 104.398252 
L 571.497698 104.110077 
L 572.388946 103.568928 
L 573.354465 102.709891 
L 574.394254 101.475344 
L 575.54545 99.748009 
L 576.808051 97.440904 
L 578.219194 94.389933 
L 579.853149 90.301675 
L 581.747051 84.937106 
L 584.160848 77.380527 
L 593.221871 48.275588 
L 595.078637 43.424978 
L 596.675457 39.843179 
L 598.0866 37.199263 
L 599.349201 35.287707 
L 600.463261 33.979347 
L 601.503051 33.091334 
L 602.431434 32.577306 
L 603.322682 32.335102 
L 604.176795 32.335553 
L 605.030908 32.56363 
L 605.922156 33.042736 
L 606.85054 33.800112 
L 607.853194 34.907632 
L 608.967254 36.479293 
L 610.19272 38.603093 
L 611.566728 41.442905 
L 613.126412 45.196707 
L 614.946043 50.186349 
L 617.174164 56.98931 
L 620.516344 68.012004 
L 624.935449 82.464756 
L 627.200705 89.10394 
L 629.020336 93.785434 
L 630.580021 97.224406 
L 631.954028 99.753611 
L 633.21663 101.627061 
L 634.33069 102.900145 
L 635.333344 103.729344 
L 636.261727 104.223085 
L 637.152975 104.445612 
L 638.007088 104.426248 
L 638.861201 104.179322 
L 639.752449 103.680746 
L 640.680833 102.903445 
L 641.720622 101.727543 
L 642.834682 100.121859 
L 644.097284 97.891186 
L 645.508426 94.918246 
L 647.105246 91.006161 
L 648.962013 85.836813 
L 651.264404 78.723617 
L 655.015073 66.279001 
L 658.765742 54.088475 
L 660.993862 47.575447 
L 662.813494 42.906272 
L 664.373178 39.479704 
L 665.747186 36.962621 
L 666.972652 35.149427 
L 668.086712 33.875239 
L 669.089366 33.045015 
L 670.01775 32.550307 
L 670.908998 32.326843 
L 671.76311 32.345307 
L 672.617223 32.591335 
L 673.508471 33.088985 
L 674.436855 33.865337 
L 675.476644 35.040208 
L 676.590704 36.644831 
L 677.853306 38.874372 
L 679.264449 41.846155 
L 680.861268 45.757089 
L 682.718035 50.925347 
L 685.020426 58.037604 
L 688.771095 70.481763 
L 692.521764 82.673197 
L 694.749885 89.187373 
L 696.569516 93.857782 
L 698.1292 97.285592 
L 699.503208 99.803888 
L 700.728674 101.618241 
L 701.842734 102.893534 
L 702.845388 103.724782 
L 703.773772 104.220456 
L 704.66502 104.444858 
L 705.519133 104.427295 
L 706.373246 104.182164 
L 707.264494 103.68544 
L 708.192877 102.910036 
L 709.232667 101.736198 
L 710.346727 100.132636 
L 711.609328 97.904227 
L 713.020471 94.933602 
L 714.617291 91.023817 
L 716.474057 85.856651 
L 718.776448 78.745333 
L 722.489982 66.426117 
L 726.277787 54.109291 
L 728.505907 47.593969 
L 730.325539 42.922327 
L 731.885223 39.493275 
L 733.25923 36.973766 
L 734.484696 35.158254 
L 735.598757 33.881857 
L 736.601411 33.049584 
L 737.529794 32.552944 
L 738.421042 32.327605 
L 739.275155 32.344267 
L 740.129268 32.588501 
L 741.020516 33.084298 
L 741.948899 33.858754 
L 742.988689 35.031559 
L 744.102749 36.63406 
L 745.36535 38.861337 
L 746.776493 41.830803 
L 748.373313 45.739438 
L 750.23008 50.905513 
L 752.532471 58.01589 
L 756.246004 70.334645 
L 760.033809 82.652378 
L 762.261929 89.168847 
L 764.081561 93.841722 
L 765.641245 97.272015 
L 767.015253 99.792737 
L 768.240719 101.609408 
L 769.354779 102.886909 
L 770.357433 103.720206 
L 771.285816 104.217813 
L 772.177064 104.444089 
L 773.031177 104.428327 
L 773.88529 104.184991 
L 774.776538 103.690121 
L 775.704922 102.916613 
L 776.744711 101.744841 
L 777.858771 100.1434 
L 779.121373 97.917256 
L 780.532516 94.948948 
L 782.129335 91.041465 
L 783.986102 85.876482 
L 786.288493 78.767046 
L 790.002027 66.448753 
L 793.789831 54.130113 
L 796.017952 47.612499 
L 797.837583 42.938392 
L 799.397267 39.506858 
L 800.771275 36.984923 
L 801.996741 35.167093 
L 803.110801 33.888489 
L 804.113455 33.054168 
L 805.041839 32.555594 
L 805.933087 32.328381 
L 806.30444 32.30684 
L 806.30444 32.30684 
" clip-path="url(#pc657dc15c3)" style="fill: none; stroke: #e36f47; stroke-width: 6"/>
   </g>
   <g id="patch_3">
    <path d="M 41.316477 107.425354 
L 41.316477 2.834646 
" style="fill: none; stroke: #000000; stroke-width: 2; stroke-linejoin: miter; stroke-linecap: square"/>
   </g>
   <g id="patch_4">
    <path d="M 41.316477 107.425354 
L 828.585643 107.425354 
" style="fill: none; stroke: #000000; stroke-width: 2; stroke-linejoin: miter; stroke-linecap: square"/>
   </g>
   <g id="line2d_11">
    <path d="M 63.59768 14.26724 
L 68.945168 18.026907 
L 74.441198 21.618923 
L 80.122905 25.065587 
L 85.916018 28.31699 
L 91.894807 31.417101 
L 98.022138 34.345493 
L 104.372281 37.135766 
L 110.982371 39.798547 
L 118.00095 42.378948 
L 125.056664 44.73618 
L 132.632273 47.035271 
L 140.393559 49.154751 
L 140.5421 49.193177 
L 140.579235 13.134419 
L 140.653506 13.189474 
L 146.223807 17.178254 
L 151.719837 20.842369 
L 157.104461 24.168721 
L 163.120385 27.613671 
L 169.099175 30.781691 
L 175.003694 33.660088 
L 181.465242 36.557415 
L 187.852521 39.180544 
L 194.908235 41.833361 
L 201.926814 44.236505 
L 209.279611 46.513921 
L 216.223919 48.470033 
L 216.261054 12.411553 
L 216.335325 12.467262 
L 221.942761 16.532164 
L 227.475926 20.270283 
L 232.934821 23.692536 
L 238.542257 26.942549 
L 244.483911 30.136943 
L 250.425565 33.079562 
L 256.775708 35.976687 
L 263.237257 38.678187 
L 269.884482 41.220106 
L 277.088738 43.739952 
L 283.438881 45.765591 
L 283.476016 9.720769 
L 283.550287 9.779021 
L 289.157723 14.034118 
L 294.690888 17.956376 
L 300.186918 21.580432 
L 305.608677 24.89002 
L 311.216114 28.046946 
L 317.417715 31.294485 
L 323.545046 34.253691 
L 329.598106 36.932868 
L 336.468143 39.715089 
L 343.301046 42.243044 
L 344.526512 42.671196 
L 344.563647 6.614355 
L 344.637918 6.675683 
L 350.171083 11.098292 
L 355.629978 15.178545 
L 361.014602 18.927914 
L 366.324955 22.357718 
L 371.709579 25.570003 
L 377.799775 28.95499 
L 383.815699 32.046053 
L 389.794489 34.869261 
L 396.181767 37.63115 
L 402.903263 40.302901 
L 407.099556 41.849117 
L 407.136692 5.79476 
L 407.210962 5.856902 
L 412.706992 10.309107 
L 418.128752 14.418266 
L 423.513376 18.221204 
L 428.823729 21.700273 
L 434.171218 24.936754 
L 440.224278 28.351278 
L 446.203067 31.471042 
L 452.144721 34.322463 
L 458.420593 37.08055 
L 465.179225 39.816991 
L 471.900721 42.299264 
L 472.457751 42.494277 
L 472.494887 6.44533 
L 472.569157 6.506828 
L 478.102323 10.941668 
L 483.561217 15.033143 
L 488.945841 18.79276 
L 494.256195 22.231869 
L 499.640819 25.452927 
L 505.731014 28.847233 
L 511.746939 31.946746 
L 517.725728 34.777609 
L 524.038736 37.513205 
L 530.871638 40.242082 
L 537.667405 42.717564 
L 539.746984 43.427547 
L 539.784119 7.379804 
L 539.85839 7.440376 
L 545.391555 11.808401 
L 550.85045 15.83819 
L 556.272209 19.565678 
L 561.619698 22.973757 
L 567.041457 26.164137 
L 573.131653 29.502623 
L 579.184713 32.56882 
L 585.200638 35.367337 
L 592.144946 38.312317 
L 599.052119 41.000008 
L 605.922156 43.434297 
L 607.704652 44.026959 
L 607.741788 7.968768 
L 607.816058 8.028753 
L 613.386359 12.382577 
L 618.882389 16.397738 
L 624.304148 20.085534 
L 629.651637 23.457114 
L 635.110532 26.634424 
L 641.237863 29.955388 
L 647.328058 33.003714 
L 653.343983 35.767214 
L 660.325426 38.692017 
L 667.232599 41.346242 
L 674.102637 43.749932 
L 677.036328 44.705012 
L 677.073464 8.652126 
L 677.147734 8.711435 
L 682.718035 13.016133 
L 688.214065 16.985931 
L 693.67296 20.656052 
L 699.057584 24.009834 
L 704.553614 27.168687 
L 710.71808 30.466659 
L 716.808275 33.474424 
L 722.8242 36.200189 
L 729.842779 39.101576 
L 736.787087 41.732904 
L 743.69426 44.113983 
L 747.593471 45.356072 
L 747.630606 9.29299 
L 747.704877 9.351661 
L 753.312313 13.637506 
L 758.845478 17.588415 
L 764.304373 21.215514 
L 769.726132 24.551729 
L 775.259298 27.692397 
L 781.423764 30.94886 
L 787.551094 33.935713 
L 793.604155 36.641267 
L 800.399921 39.419756 
L 806.30444 41.637534 
L 806.30444 41.637534 
" clip-path="url(#pc657dc15c3)" style="fill: none; stroke: #3ea44e; stroke-width: 6"/>
   </g>
  </g>
 </g>
 <defs>
  <clipPath id="pc657dc15c3">
   <rect x="41.316477" y="2.834646" width="787.269166" height="104.590709"/>
  </clipPath>
 </defs>
</svg>
