<?xml version="1.0" encoding="utf-8" standalone="no"?>
<!DOCTYPE svg PUBLIC "-//W3C//DTD SVG 1.1//EN"
  "http://www.w3.org/Graphics/SVG/1.1/DTD/svg11.dtd">
<svg xmlns:xlink="http://www.w3.org/1999/xlink" width="881.28pt" height="141.12pt" viewBox="0 0 881.28 141.12" xmlns="http://www.w3.org/2000/svg" version="1.1">
 <metadata>
  <rdf:RDF xmlns:dc="http://purl.org/dc/elements/1.1/" xmlns:cc="http://creativecommons.org/ns#" xmlns:rdf="http://www.w3.org/1999/02/22-rdf-syntax-ns#">
   <cc:Work>
    <dc:type rdf:resource="http://purl.org/dc/dcmitype/StillImage"/>
    <dc:date>2024-04-26T17:51:03.624409</dc:date>
    <dc:format>image/svg+xml</dc:format>
    <dc:creator>
     <cc:Agent>
      <dc:title>Matplotlib v3.7.0, https://matplotlib.org/</dc:title>
     </cc:Agent>
    </dc:creator>
   </cc:Work>
  </rdf:RDF>
 </metadata>
 <defs>
  <style type="text/css">*{stroke-linejoin: round; stroke-linecap: butt}</style>
 </defs>
 <g id="figure_1">
  <g id="patch_1">
   <path d="M 0 141.12 
L 881.28 141.12 
L 881.28 0 
L 0 0 
L 0 141.12 
z
" style="fill: none"/>
  </g>
  <g id="axes_1">
   <g id="patch_2">
    <path d="M 41.316477 124.800705 
L 878.445354 124.800705 
L 878.445354 10.559295 
L 41.316477 10.559295 
L 41.316477 124.800705 
z
" style="fill: none"/>
   </g>
   <g id="line2d_1">
    <path d="M 65.008803 13.792542 
L 65.5353 13.898877 
L 66.088121 14.238946 
L 66.693591 14.878123 
L 67.378036 15.932296 
L 68.16778 17.576958 
L 69.062824 19.977802 
L 70.089491 23.399756 
L 71.274108 28.170265 
L 72.642998 34.659297 
L 74.275136 43.532436 
L 76.407445 56.450259 
L 82.830698 96.217327 
L 84.489161 104.671663 
L 85.858051 110.570346 
L 87.042667 114.753378 
L 88.069335 117.616602 
L 88.964378 119.498461 
L 89.727798 120.63347 
L 90.412243 121.274316 
L 90.991388 121.534703 
L 91.544209 121.540774 
L 92.09703 121.309825 
L 92.676176 120.814649 
L 93.334296 119.940249 
L 94.071391 118.573541 
L 94.913785 116.523437 
L 95.887803 113.53012 
L 96.993445 109.372195 
L 98.257035 103.720983 
L 99.757549 95.937358 
L 101.626611 84.979755 
L 104.522339 66.472955 
L 107.970889 44.778556 
L 109.839951 34.428044 
L 111.340465 27.315177 
L 112.604055 22.344158 
L 113.683372 18.931842 
L 114.631066 16.619749 
L 115.447135 15.167104 
L 116.157904 14.320359 
L 116.763375 13.911861 
L 117.316196 13.792552 
L 117.842692 13.904795 
L 118.395513 14.259518 
L 119.000984 14.924782 
L 119.685429 16.021074 
L 120.475173 17.730738 
L 121.370216 20.225687 
L 122.396884 23.780436 
L 123.5815 28.733 
L 124.95039 35.462626 
L 126.608853 44.804224 
L 128.820137 58.657696 
L 134.453646 94.538824 
L 136.138433 103.559335 
L 137.533648 109.89206 
L 138.718264 114.306945 
L 139.744932 117.338942 
L 140.639975 119.338801 
L 141.403395 120.550647 
L 142.061515 121.220917 
L 142.640661 121.51977 
L 143.167157 121.553383 
L 143.693653 121.359852 
L 144.246474 120.912833 
L 144.878269 120.098488 
L 145.589039 118.801028 
L 146.405108 116.825488 
L 147.352801 113.904451 
L 148.432118 109.805339 
L 149.669384 104.184137 
L 151.117249 96.524088 
L 152.907336 85.791037 
L 155.618791 67.999064 
L 159.225289 44.580432 
L 161.041701 34.236693 
L 162.51589 27.068792 
L 163.753156 22.098814 
L 164.806149 18.719313 
L 165.727517 16.454742 
L 166.517261 15.053521 
L 167.201706 14.254372 
L 167.780852 13.884513 
L 168.307348 13.794089 
L 168.807519 13.925668 
L 169.36034 14.317252 
L 169.965811 15.040789 
L 170.650256 16.224884 
L 171.44 18.063453 
L 172.335044 20.737611 
L 173.361711 24.53623 
L 174.546327 29.811624 
L 175.941542 37.099406 
L 177.652655 47.309083 
L 180.048212 63.098462 
L 184.391805 91.832023 
L 186.155567 101.91911 
L 187.577107 108.834631 
L 188.788048 113.681972 
L 189.814716 116.945522 
L 190.709759 119.108689 
L 191.473179 120.428115 
L 192.131299 121.166106 
L 192.710444 121.504658 
L 193.236941 121.557862 
L 193.737112 121.383323 
L 194.289933 120.935861 
L 194.895404 120.141384 
L 195.606173 118.808542 
L 196.422242 116.758327 
L 197.343611 113.801848 
L 198.396603 109.639368 
L 199.633869 103.777378 
L 201.081733 95.772417 
L 202.898145 84.387007 
L 205.846523 64.239579 
L 208.873876 44.046955 
L 210.637638 33.725904 
L 212.059178 26.653214 
L 213.270119 21.705187 
L 214.296787 18.385558 
L 215.19183 16.198027 
L 215.955249 14.87701 
L 216.61337 14.152259 
L 217.166191 13.844422 
L 217.666362 13.804464 
L 218.166533 13.991592 
L 218.693029 14.433278 
L 219.2985 15.24911 
L 219.982945 16.56228 
L 220.772689 18.580406 
L 221.694058 21.589376 
L 222.74705 25.839163 
L 223.957991 31.697339 
L 225.405855 39.870445 
L 227.222267 51.499367 
L 230.30227 72.957374 
L 233.119024 91.964442 
L 234.856461 102.218864 
L 236.251676 109.186172 
L 237.436292 114.019929 
L 238.436635 117.232204 
L 239.305354 119.327451 
L 240.042448 120.576049 
L 240.674244 121.24918 
L 241.227065 121.533019 
L 241.727236 121.542714 
L 242.227407 121.317329 
L 242.753903 120.826933 
L 243.359374 119.944733 
L 244.070144 118.481646 
L 244.886213 116.24793 
L 245.807581 113.044979 
L 246.886898 108.435216 
L 248.124164 102.127313 
L 249.624678 93.243725 
L 251.546389 80.425424 
L 257.943317 36.622086 
L 259.417507 28.598167 
L 260.654773 23.016315 
L 261.707765 19.220827 
L 262.629133 16.685921 
L 263.418877 15.129728 
L 264.076998 14.282166 
L 264.629819 13.891703 
L 265.12999 13.793685 
L 265.603836 13.925211 
L 266.104008 14.30054 
L 266.683153 15.036641 
L 267.341274 16.26079 
L 268.104693 18.18575 
L 268.973412 21.011821 
L 269.973754 25.056636 
L 271.132046 30.705613 
L 272.500936 38.538104 
L 274.212048 49.702455 
L 276.870854 68.743967 
L 280.08248 91.378901 
L 281.793593 101.892132 
L 283.162483 109.008279 
L 284.320774 113.926103 
L 285.321117 117.255678 
L 286.163511 119.349517 
L 286.900606 120.624452 
L 287.506076 121.272249 
L 288.032572 121.538407 
L 288.506419 121.540075 
L 288.980265 121.316119 
L 289.506762 120.803557 
L 290.112232 119.87399 
L 290.796677 118.39236 
L 291.586421 116.130539 
L 292.50779 112.777083 
L 293.560782 108.066737 
L 294.798048 101.462101 
L 296.298562 92.161104 
L 298.272922 78.397998 
L 303.853782 38.654714 
L 305.38062 29.792725 
L 306.644211 23.708398 
L 307.697204 19.651367 
L 308.618572 16.932528 
L 309.408316 15.256576 
L 310.066436 14.337989 
L 310.619257 13.908926 
L 311.119429 13.792902 
L 311.593275 13.922319 
L 312.093446 14.31118 
L 312.646267 15.040426 
L 313.304388 16.313059 
L 314.067807 18.327164 
L 314.936526 21.29476 
L 315.936868 25.549524 
L 317.09516 31.492955 
L 318.490375 39.891543 
L 320.254137 51.977213 
L 323.492088 76.098912 
L 325.940295 93.501133 
L 327.546108 103.409792 
L 328.862349 110.211974 
L 329.967991 114.818547 
L 330.915684 117.869096 
L 331.731753 119.785815 
L 332.416198 120.865841 
L 332.995344 121.395055 
L 333.495515 121.564988 
L 333.943037 121.49044 
L 334.416883 121.178355 
L 334.943379 120.551777 
L 335.54885 119.471163 
L 336.25962 117.721015 
L 337.075689 115.091432 
L 338.023382 111.249475 
L 339.129024 105.783742 
L 340.445264 98.072253 
L 342.077402 87.073015 
L 344.499284 69.016274 
L 347.921509 43.695535 
L 349.579972 33.079857 
L 350.896213 25.987805 
L 352.001855 21.146982 
L 352.949548 17.909702 
L 353.765617 15.846634 
L 354.450062 14.656285 
L 355.029207 14.043647 
L 355.529379 13.809543 
L 355.9769 13.83317 
L 356.424422 14.077062 
L 356.924594 14.609278 
L 357.503739 15.564662 
L 358.188184 17.154668 
L 358.977928 19.59116 
L 359.899297 23.209444 
L 360.952289 28.290969 
L 362.189555 35.401884 
L 363.716394 45.557368 
L 365.822378 61.210666 
L 370.139647 93.583678 
L 371.719135 103.59019 
L 373.009051 110.410554 
L 374.088368 114.99252 
L 375.009736 118.000063 
L 375.79948 119.870341 
L 376.457601 120.910008 
L 377.010422 121.410633 
L 377.484268 121.565873 
L 377.93179 121.479394 
L 378.405636 121.141218 
L 378.932133 120.469669 
L 379.537603 119.317137 
L 380.248373 117.456336 
L 381.064442 114.667544 
L 382.012135 110.603039 
L 383.117777 104.837122 
L 384.434017 96.732058 
L 386.09248 85.037544 
L 388.83026 63.848628 
L 391.594365 43.044976 
L 393.200178 32.57047 
L 394.490094 25.522464 
L 395.569411 20.764289 
L 396.490779 17.622626 
L 397.280523 15.652518 
L 397.938644 14.541872 
L 398.491465 13.990935 
L 398.965311 13.799682 
L 399.412833 13.858366 
L 399.860354 14.149472 
L 400.360526 14.748523 
L 400.965996 15.855941 
L 401.650441 17.601775 
L 402.46651 20.345108 
L 403.414204 24.38496 
L 404.519845 30.158256 
L 405.809761 38.142084 
L 407.441899 49.739263 
L 410.048055 70.12971 
L 412.917459 92.081808 
L 414.523272 102.715577 
L 415.813188 109.859087 
L 416.892505 114.666879 
L 417.813873 117.825448 
L 418.603617 119.789896 
L 419.261738 120.881106 
L 419.814559 121.405286 
L 420.288405 121.566082 
L 420.709602 121.48449 
L 421.157124 121.166432 
L 421.68362 120.48876 
L 422.28909 119.30878 
L 422.99986 117.388826 
L 423.815929 114.498412 
L 424.763622 110.275301 
L 425.869264 104.27865 
L 427.185505 95.853768 
L 428.870292 83.525703 
L 432.081919 57.924784 
L 434.345852 40.844054 
L 435.872691 30.934507 
L 437.109957 24.286579 
L 438.136625 19.892885 
L 439.031668 16.983964 
L 439.768763 15.273993 
L 440.400558 14.319519 
L 440.927054 13.891859 
L 441.374576 13.793735 
L 441.795773 13.924825 
L 442.243295 14.301094 
L 442.769791 15.054262 
L 443.375261 16.329709 
L 444.086031 18.372177 
L 444.928425 21.52485 
L 445.902443 26.09673 
L 447.034409 32.533597 
L 448.403299 41.673841 
L 450.193386 55.246401 
L 455.774246 98.692245 
L 457.16946 107.268565 
L 458.301427 112.943924 
L 459.275445 116.764437 
L 460.091514 119.141249 
L 460.775959 120.525089 
L 461.355105 121.248827 
L 461.828951 121.531353 
L 462.250148 121.546965 
L 462.671345 121.340643 
L 463.145192 120.844145 
L 463.698013 119.914258 
L 464.356133 118.323472 
L 465.119552 115.839247 
L 466.014596 112.095969 
L 467.041263 106.783863 
L 468.252204 99.290446 
L 469.752718 88.529258 
L 471.937677 71.051754 
L 475.491526 42.671199 
L 477.04469 32.097199 
L 478.281956 25.086505 
L 479.334948 20.319494 
L 480.229992 17.237401 
L 480.993411 15.361699 
L 481.625206 14.354669 
L 482.151703 13.900859 
L 482.599224 13.793382 
L 483.020421 13.926547 
L 483.467943 14.316545 
L 483.994439 15.100857 
L 484.59991 16.431607 
L 485.31068 18.564276 
L 486.153073 21.856232 
L 487.127091 26.626829 
L 488.285383 33.502851 
L 489.680598 43.222302 
L 491.549659 57.948372 
L 496.314449 96.205698 
L 497.762313 105.689791 
L 498.94693 112.046066 
L 499.920948 116.156857 
L 500.763342 118.81904 
L 501.474111 120.383499 
L 502.053257 121.181626 
L 502.553428 121.520496 
L 502.974625 121.55202 
L 503.395822 121.351095 
L 503.869669 120.848117 
L 504.42249 119.894086 
L 505.054285 118.328016 
L 505.79138 115.878846 
L 506.660098 112.174237 
L 507.686766 106.743756 
L 508.897707 99.054902 
L 510.398221 87.995334 
L 512.63583 69.612419 
L 515.900106 42.963458 
L 517.453269 32.122748 
L 518.690535 24.96353 
L 519.717203 20.234809 
L 520.585922 17.193699 
L 521.323016 15.350712 
L 521.928487 14.363037 
L 522.428658 13.912685 
L 522.87618 13.792927 
L 523.271052 13.910092 
L 523.718574 14.295005 
L 524.218745 15.040083 
L 524.824216 16.38045 
L 525.534985 18.551146 
L 526.351054 21.805334 
L 527.298747 26.538101 
L 528.430714 33.392418 
L 529.799604 43.129259 
L 531.642341 57.970888 
L 536.328156 96.412077 
L 537.749696 105.89477 
L 538.907988 112.208073 
L 539.882005 116.359914 
L 540.698074 118.944107 
L 541.382519 120.446913 
L 541.961665 121.229807 
L 542.435512 121.531611 
L 542.856709 121.542109 
L 543.277906 121.309739 
L 543.751752 120.759159 
L 544.304573 119.733749 
L 544.936368 118.0663 
L 545.699788 115.369323 
L 546.568507 111.440357 
L 547.595174 105.716161 
L 548.83244 97.470828 
L 550.385604 85.508722 
L 552.965435 63.582427 
L 555.545266 42.318794 
L 557.04578 31.703636 
L 558.256721 24.623563 
L 559.257064 19.98891 
L 560.099458 17.03616 
L 560.810227 15.265099 
L 561.415698 14.296114 
L 561.915869 13.877775 
L 562.337066 13.796175 
L 562.731938 13.945022 
L 563.17946 14.376732 
L 563.705956 15.239596 
L 564.311427 16.698764 
L 565.022197 19.031151 
L 565.86459 22.621647 
L 566.838608 27.807617 
L 567.9969 35.248536 
L 569.444764 46.116143 
L 571.524424 63.635674 
L 575.025623 93.153089 
L 576.526137 103.851972 
L 577.710754 110.822228 
L 578.711096 115.479454 
L 579.55349 118.428989 
L 580.26426 120.180625 
L 580.843406 121.090632 
L 581.343577 121.495396 
L 581.764774 121.559809 
L 582.159646 121.390136 
L 582.607168 120.929436 
L 583.133664 120.025403 
L 583.739135 118.509995 
L 584.449904 116.100544 
L 585.292298 112.405498 
L 586.266316 107.085006 
L 587.450933 99.285873 
L 588.925122 87.96339 
L 591.110081 69.221245 
L 594.242733 42.586024 
L 595.743247 31.727256 
L 596.927863 24.651304 
L 597.928206 19.926577 
L 598.7706 16.939134 
L 599.48137 15.170494 
L 600.060515 14.257328 
L 600.534362 13.869718 
L 600.955559 13.79922 
L 601.350431 13.9679 
L 601.797953 14.432973 
L 602.324449 15.349533 
L 602.929919 16.88892 
L 603.640689 19.338878 
L 604.483083 23.097592 
L 605.457101 28.509524 
L 606.641717 36.438471 
L 608.115906 47.935281 
L 610.37984 67.617249 
L 613.301893 92.668406 
L 614.802407 103.643009 
L 615.987024 110.780091 
L 616.987367 115.529177 
L 617.82976 118.515142 
L 618.54053 120.265955 
L 619.119676 121.153169 
L 619.593522 121.511951 
L 619.988395 121.556469 
L 620.383267 121.369242 
L 620.830788 120.87778 
L 621.357285 119.92313 
L 621.962755 118.331064 
L 622.673525 115.808252 
L 623.515919 111.950037 
L 624.516261 106.24495 
L 625.700878 98.11861 
L 627.201392 86.166091 
L 629.623274 64.776287 
L 632.22943 42.352774 
L 633.703619 31.510614 
L 634.888236 24.351826 
L 635.862253 19.724539 
L 636.678323 16.822263 
L 637.362768 15.117591 
L 637.941913 14.213875 
L 638.41576 13.848743 
L 638.810632 13.803924 
L 639.205504 13.995393 
L 639.653026 14.497116 
L 640.179522 15.4711 
L 640.784992 17.094741 
L 641.495762 19.666518 
L 642.338156 23.597559 
L 643.338499 29.406047 
L 644.523115 37.670656 
L 646.023629 49.805411 
L 648.577135 72.634917 
L 650.999018 93.543871 
L 652.446882 104.217405 
L 653.605174 111.222299 
L 654.579192 115.837392 
L 655.395261 118.706354 
L 656.079706 120.366467 
L 656.632527 121.19301 
L 657.080048 121.519496 
L 657.47492 121.551062 
L 657.869793 121.341815 
L 658.317314 120.814594 
L 658.84381 119.803599 
L 659.449281 118.128578 
L 660.186376 115.374085 
L 661.028769 111.316412 
L 662.029112 105.347683 
L 663.240053 96.686917 
L 664.793217 83.836789 
L 667.978519 55.00969 
L 669.926554 38.63868 
L 671.295444 28.928945 
L 672.401086 22.595499 
L 673.322455 18.529385 
L 674.085874 16.074811 
L 674.717669 14.70383 
L 675.244165 14.031533 
L 675.665362 13.805865 
L 676.03391 13.837293 
L 676.428782 14.10804 
L 676.876304 14.709952 
L 677.4028 15.814958 
L 678.034595 17.695348 
L 678.77169 20.625747 
L 679.640408 25.037162 
L 680.667076 31.459053 
L 681.930667 40.878651 
L 683.589129 55.075384 
L 688.617168 99.32956 
L 689.907083 108.154533 
L 690.960076 113.905912 
L 691.828794 117.518305 
L 692.565889 119.712986 
L 693.171359 120.890002 
L 693.671531 121.42595 
L 694.066403 121.566941 
L 694.43495 121.473073 
L 694.829822 121.131241 
L 695.303669 120.393687 
L 695.85649 119.088018 
L 696.51461 116.924235 
L 697.304354 113.490814 
L 698.225722 108.412336 
L 699.331364 100.967109 
L 700.700254 90.095834 
L 702.64829 72.615905 
L 706.123165 41.338822 
L 707.544704 30.653767 
L 708.676671 23.71859 
L 709.624364 19.20393 
L 710.414108 16.43875 
L 711.072228 14.869104 
L 711.598725 14.110169 
L 712.046246 13.818023 
L 712.414794 13.822582 
L 712.783341 14.04873 
L 713.204538 14.577437 
L 713.731034 15.639583 
L 714.336505 17.401403 
L 715.073599 20.299177 
L 715.915993 24.565276 
L 716.916336 30.831107 
L 718.127277 39.897769 
L 719.73309 53.761609 
L 725.024376 100.902192 
L 726.261642 109.249946 
L 727.261985 114.594623 
L 728.104379 117.98607 
L 728.815149 119.998054 
L 729.394294 121.037992 
L 729.868141 121.479584 
L 730.263013 121.563438 
L 730.63156 121.408051 
L 731.052757 120.954945 
L 731.552929 120.038383 
L 732.132074 118.472485 
L 732.816519 115.944891 
L 733.632588 112.021316 
L 734.606606 106.150287 
L 735.764898 97.713346 
L 737.239087 85.219394 
L 739.845243 60.803374 
L 742.056527 40.984909 
L 743.451742 30.369975 
L 744.557384 23.529154 
L 745.478752 19.101674 
L 746.268496 16.326634 
L 746.900291 14.825013 
L 747.426788 14.077328 
L 747.847984 13.814068 
L 748.216532 13.829445 
L 748.585079 14.074266 
L 749.006276 14.633787 
L 749.532772 15.748251 
L 750.138243 17.588234 
L 750.875337 20.604886 
L 751.744056 25.188504 
L 752.770723 31.897384 
L 754.007989 41.539216 
L 755.666452 56.353687 
L 760.246969 98.259559 
L 761.536884 107.565829 
L 762.589877 113.628746 
L 763.458595 117.423749 
L 764.19569 119.712149 
L 764.80116 120.920822 
L 765.275007 121.433767 
L 765.669879 121.567458 
L 766.038426 121.450437 
L 766.433299 121.066433 
L 766.907145 120.25502 
L 767.459966 118.832269 
L 768.118086 116.488404 
L 768.90783 112.786643 
L 769.829199 107.335862 
L 770.934841 99.386097 
L 772.330055 87.623325 
L 774.48869 67.253145 
L 777.200145 42.099134 
L 778.621684 30.946072 
L 779.727326 23.883657 
L 780.648695 19.304189 
L 781.438439 16.429307 
L 782.070234 14.870887 
L 782.59673 14.092669 
L 783.017927 13.816361 
L 783.386475 13.828736 
L 783.755022 14.078426 
L 784.176219 14.653074 
L 784.67639 15.731927 
L 785.281861 17.601866 
L 785.99263 20.556612 
L 786.835024 25.056911 
L 787.835367 31.670406 
L 789.072633 41.448243 
L 790.731096 56.514374 
L 795.206313 98.158647 
L 796.469904 107.450297 
L 797.496571 113.49288 
L 798.36529 117.377818 
L 799.07606 119.644472 
L 799.68153 120.895809 
L 800.155377 121.427777 
L 800.550249 121.567455 
L 800.892472 121.464417 
L 801.287344 121.087365 
L 801.734865 120.327932 
L 802.287686 118.909814 
L 802.945807 116.548632 
L 803.709226 112.935776 
L 804.630594 107.420875 
L 805.736236 99.344203 
L 807.131451 87.366863 
L 809.31641 66.372246 
L 811.922566 41.85259 
L 813.317781 30.76429 
L 814.423423 23.63687 
L 815.344791 19.054325 
L 816.10821 16.295002 
L 816.740006 14.765818 
L 817.240177 14.055355 
L 817.661374 13.805226 
L 818.003596 13.837744 
L 818.372144 14.109144 
L 818.793341 14.718014 
L 819.319837 15.921859 
L 819.925307 17.900806 
L 820.662402 21.134387 
L 821.531121 26.031203 
L 822.557788 33.170171 
L 823.821379 43.607737 
L 825.585141 60.207644 
L 829.296939 95.549492 
L 830.639504 105.988116 
L 831.692496 112.575891 
L 832.58754 116.860776 
L 833.324634 119.391532 
L 833.930105 120.758727 
L 834.430276 121.389955 
L 834.825148 121.565592 
L 835.167371 121.486444 
L 835.535918 121.161178 
L 835.98344 120.433625 
L 836.509936 119.117018 
L 837.141731 116.896466 
L 837.905151 113.322118 
L 838.800194 107.980762 
L 839.879511 100.087447 
L 841.222077 88.50649 
L 843.275412 68.572678 
L 846.065841 41.809167 
L 847.461056 30.568708 
L 848.540373 23.533586 
L 849.435416 19.028056 
L 850.198836 16.240775 
L 850.830631 14.713503 
L 851.330803 14.021142 
L 851.725675 13.801969 
L 852.067897 13.846977 
L 852.436445 14.139365 
L 852.857641 14.781619 
L 853.384138 16.040807 
L 854.015933 18.205071 
L 854.753028 21.592671 
L 854.753028 21.592671 
" clip-path="url(#pe90868e937)" style="fill: none; stroke: #009afa; stroke-width: 6"/>
   </g>
   <g id="matplotlib.axis_1">
    <g id="xtick_1"/>
    <g id="xtick_2"/>
    <g id="xtick_3"/>
    <g id="xtick_4"/>
   </g>
   <g id="matplotlib.axis_2">
    <g id="ytick_1">
     <g id="line2d_2">
      <defs>
       <path id="mb3105a7601" d="M 0 0 
L 5 0 
" style="stroke: #000000"/>
      </defs>
      <g>
       <use xlink:href="#mb3105a7601" x="41.316477" y="121.567458" style="stroke: #000000"/>
      </g>
     </g>
     <g id="text_1">
      <!-- $-1$ -->
      <g transform="translate(1.976477 132.20527) scale(0.28 -0.28)">
       <defs>
        <path id="Cmsy10-a1" d="M 653 1472 
Q 600 1472 565 1512 
Q 531 1553 531 1600 
Q 531 1647 565 1687 
Q 600 1728 653 1728 
L 4325 1728 
Q 4375 1728 4408 1687 
Q 4441 1647 4441 1600 
Q 4441 1553 4408 1512 
Q 4375 1472 4325 1472 
L 653 1472 
z
" transform="scale(0.015625)"/>
        <path id="Cmr10-31" d="M 594 0 
L 594 225 
Q 1394 225 1394 428 
L 1394 3788 
Q 1063 3628 556 3628 
L 556 3853 
Q 1341 3853 1741 4263 
L 1831 4263 
Q 1853 4263 1873 4245 
Q 1894 4228 1894 4206 
L 1894 428 
Q 1894 225 2694 225 
L 2694 0 
L 594 0 
z
" transform="scale(0.015625)"/>
       </defs>
       <use xlink:href="#Cmsy10-a1" transform="translate(0 0.390625)"/>
       <use xlink:href="#Cmr10-31" transform="translate(77.685547 0.390625)"/>
      </g>
     </g>
    </g>
    <g id="ytick_2">
     <g id="line2d_3">
      <g>
       <use xlink:href="#mb3105a7601" x="41.316477" y="67.68" style="stroke: #000000"/>
      </g>
     </g>
     <g id="text_2">
      <!-- $0$ -->
      <g transform="translate(23.816477 78.317813) scale(0.28 -0.28)">
       <defs>
        <path id="Cmr10-30" d="M 1600 -141 
Q 816 -141 533 504 
Q 250 1150 250 2041 
Q 250 2597 351 3087 
Q 453 3578 754 3920 
Q 1056 4263 1600 4263 
Q 2022 4263 2290 4056 
Q 2559 3850 2700 3523 
Q 2841 3197 2892 2823 
Q 2944 2450 2944 2041 
Q 2944 1491 2842 1011 
Q 2741 531 2444 195 
Q 2147 -141 1600 -141 
z
M 1600 25 
Q 1956 25 2131 390 
Q 2306 756 2347 1200 
Q 2388 1644 2388 2144 
Q 2388 2625 2347 3031 
Q 2306 3438 2132 3767 
Q 1959 4097 1600 4097 
Q 1238 4097 1063 3765 
Q 888 3434 847 3029 
Q 806 2625 806 2144 
Q 806 1788 823 1472 
Q 841 1156 916 820 
Q 991 484 1158 254 
Q 1325 25 1600 25 
z
" transform="scale(0.015625)"/>
       </defs>
       <use xlink:href="#Cmr10-30" transform="translate(0 0.390625)"/>
      </g>
     </g>
    </g>
    <g id="ytick_3">
     <g id="line2d_4">
      <g>
       <use xlink:href="#mb3105a7601" x="41.316477" y="13.792542" style="stroke: #000000"/>
      </g>
     </g>
     <g id="text_3">
      <!-- $1$ -->
      <g transform="translate(23.816477 24.430355) scale(0.28 -0.28)">
       <use xlink:href="#Cmr10-31" transform="translate(0 0.390625)"/>
      </g>
     </g>
    </g>
   </g>
   <g id="line2d_5">
    <path d="M 65.008803 13.792542 
L 65.5353 13.898917 
L 66.088121 14.239285 
L 66.693591 14.879401 
L 67.378036 15.935803 
L 68.16778 17.585127 
L 69.062824 19.994655 
L 70.089491 23.431891 
L 71.274108 28.227917 
L 72.642998 34.757565 
L 74.275136 43.693703 
L 76.407445 56.712146 
L 82.778048 96.450135 
L 84.410187 104.825902 
L 85.779077 110.756311 
L 86.963693 114.944354 
L 87.99036 117.79232 
L 88.859079 119.598829 
L 89.622498 120.711673 
L 90.280619 121.306146 
L 90.859764 121.546113 
L 91.386261 121.532826 
L 91.912757 121.298903 
L 92.491902 120.787634 
L 93.150023 119.88653 
L 93.887117 118.479456 
L 94.729511 116.370153 
L 95.703529 113.292099 
L 96.809171 109.019067 
L 98.099086 103.085614 
L 99.5996 95.083718 
L 101.494987 83.685306 
L 104.653964 63.070248 
L 107.654992 44.033057 
L 109.471403 33.889023 
L 110.945592 26.863822 
L 112.182858 21.991309 
L 113.262176 18.601761 
L 114.183544 16.392792 
L 114.973288 15.025683 
L 115.657733 14.245399 
L 116.263204 13.8736 
L 116.7897 13.79539 
L 117.316196 13.945821 
L 117.869017 14.349408 
L 118.474487 15.078224 
L 119.185257 16.311333 
L 119.975001 18.149047 
L 120.89637 20.893004 
L 121.949362 24.776986 
L 123.160303 30.148283 
L 124.581843 37.532461 
L 126.31928 47.819451 
L 128.793812 63.965279 
L 133.005781 91.470626 
L 134.795868 101.621276 
L 136.243732 108.6176 
L 137.454674 113.448938 
L 138.507666 116.798819 
L 139.429034 119.029751 
L 140.218778 120.396553 
L 140.903223 121.16188 
L 141.482369 121.500378 
L 142.008865 121.560243 
L 142.509037 121.397945 
L 143.061858 120.970648 
L 143.667328 120.206092 
L 144.378098 118.918451 
L 145.194167 116.932781 
L 146.115535 114.063824 
L 147.168528 110.017748 
L 148.379469 104.441173 
L 149.801008 96.802035 
L 151.56477 86.036808 
L 154.223576 68.242907 
L 157.80375 44.507814 
L 159.593837 34.115847 
L 161.041701 26.950771 
L 162.252642 22.007273 
L 163.305635 18.586785 
L 164.200678 16.372504 
L 164.990422 14.973663 
L 165.648542 14.217064 
L 166.227688 13.864047 
L 166.754184 13.799313 
L 167.254356 13.964368 
L 167.780852 14.376076 
L 168.386322 15.149133 
L 169.070767 16.403665 
L 169.860512 18.341425 
L 170.78188 21.241143 
L 171.834872 25.348854 
L 173.045813 31.026803 
L 174.467353 38.817669 
L 176.231115 49.801024 
L 178.94257 68.290896 
L 182.312146 90.952884 
L 184.102232 101.488104 
L 185.523772 108.599342 
L 186.734713 113.577928 
L 187.761381 116.92098 
L 188.656424 119.12664 
L 189.419844 120.461223 
L 190.077964 121.19617 
L 190.630785 121.511459 
L 191.130956 121.557266 
L 191.631127 121.375134 
L 192.157624 120.93778 
L 192.763094 120.125738 
L 193.447539 118.815386 
L 194.237283 116.798681 
L 195.158652 113.78909 
L 196.211644 109.53596 
L 197.422585 103.671111 
L 198.870449 95.487228 
L 200.686861 83.842762 
L 203.766864 62.361082 
L 206.583618 43.3436 
L 208.294731 33.233615 
L 209.689945 26.247473 
L 210.874562 21.397278 
L 211.874904 18.170963 
L 212.743623 16.063478 
L 213.480718 14.804493 
L 214.112513 14.122475 
L 214.665334 13.830877 
L 215.165505 13.814183 
L 215.665677 14.032603 
L 216.192173 14.515705 
L 216.797643 15.389569 
L 217.508413 16.842938 
L 218.324482 19.065593 
L 219.24585 22.256203 
L 220.325168 26.851761 
L 221.562433 33.143855 
L 223.062948 42.009313 
L 224.984658 54.807092 
L 231.407911 98.745647 
L 232.882101 106.758281 
L 234.119367 112.333349 
L 235.172359 116.125805 
L 236.093727 118.660593 
L 236.883471 120.218818 
L 237.541592 121.069702 
L 238.120737 121.475588 
L 238.620909 121.565437 
L 239.094755 121.427024 
L 239.594927 121.045379 
L 240.174072 120.303253 
L 240.832193 119.074016 
L 241.595612 117.145587 
L 242.464331 114.318807 
L 243.464673 110.277427 
L 244.622965 104.637868 
L 245.991855 96.823241 
L 247.702967 85.689213 
L 250.361773 66.702896 
L 253.599724 43.949668 
L 255.310837 33.471539 
L 256.679727 26.37602 
L 257.838018 21.468198 
L 258.838361 18.140603 
L 259.680755 16.043092 
L 260.417849 14.760687 
L 261.049645 14.083331 
L 261.576141 13.820679 
L 262.049987 13.820405 
L 262.523834 14.044051 
L 263.05033 14.554248 
L 263.655801 15.478464 
L 264.340246 16.950708 
L 265.12999 19.197441 
L 266.051358 22.527897 
L 267.10435 27.205632 
L 268.341616 33.765 
L 269.84213 43.004611 
L 271.816491 56.685079 
L 277.476325 96.796536 
L 279.003163 105.604925 
L 280.266754 111.65516 
L 281.319746 115.69342 
L 282.241115 118.404305 
L 283.030859 120.080342 
L 283.688979 121.004121 
L 284.2418 121.441229 
L 284.741971 121.567449 
L 285.215818 121.450239 
L 285.715989 121.076913 
L 286.26881 120.367927 
L 286.900606 119.181502 
L 287.6377 117.301497 
L 288.506419 114.425227 
L 289.506762 110.278779 
L 290.665053 104.461328 
L 292.033943 96.375391 
L 293.745056 84.84643 
L 296.535485 64.266772 
L 299.431214 43.452971 
L 301.116002 32.921281 
L 302.458567 25.863398 
L 303.590534 21.036649 
L 304.564551 17.807869 
L 305.38062 15.809208 
L 306.09139 14.616305 
L 306.670536 14.030841 
L 307.170707 13.808196 
L 307.644554 13.840536 
L 308.1184 14.109646 
L 308.644897 14.685125 
L 309.250367 15.702991 
L 309.961137 17.374709 
L 310.777206 19.90907 
L 311.724899 23.635582 
L 312.804216 28.825393 
L 314.094132 36.189353 
L 315.67362 46.592522 
L 317.911229 62.989847 
L 321.938924 92.601827 
L 323.571062 102.859815 
L 324.887303 109.804505 
L 325.992945 114.525568 
L 326.940638 117.667053 
L 327.756707 119.654905 
L 328.441152 120.788526 
L 329.020298 121.358295 
L 329.520469 121.559477 
L 329.967991 121.509792 
L 330.441837 121.220755 
L 330.968333 120.615754 
L 331.573804 119.554646 
L 332.284574 117.820163 
L 333.100643 115.199115 
L 334.048336 111.354966 
L 335.153978 105.871648 
L 336.443893 98.28781 
L 338.049707 87.431112 
L 340.418939 69.689706 
L 343.946463 43.43002 
L 345.604926 32.794521 
L 346.921167 25.714696 
L 348.026809 20.905243 
L 348.974502 17.710631 
L 349.790571 15.695845 
L 350.475016 14.553929 
L 351.054161 13.987637 
L 351.554333 13.797277 
L 352.001855 13.862769 
L 352.475701 14.174771 
L 353.002197 14.812632 
L 353.607668 15.920733 
L 354.318438 17.722206 
L 355.134507 20.43446 
L 356.0822 24.40089 
L 357.187842 30.043781 
L 358.504082 37.997613 
L 360.13622 49.316592 
L 362.689726 68.829298 
L 365.743404 91.768117 
L 367.375542 102.396538 
L 368.691782 109.588774 
L 369.797424 114.464801 
L 370.745117 117.692207 
L 371.534862 119.661483 
L 372.219307 120.815761 
L 372.798452 121.382076 
L 373.272299 121.562165 
L 373.719821 121.497048 
L 374.167342 121.203535 
L 374.693839 120.567321 
L 375.299309 119.451321 
L 376.010079 117.627577 
L 376.826148 114.873347 
L 377.773841 110.838167 
L 378.879483 105.092053 
L 380.195723 96.991554 
L 381.854186 85.277221 
L 384.539317 64.426733 
L 387.356071 43.111925 
L 388.961884 32.589292 
L 390.2518 25.512994 
L 391.331117 20.740526 
L 392.252485 17.594396 
L 393.042229 15.626491 
L 393.70035 14.522048 
L 394.25317 13.979393 
L 394.727017 13.797439 
L 395.174539 13.866725 
L 395.62206 14.170146 
L 396.148557 14.825264 
L 396.754027 15.972428 
L 397.464797 17.845008 
L 398.280866 20.670338 
L 399.228559 24.805666 
L 400.334201 30.687474 
L 401.650441 38.966119 
L 403.308904 50.909465 
L 406.178308 73.532722 
L 408.731815 92.940303 
L 410.311303 103.31922 
L 411.574894 110.243771 
L 412.654211 114.982074 
L 413.549254 117.993229 
L 414.312674 119.858539 
L 414.970794 120.926278 
L 415.523615 121.4279 
L 415.997461 121.567412 
L 416.418658 121.465482 
L 416.86618 121.124458 
L 417.392676 120.418134 
L 417.998147 119.203292 
L 418.708917 117.240276 
L 419.524986 114.298381 
L 420.472679 110.014113 
L 421.604645 103.789215 
L 422.947211 95.076685 
L 424.684648 82.209088 
L 430.949952 34.304725 
L 432.266192 26.631178 
L 433.371834 21.412431 
L 434.319527 17.951657 
L 435.109272 15.837844 
L 435.793717 14.598452 
L 436.346538 14.00945 
L 436.820384 13.801506 
L 437.241581 13.847933 
L 437.689103 14.135735 
L 438.189274 14.746733 
L 438.76842 15.831505 
L 439.452865 17.624867 
L 440.242609 20.358895 
L 441.163977 24.399256 
L 442.243295 30.196775 
L 443.53321 38.425619 
L 445.165348 50.398916 
L 447.903128 72.472611 
L 450.509284 92.811448 
L 452.062448 103.27458 
L 453.326038 110.355244 
L 454.379031 115.064383 
L 455.274074 118.115183 
L 456.037494 119.97863 
L 456.669289 120.98612 
L 457.195785 121.447816 
L 457.643307 121.567381 
L 458.064504 121.450078 
L 458.512026 121.08162 
L 459.038522 120.328653 
L 459.643992 119.041605 
L 460.354762 116.969924 
L 461.170831 113.874356 
L 462.144849 109.240701 
L 463.276816 102.701266 
L 464.645706 93.404518 
L 466.462117 79.390004 
L 471.779729 37.332625 
L 473.174943 28.537415 
L 474.333235 22.584141 
L 475.307253 18.678399 
L 476.123322 16.251237 
L 476.807767 14.841399 
L 477.386912 14.107795 
L 477.860759 13.825646 
L 478.281956 13.81679 
L 478.703153 14.035881 
L 479.176999 14.553829 
L 479.72982 15.517973 
L 480.387941 17.161911 
L 481.15136 19.72336 
L 482.046403 23.575842 
L 483.073071 29.03302 
L 484.310337 36.89539 
L 485.837176 48.126637 
L 488.153759 67.045394 
L 491.286411 92.332637 
L 492.839574 103.086675 
L 494.07684 110.211477 
L 495.129833 115.046161 
L 495.998551 118.082555 
L 496.735646 119.937056 
L 497.367441 120.978241 
L 497.893938 121.450765 
L 498.341459 121.567014 
L 498.762656 121.436062 
L 499.210178 121.042006 
L 499.736674 120.244559 
L 500.342145 118.887822 
L 501.052914 116.710511 
L 501.895308 113.347516 
L 502.869326 108.473668 
L 504.027618 101.452368 
L 505.422832 91.539732 
L 507.344543 76.119038 
L 511.767111 40.083237 
L 513.214975 30.34119 
L 514.399592 23.782294 
L 515.399934 19.420141 
L 516.242328 16.670229 
L 516.953098 15.046762 
L 517.532244 14.211626 
L 518.032415 13.849191 
L 518.453612 13.804015 
L 518.874809 13.997018 
L 519.322331 14.462265 
L 519.848827 15.349875 
L 520.480622 16.89245 
L 521.217717 19.331112 
L 522.086436 23.045802 
L 523.086778 28.363131 
L 524.271395 35.923947 
L 525.745584 46.862821 
L 527.904218 64.756469 
L 531.300118 92.807189 
L 532.826957 103.532308 
L 534.037898 110.574105 
L 535.064566 115.311359 
L 535.933284 118.332922 
L 536.670379 120.139259 
L 537.275849 121.08296 
L 537.776021 121.487689 
L 538.197218 121.563056 
L 538.59209 121.412748 
L 539.039612 120.984507 
L 539.566108 120.132615 
L 540.171578 118.695032 
L 540.882348 116.399612 
L 541.724742 112.86778 
L 542.69876 107.76677 
L 543.857051 100.444733 
L 545.278591 89.946743 
L 547.305601 73.121333 
L 551.070049 41.701956 
L 552.570563 31.178017 
L 553.755179 24.331392 
L 554.755522 19.760804 
L 555.597915 16.867898 
L 556.308685 15.150703 
L 556.887831 14.259028 
L 557.388002 13.862779 
L 557.809199 13.800182 
L 558.204071 13.967093 
L 558.651593 14.419466 
L 559.178089 15.30675 
L 559.78356 16.793916 
L 560.49433 19.158674 
L 561.336724 22.78622 
L 562.310741 28.012278 
L 563.469033 35.49549 
L 564.916897 46.405162 
L 567.022882 64.187988 
L 570.445107 93.045038 
L 571.945621 103.765055 
L 573.156562 110.892565 
L 574.156905 115.535243 
L 574.999299 118.470556 
L 575.710068 120.208977 
L 576.289214 121.107519 
L 576.763061 121.490081 
L 577.184258 121.561396 
L 577.57913 121.398024 
L 578.026651 120.944236 
L 578.553148 120.047985 
L 579.158618 118.540997 
L 579.869388 116.140627 
L 580.711782 112.455104 
L 581.6858 107.14381 
L 582.844091 99.540262 
L 584.291956 88.465352 
L 586.424265 70.222808 
L 589.688541 42.439076 
L 591.189055 31.60112 
L 592.373672 24.547903 
L 593.374014 19.846109 
L 594.216408 16.880181 
L 594.927178 15.130947 
L 595.506324 14.234245 
L 595.98017 13.860426 
L 596.375042 13.798406 
L 596.769914 13.963677 
L 597.217436 14.42501 
L 597.717607 15.282332 
L 598.323078 16.794816 
L 599.033848 19.214584 
L 599.876242 22.939977 
L 600.85026 28.317457 
L 602.008551 36.021843 
L 603.456415 47.243229 
L 605.61505 65.935475 
L 608.747702 92.842735 
L 610.248216 103.790463 
L 611.432832 110.899429 
L 612.433175 115.620867 
L 613.275569 118.581361 
L 613.960014 120.258435 
L 614.539159 121.148938 
L 615.013006 121.510403 
L 615.407878 121.557139 
L 615.80275 121.372108 
L 616.250272 120.883096 
L 616.776768 119.931265 
L 617.382239 118.342334 
L 618.093008 115.823026 
L 618.935402 111.96867 
L 619.935745 106.267679 
L 621.120361 98.145397 
L 622.620875 86.19661 
L 625.042758 64.809087 
L 627.648914 42.382488 
L 629.123103 31.536057 
L 630.307719 24.37261 
L 631.281737 19.740755 
L 632.097806 16.834199 
L 632.782251 15.125659 
L 633.361397 14.218503 
L 633.835243 13.850461 
L 634.230115 13.803163 
L 634.624988 13.992115 
L 635.072509 14.490949 
L 635.599005 15.461507 
L 636.204476 17.081197 
L 636.915246 19.648373 
L 637.75764 23.574096 
L 638.757982 29.376603 
L 639.942599 37.634839 
L 641.443113 49.763075 
L 643.970294 72.348804 
L 646.418501 93.498589 
L 647.866366 104.177826 
L 649.024657 111.18947 
L 649.998675 115.811649 
L 650.814744 118.687448 
L 651.499189 120.353855 
L 652.05201 121.185807 
L 652.499532 121.516857 
L 652.894404 121.552567 
L 653.289276 121.347555 
L 653.736798 120.825225 
L 654.263294 119.82007 
L 654.868764 118.151825 
L 655.605859 115.405565 
L 656.448253 111.357114 
L 657.448596 105.398797 
L 658.659537 96.749365 
L 660.2127 83.910803 
L 663.345352 55.56249 
L 665.319713 38.918645 
L 666.688603 29.16277 
L 667.794245 22.781784 
L 668.715613 18.670196 
L 669.479033 16.174693 
L 670.137153 14.722756 
L 670.663649 14.041445 
L 671.084846 13.808313 
L 671.453393 13.833058 
L 671.848265 14.096514 
L 672.295787 14.690042 
L 672.822283 15.785084 
L 673.454079 17.653483 
L 674.191173 20.570037 
L 675.059892 24.965644 
L 676.086559 31.370087 
L 677.35015 40.77096 
L 679.008613 54.949513 
L 684.089301 99.605332 
L 685.352892 108.21601 
L 686.405884 113.951888 
L 687.274602 117.551155 
L 688.011697 119.734755 
L 688.617168 120.902868 
L 689.117339 121.431684 
L 689.512211 121.567227 
L 689.880758 121.46845 
L 690.275631 121.121566 
L 690.749477 120.37827 
L 691.302298 119.066388 
L 691.960418 116.89596 
L 692.750162 113.455734 
L 693.671531 108.371033 
L 694.777173 100.920868 
L 696.146063 90.047256 
L 698.094098 72.570467 
L 701.568973 41.311472 
L 702.990513 30.63534 
L 704.122479 23.706716 
L 705.070172 19.196748 
L 705.859917 16.434724 
L 706.518037 14.867091 
L 707.044533 14.109323 
L 707.492055 13.817844 
L 707.860602 13.822722 
L 708.229149 14.048978 
L 708.650346 14.577548 
L 709.176842 15.639138 
L 709.782313 17.399801 
L 710.519407 20.295457 
L 711.361801 24.558274 
L 712.362144 30.819212 
L 713.573085 39.87895 
L 715.152574 53.493942 
L 720.496509 101.053862 
L 721.707451 109.210693 
L 722.707793 114.56176 
L 723.550187 117.960563 
L 724.260957 119.980109 
L 724.840103 121.027072 
L 725.313949 121.474949 
L 725.708821 121.564379 
L 726.077369 121.414453 
L 726.498566 120.967859 
L 726.998737 120.059361 
L 727.577883 118.503161 
L 728.262328 115.987378 
L 729.078397 112.078107 
L 730.052415 106.223964 
L 731.210706 97.805944 
L 732.684895 85.332505 
L 735.264726 61.184653 
L 737.502335 41.112365 
L 738.89755 30.481664 
L 740.003192 23.621628 
L 740.92456 19.173878 
L 741.714304 16.378681 
L 742.372425 14.810187 
L 742.898921 14.069847 
L 743.320118 13.812111 
L 743.688665 13.832034 
L 744.057212 14.081112 
L 744.478409 14.645122 
L 745.004905 15.7646 
L 745.610376 17.609485 
L 746.34747 20.630814 
L 747.216189 25.218097 
L 748.242857 31.928784 
L 749.506447 41.790021 
L 751.191235 56.871004 
L 755.666452 97.8392 
L 756.956368 107.216164 
L 758.00936 113.352718 
L 758.878079 117.217562 
L 759.615173 119.57046 
L 760.220644 120.834935 
L 760.720815 121.412662 
L 761.115687 121.566691 
L 761.484235 121.468993 
L 761.879107 121.105958 
L 762.352953 120.319927 
L 762.905774 118.926851 
L 763.563895 116.617995 
L 764.353639 112.957086 
L 765.275007 107.55122 
L 766.380649 99.649549 
L 767.775864 87.935074 
L 769.908173 67.858187 
L 772.698603 41.97624 
L 774.120142 30.850965 
L 775.225784 23.812323 
L 776.147152 19.253045 
L 776.936897 16.395141 
L 777.568692 14.849774 
L 778.095188 14.081916 
L 778.516385 13.81348 
L 778.884932 13.832397 
L 779.25348 14.088275 
L 779.674677 14.669528 
L 780.201173 15.824456 
L 780.806643 17.728385 
L 781.543738 20.84596 
L 782.412457 25.576508 
L 783.439124 32.488603 
L 784.702715 42.624852 
L 786.413827 58.320158 
L 790.520497 96.670744 
L 791.836738 106.57491 
L 792.88973 112.941177 
L 793.784774 117.070433 
L 794.521868 119.501661 
L 795.127339 120.809052 
L 795.62751 121.406838 
L 796.022382 121.56662 
L 796.364605 121.481364 
L 796.733152 121.157468 
L 797.180674 120.442575 
L 797.70717 119.155975 
L 798.338965 116.992056 
L 799.102385 113.513744 
L 799.997428 108.318019 
L 801.076745 100.63582 
L 802.41931 89.344902 
L 804.393671 70.599548 
L 807.447349 41.725256 
L 808.842563 30.666498 
L 809.948205 23.564506 
L 810.869574 19.003323 
L 811.632993 16.261189 
L 812.264788 14.745552 
L 812.76496 14.045221 
L 813.186157 13.803141 
L 813.528379 13.841835 
L 813.896926 14.119489 
L 814.318123 14.73497 
L 814.844619 15.946224 
L 815.476415 18.032886 
L 816.213509 21.304851 
L 817.082228 26.241159 
L 818.13522 33.618896 
L 819.425136 44.354976 
L 821.241548 61.536216 
L 824.742747 94.882387 
L 826.085312 105.430083 
L 827.164629 112.277474 
L 828.059673 116.636245 
L 828.796767 119.234255 
L 829.402238 120.660162 
L 829.902409 121.341722 
L 830.297281 121.557976 
L 830.639504 121.514477 
L 831.008051 121.227899 
L 831.429248 120.597537 
L 831.955744 119.360882 
L 832.58754 117.234333 
L 833.324634 113.904135 
L 834.193353 108.885697 
L 835.246345 101.394515 
L 836.536261 90.510848 
L 838.405322 72.615923 
L 841.695923 41.009466 
L 843.064813 30.106376 
L 844.14413 23.174099 
L 845.039174 18.762763 
L 845.776268 16.136188 
L 846.381739 14.697784 
L 846.88191 14.013715 
L 847.276782 13.800568 
L 847.619005 13.850395 
L 847.987552 14.147531 
L 848.408749 14.794623 
L 848.935245 16.058945 
L 849.567041 18.227988 
L 850.304135 21.619243 
L 851.172854 26.722726 
L 852.225846 34.330089 
L 853.542086 45.604077 
L 854.753028 57.167079 
L 854.753028 57.167079 
" clip-path="url(#pe90868e937)" style="fill: none; stroke: #e36f47; stroke-width: 6"/>
   </g>
   <g id="patch_3">
    <path d="M 41.316477 124.800705 
L 41.316477 10.559295 
" style="fill: none; stroke: #000000; stroke-width: 2; stroke-linejoin: miter; stroke-linecap: square"/>
   </g>
  </g>
 </g>
 <defs>
  <clipPath id="pe90868e937">
   <rect x="41.316477" y="10.559295" width="837.128878" height="114.241411"/>
  </clipPath>
 </defs>
</svg>
