<?xml version="1.0" encoding="utf-8" standalone="no"?>
<!DOCTYPE svg PUBLIC "-//W3C//DTD SVG 1.1//EN"
  "http://www.w3.org/Graphics/SVG/1.1/DTD/svg11.dtd">
<svg xmlns:xlink="http://www.w3.org/1999/xlink" width="881.28pt" height="144pt" viewBox="0 0 881.28 144" xmlns="http://www.w3.org/2000/svg" version="1.1">
 <metadata>
  <rdf:RDF xmlns:dc="http://purl.org/dc/elements/1.1/" xmlns:cc="http://creativecommons.org/ns#" xmlns:rdf="http://www.w3.org/1999/02/22-rdf-syntax-ns#">
   <cc:Work>
    <dc:type rdf:resource="http://purl.org/dc/dcmitype/StillImage"/>
    <dc:date>2024-05-07T19:46:44.103428</dc:date>
    <dc:format>image/svg+xml</dc:format>
    <dc:creator>
     <cc:Agent>
      <dc:title>Matplotlib v3.7.0, https://matplotlib.org/</dc:title>
     </cc:Agent>
    </dc:creator>
   </cc:Work>
  </rdf:RDF>
 </metadata>
 <defs>
  <style type="text/css">*{stroke-linejoin: round; stroke-linecap: butt}</style>
 </defs>
 <g id="figure_1">
  <g id="patch_1">
   <path d="M 0 144 
L 881.28 144 
L 881.28 0 
L 0 0 
L 0 144 
z
" style="fill: none"/>
  </g>
  <g id="axes_1">
   <g id="patch_2">
    <path d="M 41.316477 127.743467 
L 878.445354 127.743467 
L 878.445354 10.496532 
L 41.316477 10.496532 
L 41.316477 127.743467 
z
" style="fill: none"/>
   </g>
   <g id="line2d_1">
    <path d="M 65.008803 13.814842 
L 65.5353 13.923974 
L 66.088121 14.27299 
L 66.693591 14.928983 
L 67.378036 16.010887 
L 68.16778 17.698818 
L 69.062824 20.162815 
L 70.089491 23.674795 
L 71.274108 28.570769 
L 72.642998 35.230518 
L 74.275136 44.336977 
L 76.407445 57.594636 
L 82.830698 98.407489 
L 84.489161 107.084149 
L 85.858051 113.138236 
L 87.042667 117.431411 
L 88.069335 120.369985 
L 88.964378 122.301394 
L 89.727798 123.466335 
L 90.385918 124.105668 
L 90.965064 124.385111 
L 91.49156 124.407709 
L 92.018056 124.209635 
L 92.597202 123.737693 
L 93.228997 122.921756 
L 93.966092 121.578682 
L 94.808486 119.540655 
L 95.756179 116.631128 
L 96.835496 112.568185 
L 98.072762 107.013482 
L 99.546951 99.307843 
L 101.337038 88.694062 
L 103.943194 71.747574 
L 107.997214 45.460221 
L 109.839951 34.99667 
L 111.340465 27.696339 
L 112.604055 22.593888 
L 113.683372 19.091199 
L 114.631066 16.717826 
L 115.447135 15.226583 
L 116.157904 14.357206 
L 116.763375 13.93763 
L 117.316196 13.814849 
L 117.842692 13.929695 
L 118.395513 14.293347 
L 119.000984 14.975625 
L 119.685429 16.100152 
L 120.475173 17.854027 
L 121.370216 20.413671 
L 122.396884 24.060799 
L 123.5815 29.14233 
L 124.95039 36.047585 
L 126.608853 45.633836 
L 128.820137 59.849935 
L 134.453646 96.67109 
L 136.138433 105.92919 
L 137.533648 112.429633 
L 138.718264 116.962323 
L 139.744932 120.076068 
L 140.639975 122.130731 
L 141.403395 123.376566 
L 142.061515 124.066446 
L 142.640661 124.375038 
L 143.167157 124.411362 
L 143.693653 124.214686 
L 144.246474 123.758085 
L 144.878269 122.924978 
L 145.589039 121.596597 
L 146.405108 119.573052 
L 147.352801 116.580126 
L 148.432118 112.379216 
L 149.669384 106.617441 
L 151.117249 98.764661 
L 152.907336 87.759828 
L 155.618791 69.513089 
L 159.225289 45.484864 
L 161.041701 34.866045 
L 162.51589 27.503399 
L 163.753156 22.394513 
L 164.806149 18.916859 
L 165.727517 16.582822 
L 166.517261 15.134914 
L 167.201706 14.305231 
L 167.780852 13.916889 
L 168.307348 13.815585 
L 168.807519 13.942089 
L 169.334015 14.309393 
L 169.939486 15.02687 
L 170.623931 16.213358 
L 171.413675 18.066855 
L 172.308719 20.773523 
L 173.335386 24.629367 
L 174.520003 29.996181 
L 175.915217 37.424158 
L 177.600005 47.679539 
L 179.942913 63.452362 
L 184.497105 94.310096 
L 186.234542 104.44845 
L 187.656081 111.502561 
L 188.867023 116.44045 
L 189.89369 119.759726 
L 190.788734 121.955203 
L 191.552153 123.29003 
L 192.210273 124.032278 
L 192.789419 124.367689 
L 193.28959 124.416141 
L 193.789762 124.240553 
L 194.316258 123.814246 
L 194.921728 123.020012 
L 195.606173 121.735993 
L 196.395918 119.757054 
L 197.317286 116.799882 
L 198.370278 112.614547 
L 199.581219 106.8323 
L 201.002759 98.89976 
L 202.766521 87.714302 
L 205.451651 69.052231 
L 208.926526 45.192398 
L 210.716613 34.444717 
L 212.138152 27.182157 
L 213.349094 22.088571 
L 214.375761 18.659049 
L 215.270804 16.386903 
L 216.034224 15.002557 
L 216.692344 14.230094 
L 217.245165 13.887294 
L 217.745336 13.819847 
L 218.245508 13.983515 
L 218.772004 14.40495 
L 219.377474 15.203269 
L 220.061919 16.504174 
L 220.851664 18.518219 
L 221.746707 21.440331 
L 222.773375 25.580741 
L 223.984316 31.452153 
L 225.405855 39.523422 
L 227.169617 50.91343 
L 229.907397 70.273553 
L 233.197998 93.172557 
L 234.96176 103.907585 
L 236.3833 111.252581 
L 237.567916 116.278012 
L 238.594584 119.724599 
L 239.463303 121.931001 
L 240.226722 123.307229 
L 240.884842 124.059161 
L 241.437663 124.375 
L 241.937834 124.410481 
L 242.438006 124.207781 
L 242.964502 123.737832 
L 243.569973 122.87468 
L 244.254418 121.489514 
L 245.044162 119.365044 
L 245.96553 116.20271 
L 247.018522 111.74316 
L 248.229463 105.605753 
L 249.677328 97.059561 
L 251.520064 84.747273 
L 254.994939 59.612696 
L 257.469471 42.586445 
L 259.127934 32.642507 
L 260.470499 25.853591 
L 261.62879 21.086843 
L 262.602808 17.950612 
L 263.445202 15.925937 
L 264.182297 14.699955 
L 264.787767 14.083359 
L 265.314264 13.8373 
L 265.78811 13.847932 
L 266.261957 14.078613 
L 266.788453 14.59209 
L 267.393923 15.514285 
L 268.104693 17.042137 
L 268.920762 19.37283 
L 269.84213 22.71226 
L 270.921447 27.514377 
L 272.185038 34.229589 
L 273.685552 43.483735 
L 275.659913 57.17755 
L 281.635644 99.62773 
L 283.162483 108.393626 
L 284.426074 114.418395 
L 285.505391 118.53737 
L 286.426759 121.232625 
L 287.216503 122.905891 
L 287.874624 123.835591 
L 288.453769 124.29741 
L 288.953941 124.425152 
L 289.427787 124.313569 
L 289.927958 123.950562 
L 290.480779 123.258084 
L 291.112575 122.096763 
L 291.849669 120.253745 
L 292.692063 117.525766 
L 293.666081 113.589039 
L 294.798048 108.045771 
L 296.140613 100.293131 
L 297.799076 89.315695 
L 300.220958 71.60026 
L 303.932756 44.557857 
L 305.643869 33.772052 
L 307.012759 26.490489 
L 308.17105 21.474699 
L 309.145068 18.170811 
L 309.987462 16.036866 
L 310.698232 14.781608 
L 311.303702 14.116209 
L 311.830198 13.843887 
L 312.304045 13.843934 
L 312.777891 14.076439 
L 313.304388 14.606422 
L 313.909858 15.566143 
L 314.594303 17.09453 
L 315.384047 19.426299 
L 316.305416 22.881657 
L 317.358408 27.732731 
L 318.595674 34.531187 
L 320.096188 44.099515 
L 322.070548 58.247675 
L 327.598758 98.692716 
L 329.125597 107.820408 
L 330.389188 114.097303 
L 331.468505 118.383684 
L 332.389873 121.180045 
L 333.179617 122.906133 
L 333.837737 123.854681 
L 334.390558 124.300498 
L 334.864405 124.425098 
L 335.311927 124.323755 
L 335.785773 123.984811 
L 336.338594 123.289991 
L 336.970389 122.105926 
L 337.707484 120.210159 
L 338.549878 117.389266 
L 339.523896 113.305806 
L 340.655862 107.547263 
L 341.998428 99.49338 
L 343.656891 88.109772 
L 346.210397 68.819438 
L 349.448348 44.692418 
L 351.133136 33.78837 
L 352.475701 26.464733 
L 353.607668 21.443893 
L 354.581686 18.074499 
L 355.397755 15.979033 
L 356.108524 14.718543 
L 356.713995 14.070055 
L 357.214166 13.833441 
L 357.661688 13.852418 
L 358.135535 14.110087 
L 358.662031 14.68179 
L 359.267501 15.706909 
L 359.951946 17.330658 
L 360.741691 19.798692 
L 361.663059 23.444519 
L 362.742376 28.6868 
L 364.005967 36.00123 
L 365.532806 46.217837 
L 367.665115 62.154012 
L 372.114007 95.736658 
L 373.719821 105.971327 
L 375.009736 112.847661 
L 376.115378 117.594173 
L 377.036746 120.648523 
L 377.826491 122.570402 
L 378.510936 123.695412 
L 379.090081 124.246271 
L 379.563928 124.42034 
L 380.01145 124.35512 
L 380.485296 124.043063 
L 381.011792 123.404722 
L 381.617263 122.295464 
L 382.328033 120.491629 
L 383.144102 117.774895 
L 384.091795 113.799963 
L 385.197437 108.140767 
L 386.513677 100.154699 
L 388.145815 88.768226 
L 390.594022 69.893492 
L 393.910948 44.576733 
L 395.569411 33.618679 
L 396.885651 26.305478 
L 397.991293 21.321333 
L 398.938986 17.995558 
L 399.755055 15.883211 
L 400.4395 14.671292 
L 401.018646 14.054621 
L 401.518817 13.827502 
L 401.966339 13.865533 
L 402.413861 14.131418 
L 402.914032 14.697019 
L 403.493178 15.702338 
L 404.177623 17.366304 
L 404.967367 19.907011 
L 405.888735 23.670104 
L 406.968053 29.087833 
L 408.231643 36.647155 
L 409.784807 47.3835 
L 411.996091 64.409551 
L 415.918487 94.694361 
L 417.5243 105.284104 
L 418.814216 112.414901 
L 419.919858 117.342415 
L 420.841226 120.514153 
L 421.63097 122.508999 
L 422.315415 123.675019 
L 422.868236 124.226352 
L 423.342083 124.417932 
L 423.789604 124.359633 
L 424.237126 124.069033 
L 424.737298 123.470718 
L 425.342768 122.364413 
L 426.027213 120.619999 
L 426.843282 117.878178 
L 427.76465 113.962868 
L 428.843968 108.361407 
L 430.133883 100.414619 
L 431.739696 89.01906 
L 434.135254 70.202588 
L 437.45218 44.394783 
L 439.084318 33.431732 
L 440.400558 26.025923 
L 441.5062 21.017175 
L 442.427568 17.792039 
L 443.217312 15.763291 
L 443.901757 14.577439 
L 444.454578 14.016818 
L 444.928425 13.822142 
L 445.375947 13.881653 
L 445.823468 14.177454 
L 446.32364 14.786228 
L 446.92911 15.911562 
L 447.613555 17.685472 
L 448.429624 20.472646 
L 449.377317 24.576762 
L 450.456634 30.2898 
L 451.74655 38.376316 
L 453.352363 49.941235 
L 455.85322 69.814612 
L 458.933222 93.899217 
L 460.565361 104.929372 
L 461.855276 112.228343 
L 462.934593 117.160166 
L 463.855961 120.420486 
L 464.645706 122.469159 
L 465.303826 123.628395 
L 465.856647 124.208115 
L 466.330493 124.415275 
L 466.75169 124.373862 
L 467.199212 124.097344 
L 467.699383 123.506198 
L 468.278529 122.453768 
L 468.962974 120.710979 
L 469.752718 118.050476 
L 470.674087 114.113215 
L 471.753404 108.453435 
L 473.016994 100.575823 
L 474.596483 89.231292 
L 476.965716 70.379663 
L 480.282641 44.23647 
L 481.888455 33.334729 
L 483.17837 26.001939 
L 484.257687 21.054606 
L 485.179056 17.790284 
L 485.9688 15.744596 
L 486.62692 14.592018 
L 487.179741 14.020562 
L 487.653587 13.82225 
L 488.074784 13.872773 
L 488.522306 14.160133 
L 489.022477 14.76466 
L 489.601623 15.834028 
L 490.286068 17.598483 
L 491.075812 20.285668 
L 491.997181 24.255535 
L 493.076498 29.954325 
L 494.366413 38.054531 
L 495.972227 49.675457 
L 498.420434 69.261124 
L 501.553086 93.963795 
L 503.158899 104.89754 
L 504.448815 112.251269 
L 505.528132 117.209864 
L 506.4495 120.477591 
L 507.239244 122.520831 
L 507.897364 123.667279 
L 508.450185 124.230654 
L 508.924032 124.419937 
L 509.345229 124.359822 
L 509.79275 124.060748 
L 510.292922 123.441433 
L 510.872068 122.353002 
L 511.556513 120.563917 
L 512.346257 117.846569 
L 513.267625 113.841111 
L 514.346942 108.103486 
L 515.636858 99.966672 
L 517.242671 88.32451 
L 519.796177 67.917329 
L 522.770881 44.608309 
L 524.403019 33.549289 
L 525.692934 26.228124 
L 526.798576 21.16565 
L 527.719944 17.901797 
L 528.509689 15.841863 
L 529.194134 14.628704 
L 529.773279 14.025834 
L 530.247126 13.824181 
L 530.694648 13.875269 
L 531.142169 14.160377 
L 531.642341 14.753948 
L 532.221486 15.798951 
L 532.905931 17.517793 
L 533.695676 20.129105 
L 534.617044 23.978908 
L 535.696361 29.495541 
L 536.986277 37.325941 
L 538.59209 48.552601 
L 540.987647 67.086334 
L 544.383548 93.136037 
L 546.04201 104.137331 
L 547.384576 111.625132 
L 548.516542 116.738123 
L 549.464235 120.074914 
L 550.280304 122.21224 
L 550.991074 123.497283 
L 551.596545 124.159717 
L 552.096716 124.40421 
L 552.544238 124.39034 
L 552.99176 124.157417 
L 553.491931 123.639782 
L 554.071077 122.705571 
L 554.755522 121.148351 
L 555.545266 118.762663 
L 556.466634 115.224445 
L 557.545951 110.129496 
L 558.809542 103.023073 
L 560.362706 92.932102 
L 562.52134 77.2986 
L 566.970232 44.802508 
L 568.65502 34.315729 
L 570.02391 27.123584 
L 571.182202 22.141863 
L 572.208869 18.656426 
L 573.103912 16.370174 
L 573.867332 14.989518 
L 574.525452 14.224711 
L 575.104598 13.877666 
L 575.604769 13.822016 
L 576.104941 13.990114 
L 576.657761 14.432165 
L 577.263232 15.218289 
L 577.974002 16.531406 
L 578.790071 18.535945 
L 579.737764 21.488539 
L 580.843406 25.706091 
L 582.133321 31.54385 
L 583.71281 39.780854 
L 585.818794 52.047266 
L 592.557945 92.199212 
L 594.400682 101.388932 
L 595.98017 108.185795 
L 597.375385 113.260747 
L 598.638976 117.058399 
L 599.770942 119.796146 
L 600.79761 121.729621 
L 601.718978 123.019261 
L 602.561372 123.831764 
L 603.324791 124.268694 
L 604.035561 124.422826 
L 604.720006 124.344259 
L 605.430776 124.030685 
L 606.194195 123.435318 
L 607.036589 122.474004 
L 607.957958 121.065691 
L 608.984625 119.069391 
L 610.116592 116.363154 
L 611.380183 112.739179 
L 612.775397 108.029607 
L 614.302236 102.066284 
L 616.013349 94.456123 
L 618.093008 84.134463 
L 620.988737 68.509045 
L 625.964126 41.597777 
L 627.938486 32.202619 
L 629.517975 25.712566 
L 630.834215 21.198939 
L 631.939857 18.146961 
L 632.88755 16.132257 
L 633.703619 14.879116 
L 634.414389 14.172532 
L 635.01986 13.865336 
L 635.572681 13.829008 
L 636.099177 14.016049 
L 636.678323 14.475983 
L 637.310118 15.285524 
L 638.020888 16.583465 
L 638.810632 18.507174 
L 639.705675 21.294613 
L 640.732343 25.266585 
L 641.890634 30.692322 
L 643.206875 37.967231 
L 644.786363 48.017524 
L 646.866023 62.813405 
L 651.946711 99.569261 
L 653.47355 108.689498 
L 654.710816 114.810751 
L 655.737483 118.857609 
L 656.632527 121.534508 
L 657.369621 123.10269 
L 658.001417 123.970179 
L 658.527913 124.348779 
L 658.975434 124.421194 
L 659.422956 124.262977 
L 659.896803 123.843745 
L 660.449624 123.028687 
L 661.081419 121.672051 
L 661.818514 119.528446 
L 662.687232 116.255581 
L 663.687575 111.547582 
L 664.845867 104.96262 
L 666.241081 95.668755 
L 668.057493 81.947885 
L 673.822626 37.216771 
L 675.217841 28.657169 
L 676.376132 22.833518 
L 677.376475 18.883826 
L 678.218869 16.402703 
L 678.929639 14.941361 
L 679.535109 14.166219 
L 680.03528 13.856753 
L 680.482802 13.835214 
L 680.930324 14.054966 
L 681.40417 14.549542 
L 681.956991 15.463702 
L 682.615112 17.016974 
L 683.378531 19.432905 
L 684.273574 23.064626 
L 685.300242 28.212557 
L 686.511183 35.475073 
L 688.011697 45.923207 
L 690.091357 62.13418 
L 694.277001 95.035073 
L 695.85649 105.529116 
L 697.12008 112.540298 
L 698.199398 117.362565 
L 699.120766 120.537654 
L 699.91051 122.526545 
L 700.594955 123.684546 
L 701.147776 124.229897 
L 701.621623 124.418278 
L 702.069144 124.35979 
L 702.516666 124.072854 
L 703.043162 123.445811 
L 703.648633 122.344488 
L 704.359403 120.547021 
L 705.175472 117.839911 
L 706.123165 113.888809 
L 707.255131 108.143327 
L 708.597697 100.098133 
L 710.308809 88.38512 
L 713.257187 66.335107 
L 716.021292 46.307034 
L 717.732405 35.461476 
L 719.12762 27.956766 
L 720.312236 22.715639 
L 721.338903 19.103062 
L 722.233947 16.700226 
L 723.023691 15.17594 
L 723.708136 14.312805 
L 724.287282 13.915002 
L 724.813778 13.81614 
L 725.313949 13.951232 
L 725.840445 14.330344 
L 726.445916 15.059477 
L 727.130361 16.24849 
L 727.94643 18.147209 
L 728.894123 20.962409 
L 729.999765 24.990993 
L 731.316005 30.676617 
L 732.974468 38.906057 
L 735.343701 51.928436 
L 740.687637 81.596615 
L 742.872596 92.296674 
L 744.767982 100.510206 
L 746.479094 106.981518 
L 748.058583 112.118091 
L 749.506447 116.09462 
L 750.822688 119.080044 
L 752.007304 121.233459 
L 753.060296 122.704342 
L 753.981665 123.633276 
L 754.797734 124.164304 
L 755.561153 124.402288 
L 756.271923 124.389888 
L 756.956368 124.15657 
L 757.667138 123.676004 
L 758.430557 122.879778 
L 759.246626 121.696647 
L 760.14167 119.991441 
L 761.115687 117.637221 
L 762.16868 114.49522 
L 763.326971 110.317187 
L 764.616887 104.786929 
L 766.038426 97.674422 
L 767.696889 88.176703 
L 769.776549 74.866265 
L 775.85758 35.042499 
L 777.331769 27.304262 
L 778.54271 22.058674 
L 779.569377 18.531829 
L 780.438096 16.275254 
L 781.175191 14.917334 
L 781.806986 14.176785 
L 782.333482 13.865839 
L 782.807329 13.827759 
L 783.281175 14.020948 
L 783.781347 14.477101 
L 784.360492 15.329275 
L 785.018613 16.71786 
L 785.782032 18.881606 
L 786.650751 22.048299 
L 787.651093 26.58304 
L 788.809385 32.933591 
L 790.178275 41.767499 
L 791.915712 54.564874 
L 798.391615 103.83558 
L 799.73418 111.606188 
L 800.839822 116.785256 
L 801.787515 120.228055 
L 802.577259 122.339262 
L 803.261704 123.585936 
L 803.84085 124.206958 
L 804.314696 124.415355 
L 804.735893 124.373008 
L 805.183415 124.093394 
L 805.683586 123.49629 
L 806.262732 122.433886 
L 806.947177 120.675616 
L 807.736921 117.993514 
L 808.65829 114.028509 
L 809.737607 108.337549 
L 811.027522 100.256675 
L 812.633336 88.687519 
L 815.186842 68.41075 
L 818.161545 45.257467 
L 819.793683 34.252299 
L 821.109924 26.797529 
L 822.215566 21.717543 
L 823.163259 18.315449 
L 823.979328 16.132371 
L 824.690097 14.811731 
L 825.295568 14.119301 
L 825.795739 13.848405 
L 826.243261 13.836109 
L 826.717108 14.057935 
L 827.217279 14.550655 
L 827.796425 15.446286 
L 828.48087 16.941174 
L 829.270614 19.227528 
L 830.191982 22.60581 
L 831.271299 27.444124 
L 832.561215 34.296025 
L 834.193353 44.261196 
L 836.615235 60.620028 
L 840.563956 87.234575 
L 842.433018 98.254738 
L 843.986181 106.142095 
L 845.355071 111.985057 
L 846.566012 116.227 
L 847.671654 119.320051 
L 848.645672 121.427236 
L 849.540716 122.860567 
L 850.33046 123.734269 
L 851.04123 124.215806 
L 851.69935 124.41187 
L 852.35747 124.375318 
L 853.01559 124.113935 
L 853.72636 123.588331 
L 854.516104 122.719967 
L 854.753028 122.403039 
L 854.753028 122.403039 
" clip-path="url(#pe829437f78)" style="fill: none; stroke: #009afa; stroke-width: 6"/>
   </g>
   <g id="matplotlib.axis_1"/>
   <g id="matplotlib.axis_2">
    <g id="ytick_1">
     <g id="line2d_2">
      <defs>
       <path id="m3c8b686ec6" d="M 0 0 
L 5 0 
" style="stroke: #000000"/>
      </defs>
      <g>
       <use xlink:href="#m3c8b686ec6" x="41.316477" y="124.425158" style="stroke: #000000"/>
      </g>
     </g>
     <g id="text_1">
      <!-- $-1$ -->
      <g transform="translate(1.976477 135.062971) scale(0.28 -0.28)">
       <defs>
        <path id="Cmsy10-a1" d="M 653 1472 
Q 600 1472 565 1512 
Q 531 1553 531 1600 
Q 531 1647 565 1687 
Q 600 1728 653 1728 
L 4325 1728 
Q 4375 1728 4408 1687 
Q 4441 1647 4441 1600 
Q 4441 1553 4408 1512 
Q 4375 1472 4325 1472 
L 653 1472 
z
" transform="scale(0.015625)"/>
        <path id="Cmr10-31" d="M 594 0 
L 594 225 
Q 1394 225 1394 428 
L 1394 3788 
Q 1063 3628 556 3628 
L 556 3853 
Q 1341 3853 1741 4263 
L 1831 4263 
Q 1853 4263 1873 4245 
Q 1894 4228 1894 4206 
L 1894 428 
Q 1894 225 2694 225 
L 2694 0 
L 594 0 
z
" transform="scale(0.015625)"/>
       </defs>
       <use xlink:href="#Cmsy10-a1" transform="translate(0 0.390625)"/>
       <use xlink:href="#Cmr10-31" transform="translate(77.685547 0.390625)"/>
      </g>
     </g>
    </g>
    <g id="ytick_2">
     <g id="line2d_3">
      <g>
       <use xlink:href="#m3c8b686ec6" x="41.316477" y="69.12" style="stroke: #000000"/>
      </g>
     </g>
     <g id="text_2">
      <!-- $0$ -->
      <g transform="translate(23.816477 79.757813) scale(0.28 -0.28)">
       <defs>
        <path id="Cmr10-30" d="M 1600 -141 
Q 816 -141 533 504 
Q 250 1150 250 2041 
Q 250 2597 351 3087 
Q 453 3578 754 3920 
Q 1056 4263 1600 4263 
Q 2022 4263 2290 4056 
Q 2559 3850 2700 3523 
Q 2841 3197 2892 2823 
Q 2944 2450 2944 2041 
Q 2944 1491 2842 1011 
Q 2741 531 2444 195 
Q 2147 -141 1600 -141 
z
M 1600 25 
Q 1956 25 2131 390 
Q 2306 756 2347 1200 
Q 2388 1644 2388 2144 
Q 2388 2625 2347 3031 
Q 2306 3438 2132 3767 
Q 1959 4097 1600 4097 
Q 1238 4097 1063 3765 
Q 888 3434 847 3029 
Q 806 2625 806 2144 
Q 806 1788 823 1472 
Q 841 1156 916 820 
Q 991 484 1158 254 
Q 1325 25 1600 25 
z
" transform="scale(0.015625)"/>
       </defs>
       <use xlink:href="#Cmr10-30" transform="translate(0 0.390625)"/>
      </g>
     </g>
    </g>
    <g id="ytick_3">
     <g id="line2d_4">
      <g>
       <use xlink:href="#m3c8b686ec6" x="41.316477" y="13.814842" style="stroke: #000000"/>
      </g>
     </g>
     <g id="text_3">
      <!-- $1$ -->
      <g transform="translate(23.816477 24.452654) scale(0.28 -0.28)">
       <use xlink:href="#Cmr10-31" transform="translate(0 0.390625)"/>
      </g>
     </g>
    </g>
   </g>
   <g id="line2d_5">
    <path d="M 65.008803 13.814842 
L 65.5353 13.924015 
L 66.088121 14.273338 
L 66.693591 14.930294 
L 67.378036 16.014488 
L 68.16778 17.707204 
L 69.062824 20.180123 
L 70.089491 23.707788 
L 71.274108 28.62999 
L 72.642998 35.331424 
L 74.275136 44.502658 
L 76.407445 57.863597 
L 82.778048 98.647036 
L 84.410187 107.243156 
L 85.779077 113.329586 
L 86.963693 117.62781 
L 87.99036 120.550702 
L 88.859079 122.404738 
L 89.622498 123.546859 
L 90.280619 124.156972 
L 90.859764 124.403252 
L 91.386261 124.389615 
L 91.912757 124.149538 
L 92.491902 123.624818 
L 93.150023 122.700007 
L 93.887117 121.255916 
L 94.729511 119.09112 
L 95.703529 115.932087 
L 96.809171 111.546637 
L 98.099086 105.457084 
L 99.5996 97.244669 
L 101.494987 85.546382 
L 104.653964 64.388973 
L 107.654992 44.85094 
L 109.471403 34.440031 
L 110.919268 27.34738 
L 112.156534 22.324774 
L 113.235851 18.825063 
L 114.157219 16.538966 
L 114.946963 15.118982 
L 115.631408 14.303192 
L 116.236879 13.908199 
L 116.763375 13.816206 
L 117.263546 13.946159 
L 117.816367 14.335819 
L 118.421838 15.057171 
L 119.106283 16.238858 
L 119.896027 18.075056 
L 120.79107 20.747684 
L 121.817738 24.547224 
L 123.002354 29.829354 
L 124.397569 37.136755 
L 126.082357 47.229046 
L 128.39894 62.595524 
L 133.21638 94.835565 
L 134.953817 104.797346 
L 136.375357 111.722474 
L 137.586298 116.568856 
L 138.612965 119.827457 
L 139.508009 121.984545 
L 140.271428 123.298168 
L 140.929548 124.031036 
L 141.508694 124.365149 
L 142.03519 124.41445 
L 142.535361 124.236352 
L 143.088182 123.785126 
L 143.693653 122.986698 
L 144.404423 121.649323 
L 145.220492 119.59375 
L 146.14186 116.630301 
L 147.194852 112.457573 
L 148.405794 106.713513 
L 149.853658 98.697491 
L 151.643745 87.438525 
L 154.381525 68.588955 
L 157.80375 45.338188 
L 159.593837 34.672823 
L 161.041701 27.319245 
L 162.252642 22.24569 
L 163.305635 18.735214 
L 164.200678 16.462679 
L 164.990422 15.027036 
L 165.648542 14.250532 
L 166.227688 13.888228 
L 166.72786 13.819151 
L 167.228031 13.976628 
L 167.754527 14.386672 
L 168.359998 15.165838 
L 169.044443 16.437571 
L 169.834187 18.408604 
L 170.72923 21.270937 
L 171.755898 25.330348 
L 172.940514 30.957334 
L 174.335729 38.71185 
L 176.073166 49.713246 
L 178.626672 67.493301 
L 182.33847 93.174822 
L 184.102232 103.817545 
L 185.523772 111.11587 
L 186.734713 116.225435 
L 187.761381 119.656438 
L 188.656424 121.920125 
L 189.419844 123.28982 
L 190.077964 124.044102 
L 190.630785 124.367686 
L 191.130956 124.414699 
L 191.631127 124.227774 
L 192.157624 123.778915 
L 192.763094 122.945509 
L 193.447539 121.600683 
L 194.237283 119.530922 
L 195.158652 116.442153 
L 196.211644 112.077129 
L 197.422585 106.057984 
L 198.870449 97.658795 
L 200.686861 85.70798 
L 203.766864 63.661149 
L 206.583618 44.143345 
L 208.294731 33.767381 
L 209.689945 26.597444 
L 210.874562 21.619648 
L 211.874904 18.308453 
L 212.743623 16.145522 
L 213.480718 14.853416 
L 214.112513 14.153454 
L 214.665334 13.854185 
L 215.165505 13.837052 
L 215.639352 14.043412 
L 216.165848 14.525937 
L 216.771319 15.407685 
L 217.455764 16.818984 
L 218.245508 18.979922 
L 219.166876 22.192494 
L 220.219868 26.717982 
L 221.457134 33.085778 
L 222.931323 41.928245 
L 224.800385 54.597016 
L 231.67116 102.571006 
L 233.119024 110.411614 
L 234.329965 115.801682 
L 235.356633 119.422352 
L 236.251676 121.809032 
L 237.015095 123.249438 
L 237.646891 124.014676 
L 238.199712 124.361952 
L 238.673558 124.418325 
L 239.147405 124.251475 
L 239.647576 123.833722 
L 240.226722 123.042181 
L 240.884842 121.747234 
L 241.648262 119.730489 
L 242.543305 116.688998 
L 243.569973 112.353951 
L 244.754589 106.331122 
L 246.149804 98.033306 
L 247.913566 86.115134 
L 250.888269 64.189358 
L 253.678699 44.235908 
L 255.363486 33.707567 
L 256.732376 26.476802 
L 257.890668 21.490349 
L 258.864686 18.199805 
L 259.70708 16.068362 
L 260.444174 14.771455 
L 261.049645 14.113281 
L 261.576141 13.843719 
L 262.049987 13.843438 
L 262.523834 14.072968 
L 263.05033 14.596587 
L 263.655801 15.545118 
L 264.340246 17.056094 
L 265.12999 19.361936 
L 266.051358 22.780011 
L 267.10435 27.580811 
L 268.341616 34.312746 
L 269.84213 43.795438 
L 271.816491 57.835818 
L 277.476325 99.002549 
L 279.003163 108.042675 
L 280.266754 114.252082 
L 281.319746 118.396583 
L 282.241115 121.178788 
L 283.030859 122.898919 
L 283.688979 123.847001 
L 284.2418 124.295608 
L 284.741971 124.425149 
L 285.189493 124.317741 
L 285.66334 123.974392 
L 286.216161 123.277038 
L 286.847956 122.093445 
L 287.585051 120.202604 
L 288.427444 117.39275 
L 289.401462 113.328512 
L 290.533429 107.599586 
L 291.875994 99.588195 
L 293.534457 88.262424 
L 296.061639 69.257266 
L 299.378564 44.618471 
L 301.063352 33.757979 
L 302.405917 26.460659 
L 303.537884 21.45441 
L 304.511902 18.091268 
L 305.354296 15.940072 
L 306.065065 14.696105 
L 306.670536 14.05941 
L 307.170707 13.830907 
L 307.618229 13.855875 
L 308.092076 14.118582 
L 308.618572 14.69432 
L 309.224042 15.722085 
L 309.908487 17.346344 
L 310.724556 19.904682 
L 311.645925 23.566542 
L 312.725242 28.820744 
L 313.988833 36.140441 
L 315.541996 46.539356 
L 317.70063 62.674794 
L 322.044224 95.423612 
L 323.650037 105.690648 
L 324.939952 112.608365 
L 326.045594 117.400346 
L 326.993287 120.574728 
L 327.783032 122.516382 
L 328.467477 123.660313 
L 329.046622 124.228278 
L 329.546794 124.420135 
L 329.994315 124.356038 
L 330.468162 124.045553 
L 330.994658 123.409368 
L 331.600129 122.303045 
L 332.310899 120.503139 
L 333.126968 117.79135 
L 334.074661 113.822399 
L 335.180303 108.169979 
L 336.496543 100.190882 
L 338.128681 88.81017 
L 340.576888 69.935996 
L 343.920139 44.418199 
L 345.578601 33.475878 
L 346.894842 26.181837 
L 348.000484 21.218673 
L 348.948177 17.91457 
L 349.764246 15.823651 
L 350.448691 14.63167 
L 351.027837 14.033244 
L 351.528008 13.822871 
L 351.97553 13.876632 
L 352.423051 14.158927 
L 352.949548 14.78223 
L 353.555018 15.883981 
L 354.265788 17.692257 
L 355.081857 20.431233 
L 356.02955 24.453609 
L 357.135192 30.194297 
L 358.425108 38.132734 
L 360.030921 49.484979 
L 362.479128 68.615057 
L 365.743404 93.84184 
L 367.375542 104.749879 
L 368.691782 112.131333 
L 369.797424 117.135641 
L 370.745117 120.447955 
L 371.534862 122.46904 
L 372.219307 123.653685 
L 372.772128 124.216939 
L 373.245974 124.41635 
L 373.693496 124.363321 
L 374.141018 124.075854 
L 374.641189 123.478447 
L 375.220335 122.426424 
L 375.90478 120.694202 
L 376.694524 118.058447 
L 377.615892 114.165032 
L 378.695209 108.573257 
L 379.9588 100.790963 
L 381.538288 89.575206 
L 383.854872 71.322937 
L 387.329746 44.095903 
L 388.961884 33.106107 
L 390.2518 25.843641 
L 391.331117 20.945617 
L 392.252485 17.716717 
L 393.042229 15.697039 
L 393.70035 14.56354 
L 394.25317 14.006609 
L 394.727017 13.819867 
L 395.148214 13.880135 
L 395.595736 14.177426 
L 396.095907 14.792698 
L 396.675053 15.874259 
L 397.359498 17.653097 
L 398.149242 20.357259 
L 399.07061 24.34794 
L 400.149927 30.072934 
L 401.439843 38.207093 
L 403.045656 49.872965 
L 405.520188 69.740411 
L 408.600191 94.084766 
L 410.206004 105.042908 
L 411.495919 112.401989 
L 412.575237 117.35166 
L 413.496605 120.599971 
L 414.286349 122.61666 
L 414.944469 123.733306 
L 415.49729 124.265888 
L 415.944812 124.422836 
L 416.366009 124.345512 
L 416.813531 124.024418 
L 417.313702 123.375783 
L 417.919172 122.186195 
L 418.603617 120.319425 
L 419.419686 117.395505 
L 420.36738 113.101316 
L 421.473021 106.980552 
L 422.789262 98.355988 
L 424.447725 85.912966 
L 427.448753 61.309443 
L 429.84431 42.526204 
L 431.397474 32.022726 
L 432.63474 25.068769 
L 433.687732 20.340068 
L 434.582776 17.27832 
L 435.346195 15.408779 
L 435.97799 14.398128 
L 436.504486 13.934955 
L 436.952008 13.814915 
L 437.373205 13.932418 
L 437.820727 14.30179 
L 438.347223 15.056811 
L 438.952694 16.347657 
L 439.663463 18.42606 
L 440.479532 21.532981 
L 441.45355 26.186557 
L 442.585517 32.760327 
L 443.954407 42.119502 
L 445.744494 56.048355 
L 451.404328 101.315358 
L 452.773218 109.922467 
L 453.905184 115.723702 
L 454.879202 119.616125 
L 455.695271 122.025711 
L 456.379716 123.417176 
L 456.958862 124.133081 
L 457.432708 124.39948 
L 457.853905 124.393479 
L 458.275102 124.158787 
L 458.748949 123.622447 
L 459.30177 122.635763 
L 459.95989 120.96346 
L 460.723309 118.366884 
L 461.618353 114.469735 
L 462.64502 108.955646 
L 463.882286 101.01428 
L 465.409125 89.664679 
L 467.673059 70.953313 
L 470.989984 43.744222 
L 472.569473 32.661455 
L 473.806739 25.443816 
L 474.859731 20.535559 
L 475.754774 17.361967 
L 476.491869 15.484893 
L 477.123664 14.426487 
L 477.650161 13.941066 
L 478.097682 13.814907 
L 478.518879 13.93745 
L 478.966401 14.323606 
L 479.466572 15.065204 
L 480.072043 16.394778 
L 480.782813 18.544382 
L 481.598882 21.764851 
L 482.546575 26.449236 
L 483.678541 33.240026 
L 485.047431 42.906653 
L 486.863843 57.480821 
L 492.023505 99.883145 
L 493.41872 109.065574 
L 494.577012 115.28217 
L 495.55103 119.358195 
L 496.367099 121.887315 
L 497.051544 123.351997 
L 497.630689 124.109329 
L 498.104536 124.395159 
L 498.525733 124.395338 
L 498.94693 124.156354 
L 499.420776 123.602746 
L 499.973597 122.579559 
L 500.631717 120.841642 
L 501.395137 118.140652 
L 502.29018 114.08643 
L 503.343173 108.193081 
L 504.580439 99.922779 
L 506.133602 87.940188 
L 508.634459 66.617978 
L 511.398564 43.597052 
L 512.951727 32.483865 
L 514.188993 25.156166 
L 515.215661 20.325968 
L 516.084379 17.228544 
L 516.821474 15.359996 
L 517.426945 14.366907 
L 517.927116 13.922748 
L 518.348313 13.815287 
L 518.743185 13.936559 
L 519.164382 14.30235 
L 519.664553 15.051662 
L 520.243699 16.340754 
L 520.928144 18.433402 
L 521.744213 21.702036 
L 522.691906 26.485535 
L 523.797548 33.270572 
L 525.140113 42.966202 
L 526.9302 57.655913 
L 531.958238 99.877463 
L 533.327128 109.081744 
L 534.459095 115.287042 
L 535.406788 119.341247 
L 536.222857 121.920864 
L 536.907302 123.398659 
L 537.460123 124.121685 
L 537.93397 124.40155 
L 538.328842 124.3936 
L 538.723714 124.166243 
L 539.171236 123.644337 
L 539.697732 122.674242 
L 540.329527 121.011064 
L 541.066622 118.403869 
L 541.93534 114.456057 
L 542.962008 108.669081 
L 544.172949 100.484666 
L 545.699788 88.525271 
L 548.095345 67.709766 
L 550.938425 43.488979 
L 552.465263 32.351821 
L 553.676205 25.051956 
L 554.676547 20.265679 
L 555.545266 17.12912 
L 556.256036 15.315324 
L 556.861506 14.324897 
L 557.361678 13.899401 
L 557.782875 13.819228 
L 558.177747 13.9756 
L 558.625268 14.423035 
L 559.12544 15.260241 
L 559.73091 16.742417 
L 560.44168 19.119438 
L 561.284074 22.786652 
L 562.258092 28.091651 
L 563.416383 35.712313 
L 564.837923 46.637853 
L 566.864933 64.12525 
L 570.497757 95.568367 
L 571.998271 106.504309 
L 573.182887 113.610395 
L 574.18323 118.342638 
L 575.025623 121.325443 
L 575.736393 123.083311 
L 576.315539 123.983516 
L 576.789386 124.357938 
L 577.184258 124.418937 
L 577.57913 124.251266 
L 578.026651 123.785541 
L 578.526823 122.921169 
L 579.132293 121.397024 
L 579.843063 118.958949 
L 580.685457 115.204833 
L 581.659475 109.783519 
L 582.817766 102.009964 
L 584.265631 90.671575 
L 586.371615 72.20561 
L 589.688541 43.215024 
L 591.189055 32.091937 
L 592.373672 24.853161 
L 593.374014 20.02767 
L 594.216408 16.983712 
L 594.927178 15.188458 
L 595.506324 14.268165 
L 595.98017 13.884512 
L 596.375042 13.82086 
L 596.769914 13.99048 
L 597.191111 14.42786 
L 597.691283 15.288366 
L 598.296753 16.817686 
L 599.007523 19.275152 
L 599.823592 22.93719 
L 600.79761 28.395518 
L 601.955901 36.241442 
L 603.403766 47.701527 
L 605.536075 66.608204 
L 608.747702 94.94473 
L 610.248216 106.180477 
L 611.432832 113.476469 
L 612.433175 118.322121 
L 613.275569 121.360502 
L 613.960014 123.081697 
L 614.539159 123.995628 
L 615.013006 124.366602 
L 615.407878 124.414568 
L 615.80275 124.224669 
L 616.223947 123.760709 
L 616.724118 122.862239 
L 617.329589 121.278186 
L 618.040359 118.745314 
L 618.882753 114.848145 
L 619.856771 109.227056 
L 621.041387 100.984403 
L 622.515576 89.032637 
L 624.805834 68.359518 
L 627.622589 43.372086 
L 629.096778 32.206166 
L 630.281394 24.81871 
L 631.255412 20.031376 
L 632.097806 16.93652 
L 632.782251 15.183031 
L 633.361397 14.252009 
L 633.835243 13.874284 
L 634.230115 13.825743 
L 634.624988 14.019666 
L 635.046184 14.492953 
L 635.546356 15.409123 
L 636.151826 17.023883 
L 636.862596 19.604957 
L 637.70499 23.574423 
L 638.679008 29.295925 
L 639.863624 37.677253 
L 641.337813 49.810118 
L 643.707046 71.463172 
L 646.365852 95.185484 
L 647.840041 106.396769 
L 648.998332 113.628553 
L 649.97235 118.406749 
L 650.788419 121.389438 
L 651.472864 123.127109 
L 652.025685 124.003649 
L 652.499532 124.373226 
L 652.894404 124.409875 
L 653.262951 124.221173 
L 653.684148 123.742804 
L 654.184319 122.813917 
L 654.78979 121.174358 
L 655.50056 118.551781 
L 656.342954 114.517531 
L 657.316972 108.703606 
L 658.501588 100.192154 
L 660.002102 87.653963 
L 662.502959 64.509447 
L 664.951166 42.59447 
L 666.39903 31.546106 
L 667.557322 24.313775 
L 668.505015 19.679418 
L 669.321084 16.717307 
L 670.005529 15.013219 
L 670.55835 14.174693 
L 671.005871 13.854113 
L 671.374419 13.83252 
L 671.742966 14.03015 
L 672.164163 14.523561 
L 672.664334 15.476845 
L 673.269805 17.155009 
L 673.980575 19.834628 
L 674.822969 23.950812 
L 675.823311 30.050847 
L 677.007928 38.741918 
L 678.534766 51.735134 
L 681.325196 77.881675 
L 683.48383 97.078016 
L 684.879045 107.616779 
L 686.011012 114.574332 
L 686.958705 119.088223 
L 687.748449 121.840939 
L 688.406569 123.392909 
L 688.933065 124.133373 
L 689.354262 124.400012 
L 689.72281 124.394331 
L 690.091357 124.165456 
L 690.512554 123.631655 
L 691.03905 122.560134 
L 691.644521 120.783286 
L 692.381615 117.860796 
L 693.224009 113.557205 
L 694.224352 107.232802 
L 695.435293 98.072347 
L 697.014781 84.282397 
L 702.569316 34.135656 
L 703.780257 25.96813 
L 704.780599 20.638094 
L 705.622993 17.275273 
L 706.307438 15.35627 
L 706.886584 14.325155 
L 707.360431 13.894092 
L 707.755303 13.821189 
L 708.12385 13.988526 
L 708.545047 14.457288 
L 709.045218 15.39516 
L 709.624364 16.989391 
L 710.308809 19.555553 
L 711.124878 23.532493 
L 712.098896 29.478302 
L 713.257187 38.021261 
L 714.731377 50.680231 
L 717.232233 74.47089 
L 719.575141 95.955795 
L 720.996681 107.038189 
L 722.128648 114.225186 
L 723.076341 118.894932 
L 723.866085 121.745504 
L 724.524205 123.353827 
L 725.050701 124.121774 
L 725.471898 124.398778 
L 725.840445 124.393588 
L 726.208993 124.157193 
L 726.63019 123.605071 
L 727.130361 122.562729 
L 727.735832 120.750151 
L 728.446601 117.878812 
L 729.288995 113.494813 
L 730.289338 107.03359 
L 731.500279 97.662657 
L 733.079767 83.562311 
L 738.371054 34.82307 
L 739.581995 26.395457 
L 740.582338 20.885396 
L 741.424731 17.404515 
L 742.109176 15.416079 
L 742.688322 14.346411 
L 743.162169 13.898183 
L 743.530716 13.817791 
L 743.899263 13.972689 
L 744.294135 14.399123 
L 744.767982 15.26374 
L 745.347128 16.834884 
L 746.031573 19.399796 
L 746.847642 23.41037 
L 747.795335 29.262076 
L 748.927302 37.711876 
L 750.375166 50.31642 
L 752.797048 73.72999 
L 755.166281 95.874381 
L 756.561496 106.954717 
L 757.693462 114.268369 
L 758.614831 118.883401 
L 759.404575 121.777849 
L 760.03637 123.34513 
L 760.562866 124.126315 
L 760.984063 124.402178 
L 761.352611 124.387384 
L 761.721158 124.133391 
L 762.142355 123.551513 
L 762.642526 122.460843 
L 763.247997 120.571814 
L 763.958767 117.587731 
L 764.80116 113.042435 
L 765.801503 106.359965 
L 767.038769 96.471095 
L 768.670907 81.460514 
L 773.383048 36.981268 
L 774.646638 27.678268 
L 775.673306 21.663084 
L 776.5157 17.92176 
L 777.22647 15.673306 
L 777.805615 14.484592 
L 778.279462 13.952296 
L 778.674334 13.81485 
L 779.016557 13.921647 
L 779.411429 14.305132 
L 779.85895 15.074574 
L 780.411771 16.509088 
L 781.069891 18.895726 
L 781.833311 22.546518 
L 782.754679 28.119956 
L 783.860321 36.28683 
L 785.229211 48.168828 
L 787.335196 68.672697 
L 790.125625 95.46849 
L 791.52084 106.784135 
L 792.626482 114.087936 
L 793.54785 118.813442 
L 794.31127 121.687179 
L 794.943065 123.307344 
L 795.469561 124.11541 
L 795.890758 124.401158 
L 796.259305 124.386436 
L 796.627853 124.124506 
L 797.04905 123.523843 
L 797.549221 122.397709 
L 798.154692 120.447452 
L 798.865461 117.367855 
L 799.707855 112.680564 
L 800.708198 105.797931 
L 801.945464 95.6339 
L 803.603927 80.002279 
L 807.94752 38.176012 
L 809.237435 28.336002 
L 810.264103 22.087495 
L 811.132822 18.079524 
L 811.843591 15.750618 
L 812.422737 14.516536 
L 812.896584 13.961345 
L 813.291456 13.814851 
L 813.633678 13.921248 
L 814.002226 14.277805 
L 814.449747 15.045909 
L 815.002568 16.494939 
L 815.660689 18.921325 
L 816.424108 22.646659 
L 817.345476 28.345555 
L 818.451118 36.702524 
L 819.846333 49.10193 
L 822.057617 71.089265 
L 824.584798 95.639644 
L 825.980013 107.091225 
L 827.085655 114.43455 
L 827.980698 119.022699 
L 828.744118 121.871919 
L 829.375913 123.444319 
L 829.876085 124.168294 
L 830.270957 124.409739 
L 830.613179 124.382035 
L 830.981726 124.106117 
L 831.402923 123.47981 
L 831.903095 122.310206 
L 832.508565 120.289358 
L 833.219335 117.103918 
L 834.061729 112.263697 
L 835.088396 104.965924 
L 836.351987 94.244559 
L 838.089424 77.394931 
L 841.880197 40.122573 
L 843.196437 29.601608 
L 844.249429 22.842669 
L 845.118148 18.5811 
L 845.855243 15.989237 
L 846.460713 14.601665 
L 846.93456 13.995503 
L 847.329432 13.816387 
L 847.671654 13.901932 
L 848.040202 14.243829 
L 848.487723 15.005016 
L 849.01422 16.379672 
L 849.646015 18.695257 
L 850.409434 22.41898 
L 851.304478 27.978437 
L 852.383795 36.185354 
L 853.752685 48.460453 
L 854.753028 58.330499 
L 854.753028 58.330499 
" clip-path="url(#pe829437f78)" style="fill: none; stroke: #e36f47; stroke-width: 6"/>
   </g>
   <g id="patch_3">
    <path d="M 41.316477 127.743467 
L 41.316477 10.496532 
" style="fill: none; stroke: #000000; stroke-width: 2; stroke-linejoin: miter; stroke-linecap: square"/>
   </g>
   <g id="patch_4">
    <path d="M 41.316477 127.743467 
L 878.445354 127.743467 
" style="fill: none; stroke: #000000; stroke-width: 2; stroke-linejoin: miter; stroke-linecap: square"/>
   </g>
  </g>
 </g>
 <defs>
  <clipPath id="pe829437f78">
   <rect x="41.316477" y="10.496532" width="837.128878" height="117.246935"/>
  </clipPath>
 </defs>
</svg>
