<?xml version="1.0" encoding="utf-8" standalone="no"?>
<!DOCTYPE svg PUBLIC "-//W3C//DTD SVG 1.1//EN"
  "http://www.w3.org/Graphics/SVG/1.1/DTD/svg11.dtd">
<svg xmlns:xlink="http://www.w3.org/1999/xlink" width="843.84pt" height="144pt" viewBox="0 0 843.84 144" xmlns="http://www.w3.org/2000/svg" version="1.1">
 <metadata>
  <rdf:RDF xmlns:dc="http://purl.org/dc/elements/1.1/" xmlns:cc="http://creativecommons.org/ns#" xmlns:rdf="http://www.w3.org/1999/02/22-rdf-syntax-ns#">
   <cc:Work>
    <dc:type rdf:resource="http://purl.org/dc/dcmitype/StillImage"/>
    <dc:date>2024-07-16T17:23:12.428304</dc:date>
    <dc:format>image/svg+xml</dc:format>
    <dc:creator>
     <cc:Agent>
      <dc:title>Matplotlib v3.8.4, https://matplotlib.org/</dc:title>
     </cc:Agent>
    </dc:creator>
   </cc:Work>
  </rdf:RDF>
 </metadata>
 <defs>
  <style type="text/css">*{stroke-linejoin: round; stroke-linecap: butt}</style>
 </defs>
 <g id="figure_1">
  <g id="patch_1">
   <path d="M 0 144 
L 843.84 144 
L 843.84 0 
L 0 0 
L 0 144 
z
" style="fill: none"/>
  </g>
  <g id="axes_1">
   <g id="patch_2">
    <path d="M 41.316477 110.305354 
L 834.471983 110.305354 
L 834.471983 12.179941 
L 41.316477 12.179941 
L 41.316477 110.305354 
z
" style="fill: none"/>
   </g>
   <g id="line2d_1">
    <path d="M 63.764274 107.52822 
L 64.512534 107.418684 
L 65.298207 107.073848 
L 66.158706 106.43804 
L 67.094031 105.458208 
L 68.141595 104.030098 
L 69.33881 102.010791 
L 70.723091 99.22652 
L 72.406676 95.305668 
L 74.501804 89.820046 
L 77.756734 80.581409 
L 82.283707 67.81532 
L 84.715552 61.614844 
L 86.773266 56.951908 
L 88.56909 53.407704 
L 90.177849 50.697916 
L 91.636956 48.65184 
L 92.983824 47.132229 
L 94.218452 46.065452 
L 95.340842 45.376025 
L 96.388406 44.979167 
L 97.398557 44.824839 
L 98.071991 44.902679 
L 98.670599 45.224495 
L 99.30662 45.824306 
L 100.05488 46.853532 
L 100.915379 48.440466 
L 101.92553 50.801571 
L 103.122745 54.203124 
L 104.581852 59.056872 
L 106.564741 66.495068 
L 112.625646 89.722122 
L 114.346644 95.173997 
L 115.843164 99.194042 
L 117.152619 102.095032 
L 118.312422 104.156026 
L 119.359985 105.595942 
L 120.332723 106.57306 
L 121.230635 107.169371 
L 122.053721 107.463144 
L 122.876807 107.520919 
L 123.699893 107.350146 
L 124.560392 106.93698 
L 125.495717 106.228817 
L 126.543281 105.135374 
L 127.703083 103.583395 
L 129.012538 101.443999 
L 130.509058 98.562851 
L 132.267469 94.689468 
L 134.512249 89.178133 
L 137.916831 80.14773 
L 143.192064 66.204459 
L 145.77356 60.032629 
L 147.868688 55.57694 
L 149.664512 52.259831 
L 151.235858 49.802225 
L 152.657552 47.9756 
L 153.929593 46.682534 
L 155.126809 45.771727 
L 156.249199 45.19277 
L 157.296763 44.8936 
L 158.306914 44.830853 
L 158.905522 45.009421 
L 159.541543 45.438341 
L 160.25239 46.196749 
L 161.075476 47.422029 
L 162.0108 49.231015 
L 163.13319 51.92381 
L 164.480058 55.78937 
L 166.12623 61.23192 
L 168.595488 70.270434 
L 173.047634 86.566039 
L 174.99311 92.772596 
L 176.639282 97.30231 
L 178.060975 100.59452 
L 179.333017 103.014971 
L 180.49282 104.772292 
L 181.577797 106.022798 
L 182.550535 106.821194 
L 183.448447 107.29108 
L 184.308946 107.50544 
L 185.169445 107.495244 
L 186.067357 107.253211 
L 187.002681 106.760432 
L 188.012832 105.966206 
L 189.135222 104.785225 
L 190.369851 103.152154 
L 191.791545 100.881598 
L 193.400304 97.875225 
L 195.308366 93.812059 
L 197.665385 88.229163 
L 200.957729 79.79443 
L 207.243112 63.609993 
L 209.600131 58.21707 
L 211.545607 54.301425 
L 213.229191 51.391874 
L 214.725711 49.223448 
L 216.109992 47.59163 
L 217.382034 46.420846 
L 218.57925 45.611165 
L 219.70164 45.110106 
L 220.786616 44.861013 
L 221.759354 44.851829 
L 222.395375 45.087487 
L 223.068809 45.581995 
L 223.817069 46.413522 
L 224.677568 47.714522 
L 225.687719 49.67216 
L 226.884935 52.524843 
L 228.306629 56.535522 
L 230.102452 62.323054 
L 232.908427 72.233581 
L 236.68714 85.439535 
L 238.744854 91.823138 
L 240.465852 96.466819 
L 241.999785 99.975615 
L 243.384066 102.588012 
L 244.618695 104.454942 
L 245.741084 105.767028 
L 246.788648 106.660581 
L 247.761386 107.207032 
L 248.696711 107.480296 
L 249.594623 107.515763 
L 250.529948 107.323811 
L 251.353034 106.939985 
L 252.250946 106.24683 
L 253.261097 105.168679 
L 254.383486 103.623489 
L 255.618115 101.535592 
L 257.039809 98.680257 
L 258.685981 94.854494 
L 260.66887 89.65047 
L 263.250366 82.198288 
L 270.471075 60.976092 
L 272.41655 56.139299 
L 274.062722 52.608155 
L 275.521829 49.979615 
L 276.831284 48.058835 
L 278.0285 46.684588 
L 279.113476 45.763161 
L 280.123627 45.185341 
L 281.096365 44.884136 
L 281.994277 44.835061 
L 282.555472 45.022347 
L 283.15408 45.4561 
L 283.864927 46.271235 
L 284.6506 47.52936 
L 285.585925 49.475459 
L 286.670902 52.274695 
L 287.980356 56.299112 
L 289.663941 62.247102 
L 292.282851 72.42255 
L 295.837086 86.038463 
L 297.745148 92.465668 
L 299.316494 97.033212 
L 300.738188 100.506578 
L 301.972817 102.973983 
L 303.13262 104.808818 
L 304.180184 106.058801 
L 305.115508 106.848536 
L 306.01342 107.321347 
L 306.836506 107.514029 
L 307.659592 107.482791 
L 308.520091 107.21859 
L 309.418003 106.70072 
L 310.390741 105.874692 
L 311.475718 104.648036 
L 312.710347 102.890994 
L 314.094627 100.509992 
L 315.703386 97.267476 
L 317.574036 92.966742 
L 319.893642 87.03734 
L 323.260811 77.7439 
L 328.311566 63.84354 
L 330.593758 58.230994 
L 332.464408 54.195929 
L 334.073167 51.228651 
L 335.532274 48.99076 
L 336.841729 47.3764 
L 338.038945 46.239973 
L 339.161334 45.475322 
L 340.208898 45.025912 
L 341.219049 44.833169 
L 342.004722 44.888752 
L 342.60333 45.177597 
L 343.276764 45.762468 
L 344.025024 46.717388 
L 344.922936 48.255118 
L 345.933087 50.444997 
L 347.167715 53.687567 
L 348.664235 58.28342 
L 350.647124 65.132451 
L 357.306637 88.72609 
L 359.139874 94.131527 
L 360.748633 98.199678 
L 362.170327 101.210783 
L 363.442368 103.415091 
L 364.602171 105.012085 
L 365.687148 106.148032 
L 366.697299 106.897175 
L 367.632624 107.330241 
L 368.567949 107.518419 
L 369.465861 107.475509 
L 370.401186 107.206075 
L 371.373924 106.692437 
L 372.421487 105.8864 
L 373.58129 104.705968 
L 374.890745 103.03612 
L 376.349852 100.791827 
L 377.996024 97.829107 
L 379.866674 93.986414 
L 382.07404 88.922806 
L 384.880015 81.892701 
L 393.110874 60.892301 
L 395.206002 56.359958 
L 397.001826 52.97645 
L 398.610584 50.39815 
L 400.069691 48.462172 
L 401.416559 47.032191 
L 402.651188 46.03101 
L 403.810991 45.363599 
L 404.933381 44.969917 
L 406.018357 44.823304 
L 406.729204 44.909544 
L 407.365225 45.224106 
L 408.076072 45.833017 
L 408.899158 46.856932 
L 409.834483 48.403409 
L 410.91946 50.652152 
L 412.228915 53.920915 
L 413.837674 58.592455 
L 416.04504 65.776277 
L 422.517488 87.32815 
L 424.500377 92.949976 
L 426.221375 97.178561 
L 427.717895 100.301736 
L 429.102176 102.70266 
L 430.374218 104.48351 
L 431.53402 105.747991 
L 432.618997 106.621767 
L 433.666561 107.185284 
L 434.639299 107.46671 
L 435.612037 107.520719 
L 436.584775 107.353673 
L 437.594926 106.953843 
L 438.679903 106.277381 
L 439.839705 105.28408 
L 441.111747 103.890509 
L 442.496028 102.034781 
L 444.029961 99.596076 
L 445.750959 96.425169 
L 447.696434 92.354671 
L 450.01604 86.954182 
L 453.233558 78.833866 
L 458.770681 64.832337 
L 461.165113 59.413332 
L 463.185415 55.365216 
L 464.943825 52.31073 
L 466.552584 49.941273 
L 468.011691 48.166849 
L 469.358559 46.857526 
L 470.630601 45.91691 
L 471.827817 45.296264 
L 472.987619 44.939462 
L 474.110009 44.821088 
L 474.783443 44.92919 
L 475.456877 45.275302 
L 476.205137 45.925845 
L 477.065636 46.998596 
L 478.038374 48.594349 
L 479.160764 50.886201 
L 480.507632 54.177783 
L 482.11639 58.717483 
L 484.36117 65.783744 
L 491.058096 87.331935 
L 493.078398 92.877579 
L 494.799396 96.990835 
L 496.370742 100.193755 
L 497.792436 102.606318 
L 499.10189 104.407003 
L 500.299106 105.694362 
L 501.421496 106.589631 
L 502.46906 107.155083 
L 503.479211 107.456542 
L 504.489362 107.52288 
L 505.499513 107.359071 
L 506.547077 106.952253 
L 507.632053 106.283905 
L 508.791856 105.300751 
L 510.063898 103.915642 
L 511.448179 102.060817 
L 512.944699 99.672667 
L 514.628284 96.549969 
L 516.536346 92.523186 
L 518.855952 87.076481 
L 522.260535 78.436294 
L 527.273876 65.767005 
L 529.780547 60.060665 
L 531.838262 55.905923 
L 533.671498 52.6899 
L 535.31767 50.236716 
L 536.81419 48.388033 
L 538.198471 47.014649 
L 539.507926 46.019841 
L 540.742554 45.355596 
L 541.93977 44.964992 
L 543.099573 44.822584 
L 543.81042 44.907651 
L 544.483854 45.226348 
L 545.232114 45.842903 
L 546.0552 46.821328 
L 547.027938 48.350799 
L 548.150328 50.56585 
L 549.459782 53.672571 
L 551.068541 58.101955 
L 553.126256 64.445788 
L 560.945572 89.211784 
L 562.853635 94.220128 
L 564.53722 98.049475 
L 566.071152 101.005032 
L 567.455433 103.211044 
L 568.727475 104.840459 
L 569.924691 106.022156 
L 571.009668 106.797775 
L 572.057232 107.281856 
L 573.067383 107.504955 
L 574.04012 107.49701 
L 575.050271 107.261581 
L 576.097835 106.778108 
L 577.182812 106.026884 
L 578.342615 104.950228 
L 579.614657 103.455936 
L 580.998938 101.474683 
L 582.53287 98.87535 
L 584.253868 95.503419 
L 586.27417 91.026664 
L 588.818254 84.80615 
L 598.283742 61.103328 
L 600.416282 56.662494 
L 602.286932 53.267212 
L 603.970517 50.661828 
L 605.50445 48.687258 
L 606.926144 47.212547 
L 608.235598 46.164203 
L 609.470227 45.451205 
L 610.667443 45.015245 
L 611.827246 44.830999 
L 612.687745 44.892201 
L 613.361179 45.193152 
L 614.109439 45.791853 
L 614.932525 46.753053 
L 615.86785 48.201037 
L 616.952826 50.306618 
L 618.224868 53.278001 
L 619.796214 57.554103 
L 621.853929 63.863681 
L 630.197027 90.178343 
L 632.067677 94.987227 
L 633.713848 98.642361 
L 635.210368 101.448065 
L 636.557236 103.528982 
L 637.829278 105.09746 
L 638.989081 106.18758 
L 640.074058 106.913936 
L 641.084209 107.337208 
L 642.094359 107.51972 
L 643.067097 107.471689 
L 644.077248 107.194195 
L 645.124812 106.667275 
L 646.247202 105.840154 
L 647.444418 104.668606 
L 648.753873 103.059681 
L 650.175566 100.946884 
L 651.746912 98.20303 
L 653.542736 94.603487 
L 655.675277 89.806953 
L 658.556077 82.725847 
L 665.739373 64.850126 
L 668.133804 59.623918 
L 670.154106 55.723709 
L 671.987343 52.652686 
L 673.670928 50.25938 
L 675.20486 48.451851 
L 676.626554 47.102074 
L 677.973422 46.114161 
L 679.282877 45.423981 
L 680.554919 45.004899 
L 681.789548 44.829925 
L 682.68746 44.892731 
L 683.398307 45.197296 
L 684.146566 45.766065 
L 685.007065 46.718466 
L 685.979803 48.152171 
L 687.102193 50.234089 
L 688.411648 53.168361 
L 689.982994 57.277028 
L 691.92847 63.012306 
L 695.220813 73.526764 
L 698.962113 85.23223 
L 701.206892 91.503479 
L 703.077542 96.075194 
L 704.723714 99.520738 
L 706.182821 102.083167 
L 707.529689 104.019237 
L 708.764318 105.422979 
L 709.92412 106.41589 
L 711.009097 107.059043 
L 712.019248 107.411245 
L 713.029399 107.52822 
L 714.03955 107.413392 
L 715.049701 107.070762 
L 716.097265 106.479796 
L 717.219654 105.586971 
L 718.41687 104.347824 
L 719.726325 102.667748 
L 721.185432 100.419911 
L 722.831604 97.451141 
L 724.702254 93.597877 
L 726.984446 88.36005 
L 730.314203 80.094884 
L 735.664261 66.839609 
L 738.245758 61.07842 
L 740.415712 56.776373 
L 742.323775 53.480505 
L 744.044772 50.938517 
L 745.616118 48.994197 
L 747.112638 47.486676 
L 748.496919 46.394497 
L 749.843787 45.609945 
L 751.153241 45.107131 
L 752.425283 44.858948 
L 753.547673 44.856461 
L 754.25852 45.103761 
L 755.00678 45.610083 
L 755.829866 46.443927 
L 756.765191 47.721538 
L 757.850168 49.605029 
L 759.12221 52.298563 
L 760.581316 55.928374 
L 762.414553 61.112295 
L 765.070876 69.361973 
L 770.271282 85.573979 
L 772.441236 91.550556 
L 774.274473 95.987751 
L 775.920645 99.41486 
L 777.417164 102.031934 
L 778.764032 103.961794 
L 779.998661 105.368084 
L 781.158464 106.369347 
L 782.243441 107.025108 
L 783.291005 107.40165 
L 784.301156 107.527961 
L 785.311306 107.424418 
L 786.321457 107.094267 
L 787.369021 106.516698 
L 788.491411 105.637969 
L 789.688627 104.413018 
L 790.998082 102.747358 
L 792.457189 100.514829 
L 794.10336 97.563913 
L 795.97401 93.733717 
L 798.293616 88.440281 
L 801.698198 80.037849 
L 806.973431 67.055713 
L 809.554928 61.321002 
L 811.724881 57.028128 
L 812.024185 56.479925 
L 812.024185 56.479925 
" clip-path="url(#padbd9f1610)" style="fill: none; stroke: #009afa; stroke-width: 4"/>
   </g>
   <g id="matplotlib.axis_1">
    <g id="xtick_1">
     <g id="line2d_2">
      <defs>
       <path id="m80cf80b6f0" d="M 0 0 
L 0 -5 
" style="stroke: #000000"/>
      </defs>
      <g>
       <use xlink:href="#m80cf80b6f0" x="63.764274" y="110.305354" style="stroke: #000000"/>
      </g>
     </g>
     <g id="text_1">
      <!-- $0.0$ -->
      <g transform="translate(45.844274 135.080979) scale(0.28 -0.28)">
       <defs>
        <path id="Cmr10-30" d="M 1600 -141 
Q 816 -141 533 504 
Q 250 1150 250 2041 
Q 250 2597 351 3087 
Q 453 3578 754 3920 
Q 1056 4263 1600 4263 
Q 2022 4263 2290 4056 
Q 2559 3850 2700 3523 
Q 2841 3197 2892 2823 
Q 2944 2450 2944 2041 
Q 2944 1491 2842 1011 
Q 2741 531 2444 195 
Q 2147 -141 1600 -141 
z
M 1600 25 
Q 1956 25 2131 390 
Q 2306 756 2347 1200 
Q 2388 1644 2388 2144 
Q 2388 2625 2347 3031 
Q 2306 3438 2132 3767 
Q 1959 4097 1600 4097 
Q 1238 4097 1063 3765 
Q 888 3434 847 3029 
Q 806 2625 806 2144 
Q 806 1788 823 1472 
Q 841 1156 916 820 
Q 991 484 1158 254 
Q 1325 25 1600 25 
z
" transform="scale(0.015625)"/>
        <path id="Cmmi10-3a" d="M 538 353 
Q 538 497 644 600 
Q 750 703 891 703 
Q 978 703 1062 656 
Q 1147 609 1194 525 
Q 1241 441 1241 353 
Q 1241 213 1137 106 
Q 1034 0 891 0 
Q 750 0 644 106 
Q 538 213 538 353 
z
" transform="scale(0.015625)"/>
       </defs>
       <use xlink:href="#Cmr10-30" transform="translate(0 0.390625)"/>
       <use xlink:href="#Cmmi10-3a" transform="translate(50 0.390625)"/>
       <use xlink:href="#Cmr10-30" transform="translate(77.685547 0.390625)"/>
      </g>
     </g>
    </g>
    <g id="xtick_2">
     <g id="line2d_3">
      <g>
       <use xlink:href="#m80cf80b6f0" x="250.829252" y="110.305354" style="stroke: #000000"/>
      </g>
     </g>
     <g id="text_2">
      <!-- $2.5$ -->
      <g transform="translate(232.909252 135.080979) scale(0.28 -0.28)">
       <defs>
        <path id="Cmr10-32" d="M 319 0 
L 319 172 
Q 319 188 331 206 
L 1325 1306 
Q 1550 1550 1690 1715 
Q 1831 1881 1968 2097 
Q 2106 2313 2186 2536 
Q 2266 2759 2266 3009 
Q 2266 3272 2169 3511 
Q 2072 3750 1880 3894 
Q 1688 4038 1416 4038 
Q 1138 4038 916 3870 
Q 694 3703 603 3438 
Q 628 3444 672 3444 
Q 816 3444 917 3347 
Q 1019 3250 1019 3097 
Q 1019 2950 917 2848 
Q 816 2747 672 2747 
Q 522 2747 420 2851 
Q 319 2956 319 3097 
Q 319 3338 409 3548 
Q 500 3759 670 3923 
Q 841 4088 1055 4175 
Q 1269 4263 1509 4263 
Q 1875 4263 2190 4108 
Q 2506 3953 2690 3670 
Q 2875 3388 2875 3009 
Q 2875 2731 2753 2481 
Q 2631 2231 2440 2026 
Q 2250 1822 1953 1562 
Q 1656 1303 1563 1216 
L 838 519 
L 1453 519 
Q 1906 519 2211 526 
Q 2516 534 2534 550 
Q 2609 631 2688 1141 
L 2875 1141 
L 2694 0 
L 319 0 
z
" transform="scale(0.015625)"/>
        <path id="Cmr10-35" d="M 556 728 
Q 622 541 758 387 
Q 894 234 1080 148 
Q 1266 63 1466 63 
Q 1928 63 2103 422 
Q 2278 781 2278 1294 
Q 2278 1516 2270 1667 
Q 2263 1819 2228 1959 
Q 2169 2184 2020 2353 
Q 1872 2522 1656 2522 
Q 1441 2522 1286 2456 
Q 1131 2391 1034 2303 
Q 938 2216 863 2119 
Q 788 2022 769 2016 
L 697 2016 
Q 681 2016 657 2036 
Q 634 2056 634 2075 
L 634 4213 
Q 634 4228 654 4245 
Q 675 4263 697 4263 
L 716 4263 
Q 1147 4056 1631 4056 
Q 2106 4056 2547 4263 
L 2566 4263 
Q 2588 4263 2606 4247 
Q 2625 4231 2625 4213 
L 2625 4153 
Q 2625 4122 2613 4122 
Q 2394 3831 2064 3668 
Q 1734 3506 1381 3506 
Q 1125 3506 856 3578 
L 856 2369 
Q 1069 2541 1236 2614 
Q 1403 2688 1663 2688 
Q 2016 2688 2295 2484 
Q 2575 2281 2725 1954 
Q 2875 1628 2875 1288 
Q 2875 903 2686 575 
Q 2497 247 2172 53 
Q 1847 -141 1466 -141 
Q 1150 -141 886 21 
Q 622 184 470 459 
Q 319 734 319 1044 
Q 319 1188 412 1278 
Q 506 1369 647 1369 
Q 788 1369 883 1276 
Q 978 1184 978 1044 
Q 978 906 883 811 
Q 788 716 647 716 
Q 625 716 597 720 
Q 569 725 556 728 
z
" transform="scale(0.015625)"/>
       </defs>
       <use xlink:href="#Cmr10-32" transform="translate(0 0.390625)"/>
       <use xlink:href="#Cmmi10-3a" transform="translate(50 0.390625)"/>
       <use xlink:href="#Cmr10-35" transform="translate(77.685547 0.390625)"/>
      </g>
     </g>
    </g>
    <g id="xtick_3">
     <g id="line2d_4">
      <g>
       <use xlink:href="#m80cf80b6f0" x="437.89423" y="110.305354" style="stroke: #000000"/>
      </g>
     </g>
     <g id="text_3">
      <!-- $5.0$ -->
      <g transform="translate(419.97423 135.080979) scale(0.28 -0.28)">
       <use xlink:href="#Cmr10-35" transform="translate(0 0.390625)"/>
       <use xlink:href="#Cmmi10-3a" transform="translate(50 0.390625)"/>
       <use xlink:href="#Cmr10-30" transform="translate(77.685547 0.390625)"/>
      </g>
     </g>
    </g>
    <g id="xtick_4">
     <g id="line2d_5">
      <g>
       <use xlink:href="#m80cf80b6f0" x="624.959207" y="110.305354" style="stroke: #000000"/>
      </g>
     </g>
     <g id="text_4">
      <!-- $7.5$ -->
      <g transform="translate(607.039207 135.080979) scale(0.28 -0.28)">
       <defs>
        <path id="Cmr10-37" d="M 1113 166 
Q 1113 522 1175 862 
Q 1238 1203 1358 1536 
Q 1478 1869 1648 2189 
Q 1819 2509 2022 2791 
L 2606 3603 
L 1875 3603 
Q 738 3603 703 3572 
Q 619 3469 544 2981 
L 359 2981 
L 569 4325 
L 756 4325 
L 756 4306 
Q 756 4191 1147 4156 
Q 1538 4122 1913 4122 
L 3103 4122 
L 3103 3956 
Q 3103 3950 3101 3947 
Q 3100 3944 3097 3938 
L 2216 2700 
Q 1891 2219 1809 1631 
Q 1728 1044 1728 166 
Q 1728 41 1637 -50 
Q 1547 -141 1422 -141 
Q 1294 -141 1203 -50 
Q 1113 41 1113 166 
z
" transform="scale(0.015625)"/>
       </defs>
       <use xlink:href="#Cmr10-37" transform="translate(0 0.421875)"/>
       <use xlink:href="#Cmmi10-3a" transform="translate(50 0.421875)"/>
       <use xlink:href="#Cmr10-35" transform="translate(77.685547 0.421875)"/>
      </g>
     </g>
    </g>
    <g id="xtick_5">
     <g id="line2d_6">
      <g>
       <use xlink:href="#m80cf80b6f0" x="812.024185" y="110.305354" style="stroke: #000000"/>
      </g>
     </g>
     <g id="text_5">
      <!-- $10.0$ -->
      <g transform="translate(787.104185 135.080979) scale(0.28 -0.28)">
       <defs>
        <path id="Cmr10-31" d="M 594 0 
L 594 225 
Q 1394 225 1394 428 
L 1394 3788 
Q 1063 3628 556 3628 
L 556 3853 
Q 1341 3853 1741 4263 
L 1831 4263 
Q 1853 4263 1873 4245 
Q 1894 4228 1894 4206 
L 1894 428 
Q 1894 225 2694 225 
L 2694 0 
L 594 0 
z
" transform="scale(0.015625)"/>
       </defs>
       <use xlink:href="#Cmr10-31" transform="translate(0 0.390625)"/>
       <use xlink:href="#Cmr10-30" transform="translate(50 0.390625)"/>
       <use xlink:href="#Cmmi10-3a" transform="translate(100 0.390625)"/>
       <use xlink:href="#Cmr10-30" transform="translate(127.685547 0.390625)"/>
      </g>
     </g>
    </g>
   </g>
   <g id="matplotlib.axis_2">
    <g id="ytick_1">
     <g id="line2d_7">
      <defs>
       <path id="ma762d9233c" d="M 0 0 
L 5 0 
" style="stroke: #000000"/>
      </defs>
      <g>
       <use xlink:href="#ma762d9233c" x="41.316477" y="107.52822" style="stroke: #000000"/>
      </g>
     </g>
     <g id="text_6">
      <!-- $-1$ -->
      <g transform="translate(1.976477 118.166032) scale(0.28 -0.28)">
       <defs>
        <path id="Cmsy10-a1" d="M 653 1472 
Q 600 1472 565 1512 
Q 531 1553 531 1600 
Q 531 1647 565 1687 
Q 600 1728 653 1728 
L 4325 1728 
Q 4375 1728 4408 1687 
Q 4441 1647 4441 1600 
Q 4441 1553 4408 1512 
Q 4375 1472 4325 1472 
L 653 1472 
z
" transform="scale(0.015625)"/>
       </defs>
       <use xlink:href="#Cmsy10-a1" transform="translate(0 0.390625)"/>
       <use xlink:href="#Cmr10-31" transform="translate(77.685547 0.390625)"/>
      </g>
     </g>
    </g>
    <g id="ytick_2">
     <g id="line2d_8">
      <g>
       <use xlink:href="#ma762d9233c" x="41.316477" y="76.174583" style="stroke: #000000"/>
      </g>
     </g>
     <g id="text_7">
      <!-- $0$ -->
      <g transform="translate(23.816477 86.812396) scale(0.28 -0.28)">
       <use xlink:href="#Cmr10-30" transform="translate(0 0.390625)"/>
      </g>
     </g>
    </g>
    <g id="ytick_3">
     <g id="line2d_9">
      <g>
       <use xlink:href="#ma762d9233c" x="41.316477" y="44.820947" style="stroke: #000000"/>
      </g>
     </g>
     <g id="text_8">
      <!-- $1$ -->
      <g transform="translate(23.816477 55.458759) scale(0.28 -0.28)">
       <use xlink:href="#Cmr10-31" transform="translate(0 0.390625)"/>
      </g>
     </g>
    </g>
    <g id="ytick_4">
     <g id="line2d_10">
      <g>
       <use xlink:href="#ma762d9233c" x="41.316477" y="13.46731" style="stroke: #000000"/>
      </g>
     </g>
     <g id="text_9">
      <!-- $2$ -->
      <g transform="translate(23.816477 24.105123) scale(0.28 -0.28)">
       <use xlink:href="#Cmr10-32" transform="translate(0 0.390625)"/>
      </g>
     </g>
    </g>
   </g>
   <g id="line2d_11">
    <path d="M 63.764274 44.820947 
L 64.662186 44.928721 
L 65.597511 45.269379 
L 66.570249 45.868155 
L 67.617813 46.78624 
L 68.740202 48.074722 
L 69.974831 49.83994 
L 71.359112 52.224681 
L 72.930458 55.403134 
L 74.726282 59.566185 
L 76.896236 65.193283 
L 79.926688 73.734245 
L 85.276747 88.852226 
L 87.521526 94.484052 
L 89.354763 98.511481 
L 90.926109 101.458907 
L 92.347803 103.668944 
L 93.619845 105.245989 
L 94.742234 106.305172 
L 95.789798 107.002003 
L 96.762536 107.390919 
L 97.697861 107.527401 
L 98.595773 107.438398 
L 99.531098 107.117159 
L 100.503836 106.538283 
L 101.5514 105.641106 
L 102.673789 104.374209 
L 103.908418 102.631489 
L 105.292699 100.27007 
L 106.826632 97.195708 
L 108.585043 93.157266 
L 110.717583 87.670821 
L 113.635797 79.487848 
L 119.472224 63.012308 
L 121.679591 57.522966 
L 123.475415 53.617624 
L 125.046761 50.70515 
L 126.431042 48.581399 
L 127.66567 47.066429 
L 128.78806 46.0169 
L 129.835624 45.329345 
L 130.808362 44.949194 
L 131.743687 44.821208 
L 132.641599 44.918374 
L 133.576924 45.248058 
L 134.549662 45.83559 
L 135.597226 46.741863 
L 136.719615 48.018153 
L 137.954244 49.770666 
L 139.338525 52.14224 
L 140.872458 55.226645 
L 142.668282 59.366149 
L 144.800822 64.871039 
L 147.756449 73.174918 
L 153.405811 89.130896 
L 155.613178 94.64361 
L 157.446415 98.649286 
L 159.017761 101.574901 
L 160.402042 103.711444 
L 161.674083 105.279076 
L 162.796473 106.32957 
L 163.844037 107.018053 
L 164.816775 107.399082 
L 165.7521 107.527917 
L 166.650012 107.431567 
L 167.585337 107.102728 
L 168.558075 106.516061 
L 169.605638 105.610697 
L 170.728028 104.335346 
L 171.962657 102.583811 
L 173.346938 100.213252 
L 174.880871 97.12985 
L 176.676695 92.991332 
L 178.809235 87.487315 
L 181.764862 79.184054 
L 187.414224 63.227241 
L 189.621591 57.713517 
L 191.454828 53.70675 
L 193.026174 50.780041 
L 194.410455 48.642434 
L 195.682496 47.073756 
L 196.804886 46.022296 
L 197.85245 45.332885 
L 198.825188 44.95098 
L 199.760513 44.821295 
L 200.658425 44.916828 
L 201.59375 45.244823 
L 202.566488 45.830625 
L 203.614051 46.735079 
L 204.736441 48.009492 
L 205.97107 49.760047 
L 207.355351 52.129592 
L 208.889284 55.211991 
L 210.685108 59.349522 
L 212.817648 64.852666 
L 215.773275 73.155308 
L 221.422637 89.112954 
L 223.630004 94.627687 
L 225.463241 98.635545 
L 227.034587 101.563347 
L 228.418868 103.702019 
L 229.690909 105.271743 
L 230.813299 106.324169 
L 231.860863 107.014508 
L 232.833601 107.397289 
L 233.768926 107.527824 
L 234.666838 107.433107 
L 235.602163 107.105956 
L 236.574901 106.52102 
L 237.622464 105.617475 
L 238.744854 104.344001 
L 239.979483 102.594425 
L 241.363764 100.225895 
L 242.897697 97.144499 
L 244.656108 93.099265 
L 246.788648 87.606645 
L 249.744275 79.311488 
L 255.468463 63.146554 
L 257.67583 57.641937 
L 259.509067 53.645007 
L 261.080413 50.728148 
L 262.464693 48.60013 
L 263.736735 47.040875 
L 264.859125 45.998112 
L 265.906689 45.317054 
L 266.879427 44.943039 
L 267.814752 44.821002 
L 268.712664 44.923881 
L 269.647989 45.259475 
L 270.620727 45.853062 
L 271.66829 46.765697 
L 272.79068 48.048555 
L 274.025309 49.807913 
L 275.40959 52.186582 
L 276.943523 55.277998 
L 278.739347 59.424395 
L 280.9093 65.036596 
L 283.90234 73.459379 
L 289.40205 88.996207 
L 291.64683 94.611757 
L 293.480067 98.621796 
L 295.051413 101.551783 
L 296.435693 103.692582 
L 297.707735 105.264399 
L 298.830125 106.318756 
L 299.877689 107.01095 
L 300.850427 107.395485 
L 301.785752 107.527719 
L 302.683664 107.434634 
L 303.618989 107.109172 
L 304.591726 106.525967 
L 305.63929 105.624241 
L 306.76168 104.352646 
L 307.996309 102.605027 
L 309.38059 100.238528 
L 310.914523 97.159141 
L 312.672934 93.115845 
L 314.805474 87.624987 
L 317.723688 79.438869 
L 323.522702 63.065971 
L 325.730069 57.570505 
L 327.563306 53.583445 
L 329.134652 50.676459 
L 330.518932 48.558046 
L 331.753561 47.048162 
L 332.875951 46.003465 
L 333.923515 45.32055 
L 334.896253 44.944782 
L 335.831578 44.821046 
L 336.72949 44.922292 
L 337.664815 45.256197 
L 338.637552 45.848055 
L 339.685116 46.758873 
L 340.807506 48.039855 
L 342.042135 49.797258 
L 343.426416 52.173901 
L 344.960349 55.263316 
L 346.756172 59.407745 
L 348.888713 64.916991 
L 351.881753 73.331832 
L 357.456289 89.077055 
L 359.663656 94.595819 
L 361.496893 98.608037 
L 363.068239 101.540208 
L 364.452519 103.683135 
L 365.724561 105.257044 
L 366.846951 106.313332 
L 367.894515 107.007381 
L 368.867253 107.393668 
L 369.802578 107.527601 
L 370.70049 107.436149 
L 371.635815 107.112376 
L 372.608552 106.530902 
L 373.656116 105.630996 
L 374.778506 104.361279 
L 376.013135 102.61562 
L 377.397416 100.251152 
L 378.931349 97.173774 
L 380.689759 93.132418 
L 382.8223 87.643324 
L 385.740514 79.458461 
L 391.539528 63.083869 
L 393.746895 57.586366 
L 395.580132 53.59711 
L 397.151477 50.687928 
L 398.535758 48.567379 
L 399.770387 47.05546 
L 400.892777 46.00883 
L 401.940341 45.324059 
L 402.913079 44.946537 
L 403.848404 44.821101 
L 404.746316 44.920716 
L 405.68164 45.252932 
L 406.654378 45.84306 
L 407.701942 46.75206 
L 408.824332 48.031166 
L 410.058961 49.786613 
L 411.443242 52.161229 
L 412.977175 55.248641 
L 414.772998 59.391101 
L 416.905539 64.898607 
L 419.898579 73.312214 
L 425.473115 89.059098 
L 427.680482 94.579874 
L 429.513719 98.59427 
L 431.085064 101.528624 
L 432.469345 103.673677 
L 433.741387 105.249677 
L 434.863777 106.307895 
L 435.911341 107.003799 
L 436.884079 107.391838 
L 437.819404 107.527471 
L 438.717316 107.437651 
L 439.65264 107.115568 
L 440.625378 106.535826 
L 441.672942 105.637739 
L 442.795332 104.369902 
L 444.029961 102.626202 
L 445.414242 100.263766 
L 446.948175 97.188399 
L 448.706585 93.148985 
L 450.839126 87.661656 
L 453.75734 79.478053 
L 459.593767 63.003368 
L 461.801134 57.51505 
L 463.596958 53.610784 
L 465.168303 50.699407 
L 466.552584 48.576723 
L 467.787213 47.06277 
L 468.909603 46.014207 
L 469.957167 45.32758 
L 470.929905 44.948305 
L 471.86523 44.82117 
L 472.763142 44.919151 
L 473.698466 45.24968 
L 474.671204 45.838077 
L 475.718768 46.745259 
L 476.841158 48.022488 
L 478.075787 49.775979 
L 479.460068 52.148568 
L 480.994001 55.233975 
L 482.789824 59.374465 
L 484.922365 64.880227 
L 487.877992 73.184723 
L 493.527354 89.139865 
L 495.734721 94.651569 
L 497.567958 98.656153 
L 499.139303 101.580675 
L 500.523584 103.716153 
L 501.795626 105.282738 
L 502.918016 106.332266 
L 503.96558 107.019821 
L 504.938318 107.399973 
L 505.873643 107.527958 
L 506.771554 107.430793 
L 507.706879 107.101109 
L 508.679617 106.513577 
L 509.727181 105.607304 
L 510.849571 104.331014 
L 512.0842 102.578501 
L 513.468481 100.206927 
L 515.002414 97.122522 
L 516.798237 92.983018 
L 518.930778 87.478128 
L 521.886405 79.174249 
L 527.535767 63.218271 
L 529.743134 57.705557 
L 531.576371 53.699881 
L 533.147716 50.774265 
L 534.531997 48.637723 
L 535.804039 47.070091 
L 536.926429 46.019597 
L 537.973993 45.331113 
L 538.946731 44.950085 
L 539.882056 44.82125 
L 540.779967 44.9176 
L 541.715292 45.246439 
L 542.68803 45.833106 
L 543.735594 46.73847 
L 544.857984 48.013821 
L 546.092613 49.765355 
L 547.476894 52.135915 
L 549.010826 55.219317 
L 550.80665 59.357835 
L 552.939191 64.861852 
L 555.894818 73.165113 
L 561.54418 89.121926 
L 563.751547 94.635649 
L 565.584783 98.642417 
L 567.156129 101.569125 
L 568.54041 103.706733 
L 569.812452 105.275411 
L 570.934842 106.326871 
L 571.982406 107.016282 
L 572.955144 107.398187 
L 573.890469 107.527872 
L 574.78838 107.432338 
L 575.723705 107.104344 
L 576.696443 106.518542 
L 577.744007 105.614087 
L 578.866397 104.339675 
L 580.101026 102.589119 
L 581.485307 100.219574 
L 583.019239 97.137176 
L 584.815063 92.999645 
L 586.947604 87.496501 
L 589.903231 79.193858 
L 595.552593 63.236212 
L 597.75996 57.72148 
L 599.593196 53.713622 
L 601.164542 50.78582 
L 602.548823 48.647148 
L 603.820865 47.077423 
L 604.943255 46.024997 
L 605.990819 45.334659 
L 606.963557 44.951877 
L 607.898881 44.821343 
L 608.796793 44.91606 
L 609.732118 45.243211 
L 610.704856 45.828147 
L 611.75242 46.731692 
L 612.87481 48.005165 
L 614.109439 49.754742 
L 615.49372 52.123272 
L 617.027652 55.204667 
L 618.786063 59.249902 
L 620.918604 64.742522 
L 623.874231 73.037679 
L 629.598419 89.202613 
L 631.805786 94.70723 
L 633.639022 98.704159 
L 635.210368 101.621018 
L 636.594649 103.749037 
L 637.866691 105.308291 
L 638.989081 106.351055 
L 640.036645 107.032113 
L 641.009383 107.406128 
L 641.944707 107.528164 
L 642.842619 107.425286 
L 643.777944 107.089692 
L 644.750682 106.496105 
L 645.798246 105.583469 
L 646.920636 104.300612 
L 648.155265 102.541254 
L 649.539546 100.162585 
L 651.073478 97.071168 
L 652.869302 92.924772 
L 655.039256 87.31257 
L 658.032296 78.889788 
L 663.532006 63.352959 
L 665.776786 57.73741 
L 667.610022 53.727371 
L 669.181368 50.797384 
L 670.565649 48.656584 
L 671.837691 47.084767 
L 672.960081 46.03041 
L 674.007645 45.338216 
L 674.980383 44.953682 
L 675.915707 44.821448 
L 676.813619 44.914533 
L 677.748944 45.239994 
L 678.721682 45.8232 
L 679.769246 46.724926 
L 680.891636 47.996521 
L 682.126265 49.744139 
L 683.510546 52.110639 
L 685.044478 55.190026 
L 686.802889 59.233322 
L 688.93543 64.72418 
L 691.853644 72.910298 
L 697.652658 89.283196 
L 699.860025 94.778662 
L 701.693261 98.765722 
L 703.264607 101.672708 
L 704.648888 103.791121 
L 705.883517 105.301005 
L 707.005907 106.345702 
L 708.053471 107.028617 
L 709.026208 107.404385 
L 709.961533 107.528121 
L 710.859445 107.426875 
L 711.79477 107.092969 
L 712.767508 106.501112 
L 713.815072 105.590294 
L 714.937462 104.309312 
L 716.172091 102.551909 
L 717.556371 100.175266 
L 719.090304 97.085851 
L 720.886128 92.941422 
L 723.018669 87.432176 
L 726.011708 79.017334 
L 731.586245 63.272112 
L 733.793612 57.753348 
L 735.626848 53.741129 
L 737.198194 50.808959 
L 738.582475 48.666032 
L 739.854517 47.092123 
L 740.976907 46.035835 
L 742.024471 45.341786 
L 742.997208 44.955499 
L 743.932533 44.821566 
L 744.830445 44.913018 
L 745.76577 45.23679 
L 746.738508 45.818264 
L 747.786072 46.718171 
L 748.908462 47.987887 
L 750.143091 49.733547 
L 751.527371 52.098015 
L 753.061304 55.175393 
L 754.819715 59.216748 
L 756.952256 64.705843 
L 759.870469 72.890705 
L 765.669484 89.265297 
L 767.87685 94.762801 
L 769.710087 98.752057 
L 771.281433 101.661239 
L 772.665714 103.781788 
L 773.900343 105.293707 
L 775.022733 106.340336 
L 776.070297 107.025108 
L 777.043034 107.402629 
L 777.978359 107.528065 
L 778.876271 107.428451 
L 779.811596 107.096234 
L 780.784334 106.506107 
L 781.831898 105.597106 
L 782.954288 104.318001 
L 784.188917 102.562554 
L 785.573197 100.187937 
L 787.10713 97.100526 
L 788.902954 92.958065 
L 791.035495 87.45056 
L 794.028534 79.036953 
L 799.603071 63.290069 
L 801.810437 57.769293 
L 803.643674 53.754897 
L 805.21502 50.820543 
L 806.599301 48.67549 
L 807.871343 47.09949 
L 808.993733 46.041272 
L 810.041296 45.345368 
L 811.014034 44.957328 
L 811.949359 44.821696 
L 812.024185 44.820947 
L 812.024185 44.820947 
" clip-path="url(#padbd9f1610)" style="fill: none; stroke: #e36f47; stroke-width: 4"/>
   </g>
   <g id="patch_3">
    <path d="M 41.316477 110.305354 
L 41.316477 12.179941 
" style="fill: none; stroke: #000000; stroke-width: 2; stroke-linejoin: miter; stroke-linecap: square"/>
   </g>
   <g id="patch_4">
    <path d="M 41.316477 110.305354 
L 834.471983 110.305354 
" style="fill: none; stroke: #000000; stroke-width: 2; stroke-linejoin: miter; stroke-linecap: square"/>
   </g>
   <g id="line2d_12">
    <path d="M 63.764274 29.144128 
L 69.563288 32.659789 
L 75.287477 35.87231 
L 81.310969 38.99699 
L 87.633765 42.01668 
L 94.0688 44.838211 
L 97.585622 46.280453 
L 97.623035 14.957075 
L 97.697861 15.018404 
L 102.823441 19.077218 
L 108.248326 23.079933 
L 113.560971 26.727799 
L 119.098094 30.263229 
L 124.710044 33.588635 
L 130.471645 36.752338 
L 136.644789 39.881584 
L 142.817934 42.762541 
L 149.402621 45.583867 
L 156.024721 48.180987 
L 158.119849 48.955921 
L 158.157262 17.627342 
L 158.232088 17.685982 
L 163.432494 21.622408 
L 168.782553 25.39587 
L 174.170024 28.932012 
L 179.931625 32.441518 
L 185.693227 35.690486 
L 191.641893 38.791798 
L 197.740211 41.724711 
L 204.250072 44.601997 
L 210.797347 47.253599 
L 217.718751 49.814846 
L 221.422637 51.091006 
L 221.46005 19.760901 
L 221.534876 19.817403 
L 226.772696 23.636723 
L 232.160167 27.295411 
L 237.69729 30.790253 
L 243.30924 34.077487 
L 249.108254 37.224386 
L 255.356224 40.352169 
L 261.604195 43.228709 
L 268.001817 45.935023 
L 274.66133 48.516204 
L 281.620147 50.978382 
L 281.769799 51.028812 
L 281.807212 19.693491 
L 281.882038 19.750041 
L 287.157271 23.600299 
L 292.507329 27.236982 
L 298.007039 30.713194 
L 303.656402 34.027163 
L 309.455416 37.177844 
L 315.703386 40.309348 
L 321.913943 43.172779 
L 328.386392 45.914065 
L 335.045905 48.49703 
L 341.518353 50.796089 
L 341.555766 19.458976 
L 341.630592 19.515753 
L 346.905824 23.381997 
L 352.255883 27.033779 
L 357.755593 30.524426 
L 363.404955 33.852155 
L 369.20397 37.015925 
L 375.414527 40.142348 
L 381.587671 43.00254 
L 388.172359 45.803659 
L 394.831872 48.396047 
L 401.753276 50.856208 
L 406.168009 52.310327 
L 406.205422 20.981378 
L 406.280248 21.036664 
L 411.555481 24.799133 
L 416.942952 28.376864 
L 422.592314 31.861111 
L 428.503568 35.235279 
L 434.414821 38.352485 
L 440.475726 41.302408 
L 446.798523 44.134818 
L 453.308384 46.810865 
L 460.304614 49.438221 
L 467.413083 51.867052 
L 474.147422 53.964189 
L 474.184835 22.636174 
L 474.259661 22.689807 
L 479.60972 26.389467 
L 485.072017 29.90269 
L 490.721379 33.275725 
L 496.520394 36.482628 
L 502.581299 39.578308 
L 508.941508 42.567621 
L 515.526195 45.405449 
L 522.148296 48.017704 
L 529.032287 50.498529 
L 536.252995 52.866093 
L 543.211812 54.941022 
L 543.249225 23.602539 
L 543.324051 23.65517 
L 548.711523 27.312568 
L 554.211233 30.783411 
L 559.860595 34.092261 
L 565.659609 37.23808 
L 571.90758 40.364743 
L 578.118137 43.223752 
L 584.590585 45.960803 
L 591.250098 48.539779 
L 598.208916 50.999844 
L 605.691515 53.401251 
L 612.163963 55.292846 
L 612.201376 23.962797 
L 612.276202 24.015098 
L 617.663673 27.647437 
L 623.200797 31.117111 
L 628.850159 34.40164 
L 634.686586 37.54359 
L 640.747492 40.55658 
L 646.958049 43.400367 
L 653.617562 46.197959 
L 660.426727 48.811614 
L 667.647435 51.334717 
L 674.94297 53.647845 
L 682.126265 55.714759 
L 682.163678 24.380412 
L 682.238504 24.432281 
L 687.663388 28.059704 
L 693.275337 31.544714 
L 699.036939 34.860125 
L 704.985605 38.025086 
L 711.196162 41.071011 
L 717.481545 43.906025 
L 723.953994 46.586405 
L 730.763159 49.166198 
L 738.02128 51.668893 
L 745.354227 53.962016 
L 753.13613 56.161304 
L 753.173543 24.82297 
L 753.248369 24.874383 
L 758.673254 28.470812 
L 764.285203 31.926045 
L 770.046804 35.213133 
L 776.032884 38.369986 
L 782.206028 41.370944 
L 788.491411 44.181734 
L 794.963859 46.839215 
L 801.810437 49.410364 
L 809.031146 51.878275 
L 812.024185 52.833246 
L 812.024185 52.833246 
" clip-path="url(#padbd9f1610)" style="fill: none; stroke: #3ea44d; stroke-width: 4"/>
   </g>
  </g>
 </g>
 <defs>
  <clipPath id="padbd9f1610">
   <rect x="41.316477" y="12.179941" width="793.155506" height="98.125414"/>
  </clipPath>
 </defs>
</svg>
