<?xml version="1.0" encoding="utf-8" standalone="no"?>
<!DOCTYPE svg PUBLIC "-//W3C//DTD SVG 1.1//EN"
  "http://www.w3.org/Graphics/SVG/1.1/DTD/svg11.dtd">
<svg xmlns:xlink="http://www.w3.org/1999/xlink" width="843.84pt" height="155.52pt" viewBox="0 0 843.84 155.52" xmlns="http://www.w3.org/2000/svg" version="1.1">
 <metadata>
  <rdf:RDF xmlns:dc="http://purl.org/dc/elements/1.1/" xmlns:cc="http://creativecommons.org/ns#" xmlns:rdf="http://www.w3.org/1999/02/22-rdf-syntax-ns#">
   <cc:Work>
    <dc:type rdf:resource="http://purl.org/dc/dcmitype/StillImage"/>
    <dc:date>2024-08-16T15:10:21.868675</dc:date>
    <dc:format>image/svg+xml</dc:format>
    <dc:creator>
     <cc:Agent>
      <dc:title>Matplotlib v3.8.4, https://matplotlib.org/</dc:title>
     </cc:Agent>
    </dc:creator>
   </cc:Work>
  </rdf:RDF>
 </metadata>
 <defs>
  <style type="text/css">*{stroke-linejoin: round; stroke-linecap: butt}</style>
 </defs>
 <g id="figure_1">
  <g id="patch_1">
   <path d="M 0 155.52 
L 843.84 155.52 
L 843.84 0 
L 0 0 
L 0 155.52 
z
" style="fill: none"/>
  </g>
  <g id="axes_1">
   <g id="patch_2">
    <path d="M 41.316477 139.514517 
L 841.005354 139.514517 
L 841.005354 5.413039 
L 41.316477 5.413039 
L 41.316477 139.514517 
z
" style="fill: none"/>
   </g>
   <g id="line2d_1">
    <path d="M 63.949181 135.719192 
L 64.665883 135.611357 
L 65.420307 135.265285 
L 66.212451 134.646691 
L 67.080038 133.672392 
L 68.023068 132.26729 
L 69.07926 130.276142 
L 70.248617 127.575347 
L 71.568858 123.930657 
L 73.039984 119.177909 
L 74.699715 113.027774 
L 76.623495 105.004021 
L 78.962208 94.24188 
L 82.394835 77.261592 
L 87.449472 52.350164 
L 89.863627 41.609116 
L 91.825128 33.859362 
L 93.522581 28.033961 
L 94.993707 23.742319 
L 96.313948 20.545688 
L 97.483304 18.2643 
L 98.539497 16.666736 
L 99.482526 15.622323 
L 100.350113 14.985598 
L 101.142258 14.678491 
L 101.896681 14.630692 
L 102.613384 14.80659 
L 103.367807 15.224 
L 104.197673 15.956306 
L 105.102981 17.077496 
L 106.083732 18.664371 
L 107.177646 20.878283 
L 108.384723 23.84298 
L 109.742685 27.796091 
L 111.251532 32.895908 
L 112.986706 39.579386 
L 115.02365 48.360718 
L 117.588689 60.480271 
L 122.718769 86.141505 
L 125.887348 101.294067 
L 128.150618 111.066824 
L 129.998956 118.118912 
L 131.620966 123.47572 
L 133.054371 127.479805 
L 134.336891 130.4327 
L 135.468526 132.516014 
L 136.486997 133.956226 
L 137.392306 134.881799 
L 138.222171 135.432271 
L 138.976595 135.683041 
L 139.693297 135.70007 
L 140.409999 135.501497 
L 141.164423 135.06034 
L 141.994289 134.302165 
L 142.899597 133.153198 
L 143.880347 131.536932 
L 144.974261 129.29133 
L 146.181339 126.293306 
L 147.539301 122.305167 
L 149.085869 117.032788 
L 150.821043 110.296489 
L 152.857987 101.465544 
L 155.460748 89.119558 
L 164.891041 43.370435 
L 166.890263 35.270262 
L 168.625437 29.127266 
L 170.134284 24.561739 
L 171.492246 21.133358 
L 172.699324 18.664371 
L 173.793238 16.919146 
L 174.773988 15.764898 
L 175.641575 15.073843 
L 176.43372 14.716722 
L 177.188144 14.621131 
L 177.904846 14.751659 
L 178.659269 15.121525 
L 179.451414 15.764898 
L 180.319001 16.765971 
L 181.26203 18.199583 
L 182.318223 20.22172 
L 183.48758 22.955381 
L 184.807821 26.634981 
L 186.278946 31.423388 
L 187.938678 37.609009 
L 189.862458 45.66675 
L 192.238892 56.639704 
L 195.746961 74.028298 
L 200.575271 97.812655 
L 202.989426 108.571516 
L 204.950927 116.340488 
L 206.64838 122.185533 
L 208.119506 126.496147 
L 209.439747 129.711097 
L 210.609103 132.00955 
L 211.665296 133.623063 
L 212.608325 134.682042 
L 213.475912 135.332359 
L 214.268057 135.651974 
L 215.022481 135.711722 
L 215.739183 135.547164 
L 216.493606 135.141635 
L 217.285751 134.461141 
L 218.153338 133.419981 
L 219.134088 131.877311 
L 220.228003 129.711097 
L 221.43508 126.796609 
L 222.793042 122.896331 
L 224.301889 117.849898 
L 225.999342 111.372488 
L 227.998564 102.827873 
L 230.488162 91.146979 
L 234.712933 70.039719 
L 238.48505 51.647199 
L 240.861484 41.135624 
L 242.785264 33.58203 
L 244.444996 27.914793 
L 245.916122 23.642165 
L 247.236363 20.463885 
L 248.405719 18.199583 
L 249.461912 16.617984 
L 250.404941 15.588147 
L 251.234807 14.985598 
L 252.026952 14.678491 
L 252.743654 14.628012 
L 253.648962 14.821443 
L 254.55427 15.255423 
L 255.4973 15.963574 
L 256.515771 17.018548 
L 257.609685 18.481633 
L 258.816763 20.483108 
L 260.137004 23.121651 
L 261.60813 26.589288 
L 263.23014 31.016411 
L 265.040757 36.64106 
L 267.0777 43.724566 
L 269.491855 52.969473 
L 272.584991 65.763467 
L 281.600352 103.637759 
L 283.976786 112.356688 
L 285.976008 118.878389 
L 287.711182 123.814763 
L 289.25775 127.573187 
L 290.653433 130.399008 
L 291.898232 132.437151 
L 293.029867 133.877086 
L 294.048339 134.825627 
L 294.953647 135.386057 
L 295.821234 135.669411 
L 296.6511 135.705639 
L 297.480966 135.510822 
L 298.310832 135.084435 
L 299.21614 134.355641 
L 300.19689 133.257524 
L 301.253083 131.720471 
L 302.422439 129.598386 
L 303.704959 126.778266 
L 305.100643 123.148839 
L 306.647211 118.486855 
L 308.382385 112.52501 
L 310.381607 104.818942 
L 312.758041 94.720979 
L 315.964341 80.035858 
L 322.565546 49.582267 
L 324.94198 39.78661 
L 326.903481 32.595001 
L 328.600934 27.178967 
L 330.109781 23.085864 
L 331.430022 20.115842 
L 332.599378 17.994162 
L 333.655571 16.508083 
L 334.5986 15.53764 
L 335.466187 14.948553 
L 336.258332 14.668696 
L 337.012756 14.633281 
L 337.767179 14.824427 
L 338.559324 15.269179 
L 339.389189 16.002371 
L 340.294498 17.111514 
L 341.275248 18.672165 
L 342.369162 20.843449 
L 343.57624 23.748744 
L 344.934202 27.624974 
L 346.443049 32.634415 
L 348.140502 39.065962 
L 350.139724 47.562359 
L 352.5916 59.025442 
L 356.43916 78.253922 
L 360.663931 99.039163 
L 363.040365 109.624386 
L 364.964145 117.222844 
L 366.623877 122.906567 
L 368.057281 127.069239 
L 369.339801 130.150876 
L 370.471436 132.332829 
L 371.489908 133.846648 
L 372.395216 134.82347 
L 373.225082 135.407832 
L 373.979506 135.677588 
L 374.696208 135.701554 
L 375.41291 135.49857 
L 376.167334 135.040037 
L 376.959478 134.289769 
L 377.827065 133.155421 
L 378.807816 131.486412 
L 379.90173 129.153441 
L 381.108807 126.024726 
L 382.46677 121.848455 
L 383.975617 116.457693 
L 385.710791 109.393548 
L 387.747734 100.122357 
L 390.350495 87.171298 
L 398.762317 44.488882 
L 400.79926 35.748068 
L 402.496713 29.394066 
L 403.967838 24.690282 
L 405.28808 21.173715 
L 406.457436 18.656738 
L 407.513629 16.890215 
L 408.456658 15.733212 
L 409.286524 15.050241 
L 410.040947 14.705311 
L 410.75765 14.622836 
L 411.436631 14.76568 
L 412.153333 15.149409 
L 412.907757 15.810427 
L 413.737622 16.839012 
L 414.680652 18.384841 
L 415.736845 20.58019 
L 416.906201 23.561153 
L 418.188721 27.460157 
L 419.659847 32.681949 
L 421.319578 39.430134 
L 423.281079 48.386844 
L 425.732956 60.688513 
L 435.012364 108.38569 
L 436.898423 116.36036 
L 438.520433 122.307813 
L 439.953838 126.755846 
L 441.198637 129.9434 
L 442.330272 132.260686 
L 443.311022 133.802192 
L 444.216331 134.829106 
L 445.008475 135.409977 
L 445.725178 135.677212 
L 446.404159 135.702785 
L 447.08314 135.506646 
L 447.799842 135.059712 
L 448.591987 134.281081 
L 449.459574 133.089619 
L 450.402603 131.40082 
L 451.458796 129.036547 
L 452.628152 125.860428 
L 453.948393 121.610769 
L 455.45724 115.964762 
L 457.192414 108.558818 
L 459.267079 98.661053 
L 461.983003 84.529902 
L 468.96142 47.714879 
L 471.073806 38.032067 
L 472.80898 31.057472 
L 474.317827 25.85479 
L 475.675789 21.942915 
L 476.845146 19.206767 
L 477.901338 17.265813 
L 478.844368 15.973609 
L 479.674234 15.188537 
L 480.428657 14.764988 
L 481.107638 14.621919 
L 481.786619 14.705137 
L 482.4656 15.014448 
L 483.182303 15.585056 
L 483.974447 16.504702 
L 484.879756 17.92154 
L 485.860506 19.886419 
L 486.95442 22.587378 
L 488.199219 26.282064 
L 489.594902 31.1557 
L 491.179192 37.530116 
L 493.027529 45.931254 
L 495.328521 57.501653 
L 498.912032 76.852331 
L 502.985919 98.542627 
L 505.249189 109.416849 
L 507.097527 117.256795 
L 508.681816 123.04978 
L 510.077499 127.342087 
L 511.284577 130.385221 
L 512.378491 132.574071 
L 513.359242 134.05773 
L 514.226829 134.982718 
L 514.981252 135.486467 
L 515.697954 135.703601 
L 516.376935 135.673377 
L 517.055917 135.413618 
L 517.772619 134.891424 
L 518.564763 134.020478 
L 519.43235 132.717751 
L 520.413101 130.81577 
L 521.507015 128.174585 
L 522.714093 124.654279 
L 524.072055 119.985193 
L 525.618623 113.84107 
L 527.429239 105.686645 
L 529.617067 94.75195 
L 532.823367 77.453444 
L 537.613956 51.689659 
L 539.877227 40.76679 
L 541.725564 32.905064 
L 543.309853 27.108622 
L 544.667816 22.93083 
L 545.874893 19.885562 
L 546.968807 17.701874 
L 547.911836 16.276687 
L 548.779423 15.349343 
L 549.533847 14.846799 
L 550.250549 14.633596 
L 550.92953 14.670016 
L 551.608511 14.938323 
L 552.325214 15.472019 
L 553.117358 16.35852 
L 553.984945 17.681518 
L 554.965696 19.610157 
L 556.05961 22.285265 
L 557.266687 25.847312 
L 558.62465 30.567535 
L 560.171218 36.773255 
L 561.981834 45.001043 
L 564.207383 56.218319 
L 567.526847 74.254273 
L 572.015666 98.473883 
L 574.278937 109.45656 
L 576.127274 117.361739 
L 577.711563 123.189349 
L 579.069526 127.388266 
L 580.276603 130.447418 
L 581.370517 132.639408 
L 582.313547 134.068358 
L 583.181134 134.996338 
L 583.935557 135.497235 
L 584.614538 135.702439 
L 585.293519 135.674079 
L 585.9725 135.412228 
L 586.689203 134.88361 
L 587.481347 134.000669 
L 588.348934 132.679148 
L 589.329685 130.749234 
L 590.423599 128.069223 
L 591.630677 124.497846 
L 592.988639 119.762806 
L 594.535207 113.535621 
L 596.345823 105.27824 
L 598.571372 94.021322 
L 601.890836 75.928913 
L 606.341934 51.854036 
L 608.605205 40.846708 
L 610.415821 33.078622 
L 612.00011 27.223134 
L 613.358072 23.003032 
L 614.56515 19.927597 
L 615.659064 17.723171 
L 616.602093 16.285397 
L 617.46968 15.350914 
L 618.224104 14.845647 
L 618.903085 14.637542 
L 619.582066 14.663975 
L 620.261047 14.924864 
L 620.977749 15.453495 
L 621.769894 16.337647 
L 622.637481 17.661877 
L 623.618232 19.596495 
L 624.712146 22.283638 
L 625.919223 25.864919 
L 627.277185 30.613222 
L 628.823754 36.857547 
L 631.577399 49.203196 
L 634.18016 61.714974 
L 643.195521 105.96957 
L 645.232464 114.389038 
L 646.967638 120.66544 
L 648.476485 125.343636 
L 649.834447 128.869037 
L 651.041525 131.419758 
L 652.135439 133.234752 
L 653.116189 134.447704 
L 653.983776 135.187432 
L 654.775921 135.586202 
L 655.530344 135.718897 
L 656.247047 135.621254 
L 657.00147 135.283479 
L 657.793615 134.670992 
L 658.661202 133.700437 
L 659.604231 132.296099 
L 660.660424 130.301991 
L 661.82978 127.593658 
L 663.150021 123.935736 
L 664.621147 119.163357 
L 666.280879 112.986398 
L 668.204659 104.927716 
L 670.543371 94.121523 
L 673.975998 77.083011 
L 678.955193 52.476974 
L 681.369348 41.700134 
L 683.330849 33.924184 
L 685.028302 28.079093 
L 686.499428 23.773033 
L 687.819669 20.565746 
L 688.989025 18.276802 
L 690.045218 16.673955 
L 690.988247 15.626059 
L 691.855834 14.987139 
L 692.647979 14.678853 
L 693.364681 14.627357 
L 694.081384 14.792106 
L 694.835807 15.198458 
L 695.627952 15.880465 
L 696.495539 16.923993 
L 697.476289 18.47016 
L 698.570203 20.641185 
L 699.777281 23.561931 
L 701.135243 27.470184 
L 702.64409 32.526291 
L 704.379264 39.168007 
L 706.378486 47.742645 
L 708.868084 59.452859 
L 713.206019 81.152355 
L 716.864972 98.965619 
L 719.203685 109.297412 
L 721.127465 116.843181 
L 722.787197 122.500845 
L 724.258322 126.76294 
L 725.578564 129.930265 
L 726.74792 132.183799 
L 727.804113 133.754913 
L 728.747142 134.774855 
L 729.577008 135.368342 
L 730.369153 135.666537 
L 731.085855 135.709379 
L 731.802557 135.536443 
L 732.556981 135.121988 
L 733.386846 134.392733 
L 734.292155 133.274631 
L 735.272905 131.690813 
L 736.366819 129.479955 
L 737.573897 126.518191 
L 738.931859 122.56784 
L 740.440706 117.470435 
L 742.17588 110.788909 
L 744.212823 102.008818 
L 746.777863 89.889368 
L 751.870221 64.411547 
L 755.0388 49.239385 
L 757.30207 39.444695 
L 759.188129 32.236056 
L 760.81014 26.876425 
L 762.243544 22.869826 
L 763.526064 19.914697 
L 764.657699 17.829441 
L 765.676171 16.387516 
L 766.581479 15.460458 
L 767.411345 14.90866 
L 768.165768 14.656719 
L 768.882471 14.63861 
L 769.599173 14.836137 
L 770.353596 15.276232 
L 771.183462 16.033289 
L 772.08877 17.181097 
L 773.069521 18.796187 
L 774.163435 21.040576 
L 775.370512 24.037388 
L 776.728475 28.024327 
L 778.275043 33.295556 
L 780.010217 40.030841 
L 782.04716 48.860973 
L 784.649921 61.206495 
L 794.080215 106.958635 
L 796.079437 115.060181 
L 797.814611 121.204506 
L 799.323458 125.771268 
L 800.68142 129.200808 
L 801.888497 131.670851 
L 802.982411 133.417045 
L 803.963162 134.572166 
L 804.830749 135.263991 
L 805.622894 135.621812 
L 806.377317 135.718061 
L 807.094019 135.588152 
L 807.848443 135.218926 
L 808.640587 134.576213 
L 809.508174 133.575843 
L 810.451204 132.142969 
L 811.507397 130.121623 
L 812.676753 127.388787 
L 813.996994 123.710046 
L 815.46812 118.922499 
L 817.127852 112.737709 
L 818.37265 107.62179 
L 818.37265 107.62179 
" clip-path="url(#p1d1c775cdd)" style="fill: none; stroke: #2477d0; stroke-width: 4"/>
   </g>
   <g id="matplotlib.axis_1">
    <g id="xtick_1"/>
    <g id="xtick_2"/>
    <g id="xtick_3"/>
    <g id="xtick_4"/>
    <g id="xtick_5"/>
   </g>
   <g id="matplotlib.axis_2">
    <g id="ytick_1">
     <g id="line2d_2">
      <defs>
       <path id="m0e0bbf3d50" d="M 0 0 
L 5 0 
" style="stroke: #000000"/>
      </defs>
      <g>
       <use xlink:href="#m0e0bbf3d50" x="41.316477" y="135.719192" style="stroke: #000000"/>
      </g>
     </g>
     <g id="text_1">
      <!-- $-1$ -->
      <g transform="translate(1.976477 146.357004) scale(0.28 -0.28)">
       <defs>
        <path id="Cmsy10-a1" d="M 653 1472 
Q 600 1472 565 1512 
Q 531 1553 531 1600 
Q 531 1647 565 1687 
Q 600 1728 653 1728 
L 4325 1728 
Q 4375 1728 4408 1687 
Q 4441 1647 4441 1600 
Q 4441 1553 4408 1512 
Q 4375 1472 4325 1472 
L 653 1472 
z
" transform="scale(0.015625)"/>
        <path id="Cmr10-31" d="M 594 0 
L 594 225 
Q 1394 225 1394 428 
L 1394 3788 
Q 1063 3628 556 3628 
L 556 3853 
Q 1341 3853 1741 4263 
L 1831 4263 
Q 1853 4263 1873 4245 
Q 1894 4228 1894 4206 
L 1894 428 
Q 1894 225 2694 225 
L 2694 0 
L 594 0 
z
" transform="scale(0.015625)"/>
       </defs>
       <use xlink:href="#Cmsy10-a1" transform="translate(0 0.390625)"/>
       <use xlink:href="#Cmr10-31" transform="translate(77.685547 0.390625)"/>
      </g>
     </g>
    </g>
    <g id="ytick_2">
     <g id="line2d_3">
      <g>
       <use xlink:href="#m0e0bbf3d50" x="41.316477" y="75.169564" style="stroke: #000000"/>
      </g>
     </g>
     <g id="text_2">
      <!-- $0$ -->
      <g transform="translate(23.816477 85.807376) scale(0.28 -0.28)">
       <defs>
        <path id="Cmr10-30" d="M 1600 -141 
Q 816 -141 533 504 
Q 250 1150 250 2041 
Q 250 2597 351 3087 
Q 453 3578 754 3920 
Q 1056 4263 1600 4263 
Q 2022 4263 2290 4056 
Q 2559 3850 2700 3523 
Q 2841 3197 2892 2823 
Q 2944 2450 2944 2041 
Q 2944 1491 2842 1011 
Q 2741 531 2444 195 
Q 2147 -141 1600 -141 
z
M 1600 25 
Q 1956 25 2131 390 
Q 2306 756 2347 1200 
Q 2388 1644 2388 2144 
Q 2388 2625 2347 3031 
Q 2306 3438 2132 3767 
Q 1959 4097 1600 4097 
Q 1238 4097 1063 3765 
Q 888 3434 847 3029 
Q 806 2625 806 2144 
Q 806 1788 823 1472 
Q 841 1156 916 820 
Q 991 484 1158 254 
Q 1325 25 1600 25 
z
" transform="scale(0.015625)"/>
       </defs>
       <use xlink:href="#Cmr10-30" transform="translate(0 0.390625)"/>
      </g>
     </g>
    </g>
    <g id="ytick_3">
     <g id="line2d_4">
      <g>
       <use xlink:href="#m0e0bbf3d50" x="41.316477" y="14.619936" style="stroke: #000000"/>
      </g>
     </g>
     <g id="text_3">
      <!-- $1$ -->
      <g transform="translate(23.816477 25.257748) scale(0.28 -0.28)">
       <use xlink:href="#Cmr10-31" transform="translate(0 0.390625)"/>
      </g>
     </g>
    </g>
   </g>
   <g id="line2d_5">
    <path d="M 63.949181 14.619936 
L 64.628162 14.73704 
L 65.307143 15.087899 
L 66.023845 15.710332 
L 66.81599 16.696264 
L 67.721298 18.199583 
L 68.73977 20.358349 
L 69.871405 23.31527 
L 71.116204 27.20962 
L 72.549608 32.462252 
L 74.171619 39.287625 
L 76.095399 48.394835 
L 78.547275 61.164045 
L 87.223145 107.404614 
L 89.109204 115.736979 
L 90.731214 121.944876 
L 92.126897 126.46585 
L 93.371696 129.793439 
L 94.46561 132.133098 
L 95.446361 133.745303 
L 96.313948 134.777898 
L 97.106092 135.392118 
L 97.822795 135.674724 
L 98.501776 135.701934 
L 99.180757 135.495003 
L 99.897459 135.02346 
L 100.651883 134.248486 
L 101.481748 133.07037 
L 102.424778 131.326023 
L 103.480971 128.875788 
L 104.650327 125.578059 
L 105.970568 121.16241 
L 107.479415 115.297293 
L 109.214589 107.613677 
L 111.289254 97.370909 
L 114.156063 81.984075 
L 120.078287 49.940858 
L 122.266115 39.487113 
L 124.03901 32.046265 
L 125.585578 26.476222 
L 126.943541 22.386794 
L 128.150618 19.434989 
L 129.206811 17.40966 
L 130.14984 16.057492 
L 130.979706 15.232067 
L 131.73413 14.782079 
L 132.413111 14.623596 
L 133.092092 14.699307 
L 133.771073 15.008918 
L 134.487775 15.588147 
L 135.27992 16.526947 
L 136.147507 17.909139 
L 137.128257 19.906428 
L 138.222171 22.659282 
L 139.46697 26.431036 
L 140.862654 31.410238 
L 142.446943 37.923144 
L 144.29528 46.500925 
L 146.596272 58.295024 
L 150.40611 79.199295 
L 154.102785 99.042025 
L 156.328335 109.814517 
L 158.138951 117.538449 
L 159.685519 123.222249 
L 161.043481 127.422232 
L 162.250559 130.479242 
L 163.344473 132.66687 
L 164.287502 134.090317 
L 165.155089 135.011911 
L 165.909513 135.506305 
L 166.588494 135.704966 
L 167.267475 135.669475 
L 167.946456 135.399968 
L 168.663158 134.862777 
L 169.455303 133.96987 
L 170.32289 132.636982 
L 171.303641 130.693838 
L 172.397555 127.998872 
L 173.604632 124.411123 
L 174.962594 119.658334 
L 176.509162 113.41249 
L 178.319779 105.136349 
L 180.545328 93.862336 
L 183.902512 75.550006 
L 188.278169 51.89282 
L 190.541439 40.884329 
L 192.352055 33.11434 
L 193.936345 27.256104 
L 195.294307 23.032599 
L 196.501384 19.953167 
L 197.595298 17.744227 
L 198.538328 16.30182 
L 199.405915 15.36243 
L 200.160338 14.852376 
L 200.839319 14.639539 
L 201.5183 14.660834 
L 202.197282 14.916179 
L 202.913984 15.438519 
L 203.706129 16.315203 
L 204.573716 17.630653 
L 205.554466 19.554634 
L 206.64838 22.229095 
L 207.855458 25.795521 
L 209.21342 30.526268 
L 210.759988 36.749935 
L 212.570604 45.004641 
L 214.796154 56.259809 
L 218.115617 74.351633 
L 222.566715 98.428746 
L 224.829986 109.439118 
L 226.640602 117.2111 
L 228.224891 123.071391 
L 229.582854 127.296854 
L 230.789931 130.378152 
L 231.883845 132.588867 
L 232.826874 134.032853 
L 233.694461 134.973725 
L 234.448885 135.485083 
L 235.127866 135.699102 
L 235.806847 135.67899 
L 236.485828 135.424825 
L 237.202531 134.903723 
L 237.994675 134.028392 
L 238.862262 132.714395 
L 239.843013 130.792013 
L 240.936927 128.119262 
L 242.144004 124.554616 
L 243.501967 119.825709 
L 245.048535 113.603893 
L 246.859151 105.350979 
L 249.0847 94.097389 
L 252.404163 76.006515 
L 256.855262 51.927946 
L 259.118532 40.915694 
L 260.929149 33.141719 
L 262.513438 27.279374 
L 263.8714 23.051954 
L 265.078478 19.96879 
L 266.172392 17.756301 
L 267.115421 16.310736 
L 267.983008 15.368381 
L 268.737432 14.855719 
L 269.416413 14.640519 
L 270.095394 14.659448 
L 270.774375 14.912432 
L 271.491077 15.432296 
L 272.283222 16.306275 
L 273.150809 17.618817 
L 274.131559 19.539601 
L 275.225473 22.210641 
L 276.432551 25.773508 
L 277.790513 30.500575 
L 279.337081 36.720537 
L 281.147698 44.97166 
L 283.373247 56.223671 
L 286.69271 74.313592 
L 291.18153 98.586718 
L 293.4448 109.580122 
L 295.255417 117.334137 
L 296.839706 123.175917 
L 298.197668 127.383747 
L 299.404746 130.448236 
L 300.49866 132.642971 
L 301.441689 134.07274 
L 302.309276 135.000268 
L 303.063699 135.499882 
L 303.742681 135.703269 
L 304.421662 135.67251 
L 305.100643 135.407724 
L 305.817345 134.875482 
L 306.60949 133.987981 
L 307.477077 132.660904 
L 308.457827 130.724145 
L 309.551741 128.036009 
L 310.758819 124.455363 
L 312.116781 119.709913 
L 313.663349 113.471452 
L 315.473966 105.202443 
L 317.699515 93.934693 
L 321.056699 75.626093 
L 325.470076 51.769953 
L 327.733347 40.774659 
L 329.543963 33.018645 
L 331.128253 27.174806 
L 332.486215 22.965015 
L 333.693292 19.898657 
L 334.787206 17.702145 
L 335.730236 16.270796 
L 336.597823 15.341785 
L 337.352246 14.840866 
L 338.031227 14.636298 
L 338.710208 14.665874 
L 339.389189 14.92948 
L 340.105892 15.460485 
L 340.898036 16.346633 
L 341.765623 17.672258 
L 342.746374 19.60742 
L 343.840288 22.293847 
L 345.047366 25.872718 
L 346.405328 30.616331 
L 347.951896 36.852945 
L 349.762512 45.120169 
L 351.988061 56.38635 
L 355.345246 74.694013 
L 359.758623 98.551629 
L 362.021894 109.548812 
L 363.83251 117.306825 
L 365.416799 123.152722 
L 366.774761 127.364473 
L 367.981839 130.4327 
L 369.075753 132.630988 
L 370.018782 134.063917 
L 370.886369 134.994411 
L 371.640793 135.496635 
L 372.319774 135.702385 
L 372.998755 135.673992 
L 373.677736 135.411566 
L 374.394438 134.881799 
L 375.186583 133.997002 
L 376.05417 132.672831 
L 377.034921 130.739265 
L 378.128835 128.054547 
L 379.335912 124.477453 
L 380.693874 119.735676 
L 382.240443 113.50091 
L 384.051059 105.235471 
L 386.276608 93.970861 
L 389.633793 75.664136 
L 394.04717 51.805046 
L 396.31044 40.805976 
L 398.121057 33.045965 
L 399.705346 27.19801 
L 401.063308 22.984299 
L 402.270386 19.914204 
L 403.3643 17.71414 
L 404.307329 16.279631 
L 405.174916 15.347654 
L 405.92934 14.844125 
L 406.608321 14.637194 
L 407.287302 14.664404 
L 407.966283 14.92565 
L 408.682985 15.454179 
L 409.47513 16.337624 
L 410.342717 17.660342 
L 411.323467 19.592311 
L 412.417381 22.27532 
L 413.624459 25.850637 
L 414.982421 30.590576 
L 416.528989 36.823495 
L 418.339606 45.087146 
L 420.565155 56.350186 
L 423.922339 74.65597 
L 428.335717 98.516531 
L 430.598987 109.517488 
L 432.409603 117.279496 
L 433.993893 123.129508 
L 435.351855 127.345179 
L 436.558932 130.417142 
L 437.652846 132.618982 
L 438.595876 134.05507 
L 439.463463 134.98853 
L 440.217886 135.493364 
L 440.896867 135.701477 
L 441.575848 135.67545 
L 442.25483 135.415384 
L 442.971532 134.888092 
L 443.763676 134.006 
L 444.631263 132.684735 
L 445.612014 130.754363 
L 446.705928 128.073063 
L 447.913006 124.499524 
L 449.270968 119.761422 
L 450.817536 113.530353 
L 452.628152 105.268488 
L 454.853701 94.007021 
L 458.210886 75.702179 
L 462.624263 51.840149 
L 464.887534 40.837307 
L 466.69815 33.073303 
L 468.282439 27.221234 
L 469.640401 23.003603 
L 470.847479 19.929773 
L 471.941393 17.726158 
L 472.884422 16.288489 
L 473.752009 15.353547 
L 474.506433 14.847408 
L 475.185414 14.638114 
L 475.864395 14.662958 
L 476.543376 14.921844 
L 477.260079 15.447898 
L 478.052223 16.328638 
L 478.91981 17.64845 
L 479.900561 19.577224 
L 480.994475 22.256815 
L 482.201552 25.828576 
L 483.559515 30.56484 
L 485.106083 36.794059 
L 486.916699 45.054135 
L 489.142248 56.314029 
L 492.461711 74.408695 
L 496.91281 98.481424 
L 499.17608 109.48615 
L 500.986697 117.25215 
L 502.570986 123.106276 
L 503.928948 127.325865 
L 505.136026 130.401563 
L 506.22994 132.606953 
L 507.172969 134.046201 
L 508.040556 134.982626 
L 508.79498 135.49007 
L 509.473961 135.700545 
L 510.152942 135.676884 
L 510.831923 135.419178 
L 511.548625 134.894362 
L 512.34077 134.014974 
L 513.208357 132.696616 
L 514.189107 130.76944 
L 515.283021 128.091558 
L 516.490099 124.521575 
L 517.848061 119.78715 
L 519.394629 113.55978 
L 521.205246 105.301493 
L 523.430795 94.043174 
L 526.750258 75.949454 
L 531.201357 51.875261 
L 533.464627 40.868652 
L 535.275243 33.100657 
L 536.859533 27.244476 
L 538.217495 23.022928 
L 539.424572 19.945363 
L 540.518486 17.738198 
L 541.461516 16.297371 
L 542.329103 15.359463 
L 543.083526 14.850714 
L 543.762507 14.639058 
L 544.441488 14.661536 
L 545.12047 14.918061 
L 545.837172 15.441639 
L 546.629317 16.319675 
L 547.496904 17.63658 
L 548.477654 19.562158 
L 549.571568 22.23833 
L 550.778646 25.806534 
L 552.136608 30.539121 
L 553.683176 36.764639 
L 555.493792 45.021136 
L 557.719342 56.27788 
L 561.038805 74.370654 
L 565.489903 98.446308 
L 567.753174 109.454799 
L 569.56379 117.224788 
L 571.148079 123.083024 
L 572.506042 127.306529 
L 573.713119 130.385961 
L 574.807033 132.594901 
L 575.750062 134.037308 
L 576.617649 134.976698 
L 577.372073 135.486751 
L 578.051054 135.699589 
L 578.730035 135.678294 
L 579.409016 135.422949 
L 580.125719 134.900609 
L 580.917863 134.023925 
L 581.78545 132.708475 
L 582.766201 130.784494 
L 583.860115 128.110033 
L 585.067192 124.543607 
L 586.425155 119.81286 
L 587.971723 113.589193 
L 589.782339 105.334487 
L 592.007888 94.079319 
L 595.327352 75.987495 
L 599.77845 51.910382 
L 602.04172 40.90001 
L 603.852337 33.128027 
L 605.436626 27.267737 
L 606.794588 23.042274 
L 608.001666 19.960975 
L 609.09558 17.750261 
L 610.038609 16.306275 
L 610.906196 15.365402 
L 611.66062 14.854044 
L 612.339601 14.640026 
L 613.018582 14.660138 
L 613.697563 14.914302 
L 614.414265 15.435405 
L 615.20641 16.310736 
L 616.073997 17.624732 
L 617.054747 19.547115 
L 618.148661 22.219866 
L 619.355739 25.784512 
L 620.713701 30.513419 
L 622.260269 36.735234 
L 624.070886 44.988149 
L 626.296435 56.241739 
L 629.615898 74.332613 
L 634.066997 98.411182 
L 636.330267 109.423434 
L 638.140883 117.197409 
L 639.725173 123.059753 
L 641.083135 127.287173 
L 642.290212 130.370338 
L 643.384127 132.582827 
L 644.327156 134.028392 
L 645.194743 134.970747 
L 645.949166 135.483409 
L 646.628147 135.698609 
L 647.307129 135.67968 
L 647.98611 135.426696 
L 648.702812 134.906831 
L 649.494957 134.032853 
L 650.362544 132.720311 
L 651.343294 130.799526 
L 652.437208 128.128486 
L 653.644286 124.56562 
L 655.002248 119.838553 
L 656.548816 113.61859 
L 658.359432 105.367468 
L 660.584982 94.115457 
L 663.904445 76.025536 
L 668.393265 51.75241 
L 670.656535 40.759006 
L 672.467151 33.004991 
L 674.051441 27.163211 
L 675.409403 22.955381 
L 676.61648 19.890892 
L 677.710394 17.696157 
L 678.653424 16.266388 
L 679.521011 15.33886 
L 680.275434 14.839245 
L 680.954415 14.635858 
L 681.633396 14.666618 
L 682.312378 14.931404 
L 683.02908 15.463646 
L 683.821224 16.351146 
L 684.688811 17.678224 
L 685.669562 19.614983 
L 686.763476 22.303118 
L 687.970554 25.883765 
L 689.328516 30.629214 
L 690.875084 36.867676 
L 692.6857 45.136685 
L 694.911249 56.404435 
L 698.268434 74.713035 
L 702.681811 98.569175 
L 704.945082 109.564469 
L 706.755698 117.320483 
L 708.339987 123.164322 
L 709.697949 127.374113 
L 710.905027 130.440471 
L 711.998941 132.636982 
L 712.94197 134.068331 
L 713.809557 134.997342 
L 714.563981 135.498262 
L 715.242962 135.70283 
L 715.921943 135.673254 
L 716.600924 135.409648 
L 717.317627 134.878643 
L 718.109771 133.992495 
L 718.977358 132.66687 
L 719.958109 130.731708 
L 721.052023 128.045281 
L 722.2591 124.46641 
L 723.617062 119.722797 
L 725.163631 113.486183 
L 726.974247 105.218958 
L 729.199796 93.952778 
L 732.556981 75.645115 
L 736.970358 51.787499 
L 739.233628 40.790316 
L 741.044245 33.032303 
L 742.628534 27.186406 
L 743.986496 22.974654 
L 745.193574 19.906428 
L 746.287488 17.70814 
L 747.230517 16.275211 
L 748.098104 15.344717 
L 748.852528 14.842492 
L 749.531509 14.636743 
L 750.21049 14.665136 
L 750.889471 14.927562 
L 751.606173 15.457329 
L 752.398318 16.342126 
L 753.265905 17.666297 
L 754.246655 19.599863 
L 755.340569 22.284581 
L 756.547647 25.861675 
L 757.905609 30.603451 
L 759.452177 36.838218 
L 761.262794 45.103656 
L 763.488343 56.368267 
L 766.845527 74.674991 
L 771.258905 98.534081 
L 773.522175 109.533151 
L 775.332791 117.293162 
L 776.917081 123.141117 
L 778.275043 127.354829 
L 779.48212 130.424924 
L 780.576034 132.624987 
L 781.519064 134.059497 
L 782.386651 134.991474 
L 783.141074 135.495003 
L 783.820055 135.701934 
L 784.499036 135.674724 
L 785.178018 135.413478 
L 785.89472 134.884948 
L 786.686865 134.001504 
L 787.554452 132.678786 
L 788.535202 130.746817 
L 789.629116 128.063807 
L 790.836194 124.488491 
L 792.194156 119.748551 
L 793.740724 113.515633 
L 795.55134 105.251981 
L 797.77689 93.988942 
L 801.134074 75.683158 
L 805.547451 51.822597 
L 807.810722 40.82164 
L 809.621338 33.059632 
L 811.205627 27.20962 
L 812.56359 22.993948 
L 813.770667 19.921986 
L 814.864581 17.720146 
L 815.80761 16.284057 
L 816.675197 15.350597 
L 817.429621 14.845763 
L 818.108602 14.637651 
L 818.37265 14.619936 
L 818.37265 14.619936 
" clip-path="url(#p1d1c775cdd)" style="fill: none; stroke: #ffa231; stroke-width: 4"/>
   </g>
   <g id="patch_3">
    <path d="M 41.316477 139.514517 
L 41.316477 5.413039 
" style="fill: none; stroke: #000000; stroke-width: 2; stroke-linejoin: miter; stroke-linecap: square"/>
   </g>
   <g id="line2d_6">
    <path d="M 63.949181 14.619936 
L 253.799847 14.730383 
L 264.738987 16.004394 
L 274.999146 16.979423 
L 284.957536 17.70694 
L 295.179974 18.227401 
L 305.741903 18.534833 
L 316.945091 18.629613 
L 329.091309 18.504227 
L 343.27447 18.124441 
L 360.814816 17.421129 
L 390.878591 15.952245 
L 432.183276 13.986359 
L 462.963754 12.755679 
L 494.724982 11.711892 
L 528.975807 10.813444 
L 566.282048 10.061652 
L 607.398127 9.45948 
L 631.237909 9.279135 
L 651.682785 10.428945 
L 672.882084 11.39471 
L 695.590231 12.203843 
L 720.901138 12.879942 
L 750.248211 13.436258 
L 785.743835 13.879537 
L 818.37265 14.139577 
L 818.37265 14.139577 
" clip-path="url(#p1d1c775cdd)" style="fill: none; stroke: #4eba88; stroke-width: 4"/>
   </g>
  </g>
 </g>
 <defs>
  <clipPath id="p1d1c775cdd">
   <rect x="41.316477" y="5.413039" width="799.688878" height="134.101477"/>
  </clipPath>
 </defs>
</svg>
