<?xml version="1.0" encoding="utf-8" standalone="no"?>
<!DOCTYPE svg PUBLIC "-//W3C//DTD SVG 1.1//EN"
  "http://www.w3.org/Graphics/SVG/1.1/DTD/svg11.dtd">
<svg xmlns:xlink="http://www.w3.org/1999/xlink" width="843.84pt" height="144pt" viewBox="0 0 843.84 144" xmlns="http://www.w3.org/2000/svg" version="1.1">
 <metadata>
  <rdf:RDF xmlns:dc="http://purl.org/dc/elements/1.1/" xmlns:cc="http://creativecommons.org/ns#" xmlns:rdf="http://www.w3.org/1999/02/22-rdf-syntax-ns#">
   <cc:Work>
    <dc:type rdf:resource="http://purl.org/dc/dcmitype/StillImage"/>
    <dc:date>2024-05-07T19:10:03.152962</dc:date>
    <dc:format>image/svg+xml</dc:format>
    <dc:creator>
     <cc:Agent>
      <dc:title>Matplotlib v3.7.0, https://matplotlib.org/</dc:title>
     </cc:Agent>
    </dc:creator>
   </cc:Work>
  </rdf:RDF>
 </metadata>
 <defs>
  <style type="text/css">*{stroke-linejoin: round; stroke-linecap: butt}</style>
 </defs>
 <g id="figure_1">
  <g id="patch_1">
   <path d="M 0 144 
L 843.84 144 
L 843.84 0 
L 0 0 
L 0 144 
z
" style="fill: none"/>
  </g>
  <g id="axes_1">
   <g id="patch_2">
    <path d="M 41.316477 110.305354 
L 834.471983 110.305354 
L 834.471983 2.834646 
L 41.316477 2.834646 
L 41.316477 110.305354 
z
" style="fill: none"/>
   </g>
   <g id="line2d_1">
    <path d="M 63.764274 33.222536 
L 64.475121 33.338714 
L 65.185968 33.681914 
L 65.971641 34.314682 
L 66.869553 35.346982 
L 67.879704 36.87609 
L 69.039506 39.069522 
L 70.348961 42.042798 
L 71.920307 46.195309 
L 73.865783 52.017083 
L 76.559519 60.855562 
L 82.957141 82.076535 
L 85.276747 88.869605 
L 87.259635 94.008913 
L 88.980633 97.883996 
L 90.551979 100.895109 
L 91.973673 103.152044 
L 93.245715 104.772603 
L 94.405517 105.90715 
L 95.490494 106.66264 
L 96.500645 107.094506 
L 97.43597 107.25826 
L 98.371295 107.194497 
L 99.30662 106.904768 
L 100.279358 106.367575 
L 101.326922 105.527096 
L 102.449311 104.336702 
L 103.721353 102.644912 
L 105.105634 100.421305 
L 106.67698 97.464165 
L 108.510217 93.516087 
L 110.717583 88.199749 
L 113.67321 80.444111 
L 122.016308 58.21973 
L 124.560392 52.251485 
L 126.767759 47.621633 
L 128.750647 43.962159 
L 130.583884 41.034581 
L 132.267469 38.749751 
L 133.838815 36.974334 
L 135.335335 35.606586 
L 136.757028 34.598239 
L 138.141309 33.88555 
L 139.488177 33.442013 
L 140.797632 33.240988 
L 141.807783 33.27607 
L 142.51863 33.55579 
L 143.26689 34.099862 
L 144.089976 34.980087 
L 145.0253 36.316957 
L 146.110277 38.280631 
L 147.344906 40.997412 
L 148.804013 44.774392 
L 150.562424 49.975227 
L 152.882029 57.579204 
L 161.150302 85.326685 
L 163.245429 91.259483 
L 165.078666 95.80385 
L 166.724838 99.304116 
L 168.183945 101.910592 
L 169.530813 103.879723 
L 170.765441 105.301184 
L 171.887831 106.265091 
L 172.935395 106.876077 
L 173.908133 107.189896 
L 174.843458 107.25936 
L 175.778783 107.10073 
L 176.714108 106.715461 
L 177.724259 106.0487 
L 178.809235 105.050203 
L 179.969038 103.672412 
L 181.278493 101.753697 
L 182.7376 99.19923 
L 184.383772 95.851095 
L 186.329248 91.362034 
L 188.723679 85.241971 
L 192.35274 75.269958 
L 197.627972 60.849009 
L 200.321708 54.144013 
L 202.603901 49.038408 
L 204.624202 45.044594 
L 206.457439 41.892677 
L 208.178437 39.366755 
L 209.749783 37.438396 
L 211.246303 35.941851 
L 212.667996 34.827581 
L 214.014864 34.045794 
L 215.324319 33.536889 
L 216.596361 33.274153 
L 217.756164 33.242802 
L 218.429598 33.449265 
L 219.140445 33.901971 
L 219.926118 34.670717 
L 220.824029 35.875116 
L 221.83418 37.615247 
L 222.993983 40.06763 
L 224.378264 43.547397 
L 226.024436 48.324659 
L 228.119564 55.131344 
L 231.711211 67.705662 
L 235.452511 80.525352 
L 237.772116 87.698673 
L 239.717592 93.027257 
L 241.43859 97.12245 
L 243.009936 100.302722 
L 244.43163 102.69114 
L 245.703671 104.417566 
L 246.900887 105.677483 
L 247.985864 106.50683 
L 248.996015 107.007581 
L 249.93134 107.235351 
L 250.829252 107.232633 
L 251.614925 107.000418 
L 252.400598 106.523768 
L 253.261097 105.732776 
L 254.271247 104.485894 
L 255.43105 102.685729 
L 256.740505 100.22523 
L 258.162199 97.060682 
L 259.733545 92.98895 
L 261.566782 87.57755 
L 264.148278 79.178937 
L 270.246597 59.154763 
L 272.79068 51.629122 
L 274.773569 46.426355 
L 276.457154 42.615244 
L 277.953674 39.754356 
L 279.375367 37.50652 
L 280.684822 35.84028 
L 281.882038 34.666737 
L 282.967015 33.905286 
L 284.014579 33.43913 
L 285.02473 33.236814 
L 285.810403 33.286513 
L 286.409011 33.58052 
L 287.045032 34.146669 
L 287.793291 35.133396 
L 288.65379 36.672091 
L 289.626528 38.890657 
L 290.786331 42.127163 
L 292.170612 46.699509 
L 293.89161 53.204656 
L 296.435693 63.794531 
L 300.813014 82.012133 
L 302.833316 89.4182 
L 304.5169 94.778541 
L 305.976007 98.721495 
L 307.285462 101.653424 
L 308.482678 103.806804 
L 309.567655 105.312189 
L 310.540393 106.297578 
L 311.438305 106.901526 
L 312.261391 107.199263 
L 313.047063 107.257861 
L 313.832736 107.099484 
L 314.655822 106.705243 
L 315.553734 106.014945 
L 316.526472 104.969717 
L 317.611449 103.452777 
L 318.808665 101.370439 
L 320.155533 98.549785 
L 321.652052 94.877266 
L 323.410463 89.936904 
L 325.543004 83.235797 
L 328.685696 72.532291 
L 333.175255 57.338092 
L 335.420035 50.539795 
L 337.290685 45.557145 
L 338.899443 41.868509 
L 340.35855 39.052272 
L 341.668005 36.980888 
L 342.865221 35.478458 
L 343.987611 34.415868 
L 345.035175 33.727923 
L 346.007913 33.350739 
L 346.943237 33.222959 
L 347.504432 33.314353 
L 348.10304 33.658519 
L 348.739061 34.293714 
L 349.487321 35.378861 
L 350.34782 37.048208 
L 351.357971 39.530171 
L 352.555187 43.108347 
L 354.014294 48.22941 
L 355.922356 55.82113 
L 360.000373 73.29449 
L 362.58187 83.728896 
L 364.489932 90.545131 
L 366.098691 95.508325 
L 367.520385 99.215483 
L 368.792427 101.954738 
L 369.95223 103.960205 
L 371.037207 105.405429 
L 372.009944 106.346937 
L 372.907856 106.921405 
L 373.768355 107.210554 
L 374.591441 107.252524 
L 375.414527 107.070643 
L 376.275026 106.647998 
L 377.210351 105.928285 
L 378.220502 104.859046 
L 379.342892 103.333406 
L 380.57752 101.270083 
L 381.961801 98.513538 
L 383.533147 94.87177 
L 385.328971 90.128208 
L 387.461512 83.842067 
L 390.379725 74.482729 
L 396.103914 56.004892 
L 398.348693 49.594574 
L 400.219343 44.900514 
L 401.865515 41.351098 
L 403.324622 38.708284 
L 404.67149 36.714598 
L 405.906118 35.276352 
L 407.028508 34.297741 
L 408.076072 33.6685 
L 409.086223 33.320605 
L 410.058961 33.224564 
L 410.620156 33.364683 
L 411.218764 33.75101 
L 411.892198 34.465448 
L 412.677871 35.652425 
L 413.575783 37.440084 
L 414.623346 40.047668 
L 415.857975 43.741424 
L 417.391908 49.076895 
L 419.449623 57.11856 
L 426.483266 85.319629 
L 428.353916 91.555688 
L 429.962675 96.177207 
L 431.384368 99.626687 
L 432.693823 102.246866 
L 433.891039 104.162406 
L 434.976016 105.498907 
L 435.986167 106.403069 
L 436.921492 106.951235 
L 437.819404 107.220607 
L 438.679903 107.247782 
L 439.540401 107.054673 
L 440.438313 106.625226 
L 441.411051 105.906356 
L 442.458615 104.849219 
L 443.618418 103.353212 
L 444.89046 101.341993 
L 446.312154 98.668296 
L 447.920912 95.149311 
L 449.754149 90.576644 
L 451.88669 84.633488 
L 454.692665 76.099482 
L 461.50183 55.11863 
L 463.74661 49.073445 
L 465.617259 44.642406 
L 467.300844 41.208422 
L 468.797364 38.639947 
L 470.181645 36.693473 
L 471.453687 35.280938 
L 472.61349 34.312397 
L 473.698466 33.683621 
L 474.74603 33.330047 
L 475.756181 33.222781 
L 476.354789 33.352171 
L 476.953397 33.712825 
L 477.626831 34.383084 
L 478.412504 35.499517 
L 479.310416 37.184149 
L 480.35798 39.646016 
L 481.592608 43.140951 
L 483.126541 48.204185 
L 485.10943 55.580563 
L 489.711229 73.911834 
L 492.292725 83.55419 
L 494.275614 90.134136 
L 495.959199 94.992172 
L 497.455719 98.675166 
L 498.839999 101.513535 
L 500.074628 103.568551 
L 501.234431 105.084269 
L 502.281995 106.107911 
L 503.254733 106.767376 
L 504.190058 107.14091 
L 505.08797 107.263563 
L 505.985882 107.160098 
L 506.921206 106.817879 
L 507.893944 106.215466 
L 508.941508 105.294934 
L 510.063898 104.007886 
L 511.298527 102.249114 
L 512.682808 99.873613 
L 514.216741 96.778519 
L 515.937738 92.782909 
L 517.920627 87.591246 
L 520.389885 80.455818 
L 524.916857 66.513903 
L 528.32144 56.402402 
L 530.641046 50.17932 
L 532.623934 45.475683 
L 534.344932 41.939415 
L 535.916278 39.200712 
L 537.337972 37.151305 
L 538.647427 35.637258 
L 539.844643 34.572754 
L 540.967032 33.854427 
L 542.052009 33.417088 
L 543.099573 33.232724 
L 543.885246 33.294379 
L 544.483854 33.586339 
L 545.157288 34.172883 
L 545.905548 35.128517 
L 546.766047 36.596277 
L 547.776198 38.777584 
L 548.973413 41.92552 
L 550.395107 46.321352 
L 552.190931 52.637718 
L 554.92208 63.165775 
L 559.374226 80.284423 
L 561.54418 87.705925 
L 563.340004 93.100848 
L 564.948763 97.260957 
L 566.407869 100.436153 
L 567.717324 102.778983 
L 568.91454 104.492169 
L 570.03693 105.723498 
L 571.084494 106.546269 
L 572.057232 107.030541 
L 572.992557 107.245582 
L 573.890469 107.224738 
L 574.78838 106.985585 
L 575.723705 106.509482 
L 576.733856 105.741839 
L 577.818833 104.633028 
L 579.016049 103.080174 
L 580.325504 101.003719 
L 581.784611 98.251687 
L 583.393369 94.725186 
L 585.226606 90.15375 
L 587.433973 84.023485 
L 590.539252 74.673462 
L 596.226027 57.495808 
L 598.620459 51.020139 
L 600.64076 46.170381 
L 602.399171 42.497605 
L 604.00793 39.634414 
L 605.467037 37.475881 
L 606.813905 35.868427 
L 608.048533 34.726903 
L 609.208336 33.946645 
L 610.293313 33.47302 
L 611.340877 33.249256 
L 612.238789 33.27009 
L 612.837397 33.526731 
L 613.510831 34.071776 
L 614.259091 34.979743 
L 615.11959 36.391555 
L 616.12974 38.506954 
L 617.289543 41.474053 
L 618.711237 45.767173 
L 620.469648 51.836777 
L 623.013732 61.507028 
L 628.101899 80.96439 
L 630.23444 88.169766 
L 632.030264 93.496552 
L 633.639022 97.596046 
L 635.060716 100.6433 
L 636.370171 102.949483 
L 637.567387 104.628199 
L 638.652364 105.792051 
L 639.662515 106.570685 
L 640.635253 107.04498 
L 641.533164 107.246078 
L 642.431076 107.22377 
L 643.328988 106.982462 
L 644.264313 106.50354 
L 645.274464 105.732409 
L 646.359441 104.619636 
L 647.556657 103.062647 
L 648.866112 100.982947 
L 650.325218 98.230927 
L 651.97139 94.624755 
L 653.84204 89.969433 
L 656.124233 83.665221 
L 659.528815 73.525682 
L 664.429918 59.011392 
L 666.936588 52.30181 
L 669.031716 47.309146 
L 670.864953 43.490706 
L 672.548538 40.483852 
L 674.082471 38.185625 
L 675.504164 36.443231 
L 676.813619 35.172713 
L 678.048248 34.268545 
L 679.245464 33.661587 
L 680.405267 33.322707 
L 681.527657 33.223317 
L 682.163678 33.35816 
L 682.837112 33.747574 
L 683.547958 34.422973 
L 684.371044 35.526866 
L 685.306369 37.17243 
L 686.391346 39.555407 
L 687.663388 42.917561 
L 689.197321 47.644922 
L 691.142797 54.419076 
L 694.285488 66.30507 
L 698.101614 80.522784 
L 700.308981 87.893018 
L 702.142217 93.27474 
L 703.750976 97.345815 
L 705.210083 100.46285 
L 706.556951 102.830046 
L 707.79158 104.558798 
L 708.913969 105.760469 
L 709.961533 106.564101 
L 710.934271 107.037172 
L 711.869596 107.246586 
L 712.767508 107.224272 
L 713.702833 106.972128 
L 714.675571 106.466834 
L 715.685722 105.685679 
L 716.770699 104.563475 
L 717.967914 102.996285 
L 719.277369 100.904815 
L 720.736476 98.139316 
L 722.382648 94.521246 
L 724.290711 89.764383 
L 726.647729 83.25378 
L 730.389029 72.158078 
L 734.766349 59.352877 
L 737.310433 52.598965 
L 739.405561 47.637845 
L 741.276211 43.756986 
L 742.959795 40.753062 
L 744.531141 38.392064 
L 745.990248 36.594591 
L 747.337116 35.277436 
L 748.609158 34.335088 
L 749.806374 33.713386 
L 750.966176 33.352288 
L 752.125979 33.223065 
L 752.799413 33.321441 
L 753.472847 33.668268 
L 754.183694 34.294794 
L 755.00678 35.337863 
L 755.942105 36.909991 
L 757.027082 39.203852 
L 758.299124 42.459013 
L 759.795643 46.938933 
L 761.666293 53.281524 
L 764.509681 63.817921 
L 769.036653 80.553336 
L 771.24402 87.838809 
L 773.11467 93.270449 
L 774.760842 97.38544 
L 776.219948 100.464313 
L 777.566816 102.808428 
L 778.801445 104.526394 
L 779.923835 105.726538 
L 780.971399 106.535257 
L 781.944137 107.017969 
L 782.879462 107.240351 
L 783.777374 107.23313 
L 784.712698 106.998643 
L 785.685436 106.512928 
L 786.695587 105.752545 
L 787.780564 104.652327 
L 788.97778 103.108292 
L 790.287235 101.040371 
L 791.746342 98.299349 
L 793.392513 94.708824 
L 795.300576 89.986554 
L 797.657595 83.524436 
L 801.398895 72.513368 
L 805.851041 59.581299 
L 808.395125 52.868584 
L 810.527665 47.843495 
L 812.024185 44.706072 
L 812.024185 44.706072 
" clip-path="url(#p1399d0f69d)" style="fill: none; stroke: #009afa; stroke-width: 6"/>
   </g>
   <g id="matplotlib.axis_1">
    <g id="xtick_1">
     <g id="line2d_2">
      <defs>
       <path id="mdf16f80e4c" d="M 0 0 
L 0 -5 
" style="stroke: #000000"/>
      </defs>
      <g>
       <use xlink:href="#mdf16f80e4c" x="63.764274" y="110.305354" style="stroke: #000000"/>
      </g>
     </g>
     <g id="text_1">
      <!-- $0.0$ -->
      <g transform="translate(45.844274 135.080979) scale(0.28 -0.28)">
       <defs>
        <path id="Cmr10-30" d="M 1600 -141 
Q 816 -141 533 504 
Q 250 1150 250 2041 
Q 250 2597 351 3087 
Q 453 3578 754 3920 
Q 1056 4263 1600 4263 
Q 2022 4263 2290 4056 
Q 2559 3850 2700 3523 
Q 2841 3197 2892 2823 
Q 2944 2450 2944 2041 
Q 2944 1491 2842 1011 
Q 2741 531 2444 195 
Q 2147 -141 1600 -141 
z
M 1600 25 
Q 1956 25 2131 390 
Q 2306 756 2347 1200 
Q 2388 1644 2388 2144 
Q 2388 2625 2347 3031 
Q 2306 3438 2132 3767 
Q 1959 4097 1600 4097 
Q 1238 4097 1063 3765 
Q 888 3434 847 3029 
Q 806 2625 806 2144 
Q 806 1788 823 1472 
Q 841 1156 916 820 
Q 991 484 1158 254 
Q 1325 25 1600 25 
z
" transform="scale(0.015625)"/>
        <path id="Cmmi10-3a" d="M 538 353 
Q 538 497 644 600 
Q 750 703 891 703 
Q 978 703 1062 656 
Q 1147 609 1194 525 
Q 1241 441 1241 353 
Q 1241 213 1137 106 
Q 1034 0 891 0 
Q 750 0 644 106 
Q 538 213 538 353 
z
" transform="scale(0.015625)"/>
       </defs>
       <use xlink:href="#Cmr10-30" transform="translate(0 0.390625)"/>
       <use xlink:href="#Cmmi10-3a" transform="translate(50 0.390625)"/>
       <use xlink:href="#Cmr10-30" transform="translate(77.685547 0.390625)"/>
      </g>
     </g>
    </g>
    <g id="xtick_2">
     <g id="line2d_3">
      <g>
       <use xlink:href="#mdf16f80e4c" x="250.829252" y="110.305354" style="stroke: #000000"/>
      </g>
     </g>
     <g id="text_2">
      <!-- $2.5$ -->
      <g transform="translate(232.909252 135.080979) scale(0.28 -0.28)">
       <defs>
        <path id="Cmr10-32" d="M 319 0 
L 319 172 
Q 319 188 331 206 
L 1325 1306 
Q 1550 1550 1690 1715 
Q 1831 1881 1968 2097 
Q 2106 2313 2186 2536 
Q 2266 2759 2266 3009 
Q 2266 3272 2169 3511 
Q 2072 3750 1880 3894 
Q 1688 4038 1416 4038 
Q 1138 4038 916 3870 
Q 694 3703 603 3438 
Q 628 3444 672 3444 
Q 816 3444 917 3347 
Q 1019 3250 1019 3097 
Q 1019 2950 917 2848 
Q 816 2747 672 2747 
Q 522 2747 420 2851 
Q 319 2956 319 3097 
Q 319 3338 409 3548 
Q 500 3759 670 3923 
Q 841 4088 1055 4175 
Q 1269 4263 1509 4263 
Q 1875 4263 2190 4108 
Q 2506 3953 2690 3670 
Q 2875 3388 2875 3009 
Q 2875 2731 2753 2481 
Q 2631 2231 2440 2026 
Q 2250 1822 1953 1562 
Q 1656 1303 1563 1216 
L 838 519 
L 1453 519 
Q 1906 519 2211 526 
Q 2516 534 2534 550 
Q 2609 631 2688 1141 
L 2875 1141 
L 2694 0 
L 319 0 
z
" transform="scale(0.015625)"/>
        <path id="Cmr10-35" d="M 556 728 
Q 622 541 758 387 
Q 894 234 1080 148 
Q 1266 63 1466 63 
Q 1928 63 2103 422 
Q 2278 781 2278 1294 
Q 2278 1516 2270 1667 
Q 2263 1819 2228 1959 
Q 2169 2184 2020 2353 
Q 1872 2522 1656 2522 
Q 1441 2522 1286 2456 
Q 1131 2391 1034 2303 
Q 938 2216 863 2119 
Q 788 2022 769 2016 
L 697 2016 
Q 681 2016 657 2036 
Q 634 2056 634 2075 
L 634 4213 
Q 634 4228 654 4245 
Q 675 4263 697 4263 
L 716 4263 
Q 1147 4056 1631 4056 
Q 2106 4056 2547 4263 
L 2566 4263 
Q 2588 4263 2606 4247 
Q 2625 4231 2625 4213 
L 2625 4153 
Q 2625 4122 2613 4122 
Q 2394 3831 2064 3668 
Q 1734 3506 1381 3506 
Q 1125 3506 856 3578 
L 856 2369 
Q 1069 2541 1236 2614 
Q 1403 2688 1663 2688 
Q 2016 2688 2295 2484 
Q 2575 2281 2725 1954 
Q 2875 1628 2875 1288 
Q 2875 903 2686 575 
Q 2497 247 2172 53 
Q 1847 -141 1466 -141 
Q 1150 -141 886 21 
Q 622 184 470 459 
Q 319 734 319 1044 
Q 319 1188 412 1278 
Q 506 1369 647 1369 
Q 788 1369 883 1276 
Q 978 1184 978 1044 
Q 978 906 883 811 
Q 788 716 647 716 
Q 625 716 597 720 
Q 569 725 556 728 
z
" transform="scale(0.015625)"/>
       </defs>
       <use xlink:href="#Cmr10-32" transform="translate(0 0.390625)"/>
       <use xlink:href="#Cmmi10-3a" transform="translate(50 0.390625)"/>
       <use xlink:href="#Cmr10-35" transform="translate(77.685547 0.390625)"/>
      </g>
     </g>
    </g>
    <g id="xtick_3">
     <g id="line2d_4">
      <g>
       <use xlink:href="#mdf16f80e4c" x="437.89423" y="110.305354" style="stroke: #000000"/>
      </g>
     </g>
     <g id="text_3">
      <!-- $5.0$ -->
      <g transform="translate(419.97423 135.080979) scale(0.28 -0.28)">
       <use xlink:href="#Cmr10-35" transform="translate(0 0.390625)"/>
       <use xlink:href="#Cmmi10-3a" transform="translate(50 0.390625)"/>
       <use xlink:href="#Cmr10-30" transform="translate(77.685547 0.390625)"/>
      </g>
     </g>
    </g>
    <g id="xtick_4">
     <g id="line2d_5">
      <g>
       <use xlink:href="#mdf16f80e4c" x="624.959207" y="110.305354" style="stroke: #000000"/>
      </g>
     </g>
     <g id="text_4">
      <!-- $7.5$ -->
      <g transform="translate(607.039207 135.080979) scale(0.28 -0.28)">
       <defs>
        <path id="Cmr10-37" d="M 1113 166 
Q 1113 522 1175 862 
Q 1238 1203 1358 1536 
Q 1478 1869 1648 2189 
Q 1819 2509 2022 2791 
L 2606 3603 
L 1875 3603 
Q 738 3603 703 3572 
Q 619 3469 544 2981 
L 359 2981 
L 569 4325 
L 756 4325 
L 756 4306 
Q 756 4191 1147 4156 
Q 1538 4122 1913 4122 
L 3103 4122 
L 3103 3956 
Q 3103 3950 3101 3947 
Q 3100 3944 3097 3938 
L 2216 2700 
Q 1891 2219 1809 1631 
Q 1728 1044 1728 166 
Q 1728 41 1637 -50 
Q 1547 -141 1422 -141 
Q 1294 -141 1203 -50 
Q 1113 41 1113 166 
z
" transform="scale(0.015625)"/>
       </defs>
       <use xlink:href="#Cmr10-37" transform="translate(0 0.421875)"/>
       <use xlink:href="#Cmmi10-3a" transform="translate(50 0.421875)"/>
       <use xlink:href="#Cmr10-35" transform="translate(77.685547 0.421875)"/>
      </g>
     </g>
    </g>
    <g id="xtick_5">
     <g id="line2d_6">
      <g>
       <use xlink:href="#mdf16f80e4c" x="812.024185" y="110.305354" style="stroke: #000000"/>
      </g>
     </g>
     <g id="text_5">
      <!-- $10.0$ -->
      <g transform="translate(787.104185 135.080979) scale(0.28 -0.28)">
       <defs>
        <path id="Cmr10-31" d="M 594 0 
L 594 225 
Q 1394 225 1394 428 
L 1394 3788 
Q 1063 3628 556 3628 
L 556 3853 
Q 1341 3853 1741 4263 
L 1831 4263 
Q 1853 4263 1873 4245 
Q 1894 4228 1894 4206 
L 1894 428 
Q 1894 225 2694 225 
L 2694 0 
L 594 0 
z
" transform="scale(0.015625)"/>
       </defs>
       <use xlink:href="#Cmr10-31" transform="translate(0 0.390625)"/>
       <use xlink:href="#Cmr10-30" transform="translate(50 0.390625)"/>
       <use xlink:href="#Cmmi10-3a" transform="translate(100 0.390625)"/>
       <use xlink:href="#Cmr10-30" transform="translate(127.685547 0.390625)"/>
      </g>
     </g>
    </g>
   </g>
   <g id="matplotlib.axis_2">
    <g id="ytick_1">
     <g id="line2d_7">
      <defs>
       <path id="me0bb5d01b1" d="M 0 0 
L 5 0 
" style="stroke: #000000"/>
      </defs>
      <g>
       <use xlink:href="#me0bb5d01b1" x="41.316477" y="107.263731" style="stroke: #000000"/>
      </g>
     </g>
     <g id="text_6">
      <!-- $-1$ -->
      <g transform="translate(1.976477 117.901543) scale(0.28 -0.28)">
       <defs>
        <path id="Cmsy10-a1" d="M 653 1472 
Q 600 1472 565 1512 
Q 531 1553 531 1600 
Q 531 1647 565 1687 
Q 600 1728 653 1728 
L 4325 1728 
Q 4375 1728 4408 1687 
Q 4441 1647 4441 1600 
Q 4441 1553 4408 1512 
Q 4375 1472 4325 1472 
L 653 1472 
z
" transform="scale(0.015625)"/>
       </defs>
       <use xlink:href="#Cmsy10-a1" transform="translate(0 0.390625)"/>
       <use xlink:href="#Cmr10-31" transform="translate(77.685547 0.390625)"/>
      </g>
     </g>
    </g>
    <g id="ytick_2">
     <g id="line2d_8">
      <g>
       <use xlink:href="#me0bb5d01b1" x="41.316477" y="70.243133" style="stroke: #000000"/>
      </g>
     </g>
     <g id="text_7">
      <!-- $0$ -->
      <g transform="translate(23.816477 80.880946) scale(0.28 -0.28)">
       <use xlink:href="#Cmr10-30" transform="translate(0 0.390625)"/>
      </g>
     </g>
    </g>
    <g id="ytick_3">
     <g id="line2d_9">
      <g>
       <use xlink:href="#me0bb5d01b1" x="41.316477" y="33.222536" style="stroke: #000000"/>
      </g>
     </g>
     <g id="text_8">
      <!-- $1$ -->
      <g transform="translate(23.816477 43.860348) scale(0.28 -0.28)">
       <use xlink:href="#Cmr10-31" transform="translate(0 0.390625)"/>
      </g>
     </g>
    </g>
   </g>
   <g id="line2d_10">
    <path d="M 63.764274 33.222536 
L 64.58736 33.329474 
L 65.447859 33.669269 
L 66.345771 34.269997 
L 67.318509 35.199695 
L 68.366073 36.516812 
L 69.525875 38.342484 
L 70.83533 40.842065 
L 72.294437 44.131491 
L 73.978022 48.511209 
L 75.960911 54.333354 
L 78.504994 62.553702 
L 86.511375 88.967888 
L 88.494264 94.471283 
L 90.177849 98.514313 
L 91.636956 101.469459 
L 92.946411 103.640671 
L 94.106213 105.157075 
L 95.153777 106.183049 
L 96.126515 106.83483 
L 97.024427 107.174539 
L 97.884926 107.26186 
L 98.708012 107.126659 
L 99.568511 106.757507 
L 100.466423 106.126548 
L 101.439161 105.164803 
L 102.524137 103.760153 
L 103.721353 101.820529 
L 105.030808 99.258341 
L 106.527328 95.813472 
L 108.210913 91.358555 
L 110.231215 85.350333 
L 112.887537 76.688236 
L 120.108245 52.755855 
L 122.16596 46.906171 
L 123.886958 42.651196 
L 125.383478 39.51342 
L 126.730346 37.189173 
L 127.927561 35.551155 
L 129.012538 34.432336 
L 129.985276 33.734525 
L 130.883188 33.351724 
L 131.743687 33.222844 
L 132.566773 33.318298 
L 133.427272 33.646156 
L 134.325184 34.234586 
L 135.297922 35.151237 
L 136.345485 36.454745 
L 137.505288 38.266031 
L 138.814743 40.750432 
L 140.27385 44.02453 
L 141.920022 48.285854 
L 143.865498 53.966767 
L 146.334755 61.906497 
L 154.790092 89.715095 
L 156.735568 95.02915 
L 158.38174 98.908341 
L 159.840847 101.796221 
L 161.112889 103.848513 
L 162.272691 105.316461 
L 163.320255 106.297081 
L 164.25558 106.887816 
L 165.153492 107.197799 
L 166.013991 107.25648 
L 166.837077 107.093914 
L 167.697576 106.696357 
L 168.595488 106.036173 
L 169.568226 105.043474 
L 170.653202 103.605465 
L 171.850418 101.630845 
L 173.197286 98.952449 
L 174.693806 95.458022 
L 176.414804 90.84934 
L 178.472518 84.667779 
L 181.203667 75.701067 
L 187.825767 53.685314 
L 189.958308 47.525388 
L 191.716719 43.097582 
L 193.250652 39.814964 
L 194.59752 37.433551 
L 195.794735 35.741519 
L 196.879712 34.571722 
L 197.85245 33.827003 
L 198.750362 33.40023 
L 199.610861 33.228895 
L 200.433947 33.2837 
L 201.294446 33.569278 
L 202.192358 34.114111 
L 203.127683 34.94569 
L 204.175246 36.189271 
L 205.335049 37.937128 
L 206.607091 40.279174 
L 208.028785 43.384004 
L 209.637544 47.451996 
L 211.545607 52.920092 
L 213.902625 60.395892 
L 218.092881 74.594438 
L 221.46005 85.63647 
L 223.667417 92.134812 
L 225.463241 96.763764 
L 227.034587 100.220746 
L 228.418868 102.745969 
L 229.653496 104.55155 
L 230.738473 105.77098 
L 231.748624 106.586021 
L 232.683949 107.058897 
L 233.544448 107.251447 
L 234.367534 107.216972 
L 235.228033 106.952556 
L 236.125945 106.429564 
L 237.061269 105.620315 
L 238.108833 104.401029 
L 239.231223 102.740399 
L 240.503265 100.437606 
L 241.924959 97.372862 
L 243.533718 93.344578 
L 245.404368 88.026961 
L 247.723973 80.716655 
L 251.540099 67.814133 
L 255.281398 55.444475 
L 257.526178 48.775683 
L 259.359415 43.999909 
L 260.930761 40.499252 
L 262.315041 37.93145 
L 263.54967 36.085237 
L 264.67206 34.791408 
L 265.682211 33.952142 
L 266.617536 33.456431 
L 267.478035 33.242675 
L 268.301121 33.256819 
L 269.16162 33.500059 
L 270.059532 34.001182 
L 270.994856 34.788059 
L 272.005007 35.934716 
L 273.127397 37.558313 
L 274.362026 39.748868 
L 275.746307 42.674471 
L 277.317653 46.537948 
L 279.150889 51.66908 
L 281.395669 58.65944 
L 284.762839 69.975637 
L 289.177572 84.678489 
L 291.422352 91.387204 
L 293.255589 96.205956 
L 294.826935 99.749887 
L 296.211215 102.359976 
L 297.445844 104.246611 
L 298.568234 105.578942 
L 299.578385 106.453935 
L 300.51371 106.983357 
L 301.374209 107.228439 
L 302.234708 107.239991 
L 303.095207 107.017941 
L 303.955706 106.56369 
L 304.89103 105.809959 
L 305.901181 104.698157 
L 307.023571 103.111778 
L 308.2582 100.959868 
L 309.642481 98.074136 
L 311.213827 94.250694 
L 313.00965 89.268041 
L 315.217017 82.443598 
L 318.397122 71.801141 
L 323.223398 55.700751 
L 325.468178 49.003698 
L 327.301415 44.19753 
L 328.872761 40.666285 
L 330.257041 38.068603 
L 331.49167 36.193834 
L 332.61406 34.872812 
L 333.624211 34.008317 
L 334.559536 33.488803 
L 335.420035 33.252933 
L 336.280534 33.250622 
L 337.141033 33.481887 
L 338.001532 33.945266 
L 338.936856 34.708755 
L 339.947007 35.830822 
L 341.069397 37.428166 
L 342.304026 39.591468 
L 343.688307 42.488961 
L 345.259653 46.324224 
L 347.055476 51.318089 
L 349.262843 58.152535 
L 352.480361 68.929178 
L 357.231811 84.774819 
L 359.476591 91.473041 
L 361.309828 96.280469 
L 362.881174 99.812985 
L 364.265454 102.411909 
L 365.500083 104.287865 
L 366.622473 105.610019 
L 367.632624 106.475564 
L 368.567949 106.996069 
L 369.428448 107.23286 
L 370.288947 107.236095 
L 371.149446 107.005752 
L 372.009944 106.543286 
L 372.945269 105.780772 
L 373.95542 104.659731 
L 375.07781 103.063483 
L 376.312439 100.901319 
L 377.69672 98.005 
L 379.268066 94.170918 
L 381.063889 89.178172 
L 383.271256 82.344723 
L 386.488774 71.568711 
L 391.240224 55.722145 
L 393.485004 49.022754 
L 395.318241 44.214066 
L 396.889587 40.68028 
L 398.273867 38.080115 
L 399.508496 36.202972 
L 400.630886 34.879686 
L 401.641037 34.013091 
L 402.576362 33.491595 
L 403.436861 33.253882 
L 404.29736 33.249724 
L 405.157859 33.479145 
L 406.018357 33.940699 
L 406.953682 34.702237 
L 407.963833 35.822252 
L 409.086223 37.417404 
L 410.320852 39.578429 
L 411.705133 42.473573 
L 413.276479 46.306474 
L 415.072302 51.298101 
L 417.279669 58.130552 
L 420.497187 68.905932 
L 425.248637 84.753422 
L 427.493417 91.453981 
L 429.326654 96.263929 
L 430.897999 99.798984 
L 432.28228 102.400391 
L 433.516909 104.278721 
L 434.639299 105.603137 
L 435.64945 106.470783 
L 436.584775 106.993269 
L 437.445274 107.231903 
L 438.305773 107.236986 
L 439.166272 107.008486 
L 440.02677 106.547845 
L 440.962095 105.787282 
L 441.972246 104.668294 
L 443.094636 103.074238 
L 444.329265 100.914351 
L 445.713546 98.020383 
L 447.284892 94.188663 
L 449.080715 89.198156 
L 451.288082 82.366704 
L 454.5056 71.591957 
L 459.25705 55.743544 
L 461.50183 49.041818 
L 463.335067 44.230611 
L 464.906412 40.694287 
L 466.290693 38.091639 
L 467.525322 36.212122 
L 468.647712 34.886575 
L 469.657863 34.017879 
L 470.593188 33.494402 
L 471.453687 33.254847 
L 472.314186 33.24884 
L 473.174684 33.476419 
L 474.035183 33.936147 
L 474.970508 34.695734 
L 475.980659 35.813696 
L 477.103049 37.406656 
L 478.337678 39.565403 
L 479.721959 42.458196 
L 481.293305 46.288735 
L 483.089128 51.278121 
L 485.296495 58.108574 
L 488.514013 68.882687 
L 493.265463 84.73202 
L 495.510243 91.434912 
L 497.34348 96.247378 
L 498.914825 99.784971 
L 500.299106 102.38886 
L 501.533735 104.269563 
L 502.656125 105.596242 
L 503.666276 106.465987 
L 504.601601 106.990455 
L 505.4621 107.230932 
L 506.322599 107.237863 
L 507.183097 107.011205 
L 508.043596 106.55239 
L 508.978921 105.793779 
L 509.989072 104.676843 
L 511.111462 103.08498 
L 512.346091 100.927371 
L 513.730372 98.035755 
L 515.301717 94.206398 
L 517.097541 89.218133 
L 519.304908 82.388679 
L 522.522426 71.615202 
L 527.273876 55.764949 
L 529.518656 49.060891 
L 531.351893 44.247167 
L 532.923238 40.708306 
L 534.307519 38.103177 
L 535.542148 36.221286 
L 536.664538 34.893477 
L 537.674689 34.022682 
L 538.610014 33.497223 
L 539.470513 33.255826 
L 540.331011 33.24797 
L 541.19151 33.473706 
L 542.052009 33.931609 
L 542.987334 34.689244 
L 543.997485 35.805153 
L 545.119875 37.39592 
L 546.354504 39.552389 
L 547.738785 42.44283 
L 549.31013 46.271004 
L 551.105954 51.258148 
L 553.313321 58.086601 
L 556.530839 68.859442 
L 561.282289 84.710612 
L 563.527069 91.415835 
L 565.360306 96.230817 
L 566.931651 99.770946 
L 568.315932 102.377316 
L 569.550561 104.260393 
L 570.672951 105.589333 
L 571.683102 106.461177 
L 572.618427 106.987627 
L 573.478926 107.229945 
L 574.339424 107.238725 
L 575.199923 107.01391 
L 576.060422 106.556921 
L 576.995747 105.800262 
L 578.005898 104.685379 
L 579.128288 103.095709 
L 580.362917 100.940379 
L 581.747198 98.051115 
L 583.318543 94.224123 
L 585.114367 89.238102 
L 587.321734 82.41065 
L 590.539252 71.638446 
L 595.328115 55.668671 
L 597.572895 48.97513 
L 599.406131 44.172746 
L 600.977477 40.645314 
L 602.361758 38.051358 
L 603.596387 36.180154 
L 604.718777 34.862526 
L 605.728928 34.001182 
L 606.664253 33.484642 
L 607.524752 33.251536 
L 608.38525 33.251998 
L 609.245749 33.486026 
L 610.106248 33.952142 
L 611.041573 34.718557 
L 612.051724 35.843702 
L 613.174114 37.444332 
L 614.408743 39.611048 
L 615.793024 42.512064 
L 617.364369 46.350865 
L 619.160193 51.348085 
L 621.36756 58.185518 
L 624.585077 68.964048 
L 629.299115 84.689198 
L 631.543895 91.39675 
L 633.377131 96.214246 
L 634.948477 99.75691 
L 636.332758 102.365759 
L 637.567387 104.251208 
L 638.689777 105.582409 
L 639.699928 106.456353 
L 640.635253 106.984784 
L 641.495751 107.228945 
L 642.35625 107.239572 
L 643.216749 107.016601 
L 644.077248 106.561437 
L 645.012573 105.80673 
L 646.022724 104.693901 
L 647.145114 103.106425 
L 648.379743 100.953375 
L 649.764024 98.066465 
L 651.335369 94.241839 
L 653.131193 89.258063 
L 655.33856 82.432616 
L 658.518664 71.789521 
L 663.344941 55.690056 
L 665.589721 48.994173 
L 667.422957 44.189266 
L 668.994303 40.659292 
L 670.378584 38.062851 
L 671.613213 36.189271 
L 672.735603 34.86938 
L 673.745754 34.005935 
L 674.681079 33.487413 
L 675.541577 33.252463 
L 676.402076 33.251077 
L 677.262575 33.483263 
L 678.123074 33.947554 
L 679.058399 34.712019 
L 680.06855 35.835112 
L 681.19094 37.433551 
L 682.425569 39.597991 
L 683.809849 42.496659 
L 685.381195 46.333102 
L 687.177019 51.328086 
L 689.384386 58.163528 
L 692.601903 68.940801 
L 697.353354 84.785515 
L 699.598134 91.482568 
L 701.43137 96.288736 
L 703.002716 99.819981 
L 704.386997 102.417663 
L 705.621626 104.292432 
L 706.744016 105.613454 
L 707.754167 106.477949 
L 708.689492 106.997463 
L 709.54999 107.233333 
L 710.410489 107.235644 
L 711.270988 107.004379 
L 712.131487 106.541 
L 713.066812 105.777511 
L 714.076963 104.655444 
L 715.199353 103.058101 
L 716.433982 100.894798 
L 717.818262 97.997305 
L 719.389608 94.162042 
L 721.185432 89.168177 
L 723.392799 82.333731 
L 726.610316 71.557088 
L 731.361767 55.711447 
L 733.606547 49.013225 
L 735.439783 44.205797 
L 737.011129 40.673281 
L 738.39541 38.074357 
L 739.630039 36.198401 
L 740.752429 34.876247 
L 741.76258 34.010702 
L 742.697904 33.490198 
L 743.558403 33.253406 
L 744.418902 33.250171 
L 745.279401 33.480514 
L 746.1399 33.942981 
L 747.075225 34.705494 
L 748.085376 35.826535 
L 749.207766 37.422783 
L 750.442395 39.584947 
L 751.826675 42.481266 
L 753.398021 46.315348 
L 755.193845 51.308094 
L 757.401212 58.141543 
L 760.618729 68.917555 
L 765.37018 84.764121 
L 767.61496 91.463512 
L 769.448196 96.2722 
L 771.019542 99.805986 
L 772.403823 102.406151 
L 773.638452 104.283294 
L 774.760842 105.60658 
L 775.770993 106.473175 
L 776.706317 106.994671 
L 777.566816 107.232384 
L 778.427315 107.236542 
L 779.287814 107.007121 
L 780.148313 106.545567 
L 781.083638 105.784029 
L 782.093789 104.664014 
L 783.216179 103.068862 
L 784.450808 100.907837 
L 785.835088 98.012693 
L 787.406434 94.179792 
L 789.202258 89.188165 
L 791.409625 82.355714 
L 794.627142 71.580334 
L 799.378593 55.732844 
L 801.623372 49.032285 
L 803.456609 44.222337 
L 805.027955 40.687282 
L 806.412236 38.085875 
L 807.646865 36.207545 
L 808.769255 34.883129 
L 809.779406 34.015483 
L 810.71473 33.492997 
L 811.575229 33.254363 
L 812.024185 33.222536 
L 812.024185 33.222536 
" clip-path="url(#p1399d0f69d)" style="fill: none; stroke: #e36f47; stroke-width: 6"/>
   </g>
   <g id="patch_3">
    <path d="M 41.316477 110.305354 
L 41.316477 2.834646 
" style="fill: none; stroke: #000000; stroke-width: 2; stroke-linejoin: miter; stroke-linecap: square"/>
   </g>
   <g id="patch_4">
    <path d="M 41.316477 110.305354 
L 834.471983 110.305354 
" style="fill: none; stroke: #000000; stroke-width: 2; stroke-linejoin: miter; stroke-linecap: square"/>
   </g>
   <g id="line2d_11">
    <path d="M 63.764274 14.712237 
L 69.114332 18.544075 
L 74.57663 22.183646 
L 80.188579 25.656257 
L 85.95018 28.960597 
L 91.898847 32.11549 
L 98.034578 35.117205 
L 104.394787 37.979536 
L 110.979474 40.697394 
L 117.826053 43.280834 
L 124.934522 45.724348 
L 132.379708 48.046523 
L 140.161611 50.238987 
L 141.321414 50.546661 
L 141.358827 13.546824 
L 141.433653 13.603492 
L 146.746298 17.485465 
L 152.171183 21.175034 
L 157.745719 24.697756 
L 163.469907 28.052041 
L 169.381161 31.256879 
L 175.479479 34.308228 
L 181.764862 37.203458 
L 188.274723 39.95642 
L 195.046475 42.576998 
L 202.080119 45.059127 
L 209.413066 47.410081 
L 217.08273 49.63452 
L 217.45686 49.737305 
L 217.494273 12.738423 
L 217.569099 12.795899 
L 222.844331 16.706462 
L 228.269216 20.450509 
L 233.806339 24.002133 
L 239.493114 27.386225 
L 245.366955 30.621833 
L 251.390447 33.686346 
L 257.638417 36.614871 
L 264.110865 39.401458 
L 270.807791 42.041867 
L 277.766609 44.546323 
L 285.02473 46.921839 
L 285.361447 47.026549 
L 285.39886 10.029159 
L 285.473686 10.089343 
L 290.674092 14.128061 
L 295.986737 17.974081 
L 301.449035 21.653779 
L 307.060984 25.164677 
L 312.822585 28.505448 
L 318.733839 31.675845 
L 324.832157 34.694402 
L 331.154953 37.574857 
L 337.702228 40.311842 
L 344.511393 42.915334 
L 346.98065 43.802434 
L 347.018063 6.803085 
L 347.092889 6.866493 
L 352.21847 11.062441 
L 357.456289 15.063422 
L 362.806348 18.871027 
L 368.306058 22.511453 
L 373.95542 25.982513 
L 379.754435 29.283159 
L 385.703101 32.413402 
L 391.876245 35.409084 
L 398.236454 38.247631 
L 404.821142 40.942904 
L 409.946722 42.882771 
L 409.984135 5.876269 
L 410.058961 5.940604 
L 415.184541 10.197852 
L 420.384948 14.229284 
L 425.697593 18.068367 
L 431.15989 21.741428 
L 436.77184 25.245992 
L 442.533441 28.580737 
L 448.444694 31.745415 
L 454.543013 34.758527 
L 460.865809 37.633786 
L 467.413083 40.365834 
L 474.222248 42.96463 
L 475.718768 43.50478 
L 475.756181 6.510943 
L 475.831007 6.574644 
L 480.956588 10.789914 
L 486.194407 14.809319 
L 491.544465 18.634459 
L 497.006763 22.267667 
L 502.618712 25.734206 
L 508.380313 29.03277 
L 514.32898 32.182147 
L 520.464711 35.178614 
L 526.82492 38.035942 
L 533.409607 40.749047 
L 540.256186 43.327971 
L 543.398877 44.434998 
L 543.43629 7.439532 
L 543.511116 7.502304 
L 548.67411 11.685443 
L 553.911929 15.644305 
L 559.2994 19.437237 
L 564.799111 23.037538 
L 570.448473 26.470342 
L 576.247487 29.734609 
L 582.233567 32.849052 
L 588.406711 35.810236 
L 594.804333 38.631904 
L 601.426433 41.309276 
L 608.310424 43.852413 
L 611.827246 45.06408 
L 611.864659 8.062787 
L 611.939485 8.124937 
L 617.102478 12.266563 
L 622.377711 16.213159 
L 627.765182 19.966573 
L 633.302305 23.552715 
L 638.989081 26.969697 
L 644.825508 30.216744 
L 650.849 33.312589 
L 657.059558 36.254064 
L 663.494593 39.05496 
L 670.154106 41.710771 
L 677.07551 44.231627 
L 681.452831 45.709647 
L 681.490244 8.708519 
L 681.56507 8.770023 
L 686.728063 12.868639 
L 692.003295 16.774251 
L 697.42818 20.513557 
L 702.965303 24.060684 
L 708.652079 27.44049 
L 714.525919 30.672002 
L 720.586824 33.750885 
L 726.834794 36.67424 
L 733.307243 39.455908 
L 740.004169 42.091655 
L 747.000399 44.604512 
L 752.200805 46.325886 
L 752.238218 9.333185 
L 752.313044 9.394064 
L 757.513451 13.479462 
L 762.826096 17.369937 
L 768.25098 21.067584 
L 773.825517 24.598021 
L 779.549705 27.959651 
L 785.423545 31.151967 
L 791.484451 34.193506 
L 797.769834 37.097979 
L 804.279695 39.85973 
L 811.014034 42.474793 
L 812.024185 42.847147 
L 812.024185 42.847147 
" clip-path="url(#p1399d0f69d)" style="fill: none; stroke: #3ea44e; stroke-width: 6"/>
   </g>
  </g>
 </g>
 <defs>
  <clipPath id="p1399d0f69d">
   <rect x="41.316477" y="2.834646" width="793.155506" height="107.470709"/>
  </clipPath>
 </defs>
</svg>
