<?xml version="1.0" encoding="utf-8" standalone="no"?>
<!DOCTYPE svg PUBLIC "-//W3C//DTD SVG 1.1//EN"
  "http://www.w3.org/Graphics/SVG/1.1/DTD/svg11.dtd">
<svg xmlns:xlink="http://www.w3.org/1999/xlink" width="881.28pt" height="144pt" viewBox="0 0 881.28 144" xmlns="http://www.w3.org/2000/svg" version="1.1">
 <metadata>
  <rdf:RDF xmlns:dc="http://purl.org/dc/elements/1.1/" xmlns:cc="http://creativecommons.org/ns#" xmlns:rdf="http://www.w3.org/1999/02/22-rdf-syntax-ns#">
   <cc:Work>
    <dc:type rdf:resource="http://purl.org/dc/dcmitype/StillImage"/>
    <dc:date>2024-08-19T18:57:20.419280</dc:date>
    <dc:format>image/svg+xml</dc:format>
    <dc:creator>
     <cc:Agent>
      <dc:title>Matplotlib v3.8.4, https://matplotlib.org/</dc:title>
     </cc:Agent>
    </dc:creator>
   </cc:Work>
  </rdf:RDF>
 </metadata>
 <defs>
  <style type="text/css">*{stroke-linejoin: round; stroke-linecap: butt}</style>
 </defs>
 <g id="figure_1">
  <g id="patch_1">
   <path d="M 0 144 
L 881.28 144 
L 881.28 0 
L 0 0 
L 0 144 
z
" style="fill: none"/>
  </g>
  <g id="axes_1">
   <g id="patch_2">
    <path d="M 41.316477 127.743467 
L 878.445354 127.743467 
L 878.445354 10.496532 
L 41.316477 10.496532 
L 41.316477 127.743467 
z
" style="fill: none"/>
   </g>
   <g id="line2d_1">
    <path d="M 65.008803 13.814842 
L 65.5353 13.923974 
L 66.088121 14.272988 
L 66.693591 14.928974 
L 67.378036 16.010863 
L 68.16778 17.698759 
L 69.062824 20.162693 
L 70.089491 23.674562 
L 71.274108 28.570347 
L 72.642998 35.229802 
L 74.275136 44.335808 
L 76.407445 57.592748 
L 82.830698 98.403783 
L 84.489161 107.080436 
L 85.858051 113.134759 
L 87.042667 117.428327 
L 88.069335 120.367411 
L 88.964378 122.299389 
L 89.727798 123.464906 
L 90.385918 124.104804 
L 90.965064 124.384792 
L 91.49156 124.407925 
L 92.018056 124.210424 
L 92.597202 123.739149 
L 93.228997 122.923981 
L 93.966092 121.58186 
L 94.808486 119.544974 
L 95.756179 116.636801 
L 96.835496 112.575435 
L 98.072762 107.022557 
L 99.546951 99.319024 
L 101.337038 88.707591 
L 103.943194 71.763682 
L 107.997214 45.477167 
L 109.839951 35.012387 
L 111.340465 27.710244 
L 112.604055 22.605701 
L 113.683372 19.100825 
L 114.631066 16.725251 
L 115.447135 15.231924 
L 116.157904 14.360598 
L 116.763375 13.939279 
L 117.316196 13.814842 
L 117.842692 13.928064 
L 118.395513 14.289967 
L 119.000984 14.970293 
L 119.685429 16.092567 
L 120.475173 17.843817 
L 121.370216 20.400494 
L 122.396884 24.04425 
L 123.5815 29.122038 
L 124.95039 36.023273 
L 126.608853 45.605335 
L 128.820137 59.817379 
L 134.453646 96.639012 
L 136.138433 105.900714 
L 137.533648 112.405286 
L 138.718264 116.942263 
L 139.744932 120.060237 
L 140.639975 122.118946 
L 141.403395 123.368444 
L 142.061515 124.061618 
L 142.640661 124.373203 
L 143.167157 124.412308 
L 143.693653 124.218456 
L 144.246474 123.764854 
L 144.878269 122.935199 
L 145.589039 121.610708 
L 146.405108 119.591595 
L 147.326476 116.695743 
L 148.405794 112.520184 
L 149.643059 106.784588 
L 151.090924 98.957724 
L 152.881011 87.97663 
L 155.566141 69.926574 
L 159.251614 45.369997 
L 161.068026 34.767152 
L 162.51589 27.54059 
L 163.753156 22.425179 
L 164.832473 18.86498 
L 165.753842 16.544398 
L 166.543586 15.108341 
L 167.228031 14.289074 
L 167.807177 13.9096 
L 168.333673 13.816352 
L 168.833844 13.950473 
L 169.36034 14.325724 
L 169.965811 15.052202 
L 170.650256 16.248641 
L 171.44 18.113211 
L 172.335044 20.831772 
L 173.361711 24.700246 
L 174.546327 30.080032 
L 175.941542 37.520706 
L 177.62633 47.787226 
L 179.995562 63.750064 
L 184.497105 94.24663 
L 186.260867 104.534578 
L 187.682406 111.573963 
L 188.893347 116.497609 
L 189.920015 119.803872 
L 190.815058 121.987479 
L 191.578478 123.311928 
L 192.236598 124.045122 
L 192.815744 124.372528 
L 193.315915 124.41408 
L 193.816086 124.231632 
L 194.342583 123.798177 
L 194.948053 122.995863 
L 195.632498 121.702928 
L 196.422242 119.714095 
L 197.343611 116.746042 
L 198.396603 112.549289 
L 199.607544 106.755494 
L 201.029084 98.811957 
L 202.792846 87.61705 
L 205.504301 68.763704 
L 208.926526 45.271006 
L 210.716613 34.513542 
L 212.138152 27.240369 
L 213.349094 22.135971 
L 214.375761 18.696206 
L 215.270804 16.414468 
L 216.034224 15.021534 
L 216.692344 14.241434 
L 217.27149 13.882481 
L 217.771661 13.821213 
L 218.271833 13.991023 
L 218.798329 14.418856 
L 219.403799 15.224403 
L 220.088244 16.533274 
L 220.877988 18.556149 
L 221.773032 21.487692 
L 222.799699 25.638033 
L 224.010641 31.519699 
L 225.43218 39.600718 
L 227.195942 50.998955 
L 229.960047 70.552232 
L 233.224323 93.25127 
L 234.988085 103.974812 
L 236.409625 111.308131 
L 237.594241 116.322472 
L 238.620909 119.75871 
L 239.489627 121.955953 
L 240.253047 123.323942 
L 240.884842 124.046723 
L 241.437663 124.370308 
L 241.937834 124.412864 
L 242.411681 124.233501 
L 242.938177 123.78416 
L 243.543648 122.944496 
L 244.228093 121.585452 
L 245.017837 119.490257 
L 245.939205 116.360494 
L 246.992198 111.935512 
L 248.203139 105.833507 
L 249.651003 97.322225 
L 251.467415 85.224718 
L 254.705366 61.821181 
L 257.337847 43.540948 
L 259.022635 33.316999 
L 260.391525 26.292624 
L 261.549816 21.437885 
L 262.550159 18.145488 
L 263.418877 16.01302 
L 264.155972 14.757079 
L 264.787767 14.095532 
L 265.314264 13.84093 
L 265.78811 13.843817 
L 266.261957 14.06673 
L 266.788453 14.571586 
L 267.393923 15.483933 
L 268.078368 16.935796 
L 268.868113 19.1507 
L 269.789481 22.434615 
L 270.842473 27.050372 
L 272.079739 33.531862 
L 273.553928 42.512686 
L 275.449314 55.534129 
L 281.951542 101.451214 
L 283.425731 109.657259 
L 284.636672 115.225787 
L 285.689664 119.080864 
L 286.584708 121.572276 
L 287.348127 123.096465 
L 288.006248 123.952349 
L 288.559069 124.337707 
L 289.05924 124.421639 
L 289.533086 124.268561 
L 290.033258 123.861956 
L 290.612403 123.078954 
L 291.270524 121.788076 
L 292.033943 119.768713 
L 292.902662 116.814659 
L 293.903004 112.598245 
L 295.087621 106.578487 
L 296.482836 98.260829 
L 298.246598 86.288478 
L 301.168651 64.624806 
L 303.985406 44.333878 
L 305.670193 33.732726 
L 307.039083 26.458353 
L 308.197375 21.449391 
L 309.171393 18.151609 
L 310.013787 16.02314 
L 310.724556 14.772571 
L 311.330027 14.111191 
L 311.856523 13.84235 
L 312.33037 13.845507 
L 312.804216 14.081088 
L 313.330712 14.61443 
L 313.936183 15.577912 
L 314.620628 17.110408 
L 315.410372 19.446665 
L 316.33174 22.906846 
L 317.384733 27.762837 
L 318.621999 34.566138 
L 320.122513 44.138803 
L 322.096873 58.289897 
L 327.598758 98.556855 
L 329.125597 107.704847 
L 330.389188 114.002669 
L 331.468505 118.309419 
L 332.389873 121.124629 
L 333.179617 122.867725 
L 333.837737 123.830893 
L 334.390558 124.289202 
L 334.864405 124.424608 
L 335.311927 124.333512 
L 335.785773 124.005414 
L 336.338594 123.323185 
L 336.970389 122.153323 
L 337.707484 120.273758 
L 338.549878 117.47065 
L 339.523896 113.406512 
L 340.655862 107.668225 
L 341.998428 99.63467 
L 343.656891 88.269574 
L 346.184072 69.194249 
L 349.474673 44.665757 
L 351.159461 33.766132 
L 352.502026 26.446743 
L 353.633993 21.429849 
L 354.60801 18.064015 
L 355.424079 15.971596 
L 356.134849 14.713777 
L 356.74032 14.067543 
L 357.240491 13.832773 
L 357.688013 13.853373 
L 358.161859 14.112729 
L 358.688356 14.686257 
L 359.293826 15.713401 
L 359.978271 17.339329 
L 360.768015 19.809704 
L 361.689384 23.457998 
L 362.768701 28.702773 
L 364.032292 36.019492 
L 365.585455 46.424882 
L 367.717765 62.378763 
L 372.114007 95.572745 
L 373.719821 105.831123 
L 375.009736 112.732012 
L 376.115378 117.502844 
L 377.063071 120.654606 
L 377.852815 122.574607 
L 378.53726 123.698009 
L 379.116406 124.247538 
L 379.590253 124.420544 
L 380.037774 124.354346 
L 380.511621 124.041286 
L 381.038117 123.401876 
L 381.643588 122.291458 
L 382.354358 120.48635 
L 383.170427 117.768307 
L 384.11812 113.792051 
L 385.223762 108.131632 
L 386.540002 100.144548 
L 388.17214 88.757502 
L 390.620347 69.883191 
L 393.937273 44.568904 
L 395.595736 33.612591 
L 396.911976 26.300845 
L 398.017618 21.317907 
L 398.965311 17.993131 
L 399.78138 15.881592 
L 400.465825 14.670297 
L 401.044971 14.054119 
L 401.545142 13.827392 
L 401.992664 13.865746 
L 402.440186 14.131925 
L 402.940357 14.697822 
L 403.519503 15.703438 
L 404.203948 17.367694 
L 404.993692 19.908644 
L 405.91506 23.671903 
L 406.994377 29.089678 
L 408.257968 36.648841 
L 409.811132 47.384768 
L 412.022416 64.409961 
L 415.944812 94.693179 
L 417.550625 105.282563 
L 418.840541 112.41328 
L 419.946183 117.340903 
L 420.867551 120.512856 
L 421.657295 122.507993 
L 422.34174 123.674341 
L 422.894561 124.22598 
L 423.368408 124.417858 
L 423.815929 124.359865 
L 424.263451 124.069597 
L 424.763622 123.471678 
L 425.369093 122.365889 
L 426.053538 120.622092 
L 426.869607 117.881057 
L 427.790975 113.966661 
L 428.870292 108.366297 
L 430.160208 100.420797 
L 431.766021 89.026685 
L 434.161579 70.211773 
L 437.478504 44.404258 
L 439.110642 33.440329 
L 440.426883 26.033316 
L 441.532525 21.023218 
L 442.453893 17.796746 
L 443.243637 15.766701 
L 443.928082 14.579627 
L 444.480903 14.017967 
L 444.95475 13.822365 
L 445.402271 13.880976 
L 445.849793 14.175856 
L 446.349964 14.783583 
L 446.92911 15.850008 
L 447.613555 17.602244 
L 448.403299 20.264402 
L 449.324668 24.191873 
L 450.403985 29.82593 
L 451.6939 37.833143 
L 453.273389 49.127287 
L 455.668946 68.088563 
L 458.959547 93.882377 
L 460.591685 104.91459 
L 461.881601 112.215926 
L 462.960918 117.15017 
L 463.882286 120.412842 
L 464.67203 122.463699 
L 465.330151 123.624852 
L 465.882972 124.206244 
L 466.356818 124.414869 
L 466.778015 124.374777 
L 467.225537 124.099677 
L 467.725708 123.510124 
L 468.304854 122.459537 
L 468.989299 120.718908 
L 469.779043 118.060842 
L 470.700411 114.126297 
L 471.779729 108.469461 
L 473.043319 100.594864 
L 474.622808 89.253247 
L 476.99204 70.403817 
L 480.308966 44.260696 
L 481.914779 33.354558 
L 483.204695 26.015562 
L 484.284012 21.062354 
L 485.20538 17.793523 
L 485.995125 15.745006 
L 486.653245 14.591169 
L 487.206066 14.019606 
L 487.679912 13.821982 
L 488.101109 13.873762 
L 488.548631 14.163145 
L 489.048802 14.770784 
L 489.627948 15.844857 
L 490.312393 17.616309 
L 491.102137 20.313268 
L 492.023505 24.296305 
L 493.102823 30.011843 
L 494.392738 38.131814 
L 495.998551 49.772949 
L 498.473083 69.585978 
L 501.553086 93.856595 
L 503.158899 104.79337 
L 504.448815 112.154846 
L 505.528132 117.125344 
L 506.4495 120.40808 
L 507.239244 122.468169 
L 507.897364 123.63162 
L 508.450185 124.211385 
L 508.924032 124.416227 
L 509.345229 124.371074 
L 509.79275 124.089012 
L 510.292922 123.489975 
L 510.872068 122.426521 
L 511.556513 120.668692 
L 512.346257 117.989102 
L 513.267625 114.028805 
L 514.346942 108.343504 
L 515.636858 100.264569 
L 517.242671 88.680387 
L 519.717203 68.95785 
L 522.82353 44.574768 
L 524.455668 33.50688 
L 525.745584 26.179391 
L 526.851226 21.115192 
L 527.772594 17.854597 
L 528.562338 15.802153 
L 529.246783 14.599748 
L 529.799604 14.027746 
L 530.273451 13.824261 
L 530.720972 13.87588 
L 531.168494 14.163867 
L 531.668666 14.763562 
L 532.247811 15.819643 
L 532.932256 17.557214 
L 533.722 20.197744 
L 534.643369 24.091552 
L 535.722686 29.671977 
L 537.012601 37.592408 
L 538.618415 48.942758 
L 541.066622 68.073494 
L 544.304573 93.081214 
L 545.963036 104.169133 
L 547.279276 111.569032 
L 548.411243 116.726606 
L 549.358936 120.086466 
L 550.175005 122.232632 
L 550.885775 123.517119 
L 551.464921 124.153079 
L 551.965092 124.403001 
L 552.412614 124.391131 
L 552.860136 124.157624 
L 553.360307 123.636428 
L 553.939453 122.694536 
L 554.623898 121.123764 
L 555.413642 118.717357 
L 556.33501 115.149562 
L 557.414327 110.014864 
L 558.677918 102.859002 
L 560.231082 92.709199 
L 562.442365 76.613939 
L 566.706984 45.359106 
L 568.391772 34.773308 
L 569.760662 27.48932 
L 570.945278 22.323176 
L 571.971946 18.787764 
L 572.866989 16.460325 
L 573.630409 15.047079 
L 574.288529 14.25676 
L 574.867675 13.8897 
L 575.367846 13.81884 
L 575.868017 13.973843 
L 576.394513 14.377527 
L 576.999984 15.140519 
L 577.684429 16.376692 
L 578.500498 18.347332 
L 579.448191 21.272905 
L 580.527508 25.367468 
L 581.817424 31.193944 
L 583.370587 39.308725 
L 585.423922 51.32478 
L 592.478971 93.603663 
L 594.242733 102.321828 
L 595.769572 108.82178 
L 597.138462 113.735033 
L 598.375728 117.391938 
L 599.507694 120.069619 
L 600.508037 121.900597 
L 601.429405 123.144102 
L 602.245474 123.893818 
L 602.982569 124.290602 
L 603.693339 124.42478 
L 604.377784 124.327013 
L 605.088554 123.993778 
L 605.851973 123.377835 
L 606.694367 122.394649 
L 607.615735 120.963707 
L 608.642403 118.94408 
L 609.800694 116.145797 
L 611.064285 112.490117 
L 612.485824 107.663784 
L 614.065313 101.474087 
L 615.829075 93.632011 
L 617.88241 83.454404 
L 620.56754 68.932818 
L 626.280024 37.74544 
L 628.07011 29.389633 
L 629.49165 23.738256 
L 630.702591 19.785034 
L 631.729259 17.149285 
L 632.597977 15.484821 
L 633.335072 14.507726 
L 633.966867 14.002954 
L 634.519688 13.821578 
L 635.046184 13.879819 
L 635.572681 14.167103 
L 636.151826 14.750672 
L 636.809947 15.756483 
L 637.547041 17.315558 
L 638.389435 19.652275 
L 639.337128 22.971483 
L 640.416445 27.603271 
L 641.653711 33.943995 
L 643.101576 42.584775 
L 644.917987 54.872627 
L 648.076964 78.12474 
L 650.656795 96.395738 
L 652.288933 106.452605 
L 653.605174 113.25203 
L 654.710816 117.854994 
L 655.632184 120.818597 
L 656.421928 122.678917 
L 657.106373 123.759228 
L 657.659194 124.260751 
L 658.133041 124.422413 
L 658.580562 124.345835 
L 659.054409 124.021197 
L 659.580905 123.36711 
L 660.186376 122.235973 
L 660.897145 120.399225 
L 661.713214 117.632466 
L 662.660907 113.579898 
L 663.766549 107.801339 
L 665.056465 99.808583 
L 666.662278 88.368817 
L 669.084161 69.286042 
L 672.348437 43.854616 
L 673.95425 33.065062 
L 675.244165 25.8058 
L 676.323483 20.910672 
L 677.244851 17.686301 
L 678.034595 15.67289 
L 678.692715 14.546667 
L 679.245536 13.997412 
L 679.719383 13.81839 
L 680.14058 13.886372 
L 680.588101 14.192684 
L 681.088273 14.818934 
L 681.667418 15.914174 
L 682.351863 17.7101 
L 683.141608 20.4344 
L 684.062976 24.447655 
L 685.142293 30.195197 
L 686.432209 38.346253 
L 688.038022 50.010357 
L 690.591528 70.456575 
L 693.539907 93.601375 
L 695.172045 104.683308 
L 696.46196 112.015574 
L 697.567602 117.081908 
L 698.48897 120.345411 
L 699.278715 122.403277 
L 699.96316 123.614082 
L 700.542305 124.21516 
L 701.016152 124.415923 
L 701.463674 124.364794 
L 701.911195 124.08076 
L 702.411367 123.490116 
L 703.016837 122.395236 
L 703.701282 120.669261 
L 704.517351 117.961129 
L 705.465044 113.983029 
L 706.570686 108.316587 
L 707.886927 100.338505 
L 709.54539 88.827617 
L 712.28317 67.972882 
L 715.178898 46.445515 
L 716.890011 35.35614 
L 718.258901 27.854484 
L 719.443517 22.540772 
L 720.470185 18.910092 
L 721.365228 16.523944 
L 722.128648 15.077123 
L 722.786768 14.268599 
L 723.365914 13.892638 
L 723.866085 13.818511 
L 724.366256 13.973526 
L 724.892752 14.379826 
L 725.498223 15.147748 
L 726.182668 16.390216 
L 726.998737 18.365962 
L 727.94643 21.289306 
L 729.052072 25.472551 
L 730.368312 31.386557 
L 732.00045 39.836346 
L 734.238059 52.730107 
L 740.134816 87.281978 
L 742.109176 97.264396 
L 743.820289 104.819403 
L 745.347128 110.593679 
L 746.716018 114.947982 
L 747.953284 118.192194 
L 749.08525 120.575028 
L 750.111918 122.246662 
L 751.033286 123.346914 
L 751.87568 124.019127 
L 752.639099 124.350816 
L 753.349869 124.420584 
L 754.034314 124.268191 
L 754.745084 123.880065 
L 755.508503 123.200151 
L 756.350897 122.130893 
L 757.272266 120.5752 
L 758.272608 118.425877 
L 759.351925 115.568415 
L 760.536542 111.791699 
L 761.852782 106.824647 
L 763.326971 100.339793 
L 764.959109 92.118181 
L 766.93347 80.946253 
L 769.644925 64.187658 
L 773.619971 39.741334 
L 775.357408 30.456823 
L 776.752623 24.152299 
L 777.910915 19.903136 
L 778.884932 17.129466 
L 779.701002 15.422325 
L 780.385446 14.45157 
L 780.964592 13.972184 
L 781.464764 13.817132 
L 781.93861 13.895556 
L 782.438781 14.2189 
L 782.991602 14.865623 
L 783.623398 15.977166 
L 784.334168 17.699676 
L 785.150237 20.282485 
L 786.09793 24.065733 
L 787.177247 29.338045 
L 788.440838 36.683312 
L 789.967676 46.960601 
L 792.047336 62.643411 
L 796.601528 97.438394 
L 798.128367 107.197818 
L 799.365633 113.778821 
L 800.418625 118.254884 
L 801.313668 121.153451 
L 802.077088 122.922867 
L 802.708883 123.878264 
L 803.235379 124.314426 
L 803.682901 124.424972 
L 804.104098 124.309662 
L 804.55162 123.95419 
L 805.078116 123.230377 
L 805.683586 121.994506 
L 806.394356 120.005216 
L 807.210425 117.030774 
L 808.158118 112.705334 
L 809.290085 106.426691 
L 810.63265 97.644856 
L 812.370088 84.680152 
L 818.767016 35.396097 
L 820.109581 27.503974 
L 821.241548 22.094182 
L 822.215566 18.464103 
L 823.031635 16.203154 
L 823.742404 14.835942 
L 824.347875 14.121576 
L 824.848046 13.846045 
L 825.295568 13.840558 
L 825.74309 14.061404 
L 826.243261 14.573172 
L 826.822407 15.509112 
L 827.506852 17.077409 
L 828.296596 19.483469 
L 829.217964 23.047987 
L 830.297281 28.164744 
L 831.587197 35.425001 
L 833.19301 45.815856 
L 835.614893 63.137028 
L 839.247716 88.972113 
L 841.037803 100.085104 
L 842.511992 107.908898 
L 843.775583 113.492175 
L 844.90755 117.540978 
L 845.907892 120.341281 
L 846.802936 122.223006 
L 847.59268 123.397273 
L 848.30345 124.07158 
L 848.935245 124.374251 
L 849.514391 124.413267 
L 850.093537 124.231501 
L 850.725332 123.790496 
L 851.436102 123.005372 
L 852.252171 121.747285 
L 853.199864 119.842221 
L 854.279181 117.143714 
L 854.753028 115.796561 
L 854.753028 115.796561 
" clip-path="url(#p91b9a5c558)" style="fill: none; stroke: #2477d0; stroke-width: 4"/>
   </g>
   <g id="matplotlib.axis_1"/>
   <g id="matplotlib.axis_2">
    <g id="ytick_1">
     <g id="line2d_2">
      <defs>
       <path id="m9f754c850c" d="M 0 0 
L 5 0 
" style="stroke: #000000"/>
      </defs>
      <g>
       <use xlink:href="#m9f754c850c" x="41.316477" y="124.425158" style="stroke: #000000"/>
      </g>
     </g>
     <g id="text_1">
      <!-- $-1$ -->
      <g transform="translate(1.976477 135.062971) scale(0.28 -0.28)">
       <defs>
        <path id="Cmsy10-a1" d="M 653 1472 
Q 600 1472 565 1512 
Q 531 1553 531 1600 
Q 531 1647 565 1687 
Q 600 1728 653 1728 
L 4325 1728 
Q 4375 1728 4408 1687 
Q 4441 1647 4441 1600 
Q 4441 1553 4408 1512 
Q 4375 1472 4325 1472 
L 653 1472 
z
" transform="scale(0.015625)"/>
        <path id="Cmr10-31" d="M 594 0 
L 594 225 
Q 1394 225 1394 428 
L 1394 3788 
Q 1063 3628 556 3628 
L 556 3853 
Q 1341 3853 1741 4263 
L 1831 4263 
Q 1853 4263 1873 4245 
Q 1894 4228 1894 4206 
L 1894 428 
Q 1894 225 2694 225 
L 2694 0 
L 594 0 
z
" transform="scale(0.015625)"/>
       </defs>
       <use xlink:href="#Cmsy10-a1" transform="translate(0 0.390625)"/>
       <use xlink:href="#Cmr10-31" transform="translate(77.685547 0.390625)"/>
      </g>
     </g>
    </g>
    <g id="ytick_2">
     <g id="line2d_3">
      <g>
       <use xlink:href="#m9f754c850c" x="41.316477" y="69.12" style="stroke: #000000"/>
      </g>
     </g>
     <g id="text_2">
      <!-- $0$ -->
      <g transform="translate(23.816477 79.757813) scale(0.28 -0.28)">
       <defs>
        <path id="Cmr10-30" d="M 1600 -141 
Q 816 -141 533 504 
Q 250 1150 250 2041 
Q 250 2597 351 3087 
Q 453 3578 754 3920 
Q 1056 4263 1600 4263 
Q 2022 4263 2290 4056 
Q 2559 3850 2700 3523 
Q 2841 3197 2892 2823 
Q 2944 2450 2944 2041 
Q 2944 1491 2842 1011 
Q 2741 531 2444 195 
Q 2147 -141 1600 -141 
z
M 1600 25 
Q 1956 25 2131 390 
Q 2306 756 2347 1200 
Q 2388 1644 2388 2144 
Q 2388 2625 2347 3031 
Q 2306 3438 2132 3767 
Q 1959 4097 1600 4097 
Q 1238 4097 1063 3765 
Q 888 3434 847 3029 
Q 806 2625 806 2144 
Q 806 1788 823 1472 
Q 841 1156 916 820 
Q 991 484 1158 254 
Q 1325 25 1600 25 
z
" transform="scale(0.015625)"/>
       </defs>
       <use xlink:href="#Cmr10-30" transform="translate(0 0.390625)"/>
      </g>
     </g>
    </g>
    <g id="ytick_3">
     <g id="line2d_4">
      <g>
       <use xlink:href="#m9f754c850c" x="41.316477" y="13.814842" style="stroke: #000000"/>
      </g>
     </g>
     <g id="text_3">
      <!-- $1$ -->
      <g transform="translate(23.816477 24.452654) scale(0.28 -0.28)">
       <use xlink:href="#Cmr10-31" transform="translate(0 0.390625)"/>
      </g>
     </g>
    </g>
   </g>
   <g id="line2d_5">
    <path d="M 65.008803 13.814842 
L 65.5353 13.923994 
L 66.088121 14.273254 
L 66.693591 14.930088 
L 67.378036 16.014079 
L 68.16778 17.706483 
L 69.062824 20.178959 
L 70.089491 23.706001 
L 71.274108 28.627339 
L 72.642998 35.327685 
L 74.275136 44.497538 
L 76.407445 57.856706 
L 82.778048 98.637738 
L 84.410187 107.234448 
L 85.779077 113.321856 
L 86.963693 117.621287 
L 87.99036 120.545476 
L 88.859079 122.400781 
L 89.622498 123.544153 
L 90.280619 124.155432 
L 90.859764 124.4028 
L 91.386261 124.390197 
L 91.912757 124.151194 
L 92.491902 123.627697 
L 93.150023 122.704323 
L 93.887117 121.261879 
L 94.729511 119.099002 
L 95.703529 115.942201 
L 96.809171 111.559267 
L 98.099086 105.472527 
L 99.5996 97.26309 
L 101.494987 85.567946 
L 104.653964 64.413422 
L 107.654992 44.874654 
L 109.471403 34.461476 
L 110.945592 27.248572 
L 112.182858 22.244782 
L 113.262176 18.762915 
L 114.183544 16.492851 
L 114.973288 15.087012 
L 115.657733 14.283675 
L 116.263204 13.899781 
L 116.7897 13.817445 
L 117.289871 13.956539 
L 117.842692 14.356223 
L 118.448163 15.088407 
L 119.132608 16.282071 
L 119.922352 18.13164 
L 120.817395 20.818686 
L 121.844063 24.633572 
L 123.028679 29.931558 
L 124.423894 37.254603 
L 126.108682 47.36091 
L 128.451589 62.917305 
L 133.190055 94.636711 
L 134.927492 104.624614 
L 136.349032 111.577547 
L 137.559973 116.451514 
L 138.612965 119.809256 
L 139.508009 121.970983 
L 140.271428 123.288793 
L 140.929548 124.025419 
L 141.508694 124.362924 
L 142.03519 124.415368 
L 142.535361 124.240291 
L 143.088182 123.792435 
L 143.693653 122.997712 
L 144.404423 121.664673 
L 145.220492 119.614023 
L 146.14186 116.655971 
L 147.194852 112.489138 
L 148.405794 106.751355 
L 149.853658 98.741826 
L 151.643745 87.489085 
L 154.381525 68.644253 
L 157.830075 45.22288 
L 159.620162 34.57362 
L 161.068026 27.236732 
L 162.278967 22.179158 
L 163.331959 18.683771 
L 164.227003 16.424715 
L 165.016747 15.001306 
L 165.674867 14.235146 
L 166.254013 13.882 
L 166.754184 13.820828 
L 167.254356 13.986176 
L 167.780852 14.404432 
L 168.386322 15.192894 
L 169.070767 16.474899 
L 169.860512 18.457351 
L 170.755555 21.331922 
L 171.782223 25.404288 
L 172.966839 31.044506 
L 174.362054 38.811839 
L 176.099491 49.824493 
L 178.679322 67.798461 
L 182.33847 93.109417 
L 184.102232 103.760137 
L 185.523772 111.0673 
L 186.734713 116.18593 
L 187.761381 119.625542 
L 188.656424 121.897306 
L 189.419844 123.274248 
L 190.077964 124.034981 
L 190.630785 124.36409 
L 191.130956 124.416161 
L 191.631127 124.234332 
L 192.157624 123.790851 
L 192.763094 122.963613 
L 193.447539 121.625705 
L 194.237283 119.563761 
L 195.158652 116.483778 
L 196.211644 112.128209 
L 197.422585 106.118922 
L 198.870449 97.729712 
L 200.686861 85.788041 
L 203.740539 63.936623 
L 206.583618 44.221549 
L 208.321055 33.688378 
L 209.71627 26.532234 
L 210.900886 21.567719 
L 211.901229 18.268646 
L 212.769948 16.116709 
L 213.507042 14.834169 
L 214.138838 14.142504 
L 214.691659 13.850517 
L 215.19183 13.839958 
L 215.665677 14.052508 
L 216.192173 14.541837 
L 216.797643 15.431264 
L 217.482088 16.851019 
L 218.271833 19.021309 
L 219.193201 22.244111 
L 220.246193 26.780251 
L 221.483459 33.158883 
L 222.957648 42.011496 
L 224.82671 54.688361 
L 231.67116 102.488835 
L 233.119024 110.342336 
L 234.329965 115.745427 
L 235.356633 119.378459 
L 236.251676 121.776732 
L 237.015095 123.22751 
L 237.646891 124.001581 
L 238.199712 124.356726 
L 238.699883 124.416876 
L 239.17373 124.244475 
L 239.673901 123.820924 
L 240.253047 123.022783 
L 240.911167 121.720522 
L 241.674586 119.695629 
L 242.56963 116.645149 
L 243.596297 112.300675 
L 244.780914 106.268385 
L 246.202453 97.794052 
L 247.99254 85.661592 
L 251.072543 62.933597 
L 253.757673 43.813066 
L 255.442461 33.34471 
L 256.811351 26.176703 
L 257.943317 21.350746 
L 258.917335 18.09293 
L 259.759729 15.991271 
L 260.470499 14.75725 
L 261.075969 14.105379 
L 261.602466 13.841302 
L 262.076312 13.84594 
L 262.550159 14.080351 
L 263.076655 14.609322 
L 263.682125 15.563877 
L 264.36657 17.081466 
L 265.156315 19.394581 
L 266.077683 22.820552 
L 267.130675 27.629489 
L 268.367941 34.369568 
L 269.868455 43.859782 
L 271.842816 57.905674 
L 277.502649 99.060229 
L 279.029488 108.090814 
L 280.293079 114.290866 
L 281.346071 118.426803 
L 282.26744 121.201102 
L 283.057184 122.914237 
L 283.715304 123.856404 
L 284.268125 124.30003 
L 284.741971 124.425059 
L 285.189493 124.32606 
L 285.66334 123.991619 
L 286.216161 123.304614 
L 286.847956 122.132723 
L 287.585051 120.255226 
L 288.427444 117.460068 
L 289.401462 113.411794 
L 290.533429 107.699704 
L 291.875994 99.705263 
L 293.534457 88.395012 
L 296.061639 69.400245 
L 299.378564 44.748554 
L 301.063352 33.870415 
L 302.405917 26.554304 
L 303.537884 21.529423 
L 304.511902 18.148598 
L 305.354296 15.981094 
L 306.065065 14.722826 
L 306.670536 14.073658 
L 307.170707 13.834722 
L 307.618229 13.850297 
L 308.092076 14.103044 
L 308.618572 14.667748 
L 309.224042 15.682939 
L 309.908487 17.293262 
L 310.698232 19.743229 
L 311.6196 23.365121 
L 312.698917 28.576632 
L 313.962508 35.853261 
L 315.489347 46.025254 
L 317.595331 61.706168 
L 322.149523 96.005027 
L 323.729011 106.03235 
L 325.018927 112.889125 
L 326.124569 117.621399 
L 327.045937 120.665929 
L 327.835681 122.580929 
L 328.520126 123.701133 
L 329.099272 124.248747 
L 329.573119 124.420695 
L 330.02064 124.353895 
L 330.494487 124.040587 
L 331.020983 123.401327 
L 331.626454 122.291575 
L 332.337223 120.487807 
L 333.153292 117.771865 
L 334.100985 113.798507 
L 335.206627 108.141642 
L 336.522868 100.15832 
L 338.155006 88.774163 
L 340.603213 69.898688 
L 343.946463 44.386298 
L 345.604926 33.449249 
L 346.921167 26.1603 
L 348.026809 21.201858 
L 348.974502 17.902048 
L 349.790571 15.814911 
L 350.475016 14.626124 
L 351.054161 14.0304 
L 351.528008 13.826175 
L 351.97553 13.868526 
L 352.423051 14.139403 
L 352.923223 14.711397 
L 353.502369 15.725205 
L 354.186814 17.400706 
L 354.976558 19.95669 
L 355.897926 23.740119 
L 356.977243 29.184702 
L 358.240834 36.778607 
L 359.793998 47.559809 
L 362.005281 64.646658 
L 365.875028 94.615818 
L 367.480841 105.250241 
L 368.770757 112.410316 
L 369.850074 117.251481 
L 370.771442 120.456288 
L 371.561186 122.474835 
L 372.245631 123.657288 
L 372.798452 124.21879 
L 373.272299 124.416723 
L 373.719821 124.362328 
L 374.167342 124.073526 
L 374.667514 123.474671 
L 375.24666 122.421045 
L 375.931104 120.687033 
L 376.720849 118.049381 
L 377.642217 114.154017 
L 378.721534 108.560331 
L 379.985125 100.776346 
L 381.564613 89.559366 
L 383.881196 71.307035 
L 387.356071 44.083258 
L 388.988209 33.09597 
L 390.278125 25.835718 
L 391.357442 20.939633 
L 392.27881 17.71238 
L 393.068554 15.6941 
L 393.726674 14.561735 
L 394.279495 14.005716 
L 394.753342 13.819726 
L 395.174539 13.880638 
L 395.62206 14.178579 
L 396.122232 14.794538 
L 396.701378 15.876842 
L 397.385823 17.656468 
L 398.175567 20.36142 
L 399.096935 24.35286 
L 400.176252 30.078493 
L 401.466168 38.21307 
L 403.071981 49.87898 
L 405.546513 69.745578 
L 408.626515 94.088037 
L 410.232329 105.045086 
L 411.522244 112.403379 
L 412.601561 117.352488 
L 413.52293 120.600416 
L 414.312674 122.616869 
L 414.970794 123.733388 
L 415.523615 124.265906 
L 415.971137 124.422837 
L 416.392334 124.345523 
L 416.839855 124.024467 
L 417.340027 123.37591 
L 417.945497 122.18647 
L 418.629942 120.319912 
L 419.446011 117.396333 
L 420.393704 113.102634 
L 421.499346 106.982524 
L 422.815587 98.358837 
L 424.474049 85.916961 
L 427.448753 61.531537 
L 429.870635 42.532223 
L 431.423799 32.028397 
L 432.661065 25.07376 
L 433.714057 20.344203 
L 434.6091 17.281529 
L 435.37252 15.411068 
L 436.004315 14.399561 
L 436.530811 13.935624 
L 436.978333 13.814899 
L 437.39953 13.931728 
L 437.847052 14.300361 
L 438.373548 15.054481 
L 438.979018 16.344253 
L 439.689788 18.42138 
L 440.505857 21.526806 
L 441.45355 26.040108 
L 442.585517 32.584621 
L 443.928082 41.72325 
L 445.691844 55.391282 
L 451.535952 102.017691 
L 452.878517 110.356402 
L 454.010483 116.068772 
L 454.958177 119.787862 
L 455.774246 122.147837 
L 456.458691 123.496223 
L 457.011512 124.153443 
L 457.485358 124.40526 
L 457.906555 124.386288 
L 458.327752 124.138671 
L 458.801598 123.587918 
L 459.354419 122.584673 
L 460.01254 120.893179 
L 460.775959 118.275291 
L 461.671002 114.354845 
L 462.723995 108.661218 
L 463.961261 100.668203 
L 465.514424 89.064074 
L 467.857332 69.637777 
L 470.989984 43.96767 
L 472.569473 32.851449 
L 473.833063 25.461383 
L 474.886056 20.549492 
L 475.781099 17.372398 
L 476.518194 15.492203 
L 477.149989 14.430985 
L 477.676485 13.943136 
L 478.124007 13.814869 
L 478.545204 13.935398 
L 478.992726 14.319394 
L 479.492897 15.058568 
L 480.098368 16.385204 
L 480.809137 18.531411 
L 481.625206 21.748076 
L 482.5729 26.42829 
L 483.704866 33.21453 
L 485.073756 42.87654 
L 486.890168 57.446512 
L 492.076155 100.039985 
L 493.47137 109.195647 
L 494.603337 115.260724 
L 495.577354 119.341708 
L 496.393423 121.875381 
L 497.077868 123.344118 
L 497.657014 124.105001 
L 498.130861 124.393806 
L 498.552058 124.396665 
L 498.973255 124.160383 
L 499.447101 123.609825 
L 499.999922 122.590194 
L 500.658042 120.856471 
L 501.421462 118.160221 
L 502.316505 114.111282 
L 503.343173 108.384551 
L 504.580439 100.148316 
L 506.133602 88.196631 
L 508.581809 67.349177 
L 511.424889 43.638979 
L 512.978052 32.519849 
L 514.215318 25.185674 
L 515.241986 20.349106 
L 516.110704 17.245708 
L 516.847799 15.371734 
L 517.453269 14.37401 
L 517.953441 13.925922 
L 518.374638 13.815107 
L 518.76951 13.933209 
L 519.190707 14.295608 
L 519.690878 15.040894 
L 520.270024 16.325359 
L 520.954469 18.41264 
L 521.770538 21.675117 
L 522.718231 26.451898 
L 523.823873 33.229939 
L 525.166438 42.918602 
L 526.956525 57.602174 
L 531.984563 99.829723 
L 533.353453 109.041573 
L 534.48542 115.254728 
L 535.433113 119.316459 
L 536.249182 121.903128 
L 536.933627 123.387144 
L 537.486448 124.11536 
L 537.960294 124.399753 
L 538.355167 124.395612 
L 538.750039 124.172083 
L 539.19756 123.654512 
L 539.724057 122.689494 
L 540.355852 121.03233 
L 541.092947 118.431935 
L 541.961665 114.491748 
L 542.988333 108.713005 
L 544.199274 100.5369 
L 545.726113 88.585378 
L 548.095345 68.00859 
L 550.964749 43.548197 
L 552.491588 32.40233 
L 553.702529 25.09317 
L 554.702872 20.297889 
L 555.571591 17.152718 
L 556.28236 15.331428 
L 556.887831 14.33439 
L 557.388002 13.903314 
L 557.809199 13.818389 
L 558.204071 13.970282 
L 558.625268 14.378699 
L 559.12544 15.191623 
L 559.73091 16.644949 
L 560.44168 18.9892 
L 561.257749 22.492831 
L 562.231767 27.729547 
L 563.390059 35.280571 
L 564.811598 46.141139 
L 566.812283 63.346795 
L 570.576731 95.915551 
L 572.05092 106.621515 
L 573.235537 113.704539 
L 574.235879 118.414673 
L 575.078273 121.377419 
L 575.789043 123.117656 
L 576.368189 124.003176 
L 576.842035 124.365476 
L 577.236907 124.416354 
L 577.631779 124.238589 
L 578.079301 123.761511 
L 578.605797 122.828519 
L 579.211268 121.267124 
L 579.922038 118.78699 
L 580.764431 114.986074 
L 581.764774 109.353191 
L 582.94939 101.307553 
L 584.42358 89.648106 
L 586.661188 69.90885 
L 589.688541 43.502292 
L 591.189055 32.334426 
L 592.373672 25.04953 
L 593.374014 20.179071 
L 594.216408 17.093871 
L 594.927178 15.26203 
L 595.506324 14.311071 
L 595.98017 13.901972 
L 596.375042 13.816987 
L 596.769914 13.965253 
L 597.191111 14.379936 
L 597.691283 15.213745 
L 598.270428 16.635291 
L 598.954873 18.929561 
L 599.770942 22.496127 
L 600.718636 27.691411 
L 601.850602 35.210888 
L 603.245817 46.076144 
L 605.220178 63.395944 
L 608.931975 96.131384 
L 610.37984 106.820666 
L 611.538131 113.848305 
L 612.512149 118.497051 
L 613.328218 121.407564 
L 614.012663 123.112988 
L 614.591809 124.013285 
L 615.065656 124.373008 
L 615.460528 124.411582 
L 615.8554 124.212321 
L 616.302922 123.699919 
L 616.829418 122.71086 
L 617.434888 121.066491 
L 618.145658 118.465575 
L 618.988052 114.492896 
L 619.988395 108.623991 
L 621.173011 100.270497 
L 622.673525 87.991788 
L 625.121732 65.791594 
L 627.701563 43.034666 
L 629.175752 31.922888 
L 630.360369 24.591517 
L 631.334387 19.857013 
L 632.150456 16.891323 
L 632.834901 15.152983 
L 633.414046 14.23505 
L 633.887893 13.868135 
L 634.282765 13.828613 
L 634.677637 14.031526 
L 635.098834 14.514323 
L 635.599005 15.44162 
L 636.204476 17.069494 
L 636.915246 19.665313 
L 637.75764 23.651046 
L 638.731657 29.389368 
L 639.916274 37.787612 
L 641.416788 50.165297 
L 643.83867 72.330742 
L 646.418501 95.301501 
L 647.89269 106.493512 
L 649.050982 113.705978 
L 650.025 118.465727 
L 650.841069 121.431772 
L 651.525514 123.154904 
L 652.078335 124.019462 
L 652.525857 124.368029 
L 652.920729 124.412507 
L 653.289276 124.231129 
L 653.710473 123.761105 
L 654.210644 122.842046 
L 654.816115 121.214171 
L 655.526885 118.604833 
L 656.369278 114.585377 
L 657.343296 108.786938 
L 658.527913 100.2914 
L 660.028427 87.767715 
L 662.502959 64.877979 
L 664.977491 42.70267 
L 666.425355 31.637165 
L 667.583646 24.386891 
L 668.557664 19.624239 
L 669.373733 16.678082 
L 670.058178 14.987914 
L 670.610999 14.160859 
L 671.058521 13.849633 
L 671.427068 13.835748 
L 671.795616 14.041058 
L 672.216813 14.54317 
L 672.716984 15.506628 
L 673.322455 17.196764 
L 674.033224 19.889818 
L 674.875618 24.020773 
L 675.875961 30.136369 
L 677.060577 38.842482 
L 678.587416 51.848784 
L 681.40417 78.245486 
L 683.53648 97.179632 
L 684.931695 107.700927 
L 686.063661 114.640842 
L 686.98503 119.03058 
L 687.774774 121.800136 
L 688.432894 123.366817 
L 688.95939 124.119349 
L 689.406912 124.403379 
L 689.775459 124.390353 
L 690.144006 124.154167 
L 690.591528 123.568616 
L 691.118024 122.464648 
L 691.74982 120.559739 
L 692.486914 117.566064 
L 693.355633 113.034606 
L 694.3823 106.413242 
L 695.619566 96.894389 
L 697.251705 82.469381 
L 702.358717 36.039169 
L 703.622308 27.189488 
L 704.648975 21.458739 
L 705.517694 17.782389 
L 706.228464 15.639038 
L 706.833934 14.454912 
L 707.307781 13.949838 
L 707.702653 13.814882 
L 708.0712 13.92427 
L 708.466072 14.293255 
L 708.939919 15.077535 
L 709.49274 16.456709 
L 710.15086 18.733464 
L 710.940604 22.336357 
L 711.861973 27.653817 
L 712.967615 35.433079 
L 714.336505 46.765001 
L 716.33719 65.429258 
L 719.601466 95.824284 
L 721.023006 106.928135 
L 722.154972 114.13733 
L 723.102665 118.828478 
L 723.89241 121.698435 
L 724.55053 123.323705 
L 725.077026 124.105561 
L 725.498223 124.393834 
L 725.86677 124.398557 
L 726.235318 124.172081 
L 726.656514 123.631243 
L 727.156686 122.602153 
L 727.762156 120.805269 
L 728.472926 117.951611 
L 729.31532 113.587203 
L 730.315663 107.146704 
L 731.526604 97.796331 
L 733.106092 83.713786 
L 738.423703 34.746644 
L 739.634645 26.333921 
L 740.634987 20.838183 
L 741.477381 17.370454 
L 742.161826 15.393203 
L 742.740972 14.333232 
L 743.214818 13.893013 
L 743.583366 13.81886 
L 743.951913 13.979976 
L 744.346785 14.413016 
L 744.820632 15.285447 
L 745.399777 16.865885 
L 746.084222 19.441317 
L 746.900291 23.463547 
L 747.847984 29.327276 
L 749.006276 38.002194 
L 750.480465 50.891325 
L 753.033972 75.624411 
L 755.27158 96.406223 
L 756.666795 107.396876 
L 757.772437 114.469469 
L 758.693805 119.034917 
L 759.457225 121.80519 
L 760.08902 123.362648 
L 760.615516 124.135509 
L 761.036713 124.404674 
L 761.40526 124.384025 
L 761.773808 124.124211 
L 762.195005 123.535746 
L 762.721501 122.367717 
L 763.326971 120.443033 
L 764.064066 117.29175 
L 764.932785 112.509164 
L 765.959452 105.517459 
L 767.223043 95.254515 
L 768.934155 79.333459 
L 773.198774 38.853488 
L 774.515014 28.855462 
L 775.568007 22.443388 
L 776.436725 18.397756 
L 777.17382 15.929328 
L 777.779291 14.598077 
L 778.279462 13.985149 
L 778.674334 13.816369 
L 779.016557 13.895966 
L 779.385104 14.216019 
L 779.832626 14.929454 
L 780.359122 16.218953 
L 780.990917 18.393162 
L 781.754336 21.894314 
L 782.64938 27.132188 
L 783.728697 34.888835 
L 785.044937 46.072111 
L 786.966648 64.547621 
L 790.257249 96.228977 
L 791.652464 107.415581 
L 792.758106 114.588069 
L 793.679474 119.188572 
L 794.442894 121.950621 
L 795.074689 123.474425 
L 795.57486 124.176018 
L 795.996057 124.415662 
L 796.33828 124.372661 
L 796.706827 124.088049 
L 797.128024 123.461677 
L 797.65452 122.232408 
L 798.286316 120.117644 
L 799.02341 116.803818 
L 799.892129 111.805368 
L 800.918796 104.536808 
L 802.208712 93.688597 
L 803.998799 76.531037 
L 807.710597 40.578685 
L 809.053162 29.93925 
L 810.132479 23.05418 
L 811.027522 18.686456 
L 811.764617 16.095043 
L 812.370088 14.683345 
L 812.870259 14.019167 
L 813.265131 13.820076 
L 813.607354 13.880816 
L 813.975901 14.188345 
L 814.423423 14.897415 
L 814.949919 16.196857 
L 815.581714 18.403866 
L 816.318809 21.834189 
L 817.213852 27.151513 
L 818.266844 34.840241 
L 819.583085 46.210198 
L 821.478471 64.743456 
L 824.690097 96.165406 
L 826.058987 107.332545 
L 827.138305 114.471526 
L 828.033348 119.050344 
L 828.796767 121.891085 
L 829.428563 123.456222 
L 829.928734 124.17437 
L 830.323606 124.411199 
L 830.665829 124.379503 
L 831.034376 124.099315 
L 831.455573 123.468187 
L 831.955744 122.292982 
L 832.561215 120.265605 
L 833.29831 116.938443 
L 834.167028 111.885927 
L 835.193696 104.507197 
L 836.457286 93.709034 
L 838.221049 76.535018 
L 841.880197 40.532977 
L 843.196437 29.93995 
L 844.249429 23.108433 
L 845.144473 18.667745 
L 845.881567 16.048707 
L 846.487038 14.637888 
L 846.960885 14.013142 
L 847.355757 13.818396 
L 847.697979 13.890358 
L 848.066527 14.217651 
L 848.514048 14.961247 
L 849.040544 16.315551 
L 849.67234 18.607459 
L 850.435759 22.304134 
L 851.330803 27.83474 
L 852.41012 36.012072 
L 853.752685 48.008566 
L 854.753028 57.851654 
L 854.753028 57.851654 
" clip-path="url(#p91b9a5c558)" style="fill: none; stroke: #ffa231; stroke-width: 4"/>
   </g>
   <g id="patch_3">
    <path d="M 41.316477 127.743467 
L 41.316477 10.496532 
" style="fill: none; stroke: #000000; stroke-width: 2; stroke-linejoin: miter; stroke-linecap: square"/>
   </g>
   <g id="patch_4">
    <path d="M 41.316477 127.743467 
L 878.445354 127.743467 
" style="fill: none; stroke: #000000; stroke-width: 2; stroke-linejoin: miter; stroke-linecap: square"/>
   </g>
  </g>
 </g>
 <defs>
  <clipPath id="p91b9a5c558">
   <rect x="41.316477" y="10.496532" width="837.128878" height="117.246935"/>
  </clipPath>
 </defs>
</svg>
