<?xml version="1.0" encoding="utf-8" standalone="no"?>
<!DOCTYPE svg PUBLIC "-//W3C//DTD SVG 1.1//EN"
  "http://www.w3.org/Graphics/SVG/1.1/DTD/svg11.dtd">
<svg xmlns:xlink="http://www.w3.org/1999/xlink" width="843.84pt" height="135.36pt" viewBox="0 0 843.84 135.36" xmlns="http://www.w3.org/2000/svg" version="1.1">
 <metadata>
  <rdf:RDF xmlns:dc="http://purl.org/dc/elements/1.1/" xmlns:cc="http://creativecommons.org/ns#" xmlns:rdf="http://www.w3.org/1999/02/22-rdf-syntax-ns#">
   <cc:Work>
    <dc:type rdf:resource="http://purl.org/dc/dcmitype/StillImage"/>
    <dc:date>2024-05-07T19:10:02.405884</dc:date>
    <dc:format>image/svg+xml</dc:format>
    <dc:creator>
     <cc:Agent>
      <dc:title>Matplotlib v3.7.0, https://matplotlib.org/</dc:title>
     </cc:Agent>
    </dc:creator>
   </cc:Work>
  </rdf:RDF>
 </metadata>
 <defs>
  <style type="text/css">*{stroke-linejoin: round; stroke-linecap: butt}</style>
 </defs>
 <g id="figure_1">
  <g id="patch_1">
   <path d="M 0 135.36 
L 843.84 135.36 
L 843.84 0 
L 0 0 
L 0 135.36 
z
" style="fill: none"/>
  </g>
  <g id="axes_1">
   <g id="patch_2">
    <path d="M 41.316477 118.915181 
L 841.005354 118.915181 
L 841.005354 4.331527 
L 41.316477 4.331527 
L 41.316477 118.915181 
z
" style="fill: none"/>
   </g>
   <g id="line2d_1">
    <path d="M 63.949181 14.559043 
L 64.741325 14.669026 
L 65.571191 15.019643 
L 66.438778 15.641919 
L 67.381808 16.61101 
L 68.400279 17.993296 
L 69.531914 19.92606 
L 70.776713 22.514609 
L 72.172397 25.959402 
L 73.718965 30.391659 
L 75.49186 36.175422 
L 77.566524 43.733509 
L 80.244728 54.397286 
L 89.146925 90.577123 
L 91.221589 97.707337 
L 92.994484 103.038712 
L 94.541052 107.019097 
L 95.936736 110.016806 
L 97.181535 112.180221 
L 98.275449 113.664831 
L 99.29392 114.685262 
L 100.199229 115.293252 
L 101.029094 115.600163 
L 101.821239 115.668255 
L 102.613384 115.516398 
L 103.443249 115.122131 
L 104.310836 114.45468 
L 105.253866 113.437292 
L 106.272337 112.004121 
L 107.403973 110.016806 
L 108.648771 107.371225 
L 110.044455 103.866927 
L 111.628744 99.258177 
L 113.43936 93.269384 
L 115.589467 85.339759 
L 118.380834 74.120549 
L 126.340002 41.599187 
L 128.52783 33.878762 
L 130.338446 28.261468 
L 131.922735 24.028589 
L 133.35614 20.812557 
L 134.63866 18.468446 
L 135.770295 16.840938 
L 136.788767 15.742206 
L 137.731796 15.041281 
L 138.599383 14.669026 
L 139.391528 14.559043 
L 140.183672 14.669026 
L 141.013538 15.019643 
L 141.881125 15.641919 
L 142.824155 16.61101 
L 143.842626 17.993296 
L 144.974261 19.92606 
L 146.21906 22.514609 
L 147.614744 25.959402 
L 149.161312 30.391659 
L 150.934207 36.175422 
L 153.008871 43.733509 
L 155.687075 54.397286 
L 164.589272 90.577123 
L 166.663936 97.707337 
L 168.436831 103.038712 
L 169.983399 107.019097 
L 171.379083 110.016806 
L 172.623882 112.180221 
L 173.717796 113.664831 
L 174.736267 114.685262 
L 175.641575 115.293252 
L 176.471441 115.600163 
L 177.263586 115.668255 
L 178.055731 115.516398 
L 178.885596 115.122131 
L 179.753183 114.45468 
L 180.696213 113.437292 
L 181.714684 112.004121 
L 182.84632 110.016806 
L 184.091118 107.371225 
L 185.486802 103.866927 
L 187.071091 99.258177 
L 188.881707 93.269384 
L 191.031814 85.339759 
L 193.823181 74.120549 
L 201.782349 41.599187 
L 203.970177 33.878762 
L 205.780793 28.261468 
L 207.365082 24.028589 
L 208.798487 20.812557 
L 210.081007 18.468446 
L 211.212642 16.840938 
L 212.231114 15.742206 
L 213.174143 15.041281 
L 214.04173 14.669026 
L 214.833875 14.559043 
L 215.626019 14.669026 
L 216.455885 15.019643 
L 217.323472 15.641919 
L 218.266501 16.61101 
L 219.284973 17.993296 
L 220.416608 19.92606 
L 221.661407 22.514609 
L 223.057091 25.959402 
L 224.603659 30.391659 
L 226.376554 36.175422 
L 228.451218 43.733509 
L 231.129422 54.397286 
L 240.031619 90.577123 
L 242.106283 97.707337 
L 243.879178 103.038712 
L 245.425746 107.020207 
L 246.783709 109.931301 
L 248.028507 112.091439 
L 249.160143 113.625898 
L 250.178614 114.651482 
L 251.121644 115.292655 
L 251.951509 115.602451 
L 252.743654 115.666365 
L 253.498078 115.507254 
L 254.252501 115.123822 
L 255.044646 114.469226 
L 255.912233 113.443889 
L 256.817541 112.018078 
L 257.798291 110.053094 
L 258.892205 107.341506 
L 260.099283 103.724357 
L 261.457245 98.915464 
L 263.041534 92.431001 
L 265.003035 83.385416 
L 268.096172 67.889649 
L 271.981453 48.690055 
L 274.207002 38.809703 
L 276.055339 31.567784 
L 277.639629 26.204377 
L 279.035312 22.218322 
L 280.280111 19.310306 
L 281.374025 17.298737 
L 282.317054 15.995582 
L 283.184641 15.161379 
L 283.939064 14.725417 
L 284.655767 14.562417 
L 285.334748 14.633431 
L 286.05145 14.94457 
L 286.805874 15.531126 
L 287.635739 16.479451 
L 288.541048 17.87139 
L 289.559519 19.868949 
L 290.691155 22.601532 
L 291.973674 26.311172 
L 293.407079 31.159817 
L 295.066811 37.581565 
L 297.103754 46.412737 
L 299.895121 59.618874 
L 305.553297 86.583233 
L 307.665683 95.429352 
L 309.363135 101.639358 
L 310.834261 106.23127 
L 312.116781 109.558259 
L 313.286137 111.996522 
L 314.304609 113.632026 
L 315.209917 114.690454 
L 316.002062 115.304488 
L 316.756485 115.614903 
L 317.435467 115.663948 
L 318.114448 115.494524 
L 318.83115 115.079484 
L 319.585573 114.382702 
L 320.45316 113.256687 
L 321.39619 111.647777 
L 322.452383 109.386018 
L 323.621739 106.34314 
L 324.94198 102.274992 
L 326.450827 96.887038 
L 328.223722 89.700229 
L 330.449271 79.682857 
L 334.070504 62.164296 
L 337.691737 45.007436 
L 339.841844 35.855563 
L 341.614739 29.24457 
L 343.123586 24.442115 
L 344.443827 20.9476 
L 345.613183 18.452465 
L 346.631655 16.764775 
L 347.536963 15.658121 
L 348.366829 14.976642 
L 349.121252 14.637297 
L 349.800233 14.561582 
L 350.479215 14.703785 
L 351.195917 15.089549 
L 351.95034 15.754987 
L 352.780206 16.789911 
L 353.723235 18.342718 
L 354.779428 20.541967 
L 355.948785 23.516635 
L 357.269026 27.509928 
L 358.777873 32.816537 
L 360.550768 39.915829 
L 362.738596 49.664796 
L 366.133501 65.975487 
L 370.131946 84.922381 
L 372.319774 94.217866 
L 374.092669 100.819815 
L 375.601516 105.62543 
L 376.921757 109.132203 
L 378.091113 111.646297 
L 379.147306 113.411601 
L 380.090336 114.567031 
L 380.920201 115.247689 
L 381.674625 115.589669 
L 382.391327 115.668774 
L 383.070308 115.522564 
L 383.787011 115.135623 
L 384.541434 114.472388 
L 385.3713 113.443988 
L 386.314329 111.90377 
L 387.370522 109.724992 
L 388.539879 106.78044 
L 389.86012 102.829722 
L 391.368967 97.581258 
L 393.141862 90.559938 
L 395.32969 80.914529 
L 398.649153 65.121316 
L 402.836203 45.419674 
L 405.024031 36.189402 
L 406.796926 29.619571 
L 408.343495 24.713083 
L 409.663736 21.217035 
L 410.833092 18.700141 
L 411.889285 16.921739 
L 412.832314 15.74585 
L 413.66218 15.04026 
L 414.416604 14.669999 
L 415.133306 14.559138 
L 415.812287 14.670967 
L 416.528989 15.017227 
L 417.283413 15.632979 
L 418.113279 16.603956 
L 419.056308 18.072872 
L 420.112501 20.165068 
L 421.281857 23.00694 
L 422.602098 26.835463 
L 424.110945 31.939985 
L 425.846119 38.638708 
L 427.958505 47.734089 
L 430.976199 61.8236 
L 435.955394 85.072163 
L 438.143222 94.179825 
L 439.916117 100.665145 
L 441.462685 105.514347 
L 442.820647 109.065632 
L 444.027725 111.618594 
L 445.083918 113.35941 
L 446.026947 114.510302 
L 446.856813 115.20091 
L 447.611236 115.563418 
L 448.327938 115.672162 
L 449.044641 115.550954 
L 449.761343 115.200507 
L 450.553488 114.548606 
L 451.421075 113.52036 
L 452.364104 112.038233 
L 453.420297 109.942112 
L 454.589653 107.108748 
L 455.909894 103.304934 
L 457.418741 98.246055 
L 459.153915 91.618619 
L 461.266301 82.628796 
L 464.283995 68.702683 
L 469.414074 45.008047 
L 471.601903 36.006932 
L 473.412519 29.463832 
L 474.959087 24.676433 
L 476.317049 21.165363 
L 477.524127 18.635656 
L 478.58032 16.904823 
L 479.523349 15.754349 
L 480.390936 15.032779 
L 481.183081 14.659895 
L 481.899783 14.559372 
L 482.616485 14.68421 
L 483.333187 15.033722 
L 484.125332 15.679358 
L 484.992919 16.694613 
L 485.935948 18.155662 
L 486.992141 20.220132 
L 488.161498 23.00948 
L 489.481739 26.753861 
L 490.990586 31.734885 
L 492.72576 38.2643 
L 494.838145 47.131077 
L 497.780397 60.543573 
L 503.249967 85.578138 
L 505.437795 94.467214 
L 507.248411 100.926342 
L 508.79498 105.652525 
L 510.152942 109.120083 
L 511.360019 111.620364 
L 512.416212 113.333206 
L 513.359242 114.474027 
L 514.226829 115.19218 
L 515.018973 115.56655 
L 515.735675 115.672184 
L 516.452378 115.555981 
L 517.206801 115.194681 
L 517.998946 114.553554 
L 518.866533 113.547899 
L 519.809562 112.10255 
L 520.865755 110.061727 
L 522.035111 107.305286 
L 523.355353 103.605315 
L 524.864199 98.682391 
L 526.599373 92.225989 
L 528.711759 83.450661 
L 531.61629 70.329786 
L 537.349908 44.271332 
L 539.537736 35.476214 
L 541.310631 29.215206 
L 542.857199 24.528532 
L 544.215161 21.088108 
L 545.422239 18.605272 
L 546.478432 16.902188 
L 547.421461 15.765584 
L 548.289048 15.047515 
L 549.081193 14.670052 
L 549.835616 14.559283 
L 550.552319 14.679267 
L 551.306742 15.041985 
L 552.098887 15.681829 
L 552.966474 16.682926 
L 553.909503 18.119757 
L 554.965696 20.146934 
L 556.135052 22.883705 
L 557.455293 26.556526 
L 558.96414 31.443374 
L 560.699314 37.853913 
L 562.773979 46.408483 
L 565.640788 59.270325 
L 571.600733 86.236259 
L 573.788561 94.968289 
L 575.561457 101.179243 
L 577.108025 105.824996 
L 578.465987 109.232693 
L 579.673065 111.689581 
L 580.729257 113.372732 
L 581.672287 114.49391 
L 582.539874 115.199869 
L 583.332018 115.568068 
L 584.086442 115.671633 
L 584.803144 115.546274 
L 585.557568 115.179438 
L 586.349712 114.536943 
L 587.217299 113.534865 
L 588.160329 112.099155 
L 589.216521 110.075782 
L 590.423599 107.249809 
L 591.74384 103.571322 
L 593.252687 98.683456 
L 594.987861 92.278101 
L 597.100247 83.574552 
L 599.967056 70.729162 
L 605.88928 44.000006 
L 608.077108 35.284944 
L 609.850003 29.082948 
L 611.396571 24.440893 
L 612.754534 21.033033 
L 613.961611 18.573241 
L 615.055525 16.833388 
L 615.998555 15.720947 
L 616.866142 15.021953 
L 617.658286 14.65919 
L 618.41271 14.559973 
L 619.129412 14.688711 
L 619.883835 15.058319 
L 620.67598 15.702871 
L 621.543567 16.706227 
L 622.524318 18.207002 
L 623.58051 20.244716 
L 624.787588 23.084628 
L 626.14555 26.889294 
L 627.692118 31.922649 
L 630.106273 40.609586 
L 633.123967 52.344852 
L 638.291768 73.532933 
L 641.837558 87.600892 
L 644.13855 95.863892 
L 646.024609 101.83855 
L 647.608898 106.16207 
L 649.004581 109.367523 
L 650.24938 111.70528 
L 651.381015 113.378199 
L 652.399487 114.501069 
L 653.304795 115.187422 
L 654.134661 115.555383 
L 654.926806 115.672236 
L 655.71895 115.5602 
L 656.511095 115.220499 
L 657.340961 114.622999 
L 658.246269 113.693823 
L 659.264741 112.310873 
L 660.396376 110.369326 
L 661.641174 107.764634 
L 663.036858 104.29778 
L 664.583426 99.840722 
L 666.356321 94.032486 
L 668.468707 86.30962 
L 671.14691 75.618936 
L 680.049107 39.371132 
L 682.123772 32.224999 
L 683.896667 26.889557 
L 685.443235 22.918325 
L 686.801197 20.015323 
L 688.008275 17.927548 
L 689.102189 16.456204 
L 690.082939 15.488571 
L 690.988247 14.896726 
L 691.818113 14.611589 
L 692.610258 14.570472 
L 693.402403 14.75519 
L 694.232268 15.189878 
L 695.099855 15.905639 
L 696.042885 16.981752 
L 697.099078 18.5467 
L 698.268434 20.706955 
L 699.550954 23.567137 
L 700.984358 27.329224 
L 702.606369 32.236244 
L 704.492428 38.689047 
L 706.755698 47.270047 
L 709.886555 60.09699 
L 715.997385 85.264174 
L 718.336098 93.870332 
L 720.259878 100.151797 
L 721.91961 104.856351 
L 723.390735 108.393403 
L 724.710977 111.013124 
L 725.880333 112.867063 
L 726.936526 114.148531 
L 727.879555 114.968384 
L 728.747142 115.447569 
L 729.577008 115.656781 
L 730.369153 115.628381 
L 731.161297 115.377522 
L 731.991163 114.8777 
L 732.896471 114.05926 
L 733.877222 112.857206 
L 734.971136 111.140564 
L 736.178213 108.804858 
L 737.498454 105.748896 
L 738.96958 101.771572 
L 740.629312 96.62885 
L 742.553092 89.915673 
L 744.929525 80.765114 
L 748.437595 66.250283 
L 753.341347 46.078004 
L 755.755502 37.105918 
L 757.717003 30.632319 
L 759.414456 25.766079 
L 760.923303 22.097304 
L 762.243544 19.442178 
L 763.450622 17.496902 
L 764.506815 16.188834 
L 765.487565 15.312921 
L 766.392873 14.799148 
L 767.222739 14.579391 
L 768.014884 14.594796 
L 768.807028 14.830078 
L 769.636894 15.311265 
L 770.542202 16.107386 
L 771.522953 17.284002 
L 772.579146 18.907632 
L 773.748502 21.121497 
L 775.068743 24.120988 
L 776.539869 28.044801 
L 778.1996 33.13567 
L 780.12338 39.792881 
L 782.462093 48.741809 
L 785.819278 62.579041 
L 791.100242 84.320679 
L 793.514397 93.274084 
L 795.475898 99.728463 
L 797.173351 104.575584 
L 798.644477 108.142569 
L 799.964718 110.795764 
L 801.171795 112.739358 
L 802.227988 114.046031 
L 803.208739 114.920717 
L 804.114047 115.433424 
L 804.943912 115.65226 
L 805.736057 115.636027 
L 806.528202 115.39997 
L 807.358068 114.918028 
L 808.263376 114.121151 
L 809.244126 112.943796 
L 810.300319 111.319461 
L 811.469676 109.104926 
L 812.789917 106.104814 
L 814.261042 102.180471 
L 815.920774 97.0892 
L 817.844554 90.431758 
L 818.37265 88.483127 
L 818.37265 88.483127 
" clip-path="url(#pda8df4b18e)" style="fill: none; stroke: #009afa; stroke-width: 6"/>
   </g>
   <g id="matplotlib.axis_1">
    <g id="xtick_1"/>
    <g id="xtick_2"/>
    <g id="xtick_3"/>
    <g id="xtick_4"/>
    <g id="xtick_5"/>
   </g>
   <g id="matplotlib.axis_2">
    <g id="ytick_1">
     <g id="line2d_2">
      <defs>
       <path id="ma924f95a2b" d="M 0 0 
L 5 0 
" style="stroke: #000000"/>
      </defs>
      <g>
       <use xlink:href="#ma924f95a2b" x="41.316477" y="115.672247" style="stroke: #000000"/>
      </g>
     </g>
     <g id="text_1">
      <!-- $-1$ -->
      <g transform="translate(1.976477 126.31006) scale(0.28 -0.28)">
       <defs>
        <path id="Cmsy10-a1" d="M 653 1472 
Q 600 1472 565 1512 
Q 531 1553 531 1600 
Q 531 1647 565 1687 
Q 600 1728 653 1728 
L 4325 1728 
Q 4375 1728 4408 1687 
Q 4441 1647 4441 1600 
Q 4441 1553 4408 1512 
Q 4375 1472 4325 1472 
L 653 1472 
z
" transform="scale(0.015625)"/>
        <path id="Cmr10-31" d="M 594 0 
L 594 225 
Q 1394 225 1394 428 
L 1394 3788 
Q 1063 3628 556 3628 
L 556 3853 
Q 1341 3853 1741 4263 
L 1831 4263 
Q 1853 4263 1873 4245 
Q 1894 4228 1894 4206 
L 1894 428 
Q 1894 225 2694 225 
L 2694 0 
L 594 0 
z
" transform="scale(0.015625)"/>
       </defs>
       <use xlink:href="#Cmsy10-a1" transform="translate(0 0.390625)"/>
       <use xlink:href="#Cmr10-31" transform="translate(77.685547 0.390625)"/>
      </g>
     </g>
    </g>
    <g id="ytick_2">
     <g id="line2d_3">
      <g>
       <use xlink:href="#ma924f95a2b" x="41.316477" y="65.115645" style="stroke: #000000"/>
      </g>
     </g>
     <g id="text_2">
      <!-- $0$ -->
      <g transform="translate(23.816477 75.753457) scale(0.28 -0.28)">
       <defs>
        <path id="Cmr10-30" d="M 1600 -141 
Q 816 -141 533 504 
Q 250 1150 250 2041 
Q 250 2597 351 3087 
Q 453 3578 754 3920 
Q 1056 4263 1600 4263 
Q 2022 4263 2290 4056 
Q 2559 3850 2700 3523 
Q 2841 3197 2892 2823 
Q 2944 2450 2944 2041 
Q 2944 1491 2842 1011 
Q 2741 531 2444 195 
Q 2147 -141 1600 -141 
z
M 1600 25 
Q 1956 25 2131 390 
Q 2306 756 2347 1200 
Q 2388 1644 2388 2144 
Q 2388 2625 2347 3031 
Q 2306 3438 2132 3767 
Q 1959 4097 1600 4097 
Q 1238 4097 1063 3765 
Q 888 3434 847 3029 
Q 806 2625 806 2144 
Q 806 1788 823 1472 
Q 841 1156 916 820 
Q 991 484 1158 254 
Q 1325 25 1600 25 
z
" transform="scale(0.015625)"/>
       </defs>
       <use xlink:href="#Cmr10-30" transform="translate(0 0.390625)"/>
      </g>
     </g>
    </g>
    <g id="ytick_3">
     <g id="line2d_4">
      <g>
       <use xlink:href="#ma924f95a2b" x="41.316477" y="14.559043" style="stroke: #000000"/>
      </g>
     </g>
     <g id="text_3">
      <!-- $1$ -->
      <g transform="translate(23.816477 25.196855) scale(0.28 -0.28)">
       <use xlink:href="#Cmr10-31" transform="translate(0 0.390625)"/>
      </g>
     </g>
    </g>
   </g>
   <g id="line2d_5">
    <path d="M 63.949181 14.559043 
L 64.665883 14.667982 
L 65.420307 15.017506 
L 66.212451 15.641919 
L 67.080038 16.624469 
L 68.023068 18.039477 
L 69.07926 20.040575 
L 70.248617 22.747057 
L 71.568858 26.384772 
L 73.077705 31.23163 
L 74.812879 37.598309 
L 76.887543 46.106471 
L 79.67891 58.574427 
L 85.940625 86.828245 
L 88.090732 95.343689 
L 89.863627 101.498954 
L 91.410195 106.091352 
L 92.768157 109.449305 
L 93.975235 111.860241 
L 95.031428 113.502207 
L 95.974457 114.586098 
L 96.842044 115.25751 
L 97.634189 115.594106 
L 98.350891 115.669692 
L 99.067593 115.527412 
L 99.822017 115.142961 
L 100.614161 114.482242 
L 101.481748 113.460584 
L 102.462499 111.938506 
L 103.556413 109.795832 
L 104.763491 106.912165 
L 106.121453 103.059711 
L 107.668021 97.961607 
L 109.440916 91.314387 
L 111.591023 82.345649 
L 114.646438 68.543703 
L 119.85196 45.008048 
L 122.077509 36.03234 
L 123.888125 29.603353 
L 125.434694 24.87783 
L 126.792656 21.390696 
L 127.999733 18.856969 
L 129.093647 17.048204 
L 130.074398 15.836213 
L 130.941985 15.095227 
L 131.73413 14.694426 
L 132.488553 14.559464 
L 133.205255 14.654855 
L 133.959679 14.99018 
L 134.751823 15.599826 
L 135.61941 16.566459 
L 136.56244 17.964585 
L 137.618633 19.947444 
L 138.787989 22.634756 
L 140.10823 26.252386 
L 141.617077 31.078673 
L 143.352251 37.425326 
L 145.426916 45.915304 
L 148.218282 58.369741 
L 154.555439 86.957249 
L 156.705546 95.458149 
L 158.478442 101.59806 
L 159.987288 106.072737 
L 161.345251 109.434028 
L 162.552328 111.84813 
L 163.608521 113.492991 
L 164.55155 114.579539 
L 165.419137 115.253439 
L 166.211282 115.59233 
L 166.927984 115.670002 
L 167.644687 115.529805 
L 168.39911 115.147536 
L 169.191255 114.489084 
L 170.058842 113.469867 
L 171.039592 111.950478 
L 172.133506 109.810688 
L 173.340584 106.930029 
L 174.698546 103.080696 
L 176.245114 97.985749 
L 178.018009 91.341549 
L 180.168116 82.375509 
L 183.223531 68.575395 
L 188.429053 45.037197 
L 190.654602 36.058329 
L 192.465219 29.625969 
L 194.011787 24.89707 
L 195.40747 21.319113 
L 196.614548 18.799478 
L 197.708462 17.004096 
L 198.689212 15.804483 
L 199.556799 15.074664 
L 200.348944 14.684174 
L 201.103368 14.559083 
L 201.82007 14.663853 
L 202.574493 15.009009 
L 203.366638 15.62888 
L 204.234225 16.606534 
L 205.177254 18.016349 
L 206.233447 20.01184 
L 207.402804 22.712427 
L 208.723045 26.343969 
L 210.231892 31.184506 
L 211.967066 37.545034 
L 214.04173 46.047616 
L 216.833097 58.511435 
L 223.132533 86.928597 
L 225.28264 95.432734 
L 227.055535 101.576062 
L 228.564382 106.054106 
L 229.922344 109.418733 
L 231.129422 111.836002 
L 232.185614 113.483756 
L 233.128644 114.572961 
L 233.996231 115.249349 
L 234.788375 115.590535 
L 235.542799 115.668453 
L 236.259501 115.51888 
L 237.013925 115.126795 
L 237.806069 114.458143 
L 238.673656 113.427942 
L 239.654407 111.89646 
L 240.748321 109.7437 
L 241.955398 106.849514 
L 243.313361 102.986148 
L 244.859929 97.877009 
L 246.632824 91.219236 
L 248.782931 82.241083 
L 251.876067 68.258417 
L 257.006147 45.066354 
L 259.231696 36.08433 
L 261.042312 29.6486 
L 262.626601 24.810615 
L 263.984564 21.33499 
L 265.191641 18.812222 
L 266.285555 17.013865 
L 267.266306 15.8115 
L 268.133893 15.079199 
L 268.926037 14.686417 
L 269.680461 14.559132 
L 270.397163 14.661819 
L 271.151587 15.00479 
L 271.943731 15.622389 
L 272.811318 16.597595 
L 273.754348 18.004814 
L 274.810541 19.997498 
L 275.979897 22.695138 
L 277.300138 26.32359 
L 278.808985 31.160964 
L 280.544159 37.518413 
L 282.618823 46.0182 
L 285.41019 58.479943 
L 291.709626 86.899935 
L 293.859733 95.407308 
L 295.632628 101.554049 
L 297.179196 106.137818 
L 298.537159 109.48742 
L 299.744236 111.890435 
L 300.800429 113.525164 
L 301.743458 114.60241 
L 302.611045 115.267599 
L 303.40319 115.598457 
L 304.119892 115.668832 
L 304.836595 115.521343 
L 305.591018 115.131438 
L 306.383163 114.465053 
L 307.25075 113.437292 
L 308.2315 111.908496 
L 309.325414 109.758617 
L 310.532492 106.867435 
L 311.890454 103.007185 
L 313.437022 97.901196 
L 315.209917 91.246435 
L 317.360024 82.270968 
L 320.45316 68.29012 
L 325.58324 45.095519 
L 327.808789 36.110342 
L 329.619406 29.671244 
L 331.203695 24.8298 
L 332.561657 21.350885 
L 333.768735 18.824984 
L 334.862649 17.023652 
L 335.843399 15.818537 
L 336.710986 15.083754 
L 337.503131 14.68868 
L 338.257554 14.559202 
L 338.974257 14.659804 
L 339.72868 15.000591 
L 340.520825 15.615918 
L 341.388412 16.588675 
L 342.331441 17.993296 
L 343.387634 19.983175 
L 344.55699 22.677865 
L 345.877231 26.303227 
L 347.386078 31.137436 
L 349.121252 37.491803 
L 351.195917 45.988792 
L 353.987284 58.448453 
L 360.324441 87.028843 
L 362.474548 95.521632 
L 364.247443 101.652993 
L 365.75629 106.119243 
L 367.114252 109.472187 
L 368.32133 111.878371 
L 369.377522 113.515996 
L 370.320552 114.5959 
L 371.188139 115.263578 
L 371.980283 115.596731 
L 372.696986 115.669191 
L 373.413688 115.523785 
L 374.168111 115.136062 
L 374.960256 114.471943 
L 375.827843 113.446623 
L 376.808594 111.920514 
L 377.902508 109.773516 
L 379.109585 106.88534 
L 380.467547 103.028207 
L 382.014116 97.92537 
L 383.787011 91.273624 
L 385.937118 82.300845 
L 388.992533 68.496162 
L 394.160333 45.124692 
L 396.385883 36.136365 
L 398.196499 29.693902 
L 399.780788 24.849 
L 401.13875 21.366796 
L 402.345828 18.837764 
L 403.439742 17.033459 
L 404.420493 15.825593 
L 405.28808 15.088328 
L 406.080224 14.690964 
L 406.834648 14.559292 
L 407.55135 14.65781 
L 408.305773 14.996412 
L 409.097918 15.609467 
L 409.965505 16.579774 
L 410.908534 17.981798 
L 411.964727 19.968869 
L 413.134084 22.660609 
L 414.454325 26.282879 
L 415.963172 31.113921 
L 417.698346 37.465204 
L 419.77301 45.959391 
L 422.564377 58.416967 
L 428.901534 87.000212 
L 431.051641 95.496248 
L 432.824536 101.631031 
L 434.333383 106.100653 
L 435.691345 109.456937 
L 436.898423 111.866289 
L 437.954616 113.506808 
L 438.897645 114.58937 
L 439.765232 115.259537 
L 440.557377 115.594986 
L 441.274079 115.66953 
L 441.990781 115.526208 
L 442.745205 115.140667 
L 443.537349 114.478814 
L 444.404936 113.455935 
L 445.385687 111.932513 
L 446.479601 109.788398 
L 447.686679 106.903228 
L 449.044641 103.049214 
L 450.591209 97.949532 
L 452.364104 91.300802 
L 454.514211 82.330716 
L 457.569626 68.527856 
L 462.775148 44.993476 
L 465.000697 36.01935 
L 466.811313 29.59205 
L 468.357882 24.868216 
L 469.715844 21.382725 
L 470.922921 18.850563 
L 472.016835 17.043285 
L 472.997586 15.832668 
L 473.865173 15.092923 
L 474.657318 14.693267 
L 475.411741 14.559402 
L 476.128443 14.655835 
L 476.882867 14.992253 
L 477.675011 15.603035 
L 478.542598 16.570893 
L 479.485628 17.970318 
L 480.541821 19.954582 
L 481.711177 22.643369 
L 483.031418 26.262546 
L 484.540265 31.090419 
L 486.275439 37.438616 
L 488.350104 45.929998 
L 491.14147 58.385482 
L 497.478628 86.971572 
L 499.628734 95.470851 
L 501.40163 101.609054 
L 502.910477 106.082046 
L 504.268439 109.441668 
L 505.475516 111.854188 
L 506.531709 113.497602 
L 507.474738 114.582821 
L 508.342325 115.255477 
L 509.13447 115.59322 
L 509.851172 115.66985 
L 510.567875 115.528611 
L 511.322298 115.145251 
L 512.114443 114.485666 
L 512.98203 113.465227 
L 513.96278 111.944494 
L 515.056694 109.803262 
L 516.263772 106.921099 
L 517.621734 103.070206 
L 519.168302 97.97368 
L 520.941197 91.327969 
L 523.091304 82.36058 
L 526.146719 68.559549 
L 531.352241 45.022621 
L 533.577791 36.045333 
L 535.388407 29.614659 
L 536.934975 24.887448 
L 538.330658 21.311181 
L 539.537736 18.793113 
L 540.63165 16.999219 
L 541.6124 15.800982 
L 542.479987 15.072404 
L 543.272132 14.683059 
L 544.026556 14.559065 
L 544.743258 14.664878 
L 545.497681 15.011126 
L 546.289826 15.632132 
L 547.157413 16.61101 
L 548.100442 18.022124 
L 549.156635 20.019017 
L 550.325992 22.721078 
L 551.646233 26.354164 
L 553.15508 31.196282 
L 554.890254 37.558349 
L 556.964918 46.062327 
L 559.756285 58.527182 
L 566.055721 86.942924 
L 568.205828 95.445443 
L 569.978723 101.587063 
L 571.48757 106.063423 
L 572.845532 109.426383 
L 574.05261 111.842068 
L 575.108803 113.488376 
L 576.051832 114.576253 
L 576.919419 115.251397 
L 577.711563 115.591435 
L 578.428266 115.670149 
L 579.144968 115.530994 
L 579.899392 115.149816 
L 580.691536 114.492498 
L 581.559123 113.474501 
L 582.539874 111.956456 
L 583.633788 109.818109 
L 584.840865 106.938954 
L 586.198828 103.091183 
L 587.745396 97.997815 
L 589.518291 91.355127 
L 591.668398 82.390437 
L 594.723813 68.59124 
L 599.929335 45.051774 
L 602.154884 36.071328 
L 603.9655 29.637283 
L 605.54979 24.801029 
L 606.907752 21.32705 
L 608.114829 18.805847 
L 609.208743 17.008978 
L 610.189494 15.807989 
L 611.057081 15.076929 
L 611.849225 14.685293 
L 612.603649 14.559105 
L 613.320351 14.662834 
L 614.074775 15.006897 
L 614.866919 15.625632 
L 615.734506 16.602062 
L 616.677536 18.010579 
L 617.733729 20.004667 
L 618.903085 22.70378 
L 620.223326 26.333778 
L 621.732173 31.172733 
L 623.467347 37.531722 
L 625.542011 46.032907 
L 628.333378 58.495689 
L 634.632814 86.914267 
L 636.782921 95.420022 
L 638.555816 101.565057 
L 640.102384 106.147099 
L 641.460347 109.495031 
L 642.667424 111.89646 
L 643.723617 113.529742 
L 644.666646 114.605658 
L 645.534233 115.269602 
L 646.326378 115.599312 
L 647.04308 115.668645 
L 647.759783 115.520114 
L 648.514206 115.129119 
L 649.306351 114.4616 
L 650.173938 113.43262 
L 651.154688 111.90248 
L 652.248602 109.751161 
L 653.45568 106.858477 
L 654.813642 102.996668 
L 656.36021 97.889104 
L 658.133105 91.232837 
L 660.283212 82.256026 
L 663.376348 68.274269 
L 668.506428 45.080935 
L 670.731977 36.097334 
L 672.542594 29.65992 
L 674.126883 24.820205 
L 675.484845 21.342935 
L 676.691923 18.8186 
L 677.785837 17.018756 
L 678.766587 15.815016 
L 679.634174 15.081474 
L 680.426319 14.687546 
L 681.180742 14.559165 
L 681.897445 14.660809 
L 682.651868 15.002688 
L 683.444013 15.619151 
L 684.3116 16.593132 
L 685.254629 17.999053 
L 686.310822 19.990334 
L 687.480178 22.686499 
L 688.800419 26.313407 
L 690.309266 31.149198 
L 692.04444 37.505107 
L 694.119105 46.003495 
L 696.910472 58.464198 
L 703.209908 86.885602 
L 705.360015 95.39459 
L 707.13291 101.543037 
L 708.679478 106.128533 
L 710.03744 109.479806 
L 711.244518 111.884405 
L 712.30071 113.520583 
L 713.24374 114.599158 
L 714.111327 115.265591 
L 714.903471 115.597597 
L 715.620174 115.669014 
L 716.336876 115.522567 
L 717.091299 115.133753 
L 717.883444 114.4685 
L 718.751031 113.44196 
L 719.731782 111.914507 
L 720.825696 109.766069 
L 722.032773 106.876389 
L 723.390735 103.017697 
L 724.937304 97.913285 
L 726.710199 91.260031 
L 728.860306 82.285907 
L 731.953442 68.305972 
L 737.083521 45.110104 
L 739.309071 36.123352 
L 741.119687 29.682572 
L 742.703976 24.839398 
L 744.061939 21.358838 
L 745.269016 18.831372 
L 746.36293 17.028553 
L 747.343681 15.822062 
L 748.211268 15.086039 
L 749.003412 14.68982 
L 749.757836 14.559245 
L 750.474538 14.658805 
L 751.228961 14.998499 
L 752.021106 15.61269 
L 752.888693 16.584222 
L 753.831722 17.987545 
L 754.887915 19.97602 
L 756.057272 22.669235 
L 757.377513 26.293051 
L 758.88636 31.125676 
L 760.621534 37.478502 
L 762.696198 45.974091 
L 765.487565 58.43271 
L 771.824722 87.014528 
L 773.974829 95.508942 
L 775.747724 101.642014 
L 777.256571 106.10995 
L 778.614533 109.464564 
L 779.821611 111.872332 
L 780.877804 113.511404 
L 781.820833 114.592638 
L 782.68842 115.26156 
L 783.480565 115.595861 
L 784.197267 115.669363 
L 784.913969 115.524999 
L 785.668393 115.138367 
L 786.460537 114.475381 
L 787.328124 113.451281 
L 788.308875 111.926516 
L 789.402789 109.780959 
L 790.609867 106.894286 
L 791.967829 103.038712 
L 793.514397 97.937453 
L 795.287292 91.287214 
L 797.437399 82.315781 
L 800.492814 68.51201 
L 805.698336 44.978907 
L 807.923885 36.006362 
L 809.734502 29.58075 
L 811.28107 24.858606 
L 812.639032 21.374759 
L 813.846109 18.844161 
L 814.940023 17.038369 
L 815.920774 15.829128 
L 816.788361 15.090623 
L 817.580506 14.692113 
L 818.334929 14.559345 
L 818.37265 14.559043 
L 818.37265 14.559043 
" clip-path="url(#pda8df4b18e)" style="fill: none; stroke: #e36f47; stroke-width: 6"/>
   </g>
   <g id="patch_3">
    <path d="M 41.316477 118.915181 
L 41.316477 4.331527 
" style="fill: none; stroke: #000000; stroke-width: 2; stroke-linejoin: miter; stroke-linecap: square"/>
   </g>
   <g id="line2d_6">
    <path d="M 63.949181 14.559043 
L 255.685906 14.449837 
L 259.608908 14.092809 
L 266.775931 13.149203 
L 272.396385 12.544696 
L 282.543381 11.766558 
L 294.010618 11.006665 
L 312.003618 10.024348 
L 331.69407 9.175006 
L 352.704764 8.493041 
L 374.960256 7.995185 
L 398.762317 7.688024 
L 425.129417 7.574863 
L 456.475712 7.671797 
L 500.873533 8.053519 
L 611.811504 9.073979 
L 630.672091 9.306436 
L 652.361766 10.610171 
L 697.589453 12.227989 
L 741.911832 13.191058 
L 775.332791 13.67667 
L 817.052409 14.050384 
L 818.37265 14.05919 
L 818.37265 14.05919 
" clip-path="url(#pda8df4b18e)" style="fill: none; stroke: #3ea44e; stroke-width: 6"/>
   </g>
  </g>
 </g>
 <defs>
  <clipPath id="pda8df4b18e">
   <rect x="41.316477" y="4.331527" width="799.688878" height="114.583653"/>
  </clipPath>
 </defs>
</svg>
