<?xml version="1.0" encoding="utf-8" standalone="no"?>
<!DOCTYPE svg PUBLIC "-//W3C//DTD SVG 1.1//EN"
  "http://www.w3.org/Graphics/SVG/1.1/DTD/svg11.dtd">
<svg xmlns:xlink="http://www.w3.org/1999/xlink" width="881.28pt" height="144pt" viewBox="0 0 881.28 144" xmlns="http://www.w3.org/2000/svg" version="1.1">
 <metadata>
  <rdf:RDF xmlns:dc="http://purl.org/dc/elements/1.1/" xmlns:cc="http://creativecommons.org/ns#" xmlns:rdf="http://www.w3.org/1999/02/22-rdf-syntax-ns#">
   <cc:Work>
    <dc:type rdf:resource="http://purl.org/dc/dcmitype/StillImage"/>
    <dc:date>2024-08-13T15:18:08.949797</dc:date>
    <dc:format>image/svg+xml</dc:format>
    <dc:creator>
     <cc:Agent>
      <dc:title>Matplotlib v3.8.4, https://matplotlib.org/</dc:title>
     </cc:Agent>
    </dc:creator>
   </cc:Work>
  </rdf:RDF>
 </metadata>
 <defs>
  <style type="text/css">*{stroke-linejoin: round; stroke-linecap: butt}</style>
 </defs>
 <g id="figure_1">
  <g id="patch_1">
   <path d="M 0 144 
L 881.28 144 
L 881.28 0 
L 0 0 
L 0 144 
z
" style="fill: none"/>
  </g>
  <g id="axes_1">
   <g id="patch_2">
    <path d="M 41.316477 127.743466 
L 878.445354 127.743466 
L 878.445354 10.496532 
L 41.316477 10.496532 
L 41.316477 127.743466 
z
" style="fill: none"/>
   </g>
   <g id="line2d_1">
    <path d="M 65.008803 13.814842 
L 65.5353 13.923974 
L 66.088121 14.272988 
L 66.693591 14.928974 
L 67.378036 16.010863 
L 68.16778 17.698759 
L 69.062824 20.162693 
L 70.089491 23.674562 
L 71.274108 28.570347 
L 72.642998 35.229802 
L 74.275136 44.335808 
L 76.407445 57.592748 
L 82.830698 98.403783 
L 84.489161 107.080437 
L 85.858051 113.13476 
L 87.042667 117.428328 
L 88.069335 120.367412 
L 88.964378 122.29939 
L 89.727798 123.464907 
L 90.385918 124.104804 
L 90.965064 124.384793 
L 91.49156 124.407925 
L 92.018056 124.210423 
L 92.597202 123.739147 
L 93.228997 122.923977 
L 93.966092 121.581853 
L 94.808486 119.544964 
L 95.756179 116.636785 
L 96.835496 112.575409 
L 98.072762 107.022516 
L 99.546951 99.318957 
L 101.337038 88.707481 
L 103.943194 71.763482 
L 107.997214 45.476784 
L 109.839951 35.011932 
L 111.340465 27.709757 
L 112.604055 22.605217 
L 113.683372 19.100377 
L 114.631066 16.724864 
L 115.447135 15.231619 
L 116.157904 14.360388 
L 116.763375 13.93917 
L 117.316196 13.814842 
L 117.842692 13.928184 
L 118.395513 14.290232 
L 119.000984 14.970739 
L 119.685429 16.093247 
L 120.475173 17.844808 
L 121.370216 20.401891 
L 122.396884 24.046187 
L 123.5815 29.124693 
L 124.95039 36.026877 
L 126.608853 45.610229 
L 128.820137 59.824126 
L 134.453646 96.649345 
L 136.138433 105.911095 
L 137.533648 112.415081 
L 138.718264 116.951024 
L 139.744932 120.067649 
L 140.639975 122.124807 
L 141.403395 123.372693 
L 142.061515 124.064254 
L 142.640661 124.374245 
L 143.167157 124.411759 
L 143.693653 124.216181 
L 144.246474 123.760621 
L 144.878269 122.928548 
L 145.589039 121.601116 
L 146.405108 119.578352 
L 147.352801 116.585904 
L 148.432118 112.384908 
L 149.669384 106.622207 
L 151.117249 98.767234 
L 152.907336 87.758268 
L 155.618791 69.503114 
L 159.225289 45.463801 
L 161.041701 34.841622 
L 162.51589 27.478342 
L 163.753156 22.370832 
L 164.806149 18.895943 
L 165.727517 16.565654 
L 166.517261 15.121992 
L 167.201706 14.296791 
L 167.780852 13.912839 
L 168.307348 13.815997 
L 168.807519 13.947155 
L 169.334015 14.31979 
L 169.939486 15.043926 
L 170.623931 16.238615 
L 171.413675 18.102386 
L 172.308719 20.821647 
L 173.335386 24.693012 
L 174.520003 30.078775 
L 175.915217 37.529809 
L 177.600005 47.812612 
L 179.969238 63.802187 
L 184.444455 94.176243 
L 186.208217 104.4915 
L 187.629757 111.55046 
L 188.840698 116.487617 
L 189.867365 119.802188 
L 190.762409 121.990234 
L 191.525828 123.316176 
L 192.183948 124.048832 
L 192.736769 124.366039 
L 193.236941 124.41664 
L 193.737112 124.242183 
L 194.263608 123.815938 
L 194.869079 123.020316 
L 195.553524 121.732849 
L 196.343268 119.747452 
L 197.264636 116.779481 
L 198.317628 112.577795 
L 199.52857 106.772068 
L 200.950109 98.806915 
L 202.713871 87.576574 
L 205.425327 68.660468 
L 208.847551 45.103822 
L 210.611314 34.479843 
L 212.032853 27.187629 
L 213.243794 22.07601 
L 214.270462 18.637808 
L 215.165505 16.363745 
L 215.928925 14.982282 
L 216.587045 14.215808 
L 217.139866 13.880596 
L 217.640037 13.822051 
L 218.140209 13.996553 
L 218.666705 14.431462 
L 219.272175 15.247847 
L 219.95662 16.572362 
L 220.746364 18.617614 
L 221.641408 21.579753 
L 222.6944 25.889295 
L 223.905341 31.848282 
L 225.326881 40.021895 
L 227.116968 51.710412 
L 229.986372 72.170647 
L 233.04005 93.453442 
L 234.777487 104.058114 
L 236.172702 111.293179 
L 237.357318 116.337456 
L 238.383985 119.788666 
L 239.252704 121.98955 
L 240.016124 123.353379 
L 240.647919 124.067306 
L 241.20074 124.379045 
L 241.700911 124.407575 
L 242.174758 124.212039 
L 242.701254 123.741485 
L 243.306724 122.873315 
L 243.991169 121.476969 
L 244.780914 119.332494 
L 245.702282 116.137699 
L 246.755274 111.630163 
L 247.966215 105.425503 
L 249.41408 96.786735 
L 251.256816 84.348633 
L 254.994939 57.109714 
L 257.285197 41.41923 
L 258.89101 31.859233 
L 260.207251 25.274889 
L 261.339218 20.687197 
L 262.313235 17.623611 
L 263.129304 15.728767 
L 263.840074 14.597865 
L 264.445545 14.024934 
L 264.972041 13.822354 
L 265.445888 13.876384 
L 265.946059 14.176358 
L 266.49888 14.796853 
L 267.130675 15.873546 
L 267.86777 17.615676 
L 268.710164 20.227106 
L 269.684182 24.030014 
L 270.789823 29.286615 
L 272.106064 36.692523 
L 273.711877 47.095287 
L 275.949486 63.219187 
L 280.319404 94.93502 
L 281.977867 105.211699 
L 283.320432 112.222075 
L 284.452399 117.030721 
L 285.426416 120.264982 
L 286.26881 122.339609 
L 286.97958 123.546026 
L 287.585051 124.170985 
L 288.111547 124.409193 
L 288.585393 124.379386 
L 289.05924 124.118101 
L 289.585736 123.55738 
L 290.191207 122.564043 
L 290.901976 120.930677 
L 291.718045 118.45154 
L 292.665738 114.801134 
L 293.745056 109.708017 
L 295.008646 102.622053 
L 296.56181 92.551527 
L 298.667795 77.275835 
L 303.485234 41.842259 
L 305.091048 31.928685 
L 306.380963 25.258319 
L 307.486605 20.637656 
L 308.434298 17.572982 
L 309.250367 15.641448 
L 309.934812 14.546675 
L 310.513958 14.00321 
L 311.014129 13.819645 
L 311.461651 13.880997 
L 311.935498 14.178152 
L 312.461994 14.787122 
L 313.067464 15.846426 
L 313.778234 17.570615 
L 314.594303 20.170155 
L 315.541996 23.978729 
L 316.647638 29.41104 
L 317.937554 36.931653 
L 319.517042 47.535996 
L 321.754651 64.233765 
L 325.808671 94.601489 
L 327.467134 105.226485 
L 328.783374 112.306774 
L 329.889016 117.130576 
L 330.836709 120.351128 
L 331.652778 122.399827 
L 332.337223 123.578891 
L 332.916369 124.182855 
L 333.41654 124.410259 
L 333.864062 124.381309 
L 334.337909 124.111297 
L 334.864405 123.523751 
L 335.469875 122.477705 
L 336.15432 120.826957 
L 336.970389 118.229483 
L 337.891758 114.514643 
L 338.971075 109.188585 
L 340.234666 101.775392 
L 341.787829 91.256134 
L 343.972788 74.760283 
L 348.132108 43.166387 
L 349.737921 32.780352 
L 351.054161 25.648206 
L 352.159803 20.821932 
L 353.107496 17.632018 
L 353.897241 15.688207 
L 354.581686 14.550738 
L 355.160831 13.994403 
L 355.634678 13.81945 
L 356.0822 13.88687 
L 356.556046 14.204506 
L 357.082542 14.85297 
L 357.688013 15.978924 
L 358.398783 17.809096 
L 359.214852 20.564556 
L 360.162545 24.594836 
L 361.268187 30.330435 
L 362.584427 38.419438 
L 364.216565 49.941259 
L 366.717422 69.420694 
L 369.902724 93.882618 
L 371.534862 104.735387 
L 372.851102 112.087051 
L 373.956744 117.079365 
L 374.904437 120.392072 
L 375.694181 122.421389 
L 376.378626 123.619073 
L 376.957772 124.215577 
L 377.431619 124.415743 
L 377.87914 124.365669 
L 378.326662 124.083307 
L 378.826833 123.494099 
L 379.405979 122.454743 
L 380.090424 120.741656 
L 380.880168 118.133079 
L 381.801537 114.277342 
L 382.880854 108.736117 
L 384.144444 101.018414 
L 385.723933 89.884812 
L 388.014191 71.948708 
L 391.594365 44.001337 
L 393.226503 33.066384 
L 394.516419 25.837175 
L 395.595736 20.957616 
L 396.517104 17.736617 
L 397.306848 15.717521 
L 397.964968 14.579995 
L 398.517789 14.016483 
L 398.991636 13.821805 
L 399.412833 13.873274 
L 399.860354 14.159465 
L 400.360526 14.760276 
L 400.939672 15.822544 
L 401.624117 17.575316 
L 402.413861 20.245577 
L 403.335229 24.192534 
L 404.414546 29.862388 
L 405.678137 37.751582 
L 407.257625 49.112338 
L 409.626858 67.993927 
L 412.917459 93.984422 
L 414.523272 104.923529 
L 415.813188 112.282146 
L 416.892505 117.242963 
L 417.813873 120.509531 
L 418.603617 122.548269 
L 419.261738 123.687693 
L 419.814559 124.242382 
L 420.288405 124.421889 
L 420.709602 124.351075 
L 421.157124 124.038382 
L 421.657295 123.400877 
L 422.236441 122.287171 
L 422.920886 120.461982 
L 423.71063 117.694062 
L 424.631998 113.617025 
L 425.711315 107.778289 
L 427.001231 99.497823 
L 428.607044 87.649549 
L 431.186875 66.678636 
L 434.029955 44.072286 
L 435.635768 33.034079 
L 436.899359 25.779386 
L 437.978676 20.802223 
L 438.900044 17.550322 
L 439.663463 15.601005 
L 440.321584 14.485002 
L 440.84808 13.977016 
L 441.295601 13.817199 
L 441.716798 13.896023 
L 442.16432 14.223163 
L 442.664491 14.883934 
L 443.243637 16.03367 
L 443.928082 17.913402 
L 444.717826 20.758994 
L 445.639195 24.943924 
L 446.718512 30.92756 
L 448.008427 39.397063 
L 449.640565 51.692264 
L 452.430995 74.74724 
L 454.984501 95.107103 
L 456.537665 105.793859 
L 457.801256 113.019606 
L 458.854248 117.820917 
L 459.749291 120.927925 
L 460.512711 122.822533 
L 461.144506 123.843829 
L 461.671002 124.308654 
L 462.118524 124.424863 
L 462.539721 124.299357 
L 462.987243 123.916855 
L 463.513739 123.140393 
L 464.11921 121.817147 
L 464.829979 119.690786 
L 465.672373 116.401848 
L 466.646391 111.627025 
L 467.778358 104.90189 
L 469.147248 95.355928 
L 470.963659 80.984049 
L 476.254946 38.099707 
L 477.650161 29.067228 
L 478.808452 22.943002 
L 479.78247 18.91564 
L 480.598539 16.404126 
L 481.282984 14.936857 
L 481.86213 14.164655 
L 482.335976 13.857968 
L 482.757173 13.832745 
L 483.17837 14.040675 
L 483.652217 14.552366 
L 484.205038 15.517698 
L 484.836833 17.098289 
L 485.573928 19.566869 
L 486.442646 23.298407 
L 487.469314 28.767808 
L 488.680255 36.515381 
L 490.180769 47.672963 
L 492.339403 65.595268 
L 495.866927 94.838142 
L 497.420091 105.79647 
L 498.657357 113.036199 
L 499.684024 117.825205 
L 500.552743 120.913663 
L 501.289838 122.794521 
L 501.921633 123.844991 
L 502.448129 124.315806 
L 502.869326 124.424944 
L 503.264198 124.310605 
L 503.71172 123.927953 
L 504.211891 123.184148 
L 504.817362 121.843399 
L 505.528132 119.669179 
L 506.344201 116.406162 
L 507.291894 111.65532 
L 508.423861 104.765759 
L 509.79275 94.961273 
L 511.609162 80.197236 
L 516.584551 38.850733 
L 517.979766 29.504565 
L 519.138057 23.167032 
L 520.112075 19.006296 
L 520.928144 16.421187 
L 521.612589 14.921498 
L 522.191735 14.143684 
L 522.665581 13.847557 
L 523.086778 13.8432 
L 523.507975 14.08271 
L 523.981822 14.642516 
L 524.534643 15.680309 
L 525.192763 17.445645 
L 525.956182 20.191252 
L 526.851226 24.313517 
L 527.904218 30.304851 
L 529.141484 38.707482 
L 530.720972 51.08383 
L 533.353453 73.817354 
L 535.90696 95.164156 
L 537.433798 106.122388 
L 538.644739 113.304524 
L 539.671407 118.125795 
L 540.540126 121.191675 
L 541.250895 122.963198 
L 541.856366 123.929538 
L 542.356537 124.343749 
L 542.777734 124.420573 
L 543.172606 124.266194 
L 543.620128 123.826993 
L 544.146624 122.953633 
L 544.752095 121.480065 
L 545.462865 119.127367 
L 546.305258 115.507505 
L 547.279276 110.279308 
L 548.437568 102.774308 
L 549.859107 92.012931 
L 551.886118 74.76185 
L 555.67689 42.325138 
L 557.177404 31.552299 
L 558.36202 24.549945 
L 559.362363 19.880398 
L 560.204757 16.929234 
L 560.915527 15.181609 
L 561.494672 14.278102 
L 561.968519 13.893089 
L 562.389716 13.820784 
L 562.784588 13.984248 
L 563.23211 14.439357 
L 563.758606 15.338889 
L 564.364076 16.852116 
L 565.074846 19.263539 
L 565.91724 22.968123 
L 566.891258 28.311014 
L 568.049549 35.968276 
L 569.497414 47.140813 
L 571.577074 65.133694 
L 575.051948 95.199035 
L 576.552462 106.188987 
L 577.737079 113.352675 
L 578.737421 118.142398 
L 579.579815 121.178758 
L 580.290585 122.984743 
L 580.869731 123.925655 
L 581.369902 124.347209 
L 581.791099 124.418543 
L 582.185971 124.249329 
L 582.633493 123.782086 
L 583.159989 122.860795 
L 583.765459 121.312919 
L 584.476229 118.848502 
L 585.318623 115.065744 
L 586.292641 109.615334 
L 587.450933 101.813646 
L 588.898797 90.450976 
L 591.031106 71.73498 
L 594.295382 43.228028 
L 595.795897 32.105866 
L 596.980513 24.866268 
L 597.980856 20.038897 
L 598.823249 16.992541 
L 599.534019 15.194695 
L 600.113165 14.271942 
L 600.587011 13.886055 
L 600.981884 13.820405 
L 601.376756 13.987912 
L 601.797953 14.422928 
L 602.298124 15.280492 
L 602.903595 16.806105 
L 603.614364 19.259061 
L 604.430433 22.915846 
L 605.404451 28.367949 
L 606.562743 36.206936 
L 608.010607 47.659527 
L 610.142917 66.559123 
L 613.380868 95.110055 
L 614.855057 106.138979 
L 616.039673 113.442217 
L 617.040016 118.29539 
L 617.88241 121.34098 
L 618.566855 123.068494 
L 619.146001 123.988047 
L 619.619847 124.363755 
L 620.014719 124.415737 
L 620.409591 124.229899 
L 620.830788 123.77029 
L 621.33096 122.87699 
L 621.93643 121.299151 
L 622.6472 118.773387 
L 623.489594 114.884271 
L 624.463612 109.271718 
L 625.621903 101.235776 
L 627.096093 89.320645 
L 629.360026 68.912719 
L 632.22943 43.432094 
L 633.729944 32.075525 
L 634.91456 24.713674 
L 635.888578 19.950535 
L 636.704647 16.958972 
L 637.389092 15.197996 
L 637.968238 14.260506 
L 638.442085 13.877442 
L 638.836957 13.82445 
L 639.231829 14.013943 
L 639.653026 14.482548 
L 640.153197 15.393256 
L 640.758668 17.001612 
L 641.469437 19.575515 
L 642.311831 23.537158 
L 643.285849 29.250687 
L 644.470466 37.624225 
L 645.944655 49.750623 
L 648.313887 71.401624 
L 650.972693 95.133373 
L 652.446882 106.354292 
L 653.605174 113.595198 
L 654.579192 118.381787 
L 655.395261 121.371786 
L 656.079706 123.115664 
L 656.632527 123.997182 
L 657.106373 124.370965 
L 657.501245 124.411053 
L 657.869793 124.225489 
L 658.290989 123.750609 
L 658.791161 122.825695 
L 659.396631 121.190666 
L 660.107401 118.57295 
L 660.949795 114.543743 
L 661.923813 108.734545 
L 663.108429 100.227151 
L 664.608943 87.691347 
L 667.1098 64.544292 
L 669.558007 42.620852 
L 671.005871 31.565921 
L 672.164163 24.328118 
L 673.111856 19.689435 
L 673.927925 16.723852 
L 674.61237 15.017135 
L 675.165191 14.176699 
L 675.612713 13.854738 
L 675.98126 13.832127 
L 676.349807 14.028855 
L 676.771004 14.521376 
L 677.271176 15.473811 
L 677.876646 17.151269 
L 678.587416 19.830475 
L 679.42981 23.946791 
L 680.430153 30.047762 
L 681.614769 38.740953 
L 683.141608 51.738022 
L 685.932037 77.892533 
L 688.090672 97.093064 
L 689.485886 107.632397 
L 690.617853 114.588736 
L 691.565546 119.100356 
L 692.35529 121.850258 
L 693.01341 123.399246 
L 693.539907 124.136926 
L 693.961104 124.401091 
L 694.329651 124.393071 
L 694.698198 124.161705 
L 695.119395 123.624885 
L 695.645891 122.549351 
L 696.251362 120.767608 
L 696.988456 117.838839 
L 697.83085 113.527793 
L 698.831193 107.194442 
L 700.042134 98.023518 
L 701.621623 84.221735 
L 707.149832 34.266269 
L 708.360773 26.070762 
L 709.361116 20.715226 
L 710.20351 17.329987 
L 710.91428 15.333053 
L 711.493425 14.311452 
L 711.967272 13.888636 
L 712.362144 13.822887 
L 712.730691 13.997101 
L 713.151888 14.473923 
L 713.65206 15.421582 
L 714.231205 17.027352 
L 714.91565 19.60724 
L 715.731719 23.600421 
L 716.705737 29.564898 
L 717.864029 38.128152 
L 719.338218 50.80826 
L 721.865399 74.870601 
L 724.181983 96.093893 
L 725.603522 107.157997 
L 726.735489 114.323472 
L 727.683182 118.97089 
L 728.472926 121.800176 
L 729.131046 123.389161 
L 729.657542 124.140765 
L 730.078739 124.404226 
L 730.447287 124.386903 
L 730.815834 124.138159 
L 731.237031 123.57174 
L 731.763527 122.444985 
L 732.368998 120.585739 
L 733.106092 117.53804 
L 733.974811 112.906567 
L 735.001478 106.124442 
L 736.238744 96.368302 
L 737.897207 81.351589 
L 742.661997 37.089029 
L 743.925588 27.901006 
L 744.952256 21.921785 
L 745.820974 18.065755 
L 746.558069 15.733919 
L 747.163539 14.495333 
L 747.637386 13.962687 
L 748.032258 13.815127 
L 748.400805 13.921346 
L 748.795678 14.296142 
L 749.269524 15.099848 
L 749.822345 16.51841 
L 750.480465 18.864414 
L 751.270209 22.579698 
L 752.191578 28.062648 
L 753.29722 36.076538 
L 754.692434 47.964168 
L 756.798419 68.116107 
L 759.694148 95.500597 
L 761.115687 106.838888 
L 762.247654 114.180491 
L 763.169022 118.81939 
L 763.958767 121.734408 
L 764.616887 123.369026 
L 765.143383 124.139197 
L 765.56458 124.405722 
L 765.933127 124.382413 
L 766.301675 124.119622 
L 766.722871 123.527394 
L 767.249368 122.354142 
L 767.854838 120.422808 
L 768.591933 117.262671 
L 769.460651 112.468821 
L 770.487319 105.463263 
L 771.75091 95.183522 
L 773.462022 79.242746 
L 777.700316 38.970416 
L 779.016557 28.945009 
L 780.069549 22.509538 
L 780.938267 18.444515 
L 781.675362 15.960066 
L 782.280833 14.616219 
L 782.781004 13.993404 
L 783.175876 13.817214 
L 783.518099 13.890705 
L 783.886646 14.204541 
L 784.334168 14.910959 
L 784.860664 16.193006 
L 785.492459 18.359493 
L 786.255879 21.853159 
L 787.150922 27.084905 
L 788.203914 34.632022 
L 789.520155 45.783154 
L 791.415541 63.982151 
L 794.785116 96.444022 
L 796.154006 107.411116 
L 797.259648 114.589301 
L 798.181016 119.192469 
L 798.944436 121.955053 
L 799.576231 123.478077 
L 800.076402 124.178254 
L 800.497599 124.416154 
L 800.839822 124.371368 
L 801.208369 124.084476 
L 801.629566 123.455052 
L 802.156062 122.22134 
L 802.787858 120.100398 
L 803.524952 116.778339 
L 804.393671 111.769087 
L 805.446663 104.282682 
L 806.736579 93.383215 
L 808.55299 75.916061 
L 812.159489 40.932966 
L 813.502054 30.224133 
L 814.581371 23.273208 
L 815.476415 18.846364 
L 816.213509 16.20452 
L 816.845305 14.702797 
L 817.345476 14.028332 
L 817.740348 13.821579 
L 818.082571 13.876042 
L 818.451118 14.177221 
L 818.872315 14.827751 
L 819.398811 16.094763 
L 820.030607 18.265151 
L 820.767701 21.656474 
L 821.63642 26.760526 
L 822.689412 34.374686 
L 823.979328 45.436958 
L 825.822064 63.376625 
L 829.244289 96.856912 
L 830.613179 107.91261 
L 831.692496 114.934502 
L 832.58754 119.399785 
L 833.324634 122.057073 
L 833.930105 123.511498 
L 834.430276 124.202569 
L 834.825148 124.417273 
L 835.167371 124.365963 
L 835.535918 124.064289 
L 835.957115 123.408277 
L 836.483611 122.127193 
L 837.115407 119.929773 
L 837.852501 116.493982 
L 838.72122 111.322062 
L 839.774212 103.608512 
L 841.090453 92.165891 
L 842.985839 73.477761 
L 846.197465 41.809424 
L 847.566355 30.600435 
L 848.645672 23.471541 
L 849.540716 18.933694 
L 850.27781 16.230748 
L 850.883281 14.749588 
L 851.383452 14.04427 
L 851.778324 13.823489 
L 852.120547 13.873269 
L 852.489094 14.177182 
L 852.910291 14.840647 
L 853.436787 16.138224 
L 854.068583 18.365481 
L 854.753028 21.569584 
L 854.753028 21.569584 
" clip-path="url(#p05c5218949)" style="fill: none; stroke: #009afa; stroke-width: 4"/>
   </g>
   <g id="matplotlib.axis_1">
    <g id="xtick_1"/>
    <g id="xtick_2"/>
    <g id="xtick_3"/>
    <g id="xtick_4"/>
   </g>
   <g id="matplotlib.axis_2">
    <g id="ytick_1">
     <g id="line2d_2">
      <defs>
       <path id="md7b1b85019" d="M 0 0 
L 5 0 
" style="stroke: #000000"/>
      </defs>
      <g>
       <use xlink:href="#md7b1b85019" x="41.316477" y="124.425158" style="stroke: #000000"/>
      </g>
     </g>
     <g id="text_1">
      <!-- $-1$ -->
      <g transform="translate(1.976477 135.062971) scale(0.28 -0.28)">
       <defs>
        <path id="Cmsy10-a1" d="M 653 1472 
Q 600 1472 565 1512 
Q 531 1553 531 1600 
Q 531 1647 565 1687 
Q 600 1728 653 1728 
L 4325 1728 
Q 4375 1728 4408 1687 
Q 4441 1647 4441 1600 
Q 4441 1553 4408 1512 
Q 4375 1472 4325 1472 
L 653 1472 
z
" transform="scale(0.015625)"/>
        <path id="Cmr10-31" d="M 594 0 
L 594 225 
Q 1394 225 1394 428 
L 1394 3788 
Q 1063 3628 556 3628 
L 556 3853 
Q 1341 3853 1741 4263 
L 1831 4263 
Q 1853 4263 1873 4245 
Q 1894 4228 1894 4206 
L 1894 428 
Q 1894 225 2694 225 
L 2694 0 
L 594 0 
z
" transform="scale(0.015625)"/>
       </defs>
       <use xlink:href="#Cmsy10-a1" transform="translate(0 0.390625)"/>
       <use xlink:href="#Cmr10-31" transform="translate(77.685547 0.390625)"/>
      </g>
     </g>
    </g>
    <g id="ytick_2">
     <g id="line2d_3">
      <g>
       <use xlink:href="#md7b1b85019" x="41.316477" y="69.12" style="stroke: #000000"/>
      </g>
     </g>
     <g id="text_2">
      <!-- $0$ -->
      <g transform="translate(23.816477 79.757813) scale(0.28 -0.28)">
       <defs>
        <path id="Cmr10-30" d="M 1600 -141 
Q 816 -141 533 504 
Q 250 1150 250 2041 
Q 250 2597 351 3087 
Q 453 3578 754 3920 
Q 1056 4263 1600 4263 
Q 2022 4263 2290 4056 
Q 2559 3850 2700 3523 
Q 2841 3197 2892 2823 
Q 2944 2450 2944 2041 
Q 2944 1491 2842 1011 
Q 2741 531 2444 195 
Q 2147 -141 1600 -141 
z
M 1600 25 
Q 1956 25 2131 390 
Q 2306 756 2347 1200 
Q 2388 1644 2388 2144 
Q 2388 2625 2347 3031 
Q 2306 3438 2132 3767 
Q 1959 4097 1600 4097 
Q 1238 4097 1063 3765 
Q 888 3434 847 3029 
Q 806 2625 806 2144 
Q 806 1788 823 1472 
Q 841 1156 916 820 
Q 991 484 1158 254 
Q 1325 25 1600 25 
z
" transform="scale(0.015625)"/>
       </defs>
       <use xlink:href="#Cmr10-30" transform="translate(0 0.390625)"/>
      </g>
     </g>
    </g>
    <g id="ytick_3">
     <g id="line2d_4">
      <g>
       <use xlink:href="#md7b1b85019" x="41.316477" y="13.814842" style="stroke: #000000"/>
      </g>
     </g>
     <g id="text_3">
      <!-- $1$ -->
      <g transform="translate(23.816477 24.452654) scale(0.28 -0.28)">
       <use xlink:href="#Cmr10-31" transform="translate(0 0.390625)"/>
      </g>
     </g>
    </g>
   </g>
   <g id="line2d_5">
    <path d="M 65.008803 13.814842 
L 65.5353 13.923994 
L 66.088121 14.273254 
L 66.693591 14.930088 
L 67.378036 16.014079 
L 68.16778 17.706483 
L 69.062824 20.178959 
L 70.089491 23.706001 
L 71.274108 28.627339 
L 72.642998 35.327685 
L 74.275136 44.497538 
L 76.407445 57.856706 
L 82.778048 98.637738 
L 84.410187 107.234449 
L 85.779077 113.321856 
L 86.963693 117.621288 
L 87.99036 120.545477 
L 88.859079 122.400781 
L 89.622498 123.544153 
L 90.280619 124.155432 
L 90.859764 124.4028 
L 91.386261 124.390197 
L 91.912757 124.151194 
L 92.491902 123.627697 
L 93.150023 122.704323 
L 93.887117 121.261879 
L 94.729511 119.099002 
L 95.703529 115.942202 
L 96.809171 111.559267 
L 98.099086 105.472527 
L 99.5996 97.26309 
L 101.494987 85.567946 
L 104.653964 64.413422 
L 107.654992 44.874654 
L 109.471403 34.461475 
L 110.945592 27.248572 
L 112.182858 22.244782 
L 113.262176 18.762915 
L 114.183544 16.492851 
L 114.973288 15.087012 
L 115.657733 14.283675 
L 116.263204 13.899781 
L 116.7897 13.817445 
L 117.289871 13.956539 
L 117.842692 14.356223 
L 118.448163 15.088407 
L 119.132608 16.282071 
L 119.922352 18.13164 
L 120.817395 20.818686 
L 121.844063 24.633572 
L 123.028679 29.931558 
L 124.423894 37.254603 
L 126.108682 47.36091 
L 128.451589 62.917305 
L 133.190055 94.636711 
L 134.927492 104.624614 
L 136.349032 111.577547 
L 137.559973 116.451514 
L 138.612965 119.809256 
L 139.508009 121.970984 
L 140.271428 123.288793 
L 140.929548 124.025419 
L 141.508694 124.362924 
L 142.03519 124.415368 
L 142.535361 124.240291 
L 143.088182 123.792435 
L 143.693653 122.997712 
L 144.404423 121.664673 
L 145.220492 119.614023 
L 146.14186 116.655971 
L 147.194852 112.489138 
L 148.405794 106.751355 
L 149.853658 98.741826 
L 151.643745 87.489085 
L 154.381525 68.644253 
L 157.830075 45.22288 
L 159.620162 34.57362 
L 161.068026 27.236732 
L 162.278967 22.179158 
L 163.331959 18.683771 
L 164.227003 16.424715 
L 165.016747 15.001306 
L 165.674867 14.235146 
L 166.254013 13.882 
L 166.754184 13.820828 
L 167.254356 13.986176 
L 167.780852 14.404432 
L 168.386322 15.192894 
L 169.070767 16.474899 
L 169.860512 18.457351 
L 170.755555 21.331922 
L 171.782223 25.404288 
L 172.966839 31.044506 
L 174.362054 38.811839 
L 176.099491 49.824493 
L 178.679322 67.798461 
L 182.33847 93.109417 
L 184.102232 103.760138 
L 185.523772 111.0673 
L 186.734713 116.185931 
L 187.761381 119.625542 
L 188.656424 121.897306 
L 189.419844 123.274248 
L 190.077964 124.034981 
L 190.630785 124.36409 
L 191.130956 124.416161 
L 191.631127 124.234332 
L 192.157624 123.790851 
L 192.763094 122.963613 
L 193.447539 121.625705 
L 194.237283 119.563761 
L 195.158652 116.483778 
L 196.211644 112.12821 
L 197.422585 106.118922 
L 198.870449 97.729712 
L 200.686861 85.788041 
L 203.740539 63.936623 
L 206.583618 44.221549 
L 208.321055 33.688378 
L 209.71627 26.532234 
L 210.900886 21.567719 
L 211.901229 18.268646 
L 212.769948 16.116709 
L 213.507042 14.834169 
L 214.138838 14.142504 
L 214.691659 13.850517 
L 215.19183 13.839958 
L 215.665677 14.052508 
L 216.192173 14.541837 
L 216.797643 15.431264 
L 217.482088 16.851019 
L 218.271833 19.021309 
L 219.193201 22.244111 
L 220.246193 26.780251 
L 221.483459 33.158883 
L 222.957648 42.011496 
L 224.82671 54.688361 
L 231.67116 102.488835 
L 233.119024 110.342336 
L 234.329965 115.745427 
L 235.356633 119.378459 
L 236.251676 121.776732 
L 237.015095 123.22751 
L 237.646891 124.001581 
L 238.199712 124.356726 
L 238.699883 124.416876 
L 239.17373 124.244475 
L 239.673901 123.820924 
L 240.253047 123.022784 
L 240.911167 121.720522 
L 241.674586 119.69563 
L 242.56963 116.645149 
L 243.596297 112.300675 
L 244.780914 106.268385 
L 246.202453 97.794052 
L 247.99254 85.661593 
L 251.072543 62.933597 
L 253.757673 43.813066 
L 255.442461 33.34471 
L 256.811351 26.176703 
L 257.943317 21.350746 
L 258.917335 18.09293 
L 259.759729 15.991271 
L 260.470499 14.75725 
L 261.075969 14.105379 
L 261.602466 13.841302 
L 262.076312 13.84594 
L 262.550159 14.080351 
L 263.076655 14.609322 
L 263.682125 15.563877 
L 264.36657 17.081466 
L 265.156315 19.394581 
L 266.077683 22.820552 
L 267.130675 27.629489 
L 268.367941 34.369568 
L 269.868455 43.859782 
L 271.842816 57.905674 
L 277.502649 99.060229 
L 279.029488 108.090814 
L 280.293079 114.290866 
L 281.346071 118.426803 
L 282.26744 121.201102 
L 283.057184 122.914237 
L 283.715304 123.856404 
L 284.268125 124.30003 
L 284.741971 124.425059 
L 285.189493 124.32606 
L 285.66334 123.991619 
L 286.216161 123.304614 
L 286.847956 122.132723 
L 287.585051 120.255226 
L 288.427444 117.460068 
L 289.401462 113.411794 
L 290.533429 107.699704 
L 291.875994 99.705263 
L 293.534457 88.395012 
L 296.061639 69.400245 
L 299.378564 44.748554 
L 301.063352 33.870415 
L 302.405917 26.554304 
L 303.537884 21.529423 
L 304.511902 18.148598 
L 305.354296 15.981094 
L 306.065065 14.722826 
L 306.670536 14.073658 
L 307.170707 13.834722 
L 307.618229 13.850297 
L 308.092076 14.103044 
L 308.618572 14.667748 
L 309.224042 15.682939 
L 309.908487 17.293262 
L 310.698232 19.743229 
L 311.6196 23.365121 
L 312.698917 28.576632 
L 313.962508 35.853261 
L 315.489347 46.025254 
L 317.595331 61.706168 
L 322.149523 96.005027 
L 323.729011 106.03235 
L 325.018927 112.889125 
L 326.124569 117.621399 
L 327.045937 120.665929 
L 327.835681 122.580929 
L 328.520126 123.701133 
L 329.099272 124.248748 
L 329.573119 124.420695 
L 330.02064 124.353895 
L 330.494487 124.040587 
L 331.020983 123.401327 
L 331.626454 122.291575 
L 332.337223 120.487807 
L 333.153292 117.771865 
L 334.100985 113.798508 
L 335.206627 108.141642 
L 336.522868 100.15832 
L 338.155006 88.774163 
L 340.603213 69.898688 
L 343.946463 44.386298 
L 345.604926 33.449249 
L 346.921167 26.1603 
L 348.026809 21.201858 
L 348.974502 17.902048 
L 349.790571 15.814911 
L 350.475016 14.626124 
L 351.054161 14.0304 
L 351.528008 13.826175 
L 351.97553 13.868526 
L 352.423051 14.139403 
L 352.923223 14.711397 
L 353.502369 15.725205 
L 354.186814 17.400706 
L 354.976558 19.95669 
L 355.897926 23.740119 
L 356.977243 29.184702 
L 358.240834 36.778607 
L 359.793998 47.559809 
L 362.005281 64.646658 
L 365.875028 94.615818 
L 367.480841 105.250241 
L 368.770757 112.410316 
L 369.850074 117.251481 
L 370.771442 120.456288 
L 371.561186 122.474835 
L 372.245631 123.657288 
L 372.798452 124.218791 
L 373.272299 124.416723 
L 373.719821 124.362328 
L 374.167342 124.073526 
L 374.667514 123.474672 
L 375.24666 122.421046 
L 375.931104 120.687033 
L 376.720849 118.049381 
L 377.642217 114.154017 
L 378.721534 108.560332 
L 379.985125 100.776346 
L 381.564613 89.559367 
L 383.881196 71.307035 
L 387.356071 44.083258 
L 388.988209 33.09597 
L 390.278125 25.835718 
L 391.357442 20.939633 
L 392.27881 17.71238 
L 393.068554 15.6941 
L 393.726674 14.561735 
L 394.279495 14.005716 
L 394.753342 13.819726 
L 395.174539 13.880638 
L 395.62206 14.178579 
L 396.122232 14.794538 
L 396.701378 15.876842 
L 397.385823 17.656468 
L 398.175567 20.361419 
L 399.096935 24.35286 
L 400.176252 30.078493 
L 401.466168 38.21307 
L 403.071981 49.87898 
L 405.546513 69.745578 
L 408.626515 94.088037 
L 410.232329 105.045086 
L 411.522244 112.403379 
L 412.601561 117.352488 
L 413.52293 120.600416 
L 414.312674 122.616869 
L 414.970794 123.733388 
L 415.523615 124.265906 
L 415.971137 124.422837 
L 416.392334 124.345523 
L 416.839855 124.024468 
L 417.340027 123.37591 
L 417.945497 122.18647 
L 418.629942 120.319912 
L 419.446011 117.396333 
L 420.393704 113.102634 
L 421.499346 106.982524 
L 422.815587 98.358837 
L 424.474049 85.916962 
L 427.448753 61.531537 
L 429.870635 42.532223 
L 431.423799 32.028397 
L 432.661065 25.07376 
L 433.714057 20.344203 
L 434.6091 17.281529 
L 435.37252 15.411068 
L 436.004315 14.399561 
L 436.530811 13.935624 
L 436.978333 13.814899 
L 437.39953 13.931728 
L 437.847052 14.300361 
L 438.373548 15.054481 
L 438.979018 16.344253 
L 439.689788 18.42138 
L 440.505857 21.526806 
L 441.45355 26.040108 
L 442.585517 32.584621 
L 443.928082 41.72325 
L 445.691844 55.391282 
L 451.535952 102.017691 
L 452.878517 110.356402 
L 454.010483 116.068772 
L 454.958177 119.787862 
L 455.774246 122.147837 
L 456.458691 123.496223 
L 457.011512 124.153443 
L 457.485358 124.40526 
L 457.906555 124.386288 
L 458.327752 124.138671 
L 458.801598 123.587918 
L 459.354419 122.584673 
L 460.01254 120.893179 
L 460.775959 118.275291 
L 461.671002 114.354845 
L 462.723995 108.661219 
L 463.961261 100.668203 
L 465.514424 89.064074 
L 467.857332 69.637777 
L 470.989984 43.96767 
L 472.569473 32.851449 
L 473.833063 25.461383 
L 474.886056 20.549492 
L 475.781099 17.372398 
L 476.518194 15.492203 
L 477.149989 14.430985 
L 477.676485 13.943136 
L 478.124007 13.814869 
L 478.545204 13.935398 
L 478.992726 14.319394 
L 479.492897 15.058568 
L 480.098368 16.385204 
L 480.809137 18.531411 
L 481.625206 21.748076 
L 482.5729 26.42829 
L 483.704866 33.21453 
L 485.073756 42.87654 
L 486.890168 57.446512 
L 492.076155 100.039985 
L 493.47137 109.195647 
L 494.603337 115.260725 
L 495.577354 119.341708 
L 496.393423 121.875381 
L 497.077868 123.344118 
L 497.657014 124.105001 
L 498.130861 124.393806 
L 498.552058 124.396665 
L 498.973255 124.160383 
L 499.447101 123.609825 
L 499.999922 122.590194 
L 500.658042 120.856471 
L 501.421462 118.160221 
L 502.316505 114.111282 
L 503.343173 108.384551 
L 504.580439 100.148316 
L 506.133602 88.196631 
L 508.581809 67.349177 
L 511.424889 43.638979 
L 512.978052 32.519849 
L 514.215318 25.185674 
L 515.241986 20.349106 
L 516.110704 17.245708 
L 516.847799 15.371734 
L 517.453269 14.37401 
L 517.953441 13.925922 
L 518.374638 13.815107 
L 518.76951 13.933209 
L 519.190707 14.295608 
L 519.690878 15.040894 
L 520.270024 16.325359 
L 520.954469 18.41264 
L 521.770538 21.675117 
L 522.718231 26.451898 
L 523.823873 33.229939 
L 525.166438 42.918602 
L 526.956525 57.602174 
L 531.984563 99.829723 
L 533.353453 109.041573 
L 534.48542 115.254728 
L 535.433113 119.316459 
L 536.249182 121.903129 
L 536.933627 123.387144 
L 537.486448 124.11536 
L 537.960294 124.399753 
L 538.355167 124.395612 
L 538.750039 124.172084 
L 539.19756 123.654513 
L 539.724057 122.689494 
L 540.355852 121.03233 
L 541.092947 118.431935 
L 541.961665 114.491748 
L 542.988333 108.713005 
L 544.199274 100.5369 
L 545.726113 88.585378 
L 548.095345 68.00859 
L 550.964749 43.548197 
L 552.491588 32.40233 
L 553.702529 25.09317 
L 554.702872 20.297889 
L 555.571591 17.152718 
L 556.28236 15.331427 
L 556.887831 14.33439 
L 557.388002 13.903314 
L 557.809199 13.818389 
L 558.204071 13.970282 
L 558.625268 14.378699 
L 559.12544 15.191623 
L 559.73091 16.644949 
L 560.44168 18.9892 
L 561.257749 22.492831 
L 562.231767 27.729547 
L 563.390059 35.280571 
L 564.811598 46.141139 
L 566.812283 63.346795 
L 570.576731 95.915551 
L 572.05092 106.621515 
L 573.235537 113.704539 
L 574.235879 118.414673 
L 575.078273 121.377419 
L 575.789043 123.117656 
L 576.368189 124.003176 
L 576.842035 124.365476 
L 577.236907 124.416354 
L 577.631779 124.238589 
L 578.079301 123.761511 
L 578.605797 122.828519 
L 579.211268 121.267124 
L 579.922038 118.78699 
L 580.764431 114.986074 
L 581.764774 109.353191 
L 582.94939 101.307554 
L 584.42358 89.648106 
L 586.661188 69.90885 
L 589.688541 43.502292 
L 591.189055 32.334426 
L 592.373672 25.04953 
L 593.374014 20.179071 
L 594.216408 17.093871 
L 594.927178 15.26203 
L 595.506324 14.311071 
L 595.98017 13.901972 
L 596.375042 13.816987 
L 596.769914 13.965253 
L 597.191111 14.379936 
L 597.691283 15.213745 
L 598.270428 16.635291 
L 598.954873 18.929561 
L 599.770942 22.496127 
L 600.718636 27.691411 
L 601.850602 35.210888 
L 603.245817 46.076144 
L 605.220178 63.395944 
L 608.931975 96.131384 
L 610.37984 106.820666 
L 611.538131 113.848305 
L 612.512149 118.497051 
L 613.328218 121.407564 
L 614.012663 123.112988 
L 614.591809 124.013286 
L 615.065656 124.373008 
L 615.460528 124.411582 
L 615.8554 124.212321 
L 616.302922 123.699919 
L 616.829418 122.71086 
L 617.434888 121.066491 
L 618.145658 118.465575 
L 618.988052 114.492897 
L 619.988395 108.623991 
L 621.173011 100.270497 
L 622.673525 87.991788 
L 625.121732 65.791594 
L 627.701563 43.034666 
L 629.175752 31.922888 
L 630.360369 24.591517 
L 631.334387 19.857013 
L 632.150456 16.891323 
L 632.834901 15.152983 
L 633.414046 14.23505 
L 633.887893 13.868135 
L 634.282765 13.828613 
L 634.677637 14.031526 
L 635.098834 14.514322 
L 635.599005 15.44162 
L 636.204476 17.069494 
L 636.915246 19.665313 
L 637.75764 23.651046 
L 638.731657 29.389368 
L 639.916274 37.787612 
L 641.416788 50.165297 
L 643.83867 72.330742 
L 646.418501 95.301501 
L 647.89269 106.493512 
L 649.050982 113.705978 
L 650.025 118.465727 
L 650.841069 121.431772 
L 651.525514 123.154904 
L 652.078335 124.019462 
L 652.525857 124.368029 
L 652.920729 124.412507 
L 653.289276 124.231129 
L 653.710473 123.761105 
L 654.210644 122.842046 
L 654.816115 121.214171 
L 655.526885 118.604833 
L 656.369278 114.585377 
L 657.343296 108.786938 
L 658.527913 100.2914 
L 660.028427 87.767715 
L 662.502959 64.877979 
L 664.977491 42.70267 
L 666.425355 31.637165 
L 667.583646 24.386891 
L 668.557664 19.624239 
L 669.373733 16.678082 
L 670.058178 14.987914 
L 670.610999 14.160859 
L 671.058521 13.849633 
L 671.427068 13.835748 
L 671.795616 14.041058 
L 672.216813 14.54317 
L 672.716984 15.506628 
L 673.322455 17.196764 
L 674.033224 19.889818 
L 674.875618 24.020773 
L 675.875961 30.136369 
L 677.060577 38.842482 
L 678.587416 51.848784 
L 681.40417 78.245486 
L 683.53648 97.179632 
L 684.931695 107.700927 
L 686.063661 114.640842 
L 686.98503 119.03058 
L 687.774774 121.800136 
L 688.432894 123.366817 
L 688.95939 124.119349 
L 689.406912 124.403379 
L 689.775459 124.390353 
L 690.144006 124.154167 
L 690.591528 123.568616 
L 691.118024 122.464648 
L 691.74982 120.559739 
L 692.486914 117.566065 
L 693.355633 113.034606 
L 694.3823 106.413242 
L 695.619566 96.894389 
L 697.251705 82.469381 
L 702.358717 36.039169 
L 703.622308 27.189488 
L 704.648975 21.458739 
L 705.517694 17.782389 
L 706.228464 15.639038 
L 706.833934 14.454912 
L 707.307781 13.949838 
L 707.702653 13.814882 
L 708.0712 13.92427 
L 708.466072 14.293255 
L 708.939919 15.077535 
L 709.49274 16.456709 
L 710.15086 18.733464 
L 710.940604 22.336357 
L 711.861973 27.653817 
L 712.967615 35.433079 
L 714.336505 46.765001 
L 716.33719 65.429258 
L 719.601466 95.824284 
L 721.023006 106.928135 
L 722.154972 114.137331 
L 723.102665 118.828479 
L 723.89241 121.698435 
L 724.55053 123.323705 
L 725.077026 124.105561 
L 725.498223 124.393834 
L 725.86677 124.398557 
L 726.235318 124.172081 
L 726.656514 123.631243 
L 727.156686 122.602153 
L 727.762156 120.805269 
L 728.472926 117.951611 
L 729.31532 113.587203 
L 730.315663 107.146704 
L 731.526604 97.796332 
L 733.106092 83.713786 
L 738.423703 34.746644 
L 739.634645 26.333921 
L 740.634987 20.838183 
L 741.477381 17.370454 
L 742.161826 15.393203 
L 742.740972 14.333232 
L 743.214818 13.893013 
L 743.583366 13.81886 
L 743.951913 13.979976 
L 744.346785 14.413016 
L 744.820632 15.285447 
L 745.399777 16.865885 
L 746.084222 19.441317 
L 746.900291 23.463546 
L 747.847984 29.327276 
L 749.006276 38.002194 
L 750.480465 50.891325 
L 753.033972 75.624411 
L 755.27158 96.406224 
L 756.666795 107.396876 
L 757.772437 114.469469 
L 758.693805 119.034917 
L 759.457225 121.80519 
L 760.08902 123.362648 
L 760.615516 124.135509 
L 761.036713 124.404674 
L 761.40526 124.384025 
L 761.773808 124.124211 
L 762.195005 123.535747 
L 762.721501 122.367717 
L 763.326971 120.443033 
L 764.064066 117.29175 
L 764.932785 112.509164 
L 765.959452 105.517459 
L 767.223043 95.254515 
L 768.934155 79.333459 
L 773.198774 38.853488 
L 774.515014 28.855462 
L 775.568007 22.443388 
L 776.436725 18.397756 
L 777.17382 15.929328 
L 777.779291 14.598077 
L 778.279462 13.985149 
L 778.674334 13.816369 
L 779.016557 13.895966 
L 779.385104 14.216019 
L 779.832626 14.929454 
L 780.359122 16.218953 
L 780.990917 18.393162 
L 781.754336 21.894314 
L 782.64938 27.132188 
L 783.728697 34.888835 
L 785.044937 46.072111 
L 786.966648 64.547621 
L 790.257249 96.228977 
L 791.652464 107.415581 
L 792.758106 114.588069 
L 793.679474 119.188572 
L 794.442894 121.950621 
L 795.074689 123.474425 
L 795.57486 124.176018 
L 795.996057 124.415662 
L 796.33828 124.372661 
L 796.706827 124.088049 
L 797.128024 123.461677 
L 797.65452 122.232408 
L 798.286316 120.117644 
L 799.02341 116.803818 
L 799.892129 111.805368 
L 800.918796 104.536808 
L 802.208712 93.688597 
L 803.998799 76.531037 
L 807.710597 40.578685 
L 809.053162 29.93925 
L 810.132479 23.05418 
L 811.027522 18.686456 
L 811.764617 16.095043 
L 812.370088 14.683345 
L 812.870259 14.019167 
L 813.265131 13.820076 
L 813.607354 13.880815 
L 813.975901 14.188345 
L 814.423423 14.897415 
L 814.949919 16.196857 
L 815.581714 18.403866 
L 816.318809 21.834189 
L 817.213852 27.151513 
L 818.266844 34.840241 
L 819.583085 46.210198 
L 821.478471 64.743456 
L 824.690097 96.165406 
L 826.058987 107.332545 
L 827.138305 114.471526 
L 828.033348 119.050344 
L 828.796767 121.891085 
L 829.428563 123.456222 
L 829.928734 124.17437 
L 830.323606 124.411199 
L 830.665829 124.379503 
L 831.034376 124.099315 
L 831.455573 123.468188 
L 831.955744 122.292982 
L 832.561215 120.265605 
L 833.29831 116.938443 
L 834.167028 111.885927 
L 835.193696 104.507197 
L 836.457286 93.709034 
L 838.221049 76.535018 
L 841.880197 40.532977 
L 843.196437 29.93995 
L 844.249429 23.108433 
L 845.144473 18.667745 
L 845.881567 16.048707 
L 846.487038 14.637888 
L 846.960885 14.013142 
L 847.355757 13.818396 
L 847.697979 13.890358 
L 848.066527 14.217651 
L 848.514048 14.961247 
L 849.040544 16.315551 
L 849.67234 18.607459 
L 850.435759 22.304134 
L 851.330803 27.83474 
L 852.41012 36.012072 
L 853.752685 48.008566 
L 854.753028 57.851654 
L 854.753028 57.851654 
" clip-path="url(#p05c5218949)" style="fill: none; stroke: #e36f47; stroke-width: 4"/>
   </g>
   <g id="patch_3">
    <path d="M 41.316477 127.743466 
L 41.316477 10.496532 
" style="fill: none; stroke: #000000; stroke-width: 2; stroke-linejoin: miter; stroke-linecap: square"/>
   </g>
  </g>
 </g>
 <defs>
  <clipPath id="p05c5218949">
   <rect x="41.316477" y="10.496532" width="837.128878" height="117.246934"/>
  </clipPath>
 </defs>
</svg>
