<?xml version="1.0" encoding="utf-8" standalone="no"?>
<!DOCTYPE svg PUBLIC "-//W3C//DTD SVG 1.1//EN"
  "http://www.w3.org/Graphics/SVG/1.1/DTD/svg11.dtd">
<svg xmlns:xlink="http://www.w3.org/1999/xlink" width="881.28pt" height="144pt" viewBox="0 0 881.28 144" xmlns="http://www.w3.org/2000/svg" version="1.1">
 <metadata>
  <rdf:RDF xmlns:dc="http://purl.org/dc/elements/1.1/" xmlns:cc="http://creativecommons.org/ns#" xmlns:rdf="http://www.w3.org/1999/02/22-rdf-syntax-ns#">
   <cc:Work>
    <dc:type rdf:resource="http://purl.org/dc/dcmitype/StillImage"/>
    <dc:date>2024-05-07T19:12:21.720458</dc:date>
    <dc:format>image/svg+xml</dc:format>
    <dc:creator>
     <cc:Agent>
      <dc:title>Matplotlib v3.7.0, https://matplotlib.org/</dc:title>
     </cc:Agent>
    </dc:creator>
   </cc:Work>
  </rdf:RDF>
 </metadata>
 <defs>
  <style type="text/css">*{stroke-linejoin: round; stroke-linecap: butt}</style>
 </defs>
 <g id="figure_1">
  <g id="patch_1">
   <path d="M 0 144 
L 881.28 144 
L 881.28 0 
L 0 0 
L 0 144 
z
" style="fill: none"/>
  </g>
  <g id="axes_1">
   <g id="patch_2">
    <path d="M 41.316477 127.743467 
L 878.445354 127.743467 
L 878.445354 10.496532 
L 41.316477 10.496532 
L 41.316477 127.743467 
z
" style="fill: none"/>
   </g>
   <g id="line2d_1">
    <path d="M 65.008803 13.814842 
L 65.5353 13.923974 
L 66.088121 14.27299 
L 66.693591 14.928983 
L 67.378036 16.010887 
L 68.16778 17.698818 
L 69.062824 20.162815 
L 70.089491 23.674795 
L 71.274108 28.570769 
L 72.642998 35.230518 
L 74.275136 44.336977 
L 76.407445 57.594636 
L 82.830698 98.407489 
L 84.489161 107.08415 
L 85.858051 113.138237 
L 87.042667 117.431412 
L 88.069335 120.369986 
L 88.964378 122.301395 
L 89.727798 123.466337 
L 90.385918 124.105669 
L 90.965064 124.385112 
L 91.49156 124.407708 
L 92.018056 124.209634 
L 92.597202 123.73769 
L 93.228997 122.921752 
L 93.966092 121.578675 
L 94.808486 119.540644 
L 95.756179 116.631111 
L 96.835496 112.568157 
L 98.072762 107.013439 
L 99.546951 99.307773 
L 101.337038 88.693945 
L 103.943194 71.747364 
L 107.997214 45.459822 
L 109.839951 34.996198 
L 111.340465 27.695834 
L 112.604055 22.593388 
L 113.683372 19.090737 
L 114.631066 16.717428 
L 115.447135 15.226269 
L 116.157904 14.356991 
L 116.763375 13.937519 
L 117.316196 13.81485 
L 117.842692 13.92982 
L 118.395513 14.29362 
L 119.000984 14.976084 
L 119.685429 16.100851 
L 120.475173 17.855044 
L 121.370216 20.415105 
L 122.396884 24.062784 
L 123.5815 29.145049 
L 124.95039 36.05127 
L 126.608853 45.638835 
L 128.820137 59.856814 
L 134.453646 96.681591 
L 136.138433 105.939728 
L 137.533648 112.439568 
L 138.718264 116.971201 
L 139.744932 120.083571 
L 140.639975 122.136659 
L 141.403395 123.380855 
L 142.061515 124.069098 
L 142.640661 124.376075 
L 143.167157 124.410786 
L 143.693653 124.212361 
L 144.246474 123.753776 
L 144.878269 122.918222 
L 145.589039 121.586865 
L 146.405108 119.559626 
L 147.352801 116.562071 
L 148.432118 112.355509 
L 149.669384 106.586876 
L 151.117249 98.725801 
L 152.907336 87.710839 
L 155.618791 69.450841 
L 159.225289 45.414219 
L 161.041701 34.797569 
L 162.51589 27.440734 
L 163.753156 22.339839 
L 164.806149 18.871352 
L 165.727517 16.547161 
L 166.517261 15.10905 
L 167.201706 14.288856 
L 167.780852 13.909248 
L 168.307348 13.816427 
L 168.807519 13.95145 
L 169.334015 14.328183 
L 169.939486 15.057053 
L 170.623931 16.257067 
L 171.413675 18.126919 
L 172.308719 20.852914 
L 173.335386 24.731652 
L 174.520003 30.125309 
L 175.915217 37.584519 
L 177.600005 47.875225 
L 179.969238 63.871359 
L 184.444455 94.240951 
L 186.208217 104.548211 
L 187.629757 111.598413 
L 188.840698 116.526616 
L 189.867365 119.832694 
L 190.762409 122.012775 
L 191.525828 123.331566 
L 192.183948 124.057854 
L 192.736769 124.369603 
L 193.236941 124.415203 
L 193.737112 124.235705 
L 194.263608 123.804132 
L 194.869079 123.002393 
L 195.553524 121.708053 
L 196.343268 119.71487 
L 197.264636 116.738122 
L 198.317628 112.526943 
L 199.52857 106.711249 
L 200.950109 98.736063 
L 202.713871 87.496301 
L 205.425327 68.573495 
L 208.821227 45.192611 
L 210.611314 34.409363 
L 212.032853 27.128066 
L 213.243794 22.027579 
L 214.270462 18.59992 
L 215.165505 16.335753 
L 215.928925 14.963141 
L 216.587045 14.204528 
L 217.139866 13.876052 
L 217.640037 13.823671 
L 218.140209 14.004374 
L 218.666705 14.445824 
L 219.272175 15.269704 
L 219.95662 16.60261 
L 220.746364 18.65734 
L 221.667733 21.727252 
L 222.720725 26.069659 
L 223.931666 32.062471 
L 225.379531 40.431532 
L 227.195942 52.349917 
L 230.223295 73.985722 
L 233.092699 93.890348 
L 234.830136 104.435987 
L 236.225351 111.608829 
L 237.409968 116.591557 
L 238.41031 119.908436 
L 239.279029 122.077219 
L 240.016124 123.374801 
L 240.647919 124.07972 
L 241.20074 124.383451 
L 241.700911 124.404666 
L 242.174758 124.202169 
L 242.701254 123.72388 
L 243.306724 122.846865 
L 243.991169 121.440638 
L 244.780914 119.285047 
L 245.702282 116.077829 
L 246.755274 111.557028 
L 247.99254 105.192464 
L 249.466729 96.350313 
L 251.335791 83.676358 
L 258.206565 35.653379 
L 259.628105 27.93504 
L 260.839046 22.517061 
L 261.865714 18.873638 
L 262.760757 16.468544 
L 263.524177 15.013912 
L 264.155972 14.238169 
L 264.708793 13.882779 
L 265.182639 13.820327 
L 265.656486 13.981963 
L 266.156657 14.3952 
L 266.735803 15.18284 
L 267.393923 16.475143 
L 268.157343 18.491268 
L 269.052386 21.535402 
L 270.079054 25.877864 
L 271.26367 31.914687 
L 272.658885 40.235414 
L 274.422647 52.189665 
L 277.39735 74.180574 
L 280.18778 94.177146 
L 281.872567 104.712307 
L 283.241457 111.933915 
L 284.373424 116.80065 
L 285.347442 120.08929 
L 286.189836 122.213486 
L 286.900606 123.463036 
L 287.506076 124.125371 
L 288.032572 124.396338 
L 288.506419 124.396074 
L 288.980265 124.164259 
L 289.506762 123.63605 
L 290.112232 122.679583 
L 290.796677 121.156275 
L 291.586421 118.83195 
L 292.50779 115.386966 
L 293.560782 110.549235 
L 294.798048 103.767288 
L 296.298562 94.218169 
L 298.272922 80.090169 
L 303.827457 39.474655 
L 305.354296 30.35729 
L 306.617886 24.090341 
L 307.670879 19.905416 
L 308.592247 17.095132 
L 309.381991 15.357224 
L 310.040111 14.39918 
L 310.592932 13.945798 
L 311.066779 13.815107 
L 311.514301 13.911098 
L 311.988147 14.244866 
L 312.540968 14.934365 
L 313.172763 16.113407 
L 313.909858 18.00489 
L 314.752252 20.823148 
L 315.72627 24.906756 
L 316.858237 30.669888 
L 318.200802 38.735184 
L 319.859265 50.14069 
L 322.412771 69.475282 
L 325.650722 93.654619 
L 327.33551 104.572409 
L 328.678075 111.895544 
L 329.810042 116.906175 
L 330.78406 120.258722 
L 331.600129 122.333957 
L 332.310899 123.572149 
L 332.890044 124.179258 
L 333.390216 124.409362 
L 333.837737 124.382806 
L 334.311584 124.115295 
L 334.83808 123.530474 
L 335.443551 122.487473 
L 336.127996 120.840025 
L 336.944065 118.246261 
L 337.865433 114.535235 
L 338.94475 109.213095 
L 340.208341 101.803645 
L 341.761504 91.28758 
L 343.946463 74.793405 
L 348.105783 43.194092 
L 349.711596 32.803431 
L 351.027837 25.666752 
L 352.133479 20.83629 
L 353.081172 17.642625 
L 353.870916 15.695611 
L 354.555361 14.555351 
L 355.134507 13.99667 
L 355.608353 13.819817 
L 356.055875 13.885469 
L 356.529721 14.201268 
L 357.056218 14.847745 
L 357.661688 15.971501 
L 358.372458 17.799215 
L 359.188527 20.552069 
L 360.13622 24.579618 
L 361.241862 30.31253 
L 362.558102 38.399069 
L 364.19024 49.919036 
L 366.691097 69.398168 
L 369.876399 93.863819 
L 371.508537 104.719899 
L 372.824777 112.074697 
L 373.930419 117.069863 
L 374.878112 120.385077 
L 375.667856 122.416513 
L 376.352301 123.616023 
L 376.931447 124.214039 
L 377.405294 124.415419 
L 377.852815 124.366464 
L 378.300337 124.085192 
L 378.800509 123.49716 
L 379.379654 122.459103 
L 380.064099 120.747443 
L 380.853843 118.140374 
L 381.775212 114.28619 
L 382.854529 108.746443 
L 384.11812 101.030021 
L 385.697608 89.89728 
L 387.987866 71.961039 
L 391.56804 44.010811 
L 393.200178 33.073848 
L 394.490094 25.842916 
L 395.569411 20.961891 
L 396.490779 17.73968 
L 397.280523 15.719576 
L 397.938644 14.581247 
L 398.491465 14.017105 
L 398.965311 13.821917 
L 399.386508 13.872958 
L 399.83403 14.158723 
L 400.334201 14.759098 
L 400.913347 15.820903 
L 401.597792 17.573219 
L 402.387536 20.24305 
L 403.308904 24.189631 
L 404.388221 29.859259 
L 405.651812 37.748446 
L 407.231301 49.109535 
L 409.600533 67.992138 
L 412.891134 93.984357 
L 414.496947 104.924105 
L 415.786863 112.283025 
L 416.86618 117.243926 
L 417.787548 120.510412 
L 418.577293 122.548986 
L 419.235413 123.688202 
L 419.788234 124.242658 
L 420.26208 124.421928 
L 420.683277 124.350877 
L 421.130799 124.037903 
L 421.63097 123.400053 
L 422.210116 122.285913 
L 422.894561 120.460158 
L 423.684305 117.691534 
L 424.605674 113.613633 
L 425.684991 107.773835 
L 426.974906 99.492095 
L 428.580719 87.64236 
L 431.160551 66.669736 
L 434.029955 43.868687 
L 435.635768 32.860399 
L 436.899359 25.636647 
L 437.978676 20.690224 
L 438.873719 17.545734 
L 439.637139 15.597712 
L 440.295259 14.482921 
L 440.821755 13.975971 
L 441.269277 13.817072 
L 441.690474 13.896787 
L 442.137995 14.2249 
L 442.638167 14.886779 
L 443.217312 16.037825 
L 443.901757 17.919112 
L 444.717826 20.873497 
L 445.665519 25.219439 
L 446.771161 31.41942 
L 448.087402 40.157654 
L 449.772189 52.968488 
L 453.06279 80.217173 
L 455.247749 97.244533 
L 456.748263 107.275006 
L 457.959205 113.957267 
L 458.985872 118.446518 
L 459.854591 121.312693 
L 460.591685 123.032649 
L 461.197156 123.93915 
L 461.697327 124.336989 
L 462.144849 124.42136 
L 462.566046 124.265854 
L 463.013568 123.851575 
L 463.540064 123.038064 
L 464.145534 121.67296 
L 464.856304 119.498919 
L 465.698698 116.156292 
L 466.672716 111.32428 
L 467.831007 104.36969 
L 469.226222 94.54396 
L 471.095284 79.646145 
L 476.044347 39.382069 
L 477.492212 29.824859 
L 478.650503 23.550454 
L 479.650846 19.284017 
L 480.49324 16.600999 
L 481.20401 15.021556 
L 481.783155 14.212787 
L 482.283327 13.865808 
L 482.704524 13.828235 
L 483.125721 14.023851 
L 483.599567 14.521796 
L 484.152388 15.471334 
L 484.784183 17.034337 
L 485.521278 19.483215 
L 486.389997 23.193009 
L 487.390339 28.486226 
L 488.574956 36.001907 
L 490.049145 46.879532 
L 492.155129 64.283955 
L 495.893252 95.273907 
L 497.420091 105.996768 
L 498.657357 113.199155 
L 499.684024 117.952349 
L 500.552743 121.007781 
L 501.289838 122.85911 
L 501.895308 123.851345 
L 502.39548 124.304025 
L 502.843001 124.424801 
L 503.237873 124.307706 
L 503.685395 123.921916 
L 504.185567 123.174602 
L 504.791037 121.829625 
L 505.501807 119.650548 
L 506.317876 116.38214 
L 507.265569 111.625437 
L 508.397536 104.729601 
L 509.766426 94.918884 
L 511.582837 80.149456 
L 516.558226 38.808049 
L 517.953441 29.468521 
L 519.111732 23.138013 
L 520.08575 18.984039 
L 520.901819 16.405119 
L 521.586264 14.910904 
L 522.16541 14.137869 
L 522.639257 13.845731 
L 523.060453 13.844956 
L 523.48165 14.088069 
L 523.955497 14.651927 
L 524.508318 15.694426 
L 525.166438 17.465269 
L 525.929857 20.217084 
L 526.824901 24.346232 
L 527.877893 30.344945 
L 529.115159 38.754962 
L 530.694648 51.138256 
L 533.353453 74.105973 
L 535.880635 95.217104 
L 537.407474 106.167522 
L 538.618415 113.341375 
L 539.618757 118.046809 
L 540.487476 121.134288 
L 541.198246 122.924265 
L 541.803716 123.90669 
L 542.303888 124.334327 
L 542.725085 124.422489 
L 543.119957 124.278716 
L 543.567478 123.851454 
L 544.06765 123.044014 
L 544.67312 121.607626 
L 545.38389 119.297016 
L 546.199959 115.848947 
L 547.173977 110.699094 
L 548.332269 103.273939 
L 549.753808 92.586942 
L 551.728169 75.853471 
L 555.703215 41.856486 
L 557.177404 31.329515 
L 558.36202 24.370008 
L 559.362363 19.741955 
L 560.204757 16.82873 
L 560.915527 15.114681 
L 561.494672 14.239292 
L 561.968519 13.877599 
L 562.389716 13.826147 
L 562.784588 14.009178 
L 563.23211 14.486377 
L 563.758606 15.411634 
L 564.364076 16.953864 
L 565.074846 19.398172 
L 565.91724 23.139547 
L 566.917583 28.681203 
L 568.102199 36.597306 
L 569.576388 48.079115 
L 571.761347 67.094389 
L 574.972974 94.851725 
L 576.473488 105.896584 
L 577.684429 113.258913 
L 578.684772 118.070197 
L 579.527165 121.126154 
L 580.237935 122.94939 
L 580.843406 123.936614 
L 581.317252 124.338789 
L 581.738449 124.420716 
L 582.133321 124.261406 
L 582.554518 123.840211 
L 583.05469 123.005714 
L 583.66016 121.517329 
L 584.37093 119.120193 
L 585.186999 115.541886 
L 586.161017 110.199882 
L 587.319308 102.507764 
L 588.740848 91.464837 
L 590.794183 73.549646 
L 594.321707 42.72933 
L 595.795897 31.862685 
L 596.980513 24.669783 
L 597.980856 19.887905 
L 598.823249 16.883213 
L 599.534019 15.122306 
L 600.113165 14.23048 
L 600.587011 13.870249 
L 600.981884 13.826096 
L 601.376756 14.015113 
L 601.824277 14.510342 
L 602.350774 15.471838 
L 602.956244 17.075129 
L 603.667014 19.615975 
L 604.509408 23.502974 
L 605.50975 29.253949 
L 606.694367 37.453556 
L 608.194881 49.533479 
L 610.537789 70.504711 
L 613.301893 94.770569 
L 614.802407 106.033156 
L 615.987024 113.357239 
L 616.987367 118.230516 
L 617.82976 121.294347 
L 618.54053 123.090607 
L 619.119676 124.000646 
L 619.593522 124.368439 
L 619.988395 124.413769 
L 620.383267 124.221257 
L 620.804464 123.754546 
L 621.304635 122.852872 
L 621.910106 121.265058 
L 622.620875 118.72797 
L 623.463269 114.826146 
L 624.437287 109.200224 
L 625.621903 100.952626 
L 627.096093 88.996353 
L 629.386351 68.320328 
L 632.203105 43.336663 
L 633.677294 32.175888 
L 634.861911 24.794003 
L 635.835929 20.012104 
L 636.678323 16.922486 
L 637.362768 15.173566 
L 637.941913 14.246589 
L 638.41576 13.872276 
L 638.810632 13.826634 
L 639.205504 14.023495 
L 639.626701 14.499947 
L 640.126872 15.419897 
L 640.732343 17.039233 
L 641.443113 19.625622 
L 642.285507 23.601212 
L 643.259524 29.329401 
L 644.444141 37.718027 
L 645.91833 49.858207 
L 648.287563 71.51752 
L 650.946368 95.236828 
L 652.420557 106.441458 
L 653.578849 113.665572 
L 654.552867 118.435778 
L 655.368936 121.410799 
L 656.053381 123.141438 
L 656.606202 124.011952 
L 657.053723 124.365232 
L 657.448596 124.413757 
L 657.817143 124.236043 
L 658.23834 123.77006 
L 658.738511 122.85556 
L 659.343982 121.232805 
L 660.054752 118.628879 
L 660.897145 114.614883 
L 661.871163 108.821385 
L 663.05578 100.329756 
L 664.556294 87.807787 
L 667.030826 64.913722 
L 669.505357 42.728012 
L 670.953222 31.655222 
L 672.111513 24.399278 
L 673.085531 19.632292 
L 673.9016 16.683003 
L 674.586045 14.990649 
L 675.138866 14.162151 
L 675.586388 13.849993 
L 675.954935 13.835504 
L 676.323483 14.040363 
L 676.744679 14.542151 
L 677.244851 15.505486 
L 677.850321 17.195868 
L 678.561091 19.889723 
L 679.403485 24.022335 
L 680.403828 30.140745 
L 681.588444 38.851158 
L 683.115283 51.863892 
L 685.958362 78.518083 
L 688.064347 97.209459 
L 689.459561 107.729665 
L 690.591528 114.666174 
L 691.512896 119.05141 
L 692.302641 121.815832 
L 692.960761 123.377368 
L 693.487257 124.125255 
L 693.934779 124.404987 
L 694.303326 124.388194 
L 694.671873 124.14805 
L 695.119395 123.557465 
L 695.645891 122.447287 
L 696.277687 120.534585 
L 697.014781 117.531508 
L 697.8835 112.988762 
L 698.910167 106.354216 
L 700.147433 96.82052 
L 701.779571 82.379315 
L 706.860259 36.148258 
L 708.12385 27.27438 
L 709.150517 21.522324 
L 710.019236 17.827495 
L 710.756331 15.604623 
L 711.361801 14.434035 
L 711.835648 13.940161 
L 712.23052 13.814895 
L 712.599067 13.933579 
L 712.993939 14.312744 
L 713.467786 15.109484 
L 714.020607 16.503411 
L 714.678727 18.797856 
L 715.468471 22.421781 
L 716.38984 27.762916 
L 717.495481 35.568414 
L 718.864371 46.927696 
L 720.865057 65.617379 
L 724.076683 95.558328 
L 725.498223 106.711825 
L 726.63019 113.968525 
L 727.577883 118.703179 
L 728.367627 121.610924 
L 729.025747 123.26814 
L 729.552243 124.07553 
L 729.999765 124.39331 
L 730.368312 124.398972 
L 730.73686 124.17316 
L 731.158057 123.632747 
L 731.658228 122.603692 
L 732.263698 120.806171 
L 732.974468 117.950879 
L 733.816862 113.583353 
L 734.817205 107.13776 
L 736.028146 97.779672 
L 737.607634 83.685931 
L 742.925245 34.698715 
L 744.136187 26.290382 
L 745.136529 20.80164 
L 745.978923 17.342165 
L 746.663368 15.373185 
L 747.242514 14.321233 
L 747.690036 13.90211 
L 748.058583 13.817125 
L 748.42713 13.967717 
L 748.822002 14.389877 
L 749.295849 15.249855 
L 749.874995 16.816095 
L 750.55944 19.37634 
L 751.349184 23.238273 
L 752.296877 29.05378 
L 753.428844 37.469909 
L 754.876708 50.047958 
L 757.245941 72.943395 
L 759.694148 95.877227 
L 761.089363 106.96364 
L 762.221329 114.279673 
L 763.142698 118.89456 
L 763.932442 121.787245 
L 764.564237 123.351986 
L 765.090733 124.130288 
L 765.51193 124.40335 
L 765.880478 124.385754 
L 766.249025 124.128645 
L 766.670222 123.542838 
L 767.170393 122.447026 
L 767.775864 120.551152 
L 768.486634 117.558302 
L 769.329027 113.00186 
L 770.32937 106.305599 
L 771.566636 96.399869 
L 773.198774 81.369737 
L 777.88459 37.09176 
L 779.148181 27.762388 
L 780.174848 21.724654 
L 781.043567 17.865895 
L 781.754336 15.634099 
L 782.333482 14.460377 
L 782.807329 13.941191 
L 783.202201 13.815183 
L 783.544423 13.932225 
L 783.939296 14.32786 
L 784.413142 15.168517 
L 784.965963 16.646067 
L 785.624083 19.083163 
L 786.413827 22.934445 
L 787.335196 28.606099 
L 788.440838 36.875246 
L 789.836052 49.098931 
L 792.047336 70.743855 
L 794.653492 95.687312 
L 796.048707 106.974014 
L 797.154349 114.24364 
L 798.075717 118.93374 
L 798.839137 121.773942 
L 799.470932 123.363889 
L 799.997428 124.145343 
L 800.418625 124.40903 
L 800.760847 124.385225 
L 801.129395 124.120856 
L 801.550592 123.516963 
L 802.050763 122.386411 
L 802.656234 120.430029 
L 803.367003 117.342293 
L 804.209397 112.644308 
L 805.20974 105.748046 
L 806.447006 95.566896 
L 808.131794 79.654231 
L 812.396412 38.514779 
L 813.686328 28.605627 
L 814.712995 22.29362 
L 815.581714 18.228123 
L 816.292484 15.850758 
L 816.897954 14.53348 
L 817.371801 13.968877 
L 817.766673 13.814996 
L 818.108896 13.915361 
L 818.477443 14.265835 
L 818.924965 15.027164 
L 819.451461 16.387769 
L 820.083256 18.666926 
L 820.846676 22.320145 
L 821.741719 27.764689 
L 822.821036 35.79723 
L 824.163601 47.573282 
L 826.190611 67.583624 
L 829.060016 95.634489 
L 830.45523 107.095513 
L 831.560872 114.443301 
L 832.455916 119.032557 
L 833.219335 121.880738 
L 833.85113 123.450831 
L 834.351302 124.172041 
L 834.746174 124.410725 
L 835.088396 124.380224 
L 835.456944 124.100887 
L 835.878141 123.470177 
L 836.378312 122.294703 
L 836.983783 120.265903 
L 837.720877 116.9355 
L 838.589596 111.877218 
L 839.616263 104.489479 
L 840.879854 93.678085 
L 842.669941 76.217455 
L 846.27644 40.692079 
L 847.619005 29.871775 
L 848.671997 23.049425 
L 849.540716 18.731694 
L 850.27781 16.090768 
L 850.883281 14.662681 
L 851.383452 14.002135 
L 851.778324 13.817024 
L 852.120547 13.897787 
L 852.489094 14.234987 
L 852.936616 14.991132 
L 853.463112 16.360817 
L 854.094907 18.67184 
L 854.753028 21.820923 
L 854.753028 21.820923 
" clip-path="url(#pa93aa06676)" style="fill: none; stroke: #009afa; stroke-width: 6"/>
   </g>
   <g id="matplotlib.axis_1">
    <g id="xtick_1"/>
    <g id="xtick_2"/>
    <g id="xtick_3"/>
    <g id="xtick_4"/>
   </g>
   <g id="matplotlib.axis_2">
    <g id="ytick_1">
     <g id="line2d_2">
      <defs>
       <path id="m1be650643f" d="M 0 0 
L 5 0 
" style="stroke: #000000"/>
      </defs>
      <g>
       <use xlink:href="#m1be650643f" x="41.316477" y="124.425158" style="stroke: #000000"/>
      </g>
     </g>
     <g id="text_1">
      <!-- $-1$ -->
      <g transform="translate(1.976477 135.062971) scale(0.28 -0.28)">
       <defs>
        <path id="Cmsy10-a1" d="M 653 1472 
Q 600 1472 565 1512 
Q 531 1553 531 1600 
Q 531 1647 565 1687 
Q 600 1728 653 1728 
L 4325 1728 
Q 4375 1728 4408 1687 
Q 4441 1647 4441 1600 
Q 4441 1553 4408 1512 
Q 4375 1472 4325 1472 
L 653 1472 
z
" transform="scale(0.015625)"/>
        <path id="Cmr10-31" d="M 594 0 
L 594 225 
Q 1394 225 1394 428 
L 1394 3788 
Q 1063 3628 556 3628 
L 556 3853 
Q 1341 3853 1741 4263 
L 1831 4263 
Q 1853 4263 1873 4245 
Q 1894 4228 1894 4206 
L 1894 428 
Q 1894 225 2694 225 
L 2694 0 
L 594 0 
z
" transform="scale(0.015625)"/>
       </defs>
       <use xlink:href="#Cmsy10-a1" transform="translate(0 0.390625)"/>
       <use xlink:href="#Cmr10-31" transform="translate(77.685547 0.390625)"/>
      </g>
     </g>
    </g>
    <g id="ytick_2">
     <g id="line2d_3">
      <g>
       <use xlink:href="#m1be650643f" x="41.316477" y="69.12" style="stroke: #000000"/>
      </g>
     </g>
     <g id="text_2">
      <!-- $0$ -->
      <g transform="translate(23.816477 79.757813) scale(0.28 -0.28)">
       <defs>
        <path id="Cmr10-30" d="M 1600 -141 
Q 816 -141 533 504 
Q 250 1150 250 2041 
Q 250 2597 351 3087 
Q 453 3578 754 3920 
Q 1056 4263 1600 4263 
Q 2022 4263 2290 4056 
Q 2559 3850 2700 3523 
Q 2841 3197 2892 2823 
Q 2944 2450 2944 2041 
Q 2944 1491 2842 1011 
Q 2741 531 2444 195 
Q 2147 -141 1600 -141 
z
M 1600 25 
Q 1956 25 2131 390 
Q 2306 756 2347 1200 
Q 2388 1644 2388 2144 
Q 2388 2625 2347 3031 
Q 2306 3438 2132 3767 
Q 1959 4097 1600 4097 
Q 1238 4097 1063 3765 
Q 888 3434 847 3029 
Q 806 2625 806 2144 
Q 806 1788 823 1472 
Q 841 1156 916 820 
Q 991 484 1158 254 
Q 1325 25 1600 25 
z
" transform="scale(0.015625)"/>
       </defs>
       <use xlink:href="#Cmr10-30" transform="translate(0 0.390625)"/>
      </g>
     </g>
    </g>
    <g id="ytick_3">
     <g id="line2d_4">
      <g>
       <use xlink:href="#m1be650643f" x="41.316477" y="13.814842" style="stroke: #000000"/>
      </g>
     </g>
     <g id="text_3">
      <!-- $1$ -->
      <g transform="translate(23.816477 24.452654) scale(0.28 -0.28)">
       <use xlink:href="#Cmr10-31" transform="translate(0 0.390625)"/>
      </g>
     </g>
    </g>
   </g>
   <g id="line2d_5">
    <path d="M 65.008803 13.814842 
L 65.5353 13.924015 
L 66.088121 14.273338 
L 66.693591 14.930294 
L 67.378036 16.014488 
L 68.16778 17.707204 
L 69.062824 20.180123 
L 70.089491 23.707788 
L 71.274108 28.62999 
L 72.642998 35.331424 
L 74.275136 44.502658 
L 76.407445 57.863597 
L 82.778048 98.647036 
L 84.410187 107.243156 
L 85.779077 113.329586 
L 86.963693 117.62781 
L 87.99036 120.550702 
L 88.859079 122.404738 
L 89.622498 123.546859 
L 90.280619 124.156972 
L 90.859764 124.403252 
L 91.386261 124.389615 
L 91.912757 124.149538 
L 92.491902 123.624818 
L 93.150023 122.700007 
L 93.887117 121.255916 
L 94.729511 119.09112 
L 95.703529 115.932087 
L 96.809171 111.546637 
L 98.099086 105.457084 
L 99.5996 97.244669 
L 101.494987 85.546382 
L 104.653964 64.388973 
L 107.654992 44.85094 
L 109.471403 34.440031 
L 110.919268 27.34738 
L 112.156534 22.324774 
L 113.235851 18.825063 
L 114.157219 16.538966 
L 114.946963 15.118982 
L 115.631408 14.303192 
L 116.236879 13.908199 
L 116.763375 13.816206 
L 117.263546 13.946159 
L 117.816367 14.335819 
L 118.421838 15.057171 
L 119.106283 16.238858 
L 119.896027 18.075056 
L 120.79107 20.747684 
L 121.817738 24.547224 
L 123.002354 29.829354 
L 124.397569 37.136755 
L 126.082357 47.229046 
L 128.39894 62.595524 
L 133.21638 94.835565 
L 134.953817 104.797346 
L 136.375357 111.722474 
L 137.586298 116.568856 
L 138.612965 119.827457 
L 139.508009 121.984545 
L 140.271428 123.298168 
L 140.929548 124.031036 
L 141.508694 124.365149 
L 142.03519 124.41445 
L 142.535361 124.236352 
L 143.088182 123.785126 
L 143.693653 122.986698 
L 144.404423 121.649323 
L 145.220492 119.59375 
L 146.14186 116.630301 
L 147.194852 112.457573 
L 148.405794 106.713513 
L 149.853658 98.697491 
L 151.643745 87.438525 
L 154.381525 68.588955 
L 157.80375 45.338188 
L 159.593837 34.672823 
L 161.041701 27.319245 
L 162.252642 22.24569 
L 163.305635 18.735214 
L 164.200678 16.462679 
L 164.990422 15.027036 
L 165.648542 14.250532 
L 166.227688 13.888228 
L 166.72786 13.819151 
L 167.228031 13.976628 
L 167.754527 14.386672 
L 168.359998 15.165838 
L 169.044443 16.437571 
L 169.834187 18.408604 
L 170.72923 21.270937 
L 171.755898 25.330348 
L 172.940514 30.957334 
L 174.335729 38.71185 
L 176.073166 49.713246 
L 178.626672 67.493301 
L 182.33847 93.174822 
L 184.102232 103.817545 
L 185.523772 111.11587 
L 186.734713 116.225435 
L 187.761381 119.656438 
L 188.656424 121.920125 
L 189.419844 123.28982 
L 190.077964 124.044102 
L 190.630785 124.367686 
L 191.130956 124.414699 
L 191.631127 124.227774 
L 192.157624 123.778915 
L 192.763094 122.945509 
L 193.447539 121.600683 
L 194.237283 119.530922 
L 195.158652 116.442153 
L 196.211644 112.077129 
L 197.422585 106.057984 
L 198.870449 97.658795 
L 200.686861 85.70798 
L 203.766864 63.661149 
L 206.583618 44.143345 
L 208.294731 33.767381 
L 209.689945 26.597444 
L 210.874562 21.619648 
L 211.874904 18.308453 
L 212.743623 16.145522 
L 213.480718 14.853416 
L 214.112513 14.153454 
L 214.665334 13.854185 
L 215.165505 13.837052 
L 215.639352 14.043412 
L 216.165848 14.525937 
L 216.771319 15.407685 
L 217.455764 16.818984 
L 218.245508 18.979922 
L 219.166876 22.192494 
L 220.219868 26.717982 
L 221.457134 33.085778 
L 222.931323 41.928245 
L 224.800385 54.597016 
L 231.67116 102.571006 
L 233.119024 110.411614 
L 234.329965 115.801682 
L 235.356633 119.422352 
L 236.251676 121.809032 
L 237.015095 123.249438 
L 237.646891 124.014676 
L 238.199712 124.361952 
L 238.673558 124.418325 
L 239.147405 124.251475 
L 239.647576 123.833722 
L 240.226722 123.042181 
L 240.884842 121.747234 
L 241.648262 119.730489 
L 242.543305 116.688998 
L 243.569973 112.353951 
L 244.754589 106.331122 
L 246.149804 98.033306 
L 247.913566 86.115134 
L 250.888269 64.189358 
L 253.678699 44.235908 
L 255.363486 33.707567 
L 256.732376 26.476802 
L 257.890668 21.490349 
L 258.864686 18.199805 
L 259.70708 16.068362 
L 260.444174 14.771455 
L 261.049645 14.113281 
L 261.576141 13.843719 
L 262.049987 13.843438 
L 262.523834 14.072968 
L 263.05033 14.596587 
L 263.655801 15.545118 
L 264.340246 17.056094 
L 265.12999 19.361936 
L 266.051358 22.780011 
L 267.10435 27.580811 
L 268.341616 34.312746 
L 269.84213 43.795438 
L 271.816491 57.835818 
L 277.476325 99.002549 
L 279.003163 108.042675 
L 280.266754 114.252082 
L 281.319746 118.396583 
L 282.241115 121.178788 
L 283.030859 122.898919 
L 283.688979 123.847001 
L 284.2418 124.295608 
L 284.741971 124.425149 
L 285.189493 124.317741 
L 285.66334 123.974392 
L 286.216161 123.277038 
L 286.847956 122.093445 
L 287.585051 120.202604 
L 288.427444 117.39275 
L 289.401462 113.328512 
L 290.533429 107.599586 
L 291.875994 99.588195 
L 293.534457 88.262424 
L 296.061639 69.257266 
L 299.378564 44.618471 
L 301.063352 33.757979 
L 302.405917 26.460659 
L 303.537884 21.45441 
L 304.511902 18.091268 
L 305.354296 15.940072 
L 306.065065 14.696105 
L 306.670536 14.05941 
L 307.170707 13.830907 
L 307.618229 13.855875 
L 308.092076 14.118582 
L 308.618572 14.69432 
L 309.224042 15.722085 
L 309.908487 17.346344 
L 310.724556 19.904682 
L 311.645925 23.566542 
L 312.725242 28.820744 
L 313.988833 36.140441 
L 315.541996 46.539356 
L 317.70063 62.674794 
L 322.044224 95.423612 
L 323.650037 105.690648 
L 324.939952 112.608365 
L 326.045594 117.400346 
L 326.993287 120.574728 
L 327.783032 122.516382 
L 328.467477 123.660313 
L 329.046622 124.228278 
L 329.546794 124.420135 
L 329.994315 124.356038 
L 330.468162 124.045553 
L 330.994658 123.409368 
L 331.600129 122.303045 
L 332.310899 120.503139 
L 333.126968 117.79135 
L 334.074661 113.822399 
L 335.180303 108.169979 
L 336.496543 100.190882 
L 338.128681 88.81017 
L 340.576888 69.935996 
L 343.920139 44.418199 
L 345.578601 33.475878 
L 346.894842 26.181837 
L 348.000484 21.218673 
L 348.948177 17.91457 
L 349.764246 15.823651 
L 350.448691 14.63167 
L 351.027837 14.033244 
L 351.528008 13.822871 
L 351.97553 13.876632 
L 352.423051 14.158927 
L 352.949548 14.78223 
L 353.555018 15.883981 
L 354.265788 17.692257 
L 355.081857 20.431233 
L 356.02955 24.453609 
L 357.135192 30.194297 
L 358.425108 38.132734 
L 360.030921 49.484979 
L 362.479128 68.615057 
L 365.743404 93.84184 
L 367.375542 104.749879 
L 368.691782 112.131333 
L 369.797424 117.135641 
L 370.745117 120.447955 
L 371.534862 122.46904 
L 372.219307 123.653685 
L 372.772128 124.216939 
L 373.245974 124.41635 
L 373.693496 124.363321 
L 374.141018 124.075854 
L 374.641189 123.478447 
L 375.220335 122.426424 
L 375.90478 120.694202 
L 376.694524 118.058447 
L 377.615892 114.165032 
L 378.695209 108.573257 
L 379.9588 100.790963 
L 381.538288 89.575206 
L 383.854872 71.322937 
L 387.329746 44.095903 
L 388.961884 33.106107 
L 390.2518 25.843641 
L 391.331117 20.945617 
L 392.252485 17.716717 
L 393.042229 15.697039 
L 393.70035 14.56354 
L 394.25317 14.006609 
L 394.727017 13.819867 
L 395.148214 13.880135 
L 395.595736 14.177426 
L 396.095907 14.792698 
L 396.675053 15.874259 
L 397.359498 17.653097 
L 398.149242 20.357259 
L 399.07061 24.34794 
L 400.149927 30.072934 
L 401.439843 38.207093 
L 403.045656 49.872965 
L 405.520188 69.740411 
L 408.600191 94.084766 
L 410.206004 105.042908 
L 411.495919 112.401989 
L 412.575237 117.35166 
L 413.496605 120.599971 
L 414.286349 122.61666 
L 414.944469 123.733306 
L 415.49729 124.265888 
L 415.944812 124.422836 
L 416.366009 124.345512 
L 416.813531 124.024418 
L 417.313702 123.375783 
L 417.919172 122.186195 
L 418.603617 120.319425 
L 419.419686 117.395505 
L 420.36738 113.101316 
L 421.473021 106.980552 
L 422.789262 98.355988 
L 424.447725 85.912966 
L 427.448753 61.309443 
L 429.84431 42.526204 
L 431.397474 32.022726 
L 432.63474 25.068769 
L 433.687732 20.340068 
L 434.582776 17.27832 
L 435.346195 15.408779 
L 435.97799 14.398128 
L 436.504486 13.934955 
L 436.952008 13.814915 
L 437.373205 13.932418 
L 437.820727 14.30179 
L 438.347223 15.056811 
L 438.952694 16.347657 
L 439.663463 18.42606 
L 440.479532 21.532981 
L 441.45355 26.186557 
L 442.585517 32.760327 
L 443.954407 42.119502 
L 445.744494 56.048355 
L 451.404328 101.315358 
L 452.773218 109.922467 
L 453.905184 115.723702 
L 454.879202 119.616125 
L 455.695271 122.025711 
L 456.379716 123.417176 
L 456.958862 124.133081 
L 457.432708 124.39948 
L 457.853905 124.393479 
L 458.275102 124.158787 
L 458.748949 123.622447 
L 459.30177 122.635763 
L 459.95989 120.96346 
L 460.723309 118.366884 
L 461.618353 114.469735 
L 462.64502 108.955646 
L 463.882286 101.01428 
L 465.409125 89.664679 
L 467.673059 70.953313 
L 470.989984 43.744222 
L 472.569473 32.661455 
L 473.806739 25.443816 
L 474.859731 20.535559 
L 475.754774 17.361967 
L 476.491869 15.484893 
L 477.123664 14.426487 
L 477.650161 13.941066 
L 478.097682 13.814907 
L 478.518879 13.93745 
L 478.966401 14.323606 
L 479.466572 15.065204 
L 480.072043 16.394778 
L 480.782813 18.544382 
L 481.598882 21.764851 
L 482.546575 26.449236 
L 483.678541 33.240026 
L 485.047431 42.906653 
L 486.863843 57.480821 
L 492.023505 99.883145 
L 493.41872 109.065574 
L 494.577012 115.28217 
L 495.55103 119.358195 
L 496.367099 121.887315 
L 497.051544 123.351997 
L 497.630689 124.109329 
L 498.104536 124.395159 
L 498.525733 124.395338 
L 498.94693 124.156354 
L 499.420776 123.602746 
L 499.973597 122.579559 
L 500.631717 120.841642 
L 501.395137 118.140652 
L 502.29018 114.08643 
L 503.343173 108.193081 
L 504.580439 99.922779 
L 506.133602 87.940188 
L 508.634459 66.617978 
L 511.398564 43.597052 
L 512.951727 32.483865 
L 514.188993 25.156166 
L 515.215661 20.325968 
L 516.084379 17.228544 
L 516.821474 15.359996 
L 517.426945 14.366907 
L 517.927116 13.922748 
L 518.348313 13.815287 
L 518.743185 13.936559 
L 519.164382 14.30235 
L 519.664553 15.051662 
L 520.243699 16.340754 
L 520.928144 18.433402 
L 521.744213 21.702036 
L 522.691906 26.485535 
L 523.797548 33.270572 
L 525.140113 42.966202 
L 526.9302 57.655913 
L 531.958238 99.877463 
L 533.327128 109.081744 
L 534.459095 115.287042 
L 535.406788 119.341247 
L 536.222857 121.920864 
L 536.907302 123.398659 
L 537.460123 124.121685 
L 537.93397 124.40155 
L 538.328842 124.3936 
L 538.723714 124.166243 
L 539.171236 123.644337 
L 539.697732 122.674242 
L 540.329527 121.011064 
L 541.066622 118.403869 
L 541.93534 114.456057 
L 542.962008 108.669081 
L 544.172949 100.484666 
L 545.699788 88.525271 
L 548.095345 67.709766 
L 550.938425 43.488979 
L 552.465263 32.351821 
L 553.676205 25.051956 
L 554.676547 20.265679 
L 555.545266 17.12912 
L 556.256036 15.315324 
L 556.861506 14.324897 
L 557.361678 13.899401 
L 557.782875 13.819228 
L 558.177747 13.9756 
L 558.625268 14.423035 
L 559.12544 15.260241 
L 559.73091 16.742417 
L 560.44168 19.119438 
L 561.284074 22.786652 
L 562.258092 28.091651 
L 563.416383 35.712313 
L 564.837923 46.637853 
L 566.864933 64.12525 
L 570.497757 95.568367 
L 571.998271 106.504309 
L 573.182887 113.610395 
L 574.18323 118.342638 
L 575.025623 121.325443 
L 575.736393 123.083311 
L 576.315539 123.983516 
L 576.789386 124.357938 
L 577.184258 124.418937 
L 577.57913 124.251266 
L 578.026651 123.785541 
L 578.526823 122.921169 
L 579.132293 121.397024 
L 579.843063 118.958949 
L 580.685457 115.204833 
L 581.659475 109.783519 
L 582.817766 102.009964 
L 584.265631 90.671575 
L 586.371615 72.20561 
L 589.688541 43.215024 
L 591.189055 32.091937 
L 592.373672 24.853161 
L 593.374014 20.02767 
L 594.216408 16.983712 
L 594.927178 15.188458 
L 595.506324 14.268165 
L 595.98017 13.884512 
L 596.375042 13.82086 
L 596.769914 13.99048 
L 597.191111 14.42786 
L 597.691283 15.288366 
L 598.296753 16.817686 
L 599.007523 19.275152 
L 599.823592 22.93719 
L 600.79761 28.395518 
L 601.955901 36.241442 
L 603.403766 47.701527 
L 605.536075 66.608204 
L 608.747702 94.94473 
L 610.248216 106.180477 
L 611.432832 113.476469 
L 612.433175 118.322121 
L 613.275569 121.360502 
L 613.960014 123.081697 
L 614.539159 123.995628 
L 615.013006 124.366602 
L 615.407878 124.414568 
L 615.80275 124.224669 
L 616.223947 123.760709 
L 616.724118 122.862239 
L 617.329589 121.278186 
L 618.040359 118.745314 
L 618.882753 114.848145 
L 619.856771 109.227056 
L 621.041387 100.984403 
L 622.515576 89.032637 
L 624.805834 68.359518 
L 627.622589 43.372086 
L 629.096778 32.206166 
L 630.281394 24.81871 
L 631.255412 20.031376 
L 632.097806 16.93652 
L 632.782251 15.183031 
L 633.361397 14.252009 
L 633.835243 13.874284 
L 634.230115 13.825743 
L 634.624988 14.019666 
L 635.046184 14.492953 
L 635.546356 15.409123 
L 636.151826 17.023883 
L 636.862596 19.604957 
L 637.70499 23.574423 
L 638.679008 29.295925 
L 639.863624 37.677253 
L 641.337813 49.810118 
L 643.707046 71.463172 
L 646.365852 95.185484 
L 647.840041 106.396769 
L 648.998332 113.628553 
L 649.97235 118.406749 
L 650.788419 121.389438 
L 651.472864 123.127109 
L 652.025685 124.003649 
L 652.499532 124.373226 
L 652.894404 124.409875 
L 653.262951 124.221173 
L 653.684148 123.742804 
L 654.184319 122.813917 
L 654.78979 121.174358 
L 655.50056 118.551781 
L 656.342954 114.517531 
L 657.316972 108.703606 
L 658.501588 100.192154 
L 660.002102 87.653963 
L 662.502959 64.509447 
L 664.951166 42.59447 
L 666.39903 31.546106 
L 667.557322 24.313775 
L 668.505015 19.679418 
L 669.321084 16.717307 
L 670.005529 15.013219 
L 670.55835 14.174693 
L 671.005871 13.854113 
L 671.374419 13.83252 
L 671.742966 14.03015 
L 672.164163 14.523561 
L 672.664334 15.476845 
L 673.269805 17.155009 
L 673.980575 19.834628 
L 674.822969 23.950812 
L 675.823311 30.050847 
L 677.007928 38.741918 
L 678.534766 51.735134 
L 681.325196 77.881675 
L 683.48383 97.078016 
L 684.879045 107.616779 
L 686.011012 114.574332 
L 686.958705 119.088223 
L 687.748449 121.840939 
L 688.406569 123.392909 
L 688.933065 124.133373 
L 689.354262 124.400012 
L 689.72281 124.394331 
L 690.091357 124.165456 
L 690.512554 123.631655 
L 691.03905 122.560134 
L 691.644521 120.783286 
L 692.381615 117.860796 
L 693.224009 113.557205 
L 694.224352 107.232802 
L 695.435293 98.072347 
L 697.014781 84.282397 
L 702.569316 34.135656 
L 703.780257 25.96813 
L 704.780599 20.638094 
L 705.622993 17.275273 
L 706.307438 15.35627 
L 706.886584 14.325155 
L 707.360431 13.894092 
L 707.755303 13.821189 
L 708.12385 13.988526 
L 708.545047 14.457288 
L 709.045218 15.39516 
L 709.624364 16.989391 
L 710.308809 19.555553 
L 711.124878 23.532493 
L 712.098896 29.478302 
L 713.257187 38.021261 
L 714.731377 50.680231 
L 717.232233 74.47089 
L 719.575141 95.955795 
L 720.996681 107.038189 
L 722.128648 114.225186 
L 723.076341 118.894932 
L 723.866085 121.745504 
L 724.524205 123.353827 
L 725.050701 124.121774 
L 725.471898 124.398778 
L 725.840445 124.393588 
L 726.208993 124.157193 
L 726.63019 123.605071 
L 727.130361 122.562729 
L 727.735832 120.750151 
L 728.446601 117.878812 
L 729.288995 113.494813 
L 730.289338 107.03359 
L 731.500279 97.662657 
L 733.079767 83.562311 
L 738.371054 34.82307 
L 739.581995 26.395457 
L 740.582338 20.885396 
L 741.424731 17.404515 
L 742.109176 15.416079 
L 742.688322 14.346411 
L 743.162169 13.898183 
L 743.530716 13.817791 
L 743.899263 13.972689 
L 744.294135 14.399123 
L 744.767982 15.26374 
L 745.347128 16.834884 
L 746.031573 19.399796 
L 746.847642 23.41037 
L 747.795335 29.262076 
L 748.927302 37.711876 
L 750.375166 50.31642 
L 752.797048 73.72999 
L 755.166281 95.874381 
L 756.561496 106.954717 
L 757.693462 114.268369 
L 758.614831 118.883401 
L 759.404575 121.777849 
L 760.03637 123.34513 
L 760.562866 124.126315 
L 760.984063 124.402178 
L 761.352611 124.387384 
L 761.721158 124.133391 
L 762.142355 123.551513 
L 762.642526 122.460843 
L 763.247997 120.571814 
L 763.958767 117.587731 
L 764.80116 113.042435 
L 765.801503 106.359965 
L 767.038769 96.471095 
L 768.670907 81.460514 
L 773.383048 36.981268 
L 774.646638 27.678268 
L 775.673306 21.663084 
L 776.5157 17.92176 
L 777.22647 15.673306 
L 777.805615 14.484592 
L 778.279462 13.952296 
L 778.674334 13.81485 
L 779.016557 13.921647 
L 779.411429 14.305132 
L 779.85895 15.074574 
L 780.411771 16.509088 
L 781.069891 18.895726 
L 781.833311 22.546518 
L 782.754679 28.119956 
L 783.860321 36.28683 
L 785.229211 48.168828 
L 787.335196 68.672697 
L 790.125625 95.46849 
L 791.52084 106.784135 
L 792.626482 114.087936 
L 793.54785 118.813442 
L 794.31127 121.687179 
L 794.943065 123.307344 
L 795.469561 124.11541 
L 795.890758 124.401158 
L 796.259305 124.386436 
L 796.627853 124.124506 
L 797.04905 123.523843 
L 797.549221 122.397709 
L 798.154692 120.447452 
L 798.865461 117.367855 
L 799.707855 112.680564 
L 800.708198 105.797931 
L 801.945464 95.6339 
L 803.603927 80.002279 
L 807.94752 38.176012 
L 809.237435 28.336002 
L 810.264103 22.087495 
L 811.132822 18.079524 
L 811.843591 15.750618 
L 812.422737 14.516536 
L 812.896584 13.961345 
L 813.291456 13.814851 
L 813.633678 13.921248 
L 814.002226 14.277805 
L 814.449747 15.045909 
L 815.002568 16.494939 
L 815.660689 18.921325 
L 816.424108 22.646659 
L 817.345476 28.345555 
L 818.451118 36.702524 
L 819.846333 49.10193 
L 822.057617 71.089265 
L 824.584798 95.639644 
L 825.980013 107.091225 
L 827.085655 114.43455 
L 827.980698 119.022699 
L 828.744118 121.871919 
L 829.375913 123.444319 
L 829.876085 124.168294 
L 830.270957 124.409739 
L 830.613179 124.382035 
L 830.981726 124.106117 
L 831.402923 123.47981 
L 831.903095 122.310206 
L 832.508565 120.289358 
L 833.219335 117.103918 
L 834.061729 112.263697 
L 835.088396 104.965924 
L 836.351987 94.244559 
L 838.089424 77.394931 
L 841.880197 40.122573 
L 843.196437 29.601608 
L 844.249429 22.842669 
L 845.118148 18.5811 
L 845.855243 15.989237 
L 846.460713 14.601665 
L 846.93456 13.995503 
L 847.329432 13.816387 
L 847.671654 13.901932 
L 848.040202 14.243829 
L 848.487723 15.005016 
L 849.01422 16.379672 
L 849.646015 18.695257 
L 850.409434 22.41898 
L 851.304478 27.978437 
L 852.383795 36.185354 
L 853.752685 48.460453 
L 854.753028 58.330499 
L 854.753028 58.330499 
" clip-path="url(#pa93aa06676)" style="fill: none; stroke: #e36f47; stroke-width: 6"/>
   </g>
   <g id="patch_3">
    <path d="M 41.316477 127.743467 
L 41.316477 10.496532 
" style="fill: none; stroke: #000000; stroke-width: 2; stroke-linejoin: miter; stroke-linecap: square"/>
   </g>
  </g>
 </g>
 <defs>
  <clipPath id="pa93aa06676">
   <rect x="41.316477" y="10.496532" width="837.128878" height="117.246935"/>
  </clipPath>
 </defs>
</svg>
