<?xml version="1.0" encoding="utf-8" standalone="no"?>
<!DOCTYPE svg PUBLIC "-//W3C//DTD SVG 1.1//EN"
  "http://www.w3.org/Graphics/SVG/1.1/DTD/svg11.dtd">
<svg xmlns:xlink="http://www.w3.org/1999/xlink" width="881.28pt" height="141.12pt" viewBox="0 0 881.28 141.12" xmlns="http://www.w3.org/2000/svg" version="1.1">
 <metadata>
  <rdf:RDF xmlns:dc="http://purl.org/dc/elements/1.1/" xmlns:cc="http://creativecommons.org/ns#" xmlns:rdf="http://www.w3.org/1999/02/22-rdf-syntax-ns#">
   <cc:Work>
    <dc:type rdf:resource="http://purl.org/dc/dcmitype/StillImage"/>
    <dc:date>2024-04-27T16:44:18.010069</dc:date>
    <dc:format>image/svg+xml</dc:format>
    <dc:creator>
     <cc:Agent>
      <dc:title>Matplotlib v3.7.0, https://matplotlib.org/</dc:title>
     </cc:Agent>
    </dc:creator>
   </cc:Work>
  </rdf:RDF>
 </metadata>
 <defs>
  <style type="text/css">*{stroke-linejoin: round; stroke-linecap: butt}</style>
 </defs>
 <g id="figure_1">
  <g id="patch_1">
   <path d="M 0 141.12 
L 881.28 141.12 
L 881.28 0 
L 0 0 
L 0 141.12 
z
" style="fill: none"/>
  </g>
  <g id="axes_1">
   <g id="patch_2">
    <path d="M 41.316477 124.800705 
L 878.445354 124.800705 
L 878.445354 10.559295 
L 41.316477 10.559295 
L 41.316477 124.800705 
z
" style="fill: none"/>
   </g>
   <g id="line2d_1">
    <path d="M 65.008803 13.792542 
L 65.5353 13.898877 
L 66.088121 14.238946 
L 66.693591 14.878123 
L 67.378036 15.932295 
L 68.16778 17.57696 
L 69.062824 19.977796 
L 70.089491 23.399765 
L 71.274108 28.170239 
L 72.642998 34.659329 
L 74.275136 43.532358 
L 76.407445 56.45035 
L 82.830698 96.217146 
L 84.489161 104.671443 
L 85.858051 110.570423 
L 87.042667 114.753523 
L 88.069335 117.616636 
L 88.964378 119.498388 
L 89.727798 120.633386 
L 90.412243 121.274261 
L 90.991388 121.534684 
L 91.544209 121.540789 
L 92.09703 121.309859 
L 92.676176 120.814657 
L 93.334296 119.940193 
L 94.071391 118.573411 
L 94.913785 116.523272 
L 95.887803 113.530118 
L 96.993445 109.372483 
L 98.257035 103.721539 
L 99.757549 95.938017 
L 101.626611 84.979934 
L 104.522339 66.472735 
L 107.970889 44.779649 
L 109.839951 34.429166 
L 111.340465 27.316051 
L 112.604055 22.344626 
L 113.683372 18.932056 
L 114.631066 16.619901 
L 115.447135 15.167262 
L 116.157904 14.320522 
L 116.763375 13.911963 
L 117.316196 13.79255 
L 117.842692 13.904655 
L 118.395513 14.259196 
L 119.000984 14.924221 
L 119.685429 16.020202 
L 120.475173 17.729464 
L 121.370216 20.223921 
L 122.396884 23.778085 
L 123.5815 28.729989 
L 124.95039 35.458931 
L 126.608853 44.800107 
L 128.820137 58.65192 
L 134.453646 94.52847 
L 136.138433 103.548976 
L 137.533648 109.882404 
L 138.718264 114.298441 
L 139.744932 117.331864 
L 140.639975 119.333351 
L 141.403395 120.546778 
L 142.061515 121.218548 
L 142.640661 121.518849 
L 143.167157 121.553897 
L 143.693653 121.361933 
L 144.246474 120.916713 
L 144.878269 120.104614 
L 145.589039 118.809917 
L 146.405108 116.837838 
L 147.352801 113.921177 
L 148.432118 109.827445 
L 149.669384 104.212792 
L 151.117249 96.560663 
L 152.907336 85.837215 
L 155.618791 68.057529 
L 159.225289 44.64556 
L 161.041701 34.299745 
L 162.51589 27.126719 
L 163.753156 22.149521 
L 164.832473 18.687531 
L 165.753842 16.432849 
L 166.543586 15.03942 
L 167.228031 14.246392 
L 167.807177 13.881184 
L 168.333673 13.794525 
L 168.860169 13.942189 
L 169.41299 14.348968 
L 170.01846 15.088358 
L 170.702905 16.289251 
L 171.49265 18.145551 
L 172.414018 20.925782 
L 173.46701 24.868689 
L 174.677951 30.327335 
L 176.099491 37.834131 
L 177.836928 48.286887 
L 180.36411 65.019674 
L 184.339156 91.265676 
L 186.129243 101.551085 
L 187.577107 108.63107 
L 188.788048 113.508612 
L 189.84104 116.878068 
L 190.736084 119.054918 
L 191.525828 120.426006 
L 192.183948 121.163619 
L 192.763094 121.503231 
L 193.28959 121.558561 
L 193.789762 121.387082 
L 194.342583 120.944187 
L 194.948053 120.156134 
L 195.658823 118.832696 
L 196.474892 116.795666 
L 197.39626 113.856823 
L 198.449253 109.717754 
L 199.660194 104.021099 
L 201.108058 96.076595 
L 202.898145 84.93348 
L 205.741224 65.606035 
L 208.952851 44.195213 
L 210.716613 33.888058 
L 212.138152 26.812504 
L 213.349094 21.850347 
L 214.375761 18.50956 
L 215.270804 16.296434 
L 216.034224 14.948271 
L 216.692344 14.19623 
L 217.27149 13.853707 
L 217.771661 13.800327 
L 218.271833 13.972139 
L 218.798329 14.395709 
L 219.403799 15.188297 
L 220.088244 16.472215 
L 220.877988 18.452956 
L 221.799357 21.413971 
L 222.852349 25.604307 
L 224.06329 31.389963 
L 225.48483 39.317466 
L 227.274917 50.646313 
L 230.144321 70.474632 
L 233.224323 91.290884 
L 234.988085 101.727108 
L 236.3833 108.738831 
L 237.567916 113.634302 
L 238.594584 116.991415 
L 239.489627 119.195079 
L 240.253047 120.51707 
L 240.884842 121.212014 
L 241.437663 121.519021 
L 241.937834 121.552918 
L 242.438006 121.354736 
L 242.964502 120.896116 
L 243.569973 120.054268 
L 244.254418 118.70369 
L 245.044162 116.63264 
L 245.96553 113.550203 
L 247.018522 109.203719 
L 248.229463 103.22234 
L 249.677328 94.89391 
L 251.520064 82.89602 
L 254.994939 58.405064 
L 257.469471 41.815969 
L 259.127934 32.127946 
L 260.470499 25.514402 
L 261.62879 20.871349 
L 262.602808 17.816993 
L 263.445202 15.845634 
L 264.182297 14.652402 
L 264.787767 14.052747 
L 265.314264 13.814008 
L 265.78811 13.825297 
L 266.288281 14.06982 
L 266.841102 14.616942 
L 267.446573 15.546561 
L 268.157343 17.070944 
L 268.973412 19.381454 
L 269.921105 22.782001 
L 271.000422 27.528147 
L 272.264013 34.139685 
L 273.790852 43.390431 
L 275.791537 56.989185 
L 281.477695 96.459023 
L 283.030859 105.281301 
L 284.320774 111.38466 
L 285.400092 115.490659 
L 286.347785 118.267963 
L 287.137529 119.954959 
L 287.821974 120.938709 
L 288.40112 121.417018 
L 288.901291 121.566058 
L 289.375138 121.480594 
L 289.875309 121.151321 
L 290.42813 120.503315 
L 291.059925 119.401767 
L 291.79702 117.639998 
L 292.639414 115.019094 
L 293.613432 111.223354 
L 294.745398 105.864018 
L 296.087963 98.351868 
L 297.720102 87.872384 
L 300.089334 71.034642 
L 303.959081 43.551546 
L 305.643869 33.218152 
L 307.012759 26.126514 
L 308.17105 21.24259 
L 309.145068 18.026473 
L 309.987462 15.950078 
L 310.698232 14.729509 
L 311.303702 14.083365 
L 311.830198 13.819968 
L 312.304045 13.821781 
L 312.777891 14.050104 
L 313.304388 14.56848 
L 313.909858 15.505867 
L 314.594303 16.997612 
L 315.384047 19.272474 
L 316.305416 22.642478 
L 317.358408 27.372663 
L 318.595674 34.00053 
L 320.096188 43.327354 
L 322.070548 57.116376 
L 327.598758 96.525746 
L 329.125597 105.415613 
L 330.389188 111.527128 
L 331.468505 115.69899 
L 332.389873 118.419201 
L 333.179617 120.096906 
L 333.837737 121.017521 
L 334.390558 121.448776 
L 334.89073 121.567223 
L 335.364576 121.440531 
L 335.864748 121.055035 
L 336.417568 120.330132 
L 337.075689 119.063574 
L 337.812783 117.136353 
L 338.681502 114.201169 
L 339.681845 109.984155 
L 340.840136 104.084137 
L 342.209026 95.90416 
L 343.946463 84.083701 
L 346.947491 61.811 
L 349.606297 42.775516 
L 351.238435 32.610869 
L 352.554675 25.711123 
L 353.686642 20.902406 
L 354.634335 17.772611 
L 355.450404 15.778974 
L 356.161174 14.594161 
L 356.74032 14.017793 
L 357.240491 13.80475 
L 357.688013 13.838987 
L 358.161859 14.106741 
L 358.688356 14.682271 
L 359.293826 15.702162 
L 360.004596 17.378814 
L 360.820665 19.922439 
L 361.768358 23.663684 
L 362.847675 28.874311 
L 364.137591 36.266872 
L 365.717079 46.706942 
L 367.954688 63.151134 
L 371.929734 92.441101 
L 373.561872 102.737457 
L 374.878112 109.712792 
L 375.983754 114.458387 
L 376.931447 117.619563 
L 377.747516 119.623174 
L 378.431961 120.769073 
L 379.011107 121.348528 
L 379.511278 121.557547 
L 379.9588 121.514458 
L 380.432647 121.231977 
L 380.959143 120.633753 
L 381.564613 119.579796 
L 382.275383 117.852867 
L 383.091452 115.239439 
L 384.039145 111.40285 
L 385.144787 105.926812 
L 386.434703 98.349697 
L 388.040516 87.499214 
L 390.409749 69.763428 
L 393.937273 43.503646 
L 395.595736 32.862938 
L 396.911976 25.775588 
L 398.017618 20.956998 
L 398.965311 17.752239 
L 399.78138 15.726862 
L 400.465825 14.574677 
L 401.044971 13.998687 
L 401.545142 13.799196 
L 401.992664 13.856028 
L 402.46651 14.158445 
L 402.993007 14.785142 
L 403.598477 15.879725 
L 404.309247 17.664406 
L 405.125316 20.356195 
L 406.073009 24.297414 
L 407.178651 29.909315 
L 408.494891 37.824988 
L 410.127029 49.097146 
L 412.654211 68.342792 
L 415.760538 91.637602 
L 417.419001 102.41009 
L 418.735241 109.577365 
L 419.840883 114.439974 
L 420.788576 117.66291 
L 421.578321 119.634182 
L 422.262766 120.794773 
L 422.841911 121.369921 
L 423.315758 121.55968 
L 423.76328 121.505737 
L 424.210801 121.225383 
L 424.737298 120.607168 
L 425.342768 119.51516 
L 426.053538 117.723882 
L 426.869607 115.012233 
L 427.8173 111.032717 
L 428.922942 105.358146 
L 430.239182 97.348309 
L 431.87132 85.942424 
L 434.451152 66.082196 
L 437.45218 43.426114 
L 439.084318 32.764496 
L 440.374233 25.701043 
L 441.479875 20.816588 
L 442.401243 17.671267 
L 443.190988 15.692647 
L 443.875433 14.5361 
L 444.428254 13.989384 
L 444.9021 13.799626 
L 445.349622 13.857841 
L 445.797144 14.146595 
L 446.32364 14.779901 
L 446.92911 15.897269 
L 447.63988 17.728172 
L 448.455949 20.496921 
L 449.403642 24.55591 
L 450.509284 30.336641 
L 451.825524 38.48343 
L 453.483987 50.255522 
L 456.221767 71.589474 
L 458.959547 92.313124 
L 460.565361 102.836376 
L 461.855276 109.904478 
L 462.934593 114.665493 
L 463.855961 117.799691 
L 464.645706 119.756641 
L 465.303826 120.851992 
L 465.856647 121.387371 
L 466.330493 121.563556 
L 466.778015 121.489366 
L 467.225537 121.1817 
L 467.752033 120.522593 
L 468.357504 119.372412 
L 469.068273 117.498749 
L 469.884342 114.675854 
L 470.832035 110.54873 
L 471.937677 104.684118 
L 473.253918 96.436358 
L 474.938705 84.346695 
L 477.860759 61.405419 
L 480.387941 42.327279 
L 481.967429 32.020101 
L 483.23102 25.140113 
L 484.310337 20.425488 
L 485.231705 17.345907 
L 485.995125 15.498443 
L 486.653245 14.438197 
L 487.206066 13.936777 
L 487.679912 13.792798 
L 488.101109 13.887057 
L 488.548631 14.216054 
L 489.075127 14.903076 
L 489.680598 16.088868 
L 490.391367 18.008626 
L 491.207436 20.889265 
L 492.155129 25.088301 
L 493.260771 31.04053 
L 494.603337 39.571714 
L 496.261799 51.643007 
L 499.5524 77.722004 
L 501.790009 94.454079 
L 503.316848 104.2801 
L 504.554114 110.885359 
L 505.607106 115.368335 
L 506.50215 118.268766 
L 507.265569 120.040981 
L 507.897364 121.001961 
L 508.423861 121.44644 
L 508.897707 121.567195 
L 509.318904 121.452005 
L 509.79275 121.072811 
L 510.319247 120.343992 
L 510.951042 119.048707 
L 511.688137 116.97269 
L 512.53053 113.886778 
L 513.504548 109.432483 
L 514.66284 103.023985 
L 516.058055 93.959822 
L 517.874466 80.569804 
L 523.639599 36.932849 
L 525.061139 28.422505 
L 526.21943 22.739016 
L 527.219773 18.871561 
L 528.062167 16.427937 
L 528.772937 14.973825 
L 529.378407 14.186408 
L 529.904903 13.844199 
L 530.352425 13.805354 
L 530.799947 13.998176 
L 531.273793 14.45375 
L 531.826614 15.308892 
L 532.484735 16.773327 
L 533.248154 19.061939 
L 534.143197 22.513564 
L 535.169865 27.418833 
L 536.380806 34.35555 
L 537.854995 44.175625 
L 539.882005 59.336777 
L 544.488847 94.267245 
L 546.04201 104.095762 
L 547.305601 110.741168 
L 548.516542 115.905976 
L 549.358936 118.571725 
L 550.096031 120.221264 
L 550.701501 121.090273 
L 551.227997 121.487484 
L 551.675519 121.56345 
L 552.096716 121.416822 
L 552.570563 121.0019 
L 553.123384 120.189084 
L 553.755179 118.837979 
L 554.492274 116.714692 
L 555.360992 113.499391 
L 556.38766 108.789692 
L 557.598601 102.129014 
L 559.099115 92.544728 
L 561.178775 77.672499 
L 565.811941 44.145483 
L 567.470404 33.978173 
L 568.839294 26.899271 
L 569.997585 22.000462 
L 571.024253 18.57336 
L 571.919296 16.323647 
L 572.682716 14.9625 
L 573.340836 14.205578 
L 573.919981 13.85866 
L 574.446478 13.801058 
L 574.946649 13.97138 
L 575.49947 14.410953 
L 576.131265 15.229697 
L 576.842035 16.542171 
L 577.658104 18.538693 
L 578.605797 21.475255 
L 579.711439 25.670232 
L 581.001355 31.4849 
L 582.554518 39.566473 
L 584.581529 51.376435 
L 591.794526 94.500173 
L 593.505638 102.819967 
L 594.953503 108.814934 
L 596.243418 113.24815 
L 597.375385 116.385014 
L 598.375728 118.548783 
L 599.270771 119.992414 
L 600.034191 120.845822 
L 600.79761 121.345062 
L 601.50838 121.552894 
L 602.192825 121.520804 
L 602.87727 121.263748 
L 603.614364 120.739677 
L 604.430433 119.867338 
L 605.325477 118.568652 
L 606.325819 116.711591 
L 607.457786 114.122772 
L 608.747702 110.589632 
L 610.221891 105.869933 
L 611.933003 99.611676 
L 614.275911 90.094578 
L 616.302922 81.080792 
L 618.777453 68.998007 
L 626.09575 32.532193 
L 627.727888 25.889611 
L 629.070453 21.298017 
L 630.20242 18.170021 
L 631.150113 16.157577 
L 631.966182 14.905575 
L 632.676952 14.1885 
L 633.308747 13.853715 
L 633.861568 13.800484 
L 634.414389 13.975139 
L 634.993535 14.405778 
L 635.62533 15.167164 
L 636.3361 16.38879 
L 637.152169 18.266451 
L 638.073537 20.98816 
L 639.100205 24.750448 
L 640.258496 29.869661 
L 641.601062 36.861202 
L 643.18055 46.325296 
L 645.233885 60.088175 
L 650.946368 99.198911 
L 652.473207 107.693923 
L 653.657823 113.123922 
L 654.658166 116.741407 
L 655.526885 119.099175 
L 656.263979 120.497063 
L 656.86945 121.217948 
L 657.395946 121.525719 
L 657.869793 121.54658 
L 658.317314 121.342738 
L 658.817486 120.858292 
L 659.396631 119.961205 
L 660.054752 118.510068 
L 660.818171 116.265771 
L 661.713214 112.898897 
L 662.739882 108.12323 
L 663.950823 101.365194 
L 665.398687 91.950969 
L 667.320398 77.86842 
L 672.611685 38.257556 
L 674.085874 29.293947 
L 675.296815 23.227065 
L 676.323483 19.160873 
L 677.192201 16.571115 
L 677.929296 15.022637 
L 678.534766 14.212216 
L 679.061263 13.852676 
L 679.508784 13.802069 
L 679.956306 13.986672 
L 680.430153 14.438225 
L 680.982973 15.295838 
L 681.614769 16.706249 
L 682.351863 18.917592 
L 683.220582 22.274164 
L 684.220925 27.079121 
L 685.326567 33.509288 
L 686.748106 43.175209 
L 688.696142 58.094975 
L 693.355633 94.343243 
L 694.882472 104.18505 
L 696.119738 110.792871 
L 697.17273 115.278375 
L 698.067774 118.186637 
L 698.831193 119.973219 
L 699.489313 120.984447 
L 700.042134 121.44949 
L 700.515981 121.56718 
L 700.963502 121.440406 
L 701.437349 121.055651 
L 701.99017 120.28466 
L 702.621965 118.986669 
L 703.35906 116.927187 
L 704.227778 113.781379 
L 705.228121 109.264415 
L 706.412738 102.811887 
L 707.834277 93.758035 
L 709.729663 80.113516 
L 715.336847 38.786093 
L 716.811036 30.004362 
L 718.048302 23.894567 
L 719.101295 19.743102 
L 719.996338 17.039886 
L 720.786082 15.308288 
L 721.444203 14.364998 
L 721.997024 13.922008 
L 722.497195 13.79255 
L 722.971041 13.903652 
L 723.471213 14.262423 
L 724.050359 14.979185 
L 724.708479 16.171766 
L 725.471898 18.03362 
L 726.366942 20.825505 
L 727.419934 24.870211 
L 728.683525 30.658809 
L 730.236688 38.885074 
L 732.368998 51.501151 
L 738.344729 87.522052 
L 740.21379 97.090393 
L 741.819604 104.188662 
L 743.241143 109.499668 
L 744.504734 113.410376 
L 744.952256 114.340967 
L 747.137215 117.400549 
L 748.716703 119.247767 
L 749.980294 120.405186 
L 751.059611 121.109167 
L 752.007304 121.47189 
L 752.849698 121.566572 
L 753.639442 121.439738 
L 754.429186 121.085526 
L 755.245255 120.461737 
L 756.087649 119.523399 
L 756.982693 118.177546 
L 757.930386 116.33845 
L 758.957053 113.842303 
L 760.062695 110.546751 
L 761.273636 106.199669 
L 762.589877 100.60208 
L 764.037741 93.434236 
L 765.696204 84.045859 
L 767.723214 71.214197 
L 774.041168 30.176496 
L 775.357408 23.576386 
L 776.226127 20.169992 
L 777.200145 17.300801 
L 778.016214 15.531519 
L 778.726984 14.483807 
L 779.332454 13.963847 
L 779.85895 13.794997 
L 780.332797 13.870381 
L 780.832968 14.184483 
L 781.385789 14.811618 
L 782.017585 15.885947 
L 782.754679 17.61436 
L 783.597073 20.199408 
L 784.571091 23.96303 
L 785.676733 29.170995 
L 786.966648 36.364886 
L 788.546137 46.516994 
L 790.704771 61.986267 
L 795.179988 94.369695 
L 796.785802 104.186503 
L 798.075717 110.77408 
L 799.155034 115.208817 
L 800.076402 118.123957 
L 800.866147 119.937286 
L 801.524267 120.943244 
L 802.077088 121.423783 
L 802.550934 121.566799 
L 802.998456 121.472217 
L 803.472303 121.12828 
L 803.998799 120.452662 
L 804.604269 119.296938 
L 805.315039 117.432014 
L 806.131108 114.634442 
L 807.078801 110.549288 
L 808.184443 104.73852 
L 809.500684 96.543544 
L 811.132822 84.873799 
L 813.738978 64.351988 
L 816.582057 42.461363 
L 818.161545 31.952062 
L 819.425136 24.941001 
L 820.478128 20.263373 
L 821.373172 17.225843 
L 822.136591 15.368191 
L 822.768387 14.364501 
L 823.294883 13.907026 
L 823.742404 13.792861 
L 824.163601 13.917527 
L 824.611123 14.296976 
L 825.137619 15.068042 
L 825.74309 16.384196 
L 826.45386 18.503311 
L 827.269929 21.673429 
L 828.349246 26.859426 
L 829.560187 33.873186 
L 831.087026 44.12047 
L 833.350959 61.017366 
L 837.010107 88.248519 
L 838.72122 99.261788 
L 840.116435 106.872535 
L 841.327376 112.297044 
L 842.380368 116.038946 
L 843.301736 118.533679 
L 844.091481 120.080918 
L 844.775926 120.978425 
L 845.381396 121.430938 
L 845.907892 121.566826 
L 846.408064 121.477376 
L 846.93456 121.157585 
L 847.54003 120.510854 
L 848.224475 119.432381 
L 849.01422 117.750705 
L 849.935588 115.233392 
L 851.014905 111.58939 
L 852.278496 106.485348 
L 853.805335 99.322803 
L 854.753028 94.445755 
L 854.753028 94.445755 
" clip-path="url(#pc60c27218b)" style="fill: none; stroke: #009afa; stroke-width: 6"/>
   </g>
   <g id="matplotlib.axis_1"/>
   <g id="matplotlib.axis_2">
    <g id="ytick_1">
     <g id="line2d_2">
      <defs>
       <path id="m201a1e6e7f" d="M 0 0 
L 5 0 
" style="stroke: #000000"/>
      </defs>
      <g>
       <use xlink:href="#m201a1e6e7f" x="41.316477" y="121.567458" style="stroke: #000000"/>
      </g>
     </g>
     <g id="text_1">
      <!-- $-1$ -->
      <g transform="translate(1.976477 132.20527) scale(0.28 -0.28)">
       <defs>
        <path id="Cmsy10-a1" d="M 653 1472 
Q 600 1472 565 1512 
Q 531 1553 531 1600 
Q 531 1647 565 1687 
Q 600 1728 653 1728 
L 4325 1728 
Q 4375 1728 4408 1687 
Q 4441 1647 4441 1600 
Q 4441 1553 4408 1512 
Q 4375 1472 4325 1472 
L 653 1472 
z
" transform="scale(0.015625)"/>
        <path id="Cmr10-31" d="M 594 0 
L 594 225 
Q 1394 225 1394 428 
L 1394 3788 
Q 1063 3628 556 3628 
L 556 3853 
Q 1341 3853 1741 4263 
L 1831 4263 
Q 1853 4263 1873 4245 
Q 1894 4228 1894 4206 
L 1894 428 
Q 1894 225 2694 225 
L 2694 0 
L 594 0 
z
" transform="scale(0.015625)"/>
       </defs>
       <use xlink:href="#Cmsy10-a1" transform="translate(0 0.390625)"/>
       <use xlink:href="#Cmr10-31" transform="translate(77.685547 0.390625)"/>
      </g>
     </g>
    </g>
    <g id="ytick_2">
     <g id="line2d_3">
      <g>
       <use xlink:href="#m201a1e6e7f" x="41.316477" y="67.68" style="stroke: #000000"/>
      </g>
     </g>
     <g id="text_2">
      <!-- $0$ -->
      <g transform="translate(23.816477 78.317813) scale(0.28 -0.28)">
       <defs>
        <path id="Cmr10-30" d="M 1600 -141 
Q 816 -141 533 504 
Q 250 1150 250 2041 
Q 250 2597 351 3087 
Q 453 3578 754 3920 
Q 1056 4263 1600 4263 
Q 2022 4263 2290 4056 
Q 2559 3850 2700 3523 
Q 2841 3197 2892 2823 
Q 2944 2450 2944 2041 
Q 2944 1491 2842 1011 
Q 2741 531 2444 195 
Q 2147 -141 1600 -141 
z
M 1600 25 
Q 1956 25 2131 390 
Q 2306 756 2347 1200 
Q 2388 1644 2388 2144 
Q 2388 2625 2347 3031 
Q 2306 3438 2132 3767 
Q 1959 4097 1600 4097 
Q 1238 4097 1063 3765 
Q 888 3434 847 3029 
Q 806 2625 806 2144 
Q 806 1788 823 1472 
Q 841 1156 916 820 
Q 991 484 1158 254 
Q 1325 25 1600 25 
z
" transform="scale(0.015625)"/>
       </defs>
       <use xlink:href="#Cmr10-30" transform="translate(0 0.390625)"/>
      </g>
     </g>
    </g>
    <g id="ytick_3">
     <g id="line2d_4">
      <g>
       <use xlink:href="#m201a1e6e7f" x="41.316477" y="13.792542" style="stroke: #000000"/>
      </g>
     </g>
     <g id="text_3">
      <!-- $1$ -->
      <g transform="translate(23.816477 24.430355) scale(0.28 -0.28)">
       <use xlink:href="#Cmr10-31" transform="translate(0 0.390625)"/>
      </g>
     </g>
    </g>
   </g>
   <g id="line2d_5">
    <path d="M 65.008803 13.792542 
L 65.5353 13.898917 
L 66.088121 14.239285 
L 66.693591 14.879401 
L 67.378036 15.935803 
L 68.16778 17.585127 
L 69.062824 19.994655 
L 70.089491 23.431891 
L 71.274108 28.227917 
L 72.642998 34.757565 
L 74.275136 43.693703 
L 76.407445 56.712146 
L 82.778048 96.450135 
L 84.410187 104.825902 
L 85.779077 110.756311 
L 86.963693 114.944354 
L 87.99036 117.79232 
L 88.859079 119.598829 
L 89.622498 120.711673 
L 90.280619 121.306146 
L 90.859764 121.546113 
L 91.386261 121.532826 
L 91.912757 121.298903 
L 92.491902 120.787634 
L 93.150023 119.88653 
L 93.887117 118.479456 
L 94.729511 116.370153 
L 95.703529 113.292099 
L 96.809171 109.019067 
L 98.099086 103.085614 
L 99.5996 95.083718 
L 101.494987 83.685306 
L 104.653964 63.070248 
L 107.654992 44.033057 
L 109.471403 33.889023 
L 110.945592 26.863822 
L 112.182858 21.991309 
L 113.262176 18.601761 
L 114.183544 16.392792 
L 114.973288 15.025683 
L 115.657733 14.245399 
L 116.263204 13.8736 
L 116.7897 13.79539 
L 117.316196 13.945821 
L 117.869017 14.349408 
L 118.474487 15.078224 
L 119.185257 16.311333 
L 119.975001 18.149047 
L 120.89637 20.893004 
L 121.949362 24.776986 
L 123.160303 30.148283 
L 124.581843 37.532461 
L 126.31928 47.819451 
L 128.793812 63.965279 
L 133.005781 91.470626 
L 134.795868 101.621276 
L 136.243732 108.6176 
L 137.454674 113.448938 
L 138.507666 116.798819 
L 139.429034 119.029751 
L 140.218778 120.396553 
L 140.903223 121.16188 
L 141.482369 121.500378 
L 142.008865 121.560243 
L 142.509037 121.397945 
L 143.061858 120.970648 
L 143.667328 120.206092 
L 144.378098 118.918451 
L 145.194167 116.932781 
L 146.115535 114.063824 
L 147.168528 110.017748 
L 148.379469 104.441173 
L 149.801008 96.802035 
L 151.56477 86.036808 
L 154.223576 68.242907 
L 157.80375 44.507814 
L 159.593837 34.115847 
L 161.041701 26.950771 
L 162.252642 22.007273 
L 163.305635 18.586785 
L 164.200678 16.372504 
L 164.990422 14.973663 
L 165.648542 14.217064 
L 166.227688 13.864047 
L 166.754184 13.799313 
L 167.254356 13.964368 
L 167.780852 14.376076 
L 168.386322 15.149133 
L 169.070767 16.403665 
L 169.860512 18.341425 
L 170.78188 21.241143 
L 171.834872 25.348854 
L 173.045813 31.026803 
L 174.467353 38.817669 
L 176.231115 49.801024 
L 178.94257 68.290896 
L 182.312146 90.952884 
L 184.102232 101.488104 
L 185.523772 108.599342 
L 186.734713 113.577928 
L 187.761381 116.92098 
L 188.656424 119.12664 
L 189.419844 120.461223 
L 190.077964 121.19617 
L 190.630785 121.511459 
L 191.130956 121.557266 
L 191.631127 121.375134 
L 192.157624 120.93778 
L 192.763094 120.125738 
L 193.447539 118.815386 
L 194.237283 116.798681 
L 195.158652 113.78909 
L 196.211644 109.53596 
L 197.422585 103.671111 
L 198.870449 95.487228 
L 200.686861 83.842762 
L 203.766864 62.361082 
L 206.583618 43.3436 
L 208.294731 33.233615 
L 209.689945 26.247473 
L 210.874562 21.397278 
L 211.874904 18.170963 
L 212.743623 16.063478 
L 213.480718 14.804493 
L 214.112513 14.122475 
L 214.665334 13.830877 
L 215.165505 13.814183 
L 215.665677 14.032603 
L 216.192173 14.515705 
L 216.797643 15.389569 
L 217.508413 16.842938 
L 218.324482 19.065593 
L 219.24585 22.256203 
L 220.325168 26.851761 
L 221.562433 33.143855 
L 223.062948 42.009313 
L 224.984658 54.807092 
L 231.407911 98.745647 
L 232.882101 106.758281 
L 234.119367 112.333349 
L 235.172359 116.125805 
L 236.093727 118.660593 
L 236.883471 120.218818 
L 237.541592 121.069702 
L 238.120737 121.475588 
L 238.620909 121.565437 
L 239.094755 121.427024 
L 239.594927 121.045379 
L 240.174072 120.303253 
L 240.832193 119.074016 
L 241.595612 117.145587 
L 242.464331 114.318807 
L 243.464673 110.277427 
L 244.622965 104.637868 
L 245.991855 96.823241 
L 247.702967 85.689213 
L 250.361773 66.702896 
L 253.599724 43.949668 
L 255.310837 33.471539 
L 256.679727 26.37602 
L 257.838018 21.468198 
L 258.838361 18.140603 
L 259.680755 16.043092 
L 260.417849 14.760687 
L 261.049645 14.083331 
L 261.576141 13.820679 
L 262.049987 13.820405 
L 262.523834 14.044051 
L 263.05033 14.554248 
L 263.655801 15.478464 
L 264.340246 16.950708 
L 265.12999 19.197441 
L 266.051358 22.527897 
L 267.10435 27.205632 
L 268.341616 33.765 
L 269.84213 43.004611 
L 271.816491 56.685079 
L 277.476325 96.796536 
L 279.003163 105.604925 
L 280.266754 111.65516 
L 281.319746 115.69342 
L 282.241115 118.404305 
L 283.030859 120.080342 
L 283.688979 121.004121 
L 284.2418 121.441229 
L 284.741971 121.567449 
L 285.215818 121.450239 
L 285.715989 121.076913 
L 286.26881 120.367927 
L 286.900606 119.181502 
L 287.6377 117.301497 
L 288.506419 114.425227 
L 289.506762 110.278779 
L 290.665053 104.461328 
L 292.033943 96.375391 
L 293.745056 84.84643 
L 296.535485 64.266772 
L 299.431214 43.452971 
L 301.116002 32.921281 
L 302.458567 25.863398 
L 303.590534 21.036649 
L 304.564551 17.807869 
L 305.38062 15.809208 
L 306.09139 14.616305 
L 306.670536 14.030841 
L 307.170707 13.808196 
L 307.644554 13.840536 
L 308.1184 14.109646 
L 308.644897 14.685125 
L 309.250367 15.702991 
L 309.961137 17.374709 
L 310.777206 19.90907 
L 311.724899 23.635582 
L 312.804216 28.825393 
L 314.094132 36.189353 
L 315.67362 46.592522 
L 317.911229 62.989847 
L 321.938924 92.601827 
L 323.571062 102.859815 
L 324.887303 109.804505 
L 325.992945 114.525568 
L 326.940638 117.667053 
L 327.756707 119.654906 
L 328.441152 120.788526 
L 329.020298 121.358295 
L 329.520469 121.559477 
L 329.967991 121.509792 
L 330.441837 121.220755 
L 330.968333 120.615754 
L 331.573804 119.554646 
L 332.284574 117.820163 
L 333.100643 115.199115 
L 334.048336 111.354966 
L 335.153978 105.871648 
L 336.443893 98.28781 
L 338.049707 87.431112 
L 340.418939 69.689706 
L 343.946463 43.43002 
L 345.604926 32.794521 
L 346.921167 25.714696 
L 348.026809 20.905243 
L 348.974502 17.710631 
L 349.790571 15.695845 
L 350.475016 14.553929 
L 351.054161 13.987637 
L 351.554333 13.797277 
L 352.001855 13.862769 
L 352.475701 14.174771 
L 353.002197 14.812632 
L 353.607668 15.920733 
L 354.318438 17.722206 
L 355.134507 20.43446 
L 356.0822 24.40089 
L 357.187842 30.043781 
L 358.504082 37.997613 
L 360.13622 49.316592 
L 362.689726 68.829298 
L 365.743404 91.768117 
L 367.375542 102.396538 
L 368.691782 109.588774 
L 369.797424 114.464801 
L 370.745117 117.692207 
L 371.534862 119.661483 
L 372.219307 120.815761 
L 372.798452 121.382076 
L 373.272299 121.562165 
L 373.719821 121.497048 
L 374.167342 121.203535 
L 374.693839 120.567321 
L 375.299309 119.451321 
L 376.010079 117.627577 
L 376.826148 114.873347 
L 377.773841 110.838167 
L 378.879483 105.092053 
L 380.195723 96.991554 
L 381.854186 85.277221 
L 384.539317 64.426733 
L 387.356071 43.111925 
L 388.961884 32.589292 
L 390.2518 25.512994 
L 391.331117 20.740526 
L 392.252485 17.594396 
L 393.042229 15.626491 
L 393.70035 14.522048 
L 394.25317 13.979393 
L 394.727017 13.797439 
L 395.174539 13.866725 
L 395.62206 14.170146 
L 396.148557 14.825264 
L 396.754027 15.972428 
L 397.464797 17.845008 
L 398.280866 20.670338 
L 399.228559 24.805666 
L 400.334201 30.687474 
L 401.650441 38.966119 
L 403.308904 50.909465 
L 406.178308 73.532722 
L 408.731815 92.940303 
L 410.311303 103.31922 
L 411.574894 110.243771 
L 412.654211 114.982074 
L 413.549254 117.993229 
L 414.312674 119.858539 
L 414.970794 120.926278 
L 415.523615 121.4279 
L 415.997461 121.567412 
L 416.418658 121.465482 
L 416.86618 121.124458 
L 417.392676 120.418134 
L 417.998147 119.203292 
L 418.708917 117.240276 
L 419.524986 114.298381 
L 420.472679 110.014113 
L 421.604645 103.789215 
L 422.947211 95.076685 
L 424.684648 82.209088 
L 430.949952 34.304725 
L 432.266192 26.631178 
L 433.371834 21.412431 
L 434.319527 17.951657 
L 435.109272 15.837844 
L 435.793717 14.598452 
L 436.346538 14.00945 
L 436.820384 13.801506 
L 437.241581 13.847933 
L 437.689103 14.135735 
L 438.189274 14.746733 
L 438.76842 15.831505 
L 439.452865 17.624867 
L 440.242609 20.358895 
L 441.163977 24.399256 
L 442.243295 30.196775 
L 443.53321 38.425619 
L 445.165348 50.398916 
L 447.903128 72.472611 
L 450.509284 92.811448 
L 452.062448 103.27458 
L 453.326038 110.355244 
L 454.379031 115.064383 
L 455.274074 118.115183 
L 456.037494 119.97863 
L 456.669289 120.98612 
L 457.195785 121.447816 
L 457.643307 121.567381 
L 458.064504 121.450078 
L 458.512026 121.08162 
L 459.038522 120.328653 
L 459.643992 119.041605 
L 460.354762 116.969924 
L 461.170831 113.874356 
L 462.144849 109.240701 
L 463.276816 102.701266 
L 464.645706 93.404518 
L 466.462117 79.390004 
L 471.779729 37.332625 
L 473.174943 28.537415 
L 474.333235 22.584141 
L 475.307253 18.678399 
L 476.123322 16.251237 
L 476.807767 14.841399 
L 477.386912 14.107795 
L 477.860759 13.825646 
L 478.281956 13.81679 
L 478.703153 14.035881 
L 479.176999 14.553829 
L 479.72982 15.517973 
L 480.387941 17.161911 
L 481.15136 19.72336 
L 482.046403 23.575842 
L 483.073071 29.03302 
L 484.310337 36.89539 
L 485.837176 48.126637 
L 488.153759 67.045394 
L 491.286411 92.332637 
L 492.839574 103.086675 
L 494.07684 110.211477 
L 495.129833 115.046161 
L 495.998551 118.082555 
L 496.735646 119.937056 
L 497.367441 120.978241 
L 497.893938 121.450765 
L 498.341459 121.567014 
L 498.762656 121.436062 
L 499.210178 121.042006 
L 499.736674 120.244559 
L 500.342145 118.887822 
L 501.052914 116.710511 
L 501.895308 113.347516 
L 502.869326 108.473668 
L 504.027618 101.452368 
L 505.422832 91.539732 
L 507.344543 76.119038 
L 511.767111 40.083237 
L 513.214975 30.34119 
L 514.399592 23.782294 
L 515.399934 19.420141 
L 516.242328 16.670229 
L 516.953098 15.046762 
L 517.532244 14.211626 
L 518.032415 13.849191 
L 518.453612 13.804015 
L 518.874809 13.997018 
L 519.322331 14.462265 
L 519.848827 15.349875 
L 520.480622 16.89245 
L 521.217717 19.331112 
L 522.086436 23.045802 
L 523.086778 28.363131 
L 524.271395 35.923947 
L 525.745584 46.862821 
L 527.904218 64.756469 
L 531.300118 92.807189 
L 532.826957 103.532308 
L 534.037898 110.574105 
L 535.064566 115.311359 
L 535.933284 118.332922 
L 536.670379 120.139259 
L 537.275849 121.08296 
L 537.776021 121.487689 
L 538.197218 121.563056 
L 538.59209 121.412748 
L 539.039612 120.984507 
L 539.566108 120.132615 
L 540.171578 118.695032 
L 540.882348 116.399612 
L 541.724742 112.86778 
L 542.69876 107.76677 
L 543.857051 100.444733 
L 545.278591 89.946743 
L 547.305601 73.121333 
L 551.070049 41.701956 
L 552.570563 31.178017 
L 553.755179 24.331392 
L 554.755522 19.760804 
L 555.597915 16.867898 
L 556.308685 15.150703 
L 556.887831 14.259028 
L 557.388002 13.862779 
L 557.809199 13.800182 
L 558.204071 13.967093 
L 558.651593 14.419466 
L 559.178089 15.30675 
L 559.78356 16.793916 
L 560.49433 19.158674 
L 561.336724 22.78622 
L 562.310741 28.012278 
L 563.469033 35.49549 
L 564.916897 46.405162 
L 567.022882 64.187988 
L 570.445107 93.045038 
L 571.945621 103.765055 
L 573.156562 110.892565 
L 574.156905 115.535243 
L 574.999299 118.470556 
L 575.710068 120.208977 
L 576.289214 121.107519 
L 576.763061 121.490081 
L 577.184258 121.561396 
L 577.57913 121.398024 
L 578.026651 120.944236 
L 578.553148 120.047985 
L 579.158618 118.540997 
L 579.869388 116.140627 
L 580.711782 112.455104 
L 581.6858 107.14381 
L 582.844091 99.540262 
L 584.291956 88.465352 
L 586.424265 70.222808 
L 589.688541 42.439076 
L 591.189055 31.60112 
L 592.373672 24.547903 
L 593.374014 19.846109 
L 594.216408 16.880181 
L 594.927178 15.130947 
L 595.506324 14.234245 
L 595.98017 13.860426 
L 596.375042 13.798406 
L 596.769914 13.963677 
L 597.217436 14.42501 
L 597.717607 15.282332 
L 598.323078 16.794816 
L 599.033848 19.214584 
L 599.876242 22.939977 
L 600.85026 28.317457 
L 602.008551 36.021843 
L 603.456415 47.243229 
L 605.61505 65.935475 
L 608.747702 92.842735 
L 610.248216 103.790463 
L 611.432832 110.899429 
L 612.433175 115.620867 
L 613.275569 118.581361 
L 613.960014 120.258435 
L 614.539159 121.148938 
L 615.013006 121.510403 
L 615.407878 121.557139 
L 615.80275 121.372108 
L 616.250272 120.883096 
L 616.776768 119.931265 
L 617.382239 118.342334 
L 618.093008 115.823026 
L 618.935402 111.96867 
L 619.935745 106.267679 
L 621.120361 98.145397 
L 622.620875 86.19661 
L 625.042758 64.809087 
L 627.648914 42.382488 
L 629.123103 31.536057 
L 630.307719 24.37261 
L 631.281737 19.740755 
L 632.097806 16.834199 
L 632.782251 15.125659 
L 633.361397 14.218503 
L 633.835243 13.850461 
L 634.230115 13.803163 
L 634.624988 13.992115 
L 635.072509 14.490949 
L 635.599005 15.461507 
L 636.204476 17.081197 
L 636.915246 19.648373 
L 637.75764 23.574096 
L 638.757982 29.376603 
L 639.942599 37.634839 
L 641.443113 49.763075 
L 643.970294 72.348804 
L 646.418501 93.498589 
L 647.866366 104.177826 
L 649.024657 111.18947 
L 649.998675 115.811649 
L 650.814744 118.687448 
L 651.499189 120.353855 
L 652.05201 121.185807 
L 652.499532 121.516857 
L 652.894404 121.552567 
L 653.289276 121.347555 
L 653.736798 120.825225 
L 654.263294 119.82007 
L 654.868764 118.151825 
L 655.605859 115.405565 
L 656.448253 111.357114 
L 657.448596 105.398797 
L 658.659537 96.749365 
L 660.2127 83.910803 
L 663.345352 55.56249 
L 665.319713 38.918645 
L 666.688603 29.16277 
L 667.794245 22.781784 
L 668.715613 18.670196 
L 669.479033 16.174693 
L 670.137153 14.722756 
L 670.663649 14.041445 
L 671.084846 13.808313 
L 671.453393 13.833058 
L 671.848265 14.096514 
L 672.295787 14.690042 
L 672.822283 15.785084 
L 673.454079 17.653483 
L 674.191173 20.570037 
L 675.059892 24.965644 
L 676.086559 31.370087 
L 677.35015 40.77096 
L 679.008613 54.949513 
L 684.089301 99.605332 
L 685.352892 108.21601 
L 686.405884 113.951888 
L 687.274602 117.551155 
L 688.011697 119.734755 
L 688.617168 120.902868 
L 689.117339 121.431684 
L 689.512211 121.567227 
L 689.880758 121.46845 
L 690.275631 121.121566 
L 690.749477 120.37827 
L 691.302298 119.066388 
L 691.960418 116.89596 
L 692.750162 113.455734 
L 693.671531 108.371033 
L 694.777173 100.920868 
L 696.146063 90.047256 
L 698.094098 72.570467 
L 701.568973 41.311472 
L 702.990513 30.63534 
L 704.122479 23.706716 
L 705.070172 19.196748 
L 705.859917 16.434724 
L 706.518037 14.867091 
L 707.044533 14.109323 
L 707.492055 13.817844 
L 707.860602 13.822722 
L 708.229149 14.048978 
L 708.650346 14.577548 
L 709.176842 15.639138 
L 709.782313 17.399801 
L 710.519407 20.295457 
L 711.361801 24.558274 
L 712.362144 30.819212 
L 713.573085 39.87895 
L 715.152574 53.493942 
L 720.496509 101.053862 
L 721.707451 109.210693 
L 722.707793 114.56176 
L 723.550187 117.960563 
L 724.260957 119.980109 
L 724.840103 121.027072 
L 725.313949 121.474949 
L 725.708821 121.564379 
L 726.077369 121.414453 
L 726.498566 120.967859 
L 726.998737 120.059361 
L 727.577883 118.503161 
L 728.262328 115.987378 
L 729.078397 112.078107 
L 730.052415 106.223964 
L 731.210706 97.805944 
L 732.684895 85.332505 
L 735.264726 61.184653 
L 737.502335 41.112365 
L 738.89755 30.481664 
L 740.003192 23.621628 
L 740.92456 19.173878 
L 741.714304 16.378681 
L 742.372425 14.810187 
L 742.898921 14.069847 
L 743.320118 13.812111 
L 743.688665 13.832034 
L 744.057212 14.081112 
L 744.478409 14.645122 
L 745.004905 15.7646 
L 745.610376 17.609485 
L 746.34747 20.630814 
L 747.216189 25.218097 
L 748.242857 31.928784 
L 749.506447 41.790021 
L 751.191235 56.871004 
L 755.666452 97.8392 
L 756.956368 107.216164 
L 758.00936 113.352718 
L 758.878079 117.217562 
L 759.615173 119.57046 
L 760.220644 120.834935 
L 760.720815 121.412662 
L 761.115687 121.566691 
L 761.484235 121.468993 
L 761.879107 121.105958 
L 762.352953 120.319927 
L 762.905774 118.926851 
L 763.563895 116.617995 
L 764.353639 112.957086 
L 765.275007 107.55122 
L 766.380649 99.649549 
L 767.775864 87.935074 
L 769.908173 67.858187 
L 772.698603 41.97624 
L 774.120142 30.850965 
L 775.225784 23.812323 
L 776.147152 19.253045 
L 776.936897 16.395141 
L 777.568692 14.849774 
L 778.095188 14.081916 
L 778.516385 13.81348 
L 778.884932 13.832397 
L 779.25348 14.088275 
L 779.674677 14.669528 
L 780.201173 15.824456 
L 780.806643 17.728385 
L 781.543738 20.84596 
L 782.412457 25.576508 
L 783.439124 32.488603 
L 784.702715 42.624852 
L 786.413827 58.320158 
L 790.520497 96.670744 
L 791.836738 106.57491 
L 792.88973 112.941177 
L 793.784774 117.070433 
L 794.521868 119.501661 
L 795.127339 120.809052 
L 795.62751 121.406838 
L 796.022382 121.56662 
L 796.364605 121.481364 
L 796.733152 121.157468 
L 797.180674 120.442575 
L 797.70717 119.155975 
L 798.338965 116.992056 
L 799.102385 113.513744 
L 799.997428 108.318019 
L 801.076745 100.63582 
L 802.41931 89.344902 
L 804.393671 70.599548 
L 807.447349 41.725256 
L 808.842563 30.666498 
L 809.948205 23.564506 
L 810.869574 19.003323 
L 811.632993 16.261189 
L 812.264788 14.745552 
L 812.76496 14.045221 
L 813.186157 13.803141 
L 813.528379 13.841835 
L 813.896926 14.119489 
L 814.318123 14.73497 
L 814.844619 15.946224 
L 815.476415 18.032886 
L 816.213509 21.304851 
L 817.082228 26.241159 
L 818.13522 33.618896 
L 819.425136 44.354976 
L 821.241548 61.536216 
L 824.742747 94.882387 
L 826.085312 105.430083 
L 827.164629 112.277474 
L 828.059673 116.636245 
L 828.796767 119.234255 
L 829.402238 120.660162 
L 829.902409 121.341722 
L 830.297281 121.557976 
L 830.639504 121.514477 
L 831.008051 121.227899 
L 831.429248 120.597537 
L 831.955744 119.360882 
L 832.58754 117.234333 
L 833.324634 113.904135 
L 834.193353 108.885697 
L 835.246345 101.394515 
L 836.536261 90.510848 
L 838.405322 72.615923 
L 841.695923 41.009466 
L 843.064813 30.106376 
L 844.14413 23.174099 
L 845.039174 18.762763 
L 845.776268 16.136188 
L 846.381739 14.697784 
L 846.88191 14.013715 
L 847.276782 13.800568 
L 847.619005 13.850395 
L 847.987552 14.147531 
L 848.408749 14.794623 
L 848.935245 16.058945 
L 849.567041 18.227988 
L 850.304135 21.619243 
L 851.172854 26.722726 
L 852.225846 34.330089 
L 853.542086 45.604077 
L 854.753028 57.167079 
L 854.753028 57.167079 
" clip-path="url(#pc60c27218b)" style="fill: none; stroke: #e36f47; stroke-width: 6"/>
   </g>
   <g id="patch_3">
    <path d="M 41.316477 124.800705 
L 41.316477 10.559295 
" style="fill: none; stroke: #000000; stroke-width: 2; stroke-linejoin: miter; stroke-linecap: square"/>
   </g>
   <g id="patch_4">
    <path d="M 41.316477 124.800705 
L 878.445354 124.800705 
" style="fill: none; stroke: #000000; stroke-width: 2; stroke-linejoin: miter; stroke-linecap: square"/>
   </g>
  </g>
 </g>
 <defs>
  <clipPath id="pc60c27218b">
   <rect x="41.316477" y="10.559295" width="837.128878" height="114.24141"/>
  </clipPath>
 </defs>
</svg>
