<?xml version="1.0" encoding="utf-8" standalone="no"?>
<!DOCTYPE svg PUBLIC "-//W3C//DTD SVG 1.1//EN"
  "http://www.w3.org/Graphics/SVG/1.1/DTD/svg11.dtd">
<svg xmlns:xlink="http://www.w3.org/1999/xlink" width="838.08pt" height="135.36pt" viewBox="0 0 838.08 135.36" xmlns="http://www.w3.org/2000/svg" version="1.1">
 <metadata>
  <rdf:RDF xmlns:dc="http://purl.org/dc/elements/1.1/" xmlns:cc="http://creativecommons.org/ns#" xmlns:rdf="http://www.w3.org/1999/02/22-rdf-syntax-ns#">
   <cc:Work>
    <dc:type rdf:resource="http://purl.org/dc/dcmitype/StillImage"/>
    <dc:date>2024-04-26T17:51:02.539284</dc:date>
    <dc:format>image/svg+xml</dc:format>
    <dc:creator>
     <cc:Agent>
      <dc:title>Matplotlib v3.7.0, https://matplotlib.org/</dc:title>
     </cc:Agent>
    </dc:creator>
   </cc:Work>
  </rdf:RDF>
 </metadata>
 <defs>
  <style type="text/css">*{stroke-linejoin: round; stroke-linecap: butt}</style>
 </defs>
 <g id="figure_1">
  <g id="patch_1">
   <path d="M 0 135.36 
L 838.08 135.36 
L 838.08 0 
L 0 0 
L 0 135.36 
z
" style="fill: none"/>
  </g>
  <g id="axes_1">
   <g id="patch_2">
    <path d="M 41.316477 118.915181 
L 835.245354 118.915181 
L 835.245354 4.272545 
L 41.316477 4.272545 
L 41.316477 118.915181 
z
" style="fill: none"/>
   </g>
   <g id="line2d_1">
    <path d="M 63.786162 14.570201 
L 64.572601 14.680171 
L 65.396489 15.030743 
L 66.257827 15.652941 
L 67.194064 16.621909 
L 68.2052 18.004019 
L 69.328684 19.936537 
L 70.564517 22.524758 
L 71.950148 25.969114 
L 73.485576 30.400809 
L 75.245701 36.183838 
L 77.342872 43.884977 
L 80.001785 54.558641 
L 88.764962 90.441314 
L 90.824683 97.586382 
L 92.584808 102.933437 
L 94.120237 106.929468 
L 95.505868 109.942648 
L 96.7417 112.120766 
L 97.865185 113.663416 
L 98.87632 114.683718 
L 99.775108 115.291631 
L 100.598996 115.598502 
L 101.385435 115.666587 
L 102.171874 115.514748 
L 102.995763 115.120532 
L 103.857101 114.453166 
L 104.793337 113.435906 
L 105.804473 112.002917 
L 106.927958 110.015854 
L 108.20124 107.283211 
L 109.58687 103.764569 
L 111.159748 99.141299 
L 112.957323 93.138513 
L 115.091943 85.19629 
L 117.900654 73.811438 
L 125.652695 41.888541 
L 127.824765 34.137823 
L 129.659789 28.379782 
L 131.270117 24.038547 
L 132.693197 20.822922 
L 133.966479 18.479109 
L 135.089963 16.851807 
L 136.101099 15.753214 
L 137.037336 15.052378 
L 137.898674 14.680171 
L 138.722562 14.570451 
L 139.509001 14.69089 
L 140.33289 15.052378 
L 141.194228 15.685877 
L 142.130464 16.666933 
L 143.1416 18.061784 
L 144.265084 20.007967 
L 145.500917 22.610483 
L 146.886548 26.069764 
L 148.459426 30.632341 
L 150.257001 36.575762 
L 152.354171 44.318261 
L 155.050533 55.180671 
L 163.476665 89.750975 
L 165.573836 97.09693 
L 167.371411 102.615576 
L 168.944289 106.750117 
L 170.329919 109.794909 
L 171.565752 112.002917 
L 172.689236 113.573846 
L 173.700372 114.620287 
L 174.59916 115.251823 
L 175.460497 115.589776 
L 176.246936 115.668333 
L 177.033375 115.52696 
L 177.857264 115.143649 
L 178.718602 114.487565 
L 179.654839 113.482364 
L 180.665975 112.062073 
L 181.789459 110.088618 
L 183.025291 107.45759 
L 184.410922 103.968559 
L 185.9838 99.375545 
L 187.781375 93.402323 
L 189.915995 85.487386 
L 192.687256 74.280375 
L 200.663994 41.466449 
L 202.836064 33.762755 
L 204.633639 28.162359 
L 206.206517 23.946214 
L 207.629597 20.746634 
L 208.902879 18.418105 
L 210.026363 16.804873 
L 211.037499 15.719302 
L 211.973736 15.030743 
L 212.835074 14.669951 
L 213.621513 14.570451 
L 214.407952 14.69089 
L 215.23184 15.052378 
L 216.093178 15.685877 
L 217.029415 16.666933 
L 218.040551 18.061784 
L 219.164035 20.007967 
L 220.399868 22.610483 
L 221.785498 26.069764 
L 223.358376 30.632341 
L 225.155951 36.575762 
L 227.253122 44.318261 
L 229.949484 55.180671 
L 238.375616 89.750975 
L 240.472787 97.09693 
L 242.270361 102.615576 
L 243.843239 106.750117 
L 245.22887 109.794909 
L 246.464703 112.002917 
L 247.588187 113.573846 
L 248.599323 114.620287 
L 249.49811 115.251823 
L 250.321999 115.580551 
L 251.295685 115.667918 
L 252.082124 115.523242 
L 252.756215 115.176578 
L 253.392856 114.604175 
L 254.066946 113.678497 
L 254.741037 112.359837 
L 257.437399 105.902638 
L 258.78558 101.64855 
L 260.321009 96.044766 
L 262.156033 88.456784 
L 264.4779 77.826775 
L 273.241078 36.656085 
L 275.038652 29.823592 
L 276.574081 24.832637 
L 277.884813 21.277376 
L 279.045746 18.720949 
L 280.094332 16.919166 
L 281.030568 15.733469 
L 281.854457 15.028581 
L 282.603446 14.666945 
L 283.314986 14.571576 
L 283.989077 14.70479 
L 284.700617 15.080792 
L 285.449607 15.735829 
L 286.273495 16.759396 
L 287.209732 18.299726 
L 288.258317 20.485986 
L 289.419251 23.448072 
L 290.729983 27.430182 
L 292.227962 32.728862 
L 293.988087 39.826512 
L 296.160157 49.585726 
L 299.49316 65.752082 
L 303.537703 85.123041 
L 305.709773 94.43634 
L 307.469898 101.040576 
L 308.967877 105.836675 
L 310.278609 109.324736 
L 311.439542 111.813106 
L 312.450678 113.493842 
L 313.349466 114.593298 
L 314.173354 115.267203 
L 314.922344 115.598752 
L 315.596434 115.666642 
L 316.270525 115.515789 
L 316.982065 115.119946 
L 317.731054 114.442502 
L 318.554943 113.392829 
L 319.49118 111.821429 
L 320.539765 109.599189 
L 321.700699 106.596659 
L 323.01143 102.569334 
L 324.509409 97.221326 
L 326.269535 90.071567 
L 328.441604 80.260962 
L 331.886956 63.498231 
L 335.706803 45.208898 
L 337.878872 35.880589 
L 339.638997 29.264186 
L 341.136976 24.457618 
L 342.447708 20.960134 
L 343.608642 18.463049 
L 344.619778 16.774312 
L 345.518565 15.667329 
L 346.342454 14.986114 
L 347.091443 14.647526 
L 347.765534 14.572947 
L 348.439624 14.716747 
L 349.151164 15.104724 
L 349.900154 15.773105 
L 350.724042 16.812025 
L 351.660279 18.370371 
L 352.708864 20.577302 
L 353.869798 23.562535 
L 355.18053 27.56899 
L 356.678509 32.891514 
L 358.438634 40.009571 
L 360.610704 49.779908 
L 364.018606 66.299134 
L 367.913351 84.900356 
L 370.085421 94.207166 
L 371.845546 100.816669 
L 373.343525 105.627108 
L 374.654257 109.136636 
L 375.815191 111.651875 
L 376.863776 113.417077 
L 377.800013 114.571451 
L 378.623901 115.250397 
L 379.372891 115.590168 
L 380.084431 115.666591 
L 380.758521 115.517312 
L 381.470061 115.126574 
L 382.219051 114.458729 
L 383.080389 113.370177 
L 384.016626 111.806886 
L 385.065211 109.601909 
L 386.226145 106.628211 
L 387.536876 102.644867 
L 389.034855 97.358618 
L 390.794981 90.295796 
L 392.96705 80.607143 
L 396.374953 64.224332 
L 400.344597 45.407533 
L 402.516667 36.167177 
L 404.276792 29.593059 
L 405.81222 24.68616 
L 407.160402 21.102619 
L 408.321335 18.608099 
L 409.369921 16.85237 
L 410.306157 15.698533 
L 411.130046 15.013625 
L 411.879035 14.66309 
L 412.590575 14.57169 
L 413.264666 14.702515 
L 413.976206 15.069325 
L 414.725196 15.707146 
L 415.549084 16.702772 
L 416.485321 18.199955 
L 417.533906 20.323819 
L 418.69484 23.200319 
L 420.005572 27.066745 
L 421.503551 32.212098 
L 423.263676 39.108174 
L 425.398296 48.432081 
L 428.544052 63.30232 
L 433.112888 84.798633 
L 435.322407 94.093649 
L 437.119982 100.725269 
L 438.65541 105.570222 
L 440.003591 109.115154 
L 441.201975 111.660331 
L 442.25056 113.392672 
L 443.186797 114.5347 
L 444.010685 115.216524 
L 444.759675 115.570276 
L 445.471215 115.670055 
L 446.182755 115.539288 
L 446.894295 115.17873 
L 447.680734 114.515069 
L 448.542072 113.473322 
L 449.478309 111.975905 
L 450.526894 109.862081 
L 451.687828 107.008677 
L 452.998559 103.182098 
L 454.496538 98.097669 
L 456.256664 91.289429 
L 458.391284 82.086271 
L 461.49959 67.574039 
L 466.255674 45.421835 
L 468.465193 36.22098 
L 470.262767 29.644422 
L 471.798196 24.826539 
L 473.146377 21.287891 
L 474.34476 18.733437 
L 475.393346 16.981025 
L 476.329582 15.811499 
L 477.19092 15.07269 
L 477.977359 14.684379 
L 478.688899 14.570205 
L 479.400439 14.681723 
L 480.11198 15.018281 
L 480.898418 15.649765 
L 481.759756 16.64974 
L 482.695993 18.094753 
L 483.744579 20.142183 
L 484.905512 22.914073 
L 486.216244 26.640854 
L 487.714223 31.604915 
L 489.436899 38.119435 
L 491.534069 46.97519 
L 494.455129 60.38544 
L 499.960201 85.774187 
L 502.132271 94.648773 
L 503.892396 100.964474 
L 505.427825 105.688656 
L 506.776006 109.152574 
L 507.974389 111.648063 
L 509.022974 113.355488 
L 509.959211 114.490516 
L 510.820549 115.202564 
L 511.606988 115.570735 
L 512.318528 115.670274 
L 513.030068 115.547545 
L 513.779058 115.178944 
L 514.565497 114.529725 
L 515.426835 113.514774 
L 516.363072 112.058904 
L 517.411657 110.005927 
L 518.61004 107.138067 
L 519.958221 103.29028 
L 521.4562 98.315448 
L 523.216326 91.657522 
L 525.350946 82.652845 
L 528.346904 68.94665 
L 533.58983 44.92086 
L 535.799349 35.910253 
L 537.596924 29.4688 
L 539.132353 24.744962 
L 540.480534 21.268829 
L 541.678917 18.753132 
L 542.764952 16.966107 
L 543.738638 15.777212 
L 544.599976 15.059333 
L 545.386415 14.681671 
L 546.135405 14.570416 
L 546.846945 14.689699 
L 547.595934 15.051463 
L 548.382373 15.690105 
L 549.243711 16.689695 
L 550.179948 18.124723 
L 551.228533 20.149759 
L 552.426916 22.980605 
L 553.737648 26.66774 
L 555.235627 31.569158 
L 556.958303 37.9939 
L 559.055474 46.724503 
L 561.939083 59.781742 
L 567.706302 86.071323 
L 569.878372 94.823727 
L 571.675947 101.178011 
L 573.211375 105.825098 
L 574.559556 109.233551 
L 575.75794 111.690709 
L 576.843974 113.425566 
L 577.780211 114.531725 
L 578.641549 115.223362 
L 579.427988 115.578137 
L 580.176978 115.668672 
L 580.888518 115.530771 
L 581.637507 115.150619 
L 582.423946 114.494091 
L 583.285284 113.476673 
L 584.25897 111.958993 
L 585.345005 109.820794 
L 586.543388 106.941626 
L 587.89157 103.093808 
L 589.426998 98.000596 
L 591.187123 91.358674 
L 593.321744 82.396128 
L 596.3926 68.42838 
L 601.523179 45.077729 
L 603.732698 36.103204 
L 605.530272 29.672588 
L 607.10315 24.837673 
L 608.488781 21.276103 
L 609.687164 18.77014 
L 610.773199 16.986412 
L 611.746885 15.796419 
L 612.608223 15.074304 
L 613.394662 14.690081 
L 614.143652 14.570202 
L 614.855192 14.679178 
L 615.604181 15.027923 
L 616.39062 15.650583 
L 617.251958 16.63009 
L 618.188195 18.040443 
L 619.086983 19.777448 
L 620.210467 22.575489 
L 621.521198 26.474438 
L 623.019177 31.658122 
L 624.816752 38.711176 
L 627.176069 48.940962 
L 635.789449 87.198938 
L 637.81172 94.721509 
L 639.571846 100.451201 
L 641.144724 104.849929 
L 642.567804 108.203716 
L 643.878535 110.747592 
L 645.076918 112.608595 
L 646.162953 113.910654 
L 647.174089 114.796633 
L 648.110326 115.340365 
L 649.009113 115.616933 
L 649.907901 115.658854 
L 650.806688 115.47287 
L 651.742925 115.04509 
L 652.754061 114.325861 
L 653.840096 113.270673 
L 654.92613 111.916518 
L 656.049615 109.895949 
L 657.322897 107.121144 
L 658.745977 103.448912 
L 660.318855 98.751388 
L 662.153879 92.531643 
L 664.325949 84.337908 
L 667.209558 72.520845 
L 674.287509 43.168564 
L 676.497028 35.130027 
L 678.369502 29.122538 
L 679.979829 24.662997 
L 681.40291 21.335738 
L 682.676192 18.887867 
L 683.837125 17.116418 
L 684.885711 15.908515 
L 685.821948 15.152563 
L 686.683286 14.730078 
L 687.507174 14.572892 
L 688.293613 14.648796 
L 689.080052 14.945055 
L 689.94139 15.520789 
L 690.840177 16.398387 
L 691.851313 17.717377 
L 692.937348 19.514638 
L 694.135731 21.937501 
L 695.483912 25.184636 
L 696.981891 29.390758 
L 698.704567 34.921795 
L 700.726839 42.210849 
L 703.235954 52.145975 
L 707.692441 70.91009 
L 711.250141 85.437572 
L 713.572009 94.021987 
L 715.481932 100.274999 
L 717.129709 104.949635 
L 718.590239 108.458829 
L 719.90097 111.054953 
L 721.061904 112.890893 
L 722.110489 114.159608 
L 723.084176 114.997625 
L 723.945514 115.46129 
L 724.769402 115.658513 
L 725.555841 115.62124 
L 726.34228 115.363845 
L 727.166168 114.859345 
L 728.064956 114.037765 
L 729.038642 112.833724 
L 730.124677 111.115262 
L 731.32306 108.776287 
L 732.633792 105.713529 
L 734.131771 101.614532 
L 735.816997 96.31997 
L 737.76437 89.434107 
L 740.161136 80.090975 
L 743.831185 64.752098 
L 748.325122 46.165896 
L 750.721888 37.187238 
L 752.669261 30.705859 
L 754.354488 25.831301 
L 755.852467 22.154048 
L 757.163198 19.490782 
L 758.361581 17.537567 
L 759.447616 16.182198 
L 760.421303 15.311999 
L 761.32009 14.803522 
L 762.143978 14.588614 
L 762.930417 14.608622 
L 763.716856 14.848462 
L 764.540745 15.334354 
L 765.439532 16.135501 
L 766.413219 17.317404 
L 767.499253 19.011379 
L 768.697637 21.323869 
L 770.008368 24.35868 
L 771.468898 28.318503 
L 773.116675 33.445077 
L 775.026598 40.13617 
L 777.385915 49.265247 
L 780.831267 63.604364 
L 785.812047 84.238717 
L 788.208813 93.199457 
L 790.156186 99.662209 
L 791.841412 104.518137 
L 793.339391 108.177201 
L 794.650123 110.823533 
L 795.848506 112.760615 
L 796.897092 114.061456 
L 797.870778 114.930657 
L 798.769565 115.438271 
L 799.593454 115.652439 
L 800.379893 115.631773 
L 801.166332 115.391322 
L 801.99022 114.904843 
L 802.889008 114.103114 
L 803.862694 112.920651 
L 804.948729 111.226138 
L 806.147112 108.913153 
L 807.457844 105.877917 
L 808.918373 101.917751 
L 810.56615 96.790905 
L 812.476073 90.099506 
L 812.775669 88.987196 
L 812.775669 88.987196 
" clip-path="url(#pfef6726e85)" style="fill: none; stroke: #009afa; stroke-width: 6"/>
   </g>
   <g id="matplotlib.axis_1">
    <g id="xtick_1"/>
    <g id="xtick_2"/>
    <g id="xtick_3"/>
    <g id="xtick_4"/>
    <g id="xtick_5"/>
   </g>
   <g id="matplotlib.axis_2">
    <g id="ytick_1">
     <g id="line2d_2">
      <defs>
       <path id="m65e28f3f03" d="M 0 0 
L 5 0 
" style="stroke: #000000"/>
      </defs>
      <g>
       <use xlink:href="#m65e28f3f03" x="41.316477" y="115.670578" style="stroke: #000000"/>
      </g>
     </g>
     <g id="text_1">
      <!-- $-1$ -->
      <g transform="translate(1.976477 126.30839) scale(0.28 -0.28)">
       <defs>
        <path id="Cmsy10-a1" d="M 653 1472 
Q 600 1472 565 1512 
Q 531 1553 531 1600 
Q 531 1647 565 1687 
Q 600 1728 653 1728 
L 4325 1728 
Q 4375 1728 4408 1687 
Q 4441 1647 4441 1600 
Q 4441 1553 4408 1512 
Q 4375 1472 4325 1472 
L 653 1472 
z
" transform="scale(0.015625)"/>
        <path id="Cmr10-31" d="M 594 0 
L 594 225 
Q 1394 225 1394 428 
L 1394 3788 
Q 1063 3628 556 3628 
L 556 3853 
Q 1341 3853 1741 4263 
L 1831 4263 
Q 1853 4263 1873 4245 
Q 1894 4228 1894 4206 
L 1894 428 
Q 1894 225 2694 225 
L 2694 0 
L 594 0 
z
" transform="scale(0.015625)"/>
       </defs>
       <use xlink:href="#Cmsy10-a1" transform="translate(0 0.390625)"/>
       <use xlink:href="#Cmr10-31" transform="translate(77.685547 0.390625)"/>
      </g>
     </g>
    </g>
    <g id="ytick_2">
     <g id="line2d_3">
      <g>
       <use xlink:href="#m65e28f3f03" x="41.316477" y="65.12039" style="stroke: #000000"/>
      </g>
     </g>
     <g id="text_2">
      <!-- $0$ -->
      <g transform="translate(23.816477 75.758202) scale(0.28 -0.28)">
       <defs>
        <path id="Cmr10-30" d="M 1600 -141 
Q 816 -141 533 504 
Q 250 1150 250 2041 
Q 250 2597 351 3087 
Q 453 3578 754 3920 
Q 1056 4263 1600 4263 
Q 2022 4263 2290 4056 
Q 2559 3850 2700 3523 
Q 2841 3197 2892 2823 
Q 2944 2450 2944 2041 
Q 2944 1491 2842 1011 
Q 2741 531 2444 195 
Q 2147 -141 1600 -141 
z
M 1600 25 
Q 1956 25 2131 390 
Q 2306 756 2347 1200 
Q 2388 1644 2388 2144 
Q 2388 2625 2347 3031 
Q 2306 3438 2132 3767 
Q 1959 4097 1600 4097 
Q 1238 4097 1063 3765 
Q 888 3434 847 3029 
Q 806 2625 806 2144 
Q 806 1788 823 1472 
Q 841 1156 916 820 
Q 991 484 1158 254 
Q 1325 25 1600 25 
z
" transform="scale(0.015625)"/>
       </defs>
       <use xlink:href="#Cmr10-30" transform="translate(0 0.390625)"/>
      </g>
     </g>
    </g>
    <g id="ytick_3">
     <g id="line2d_4">
      <g>
       <use xlink:href="#m65e28f3f03" x="41.316477" y="14.570201" style="stroke: #000000"/>
      </g>
     </g>
     <g id="text_3">
      <!-- $1$ -->
      <g transform="translate(23.816477 25.208014) scale(0.28 -0.28)">
       <use xlink:href="#Cmr10-31" transform="translate(0 0.390625)"/>
      </g>
     </g>
    </g>
   </g>
   <g id="line2d_5">
    <path d="M 63.786162 14.570201 
L 64.497702 14.679127 
L 65.246691 15.028607 
L 66.03313 15.652941 
L 66.894468 16.635366 
L 67.830705 18.050194 
L 68.879291 20.051039 
L 70.040224 22.757177 
L 71.350956 26.39443 
L 72.848935 31.240673 
L 74.571611 37.606545 
L 76.631332 46.113627 
L 79.440043 58.753261 
L 85.619206 86.830235 
L 87.753826 95.344599 
L 89.513952 101.499083 
L 91.04938 106.090898 
L 92.397561 109.448425 
L 93.595944 111.859055 
L 94.64453 113.500813 
L 95.580767 114.584567 
L 96.442104 115.255893 
L 97.228543 115.592446 
L 97.940083 115.668023 
L 98.651623 115.525761 
L 99.400613 115.141359 
L 100.187052 114.480724 
L 101.04839 113.459195 
L 102.022076 111.93731 
L 103.108111 109.794909 
L 104.306494 106.911607 
L 105.654675 103.059642 
L 107.190104 97.962185 
L 108.950229 91.315808 
L 111.084849 82.348207 
L 114.155706 68.373706 
L 119.286284 45.015344 
L 121.495803 36.040774 
L 123.293378 29.612603 
L 124.866256 24.782158 
L 126.214437 21.313557 
L 127.412821 18.797375 
L 128.498855 17.005196 
L 129.472542 15.808487 
L 130.33388 15.081242 
L 131.120319 14.693093 
L 131.869308 14.570211 
L 132.580848 14.677053 
L 133.329838 15.024349 
L 134.116277 15.646412 
L 134.977615 16.626389 
L 135.913851 18.038622 
L 136.962437 20.036664 
L 138.123371 22.739856 
L 139.434102 26.374024 
L 140.932081 31.217107 
L 142.654757 37.579905 
L 144.714478 46.0842 
L 147.523189 58.721754 
L 153.702352 86.801547 
L 155.836972 95.319134 
L 157.597098 101.477023 
L 159.132526 106.072285 
L 160.480707 109.43315 
L 161.679091 111.846946 
L 162.727676 113.491598 
L 163.663913 114.578009 
L 164.525251 115.251823 
L 165.31169 115.590671 
L 166.060679 115.666385 
L 166.772219 115.514748 
L 167.521209 115.120532 
L 168.307648 114.449699 
L 169.168986 113.41719 
L 170.142672 111.883217 
L 171.228707 109.72785 
L 172.42709 106.831029 
L 173.775271 102.965039 
L 175.3107 97.8534 
L 177.108274 91.043649 
L 179.280344 81.884565 
L 182.4261 67.533355 
L 187.294532 45.365609 
L 189.5415 36.209887 
L 191.376524 29.635216 
L 192.949402 24.801308 
L 194.335033 21.242411 
L 195.533416 18.740344 
L 196.619451 16.961563 
L 197.593137 15.777243 
L 198.454475 15.061171 
L 199.240914 14.683334 
L 199.989904 14.570324 
L 200.701444 14.686543 
L 201.450433 15.043665 
L 202.236872 15.675945 
L 203.09821 16.666933 
L 204.034447 18.090841 
L 205.083032 20.101491 
L 206.281416 22.913817 
L 207.592147 26.578777 
L 209.090126 31.453364 
L 210.812802 37.846786 
L 212.909973 46.541159 
L 215.756133 59.383921 
L 221.67315 86.298139 
L 223.84522 95.012627 
L 225.605345 101.211182 
L 227.140773 105.847677 
L 228.488955 109.248487 
L 229.687338 111.700206 
L 230.773373 113.431234 
L 231.709609 114.534906 
L 232.570947 115.224887 
L 233.357386 115.578647 
L 234.106376 115.668622 
L 234.817916 115.530526 
L 235.566905 115.150487 
L 236.353344 114.494386 
L 237.214682 113.47774 
L 238.188369 111.961232 
L 239.274403 109.824598 
L 240.472787 106.947313 
L 241.820968 103.101591 
L 243.356396 98.010449 
L 245.116522 91.370116 
L 247.251142 82.407914 
L 250.284549 68.611387 
L 255.490026 44.913397 
L 257.699545 35.949915 
L 259.49712 29.533566 
L 261.069998 24.715258 
L 262.418179 21.258191 
L 263.616562 18.752985 
L 264.702597 16.971226 
L 265.676284 15.784152 
L 266.537622 15.065596 
L 267.324061 14.685468 
L 268.07305 14.570264 
L 268.78459 14.684399 
L 269.53358 15.039338 
L 270.320019 15.669348 
L 271.181356 16.65789 
L 272.117593 18.079204 
L 273.166179 20.087054 
L 274.327112 22.800552 
L 275.637844 26.445514 
L 277.135823 31.299646 
L 278.858499 37.673191 
L 280.91822 46.187228 
L 283.726931 58.832041 
L 289.868645 86.744147 
L 292.003265 95.268168 
L 293.76339 101.432859 
L 295.298819 106.035012 
L 296.647 109.402547 
L 297.845383 111.822674 
L 298.893968 113.473111 
L 299.830205 114.564834 
L 300.691543 115.243624 
L 301.477982 115.587061 
L 302.226972 115.667163 
L 302.938512 115.519693 
L 303.687501 115.129838 
L 304.47394 114.463537 
L 305.335278 113.435906 
L 306.308964 111.907304 
L 307.394999 109.757698 
L 308.593382 106.866883 
L 309.941563 103.007122 
L 311.476992 97.901781 
L 313.237117 91.247865 
L 315.409187 82.109109 
L 318.517493 67.945701 
L 323.498274 45.263331 
L 325.745242 36.118766 
L 327.542817 29.680486 
L 329.115695 24.839655 
L 330.501325 21.273988 
L 331.699709 18.765645 
L 332.785743 16.980908 
L 333.75943 15.79108 
L 334.620768 15.070042 
L 335.407207 14.687622 
L 336.156196 14.570224 
L 336.867736 14.682275 
L 337.616726 15.03503 
L 338.403165 15.66277 
L 339.264503 16.648866 
L 340.20074 18.067586 
L 341.249325 20.072635 
L 342.410259 22.78319 
L 343.72099 26.425069 
L 345.218969 31.276047 
L 346.941645 37.646524 
L 349.001366 46.157782 
L 351.810077 58.800527 
L 357.951791 86.715433 
L 360.086411 95.242667 
L 361.846536 101.410756 
L 363.381965 106.016351 
L 364.730146 109.38722 
L 365.928529 111.81051 
L 366.977114 113.463838 
L 367.913351 114.558217 
L 368.774689 115.239495 
L 369.561128 115.585226 
L 370.310118 115.667522 
L 371.021658 115.522135 
L 371.770647 115.134461 
L 372.557086 114.470426 
L 373.418424 113.445236 
L 374.392111 111.919321 
L 375.478145 109.772595 
L 376.676529 106.884785 
L 378.02471 103.028141 
L 379.560138 97.925953 
L 381.320264 91.27505 
L 383.492333 82.13902 
L 386.60064 67.977412 
L 391.618869 45.131973 
L 393.828388 36.144786 
L 395.625963 29.703141 
L 397.198841 24.858853 
L 398.584472 21.289802 
L 399.782855 18.778323 
L 400.86889 16.990609 
L 401.842576 15.798028 
L 402.703914 15.074507 
L 403.490353 14.689795 
L 404.239342 14.570204 
L 404.950882 14.680171 
L 405.699872 15.030743 
L 406.486311 15.656212 
L 407.347649 16.639861 
L 408.283886 18.055987 
L 409.332471 20.058233 
L 410.493405 22.765844 
L 411.804136 26.40464 
L 413.302115 31.252461 
L 415.024791 37.619868 
L 417.084512 46.128344 
L 419.893223 58.769016 
L 426.072387 86.844576 
L 428.207007 95.357327 
L 429.967132 101.510108 
L 431.50256 106.100198 
L 432.850742 109.456056 
L 434.049125 111.865102 
L 435.09771 113.505414 
L 436.033947 114.587839 
L 436.895285 115.257921 
L 437.681724 115.593326 
L 438.393264 115.667861 
L 439.104804 115.524557 
L 439.853793 115.139065 
L 440.640232 114.477296 
L 441.50157 113.454547 
L 442.475257 111.931318 
L 443.561292 109.787475 
L 444.759675 106.902671 
L 446.107856 103.049146 
L 447.643284 97.950111 
L 449.40341 91.302224 
L 451.575479 82.168924 
L 454.646336 68.183508 
L 459.702015 45.16115 
L 461.911534 36.170818 
L 463.709109 29.725811 
L 465.281987 24.878067 
L 466.667618 21.305634 
L 467.866001 18.79102 
L 468.952036 17.000329 
L 469.925722 15.804996 
L 470.78706 15.078993 
L 471.573499 14.691989 
L 472.322489 14.570204 
L 473.034029 14.678087 
L 473.783018 15.026475 
L 474.569457 15.649674 
L 475.430795 16.630875 
L 476.367032 18.044406 
L 477.415617 20.043849 
L 478.576551 22.748514 
L 479.887283 26.384225 
L 481.385262 31.228889 
L 483.107938 37.593224 
L 485.167659 46.098913 
L 487.976369 58.737507 
L 494.155533 86.815892 
L 496.290153 95.331868 
L 498.050278 101.488055 
L 499.585707 106.081594 
L 500.933888 109.440789 
L 502.132271 111.853003 
L 503.180856 113.496208 
L 504.117093 114.58129 
L 504.978431 115.253861 
L 505.76487 115.591561 
L 506.47641 115.668181 
L 507.18795 115.52696 
L 507.93694 115.143649 
L 508.723379 114.484147 
L 509.584717 113.463838 
L 510.558403 111.943298 
L 511.644438 109.802337 
L 512.842821 106.92054 
L 514.191002 103.070135 
L 515.726431 97.974256 
L 517.486556 91.329389 
L 519.621176 82.363137 
L 522.692033 68.389553 
L 527.822611 45.029915 
L 530.03213 36.053766 
L 531.829705 29.623908 
L 533.402583 24.791731 
L 534.788214 21.234527 
L 535.986597 18.73403 
L 537.072632 16.956739 
L 538.046318 15.773795 
L 538.907656 15.058965 
L 539.694095 14.682275 
L 540.443084 14.570361 
L 541.154624 14.687622 
L 541.903614 15.045836 
L 542.690053 15.679251 
L 543.551391 16.671461 
L 544.487628 18.096666 
L 545.536213 20.108717 
L 546.734596 22.922559 
L 548.045328 26.589055 
L 549.543307 31.465212 
L 551.265983 37.860159 
L 553.363153 46.555929 
L 556.209313 59.399699 
L 562.126331 86.312558 
L 564.2984 95.025432 
L 566.058525 101.2223 
L 567.593954 105.857082 
L 568.942135 109.256231 
L 570.140518 111.706373 
L 571.226553 113.435906 
L 572.16279 114.53825 
L 573.024128 115.226988 
L 573.810567 115.579601 
L 574.559556 115.66848 
L 575.271096 115.529342 
L 576.020086 115.148213 
L 576.806525 114.490978 
L 577.667863 113.473111 
L 578.641549 111.955258 
L 579.727584 109.817182 
L 580.925967 106.938393 
L 582.274148 103.091109 
L 583.809577 97.998388 
L 585.569702 91.356543 
L 587.704322 82.39299 
L 590.73773 68.595544 
L 595.905757 45.059065 
L 598.115276 36.079757 
L 599.912851 29.646528 
L 601.485729 24.810889 
L 602.87136 21.250299 
L 604.069743 18.746662 
L 605.155778 16.966392 
L 606.129464 15.780695 
L 606.990802 15.063381 
L 607.777241 14.684399 
L 608.526231 14.570291 
L 609.237771 14.685468 
L 609.98676 15.041499 
L 610.773199 15.672644 
L 611.634537 16.662409 
L 612.570774 18.08502 
L 613.619359 20.09427 
L 614.780293 22.80924 
L 616.091025 26.455742 
L 617.589004 31.31145 
L 619.311679 37.686528 
L 621.371401 46.201954 
L 624.180111 58.847798 
L 630.321825 86.7585 
L 632.456445 95.280914 
L 634.216571 101.443905 
L 635.751999 106.044336 
L 637.10018 109.410204 
L 638.298563 111.828749 
L 639.347149 113.47774 
L 640.283386 114.568135 
L 641.144724 115.245681 
L 641.931163 115.587971 
L 642.680152 115.666976 
L 643.391692 115.518464 
L 644.140682 115.127519 
L 644.927121 114.460084 
L 645.788458 113.431234 
L 646.762145 111.901289 
L 647.84818 109.750243 
L 649.046563 106.857926 
L 650.394744 102.996607 
L 651.930172 97.889691 
L 653.690298 91.234268 
L 655.862367 82.094152 
L 658.970674 67.929845 
L 663.951454 45.248728 
L 666.198423 36.10576 
L 667.995997 29.669163 
L 669.568875 24.830062 
L 670.954506 21.266087 
L 672.152889 18.759313 
L 673.238924 16.976065 
L 674.21261 15.787614 
L 675.073948 15.067817 
L 675.860387 14.686543 
L 676.609377 14.570241 
L 677.320917 14.683334 
L 678.069906 15.037182 
L 678.856345 15.666057 
L 679.717683 16.653375 
L 680.65392 18.073393 
L 681.702505 20.079842 
L 682.863439 22.791869 
L 684.174171 26.43529 
L 685.67215 31.287844 
L 687.394826 37.659856 
L 689.454547 46.172504 
L 692.263257 58.816283 
L 698.404971 86.729791 
L 700.539591 95.255419 
L 702.299717 101.421809 
L 703.835145 106.025683 
L 705.183326 109.394886 
L 706.38171 111.816594 
L 707.430295 113.468477 
L 708.366532 114.561528 
L 709.22787 115.241562 
L 710.014309 115.586146 
L 710.763298 115.667345 
L 711.474838 115.520916 
L 712.223828 115.132152 
L 713.010267 114.466984 
L 713.871605 113.440574 
L 714.845291 111.913315 
L 715.931326 109.765149 
L 717.129709 106.875836 
L 718.47789 103.017634 
L 720.013319 97.913869 
L 721.773444 91.261459 
L 723.945514 82.124066 
L 727.05382 67.961557 
L 732.0346 45.277937 
L 734.281569 36.131775 
L 736.079144 29.691812 
L 737.652022 24.849252 
L 739.037652 21.281893 
L 740.236035 18.771982 
L 741.32207 16.985756 
L 742.295756 15.794552 
L 743.157094 15.072272 
L 743.943533 14.688706 
L 744.692523 14.570211 
L 745.404063 14.681221 
L 746.153052 15.032884 
L 746.939491 15.659489 
L 747.800829 16.644361 
L 748.737066 18.061784 
L 749.785652 20.065432 
L 750.946585 22.774514 
L 752.257317 26.414852 
L 753.755296 31.264252 
L 755.477972 37.633195 
L 757.537693 46.143062 
L 760.346404 58.784771 
L 766.488118 86.701073 
L 768.622738 95.229913 
L 770.382863 101.399699 
L 771.918291 106.007014 
L 773.266473 109.379549 
L 774.464856 111.804421 
L 775.513441 113.459195 
L 776.449678 114.554902 
L 777.311016 115.237423 
L 778.097455 115.584301 
L 778.846444 115.667694 
L 779.557984 115.523349 
L 780.306974 115.136765 
L 781.093413 114.473864 
L 781.954751 113.449894 
L 782.928437 111.925322 
L 784.014472 109.780038 
L 785.212855 106.89373 
L 786.561036 103.038645 
L 788.096465 97.938033 
L 789.85659 91.288638 
L 792.02866 82.153973 
L 795.099517 68.167657 
L 800.155196 45.14656 
L 802.364715 36.157801 
L 804.16229 29.714474 
L 805.735168 24.868458 
L 807.120798 21.297716 
L 808.319182 18.784669 
L 809.405216 16.995467 
L 810.378903 15.80151 
L 811.240241 15.076747 
L 812.02668 14.69089 
L 812.775669 14.570201 
L 812.775669 14.570201 
" clip-path="url(#pfef6726e85)" style="fill: none; stroke: #e36f47; stroke-width: 6"/>
   </g>
   <g id="patch_3">
    <path d="M 41.316477 118.915181 
L 41.316477 4.272545 
" style="fill: none; stroke: #000000; stroke-width: 2; stroke-linejoin: miter; stroke-linecap: square"/>
   </g>
   <g id="line2d_6">
    <path d="M 63.786162 14.570201 
L 253.617553 14.462767 
L 256.68841 13.90919 
L 270.20767 12.689271 
L 285.150011 11.567657 
L 301.740128 10.540491 
L 320.502316 9.603813 
L 341.436572 8.791891 
L 362.408278 8.201044 
L 385.215009 7.781434 
L 409.894213 7.55896 
L 436.483341 7.534141 
L 474.681806 7.764852 
L 544.562527 8.50164 
L 605.567722 9.052171 
L 620.622411 9.05052 
L 626.801574 8.881982 
L 632.980738 8.936683 
L 639.159901 9.214624 
L 645.339065 9.715806 
L 651.518228 10.440227 
L 656.38666 10.989393 
L 679.305739 11.876436 
L 706.082114 12.673177 
L 732.858489 13.247687 
L 767.798849 13.741223 
L 810.041857 14.100861 
L 812.775669 14.117725 
L 812.775669 14.117725 
" clip-path="url(#pfef6726e85)" style="fill: none; stroke: #3ea44e; stroke-width: 6"/>
   </g>
  </g>
 </g>
 <defs>
  <clipPath id="pfef6726e85">
   <rect x="41.316477" y="4.272545" width="793.928878" height="114.642636"/>
  </clipPath>
 </defs>
</svg>
