<?xml version="1.0" encoding="utf-8" standalone="no"?>
<!DOCTYPE svg PUBLIC "-//W3C//DTD SVG 1.1//EN"
  "http://www.w3.org/Graphics/SVG/1.1/DTD/svg11.dtd">
<svg xmlns:xlink="http://www.w3.org/1999/xlink" width="843.84pt" height="155.52pt" viewBox="0 0 843.84 155.52" xmlns="http://www.w3.org/2000/svg" version="1.1">
 <metadata>
  <rdf:RDF xmlns:dc="http://purl.org/dc/elements/1.1/" xmlns:cc="http://creativecommons.org/ns#" xmlns:rdf="http://www.w3.org/1999/02/22-rdf-syntax-ns#">
   <cc:Work>
    <dc:type rdf:resource="http://purl.org/dc/dcmitype/StillImage"/>
    <dc:date>2024-08-19T18:57:17.469536</dc:date>
    <dc:format>image/svg+xml</dc:format>
    <dc:creator>
     <cc:Agent>
      <dc:title>Matplotlib v3.8.4, https://matplotlib.org/</dc:title>
     </cc:Agent>
    </dc:creator>
   </cc:Work>
  </rdf:RDF>
 </metadata>
 <defs>
  <style type="text/css">*{stroke-linejoin: round; stroke-linecap: butt}</style>
 </defs>
 <g id="figure_1">
  <g id="patch_1">
   <path d="M 0 155.52 
L 843.84 155.52 
L 843.84 0 
L 0 0 
L 0 155.52 
z
" style="fill: none"/>
  </g>
  <g id="axes_1">
   <g id="patch_2">
    <path d="M 41.316477 139.514517 
L 841.005354 139.514517 
L 841.005354 2.834646 
L 41.316477 2.834646 
L 41.316477 139.514517 
z
" style="fill: none"/>
   </g>
   <g id="line2d_1">
    <path d="M 63.949181 135.646218 
L 64.703604 135.539253 
L 65.495749 135.197171 
L 66.325615 134.587969 
L 67.230923 133.634077 
L 68.211673 132.266221 
L 69.305587 130.341192 
L 70.512665 127.747033 
L 71.870627 124.271148 
L 73.379474 119.769351 
L 75.114648 113.849848 
L 77.11387 106.200287 
L 79.603468 95.742974 
L 83.86596 76.677052 
L 87.638078 60.224005 
L 90.014512 50.829643 
L 91.938292 44.084401 
L 93.598023 39.028133 
L 95.069149 35.220125 
L 96.38939 32.39123 
L 97.558746 30.379431 
L 98.614939 28.977811 
L 99.557969 28.06891 
L 100.425556 27.523236 
L 101.2177 27.270704 
L 102.009845 27.253855 
L 102.764268 27.457001 
L 103.556413 27.899567 
L 104.424 28.651464 
L 105.367029 29.781038 
L 106.385501 31.358452 
L 107.517136 33.532907 
L 108.799656 36.510135 
L 110.195339 40.330668 
L 111.779629 45.336688 
L 113.590245 51.820797 
L 115.740352 60.380822 
L 118.56944 72.623128 
L 126.113675 105.744719 
L 128.339224 114.257914 
L 130.187561 120.485005 
L 131.809572 125.193286 
L 133.242976 128.692944 
L 134.525496 131.255329 
L 135.657132 133.045508 
L 136.675603 134.265396 
L 137.618633 135.056382 
L 138.448498 135.479116 
L 139.240643 135.641938 
L 139.995067 135.577753 
L 140.787211 135.280422 
L 141.617077 134.717711 
L 142.522385 133.813822 
L 143.503136 132.498975 
L 144.59705 130.631225 
L 145.804127 128.097459 
L 147.124368 124.787722 
L 148.595494 120.485005 
L 150.292947 114.797462 
L 152.254448 107.404272 
L 154.668603 97.378252 
L 158.365278 80.928322 
L 162.854098 61.167991 
L 165.268253 51.536127 
L 167.229754 44.58096 
L 168.927207 39.348187 
L 170.398332 35.489113 
L 171.718573 32.610931 
L 172.925651 30.494803 
L 173.981844 29.064584 
L 174.962594 28.098979 
L 175.830181 27.541126 
L 176.622326 27.27739 
L 177.414471 27.249308 
L 178.168894 27.441774 
L 178.961039 27.873191 
L 179.828626 28.613011 
L 180.771655 29.729687 
L 181.790127 31.293529 
L 182.921762 33.453456 
L 184.166561 36.320467 
L 185.562244 40.109471 
L 187.146533 45.08334 
L 188.95715 51.536127 
L 191.107257 60.067398 
L 193.936345 72.287246 
L 201.669185 106.200287 
L 203.857013 114.528341 
L 205.705351 120.720486 
L 207.28964 125.2936 
L 208.723045 128.776154 
L 210.005564 131.322225 
L 211.1372 133.097369 
L 212.155671 134.303328 
L 213.06098 135.056382 
L 213.890845 135.479116 
L 214.68299 135.641938 
L 215.437413 135.577753 
L 216.229558 135.280422 
L 217.059424 134.717711 
L 217.964732 133.813822 
L 218.945483 132.498975 
L 220.039397 130.631225 
L 221.246474 128.097459 
L 222.566715 124.787722 
L 224.037841 120.485005 
L 225.735294 114.797462 
L 227.696795 107.404272 
L 230.11095 97.378252 
L 233.807625 80.928322 
L 238.296445 61.167991 
L 240.7106 51.536127 
L 242.672101 44.58096 
L 244.369554 39.348187 
L 245.840679 35.489113 
L 247.16092 32.610931 
L 248.367998 30.494803 
L 249.424191 29.064584 
L 250.404941 28.098979 
L 251.272528 27.541126 
L 252.064673 27.27739 
L 252.856818 27.248025 
L 253.460356 27.432046 
L 254.101616 27.857624 
L 254.818319 28.610551 
L 255.610463 29.778358 
L 256.515771 31.534634 
L 257.534243 34.02944 
L 258.665878 37.413303 
L 259.948398 41.970081 
L 261.419524 48.041318 
L 263.192419 56.364685 
L 265.417968 67.962614 
L 273.641184 111.94991 
L 275.376358 119.452914 
L 276.847484 124.869549 
L 278.130004 128.778554 
L 279.261639 131.5396 
L 280.242389 133.37912 
L 281.109976 134.561338 
L 281.8644 135.241537 
L 282.543381 135.573146 
L 283.184641 135.640506 
L 283.78818 135.485311 
L 284.42944 135.088689 
L 285.146142 134.364836 
L 285.938287 133.224698 
L 286.805874 131.57482 
L 287.786624 129.220715 
L 288.918259 125.889937 
L 290.200779 121.374249 
L 291.671905 115.324249 
L 293.407079 107.177537 
L 295.557186 95.943845 
L 299.480188 73.972265 
L 302.497882 57.695377 
L 304.497104 48.097461 
L 306.119114 41.35439 
L 307.514798 36.46522 
L 308.721875 33.00543 
L 309.778068 30.610723 
L 310.721098 28.997902 
L 311.550963 28.002526 
L 312.267666 27.46892 
L 312.908926 27.250645 
L 313.512464 27.270009 
L 314.116003 27.507524 
L 314.757263 27.998064 
L 315.473966 28.834292 
L 316.26611 30.10699 
L 317.171418 31.998925 
L 318.18989 34.665009 
L 319.359246 38.390533 
L 320.679487 43.383225 
L 322.188334 49.991965 
L 323.998951 58.96764 
L 326.375385 71.954792 
L 332.863426 108.034678 
L 334.711764 116.752831 
L 336.258332 123.019763 
L 337.578573 127.487959 
L 338.74793 130.689309 
L 339.766401 132.856345 
L 340.633988 134.2246 
L 341.426133 135.078597 
L 342.105114 135.504909 
L 342.746374 135.645866 
L 343.349913 135.545403 
L 343.953451 135.21901 
L 344.632433 134.583175 
L 345.386856 133.546677 
L 346.216722 132.012662 
L 347.159751 129.782993 
L 348.215944 126.697624 
L 349.423022 122.458744 
L 350.818705 116.698317 
L 352.440716 109.009078 
L 354.439938 98.391386 
L 357.533074 80.575758 
L 361.305191 59.126692 
L 363.304413 49.020404 
L 364.926424 41.908334 
L 366.284386 36.881967 
L 367.491464 33.222045 
L 368.547657 30.697527 
L 369.452965 29.065548 
L 370.245109 28.054645 
L 370.961812 27.482833 
L 371.603072 27.250766 
L 372.20661 27.275013 
L 372.810149 27.534806 
L 373.451409 28.068022 
L 374.168111 28.974778 
L 374.960256 30.352695 
L 375.865564 32.398326 
L 376.884036 35.276904 
L 378.053392 39.292077 
L 379.373633 44.659942 
L 380.920201 51.929488 
L 382.80626 61.938721 
L 385.446742 77.285008 
L 390.161889 104.774465 
L 392.085669 114.610179 
L 393.669958 121.606904 
L 394.990199 126.502384 
L 396.159556 130.033985 
L 397.178027 132.442823 
L 398.083335 134.0343 
L 398.837759 134.951886 
L 399.51674 135.453485 
L 400.120279 135.638507 
L 400.686096 135.587803 
L 401.289635 135.294464 
L 401.930895 134.713266 
L 402.647597 133.738178 
L 403.439742 132.26736 
L 404.34505 130.094623 
L 405.363522 127.048924 
L 406.532878 122.815004 
L 407.890841 117.000442 
L 409.47513 109.16807 
L 411.436631 98.260519 
L 414.492046 79.801524 
L 418.037836 58.710379 
L 419.961616 48.565888 
L 421.508184 41.517234 
L 422.828425 36.465467 
L 423.997782 32.835281 
L 425.016253 30.375287 
L 425.88384 28.823438 
L 426.638264 27.894489 
L 427.317245 27.399767 
L 427.920784 27.2346 
L 428.486601 27.31564 
L 429.052419 27.624975 
L 429.693679 28.250298 
L 430.410381 29.291102 
L 431.202526 30.853773 
L 432.107834 33.154544 
L 433.126306 36.370561 
L 434.295662 40.8288 
L 435.653624 46.932378 
L 437.237913 55.121946 
L 439.237136 66.693372 
L 442.971532 89.958465 
L 445.687456 106.170626 
L 447.498073 115.724561 
L 449.00692 122.548246 
L 450.28944 127.360813 
L 451.383354 130.65889 
L 452.326383 132.859974 
L 453.156249 134.281288 
L 453.872951 135.108606 
L 454.514211 135.528814 
L 455.080029 135.646212 
L 455.608125 135.540715 
L 456.173943 135.197492 
L 456.815203 134.522244 
L 457.531905 133.411866 
L 458.324049 131.756562 
L 459.229358 129.331791 
L 460.28555 125.818985 
L 461.492628 120.968272 
L 462.888311 114.370531 
L 464.548043 105.379641 
L 466.735871 92.183147 
L 473.035307 53.370223 
L 474.73276 44.689741 
L 476.128443 38.641684 
L 477.335521 34.34291 
L 478.391714 31.364845 
L 479.297022 29.432156 
L 480.089167 28.229538 
L 480.768148 27.570355 
L 481.371686 27.27624 
L 481.937504 27.251452 
L 482.4656 27.447581 
L 483.031418 27.891777 
L 483.672678 28.6854 
L 484.427101 30.007709 
L 485.256967 31.935309 
L 486.199997 34.704051 
L 487.293911 38.641966 
L 488.538709 43.990261 
L 490.009835 51.346277 
L 491.820452 61.621053 
L 494.423212 77.843001 
L 498.685705 104.401868 
L 500.571764 114.680945 
L 502.080611 121.739806 
L 503.363131 126.742995 
L 504.494766 130.299806 
L 505.475516 132.680849 
L 506.305382 134.162076 
L 507.022084 135.03633 
L 507.663344 135.495198 
L 508.229162 135.64445 
L 508.757258 135.567053 
L 509.323076 135.25249 
L 509.926615 134.654657 
L 510.605596 133.662503 
L 511.397741 132.086115 
L 512.303049 129.749922 
L 513.32152 126.4732 
L 514.490877 121.924873 
L 515.848839 115.700312 
L 517.470849 107.153829 
L 519.545514 94.935221 
L 526.787979 51.16137 
L 528.40999 43.27391 
L 529.767952 37.705338 
L 530.937308 33.777884 
L 531.95578 31.069781 
L 532.861088 29.250715 
L 533.653233 28.128757 
L 534.332214 27.52305 
L 534.935753 27.263347 
L 535.50157 27.258965 
L 536.067388 27.485666 
L 536.670927 27.980698 
L 537.349908 28.846594 
L 538.104331 30.185382 
L 538.971918 32.201283 
L 539.952669 35.067805 
L 541.084304 39.101752 
L 542.366824 44.528389 
L 543.875671 51.916782 
L 545.76173 62.348324 
L 548.515375 78.993972 
L 552.589262 103.50282 
L 554.513042 113.719405 
L 556.097331 120.987695 
L 557.417572 126.073226 
L 558.586929 129.743842 
L 559.6054 132.251562 
L 560.510708 133.914601 
L 561.302853 134.919226 
L 561.981834 135.439729 
L 562.585373 135.636211 
L 563.151191 135.592335 
L 563.717008 135.328228 
L 564.358268 134.764472 
L 565.07497 133.806018 
L 565.867115 132.351505 
L 566.772423 130.196765 
L 567.790895 127.173225 
L 568.960251 122.970995 
L 570.318213 117.20626 
L 571.902503 109.454777 
L 573.864004 98.684209 
L 576.994861 80.046345 
L 580.50293 59.521331 
L 582.464431 49.320741 
L 584.048721 42.179201 
L 585.406683 37.018639 
L 586.576039 33.378821 
L 587.632232 30.783291 
L 588.53754 29.108426 
L 589.329685 28.072763 
L 590.046387 27.487934 
L 590.687647 27.251055 
L 591.253465 27.267417 
L 591.857004 27.517412 
L 592.498263 28.044476 
L 593.214966 28.948661 
L 594.00711 30.327768 
L 594.912419 32.378126 
L 595.93089 35.263652 
L 597.100247 39.285373 
L 598.420488 44.653946 
L 599.967056 51.909361 
L 601.853115 61.872841 
L 604.569039 77.545582 
L 609.09558 103.679541 
L 611.094802 113.848584 
L 612.716812 120.984676 
L 614.074775 126.015898 
L 615.281852 129.672073 
L 616.338045 132.189961 
L 617.243353 133.815988 
L 618.035498 134.822934 
L 618.7522 135.39327 
L 619.39346 135.626465 
L 619.996999 135.60598 
L 620.600538 135.353069 
L 621.241798 134.831125 
L 621.9585 133.942401 
L 622.750645 132.59181 
L 623.655953 130.587797 
L 624.674424 127.770241 
L 625.843781 123.844301 
L 627.164022 118.601727 
L 628.71059 111.509302 
L 631.766005 96.030323 
L 636.481152 71.106313 
L 639.272519 57.124665 
L 641.271741 48.194151 
L 642.931472 41.741211 
L 644.364877 37.00427 
L 645.647397 33.498319 
L 646.779032 31.021295 
L 647.797504 29.309594 
L 648.702812 28.212095 
L 649.494957 27.584803 
L 650.211659 27.287451 
L 650.89064 27.243151 
L 651.569621 27.429358 
L 652.286323 27.874339 
L 653.040747 28.61523 
L 653.870613 29.747338 
L 654.813642 31.426696 
L 655.869835 33.785407 
L 657.076912 37.066494 
L 658.434875 41.447967 
L 659.981443 47.232571 
L 661.792059 54.91133 
L 664.05533 65.544051 
L 667.827447 84.538157 
L 671.44868 102.352929 
L 673.636508 112.048001 
L 675.447124 119.110447 
L 676.993692 124.295937 
L 678.351654 128.119625 
L 679.558732 130.897253 
L 680.652646 132.881542 
L 681.633396 134.214177 
L 682.500983 135.033403 
L 683.293128 135.482789 
L 684.00983 135.642422 
L 684.726533 135.567374 
L 685.443235 135.258616 
L 686.197658 134.6833 
L 687.027524 133.75807 
L 687.932832 132.406686 
L 688.951304 130.472472 
L 690.082939 127.831198 
L 691.365459 124.248792 
L 692.798864 119.565936 
L 694.458595 113.354614 
L 696.420096 105.113929 
L 698.947415 93.470804 
L 707.208352 54.6328 
L 709.207574 46.700977 
L 710.905027 40.833251 
L 712.376153 36.498777 
L 713.696394 33.264262 
L 714.86575 30.952294 
L 715.921943 29.330608 
L 716.864972 28.26772 
L 717.732559 27.616475 
L 718.524704 27.29787 
L 719.241406 27.237479 
L 719.958109 27.393353 
L 720.712532 27.78986 
L 721.504677 28.460271 
L 722.372264 29.48863 
L 723.353014 31.01297 
L 724.446928 33.151462 
L 725.654006 36.022764 
L 727.011968 39.853359 
L 728.558536 44.920234 
L 730.331431 51.531949 
L 732.443817 60.312676 
L 735.272905 73.106013 
L 742.17588 104.698167 
L 744.363708 113.47373 
L 746.212045 120.002662 
L 747.796335 124.822155 
L 749.192018 128.400043 
L 750.436817 131.020777 
L 751.568452 132.911377 
L 752.586924 134.197932 
L 753.492232 135.003816 
L 754.322098 135.459433 
L 755.114242 135.639925 
L 755.868666 135.580351 
L 756.623089 135.295523 
L 757.415234 134.755681 
L 758.282821 133.884774 
L 759.22585 132.612574 
L 760.282043 130.795783 
L 761.451399 128.319603 
L 762.771641 124.968271 
L 764.242766 120.591602 
L 765.902498 114.926479 
L 767.826278 107.541834 
L 770.202712 97.493039 
L 773.899387 80.751603 
L 778.275043 61.186128 
L 780.651477 51.564928 
L 782.612978 44.517967 
L 784.272709 39.340337 
L 785.743835 35.439106 
L 787.064076 32.539514 
L 788.233433 30.476068 
L 789.289626 29.036958 
L 790.232655 28.102035 
L 791.100242 27.538604 
L 791.892386 27.274971 
L 792.64681 27.247441 
L 793.401233 27.43798 
L 794.193378 27.871734 
L 795.060965 28.618995 
L 796.003994 29.749199 
L 797.022466 31.333481 
L 798.154101 33.522472 
L 799.3989 36.428064 
L 800.794583 40.266888 
L 802.378873 45.303252 
L 804.189489 51.831376 
L 806.339596 60.451483 
L 809.206405 72.944602 
L 816.524313 105.273317 
L 818.37265 112.486663 
L 818.37265 112.486663 
" clip-path="url(#pc976097714)" style="fill: none; stroke: #2477d0; stroke-width: 4"/>
   </g>
   <g id="matplotlib.axis_1">
    <g id="xtick_1"/>
    <g id="xtick_2"/>
    <g id="xtick_3"/>
    <g id="xtick_4"/>
    <g id="xtick_5"/>
   </g>
   <g id="matplotlib.axis_2">
    <g id="ytick_1">
     <g id="line2d_2">
      <defs>
       <path id="m99862ef2f1" d="M 0 0 
L 5 0 
" style="stroke: #000000"/>
      </defs>
      <g>
       <use xlink:href="#m99862ef2f1" x="41.316477" y="135.646218" style="stroke: #000000"/>
      </g>
     </g>
     <g id="text_1">
      <!-- $-1$ -->
      <g transform="translate(1.976477 146.284031) scale(0.28 -0.28)">
       <defs>
        <path id="Cmsy10-a1" d="M 653 1472 
Q 600 1472 565 1512 
Q 531 1553 531 1600 
Q 531 1647 565 1687 
Q 600 1728 653 1728 
L 4325 1728 
Q 4375 1728 4408 1687 
Q 4441 1647 4441 1600 
Q 4441 1553 4408 1512 
Q 4375 1472 4325 1472 
L 653 1472 
z
" transform="scale(0.015625)"/>
        <path id="Cmr10-31" d="M 594 0 
L 594 225 
Q 1394 225 1394 428 
L 1394 3788 
Q 1063 3628 556 3628 
L 556 3853 
Q 1341 3853 1741 4263 
L 1831 4263 
Q 1853 4263 1873 4245 
Q 1894 4228 1894 4206 
L 1894 428 
Q 1894 225 2694 225 
L 2694 0 
L 594 0 
z
" transform="scale(0.015625)"/>
       </defs>
       <use xlink:href="#Cmsy10-a1" transform="translate(0 0.390625)"/>
       <use xlink:href="#Cmr10-31" transform="translate(77.685547 0.390625)"/>
      </g>
     </g>
    </g>
    <g id="ytick_2">
     <g id="line2d_3">
      <g>
       <use xlink:href="#m99862ef2f1" x="41.316477" y="81.439203" style="stroke: #000000"/>
      </g>
     </g>
     <g id="text_2">
      <!-- $0$ -->
      <g transform="translate(23.816477 92.077016) scale(0.28 -0.28)">
       <defs>
        <path id="Cmr10-30" d="M 1600 -141 
Q 816 -141 533 504 
Q 250 1150 250 2041 
Q 250 2597 351 3087 
Q 453 3578 754 3920 
Q 1056 4263 1600 4263 
Q 2022 4263 2290 4056 
Q 2559 3850 2700 3523 
Q 2841 3197 2892 2823 
Q 2944 2450 2944 2041 
Q 2944 1491 2842 1011 
Q 2741 531 2444 195 
Q 2147 -141 1600 -141 
z
M 1600 25 
Q 1956 25 2131 390 
Q 2306 756 2347 1200 
Q 2388 1644 2388 2144 
Q 2388 2625 2347 3031 
Q 2306 3438 2132 3767 
Q 1959 4097 1600 4097 
Q 1238 4097 1063 3765 
Q 888 3434 847 3029 
Q 806 2625 806 2144 
Q 806 1788 823 1472 
Q 841 1156 916 820 
Q 991 484 1158 254 
Q 1325 25 1600 25 
z
" transform="scale(0.015625)"/>
       </defs>
       <use xlink:href="#Cmr10-30" transform="translate(0 0.390625)"/>
      </g>
     </g>
    </g>
    <g id="ytick_3">
     <g id="line2d_4">
      <g>
       <use xlink:href="#m99862ef2f1" x="41.316477" y="27.232188" style="stroke: #000000"/>
      </g>
     </g>
     <g id="text_3">
      <!-- $1$ -->
      <g transform="translate(23.816477 37.870001) scale(0.28 -0.28)">
       <use xlink:href="#Cmr10-31" transform="translate(0 0.390625)"/>
      </g>
     </g>
    </g>
   </g>
   <g id="line2d_5">
    <path d="M 63.949181 27.232188 
L 64.55272 27.347879 
L 65.156258 27.694456 
L 65.835239 28.358458 
L 66.589663 29.432317 
L 67.419529 31.013759 
L 68.362558 33.303806 
L 69.456472 36.586499 
L 70.701271 41.083452 
L 72.134675 47.162654 
L 73.794407 55.220376 
L 75.906793 66.659677 
L 79.792074 89.245598 
L 82.696604 105.455074 
L 84.620384 114.985063 
L 86.204673 121.760827 
L 87.562635 126.633308 
L 88.731992 130.050975 
L 89.750463 132.395232 
L 90.655772 133.960104 
L 91.447916 134.91617 
L 92.126897 135.422952 
L 92.768157 135.63385 
L 93.371696 135.593797 
L 93.975235 135.322587 
L 94.616495 134.782459 
L 95.333197 133.874781 
L 96.163063 132.429994 
L 97.068371 130.385191 
L 98.124564 127.407354 
L 99.29392 123.411928 
L 100.651883 117.933797 
L 102.236172 110.556632 
L 104.159952 100.472517 
L 106.951319 84.502904 
L 111.402417 59.070173 
L 113.401639 48.987622 
L 115.02365 41.900683 
L 116.381612 36.894783 
L 117.588689 33.249104 
L 118.644882 30.731575 
L 119.550191 29.099873 
L 120.342335 28.083878 
L 121.059037 27.502471 
L 121.700297 27.257356 
L 122.303836 27.265144 
L 122.907375 27.504172 
L 123.548635 28.010352 
L 124.265337 28.880583 
L 125.057482 30.210155 
L 125.96279 32.190106 
L 126.981262 34.981546 
L 128.150618 38.880062 
L 129.470859 44.096743 
L 131.017427 51.167824 
L 132.903486 60.915543 
L 135.506247 75.677064 
L 140.636326 104.965321 
L 142.597827 114.730304 
L 144.182117 121.543856 
L 145.540079 126.453842 
L 146.709435 129.906941 
L 147.765628 132.360288 
L 148.670936 133.934725 
L 149.463081 134.899363 
L 150.179783 135.43363 
L 150.821043 135.636265 
L 151.424582 135.588424 
L 152.028121 135.30945 
L 152.669381 134.761134 
L 153.386083 133.844428 
L 154.215949 132.38942 
L 155.121257 130.333842 
L 156.17745 127.344065 
L 157.346806 123.33639 
L 158.704769 117.845564 
L 160.289058 110.456012 
L 162.212838 100.360854 
L 165.004205 84.38388 
L 169.417582 59.163284 
L 171.416804 49.069525 
L 173.038814 41.970652 
L 174.434498 36.82696 
L 175.641575 33.194635 
L 176.697768 30.689561 
L 177.603076 29.068977 
L 178.395221 28.062959 
L 179.111923 27.490712 
L 179.753183 27.253855 
L 180.356722 27.269431 
L 180.960261 27.516229 
L 181.601521 28.030607 
L 182.318223 28.909884 
L 183.110368 30.249246 
L 184.015676 32.24003 
L 185.034148 35.043079 
L 186.203504 38.953995 
L 187.523745 44.183243 
L 189.070313 51.266785 
L 190.956372 61.025926 
L 193.559133 75.79561 
L 198.651491 104.873226 
L 200.612992 114.649608 
L 202.197282 121.475042 
L 203.555244 126.396835 
L 204.7246 129.861097 
L 205.780793 132.325164 
L 206.686101 133.909159 
L 207.478246 134.882365 
L 208.194948 135.424494 
L 208.836208 135.634211 
L 209.439747 135.593045 
L 210.043286 135.320726 
L 210.684546 134.779428 
L 211.401248 133.87046 
L 212.231114 132.424213 
L 213.136422 130.37787 
L 214.192615 127.398326 
L 215.361971 123.401149 
L 216.719933 117.921203 
L 218.304223 110.542266 
L 220.228003 100.456571 
L 223.019369 84.485902 
L 227.470468 59.054662 
L 229.46969 48.973983 
L 231.0917 41.889035 
L 232.449663 36.885081 
L 233.65674 33.241309 
L 234.712933 30.725558 
L 235.618241 29.095444 
L 236.410386 28.080874 
L 237.127088 27.500775 
L 237.768348 27.256839 
L 238.371887 27.26574 
L 238.975426 27.505879 
L 239.616686 28.01323 
L 240.333388 28.884753 
L 241.125533 30.215724 
L 242.030841 32.197223 
L 243.049312 34.990323 
L 244.218669 38.890611 
L 245.53891 44.109089 
L 247.085478 51.181952 
L 248.971537 60.931306 
L 251.574298 75.693997 
L 256.666656 104.781048 
L 258.628157 114.568793 
L 260.212446 121.406085 
L 261.570409 126.339669 
L 262.739765 129.815082 
L 263.795958 132.289858 
L 264.701266 133.883406 
L 265.493411 134.865177 
L 266.210113 135.415166 
L 266.851373 135.631964 
L 267.454912 135.597474 
L 268.05845 135.331811 
L 268.69971 134.797533 
L 269.416413 133.896306 
L 270.208557 132.533194 
L 271.113866 130.516142 
L 272.132337 127.684955 
L 273.301694 123.744006 
L 274.621935 118.484342 
L 276.168503 111.370682 
L 278.054561 101.583999 
L 280.695044 86.574441 
L 285.636517 58.343571 
L 287.598018 48.525695 
L 289.182308 41.656899 
L 290.54027 36.691962 
L 291.747347 33.086397 
L 292.80354 30.606269 
L 293.708848 29.007947 
L 294.500993 28.021895 
L 295.217695 27.467977 
L 295.858955 27.247638 
L 296.462494 27.278791 
L 297.066033 27.541126 
L 297.707293 28.071893 
L 298.423995 28.969248 
L 299.21614 30.328172 
L 300.121448 32.340592 
L 301.13992 35.16682 
L 302.309276 39.102476 
L 303.629517 44.356784 
L 305.176085 51.465144 
L 307.062144 61.246986 
L 309.702626 76.253109 
L 314.6441 104.488606 
L 316.605601 114.312103 
L 318.18989 121.186787 
L 319.547852 126.157589 
L 320.75493 129.768894 
L 321.811123 132.254373 
L 322.716431 133.857468 
L 323.508575 134.847799 
L 324.225278 135.405646 
L 324.866538 135.629524 
L 325.470076 135.60171 
L 326.073615 135.342704 
L 326.714875 134.815448 
L 327.431578 133.921965 
L 328.223722 132.567231 
L 329.12903 130.559443 
L 330.147502 127.738178 
L 331.316858 123.807817 
L 332.637099 118.558871 
L 334.183668 111.455817 
L 336.069726 101.678824 
L 338.710208 86.67615 
L 343.689403 58.235781 
L 345.650904 48.431057 
L 347.235194 41.576023 
L 348.593156 36.624787 
L 349.800233 33.032629 
L 350.856426 30.564991 
L 351.761734 28.977811 
L 352.553879 28.00175 
L 353.270581 27.457001 
L 353.911841 27.244924 
L 354.51538 27.283864 
L 355.118919 27.553965 
L 355.760179 28.092923 
L 356.476881 28.999311 
L 357.269026 30.368005 
L 358.174334 32.39123 
L 359.192806 35.229025 
L 360.362162 39.177025 
L 361.682403 44.443823 
L 363.228971 51.564541 
L 365.11503 61.357663 
L 367.755512 76.371782 
L 372.696986 104.596444 
L 374.658487 114.40681 
L 376.242776 121.267746 
L 377.600738 126.224857 
L 378.807816 129.822763 
L 379.864009 132.295755 
L 380.769317 133.887711 
L 381.561461 134.868055 
L 382.278164 135.416734 
L 382.919424 135.632352 
L 383.522962 135.596749 
L 384.126501 135.329976 
L 384.767761 134.794528 
L 385.484463 133.892011 
L 386.276608 132.527503 
L 387.181916 130.508908 
L 388.200388 127.676068 
L 389.369744 123.733356 
L 390.689985 118.471908 
L 392.236554 111.356482 
L 394.122612 101.568188 
L 396.763094 86.557488 
L 401.704568 58.328166 
L 403.666069 48.512166 
L 405.250358 41.645334 
L 406.608321 36.682352 
L 407.815398 33.078702 
L 408.871591 30.600357 
L 409.776899 29.003626 
L 410.569044 28.019001 
L 411.285746 27.466393 
L 411.927006 27.247235 
L 412.530545 27.2795 
L 413.134084 27.542944 
L 413.775344 28.074881 
L 414.492046 28.973527 
L 415.284191 30.333847 
L 416.189499 32.347812 
L 417.20797 35.175692 
L 418.377327 39.113114 
L 419.697568 44.369207 
L 421.244136 51.479335 
L 423.130195 61.262791 
L 425.770677 76.27006 
L 430.71215 104.504018 
L 432.673651 114.325643 
L 434.257941 121.198364 
L 435.615903 126.167212 
L 436.822981 129.776604 
L 437.879173 132.260299 
L 438.784482 133.861804 
L 439.576626 134.850709 
L 440.293329 135.407246 
L 440.934588 135.629944 
L 441.538127 135.601017 
L 442.141666 135.340902 
L 442.782926 134.812475 
L 443.499628 133.917701 
L 444.291773 132.561571 
L 445.197081 130.552239 
L 446.215553 127.729319 
L 447.384909 123.797192 
L 448.70515 118.546459 
L 450.251718 111.441635 
L 452.137777 101.663024 
L 454.778259 86.6592 
L 459.757454 58.220391 
L 461.718955 48.41755 
L 463.303244 41.564484 
L 464.661207 36.615209 
L 465.868284 33.024967 
L 466.924477 30.559115 
L 467.829785 28.973527 
L 468.62193 27.998894 
L 469.338632 27.455454 
L 469.979892 27.244557 
L 470.583431 27.28461 
L 471.18697 27.55582 
L 471.82823 28.095948 
L 472.544932 29.003626 
L 473.374798 30.448413 
L 474.280106 32.493216 
L 475.336299 35.471053 
L 476.505655 39.466479 
L 477.863617 44.94461 
L 479.447907 52.321775 
L 481.371686 62.40589 
L 484.163053 78.375502 
L 488.614152 103.808234 
L 490.613374 113.890785 
L 492.235384 120.977724 
L 493.593347 125.983623 
L 494.800424 129.629302 
L 495.856617 132.146832 
L 496.761925 133.778534 
L 497.55407 134.794528 
L 498.270772 135.375936 
L 498.912032 135.621051 
L 499.515571 135.613263 
L 500.11911 135.374235 
L 500.76037 134.868055 
L 501.477072 133.997824 
L 502.269217 132.668252 
L 503.174525 130.688301 
L 504.192996 127.896861 
L 505.362353 123.998345 
L 506.682594 118.781663 
L 508.229162 111.710583 
L 510.115221 101.962863 
L 512.717982 87.201343 
L 517.848061 57.913086 
L 519.809562 48.148102 
L 521.393852 41.33455 
L 522.751814 36.424565 
L 523.92117 32.971466 
L 524.977363 30.518119 
L 525.882671 28.943682 
L 526.674816 27.979044 
L 527.391518 27.444777 
L 528.032778 27.242142 
L 528.636317 27.289982 
L 529.239856 27.568957 
L 529.881116 28.117273 
L 530.597818 29.033978 
L 531.427684 30.488986 
L 532.332992 32.544564 
L 533.389185 35.534342 
L 534.558541 39.542016 
L 535.916503 45.032843 
L 537.500793 52.422395 
L 539.424572 62.517553 
L 542.215939 78.494527 
L 546.629317 103.715122 
L 548.628539 113.808882 
L 550.250549 120.907755 
L 551.646233 126.051446 
L 552.85331 129.683772 
L 553.909503 132.188846 
L 554.814811 133.809429 
L 555.606956 134.815448 
L 556.323658 135.387695 
L 556.964918 135.624552 
L 557.568457 135.608976 
L 558.171996 135.362178 
L 558.813256 134.847799 
L 559.529958 133.968523 
L 560.322103 132.62916 
L 561.227411 130.638377 
L 562.245882 127.835327 
L 563.415239 123.924412 
L 564.73548 118.695163 
L 566.282048 111.611622 
L 568.168107 101.852481 
L 570.770868 87.082797 
L 575.863226 58.00518 
L 577.824727 48.228799 
L 579.409016 41.403365 
L 580.766979 36.481572 
L 581.936335 33.017309 
L 582.992528 30.553243 
L 583.897836 28.969248 
L 584.689981 27.996042 
L 585.406683 27.453913 
L 586.047943 27.244196 
L 586.651482 27.285362 
L 587.25502 27.557681 
L 587.89628 28.098979 
L 588.612983 29.007947 
L 589.442848 30.454194 
L 590.348157 32.500537 
L 591.404349 35.480081 
L 592.573706 39.477258 
L 593.931668 44.957204 
L 595.515957 52.336141 
L 597.439737 62.421836 
L 600.231104 78.392505 
L 604.682203 103.823745 
L 606.681425 113.904424 
L 608.303435 120.989372 
L 609.661397 125.993325 
L 610.868475 129.637098 
L 611.924668 132.152849 
L 612.829976 133.782963 
L 613.622121 134.797533 
L 614.338823 135.377631 
L 614.980083 135.621567 
L 615.583622 135.612667 
L 616.18716 135.372528 
L 616.82842 134.865177 
L 617.545123 133.993653 
L 618.337267 132.662682 
L 619.242575 130.681184 
L 620.261047 127.888084 
L 621.430404 123.987796 
L 622.750645 118.769317 
L 624.297213 111.696455 
L 626.183271 101.9471 
L 628.786032 87.18441 
L 633.878391 58.097358 
L 635.839892 48.309614 
L 637.424181 41.472321 
L 638.782143 36.538738 
L 639.9515 33.063325 
L 641.007693 30.588548 
L 641.913001 28.995 
L 642.705145 28.01323 
L 643.421848 27.463241 
L 644.063108 27.246443 
L 644.666646 27.280933 
L 645.270185 27.546596 
L 645.911445 28.080874 
L 646.628147 28.982101 
L 647.420292 30.345213 
L 648.3256 32.362265 
L 649.344072 35.193452 
L 650.513428 39.134401 
L 651.833669 44.394064 
L 653.380237 51.507725 
L 655.266296 61.294407 
L 657.906778 76.303966 
L 662.848252 104.534836 
L 664.809753 114.352711 
L 666.394042 121.221507 
L 667.752005 126.186445 
L 668.959082 129.79201 
L 670.015275 132.272138 
L 670.920583 133.87046 
L 671.712728 134.856512 
L 672.42943 135.41043 
L 673.07069 135.630768 
L 673.674229 135.599616 
L 674.277768 135.337281 
L 674.919028 134.806514 
L 675.63573 133.909159 
L 676.427874 132.550235 
L 677.333183 130.537814 
L 678.351654 127.711587 
L 679.521011 123.77593 
L 680.841252 118.521623 
L 682.38782 111.413263 
L 684.273879 101.63142 
L 686.914361 86.625298 
L 691.855834 58.389801 
L 693.817335 48.566303 
L 695.401625 41.69162 
L 696.759587 36.720818 
L 697.966665 33.109512 
L 699.022857 30.624034 
L 699.928166 29.020939 
L 700.72031 28.030607 
L 701.437012 27.472761 
L 702.078272 27.248882 
L 702.681811 27.276697 
L 703.28535 27.535703 
L 703.92661 28.062959 
L 704.643312 28.956442 
L 705.435457 30.311176 
L 706.340765 32.318963 
L 707.359237 35.140228 
L 708.528593 39.07059 
L 709.848834 44.319536 
L 711.395402 51.42259 
L 713.281461 61.199583 
L 715.921943 76.202256 
L 720.901138 104.642626 
L 722.862639 114.44735 
L 724.446928 121.302384 
L 725.804891 126.253619 
L 727.011968 129.845778 
L 728.068161 132.313415 
L 728.973469 133.900595 
L 729.765614 134.876657 
L 730.482316 135.421406 
L 731.123576 135.633483 
L 731.727115 135.594543 
L 732.330654 135.324442 
L 732.971914 134.785484 
L 733.688616 133.879096 
L 734.48076 132.510402 
L 735.386069 130.487177 
L 736.40454 127.649381 
L 737.573897 123.701382 
L 738.894138 118.434584 
L 740.440706 111.313865 
L 742.326765 101.520743 
L 744.967247 86.506625 
L 749.90872 58.281963 
L 751.870221 48.471597 
L 753.454511 41.61066 
L 754.812473 36.65355 
L 756.01955 33.055644 
L 757.075743 30.582652 
L 757.981052 28.990695 
L 758.773196 28.010352 
L 759.489898 27.461673 
L 760.131158 27.246055 
L 760.734697 27.281658 
L 761.338236 27.54843 
L 761.979496 28.083878 
L 762.696198 28.986396 
L 763.488343 30.350903 
L 764.393651 32.369499 
L 765.412123 35.202338 
L 766.581479 39.14505 
L 767.90172 44.406498 
L 769.448288 51.521925 
L 771.334347 61.310218 
L 773.974829 76.320919 
L 778.916303 104.550241 
L 780.877804 114.366241 
L 782.462093 121.233073 
L 783.820055 126.196054 
L 785.027133 129.799705 
L 786.083326 132.27805 
L 786.988634 133.874781 
L 787.780779 134.859405 
L 788.497481 135.412014 
L 789.138741 135.631172 
L 789.74228 135.598907 
L 790.345818 135.335463 
L 790.987078 134.803525 
L 791.703781 133.90488 
L 792.495925 132.54456 
L 793.401233 130.530595 
L 794.419705 127.702714 
L 795.589061 123.765293 
L 796.909303 118.5092 
L 798.455871 111.399072 
L 800.341929 101.615615 
L 802.982411 86.608346 
L 807.923885 58.374389 
L 809.885386 48.552764 
L 811.469676 41.680042 
L 812.827638 36.711195 
L 814.034715 33.101802 
L 815.090908 30.618107 
L 815.996216 29.016603 
L 816.788361 28.027698 
L 817.505063 27.471161 
L 818.146323 27.248462 
L 818.37265 27.232188 
L 818.37265 27.232188 
" clip-path="url(#pc976097714)" style="fill: none; stroke: #ffa231; stroke-width: 4"/>
   </g>
   <g id="patch_3">
    <path d="M 41.316477 139.514517 
L 41.316477 2.834646 
" style="fill: none; stroke: #000000; stroke-width: 2; stroke-linejoin: miter; stroke-linecap: square"/>
   </g>
   <g id="line2d_6">
    <path d="M 63.949181 27.232188 
L 253.57352 27.122375 
L 263.758237 25.498338 
L 274.999146 23.935087 
L 287.711182 22.394502 
L 302.422439 20.839777 
L 319.47241 19.266636 
L 339.502353 17.646972 
L 364.662376 15.845134 
L 408.607543 12.964542 
L 479.372464 8.485787 
L 497.403185 7.62004 
L 513.283799 7.078922 
L 528.485432 6.783528 
L 543.988834 6.704679 
L 560.850199 6.843561 
L 580.653815 7.23567 
L 608.45432 8.029898 
L 631.426515 8.854618 
L 665.451013 12.46515 
L 694.798086 15.361604 
L 720.674811 17.697393 
L 744.325987 19.61084 
L 766.355152 21.171304 
L 787.743057 22.463447 
L 809.281847 23.539976 
L 818.37265 23.929433 
L 818.37265 23.929433 
" clip-path="url(#pc976097714)" style="fill: none; stroke: #4eba88; stroke-width: 4"/>
   </g>
  </g>
 </g>
 <defs>
  <clipPath id="pc976097714">
   <rect x="41.316477" y="2.834646" width="799.688878" height="136.679871"/>
  </clipPath>
 </defs>
</svg>
