<?xml version="1.0" encoding="utf-8" standalone="no"?>
<!DOCTYPE svg PUBLIC "-//W3C//DTD SVG 1.1//EN"
  "http://www.w3.org/Graphics/SVG/1.1/DTD/svg11.dtd">
<svg xmlns:xlink="http://www.w3.org/1999/xlink" width="843.84pt" height="144pt" viewBox="0 0 843.84 144" xmlns="http://www.w3.org/2000/svg" version="1.1">
 <metadata>
  <rdf:RDF xmlns:dc="http://purl.org/dc/elements/1.1/" xmlns:cc="http://creativecommons.org/ns#" xmlns:rdf="http://www.w3.org/1999/02/22-rdf-syntax-ns#">
   <cc:Work>
    <dc:type rdf:resource="http://purl.org/dc/dcmitype/StillImage"/>
    <dc:date>2024-08-19T18:57:17.834463</dc:date>
    <dc:format>image/svg+xml</dc:format>
    <dc:creator>
     <cc:Agent>
      <dc:title>Matplotlib v3.8.4, https://matplotlib.org/</dc:title>
     </cc:Agent>
    </dc:creator>
   </cc:Work>
  </rdf:RDF>
 </metadata>
 <defs>
  <style type="text/css">*{stroke-linejoin: round; stroke-linecap: butt}</style>
 </defs>
 <g id="figure_1">
  <g id="patch_1">
   <path d="M 0 144 
L 843.84 144 
L 843.84 0 
L 0 0 
L 0 144 
z
" style="fill: none"/>
  </g>
  <g id="axes_1">
   <g id="patch_2">
    <path d="M 41.316477 110.305354 
L 834.471983 110.305354 
L 834.471983 12.179941 
L 41.316477 12.179941 
L 41.316477 110.305354 
z
" style="fill: none"/>
   </g>
   <g id="line2d_1">
    <path d="M 63.764274 107.52822 
L 64.512534 107.418684 
L 65.298207 107.073848 
L 66.158706 106.43804 
L 67.094031 105.458208 
L 68.141595 104.030098 
L 69.33881 102.010791 
L 70.723091 99.22652 
L 72.406676 95.305668 
L 74.501804 89.820046 
L 77.756734 80.581409 
L 82.283707 67.81532 
L 84.715552 61.614844 
L 86.773266 56.951908 
L 88.56909 53.407704 
L 90.177849 50.697916 
L 91.636956 48.65184 
L 92.983824 47.132229 
L 94.218452 46.065452 
L 95.340842 45.376025 
L 96.388406 44.979167 
L 97.398557 44.824839 
L 98.071991 44.902679 
L 98.670599 45.224495 
L 99.30662 45.824306 
L 100.05488 46.853532 
L 100.915379 48.440466 
L 101.92553 50.801571 
L 103.122745 54.203124 
L 104.581852 59.056872 
L 106.564741 66.495068 
L 112.625646 89.722122 
L 114.346644 95.173997 
L 115.843164 99.194042 
L 117.152619 102.095032 
L 118.312422 104.156026 
L 119.359985 105.595942 
L 120.332723 106.57306 
L 121.230635 107.169371 
L 122.053721 107.463144 
L 122.876807 107.520919 
L 123.699893 107.350146 
L 124.560392 106.93698 
L 125.495717 106.228817 
L 126.543281 105.135374 
L 127.703083 103.583395 
L 129.012538 101.443999 
L 130.509058 98.562851 
L 132.267469 94.689468 
L 134.512249 89.178133 
L 137.916831 80.14773 
L 143.192064 66.204459 
L 145.77356 60.032629 
L 147.868688 55.57694 
L 149.664512 52.259831 
L 151.235858 49.802225 
L 152.657552 47.9756 
L 153.929593 46.682534 
L 155.126809 45.771727 
L 156.249199 45.19277 
L 157.296763 44.8936 
L 158.306914 44.830853 
L 158.905522 45.009421 
L 159.541543 45.438341 
L 160.25239 46.196749 
L 161.075476 47.422029 
L 162.0108 49.231015 
L 163.13319 51.92381 
L 164.480058 55.78937 
L 166.12623 61.23192 
L 168.595488 70.270434 
L 173.047634 86.566039 
L 174.99311 92.772596 
L 176.639282 97.30231 
L 178.060975 100.59452 
L 179.333017 103.014971 
L 180.49282 104.772292 
L 181.577797 106.022798 
L 182.550535 106.821194 
L 183.448447 107.29108 
L 184.308946 107.50544 
L 185.169445 107.495244 
L 186.067357 107.253211 
L 187.002681 106.760432 
L 188.012832 105.966206 
L 189.135222 104.785225 
L 190.369851 103.152154 
L 191.791545 100.881598 
L 193.400304 97.875225 
L 195.308366 93.812059 
L 197.665385 88.229163 
L 200.957729 79.79443 
L 207.243112 63.609993 
L 209.600131 58.21707 
L 211.545607 54.301425 
L 213.229191 51.391874 
L 214.725711 49.223448 
L 216.109992 47.59163 
L 217.382034 46.420846 
L 218.57925 45.611165 
L 219.70164 45.110106 
L 220.786616 44.861013 
L 221.759354 44.851829 
L 222.395375 45.087487 
L 223.068809 45.581995 
L 223.817069 46.413522 
L 224.677568 47.714522 
L 225.687719 49.67216 
L 226.884935 52.524843 
L 228.306629 56.535522 
L 230.102452 62.323054 
L 232.908427 72.233581 
L 236.68714 85.439535 
L 238.744854 91.823138 
L 240.465852 96.466819 
L 241.999785 99.975615 
L 243.384066 102.588012 
L 244.618695 104.454942 
L 245.741084 105.767028 
L 246.788648 106.660581 
L 247.761386 107.207032 
L 248.696711 107.480296 
L 249.594623 107.515763 
L 250.529948 107.323811 
L 251.989055 106.725207 
L 253.335923 105.933556 
L 254.795029 104.806861 
L 256.366375 103.306624 
L 258.124786 101.305327 
L 260.032849 98.780635 
L 262.090564 95.678264 
L 264.335343 91.879974 
L 266.842014 87.185761 
L 269.90988 80.939334 
L 279.973975 60.054172 
L 282.368407 55.820925 
L 284.426122 52.621241 
L 286.259359 50.171122 
L 287.90553 48.329321 
L 289.40205 46.972449 
L 290.786331 46.001681 
L 292.095786 45.344983 
L 293.330415 44.965226 
L 294.527631 44.822964 
L 295.275891 44.908771 
L 295.949325 45.219792 
L 296.697584 45.817458 
L 297.558083 46.813994 
L 298.530821 48.307864 
L 299.653211 50.468041 
L 300.962666 53.499202 
L 302.534012 57.723705 
L 304.554313 63.827831 
L 308.482678 76.610284 
L 311.62537 86.449851 
L 313.75791 92.415706 
L 315.591147 96.891915 
L 317.199906 100.237887 
L 318.6216 102.69962 
L 319.931055 104.532749 
L 321.128271 105.832702 
L 322.213247 106.694814 
L 323.223398 107.225228 
L 324.196136 107.487526 
L 325.131461 107.510564 
L 326.066786 107.310579 
L 327.039524 106.868637 
L 328.049675 106.161006 
L 329.134652 105.124428 
L 330.331867 103.657294 
L 331.641322 101.679142 
L 333.063016 99.114067 
L 334.671775 95.732188 
L 336.542425 91.247347 
L 338.824617 85.160204 
L 342.678156 74.122934 
L 346.232391 64.200686 
L 348.47717 58.56987 
L 350.34782 54.456415 
L 351.956579 51.428883 
L 353.415686 49.13956 
L 354.725141 47.481855 
L 355.922356 46.309269 
L 357.044746 45.515229 
L 358.09231 45.04387 
L 359.065048 44.83983 
L 359.850721 44.868946 
L 360.449329 45.130471 
L 361.122763 45.686913 
L 361.871023 46.614626 
L 362.731522 48.056977 
L 363.741672 50.2143 
L 364.938888 53.337412 
L 366.397995 57.817076 
L 368.306058 64.464239 
L 375.788657 91.39216 
L 377.472242 96.248835 
L 378.968762 99.910414 
L 380.278216 102.55571 
L 381.475432 104.492194 
L 382.560409 105.838381 
L 383.533147 106.711339 
L 384.431059 107.237367 
L 385.291558 107.491443 
L 386.114644 107.509007 
L 386.93773 107.310512 
L 387.835642 106.853916 
L 388.770966 106.120774 
L 389.81853 105.00054 
L 390.978333 103.411233 
L 392.250375 101.274898 
L 393.709482 98.36263 
L 395.355654 94.553971 
L 397.301129 89.457471 
L 399.770387 82.313083 
L 407.252986 60.19823 
L 409.161049 55.497262 
L 410.769808 52.097076 
L 412.191502 49.586672 
L 413.463544 47.768636 
L 414.623346 46.481627 
L 415.67091 45.632009 
L 416.643648 45.112561 
L 417.578973 44.858567 
L 418.402059 44.852647 
L 418.963254 45.082094 
L 419.599275 45.602187 
L 420.310122 46.494735 
L 421.133208 47.911412 
L 422.105946 50.069128 
L 423.265748 53.2372 
L 424.650029 57.707992 
L 426.520679 64.589537 
L 433.554322 91.332163 
L 435.200494 96.337889 
L 436.622188 99.987443 
L 437.89423 102.670658 
L 439.054033 104.612317 
L 440.101596 105.942652 
L 441.036921 106.788404 
L 441.89742 107.283468 
L 442.720506 107.506453 
L 443.506179 107.495375 
L 444.329265 107.255334 
L 445.189764 106.762528 
L 446.125089 105.957973 
L 447.13524 104.790892 
L 448.295042 103.094245 
L 449.604497 100.760127 
L 451.101017 97.610533 
L 452.859428 93.35454 
L 454.954556 87.673846 
L 457.910182 78.948276 
L 463.447306 62.515118 
L 465.542433 57.054049 
L 467.263431 53.159548 
L 468.759951 50.304441 
L 470.069406 48.262476 
L 471.266622 46.795898 
L 472.351599 45.811299 
L 473.324336 45.213496 
L 474.259661 44.895044 
L 475.12016 44.828348 
L 475.681355 45.003946 
L 476.279963 45.441501 
L 476.953397 46.228689 
L 477.73907 47.517874 
L 478.674395 49.528947 
L 479.759372 52.431712 
L 481.068827 56.608341 
L 482.789824 62.919226 
L 485.633212 74.336506 
L 488.663665 86.2063 
L 490.534314 92.673633 
L 492.10566 97.344988 
L 493.489941 100.785459 
L 494.687157 103.209214 
L 495.772134 104.944836 
L 496.782285 106.160426 
L 497.680197 106.916811 
L 498.540695 107.357796 
L 499.326368 107.522078 
L 500.112041 107.464132 
L 500.935127 107.17201 
L 501.795626 106.622623 
L 502.730951 105.755806 
L 503.778515 104.470338 
L 504.938318 102.688457 
L 506.285186 100.191408 
L 507.819118 96.859817 
L 509.652355 92.317602 
L 511.971961 85.92614 
L 515.675847 74.959864 
L 519.641625 63.431356 
L 521.886405 57.582808 
L 523.682228 53.502429 
L 525.216161 50.54909 
L 526.563029 48.419463 
L 527.760245 46.922402 
L 528.845222 45.904471 
L 529.855373 45.255015 
L 530.790698 44.913796 
L 531.68861 44.824167 
L 532.249804 44.981619 
L 532.848412 45.403253 
L 533.521846 46.17663 
L 534.307519 47.45423 
L 535.205431 49.367769 
L 536.290408 52.247039 
L 537.599863 56.406895 
L 539.246035 62.419702 
L 542.089422 73.828098 
L 545.269527 86.301353 
L 547.140177 92.75296 
L 548.67411 97.305234 
L 550.05839 100.74713 
L 551.293019 103.240931 
L 552.377996 104.965331 
L 553.388147 106.172188 
L 554.286059 106.922584 
L 555.146558 107.359705 
L 555.969644 107.52442 
L 556.755317 107.456232 
L 557.578402 107.155834 
L 558.438901 106.600676 
L 559.411639 105.690704 
L 560.496616 104.343335 
L 561.693832 102.481634 
L 563.078113 99.889027 
L 564.649459 96.451303 
L 566.557521 91.703219 
L 568.989366 84.999463 
L 573.628578 71.381632 
L 576.846095 62.32319 
L 578.978636 56.943887 
L 580.737047 53.076416 
L 582.27098 50.223644 
L 583.617847 48.176126 
L 584.815063 46.746478 
L 585.90004 45.784925 
L 586.910191 45.183799 
L 587.845516 44.883764 
L 588.706015 44.835109 
L 589.26721 45.034108 
L 589.865818 45.497633 
L 590.539252 46.313991 
L 591.324924 47.636275 
L 592.260249 49.683137 
L 593.345226 52.621729 
L 594.654681 56.83 
L 596.413092 63.304008 
L 599.593196 76.067358 
L 602.324345 86.624909 
L 604.232408 93.119135 
L 605.803754 97.691305 
L 607.150622 100.964617 
L 608.38525 103.399955 
L 609.470227 105.078489 
L 610.480378 106.247515 
L 611.37829 106.968214 
L 612.238789 107.381278 
L 613.061875 107.526848 
L 613.847548 107.443913 
L 614.670634 107.131868 
L 615.568546 106.538911 
L 616.541283 105.613349 
L 617.62626 104.255322 
L 618.823476 102.389679 
L 620.207757 99.801123 
L 621.816516 96.291463 
L 623.724579 91.562686 
L 635.434846 61.26456 
L 637.6048 56.514203 
L 639.438037 53.007154 
L 641.046796 50.385112 
L 642.505902 48.416985 
L 643.815357 47.004678 
L 645.049986 45.991196 
L 646.209789 45.324896 
L 647.294766 44.952774 
L 648.34233 44.821848 
L 649.015764 44.922359 
L 649.651785 45.262854 
L 650.362631 45.916336 
L 651.148304 46.956165 
L 652.046216 48.524426 
L 653.09378 50.816132 
L 654.365822 54.178239 
L 655.899755 58.907988 
L 657.920057 65.9051 
L 664.504744 89.277839 
L 666.337981 94.688588 
L 667.909326 98.654646 
L 669.293607 101.574057 
L 670.565649 103.752775 
L 671.725452 105.307884 
L 672.773016 106.356258 
L 673.745754 107.028998 
L 674.681079 107.407084 
L 675.57899 107.528169 
L 676.476902 107.419358 
L 677.412227 107.070627 
L 678.384965 106.464472 
L 679.432529 105.548973 
L 680.592332 104.238843 
L 681.901787 102.415897 
L 683.398307 99.93266 
L 685.119304 96.620836 
L 687.102193 92.30705 
L 689.571451 86.373451 
L 693.125685 77.192305 
L 698.139027 64.305655 
L 700.533458 58.78168 
L 702.478934 54.823746 
L 704.199932 51.806401 
L 705.733865 49.544389 
L 707.155559 47.83099 
L 708.465014 46.590531 
L 709.699642 45.721809 
L 710.859445 45.17207 
L 711.981835 44.88325 
L 713.029399 44.835268 
L 713.66542 45.028595 
L 714.338854 45.472665 
L 715.087114 46.242001 
L 715.947613 47.464666 
L 716.957764 49.323919 
L 718.117566 51.960504 
L 719.501847 55.699712 
L 721.185432 60.913441 
L 723.692103 69.494058 
L 728.518379 86.097108 
L 730.576094 92.294949 
L 732.259679 96.703009 
L 733.793612 100.114389 
L 735.177892 102.657751 
L 736.412521 104.479394 
L 737.534911 105.764652 
L 738.582475 106.645418 
L 739.592626 107.206037 
L 740.527951 107.477113 
L 741.463276 107.51561 
L 742.398601 107.328512 
L 743.371338 106.903216 
L 744.418902 106.193716 
L 745.541292 105.159082 
L 746.813334 103.665102 
L 748.197615 101.681394 
L 749.768961 99.02051 
L 751.527371 95.588229 
L 753.585086 91.056981 
L 756.091757 84.96181 
L 760.244599 74.159982 
L 763.985899 64.676761 
L 766.342918 59.287775 
L 768.325806 55.284473 
L 770.084217 52.218295 
L 771.692976 49.85279 
L 773.152083 48.091773 
L 774.498951 46.800343 
L 775.770993 45.878762 
L 776.968208 45.27523 
L 778.128011 44.931788 
L 779.287814 44.821031 
L 779.923835 44.934487 
L 780.597269 45.283328 
L 781.345529 45.935587 
L 782.206028 47.011286 
L 783.178766 48.615369 
L 784.301156 50.927167 
L 785.61061 54.162053 
L 787.181956 58.656222 
L 789.277084 65.365999 
L 796.610031 89.450711 
L 798.480681 94.547671 
L 800.126853 98.413303 
L 801.585959 101.299239 
L 802.932827 103.486098 
L 804.167456 105.077533 
L 805.289846 106.177801 
L 806.33741 106.908117 
L 807.347561 107.344546 
L 808.320299 107.520881 
L 809.293037 107.463671 
L 810.265774 107.179649 
L 811.275925 106.652889 
L 812.024185 106.115838 
L 812.024185 106.115838 
" clip-path="url(#pd4111bc8ce)" style="fill: none; stroke: #2477d0; stroke-width: 4"/>
   </g>
   <g id="matplotlib.axis_1">
    <g id="xtick_1">
     <g id="line2d_2">
      <defs>
       <path id="m609a0a8ffc" d="M 0 0 
L 0 -5 
" style="stroke: #000000"/>
      </defs>
      <g>
       <use xlink:href="#m609a0a8ffc" x="63.764274" y="110.305354" style="stroke: #000000"/>
      </g>
     </g>
     <g id="text_1">
      <!-- $0.0$ -->
      <g transform="translate(45.844274 135.080979) scale(0.28 -0.28)">
       <defs>
        <path id="Cmr10-30" d="M 1600 -141 
Q 816 -141 533 504 
Q 250 1150 250 2041 
Q 250 2597 351 3087 
Q 453 3578 754 3920 
Q 1056 4263 1600 4263 
Q 2022 4263 2290 4056 
Q 2559 3850 2700 3523 
Q 2841 3197 2892 2823 
Q 2944 2450 2944 2041 
Q 2944 1491 2842 1011 
Q 2741 531 2444 195 
Q 2147 -141 1600 -141 
z
M 1600 25 
Q 1956 25 2131 390 
Q 2306 756 2347 1200 
Q 2388 1644 2388 2144 
Q 2388 2625 2347 3031 
Q 2306 3438 2132 3767 
Q 1959 4097 1600 4097 
Q 1238 4097 1063 3765 
Q 888 3434 847 3029 
Q 806 2625 806 2144 
Q 806 1788 823 1472 
Q 841 1156 916 820 
Q 991 484 1158 254 
Q 1325 25 1600 25 
z
" transform="scale(0.015625)"/>
        <path id="Cmmi10-3a" d="M 538 353 
Q 538 497 644 600 
Q 750 703 891 703 
Q 978 703 1062 656 
Q 1147 609 1194 525 
Q 1241 441 1241 353 
Q 1241 213 1137 106 
Q 1034 0 891 0 
Q 750 0 644 106 
Q 538 213 538 353 
z
" transform="scale(0.015625)"/>
       </defs>
       <use xlink:href="#Cmr10-30" transform="translate(0 0.390625)"/>
       <use xlink:href="#Cmmi10-3a" transform="translate(50 0.390625)"/>
       <use xlink:href="#Cmr10-30" transform="translate(77.685547 0.390625)"/>
      </g>
     </g>
    </g>
    <g id="xtick_2">
     <g id="line2d_3">
      <g>
       <use xlink:href="#m609a0a8ffc" x="250.829252" y="110.305354" style="stroke: #000000"/>
      </g>
     </g>
     <g id="text_2">
      <!-- $2.5$ -->
      <g transform="translate(232.909252 135.080979) scale(0.28 -0.28)">
       <defs>
        <path id="Cmr10-32" d="M 319 0 
L 319 172 
Q 319 188 331 206 
L 1325 1306 
Q 1550 1550 1690 1715 
Q 1831 1881 1968 2097 
Q 2106 2313 2186 2536 
Q 2266 2759 2266 3009 
Q 2266 3272 2169 3511 
Q 2072 3750 1880 3894 
Q 1688 4038 1416 4038 
Q 1138 4038 916 3870 
Q 694 3703 603 3438 
Q 628 3444 672 3444 
Q 816 3444 917 3347 
Q 1019 3250 1019 3097 
Q 1019 2950 917 2848 
Q 816 2747 672 2747 
Q 522 2747 420 2851 
Q 319 2956 319 3097 
Q 319 3338 409 3548 
Q 500 3759 670 3923 
Q 841 4088 1055 4175 
Q 1269 4263 1509 4263 
Q 1875 4263 2190 4108 
Q 2506 3953 2690 3670 
Q 2875 3388 2875 3009 
Q 2875 2731 2753 2481 
Q 2631 2231 2440 2026 
Q 2250 1822 1953 1562 
Q 1656 1303 1563 1216 
L 838 519 
L 1453 519 
Q 1906 519 2211 526 
Q 2516 534 2534 550 
Q 2609 631 2688 1141 
L 2875 1141 
L 2694 0 
L 319 0 
z
" transform="scale(0.015625)"/>
        <path id="Cmr10-35" d="M 556 728 
Q 622 541 758 387 
Q 894 234 1080 148 
Q 1266 63 1466 63 
Q 1928 63 2103 422 
Q 2278 781 2278 1294 
Q 2278 1516 2270 1667 
Q 2263 1819 2228 1959 
Q 2169 2184 2020 2353 
Q 1872 2522 1656 2522 
Q 1441 2522 1286 2456 
Q 1131 2391 1034 2303 
Q 938 2216 863 2119 
Q 788 2022 769 2016 
L 697 2016 
Q 681 2016 657 2036 
Q 634 2056 634 2075 
L 634 4213 
Q 634 4228 654 4245 
Q 675 4263 697 4263 
L 716 4263 
Q 1147 4056 1631 4056 
Q 2106 4056 2547 4263 
L 2566 4263 
Q 2588 4263 2606 4247 
Q 2625 4231 2625 4213 
L 2625 4153 
Q 2625 4122 2613 4122 
Q 2394 3831 2064 3668 
Q 1734 3506 1381 3506 
Q 1125 3506 856 3578 
L 856 2369 
Q 1069 2541 1236 2614 
Q 1403 2688 1663 2688 
Q 2016 2688 2295 2484 
Q 2575 2281 2725 1954 
Q 2875 1628 2875 1288 
Q 2875 903 2686 575 
Q 2497 247 2172 53 
Q 1847 -141 1466 -141 
Q 1150 -141 886 21 
Q 622 184 470 459 
Q 319 734 319 1044 
Q 319 1188 412 1278 
Q 506 1369 647 1369 
Q 788 1369 883 1276 
Q 978 1184 978 1044 
Q 978 906 883 811 
Q 788 716 647 716 
Q 625 716 597 720 
Q 569 725 556 728 
z
" transform="scale(0.015625)"/>
       </defs>
       <use xlink:href="#Cmr10-32" transform="translate(0 0.390625)"/>
       <use xlink:href="#Cmmi10-3a" transform="translate(50 0.390625)"/>
       <use xlink:href="#Cmr10-35" transform="translate(77.685547 0.390625)"/>
      </g>
     </g>
    </g>
    <g id="xtick_3">
     <g id="line2d_4">
      <g>
       <use xlink:href="#m609a0a8ffc" x="437.89423" y="110.305354" style="stroke: #000000"/>
      </g>
     </g>
     <g id="text_3">
      <!-- $5.0$ -->
      <g transform="translate(419.97423 135.080979) scale(0.28 -0.28)">
       <use xlink:href="#Cmr10-35" transform="translate(0 0.390625)"/>
       <use xlink:href="#Cmmi10-3a" transform="translate(50 0.390625)"/>
       <use xlink:href="#Cmr10-30" transform="translate(77.685547 0.390625)"/>
      </g>
     </g>
    </g>
    <g id="xtick_4">
     <g id="line2d_5">
      <g>
       <use xlink:href="#m609a0a8ffc" x="624.959207" y="110.305354" style="stroke: #000000"/>
      </g>
     </g>
     <g id="text_4">
      <!-- $7.5$ -->
      <g transform="translate(607.039207 135.080979) scale(0.28 -0.28)">
       <defs>
        <path id="Cmr10-37" d="M 1113 166 
Q 1113 522 1175 862 
Q 1238 1203 1358 1536 
Q 1478 1869 1648 2189 
Q 1819 2509 2022 2791 
L 2606 3603 
L 1875 3603 
Q 738 3603 703 3572 
Q 619 3469 544 2981 
L 359 2981 
L 569 4325 
L 756 4325 
L 756 4306 
Q 756 4191 1147 4156 
Q 1538 4122 1913 4122 
L 3103 4122 
L 3103 3956 
Q 3103 3950 3101 3947 
Q 3100 3944 3097 3938 
L 2216 2700 
Q 1891 2219 1809 1631 
Q 1728 1044 1728 166 
Q 1728 41 1637 -50 
Q 1547 -141 1422 -141 
Q 1294 -141 1203 -50 
Q 1113 41 1113 166 
z
" transform="scale(0.015625)"/>
       </defs>
       <use xlink:href="#Cmr10-37" transform="translate(0 0.421875)"/>
       <use xlink:href="#Cmmi10-3a" transform="translate(50 0.421875)"/>
       <use xlink:href="#Cmr10-35" transform="translate(77.685547 0.421875)"/>
      </g>
     </g>
    </g>
    <g id="xtick_5">
     <g id="line2d_6">
      <g>
       <use xlink:href="#m609a0a8ffc" x="812.024185" y="110.305354" style="stroke: #000000"/>
      </g>
     </g>
     <g id="text_5">
      <!-- $10.0$ -->
      <g transform="translate(787.104185 135.080979) scale(0.28 -0.28)">
       <defs>
        <path id="Cmr10-31" d="M 594 0 
L 594 225 
Q 1394 225 1394 428 
L 1394 3788 
Q 1063 3628 556 3628 
L 556 3853 
Q 1341 3853 1741 4263 
L 1831 4263 
Q 1853 4263 1873 4245 
Q 1894 4228 1894 4206 
L 1894 428 
Q 1894 225 2694 225 
L 2694 0 
L 594 0 
z
" transform="scale(0.015625)"/>
       </defs>
       <use xlink:href="#Cmr10-31" transform="translate(0 0.390625)"/>
       <use xlink:href="#Cmr10-30" transform="translate(50 0.390625)"/>
       <use xlink:href="#Cmmi10-3a" transform="translate(100 0.390625)"/>
       <use xlink:href="#Cmr10-30" transform="translate(127.685547 0.390625)"/>
      </g>
     </g>
    </g>
   </g>
   <g id="matplotlib.axis_2">
    <g id="ytick_1">
     <g id="line2d_7">
      <defs>
       <path id="m951e5b9bf0" d="M 0 0 
L 5 0 
" style="stroke: #000000"/>
      </defs>
      <g>
       <use xlink:href="#m951e5b9bf0" x="41.316477" y="107.52822" style="stroke: #000000"/>
      </g>
     </g>
     <g id="text_6">
      <!-- $-1$ -->
      <g transform="translate(1.976477 118.166032) scale(0.28 -0.28)">
       <defs>
        <path id="Cmsy10-a1" d="M 653 1472 
Q 600 1472 565 1512 
Q 531 1553 531 1600 
Q 531 1647 565 1687 
Q 600 1728 653 1728 
L 4325 1728 
Q 4375 1728 4408 1687 
Q 4441 1647 4441 1600 
Q 4441 1553 4408 1512 
Q 4375 1472 4325 1472 
L 653 1472 
z
" transform="scale(0.015625)"/>
       </defs>
       <use xlink:href="#Cmsy10-a1" transform="translate(0 0.390625)"/>
       <use xlink:href="#Cmr10-31" transform="translate(77.685547 0.390625)"/>
      </g>
     </g>
    </g>
    <g id="ytick_2">
     <g id="line2d_8">
      <g>
       <use xlink:href="#m951e5b9bf0" x="41.316477" y="76.174583" style="stroke: #000000"/>
      </g>
     </g>
     <g id="text_7">
      <!-- $0$ -->
      <g transform="translate(23.816477 86.812396) scale(0.28 -0.28)">
       <use xlink:href="#Cmr10-30" transform="translate(0 0.390625)"/>
      </g>
     </g>
    </g>
    <g id="ytick_3">
     <g id="line2d_9">
      <g>
       <use xlink:href="#m951e5b9bf0" x="41.316477" y="44.820947" style="stroke: #000000"/>
      </g>
     </g>
     <g id="text_8">
      <!-- $1$ -->
      <g transform="translate(23.816477 55.458759) scale(0.28 -0.28)">
       <use xlink:href="#Cmr10-31" transform="translate(0 0.390625)"/>
      </g>
     </g>
    </g>
    <g id="ytick_4">
     <g id="line2d_10">
      <g>
       <use xlink:href="#m951e5b9bf0" x="41.316477" y="13.46731" style="stroke: #000000"/>
      </g>
     </g>
     <g id="text_9">
      <!-- $2$ -->
      <g transform="translate(23.816477 24.105123) scale(0.28 -0.28)">
       <use xlink:href="#Cmr10-32" transform="translate(0 0.390625)"/>
      </g>
     </g>
    </g>
   </g>
   <g id="line2d_11">
    <path d="M 63.764274 44.820947 
L 64.549947 44.93619 
L 65.33562 45.281074 
L 66.158706 45.8859 
L 67.056618 46.824173 
L 68.066769 48.215964 
L 69.189158 50.15984 
L 70.4612 52.832594 
L 71.920307 56.448204 
L 73.641305 61.346825 
L 75.811259 68.243759 
L 83.742814 94.138562 
L 85.426398 98.532208 
L 86.848092 101.661239 
L 88.120134 103.943537 
L 89.242524 105.514588 
L 90.215262 106.52102 
L 91.113174 107.146814 
L 91.93626 107.459361 
L 92.721933 107.522273 
L 93.507606 107.354741 
L 94.293278 106.957998 
L 95.153777 106.263973 
L 96.089102 105.208953 
L 97.136666 103.668944 
L 98.296469 101.545997 
L 99.605924 98.663018 
L 101.102444 94.810361 
L 102.898267 89.542135 
L 105.255286 81.885101 
L 111.652908 60.725789 
L 113.486145 55.61053 
L 115.020078 51.953524 
L 116.366946 49.298144 
L 117.526749 47.474477 
L 118.574313 46.221515 
L 119.509637 45.433044 
L 120.370136 44.990311 
L 121.155809 44.826152 
L 121.941482 44.892441 
L 122.727155 45.188692 
L 123.550241 45.743303 
L 124.448153 46.628123 
L 125.420891 47.906425 
L 126.505868 49.707112 
L 127.740496 52.205621 
L 129.16219 55.617966 
L 130.808362 60.180383 
L 132.866077 66.588882 
L 136.15842 77.700736 
L 139.637829 89.202613 
L 141.658131 95.125733 
L 143.26689 99.198264 
L 144.65117 102.13974 
L 145.885799 104.2657 
L 146.970776 105.714446 
L 147.943514 106.661917 
L 148.841426 107.231859 
L 149.664512 107.492479 
L 150.450185 107.50557 
L 151.235858 107.288339 
L 152.058944 106.815493 
L 152.919442 106.056935 
L 153.89218 104.882616 
L 154.939744 103.256762 
L 156.13696 100.966917 
L 157.483828 97.887635 
L 159.055174 93.708222 
L 160.963237 87.954356 
L 163.619559 79.154639 
L 168.558075 62.709102 
L 170.540963 56.942156 
L 172.149722 52.911676 
L 173.534003 50.012329 
L 174.731219 47.983575 
L 175.816196 46.559555 
L 176.788934 45.635159 
L 177.649433 45.10395 
L 178.472518 44.85214 
L 179.258191 44.847495 
L 180.043864 45.073142 
L 180.86695 45.554708 
L 181.727449 46.322199 
L 182.700187 47.506294 
L 183.785164 49.207268 
L 184.98238 51.521582 
L 186.329248 54.62553 
L 187.900593 58.829216 
L 189.808656 64.60507 
L 192.502392 73.547707 
L 197.291255 89.497569 
L 199.274144 95.2823 
L 200.882903 99.331533 
L 202.267184 102.249651 
L 203.501812 104.352646 
L 204.586789 105.779895 
L 205.559527 106.707303 
L 206.420026 107.241242 
L 207.243112 107.495695 
L 208.028785 107.502873 
L 208.814458 107.279751 
L 209.637544 106.800801 
L 210.498043 106.035989 
L 211.470781 104.854825 
L 212.518344 103.221953 
L 213.71556 100.924648 
L 215.062428 97.837842 
L 216.633774 93.651018 
L 218.541837 87.890428 
L 221.198159 79.085994 
L 226.136675 62.646867 
L 228.119564 56.887748 
L 229.728322 52.865505 
L 231.112603 49.974392 
L 232.309819 47.953465 
L 233.394796 46.536985 
L 234.367534 45.619622 
L 235.228033 45.094782 
L 236.051119 44.849141 
L 236.836792 44.850408 
L 237.622464 45.081945 
L 238.44555 45.569611 
L 239.306049 46.343351 
L 240.278787 47.534283 
L 241.363764 49.242507 
L 242.56098 51.564243 
L 243.907848 54.675667 
L 245.479193 58.886696 
L 247.387256 64.669182 
L 250.080992 73.616421 
L 254.869855 89.559952 
L 256.852744 95.336921 
L 258.461503 99.377962 
L 259.845784 102.287876 
L 261.080413 104.382814 
L 262.16539 105.802526 
L 263.138127 106.722904 
L 263.998626 107.250474 
L 264.821712 107.498759 
L 265.607385 107.500026 
L 266.393058 107.271013 
L 267.216144 106.785961 
L 268.076643 106.014898 
L 269.049381 104.826896 
L 270.134358 103.121778 
L 271.331573 100.803222 
L 272.678441 97.695 
L 274.249787 93.487116 
L 276.15785 87.707468 
L 278.851586 78.762196 
L 283.640449 62.815942 
L 285.623338 57.035644 
L 287.232097 52.991089 
L 288.616377 50.077658 
L 289.851006 47.979265 
L 290.935983 46.556322 
L 291.908721 45.632931 
L 292.76922 45.102631 
L 293.592306 44.851702 
L 294.377979 44.847902 
L 295.163652 45.074391 
L 295.986737 45.556828 
L 296.847236 46.325212 
L 297.819974 47.510284 
L 298.904951 49.212294 
L 300.102167 51.527669 
L 301.449035 54.632686 
L 303.020381 58.837422 
L 304.928443 64.614226 
L 307.622179 73.557522 
L 312.411043 89.506485 
L 314.393931 95.290109 
L 316.00269 99.338173 
L 317.386971 102.255119 
L 318.6216 104.356964 
L 319.706577 105.783137 
L 320.679315 106.709541 
L 321.539813 107.24257 
L 322.362899 107.496142 
L 323.148572 107.502476 
L 323.934245 107.278512 
L 324.757331 106.79869 
L 325.61783 106.032985 
L 326.590568 104.850844 
L 327.638132 103.21697 
L 328.835348 100.9186 
L 330.182215 97.83072 
L 331.753561 93.64284 
L 333.661624 87.881291 
L 336.317947 79.076186 
L 341.219049 62.753596 
L 343.201938 56.981076 
L 344.810697 52.944725 
L 346.194978 50.039504 
L 347.429606 47.949174 
L 348.514583 46.533773 
L 349.487321 45.617414 
L 350.34782 45.093484 
L 351.170906 44.848725 
L 351.956579 44.850836 
L 352.742252 45.083215 
L 353.565338 45.571752 
L 354.425837 46.346385 
L 355.398574 47.538292 
L 356.483551 49.247551 
L 357.680767 51.570347 
L 359.027635 54.682838 
L 360.598981 58.894914 
L 362.507044 64.678346 
L 365.200779 73.626238 
L 369.95223 89.45297 
L 371.935118 95.243229 
L 373.543877 99.298302 
L 374.928158 102.222269 
L 376.162787 104.331014 
L 377.247764 105.763642 
L 378.220502 106.69607 
L 379.081001 107.234555 
L 379.904087 107.493414 
L 380.689759 107.504815 
L 381.475432 107.285901 
L 382.298518 106.81131 
L 383.159017 106.050965 
L 384.131755 104.87469 
L 385.179319 103.24683 
L 386.376535 100.954852 
L 387.723403 97.873419 
L 389.294748 93.691887 
L 391.202811 87.936097 
L 393.859134 79.135027 
L 398.797649 62.691314 
L 400.780538 56.926601 
L 402.389297 52.898473 
L 403.773578 50.001477 
L 404.970794 47.974958 
L 406.05577 46.553092 
L 407.028508 45.630705 
L 407.889007 45.101315 
L 408.712093 44.851268 
L 409.497766 44.848312 
L 410.283439 45.075642 
L 411.106525 45.558951 
L 411.967024 46.328228 
L 412.939762 47.514277 
L 414.024738 49.217323 
L 415.221954 51.533758 
L 416.568822 54.639845 
L 418.140168 58.84563 
L 420.048231 64.623382 
L 422.741966 73.567338 
L 427.53083 89.515399 
L 429.513719 95.297915 
L 431.122477 99.34481 
L 432.506758 102.260585 
L 433.741387 104.361279 
L 434.826364 105.786376 
L 435.799102 106.711776 
L 436.659601 107.243895 
L 437.482687 107.496586 
L 438.26836 107.502075 
L 439.054033 107.27727 
L 439.877118 106.796576 
L 440.737617 106.029978 
L 441.710355 104.84686 
L 442.757919 103.211984 
L 443.955135 100.91255 
L 445.302003 97.823596 
L 446.873349 93.634659 
L 448.781411 87.872153 
L 451.437734 79.066378 
L 456.338836 62.744694 
L 458.321725 56.973288 
L 459.930484 52.938111 
L 461.314765 50.034064 
L 462.549394 47.944887 
L 463.634371 46.530563 
L 464.607108 45.61521 
L 465.467607 45.09219 
L 466.290693 44.848312 
L 467.076366 44.851268 
L 467.862039 45.084488 
L 468.685125 45.573897 
L 469.545624 46.349421 
L 470.518362 47.542305 
L 471.603339 49.252599 
L 472.800555 51.576454 
L 474.147422 54.690011 
L 475.718768 58.903134 
L 477.626831 64.68751 
L 480.320567 73.636056 
L 485.072017 89.461892 
L 487.054906 95.251047 
L 488.663665 99.304953 
L 490.047945 102.227751 
L 491.282574 104.335346 
L 492.367551 105.766899 
L 493.340289 106.698322 
L 494.200788 107.235899 
L 495.023874 107.493876 
L 495.809547 107.504433 
L 496.59522 107.284677 
L 497.418306 106.809215 
L 498.278804 106.047976 
L 499.251542 104.870723 
L 500.299106 103.24186 
L 501.496322 100.948816 
L 502.84319 97.866308 
L 504.414536 93.683716 
L 506.322599 87.926965 
L 508.978921 79.125221 
L 513.917437 62.682422 
L 515.900325 56.918827 
L 517.509084 52.891875 
L 518.893365 49.996055 
L 520.090581 47.970654 
L 521.175558 46.549865 
L 522.148296 45.628482 
L 523.008795 45.100002 
L 523.83188 44.850836 
L 524.617553 44.848725 
L 525.403226 45.076897 
L 526.226312 45.561077 
L 527.086811 46.331247 
L 528.059549 47.518272 
L 529.144526 49.222354 
L 530.341742 51.53985 
L 531.68861 54.647005 
L 533.259955 58.85384 
L 535.168018 64.63254 
L 537.861754 73.577154 
L 542.650617 89.524313 
L 544.633506 95.30572 
L 546.242265 99.351445 
L 547.626546 102.266048 
L 548.861174 104.365592 
L 549.946151 105.789612 
L 550.918889 106.714007 
L 551.779388 107.245217 
L 552.602474 107.497027 
L 553.388147 107.501672 
L 554.17382 107.276024 
L 554.996906 106.794459 
L 555.857405 106.026968 
L 556.830143 104.842873 
L 557.915119 103.141898 
L 559.112335 100.827585 
L 560.459203 97.723636 
L 562.030549 93.519951 
L 563.938612 87.744097 
L 566.632347 78.80146 
L 571.421211 62.851598 
L 573.4041 57.066867 
L 575.012858 53.017633 
L 576.397139 50.099516 
L 577.631768 47.996521 
L 578.716745 46.569272 
L 579.689483 45.641863 
L 580.549982 45.107925 
L 581.373068 44.853472 
L 582.158741 44.846293 
L 582.944413 45.069416 
L 583.767499 45.548366 
L 584.627998 46.313178 
L 585.600736 47.494341 
L 586.6483 49.127214 
L 587.845516 51.424518 
L 589.192384 54.511325 
L 590.76373 58.698148 
L 592.671792 64.458738 
L 595.328115 73.263173 
L 600.26663 89.702299 
L 602.249519 95.461419 
L 603.858278 99.483662 
L 605.242559 102.374774 
L 606.439775 104.395702 
L 607.524752 105.812181 
L 608.497489 106.729545 
L 609.357988 107.254385 
L 610.181074 107.500026 
L 610.966747 107.498759 
L 611.75242 107.267222 
L 612.575506 106.779555 
L 613.436005 106.005816 
L 614.408743 104.814884 
L 615.49372 103.10666 
L 616.690935 100.784924 
L 618.037803 97.6735 
L 619.609149 93.462471 
L 621.517212 87.679984 
L 624.210948 78.732746 
L 628.999811 62.789214 
L 630.9827 57.012246 
L 632.591459 52.971205 
L 633.975739 50.061291 
L 635.210368 47.966352 
L 636.295345 46.54664 
L 637.268083 45.626263 
L 638.128582 45.098692 
L 638.951668 44.850408 
L 639.737341 44.849141 
L 640.523014 45.078154 
L 641.3461 45.563206 
L 642.206598 46.334268 
L 643.179336 47.522271 
L 644.264313 49.227388 
L 645.461529 51.545945 
L 646.808397 54.654167 
L 648.379743 58.862051 
L 650.287805 64.641699 
L 652.981541 73.586971 
L 657.770405 89.533224 
L 659.753293 95.313523 
L 661.362052 99.358078 
L 662.746333 102.271509 
L 663.980962 104.369902 
L 665.065939 105.792845 
L 666.038677 106.716236 
L 666.899175 107.246536 
L 667.722261 107.497464 
L 668.507934 107.501265 
L 669.293607 107.274776 
L 670.116693 106.792339 
L 670.977192 106.023955 
L 671.94993 104.838883 
L 673.034907 103.136872 
L 674.232123 100.821498 
L 675.57899 97.71648 
L 677.150336 93.511745 
L 679.058399 87.734941 
L 681.752135 78.791644 
L 686.540998 62.842682 
L 688.523887 57.059058 
L 690.132646 53.010994 
L 691.516927 50.094048 
L 692.751555 47.992203 
L 693.836532 46.56603 
L 694.80927 45.639626 
L 695.669769 45.106597 
L 696.492855 44.853025 
L 697.278528 44.846691 
L 698.064201 45.070655 
L 698.887287 45.550477 
L 699.747786 46.316182 
L 700.720523 47.498323 
L 701.768087 49.132197 
L 702.965303 51.430567 
L 704.312171 54.518447 
L 705.883517 58.706327 
L 707.79158 64.467875 
L 710.447902 73.272981 
L 715.349005 89.595571 
L 717.331893 95.368091 
L 718.940652 99.404442 
L 720.324933 102.309663 
L 721.559562 104.399992 
L 722.644539 105.815394 
L 723.617277 106.731752 
L 724.477776 107.255683 
L 725.300862 107.500442 
L 726.086534 107.498331 
L 726.872207 107.265952 
L 727.695293 106.777414 
L 728.555792 106.002782 
L 729.52853 104.810874 
L 730.613507 103.101616 
L 731.810723 100.77882 
L 733.157591 97.666329 
L 734.728936 93.454253 
L 736.636999 87.670821 
L 739.330735 78.722928 
L 744.082185 62.896197 
L 746.065074 57.105938 
L 747.673833 53.050865 
L 749.058114 50.126897 
L 750.292743 48.018153 
L 751.377719 46.585524 
L 752.350457 45.653097 
L 753.210956 45.114611 
L 754.034042 44.855753 
L 754.819715 44.844352 
L 755.605388 45.063266 
L 756.428474 45.537856 
L 757.288973 46.298202 
L 758.261711 47.474477 
L 759.309275 49.102337 
L 760.50649 51.394314 
L 761.853358 54.475748 
L 763.424704 58.65728 
L 765.332767 64.41307 
L 767.989089 73.214139 
L 772.927605 89.657853 
L 774.910494 95.422565 
L 776.519252 99.450694 
L 777.903533 102.34769 
L 779.100749 104.374209 
L 780.185726 105.796075 
L 781.158464 106.718462 
L 782.018963 107.247852 
L 782.842049 107.497899 
L 783.627722 107.500855 
L 784.413395 107.273525 
L 785.23648 106.790216 
L 786.096979 106.020939 
L 787.069717 104.83489 
L 788.154694 103.131844 
L 789.35191 100.815408 
L 790.698778 97.709322 
L 792.270124 93.503537 
L 794.178186 87.725785 
L 796.871922 78.781829 
L 801.660785 62.833767 
L 803.643674 57.051251 
L 805.252433 53.004357 
L 806.636714 50.088582 
L 807.871343 47.987887 
L 808.95632 46.562791 
L 809.929057 45.637391 
L 810.789556 45.105272 
L 811.612642 44.852581 
L 812.024185 44.820947 
L 812.024185 44.820947 
" clip-path="url(#pd4111bc8ce)" style="fill: none; stroke: #ffa231; stroke-width: 4"/>
   </g>
   <g id="patch_3">
    <path d="M 41.316477 110.305354 
L 41.316477 12.179941 
" style="fill: none; stroke: #000000; stroke-width: 2; stroke-linejoin: miter; stroke-linecap: square"/>
   </g>
   <g id="patch_4">
    <path d="M 41.316477 110.305354 
L 834.471983 110.305354 
" style="fill: none; stroke: #000000; stroke-width: 2; stroke-linejoin: miter; stroke-linecap: square"/>
   </g>
   <g id="line2d_12">
    <path d="M 63.764274 29.144128 
L 69.563288 32.659789 
L 75.287477 35.87231 
L 81.310969 38.99699 
L 87.633765 42.01668 
L 94.0688 44.838211 
L 97.585622 46.280453 
L 97.623035 14.957075 
L 97.697861 15.018404 
L 102.823441 19.077218 
L 108.248326 23.079933 
L 113.560971 26.727799 
L 119.098094 30.263229 
L 124.710044 33.588635 
L 130.471645 36.752338 
L 136.644789 39.881584 
L 142.817934 42.762541 
L 149.402621 45.583867 
L 156.024721 48.180987 
L 158.119849 48.955921 
L 158.157262 17.627342 
L 158.232088 17.685982 
L 163.432494 21.622408 
L 168.782553 25.39587 
L 174.170024 28.932012 
L 179.931625 32.441518 
L 185.693227 35.690486 
L 191.641893 38.791798 
L 197.740211 41.724711 
L 204.250072 44.601997 
L 210.797347 47.253599 
L 217.718751 49.814846 
L 221.422637 51.091006 
L 221.46005 19.760901 
L 221.534876 19.817403 
L 226.772696 23.636723 
L 232.160167 27.295411 
L 237.69729 30.790253 
L 243.30924 34.077487 
L 249.108254 37.224386 
L 255.356224 40.352169 
L 261.604195 43.228709 
L 268.001817 45.935023 
L 274.66133 48.516204 
L 281.620147 50.978382 
L 289.065333 53.370411 
L 294.677283 55.022148 
L 294.714696 23.690307 
L 294.789522 23.742874 
L 300.176993 27.394171 
L 305.714116 30.881952 
L 311.363479 34.183623 
L 317.162493 37.322523 
L 323.298224 40.38865 
L 329.471369 43.229322 
L 336.130882 46.041511 
L 342.902634 48.655038 
L 350.048516 51.167537 
L 357.568528 53.56426 
L 359.439178 54.123897 
L 359.476591 22.786032 
L 359.551417 22.839482 
L 364.938888 26.553683 
L 370.438599 30.078432 
L 376.050548 33.417224 
L 381.812149 36.593706 
L 387.835642 39.662468 
L 394.121025 42.611262 
L 400.518647 45.36829 
L 407.215573 48.011982 
L 414.099564 50.493229 
L 418.102755 51.834379 
L 418.140168 20.507853 
L 418.214994 20.563621 
L 423.490226 24.358371 
L 428.877698 27.966793 
L 434.52706 31.480929 
L 440.4009 34.863328 
L 446.274741 37.9897 
L 452.335646 40.967915 
L 458.583616 43.795028 
L 465.13089 46.5144 
L 471.902643 49.086922 
L 474.970508 50.177701 
L 475.007921 18.848899 
L 475.082747 18.906317 
L 480.320567 22.787381 
L 485.670625 26.480289 
L 491.132922 29.987109 
L 496.819698 33.375462 
L 502.581299 36.555041 
L 508.642204 39.645081 
L 515.039826 42.645716 
L 521.549688 45.446163 
L 528.171788 48.054979 
L 531.576371 49.308834 
L 531.613784 17.97589 
L 531.68861 18.034166 
L 536.889016 21.947164 
L 542.276487 25.723477 
L 547.701372 29.260233 
L 553.462973 32.745458 
L 559.187161 35.951666 
L 565.173241 39.051601 
L 571.383798 42.015447 
L 577.706594 44.789949 
L 584.291281 47.440173 
L 588.481537 49.008848 
L 588.51895 17.671468 
L 588.593776 17.730029 
L 593.794182 21.663504 
L 599.181654 25.459556 
L 604.606538 29.014836 
L 610.368139 32.518271 
L 616.092328 35.741256 
L 622.040994 38.838682 
L 628.139312 41.7679 
L 634.686586 44.657407 
L 641.233861 47.304327 
L 648.267504 49.90069 
L 648.417156 49.953269 
L 648.454569 18.62004 
L 648.529395 18.677671 
L 653.767214 22.57423 
L 659.117272 26.281876 
L 664.57957 29.802708 
L 670.266345 33.20458 
L 676.027946 36.396858 
L 682.051439 39.480879 
L 688.374235 42.461257 
L 694.80927 45.246084 
L 701.655848 47.956859 
L 708.577253 50.455945 
L 712.767508 51.860006 
L 712.804921 20.518686 
L 712.879747 20.574387 
L 718.192392 24.394373 
L 723.579864 28.000286 
L 729.229226 31.511979 
L 735.140479 34.912738 
L 741.051733 38.054505 
L 747.075225 41.010029 
L 753.323195 43.833744 
L 759.795643 46.520134 
L 766.529983 49.078575 
L 773.526213 51.502964 
L 779.250401 53.324397 
L 779.287814 21.989649 
L 779.36264 22.043906 
L 784.712698 25.788236 
L 790.137583 29.320451 
L 795.899184 32.801204 
L 801.623372 36.003296 
L 807.609452 39.099252 
L 812.024185 41.22844 
L 812.024185 41.22844 
" clip-path="url(#pd4111bc8ce)" style="fill: none; stroke: #4eba88; stroke-width: 4"/>
   </g>
  </g>
 </g>
 <defs>
  <clipPath id="pd4111bc8ce">
   <rect x="41.316477" y="12.179941" width="793.155506" height="98.125414"/>
  </clipPath>
 </defs>
</svg>
