<?xml version="1.0" encoding="utf-8" standalone="no"?>
<!DOCTYPE svg PUBLIC "-//W3C//DTD SVG 1.1//EN"
  "http://www.w3.org/Graphics/SVG/1.1/DTD/svg11.dtd">
<svg xmlns:xlink="http://www.w3.org/1999/xlink" width="504pt" height="146.88pt" viewBox="0 0 504 146.88" xmlns="http://www.w3.org/2000/svg" version="1.1">
 <metadata>
  <rdf:RDF xmlns:dc="http://purl.org/dc/elements/1.1/" xmlns:cc="http://creativecommons.org/ns#" xmlns:rdf="http://www.w3.org/1999/02/22-rdf-syntax-ns#">
   <cc:Work>
    <dc:type rdf:resource="http://purl.org/dc/dcmitype/StillImage"/>
    <dc:date>2024-08-20T12:26:45.685513</dc:date>
    <dc:format>image/svg+xml</dc:format>
    <dc:creator>
     <cc:Agent>
      <dc:title>Matplotlib v3.8.4, https://matplotlib.org/</dc:title>
     </cc:Agent>
    </dc:creator>
   </cc:Work>
  </rdf:RDF>
 </metadata>
 <defs>
  <style type="text/css">*{stroke-linejoin: round; stroke-linecap: butt}</style>
 </defs>
 <g id="figure_1">
  <g id="patch_1">
   <path d="M 0 146.88 
L 504 146.88 
L 504 0 
L 0 0 
L 0 146.88 
z
" style="fill: none"/>
  </g>
  <g id="axes_1">
   <g id="patch_2">
    <path d="M 2.834646 144.045354 
L 501.165354 144.045354 
L 501.165354 2.834646 
L 2.834646 2.834646 
L 2.834646 144.045354 
z
" style="fill: none"/>
   </g>
   <g id="line2d_1">
    <path d="M 16.938345 52.615167 
L 17.925703 56.103005 
L 18.91306 60.463176 
L 19.900418 65.887649 
L 21.028827 73.431559 
L 22.439338 84.564118 
L 26.52982 118.092561 
L 27.658228 124.972099 
L 28.645586 129.63667 
L 29.491893 132.651309 
L 30.338199 134.860801 
L 31.184506 136.409877 
L 32.030812 137.459689 
L 32.877119 138.163947 
L 34.005528 138.789854 
L 36.121294 139.638366 
L 37.531805 140.024709 
L 38.237061 140.023091 
L 38.801265 139.847593 
L 39.36547 139.461323 
L 39.929674 138.814302 
L 40.493878 137.863397 
L 41.199134 136.199656 
L 41.904389 133.980042 
L 42.750696 130.598427 
L 43.879105 125.045849 
L 45.85382 113.823296 
L 47.405382 105.496884 
L 48.533791 100.619364 
L 49.380098 97.816818 
L 50.226404 95.728985 
L 51.072711 94.208676 
L 53.752682 89.982284 
L 54.457937 88.18753 
L 55.304244 85.339199 
L 56.15055 81.680195 
L 57.137908 76.45123 
L 58.548419 67.656547 
L 61.651543 47.861201 
L 62.779952 42.194948 
L 63.76731 38.303431 
L 64.613616 35.769749 
L 65.459923 33.91432 
L 66.306229 32.636043 
L 67.152536 31.811278 
L 67.998842 31.306839 
L 69.409353 30.800908 
L 70.678813 30.260329 
L 71.666171 29.576885 
L 72.935631 28.374695 
L 74.487193 26.952773 
L 75.192448 26.591764 
L 75.756653 26.543136 
L 76.038755 26.785727 
L 76.461908 27.651452 
L 76.885062 29.114297 
L 77.449266 31.966242 
L 78.154522 36.886673 
L 79.000828 44.527142 
L 80.129237 56.938972 
L 84.501821 107.849417 
L 85.63023 117.322526 
L 86.617587 123.825212 
L 87.604945 128.811953 
L 88.451252 132.072065 
L 89.297558 134.590747 
L 90.284916 136.814143 
L 91.272274 138.442814 
L 92.11858 139.418964 
L 92.823836 139.90975 
L 93.38804 140.04863 
L 93.952245 139.913713 
L 94.375398 139.600753 
L 94.939602 138.855491 
L 95.503807 137.683474 
L 96.068011 136.032392 
L 96.773267 133.231113 
L 97.619573 128.724952 
L 98.46588 122.968567 
L 99.594288 113.530418 
L 101.004799 99.647879 
L 104.390026 65.567965 
L 105.659486 55.491996 
L 106.646843 49.23201 
L 107.634201 44.329402 
L 108.621559 40.607976 
L 109.608916 37.807909 
L 110.737325 35.349474 
L 112.57099 32.048115 
L 114.968858 28.064169 
L 115.815165 27.048991 
L 116.379369 26.641401 
L 116.802522 26.522958 
L 117.084625 26.615946 
L 117.366727 27.01798 
L 117.78988 28.215553 
L 118.213033 30.12493 
L 118.777238 33.753287 
L 119.482493 39.930217 
L 120.3288 49.462508 
L 121.457209 64.893786 
L 125.124537 117.691514 
L 126.111895 127.831512 
L 126.958202 134.141634 
L 127.663457 137.635373 
L 128.227661 139.297167 
L 128.650815 139.916046 
L 128.932917 140.047519 
L 129.215019 139.96716 
L 129.638172 139.477098 
L 130.061326 138.585191 
L 130.62553 136.854829 
L 131.471837 133.340449 
L 132.600245 127.518647 
L 134.857063 114.342515 
L 137.254932 99.344154 
L 138.806494 88.218673 
L 140.358056 75.396127 
L 144.73064 37.636562 
L 145.576946 32.542983 
L 146.282202 29.406522 
L 146.846406 27.702049 
L 147.26956 26.913604 
L 147.692713 26.549095 
L 147.974815 26.566044 
L 148.256917 26.989379 
L 148.53902 27.851063 
L 148.962173 29.937669 
L 149.526377 34.10994 
L 150.231633 41.300168 
L 151.21899 54.246245 
L 152.911604 80.464477 
L 154.604217 105.770958 
L 155.732626 119.493196 
L 156.578932 127.506594 
L 157.425239 133.447059 
L 158.130494 136.859513 
L 158.694699 138.653889 
L 159.258903 139.691239 
L 159.682056 140.018033 
L 160.10521 139.994007 
L 160.528363 139.650053 
L 160.951516 139.014631 
L 161.515721 137.755868 
L 162.220976 135.583761 
L 163.067283 132.171249 
L 164.05464 127.116292 
L 165.041998 120.867892 
L 166.170407 112.173518 
L 167.439867 100.373695 
L 168.991429 83.468031 
L 172.376655 45.263433 
L 173.364013 36.734645 
L 174.210319 31.284836 
L 174.915575 28.267321 
L 175.338728 27.164293 
L 175.761881 26.601257 
L 176.043984 26.528228 
L 176.326086 26.844278 
L 176.608188 27.623219 
L 177.031341 29.639557 
L 177.595546 33.832384 
L 178.300801 41.248117 
L 179.147108 52.739965 
L 180.557619 75.678882 
L 182.673385 109.846111 
L 183.660743 122.44955 
L 184.50705 130.661574 
L 185.212305 135.521038 
L 185.776509 138.110495 
L 186.199663 139.323639 
L 186.622816 139.944632 
L 186.904918 140.048316 
L 187.18702 139.918191 
L 187.610174 139.313551 
L 188.033327 138.259626 
L 188.597531 136.236593 
L 189.302787 132.866225 
L 190.290145 126.909897 
L 191.559604 117.696094 
L 193.111167 104.674977 
L 194.80378 88.59659 
L 197.483751 60.504436 
L 199.176364 43.794908 
L 200.163721 35.848304 
L 201.010028 30.718099 
L 201.574232 28.354153 
L 202.138437 26.936706 
L 202.56159 26.532235 
L 202.843692 26.632935 
L 203.125794 27.17699 
L 203.548948 28.835821 
L 203.972101 31.486347 
L 204.536305 36.490982 
L 205.241561 44.892371 
L 206.228919 59.88361 
L 207.921532 90.100096 
L 209.332043 113.979854 
L 210.319401 127.140335 
L 211.024656 133.938895 
L 211.58886 137.602168 
L 212.012014 139.269476 
L 212.294116 139.863647 
L 212.576218 140.048438 
L 212.85832 139.831517 
L 213.140422 139.22418 
L 213.563576 137.612755 
L 214.12778 134.253892 
L 214.833036 128.360597 
L 215.820393 117.670291 
L 217.371955 97.71957 
L 219.628773 69.087631 
L 220.898233 55.758334 
L 222.026642 46.120832 
L 223.013999 39.367252 
L 224.001357 34.0702 
L 224.847664 30.62484 
L 225.552919 28.518857 
L 226.117123 27.353735 
L 226.681328 26.680386 
L 227.104481 26.520933 
L 227.386583 26.648937 
L 227.668686 27.046577 
L 228.091839 28.157993 
L 228.514992 29.896065 
L 229.079197 33.196253 
L 229.784452 38.886084 
L 230.630759 47.900693 
L 231.618116 61.059293 
L 233.028627 83.235823 
L 235.144394 116.688858 
L 236.131751 128.846552 
L 236.837007 135.09898 
L 237.401211 138.352824 
L 237.824365 139.687214 
L 238.106467 140.031481 
L 238.388569 139.934187 
L 238.670671 139.395282 
L 239.093825 137.768706 
L 239.516978 135.188494 
L 240.081182 130.352777 
L 240.786438 122.308017 
L 241.773795 108.107187 
L 243.60746 77.371779 
L 245.159022 53.111902 
L 246.146379 40.979923 
L 246.992686 33.379715 
L 247.697942 29.195476 
L 248.262146 27.260461 
L 248.685299 26.604542 
L 248.967401 26.532032 
L 249.249504 26.839446 
L 249.531606 27.555127 
L 249.954759 29.351332 
L 250.518963 32.974425 
L 251.224219 39.187046 
L 252.211577 50.25077 
L 253.90419 72.562909 
L 256.161007 101.894393 
L 257.430467 115.830387 
L 258.558876 125.966077 
L 259.546234 132.814095 
L 260.251489 136.414151 
L 260.815694 138.447985 
L 261.379898 139.675194 
L 261.803051 140.036099 
L 262.085154 139.999037 
L 262.367256 139.733372 
L 262.790409 138.895359 
L 263.213562 137.518057 
L 263.777767 134.826379 
L 264.483022 130.081227 
L 265.329329 122.416522 
L 266.316686 111.005094 
L 267.586146 93.322273 
L 270.830322 46.165451 
L 271.676628 37.07038 
L 272.381884 31.451892 
L 272.946088 28.427865 
L 273.369241 27.076171 
L 273.651344 26.623313 
L 273.933446 26.537186 
L 274.215548 26.932776 
L 274.49765 27.849873 
L 274.920803 30.1726 
L 275.485008 34.931421 
L 276.190263 43.245604 
L 277.177621 58.328433 
L 279.011285 91.348945 
L 280.421796 114.97985 
L 281.409154 127.817122 
L 282.114409 134.379953 
L 282.678614 137.867986 
L 283.101767 139.41293 
L 283.383869 139.929237 
L 283.665972 140.038078 
L 283.948074 139.746189 
L 284.230176 139.063779 
L 284.653329 137.337062 
L 285.217534 133.814173 
L 285.922789 127.689859 
L 286.910147 116.615527 
L 288.461709 95.932371 
L 290.718526 66.148176 
L 291.987986 52.29559 
L 293.116395 42.403876 
L 294.103753 35.693125 
L 294.950059 31.379165 
L 295.655315 28.801785 
L 296.219519 27.41998 
L 296.642673 26.792935 
L 297.065826 26.528982 
L 297.347928 26.589881 
L 297.63003 26.935126 
L 298.053184 27.997677 
L 298.476337 29.711388 
L 299.040541 32.994663 
L 299.745797 38.649877 
L 300.592103 47.547327 
L 301.579461 60.416431 
L 303.131023 84.215782 
L 305.24679 116.717888 
L 306.234147 128.649738 
L 306.939403 134.88608 
L 307.503607 138.201363 
L 307.92676 139.610575 
L 308.208863 140.011549 
L 308.490965 139.971591 
L 308.773067 139.486512 
L 309.19622 137.925012 
L 309.619374 135.379742 
L 310.183578 130.525059 
L 310.888833 122.326979 
L 311.876191 107.654949 
L 313.568804 78.020852 
L 315.120366 52.319835 
L 316.107724 39.572474 
L 316.81298 32.932511 
L 317.377184 29.277397 
L 317.800337 27.535612 
L 318.223491 26.649724 
L 318.505593 26.527974 
L 318.787695 26.87894 
L 319.069797 27.745879 
L 319.49295 29.966801 
L 320.057155 34.502044 
L 320.76241 42.332156 
L 321.749768 56.271749 
L 325.84025 118.095396 
L 326.827608 128.017341 
L 327.673914 134.146861 
L 328.37917 137.571722 
L 328.943374 139.240593 
L 329.366527 139.889561 
L 329.64863 140.044067 
L 329.930732 139.981913 
L 330.212834 139.708041 
L 330.635987 138.910909 
L 331.200192 137.151632 
L 331.764396 134.628989 
L 332.469651 130.453338 
L 333.315958 124.027972 
L 334.303316 114.735825 
L 335.572776 100.342619 
L 337.40644 76.351517 
L 339.522206 48.980127 
L 340.509564 38.607418 
L 341.355871 31.911561 
L 341.920075 28.839533 
L 342.343228 27.35222 
L 342.766382 26.607095 
L 343.048484 26.542703 
L 343.330586 26.946409 
L 343.612688 27.854828 
L 344.035842 30.14103 
L 344.600046 34.827599 
L 345.305301 43.055582 
L 346.151608 55.759278 
L 347.562119 81.031858 
L 349.395783 113.532782 
L 350.383141 127.166221 
L 351.088396 134.187727 
L 351.652601 137.899266 
L 352.075754 139.495863 
L 352.357856 139.980805 
L 352.639959 139.999686 
L 352.922061 139.554858 
L 353.204163 138.652703 
L 353.627316 136.465297 
L 354.191521 132.075425 
L 354.896776 124.468111 
L 355.743083 112.824994 
L 357.153594 89.798724 
L 359.128309 57.810942 
L 360.115667 44.949116 
L 360.961973 36.489554 
L 361.667229 31.427296 
L 362.231433 28.689442 
L 362.795638 27.077685 
L 363.218791 26.566958 
L 363.500893 26.549215 
L 363.782995 26.882413 
L 364.206149 28.052481 
L 364.629302 29.965703 
L 365.193506 33.544691 
L 366.039813 40.743279 
L 367.168222 52.810154 
L 369.001886 75.462035 
L 371.822908 110.006086 
L 373.092368 123.094905 
L 374.079725 131.290244 
L 374.784981 135.720124 
L 375.349185 138.23142 
L 375.772339 139.435657 
L 376.195492 140.006339 
L 376.477594 140.014804 
L 376.759696 139.713636 
L 377.041798 139.094257 
L 377.464952 137.555824 
L 378.029156 134.351462 
L 378.593361 129.840556 
L 379.298616 122.45411 
L 380.285974 109.266581 
L 381.696485 86.530562 
L 383.953302 50.013925 
L 384.94066 37.8613 
L 385.645915 31.639477 
L 386.21012 28.37255 
L 386.633273 26.982454 
L 386.915375 26.571332 
L 387.056426 26.520915 
L 387.197478 26.596777 
L 387.47958 27.189075 
L 387.761682 28.356107 
L 388.184835 31.139161 
L 388.74904 36.630838 
L 389.454295 45.958196 
L 390.441653 62.397174 
L 393.685828 119.743006 
L 394.532135 129.965325 
L 395.23739 135.873882 
L 395.801595 138.7636 
L 396.224748 139.842549 
L 396.50685 140.048808 
L 396.788952 139.85299 
L 397.071054 139.265698 
L 397.494208 137.679788 
L 398.058412 134.337917 
L 398.763668 128.415618 
L 399.609974 119.237311 
L 400.879434 102.700764 
L 403.982558 61.115804 
L 405.110967 49.005348 
L 406.098325 40.439628 
L 406.944631 34.692822 
L 407.790938 30.445258 
L 408.496193 28.067071 
L 409.060398 26.940625 
L 409.483551 26.559825 
L 409.765653 26.539622 
L 410.047755 26.802373 
L 410.329858 27.373722 
L 410.753011 28.803204 
L 411.317215 31.755137 
L 412.022471 37.055057 
L 412.868777 45.58735 
L 413.856135 58.092486 
L 415.266646 79.237914 
L 417.805566 117.831453 
L 418.792924 129.325251 
L 419.498179 135.271833 
L 420.062383 138.39463 
L 420.485537 139.689651 
L 420.767639 140.029999 
L 421.049741 139.94178 
L 421.331843 139.42004 
L 421.754997 137.822992 
L 422.17815 135.260133 
L 422.742354 130.39803 
L 423.44761 122.191274 
L 424.434967 107.453809 
L 425.98653 80.035762 
L 427.679143 51.400254 
L 428.6665 38.574861 
L 429.371756 32.041404 
L 429.93596 28.597799 
L 430.359114 27.097327 
L 430.641216 26.614712 
L 430.923318 26.551191 
L 431.20542 27.029721 
L 431.487522 28.07582 
L 431.910676 30.656631 
L 432.47488 35.827263 
L 433.180136 44.649644 
L 434.167493 60.183598 
L 437.55272 116.661893 
L 438.399026 126.638038 
L 439.104282 132.876851 
L 439.809537 137.152646 
L 440.373742 139.177903 
L 440.796895 139.914361 
L 441.078997 140.048797 
L 441.361099 139.910007 
L 441.643201 139.509101 
L 442.066355 138.441959 
L 442.630559 136.213643 
L 443.335815 132.271142 
L 444.182121 126.086684 
L 445.31053 115.852912 
L 446.721041 100.712104 
L 448.977859 73.590803 
L 451.093625 48.967572 
L 452.222034 38.205274 
L 453.06834 32.053835 
L 453.773596 28.54159 
L 454.196749 27.239753 
L 454.619902 26.59106 
L 454.902005 26.545685 
L 455.184107 26.932819 
L 455.466209 27.786496 
L 455.889362 29.926086 
L 456.453567 34.31744 
L 457.158822 42.068615 
L 458.005129 54.147352 
L 459.274589 76.016429 
L 461.531406 115.422009 
L 462.518764 128.487911 
L 463.224019 135.079857 
L 463.788224 138.433438 
L 464.211377 139.751608 
L 464.493479 140.045251 
L 464.63453 140.015338 
L 464.916633 139.602525 
L 465.198735 138.722615 
L 465.621888 136.544907 
L 466.186093 132.111275 
L 466.891348 124.336641 
L 467.737655 112.305421 
L 469.148166 88.225617 
L 471.122881 54.650069 
L 472.110239 41.484706 
L 472.815494 34.432579 
L 473.52075 29.585827 
L 474.084954 27.342993 
L 474.508107 26.600356 
L 474.790209 26.546249 
L 475.072312 26.956108 
L 475.354414 27.851469 
L 475.777567 30.051193 
L 476.341772 34.433489 
L 477.047027 41.868597 
L 478.034385 54.921805 
L 482.265918 114.617166 
L 483.253275 124.445734 
L 484.099582 131.00911 
L 484.804837 135.134332 
L 485.510093 138.024203 
L 486.074297 139.435193 
L 486.497451 139.958607 
L 486.779553 140.048276 
L 487.061655 139.92713 
L 487.061655 139.92713 
" clip-path="url(#pbb0856e52d)" style="fill: none; stroke: #2477d0; stroke-width: 4"/>
   </g>
   <g id="matplotlib.axis_1"/>
   <g id="matplotlib.axis_2"/>
   <g id="line2d_2">
    <path d="M 16.938345 26.520905 
L 17.079396 26.632916 
L 17.361498 27.526351 
L 17.6436 29.299131 
L 18.066754 33.542228 
L 18.630958 41.905719 
L 19.336214 55.938619 
L 20.605674 86.849103 
L 21.875133 116.649883 
L 22.580389 129.207873 
L 23.144593 136.06266 
L 23.567747 139.043379 
L 23.849849 139.936814 
L 23.9909 140.048825 
L 24.131951 139.936814 
L 24.414053 139.043379 
L 24.696155 137.270599 
L 25.119309 133.027502 
L 25.683513 124.664011 
L 26.388769 110.631111 
L 27.658228 79.720626 
L 28.927688 49.919846 
L 29.632944 37.361857 
L 30.197148 30.50707 
L 30.620301 27.526351 
L 30.902404 26.632916 
L 31.043455 26.520905 
L 31.184506 26.632916 
L 31.466608 27.526351 
L 31.74871 29.299131 
L 32.171864 33.542228 
L 32.736068 41.905719 
L 33.441323 55.938619 
L 34.710783 86.849103 
L 35.980243 116.649883 
L 36.685499 129.207873 
L 37.249703 136.06266 
L 37.672856 139.043379 
L 37.954959 139.936814 
L 38.09601 140.048825 
L 38.237061 139.936814 
L 38.519163 139.043379 
L 38.801265 137.270599 
L 39.224418 133.027502 
L 39.788623 124.664011 
L 40.493878 110.631111 
L 41.763338 79.720626 
L 43.032798 49.919846 
L 43.738054 37.361857 
L 44.302258 30.50707 
L 44.725411 27.526351 
L 45.007513 26.632916 
L 45.148565 26.520905 
L 45.289616 26.632916 
L 45.571718 27.526351 
L 45.85382 29.299131 
L 46.276973 33.542228 
L 46.841178 41.905719 
L 47.546433 55.938619 
L 48.815893 86.849103 
L 50.085353 116.649883 
L 50.790609 129.207873 
L 51.354813 136.06266 
L 51.777966 139.043379 
L 52.060068 139.936814 
L 52.20112 140.048825 
L 52.342171 139.936814 
L 52.624273 139.043379 
L 52.906375 137.270599 
L 53.329528 133.027502 
L 53.893733 124.664011 
L 54.598988 110.631111 
L 55.868448 79.720626 
L 57.137908 49.919846 
L 57.843163 37.361857 
L 58.407368 30.50707 
L 58.830521 27.526351 
L 59.112623 26.632916 
L 59.253674 26.520905 
L 59.394726 26.632916 
L 59.676828 27.526351 
L 59.95893 29.299131 
L 60.382083 33.542228 
L 60.946288 41.905719 
L 61.651543 55.938619 
L 62.921003 86.849103 
L 64.190463 116.649883 
L 64.895718 129.207873 
L 65.459923 136.06266 
L 65.883076 139.043379 
L 66.165178 139.936814 
L 66.306229 140.048825 
L 66.44728 139.936814 
L 66.729383 139.043379 
L 67.011485 137.270599 
L 67.434638 133.027502 
L 67.998842 124.664011 
L 68.704098 110.631111 
L 69.973558 79.720626 
L 71.243018 49.919846 
L 71.948273 37.361857 
L 72.512478 30.50707 
L 72.935631 27.526351 
L 73.217733 26.632916 
L 73.358784 26.520905 
L 73.499835 26.632916 
L 73.781938 27.526351 
L 74.06404 29.299131 
L 74.487193 33.542228 
L 75.051397 41.905719 
L 75.756653 55.938619 
L 77.026113 86.849103 
L 78.295573 116.649883 
L 79.000828 129.207873 
L 79.565033 136.06266 
L 79.988186 139.043379 
L 80.270288 139.936814 
L 80.411339 140.048825 
L 80.55239 139.936814 
L 80.834492 139.043379 
L 81.116595 137.270599 
L 81.539748 133.027502 
L 82.103952 124.664011 
L 82.809208 110.631111 
L 84.078668 79.720626 
L 85.348128 49.919846 
L 86.053383 37.361857 
L 86.617587 30.50707 
L 87.040741 27.526351 
L 87.322843 26.632916 
L 87.463894 26.520905 
L 87.604945 26.632916 
L 87.887047 27.526351 
L 88.16915 29.299131 
L 88.592303 33.542228 
L 89.156507 41.905719 
L 89.861763 55.938619 
L 91.131223 86.849103 
L 92.400682 116.649883 
L 93.105938 129.207873 
L 93.670142 136.06266 
L 94.093296 139.043379 
L 94.375398 139.936814 
L 94.516449 140.048825 
L 94.6575 139.936814 
L 94.939602 139.043379 
L 95.221704 137.270599 
L 95.644858 133.027502 
L 96.209062 124.664011 
L 96.914318 110.631111 
L 98.183777 79.720626 
L 99.453237 49.919846 
L 100.158493 37.361857 
L 100.722697 30.50707 
L 101.145851 27.526351 
L 101.427953 26.632916 
L 101.569004 26.520905 
L 101.710055 26.632916 
L 101.992157 27.526351 
L 102.274259 29.299131 
L 102.697413 33.542228 
L 103.261617 41.905719 
L 103.966873 55.938619 
L 105.236332 86.849103 
L 106.505792 116.649883 
L 107.211048 129.207873 
L 107.775252 136.06266 
L 108.198405 139.043379 
L 108.480508 139.936814 
L 108.621559 140.048825 
L 108.76261 139.936814 
L 109.044712 139.043379 
L 109.326814 137.270599 
L 109.749968 133.027502 
L 110.314172 124.664011 
L 111.019427 110.631111 
L 112.288887 79.720626 
L 113.558347 49.919846 
L 114.263603 37.361857 
L 114.827807 30.50707 
L 115.25096 27.526351 
L 115.533063 26.632916 
L 115.674114 26.520905 
L 115.815165 26.632916 
L 116.097267 27.526351 
L 116.379369 29.299131 
L 116.802522 33.542228 
L 117.366727 41.905719 
L 118.071982 55.938619 
L 119.341442 86.849103 
L 120.610902 116.649883 
L 121.316158 129.207873 
L 121.880362 136.06266 
L 122.303515 139.043379 
L 122.585617 139.936814 
L 122.726669 140.048825 
L 122.86772 139.936814 
L 123.149822 139.043379 
L 123.431924 137.270599 
L 123.855077 133.027502 
L 124.419282 124.664011 
L 125.124537 110.631111 
L 126.393997 79.720626 
L 127.663457 49.919846 
L 128.368712 37.361857 
L 128.932917 30.50707 
L 129.35607 27.526351 
L 129.638172 26.632916 
L 129.779223 26.520905 
L 129.920275 26.632916 
L 130.202377 27.526351 
L 130.484479 29.299131 
L 130.907632 33.542228 
L 131.471837 41.905719 
L 132.177092 55.938619 
L 133.446552 86.849103 
L 134.716012 116.649883 
L 135.421267 129.207873 
L 135.985472 136.06266 
L 136.408625 139.043379 
L 136.690727 139.936814 
L 136.831778 140.048825 
L 136.972829 139.936814 
L 137.254932 139.043379 
L 137.537034 137.270599 
L 137.960187 133.027502 
L 138.524392 124.664011 
L 139.229647 110.631111 
L 140.499107 79.720626 
L 141.768567 49.919846 
L 142.473822 37.361857 
L 143.038027 30.50707 
L 143.46118 27.526351 
L 143.743282 26.632916 
L 143.884333 26.520905 
L 144.025384 26.632916 
L 144.307487 27.526351 
L 144.589589 29.299131 
L 145.012742 33.542228 
L 145.576946 41.905719 
L 146.282202 55.938619 
L 147.551662 86.849103 
L 148.821122 116.649883 
L 149.526377 129.207873 
L 150.090582 136.06266 
L 150.513735 139.043379 
L 150.795837 139.936814 
L 150.936888 140.048825 
L 151.077939 139.936814 
L 151.360041 139.043379 
L 151.642144 137.270599 
L 152.065297 133.027502 
L 152.629501 124.664011 
L 153.334757 110.631111 
L 154.604217 79.720626 
L 155.873677 49.919846 
L 156.578932 37.361857 
L 157.143137 30.50707 
L 157.56629 27.526351 
L 157.848392 26.632916 
L 157.989443 26.520905 
L 158.130494 26.632916 
L 158.412596 27.526351 
L 158.694699 29.299131 
L 159.117852 33.542228 
L 159.682056 41.905719 
L 160.387312 55.938619 
L 161.656772 86.849103 
L 162.926232 116.649883 
L 163.631487 129.207873 
L 164.195691 136.06266 
L 164.618845 139.043379 
L 164.900947 139.936814 
L 165.041998 140.048825 
L 165.183049 139.936814 
L 165.465151 139.043379 
L 165.747253 137.270599 
L 166.170407 133.027502 
L 166.734611 124.664011 
L 167.439867 110.631111 
L 168.709327 79.720626 
L 169.978786 49.919846 
L 170.684042 37.361857 
L 171.248246 30.50707 
L 171.6714 27.526351 
L 171.953502 26.632916 
L 172.094553 26.520905 
L 172.235604 26.632916 
L 172.517706 27.526351 
L 172.799808 29.299131 
L 173.222962 33.542228 
L 173.787166 41.905719 
L 174.492422 55.938619 
L 175.761881 86.849103 
L 177.031341 116.649883 
L 177.736597 129.207873 
L 178.300801 136.06266 
L 178.723955 139.043379 
L 179.006057 139.936814 
L 179.147108 140.048825 
L 179.288159 139.936814 
L 179.570261 139.043379 
L 179.852363 137.270599 
L 180.275517 133.027502 
L 180.839721 124.664011 
L 181.544976 110.631111 
L 182.814436 79.720626 
L 184.083896 49.919846 
L 184.789152 37.361857 
L 185.353356 30.50707 
L 185.776509 27.526351 
L 186.058612 26.632916 
L 186.199663 26.520905 
L 186.340714 26.632916 
L 186.622816 27.526351 
L 186.904918 29.299131 
L 187.328072 33.542228 
L 187.892276 41.905719 
L 188.597531 55.938619 
L 189.866991 86.849103 
L 191.136451 116.649883 
L 191.841707 129.207873 
L 192.405911 136.06266 
L 192.829064 139.043379 
L 193.111167 139.936814 
L 193.252218 140.048825 
L 193.393269 139.936814 
L 193.675371 139.043379 
L 193.957473 137.270599 
L 194.380626 133.027502 
L 194.944831 124.664011 
L 195.650086 110.631111 
L 196.919546 79.720626 
L 198.189006 49.919846 
L 198.894262 37.361857 
L 199.458466 30.50707 
L 199.881619 27.526351 
L 200.163721 26.632916 
L 200.304773 26.520905 
L 200.445824 26.632916 
L 200.727926 27.526351 
L 201.010028 29.299131 
L 201.433181 33.542228 
L 201.997386 41.905719 
L 202.702641 55.938619 
L 203.972101 86.849103 
L 205.241561 116.649883 
L 205.946816 129.207873 
L 206.511021 136.06266 
L 206.934174 139.043379 
L 207.216276 139.936814 
L 207.357327 140.048825 
L 207.498379 139.936814 
L 207.780481 139.043379 
L 208.062583 137.270599 
L 208.485736 133.027502 
L 209.049941 124.664011 
L 209.755196 110.631111 
L 211.024656 79.720626 
L 212.294116 49.919846 
L 212.999371 37.361857 
L 213.563576 30.50707 
L 213.986729 27.526351 
L 214.268831 26.632916 
L 214.409882 26.520905 
L 214.550933 26.632916 
L 214.833036 27.526351 
L 215.115138 29.299131 
L 215.538291 33.542228 
L 216.102496 41.905719 
L 216.807751 55.938619 
L 218.077211 86.849103 
L 219.346671 116.649883 
L 220.051926 129.207873 
L 220.616131 136.06266 
L 221.039284 139.043379 
L 221.321386 139.936814 
L 221.462437 140.048825 
L 221.603488 139.936814 
L 221.885591 139.043379 
L 222.167693 137.270599 
L 222.590846 133.027502 
L 223.15505 124.664011 
L 223.860306 110.631111 
L 225.129766 79.720626 
L 226.399226 49.919846 
L 227.104481 37.361857 
L 227.668686 30.50707 
L 228.091839 27.526351 
L 228.373941 26.632916 
L 228.514992 26.520905 
L 228.656043 26.632916 
L 228.938145 27.526351 
L 229.220248 29.299131 
L 229.643401 33.542228 
L 230.207605 41.905719 
L 230.912861 55.938619 
L 232.182321 86.849103 
L 233.451781 116.649883 
L 234.157036 129.207873 
L 234.72124 136.06266 
L 235.144394 139.043379 
L 235.426496 139.936814 
L 235.567547 140.048825 
L 235.708598 139.936814 
L 235.9907 139.043379 
L 236.272803 137.270599 
L 236.695956 133.027502 
L 237.26016 124.664011 
L 237.965416 110.631111 
L 239.234876 79.720626 
L 240.504336 49.919846 
L 241.209591 37.361857 
L 241.773795 30.50707 
L 242.196949 27.526351 
L 242.479051 26.632916 
L 242.620102 26.520905 
L 242.761153 26.632916 
L 243.043255 27.526351 
L 243.325357 29.299131 
L 243.748511 33.542228 
L 244.312715 41.905719 
L 245.017971 55.938619 
L 246.287431 86.849103 
L 247.55689 116.649883 
L 248.262146 129.207873 
L 248.82635 136.06266 
L 249.249504 139.043379 
L 249.531606 139.936814 
L 249.672657 140.048825 
L 249.813708 139.936814 
L 250.09581 139.043379 
L 250.377912 137.270599 
L 250.801066 133.027502 
L 251.36527 124.664011 
L 252.070526 110.631111 
L 253.339985 79.720626 
L 254.609445 49.919846 
L 255.314701 37.361857 
L 255.878905 30.50707 
L 256.302058 27.526351 
L 256.584161 26.632916 
L 256.725212 26.520905 
L 256.866263 26.632916 
L 257.148365 27.526351 
L 257.430467 29.299131 
L 257.853621 33.542228 
L 258.417825 41.905719 
L 259.12308 55.938619 
L 260.39254 86.849103 
L 261.662 116.649883 
L 262.367256 129.207873 
L 262.93146 136.06266 
L 263.354613 139.043379 
L 263.636716 139.936814 
L 263.777767 140.048825 
L 263.918818 139.936814 
L 264.20092 139.043379 
L 264.483022 137.270599 
L 264.906175 133.027502 
L 265.47038 124.664011 
L 266.175635 110.631111 
L 267.445095 79.720626 
L 268.714555 49.919846 
L 269.419811 37.361857 
L 269.984015 30.50707 
L 270.407168 27.526351 
L 270.689271 26.632916 
L 270.830322 26.520905 
L 270.971373 26.632916 
L 271.253475 27.526351 
L 271.535577 29.299131 
L 271.95873 33.542228 
L 272.522935 41.905719 
L 273.22819 55.938619 
L 274.49765 86.849103 
L 275.76711 116.649883 
L 276.472366 129.207873 
L 277.03657 136.06266 
L 277.459723 139.043379 
L 277.741825 139.936814 
L 277.882877 140.048825 
L 278.023928 139.936814 
L 278.30603 139.043379 
L 278.588132 137.270599 
L 279.011285 133.027502 
L 279.57549 124.664011 
L 280.280745 110.631111 
L 281.550205 79.720626 
L 282.819665 49.919846 
L 283.52492 37.361857 
L 284.089125 30.50707 
L 284.512278 27.526351 
L 284.79438 26.632916 
L 284.935431 26.520905 
L 285.076483 26.632916 
L 285.358585 27.526351 
L 285.640687 29.299131 
L 286.06384 33.542228 
L 286.628045 41.905719 
L 287.3333 55.938619 
L 288.60276 86.849103 
L 289.87222 116.649883 
L 290.577475 129.207873 
L 291.14168 136.06266 
L 291.564833 139.043379 
L 291.846935 139.936814 
L 291.987986 140.048825 
L 292.129037 139.936814 
L 292.41114 139.043379 
L 292.693242 137.270599 
L 293.116395 133.027502 
L 293.680599 124.664011 
L 294.385855 110.631111 
L 295.655315 79.720626 
L 296.924775 49.919846 
L 297.63003 37.361857 
L 298.194235 30.50707 
L 298.617388 27.526351 
L 298.89949 26.632916 
L 299.040541 26.520905 
L 299.181592 26.632916 
L 299.463695 27.526351 
L 299.745797 29.299131 
L 300.16895 33.542228 
L 300.733154 41.905719 
L 301.43841 55.938619 
L 302.70787 86.849103 
L 303.97733 116.649883 
L 304.682585 129.207873 
L 305.24679 136.06266 
L 305.669943 139.043379 
L 305.952045 139.936814 
L 306.093096 140.048825 
L 306.234147 139.936814 
L 306.516249 139.043379 
L 306.798352 137.270599 
L 307.221505 133.027502 
L 307.785709 124.664011 
L 308.490965 110.631111 
L 309.760425 79.720626 
L 311.029885 49.919846 
L 311.73514 37.361857 
L 312.299344 30.50707 
L 312.722498 27.526351 
L 313.0046 26.632916 
L 313.145651 26.520905 
L 313.286702 26.632916 
L 313.568804 27.526351 
L 313.850907 29.299131 
L 314.27406 33.542228 
L 314.838264 41.905719 
L 315.54352 55.938619 
L 316.81298 86.849103 
L 318.082439 116.649883 
L 318.787695 129.207873 
L 319.351899 136.06266 
L 319.775053 139.043379 
L 320.057155 139.936814 
L 320.198206 140.048825 
L 320.339257 139.936814 
L 320.621359 139.043379 
L 320.903461 137.270599 
L 321.326615 133.027502 
L 321.890819 124.664011 
L 322.596075 110.631111 
L 323.865534 79.720626 
L 325.134994 49.919846 
L 325.84025 37.361857 
L 326.404454 30.50707 
L 326.827608 27.526351 
L 327.10971 26.632916 
L 327.250761 26.520905 
L 327.391812 26.632916 
L 327.673914 27.526351 
L 327.956016 29.299131 
L 328.37917 33.542228 
L 328.943374 41.905719 
L 329.64863 55.938619 
L 330.918089 86.849103 
L 332.187549 116.649883 
L 332.892805 129.207873 
L 333.457009 136.06266 
L 333.880162 139.043379 
L 334.162265 139.936814 
L 334.303316 140.048825 
L 334.444367 139.936814 
L 334.726469 139.043379 
L 335.008571 137.270599 
L 335.431725 133.027502 
L 335.995929 124.664011 
L 336.701184 110.631111 
L 337.970644 79.720626 
L 339.240104 49.919846 
L 339.94536 37.361857 
L 340.509564 30.50707 
L 340.932717 27.526351 
L 341.21482 26.632916 
L 341.355871 26.520905 
L 341.496922 26.632916 
L 341.779024 27.526351 
L 342.061126 29.299131 
L 342.484279 33.542228 
L 343.048484 41.905719 
L 343.753739 55.938619 
L 345.023199 86.849103 
L 346.292659 116.649883 
L 346.997915 129.207873 
L 347.562119 136.06266 
L 347.985272 139.043379 
L 348.267374 139.936814 
L 348.408426 140.048825 
L 348.549477 139.936814 
L 348.831579 139.043379 
L 349.113681 137.270599 
L 349.536834 133.027502 
L 350.101039 124.664011 
L 350.806294 110.631111 
L 352.075754 79.720626 
L 353.345214 49.919846 
L 354.050469 37.361857 
L 354.614674 30.50707 
L 355.037827 27.526351 
L 355.319929 26.632916 
L 355.46098 26.520905 
L 355.602032 26.632916 
L 355.884134 27.526351 
L 356.166236 29.299131 
L 356.589389 33.542228 
L 357.153594 41.905719 
L 357.858849 55.938619 
L 359.128309 86.849103 
L 360.397769 116.649883 
L 361.103024 129.207873 
L 361.667229 136.06266 
L 362.090382 139.043379 
L 362.372484 139.936814 
L 362.513535 140.048825 
L 362.654586 139.936814 
L 362.936689 139.043379 
L 363.218791 137.270599 
L 363.641944 133.027502 
L 364.206149 124.664011 
L 364.911404 110.631111 
L 366.180864 79.720626 
L 367.450324 49.919846 
L 368.155579 37.361857 
L 368.719784 30.50707 
L 369.142937 27.526351 
L 369.425039 26.632916 
L 369.56609 26.520905 
L 369.707141 26.632916 
L 369.989244 27.526351 
L 370.271346 29.299131 
L 370.694499 33.542228 
L 371.258703 41.905719 
L 371.963959 55.938619 
L 373.233419 86.849103 
L 374.502879 116.649883 
L 375.208134 129.207873 
L 375.772339 136.06266 
L 376.195492 139.043379 
L 376.477594 139.936814 
L 376.618645 140.048825 
L 376.759696 139.936814 
L 377.041798 139.043379 
L 377.323901 137.270599 
L 377.747054 133.027502 
L 378.311258 124.664011 
L 379.016514 110.631111 
L 380.285974 79.720626 
L 381.555434 49.919846 
L 382.260689 37.361857 
L 382.824894 30.50707 
L 383.248047 27.526351 
L 383.530149 26.632916 
L 383.6712 26.520905 
L 383.812251 26.632916 
L 384.094353 27.526351 
L 384.376456 29.299131 
L 384.799609 33.542228 
L 385.363813 41.905719 
L 386.069069 55.938619 
L 387.338529 86.849103 
L 388.607989 116.649883 
L 389.313244 129.207873 
L 389.877448 136.06266 
L 390.300602 139.043379 
L 390.582704 139.936814 
L 390.723755 140.048825 
L 390.864806 139.936814 
L 391.146908 139.043379 
L 391.42901 137.270599 
L 391.852164 133.027502 
L 392.416368 124.664011 
L 393.121624 110.631111 
L 394.391084 79.720626 
L 395.660543 49.919846 
L 396.365799 37.361857 
L 396.930003 30.50707 
L 397.353157 27.526351 
L 397.635259 26.632916 
L 397.77631 26.520905 
L 397.917361 26.632916 
L 398.199463 27.526351 
L 398.481565 29.299131 
L 398.904719 33.542228 
L 399.468923 41.905719 
L 400.174179 55.938619 
L 401.443638 86.849103 
L 402.713098 116.649883 
L 403.418354 129.207873 
L 403.982558 136.06266 
L 404.405712 139.043379 
L 404.687814 139.936814 
L 404.828865 140.048825 
L 404.969916 139.936814 
L 405.252018 139.043379 
L 405.53412 137.270599 
L 405.957274 133.027502 
L 406.521478 124.664011 
L 407.226733 110.631111 
L 408.496193 79.720626 
L 409.765653 49.919846 
L 410.470909 37.361857 
L 411.035113 30.50707 
L 411.458266 27.526351 
L 411.740369 26.632916 
L 411.88142 26.520905 
L 412.022471 26.632916 
L 412.304573 27.526351 
L 412.586675 29.299131 
L 413.009829 33.542228 
L 413.574033 41.905719 
L 414.279288 55.938619 
L 415.548748 86.849103 
L 416.818208 116.649883 
L 417.523464 129.207873 
L 418.087668 136.06266 
L 418.510821 139.043379 
L 418.792924 139.936814 
L 418.933975 140.048825 
L 419.075026 139.936814 
L 419.357128 139.043379 
L 419.63923 137.270599 
L 420.062383 133.027502 
L 420.626588 124.664011 
L 421.331843 110.631111 
L 422.601303 79.720626 
L 423.870763 49.919846 
L 424.576019 37.361857 
L 425.140223 30.50707 
L 425.563376 27.526351 
L 425.845478 26.632916 
L 425.98653 26.520905 
L 426.127581 26.632916 
L 426.409683 27.526351 
L 426.691785 29.299131 
L 427.114938 33.542228 
L 427.679143 41.905719 
L 428.384398 55.938619 
L 429.653858 86.849103 
L 430.923318 116.649883 
L 431.628573 129.207873 
L 432.192778 136.06266 
L 432.615931 139.043379 
L 432.898033 139.936814 
L 433.039084 140.048825 
L 433.180136 139.936814 
L 433.462238 139.043379 
L 433.74434 137.270599 
L 434.167493 133.027502 
L 434.731698 124.664011 
L 435.436953 110.631111 
L 436.706413 79.720626 
L 437.975873 49.919846 
L 438.681128 37.361857 
L 439.245333 30.50707 
L 439.668486 27.526351 
L 439.950588 26.632916 
L 440.091639 26.520905 
L 440.23269 26.632916 
L 440.514793 27.526351 
L 440.796895 29.299131 
L 441.220048 33.542228 
L 441.784253 41.905719 
L 442.489508 55.938619 
L 443.758968 86.849103 
L 445.028428 116.649883 
L 445.733683 129.207873 
L 446.297888 136.06266 
L 446.721041 139.043379 
L 447.003143 139.936814 
L 447.144194 140.048825 
L 447.285245 139.936814 
L 447.567348 139.043379 
L 447.84945 137.270599 
L 448.272603 133.027502 
L 448.836807 124.664011 
L 449.542063 110.631111 
L 450.811523 79.720626 
L 452.080983 49.919846 
L 452.786238 37.361857 
L 453.350443 30.50707 
L 453.773596 27.526351 
L 454.055698 26.632916 
L 454.196749 26.520905 
L 454.3378 26.632916 
L 454.619902 27.526351 
L 454.902005 29.299131 
L 455.325158 33.542228 
L 455.889362 41.905719 
L 456.594618 55.938619 
L 457.864078 86.849103 
L 459.133538 116.649883 
L 459.838793 129.207873 
L 460.402997 136.06266 
L 460.826151 139.043379 
L 461.108253 139.936814 
L 461.249304 140.048825 
L 461.390355 139.936814 
L 461.672457 139.043379 
L 461.95456 137.270599 
L 462.377713 133.027502 
L 462.941917 124.664011 
L 463.647173 110.631111 
L 464.916633 79.720626 
L 466.186093 49.919846 
L 466.891348 37.361857 
L 467.455552 30.50707 
L 467.878706 27.526351 
L 468.160808 26.632916 
L 468.301859 26.520905 
L 468.44291 26.632916 
L 468.725012 27.526351 
L 469.007114 29.299131 
L 469.430268 33.542228 
L 469.994472 41.905719 
L 470.699728 55.938619 
L 471.969188 86.849103 
L 473.238647 116.649883 
L 473.943903 129.207873 
L 474.508107 136.06266 
L 474.931261 139.043379 
L 475.213363 139.936814 
L 475.354414 140.048825 
L 475.495465 139.936814 
L 475.777567 139.043379 
L 476.059669 137.270599 
L 476.482823 133.027502 
L 477.047027 124.664011 
L 477.752283 110.631111 
L 479.021742 79.720626 
L 480.291202 49.919846 
L 480.996458 37.361857 
L 481.560662 30.50707 
L 481.983815 27.526351 
L 482.265918 26.632916 
L 482.406969 26.520905 
L 482.54802 26.632916 
L 482.830122 27.526351 
L 483.112224 29.299131 
L 483.535378 33.542228 
L 484.099582 41.905719 
L 484.804837 55.938619 
L 486.074297 86.849103 
L 487.061655 110.631111 
L 487.061655 110.631111 
" clip-path="url(#pbb0856e52d)" style="fill: none; stroke: #ffa231; stroke-width: 4"/>
   </g>
   <g id="line2d_3">
    <path d="M 16.938345 69.093875 
L 23.144593 70.850778 
L 29.632944 72.455416 
L 36.685499 73.965622 
L 44.161207 75.337168 
L 52.342171 76.607892 
L 61.22839 77.759068 
L 70.960916 78.793447 
L 75.615602 79.217299 
L 75.756653 50.917108 
L 80.129237 53.794999 
L 84.642872 56.497614 
L 89.297558 59.025505 
L 94.093296 61.380751 
L 99.171135 63.62578 
L 104.531077 65.746404 
L 110.173121 67.731982 
L 116.097267 69.575368 
L 116.802522 69.779731 
L 116.943574 41.485988 
L 121.034055 44.972955 
L 125.124537 48.169032 
L 129.35607 51.195026 
L 133.728654 54.048224 
L 138.242289 56.727629 
L 142.896976 59.233817 
L 147.692713 61.568826 
L 147.833764 61.63397 
L 147.974815 33.393301 
L 151.783195 37.279852 
L 155.732626 40.99086 
L 159.682056 44.402541 
L 163.772538 47.646202 
L 168.004071 50.71725 
L 172.376655 53.612929 
L 175.902933 55.759505 
L 176.043984 27.490216 
L 179.852363 31.836631 
L 183.660743 35.844412 
L 187.610174 39.671243 
L 191.559604 43.189338 
L 195.650086 46.534211 
L 199.881619 49.701081 
L 202.56159 51.564093 
L 202.702641 23.312135 
L 206.36997 27.817656 
L 210.178349 32.138518 
L 213.986729 36.122819 
L 217.93616 39.927158 
L 221.885591 43.424645 
L 225.976072 46.749885 
L 227.104481 47.617352 
L 227.245532 19.42406 
L 230.912861 24.221664 
L 234.580189 28.658857 
L 238.388569 32.914216 
L 242.196949 36.838065 
L 246.146379 40.584731 
L 248.82635 42.953457 
L 248.967401 14.731299 
L 252.63473 19.881461 
L 256.302058 24.64469 
L 259.969387 29.050064 
L 263.777767 33.274963 
L 267.586146 37.170729 
L 271.535577 40.890543 
L 273.792395 42.879842 
L 273.933446 14.661199 
L 277.600774 19.816624 
L 281.268103 24.584717 
L 284.935431 28.994601 
L 288.743811 33.223826 
L 292.552191 37.123567 
L 296.501621 40.847193 
L 297.065826 41.354019 
L 297.206877 13.130175 
L 300.733154 18.20542 
L 304.400483 23.09459 
L 308.067812 27.616442 
L 311.876191 31.952973 
L 315.684571 35.951743 
L 318.364542 38.577457 
L 318.505593 10.357263 
L 322.03187 15.633111 
L 325.699199 20.715529 
L 329.366527 25.416116 
L 333.033856 29.763544 
L 336.842236 33.932836 
L 340.650615 37.777372 
L 342.907433 39.912731 
L 343.048484 11.710614 
L 346.574761 16.888555 
L 350.24209 21.876636 
L 353.909418 26.489959 
L 357.576747 30.756725 
L 361.385127 34.848684 
L 363.359842 36.843322 
L 363.500893 8.666117 
L 367.027171 14.064308 
L 370.694499 19.264536 
L 374.361828 24.074122 
L 378.029156 28.522398 
L 381.837536 32.788393 
L 385.645915 36.722039 
L 386.915375 37.963947 
L 387.056426 9.718892 
L 390.582704 15.040922 
L 394.250032 20.167793 
L 397.917361 24.90953 
L 401.58469 29.295046 
L 405.393069 33.500833 
L 409.201449 37.378997 
L 409.624602 37.790813 
L 409.765653 9.604427 
L 413.291931 14.934737 
L 416.959259 20.069578 
L 420.626588 24.818672 
L 424.293916 29.211008 
L 428.102296 33.423372 
L 430.782267 36.189351 
L 430.923318 8.003268 
L 434.449595 13.449412 
L 437.975873 18.501563 
L 441.643201 23.368454 
L 445.31053 27.869708 
L 449.11891 32.186559 
L 452.927289 36.167108 
L 454.760954 37.971543 
L 454.902005 9.780811 
L 458.428282 15.098361 
L 462.095611 20.220918 
L 465.762939 24.958634 
L 469.430268 29.340451 
L 473.238647 33.542735 
L 474.649158 35.014651 
L 474.790209 6.831175 
L 478.316487 12.362113 
L 481.842764 17.492922 
L 485.510093 22.43559 
L 487.061655 24.413247 
L 487.061655 24.413247 
" clip-path="url(#pbb0856e52d)" style="fill: none; stroke: #4eba88; stroke-width: 4"/>
   </g>
  </g>
 </g>
 <defs>
  <clipPath id="pbb0856e52d">
   <rect x="2.834646" y="2.834646" width="498.330709" height="141.210709"/>
  </clipPath>
 </defs>
</svg>
