<?xml version="1.0" encoding="utf-8" standalone="no"?>
<!DOCTYPE svg PUBLIC "-//W3C//DTD SVG 1.1//EN"
  "http://www.w3.org/Graphics/SVG/1.1/DTD/svg11.dtd">
<svg xmlns:xlink="http://www.w3.org/1999/xlink" width="469.44pt" height="331.2pt" viewBox="0 0 469.44 331.2" xmlns="http://www.w3.org/2000/svg" version="1.1">
 <metadata>
  <rdf:RDF xmlns:dc="http://purl.org/dc/elements/1.1/" xmlns:cc="http://creativecommons.org/ns#" xmlns:rdf="http://www.w3.org/1999/02/22-rdf-syntax-ns#">
   <cc:Work>
    <dc:type rdf:resource="http://purl.org/dc/dcmitype/StillImage"/>
    <dc:date>2024-06-27T17:35:15.323210</dc:date>
    <dc:format>image/svg+xml</dc:format>
    <dc:creator>
     <cc:Agent>
      <dc:title>Matplotlib v3.8.4, https://matplotlib.org/</dc:title>
     </cc:Agent>
    </dc:creator>
   </cc:Work>
  </rdf:RDF>
 </metadata>
 <defs>
  <style type="text/css">*{stroke-linejoin: round; stroke-linecap: butt}</style>
 </defs>
 <g id="figure_1">
  <g id="patch_1">
   <path d="M 0 331.2 
L 469.44 331.2 
L 469.44 0 
L 0 0 
L 0 331.2 
z
" style="fill: none"/>
  </g>
  <g id="axes_1">
   <g id="patch_2">
    <path d="M 42.418977 297.505354 
L 466.605354 297.505354 
L 466.605354 7.259046 
L 42.418977 7.259046 
L 42.418977 297.505354 
z
" style="fill: none"/>
   </g>
   <g id="QuadMesh_1">
    <path d="M 42.418977 297.505354 
L 63.628296 297.505354 
L 63.628296 282.993039 
L 42.418977 282.993039 
L 42.418977 297.505354 
" clip-path="url(#p28e3b519e8)" style="fill: #000004"/>
    <path d="M 63.628296 297.505354 
L 84.837614 297.505354 
L 84.837614 282.993039 
L 63.628296 282.993039 
L 63.628296 297.505354 
" clip-path="url(#p28e3b519e8)" style="fill: #000004"/>
    <path d="M 84.837614 297.505354 
L 106.046933 297.505354 
L 106.046933 282.993039 
L 84.837614 282.993039 
L 84.837614 297.505354 
" clip-path="url(#p28e3b519e8)" style="fill: #000004"/>
    <path d="M 106.046933 297.505354 
L 127.256252 297.505354 
L 127.256252 282.993039 
L 106.046933 282.993039 
L 106.046933 297.505354 
" clip-path="url(#p28e3b519e8)" style="fill: #000004"/>
    <path d="M 127.256252 297.505354 
L 148.465571 297.505354 
L 148.465571 282.993039 
L 127.256252 282.993039 
L 127.256252 297.505354 
" clip-path="url(#p28e3b519e8)" style="fill: #000004"/>
    <path d="M 148.465571 297.505354 
L 169.67489 297.505354 
L 169.67489 282.993039 
L 148.465571 282.993039 
L 148.465571 297.505354 
" clip-path="url(#p28e3b519e8)" style="fill: #000004"/>
    <path d="M 169.67489 297.505354 
L 190.884209 297.505354 
L 190.884209 282.993039 
L 169.67489 282.993039 
L 169.67489 297.505354 
" clip-path="url(#p28e3b519e8)" style="fill: #000004"/>
    <path d="M 190.884209 297.505354 
L 212.093528 297.505354 
L 212.093528 282.993039 
L 190.884209 282.993039 
L 190.884209 297.505354 
" clip-path="url(#p28e3b519e8)" style="fill: #000004"/>
    <path d="M 212.093528 297.505354 
L 233.302847 297.505354 
L 233.302847 282.993039 
L 212.093528 282.993039 
L 212.093528 297.505354 
" clip-path="url(#p28e3b519e8)" style="fill: #000004"/>
    <path d="M 233.302847 297.505354 
L 254.512166 297.505354 
L 254.512166 282.993039 
L 233.302847 282.993039 
L 233.302847 297.505354 
" clip-path="url(#p28e3b519e8)" style="fill: #000004"/>
    <path d="M 254.512166 297.505354 
L 275.721484 297.505354 
L 275.721484 282.993039 
L 254.512166 282.993039 
L 254.512166 297.505354 
" clip-path="url(#p28e3b519e8)" style="fill: #000004"/>
    <path d="M 275.721484 297.505354 
L 296.930803 297.505354 
L 296.930803 282.993039 
L 275.721484 282.993039 
L 275.721484 297.505354 
" clip-path="url(#p28e3b519e8)" style="fill: #000004"/>
    <path d="M 296.930803 297.505354 
L 318.140122 297.505354 
L 318.140122 282.993039 
L 296.930803 282.993039 
L 296.930803 297.505354 
" clip-path="url(#p28e3b519e8)" style="fill: #000004"/>
    <path d="M 318.140122 297.505354 
L 339.349441 297.505354 
L 339.349441 282.993039 
L 318.140122 282.993039 
L 318.140122 297.505354 
" clip-path="url(#p28e3b519e8)" style="fill: #000004"/>
    <path d="M 339.349441 297.505354 
L 360.55876 297.505354 
L 360.55876 282.993039 
L 339.349441 282.993039 
L 339.349441 297.505354 
" clip-path="url(#p28e3b519e8)" style="fill: #000004"/>
    <path d="M 360.55876 297.505354 
L 381.768079 297.505354 
L 381.768079 282.993039 
L 360.55876 282.993039 
L 360.55876 297.505354 
" clip-path="url(#p28e3b519e8)" style="fill: #000004"/>
    <path d="M 381.768079 297.505354 
L 402.977398 297.505354 
L 402.977398 282.993039 
L 381.768079 282.993039 
L 381.768079 297.505354 
" clip-path="url(#p28e3b519e8)" style="fill: #000004"/>
    <path d="M 402.977398 297.505354 
L 424.186717 297.505354 
L 424.186717 282.993039 
L 402.977398 282.993039 
L 402.977398 297.505354 
" clip-path="url(#p28e3b519e8)" style="fill: #000004"/>
    <path d="M 424.186717 297.505354 
L 445.396035 297.505354 
L 445.396035 282.993039 
L 424.186717 282.993039 
L 424.186717 297.505354 
" clip-path="url(#p28e3b519e8)" style="fill: #000004"/>
    <path d="M 445.396035 297.505354 
L 466.605354 297.505354 
L 466.605354 282.993039 
L 445.396035 282.993039 
L 445.396035 297.505354 
" clip-path="url(#p28e3b519e8)" style="fill: #000004"/>
    <path d="M 42.418977 282.993039 
L 63.628296 282.993039 
L 63.628296 268.480723 
L 42.418977 268.480723 
L 42.418977 282.993039 
" clip-path="url(#p28e3b519e8)" style="fill: #000004"/>
    <path d="M 63.628296 282.993039 
L 84.837614 282.993039 
L 84.837614 268.480723 
L 63.628296 268.480723 
L 63.628296 282.993039 
" clip-path="url(#p28e3b519e8)" style="fill: #000004"/>
    <path d="M 84.837614 282.993039 
L 106.046933 282.993039 
L 106.046933 268.480723 
L 84.837614 268.480723 
L 84.837614 282.993039 
" clip-path="url(#p28e3b519e8)" style="fill: #000004"/>
    <path d="M 106.046933 282.993039 
L 127.256252 282.993039 
L 127.256252 268.480723 
L 106.046933 268.480723 
L 106.046933 282.993039 
" clip-path="url(#p28e3b519e8)" style="fill: #000004"/>
    <path d="M 127.256252 282.993039 
L 148.465571 282.993039 
L 148.465571 268.480723 
L 127.256252 268.480723 
L 127.256252 282.993039 
" clip-path="url(#p28e3b519e8)" style="fill: #000004"/>
    <path d="M 148.465571 282.993039 
L 169.67489 282.993039 
L 169.67489 268.480723 
L 148.465571 268.480723 
L 148.465571 282.993039 
" clip-path="url(#p28e3b519e8)" style="fill: #000004"/>
    <path d="M 169.67489 282.993039 
L 190.884209 282.993039 
L 190.884209 268.480723 
L 169.67489 268.480723 
L 169.67489 282.993039 
" clip-path="url(#p28e3b519e8)" style="fill: #000004"/>
    <path d="M 190.884209 282.993039 
L 212.093528 282.993039 
L 212.093528 268.480723 
L 190.884209 268.480723 
L 190.884209 282.993039 
" clip-path="url(#p28e3b519e8)" style="fill: #000004"/>
    <path d="M 212.093528 282.993039 
L 233.302847 282.993039 
L 233.302847 268.480723 
L 212.093528 268.480723 
L 212.093528 282.993039 
" clip-path="url(#p28e3b519e8)" style="fill: #000004"/>
    <path d="M 233.302847 282.993039 
L 254.512166 282.993039 
L 254.512166 268.480723 
L 233.302847 268.480723 
L 233.302847 282.993039 
" clip-path="url(#p28e3b519e8)" style="fill: #fcffa4"/>
    <path d="M 254.512166 282.993039 
L 275.721484 282.993039 
L 275.721484 268.480723 
L 254.512166 268.480723 
L 254.512166 282.993039 
" clip-path="url(#p28e3b519e8)" style="fill: #000004"/>
    <path d="M 275.721484 282.993039 
L 296.930803 282.993039 
L 296.930803 268.480723 
L 275.721484 268.480723 
L 275.721484 282.993039 
" clip-path="url(#p28e3b519e8)" style="fill: #000004"/>
    <path d="M 296.930803 282.993039 
L 318.140122 282.993039 
L 318.140122 268.480723 
L 296.930803 268.480723 
L 296.930803 282.993039 
" clip-path="url(#p28e3b519e8)" style="fill: #000004"/>
    <path d="M 318.140122 282.993039 
L 339.349441 282.993039 
L 339.349441 268.480723 
L 318.140122 268.480723 
L 318.140122 282.993039 
" clip-path="url(#p28e3b519e8)" style="fill: #000004"/>
    <path d="M 339.349441 282.993039 
L 360.55876 282.993039 
L 360.55876 268.480723 
L 339.349441 268.480723 
L 339.349441 282.993039 
" clip-path="url(#p28e3b519e8)" style="fill: #000004"/>
    <path d="M 360.55876 282.993039 
L 381.768079 282.993039 
L 381.768079 268.480723 
L 360.55876 268.480723 
L 360.55876 282.993039 
" clip-path="url(#p28e3b519e8)" style="fill: #000004"/>
    <path d="M 381.768079 282.993039 
L 402.977398 282.993039 
L 402.977398 268.480723 
L 381.768079 268.480723 
L 381.768079 282.993039 
" clip-path="url(#p28e3b519e8)" style="fill: #000004"/>
    <path d="M 402.977398 282.993039 
L 424.186717 282.993039 
L 424.186717 268.480723 
L 402.977398 268.480723 
L 402.977398 282.993039 
" clip-path="url(#p28e3b519e8)" style="fill: #000004"/>
    <path d="M 424.186717 282.993039 
L 445.396035 282.993039 
L 445.396035 268.480723 
L 424.186717 268.480723 
L 424.186717 282.993039 
" clip-path="url(#p28e3b519e8)" style="fill: #000004"/>
    <path d="M 445.396035 282.993039 
L 466.605354 282.993039 
L 466.605354 268.480723 
L 445.396035 268.480723 
L 445.396035 282.993039 
" clip-path="url(#p28e3b519e8)" style="fill: #000004"/>
    <path d="M 42.418977 268.480723 
L 63.628296 268.480723 
L 63.628296 253.968408 
L 42.418977 253.968408 
L 42.418977 268.480723 
" clip-path="url(#p28e3b519e8)" style="fill: #000004"/>
    <path d="M 63.628296 268.480723 
L 84.837614 268.480723 
L 84.837614 253.968408 
L 63.628296 253.968408 
L 63.628296 268.480723 
" clip-path="url(#p28e3b519e8)" style="fill: #000004"/>
    <path d="M 84.837614 268.480723 
L 106.046933 268.480723 
L 106.046933 253.968408 
L 84.837614 253.968408 
L 84.837614 268.480723 
" clip-path="url(#p28e3b519e8)" style="fill: #000004"/>
    <path d="M 106.046933 268.480723 
L 127.256252 268.480723 
L 127.256252 253.968408 
L 106.046933 253.968408 
L 106.046933 268.480723 
" clip-path="url(#p28e3b519e8)" style="fill: #000004"/>
    <path d="M 127.256252 268.480723 
L 148.465571 268.480723 
L 148.465571 253.968408 
L 127.256252 253.968408 
L 127.256252 268.480723 
" clip-path="url(#p28e3b519e8)" style="fill: #000004"/>
    <path d="M 148.465571 268.480723 
L 169.67489 268.480723 
L 169.67489 253.968408 
L 148.465571 253.968408 
L 148.465571 268.480723 
" clip-path="url(#p28e3b519e8)" style="fill: #000004"/>
    <path d="M 169.67489 268.480723 
L 190.884209 268.480723 
L 190.884209 253.968408 
L 169.67489 253.968408 
L 169.67489 268.480723 
" clip-path="url(#p28e3b519e8)" style="fill: #000004"/>
    <path d="M 190.884209 268.480723 
L 212.093528 268.480723 
L 212.093528 253.968408 
L 190.884209 253.968408 
L 190.884209 268.480723 
" clip-path="url(#p28e3b519e8)" style="fill: #000004"/>
    <path d="M 212.093528 268.480723 
L 233.302847 268.480723 
L 233.302847 253.968408 
L 212.093528 253.968408 
L 212.093528 268.480723 
" clip-path="url(#p28e3b519e8)" style="fill: #000004"/>
    <path d="M 233.302847 268.480723 
L 254.512166 268.480723 
L 254.512166 253.968408 
L 233.302847 253.968408 
L 233.302847 268.480723 
" clip-path="url(#p28e3b519e8)" style="fill: #fcffa4"/>
    <path d="M 254.512166 268.480723 
L 275.721484 268.480723 
L 275.721484 253.968408 
L 254.512166 253.968408 
L 254.512166 268.480723 
" clip-path="url(#p28e3b519e8)" style="fill: #fcffa4"/>
    <path d="M 275.721484 268.480723 
L 296.930803 268.480723 
L 296.930803 253.968408 
L 275.721484 253.968408 
L 275.721484 268.480723 
" clip-path="url(#p28e3b519e8)" style="fill: #000004"/>
    <path d="M 296.930803 268.480723 
L 318.140122 268.480723 
L 318.140122 253.968408 
L 296.930803 253.968408 
L 296.930803 268.480723 
" clip-path="url(#p28e3b519e8)" style="fill: #000004"/>
    <path d="M 318.140122 268.480723 
L 339.349441 268.480723 
L 339.349441 253.968408 
L 318.140122 253.968408 
L 318.140122 268.480723 
" clip-path="url(#p28e3b519e8)" style="fill: #000004"/>
    <path d="M 339.349441 268.480723 
L 360.55876 268.480723 
L 360.55876 253.968408 
L 339.349441 253.968408 
L 339.349441 268.480723 
" clip-path="url(#p28e3b519e8)" style="fill: #000004"/>
    <path d="M 360.55876 268.480723 
L 381.768079 268.480723 
L 381.768079 253.968408 
L 360.55876 253.968408 
L 360.55876 268.480723 
" clip-path="url(#p28e3b519e8)" style="fill: #000004"/>
    <path d="M 381.768079 268.480723 
L 402.977398 268.480723 
L 402.977398 253.968408 
L 381.768079 253.968408 
L 381.768079 268.480723 
" clip-path="url(#p28e3b519e8)" style="fill: #000004"/>
    <path d="M 402.977398 268.480723 
L 424.186717 268.480723 
L 424.186717 253.968408 
L 402.977398 253.968408 
L 402.977398 268.480723 
" clip-path="url(#p28e3b519e8)" style="fill: #000004"/>
    <path d="M 424.186717 268.480723 
L 445.396035 268.480723 
L 445.396035 253.968408 
L 424.186717 253.968408 
L 424.186717 268.480723 
" clip-path="url(#p28e3b519e8)" style="fill: #000004"/>
    <path d="M 445.396035 268.480723 
L 466.605354 268.480723 
L 466.605354 253.968408 
L 445.396035 253.968408 
L 445.396035 268.480723 
" clip-path="url(#p28e3b519e8)" style="fill: #000004"/>
    <path d="M 42.418977 253.968408 
L 63.628296 253.968408 
L 63.628296 239.456093 
L 42.418977 239.456093 
L 42.418977 253.968408 
" clip-path="url(#p28e3b519e8)" style="fill: #000004"/>
    <path d="M 63.628296 253.968408 
L 84.837614 253.968408 
L 84.837614 239.456093 
L 63.628296 239.456093 
L 63.628296 253.968408 
" clip-path="url(#p28e3b519e8)" style="fill: #000004"/>
    <path d="M 84.837614 253.968408 
L 106.046933 253.968408 
L 106.046933 239.456093 
L 84.837614 239.456093 
L 84.837614 253.968408 
" clip-path="url(#p28e3b519e8)" style="fill: #000004"/>
    <path d="M 106.046933 253.968408 
L 127.256252 253.968408 
L 127.256252 239.456093 
L 106.046933 239.456093 
L 106.046933 253.968408 
" clip-path="url(#p28e3b519e8)" style="fill: #000004"/>
    <path d="M 127.256252 253.968408 
L 148.465571 253.968408 
L 148.465571 239.456093 
L 127.256252 239.456093 
L 127.256252 253.968408 
" clip-path="url(#p28e3b519e8)" style="fill: #000004"/>
    <path d="M 148.465571 253.968408 
L 169.67489 253.968408 
L 169.67489 239.456093 
L 148.465571 239.456093 
L 148.465571 253.968408 
" clip-path="url(#p28e3b519e8)" style="fill: #000004"/>
    <path d="M 169.67489 253.968408 
L 190.884209 253.968408 
L 190.884209 239.456093 
L 169.67489 239.456093 
L 169.67489 253.968408 
" clip-path="url(#p28e3b519e8)" style="fill: #000004"/>
    <path d="M 190.884209 253.968408 
L 212.093528 253.968408 
L 212.093528 239.456093 
L 190.884209 239.456093 
L 190.884209 253.968408 
" clip-path="url(#p28e3b519e8)" style="fill: #000004"/>
    <path d="M 212.093528 253.968408 
L 233.302847 253.968408 
L 233.302847 239.456093 
L 212.093528 239.456093 
L 212.093528 253.968408 
" clip-path="url(#p28e3b519e8)" style="fill: #000004"/>
    <path d="M 233.302847 253.968408 
L 254.512166 253.968408 
L 254.512166 239.456093 
L 233.302847 239.456093 
L 233.302847 253.968408 
" clip-path="url(#p28e3b519e8)" style="fill: #fcffa4"/>
    <path d="M 254.512166 253.968408 
L 275.721484 253.968408 
L 275.721484 239.456093 
L 254.512166 239.456093 
L 254.512166 253.968408 
" clip-path="url(#p28e3b519e8)" style="fill: #fcffa4"/>
    <path d="M 275.721484 253.968408 
L 296.930803 253.968408 
L 296.930803 239.456093 
L 275.721484 239.456093 
L 275.721484 253.968408 
" clip-path="url(#p28e3b519e8)" style="fill: #000004"/>
    <path d="M 296.930803 253.968408 
L 318.140122 253.968408 
L 318.140122 239.456093 
L 296.930803 239.456093 
L 296.930803 253.968408 
" clip-path="url(#p28e3b519e8)" style="fill: #000004"/>
    <path d="M 318.140122 253.968408 
L 339.349441 253.968408 
L 339.349441 239.456093 
L 318.140122 239.456093 
L 318.140122 253.968408 
" clip-path="url(#p28e3b519e8)" style="fill: #000004"/>
    <path d="M 339.349441 253.968408 
L 360.55876 253.968408 
L 360.55876 239.456093 
L 339.349441 239.456093 
L 339.349441 253.968408 
" clip-path="url(#p28e3b519e8)" style="fill: #000004"/>
    <path d="M 360.55876 253.968408 
L 381.768079 253.968408 
L 381.768079 239.456093 
L 360.55876 239.456093 
L 360.55876 253.968408 
" clip-path="url(#p28e3b519e8)" style="fill: #000004"/>
    <path d="M 381.768079 253.968408 
L 402.977398 253.968408 
L 402.977398 239.456093 
L 381.768079 239.456093 
L 381.768079 253.968408 
" clip-path="url(#p28e3b519e8)" style="fill: #000004"/>
    <path d="M 402.977398 253.968408 
L 424.186717 253.968408 
L 424.186717 239.456093 
L 402.977398 239.456093 
L 402.977398 253.968408 
" clip-path="url(#p28e3b519e8)" style="fill: #000004"/>
    <path d="M 424.186717 253.968408 
L 445.396035 253.968408 
L 445.396035 239.456093 
L 424.186717 239.456093 
L 424.186717 253.968408 
" clip-path="url(#p28e3b519e8)" style="fill: #000004"/>
    <path d="M 445.396035 253.968408 
L 466.605354 253.968408 
L 466.605354 239.456093 
L 445.396035 239.456093 
L 445.396035 253.968408 
" clip-path="url(#p28e3b519e8)" style="fill: #000004"/>
    <path d="M 42.418977 239.456093 
L 63.628296 239.456093 
L 63.628296 224.943777 
L 42.418977 224.943777 
L 42.418977 239.456093 
" clip-path="url(#p28e3b519e8)" style="fill: #000004"/>
    <path d="M 63.628296 239.456093 
L 84.837614 239.456093 
L 84.837614 224.943777 
L 63.628296 224.943777 
L 63.628296 239.456093 
" clip-path="url(#p28e3b519e8)" style="fill: #000004"/>
    <path d="M 84.837614 239.456093 
L 106.046933 239.456093 
L 106.046933 224.943777 
L 84.837614 224.943777 
L 84.837614 239.456093 
" clip-path="url(#p28e3b519e8)" style="fill: #000004"/>
    <path d="M 106.046933 239.456093 
L 127.256252 239.456093 
L 127.256252 224.943777 
L 106.046933 224.943777 
L 106.046933 239.456093 
" clip-path="url(#p28e3b519e8)" style="fill: #000004"/>
    <path d="M 127.256252 239.456093 
L 148.465571 239.456093 
L 148.465571 224.943777 
L 127.256252 224.943777 
L 127.256252 239.456093 
" clip-path="url(#p28e3b519e8)" style="fill: #000004"/>
    <path d="M 148.465571 239.456093 
L 169.67489 239.456093 
L 169.67489 224.943777 
L 148.465571 224.943777 
L 148.465571 239.456093 
" clip-path="url(#p28e3b519e8)" style="fill: #000004"/>
    <path d="M 169.67489 239.456093 
L 190.884209 239.456093 
L 190.884209 224.943777 
L 169.67489 224.943777 
L 169.67489 239.456093 
" clip-path="url(#p28e3b519e8)" style="fill: #000004"/>
    <path d="M 190.884209 239.456093 
L 212.093528 239.456093 
L 212.093528 224.943777 
L 190.884209 224.943777 
L 190.884209 239.456093 
" clip-path="url(#p28e3b519e8)" style="fill: #000004"/>
    <path d="M 212.093528 239.456093 
L 233.302847 239.456093 
L 233.302847 224.943777 
L 212.093528 224.943777 
L 212.093528 239.456093 
" clip-path="url(#p28e3b519e8)" style="fill: #fcffa4"/>
    <path d="M 233.302847 239.456093 
L 254.512166 239.456093 
L 254.512166 224.943777 
L 233.302847 224.943777 
L 233.302847 239.456093 
" clip-path="url(#p28e3b519e8)" style="fill: #fcffa4"/>
    <path d="M 254.512166 239.456093 
L 275.721484 239.456093 
L 275.721484 224.943777 
L 254.512166 224.943777 
L 254.512166 239.456093 
" clip-path="url(#p28e3b519e8)" style="fill: #fcffa4"/>
    <path d="M 275.721484 239.456093 
L 296.930803 239.456093 
L 296.930803 224.943777 
L 275.721484 224.943777 
L 275.721484 239.456093 
" clip-path="url(#p28e3b519e8)" style="fill: #fcffa4"/>
    <path d="M 296.930803 239.456093 
L 318.140122 239.456093 
L 318.140122 224.943777 
L 296.930803 224.943777 
L 296.930803 239.456093 
" clip-path="url(#p28e3b519e8)" style="fill: #000004"/>
    <path d="M 318.140122 239.456093 
L 339.349441 239.456093 
L 339.349441 224.943777 
L 318.140122 224.943777 
L 318.140122 239.456093 
" clip-path="url(#p28e3b519e8)" style="fill: #000004"/>
    <path d="M 339.349441 239.456093 
L 360.55876 239.456093 
L 360.55876 224.943777 
L 339.349441 224.943777 
L 339.349441 239.456093 
" clip-path="url(#p28e3b519e8)" style="fill: #000004"/>
    <path d="M 360.55876 239.456093 
L 381.768079 239.456093 
L 381.768079 224.943777 
L 360.55876 224.943777 
L 360.55876 239.456093 
" clip-path="url(#p28e3b519e8)" style="fill: #000004"/>
    <path d="M 381.768079 239.456093 
L 402.977398 239.456093 
L 402.977398 224.943777 
L 381.768079 224.943777 
L 381.768079 239.456093 
" clip-path="url(#p28e3b519e8)" style="fill: #000004"/>
    <path d="M 402.977398 239.456093 
L 424.186717 239.456093 
L 424.186717 224.943777 
L 402.977398 224.943777 
L 402.977398 239.456093 
" clip-path="url(#p28e3b519e8)" style="fill: #000004"/>
    <path d="M 424.186717 239.456093 
L 445.396035 239.456093 
L 445.396035 224.943777 
L 424.186717 224.943777 
L 424.186717 239.456093 
" clip-path="url(#p28e3b519e8)" style="fill: #000004"/>
    <path d="M 445.396035 239.456093 
L 466.605354 239.456093 
L 466.605354 224.943777 
L 445.396035 224.943777 
L 445.396035 239.456093 
" clip-path="url(#p28e3b519e8)" style="fill: #000004"/>
    <path d="M 42.418977 224.943777 
L 63.628296 224.943777 
L 63.628296 210.431462 
L 42.418977 210.431462 
L 42.418977 224.943777 
" clip-path="url(#p28e3b519e8)" style="fill: #000004"/>
    <path d="M 63.628296 224.943777 
L 84.837614 224.943777 
L 84.837614 210.431462 
L 63.628296 210.431462 
L 63.628296 224.943777 
" clip-path="url(#p28e3b519e8)" style="fill: #000004"/>
    <path d="M 84.837614 224.943777 
L 106.046933 224.943777 
L 106.046933 210.431462 
L 84.837614 210.431462 
L 84.837614 224.943777 
" clip-path="url(#p28e3b519e8)" style="fill: #000004"/>
    <path d="M 106.046933 224.943777 
L 127.256252 224.943777 
L 127.256252 210.431462 
L 106.046933 210.431462 
L 106.046933 224.943777 
" clip-path="url(#p28e3b519e8)" style="fill: #000004"/>
    <path d="M 127.256252 224.943777 
L 148.465571 224.943777 
L 148.465571 210.431462 
L 127.256252 210.431462 
L 127.256252 224.943777 
" clip-path="url(#p28e3b519e8)" style="fill: #000004"/>
    <path d="M 148.465571 224.943777 
L 169.67489 224.943777 
L 169.67489 210.431462 
L 148.465571 210.431462 
L 148.465571 224.943777 
" clip-path="url(#p28e3b519e8)" style="fill: #000004"/>
    <path d="M 169.67489 224.943777 
L 190.884209 224.943777 
L 190.884209 210.431462 
L 169.67489 210.431462 
L 169.67489 224.943777 
" clip-path="url(#p28e3b519e8)" style="fill: #000004"/>
    <path d="M 190.884209 224.943777 
L 212.093528 224.943777 
L 212.093528 210.431462 
L 190.884209 210.431462 
L 190.884209 224.943777 
" clip-path="url(#p28e3b519e8)" style="fill: #000004"/>
    <path d="M 212.093528 224.943777 
L 233.302847 224.943777 
L 233.302847 210.431462 
L 212.093528 210.431462 
L 212.093528 224.943777 
" clip-path="url(#p28e3b519e8)" style="fill: #fcffa4"/>
    <path d="M 233.302847 224.943777 
L 254.512166 224.943777 
L 254.512166 210.431462 
L 233.302847 210.431462 
L 233.302847 224.943777 
" clip-path="url(#p28e3b519e8)" style="fill: #fcffa4"/>
    <path d="M 254.512166 224.943777 
L 275.721484 224.943777 
L 275.721484 210.431462 
L 254.512166 210.431462 
L 254.512166 224.943777 
" clip-path="url(#p28e3b519e8)" style="fill: #fcffa4"/>
    <path d="M 275.721484 224.943777 
L 296.930803 224.943777 
L 296.930803 210.431462 
L 275.721484 210.431462 
L 275.721484 224.943777 
" clip-path="url(#p28e3b519e8)" style="fill: #fcffa4"/>
    <path d="M 296.930803 224.943777 
L 318.140122 224.943777 
L 318.140122 210.431462 
L 296.930803 210.431462 
L 296.930803 224.943777 
" clip-path="url(#p28e3b519e8)" style="fill: #000004"/>
    <path d="M 318.140122 224.943777 
L 339.349441 224.943777 
L 339.349441 210.431462 
L 318.140122 210.431462 
L 318.140122 224.943777 
" clip-path="url(#p28e3b519e8)" style="fill: #000004"/>
    <path d="M 339.349441 224.943777 
L 360.55876 224.943777 
L 360.55876 210.431462 
L 339.349441 210.431462 
L 339.349441 224.943777 
" clip-path="url(#p28e3b519e8)" style="fill: #000004"/>
    <path d="M 360.55876 224.943777 
L 381.768079 224.943777 
L 381.768079 210.431462 
L 360.55876 210.431462 
L 360.55876 224.943777 
" clip-path="url(#p28e3b519e8)" style="fill: #000004"/>
    <path d="M 381.768079 224.943777 
L 402.977398 224.943777 
L 402.977398 210.431462 
L 381.768079 210.431462 
L 381.768079 224.943777 
" clip-path="url(#p28e3b519e8)" style="fill: #000004"/>
    <path d="M 402.977398 224.943777 
L 424.186717 224.943777 
L 424.186717 210.431462 
L 402.977398 210.431462 
L 402.977398 224.943777 
" clip-path="url(#p28e3b519e8)" style="fill: #000004"/>
    <path d="M 424.186717 224.943777 
L 445.396035 224.943777 
L 445.396035 210.431462 
L 424.186717 210.431462 
L 424.186717 224.943777 
" clip-path="url(#p28e3b519e8)" style="fill: #000004"/>
    <path d="M 445.396035 224.943777 
L 466.605354 224.943777 
L 466.605354 210.431462 
L 445.396035 210.431462 
L 445.396035 224.943777 
" clip-path="url(#p28e3b519e8)" style="fill: #000004"/>
    <path d="M 42.418977 210.431462 
L 63.628296 210.431462 
L 63.628296 195.919146 
L 42.418977 195.919146 
L 42.418977 210.431462 
" clip-path="url(#p28e3b519e8)" style="fill: #000004"/>
    <path d="M 63.628296 210.431462 
L 84.837614 210.431462 
L 84.837614 195.919146 
L 63.628296 195.919146 
L 63.628296 210.431462 
" clip-path="url(#p28e3b519e8)" style="fill: #000004"/>
    <path d="M 84.837614 210.431462 
L 106.046933 210.431462 
L 106.046933 195.919146 
L 84.837614 195.919146 
L 84.837614 210.431462 
" clip-path="url(#p28e3b519e8)" style="fill: #000004"/>
    <path d="M 106.046933 210.431462 
L 127.256252 210.431462 
L 127.256252 195.919146 
L 106.046933 195.919146 
L 106.046933 210.431462 
" clip-path="url(#p28e3b519e8)" style="fill: #000004"/>
    <path d="M 127.256252 210.431462 
L 148.465571 210.431462 
L 148.465571 195.919146 
L 127.256252 195.919146 
L 127.256252 210.431462 
" clip-path="url(#p28e3b519e8)" style="fill: #000004"/>
    <path d="M 148.465571 210.431462 
L 169.67489 210.431462 
L 169.67489 195.919146 
L 148.465571 195.919146 
L 148.465571 210.431462 
" clip-path="url(#p28e3b519e8)" style="fill: #000004"/>
    <path d="M 169.67489 210.431462 
L 190.884209 210.431462 
L 190.884209 195.919146 
L 169.67489 195.919146 
L 169.67489 210.431462 
" clip-path="url(#p28e3b519e8)" style="fill: #000004"/>
    <path d="M 190.884209 210.431462 
L 212.093528 210.431462 
L 212.093528 195.919146 
L 190.884209 195.919146 
L 190.884209 210.431462 
" clip-path="url(#p28e3b519e8)" style="fill: #fcffa4"/>
    <path d="M 212.093528 210.431462 
L 233.302847 210.431462 
L 233.302847 195.919146 
L 212.093528 195.919146 
L 212.093528 210.431462 
" clip-path="url(#p28e3b519e8)" style="fill: #fcffa4"/>
    <path d="M 233.302847 210.431462 
L 254.512166 210.431462 
L 254.512166 195.919146 
L 233.302847 195.919146 
L 233.302847 210.431462 
" clip-path="url(#p28e3b519e8)" style="fill: #fcffa4"/>
    <path d="M 254.512166 210.431462 
L 275.721484 210.431462 
L 275.721484 195.919146 
L 254.512166 195.919146 
L 254.512166 210.431462 
" clip-path="url(#p28e3b519e8)" style="fill: #fcffa4"/>
    <path d="M 275.721484 210.431462 
L 296.930803 210.431462 
L 296.930803 195.919146 
L 275.721484 195.919146 
L 275.721484 210.431462 
" clip-path="url(#p28e3b519e8)" style="fill: #fcffa4"/>
    <path d="M 296.930803 210.431462 
L 318.140122 210.431462 
L 318.140122 195.919146 
L 296.930803 195.919146 
L 296.930803 210.431462 
" clip-path="url(#p28e3b519e8)" style="fill: #fcffa4"/>
    <path d="M 318.140122 210.431462 
L 339.349441 210.431462 
L 339.349441 195.919146 
L 318.140122 195.919146 
L 318.140122 210.431462 
" clip-path="url(#p28e3b519e8)" style="fill: #000004"/>
    <path d="M 339.349441 210.431462 
L 360.55876 210.431462 
L 360.55876 195.919146 
L 339.349441 195.919146 
L 339.349441 210.431462 
" clip-path="url(#p28e3b519e8)" style="fill: #000004"/>
    <path d="M 360.55876 210.431462 
L 381.768079 210.431462 
L 381.768079 195.919146 
L 360.55876 195.919146 
L 360.55876 210.431462 
" clip-path="url(#p28e3b519e8)" style="fill: #000004"/>
    <path d="M 381.768079 210.431462 
L 402.977398 210.431462 
L 402.977398 195.919146 
L 381.768079 195.919146 
L 381.768079 210.431462 
" clip-path="url(#p28e3b519e8)" style="fill: #000004"/>
    <path d="M 402.977398 210.431462 
L 424.186717 210.431462 
L 424.186717 195.919146 
L 402.977398 195.919146 
L 402.977398 210.431462 
" clip-path="url(#p28e3b519e8)" style="fill: #000004"/>
    <path d="M 424.186717 210.431462 
L 445.396035 210.431462 
L 445.396035 195.919146 
L 424.186717 195.919146 
L 424.186717 210.431462 
" clip-path="url(#p28e3b519e8)" style="fill: #000004"/>
    <path d="M 445.396035 210.431462 
L 466.605354 210.431462 
L 466.605354 195.919146 
L 445.396035 195.919146 
L 445.396035 210.431462 
" clip-path="url(#p28e3b519e8)" style="fill: #000004"/>
    <path d="M 42.418977 195.919146 
L 63.628296 195.919146 
L 63.628296 181.406831 
L 42.418977 181.406831 
L 42.418977 195.919146 
" clip-path="url(#p28e3b519e8)" style="fill: #000004"/>
    <path d="M 63.628296 195.919146 
L 84.837614 195.919146 
L 84.837614 181.406831 
L 63.628296 181.406831 
L 63.628296 195.919146 
" clip-path="url(#p28e3b519e8)" style="fill: #000004"/>
    <path d="M 84.837614 195.919146 
L 106.046933 195.919146 
L 106.046933 181.406831 
L 84.837614 181.406831 
L 84.837614 195.919146 
" clip-path="url(#p28e3b519e8)" style="fill: #000004"/>
    <path d="M 106.046933 195.919146 
L 127.256252 195.919146 
L 127.256252 181.406831 
L 106.046933 181.406831 
L 106.046933 195.919146 
" clip-path="url(#p28e3b519e8)" style="fill: #000004"/>
    <path d="M 127.256252 195.919146 
L 148.465571 195.919146 
L 148.465571 181.406831 
L 127.256252 181.406831 
L 127.256252 195.919146 
" clip-path="url(#p28e3b519e8)" style="fill: #000004"/>
    <path d="M 148.465571 195.919146 
L 169.67489 195.919146 
L 169.67489 181.406831 
L 148.465571 181.406831 
L 148.465571 195.919146 
" clip-path="url(#p28e3b519e8)" style="fill: #000004"/>
    <path d="M 169.67489 195.919146 
L 190.884209 195.919146 
L 190.884209 181.406831 
L 169.67489 181.406831 
L 169.67489 195.919146 
" clip-path="url(#p28e3b519e8)" style="fill: #000004"/>
    <path d="M 190.884209 195.919146 
L 212.093528 195.919146 
L 212.093528 181.406831 
L 190.884209 181.406831 
L 190.884209 195.919146 
" clip-path="url(#p28e3b519e8)" style="fill: #fcffa4"/>
    <path d="M 212.093528 195.919146 
L 233.302847 195.919146 
L 233.302847 181.406831 
L 212.093528 181.406831 
L 212.093528 195.919146 
" clip-path="url(#p28e3b519e8)" style="fill: #fcffa4"/>
    <path d="M 233.302847 195.919146 
L 254.512166 195.919146 
L 254.512166 181.406831 
L 233.302847 181.406831 
L 233.302847 195.919146 
" clip-path="url(#p28e3b519e8)" style="fill: #fcffa4"/>
    <path d="M 254.512166 195.919146 
L 275.721484 195.919146 
L 275.721484 181.406831 
L 254.512166 181.406831 
L 254.512166 195.919146 
" clip-path="url(#p28e3b519e8)" style="fill: #fcffa4"/>
    <path d="M 275.721484 195.919146 
L 296.930803 195.919146 
L 296.930803 181.406831 
L 275.721484 181.406831 
L 275.721484 195.919146 
" clip-path="url(#p28e3b519e8)" style="fill: #fcffa4"/>
    <path d="M 296.930803 195.919146 
L 318.140122 195.919146 
L 318.140122 181.406831 
L 296.930803 181.406831 
L 296.930803 195.919146 
" clip-path="url(#p28e3b519e8)" style="fill: #fcffa4"/>
    <path d="M 318.140122 195.919146 
L 339.349441 195.919146 
L 339.349441 181.406831 
L 318.140122 181.406831 
L 318.140122 195.919146 
" clip-path="url(#p28e3b519e8)" style="fill: #fcffa4"/>
    <path d="M 339.349441 195.919146 
L 360.55876 195.919146 
L 360.55876 181.406831 
L 339.349441 181.406831 
L 339.349441 195.919146 
" clip-path="url(#p28e3b519e8)" style="fill: #000004"/>
    <path d="M 360.55876 195.919146 
L 381.768079 195.919146 
L 381.768079 181.406831 
L 360.55876 181.406831 
L 360.55876 195.919146 
" clip-path="url(#p28e3b519e8)" style="fill: #000004"/>
    <path d="M 381.768079 195.919146 
L 402.977398 195.919146 
L 402.977398 181.406831 
L 381.768079 181.406831 
L 381.768079 195.919146 
" clip-path="url(#p28e3b519e8)" style="fill: #000004"/>
    <path d="M 402.977398 195.919146 
L 424.186717 195.919146 
L 424.186717 181.406831 
L 402.977398 181.406831 
L 402.977398 195.919146 
" clip-path="url(#p28e3b519e8)" style="fill: #000004"/>
    <path d="M 424.186717 195.919146 
L 445.396035 195.919146 
L 445.396035 181.406831 
L 424.186717 181.406831 
L 424.186717 195.919146 
" clip-path="url(#p28e3b519e8)" style="fill: #000004"/>
    <path d="M 445.396035 195.919146 
L 466.605354 195.919146 
L 466.605354 181.406831 
L 445.396035 181.406831 
L 445.396035 195.919146 
" clip-path="url(#p28e3b519e8)" style="fill: #000004"/>
    <path d="M 42.418977 181.406831 
L 63.628296 181.406831 
L 63.628296 166.894515 
L 42.418977 166.894515 
L 42.418977 181.406831 
" clip-path="url(#p28e3b519e8)" style="fill: #000004"/>
    <path d="M 63.628296 181.406831 
L 84.837614 181.406831 
L 84.837614 166.894515 
L 63.628296 166.894515 
L 63.628296 181.406831 
" clip-path="url(#p28e3b519e8)" style="fill: #000004"/>
    <path d="M 84.837614 181.406831 
L 106.046933 181.406831 
L 106.046933 166.894515 
L 84.837614 166.894515 
L 84.837614 181.406831 
" clip-path="url(#p28e3b519e8)" style="fill: #000004"/>
    <path d="M 106.046933 181.406831 
L 127.256252 181.406831 
L 127.256252 166.894515 
L 106.046933 166.894515 
L 106.046933 181.406831 
" clip-path="url(#p28e3b519e8)" style="fill: #000004"/>
    <path d="M 127.256252 181.406831 
L 148.465571 181.406831 
L 148.465571 166.894515 
L 127.256252 166.894515 
L 127.256252 181.406831 
" clip-path="url(#p28e3b519e8)" style="fill: #000004"/>
    <path d="M 148.465571 181.406831 
L 169.67489 181.406831 
L 169.67489 166.894515 
L 148.465571 166.894515 
L 148.465571 181.406831 
" clip-path="url(#p28e3b519e8)" style="fill: #000004"/>
    <path d="M 169.67489 181.406831 
L 190.884209 181.406831 
L 190.884209 166.894515 
L 169.67489 166.894515 
L 169.67489 181.406831 
" clip-path="url(#p28e3b519e8)" style="fill: #5a116e"/>
    <path d="M 190.884209 181.406831 
L 212.093528 181.406831 
L 212.093528 166.894515 
L 190.884209 166.894515 
L 190.884209 181.406831 
" clip-path="url(#p28e3b519e8)" style="fill: #fcffa4"/>
    <path d="M 212.093528 181.406831 
L 233.302847 181.406831 
L 233.302847 166.894515 
L 212.093528 166.894515 
L 212.093528 181.406831 
" clip-path="url(#p28e3b519e8)" style="fill: #fcffa4"/>
    <path d="M 233.302847 181.406831 
L 254.512166 181.406831 
L 254.512166 166.894515 
L 233.302847 166.894515 
L 233.302847 181.406831 
" clip-path="url(#p28e3b519e8)" style="fill: #fcffa4"/>
    <path d="M 254.512166 181.406831 
L 275.721484 181.406831 
L 275.721484 166.894515 
L 254.512166 166.894515 
L 254.512166 181.406831 
" clip-path="url(#p28e3b519e8)" style="fill: #fcffa4"/>
    <path d="M 275.721484 181.406831 
L 296.930803 181.406831 
L 296.930803 166.894515 
L 275.721484 166.894515 
L 275.721484 181.406831 
" clip-path="url(#p28e3b519e8)" style="fill: #fcffa4"/>
    <path d="M 296.930803 181.406831 
L 318.140122 181.406831 
L 318.140122 166.894515 
L 296.930803 166.894515 
L 296.930803 181.406831 
" clip-path="url(#p28e3b519e8)" style="fill: #fcffa4"/>
    <path d="M 318.140122 181.406831 
L 339.349441 181.406831 
L 339.349441 166.894515 
L 318.140122 166.894515 
L 318.140122 181.406831 
" clip-path="url(#p28e3b519e8)" style="fill: #fcffa4"/>
    <path d="M 339.349441 181.406831 
L 360.55876 181.406831 
L 360.55876 166.894515 
L 339.349441 166.894515 
L 339.349441 181.406831 
" clip-path="url(#p28e3b519e8)" style="fill: #000004"/>
    <path d="M 360.55876 181.406831 
L 381.768079 181.406831 
L 381.768079 166.894515 
L 360.55876 166.894515 
L 360.55876 181.406831 
" clip-path="url(#p28e3b519e8)" style="fill: #000004"/>
    <path d="M 381.768079 181.406831 
L 402.977398 181.406831 
L 402.977398 166.894515 
L 381.768079 166.894515 
L 381.768079 181.406831 
" clip-path="url(#p28e3b519e8)" style="fill: #000004"/>
    <path d="M 402.977398 181.406831 
L 424.186717 181.406831 
L 424.186717 166.894515 
L 402.977398 166.894515 
L 402.977398 181.406831 
" clip-path="url(#p28e3b519e8)" style="fill: #000004"/>
    <path d="M 424.186717 181.406831 
L 445.396035 181.406831 
L 445.396035 166.894515 
L 424.186717 166.894515 
L 424.186717 181.406831 
" clip-path="url(#p28e3b519e8)" style="fill: #000004"/>
    <path d="M 445.396035 181.406831 
L 466.605354 181.406831 
L 466.605354 166.894515 
L 445.396035 166.894515 
L 445.396035 181.406831 
" clip-path="url(#p28e3b519e8)" style="fill: #000004"/>
    <path d="M 42.418977 166.894515 
L 63.628296 166.894515 
L 63.628296 152.3822 
L 42.418977 152.3822 
L 42.418977 166.894515 
" clip-path="url(#p28e3b519e8)" style="fill: #000004"/>
    <path d="M 63.628296 166.894515 
L 84.837614 166.894515 
L 84.837614 152.3822 
L 63.628296 152.3822 
L 63.628296 166.894515 
" clip-path="url(#p28e3b519e8)" style="fill: #000004"/>
    <path d="M 84.837614 166.894515 
L 106.046933 166.894515 
L 106.046933 152.3822 
L 84.837614 152.3822 
L 84.837614 166.894515 
" clip-path="url(#p28e3b519e8)" style="fill: #000004"/>
    <path d="M 106.046933 166.894515 
L 127.256252 166.894515 
L 127.256252 152.3822 
L 106.046933 152.3822 
L 106.046933 166.894515 
" clip-path="url(#p28e3b519e8)" style="fill: #000004"/>
    <path d="M 127.256252 166.894515 
L 148.465571 166.894515 
L 148.465571 152.3822 
L 127.256252 152.3822 
L 127.256252 166.894515 
" clip-path="url(#p28e3b519e8)" style="fill: #000004"/>
    <path d="M 148.465571 166.894515 
L 169.67489 166.894515 
L 169.67489 152.3822 
L 148.465571 152.3822 
L 148.465571 166.894515 
" clip-path="url(#p28e3b519e8)" style="fill: #000004"/>
    <path d="M 169.67489 166.894515 
L 190.884209 166.894515 
L 190.884209 152.3822 
L 169.67489 152.3822 
L 169.67489 166.894515 
" clip-path="url(#p28e3b519e8)" style="fill: #fcffa4"/>
    <path d="M 190.884209 166.894515 
L 212.093528 166.894515 
L 212.093528 152.3822 
L 190.884209 152.3822 
L 190.884209 166.894515 
" clip-path="url(#p28e3b519e8)" style="fill: #fcffa4"/>
    <path d="M 212.093528 166.894515 
L 233.302847 166.894515 
L 233.302847 152.3822 
L 212.093528 152.3822 
L 212.093528 166.894515 
" clip-path="url(#p28e3b519e8)" style="fill: #fcffa4"/>
    <path d="M 233.302847 166.894515 
L 254.512166 166.894515 
L 254.512166 152.3822 
L 233.302847 152.3822 
L 233.302847 166.894515 
" clip-path="url(#p28e3b519e8)" style="fill: #fcffa4"/>
    <path d="M 254.512166 166.894515 
L 275.721484 166.894515 
L 275.721484 152.3822 
L 254.512166 152.3822 
L 254.512166 166.894515 
" clip-path="url(#p28e3b519e8)" style="fill: #fcffa4"/>
    <path d="M 275.721484 166.894515 
L 296.930803 166.894515 
L 296.930803 152.3822 
L 275.721484 152.3822 
L 275.721484 166.894515 
" clip-path="url(#p28e3b519e8)" style="fill: #fcffa4"/>
    <path d="M 296.930803 166.894515 
L 318.140122 166.894515 
L 318.140122 152.3822 
L 296.930803 152.3822 
L 296.930803 166.894515 
" clip-path="url(#p28e3b519e8)" style="fill: #fcffa4"/>
    <path d="M 318.140122 166.894515 
L 339.349441 166.894515 
L 339.349441 152.3822 
L 318.140122 152.3822 
L 318.140122 166.894515 
" clip-path="url(#p28e3b519e8)" style="fill: #fcffa4"/>
    <path d="M 339.349441 166.894515 
L 360.55876 166.894515 
L 360.55876 152.3822 
L 339.349441 152.3822 
L 339.349441 166.894515 
" clip-path="url(#p28e3b519e8)" style="fill: #fcffa4"/>
    <path d="M 360.55876 166.894515 
L 381.768079 166.894515 
L 381.768079 152.3822 
L 360.55876 152.3822 
L 360.55876 166.894515 
" clip-path="url(#p28e3b519e8)" style="fill: #000004"/>
    <path d="M 381.768079 166.894515 
L 402.977398 166.894515 
L 402.977398 152.3822 
L 381.768079 152.3822 
L 381.768079 166.894515 
" clip-path="url(#p28e3b519e8)" style="fill: #000004"/>
    <path d="M 402.977398 166.894515 
L 424.186717 166.894515 
L 424.186717 152.3822 
L 402.977398 152.3822 
L 402.977398 166.894515 
" clip-path="url(#p28e3b519e8)" style="fill: #000004"/>
    <path d="M 424.186717 166.894515 
L 445.396035 166.894515 
L 445.396035 152.3822 
L 424.186717 152.3822 
L 424.186717 166.894515 
" clip-path="url(#p28e3b519e8)" style="fill: #000004"/>
    <path d="M 445.396035 166.894515 
L 466.605354 166.894515 
L 466.605354 152.3822 
L 445.396035 152.3822 
L 445.396035 166.894515 
" clip-path="url(#p28e3b519e8)" style="fill: #000004"/>
    <path d="M 42.418977 152.3822 
L 63.628296 152.3822 
L 63.628296 137.869885 
L 42.418977 137.869885 
L 42.418977 152.3822 
" clip-path="url(#p28e3b519e8)" style="fill: #000004"/>
    <path d="M 63.628296 152.3822 
L 84.837614 152.3822 
L 84.837614 137.869885 
L 63.628296 137.869885 
L 63.628296 152.3822 
" clip-path="url(#p28e3b519e8)" style="fill: #000004"/>
    <path d="M 84.837614 152.3822 
L 106.046933 152.3822 
L 106.046933 137.869885 
L 84.837614 137.869885 
L 84.837614 152.3822 
" clip-path="url(#p28e3b519e8)" style="fill: #000004"/>
    <path d="M 106.046933 152.3822 
L 127.256252 152.3822 
L 127.256252 137.869885 
L 106.046933 137.869885 
L 106.046933 152.3822 
" clip-path="url(#p28e3b519e8)" style="fill: #000004"/>
    <path d="M 127.256252 152.3822 
L 148.465571 152.3822 
L 148.465571 137.869885 
L 127.256252 137.869885 
L 127.256252 152.3822 
" clip-path="url(#p28e3b519e8)" style="fill: #000004"/>
    <path d="M 148.465571 152.3822 
L 169.67489 152.3822 
L 169.67489 137.869885 
L 148.465571 137.869885 
L 148.465571 152.3822 
" clip-path="url(#p28e3b519e8)" style="fill: #000004"/>
    <path d="M 169.67489 152.3822 
L 190.884209 152.3822 
L 190.884209 137.869885 
L 169.67489 137.869885 
L 169.67489 152.3822 
" clip-path="url(#p28e3b519e8)" style="fill: #fcffa4"/>
    <path d="M 190.884209 152.3822 
L 212.093528 152.3822 
L 212.093528 137.869885 
L 190.884209 137.869885 
L 190.884209 152.3822 
" clip-path="url(#p28e3b519e8)" style="fill: #fcffa4"/>
    <path d="M 212.093528 152.3822 
L 233.302847 152.3822 
L 233.302847 137.869885 
L 212.093528 137.869885 
L 212.093528 152.3822 
" clip-path="url(#p28e3b519e8)" style="fill: #fcffa4"/>
    <path d="M 233.302847 152.3822 
L 254.512166 152.3822 
L 254.512166 137.869885 
L 233.302847 137.869885 
L 233.302847 152.3822 
" clip-path="url(#p28e3b519e8)" style="fill: #fcffa4"/>
    <path d="M 254.512166 152.3822 
L 275.721484 152.3822 
L 275.721484 137.869885 
L 254.512166 137.869885 
L 254.512166 152.3822 
" clip-path="url(#p28e3b519e8)" style="fill: #fcffa4"/>
    <path d="M 275.721484 152.3822 
L 296.930803 152.3822 
L 296.930803 137.869885 
L 275.721484 137.869885 
L 275.721484 152.3822 
" clip-path="url(#p28e3b519e8)" style="fill: #fcffa4"/>
    <path d="M 296.930803 152.3822 
L 318.140122 152.3822 
L 318.140122 137.869885 
L 296.930803 137.869885 
L 296.930803 152.3822 
" clip-path="url(#p28e3b519e8)" style="fill: #fcffa4"/>
    <path d="M 318.140122 152.3822 
L 339.349441 152.3822 
L 339.349441 137.869885 
L 318.140122 137.869885 
L 318.140122 152.3822 
" clip-path="url(#p28e3b519e8)" style="fill: #fcffa4"/>
    <path d="M 339.349441 152.3822 
L 360.55876 152.3822 
L 360.55876 137.869885 
L 339.349441 137.869885 
L 339.349441 152.3822 
" clip-path="url(#p28e3b519e8)" style="fill: #fcffa4"/>
    <path d="M 360.55876 152.3822 
L 381.768079 152.3822 
L 381.768079 137.869885 
L 360.55876 137.869885 
L 360.55876 152.3822 
" clip-path="url(#p28e3b519e8)" style="fill: #3d0965"/>
    <path d="M 381.768079 152.3822 
L 402.977398 152.3822 
L 402.977398 137.869885 
L 381.768079 137.869885 
L 381.768079 152.3822 
" clip-path="url(#p28e3b519e8)" style="fill: #000004"/>
    <path d="M 402.977398 152.3822 
L 424.186717 152.3822 
L 424.186717 137.869885 
L 402.977398 137.869885 
L 402.977398 152.3822 
" clip-path="url(#p28e3b519e8)" style="fill: #000004"/>
    <path d="M 424.186717 152.3822 
L 445.396035 152.3822 
L 445.396035 137.869885 
L 424.186717 137.869885 
L 424.186717 152.3822 
" clip-path="url(#p28e3b519e8)" style="fill: #000004"/>
    <path d="M 445.396035 152.3822 
L 466.605354 152.3822 
L 466.605354 137.869885 
L 445.396035 137.869885 
L 445.396035 152.3822 
" clip-path="url(#p28e3b519e8)" style="fill: #000004"/>
    <path d="M 42.418977 137.869885 
L 63.628296 137.869885 
L 63.628296 123.357569 
L 42.418977 123.357569 
L 42.418977 137.869885 
" clip-path="url(#p28e3b519e8)" style="fill: #000004"/>
    <path d="M 63.628296 137.869885 
L 84.837614 137.869885 
L 84.837614 123.357569 
L 63.628296 123.357569 
L 63.628296 137.869885 
" clip-path="url(#p28e3b519e8)" style="fill: #000004"/>
    <path d="M 84.837614 137.869885 
L 106.046933 137.869885 
L 106.046933 123.357569 
L 84.837614 123.357569 
L 84.837614 137.869885 
" clip-path="url(#p28e3b519e8)" style="fill: #000004"/>
    <path d="M 106.046933 137.869885 
L 127.256252 137.869885 
L 127.256252 123.357569 
L 106.046933 123.357569 
L 106.046933 137.869885 
" clip-path="url(#p28e3b519e8)" style="fill: #000004"/>
    <path d="M 127.256252 137.869885 
L 148.465571 137.869885 
L 148.465571 123.357569 
L 127.256252 123.357569 
L 127.256252 137.869885 
" clip-path="url(#p28e3b519e8)" style="fill: #000004"/>
    <path d="M 148.465571 137.869885 
L 169.67489 137.869885 
L 169.67489 123.357569 
L 148.465571 123.357569 
L 148.465571 137.869885 
" clip-path="url(#p28e3b519e8)" style="fill: #67166e"/>
    <path d="M 169.67489 137.869885 
L 190.884209 137.869885 
L 190.884209 123.357569 
L 169.67489 123.357569 
L 169.67489 137.869885 
" clip-path="url(#p28e3b519e8)" style="fill: #fcffa4"/>
    <path d="M 190.884209 137.869885 
L 212.093528 137.869885 
L 212.093528 123.357569 
L 190.884209 123.357569 
L 190.884209 137.869885 
" clip-path="url(#p28e3b519e8)" style="fill: #fcffa4"/>
    <path d="M 212.093528 137.869885 
L 233.302847 137.869885 
L 233.302847 123.357569 
L 212.093528 123.357569 
L 212.093528 137.869885 
" clip-path="url(#p28e3b519e8)" style="fill: #fcffa4"/>
    <path d="M 233.302847 137.869885 
L 254.512166 137.869885 
L 254.512166 123.357569 
L 233.302847 123.357569 
L 233.302847 137.869885 
" clip-path="url(#p28e3b519e8)" style="fill: #fcffa4"/>
    <path d="M 254.512166 137.869885 
L 275.721484 137.869885 
L 275.721484 123.357569 
L 254.512166 123.357569 
L 254.512166 137.869885 
" clip-path="url(#p28e3b519e8)" style="fill: #fcffa4"/>
    <path d="M 275.721484 137.869885 
L 296.930803 137.869885 
L 296.930803 123.357569 
L 275.721484 123.357569 
L 275.721484 137.869885 
" clip-path="url(#p28e3b519e8)" style="fill: #fcffa4"/>
    <path d="M 296.930803 137.869885 
L 318.140122 137.869885 
L 318.140122 123.357569 
L 296.930803 123.357569 
L 296.930803 137.869885 
" clip-path="url(#p28e3b519e8)" style="fill: #fcffa4"/>
    <path d="M 318.140122 137.869885 
L 339.349441 137.869885 
L 339.349441 123.357569 
L 318.140122 123.357569 
L 318.140122 137.869885 
" clip-path="url(#p28e3b519e8)" style="fill: #fcffa4"/>
    <path d="M 339.349441 137.869885 
L 360.55876 137.869885 
L 360.55876 123.357569 
L 339.349441 123.357569 
L 339.349441 137.869885 
" clip-path="url(#p28e3b519e8)" style="fill: #fcffa4"/>
    <path d="M 360.55876 137.869885 
L 381.768079 137.869885 
L 381.768079 123.357569 
L 360.55876 123.357569 
L 360.55876 137.869885 
" clip-path="url(#p28e3b519e8)" style="fill: #fcffa4"/>
    <path d="M 381.768079 137.869885 
L 402.977398 137.869885 
L 402.977398 123.357569 
L 381.768079 123.357569 
L 381.768079 137.869885 
" clip-path="url(#p28e3b519e8)" style="fill: #2f0a5b"/>
    <path d="M 402.977398 137.869885 
L 424.186717 137.869885 
L 424.186717 123.357569 
L 402.977398 123.357569 
L 402.977398 137.869885 
" clip-path="url(#p28e3b519e8)" style="fill: #000004"/>
    <path d="M 424.186717 137.869885 
L 445.396035 137.869885 
L 445.396035 123.357569 
L 424.186717 123.357569 
L 424.186717 137.869885 
" clip-path="url(#p28e3b519e8)" style="fill: #000004"/>
    <path d="M 445.396035 137.869885 
L 466.605354 137.869885 
L 466.605354 123.357569 
L 445.396035 123.357569 
L 445.396035 137.869885 
" clip-path="url(#p28e3b519e8)" style="fill: #000004"/>
    <path d="M 42.418977 123.357569 
L 63.628296 123.357569 
L 63.628296 108.845254 
L 42.418977 108.845254 
L 42.418977 123.357569 
" clip-path="url(#p28e3b519e8)" style="fill: #000004"/>
    <path d="M 63.628296 123.357569 
L 84.837614 123.357569 
L 84.837614 108.845254 
L 63.628296 108.845254 
L 63.628296 123.357569 
" clip-path="url(#p28e3b519e8)" style="fill: #000004"/>
    <path d="M 84.837614 123.357569 
L 106.046933 123.357569 
L 106.046933 108.845254 
L 84.837614 108.845254 
L 84.837614 123.357569 
" clip-path="url(#p28e3b519e8)" style="fill: #000004"/>
    <path d="M 106.046933 123.357569 
L 127.256252 123.357569 
L 127.256252 108.845254 
L 106.046933 108.845254 
L 106.046933 123.357569 
" clip-path="url(#p28e3b519e8)" style="fill: #000004"/>
    <path d="M 127.256252 123.357569 
L 148.465571 123.357569 
L 148.465571 108.845254 
L 127.256252 108.845254 
L 127.256252 123.357569 
" clip-path="url(#p28e3b519e8)" style="fill: #000004"/>
    <path d="M 148.465571 123.357569 
L 169.67489 123.357569 
L 169.67489 108.845254 
L 148.465571 108.845254 
L 148.465571 123.357569 
" clip-path="url(#p28e3b519e8)" style="fill: #fcffa4"/>
    <path d="M 169.67489 123.357569 
L 190.884209 123.357569 
L 190.884209 108.845254 
L 169.67489 108.845254 
L 169.67489 123.357569 
" clip-path="url(#p28e3b519e8)" style="fill: #fcffa4"/>
    <path d="M 190.884209 123.357569 
L 212.093528 123.357569 
L 212.093528 108.845254 
L 190.884209 108.845254 
L 190.884209 123.357569 
" clip-path="url(#p28e3b519e8)" style="fill: #fcffa4"/>
    <path d="M 212.093528 123.357569 
L 233.302847 123.357569 
L 233.302847 108.845254 
L 212.093528 108.845254 
L 212.093528 123.357569 
" clip-path="url(#p28e3b519e8)" style="fill: #fcffa4"/>
    <path d="M 233.302847 123.357569 
L 254.512166 123.357569 
L 254.512166 108.845254 
L 233.302847 108.845254 
L 233.302847 123.357569 
" clip-path="url(#p28e3b519e8)" style="fill: #fcffa4"/>
    <path d="M 254.512166 123.357569 
L 275.721484 123.357569 
L 275.721484 108.845254 
L 254.512166 108.845254 
L 254.512166 123.357569 
" clip-path="url(#p28e3b519e8)" style="fill: #fcffa4"/>
    <path d="M 275.721484 123.357569 
L 296.930803 123.357569 
L 296.930803 108.845254 
L 275.721484 108.845254 
L 275.721484 123.357569 
" clip-path="url(#p28e3b519e8)" style="fill: #fcffa4"/>
    <path d="M 296.930803 123.357569 
L 318.140122 123.357569 
L 318.140122 108.845254 
L 296.930803 108.845254 
L 296.930803 123.357569 
" clip-path="url(#p28e3b519e8)" style="fill: #fcffa4"/>
    <path d="M 318.140122 123.357569 
L 339.349441 123.357569 
L 339.349441 108.845254 
L 318.140122 108.845254 
L 318.140122 123.357569 
" clip-path="url(#p28e3b519e8)" style="fill: #fcffa4"/>
    <path d="M 339.349441 123.357569 
L 360.55876 123.357569 
L 360.55876 108.845254 
L 339.349441 108.845254 
L 339.349441 123.357569 
" clip-path="url(#p28e3b519e8)" style="fill: #fcffa4"/>
    <path d="M 360.55876 123.357569 
L 381.768079 123.357569 
L 381.768079 108.845254 
L 360.55876 108.845254 
L 360.55876 123.357569 
" clip-path="url(#p28e3b519e8)" style="fill: #fcffa4"/>
    <path d="M 381.768079 123.357569 
L 402.977398 123.357569 
L 402.977398 108.845254 
L 381.768079 108.845254 
L 381.768079 123.357569 
" clip-path="url(#p28e3b519e8)" style="fill: #67166e"/>
    <path d="M 402.977398 123.357569 
L 424.186717 123.357569 
L 424.186717 108.845254 
L 402.977398 108.845254 
L 402.977398 123.357569 
" clip-path="url(#p28e3b519e8)" style="fill: #02020c"/>
    <path d="M 424.186717 123.357569 
L 445.396035 123.357569 
L 445.396035 108.845254 
L 424.186717 108.845254 
L 424.186717 123.357569 
" clip-path="url(#p28e3b519e8)" style="fill: #000004"/>
    <path d="M 445.396035 123.357569 
L 466.605354 123.357569 
L 466.605354 108.845254 
L 445.396035 108.845254 
L 445.396035 123.357569 
" clip-path="url(#p28e3b519e8)" style="fill: #000004"/>
    <path d="M 42.418977 108.845254 
L 63.628296 108.845254 
L 63.628296 94.332938 
L 42.418977 94.332938 
L 42.418977 108.845254 
" clip-path="url(#p28e3b519e8)" style="fill: #000004"/>
    <path d="M 63.628296 108.845254 
L 84.837614 108.845254 
L 84.837614 94.332938 
L 63.628296 94.332938 
L 63.628296 108.845254 
" clip-path="url(#p28e3b519e8)" style="fill: #000004"/>
    <path d="M 84.837614 108.845254 
L 106.046933 108.845254 
L 106.046933 94.332938 
L 84.837614 94.332938 
L 84.837614 108.845254 
" clip-path="url(#p28e3b519e8)" style="fill: #000004"/>
    <path d="M 106.046933 108.845254 
L 127.256252 108.845254 
L 127.256252 94.332938 
L 106.046933 94.332938 
L 106.046933 108.845254 
" clip-path="url(#p28e3b519e8)" style="fill: #000004"/>
    <path d="M 127.256252 108.845254 
L 148.465571 108.845254 
L 148.465571 94.332938 
L 127.256252 94.332938 
L 127.256252 108.845254 
" clip-path="url(#p28e3b519e8)" style="fill: #771c6d"/>
    <path d="M 148.465571 108.845254 
L 169.67489 108.845254 
L 169.67489 94.332938 
L 148.465571 94.332938 
L 148.465571 108.845254 
" clip-path="url(#p28e3b519e8)" style="fill: #fcffa4"/>
    <path d="M 169.67489 108.845254 
L 190.884209 108.845254 
L 190.884209 94.332938 
L 169.67489 94.332938 
L 169.67489 108.845254 
" clip-path="url(#p28e3b519e8)" style="fill: #fcffa4"/>
    <path d="M 190.884209 108.845254 
L 212.093528 108.845254 
L 212.093528 94.332938 
L 190.884209 94.332938 
L 190.884209 108.845254 
" clip-path="url(#p28e3b519e8)" style="fill: #fcffa4"/>
    <path d="M 212.093528 108.845254 
L 233.302847 108.845254 
L 233.302847 94.332938 
L 212.093528 94.332938 
L 212.093528 108.845254 
" clip-path="url(#p28e3b519e8)" style="fill: #fcffa4"/>
    <path d="M 233.302847 108.845254 
L 254.512166 108.845254 
L 254.512166 94.332938 
L 233.302847 94.332938 
L 233.302847 108.845254 
" clip-path="url(#p28e3b519e8)" style="fill: #fcffa4"/>
    <path d="M 254.512166 108.845254 
L 275.721484 108.845254 
L 275.721484 94.332938 
L 254.512166 94.332938 
L 254.512166 108.845254 
" clip-path="url(#p28e3b519e8)" style="fill: #fcffa4"/>
    <path d="M 275.721484 108.845254 
L 296.930803 108.845254 
L 296.930803 94.332938 
L 275.721484 94.332938 
L 275.721484 108.845254 
" clip-path="url(#p28e3b519e8)" style="fill: #fcffa4"/>
    <path d="M 296.930803 108.845254 
L 318.140122 108.845254 
L 318.140122 94.332938 
L 296.930803 94.332938 
L 296.930803 108.845254 
" clip-path="url(#p28e3b519e8)" style="fill: #fcffa4"/>
    <path d="M 318.140122 108.845254 
L 339.349441 108.845254 
L 339.349441 94.332938 
L 318.140122 94.332938 
L 318.140122 108.845254 
" clip-path="url(#p28e3b519e8)" style="fill: #fcffa4"/>
    <path d="M 339.349441 108.845254 
L 360.55876 108.845254 
L 360.55876 94.332938 
L 339.349441 94.332938 
L 339.349441 108.845254 
" clip-path="url(#p28e3b519e8)" style="fill: #fcffa4"/>
    <path d="M 360.55876 108.845254 
L 381.768079 108.845254 
L 381.768079 94.332938 
L 360.55876 94.332938 
L 360.55876 108.845254 
" clip-path="url(#p28e3b519e8)" style="fill: #fcffa4"/>
    <path d="M 381.768079 108.845254 
L 402.977398 108.845254 
L 402.977398 94.332938 
L 381.768079 94.332938 
L 381.768079 108.845254 
" clip-path="url(#p28e3b519e8)" style="fill: #fcffa4"/>
    <path d="M 402.977398 108.845254 
L 424.186717 108.845254 
L 424.186717 94.332938 
L 402.977398 94.332938 
L 402.977398 108.845254 
" clip-path="url(#p28e3b519e8)" style="fill: #450a69"/>
    <path d="M 424.186717 108.845254 
L 445.396035 108.845254 
L 445.396035 94.332938 
L 424.186717 94.332938 
L 424.186717 108.845254 
" clip-path="url(#p28e3b519e8)" style="fill: #000004"/>
    <path d="M 445.396035 108.845254 
L 466.605354 108.845254 
L 466.605354 94.332938 
L 445.396035 94.332938 
L 445.396035 108.845254 
" clip-path="url(#p28e3b519e8)" style="fill: #000004"/>
    <path d="M 42.418977 94.332938 
L 63.628296 94.332938 
L 63.628296 79.820623 
L 42.418977 79.820623 
L 42.418977 94.332938 
" clip-path="url(#p28e3b519e8)" style="fill: #000004"/>
    <path d="M 63.628296 94.332938 
L 84.837614 94.332938 
L 84.837614 79.820623 
L 63.628296 79.820623 
L 63.628296 94.332938 
" clip-path="url(#p28e3b519e8)" style="fill: #000004"/>
    <path d="M 84.837614 94.332938 
L 106.046933 94.332938 
L 106.046933 79.820623 
L 84.837614 79.820623 
L 84.837614 94.332938 
" clip-path="url(#p28e3b519e8)" style="fill: #000004"/>
    <path d="M 106.046933 94.332938 
L 127.256252 94.332938 
L 127.256252 79.820623 
L 106.046933 79.820623 
L 106.046933 94.332938 
" clip-path="url(#p28e3b519e8)" style="fill: #000004"/>
    <path d="M 127.256252 94.332938 
L 148.465571 94.332938 
L 148.465571 79.820623 
L 127.256252 79.820623 
L 127.256252 94.332938 
" clip-path="url(#p28e3b519e8)" style="fill: #7f1e6c"/>
    <path d="M 148.465571 94.332938 
L 169.67489 94.332938 
L 169.67489 79.820623 
L 148.465571 79.820623 
L 148.465571 94.332938 
" clip-path="url(#p28e3b519e8)" style="fill: #fcffa4"/>
    <path d="M 169.67489 94.332938 
L 190.884209 94.332938 
L 190.884209 79.820623 
L 169.67489 79.820623 
L 169.67489 94.332938 
" clip-path="url(#p28e3b519e8)" style="fill: #fcffa4"/>
    <path d="M 190.884209 94.332938 
L 212.093528 94.332938 
L 212.093528 79.820623 
L 190.884209 79.820623 
L 190.884209 94.332938 
" clip-path="url(#p28e3b519e8)" style="fill: #fcffa4"/>
    <path d="M 212.093528 94.332938 
L 233.302847 94.332938 
L 233.302847 79.820623 
L 212.093528 79.820623 
L 212.093528 94.332938 
" clip-path="url(#p28e3b519e8)" style="fill: #fcffa4"/>
    <path d="M 233.302847 94.332938 
L 254.512166 94.332938 
L 254.512166 79.820623 
L 233.302847 79.820623 
L 233.302847 94.332938 
" clip-path="url(#p28e3b519e8)" style="fill: #fcffa4"/>
    <path d="M 254.512166 94.332938 
L 275.721484 94.332938 
L 275.721484 79.820623 
L 254.512166 79.820623 
L 254.512166 94.332938 
" clip-path="url(#p28e3b519e8)" style="fill: #fcffa4"/>
    <path d="M 275.721484 94.332938 
L 296.930803 94.332938 
L 296.930803 79.820623 
L 275.721484 79.820623 
L 275.721484 94.332938 
" clip-path="url(#p28e3b519e8)" style="fill: #fcffa4"/>
    <path d="M 296.930803 94.332938 
L 318.140122 94.332938 
L 318.140122 79.820623 
L 296.930803 79.820623 
L 296.930803 94.332938 
" clip-path="url(#p28e3b519e8)" style="fill: #fcffa4"/>
    <path d="M 318.140122 94.332938 
L 339.349441 94.332938 
L 339.349441 79.820623 
L 318.140122 79.820623 
L 318.140122 94.332938 
" clip-path="url(#p28e3b519e8)" style="fill: #fcffa4"/>
    <path d="M 339.349441 94.332938 
L 360.55876 94.332938 
L 360.55876 79.820623 
L 339.349441 79.820623 
L 339.349441 94.332938 
" clip-path="url(#p28e3b519e8)" style="fill: #fcffa4"/>
    <path d="M 360.55876 94.332938 
L 381.768079 94.332938 
L 381.768079 79.820623 
L 360.55876 79.820623 
L 360.55876 94.332938 
" clip-path="url(#p28e3b519e8)" style="fill: #fcffa4"/>
    <path d="M 381.768079 94.332938 
L 402.977398 94.332938 
L 402.977398 79.820623 
L 381.768079 79.820623 
L 381.768079 94.332938 
" clip-path="url(#p28e3b519e8)" style="fill: #fcffa4"/>
    <path d="M 402.977398 94.332938 
L 424.186717 94.332938 
L 424.186717 79.820623 
L 402.977398 79.820623 
L 402.977398 94.332938 
" clip-path="url(#p28e3b519e8)" style="fill: #fcffa4"/>
    <path d="M 424.186717 94.332938 
L 445.396035 94.332938 
L 445.396035 79.820623 
L 424.186717 79.820623 
L 424.186717 94.332938 
" clip-path="url(#p28e3b519e8)" style="fill: #340a5f"/>
    <path d="M 445.396035 94.332938 
L 466.605354 94.332938 
L 466.605354 79.820623 
L 445.396035 79.820623 
L 445.396035 94.332938 
" clip-path="url(#p28e3b519e8)" style="fill: #000004"/>
    <path d="M 42.418977 79.820623 
L 63.628296 79.820623 
L 63.628296 65.308307 
L 42.418977 65.308307 
L 42.418977 79.820623 
" clip-path="url(#p28e3b519e8)" style="fill: #000004"/>
    <path d="M 63.628296 79.820623 
L 84.837614 79.820623 
L 84.837614 65.308307 
L 63.628296 65.308307 
L 63.628296 79.820623 
" clip-path="url(#p28e3b519e8)" style="fill: #000004"/>
    <path d="M 84.837614 79.820623 
L 106.046933 79.820623 
L 106.046933 65.308307 
L 84.837614 65.308307 
L 84.837614 79.820623 
" clip-path="url(#p28e3b519e8)" style="fill: #000004"/>
    <path d="M 106.046933 79.820623 
L 127.256252 79.820623 
L 127.256252 65.308307 
L 106.046933 65.308307 
L 106.046933 79.820623 
" clip-path="url(#p28e3b519e8)" style="fill: #000004"/>
    <path d="M 127.256252 79.820623 
L 148.465571 79.820623 
L 148.465571 65.308307 
L 127.256252 65.308307 
L 127.256252 79.820623 
" clip-path="url(#p28e3b519e8)" style="fill: #fcffa4"/>
    <path d="M 148.465571 79.820623 
L 169.67489 79.820623 
L 169.67489 65.308307 
L 148.465571 65.308307 
L 148.465571 79.820623 
" clip-path="url(#p28e3b519e8)" style="fill: #fcffa4"/>
    <path d="M 169.67489 79.820623 
L 190.884209 79.820623 
L 190.884209 65.308307 
L 169.67489 65.308307 
L 169.67489 79.820623 
" clip-path="url(#p28e3b519e8)" style="fill: #fcffa4"/>
    <path d="M 190.884209 79.820623 
L 212.093528 79.820623 
L 212.093528 65.308307 
L 190.884209 65.308307 
L 190.884209 79.820623 
" clip-path="url(#p28e3b519e8)" style="fill: #fcffa4"/>
    <path d="M 212.093528 79.820623 
L 233.302847 79.820623 
L 233.302847 65.308307 
L 212.093528 65.308307 
L 212.093528 79.820623 
" clip-path="url(#p28e3b519e8)" style="fill: #fcffa4"/>
    <path d="M 233.302847 79.820623 
L 254.512166 79.820623 
L 254.512166 65.308307 
L 233.302847 65.308307 
L 233.302847 79.820623 
" clip-path="url(#p28e3b519e8)" style="fill: #fcffa4"/>
    <path d="M 254.512166 79.820623 
L 275.721484 79.820623 
L 275.721484 65.308307 
L 254.512166 65.308307 
L 254.512166 79.820623 
" clip-path="url(#p28e3b519e8)" style="fill: #fcffa4"/>
    <path d="M 275.721484 79.820623 
L 296.930803 79.820623 
L 296.930803 65.308307 
L 275.721484 65.308307 
L 275.721484 79.820623 
" clip-path="url(#p28e3b519e8)" style="fill: #fcffa4"/>
    <path d="M 296.930803 79.820623 
L 318.140122 79.820623 
L 318.140122 65.308307 
L 296.930803 65.308307 
L 296.930803 79.820623 
" clip-path="url(#p28e3b519e8)" style="fill: #fcffa4"/>
    <path d="M 318.140122 79.820623 
L 339.349441 79.820623 
L 339.349441 65.308307 
L 318.140122 65.308307 
L 318.140122 79.820623 
" clip-path="url(#p28e3b519e8)" style="fill: #fcffa4"/>
    <path d="M 339.349441 79.820623 
L 360.55876 79.820623 
L 360.55876 65.308307 
L 339.349441 65.308307 
L 339.349441 79.820623 
" clip-path="url(#p28e3b519e8)" style="fill: #fcffa4"/>
    <path d="M 360.55876 79.820623 
L 381.768079 79.820623 
L 381.768079 65.308307 
L 360.55876 65.308307 
L 360.55876 79.820623 
" clip-path="url(#p28e3b519e8)" style="fill: #fcffa4"/>
    <path d="M 381.768079 79.820623 
L 402.977398 79.820623 
L 402.977398 65.308307 
L 381.768079 65.308307 
L 381.768079 79.820623 
" clip-path="url(#p28e3b519e8)" style="fill: #fcffa4"/>
    <path d="M 402.977398 79.820623 
L 424.186717 79.820623 
L 424.186717 65.308307 
L 402.977398 65.308307 
L 402.977398 79.820623 
" clip-path="url(#p28e3b519e8)" style="fill: #fcffa4"/>
    <path d="M 424.186717 79.820623 
L 445.396035 79.820623 
L 445.396035 65.308307 
L 424.186717 65.308307 
L 424.186717 79.820623 
" clip-path="url(#p28e3b519e8)" style="fill: #fcffa4"/>
    <path d="M 445.396035 79.820623 
L 466.605354 79.820623 
L 466.605354 65.308307 
L 445.396035 65.308307 
L 445.396035 79.820623 
" clip-path="url(#p28e3b519e8)" style="fill: #140b34"/>
    <path d="M 42.418977 65.308307 
L 63.628296 65.308307 
L 63.628296 50.795992 
L 42.418977 50.795992 
L 42.418977 65.308307 
" clip-path="url(#p28e3b519e8)" style="fill: #000004"/>
    <path d="M 63.628296 65.308307 
L 84.837614 65.308307 
L 84.837614 50.795992 
L 63.628296 50.795992 
L 63.628296 65.308307 
" clip-path="url(#p28e3b519e8)" style="fill: #000004"/>
    <path d="M 84.837614 65.308307 
L 106.046933 65.308307 
L 106.046933 50.795992 
L 84.837614 50.795992 
L 84.837614 65.308307 
" clip-path="url(#p28e3b519e8)" style="fill: #000004"/>
    <path d="M 106.046933 65.308307 
L 127.256252 65.308307 
L 127.256252 50.795992 
L 106.046933 50.795992 
L 106.046933 65.308307 
" clip-path="url(#p28e3b519e8)" style="fill: #2b0b57"/>
    <path d="M 127.256252 65.308307 
L 148.465571 65.308307 
L 148.465571 50.795992 
L 127.256252 50.795992 
L 127.256252 65.308307 
" clip-path="url(#p28e3b519e8)" style="fill: #fcffa4"/>
    <path d="M 148.465571 65.308307 
L 169.67489 65.308307 
L 169.67489 50.795992 
L 148.465571 50.795992 
L 148.465571 65.308307 
" clip-path="url(#p28e3b519e8)" style="fill: #fcffa4"/>
    <path d="M 169.67489 65.308307 
L 190.884209 65.308307 
L 190.884209 50.795992 
L 169.67489 50.795992 
L 169.67489 65.308307 
" clip-path="url(#p28e3b519e8)" style="fill: #fcffa4"/>
    <path d="M 190.884209 65.308307 
L 212.093528 65.308307 
L 212.093528 50.795992 
L 190.884209 50.795992 
L 190.884209 65.308307 
" clip-path="url(#p28e3b519e8)" style="fill: #fcffa4"/>
    <path d="M 212.093528 65.308307 
L 233.302847 65.308307 
L 233.302847 50.795992 
L 212.093528 50.795992 
L 212.093528 65.308307 
" clip-path="url(#p28e3b519e8)" style="fill: #fcffa4"/>
    <path d="M 233.302847 65.308307 
L 254.512166 65.308307 
L 254.512166 50.795992 
L 233.302847 50.795992 
L 233.302847 65.308307 
" clip-path="url(#p28e3b519e8)" style="fill: #fcffa4"/>
    <path d="M 254.512166 65.308307 
L 275.721484 65.308307 
L 275.721484 50.795992 
L 254.512166 50.795992 
L 254.512166 65.308307 
" clip-path="url(#p28e3b519e8)" style="fill: #fcffa4"/>
    <path d="M 275.721484 65.308307 
L 296.930803 65.308307 
L 296.930803 50.795992 
L 275.721484 50.795992 
L 275.721484 65.308307 
" clip-path="url(#p28e3b519e8)" style="fill: #fcffa4"/>
    <path d="M 296.930803 65.308307 
L 318.140122 65.308307 
L 318.140122 50.795992 
L 296.930803 50.795992 
L 296.930803 65.308307 
" clip-path="url(#p28e3b519e8)" style="fill: #fcffa4"/>
    <path d="M 318.140122 65.308307 
L 339.349441 65.308307 
L 339.349441 50.795992 
L 318.140122 50.795992 
L 318.140122 65.308307 
" clip-path="url(#p28e3b519e8)" style="fill: #fcffa4"/>
    <path d="M 339.349441 65.308307 
L 360.55876 65.308307 
L 360.55876 50.795992 
L 339.349441 50.795992 
L 339.349441 65.308307 
" clip-path="url(#p28e3b519e8)" style="fill: #fcffa4"/>
    <path d="M 360.55876 65.308307 
L 381.768079 65.308307 
L 381.768079 50.795992 
L 360.55876 50.795992 
L 360.55876 65.308307 
" clip-path="url(#p28e3b519e8)" style="fill: #fcffa4"/>
    <path d="M 381.768079 65.308307 
L 402.977398 65.308307 
L 402.977398 50.795992 
L 381.768079 50.795992 
L 381.768079 65.308307 
" clip-path="url(#p28e3b519e8)" style="fill: #fcffa4"/>
    <path d="M 402.977398 65.308307 
L 424.186717 65.308307 
L 424.186717 50.795992 
L 402.977398 50.795992 
L 402.977398 65.308307 
" clip-path="url(#p28e3b519e8)" style="fill: #fcffa4"/>
    <path d="M 424.186717 65.308307 
L 445.396035 65.308307 
L 445.396035 50.795992 
L 424.186717 50.795992 
L 424.186717 65.308307 
" clip-path="url(#p28e3b519e8)" style="fill: #fcffa4"/>
    <path d="M 445.396035 65.308307 
L 466.605354 65.308307 
L 466.605354 50.795992 
L 445.396035 50.795992 
L 445.396035 65.308307 
" clip-path="url(#p28e3b519e8)" style="fill: #5a116e"/>
    <path d="M 42.418977 50.795992 
L 63.628296 50.795992 
L 63.628296 36.283677 
L 42.418977 36.283677 
L 42.418977 50.795992 
" clip-path="url(#p28e3b519e8)" style="fill: #000004"/>
    <path d="M 63.628296 50.795992 
L 84.837614 50.795992 
L 84.837614 36.283677 
L 63.628296 36.283677 
L 63.628296 50.795992 
" clip-path="url(#p28e3b519e8)" style="fill: #000004"/>
    <path d="M 84.837614 50.795992 
L 106.046933 50.795992 
L 106.046933 36.283677 
L 84.837614 36.283677 
L 84.837614 50.795992 
" clip-path="url(#p28e3b519e8)" style="fill: #000004"/>
    <path d="M 106.046933 50.795992 
L 127.256252 50.795992 
L 127.256252 36.283677 
L 106.046933 36.283677 
L 106.046933 50.795992 
" clip-path="url(#p28e3b519e8)" style="fill: #67166e"/>
    <path d="M 127.256252 50.795992 
L 148.465571 50.795992 
L 148.465571 36.283677 
L 127.256252 36.283677 
L 127.256252 50.795992 
" clip-path="url(#p28e3b519e8)" style="fill: #fcffa4"/>
    <path d="M 148.465571 50.795992 
L 169.67489 50.795992 
L 169.67489 36.283677 
L 148.465571 36.283677 
L 148.465571 50.795992 
" clip-path="url(#p28e3b519e8)" style="fill: #fcffa4"/>
    <path d="M 169.67489 50.795992 
L 190.884209 50.795992 
L 190.884209 36.283677 
L 169.67489 36.283677 
L 169.67489 50.795992 
" clip-path="url(#p28e3b519e8)" style="fill: #fcffa4"/>
    <path d="M 190.884209 50.795992 
L 212.093528 50.795992 
L 212.093528 36.283677 
L 190.884209 36.283677 
L 190.884209 50.795992 
" clip-path="url(#p28e3b519e8)" style="fill: #fcffa4"/>
    <path d="M 212.093528 50.795992 
L 233.302847 50.795992 
L 233.302847 36.283677 
L 212.093528 36.283677 
L 212.093528 50.795992 
" clip-path="url(#p28e3b519e8)" style="fill: #fcffa4"/>
    <path d="M 233.302847 50.795992 
L 254.512166 50.795992 
L 254.512166 36.283677 
L 233.302847 36.283677 
L 233.302847 50.795992 
" clip-path="url(#p28e3b519e8)" style="fill: #fcffa4"/>
    <path d="M 254.512166 50.795992 
L 275.721484 50.795992 
L 275.721484 36.283677 
L 254.512166 36.283677 
L 254.512166 50.795992 
" clip-path="url(#p28e3b519e8)" style="fill: #fcffa4"/>
    <path d="M 275.721484 50.795992 
L 296.930803 50.795992 
L 296.930803 36.283677 
L 275.721484 36.283677 
L 275.721484 50.795992 
" clip-path="url(#p28e3b519e8)" style="fill: #fcffa4"/>
    <path d="M 296.930803 50.795992 
L 318.140122 50.795992 
L 318.140122 36.283677 
L 296.930803 36.283677 
L 296.930803 50.795992 
" clip-path="url(#p28e3b519e8)" style="fill: #fcffa4"/>
    <path d="M 318.140122 50.795992 
L 339.349441 50.795992 
L 339.349441 36.283677 
L 318.140122 36.283677 
L 318.140122 50.795992 
" clip-path="url(#p28e3b519e8)" style="fill: #fcffa4"/>
    <path d="M 339.349441 50.795992 
L 360.55876 50.795992 
L 360.55876 36.283677 
L 339.349441 36.283677 
L 339.349441 50.795992 
" clip-path="url(#p28e3b519e8)" style="fill: #fcffa4"/>
    <path d="M 360.55876 50.795992 
L 381.768079 50.795992 
L 381.768079 36.283677 
L 360.55876 36.283677 
L 360.55876 50.795992 
" clip-path="url(#p28e3b519e8)" style="fill: #fcffa4"/>
    <path d="M 381.768079 50.795992 
L 402.977398 50.795992 
L 402.977398 36.283677 
L 381.768079 36.283677 
L 381.768079 50.795992 
" clip-path="url(#p28e3b519e8)" style="fill: #fcffa4"/>
    <path d="M 402.977398 50.795992 
L 424.186717 50.795992 
L 424.186717 36.283677 
L 402.977398 36.283677 
L 402.977398 50.795992 
" clip-path="url(#p28e3b519e8)" style="fill: #fcffa4"/>
    <path d="M 424.186717 50.795992 
L 445.396035 50.795992 
L 445.396035 36.283677 
L 424.186717 36.283677 
L 424.186717 50.795992 
" clip-path="url(#p28e3b519e8)" style="fill: #fcffa4"/>
    <path d="M 445.396035 50.795992 
L 466.605354 50.795992 
L 466.605354 36.283677 
L 445.396035 36.283677 
L 445.396035 50.795992 
" clip-path="url(#p28e3b519e8)" style="fill: #fcffa4"/>
    <path d="M 42.418977 36.283677 
L 63.628296 36.283677 
L 63.628296 21.771361 
L 42.418977 21.771361 
L 42.418977 36.283677 
" clip-path="url(#p28e3b519e8)" style="fill: #000004"/>
    <path d="M 63.628296 36.283677 
L 84.837614 36.283677 
L 84.837614 21.771361 
L 63.628296 21.771361 
L 63.628296 36.283677 
" clip-path="url(#p28e3b519e8)" style="fill: #000004"/>
    <path d="M 84.837614 36.283677 
L 106.046933 36.283677 
L 106.046933 21.771361 
L 84.837614 21.771361 
L 84.837614 36.283677 
" clip-path="url(#p28e3b519e8)" style="fill: #2b0b57"/>
    <path d="M 106.046933 36.283677 
L 127.256252 36.283677 
L 127.256252 21.771361 
L 106.046933 21.771361 
L 106.046933 36.283677 
" clip-path="url(#p28e3b519e8)" style="fill: #a82e5f"/>
    <path d="M 127.256252 36.283677 
L 148.465571 36.283677 
L 148.465571 21.771361 
L 127.256252 21.771361 
L 127.256252 36.283677 
" clip-path="url(#p28e3b519e8)" style="fill: #fcffa4"/>
    <path d="M 148.465571 36.283677 
L 169.67489 36.283677 
L 169.67489 21.771361 
L 148.465571 21.771361 
L 148.465571 36.283677 
" clip-path="url(#p28e3b519e8)" style="fill: #fcffa4"/>
    <path d="M 169.67489 36.283677 
L 190.884209 36.283677 
L 190.884209 21.771361 
L 169.67489 21.771361 
L 169.67489 36.283677 
" clip-path="url(#p28e3b519e8)" style="fill: #fcffa4"/>
    <path d="M 190.884209 36.283677 
L 212.093528 36.283677 
L 212.093528 21.771361 
L 190.884209 21.771361 
L 190.884209 36.283677 
" clip-path="url(#p28e3b519e8)" style="fill: #fcffa4"/>
    <path d="M 212.093528 36.283677 
L 233.302847 36.283677 
L 233.302847 21.771361 
L 212.093528 21.771361 
L 212.093528 36.283677 
" clip-path="url(#p28e3b519e8)" style="fill: #fcffa4"/>
    <path d="M 233.302847 36.283677 
L 254.512166 36.283677 
L 254.512166 21.771361 
L 233.302847 21.771361 
L 233.302847 36.283677 
" clip-path="url(#p28e3b519e8)" style="fill: #fcffa4"/>
    <path d="M 254.512166 36.283677 
L 275.721484 36.283677 
L 275.721484 21.771361 
L 254.512166 21.771361 
L 254.512166 36.283677 
" clip-path="url(#p28e3b519e8)" style="fill: #fcffa4"/>
    <path d="M 275.721484 36.283677 
L 296.930803 36.283677 
L 296.930803 21.771361 
L 275.721484 21.771361 
L 275.721484 36.283677 
" clip-path="url(#p28e3b519e8)" style="fill: #fcffa4"/>
    <path d="M 296.930803 36.283677 
L 318.140122 36.283677 
L 318.140122 21.771361 
L 296.930803 21.771361 
L 296.930803 36.283677 
" clip-path="url(#p28e3b519e8)" style="fill: #fcffa4"/>
    <path d="M 318.140122 36.283677 
L 339.349441 36.283677 
L 339.349441 21.771361 
L 318.140122 21.771361 
L 318.140122 36.283677 
" clip-path="url(#p28e3b519e8)" style="fill: #fcffa4"/>
    <path d="M 339.349441 36.283677 
L 360.55876 36.283677 
L 360.55876 21.771361 
L 339.349441 21.771361 
L 339.349441 36.283677 
" clip-path="url(#p28e3b519e8)" style="fill: #fcffa4"/>
    <path d="M 360.55876 36.283677 
L 381.768079 36.283677 
L 381.768079 21.771361 
L 360.55876 21.771361 
L 360.55876 36.283677 
" clip-path="url(#p28e3b519e8)" style="fill: #fcffa4"/>
    <path d="M 381.768079 36.283677 
L 402.977398 36.283677 
L 402.977398 21.771361 
L 381.768079 21.771361 
L 381.768079 36.283677 
" clip-path="url(#p28e3b519e8)" style="fill: #fcffa4"/>
    <path d="M 402.977398 36.283677 
L 424.186717 36.283677 
L 424.186717 21.771361 
L 402.977398 21.771361 
L 402.977398 36.283677 
" clip-path="url(#p28e3b519e8)" style="fill: #fcffa4"/>
    <path d="M 424.186717 36.283677 
L 445.396035 36.283677 
L 445.396035 21.771361 
L 424.186717 21.771361 
L 424.186717 36.283677 
" clip-path="url(#p28e3b519e8)" style="fill: #fcffa4"/>
    <path d="M 445.396035 36.283677 
L 466.605354 36.283677 
L 466.605354 21.771361 
L 445.396035 21.771361 
L 445.396035 36.283677 
" clip-path="url(#p28e3b519e8)" style="fill: #fcffa4"/>
    <path d="M 42.418977 21.771361 
L 63.628296 21.771361 
L 63.628296 7.259046 
L 42.418977 7.259046 
L 42.418977 21.771361 
" clip-path="url(#p28e3b519e8)" style="fill: #000004"/>
    <path d="M 63.628296 21.771361 
L 84.837614 21.771361 
L 84.837614 7.259046 
L 63.628296 7.259046 
L 63.628296 21.771361 
" clip-path="url(#p28e3b519e8)" style="fill: #000004"/>
    <path d="M 84.837614 21.771361 
L 106.046933 21.771361 
L 106.046933 7.259046 
L 84.837614 7.259046 
L 84.837614 21.771361 
" clip-path="url(#p28e3b519e8)" style="fill: #4a0c6b"/>
    <path d="M 106.046933 21.771361 
L 127.256252 21.771361 
L 127.256252 7.259046 
L 106.046933 7.259046 
L 106.046933 21.771361 
" clip-path="url(#p28e3b519e8)" style="fill: #fcffa4"/>
    <path d="M 127.256252 21.771361 
L 148.465571 21.771361 
L 148.465571 7.259046 
L 127.256252 7.259046 
L 127.256252 21.771361 
" clip-path="url(#p28e3b519e8)" style="fill: #fcffa4"/>
    <path d="M 148.465571 21.771361 
L 169.67489 21.771361 
L 169.67489 7.259046 
L 148.465571 7.259046 
L 148.465571 21.771361 
" clip-path="url(#p28e3b519e8)" style="fill: #fcffa4"/>
    <path d="M 169.67489 21.771361 
L 190.884209 21.771361 
L 190.884209 7.259046 
L 169.67489 7.259046 
L 169.67489 21.771361 
" clip-path="url(#p28e3b519e8)" style="fill: #fcffa4"/>
    <path d="M 190.884209 21.771361 
L 212.093528 21.771361 
L 212.093528 7.259046 
L 190.884209 7.259046 
L 190.884209 21.771361 
" clip-path="url(#p28e3b519e8)" style="fill: #fcffa4"/>
    <path d="M 212.093528 21.771361 
L 233.302847 21.771361 
L 233.302847 7.259046 
L 212.093528 7.259046 
L 212.093528 21.771361 
" clip-path="url(#p28e3b519e8)" style="fill: #fcffa4"/>
    <path d="M 233.302847 21.771361 
L 254.512166 21.771361 
L 254.512166 7.259046 
L 233.302847 7.259046 
L 233.302847 21.771361 
" clip-path="url(#p28e3b519e8)" style="fill: #fcffa4"/>
    <path d="M 254.512166 21.771361 
L 275.721484 21.771361 
L 275.721484 7.259046 
L 254.512166 7.259046 
L 254.512166 21.771361 
" clip-path="url(#p28e3b519e8)" style="fill: #fcffa4"/>
    <path d="M 275.721484 21.771361 
L 296.930803 21.771361 
L 296.930803 7.259046 
L 275.721484 7.259046 
L 275.721484 21.771361 
" clip-path="url(#p28e3b519e8)" style="fill: #fcffa4"/>
    <path d="M 296.930803 21.771361 
L 318.140122 21.771361 
L 318.140122 7.259046 
L 296.930803 7.259046 
L 296.930803 21.771361 
" clip-path="url(#p28e3b519e8)" style="fill: #fcffa4"/>
    <path d="M 318.140122 21.771361 
L 339.349441 21.771361 
L 339.349441 7.259046 
L 318.140122 7.259046 
L 318.140122 21.771361 
" clip-path="url(#p28e3b519e8)" style="fill: #fcffa4"/>
    <path d="M 339.349441 21.771361 
L 360.55876 21.771361 
L 360.55876 7.259046 
L 339.349441 7.259046 
L 339.349441 21.771361 
" clip-path="url(#p28e3b519e8)" style="fill: #fcffa4"/>
    <path d="M 360.55876 21.771361 
L 381.768079 21.771361 
L 381.768079 7.259046 
L 360.55876 7.259046 
L 360.55876 21.771361 
" clip-path="url(#p28e3b519e8)" style="fill: #fcffa4"/>
    <path d="M 381.768079 21.771361 
L 402.977398 21.771361 
L 402.977398 7.259046 
L 381.768079 7.259046 
L 381.768079 21.771361 
" clip-path="url(#p28e3b519e8)" style="fill: #fcffa4"/>
    <path d="M 402.977398 21.771361 
L 424.186717 21.771361 
L 424.186717 7.259046 
L 402.977398 7.259046 
L 402.977398 21.771361 
" clip-path="url(#p28e3b519e8)" style="fill: #fcffa4"/>
    <path d="M 424.186717 21.771361 
L 445.396035 21.771361 
L 445.396035 7.259046 
L 424.186717 7.259046 
L 424.186717 21.771361 
" clip-path="url(#p28e3b519e8)" style="fill: #fcffa4"/>
    <path d="M 445.396035 21.771361 
L 466.605354 21.771361 
L 466.605354 7.259046 
L 445.396035 7.259046 
L 445.396035 21.771361 
" clip-path="url(#p28e3b519e8)" style="fill: #fcffa4"/>
   </g>
   <g id="matplotlib.axis_1">
    <g id="xtick_1">
     <g id="line2d_1">
      <defs>
       <path id="mbf85e08306" d="M 0 0 
L 0 -5 
" style="stroke: #000000"/>
      </defs>
      <g>
       <use xlink:href="#mbf85e08306" x="120.186479" y="297.505354" style="stroke: #000000"/>
      </g>
     </g>
     <g id="text_1">
      <!-- $0.8$ -->
      <g transform="translate(102.266479 322.280979) scale(0.28 -0.28)">
       <defs>
        <path id="Cmr10-30" d="M 1600 -141 
Q 816 -141 533 504 
Q 250 1150 250 2041 
Q 250 2597 351 3087 
Q 453 3578 754 3920 
Q 1056 4263 1600 4263 
Q 2022 4263 2290 4056 
Q 2559 3850 2700 3523 
Q 2841 3197 2892 2823 
Q 2944 2450 2944 2041 
Q 2944 1491 2842 1011 
Q 2741 531 2444 195 
Q 2147 -141 1600 -141 
z
M 1600 25 
Q 1956 25 2131 390 
Q 2306 756 2347 1200 
Q 2388 1644 2388 2144 
Q 2388 2625 2347 3031 
Q 2306 3438 2132 3767 
Q 1959 4097 1600 4097 
Q 1238 4097 1063 3765 
Q 888 3434 847 3029 
Q 806 2625 806 2144 
Q 806 1788 823 1472 
Q 841 1156 916 820 
Q 991 484 1158 254 
Q 1325 25 1600 25 
z
" transform="scale(0.015625)"/>
        <path id="Cmmi10-3a" d="M 538 353 
Q 538 497 644 600 
Q 750 703 891 703 
Q 978 703 1062 656 
Q 1147 609 1194 525 
Q 1241 441 1241 353 
Q 1241 213 1137 106 
Q 1034 0 891 0 
Q 750 0 644 106 
Q 538 213 538 353 
z
" transform="scale(0.015625)"/>
        <path id="Cmr10-38" d="M 269 972 
Q 269 1356 522 1651 
Q 775 1947 1172 2144 
L 934 2297 
Q 716 2441 578 2680 
Q 441 2919 441 3181 
Q 441 3488 602 3734 
Q 763 3981 1030 4122 
Q 1297 4263 1600 4263 
Q 1884 4263 2148 4147 
Q 2413 4031 2583 3815 
Q 2753 3600 2753 3303 
Q 2753 3088 2651 2903 
Q 2550 2719 2373 2572 
Q 2197 2425 1997 2322 
L 2363 2088 
Q 2616 1922 2770 1653 
Q 2925 1384 2925 1088 
Q 2925 741 2739 456 
Q 2553 172 2247 15 
Q 1941 -141 1600 -141 
Q 1269 -141 961 -6 
Q 653 128 461 383 
Q 269 638 269 972 
z
M 616 972 
Q 616 719 755 509 
Q 894 300 1122 181 
Q 1350 63 1600 63 
Q 1972 63 2275 280 
Q 2578 497 2578 856 
Q 2578 978 2529 1098 
Q 2481 1219 2395 1317 
Q 2309 1416 2203 1478 
L 1344 2034 
Q 1144 1928 976 1765 
Q 809 1603 712 1400 
Q 616 1197 616 972 
z
M 1056 2925 
L 1831 2425 
Q 2100 2581 2272 2803 
Q 2444 3025 2444 3303 
Q 2444 3519 2323 3698 
Q 2203 3878 2009 3978 
Q 1816 4078 1594 4078 
Q 1400 4078 1203 4003 
Q 1006 3928 878 3779 
Q 750 3631 750 3431 
Q 750 3131 1056 2925 
z
" transform="scale(0.015625)"/>
       </defs>
       <use xlink:href="#Cmr10-30" transform="translate(0 0.390625)"/>
       <use xlink:href="#Cmmi10-3a" transform="translate(50 0.390625)"/>
       <use xlink:href="#Cmr10-38" transform="translate(77.685547 0.390625)"/>
      </g>
     </g>
    </g>
    <g id="xtick_2">
     <g id="line2d_2">
      <g>
       <use xlink:href="#mbf85e08306" x="254.512166" y="297.505354" style="stroke: #000000"/>
      </g>
     </g>
     <g id="text_2">
      <!-- $1.0$ -->
      <g transform="translate(236.592166 322.280979) scale(0.28 -0.28)">
       <defs>
        <path id="Cmr10-31" d="M 594 0 
L 594 225 
Q 1394 225 1394 428 
L 1394 3788 
Q 1063 3628 556 3628 
L 556 3853 
Q 1341 3853 1741 4263 
L 1831 4263 
Q 1853 4263 1873 4245 
Q 1894 4228 1894 4206 
L 1894 428 
Q 1894 225 2694 225 
L 2694 0 
L 594 0 
z
" transform="scale(0.015625)"/>
       </defs>
       <use xlink:href="#Cmr10-31" transform="translate(0 0.390625)"/>
       <use xlink:href="#Cmmi10-3a" transform="translate(50 0.390625)"/>
       <use xlink:href="#Cmr10-30" transform="translate(77.685547 0.390625)"/>
      </g>
     </g>
    </g>
    <g id="xtick_3">
     <g id="line2d_3">
      <g>
       <use xlink:href="#mbf85e08306" x="388.837852" y="297.505354" style="stroke: #000000"/>
      </g>
     </g>
     <g id="text_3">
      <!-- $1.2$ -->
      <g transform="translate(370.917852 322.280979) scale(0.28 -0.28)">
       <defs>
        <path id="Cmr10-32" d="M 319 0 
L 319 172 
Q 319 188 331 206 
L 1325 1306 
Q 1550 1550 1690 1715 
Q 1831 1881 1968 2097 
Q 2106 2313 2186 2536 
Q 2266 2759 2266 3009 
Q 2266 3272 2169 3511 
Q 2072 3750 1880 3894 
Q 1688 4038 1416 4038 
Q 1138 4038 916 3870 
Q 694 3703 603 3438 
Q 628 3444 672 3444 
Q 816 3444 917 3347 
Q 1019 3250 1019 3097 
Q 1019 2950 917 2848 
Q 816 2747 672 2747 
Q 522 2747 420 2851 
Q 319 2956 319 3097 
Q 319 3338 409 3548 
Q 500 3759 670 3923 
Q 841 4088 1055 4175 
Q 1269 4263 1509 4263 
Q 1875 4263 2190 4108 
Q 2506 3953 2690 3670 
Q 2875 3388 2875 3009 
Q 2875 2731 2753 2481 
Q 2631 2231 2440 2026 
Q 2250 1822 1953 1562 
Q 1656 1303 1563 1216 
L 838 519 
L 1453 519 
Q 1906 519 2211 526 
Q 2516 534 2534 550 
Q 2609 631 2688 1141 
L 2875 1141 
L 2694 0 
L 319 0 
z
" transform="scale(0.015625)"/>
       </defs>
       <use xlink:href="#Cmr10-31" transform="translate(0 0.390625)"/>
       <use xlink:href="#Cmmi10-3a" transform="translate(50 0.390625)"/>
       <use xlink:href="#Cmr10-32" transform="translate(77.685547 0.390625)"/>
      </g>
     </g>
    </g>
   </g>
   <g id="matplotlib.axis_2">
    <g id="ytick_1">
     <g id="line2d_4">
      <defs>
       <path id="ma844030b46" d="M 0 0 
L 5 0 
" style="stroke: #000000"/>
      </defs>
      <g>
       <use xlink:href="#ma844030b46" x="42.418977" y="290.249197" style="stroke: #000000"/>
      </g>
     </g>
     <g id="text_4">
      <!-- $0.0$ -->
      <g transform="translate(3.078977 300.887009) scale(0.28 -0.28)">
       <use xlink:href="#Cmr10-30" transform="translate(0 0.390625)"/>
       <use xlink:href="#Cmmi10-3a" transform="translate(50 0.390625)"/>
       <use xlink:href="#Cmr10-30" transform="translate(77.685547 0.390625)"/>
      </g>
     </g>
    </g>
    <g id="ytick_2">
     <g id="line2d_5">
      <g>
       <use xlink:href="#ma844030b46" x="42.418977" y="152.3822" style="stroke: #000000"/>
      </g>
     </g>
     <g id="text_5">
      <!-- $0.5$ -->
      <g transform="translate(3.078977 163.020013) scale(0.28 -0.28)">
       <defs>
        <path id="Cmr10-35" d="M 556 728 
Q 622 541 758 387 
Q 894 234 1080 148 
Q 1266 63 1466 63 
Q 1928 63 2103 422 
Q 2278 781 2278 1294 
Q 2278 1516 2270 1667 
Q 2263 1819 2228 1959 
Q 2169 2184 2020 2353 
Q 1872 2522 1656 2522 
Q 1441 2522 1286 2456 
Q 1131 2391 1034 2303 
Q 938 2216 863 2119 
Q 788 2022 769 2016 
L 697 2016 
Q 681 2016 657 2036 
Q 634 2056 634 2075 
L 634 4213 
Q 634 4228 654 4245 
Q 675 4263 697 4263 
L 716 4263 
Q 1147 4056 1631 4056 
Q 2106 4056 2547 4263 
L 2566 4263 
Q 2588 4263 2606 4247 
Q 2625 4231 2625 4213 
L 2625 4153 
Q 2625 4122 2613 4122 
Q 2394 3831 2064 3668 
Q 1734 3506 1381 3506 
Q 1125 3506 856 3578 
L 856 2369 
Q 1069 2541 1236 2614 
Q 1403 2688 1663 2688 
Q 2016 2688 2295 2484 
Q 2575 2281 2725 1954 
Q 2875 1628 2875 1288 
Q 2875 903 2686 575 
Q 2497 247 2172 53 
Q 1847 -141 1466 -141 
Q 1150 -141 886 21 
Q 622 184 470 459 
Q 319 734 319 1044 
Q 319 1188 412 1278 
Q 506 1369 647 1369 
Q 788 1369 883 1276 
Q 978 1184 978 1044 
Q 978 906 883 811 
Q 788 716 647 716 
Q 625 716 597 720 
Q 569 725 556 728 
z
" transform="scale(0.015625)"/>
       </defs>
       <use xlink:href="#Cmr10-30" transform="translate(0 0.390625)"/>
       <use xlink:href="#Cmmi10-3a" transform="translate(50 0.390625)"/>
       <use xlink:href="#Cmr10-35" transform="translate(77.685547 0.390625)"/>
      </g>
     </g>
    </g>
    <g id="ytick_3">
     <g id="line2d_6">
      <g>
       <use xlink:href="#ma844030b46" x="42.418977" y="14.515203" style="stroke: #000000"/>
      </g>
     </g>
     <g id="text_6">
      <!-- $1.0$ -->
      <g transform="translate(3.078977 25.153016) scale(0.28 -0.28)">
       <use xlink:href="#Cmr10-31" transform="translate(0 0.390625)"/>
       <use xlink:href="#Cmmi10-3a" transform="translate(50 0.390625)"/>
       <use xlink:href="#Cmr10-30" transform="translate(77.685547 0.390625)"/>
      </g>
     </g>
    </g>
   </g>
   <g id="patch_3">
    <path d="M 42.418977 297.505354 
L 42.418977 7.259046 
" style="fill: none; stroke: #000000; stroke-width: 2; stroke-linejoin: miter; stroke-linecap: square"/>
   </g>
   <g id="patch_4">
    <path d="M 42.418977 297.505354 
L 466.605354 297.505354 
" style="fill: none; stroke: #000000; stroke-width: 2; stroke-linejoin: miter; stroke-linecap: square"/>
   </g>
  </g>
 </g>
 <defs>
  <clipPath id="p28e3b519e8">
   <rect x="42.418977" y="7.259046" width="424.186378" height="290.246309"/>
  </clipPath>
 </defs>
</svg>
