<?xml version="1.0" encoding="utf-8" standalone="no"?>
<!DOCTYPE svg PUBLIC "-//W3C//DTD SVG 1.1//EN"
  "http://www.w3.org/Graphics/SVG/1.1/DTD/svg11.dtd">
<svg xmlns:xlink="http://www.w3.org/1999/xlink" width="466.56pt" height="336.96pt" viewBox="0 0 466.56 336.96" xmlns="http://www.w3.org/2000/svg" version="1.1">
 <metadata>
  <rdf:RDF xmlns:dc="http://purl.org/dc/elements/1.1/" xmlns:cc="http://creativecommons.org/ns#" xmlns:rdf="http://www.w3.org/1999/02/22-rdf-syntax-ns#">
   <cc:Work>
    <dc:type rdf:resource="http://purl.org/dc/dcmitype/StillImage"/>
    <dc:date>2024-04-27T16:44:21.961766</dc:date>
    <dc:format>image/svg+xml</dc:format>
    <dc:creator>
     <cc:Agent>
      <dc:title>Matplotlib v3.7.0, https://matplotlib.org/</dc:title>
     </cc:Agent>
    </dc:creator>
   </cc:Work>
  </rdf:RDF>
 </metadata>
 <defs>
  <style type="text/css">*{stroke-linejoin: round; stroke-linecap: butt}</style>
 </defs>
 <g id="figure_1">
  <g id="patch_1">
   <path d="M 0 336.96 
L 466.56 336.96 
L 466.56 0 
L 0 0 
L 0 336.96 
z
" style="fill: none"/>
  </g>
  <g id="axes_1">
   <g id="patch_2">
    <path d="M 42.418977 303.265354 
L 463.725354 303.265354 
L 463.725354 7.148166 
L 42.418977 7.148166 
L 42.418977 303.265354 
z
" style="fill: none"/>
   </g>
   <g id="QuadMesh_1">
    <path d="M 42.418977 303.265354 
L 63.484296 303.265354 
L 63.484296 288.459495 
L 42.418977 288.459495 
L 42.418977 303.265354 
" clip-path="url(#p2111324a0a)" style="fill: #000004"/>
    <path d="M 63.484296 303.265354 
L 84.549614 303.265354 
L 84.549614 288.459495 
L 63.484296 288.459495 
L 63.484296 303.265354 
" clip-path="url(#p2111324a0a)" style="fill: #000004"/>
    <path d="M 84.549614 303.265354 
L 105.614933 303.265354 
L 105.614933 288.459495 
L 84.549614 288.459495 
L 84.549614 303.265354 
" clip-path="url(#p2111324a0a)" style="fill: #000004"/>
    <path d="M 105.614933 303.265354 
L 126.680252 303.265354 
L 126.680252 288.459495 
L 105.614933 288.459495 
L 105.614933 303.265354 
" clip-path="url(#p2111324a0a)" style="fill: #000004"/>
    <path d="M 126.680252 303.265354 
L 147.745571 303.265354 
L 147.745571 288.459495 
L 126.680252 288.459495 
L 126.680252 303.265354 
" clip-path="url(#p2111324a0a)" style="fill: #000004"/>
    <path d="M 147.745571 303.265354 
L 168.81089 303.265354 
L 168.81089 288.459495 
L 147.745571 288.459495 
L 147.745571 303.265354 
" clip-path="url(#p2111324a0a)" style="fill: #000004"/>
    <path d="M 168.81089 303.265354 
L 189.876209 303.265354 
L 189.876209 288.459495 
L 168.81089 288.459495 
L 168.81089 303.265354 
" clip-path="url(#p2111324a0a)" style="fill: #000004"/>
    <path d="M 189.876209 303.265354 
L 210.941528 303.265354 
L 210.941528 288.459495 
L 189.876209 288.459495 
L 189.876209 303.265354 
" clip-path="url(#p2111324a0a)" style="fill: #000004"/>
    <path d="M 210.941528 303.265354 
L 232.006847 303.265354 
L 232.006847 288.459495 
L 210.941528 288.459495 
L 210.941528 303.265354 
" clip-path="url(#p2111324a0a)" style="fill: #000004"/>
    <path d="M 232.006847 303.265354 
L 253.072166 303.265354 
L 253.072166 288.459495 
L 232.006847 288.459495 
L 232.006847 303.265354 
" clip-path="url(#p2111324a0a)" style="fill: #000004"/>
    <path d="M 253.072166 303.265354 
L 274.137484 303.265354 
L 274.137484 288.459495 
L 253.072166 288.459495 
L 253.072166 303.265354 
" clip-path="url(#p2111324a0a)" style="fill: #000004"/>
    <path d="M 274.137484 303.265354 
L 295.202803 303.265354 
L 295.202803 288.459495 
L 274.137484 288.459495 
L 274.137484 303.265354 
" clip-path="url(#p2111324a0a)" style="fill: #000004"/>
    <path d="M 295.202803 303.265354 
L 316.268122 303.265354 
L 316.268122 288.459495 
L 295.202803 288.459495 
L 295.202803 303.265354 
" clip-path="url(#p2111324a0a)" style="fill: #000004"/>
    <path d="M 316.268122 303.265354 
L 337.333441 303.265354 
L 337.333441 288.459495 
L 316.268122 288.459495 
L 316.268122 303.265354 
" clip-path="url(#p2111324a0a)" style="fill: #000004"/>
    <path d="M 337.333441 303.265354 
L 358.39876 303.265354 
L 358.39876 288.459495 
L 337.333441 288.459495 
L 337.333441 303.265354 
" clip-path="url(#p2111324a0a)" style="fill: #000004"/>
    <path d="M 358.39876 303.265354 
L 379.464079 303.265354 
L 379.464079 288.459495 
L 358.39876 288.459495 
L 358.39876 303.265354 
" clip-path="url(#p2111324a0a)" style="fill: #000004"/>
    <path d="M 379.464079 303.265354 
L 400.529398 303.265354 
L 400.529398 288.459495 
L 379.464079 288.459495 
L 379.464079 303.265354 
" clip-path="url(#p2111324a0a)" style="fill: #000004"/>
    <path d="M 400.529398 303.265354 
L 421.594717 303.265354 
L 421.594717 288.459495 
L 400.529398 288.459495 
L 400.529398 303.265354 
" clip-path="url(#p2111324a0a)" style="fill: #000004"/>
    <path d="M 421.594717 303.265354 
L 442.660035 303.265354 
L 442.660035 288.459495 
L 421.594717 288.459495 
L 421.594717 303.265354 
" clip-path="url(#p2111324a0a)" style="fill: #000004"/>
    <path d="M 442.660035 303.265354 
L 463.725354 303.265354 
L 463.725354 288.459495 
L 442.660035 288.459495 
L 442.660035 303.265354 
" clip-path="url(#p2111324a0a)" style="fill: #000004"/>
    <path d="M 42.418977 288.459495 
L 63.484296 288.459495 
L 63.484296 273.653635 
L 42.418977 273.653635 
L 42.418977 288.459495 
" clip-path="url(#p2111324a0a)" style="fill: #000004"/>
    <path d="M 63.484296 288.459495 
L 84.549614 288.459495 
L 84.549614 273.653635 
L 63.484296 273.653635 
L 63.484296 288.459495 
" clip-path="url(#p2111324a0a)" style="fill: #000004"/>
    <path d="M 84.549614 288.459495 
L 105.614933 288.459495 
L 105.614933 273.653635 
L 84.549614 273.653635 
L 84.549614 288.459495 
" clip-path="url(#p2111324a0a)" style="fill: #000004"/>
    <path d="M 105.614933 288.459495 
L 126.680252 288.459495 
L 126.680252 273.653635 
L 105.614933 273.653635 
L 105.614933 288.459495 
" clip-path="url(#p2111324a0a)" style="fill: #000004"/>
    <path d="M 126.680252 288.459495 
L 147.745571 288.459495 
L 147.745571 273.653635 
L 126.680252 273.653635 
L 126.680252 288.459495 
" clip-path="url(#p2111324a0a)" style="fill: #000004"/>
    <path d="M 147.745571 288.459495 
L 168.81089 288.459495 
L 168.81089 273.653635 
L 147.745571 273.653635 
L 147.745571 288.459495 
" clip-path="url(#p2111324a0a)" style="fill: #000004"/>
    <path d="M 168.81089 288.459495 
L 189.876209 288.459495 
L 189.876209 273.653635 
L 168.81089 273.653635 
L 168.81089 288.459495 
" clip-path="url(#p2111324a0a)" style="fill: #000004"/>
    <path d="M 189.876209 288.459495 
L 210.941528 288.459495 
L 210.941528 273.653635 
L 189.876209 273.653635 
L 189.876209 288.459495 
" clip-path="url(#p2111324a0a)" style="fill: #000004"/>
    <path d="M 210.941528 288.459495 
L 232.006847 288.459495 
L 232.006847 273.653635 
L 210.941528 273.653635 
L 210.941528 288.459495 
" clip-path="url(#p2111324a0a)" style="fill: #000004"/>
    <path d="M 232.006847 288.459495 
L 253.072166 288.459495 
L 253.072166 273.653635 
L 232.006847 273.653635 
L 232.006847 288.459495 
" clip-path="url(#p2111324a0a)" style="fill: #fcffa4"/>
    <path d="M 253.072166 288.459495 
L 274.137484 288.459495 
L 274.137484 273.653635 
L 253.072166 273.653635 
L 253.072166 288.459495 
" clip-path="url(#p2111324a0a)" style="fill: #000004"/>
    <path d="M 274.137484 288.459495 
L 295.202803 288.459495 
L 295.202803 273.653635 
L 274.137484 273.653635 
L 274.137484 288.459495 
" clip-path="url(#p2111324a0a)" style="fill: #000004"/>
    <path d="M 295.202803 288.459495 
L 316.268122 288.459495 
L 316.268122 273.653635 
L 295.202803 273.653635 
L 295.202803 288.459495 
" clip-path="url(#p2111324a0a)" style="fill: #000004"/>
    <path d="M 316.268122 288.459495 
L 337.333441 288.459495 
L 337.333441 273.653635 
L 316.268122 273.653635 
L 316.268122 288.459495 
" clip-path="url(#p2111324a0a)" style="fill: #000004"/>
    <path d="M 337.333441 288.459495 
L 358.39876 288.459495 
L 358.39876 273.653635 
L 337.333441 273.653635 
L 337.333441 288.459495 
" clip-path="url(#p2111324a0a)" style="fill: #000004"/>
    <path d="M 358.39876 288.459495 
L 379.464079 288.459495 
L 379.464079 273.653635 
L 358.39876 273.653635 
L 358.39876 288.459495 
" clip-path="url(#p2111324a0a)" style="fill: #000004"/>
    <path d="M 379.464079 288.459495 
L 400.529398 288.459495 
L 400.529398 273.653635 
L 379.464079 273.653635 
L 379.464079 288.459495 
" clip-path="url(#p2111324a0a)" style="fill: #000004"/>
    <path d="M 400.529398 288.459495 
L 421.594717 288.459495 
L 421.594717 273.653635 
L 400.529398 273.653635 
L 400.529398 288.459495 
" clip-path="url(#p2111324a0a)" style="fill: #000004"/>
    <path d="M 421.594717 288.459495 
L 442.660035 288.459495 
L 442.660035 273.653635 
L 421.594717 273.653635 
L 421.594717 288.459495 
" clip-path="url(#p2111324a0a)" style="fill: #000004"/>
    <path d="M 442.660035 288.459495 
L 463.725354 288.459495 
L 463.725354 273.653635 
L 442.660035 273.653635 
L 442.660035 288.459495 
" clip-path="url(#p2111324a0a)" style="fill: #000004"/>
    <path d="M 42.418977 273.653635 
L 63.484296 273.653635 
L 63.484296 258.847776 
L 42.418977 258.847776 
L 42.418977 273.653635 
" clip-path="url(#p2111324a0a)" style="fill: #000004"/>
    <path d="M 63.484296 273.653635 
L 84.549614 273.653635 
L 84.549614 258.847776 
L 63.484296 258.847776 
L 63.484296 273.653635 
" clip-path="url(#p2111324a0a)" style="fill: #000004"/>
    <path d="M 84.549614 273.653635 
L 105.614933 273.653635 
L 105.614933 258.847776 
L 84.549614 258.847776 
L 84.549614 273.653635 
" clip-path="url(#p2111324a0a)" style="fill: #000004"/>
    <path d="M 105.614933 273.653635 
L 126.680252 273.653635 
L 126.680252 258.847776 
L 105.614933 258.847776 
L 105.614933 273.653635 
" clip-path="url(#p2111324a0a)" style="fill: #000004"/>
    <path d="M 126.680252 273.653635 
L 147.745571 273.653635 
L 147.745571 258.847776 
L 126.680252 258.847776 
L 126.680252 273.653635 
" clip-path="url(#p2111324a0a)" style="fill: #000004"/>
    <path d="M 147.745571 273.653635 
L 168.81089 273.653635 
L 168.81089 258.847776 
L 147.745571 258.847776 
L 147.745571 273.653635 
" clip-path="url(#p2111324a0a)" style="fill: #000004"/>
    <path d="M 168.81089 273.653635 
L 189.876209 273.653635 
L 189.876209 258.847776 
L 168.81089 258.847776 
L 168.81089 273.653635 
" clip-path="url(#p2111324a0a)" style="fill: #000004"/>
    <path d="M 189.876209 273.653635 
L 210.941528 273.653635 
L 210.941528 258.847776 
L 189.876209 258.847776 
L 189.876209 273.653635 
" clip-path="url(#p2111324a0a)" style="fill: #000004"/>
    <path d="M 210.941528 273.653635 
L 232.006847 273.653635 
L 232.006847 258.847776 
L 210.941528 258.847776 
L 210.941528 273.653635 
" clip-path="url(#p2111324a0a)" style="fill: #000004"/>
    <path d="M 232.006847 273.653635 
L 253.072166 273.653635 
L 253.072166 258.847776 
L 232.006847 258.847776 
L 232.006847 273.653635 
" clip-path="url(#p2111324a0a)" style="fill: #fcffa4"/>
    <path d="M 253.072166 273.653635 
L 274.137484 273.653635 
L 274.137484 258.847776 
L 253.072166 258.847776 
L 253.072166 273.653635 
" clip-path="url(#p2111324a0a)" style="fill: #fcffa4"/>
    <path d="M 274.137484 273.653635 
L 295.202803 273.653635 
L 295.202803 258.847776 
L 274.137484 258.847776 
L 274.137484 273.653635 
" clip-path="url(#p2111324a0a)" style="fill: #000004"/>
    <path d="M 295.202803 273.653635 
L 316.268122 273.653635 
L 316.268122 258.847776 
L 295.202803 258.847776 
L 295.202803 273.653635 
" clip-path="url(#p2111324a0a)" style="fill: #000004"/>
    <path d="M 316.268122 273.653635 
L 337.333441 273.653635 
L 337.333441 258.847776 
L 316.268122 258.847776 
L 316.268122 273.653635 
" clip-path="url(#p2111324a0a)" style="fill: #000004"/>
    <path d="M 337.333441 273.653635 
L 358.39876 273.653635 
L 358.39876 258.847776 
L 337.333441 258.847776 
L 337.333441 273.653635 
" clip-path="url(#p2111324a0a)" style="fill: #000004"/>
    <path d="M 358.39876 273.653635 
L 379.464079 273.653635 
L 379.464079 258.847776 
L 358.39876 258.847776 
L 358.39876 273.653635 
" clip-path="url(#p2111324a0a)" style="fill: #000004"/>
    <path d="M 379.464079 273.653635 
L 400.529398 273.653635 
L 400.529398 258.847776 
L 379.464079 258.847776 
L 379.464079 273.653635 
" clip-path="url(#p2111324a0a)" style="fill: #000004"/>
    <path d="M 400.529398 273.653635 
L 421.594717 273.653635 
L 421.594717 258.847776 
L 400.529398 258.847776 
L 400.529398 273.653635 
" clip-path="url(#p2111324a0a)" style="fill: #000004"/>
    <path d="M 421.594717 273.653635 
L 442.660035 273.653635 
L 442.660035 258.847776 
L 421.594717 258.847776 
L 421.594717 273.653635 
" clip-path="url(#p2111324a0a)" style="fill: #000004"/>
    <path d="M 442.660035 273.653635 
L 463.725354 273.653635 
L 463.725354 258.847776 
L 442.660035 258.847776 
L 442.660035 273.653635 
" clip-path="url(#p2111324a0a)" style="fill: #000004"/>
    <path d="M 42.418977 258.847776 
L 63.484296 258.847776 
L 63.484296 244.041917 
L 42.418977 244.041917 
L 42.418977 258.847776 
" clip-path="url(#p2111324a0a)" style="fill: #000004"/>
    <path d="M 63.484296 258.847776 
L 84.549614 258.847776 
L 84.549614 244.041917 
L 63.484296 244.041917 
L 63.484296 258.847776 
" clip-path="url(#p2111324a0a)" style="fill: #000004"/>
    <path d="M 84.549614 258.847776 
L 105.614933 258.847776 
L 105.614933 244.041917 
L 84.549614 244.041917 
L 84.549614 258.847776 
" clip-path="url(#p2111324a0a)" style="fill: #000004"/>
    <path d="M 105.614933 258.847776 
L 126.680252 258.847776 
L 126.680252 244.041917 
L 105.614933 244.041917 
L 105.614933 258.847776 
" clip-path="url(#p2111324a0a)" style="fill: #000004"/>
    <path d="M 126.680252 258.847776 
L 147.745571 258.847776 
L 147.745571 244.041917 
L 126.680252 244.041917 
L 126.680252 258.847776 
" clip-path="url(#p2111324a0a)" style="fill: #000004"/>
    <path d="M 147.745571 258.847776 
L 168.81089 258.847776 
L 168.81089 244.041917 
L 147.745571 244.041917 
L 147.745571 258.847776 
" clip-path="url(#p2111324a0a)" style="fill: #000004"/>
    <path d="M 168.81089 258.847776 
L 189.876209 258.847776 
L 189.876209 244.041917 
L 168.81089 244.041917 
L 168.81089 258.847776 
" clip-path="url(#p2111324a0a)" style="fill: #000004"/>
    <path d="M 189.876209 258.847776 
L 210.941528 258.847776 
L 210.941528 244.041917 
L 189.876209 244.041917 
L 189.876209 258.847776 
" clip-path="url(#p2111324a0a)" style="fill: #000004"/>
    <path d="M 210.941528 258.847776 
L 232.006847 258.847776 
L 232.006847 244.041917 
L 210.941528 244.041917 
L 210.941528 258.847776 
" clip-path="url(#p2111324a0a)" style="fill: #000004"/>
    <path d="M 232.006847 258.847776 
L 253.072166 258.847776 
L 253.072166 244.041917 
L 232.006847 244.041917 
L 232.006847 258.847776 
" clip-path="url(#p2111324a0a)" style="fill: #fcffa4"/>
    <path d="M 253.072166 258.847776 
L 274.137484 258.847776 
L 274.137484 244.041917 
L 253.072166 244.041917 
L 253.072166 258.847776 
" clip-path="url(#p2111324a0a)" style="fill: #fcffa4"/>
    <path d="M 274.137484 258.847776 
L 295.202803 258.847776 
L 295.202803 244.041917 
L 274.137484 244.041917 
L 274.137484 258.847776 
" clip-path="url(#p2111324a0a)" style="fill: #000004"/>
    <path d="M 295.202803 258.847776 
L 316.268122 258.847776 
L 316.268122 244.041917 
L 295.202803 244.041917 
L 295.202803 258.847776 
" clip-path="url(#p2111324a0a)" style="fill: #000004"/>
    <path d="M 316.268122 258.847776 
L 337.333441 258.847776 
L 337.333441 244.041917 
L 316.268122 244.041917 
L 316.268122 258.847776 
" clip-path="url(#p2111324a0a)" style="fill: #000004"/>
    <path d="M 337.333441 258.847776 
L 358.39876 258.847776 
L 358.39876 244.041917 
L 337.333441 244.041917 
L 337.333441 258.847776 
" clip-path="url(#p2111324a0a)" style="fill: #000004"/>
    <path d="M 358.39876 258.847776 
L 379.464079 258.847776 
L 379.464079 244.041917 
L 358.39876 244.041917 
L 358.39876 258.847776 
" clip-path="url(#p2111324a0a)" style="fill: #000004"/>
    <path d="M 379.464079 258.847776 
L 400.529398 258.847776 
L 400.529398 244.041917 
L 379.464079 244.041917 
L 379.464079 258.847776 
" clip-path="url(#p2111324a0a)" style="fill: #000004"/>
    <path d="M 400.529398 258.847776 
L 421.594717 258.847776 
L 421.594717 244.041917 
L 400.529398 244.041917 
L 400.529398 258.847776 
" clip-path="url(#p2111324a0a)" style="fill: #000004"/>
    <path d="M 421.594717 258.847776 
L 442.660035 258.847776 
L 442.660035 244.041917 
L 421.594717 244.041917 
L 421.594717 258.847776 
" clip-path="url(#p2111324a0a)" style="fill: #000004"/>
    <path d="M 442.660035 258.847776 
L 463.725354 258.847776 
L 463.725354 244.041917 
L 442.660035 244.041917 
L 442.660035 258.847776 
" clip-path="url(#p2111324a0a)" style="fill: #000004"/>
    <path d="M 42.418977 244.041917 
L 63.484296 244.041917 
L 63.484296 229.236057 
L 42.418977 229.236057 
L 42.418977 244.041917 
" clip-path="url(#p2111324a0a)" style="fill: #000004"/>
    <path d="M 63.484296 244.041917 
L 84.549614 244.041917 
L 84.549614 229.236057 
L 63.484296 229.236057 
L 63.484296 244.041917 
" clip-path="url(#p2111324a0a)" style="fill: #000004"/>
    <path d="M 84.549614 244.041917 
L 105.614933 244.041917 
L 105.614933 229.236057 
L 84.549614 229.236057 
L 84.549614 244.041917 
" clip-path="url(#p2111324a0a)" style="fill: #000004"/>
    <path d="M 105.614933 244.041917 
L 126.680252 244.041917 
L 126.680252 229.236057 
L 105.614933 229.236057 
L 105.614933 244.041917 
" clip-path="url(#p2111324a0a)" style="fill: #000004"/>
    <path d="M 126.680252 244.041917 
L 147.745571 244.041917 
L 147.745571 229.236057 
L 126.680252 229.236057 
L 126.680252 244.041917 
" clip-path="url(#p2111324a0a)" style="fill: #000004"/>
    <path d="M 147.745571 244.041917 
L 168.81089 244.041917 
L 168.81089 229.236057 
L 147.745571 229.236057 
L 147.745571 244.041917 
" clip-path="url(#p2111324a0a)" style="fill: #000004"/>
    <path d="M 168.81089 244.041917 
L 189.876209 244.041917 
L 189.876209 229.236057 
L 168.81089 229.236057 
L 168.81089 244.041917 
" clip-path="url(#p2111324a0a)" style="fill: #000004"/>
    <path d="M 189.876209 244.041917 
L 210.941528 244.041917 
L 210.941528 229.236057 
L 189.876209 229.236057 
L 189.876209 244.041917 
" clip-path="url(#p2111324a0a)" style="fill: #000004"/>
    <path d="M 210.941528 244.041917 
L 232.006847 244.041917 
L 232.006847 229.236057 
L 210.941528 229.236057 
L 210.941528 244.041917 
" clip-path="url(#p2111324a0a)" style="fill: #fcffa4"/>
    <path d="M 232.006847 244.041917 
L 253.072166 244.041917 
L 253.072166 229.236057 
L 232.006847 229.236057 
L 232.006847 244.041917 
" clip-path="url(#p2111324a0a)" style="fill: #fcffa4"/>
    <path d="M 253.072166 244.041917 
L 274.137484 244.041917 
L 274.137484 229.236057 
L 253.072166 229.236057 
L 253.072166 244.041917 
" clip-path="url(#p2111324a0a)" style="fill: #fcffa4"/>
    <path d="M 274.137484 244.041917 
L 295.202803 244.041917 
L 295.202803 229.236057 
L 274.137484 229.236057 
L 274.137484 244.041917 
" clip-path="url(#p2111324a0a)" style="fill: #fcffa4"/>
    <path d="M 295.202803 244.041917 
L 316.268122 244.041917 
L 316.268122 229.236057 
L 295.202803 229.236057 
L 295.202803 244.041917 
" clip-path="url(#p2111324a0a)" style="fill: #000004"/>
    <path d="M 316.268122 244.041917 
L 337.333441 244.041917 
L 337.333441 229.236057 
L 316.268122 229.236057 
L 316.268122 244.041917 
" clip-path="url(#p2111324a0a)" style="fill: #000004"/>
    <path d="M 337.333441 244.041917 
L 358.39876 244.041917 
L 358.39876 229.236057 
L 337.333441 229.236057 
L 337.333441 244.041917 
" clip-path="url(#p2111324a0a)" style="fill: #000004"/>
    <path d="M 358.39876 244.041917 
L 379.464079 244.041917 
L 379.464079 229.236057 
L 358.39876 229.236057 
L 358.39876 244.041917 
" clip-path="url(#p2111324a0a)" style="fill: #000004"/>
    <path d="M 379.464079 244.041917 
L 400.529398 244.041917 
L 400.529398 229.236057 
L 379.464079 229.236057 
L 379.464079 244.041917 
" clip-path="url(#p2111324a0a)" style="fill: #000004"/>
    <path d="M 400.529398 244.041917 
L 421.594717 244.041917 
L 421.594717 229.236057 
L 400.529398 229.236057 
L 400.529398 244.041917 
" clip-path="url(#p2111324a0a)" style="fill: #000004"/>
    <path d="M 421.594717 244.041917 
L 442.660035 244.041917 
L 442.660035 229.236057 
L 421.594717 229.236057 
L 421.594717 244.041917 
" clip-path="url(#p2111324a0a)" style="fill: #000004"/>
    <path d="M 442.660035 244.041917 
L 463.725354 244.041917 
L 463.725354 229.236057 
L 442.660035 229.236057 
L 442.660035 244.041917 
" clip-path="url(#p2111324a0a)" style="fill: #000004"/>
    <path d="M 42.418977 229.236057 
L 63.484296 229.236057 
L 63.484296 214.430198 
L 42.418977 214.430198 
L 42.418977 229.236057 
" clip-path="url(#p2111324a0a)" style="fill: #000004"/>
    <path d="M 63.484296 229.236057 
L 84.549614 229.236057 
L 84.549614 214.430198 
L 63.484296 214.430198 
L 63.484296 229.236057 
" clip-path="url(#p2111324a0a)" style="fill: #000004"/>
    <path d="M 84.549614 229.236057 
L 105.614933 229.236057 
L 105.614933 214.430198 
L 84.549614 214.430198 
L 84.549614 229.236057 
" clip-path="url(#p2111324a0a)" style="fill: #000004"/>
    <path d="M 105.614933 229.236057 
L 126.680252 229.236057 
L 126.680252 214.430198 
L 105.614933 214.430198 
L 105.614933 229.236057 
" clip-path="url(#p2111324a0a)" style="fill: #000004"/>
    <path d="M 126.680252 229.236057 
L 147.745571 229.236057 
L 147.745571 214.430198 
L 126.680252 214.430198 
L 126.680252 229.236057 
" clip-path="url(#p2111324a0a)" style="fill: #000004"/>
    <path d="M 147.745571 229.236057 
L 168.81089 229.236057 
L 168.81089 214.430198 
L 147.745571 214.430198 
L 147.745571 229.236057 
" clip-path="url(#p2111324a0a)" style="fill: #000004"/>
    <path d="M 168.81089 229.236057 
L 189.876209 229.236057 
L 189.876209 214.430198 
L 168.81089 214.430198 
L 168.81089 229.236057 
" clip-path="url(#p2111324a0a)" style="fill: #000004"/>
    <path d="M 189.876209 229.236057 
L 210.941528 229.236057 
L 210.941528 214.430198 
L 189.876209 214.430198 
L 189.876209 229.236057 
" clip-path="url(#p2111324a0a)" style="fill: #000004"/>
    <path d="M 210.941528 229.236057 
L 232.006847 229.236057 
L 232.006847 214.430198 
L 210.941528 214.430198 
L 210.941528 229.236057 
" clip-path="url(#p2111324a0a)" style="fill: #fcffa4"/>
    <path d="M 232.006847 229.236057 
L 253.072166 229.236057 
L 253.072166 214.430198 
L 232.006847 214.430198 
L 232.006847 229.236057 
" clip-path="url(#p2111324a0a)" style="fill: #fcffa4"/>
    <path d="M 253.072166 229.236057 
L 274.137484 229.236057 
L 274.137484 214.430198 
L 253.072166 214.430198 
L 253.072166 229.236057 
" clip-path="url(#p2111324a0a)" style="fill: #fcffa4"/>
    <path d="M 274.137484 229.236057 
L 295.202803 229.236057 
L 295.202803 214.430198 
L 274.137484 214.430198 
L 274.137484 229.236057 
" clip-path="url(#p2111324a0a)" style="fill: #fcffa4"/>
    <path d="M 295.202803 229.236057 
L 316.268122 229.236057 
L 316.268122 214.430198 
L 295.202803 214.430198 
L 295.202803 229.236057 
" clip-path="url(#p2111324a0a)" style="fill: #000004"/>
    <path d="M 316.268122 229.236057 
L 337.333441 229.236057 
L 337.333441 214.430198 
L 316.268122 214.430198 
L 316.268122 229.236057 
" clip-path="url(#p2111324a0a)" style="fill: #000004"/>
    <path d="M 337.333441 229.236057 
L 358.39876 229.236057 
L 358.39876 214.430198 
L 337.333441 214.430198 
L 337.333441 229.236057 
" clip-path="url(#p2111324a0a)" style="fill: #000004"/>
    <path d="M 358.39876 229.236057 
L 379.464079 229.236057 
L 379.464079 214.430198 
L 358.39876 214.430198 
L 358.39876 229.236057 
" clip-path="url(#p2111324a0a)" style="fill: #000004"/>
    <path d="M 379.464079 229.236057 
L 400.529398 229.236057 
L 400.529398 214.430198 
L 379.464079 214.430198 
L 379.464079 229.236057 
" clip-path="url(#p2111324a0a)" style="fill: #000004"/>
    <path d="M 400.529398 229.236057 
L 421.594717 229.236057 
L 421.594717 214.430198 
L 400.529398 214.430198 
L 400.529398 229.236057 
" clip-path="url(#p2111324a0a)" style="fill: #000004"/>
    <path d="M 421.594717 229.236057 
L 442.660035 229.236057 
L 442.660035 214.430198 
L 421.594717 214.430198 
L 421.594717 229.236057 
" clip-path="url(#p2111324a0a)" style="fill: #000004"/>
    <path d="M 442.660035 229.236057 
L 463.725354 229.236057 
L 463.725354 214.430198 
L 442.660035 214.430198 
L 442.660035 229.236057 
" clip-path="url(#p2111324a0a)" style="fill: #000004"/>
    <path d="M 42.418977 214.430198 
L 63.484296 214.430198 
L 63.484296 199.624338 
L 42.418977 199.624338 
L 42.418977 214.430198 
" clip-path="url(#p2111324a0a)" style="fill: #000004"/>
    <path d="M 63.484296 214.430198 
L 84.549614 214.430198 
L 84.549614 199.624338 
L 63.484296 199.624338 
L 63.484296 214.430198 
" clip-path="url(#p2111324a0a)" style="fill: #000004"/>
    <path d="M 84.549614 214.430198 
L 105.614933 214.430198 
L 105.614933 199.624338 
L 84.549614 199.624338 
L 84.549614 214.430198 
" clip-path="url(#p2111324a0a)" style="fill: #000004"/>
    <path d="M 105.614933 214.430198 
L 126.680252 214.430198 
L 126.680252 199.624338 
L 105.614933 199.624338 
L 105.614933 214.430198 
" clip-path="url(#p2111324a0a)" style="fill: #000004"/>
    <path d="M 126.680252 214.430198 
L 147.745571 214.430198 
L 147.745571 199.624338 
L 126.680252 199.624338 
L 126.680252 214.430198 
" clip-path="url(#p2111324a0a)" style="fill: #000004"/>
    <path d="M 147.745571 214.430198 
L 168.81089 214.430198 
L 168.81089 199.624338 
L 147.745571 199.624338 
L 147.745571 214.430198 
" clip-path="url(#p2111324a0a)" style="fill: #000004"/>
    <path d="M 168.81089 214.430198 
L 189.876209 214.430198 
L 189.876209 199.624338 
L 168.81089 199.624338 
L 168.81089 214.430198 
" clip-path="url(#p2111324a0a)" style="fill: #000004"/>
    <path d="M 189.876209 214.430198 
L 210.941528 214.430198 
L 210.941528 199.624338 
L 189.876209 199.624338 
L 189.876209 214.430198 
" clip-path="url(#p2111324a0a)" style="fill: #fcffa4"/>
    <path d="M 210.941528 214.430198 
L 232.006847 214.430198 
L 232.006847 199.624338 
L 210.941528 199.624338 
L 210.941528 214.430198 
" clip-path="url(#p2111324a0a)" style="fill: #fcffa4"/>
    <path d="M 232.006847 214.430198 
L 253.072166 214.430198 
L 253.072166 199.624338 
L 232.006847 199.624338 
L 232.006847 214.430198 
" clip-path="url(#p2111324a0a)" style="fill: #fcffa4"/>
    <path d="M 253.072166 214.430198 
L 274.137484 214.430198 
L 274.137484 199.624338 
L 253.072166 199.624338 
L 253.072166 214.430198 
" clip-path="url(#p2111324a0a)" style="fill: #fcffa4"/>
    <path d="M 274.137484 214.430198 
L 295.202803 214.430198 
L 295.202803 199.624338 
L 274.137484 199.624338 
L 274.137484 214.430198 
" clip-path="url(#p2111324a0a)" style="fill: #fcffa4"/>
    <path d="M 295.202803 214.430198 
L 316.268122 214.430198 
L 316.268122 199.624338 
L 295.202803 199.624338 
L 295.202803 214.430198 
" clip-path="url(#p2111324a0a)" style="fill: #fcffa4"/>
    <path d="M 316.268122 214.430198 
L 337.333441 214.430198 
L 337.333441 199.624338 
L 316.268122 199.624338 
L 316.268122 214.430198 
" clip-path="url(#p2111324a0a)" style="fill: #000004"/>
    <path d="M 337.333441 214.430198 
L 358.39876 214.430198 
L 358.39876 199.624338 
L 337.333441 199.624338 
L 337.333441 214.430198 
" clip-path="url(#p2111324a0a)" style="fill: #000004"/>
    <path d="M 358.39876 214.430198 
L 379.464079 214.430198 
L 379.464079 199.624338 
L 358.39876 199.624338 
L 358.39876 214.430198 
" clip-path="url(#p2111324a0a)" style="fill: #000004"/>
    <path d="M 379.464079 214.430198 
L 400.529398 214.430198 
L 400.529398 199.624338 
L 379.464079 199.624338 
L 379.464079 214.430198 
" clip-path="url(#p2111324a0a)" style="fill: #000004"/>
    <path d="M 400.529398 214.430198 
L 421.594717 214.430198 
L 421.594717 199.624338 
L 400.529398 199.624338 
L 400.529398 214.430198 
" clip-path="url(#p2111324a0a)" style="fill: #000004"/>
    <path d="M 421.594717 214.430198 
L 442.660035 214.430198 
L 442.660035 199.624338 
L 421.594717 199.624338 
L 421.594717 214.430198 
" clip-path="url(#p2111324a0a)" style="fill: #000004"/>
    <path d="M 442.660035 214.430198 
L 463.725354 214.430198 
L 463.725354 199.624338 
L 442.660035 199.624338 
L 442.660035 214.430198 
" clip-path="url(#p2111324a0a)" style="fill: #000004"/>
    <path d="M 42.418977 199.624338 
L 63.484296 199.624338 
L 63.484296 184.818479 
L 42.418977 184.818479 
L 42.418977 199.624338 
" clip-path="url(#p2111324a0a)" style="fill: #000004"/>
    <path d="M 63.484296 199.624338 
L 84.549614 199.624338 
L 84.549614 184.818479 
L 63.484296 184.818479 
L 63.484296 199.624338 
" clip-path="url(#p2111324a0a)" style="fill: #000004"/>
    <path d="M 84.549614 199.624338 
L 105.614933 199.624338 
L 105.614933 184.818479 
L 84.549614 184.818479 
L 84.549614 199.624338 
" clip-path="url(#p2111324a0a)" style="fill: #000004"/>
    <path d="M 105.614933 199.624338 
L 126.680252 199.624338 
L 126.680252 184.818479 
L 105.614933 184.818479 
L 105.614933 199.624338 
" clip-path="url(#p2111324a0a)" style="fill: #000004"/>
    <path d="M 126.680252 199.624338 
L 147.745571 199.624338 
L 147.745571 184.818479 
L 126.680252 184.818479 
L 126.680252 199.624338 
" clip-path="url(#p2111324a0a)" style="fill: #000004"/>
    <path d="M 147.745571 199.624338 
L 168.81089 199.624338 
L 168.81089 184.818479 
L 147.745571 184.818479 
L 147.745571 199.624338 
" clip-path="url(#p2111324a0a)" style="fill: #000004"/>
    <path d="M 168.81089 199.624338 
L 189.876209 199.624338 
L 189.876209 184.818479 
L 168.81089 184.818479 
L 168.81089 199.624338 
" clip-path="url(#p2111324a0a)" style="fill: #000004"/>
    <path d="M 189.876209 199.624338 
L 210.941528 199.624338 
L 210.941528 184.818479 
L 189.876209 184.818479 
L 189.876209 199.624338 
" clip-path="url(#p2111324a0a)" style="fill: #fcffa4"/>
    <path d="M 210.941528 199.624338 
L 232.006847 199.624338 
L 232.006847 184.818479 
L 210.941528 184.818479 
L 210.941528 199.624338 
" clip-path="url(#p2111324a0a)" style="fill: #fcffa4"/>
    <path d="M 232.006847 199.624338 
L 253.072166 199.624338 
L 253.072166 184.818479 
L 232.006847 184.818479 
L 232.006847 199.624338 
" clip-path="url(#p2111324a0a)" style="fill: #fcffa4"/>
    <path d="M 253.072166 199.624338 
L 274.137484 199.624338 
L 274.137484 184.818479 
L 253.072166 184.818479 
L 253.072166 199.624338 
" clip-path="url(#p2111324a0a)" style="fill: #fcffa4"/>
    <path d="M 274.137484 199.624338 
L 295.202803 199.624338 
L 295.202803 184.818479 
L 274.137484 184.818479 
L 274.137484 199.624338 
" clip-path="url(#p2111324a0a)" style="fill: #fcffa4"/>
    <path d="M 295.202803 199.624338 
L 316.268122 199.624338 
L 316.268122 184.818479 
L 295.202803 184.818479 
L 295.202803 199.624338 
" clip-path="url(#p2111324a0a)" style="fill: #fcffa4"/>
    <path d="M 316.268122 199.624338 
L 337.333441 199.624338 
L 337.333441 184.818479 
L 316.268122 184.818479 
L 316.268122 199.624338 
" clip-path="url(#p2111324a0a)" style="fill: #fcffa4"/>
    <path d="M 337.333441 199.624338 
L 358.39876 199.624338 
L 358.39876 184.818479 
L 337.333441 184.818479 
L 337.333441 199.624338 
" clip-path="url(#p2111324a0a)" style="fill: #000004"/>
    <path d="M 358.39876 199.624338 
L 379.464079 199.624338 
L 379.464079 184.818479 
L 358.39876 184.818479 
L 358.39876 199.624338 
" clip-path="url(#p2111324a0a)" style="fill: #000004"/>
    <path d="M 379.464079 199.624338 
L 400.529398 199.624338 
L 400.529398 184.818479 
L 379.464079 184.818479 
L 379.464079 199.624338 
" clip-path="url(#p2111324a0a)" style="fill: #000004"/>
    <path d="M 400.529398 199.624338 
L 421.594717 199.624338 
L 421.594717 184.818479 
L 400.529398 184.818479 
L 400.529398 199.624338 
" clip-path="url(#p2111324a0a)" style="fill: #000004"/>
    <path d="M 421.594717 199.624338 
L 442.660035 199.624338 
L 442.660035 184.818479 
L 421.594717 184.818479 
L 421.594717 199.624338 
" clip-path="url(#p2111324a0a)" style="fill: #000004"/>
    <path d="M 442.660035 199.624338 
L 463.725354 199.624338 
L 463.725354 184.818479 
L 442.660035 184.818479 
L 442.660035 199.624338 
" clip-path="url(#p2111324a0a)" style="fill: #000004"/>
    <path d="M 42.418977 184.818479 
L 63.484296 184.818479 
L 63.484296 170.012619 
L 42.418977 170.012619 
L 42.418977 184.818479 
" clip-path="url(#p2111324a0a)" style="fill: #000004"/>
    <path d="M 63.484296 184.818479 
L 84.549614 184.818479 
L 84.549614 170.012619 
L 63.484296 170.012619 
L 63.484296 184.818479 
" clip-path="url(#p2111324a0a)" style="fill: #000004"/>
    <path d="M 84.549614 184.818479 
L 105.614933 184.818479 
L 105.614933 170.012619 
L 84.549614 170.012619 
L 84.549614 184.818479 
" clip-path="url(#p2111324a0a)" style="fill: #000004"/>
    <path d="M 105.614933 184.818479 
L 126.680252 184.818479 
L 126.680252 170.012619 
L 105.614933 170.012619 
L 105.614933 184.818479 
" clip-path="url(#p2111324a0a)" style="fill: #000004"/>
    <path d="M 126.680252 184.818479 
L 147.745571 184.818479 
L 147.745571 170.012619 
L 126.680252 170.012619 
L 126.680252 184.818479 
" clip-path="url(#p2111324a0a)" style="fill: #000004"/>
    <path d="M 147.745571 184.818479 
L 168.81089 184.818479 
L 168.81089 170.012619 
L 147.745571 170.012619 
L 147.745571 184.818479 
" clip-path="url(#p2111324a0a)" style="fill: #000004"/>
    <path d="M 168.81089 184.818479 
L 189.876209 184.818479 
L 189.876209 170.012619 
L 168.81089 170.012619 
L 168.81089 184.818479 
" clip-path="url(#p2111324a0a)" style="fill: #62146e"/>
    <path d="M 189.876209 184.818479 
L 210.941528 184.818479 
L 210.941528 170.012619 
L 189.876209 170.012619 
L 189.876209 184.818479 
" clip-path="url(#p2111324a0a)" style="fill: #fcffa4"/>
    <path d="M 210.941528 184.818479 
L 232.006847 184.818479 
L 232.006847 170.012619 
L 210.941528 170.012619 
L 210.941528 184.818479 
" clip-path="url(#p2111324a0a)" style="fill: #fcffa4"/>
    <path d="M 232.006847 184.818479 
L 253.072166 184.818479 
L 253.072166 170.012619 
L 232.006847 170.012619 
L 232.006847 184.818479 
" clip-path="url(#p2111324a0a)" style="fill: #fcffa4"/>
    <path d="M 253.072166 184.818479 
L 274.137484 184.818479 
L 274.137484 170.012619 
L 253.072166 170.012619 
L 253.072166 184.818479 
" clip-path="url(#p2111324a0a)" style="fill: #fcffa4"/>
    <path d="M 274.137484 184.818479 
L 295.202803 184.818479 
L 295.202803 170.012619 
L 274.137484 170.012619 
L 274.137484 184.818479 
" clip-path="url(#p2111324a0a)" style="fill: #fcffa4"/>
    <path d="M 295.202803 184.818479 
L 316.268122 184.818479 
L 316.268122 170.012619 
L 295.202803 170.012619 
L 295.202803 184.818479 
" clip-path="url(#p2111324a0a)" style="fill: #fcffa4"/>
    <path d="M 316.268122 184.818479 
L 337.333441 184.818479 
L 337.333441 170.012619 
L 316.268122 170.012619 
L 316.268122 184.818479 
" clip-path="url(#p2111324a0a)" style="fill: #fcffa4"/>
    <path d="M 337.333441 184.818479 
L 358.39876 184.818479 
L 358.39876 170.012619 
L 337.333441 170.012619 
L 337.333441 184.818479 
" clip-path="url(#p2111324a0a)" style="fill: #000004"/>
    <path d="M 358.39876 184.818479 
L 379.464079 184.818479 
L 379.464079 170.012619 
L 358.39876 170.012619 
L 358.39876 184.818479 
" clip-path="url(#p2111324a0a)" style="fill: #000004"/>
    <path d="M 379.464079 184.818479 
L 400.529398 184.818479 
L 400.529398 170.012619 
L 379.464079 170.012619 
L 379.464079 184.818479 
" clip-path="url(#p2111324a0a)" style="fill: #000004"/>
    <path d="M 400.529398 184.818479 
L 421.594717 184.818479 
L 421.594717 170.012619 
L 400.529398 170.012619 
L 400.529398 184.818479 
" clip-path="url(#p2111324a0a)" style="fill: #000004"/>
    <path d="M 421.594717 184.818479 
L 442.660035 184.818479 
L 442.660035 170.012619 
L 421.594717 170.012619 
L 421.594717 184.818479 
" clip-path="url(#p2111324a0a)" style="fill: #000004"/>
    <path d="M 442.660035 184.818479 
L 463.725354 184.818479 
L 463.725354 170.012619 
L 442.660035 170.012619 
L 442.660035 184.818479 
" clip-path="url(#p2111324a0a)" style="fill: #000004"/>
    <path d="M 42.418977 170.012619 
L 63.484296 170.012619 
L 63.484296 155.20676 
L 42.418977 155.20676 
L 42.418977 170.012619 
" clip-path="url(#p2111324a0a)" style="fill: #000004"/>
    <path d="M 63.484296 170.012619 
L 84.549614 170.012619 
L 84.549614 155.20676 
L 63.484296 155.20676 
L 63.484296 170.012619 
" clip-path="url(#p2111324a0a)" style="fill: #000004"/>
    <path d="M 84.549614 170.012619 
L 105.614933 170.012619 
L 105.614933 155.20676 
L 84.549614 155.20676 
L 84.549614 170.012619 
" clip-path="url(#p2111324a0a)" style="fill: #000004"/>
    <path d="M 105.614933 170.012619 
L 126.680252 170.012619 
L 126.680252 155.20676 
L 105.614933 155.20676 
L 105.614933 170.012619 
" clip-path="url(#p2111324a0a)" style="fill: #000004"/>
    <path d="M 126.680252 170.012619 
L 147.745571 170.012619 
L 147.745571 155.20676 
L 126.680252 155.20676 
L 126.680252 170.012619 
" clip-path="url(#p2111324a0a)" style="fill: #000004"/>
    <path d="M 147.745571 170.012619 
L 168.81089 170.012619 
L 168.81089 155.20676 
L 147.745571 155.20676 
L 147.745571 170.012619 
" clip-path="url(#p2111324a0a)" style="fill: #000004"/>
    <path d="M 168.81089 170.012619 
L 189.876209 170.012619 
L 189.876209 155.20676 
L 168.81089 155.20676 
L 168.81089 170.012619 
" clip-path="url(#p2111324a0a)" style="fill: #fcffa4"/>
    <path d="M 189.876209 170.012619 
L 210.941528 170.012619 
L 210.941528 155.20676 
L 189.876209 155.20676 
L 189.876209 170.012619 
" clip-path="url(#p2111324a0a)" style="fill: #fcffa4"/>
    <path d="M 210.941528 170.012619 
L 232.006847 170.012619 
L 232.006847 155.20676 
L 210.941528 155.20676 
L 210.941528 170.012619 
" clip-path="url(#p2111324a0a)" style="fill: #fcffa4"/>
    <path d="M 232.006847 170.012619 
L 253.072166 170.012619 
L 253.072166 155.20676 
L 232.006847 155.20676 
L 232.006847 170.012619 
" clip-path="url(#p2111324a0a)" style="fill: #fcffa4"/>
    <path d="M 253.072166 170.012619 
L 274.137484 170.012619 
L 274.137484 155.20676 
L 253.072166 155.20676 
L 253.072166 170.012619 
" clip-path="url(#p2111324a0a)" style="fill: #fcffa4"/>
    <path d="M 274.137484 170.012619 
L 295.202803 170.012619 
L 295.202803 155.20676 
L 274.137484 155.20676 
L 274.137484 170.012619 
" clip-path="url(#p2111324a0a)" style="fill: #fcffa4"/>
    <path d="M 295.202803 170.012619 
L 316.268122 170.012619 
L 316.268122 155.20676 
L 295.202803 155.20676 
L 295.202803 170.012619 
" clip-path="url(#p2111324a0a)" style="fill: #fcffa4"/>
    <path d="M 316.268122 170.012619 
L 337.333441 170.012619 
L 337.333441 155.20676 
L 316.268122 155.20676 
L 316.268122 170.012619 
" clip-path="url(#p2111324a0a)" style="fill: #fcffa4"/>
    <path d="M 337.333441 170.012619 
L 358.39876 170.012619 
L 358.39876 155.20676 
L 337.333441 155.20676 
L 337.333441 170.012619 
" clip-path="url(#p2111324a0a)" style="fill: #fcffa4"/>
    <path d="M 358.39876 170.012619 
L 379.464079 170.012619 
L 379.464079 155.20676 
L 358.39876 155.20676 
L 358.39876 170.012619 
" clip-path="url(#p2111324a0a)" style="fill: #000004"/>
    <path d="M 379.464079 170.012619 
L 400.529398 170.012619 
L 400.529398 155.20676 
L 379.464079 155.20676 
L 379.464079 170.012619 
" clip-path="url(#p2111324a0a)" style="fill: #000004"/>
    <path d="M 400.529398 170.012619 
L 421.594717 170.012619 
L 421.594717 155.20676 
L 400.529398 155.20676 
L 400.529398 170.012619 
" clip-path="url(#p2111324a0a)" style="fill: #000004"/>
    <path d="M 421.594717 170.012619 
L 442.660035 170.012619 
L 442.660035 155.20676 
L 421.594717 155.20676 
L 421.594717 170.012619 
" clip-path="url(#p2111324a0a)" style="fill: #000004"/>
    <path d="M 442.660035 170.012619 
L 463.725354 170.012619 
L 463.725354 155.20676 
L 442.660035 155.20676 
L 442.660035 170.012619 
" clip-path="url(#p2111324a0a)" style="fill: #000004"/>
    <path d="M 42.418977 155.20676 
L 63.484296 155.20676 
L 63.484296 140.400901 
L 42.418977 140.400901 
L 42.418977 155.20676 
" clip-path="url(#p2111324a0a)" style="fill: #000004"/>
    <path d="M 63.484296 155.20676 
L 84.549614 155.20676 
L 84.549614 140.400901 
L 63.484296 140.400901 
L 63.484296 155.20676 
" clip-path="url(#p2111324a0a)" style="fill: #000004"/>
    <path d="M 84.549614 155.20676 
L 105.614933 155.20676 
L 105.614933 140.400901 
L 84.549614 140.400901 
L 84.549614 155.20676 
" clip-path="url(#p2111324a0a)" style="fill: #000004"/>
    <path d="M 105.614933 155.20676 
L 126.680252 155.20676 
L 126.680252 140.400901 
L 105.614933 140.400901 
L 105.614933 155.20676 
" clip-path="url(#p2111324a0a)" style="fill: #000004"/>
    <path d="M 126.680252 155.20676 
L 147.745571 155.20676 
L 147.745571 140.400901 
L 126.680252 140.400901 
L 126.680252 155.20676 
" clip-path="url(#p2111324a0a)" style="fill: #000004"/>
    <path d="M 147.745571 155.20676 
L 168.81089 155.20676 
L 168.81089 140.400901 
L 147.745571 140.400901 
L 147.745571 155.20676 
" clip-path="url(#p2111324a0a)" style="fill: #000004"/>
    <path d="M 168.81089 155.20676 
L 189.876209 155.20676 
L 189.876209 140.400901 
L 168.81089 140.400901 
L 168.81089 155.20676 
" clip-path="url(#p2111324a0a)" style="fill: #fcffa4"/>
    <path d="M 189.876209 155.20676 
L 210.941528 155.20676 
L 210.941528 140.400901 
L 189.876209 140.400901 
L 189.876209 155.20676 
" clip-path="url(#p2111324a0a)" style="fill: #fcffa4"/>
    <path d="M 210.941528 155.20676 
L 232.006847 155.20676 
L 232.006847 140.400901 
L 210.941528 140.400901 
L 210.941528 155.20676 
" clip-path="url(#p2111324a0a)" style="fill: #fcffa4"/>
    <path d="M 232.006847 155.20676 
L 253.072166 155.20676 
L 253.072166 140.400901 
L 232.006847 140.400901 
L 232.006847 155.20676 
" clip-path="url(#p2111324a0a)" style="fill: #fcffa4"/>
    <path d="M 253.072166 155.20676 
L 274.137484 155.20676 
L 274.137484 140.400901 
L 253.072166 140.400901 
L 253.072166 155.20676 
" clip-path="url(#p2111324a0a)" style="fill: #fcffa4"/>
    <path d="M 274.137484 155.20676 
L 295.202803 155.20676 
L 295.202803 140.400901 
L 274.137484 140.400901 
L 274.137484 155.20676 
" clip-path="url(#p2111324a0a)" style="fill: #fcffa4"/>
    <path d="M 295.202803 155.20676 
L 316.268122 155.20676 
L 316.268122 140.400901 
L 295.202803 140.400901 
L 295.202803 155.20676 
" clip-path="url(#p2111324a0a)" style="fill: #fcffa4"/>
    <path d="M 316.268122 155.20676 
L 337.333441 155.20676 
L 337.333441 140.400901 
L 316.268122 140.400901 
L 316.268122 155.20676 
" clip-path="url(#p2111324a0a)" style="fill: #fcffa4"/>
    <path d="M 337.333441 155.20676 
L 358.39876 155.20676 
L 358.39876 140.400901 
L 337.333441 140.400901 
L 337.333441 155.20676 
" clip-path="url(#p2111324a0a)" style="fill: #fcffa4"/>
    <path d="M 358.39876 155.20676 
L 379.464079 155.20676 
L 379.464079 140.400901 
L 358.39876 140.400901 
L 358.39876 155.20676 
" clip-path="url(#p2111324a0a)" style="fill: #420a68"/>
    <path d="M 379.464079 155.20676 
L 400.529398 155.20676 
L 400.529398 140.400901 
L 379.464079 140.400901 
L 379.464079 155.20676 
" clip-path="url(#p2111324a0a)" style="fill: #000004"/>
    <path d="M 400.529398 155.20676 
L 421.594717 155.20676 
L 421.594717 140.400901 
L 400.529398 140.400901 
L 400.529398 155.20676 
" clip-path="url(#p2111324a0a)" style="fill: #000004"/>
    <path d="M 421.594717 155.20676 
L 442.660035 155.20676 
L 442.660035 140.400901 
L 421.594717 140.400901 
L 421.594717 155.20676 
" clip-path="url(#p2111324a0a)" style="fill: #000004"/>
    <path d="M 442.660035 155.20676 
L 463.725354 155.20676 
L 463.725354 140.400901 
L 442.660035 140.400901 
L 442.660035 155.20676 
" clip-path="url(#p2111324a0a)" style="fill: #000004"/>
    <path d="M 42.418977 140.400901 
L 63.484296 140.400901 
L 63.484296 125.595041 
L 42.418977 125.595041 
L 42.418977 140.400901 
" clip-path="url(#p2111324a0a)" style="fill: #000004"/>
    <path d="M 63.484296 140.400901 
L 84.549614 140.400901 
L 84.549614 125.595041 
L 63.484296 125.595041 
L 63.484296 140.400901 
" clip-path="url(#p2111324a0a)" style="fill: #000004"/>
    <path d="M 84.549614 140.400901 
L 105.614933 140.400901 
L 105.614933 125.595041 
L 84.549614 125.595041 
L 84.549614 140.400901 
" clip-path="url(#p2111324a0a)" style="fill: #000004"/>
    <path d="M 105.614933 140.400901 
L 126.680252 140.400901 
L 126.680252 125.595041 
L 105.614933 125.595041 
L 105.614933 140.400901 
" clip-path="url(#p2111324a0a)" style="fill: #000004"/>
    <path d="M 126.680252 140.400901 
L 147.745571 140.400901 
L 147.745571 125.595041 
L 126.680252 125.595041 
L 126.680252 140.400901 
" clip-path="url(#p2111324a0a)" style="fill: #000004"/>
    <path d="M 147.745571 140.400901 
L 168.81089 140.400901 
L 168.81089 125.595041 
L 147.745571 125.595041 
L 147.745571 140.400901 
" clip-path="url(#p2111324a0a)" style="fill: #84206b"/>
    <path d="M 168.81089 140.400901 
L 189.876209 140.400901 
L 189.876209 125.595041 
L 168.81089 125.595041 
L 168.81089 140.400901 
" clip-path="url(#p2111324a0a)" style="fill: #fcffa4"/>
    <path d="M 189.876209 140.400901 
L 210.941528 140.400901 
L 210.941528 125.595041 
L 189.876209 125.595041 
L 189.876209 140.400901 
" clip-path="url(#p2111324a0a)" style="fill: #fcffa4"/>
    <path d="M 210.941528 140.400901 
L 232.006847 140.400901 
L 232.006847 125.595041 
L 210.941528 125.595041 
L 210.941528 140.400901 
" clip-path="url(#p2111324a0a)" style="fill: #fcffa4"/>
    <path d="M 232.006847 140.400901 
L 253.072166 140.400901 
L 253.072166 125.595041 
L 232.006847 125.595041 
L 232.006847 140.400901 
" clip-path="url(#p2111324a0a)" style="fill: #fcffa4"/>
    <path d="M 253.072166 140.400901 
L 274.137484 140.400901 
L 274.137484 125.595041 
L 253.072166 125.595041 
L 253.072166 140.400901 
" clip-path="url(#p2111324a0a)" style="fill: #fcffa4"/>
    <path d="M 274.137484 140.400901 
L 295.202803 140.400901 
L 295.202803 125.595041 
L 274.137484 125.595041 
L 274.137484 140.400901 
" clip-path="url(#p2111324a0a)" style="fill: #fcffa4"/>
    <path d="M 295.202803 140.400901 
L 316.268122 140.400901 
L 316.268122 125.595041 
L 295.202803 125.595041 
L 295.202803 140.400901 
" clip-path="url(#p2111324a0a)" style="fill: #fcffa4"/>
    <path d="M 316.268122 140.400901 
L 337.333441 140.400901 
L 337.333441 125.595041 
L 316.268122 125.595041 
L 316.268122 140.400901 
" clip-path="url(#p2111324a0a)" style="fill: #fcffa4"/>
    <path d="M 337.333441 140.400901 
L 358.39876 140.400901 
L 358.39876 125.595041 
L 337.333441 125.595041 
L 337.333441 140.400901 
" clip-path="url(#p2111324a0a)" style="fill: #fcffa4"/>
    <path d="M 358.39876 140.400901 
L 379.464079 140.400901 
L 379.464079 125.595041 
L 358.39876 125.595041 
L 358.39876 140.400901 
" clip-path="url(#p2111324a0a)" style="fill: #fcffa4"/>
    <path d="M 379.464079 140.400901 
L 400.529398 140.400901 
L 400.529398 125.595041 
L 379.464079 125.595041 
L 379.464079 140.400901 
" clip-path="url(#p2111324a0a)" style="fill: #140b34"/>
    <path d="M 400.529398 140.400901 
L 421.594717 140.400901 
L 421.594717 125.595041 
L 400.529398 125.595041 
L 400.529398 140.400901 
" clip-path="url(#p2111324a0a)" style="fill: #000004"/>
    <path d="M 421.594717 140.400901 
L 442.660035 140.400901 
L 442.660035 125.595041 
L 421.594717 125.595041 
L 421.594717 140.400901 
" clip-path="url(#p2111324a0a)" style="fill: #000004"/>
    <path d="M 442.660035 140.400901 
L 463.725354 140.400901 
L 463.725354 125.595041 
L 442.660035 125.595041 
L 442.660035 140.400901 
" clip-path="url(#p2111324a0a)" style="fill: #000004"/>
    <path d="M 42.418977 125.595041 
L 63.484296 125.595041 
L 63.484296 110.789182 
L 42.418977 110.789182 
L 42.418977 125.595041 
" clip-path="url(#p2111324a0a)" style="fill: #000004"/>
    <path d="M 63.484296 125.595041 
L 84.549614 125.595041 
L 84.549614 110.789182 
L 63.484296 110.789182 
L 63.484296 125.595041 
" clip-path="url(#p2111324a0a)" style="fill: #000004"/>
    <path d="M 84.549614 125.595041 
L 105.614933 125.595041 
L 105.614933 110.789182 
L 84.549614 110.789182 
L 84.549614 125.595041 
" clip-path="url(#p2111324a0a)" style="fill: #000004"/>
    <path d="M 105.614933 125.595041 
L 126.680252 125.595041 
L 126.680252 110.789182 
L 105.614933 110.789182 
L 105.614933 125.595041 
" clip-path="url(#p2111324a0a)" style="fill: #000004"/>
    <path d="M 126.680252 125.595041 
L 147.745571 125.595041 
L 147.745571 110.789182 
L 126.680252 110.789182 
L 126.680252 125.595041 
" clip-path="url(#p2111324a0a)" style="fill: #000004"/>
    <path d="M 147.745571 125.595041 
L 168.81089 125.595041 
L 168.81089 110.789182 
L 147.745571 110.789182 
L 147.745571 125.595041 
" clip-path="url(#p2111324a0a)" style="fill: #fcffa4"/>
    <path d="M 168.81089 125.595041 
L 189.876209 125.595041 
L 189.876209 110.789182 
L 168.81089 110.789182 
L 168.81089 125.595041 
" clip-path="url(#p2111324a0a)" style="fill: #fcffa4"/>
    <path d="M 189.876209 125.595041 
L 210.941528 125.595041 
L 210.941528 110.789182 
L 189.876209 110.789182 
L 189.876209 125.595041 
" clip-path="url(#p2111324a0a)" style="fill: #fcffa4"/>
    <path d="M 210.941528 125.595041 
L 232.006847 125.595041 
L 232.006847 110.789182 
L 210.941528 110.789182 
L 210.941528 125.595041 
" clip-path="url(#p2111324a0a)" style="fill: #fcffa4"/>
    <path d="M 232.006847 125.595041 
L 253.072166 125.595041 
L 253.072166 110.789182 
L 232.006847 110.789182 
L 232.006847 125.595041 
" clip-path="url(#p2111324a0a)" style="fill: #fcffa4"/>
    <path d="M 253.072166 125.595041 
L 274.137484 125.595041 
L 274.137484 110.789182 
L 253.072166 110.789182 
L 253.072166 125.595041 
" clip-path="url(#p2111324a0a)" style="fill: #fcffa4"/>
    <path d="M 274.137484 125.595041 
L 295.202803 125.595041 
L 295.202803 110.789182 
L 274.137484 110.789182 
L 274.137484 125.595041 
" clip-path="url(#p2111324a0a)" style="fill: #fcffa4"/>
    <path d="M 295.202803 125.595041 
L 316.268122 125.595041 
L 316.268122 110.789182 
L 295.202803 110.789182 
L 295.202803 125.595041 
" clip-path="url(#p2111324a0a)" style="fill: #fcffa4"/>
    <path d="M 316.268122 125.595041 
L 337.333441 125.595041 
L 337.333441 110.789182 
L 316.268122 110.789182 
L 316.268122 125.595041 
" clip-path="url(#p2111324a0a)" style="fill: #fcffa4"/>
    <path d="M 337.333441 125.595041 
L 358.39876 125.595041 
L 358.39876 110.789182 
L 337.333441 110.789182 
L 337.333441 125.595041 
" clip-path="url(#p2111324a0a)" style="fill: #fcffa4"/>
    <path d="M 358.39876 125.595041 
L 379.464079 125.595041 
L 379.464079 110.789182 
L 358.39876 110.789182 
L 358.39876 125.595041 
" clip-path="url(#p2111324a0a)" style="fill: #fcffa4"/>
    <path d="M 379.464079 125.595041 
L 400.529398 125.595041 
L 400.529398 110.789182 
L 379.464079 110.789182 
L 379.464079 125.595041 
" clip-path="url(#p2111324a0a)" style="fill: #450a69"/>
    <path d="M 400.529398 125.595041 
L 421.594717 125.595041 
L 421.594717 110.789182 
L 400.529398 110.789182 
L 400.529398 125.595041 
" clip-path="url(#p2111324a0a)" style="fill: #010106"/>
    <path d="M 421.594717 125.595041 
L 442.660035 125.595041 
L 442.660035 110.789182 
L 421.594717 110.789182 
L 421.594717 125.595041 
" clip-path="url(#p2111324a0a)" style="fill: #000004"/>
    <path d="M 442.660035 125.595041 
L 463.725354 125.595041 
L 463.725354 110.789182 
L 442.660035 110.789182 
L 442.660035 125.595041 
" clip-path="url(#p2111324a0a)" style="fill: #000004"/>
    <path d="M 42.418977 110.789182 
L 63.484296 110.789182 
L 63.484296 95.983322 
L 42.418977 95.983322 
L 42.418977 110.789182 
" clip-path="url(#p2111324a0a)" style="fill: #000004"/>
    <path d="M 63.484296 110.789182 
L 84.549614 110.789182 
L 84.549614 95.983322 
L 63.484296 95.983322 
L 63.484296 110.789182 
" clip-path="url(#p2111324a0a)" style="fill: #000004"/>
    <path d="M 84.549614 110.789182 
L 105.614933 110.789182 
L 105.614933 95.983322 
L 84.549614 95.983322 
L 84.549614 110.789182 
" clip-path="url(#p2111324a0a)" style="fill: #000004"/>
    <path d="M 105.614933 110.789182 
L 126.680252 110.789182 
L 126.680252 95.983322 
L 105.614933 95.983322 
L 105.614933 110.789182 
" clip-path="url(#p2111324a0a)" style="fill: #000004"/>
    <path d="M 126.680252 110.789182 
L 147.745571 110.789182 
L 147.745571 95.983322 
L 126.680252 95.983322 
L 126.680252 110.789182 
" clip-path="url(#p2111324a0a)" style="fill: #721a6e"/>
    <path d="M 147.745571 110.789182 
L 168.81089 110.789182 
L 168.81089 95.983322 
L 147.745571 95.983322 
L 147.745571 110.789182 
" clip-path="url(#p2111324a0a)" style="fill: #fcffa4"/>
    <path d="M 168.81089 110.789182 
L 189.876209 110.789182 
L 189.876209 95.983322 
L 168.81089 95.983322 
L 168.81089 110.789182 
" clip-path="url(#p2111324a0a)" style="fill: #fcffa4"/>
    <path d="M 189.876209 110.789182 
L 210.941528 110.789182 
L 210.941528 95.983322 
L 189.876209 95.983322 
L 189.876209 110.789182 
" clip-path="url(#p2111324a0a)" style="fill: #fcffa4"/>
    <path d="M 210.941528 110.789182 
L 232.006847 110.789182 
L 232.006847 95.983322 
L 210.941528 95.983322 
L 210.941528 110.789182 
" clip-path="url(#p2111324a0a)" style="fill: #fcffa4"/>
    <path d="M 232.006847 110.789182 
L 253.072166 110.789182 
L 253.072166 95.983322 
L 232.006847 95.983322 
L 232.006847 110.789182 
" clip-path="url(#p2111324a0a)" style="fill: #fcffa4"/>
    <path d="M 253.072166 110.789182 
L 274.137484 110.789182 
L 274.137484 95.983322 
L 253.072166 95.983322 
L 253.072166 110.789182 
" clip-path="url(#p2111324a0a)" style="fill: #fcffa4"/>
    <path d="M 274.137484 110.789182 
L 295.202803 110.789182 
L 295.202803 95.983322 
L 274.137484 95.983322 
L 274.137484 110.789182 
" clip-path="url(#p2111324a0a)" style="fill: #fcffa4"/>
    <path d="M 295.202803 110.789182 
L 316.268122 110.789182 
L 316.268122 95.983322 
L 295.202803 95.983322 
L 295.202803 110.789182 
" clip-path="url(#p2111324a0a)" style="fill: #fcffa4"/>
    <path d="M 316.268122 110.789182 
L 337.333441 110.789182 
L 337.333441 95.983322 
L 316.268122 95.983322 
L 316.268122 110.789182 
" clip-path="url(#p2111324a0a)" style="fill: #fcffa4"/>
    <path d="M 337.333441 110.789182 
L 358.39876 110.789182 
L 358.39876 95.983322 
L 337.333441 95.983322 
L 337.333441 110.789182 
" clip-path="url(#p2111324a0a)" style="fill: #fcffa4"/>
    <path d="M 358.39876 110.789182 
L 379.464079 110.789182 
L 379.464079 95.983322 
L 358.39876 95.983322 
L 358.39876 110.789182 
" clip-path="url(#p2111324a0a)" style="fill: #fcffa4"/>
    <path d="M 379.464079 110.789182 
L 400.529398 110.789182 
L 400.529398 95.983322 
L 379.464079 95.983322 
L 379.464079 110.789182 
" clip-path="url(#p2111324a0a)" style="fill: #fcffa4"/>
    <path d="M 400.529398 110.789182 
L 421.594717 110.789182 
L 421.594717 95.983322 
L 400.529398 95.983322 
L 400.529398 110.789182 
" clip-path="url(#p2111324a0a)" style="fill: #420a68"/>
    <path d="M 421.594717 110.789182 
L 442.660035 110.789182 
L 442.660035 95.983322 
L 421.594717 95.983322 
L 421.594717 110.789182 
" clip-path="url(#p2111324a0a)" style="fill: #000004"/>
    <path d="M 442.660035 110.789182 
L 463.725354 110.789182 
L 463.725354 95.983322 
L 442.660035 95.983322 
L 442.660035 110.789182 
" clip-path="url(#p2111324a0a)" style="fill: #000004"/>
    <path d="M 42.418977 95.983322 
L 63.484296 95.983322 
L 63.484296 81.177463 
L 42.418977 81.177463 
L 42.418977 95.983322 
" clip-path="url(#p2111324a0a)" style="fill: #000004"/>
    <path d="M 63.484296 95.983322 
L 84.549614 95.983322 
L 84.549614 81.177463 
L 63.484296 81.177463 
L 63.484296 95.983322 
" clip-path="url(#p2111324a0a)" style="fill: #000004"/>
    <path d="M 84.549614 95.983322 
L 105.614933 95.983322 
L 105.614933 81.177463 
L 84.549614 81.177463 
L 84.549614 95.983322 
" clip-path="url(#p2111324a0a)" style="fill: #000004"/>
    <path d="M 105.614933 95.983322 
L 126.680252 95.983322 
L 126.680252 81.177463 
L 105.614933 81.177463 
L 105.614933 95.983322 
" clip-path="url(#p2111324a0a)" style="fill: #000004"/>
    <path d="M 126.680252 95.983322 
L 147.745571 95.983322 
L 147.745571 81.177463 
L 126.680252 81.177463 
L 126.680252 95.983322 
" clip-path="url(#p2111324a0a)" style="fill: #87216b"/>
    <path d="M 147.745571 95.983322 
L 168.81089 95.983322 
L 168.81089 81.177463 
L 147.745571 81.177463 
L 147.745571 95.983322 
" clip-path="url(#p2111324a0a)" style="fill: #fcffa4"/>
    <path d="M 168.81089 95.983322 
L 189.876209 95.983322 
L 189.876209 81.177463 
L 168.81089 81.177463 
L 168.81089 95.983322 
" clip-path="url(#p2111324a0a)" style="fill: #fcffa4"/>
    <path d="M 189.876209 95.983322 
L 210.941528 95.983322 
L 210.941528 81.177463 
L 189.876209 81.177463 
L 189.876209 95.983322 
" clip-path="url(#p2111324a0a)" style="fill: #fcffa4"/>
    <path d="M 210.941528 95.983322 
L 232.006847 95.983322 
L 232.006847 81.177463 
L 210.941528 81.177463 
L 210.941528 95.983322 
" clip-path="url(#p2111324a0a)" style="fill: #fcffa4"/>
    <path d="M 232.006847 95.983322 
L 253.072166 95.983322 
L 253.072166 81.177463 
L 232.006847 81.177463 
L 232.006847 95.983322 
" clip-path="url(#p2111324a0a)" style="fill: #fcffa4"/>
    <path d="M 253.072166 95.983322 
L 274.137484 95.983322 
L 274.137484 81.177463 
L 253.072166 81.177463 
L 253.072166 95.983322 
" clip-path="url(#p2111324a0a)" style="fill: #fcffa4"/>
    <path d="M 274.137484 95.983322 
L 295.202803 95.983322 
L 295.202803 81.177463 
L 274.137484 81.177463 
L 274.137484 95.983322 
" clip-path="url(#p2111324a0a)" style="fill: #fcffa4"/>
    <path d="M 295.202803 95.983322 
L 316.268122 95.983322 
L 316.268122 81.177463 
L 295.202803 81.177463 
L 295.202803 95.983322 
" clip-path="url(#p2111324a0a)" style="fill: #fcffa4"/>
    <path d="M 316.268122 95.983322 
L 337.333441 95.983322 
L 337.333441 81.177463 
L 316.268122 81.177463 
L 316.268122 95.983322 
" clip-path="url(#p2111324a0a)" style="fill: #fcffa4"/>
    <path d="M 337.333441 95.983322 
L 358.39876 95.983322 
L 358.39876 81.177463 
L 337.333441 81.177463 
L 337.333441 95.983322 
" clip-path="url(#p2111324a0a)" style="fill: #fcffa4"/>
    <path d="M 358.39876 95.983322 
L 379.464079 95.983322 
L 379.464079 81.177463 
L 358.39876 81.177463 
L 358.39876 95.983322 
" clip-path="url(#p2111324a0a)" style="fill: #fcffa4"/>
    <path d="M 379.464079 95.983322 
L 400.529398 95.983322 
L 400.529398 81.177463 
L 379.464079 81.177463 
L 379.464079 95.983322 
" clip-path="url(#p2111324a0a)" style="fill: #fcffa4"/>
    <path d="M 400.529398 95.983322 
L 421.594717 95.983322 
L 421.594717 81.177463 
L 400.529398 81.177463 
L 400.529398 95.983322 
" clip-path="url(#p2111324a0a)" style="fill: #fcffa4"/>
    <path d="M 421.594717 95.983322 
L 442.660035 95.983322 
L 442.660035 81.177463 
L 421.594717 81.177463 
L 421.594717 95.983322 
" clip-path="url(#p2111324a0a)" style="fill: #10092d"/>
    <path d="M 442.660035 95.983322 
L 463.725354 95.983322 
L 463.725354 81.177463 
L 442.660035 81.177463 
L 442.660035 95.983322 
" clip-path="url(#p2111324a0a)" style="fill: #000004"/>
    <path d="M 42.418977 81.177463 
L 63.484296 81.177463 
L 63.484296 66.371603 
L 42.418977 66.371603 
L 42.418977 81.177463 
" clip-path="url(#p2111324a0a)" style="fill: #000004"/>
    <path d="M 63.484296 81.177463 
L 84.549614 81.177463 
L 84.549614 66.371603 
L 63.484296 66.371603 
L 63.484296 81.177463 
" clip-path="url(#p2111324a0a)" style="fill: #000004"/>
    <path d="M 84.549614 81.177463 
L 105.614933 81.177463 
L 105.614933 66.371603 
L 84.549614 66.371603 
L 84.549614 81.177463 
" clip-path="url(#p2111324a0a)" style="fill: #000004"/>
    <path d="M 105.614933 81.177463 
L 126.680252 81.177463 
L 126.680252 66.371603 
L 105.614933 66.371603 
L 105.614933 81.177463 
" clip-path="url(#p2111324a0a)" style="fill: #000004"/>
    <path d="M 126.680252 81.177463 
L 147.745571 81.177463 
L 147.745571 66.371603 
L 126.680252 66.371603 
L 126.680252 81.177463 
" clip-path="url(#p2111324a0a)" style="fill: #fcffa4"/>
    <path d="M 147.745571 81.177463 
L 168.81089 81.177463 
L 168.81089 66.371603 
L 147.745571 66.371603 
L 147.745571 81.177463 
" clip-path="url(#p2111324a0a)" style="fill: #fcffa4"/>
    <path d="M 168.81089 81.177463 
L 189.876209 81.177463 
L 189.876209 66.371603 
L 168.81089 66.371603 
L 168.81089 81.177463 
" clip-path="url(#p2111324a0a)" style="fill: #fcffa4"/>
    <path d="M 189.876209 81.177463 
L 210.941528 81.177463 
L 210.941528 66.371603 
L 189.876209 66.371603 
L 189.876209 81.177463 
" clip-path="url(#p2111324a0a)" style="fill: #fcffa4"/>
    <path d="M 210.941528 81.177463 
L 232.006847 81.177463 
L 232.006847 66.371603 
L 210.941528 66.371603 
L 210.941528 81.177463 
" clip-path="url(#p2111324a0a)" style="fill: #fcffa4"/>
    <path d="M 232.006847 81.177463 
L 253.072166 81.177463 
L 253.072166 66.371603 
L 232.006847 66.371603 
L 232.006847 81.177463 
" clip-path="url(#p2111324a0a)" style="fill: #fcffa4"/>
    <path d="M 253.072166 81.177463 
L 274.137484 81.177463 
L 274.137484 66.371603 
L 253.072166 66.371603 
L 253.072166 81.177463 
" clip-path="url(#p2111324a0a)" style="fill: #fcffa4"/>
    <path d="M 274.137484 81.177463 
L 295.202803 81.177463 
L 295.202803 66.371603 
L 274.137484 66.371603 
L 274.137484 81.177463 
" clip-path="url(#p2111324a0a)" style="fill: #fcffa4"/>
    <path d="M 295.202803 81.177463 
L 316.268122 81.177463 
L 316.268122 66.371603 
L 295.202803 66.371603 
L 295.202803 81.177463 
" clip-path="url(#p2111324a0a)" style="fill: #fcffa4"/>
    <path d="M 316.268122 81.177463 
L 337.333441 81.177463 
L 337.333441 66.371603 
L 316.268122 66.371603 
L 316.268122 81.177463 
" clip-path="url(#p2111324a0a)" style="fill: #fcffa4"/>
    <path d="M 337.333441 81.177463 
L 358.39876 81.177463 
L 358.39876 66.371603 
L 337.333441 66.371603 
L 337.333441 81.177463 
" clip-path="url(#p2111324a0a)" style="fill: #fcffa4"/>
    <path d="M 358.39876 81.177463 
L 379.464079 81.177463 
L 379.464079 66.371603 
L 358.39876 66.371603 
L 358.39876 81.177463 
" clip-path="url(#p2111324a0a)" style="fill: #fcffa4"/>
    <path d="M 379.464079 81.177463 
L 400.529398 81.177463 
L 400.529398 66.371603 
L 379.464079 66.371603 
L 379.464079 81.177463 
" clip-path="url(#p2111324a0a)" style="fill: #fcffa4"/>
    <path d="M 400.529398 81.177463 
L 421.594717 81.177463 
L 421.594717 66.371603 
L 400.529398 66.371603 
L 400.529398 81.177463 
" clip-path="url(#p2111324a0a)" style="fill: #fcffa4"/>
    <path d="M 421.594717 81.177463 
L 442.660035 81.177463 
L 442.660035 66.371603 
L 421.594717 66.371603 
L 421.594717 81.177463 
" clip-path="url(#p2111324a0a)" style="fill: #fcffa4"/>
    <path d="M 442.660035 81.177463 
L 463.725354 81.177463 
L 463.725354 66.371603 
L 442.660035 66.371603 
L 442.660035 81.177463 
" clip-path="url(#p2111324a0a)" style="fill: #07051b"/>
    <path d="M 42.418977 66.371603 
L 63.484296 66.371603 
L 63.484296 51.565744 
L 42.418977 51.565744 
L 42.418977 66.371603 
" clip-path="url(#p2111324a0a)" style="fill: #000004"/>
    <path d="M 63.484296 66.371603 
L 84.549614 66.371603 
L 84.549614 51.565744 
L 63.484296 51.565744 
L 63.484296 66.371603 
" clip-path="url(#p2111324a0a)" style="fill: #000004"/>
    <path d="M 84.549614 66.371603 
L 105.614933 66.371603 
L 105.614933 51.565744 
L 84.549614 51.565744 
L 84.549614 66.371603 
" clip-path="url(#p2111324a0a)" style="fill: #000004"/>
    <path d="M 105.614933 66.371603 
L 126.680252 66.371603 
L 126.680252 51.565744 
L 105.614933 51.565744 
L 105.614933 66.371603 
" clip-path="url(#p2111324a0a)" style="fill: #5f136e"/>
    <path d="M 126.680252 66.371603 
L 147.745571 66.371603 
L 147.745571 51.565744 
L 126.680252 51.565744 
L 126.680252 66.371603 
" clip-path="url(#p2111324a0a)" style="fill: #fcffa4"/>
    <path d="M 147.745571 66.371603 
L 168.81089 66.371603 
L 168.81089 51.565744 
L 147.745571 51.565744 
L 147.745571 66.371603 
" clip-path="url(#p2111324a0a)" style="fill: #fcffa4"/>
    <path d="M 168.81089 66.371603 
L 189.876209 66.371603 
L 189.876209 51.565744 
L 168.81089 51.565744 
L 168.81089 66.371603 
" clip-path="url(#p2111324a0a)" style="fill: #fcffa4"/>
    <path d="M 189.876209 66.371603 
L 210.941528 66.371603 
L 210.941528 51.565744 
L 189.876209 51.565744 
L 189.876209 66.371603 
" clip-path="url(#p2111324a0a)" style="fill: #fcffa4"/>
    <path d="M 210.941528 66.371603 
L 232.006847 66.371603 
L 232.006847 51.565744 
L 210.941528 51.565744 
L 210.941528 66.371603 
" clip-path="url(#p2111324a0a)" style="fill: #fcffa4"/>
    <path d="M 232.006847 66.371603 
L 253.072166 66.371603 
L 253.072166 51.565744 
L 232.006847 51.565744 
L 232.006847 66.371603 
" clip-path="url(#p2111324a0a)" style="fill: #fcffa4"/>
    <path d="M 253.072166 66.371603 
L 274.137484 66.371603 
L 274.137484 51.565744 
L 253.072166 51.565744 
L 253.072166 66.371603 
" clip-path="url(#p2111324a0a)" style="fill: #fcffa4"/>
    <path d="M 274.137484 66.371603 
L 295.202803 66.371603 
L 295.202803 51.565744 
L 274.137484 51.565744 
L 274.137484 66.371603 
" clip-path="url(#p2111324a0a)" style="fill: #fcffa4"/>
    <path d="M 295.202803 66.371603 
L 316.268122 66.371603 
L 316.268122 51.565744 
L 295.202803 51.565744 
L 295.202803 66.371603 
" clip-path="url(#p2111324a0a)" style="fill: #fcffa4"/>
    <path d="M 316.268122 66.371603 
L 337.333441 66.371603 
L 337.333441 51.565744 
L 316.268122 51.565744 
L 316.268122 66.371603 
" clip-path="url(#p2111324a0a)" style="fill: #fcffa4"/>
    <path d="M 337.333441 66.371603 
L 358.39876 66.371603 
L 358.39876 51.565744 
L 337.333441 51.565744 
L 337.333441 66.371603 
" clip-path="url(#p2111324a0a)" style="fill: #fcffa4"/>
    <path d="M 358.39876 66.371603 
L 379.464079 66.371603 
L 379.464079 51.565744 
L 358.39876 51.565744 
L 358.39876 66.371603 
" clip-path="url(#p2111324a0a)" style="fill: #fcffa4"/>
    <path d="M 379.464079 66.371603 
L 400.529398 66.371603 
L 400.529398 51.565744 
L 379.464079 51.565744 
L 379.464079 66.371603 
" clip-path="url(#p2111324a0a)" style="fill: #fcffa4"/>
    <path d="M 400.529398 66.371603 
L 421.594717 66.371603 
L 421.594717 51.565744 
L 400.529398 51.565744 
L 400.529398 66.371603 
" clip-path="url(#p2111324a0a)" style="fill: #fcffa4"/>
    <path d="M 421.594717 66.371603 
L 442.660035 66.371603 
L 442.660035 51.565744 
L 421.594717 51.565744 
L 421.594717 66.371603 
" clip-path="url(#p2111324a0a)" style="fill: #fcffa4"/>
    <path d="M 442.660035 66.371603 
L 463.725354 66.371603 
L 463.725354 51.565744 
L 442.660035 51.565744 
L 442.660035 66.371603 
" clip-path="url(#p2111324a0a)" style="fill: #420a68"/>
    <path d="M 42.418977 51.565744 
L 63.484296 51.565744 
L 63.484296 36.759885 
L 42.418977 36.759885 
L 42.418977 51.565744 
" clip-path="url(#p2111324a0a)" style="fill: #000004"/>
    <path d="M 63.484296 51.565744 
L 84.549614 51.565744 
L 84.549614 36.759885 
L 63.484296 36.759885 
L 63.484296 51.565744 
" clip-path="url(#p2111324a0a)" style="fill: #000004"/>
    <path d="M 84.549614 51.565744 
L 105.614933 51.565744 
L 105.614933 36.759885 
L 84.549614 36.759885 
L 84.549614 51.565744 
" clip-path="url(#p2111324a0a)" style="fill: #000004"/>
    <path d="M 105.614933 51.565744 
L 126.680252 51.565744 
L 126.680252 36.759885 
L 105.614933 36.759885 
L 105.614933 51.565744 
" clip-path="url(#p2111324a0a)" style="fill: #6a176e"/>
    <path d="M 126.680252 51.565744 
L 147.745571 51.565744 
L 147.745571 36.759885 
L 126.680252 36.759885 
L 126.680252 51.565744 
" clip-path="url(#p2111324a0a)" style="fill: #fcffa4"/>
    <path d="M 147.745571 51.565744 
L 168.81089 51.565744 
L 168.81089 36.759885 
L 147.745571 36.759885 
L 147.745571 51.565744 
" clip-path="url(#p2111324a0a)" style="fill: #fcffa4"/>
    <path d="M 168.81089 51.565744 
L 189.876209 51.565744 
L 189.876209 36.759885 
L 168.81089 36.759885 
L 168.81089 51.565744 
" clip-path="url(#p2111324a0a)" style="fill: #fcffa4"/>
    <path d="M 189.876209 51.565744 
L 210.941528 51.565744 
L 210.941528 36.759885 
L 189.876209 36.759885 
L 189.876209 51.565744 
" clip-path="url(#p2111324a0a)" style="fill: #fcffa4"/>
    <path d="M 210.941528 51.565744 
L 232.006847 51.565744 
L 232.006847 36.759885 
L 210.941528 36.759885 
L 210.941528 51.565744 
" clip-path="url(#p2111324a0a)" style="fill: #fcffa4"/>
    <path d="M 232.006847 51.565744 
L 253.072166 51.565744 
L 253.072166 36.759885 
L 232.006847 36.759885 
L 232.006847 51.565744 
" clip-path="url(#p2111324a0a)" style="fill: #fcffa4"/>
    <path d="M 253.072166 51.565744 
L 274.137484 51.565744 
L 274.137484 36.759885 
L 253.072166 36.759885 
L 253.072166 51.565744 
" clip-path="url(#p2111324a0a)" style="fill: #fcffa4"/>
    <path d="M 274.137484 51.565744 
L 295.202803 51.565744 
L 295.202803 36.759885 
L 274.137484 36.759885 
L 274.137484 51.565744 
" clip-path="url(#p2111324a0a)" style="fill: #fcffa4"/>
    <path d="M 295.202803 51.565744 
L 316.268122 51.565744 
L 316.268122 36.759885 
L 295.202803 36.759885 
L 295.202803 51.565744 
" clip-path="url(#p2111324a0a)" style="fill: #fcffa4"/>
    <path d="M 316.268122 51.565744 
L 337.333441 51.565744 
L 337.333441 36.759885 
L 316.268122 36.759885 
L 316.268122 51.565744 
" clip-path="url(#p2111324a0a)" style="fill: #fcffa4"/>
    <path d="M 337.333441 51.565744 
L 358.39876 51.565744 
L 358.39876 36.759885 
L 337.333441 36.759885 
L 337.333441 51.565744 
" clip-path="url(#p2111324a0a)" style="fill: #fcffa4"/>
    <path d="M 358.39876 51.565744 
L 379.464079 51.565744 
L 379.464079 36.759885 
L 358.39876 36.759885 
L 358.39876 51.565744 
" clip-path="url(#p2111324a0a)" style="fill: #fcffa4"/>
    <path d="M 379.464079 51.565744 
L 400.529398 51.565744 
L 400.529398 36.759885 
L 379.464079 36.759885 
L 379.464079 51.565744 
" clip-path="url(#p2111324a0a)" style="fill: #fcffa4"/>
    <path d="M 400.529398 51.565744 
L 421.594717 51.565744 
L 421.594717 36.759885 
L 400.529398 36.759885 
L 400.529398 51.565744 
" clip-path="url(#p2111324a0a)" style="fill: #fcffa4"/>
    <path d="M 421.594717 51.565744 
L 442.660035 51.565744 
L 442.660035 36.759885 
L 421.594717 36.759885 
L 421.594717 51.565744 
" clip-path="url(#p2111324a0a)" style="fill: #fcffa4"/>
    <path d="M 442.660035 51.565744 
L 463.725354 51.565744 
L 463.725354 36.759885 
L 442.660035 36.759885 
L 442.660035 51.565744 
" clip-path="url(#p2111324a0a)" style="fill: #fcffa4"/>
    <path d="M 42.418977 36.759885 
L 63.484296 36.759885 
L 63.484296 21.954025 
L 42.418977 21.954025 
L 42.418977 36.759885 
" clip-path="url(#p2111324a0a)" style="fill: #000004"/>
    <path d="M 63.484296 36.759885 
L 84.549614 36.759885 
L 84.549614 21.954025 
L 63.484296 21.954025 
L 63.484296 36.759885 
" clip-path="url(#p2111324a0a)" style="fill: #000004"/>
    <path d="M 84.549614 36.759885 
L 105.614933 36.759885 
L 105.614933 21.954025 
L 84.549614 21.954025 
L 84.549614 36.759885 
" clip-path="url(#p2111324a0a)" style="fill: #230c4c"/>
    <path d="M 105.614933 36.759885 
L 126.680252 36.759885 
L 126.680252 21.954025 
L 105.614933 21.954025 
L 105.614933 36.759885 
" clip-path="url(#p2111324a0a)" style="fill: #5f136e"/>
    <path d="M 126.680252 36.759885 
L 147.745571 36.759885 
L 147.745571 21.954025 
L 126.680252 21.954025 
L 126.680252 36.759885 
" clip-path="url(#p2111324a0a)" style="fill: #fcffa4"/>
    <path d="M 147.745571 36.759885 
L 168.81089 36.759885 
L 168.81089 21.954025 
L 147.745571 21.954025 
L 147.745571 36.759885 
" clip-path="url(#p2111324a0a)" style="fill: #fcffa4"/>
    <path d="M 168.81089 36.759885 
L 189.876209 36.759885 
L 189.876209 21.954025 
L 168.81089 21.954025 
L 168.81089 36.759885 
" clip-path="url(#p2111324a0a)" style="fill: #fcffa4"/>
    <path d="M 189.876209 36.759885 
L 210.941528 36.759885 
L 210.941528 21.954025 
L 189.876209 21.954025 
L 189.876209 36.759885 
" clip-path="url(#p2111324a0a)" style="fill: #fcffa4"/>
    <path d="M 210.941528 36.759885 
L 232.006847 36.759885 
L 232.006847 21.954025 
L 210.941528 21.954025 
L 210.941528 36.759885 
" clip-path="url(#p2111324a0a)" style="fill: #fcffa4"/>
    <path d="M 232.006847 36.759885 
L 253.072166 36.759885 
L 253.072166 21.954025 
L 232.006847 21.954025 
L 232.006847 36.759885 
" clip-path="url(#p2111324a0a)" style="fill: #fcffa4"/>
    <path d="M 253.072166 36.759885 
L 274.137484 36.759885 
L 274.137484 21.954025 
L 253.072166 21.954025 
L 253.072166 36.759885 
" clip-path="url(#p2111324a0a)" style="fill: #fcffa4"/>
    <path d="M 274.137484 36.759885 
L 295.202803 36.759885 
L 295.202803 21.954025 
L 274.137484 21.954025 
L 274.137484 36.759885 
" clip-path="url(#p2111324a0a)" style="fill: #fcffa4"/>
    <path d="M 295.202803 36.759885 
L 316.268122 36.759885 
L 316.268122 21.954025 
L 295.202803 21.954025 
L 295.202803 36.759885 
" clip-path="url(#p2111324a0a)" style="fill: #fcffa4"/>
    <path d="M 316.268122 36.759885 
L 337.333441 36.759885 
L 337.333441 21.954025 
L 316.268122 21.954025 
L 316.268122 36.759885 
" clip-path="url(#p2111324a0a)" style="fill: #fcffa4"/>
    <path d="M 337.333441 36.759885 
L 358.39876 36.759885 
L 358.39876 21.954025 
L 337.333441 21.954025 
L 337.333441 36.759885 
" clip-path="url(#p2111324a0a)" style="fill: #fcffa4"/>
    <path d="M 358.39876 36.759885 
L 379.464079 36.759885 
L 379.464079 21.954025 
L 358.39876 21.954025 
L 358.39876 36.759885 
" clip-path="url(#p2111324a0a)" style="fill: #fcffa4"/>
    <path d="M 379.464079 36.759885 
L 400.529398 36.759885 
L 400.529398 21.954025 
L 379.464079 21.954025 
L 379.464079 36.759885 
" clip-path="url(#p2111324a0a)" style="fill: #fcffa4"/>
    <path d="M 400.529398 36.759885 
L 421.594717 36.759885 
L 421.594717 21.954025 
L 400.529398 21.954025 
L 400.529398 36.759885 
" clip-path="url(#p2111324a0a)" style="fill: #fcffa4"/>
    <path d="M 421.594717 36.759885 
L 442.660035 36.759885 
L 442.660035 21.954025 
L 421.594717 21.954025 
L 421.594717 36.759885 
" clip-path="url(#p2111324a0a)" style="fill: #fcffa4"/>
    <path d="M 442.660035 36.759885 
L 463.725354 36.759885 
L 463.725354 21.954025 
L 442.660035 21.954025 
L 442.660035 36.759885 
" clip-path="url(#p2111324a0a)" style="fill: #fcffa4"/>
    <path d="M 42.418977 21.954025 
L 63.484296 21.954025 
L 63.484296 7.148166 
L 42.418977 7.148166 
L 42.418977 21.954025 
" clip-path="url(#p2111324a0a)" style="fill: #000004"/>
    <path d="M 63.484296 21.954025 
L 84.549614 21.954025 
L 84.549614 7.148166 
L 63.484296 7.148166 
L 63.484296 21.954025 
" clip-path="url(#p2111324a0a)" style="fill: #000004"/>
    <path d="M 84.549614 21.954025 
L 105.614933 21.954025 
L 105.614933 7.148166 
L 84.549614 7.148166 
L 84.549614 21.954025 
" clip-path="url(#p2111324a0a)" style="fill: #57106e"/>
    <path d="M 105.614933 21.954025 
L 126.680252 21.954025 
L 126.680252 7.148166 
L 105.614933 7.148166 
L 105.614933 21.954025 
" clip-path="url(#p2111324a0a)" style="fill: #fcffa4"/>
    <path d="M 126.680252 21.954025 
L 147.745571 21.954025 
L 147.745571 7.148166 
L 126.680252 7.148166 
L 126.680252 21.954025 
" clip-path="url(#p2111324a0a)" style="fill: #fcffa4"/>
    <path d="M 147.745571 21.954025 
L 168.81089 21.954025 
L 168.81089 7.148166 
L 147.745571 7.148166 
L 147.745571 21.954025 
" clip-path="url(#p2111324a0a)" style="fill: #fcffa4"/>
    <path d="M 168.81089 21.954025 
L 189.876209 21.954025 
L 189.876209 7.148166 
L 168.81089 7.148166 
L 168.81089 21.954025 
" clip-path="url(#p2111324a0a)" style="fill: #fcffa4"/>
    <path d="M 189.876209 21.954025 
L 210.941528 21.954025 
L 210.941528 7.148166 
L 189.876209 7.148166 
L 189.876209 21.954025 
" clip-path="url(#p2111324a0a)" style="fill: #fcffa4"/>
    <path d="M 210.941528 21.954025 
L 232.006847 21.954025 
L 232.006847 7.148166 
L 210.941528 7.148166 
L 210.941528 21.954025 
" clip-path="url(#p2111324a0a)" style="fill: #fcffa4"/>
    <path d="M 232.006847 21.954025 
L 253.072166 21.954025 
L 253.072166 7.148166 
L 232.006847 7.148166 
L 232.006847 21.954025 
" clip-path="url(#p2111324a0a)" style="fill: #fcffa4"/>
    <path d="M 253.072166 21.954025 
L 274.137484 21.954025 
L 274.137484 7.148166 
L 253.072166 7.148166 
L 253.072166 21.954025 
" clip-path="url(#p2111324a0a)" style="fill: #fcffa4"/>
    <path d="M 274.137484 21.954025 
L 295.202803 21.954025 
L 295.202803 7.148166 
L 274.137484 7.148166 
L 274.137484 21.954025 
" clip-path="url(#p2111324a0a)" style="fill: #fcffa4"/>
    <path d="M 295.202803 21.954025 
L 316.268122 21.954025 
L 316.268122 7.148166 
L 295.202803 7.148166 
L 295.202803 21.954025 
" clip-path="url(#p2111324a0a)" style="fill: #fcffa4"/>
    <path d="M 316.268122 21.954025 
L 337.333441 21.954025 
L 337.333441 7.148166 
L 316.268122 7.148166 
L 316.268122 21.954025 
" clip-path="url(#p2111324a0a)" style="fill: #fcffa4"/>
    <path d="M 337.333441 21.954025 
L 358.39876 21.954025 
L 358.39876 7.148166 
L 337.333441 7.148166 
L 337.333441 21.954025 
" clip-path="url(#p2111324a0a)" style="fill: #fcffa4"/>
    <path d="M 358.39876 21.954025 
L 379.464079 21.954025 
L 379.464079 7.148166 
L 358.39876 7.148166 
L 358.39876 21.954025 
" clip-path="url(#p2111324a0a)" style="fill: #fcffa4"/>
    <path d="M 379.464079 21.954025 
L 400.529398 21.954025 
L 400.529398 7.148166 
L 379.464079 7.148166 
L 379.464079 21.954025 
" clip-path="url(#p2111324a0a)" style="fill: #fcffa4"/>
    <path d="M 400.529398 21.954025 
L 421.594717 21.954025 
L 421.594717 7.148166 
L 400.529398 7.148166 
L 400.529398 21.954025 
" clip-path="url(#p2111324a0a)" style="fill: #fcffa4"/>
    <path d="M 421.594717 21.954025 
L 442.660035 21.954025 
L 442.660035 7.148166 
L 421.594717 7.148166 
L 421.594717 21.954025 
" clip-path="url(#p2111324a0a)" style="fill: #fcffa4"/>
    <path d="M 442.660035 21.954025 
L 463.725354 21.954025 
L 463.725354 7.148166 
L 442.660035 7.148166 
L 442.660035 21.954025 
" clip-path="url(#p2111324a0a)" style="fill: #fcffa4"/>
   </g>
   <g id="matplotlib.axis_1">
    <g id="xtick_1">
     <g id="line2d_1">
      <defs>
       <path id="mee919be937" d="M 0 0 
L 0 -5 
" style="stroke: #000000"/>
      </defs>
      <g>
       <use xlink:href="#mee919be937" x="119.658479" y="303.265354" style="stroke: #000000"/>
      </g>
     </g>
     <g id="text_1">
      <!-- $0.8$ -->
      <g transform="translate(101.738479 328.040979) scale(0.28 -0.28)">
       <defs>
        <path id="Cmr10-30" d="M 1600 -141 
Q 816 -141 533 504 
Q 250 1150 250 2041 
Q 250 2597 351 3087 
Q 453 3578 754 3920 
Q 1056 4263 1600 4263 
Q 2022 4263 2290 4056 
Q 2559 3850 2700 3523 
Q 2841 3197 2892 2823 
Q 2944 2450 2944 2041 
Q 2944 1491 2842 1011 
Q 2741 531 2444 195 
Q 2147 -141 1600 -141 
z
M 1600 25 
Q 1956 25 2131 390 
Q 2306 756 2347 1200 
Q 2388 1644 2388 2144 
Q 2388 2625 2347 3031 
Q 2306 3438 2132 3767 
Q 1959 4097 1600 4097 
Q 1238 4097 1063 3765 
Q 888 3434 847 3029 
Q 806 2625 806 2144 
Q 806 1788 823 1472 
Q 841 1156 916 820 
Q 991 484 1158 254 
Q 1325 25 1600 25 
z
" transform="scale(0.015625)"/>
        <path id="Cmmi10-3a" d="M 538 353 
Q 538 497 644 600 
Q 750 703 891 703 
Q 978 703 1062 656 
Q 1147 609 1194 525 
Q 1241 441 1241 353 
Q 1241 213 1137 106 
Q 1034 0 891 0 
Q 750 0 644 106 
Q 538 213 538 353 
z
" transform="scale(0.015625)"/>
        <path id="Cmr10-38" d="M 269 972 
Q 269 1356 522 1651 
Q 775 1947 1172 2144 
L 934 2297 
Q 716 2441 578 2680 
Q 441 2919 441 3181 
Q 441 3488 602 3734 
Q 763 3981 1030 4122 
Q 1297 4263 1600 4263 
Q 1884 4263 2148 4147 
Q 2413 4031 2583 3815 
Q 2753 3600 2753 3303 
Q 2753 3088 2651 2903 
Q 2550 2719 2373 2572 
Q 2197 2425 1997 2322 
L 2363 2088 
Q 2616 1922 2770 1653 
Q 2925 1384 2925 1088 
Q 2925 741 2739 456 
Q 2553 172 2247 15 
Q 1941 -141 1600 -141 
Q 1269 -141 961 -6 
Q 653 128 461 383 
Q 269 638 269 972 
z
M 616 972 
Q 616 719 755 509 
Q 894 300 1122 181 
Q 1350 63 1600 63 
Q 1972 63 2275 280 
Q 2578 497 2578 856 
Q 2578 978 2529 1098 
Q 2481 1219 2395 1317 
Q 2309 1416 2203 1478 
L 1344 2034 
Q 1144 1928 976 1765 
Q 809 1603 712 1400 
Q 616 1197 616 972 
z
M 1056 2925 
L 1831 2425 
Q 2100 2581 2272 2803 
Q 2444 3025 2444 3303 
Q 2444 3519 2323 3698 
Q 2203 3878 2009 3978 
Q 1816 4078 1594 4078 
Q 1400 4078 1203 4003 
Q 1006 3928 878 3779 
Q 750 3631 750 3431 
Q 750 3131 1056 2925 
z
" transform="scale(0.015625)"/>
       </defs>
       <use xlink:href="#Cmr10-30" transform="translate(0 0.390625)"/>
       <use xlink:href="#Cmmi10-3a" transform="translate(50 0.390625)"/>
       <use xlink:href="#Cmr10-38" transform="translate(77.685547 0.390625)"/>
      </g>
     </g>
    </g>
    <g id="xtick_2">
     <g id="line2d_2">
      <g>
       <use xlink:href="#mee919be937" x="253.072166" y="303.265354" style="stroke: #000000"/>
      </g>
     </g>
     <g id="text_2">
      <!-- $1.0$ -->
      <g transform="translate(235.152166 328.040979) scale(0.28 -0.28)">
       <defs>
        <path id="Cmr10-31" d="M 594 0 
L 594 225 
Q 1394 225 1394 428 
L 1394 3788 
Q 1063 3628 556 3628 
L 556 3853 
Q 1341 3853 1741 4263 
L 1831 4263 
Q 1853 4263 1873 4245 
Q 1894 4228 1894 4206 
L 1894 428 
Q 1894 225 2694 225 
L 2694 0 
L 594 0 
z
" transform="scale(0.015625)"/>
       </defs>
       <use xlink:href="#Cmr10-31" transform="translate(0 0.390625)"/>
       <use xlink:href="#Cmmi10-3a" transform="translate(50 0.390625)"/>
       <use xlink:href="#Cmr10-30" transform="translate(77.685547 0.390625)"/>
      </g>
     </g>
    </g>
    <g id="xtick_3">
     <g id="line2d_3">
      <g>
       <use xlink:href="#mee919be937" x="386.485852" y="303.265354" style="stroke: #000000"/>
      </g>
     </g>
     <g id="text_3">
      <!-- $1.2$ -->
      <g transform="translate(368.565852 328.040979) scale(0.28 -0.28)">
       <defs>
        <path id="Cmr10-32" d="M 319 0 
L 319 172 
Q 319 188 331 206 
L 1325 1306 
Q 1550 1550 1690 1715 
Q 1831 1881 1968 2097 
Q 2106 2313 2186 2536 
Q 2266 2759 2266 3009 
Q 2266 3272 2169 3511 
Q 2072 3750 1880 3894 
Q 1688 4038 1416 4038 
Q 1138 4038 916 3870 
Q 694 3703 603 3438 
Q 628 3444 672 3444 
Q 816 3444 917 3347 
Q 1019 3250 1019 3097 
Q 1019 2950 917 2848 
Q 816 2747 672 2747 
Q 522 2747 420 2851 
Q 319 2956 319 3097 
Q 319 3338 409 3548 
Q 500 3759 670 3923 
Q 841 4088 1055 4175 
Q 1269 4263 1509 4263 
Q 1875 4263 2190 4108 
Q 2506 3953 2690 3670 
Q 2875 3388 2875 3009 
Q 2875 2731 2753 2481 
Q 2631 2231 2440 2026 
Q 2250 1822 1953 1562 
Q 1656 1303 1563 1216 
L 838 519 
L 1453 519 
Q 1906 519 2211 526 
Q 2516 534 2534 550 
Q 2609 631 2688 1141 
L 2875 1141 
L 2694 0 
L 319 0 
z
" transform="scale(0.015625)"/>
       </defs>
       <use xlink:href="#Cmr10-31" transform="translate(0 0.390625)"/>
       <use xlink:href="#Cmmi10-3a" transform="translate(50 0.390625)"/>
       <use xlink:href="#Cmr10-32" transform="translate(77.685547 0.390625)"/>
      </g>
     </g>
    </g>
   </g>
   <g id="matplotlib.axis_2">
    <g id="ytick_1">
     <g id="line2d_4">
      <defs>
       <path id="m32fc3880ab" d="M 0 0 
L 5 0 
" style="stroke: #000000"/>
      </defs>
      <g>
       <use xlink:href="#m32fc3880ab" x="42.418977" y="295.862425" style="stroke: #000000"/>
      </g>
     </g>
     <g id="text_4">
      <!-- $0.0$ -->
      <g transform="translate(3.078977 306.500237) scale(0.28 -0.28)">
       <use xlink:href="#Cmr10-30" transform="translate(0 0.390625)"/>
       <use xlink:href="#Cmmi10-3a" transform="translate(50 0.390625)"/>
       <use xlink:href="#Cmr10-30" transform="translate(77.685547 0.390625)"/>
      </g>
     </g>
    </g>
    <g id="ytick_2">
     <g id="line2d_5">
      <g>
       <use xlink:href="#m32fc3880ab" x="42.418977" y="155.20676" style="stroke: #000000"/>
      </g>
     </g>
     <g id="text_5">
      <!-- $0.5$ -->
      <g transform="translate(3.078977 165.844572) scale(0.28 -0.28)">
       <defs>
        <path id="Cmr10-35" d="M 556 728 
Q 622 541 758 387 
Q 894 234 1080 148 
Q 1266 63 1466 63 
Q 1928 63 2103 422 
Q 2278 781 2278 1294 
Q 2278 1516 2270 1667 
Q 2263 1819 2228 1959 
Q 2169 2184 2020 2353 
Q 1872 2522 1656 2522 
Q 1441 2522 1286 2456 
Q 1131 2391 1034 2303 
Q 938 2216 863 2119 
Q 788 2022 769 2016 
L 697 2016 
Q 681 2016 657 2036 
Q 634 2056 634 2075 
L 634 4213 
Q 634 4228 654 4245 
Q 675 4263 697 4263 
L 716 4263 
Q 1147 4056 1631 4056 
Q 2106 4056 2547 4263 
L 2566 4263 
Q 2588 4263 2606 4247 
Q 2625 4231 2625 4213 
L 2625 4153 
Q 2625 4122 2613 4122 
Q 2394 3831 2064 3668 
Q 1734 3506 1381 3506 
Q 1125 3506 856 3578 
L 856 2369 
Q 1069 2541 1236 2614 
Q 1403 2688 1663 2688 
Q 2016 2688 2295 2484 
Q 2575 2281 2725 1954 
Q 2875 1628 2875 1288 
Q 2875 903 2686 575 
Q 2497 247 2172 53 
Q 1847 -141 1466 -141 
Q 1150 -141 886 21 
Q 622 184 470 459 
Q 319 734 319 1044 
Q 319 1188 412 1278 
Q 506 1369 647 1369 
Q 788 1369 883 1276 
Q 978 1184 978 1044 
Q 978 906 883 811 
Q 788 716 647 716 
Q 625 716 597 720 
Q 569 725 556 728 
z
" transform="scale(0.015625)"/>
       </defs>
       <use xlink:href="#Cmr10-30" transform="translate(0 0.390625)"/>
       <use xlink:href="#Cmmi10-3a" transform="translate(50 0.390625)"/>
       <use xlink:href="#Cmr10-35" transform="translate(77.685547 0.390625)"/>
      </g>
     </g>
    </g>
    <g id="ytick_3">
     <g id="line2d_6">
      <g>
       <use xlink:href="#m32fc3880ab" x="42.418977" y="14.551095" style="stroke: #000000"/>
      </g>
     </g>
     <g id="text_6">
      <!-- $1.0$ -->
      <g transform="translate(3.078977 25.188908) scale(0.28 -0.28)">
       <use xlink:href="#Cmr10-31" transform="translate(0 0.390625)"/>
       <use xlink:href="#Cmmi10-3a" transform="translate(50 0.390625)"/>
       <use xlink:href="#Cmr10-30" transform="translate(77.685547 0.390625)"/>
      </g>
     </g>
    </g>
   </g>
   <g id="patch_3">
    <path d="M 42.418977 303.265354 
L 42.418977 7.148166 
" style="fill: none; stroke: #000000; stroke-width: 2; stroke-linejoin: miter; stroke-linecap: square"/>
   </g>
   <g id="patch_4">
    <path d="M 42.418977 303.265354 
L 463.725354 303.265354 
" style="fill: none; stroke: #000000; stroke-width: 2; stroke-linejoin: miter; stroke-linecap: square"/>
   </g>
  </g>
 </g>
 <defs>
  <clipPath id="p2111324a0a">
   <rect x="42.418977" y="7.148166" width="421.306378" height="296.117189"/>
  </clipPath>
 </defs>
</svg>
