<?xml version="1.0" encoding="utf-8" standalone="no"?>
<!DOCTYPE svg PUBLIC "-//W3C//DTD SVG 1.1//EN"
  "http://www.w3.org/Graphics/SVG/1.1/DTD/svg11.dtd">
<svg xmlns:xlink="http://www.w3.org/1999/xlink" width="480.96pt" height="144pt" viewBox="0 0 480.96 144" xmlns="http://www.w3.org/2000/svg" version="1.1">
 <metadata>
  <rdf:RDF xmlns:dc="http://purl.org/dc/elements/1.1/" xmlns:cc="http://creativecommons.org/ns#" xmlns:rdf="http://www.w3.org/1999/02/22-rdf-syntax-ns#">
   <cc:Work>
    <dc:type rdf:resource="http://purl.org/dc/dcmitype/StillImage"/>
    <dc:date>2024-08-13T15:28:31.308722</dc:date>
    <dc:format>image/svg+xml</dc:format>
    <dc:creator>
     <cc:Agent>
      <dc:title>Matplotlib v3.8.4, https://matplotlib.org/</dc:title>
     </cc:Agent>
    </dc:creator>
   </cc:Work>
  </rdf:RDF>
 </metadata>
 <defs>
  <style type="text/css">*{stroke-linejoin: round; stroke-linecap: butt}</style>
 </defs>
 <g id="figure_1">
  <g id="patch_1">
   <path d="M 0 144 
L 480.96 144 
L 480.96 0 
L 0 0 
L 0 144 
z
" style="fill: none"/>
  </g>
  <g id="axes_1">
   <g id="patch_2">
    <path d="M 2.834646 141.165354 
L 478.125354 141.165354 
L 478.125354 2.834646 
L 2.834646 2.834646 
L 2.834646 141.165354 
z
" style="fill: none"/>
   </g>
   <g id="line2d_1">
    <path d="M 16.286269 70.246841 
L 17.497037 92.856952 
L 18.842334 117.273611 
L 19.649512 128.286972 
L 20.187631 133.35346 
L 20.725749 136.363652 
L 20.994809 137.069849 
L 21.263868 137.242187 
L 21.532927 136.887694 
L 21.801987 136.019628 
L 22.205576 133.79654 
L 22.743695 129.251781 
L 23.416343 121.408288 
L 24.358051 107.53832 
L 27.048645 65.859819 
L 27.855823 57.26807 
L 28.393942 53.32303 
L 28.93206 50.962861 
L 29.20112 50.400475 
L 29.470179 50.258678 
L 29.604709 50.414986 
L 29.873768 51.302864 
L 30.277357 54.005764 
L 30.815476 59.909338 
L 31.488125 70.256357 
L 32.698892 93.464543 
L 34.044189 118.360339 
L 34.851367 129.32203 
L 35.389486 134.159796 
L 35.793075 136.336921 
L 36.062134 137.073843 
L 36.331193 137.237288 
L 36.600253 136.833704 
L 36.869312 135.876763 
L 37.272901 133.449488 
L 37.81102 128.514936 
L 38.483669 120.044835 
L 39.559906 102.911397 
L 41.712381 67.699573 
L 42.519559 58.201605 
L 43.192208 52.95296 
L 43.595797 51.111488 
L 43.864856 50.451716 
L 44.133916 50.251492 
L 44.268445 50.382001 
L 44.537505 51.260041 
L 44.941094 54.047079 
L 45.479213 60.223311 
L 46.151861 71.087538 
L 47.362628 95.291455 
L 48.573395 118.386162 
L 49.380574 129.663145 
L 49.918692 134.507673 
L 50.322281 136.571755 
L 50.591341 137.17825 
L 50.72587 137.250262 
L 50.8604 137.169292 
L 51.12946 136.554754 
L 51.533049 134.5388 
L 52.071167 129.959128 
L 52.743816 121.640764 
L 53.685524 106.57374 
L 56.107058 65.919324 
L 56.914236 56.73687 
L 57.452355 52.732545 
L 57.855944 50.954448 
L 58.125003 50.3706 
L 58.394063 50.287267 
L 58.663122 50.970225 
L 58.932182 52.485989 
L 59.335771 56.214187 
L 59.873889 63.55377 
L 60.681068 78.273044 
L 62.968072 122.990304 
L 63.640721 131.483641 
L 64.17884 135.630191 
L 64.582429 137.072842 
L 64.851488 137.229378 
L 65.120547 136.750092 
L 65.389607 135.652366 
L 65.793196 132.903772 
L 66.331315 127.375124 
L 67.003963 118.00102 
L 68.080201 99.442184 
L 69.829087 69.234804 
L 70.636265 58.913009 
L 71.308913 53.196568 
L 71.712502 51.190738 
L 71.981562 50.471612 
L 72.250621 50.25125 
L 72.385151 50.386458 
L 72.65421 51.310092 
L 73.057799 54.252233 
L 73.595918 60.774103 
L 74.268566 72.213656 
L 75.748393 103.062119 
L 76.824631 122.868834 
L 77.497279 131.494847 
L 78.035398 135.675466 
L 78.438987 137.096785 
L 78.573517 137.239384 
L 78.708046 137.217263 
L 78.977106 136.685466 
L 79.246165 135.519953 
L 79.649754 132.646079 
L 80.187873 126.917584 
L 80.860521 117.273726 
L 82.071289 95.850287 
L 83.551115 70.064609 
L 84.358293 59.417424 
L 85.030942 53.457163 
L 85.434531 51.326554 
L 85.83812 50.329645 
L 85.97265 50.250852 
L 86.107179 50.33605 
L 86.376239 51.169093 
L 86.779828 54.00645 
L 87.317946 60.450347 
L 87.990595 71.886677 
L 89.335892 100.130775 
L 90.412129 120.800447 
L 91.084778 130.166294 
L 91.622897 134.96731 
L 92.026486 136.840669 
L 92.295545 137.246721 
L 92.430075 137.197945 
L 92.699134 136.604715 
L 92.968194 135.368515 
L 93.371783 132.373974 
L 93.909901 126.469113 
L 94.71708 114.374712 
L 96.196906 87.376858 
L 97.407673 67.121921 
L 98.214851 57.290115 
L 98.75297 52.978019 
L 99.156559 51.046896 
L 99.425619 50.398856 
L 99.694678 50.275381 
L 99.829208 50.495366 
L 100.098267 51.598507 
L 100.501856 54.829712 
L 101.039975 61.750057 
L 101.712623 73.655374 
L 104.537747 128.256721 
L 105.075866 133.83725 
L 105.479455 136.305226 
L 105.748514 137.100169 
L 105.883044 137.241169 
L 106.017574 137.212208 
L 106.286633 136.651361 
L 106.555692 135.437409 
L 106.959281 132.458869 
L 107.4974 126.544447 
L 108.304578 114.385684 
L 109.784405 87.218009 
L 110.995172 66.89599 
L 111.80235 57.093273 
L 112.340469 52.836901 
L 112.744058 50.964526 
L 113.013118 50.362885 
L 113.147647 50.2566 
L 113.282177 50.302286 
L 113.551236 51.060674 
L 113.820296 52.693303 
L 114.223885 56.666982 
L 114.762004 64.435903 
L 115.569182 79.888545 
L 117.721657 123.243021 
L 118.394305 131.8779 
L 118.932424 135.930996 
L 119.201483 136.93565 
L 119.470543 137.249687 
L 119.605072 137.14954 
L 119.874132 136.444067 
L 120.277721 134.1697 
L 120.81584 129.05512 
L 121.488488 119.869321 
L 122.564726 101.017428 
L 124.313612 69.717783 
L 125.12079 59.014713 
L 125.658909 54.072763 
L 126.197027 51.124709 
L 126.466087 50.42963 
L 126.735146 50.263085 
L 126.869676 50.455275 
L 127.138735 51.513903 
L 127.542324 54.706284 
L 128.080443 61.625901 
L 128.753091 73.597942 
L 131.578215 128.514558 
L 132.116334 134.034596 
L 132.519923 136.422043 
L 132.788982 137.147558 
L 132.923512 137.249634 
L 133.058042 137.17913 
L 133.327101 136.528265 
L 133.73069 134.322266 
L 134.268809 129.273286 
L 134.941457 120.127964 
L 135.883165 103.781993 
L 137.90111 67.789896 
L 138.708289 57.640183 
L 139.246407 53.157259 
L 139.649996 51.127607 
L 139.919056 50.429555 
L 140.188115 50.263599 
L 140.322645 50.458072 
L 140.591704 51.524607 
L 140.995293 54.736413 
L 141.533412 61.692695 
L 142.206061 73.718704 
L 145.031184 128.680772 
L 145.569303 134.147584 
L 145.972892 136.482978 
L 146.241951 137.169058 
L 146.376481 137.250241 
L 146.511011 137.158186 
L 146.78007 136.462648 
L 147.183659 134.187239 
L 147.721778 129.0458 
L 148.394426 119.79482 
L 149.470664 100.810022 
L 151.21955 69.39479 
L 152.026728 58.736585 
L 152.564847 53.864229 
L 152.968436 51.531873 
L 153.372025 50.380189 
L 153.506555 50.260766 
L 153.641084 50.290719 
L 153.910144 51.022601 
L 154.179203 52.643535 
L 154.582792 56.626208 
L 155.120911 64.448846 
L 155.928089 80.036477 
L 157.946034 121.463752 
L 158.618683 130.75961 
L 159.156802 135.3657 
L 159.560391 137.015069 
L 159.82945 137.239216 
L 159.96398 137.090869 
L 160.233039 136.283652 
L 160.636628 133.847021 
L 161.174747 128.509659 
L 161.847395 119.060894 
L 162.923633 99.903442 
L 164.672519 68.629977 
L 165.479697 58.188758 
L 166.017816 53.497755 
L 166.421405 51.313811 
L 166.824994 50.317043 
L 166.959524 50.249894 
L 167.094053 50.363967 
L 167.363113 51.27848 
L 167.766702 54.287835 
L 168.304821 61.03267 
L 168.977469 72.897271 
L 171.802593 128.239852 
L 172.340711 133.882874 
L 172.7443 136.351159 
L 173.01336 137.123521 
L 173.14789 137.246651 
L 173.282419 137.195589 
L 173.551479 136.57832 
L 173.820538 135.293514 
L 174.224127 132.184956 
L 174.762246 126.067791 
L 175.569424 113.588081 
L 178.663607 60.512549 
L 179.336255 54.016691 
L 179.739844 51.61995 
L 180.143433 50.40787 
L 180.412493 50.273976 
L 180.547023 50.495459 
L 180.816082 51.619602 
L 181.219671 54.923662 
L 181.75779 62.002676 
L 182.430438 74.160127 
L 185.121032 127.306291 
L 185.659151 133.287632 
L 186.06274 136.029354 
L 186.331799 136.98732 
L 186.600859 137.24426 
L 186.735388 137.111933 
L 187.004448 136.33595 
L 187.408037 133.942835 
L 187.946156 128.656269 
L 188.618804 119.255586 
L 189.695042 100.133494 
L 191.443928 68.80741 
L 192.251106 58.308826 
L 192.789224 53.573985 
L 193.192814 51.356841 
L 193.596403 50.327801 
L 193.730932 50.25037 
L 193.865462 50.34719 
L 194.134521 51.228372 
L 194.53811 54.193223 
L 195.076229 60.889556 
L 195.748878 72.711811 
L 198.574001 128.104179 
L 199.11212 133.794312 
L 199.515709 136.303263 
L 199.784768 137.104779 
L 199.919298 137.242881 
L 200.053828 137.207024 
L 200.322887 136.620584 
L 200.591947 135.366744 
L 200.995536 132.303972 
L 201.533654 126.243896 
L 202.340833 113.833513 
L 205.569545 59.16535 
L 206.107664 54.146182 
L 206.645783 51.146061 
L 206.914842 50.436009 
L 207.183901 50.262007 
L 207.318431 50.452954 
L 207.58749 51.517697 
L 207.99108 54.737765 
L 208.529198 61.719221 
L 209.201847 73.785364 
L 211.892441 127.009353 
L 212.430559 133.087054 
L 212.834148 135.912772 
L 213.103208 136.930662 
L 213.372267 137.249729 
L 213.506797 137.148945 
L 213.775856 136.436471 
L 214.179445 134.13759 
L 214.717564 128.969874 
L 215.390213 119.69576 
L 216.46645 100.696877 
L 218.215336 69.30442 
L 219.022514 58.669442 
L 219.560633 53.816797 
L 219.964222 51.501787 
L 220.367811 50.370045 
L 220.502341 50.25792 
L 220.636871 50.299201 
L 220.90593 51.059455 
L 221.174989 52.709431 
L 221.578578 56.733577 
L 222.116697 64.601759 
L 222.923875 80.224331 
L 224.941821 121.566951 
L 225.614469 130.81406 
L 226.152588 135.388217 
L 226.556177 137.020987 
L 226.825236 137.238218 
L 226.959766 137.087751 
L 227.228825 136.278977 
L 227.632414 133.846709 
L 228.170533 128.526301 
L 228.843182 119.111805 
L 229.919419 100.017604 
L 231.668305 68.783219 
L 232.475483 58.311395 
L 233.013602 53.583688 
L 233.417191 51.365584 
L 233.82078 50.330935 
L 233.95531 50.250668 
L 234.08984 50.342063 
L 234.358899 51.210447 
L 234.762488 54.152571 
L 235.300607 60.812898 
L 235.973255 72.585595 
L 237.587612 107.039762 
L 238.529319 124.141158 
L 239.201968 132.479164 
L 239.605557 135.551297 
L 240.009146 137.07515 
L 240.143676 137.23492 
L 240.278205 137.221593 
L 240.547265 136.682404 
L 240.816324 135.477996 
L 241.219913 132.491561 
L 241.758032 126.532103 
L 242.56521 114.254052 
L 244.179567 84.360174 
L 245.255804 66.461463 
L 245.928452 58.078439 
L 246.466571 53.434478 
L 246.87016 51.280755 
L 247.13922 50.501058 
L 247.408279 50.250152 
L 247.542809 50.377054 
L 247.811868 51.315177 
L 248.215457 54.352642 
L 248.753576 61.117371 
L 249.426224 72.976126 
L 252.251348 128.160379 
L 252.789467 133.81382 
L 253.193056 136.307329 
L 253.462115 137.104658 
L 253.596645 137.242668 
L 253.731175 137.207972 
L 254.000234 136.627651 
L 254.269293 135.384741 
L 254.672882 132.346354 
L 255.211001 126.330491 
L 256.018179 113.999265 
L 257.632536 84.109442 
L 258.708773 66.276461 
L 259.381422 57.949011 
L 259.91954 53.35285 
L 260.323129 51.2353 
L 260.592189 50.479164 
L 260.861248 50.251951 
L 260.995778 50.39853 
L 261.264837 51.374316 
L 261.668426 54.462723 
L 262.206545 61.28191 
L 262.879194 73.183699 
L 265.704317 128.27452 
L 266.242436 133.882861 
L 266.646025 136.342581 
L 266.915084 137.118026 
L 267.049614 137.245461 
L 267.184144 137.200452 
L 267.453203 136.600543 
L 267.722262 135.339498 
L 268.125852 132.277372 
L 268.66397 126.23656 
L 269.471148 113.883997 
L 271.220034 81.562605 
L 272.296272 64.333145 
L 272.96892 56.571408 
L 273.507039 52.490951 
L 273.910628 50.778923 
L 274.179688 50.295692 
L 274.314217 50.25303 
L 274.448747 50.406712 
L 274.717806 51.395798 
L 275.121396 54.501531 
L 275.659514 61.337983 
L 276.332163 73.251437 
L 279.157286 128.303773 
L 279.695405 133.899434 
L 280.098994 136.350558 
L 280.368053 137.120887 
L 280.502583 137.245981 
L 280.637113 137.198782 
L 280.906172 136.595001 
L 281.175232 135.330711 
L 281.578821 132.265093 
L 282.116939 126.221835 
L 282.924118 113.870039 
L 284.673004 81.559493 
L 285.749241 64.336028 
L 286.42189 56.575628 
L 286.960008 52.494574 
L 287.363597 50.781058 
L 287.632657 50.2964 
L 287.767186 50.252777 
L 287.901716 50.404829 
L 288.170776 51.390382 
L 288.574365 54.490302 
L 289.112483 61.318677 
L 289.785132 73.222828 
L 292.610255 128.276263 
L 293.148374 133.881177 
L 293.551963 136.340634 
L 293.821023 137.117011 
L 293.955552 137.245239 
L 294.090082 137.20123 
L 294.359141 136.603934 
L 294.628201 135.346193 
L 295.03179 132.290233 
L 295.569909 126.259034 
L 296.377087 113.921861 
L 298.125973 81.620571 
L 299.20221 64.385094 
L 299.874859 56.611167 
L 300.412977 52.516744 
L 300.816567 50.792149 
L 301.085626 50.299765 
L 301.220156 50.251779 
L 301.354685 50.396837 
L 301.623745 51.368551 
L 302.027334 54.448599 
L 302.565453 61.253665 
L 303.238101 73.136168 
L 306.063224 128.215501 
L 306.601343 133.842587 
L 307.004932 136.320225 
L 307.273992 137.109093 
L 307.408521 137.243597 
L 307.543051 137.205856 
L 307.81211 136.620937 
L 308.08117 135.375273 
L 308.484759 132.336317 
L 309.022878 126.325138 
L 309.830056 114.009901 
L 311.444412 84.15705 
L 312.52065 66.332075 
L 313.193298 57.997465 
L 313.731417 53.388368 
L 314.135006 51.257249 
L 314.404065 50.490388 
L 314.673125 50.250744 
L 314.807654 50.386134 
L 315.076714 51.338902 
L 315.480303 54.392217 
L 316.018422 61.166704 
L 316.69107 73.021897 
L 319.516194 128.139767 
L 320.054312 133.794885 
L 320.457901 136.295035 
L 320.726961 137.099187 
L 320.861491 137.241305 
L 320.99602 137.211134 
L 321.26508 136.641054 
L 321.534139 135.409721 
L 321.937728 132.390698 
L 322.475847 126.40254 
L 323.283025 114.111681 
L 324.897381 84.266272 
L 325.973619 66.417528 
L 326.646267 58.059617 
L 327.184386 53.428858 
L 327.587975 51.280429 
L 327.857034 50.501798 
L 328.126094 50.250084 
L 328.260624 50.375113 
L 328.529683 51.307646 
L 328.933272 54.332635 
L 329.471391 61.075064 
L 330.144039 72.902114 
L 332.969163 128.062236 
L 333.507282 133.74618 
L 333.910871 136.26924 
L 334.17993 137.088869 
L 334.31446 137.23866 
L 334.448989 137.216103 
L 334.718049 136.660898 
L 334.987108 135.443839 
L 335.390697 132.444572 
L 335.928816 126.47898 
L 336.735994 114.211583 
L 338.35035 84.372013 
L 339.426588 66.499575 
L 340.099236 58.119016 
L 340.637355 53.467463 
L 341.040944 51.302554 
L 341.444533 50.315581 
L 341.579063 50.249889 
L 341.713593 50.365191 
L 341.982652 51.27876 
L 342.386241 54.277337 
L 342.92436 60.990072 
L 343.597008 72.791328 
L 346.422132 127.991532 
L 346.960251 133.701816 
L 347.36384 136.245654 
L 347.632899 137.079282 
L 347.767429 137.23599 
L 347.901958 137.220285 
L 348.171018 136.67844 
L 348.440077 135.474143 
L 348.843666 132.492488 
L 349.381785 126.546843 
L 350.188963 114.299919 
L 351.80332 84.464581 
L 352.879557 66.570979 
L 353.552206 58.170536 
L 354.090324 53.500893 
L 354.493913 51.321735 
L 354.897502 50.320413 
L 355.032032 50.249979 
L 355.166562 50.357034 
L 355.435621 51.254412 
L 355.83921 54.23053 
L 356.377329 60.918121 
L 357.049977 72.697735 
L 360.009631 129.602536 
L 360.547749 134.688955 
L 360.951339 136.735353 
L 361.220398 137.233577 
L 361.354928 137.223531 
L 361.623987 136.692699 
L 361.893046 135.498876 
L 362.296635 132.531642 
L 362.834754 126.602209 
L 363.641932 114.371731 
L 365.121759 87.023796 
L 366.332526 66.628189 
L 367.139704 56.858985 
L 367.677823 52.668027 
L 368.081412 50.86773 
L 368.350472 50.324349 
L 368.485001 50.25017 
L 368.619531 50.350818 
L 368.88859 51.235452 
L 369.292179 54.193962 
L 369.830298 60.861904 
L 370.502947 72.624774 
L 372.117303 107.017802 
L 373.059011 124.098304 
L 373.731659 132.440459 
L 374.135248 135.523701 
L 374.538837 137.064823 
L 374.807897 137.225878 
L 375.076956 136.703415 
L 375.346015 135.51752 
L 375.749605 132.561173 
L 376.287723 126.64388 
L 377.094901 114.425561 
L 378.574728 87.080062 
L 379.785495 66.670379 
L 380.592673 56.88657 
L 381.130792 52.684787 
L 381.534381 50.876167 
L 381.803441 50.327273 
L 381.93797 50.250375 
L 382.0725 50.346431 
L 382.341559 51.221848 
L 382.745149 54.167678 
L 383.283267 60.821537 
L 383.955916 72.572545 
L 385.570272 106.965304 
L 386.51198 124.060744 
L 387.184628 132.417351 
L 387.588217 135.509898 
L 387.991806 137.060347 
L 388.260866 137.227446 
L 388.529925 136.710795 
L 388.798985 135.530377 
L 389.202574 132.58152 
L 389.740692 126.6725 
L 390.413341 116.71749 
L 391.624108 94.716739 
L 393.103935 68.683548 
L 393.911113 58.261981 
L 394.449232 53.559984 
L 394.852821 51.355633 
L 395.25641 50.329218 
L 395.390939 50.250539 
L 395.525469 50.343619 
L 395.794529 51.213034 
L 396.198118 54.150654 
L 396.736236 60.795469 
L 397.408885 72.538987 
L 399.023241 106.93204 
L 399.964949 124.037144 
L 400.637597 132.402919 
L 401.041187 135.501304 
L 401.444776 137.057554 
L 401.713835 137.228387 
L 401.982894 136.715304 
L 402.251954 135.538226 
L 402.655543 132.593902 
L 403.193662 126.689815 
L 403.86631 116.73897 
L 405.077077 94.739978 
L 406.556904 68.700698 
L 407.364082 58.273457 
L 407.902201 53.567307 
L 408.30579 51.3598 
L 408.709379 50.330315 
L 408.843909 50.250641 
L 408.978438 50.342074 
L 409.247498 51.208171 
L 409.651087 54.141299 
L 410.189206 60.781246 
L 410.861854 72.520861 
L 412.47621 106.914557 
L 413.417918 124.024956 
L 414.090567 132.395564 
L 414.494156 135.49696 
L 414.897745 137.05615 
L 415.166804 137.228847 
L 415.435863 136.717524 
L 415.704923 135.542068 
L 416.108512 132.599909 
L 416.646631 126.6981 
L 417.319279 116.749058 
L 418.530046 94.75049 
L 420.009873 68.708054 
L 420.817051 58.278219 
L 421.35517 53.570274 
L 421.758759 51.361456 
L 422.162348 50.330744 
L 422.296878 50.250682 
L 422.431407 50.341485 
L 422.700467 51.206328 
L 423.104056 54.137816 
L 423.642175 60.776081 
L 424.314823 72.514505 
L 425.929179 106.90901 
L 426.870887 124.021359 
L 427.543536 132.393521 
L 427.947125 135.495801 
L 428.350714 137.055791 
L 428.619773 137.22896 
L 428.888833 136.718054 
L 429.157892 135.542952 
L 429.561481 132.601212 
L 430.0996 126.699741 
L 430.772248 116.750798 
L 431.983016 94.75175 
L 433.462842 68.708364 
L 434.27002 58.278178 
L 434.808139 53.570136 
L 435.211728 51.361327 
L 435.615317 50.330697 
L 435.749847 50.250677 
L 435.884377 50.341563 
L 436.153436 51.206609 
L 436.557025 54.138454 
L 437.095144 60.777259 
L 437.767792 72.516356 
L 439.382149 106.911695 
L 440.323856 124.023647 
L 440.996505 132.395097 
L 441.400094 135.496806 
L 441.803683 137.056142 
L 442.072742 137.22884 
L 442.341802 136.717446 
L 442.610861 135.541848 
L 443.01445 132.599364 
L 443.552569 126.696952 
L 444.225217 116.747004 
L 445.435985 94.746946 
L 446.915811 68.704122 
L 447.722989 58.27506 
L 448.261108 53.568022 
L 448.664697 51.360066 
L 449.068286 50.330349 
L 449.202816 50.250643 
L 449.337346 50.342061 
L 449.606405 51.208221 
L 450.009994 54.141669 
L 450.548113 60.782383 
L 451.220761 72.523277 
L 452.835118 106.919378 
L 453.776826 124.02947 
L 454.449474 132.39883 
L 454.853063 135.499094 
L 455.256652 137.05691 
L 455.525711 137.228583 
L 455.794771 136.716172 
L 456.06383 135.539582 
L 456.467419 132.595686 
L 457.005538 126.69161 
L 457.678187 116.740054 
L 458.888954 94.738753 
L 460.36878 68.697402 
L 461.175959 58.270293 
L 461.714077 53.564861 
L 462.117666 51.358212 
L 462.521255 50.329846 
L 462.655785 50.250595 
L 462.790315 50.34278 
L 463.059374 51.210523 
L 463.462963 54.146206 
L 464.001082 60.789505 
L 464.673731 72.532146 
L 464.673731 72.532146 
" clip-path="url(#pbc2dc90701)" style="fill: none; stroke: #009afa; stroke-width: 4"/>
   </g>
   <g id="matplotlib.axis_1"/>
   <g id="matplotlib.axis_2"/>
   <g id="line2d_2">
    <path d="M 16.286269 50.249889 
L 16.420799 50.335726 
L 16.689859 51.020397 
L 17.093448 53.304627 
L 17.497037 57.021659 
L 18.035155 63.97216 
L 18.842334 77.736611 
L 21.532927 127.267609 
L 22.071046 133.11029 
L 22.474635 135.883695 
L 22.743695 136.907322 
L 23.012754 137.250334 
L 23.147284 137.164497 
L 23.416343 136.479826 
L 23.819932 134.195596 
L 24.223521 130.478564 
L 24.76164 123.528063 
L 25.568818 109.763612 
L 28.259412 60.232614 
L 28.797531 54.389933 
L 29.20112 51.616528 
L 29.470179 50.592901 
L 29.739239 50.249889 
L 29.873768 50.335726 
L 30.142828 51.020397 
L 30.546417 53.304627 
L 30.950006 57.021659 
L 31.488125 63.97216 
L 32.295303 77.736611 
L 34.985897 127.267609 
L 35.524015 133.11029 
L 35.927604 135.883695 
L 36.196664 136.907322 
L 36.465723 137.250334 
L 36.600253 137.164497 
L 36.869312 136.479826 
L 37.272901 134.195596 
L 37.67649 130.478564 
L 38.214609 123.528063 
L 39.021787 109.763612 
L 41.712381 60.232614 
L 42.2505 54.389933 
L 42.654089 51.616528 
L 42.923148 50.592901 
L 43.192208 50.249889 
L 43.326737 50.335726 
L 43.595797 51.020397 
L 43.999386 53.304627 
L 44.402975 57.021659 
L 44.941094 63.97216 
L 45.748272 77.736611 
L 48.438866 127.267609 
L 48.976984 133.11029 
L 49.380574 135.883695 
L 49.649633 136.907322 
L 49.918692 137.250334 
L 50.053222 137.164497 
L 50.322281 136.479826 
L 50.72587 134.195596 
L 51.12946 130.478564 
L 51.667578 123.528063 
L 52.474756 109.763612 
L 55.16535 60.232614 
L 55.703469 54.389933 
L 56.107058 51.616528 
L 56.376117 50.592901 
L 56.645177 50.249889 
L 56.779707 50.335726 
L 57.048766 51.020397 
L 57.452355 53.304627 
L 57.855944 57.021659 
L 58.394063 63.97216 
L 59.201241 77.736611 
L 61.891835 127.267609 
L 62.429954 133.11029 
L 62.833543 135.883695 
L 63.102602 136.907322 
L 63.371661 137.250334 
L 63.506191 137.164497 
L 63.775251 136.479826 
L 64.17884 134.195596 
L 64.582429 130.478564 
L 65.120547 123.528063 
L 65.927726 109.763612 
L 68.618319 60.232614 
L 69.156438 54.389933 
L 69.560027 51.616528 
L 69.829087 50.592901 
L 70.098146 50.249889 
L 70.232676 50.335726 
L 70.501735 51.020397 
L 70.905324 53.304627 
L 71.308913 57.021659 
L 71.847032 63.97216 
L 72.65421 77.736611 
L 75.344804 127.267609 
L 75.882923 133.11029 
L 76.286512 135.883695 
L 76.555571 136.907322 
L 76.824631 137.250334 
L 76.95916 137.164497 
L 77.22822 136.479826 
L 77.631809 134.195596 
L 78.035398 130.478564 
L 78.573517 123.528063 
L 79.380695 109.763612 
L 82.071289 60.232614 
L 82.609407 54.389933 
L 83.012996 51.616528 
L 83.282056 50.592901 
L 83.551115 50.249889 
L 83.685645 50.335726 
L 83.954704 51.020397 
L 84.358293 53.304627 
L 84.761882 57.021659 
L 85.300001 63.97216 
L 86.107179 77.736611 
L 88.797773 127.267609 
L 89.335892 133.11029 
L 89.739481 135.883695 
L 90.00854 136.907322 
L 90.2776 137.250334 
L 90.412129 137.164497 
L 90.681189 136.479826 
L 91.084778 134.195596 
L 91.488367 130.478564 
L 92.026486 123.528063 
L 92.833664 109.763612 
L 95.524258 60.232614 
L 96.062376 54.389933 
L 96.465965 51.616528 
L 96.735025 50.592901 
L 97.004084 50.249889 
L 97.138614 50.335726 
L 97.407673 51.020397 
L 97.811262 53.304627 
L 98.214851 57.021659 
L 98.75297 63.97216 
L 99.560148 77.736611 
L 102.250742 127.267609 
L 102.788861 133.11029 
L 103.19245 135.883695 
L 103.461509 136.907322 
L 103.730569 137.250334 
L 103.865099 137.164497 
L 104.134158 136.479826 
L 104.537747 134.195596 
L 104.941336 130.478564 
L 105.479455 123.528063 
L 106.286633 109.763612 
L 108.977227 60.232614 
L 109.515346 54.389933 
L 109.918935 51.616528 
L 110.187994 50.592901 
L 110.457053 50.249889 
L 110.591583 50.335726 
L 110.860642 51.020397 
L 111.264232 53.304627 
L 111.667821 57.021659 
L 112.205939 63.97216 
L 113.013118 77.736611 
L 115.703711 127.267609 
L 116.24183 133.11029 
L 116.645419 135.883695 
L 116.914479 136.907322 
L 117.183538 137.250334 
L 117.318068 137.164497 
L 117.587127 136.479826 
L 117.990716 134.195596 
L 118.394305 130.478564 
L 118.932424 123.528063 
L 119.739602 109.763612 
L 122.430196 60.232614 
L 122.968315 54.389933 
L 123.371904 51.616528 
L 123.640963 50.592901 
L 123.910023 50.249889 
L 124.044552 50.335726 
L 124.313612 51.020397 
L 124.717201 53.304627 
L 125.12079 57.021659 
L 125.658909 63.97216 
L 126.466087 77.736611 
L 129.15668 127.267609 
L 129.694799 133.11029 
L 130.098388 135.883695 
L 130.367448 136.907322 
L 130.636507 137.250334 
L 130.771037 137.164497 
L 131.040096 136.479826 
L 131.443685 134.195596 
L 131.847274 130.478564 
L 132.385393 123.528063 
L 133.192571 109.763612 
L 135.883165 60.232614 
L 136.421284 54.389933 
L 136.824873 51.616528 
L 137.093932 50.592901 
L 137.362992 50.249889 
L 137.497521 50.335726 
L 137.766581 51.020397 
L 138.17017 53.304627 
L 138.573759 57.021659 
L 139.111878 63.97216 
L 139.919056 77.736611 
L 142.60965 127.267609 
L 143.147768 133.11029 
L 143.551357 135.883695 
L 143.820417 136.907322 
L 144.089476 137.250334 
L 144.224006 137.164497 
L 144.493065 136.479826 
L 144.896654 134.195596 
L 145.300243 130.478564 
L 145.838362 123.528063 
L 146.64554 109.763612 
L 149.336134 60.232614 
L 149.874253 54.389933 
L 150.277842 51.616528 
L 150.546901 50.592901 
L 150.815961 50.249889 
L 150.95049 50.335726 
L 151.21955 51.020397 
L 151.623139 53.304627 
L 152.026728 57.021659 
L 152.564847 63.97216 
L 153.372025 77.736611 
L 156.062619 127.267609 
L 156.600737 133.11029 
L 157.004327 135.883695 
L 157.273386 136.907322 
L 157.542445 137.250334 
L 157.676975 137.164497 
L 157.946034 136.479826 
L 158.349623 134.195596 
L 158.753213 130.478564 
L 159.291331 123.528063 
L 160.098509 109.763612 
L 162.789103 60.232614 
L 163.327222 54.389933 
L 163.730811 51.616528 
L 163.999871 50.592901 
L 164.26893 50.249889 
L 164.40346 50.335726 
L 164.672519 51.020397 
L 165.076108 53.304627 
L 165.479697 57.021659 
L 166.017816 63.97216 
L 166.824994 77.736611 
L 169.515588 127.267609 
L 170.053707 133.11029 
L 170.457296 135.883695 
L 170.726355 136.907322 
L 170.995414 137.250334 
L 171.129944 137.164497 
L 171.399004 136.479826 
L 171.802593 134.195596 
L 172.206182 130.478564 
L 172.7443 123.528063 
L 173.551479 109.763612 
L 176.242072 60.232614 
L 176.780191 54.389933 
L 177.18378 51.616528 
L 177.45284 50.592901 
L 177.721899 50.249889 
L 177.856429 50.335726 
L 178.125488 51.020397 
L 178.529077 53.304627 
L 178.932666 57.021659 
L 179.470785 63.97216 
L 180.277963 77.736611 
L 182.968557 127.267609 
L 183.506676 133.11029 
L 183.910265 135.883695 
L 184.179324 136.907322 
L 184.448384 137.250334 
L 184.582913 137.164497 
L 184.851973 136.479826 
L 185.255562 134.195596 
L 185.659151 130.478564 
L 186.19727 123.528063 
L 187.004448 109.763612 
L 189.695042 60.232614 
L 190.23316 54.389933 
L 190.636749 51.616528 
L 190.905809 50.592901 
L 191.174868 50.249889 
L 191.309398 50.335726 
L 191.578457 51.020397 
L 191.982046 53.304627 
L 192.385635 57.021659 
L 192.923754 63.97216 
L 193.730932 77.736611 
L 196.421526 127.267609 
L 196.959645 133.11029 
L 197.363234 135.883695 
L 197.632293 136.907322 
L 197.901353 137.250334 
L 198.035882 137.164497 
L 198.304942 136.479826 
L 198.708531 134.195596 
L 199.11212 130.478564 
L 199.650239 123.528063 
L 200.457417 109.763612 
L 203.148011 60.232614 
L 203.686129 54.389933 
L 204.089719 51.616528 
L 204.358778 50.592901 
L 204.627837 50.249889 
L 204.762367 50.335726 
L 205.031426 51.020397 
L 205.435015 53.304627 
L 205.838604 57.021659 
L 206.376723 63.97216 
L 207.183901 77.736611 
L 209.874495 127.267609 
L 210.412614 133.11029 
L 210.816203 135.883695 
L 211.085262 136.907322 
L 211.354322 137.250334 
L 211.488852 137.164497 
L 211.757911 136.479826 
L 212.1615 134.195596 
L 212.565089 130.478564 
L 213.103208 123.528063 
L 213.910386 109.763612 
L 216.60098 60.232614 
L 217.139099 54.389933 
L 217.542688 51.616528 
L 217.811747 50.592901 
L 218.080806 50.249889 
L 218.215336 50.335726 
L 218.484395 51.020397 
L 218.887985 53.304627 
L 219.291574 57.021659 
L 219.829692 63.97216 
L 220.636871 77.736611 
L 223.327464 127.267609 
L 223.865583 133.11029 
L 224.269172 135.883695 
L 224.538232 136.907322 
L 224.807291 137.250334 
L 224.941821 137.164497 
L 225.21088 136.479826 
L 225.614469 134.195596 
L 226.018058 130.478564 
L 226.556177 123.528063 
L 227.363355 109.763612 
L 230.053949 60.232614 
L 230.592068 54.389933 
L 230.995657 51.616528 
L 231.264716 50.592901 
L 231.533776 50.249889 
L 231.668305 50.335726 
L 231.937365 51.020397 
L 232.340954 53.304627 
L 232.744543 57.021659 
L 233.282662 63.97216 
L 234.08984 77.736611 
L 236.780433 127.267609 
L 237.318552 133.11029 
L 237.722141 135.883695 
L 237.991201 136.907322 
L 238.26026 137.250334 
L 238.39479 137.164497 
L 238.663849 136.479826 
L 239.067438 134.195596 
L 239.471027 130.478564 
L 240.009146 123.528063 
L 240.816324 109.763612 
L 243.506918 60.232614 
L 244.045037 54.389933 
L 244.448626 51.616528 
L 244.717685 50.592901 
L 244.986745 50.249889 
L 245.121274 50.335726 
L 245.390334 51.020397 
L 245.793923 53.304627 
L 246.197512 57.021659 
L 246.735631 63.97216 
L 247.542809 77.736611 
L 250.233403 127.267609 
L 250.771521 133.11029 
L 251.17511 135.883695 
L 251.44417 136.907322 
L 251.713229 137.250334 
L 251.847759 137.164497 
L 252.116818 136.479826 
L 252.520407 134.195596 
L 252.923996 130.478564 
L 253.462115 123.528063 
L 254.269293 109.763612 
L 256.959887 60.232614 
L 257.498006 54.389933 
L 257.901595 51.616528 
L 258.170654 50.592901 
L 258.439714 50.249889 
L 258.574243 50.335726 
L 258.843303 51.020397 
L 259.246892 53.304627 
L 259.650481 57.021659 
L 260.1886 63.97216 
L 260.995778 77.736611 
L 263.686372 127.267609 
L 264.224491 133.11029 
L 264.62808 135.883695 
L 264.897139 136.907322 
L 265.166198 137.250334 
L 265.300728 137.164497 
L 265.569787 136.479826 
L 265.973376 134.195596 
L 266.376966 130.478564 
L 266.915084 123.528063 
L 267.722262 109.763612 
L 270.412856 60.232614 
L 270.950975 54.389933 
L 271.354564 51.616528 
L 271.623624 50.592901 
L 271.892683 50.249889 
L 272.027213 50.335726 
L 272.296272 51.020397 
L 272.699861 53.304627 
L 273.10345 57.021659 
L 273.641569 63.97216 
L 274.448747 77.736611 
L 277.139341 127.267609 
L 277.67746 133.11029 
L 278.081049 135.883695 
L 278.350108 136.907322 
L 278.619167 137.250334 
L 278.753697 137.164497 
L 279.022757 136.479826 
L 279.426346 134.195596 
L 279.829935 130.478564 
L 280.368053 123.528063 
L 281.175232 109.763612 
L 283.865825 60.232614 
L 284.403944 54.389933 
L 284.807533 51.616528 
L 285.076593 50.592901 
L 285.345652 50.249889 
L 285.480182 50.335726 
L 285.749241 51.020397 
L 286.15283 53.304627 
L 286.556419 57.021659 
L 287.094538 63.97216 
L 287.901716 77.736611 
L 290.59231 127.267609 
L 291.130429 133.11029 
L 291.534018 135.883695 
L 291.803077 136.907322 
L 292.072137 137.250334 
L 292.206666 137.164497 
L 292.475726 136.479826 
L 292.879315 134.195596 
L 293.282904 130.478564 
L 293.821023 123.528063 
L 294.628201 109.763612 
L 297.318795 60.232614 
L 297.856913 54.389933 
L 298.260502 51.616528 
L 298.529562 50.592901 
L 298.798621 50.249889 
L 298.933151 50.335726 
L 299.20221 51.020397 
L 299.605799 53.304627 
L 300.009388 57.021659 
L 300.547507 63.97216 
L 301.354685 77.736611 
L 304.045279 127.267609 
L 304.583398 133.11029 
L 304.986987 135.883695 
L 305.256046 136.907322 
L 305.525106 137.250334 
L 305.659635 137.164497 
L 305.928695 136.479826 
L 306.332284 134.195596 
L 306.735873 130.478564 
L 307.273992 123.528063 
L 308.08117 109.763612 
L 310.771764 60.232614 
L 311.309882 54.389933 
L 311.713472 51.616528 
L 311.982531 50.592901 
L 312.25159 50.249889 
L 312.38612 50.335726 
L 312.655179 51.020397 
L 313.058768 53.304627 
L 313.462358 57.021659 
L 314.000476 63.97216 
L 314.807654 77.736611 
L 317.498248 127.267609 
L 318.036367 133.11029 
L 318.439956 135.883695 
L 318.709015 136.907322 
L 318.978075 137.250334 
L 319.112605 137.164497 
L 319.381664 136.479826 
L 319.785253 134.195596 
L 320.188842 130.478564 
L 320.726961 123.528063 
L 321.534139 109.763612 
L 324.224733 60.232614 
L 324.762852 54.389933 
L 325.166441 51.616528 
L 325.4355 50.592901 
L 325.704559 50.249889 
L 325.839089 50.335726 
L 326.108148 51.020397 
L 326.511738 53.304627 
L 326.915327 57.021659 
L 327.453445 63.97216 
L 328.260624 77.736611 
L 330.951217 127.267609 
L 331.489336 133.11029 
L 331.892925 135.883695 
L 332.161985 136.907322 
L 332.431044 137.250334 
L 332.565574 137.164497 
L 332.834633 136.479826 
L 333.238222 134.195596 
L 333.641811 130.478564 
L 334.17993 123.528063 
L 334.987108 109.763612 
L 337.677702 60.232614 
L 338.215821 54.389933 
L 338.61941 51.616528 
L 338.888469 50.592901 
L 339.157529 50.249889 
L 339.292058 50.335726 
L 339.561118 51.020397 
L 339.964707 53.304627 
L 340.368296 57.021659 
L 340.906415 63.97216 
L 341.713593 77.736611 
L 344.404187 127.267609 
L 344.942305 133.11029 
L 345.345894 135.883695 
L 345.614954 136.907322 
L 345.884013 137.250334 
L 346.018543 137.164497 
L 346.287602 136.479826 
L 346.691191 134.195596 
L 347.09478 130.478564 
L 347.632899 123.528063 
L 348.440077 109.763612 
L 351.130671 60.232614 
L 351.66879 54.389933 
L 352.072379 51.616528 
L 352.341438 50.592901 
L 352.610498 50.249889 
L 352.745027 50.335726 
L 353.014087 51.020397 
L 353.417676 53.304627 
L 353.821265 57.021659 
L 354.359384 63.97216 
L 355.166562 77.736611 
L 357.857156 127.267609 
L 358.395274 133.11029 
L 358.798863 135.883695 
L 359.067923 136.907322 
L 359.336982 137.250334 
L 359.471512 137.164497 
L 359.740571 136.479826 
L 360.14416 134.195596 
L 360.547749 130.478564 
L 361.085868 123.528063 
L 361.893046 109.763612 
L 364.58364 60.232614 
L 365.121759 54.389933 
L 365.525348 51.616528 
L 365.794407 50.592901 
L 366.063467 50.249889 
L 366.197996 50.335726 
L 366.467056 51.020397 
L 366.870645 53.304627 
L 367.274234 57.021659 
L 367.812353 63.97216 
L 368.619531 77.736611 
L 371.310125 127.267609 
L 371.848244 133.11029 
L 372.251833 135.883695 
L 372.520892 136.907322 
L 372.789951 137.250334 
L 372.924481 137.164497 
L 373.19354 136.479826 
L 373.59713 134.195596 
L 374.000719 130.478564 
L 374.538837 123.528063 
L 375.346015 109.763612 
L 378.036609 60.232614 
L 378.574728 54.389933 
L 378.978317 51.616528 
L 379.247377 50.592901 
L 379.516436 50.249889 
L 379.650966 50.335726 
L 379.920025 51.020397 
L 380.323614 53.304627 
L 380.727203 57.021659 
L 381.265322 63.97216 
L 382.0725 77.736611 
L 384.763094 127.267609 
L 385.301213 133.11029 
L 385.704802 135.883695 
L 385.973861 136.907322 
L 386.24292 137.250334 
L 386.37745 137.164497 
L 386.64651 136.479826 
L 387.050099 134.195596 
L 387.453688 130.478564 
L 387.991806 123.528063 
L 388.798985 109.763612 
L 391.489578 60.232614 
L 392.027697 54.389933 
L 392.431286 51.616528 
L 392.700346 50.592901 
L 392.969405 50.249889 
L 393.103935 50.335726 
L 393.372994 51.020397 
L 393.776583 53.304627 
L 394.180172 57.021659 
L 394.718291 63.97216 
L 395.525469 77.736611 
L 398.216063 127.267609 
L 398.754182 133.11029 
L 399.157771 135.883695 
L 399.42683 136.907322 
L 399.69589 137.250334 
L 399.830419 137.164497 
L 400.099479 136.479826 
L 400.503068 134.195596 
L 400.906657 130.478564 
L 401.444776 123.528063 
L 402.251954 109.763612 
L 404.942548 60.232614 
L 405.480666 54.389933 
L 405.884255 51.616528 
L 406.153315 50.592901 
L 406.422374 50.249889 
L 406.556904 50.335726 
L 406.825963 51.020397 
L 407.229552 53.304627 
L 407.633141 57.021659 
L 408.17126 63.97216 
L 408.978438 77.736611 
L 411.669032 127.267609 
L 412.207151 133.11029 
L 412.61074 135.883695 
L 412.879799 136.907322 
L 413.148859 137.250334 
L 413.283388 137.164497 
L 413.552448 136.479826 
L 413.956037 134.195596 
L 414.359626 130.478564 
L 414.897745 123.528063 
L 415.704923 109.763612 
L 418.395517 60.232614 
L 418.933635 54.389933 
L 419.337225 51.616528 
L 419.606284 50.592901 
L 419.875343 50.249889 
L 420.009873 50.335726 
L 420.278932 51.020397 
L 420.682521 53.304627 
L 421.086111 57.021659 
L 421.624229 63.97216 
L 422.431407 77.736611 
L 425.122001 127.267609 
L 425.66012 133.11029 
L 426.063709 135.883695 
L 426.332768 136.907322 
L 426.601828 137.250334 
L 426.736358 137.164497 
L 427.005417 136.479826 
L 427.409006 134.195596 
L 427.812595 130.478564 
L 428.350714 123.528063 
L 429.157892 109.763612 
L 431.848486 60.232614 
L 432.386605 54.389933 
L 432.790194 51.616528 
L 433.059253 50.592901 
L 433.328312 50.249889 
L 433.462842 50.335726 
L 433.731902 51.020397 
L 434.135491 53.304627 
L 434.53908 57.021659 
L 435.077198 63.97216 
L 435.884377 77.736611 
L 438.57497 127.267609 
L 439.113089 133.11029 
L 439.516678 135.883695 
L 439.785738 136.907322 
L 440.054797 137.250334 
L 440.189327 137.164497 
L 440.458386 136.479826 
L 440.861975 134.195596 
L 441.265564 130.478564 
L 441.803683 123.528063 
L 442.610861 109.763612 
L 445.301455 60.232614 
L 445.839574 54.389933 
L 446.243163 51.616528 
L 446.512222 50.592901 
L 446.781282 50.249889 
L 446.915811 50.335726 
L 447.184871 51.020397 
L 447.58846 53.304627 
L 447.992049 57.021659 
L 448.530168 63.97216 
L 449.337346 77.736611 
L 452.02794 127.267609 
L 452.566058 133.11029 
L 452.969647 135.883695 
L 453.238707 136.907322 
L 453.507766 137.250334 
L 453.642296 137.164497 
L 453.911355 136.479826 
L 454.314944 134.195596 
L 454.718533 130.478564 
L 455.256652 123.528063 
L 456.06383 109.763612 
L 458.754424 60.232614 
L 459.292543 54.389933 
L 459.696132 51.616528 
L 459.965191 50.592901 
L 460.234251 50.249889 
L 460.36878 50.335726 
L 460.63784 51.020397 
L 461.041429 53.304627 
L 461.445018 57.021659 
L 461.983137 63.97216 
L 462.790315 77.736611 
L 464.673731 114.706504 
L 464.673731 114.706504 
" clip-path="url(#pbc2dc90701)" style="fill: none; stroke: #e36f47; stroke-width: 4"/>
   </g>
   <g id="line2d_3">
    <path d="M 16.286269 6.749666 
L 19.649512 13.043594 
L 23.012754 18.882196 
L 26.510526 24.506695 
L 29.33565 28.739596 
L 29.470179 7.20398 
L 32.833422 13.465041 
L 36.196664 19.273154 
L 39.694436 24.868323 
L 43.192208 30.043143 
L 43.999386 31.181008 
L 44.133916 9.6266 
L 47.497158 15.712401 
L 50.99493 21.575059 
L 54.492702 26.997294 
L 57.990474 32.012173 
L 58.259533 32.381925 
L 58.394063 10.854172 
L 61.757305 16.851165 
L 65.255077 22.628265 
L 68.752849 27.971328 
L 72.116091 32.730004 
L 72.250621 11.170118 
L 75.613863 17.144254 
L 79.111635 22.899341 
L 82.609407 28.222088 
L 85.97265 32.962645 
L 86.107179 11.452005 
L 89.470422 17.405749 
L 92.968194 23.141177 
L 96.465965 28.445751 
L 99.560148 32.805072 
L 99.694678 11.268729 
L 103.05792 17.235732 
L 106.555692 22.983958 
L 110.053464 28.300315 
L 113.147647 32.669355 
L 113.282177 11.146663 
L 116.645419 17.122497 
L 120.143191 22.879192 
L 123.640963 28.203416 
L 126.600616 32.394926 
L 126.735146 10.850923 
L 130.098388 16.848151 
L 133.59616 22.625502 
L 137.093932 27.968811 
L 140.053585 32.175258 
L 140.188115 10.632321 
L 143.551357 16.645364 
L 147.049129 22.437949 
L 150.546901 27.795348 
L 153.506555 32.012898 
L 153.641084 10.486721 
L 157.004327 16.510297 
L 160.502099 22.313003 
L 163.999871 27.679751 
L 166.959524 31.904738 
L 167.094053 10.404758 
L 170.457296 16.434264 
L 173.955068 22.242696 
L 177.45284 27.614775 
L 180.277963 31.657678 
L 180.412493 10.123461 
L 183.775735 16.173317 
L 187.273507 22.00136 
L 190.771279 27.39154 
L 193.730932 31.634932 
L 193.865462 10.13076 
L 197.228704 16.180088 
L 200.726476 22.007603 
L 204.224248 27.397341 
L 207.049372 31.453541 
L 207.183901 9.911301 
L 210.547144 15.976505 
L 213.910386 21.60293 
L 217.408158 27.023073 
L 220.502341 31.47735 
L 220.636871 9.95654 
L 224.000113 16.018472 
L 227.497885 21.858114 
L 230.995657 27.259042 
L 233.95531 31.510959 
L 234.08984 10.005633 
L 237.453082 16.064013 
L 240.950854 21.900243 
L 244.448626 27.298045 
L 247.273749 31.360317 
L 247.408279 9.80043 
L 250.771521 15.873655 
L 254.269293 21.724184 
L 257.767065 27.135212 
L 260.726719 31.395022 
L 260.861248 9.840612 
L 264.224491 15.910929 
L 267.722262 21.758674 
L 271.220034 27.167116 
L 274.179688 31.424866 
L 274.314217 9.872409 
L 277.67746 15.940426 
L 281.175232 21.78596 
L 284.673004 27.192352 
L 287.632657 31.448478 
L 287.767186 9.89551 
L 291.130429 15.961857 
L 294.628201 21.805779 
L 298.125973 27.210682 
L 301.085626 31.465639 
L 301.220156 9.910648 
L 304.583398 15.975899 
L 308.08117 21.818762 
L 311.578942 27.222689 
L 314.538595 31.476888 
L 314.673125 9.919128 
L 318.036367 15.983766 
L 321.534139 21.826031 
L 325.031911 27.22941 
L 327.991564 31.483189 
L 328.126094 9.922481 
L 331.489336 15.986876 
L 334.987108 21.828898 
L 338.48488 27.232058 
L 341.579063 31.672398 
L 341.713593 10.173609 
L 345.076835 16.219836 
L 348.574607 22.044379 
L 352.072379 27.431357 
L 355.032032 31.6722 
L 355.166562 10.171055 
L 358.529804 16.217467 
L 362.027576 22.042183 
L 365.525348 27.429325 
L 368.485001 31.670309 
L 368.619531 10.167313 
L 371.982773 16.213997 
L 375.480545 22.038968 
L 378.978317 27.426351 
L 381.93797 31.667532 
L 382.0725 10.163201 
L 385.435742 16.210182 
L 388.933514 22.035436 
L 392.431286 27.423083 
L 395.390939 31.664478 
L 395.525469 10.159279 
L 398.888711 16.206544 
L 402.386483 22.032068 
L 405.884255 27.419967 
L 408.843909 31.661565 
L 408.978438 10.155887 
L 412.341681 16.203397 
L 415.839453 22.029156 
L 419.337225 27.417274 
L 422.296878 31.659045 
L 422.431407 10.153187 
L 425.79465 16.200892 
L 429.292422 22.026839 
L 432.790194 27.41513 
L 435.749847 31.657039 
L 435.884377 10.151211 
L 439.247619 16.199059 
L 442.745391 22.025144 
L 446.243163 27.413563 
L 449.202816 31.655572 
L 449.337346 10.149905 
L 452.700588 16.197848 
L 456.19836 22.024024 
L 459.696132 27.412527 
L 462.655785 31.654602 
L 462.790315 10.149164 
L 464.673731 13.591893 
L 464.673731 13.591893 
" clip-path="url(#pbc2dc90701)" style="fill: none; stroke: #3ea44d; stroke-width: 4"/>
   </g>
  </g>
 </g>
 <defs>
  <clipPath id="pbc2dc90701">
   <rect x="2.834646" y="2.834646" width="475.290709" height="138.330709"/>
  </clipPath>
 </defs>
</svg>
