<?xml version="1.0" encoding="utf-8" standalone="no"?>
<!DOCTYPE svg PUBLIC "-//W3C//DTD SVG 1.1//EN"
  "http://www.w3.org/Graphics/SVG/1.1/DTD/svg11.dtd">
<svg xmlns:xlink="http://www.w3.org/1999/xlink" width="480.96pt" height="144pt" viewBox="0 0 480.96 144" xmlns="http://www.w3.org/2000/svg" version="1.1">
 <metadata>
  <rdf:RDF xmlns:dc="http://purl.org/dc/elements/1.1/" xmlns:cc="http://creativecommons.org/ns#" xmlns:rdf="http://www.w3.org/1999/02/22-rdf-syntax-ns#">
   <cc:Work>
    <dc:type rdf:resource="http://purl.org/dc/dcmitype/StillImage"/>
    <dc:date>2024-05-07T19:16:53.761430</dc:date>
    <dc:format>image/svg+xml</dc:format>
    <dc:creator>
     <cc:Agent>
      <dc:title>Matplotlib v3.7.0, https://matplotlib.org/</dc:title>
     </cc:Agent>
    </dc:creator>
   </cc:Work>
  </rdf:RDF>
 </metadata>
 <defs>
  <style type="text/css">*{stroke-linejoin: round; stroke-linecap: butt}</style>
 </defs>
 <g id="figure_1">
  <g id="patch_1">
   <path d="M 0 144 
L 480.96 144 
L 480.96 0 
L 0 0 
L 0 144 
z
" style="fill: none"/>
  </g>
  <g id="axes_1">
   <g id="patch_2">
    <path d="M 2.834646 141.165354 
L 478.125354 141.165354 
L 478.125354 2.834646 
L 2.834646 2.834646 
L 2.834646 141.165354 
z
" style="fill: none"/>
   </g>
   <g id="line2d_1">
    <path d="M 16.286269 51.691765 
L 17.227977 55.139594 
L 18.169685 59.454045 
L 19.111393 64.811939 
L 20.187631 72.248592 
L 21.532927 83.18889 
L 25.299759 115.009538 
L 26.375996 121.890131 
L 27.317704 126.588504 
L 28.124882 129.644687 
L 28.93206 131.898019 
L 29.739239 133.486598 
L 30.546417 134.567044 
L 31.353595 135.292263 
L 32.429832 135.933389 
L 34.447778 136.792147 
L 35.793075 137.207448 
L 36.600253 137.222606 
L 37.138372 137.043657 
L 37.67649 136.654674 
L 38.214609 136.007322 
L 38.887258 134.772477 
L 39.559906 133.013218 
L 40.367084 130.182849 
L 41.308792 125.949575 
L 42.519559 119.377378 
L 45.479213 102.697459 
L 46.55545 98.141833 
L 47.362628 95.570653 
L 48.169806 93.679845 
L 49.111514 92.094021 
L 50.99493 89.178617 
L 51.802108 87.29479 
L 52.609286 84.713418 
L 53.416464 81.343678 
L 54.358172 76.445349 
L 55.703469 68.038915 
L 59.066711 46.12702 
L 60.142949 40.774553 
L 61.084657 37.148471 
L 61.891835 34.81884 
L 62.699013 33.135562 
L 63.506191 31.992964 
L 64.313369 31.267143 
L 65.255077 30.769625 
L 67.811141 29.67317 
L 68.752849 28.9095 
L 71.577973 26.322025 
L 72.116091 26.163698 
L 72.385151 26.191513 
L 72.65421 26.456143 
L 73.057799 27.343463 
L 73.461388 28.81371 
L 73.999507 31.653047 
L 74.672156 36.521666 
L 75.479334 44.049305 
L 76.555571 56.236741 
L 80.725992 105.953928 
L 81.802229 115.157559 
L 82.743937 121.466985 
L 83.685645 126.30257 
L 84.627353 129.919598 
L 85.569061 132.601673 
L 86.510768 134.592772 
L 87.452476 136.040648 
L 88.259654 136.866711 
L 88.932303 137.214605 
L 89.470422 137.21822 
L 89.874011 137.028985 
L 90.412129 136.477022 
L 90.950248 135.531086 
L 91.488367 134.137524 
L 92.161015 131.696515 
L 92.833664 128.420817 
L 93.640842 123.35757 
L 94.58255 115.960143 
L 95.793317 104.501366 
L 100.501856 57.433678 
L 101.578094 49.932331 
L 102.519802 44.815756 
L 103.461509 40.908278 
L 104.403217 37.968403 
L 105.479455 35.418895 
L 106.959281 32.585157 
L 109.784405 27.660521 
L 110.591583 26.663638 
L 111.129702 26.268444 
L 111.533291 26.158232 
L 111.80235 26.261783 
L 112.07141 26.669957 
L 112.474999 27.86437 
L 113.013118 30.538048 
L 113.551236 34.411693 
L 114.223885 40.825004 
L 115.165593 52.31447 
L 116.510889 72.169533 
L 119.066954 110.467825 
L 120.143191 122.842808 
L 120.950369 129.723374 
L 121.623018 133.744939 
L 122.161137 135.840749 
L 122.564726 136.782331 
L 122.968315 137.213318 
L 123.237374 137.233922 
L 123.506433 137.054818 
L 123.910023 136.439983 
L 124.448141 135.046661 
L 125.12079 132.545077 
L 126.062498 128.018435 
L 127.542324 119.611464 
L 130.367448 102.159028 
L 131.981804 90.877368 
L 133.461631 78.862687 
L 135.345046 61.501289 
L 137.497521 42.057184 
L 138.573759 34.339041 
L 139.380937 30.050351 
L 140.053585 27.641791 
L 140.591704 26.531246 
L 140.995293 26.182102 
L 141.264353 26.206306 
L 141.533412 26.630992 
L 141.937001 28.067382 
L 142.34059 30.42303 
L 142.878709 34.885889 
L 143.551357 42.318046 
L 144.493065 55.362476 
L 146.78007 91.812676 
L 148.125367 110.775754 
L 149.067075 121.247141 
L 149.874253 128.067129 
L 150.546901 132.217621 
L 151.21955 135.048703 
L 151.757669 136.441727 
L 152.161258 137.024521 
L 152.564847 137.246278 
L 152.968436 137.137775 
L 153.372025 136.72781 
L 153.910144 135.756289 
L 154.582792 133.927557 
L 155.38997 130.916837 
L 156.331678 126.336886 
L 157.273386 120.586064 
L 158.349623 112.487651 
L 159.425861 102.703226 
L 160.771158 88.291597 
L 165.210638 38.318564 
L 166.017816 32.380806 
L 166.690464 28.869851 
L 167.228583 27.083817 
L 167.632172 26.3589 
L 167.901232 26.168798 
L 168.170291 26.262891 
L 168.43935 26.800653 
L 168.842939 28.445967 
L 169.381058 32.139008 
L 170.053707 38.946606 
L 170.860885 49.774154 
L 172.071652 69.542433 
L 174.358657 107.603578 
L 175.300365 119.929947 
L 176.107543 127.971475 
L 176.780191 132.741504 
L 177.31831 135.294632 
L 177.856429 136.772942 
L 178.260018 137.219956 
L 178.529077 137.223881 
L 178.798137 137.007104 
L 179.201726 136.29697 
L 179.739844 134.702368 
L 180.412493 131.817403 
L 181.219671 127.298697 
L 182.295909 119.916479 
L 183.641205 109.073262 
L 185.255562 94.124431 
L 187.138977 74.425172 
L 190.098631 43.19575 
L 191.174868 34.402502 
L 191.982046 29.640687 
L 192.520165 27.534688 
L 192.923754 26.573683 
L 193.327343 26.169647 
L 193.596403 26.259038 
L 193.865462 26.780851 
L 194.269051 28.389639 
L 194.67264 30.97041 
L 195.210759 35.853091 
L 195.883407 44.059823 
L 196.825115 58.715305 
L 198.574001 90.763919 
L 199.919298 113.709487 
L 200.861006 126.058479 
L 201.533654 132.260568 
L 202.071773 135.464666 
L 202.475362 136.809418 
L 202.744422 137.202738 
L 203.013481 137.19986 
L 203.28254 136.810072 
L 203.686129 135.527997 
L 204.224248 132.60433 
L 204.896897 127.231536 
L 205.704075 118.768666 
L 206.914842 103.453154 
L 209.739966 66.728128 
L 210.950733 53.976196 
L 212.02697 44.768201 
L 213.103208 37.498777 
L 214.044916 32.613956 
L 214.852094 29.477611 
L 215.524742 27.618019 
L 216.062861 26.653848 
L 216.46645 26.258239 
L 216.870039 26.168073 
L 217.139099 26.376803 
L 217.408158 26.854144 
L 217.811747 28.08221 
L 218.349866 30.688331 
L 218.887985 34.404936 
L 219.560633 40.581224 
L 220.367811 50.093962 
L 221.444049 65.754085 
L 225.34541 126.125385 
L 226.018058 132.300603 
L 226.556177 135.529929 
L 226.959766 136.868759 
L 227.228825 137.227002 
L 227.497885 137.152452 
L 227.766944 136.644967 
L 228.170533 135.081381 
L 228.708652 131.549339 
L 229.3813 124.988562 
L 230.188479 114.449881 
L 231.399246 94.92059 
L 233.95531 52.37578 
L 234.897018 40.476049 
L 235.704196 33.001532 
L 236.376844 28.866399 
L 236.914963 26.933794 
L 237.318552 26.258548 
L 237.587612 26.160916 
L 237.856671 26.421701 
L 238.12573 27.080551 
L 238.529319 28.773437 
L 239.067438 32.229692 
L 239.740087 38.196511 
L 240.681795 48.870943 
L 242.296151 70.486297 
L 244.583156 100.719673 
L 245.928452 115.511184 
L 247.00469 125.002806 
L 247.946398 131.302237 
L 248.619046 134.509671 
L 249.157165 136.223464 
L 249.560754 136.976812 
L 249.964343 137.249681 
L 250.233403 137.1544 
L 250.502462 136.8308 
L 250.906051 135.906654 
L 251.44417 133.83576 
L 251.982289 130.791091 
L 252.654937 125.621641 
L 253.462115 117.503302 
L 254.403823 105.696316 
L 255.74912 85.720383 
L 258.305184 47.312225 
L 259.246892 36.639534 
L 259.91954 31.086282 
L 260.457659 28.085469 
L 260.861248 26.733295 
L 261.130308 26.271407 
L 261.399367 26.167335 
L 261.668426 26.529143 
L 261.937486 27.401991 
L 262.341075 29.639788 
L 262.879194 34.254033 
L 263.551842 42.344761 
L 264.49355 57.055379 
L 266.242436 89.321943 
L 267.587733 112.468294 
L 268.529441 125.08075 
L 269.202089 131.554633 
L 269.740208 135.017859 
L 270.143797 136.571941 
L 270.412856 137.107528 
L 270.681916 137.246012 
L 270.950975 136.993948 
L 271.220034 136.361075 
L 271.623624 134.726403 
L 272.161742 131.355722 
L 272.834391 125.461749 
L 273.776099 114.761981 
L 275.255925 94.708799 
L 277.4084 65.692923 
L 278.619167 52.103226 
L 279.695405 42.328333 
L 280.637113 35.63508 
L 281.444291 31.282763 
L 282.116939 28.642871 
L 282.655058 27.195099 
L 283.193177 26.361714 
L 283.596766 26.157562 
L 283.865825 26.279793 
L 284.134885 26.689124 
L 284.538474 27.842925 
L 285.076593 30.383595 
L 285.614711 34.047908 
L 286.28736 40.138585 
L 287.094538 49.469102 
L 288.170776 64.714676 
L 290.323251 99.706837 
L 291.668548 119.467463 
L 292.475726 128.562744 
L 293.148374 133.879535 
L 293.686493 136.40139 
L 294.090082 137.199424 
L 294.359141 137.192271 
L 294.628201 136.748297 
L 295.03179 135.263903 
L 295.435379 132.813539 
L 295.973498 128.110896 
L 296.646146 120.137985 
L 297.587854 105.82743 
L 299.20221 76.847456 
L 300.682037 51.652833 
L 301.623745 39.123721 
L 302.296393 32.576388 
L 302.834512 28.954391 
L 303.372631 26.818908 
L 303.64169 26.307018 
L 303.910749 26.159246 
L 304.179809 26.464318 
L 304.448868 27.273883 
L 304.852457 29.387965 
L 305.390576 33.747277 
L 306.063224 41.314717 
L 307.004932 54.841836 
L 310.906293 115.260006 
L 311.848001 125.040759 
L 312.655179 131.130614 
L 313.327828 134.581326 
L 313.865947 136.307958 
L 314.269536 137.020444 
L 314.538595 137.226356 
L 314.807654 137.2223 
L 315.076714 137.012773 
L 315.480303 136.322765 
L 316.018422 134.723102 
L 316.55654 132.374785 
L 317.229189 128.429662 
L 318.036367 122.285797 
L 318.978075 113.308889 
L 320.188842 99.275169 
L 321.803198 77.574763 
L 324.090203 47.026628 
L 325.031911 37.065081 
L 325.839089 30.769821 
L 326.377208 27.979306 
L 326.780797 26.70593 
L 327.049856 26.266758 
L 327.318916 26.166724 
L 327.587975 26.515195 
L 327.857034 27.360176 
L 328.260624 29.537 
L 328.798742 34.054126 
L 329.471391 42.039379 
L 330.278569 54.419754 
L 331.623866 79.126976 
L 333.372752 111.001932 
L 334.31446 124.422767 
L 334.987108 131.362633 
L 335.525227 135.053672 
L 335.928816 136.661414 
L 336.197875 137.166344 
L 336.466935 137.215183 
L 336.735994 136.810171 
L 337.005053 135.957469 
L 337.408643 133.86193 
L 337.946761 129.625453 
L 338.61941 122.253778 
L 339.561118 108.852471 
L 341.175474 81.486844 
L 342.78983 55.274312 
L 343.731538 43.059547 
L 344.538716 35.124035 
L 345.211365 30.444327 
L 345.749483 27.963772 
L 346.153072 26.813187 
L 346.556662 26.239481 
L 346.825721 26.162039 
L 347.09478 26.404008 
L 347.36384 26.997699 
L 347.767429 28.506694 
L 348.305548 31.56578 
L 348.978196 36.828418 
L 349.919904 46.269357 
L 351.265201 62.395673 
L 355.570151 115.772867 
L 356.646388 125.978717 
L 357.453567 131.842359 
L 358.126215 135.234217 
L 358.664334 136.803477 
L 358.933393 137.169199 
L 359.202453 137.239638 
L 359.471512 137.004544 
L 359.740571 136.455398 
L 360.14416 135.029159 
L 360.682279 131.986811 
L 361.354928 126.368473 
L 362.162106 117.13185 
L 363.103814 103.475332 
L 364.71817 75.960667 
L 366.332526 49.49924 
L 367.274234 37.498261 
L 367.946882 31.328151 
L 368.485001 28.065697 
L 368.88859 26.657014 
L 369.15765 26.22305 
L 369.426709 26.211395 
L 369.695768 26.749087 
L 369.964828 27.850499 
L 370.368417 30.515889 
L 370.906536 35.819677 
L 371.579184 44.873023 
L 372.520892 60.885625 
L 375.749605 118.924838 
L 376.556783 128.479531 
L 377.229431 133.856313 
L 377.76755 136.357443 
L 378.171139 137.174359 
L 378.440198 137.222397 
L 378.709258 136.882832 
L 379.112847 135.672405 
L 379.516436 133.665248 
L 380.054555 129.855295 
L 380.727203 123.511259 
L 381.668911 112.353775 
L 383.283267 89.949532 
L 385.301213 62.580638 
L 386.51198 49.019147 
L 387.588217 39.454295 
L 388.529925 33.142579 
L 389.337103 29.301002 
L 390.009752 27.236596 
L 390.547871 26.354713 
L 390.95146 26.15718 
L 391.220519 26.316806 
L 391.489578 26.782472 
L 391.893168 28.050045 
L 392.431286 30.782912 
L 393.103935 35.80961 
L 393.911113 44.023646 
L 394.852821 56.182104 
L 396.198118 76.896287 
L 398.754182 116.801591 
L 399.69589 127.759223 
L 400.368538 133.279919 
L 400.906657 136.049841 
L 401.310246 137.080656 
L 401.579305 137.248076 
L 401.848365 136.991499 
L 402.117424 136.307814 
L 402.521013 134.483604 
L 403.059132 130.592824 
L 403.73178 123.530188 
L 404.538959 112.268516 
L 405.749726 91.424597 
L 408.03673 50.826927 
L 408.978438 38.198633 
L 409.651087 31.734749 
L 410.189206 28.301061 
L 410.592795 26.781782 
L 410.861854 26.274566 
L 411.130913 26.172371 
L 411.399973 26.588469 
L 411.669032 27.560027 
L 412.072621 30.008708 
L 412.61074 34.969454 
L 413.283388 43.489204 
L 414.225096 58.56146 
L 417.588339 115.58544 
L 418.395517 125.008173 
L 419.068165 130.833923 
L 419.740814 134.763492 
L 420.278932 136.56916 
L 420.682521 137.176458 
L 420.951581 137.241932 
L 421.22064 137.047541 
L 421.624229 136.292279 
L 422.027818 135.01437 
L 422.565937 132.564444 
L 423.238586 128.430575 
L 424.180293 120.942568 
L 425.256531 110.434709 
L 426.736358 93.540634 
L 431.175837 40.585621 
L 432.117545 32.818188 
L 432.790194 28.921868 
L 433.328312 26.975277 
L 433.731902 26.262632 
L 434.000961 26.163549 
L 434.27002 26.472347 
L 434.53908 27.242063 
L 434.942669 29.24615 
L 435.480787 33.441546 
L 436.153436 40.929355 
L 436.960614 52.677814 
L 438.171381 74.058606 
L 440.323856 112.776171 
L 441.265564 125.676002 
L 441.938213 132.216272 
L 442.476331 135.571779 
L 442.879921 136.917072 
L 443.14898 137.240953 
L 443.28351 137.229757 
L 443.552569 136.861462 
L 443.821628 136.035307 
L 444.225217 133.9549 
L 444.763336 129.680041 
L 445.435985 122.144617 
L 446.243163 110.445436 
L 447.58846 86.961791 
L 449.471875 54.093671 
L 450.413583 41.145301 
L 451.220761 33.033327 
L 451.75888 29.343399 
L 452.296999 27.065837 
L 452.700588 26.270962 
L 452.969647 26.164423 
L 453.238707 26.492894 
L 453.507766 27.295176 
L 453.911355 29.336324 
L 454.449474 33.476753 
L 455.122122 40.575613 
L 456.06383 53.130236 
L 460.234251 112.84734 
L 461.175959 122.298425 
L 461.983137 128.615953 
L 462.790315 133.239107 
L 463.462963 135.772156 
L 464.001082 136.91406 
L 464.404671 137.240617 
L 464.673731 137.199897 
L 464.673731 137.199897 
" clip-path="url(#pee84a09468)" style="fill: none; stroke: #009afa; stroke-width: 6"/>
   </g>
   <g id="matplotlib.axis_1"/>
   <g id="matplotlib.axis_2"/>
   <g id="line2d_2">
    <path d="M 16.286269 26.157118 
L 16.420799 26.266726 
L 16.689859 27.141001 
L 17.093448 30.057796 
L 17.497037 34.804173 
L 18.035155 43.679456 
L 18.842334 61.255656 
L 21.532927 124.503123 
L 22.071046 131.9638 
L 22.474635 135.505235 
L 22.743695 136.812333 
L 23.012754 137.250334 
L 23.147284 137.140726 
L 23.416343 136.266451 
L 23.819932 133.349656 
L 24.223521 128.603279 
L 24.76164 119.727996 
L 25.568818 102.151796 
L 28.259412 38.904329 
L 28.797531 31.443652 
L 29.20112 27.902216 
L 29.470179 26.595119 
L 29.739239 26.157118 
L 29.873768 26.266726 
L 30.142828 27.141001 
L 30.546417 30.057796 
L 30.950006 34.804173 
L 31.488125 43.679456 
L 32.295303 61.255656 
L 34.985897 124.503123 
L 35.524015 131.9638 
L 35.927604 135.505235 
L 36.196664 136.812333 
L 36.465723 137.250334 
L 36.600253 137.140726 
L 36.869312 136.266451 
L 37.272901 133.349656 
L 37.67649 128.603279 
L 38.214609 119.727996 
L 39.021787 102.151796 
L 41.712381 38.904329 
L 42.2505 31.443652 
L 42.654089 27.902216 
L 42.923148 26.595119 
L 43.192208 26.157118 
L 43.326737 26.266726 
L 43.595797 27.141001 
L 43.999386 30.057796 
L 44.402975 34.804173 
L 44.941094 43.679456 
L 45.748272 61.255656 
L 48.438866 124.503123 
L 48.976984 131.9638 
L 49.380574 135.505235 
L 49.649633 136.812333 
L 49.918692 137.250334 
L 50.053222 137.140726 
L 50.322281 136.266451 
L 50.72587 133.349656 
L 51.12946 128.603279 
L 51.667578 119.727996 
L 52.474756 102.151796 
L 55.16535 38.904329 
L 55.703469 31.443652 
L 56.107058 27.902216 
L 56.376117 26.595119 
L 56.645177 26.157118 
L 56.779707 26.266726 
L 57.048766 27.141001 
L 57.452355 30.057796 
L 57.855944 34.804173 
L 58.394063 43.679456 
L 59.201241 61.255656 
L 61.891835 124.503123 
L 62.429954 131.9638 
L 62.833543 135.505235 
L 63.102602 136.812333 
L 63.371661 137.250334 
L 63.506191 137.140726 
L 63.775251 136.266451 
L 64.17884 133.349656 
L 64.582429 128.603279 
L 65.120547 119.727996 
L 65.927726 102.151796 
L 68.618319 38.904329 
L 69.156438 31.443652 
L 69.560027 27.902216 
L 69.829087 26.595119 
L 70.098146 26.157118 
L 70.232676 26.266726 
L 70.501735 27.141001 
L 70.905324 30.057796 
L 71.308913 34.804173 
L 71.847032 43.679456 
L 72.65421 61.255656 
L 75.344804 124.503123 
L 75.882923 131.9638 
L 76.286512 135.505235 
L 76.555571 136.812333 
L 76.824631 137.250334 
L 76.95916 137.140726 
L 77.22822 136.266451 
L 77.631809 133.349656 
L 78.035398 128.603279 
L 78.573517 119.727996 
L 79.380695 102.151796 
L 82.071289 38.904329 
L 82.609407 31.443652 
L 83.012996 27.902216 
L 83.282056 26.595119 
L 83.551115 26.157118 
L 83.685645 26.266726 
L 83.954704 27.141001 
L 84.358293 30.057796 
L 84.761882 34.804173 
L 85.300001 43.679456 
L 86.107179 61.255656 
L 88.797773 124.503123 
L 89.335892 131.9638 
L 89.739481 135.505235 
L 90.00854 136.812333 
L 90.2776 137.250334 
L 90.412129 137.140726 
L 90.681189 136.266451 
L 91.084778 133.349656 
L 91.488367 128.603279 
L 92.026486 119.727996 
L 92.833664 102.151796 
L 95.524258 38.904329 
L 96.062376 31.443652 
L 96.465965 27.902216 
L 96.735025 26.595119 
L 97.004084 26.157118 
L 97.138614 26.266726 
L 97.407673 27.141001 
L 97.811262 30.057796 
L 98.214851 34.804173 
L 98.75297 43.679456 
L 99.560148 61.255656 
L 102.250742 124.503123 
L 102.788861 131.9638 
L 103.19245 135.505235 
L 103.461509 136.812333 
L 103.730569 137.250334 
L 103.865099 137.140726 
L 104.134158 136.266451 
L 104.537747 133.349656 
L 104.941336 128.603279 
L 105.479455 119.727996 
L 106.286633 102.151796 
L 108.977227 38.904329 
L 109.515346 31.443652 
L 109.918935 27.902216 
L 110.187994 26.595119 
L 110.457053 26.157118 
L 110.591583 26.266726 
L 110.860642 27.141001 
L 111.264232 30.057796 
L 111.667821 34.804173 
L 112.205939 43.679456 
L 113.013118 61.255656 
L 115.703711 124.503123 
L 116.24183 131.9638 
L 116.645419 135.505235 
L 116.914479 136.812333 
L 117.183538 137.250334 
L 117.318068 137.140726 
L 117.587127 136.266451 
L 117.990716 133.349656 
L 118.394305 128.603279 
L 118.932424 119.727996 
L 119.739602 102.151796 
L 122.430196 38.904329 
L 122.968315 31.443652 
L 123.371904 27.902216 
L 123.640963 26.595119 
L 123.910023 26.157118 
L 124.044552 26.266726 
L 124.313612 27.141001 
L 124.717201 30.057796 
L 125.12079 34.804173 
L 125.658909 43.679456 
L 126.466087 61.255656 
L 129.15668 124.503123 
L 129.694799 131.9638 
L 130.098388 135.505235 
L 130.367448 136.812333 
L 130.636507 137.250334 
L 130.771037 137.140726 
L 131.040096 136.266451 
L 131.443685 133.349656 
L 131.847274 128.603279 
L 132.385393 119.727996 
L 133.192571 102.151796 
L 135.883165 38.904329 
L 136.421284 31.443652 
L 136.824873 27.902216 
L 137.093932 26.595119 
L 137.362992 26.157118 
L 137.497521 26.266726 
L 137.766581 27.141001 
L 138.17017 30.057796 
L 138.573759 34.804173 
L 139.111878 43.679456 
L 139.919056 61.255656 
L 142.60965 124.503123 
L 143.147768 131.9638 
L 143.551357 135.505235 
L 143.820417 136.812333 
L 144.089476 137.250334 
L 144.224006 137.140726 
L 144.493065 136.266451 
L 144.896654 133.349656 
L 145.300243 128.603279 
L 145.838362 119.727996 
L 146.64554 102.151796 
L 149.336134 38.904329 
L 149.874253 31.443652 
L 150.277842 27.902216 
L 150.546901 26.595119 
L 150.815961 26.157118 
L 150.95049 26.266726 
L 151.21955 27.141001 
L 151.623139 30.057796 
L 152.026728 34.804173 
L 152.564847 43.679456 
L 153.372025 61.255656 
L 156.062619 124.503123 
L 156.600737 131.9638 
L 157.004327 135.505235 
L 157.273386 136.812333 
L 157.542445 137.250334 
L 157.676975 137.140726 
L 157.946034 136.266451 
L 158.349623 133.349656 
L 158.753213 128.603279 
L 159.291331 119.727996 
L 160.098509 102.151796 
L 162.789103 38.904329 
L 163.327222 31.443652 
L 163.730811 27.902216 
L 163.999871 26.595119 
L 164.26893 26.157118 
L 164.40346 26.266726 
L 164.672519 27.141001 
L 165.076108 30.057796 
L 165.479697 34.804173 
L 166.017816 43.679456 
L 166.824994 61.255656 
L 169.515588 124.503123 
L 170.053707 131.9638 
L 170.457296 135.505235 
L 170.726355 136.812333 
L 170.995414 137.250334 
L 171.129944 137.140726 
L 171.399004 136.266451 
L 171.802593 133.349656 
L 172.206182 128.603279 
L 172.7443 119.727996 
L 173.551479 102.151796 
L 176.242072 38.904329 
L 176.780191 31.443652 
L 177.18378 27.902216 
L 177.45284 26.595119 
L 177.721899 26.157118 
L 177.856429 26.266726 
L 178.125488 27.141001 
L 178.529077 30.057796 
L 178.932666 34.804173 
L 179.470785 43.679456 
L 180.277963 61.255656 
L 182.968557 124.503123 
L 183.506676 131.9638 
L 183.910265 135.505235 
L 184.179324 136.812333 
L 184.448384 137.250334 
L 184.582913 137.140726 
L 184.851973 136.266451 
L 185.255562 133.349656 
L 185.659151 128.603279 
L 186.19727 119.727996 
L 187.004448 102.151796 
L 189.695042 38.904329 
L 190.23316 31.443652 
L 190.636749 27.902216 
L 190.905809 26.595119 
L 191.174868 26.157118 
L 191.309398 26.266726 
L 191.578457 27.141001 
L 191.982046 30.057796 
L 192.385635 34.804173 
L 192.923754 43.679456 
L 193.730932 61.255656 
L 196.421526 124.503123 
L 196.959645 131.9638 
L 197.363234 135.505235 
L 197.632293 136.812333 
L 197.901353 137.250334 
L 198.035882 137.140726 
L 198.304942 136.266451 
L 198.708531 133.349656 
L 199.11212 128.603279 
L 199.650239 119.727996 
L 200.457417 102.151796 
L 203.148011 38.904329 
L 203.686129 31.443652 
L 204.089719 27.902216 
L 204.358778 26.595119 
L 204.627837 26.157118 
L 204.762367 26.266726 
L 205.031426 27.141001 
L 205.435015 30.057796 
L 205.838604 34.804173 
L 206.376723 43.679456 
L 207.183901 61.255656 
L 209.874495 124.503123 
L 210.412614 131.9638 
L 210.816203 135.505235 
L 211.085262 136.812333 
L 211.354322 137.250334 
L 211.488852 137.140726 
L 211.757911 136.266451 
L 212.1615 133.349656 
L 212.565089 128.603279 
L 213.103208 119.727996 
L 213.910386 102.151796 
L 216.60098 38.904329 
L 217.139099 31.443652 
L 217.542688 27.902216 
L 217.811747 26.595119 
L 218.080806 26.157118 
L 218.215336 26.266726 
L 218.484395 27.141001 
L 218.887985 30.057796 
L 219.291574 34.804173 
L 219.829692 43.679456 
L 220.636871 61.255656 
L 223.327464 124.503123 
L 223.865583 131.9638 
L 224.269172 135.505235 
L 224.538232 136.812333 
L 224.807291 137.250334 
L 224.941821 137.140726 
L 225.21088 136.266451 
L 225.614469 133.349656 
L 226.018058 128.603279 
L 226.556177 119.727996 
L 227.363355 102.151796 
L 230.053949 38.904329 
L 230.592068 31.443652 
L 230.995657 27.902216 
L 231.264716 26.595119 
L 231.533776 26.157118 
L 231.668305 26.266726 
L 231.937365 27.141001 
L 232.340954 30.057796 
L 232.744543 34.804173 
L 233.282662 43.679456 
L 234.08984 61.255656 
L 236.780433 124.503123 
L 237.318552 131.9638 
L 237.722141 135.505235 
L 237.991201 136.812333 
L 238.26026 137.250334 
L 238.39479 137.140726 
L 238.663849 136.266451 
L 239.067438 133.349656 
L 239.471027 128.603279 
L 240.009146 119.727996 
L 240.816324 102.151796 
L 243.506918 38.904329 
L 244.045037 31.443652 
L 244.448626 27.902216 
L 244.717685 26.595119 
L 244.986745 26.157118 
L 245.121274 26.266726 
L 245.390334 27.141001 
L 245.793923 30.057796 
L 246.197512 34.804173 
L 246.735631 43.679456 
L 247.542809 61.255656 
L 250.233403 124.503123 
L 250.771521 131.9638 
L 251.17511 135.505235 
L 251.44417 136.812333 
L 251.713229 137.250334 
L 251.847759 137.140726 
L 252.116818 136.266451 
L 252.520407 133.349656 
L 252.923996 128.603279 
L 253.462115 119.727996 
L 254.269293 102.151796 
L 256.959887 38.904329 
L 257.498006 31.443652 
L 257.901595 27.902216 
L 258.170654 26.595119 
L 258.439714 26.157118 
L 258.574243 26.266726 
L 258.843303 27.141001 
L 259.246892 30.057796 
L 259.650481 34.804173 
L 260.1886 43.679456 
L 260.995778 61.255656 
L 263.686372 124.503123 
L 264.224491 131.9638 
L 264.62808 135.505235 
L 264.897139 136.812333 
L 265.166198 137.250334 
L 265.300728 137.140726 
L 265.569787 136.266451 
L 265.973376 133.349656 
L 266.376966 128.603279 
L 266.915084 119.727996 
L 267.722262 102.151796 
L 270.412856 38.904329 
L 270.950975 31.443652 
L 271.354564 27.902216 
L 271.623624 26.595119 
L 271.892683 26.157118 
L 272.027213 26.266726 
L 272.296272 27.141001 
L 272.699861 30.057796 
L 273.10345 34.804173 
L 273.641569 43.679456 
L 274.448747 61.255656 
L 277.139341 124.503123 
L 277.67746 131.9638 
L 278.081049 135.505235 
L 278.350108 136.812333 
L 278.619167 137.250334 
L 278.753697 137.140726 
L 279.022757 136.266451 
L 279.426346 133.349656 
L 279.829935 128.603279 
L 280.368053 119.727996 
L 281.175232 102.151796 
L 283.865825 38.904329 
L 284.403944 31.443652 
L 284.807533 27.902216 
L 285.076593 26.595119 
L 285.345652 26.157118 
L 285.480182 26.266726 
L 285.749241 27.141001 
L 286.15283 30.057796 
L 286.556419 34.804173 
L 287.094538 43.679456 
L 287.901716 61.255656 
L 290.59231 124.503123 
L 291.130429 131.9638 
L 291.534018 135.505235 
L 291.803077 136.812333 
L 292.072137 137.250334 
L 292.206666 137.140726 
L 292.475726 136.266451 
L 292.879315 133.349656 
L 293.282904 128.603279 
L 293.821023 119.727996 
L 294.628201 102.151796 
L 297.318795 38.904329 
L 297.856913 31.443652 
L 298.260502 27.902216 
L 298.529562 26.595119 
L 298.798621 26.157118 
L 298.933151 26.266726 
L 299.20221 27.141001 
L 299.605799 30.057796 
L 300.009388 34.804173 
L 300.547507 43.679456 
L 301.354685 61.255656 
L 304.045279 124.503123 
L 304.583398 131.9638 
L 304.986987 135.505235 
L 305.256046 136.812333 
L 305.525106 137.250334 
L 305.659635 137.140726 
L 305.928695 136.266451 
L 306.332284 133.349656 
L 306.735873 128.603279 
L 307.273992 119.727996 
L 308.08117 102.151796 
L 310.771764 38.904329 
L 311.309882 31.443652 
L 311.713472 27.902216 
L 311.982531 26.595119 
L 312.25159 26.157118 
L 312.38612 26.266726 
L 312.655179 27.141001 
L 313.058768 30.057796 
L 313.462358 34.804173 
L 314.000476 43.679456 
L 314.807654 61.255656 
L 317.498248 124.503123 
L 318.036367 131.9638 
L 318.439956 135.505235 
L 318.709015 136.812333 
L 318.978075 137.250334 
L 319.112605 137.140726 
L 319.381664 136.266451 
L 319.785253 133.349656 
L 320.188842 128.603279 
L 320.726961 119.727996 
L 321.534139 102.151796 
L 324.224733 38.904329 
L 324.762852 31.443652 
L 325.166441 27.902216 
L 325.4355 26.595119 
L 325.704559 26.157118 
L 325.839089 26.266726 
L 326.108148 27.141001 
L 326.511738 30.057796 
L 326.915327 34.804173 
L 327.453445 43.679456 
L 328.260624 61.255656 
L 330.951217 124.503123 
L 331.489336 131.9638 
L 331.892925 135.505235 
L 332.161985 136.812333 
L 332.431044 137.250334 
L 332.565574 137.140726 
L 332.834633 136.266451 
L 333.238222 133.349656 
L 333.641811 128.603279 
L 334.17993 119.727996 
L 334.987108 102.151796 
L 337.677702 38.904329 
L 338.215821 31.443652 
L 338.61941 27.902216 
L 338.888469 26.595119 
L 339.157529 26.157118 
L 339.292058 26.266726 
L 339.561118 27.141001 
L 339.964707 30.057796 
L 340.368296 34.804173 
L 340.906415 43.679456 
L 341.713593 61.255656 
L 344.404187 124.503123 
L 344.942305 131.9638 
L 345.345894 135.505235 
L 345.614954 136.812333 
L 345.884013 137.250334 
L 346.018543 137.140726 
L 346.287602 136.266451 
L 346.691191 133.349656 
L 347.09478 128.603279 
L 347.632899 119.727996 
L 348.440077 102.151796 
L 351.130671 38.904329 
L 351.66879 31.443652 
L 352.072379 27.902216 
L 352.341438 26.595119 
L 352.610498 26.157118 
L 352.745027 26.266726 
L 353.014087 27.141001 
L 353.417676 30.057796 
L 353.821265 34.804173 
L 354.359384 43.679456 
L 355.166562 61.255656 
L 357.857156 124.503123 
L 358.395274 131.9638 
L 358.798863 135.505235 
L 359.067923 136.812333 
L 359.336982 137.250334 
L 359.471512 137.140726 
L 359.740571 136.266451 
L 360.14416 133.349656 
L 360.547749 128.603279 
L 361.085868 119.727996 
L 361.893046 102.151796 
L 364.58364 38.904329 
L 365.121759 31.443652 
L 365.525348 27.902216 
L 365.794407 26.595119 
L 366.063467 26.157118 
L 366.197996 26.266726 
L 366.467056 27.141001 
L 366.870645 30.057796 
L 367.274234 34.804173 
L 367.812353 43.679456 
L 368.619531 61.255656 
L 371.310125 124.503123 
L 371.848244 131.9638 
L 372.251833 135.505235 
L 372.520892 136.812333 
L 372.789951 137.250334 
L 372.924481 137.140726 
L 373.19354 136.266451 
L 373.59713 133.349656 
L 374.000719 128.603279 
L 374.538837 119.727996 
L 375.346015 102.151796 
L 378.036609 38.904329 
L 378.574728 31.443652 
L 378.978317 27.902216 
L 379.247377 26.595119 
L 379.516436 26.157118 
L 379.650966 26.266726 
L 379.920025 27.141001 
L 380.323614 30.057796 
L 380.727203 34.804173 
L 381.265322 43.679456 
L 382.0725 61.255656 
L 384.763094 124.503123 
L 385.301213 131.9638 
L 385.704802 135.505235 
L 385.973861 136.812333 
L 386.24292 137.250334 
L 386.37745 137.140726 
L 386.64651 136.266451 
L 387.050099 133.349656 
L 387.453688 128.603279 
L 387.991806 119.727996 
L 388.798985 102.151796 
L 391.489578 38.904329 
L 392.027697 31.443652 
L 392.431286 27.902216 
L 392.700346 26.595119 
L 392.969405 26.157118 
L 393.103935 26.266726 
L 393.372994 27.141001 
L 393.776583 30.057796 
L 394.180172 34.804173 
L 394.718291 43.679456 
L 395.525469 61.255656 
L 398.216063 124.503123 
L 398.754182 131.9638 
L 399.157771 135.505235 
L 399.42683 136.812333 
L 399.69589 137.250334 
L 399.830419 137.140726 
L 400.099479 136.266451 
L 400.503068 133.349656 
L 400.906657 128.603279 
L 401.444776 119.727996 
L 402.251954 102.151796 
L 404.942548 38.904329 
L 405.480666 31.443652 
L 405.884255 27.902216 
L 406.153315 26.595119 
L 406.422374 26.157118 
L 406.556904 26.266726 
L 406.825963 27.141001 
L 407.229552 30.057796 
L 407.633141 34.804173 
L 408.17126 43.679456 
L 408.978438 61.255656 
L 411.669032 124.503123 
L 412.207151 131.9638 
L 412.61074 135.505235 
L 412.879799 136.812333 
L 413.148859 137.250334 
L 413.283388 137.140726 
L 413.552448 136.266451 
L 413.956037 133.349656 
L 414.359626 128.603279 
L 414.897745 119.727996 
L 415.704923 102.151796 
L 418.395517 38.904329 
L 418.933635 31.443652 
L 419.337225 27.902216 
L 419.606284 26.595119 
L 419.875343 26.157118 
L 420.009873 26.266726 
L 420.278932 27.141001 
L 420.682521 30.057796 
L 421.086111 34.804173 
L 421.624229 43.679456 
L 422.431407 61.255656 
L 425.122001 124.503123 
L 425.66012 131.9638 
L 426.063709 135.505235 
L 426.332768 136.812333 
L 426.601828 137.250334 
L 426.736358 137.140726 
L 427.005417 136.266451 
L 427.409006 133.349656 
L 427.812595 128.603279 
L 428.350714 119.727996 
L 429.157892 102.151796 
L 431.848486 38.904329 
L 432.386605 31.443652 
L 432.790194 27.902216 
L 433.059253 26.595119 
L 433.328312 26.157118 
L 433.462842 26.266726 
L 433.731902 27.141001 
L 434.135491 30.057796 
L 434.53908 34.804173 
L 435.077198 43.679456 
L 435.884377 61.255656 
L 438.57497 124.503123 
L 439.113089 131.9638 
L 439.516678 135.505235 
L 439.785738 136.812333 
L 440.054797 137.250334 
L 440.189327 137.140726 
L 440.458386 136.266451 
L 440.861975 133.349656 
L 441.265564 128.603279 
L 441.803683 119.727996 
L 442.610861 102.151796 
L 445.301455 38.904329 
L 445.839574 31.443652 
L 446.243163 27.902216 
L 446.512222 26.595119 
L 446.781282 26.157118 
L 446.915811 26.266726 
L 447.184871 27.141001 
L 447.58846 30.057796 
L 447.992049 34.804173 
L 448.530168 43.679456 
L 449.337346 61.255656 
L 452.02794 124.503123 
L 452.566058 131.9638 
L 452.969647 135.505235 
L 453.238707 136.812333 
L 453.507766 137.250334 
L 453.642296 137.140726 
L 453.911355 136.266451 
L 454.314944 133.349656 
L 454.718533 128.603279 
L 455.256652 119.727996 
L 456.06383 102.151796 
L 458.754424 38.904329 
L 459.292543 31.443652 
L 459.696132 27.902216 
L 459.965191 26.595119 
L 460.234251 26.157118 
L 460.36878 26.266726 
L 460.63784 27.141001 
L 461.041429 30.057796 
L 461.445018 34.804173 
L 461.983137 43.679456 
L 462.790315 61.255656 
L 464.673731 108.463509 
L 464.673731 108.463509 
" clip-path="url(#pee84a09468)" style="fill: none; stroke: #e36f47; stroke-width: 6"/>
   </g>
   <g id="line2d_3">
    <path d="M 16.286269 67.817074 
L 22.205576 69.534283 
L 28.528471 71.134695 
L 35.254956 72.606877 
L 42.519559 73.967391 
L 50.456811 75.222381 
L 59.066711 76.354627 
L 68.618319 77.380819 
L 72.116091 77.705191 
L 72.250621 49.946215 
L 76.421041 52.766488 
L 80.725992 55.415287 
L 85.300001 57.964489 
L 90.00854 60.330708 
L 94.851609 62.518716 
L 99.963737 64.585748 
L 105.344925 66.521441 
L 110.995172 68.318798 
L 111.533291 68.478458 
L 111.667821 40.799236 
L 115.569182 44.207516 
L 119.605072 47.434771 
L 123.775493 50.478077 
L 128.080443 53.336347 
L 132.519923 56.01018 
L 137.093932 58.501694 
L 141.129823 60.498666 
L 141.264353 32.867694 
L 145.031184 36.802351 
L 148.798015 40.419999 
L 152.699376 43.859879 
L 156.735267 47.117054 
L 160.905688 50.188575 
L 165.076108 52.987325 
L 167.901232 54.740649 
L 168.035761 27.078124 
L 171.668063 31.32834 
L 175.434894 35.387022 
L 179.201726 39.1187 
L 183.103087 42.667008 
L 187.004448 45.919661 
L 191.040338 48.999553 
L 193.327343 50.625648 
L 193.461873 22.975228 
L 197.094175 27.544676 
L 200.726476 31.758592 
L 204.493308 35.782609 
L 208.260139 39.482415 
L 212.1615 43.000418 
L 216.062861 46.22529 
L 216.735509 46.753495 
L 216.870039 19.132957 
L 220.367811 23.827991 
L 224.000113 28.331088 
L 227.632414 32.483816 
L 231.399246 36.449402 
L 235.166077 40.095486 
L 237.453082 42.164303 
L 237.587612 14.531958 
L 241.085384 19.57223 
L 244.583156 24.234303 
L 248.215457 28.705787 
L 251.847759 32.829361 
L 255.61459 36.767107 
L 259.381422 40.387594 
L 261.264837 42.086935 
L 261.399367 14.465299 
L 264.897139 19.510573 
L 268.394911 24.177272 
L 272.027213 28.653193 
L 275.659514 32.780859 
L 279.426346 36.722513 
L 283.193177 40.346593 
L 283.596766 40.717137 
L 283.731296 13.137329 
L 287.229068 18.282248 
L 290.72684 23.041115 
L 294.359141 27.605436 
L 297.991443 31.814624 
L 301.758274 35.834126 
L 303.77622 37.852504 
L 303.910749 10.225605 
L 307.408521 15.589007 
L 310.906293 20.549963 
L 314.404065 25.13867 
L 318.036367 29.539788 
L 321.668669 33.598472 
L 325.4355 37.474252 
L 327.184386 39.165998 
L 327.318916 11.552694 
L 330.816688 16.816517 
L 334.31446 21.685366 
L 337.946761 26.355173 
L 341.579063 30.66164 
L 345.211365 34.633036 
L 346.691191 36.161018 
L 346.825721 8.551287 
L 350.323493 14.040322 
L 353.821265 19.117484 
L 357.319037 23.813679 
L 360.951339 28.31789 
L 364.58364 32.471645 
L 368.350472 36.438211 
L 369.292179 37.378876 
L 369.426709 9.8103 
L 372.924481 15.204865 
L 376.422253 20.194645 
L 379.920025 24.810014 
L 383.552327 29.236704 
L 387.184628 33.318969 
L 390.81693 37.083608 
L 390.95146 9.447328 
L 394.449232 14.869128 
L 397.947004 19.884101 
L 401.444776 24.522772 
L 405.077077 28.971811 
L 408.709379 33.074686 
L 410.996384 35.492587 
L 411.130913 7.896074 
L 414.628685 13.434273 
L 418.126457 18.556911 
L 421.624229 23.295168 
L 425.256531 27.839722 
L 428.888833 32.030682 
L 432.655664 36.032776 
L 433.866431 37.249394 
L 434.000961 9.636995 
L 437.498733 15.044563 
L 440.996505 20.046372 
L 444.494277 24.672867 
L 448.126578 29.110227 
L 451.75888 33.202333 
L 452.835118 34.352509 
L 452.969647 6.749666 
L 456.467419 12.373887 
L 459.965191 17.576091 
L 463.462963 22.387945 
L 464.673731 23.968044 
L 464.673731 23.968044 
" clip-path="url(#pee84a09468)" style="fill: none; stroke: #3ea44e; stroke-width: 6"/>
   </g>
  </g>
 </g>
 <defs>
  <clipPath id="pee84a09468">
   <rect x="2.834646" y="2.834646" width="475.290709" height="138.330709"/>
  </clipPath>
 </defs>
</svg>
