<?xml version="1.0" encoding="utf-8" standalone="no"?>
<!DOCTYPE svg PUBLIC "-//W3C//DTD SVG 1.1//EN"
  "http://www.w3.org/Graphics/SVG/1.1/DTD/svg11.dtd">
<svg xmlns:xlink="http://www.w3.org/1999/xlink" width="979.2pt" height="325.44pt" viewBox="0 0 979.2 325.44" xmlns="http://www.w3.org/2000/svg" version="1.1">
 <metadata>
  <rdf:RDF xmlns:dc="http://purl.org/dc/elements/1.1/" xmlns:cc="http://creativecommons.org/ns#" xmlns:rdf="http://www.w3.org/1999/02/22-rdf-syntax-ns#">
   <cc:Work>
    <dc:type rdf:resource="http://purl.org/dc/dcmitype/StillImage"/>
    <dc:date>2024-04-26T17:51:04.393007</dc:date>
    <dc:format>image/svg+xml</dc:format>
    <dc:creator>
     <cc:Agent>
      <dc:title>Matplotlib v3.7.0, https://matplotlib.org/</dc:title>
     </cc:Agent>
    </dc:creator>
   </cc:Work>
  </rdf:RDF>
 </metadata>
 <defs>
  <style type="text/css">*{stroke-linejoin: round; stroke-linecap: butt}</style>
 </defs>
 <g id="figure_1">
  <g id="patch_1">
   <path d="M 0 325.44 
L 979.2 325.44 
L 979.2 0 
L 0 0 
L 0 325.44 
z
" style="fill: none"/>
  </g>
  <g id="axes_1">
   <g id="patch_2">
    <path d="M 42.418977 291.745354 
L 976.365354 291.745354 
L 976.365354 6.54251 
L 42.418977 6.54251 
L 42.418977 291.745354 
z
" style="fill: none"/>
   </g>
   <g id="line2d_1">
    <path d="M 139.034119 21.694796 
L 171.239167 64.177841 
L 203.444214 99.580379 
L 235.649262 134.982917 
L 267.854309 170.385455 
L 300.059357 205.787993 
L 332.264404 234.110023 
L 364.469452 262.432053 
L 396.674499 283.673576 
L 428.879547 269.512561 
L 461.084594 248.271038 
L 493.289642 234.110023 
L 525.494689 219.949008 
L 557.699737 205.787993 
L 589.904784 198.707485 
L 622.109832 184.54647 
L 654.314879 177.465962 
L 686.519927 170.385455 
L 718.724974 170.385455 
L 750.930022 163.304947 
L 783.135069 156.22444 
L 815.340117 156.22444 
L 847.545164 156.22444 
L 879.750212 149.143932 
L 911.955259 149.143932 
L 944.160307 149.143932 
L 976.365354 142.063425 
" clip-path="url(#p38aa722852)" style="fill: none; stroke: #c68225; stroke-width: 6"/>
   </g>
   <g id="PolyCollection_1">
    <defs>
     <path id="m0c55838894" d="M 139.034119 -303.745204 
L 139.034119 -310.825712 
L 171.239167 -310.825712 
L 203.444214 -310.825712 
L 235.649262 -310.825712 
L 267.854309 -310.825712 
L 300.059357 -310.825712 
L 332.264404 -310.825712 
L 364.469452 -310.825712 
L 396.674499 -310.825712 
L 428.879547 -310.825712 
L 461.084594 -310.825712 
L 493.289642 -310.825712 
L 525.494689 -310.825712 
L 557.699737 -310.825712 
L 589.904784 -310.825712 
L 622.109832 -310.825712 
L 654.314879 -310.825712 
L 686.519927 -310.825712 
L 718.724974 -310.825712 
L 750.930022 -310.825712 
L 783.135069 -310.825712 
L 815.340117 -310.825712 
L 847.545164 -310.825712 
L 879.750212 -310.825712 
L 911.955259 -310.825712 
L 944.160307 -310.825712 
L 976.365354 -310.825712 
L 976.365354 -183.376575 
L 976.365354 -183.376575 
L 944.160307 -176.296068 
L 911.955259 -176.296068 
L 879.750212 -176.296068 
L 847.545164 -169.21556 
L 815.340117 -169.21556 
L 783.135069 -169.21556 
L 750.930022 -162.135053 
L 718.724974 -155.054545 
L 686.519927 -155.054545 
L 654.314879 -147.974038 
L 622.109832 -140.89353 
L 589.904784 -126.732515 
L 557.699737 -119.652007 
L 525.494689 -105.490992 
L 493.289642 -91.329977 
L 461.084594 -77.168962 
L 428.879547 -55.927439 
L 396.674499 -41.766424 
L 364.469452 -63.007947 
L 332.264404 -91.329977 
L 300.059357 -119.652007 
L 267.854309 -155.054545 
L 235.649262 -190.457083 
L 203.444214 -225.859621 
L 171.239167 -261.262159 
L 139.034119 -303.745204 
z
"/>
    </defs>
    <g clip-path="url(#p38aa722852)">
     <use xlink:href="#m0c55838894" x="0" y="325.44" style="fill: #c68225; fill-opacity: 0.2"/>
    </g>
   </g>
   <g id="matplotlib.axis_1">
    <g id="xtick_1">
     <g id="line2d_2">
      <defs>
       <path id="m4fdda7b739" d="M 0 0 
L 0 -5 
" style="stroke: #000000"/>
      </defs>
      <g>
       <use xlink:href="#m4fdda7b739" x="114.261006" y="291.745354" style="stroke: #000000"/>
      </g>
     </g>
     <g id="text_1">
      <!-- $0.6$ -->
      <g transform="translate(96.341006 316.520979) scale(0.28 -0.28)">
       <defs>
        <path id="Cmr10-30" d="M 1600 -141 
Q 816 -141 533 504 
Q 250 1150 250 2041 
Q 250 2597 351 3087 
Q 453 3578 754 3920 
Q 1056 4263 1600 4263 
Q 2022 4263 2290 4056 
Q 2559 3850 2700 3523 
Q 2841 3197 2892 2823 
Q 2944 2450 2944 2041 
Q 2944 1491 2842 1011 
Q 2741 531 2444 195 
Q 2147 -141 1600 -141 
z
M 1600 25 
Q 1956 25 2131 390 
Q 2306 756 2347 1200 
Q 2388 1644 2388 2144 
Q 2388 2625 2347 3031 
Q 2306 3438 2132 3767 
Q 1959 4097 1600 4097 
Q 1238 4097 1063 3765 
Q 888 3434 847 3029 
Q 806 2625 806 2144 
Q 806 1788 823 1472 
Q 841 1156 916 820 
Q 991 484 1158 254 
Q 1325 25 1600 25 
z
" transform="scale(0.015625)"/>
        <path id="Cmmi10-3a" d="M 538 353 
Q 538 497 644 600 
Q 750 703 891 703 
Q 978 703 1062 656 
Q 1147 609 1194 525 
Q 1241 441 1241 353 
Q 1241 213 1137 106 
Q 1034 0 891 0 
Q 750 0 644 106 
Q 538 213 538 353 
z
" transform="scale(0.015625)"/>
        <path id="Cmr10-36" d="M 1600 -141 
Q 1203 -141 937 70 
Q 672 281 526 617 
Q 381 953 325 1322 
Q 269 1691 269 2069 
Q 269 2575 466 3084 
Q 663 3594 1045 3928 
Q 1428 4263 1953 4263 
Q 2172 4263 2361 4180 
Q 2550 4097 2658 3936 
Q 2766 3775 2766 3547 
Q 2766 3416 2677 3327 
Q 2588 3238 2456 3238 
Q 2331 3238 2240 3328 
Q 2150 3419 2150 3547 
Q 2150 3672 2240 3762 
Q 2331 3853 2456 3853 
L 2491 3853 
Q 2409 3969 2261 4023 
Q 2113 4078 1953 4078 
Q 1759 4078 1595 3993 
Q 1431 3909 1300 3765 
Q 1169 3622 1081 3448 
Q 994 3275 945 3053 
Q 897 2831 884 2637 
Q 872 2444 872 2150 
Q 984 2413 1190 2580 
Q 1397 2747 1656 2747 
Q 1941 2747 2175 2631 
Q 2409 2516 2578 2311 
Q 2747 2106 2836 1843 
Q 2925 1581 2925 1313 
Q 2925 938 2758 598 
Q 2591 259 2287 59 
Q 1984 -141 1600 -141 
z
M 1600 63 
Q 1847 63 1997 175 
Q 2147 288 2217 473 
Q 2288 659 2305 848 
Q 2322 1038 2322 1313 
Q 2322 1675 2287 1931 
Q 2253 2188 2100 2383 
Q 1947 2578 1631 2578 
Q 1372 2578 1205 2403 
Q 1038 2228 961 1961 
Q 884 1694 884 1447 
Q 884 1363 891 1319 
Q 891 1309 889 1303 
Q 888 1297 884 1288 
Q 884 1013 940 731 
Q 997 450 1156 256 
Q 1316 63 1600 63 
z
" transform="scale(0.015625)"/>
       </defs>
       <use xlink:href="#Cmr10-30" transform="translate(0 0.390625)"/>
       <use xlink:href="#Cmmi10-3a" transform="translate(50 0.390625)"/>
       <use xlink:href="#Cmr10-36" transform="translate(77.685547 0.390625)"/>
      </g>
     </g>
    </g>
    <g id="xtick_2">
     <g id="line2d_3">
      <g>
       <use xlink:href="#m4fdda7b739" x="257.945064" y="291.745354" style="stroke: #000000"/>
      </g>
     </g>
     <g id="text_2">
      <!-- $0.8$ -->
      <g transform="translate(240.025064 316.520979) scale(0.28 -0.28)">
       <defs>
        <path id="Cmr10-38" d="M 269 972 
Q 269 1356 522 1651 
Q 775 1947 1172 2144 
L 934 2297 
Q 716 2441 578 2680 
Q 441 2919 441 3181 
Q 441 3488 602 3734 
Q 763 3981 1030 4122 
Q 1297 4263 1600 4263 
Q 1884 4263 2148 4147 
Q 2413 4031 2583 3815 
Q 2753 3600 2753 3303 
Q 2753 3088 2651 2903 
Q 2550 2719 2373 2572 
Q 2197 2425 1997 2322 
L 2363 2088 
Q 2616 1922 2770 1653 
Q 2925 1384 2925 1088 
Q 2925 741 2739 456 
Q 2553 172 2247 15 
Q 1941 -141 1600 -141 
Q 1269 -141 961 -6 
Q 653 128 461 383 
Q 269 638 269 972 
z
M 616 972 
Q 616 719 755 509 
Q 894 300 1122 181 
Q 1350 63 1600 63 
Q 1972 63 2275 280 
Q 2578 497 2578 856 
Q 2578 978 2529 1098 
Q 2481 1219 2395 1317 
Q 2309 1416 2203 1478 
L 1344 2034 
Q 1144 1928 976 1765 
Q 809 1603 712 1400 
Q 616 1197 616 972 
z
M 1056 2925 
L 1831 2425 
Q 2100 2581 2272 2803 
Q 2444 3025 2444 3303 
Q 2444 3519 2323 3698 
Q 2203 3878 2009 3978 
Q 1816 4078 1594 4078 
Q 1400 4078 1203 4003 
Q 1006 3928 878 3779 
Q 750 3631 750 3431 
Q 750 3131 1056 2925 
z
" transform="scale(0.015625)"/>
       </defs>
       <use xlink:href="#Cmr10-30" transform="translate(0 0.390625)"/>
       <use xlink:href="#Cmmi10-3a" transform="translate(50 0.390625)"/>
       <use xlink:href="#Cmr10-38" transform="translate(77.685547 0.390625)"/>
      </g>
     </g>
    </g>
    <g id="xtick_3">
     <g id="line2d_4">
      <g>
       <use xlink:href="#m4fdda7b739" x="401.629122" y="291.745354" style="stroke: #000000"/>
      </g>
     </g>
     <g id="text_3">
      <!-- $1.0$ -->
      <g transform="translate(383.709122 316.520979) scale(0.28 -0.28)">
       <defs>
        <path id="Cmr10-31" d="M 594 0 
L 594 225 
Q 1394 225 1394 428 
L 1394 3788 
Q 1063 3628 556 3628 
L 556 3853 
Q 1341 3853 1741 4263 
L 1831 4263 
Q 1853 4263 1873 4245 
Q 1894 4228 1894 4206 
L 1894 428 
Q 1894 225 2694 225 
L 2694 0 
L 594 0 
z
" transform="scale(0.015625)"/>
       </defs>
       <use xlink:href="#Cmr10-31" transform="translate(0 0.390625)"/>
       <use xlink:href="#Cmmi10-3a" transform="translate(50 0.390625)"/>
       <use xlink:href="#Cmr10-30" transform="translate(77.685547 0.390625)"/>
      </g>
     </g>
    </g>
    <g id="xtick_4">
     <g id="line2d_5">
      <g>
       <use xlink:href="#m4fdda7b739" x="545.31318" y="291.745354" style="stroke: #000000"/>
      </g>
     </g>
     <g id="text_4">
      <!-- $1.2$ -->
      <g transform="translate(527.39318 316.520979) scale(0.28 -0.28)">
       <defs>
        <path id="Cmr10-32" d="M 319 0 
L 319 172 
Q 319 188 331 206 
L 1325 1306 
Q 1550 1550 1690 1715 
Q 1831 1881 1968 2097 
Q 2106 2313 2186 2536 
Q 2266 2759 2266 3009 
Q 2266 3272 2169 3511 
Q 2072 3750 1880 3894 
Q 1688 4038 1416 4038 
Q 1138 4038 916 3870 
Q 694 3703 603 3438 
Q 628 3444 672 3444 
Q 816 3444 917 3347 
Q 1019 3250 1019 3097 
Q 1019 2950 917 2848 
Q 816 2747 672 2747 
Q 522 2747 420 2851 
Q 319 2956 319 3097 
Q 319 3338 409 3548 
Q 500 3759 670 3923 
Q 841 4088 1055 4175 
Q 1269 4263 1509 4263 
Q 1875 4263 2190 4108 
Q 2506 3953 2690 3670 
Q 2875 3388 2875 3009 
Q 2875 2731 2753 2481 
Q 2631 2231 2440 2026 
Q 2250 1822 1953 1562 
Q 1656 1303 1563 1216 
L 838 519 
L 1453 519 
Q 1906 519 2211 526 
Q 2516 534 2534 550 
Q 2609 631 2688 1141 
L 2875 1141 
L 2694 0 
L 319 0 
z
" transform="scale(0.015625)"/>
       </defs>
       <use xlink:href="#Cmr10-31" transform="translate(0 0.390625)"/>
       <use xlink:href="#Cmmi10-3a" transform="translate(50 0.390625)"/>
       <use xlink:href="#Cmr10-32" transform="translate(77.685547 0.390625)"/>
      </g>
     </g>
    </g>
    <g id="xtick_5">
     <g id="line2d_6">
      <g>
       <use xlink:href="#m4fdda7b739" x="688.997238" y="291.745354" style="stroke: #000000"/>
      </g>
     </g>
     <g id="text_5">
      <!-- $1.4$ -->
      <g transform="translate(671.077238 316.520979) scale(0.28 -0.28)">
       <defs>
        <path id="Cmr10-34" d="M 178 1056 
L 178 1281 
L 2156 4231 
Q 2178 4263 2222 4263 
L 2316 4263 
Q 2388 4263 2388 4191 
L 2388 1281 
L 3016 1281 
L 3016 1056 
L 2388 1056 
L 2388 428 
Q 2388 297 2575 261 
Q 2763 225 3009 225 
L 3009 0 
L 1247 0 
L 1247 225 
Q 1494 225 1681 261 
Q 1869 297 1869 428 
L 1869 1056 
L 178 1056 
z
M 391 1281 
L 1906 1281 
L 1906 3547 
L 391 1281 
z
" transform="scale(0.015625)"/>
       </defs>
       <use xlink:href="#Cmr10-31" transform="translate(0 0.390625)"/>
       <use xlink:href="#Cmmi10-3a" transform="translate(50 0.390625)"/>
       <use xlink:href="#Cmr10-34" transform="translate(77.685547 0.390625)"/>
      </g>
     </g>
    </g>
    <g id="xtick_6">
     <g id="line2d_7">
      <g>
       <use xlink:href="#m4fdda7b739" x="832.681296" y="291.745354" style="stroke: #000000"/>
      </g>
     </g>
     <g id="text_6">
      <!-- $1.6$ -->
      <g transform="translate(814.761296 316.520979) scale(0.28 -0.28)">
       <use xlink:href="#Cmr10-31" transform="translate(0 0.390625)"/>
       <use xlink:href="#Cmmi10-3a" transform="translate(50 0.390625)"/>
       <use xlink:href="#Cmr10-36" transform="translate(77.685547 0.390625)"/>
      </g>
     </g>
    </g>
   </g>
   <g id="matplotlib.axis_2">
    <g id="ytick_1">
     <g id="line2d_8">
      <defs>
       <path id="m2745fcac66" d="M 0 0 
L 5 0 
" style="stroke: #000000"/>
      </defs>
      <g>
       <use xlink:href="#m2745fcac66" x="42.418977" y="290.754083" style="stroke: #000000"/>
      </g>
     </g>
     <g id="text_7">
      <!-- $0.0$ -->
      <g transform="translate(3.078977 301.391896) scale(0.28 -0.28)">
       <use xlink:href="#Cmr10-30" transform="translate(0 0.390625)"/>
       <use xlink:href="#Cmmi10-3a" transform="translate(50 0.390625)"/>
       <use xlink:href="#Cmr10-30" transform="translate(77.685547 0.390625)"/>
      </g>
     </g>
    </g>
    <g id="ytick_2">
     <g id="line2d_9">
      <g>
       <use xlink:href="#m2745fcac66" x="42.418977" y="221.719135" style="stroke: #000000"/>
      </g>
     </g>
     <g id="text_8">
      <!-- $0.5$ -->
      <g transform="translate(3.078977 232.356947) scale(0.28 -0.28)">
       <defs>
        <path id="Cmr10-35" d="M 556 728 
Q 622 541 758 387 
Q 894 234 1080 148 
Q 1266 63 1466 63 
Q 1928 63 2103 422 
Q 2278 781 2278 1294 
Q 2278 1516 2270 1667 
Q 2263 1819 2228 1959 
Q 2169 2184 2020 2353 
Q 1872 2522 1656 2522 
Q 1441 2522 1286 2456 
Q 1131 2391 1034 2303 
Q 938 2216 863 2119 
Q 788 2022 769 2016 
L 697 2016 
Q 681 2016 657 2036 
Q 634 2056 634 2075 
L 634 4213 
Q 634 4228 654 4245 
Q 675 4263 697 4263 
L 716 4263 
Q 1147 4056 1631 4056 
Q 2106 4056 2547 4263 
L 2566 4263 
Q 2588 4263 2606 4247 
Q 2625 4231 2625 4213 
L 2625 4153 
Q 2625 4122 2613 4122 
Q 2394 3831 2064 3668 
Q 1734 3506 1381 3506 
Q 1125 3506 856 3578 
L 856 2369 
Q 1069 2541 1236 2614 
Q 1403 2688 1663 2688 
Q 2016 2688 2295 2484 
Q 2575 2281 2725 1954 
Q 2875 1628 2875 1288 
Q 2875 903 2686 575 
Q 2497 247 2172 53 
Q 1847 -141 1466 -141 
Q 1150 -141 886 21 
Q 622 184 470 459 
Q 319 734 319 1044 
Q 319 1188 412 1278 
Q 506 1369 647 1369 
Q 788 1369 883 1276 
Q 978 1184 978 1044 
Q 978 906 883 811 
Q 788 716 647 716 
Q 625 716 597 720 
Q 569 725 556 728 
z
" transform="scale(0.015625)"/>
       </defs>
       <use xlink:href="#Cmr10-30" transform="translate(0 0.390625)"/>
       <use xlink:href="#Cmmi10-3a" transform="translate(50 0.390625)"/>
       <use xlink:href="#Cmr10-35" transform="translate(77.685547 0.390625)"/>
      </g>
     </g>
    </g>
    <g id="ytick_3">
     <g id="line2d_10">
      <g>
       <use xlink:href="#m2745fcac66" x="42.418977" y="152.684186" style="stroke: #000000"/>
      </g>
     </g>
     <g id="text_9">
      <!-- $1.0$ -->
      <g transform="translate(3.078977 163.321998) scale(0.28 -0.28)">
       <use xlink:href="#Cmr10-31" transform="translate(0 0.390625)"/>
       <use xlink:href="#Cmmi10-3a" transform="translate(50 0.390625)"/>
       <use xlink:href="#Cmr10-30" transform="translate(77.685547 0.390625)"/>
      </g>
     </g>
    </g>
    <g id="ytick_4">
     <g id="line2d_11">
      <g>
       <use xlink:href="#m2745fcac66" x="42.418977" y="83.649237" style="stroke: #000000"/>
      </g>
     </g>
     <g id="text_10">
      <!-- $1.5$ -->
      <g transform="translate(3.078977 94.28705) scale(0.28 -0.28)">
       <use xlink:href="#Cmr10-31" transform="translate(0 0.390625)"/>
       <use xlink:href="#Cmmi10-3a" transform="translate(50 0.390625)"/>
       <use xlink:href="#Cmr10-35" transform="translate(77.685547 0.390625)"/>
      </g>
     </g>
    </g>
    <g id="ytick_5">
     <g id="line2d_12">
      <g>
       <use xlink:href="#m2745fcac66" x="42.418977" y="14.614288" style="stroke: #000000"/>
      </g>
     </g>
     <g id="text_11">
      <!-- $2.0$ -->
      <g transform="translate(3.078977 25.252101) scale(0.28 -0.28)">
       <use xlink:href="#Cmr10-32" transform="translate(0 0.390625)"/>
       <use xlink:href="#Cmmi10-3a" transform="translate(50 0.390625)"/>
       <use xlink:href="#Cmr10-30" transform="translate(77.685547 0.390625)"/>
      </g>
     </g>
    </g>
   </g>
   <g id="line2d_13">
    <path d="M 42.418977 127.902409 
L 74.624024 127.902409 
L 106.829072 134.982917 
L 139.034119 134.982917 
L 171.239167 142.063425 
L 203.444214 156.22444 
L 235.649262 170.385455 
L 267.854309 184.54647 
L 300.059357 212.8685 
L 332.264404 241.19053 
L 364.469452 262.432053 
L 396.674499 283.673576 
L 428.879547 269.512561 
L 461.084594 248.271038 
L 493.289642 227.029515 
L 525.494689 212.8685 
L 557.699737 198.707485 
L 589.904784 184.54647 
L 622.109832 170.385455 
L 654.314879 156.22444 
L 686.519927 142.063425 
L 718.724974 134.982917 
L 750.930022 127.902409 
L 783.135069 113.741394 
L 815.340117 106.660887 
L 847.545164 99.580379 
L 879.750212 92.499872 
L 911.955259 85.419364 
L 944.160307 78.338856 
L 976.365354 71.258349 
" clip-path="url(#p38aa722852)" style="fill: none; stroke: #00a98d; stroke-width: 6"/>
   </g>
   <g id="PolyCollection_2">
    <defs>
     <path id="m04b43f3d49" d="M 42.418977 -197.537591 
L 42.418977 -310.825712 
L 74.624024 -310.825712 
L 106.829072 -310.825712 
L 139.034119 -310.825712 
L 171.239167 -310.825712 
L 203.444214 -310.825712 
L 235.649262 -310.825712 
L 267.854309 -310.825712 
L 300.059357 -310.825712 
L 332.264404 -310.825712 
L 364.469452 -310.825712 
L 396.674499 -310.825712 
L 428.879547 -310.825712 
L 461.084594 -310.825712 
L 493.289642 -310.825712 
L 525.494689 -310.825712 
L 557.699737 -310.825712 
L 589.904784 -310.825712 
L 622.109832 -310.825712 
L 654.314879 -310.825712 
L 686.519927 -310.825712 
L 718.724974 -310.825712 
L 750.930022 -310.825712 
L 783.135069 -310.825712 
L 815.340117 -310.825712 
L 847.545164 -310.825712 
L 879.750212 -310.825712 
L 911.955259 -310.825712 
L 944.160307 -310.825712 
L 976.365354 -310.825712 
L 976.365354 -254.181651 
L 976.365354 -254.181651 
L 944.160307 -247.101144 
L 911.955259 -240.020636 
L 879.750212 -232.940128 
L 847.545164 -225.859621 
L 815.340117 -218.779113 
L 783.135069 -211.698606 
L 750.930022 -197.537591 
L 718.724974 -190.457083 
L 686.519927 -183.376575 
L 654.314879 -169.21556 
L 622.109832 -155.054545 
L 589.904784 -140.89353 
L 557.699737 -126.732515 
L 525.494689 -112.5715 
L 493.289642 -98.410485 
L 461.084594 -77.168962 
L 428.879547 -55.927439 
L 396.674499 -41.766424 
L 364.469452 -63.007947 
L 332.264404 -84.24947 
L 300.059357 -112.5715 
L 267.854309 -140.89353 
L 235.649262 -155.054545 
L 203.444214 -169.21556 
L 171.239167 -183.376575 
L 139.034119 -190.457083 
L 106.829072 -190.457083 
L 74.624024 -197.537591 
L 42.418977 -197.537591 
z
"/>
    </defs>
    <g clip-path="url(#p38aa722852)">
     <use xlink:href="#m04b43f3d49" x="0" y="325.44" style="fill: #00a98d; fill-opacity: 0.2"/>
    </g>
   </g>
   <g id="patch_3">
    <path d="M 42.418977 291.745354 
L 42.418977 6.54251 
" style="fill: none; stroke: #000000; stroke-width: 2; stroke-linejoin: miter; stroke-linecap: square"/>
   </g>
   <g id="patch_4">
    <path d="M 42.418977 291.745354 
L 976.365354 291.745354 
" style="fill: none; stroke: #000000; stroke-width: 2; stroke-linejoin: miter; stroke-linecap: square"/>
   </g>
   <g id="line2d_14">
    <path d="M 235.649262 28.775304 
L 267.854309 85.419364 
L 300.059357 142.063425 
L 332.264404 191.626977 
L 364.469452 241.19053 
L 396.674499 283.673576 
L 428.879547 255.351545 
L 461.084594 219.949008 
L 493.289642 191.626977 
L 525.494689 156.22444 
L 557.699737 134.982917 
L 589.904784 106.660887 
L 622.109832 85.419364 
L 654.314879 57.097334 
L 686.519927 42.936319 
L 718.724974 21.694796 
" clip-path="url(#p38aa722852)" style="fill: none; stroke-dasharray: 22.2,9.6; stroke-dashoffset: 0; stroke: #000000; stroke-width: 6"/>
   </g>
   <g id="PathCollection_1">
    <defs>
     <path id="mbdd9a37279" d="M -2 2 
L 2 2 
L 2 -2 
L -2 -2 
z
" style="stroke: #000000; stroke-width: 2"/>
    </defs>
    <g clip-path="url(#p38aa722852)">
     <use xlink:href="#mbdd9a37279" x="114.261006" y="111.263217" style="stroke: #000000; stroke-width: 2"/>
    </g>
   </g>
  </g>
 </g>
 <defs>
  <clipPath id="p38aa722852">
   <rect x="42.418977" y="6.54251" width="933.946378" height="285.202845"/>
  </clipPath>
 </defs>
</svg>
