<?xml version="1.0" encoding="utf-8" standalone="no"?>
<!DOCTYPE svg PUBLIC "-//W3C//DTD SVG 1.1//EN"
  "http://www.w3.org/Graphics/SVG/1.1/DTD/svg11.dtd">
<svg xmlns:xlink="http://www.w3.org/1999/xlink" width="478.08pt" height="141.12pt" viewBox="0 0 478.08 141.12" xmlns="http://www.w3.org/2000/svg" version="1.1">
 <metadata>
  <rdf:RDF xmlns:dc="http://purl.org/dc/elements/1.1/" xmlns:cc="http://creativecommons.org/ns#" xmlns:rdf="http://www.w3.org/1999/02/22-rdf-syntax-ns#">
   <cc:Work>
    <dc:type rdf:resource="http://purl.org/dc/dcmitype/StillImage"/>
    <dc:date>2024-04-26T17:51:04.826323</dc:date>
    <dc:format>image/svg+xml</dc:format>
    <dc:creator>
     <cc:Agent>
      <dc:title>Matplotlib v3.7.0, https://matplotlib.org/</dc:title>
     </cc:Agent>
    </dc:creator>
   </cc:Work>
  </rdf:RDF>
 </metadata>
 <defs>
  <style type="text/css">*{stroke-linejoin: round; stroke-linecap: butt}</style>
 </defs>
 <g id="figure_1">
  <g id="patch_1">
   <path d="M 0 141.12 
L 478.08 141.12 
L 478.08 0 
L 0 0 
L 0 141.12 
z
" style="fill: none"/>
  </g>
  <g id="axes_1">
   <g id="patch_2">
    <path d="M 2.834646 138.285354 
L 475.245354 138.285354 
L 475.245354 2.834646 
L 2.834646 2.834646 
L 2.834646 138.285354 
z
" style="fill: none"/>
   </g>
   <g id="line2d_1">
    <path d="M 16.20476 50.674576 
L 17.140762 54.050622 
L 18.076763 58.275248 
L 19.012765 63.521592 
L 20.082481 70.803417 
L 21.419626 81.515941 
L 25.163633 112.674094 
L 26.233349 119.411435 
L 27.16935 124.011989 
L 27.971637 127.004543 
L 28.773925 129.210962 
L 29.576212 130.766467 
L 30.378499 131.824418 
L 31.180786 132.534539 
L 32.250502 133.162316 
L 34.25622 134.003195 
L 35.593365 134.409851 
L 36.395652 134.424692 
L 37.064224 134.175451 
L 37.599083 133.735569 
L 38.133941 133.03174 
L 38.802513 131.723336 
L 39.471086 129.894287 
L 40.273373 126.996563 
L 41.209374 122.72381 
L 42.54652 115.414883 
L 45.087095 101.258242 
L 46.156812 96.647244 
L 47.092813 93.63992 
L 47.8951 91.788478 
L 48.831102 90.23567 
L 50.703105 87.380963 
L 51.505392 85.536358 
L 52.307679 83.008729 
L 53.109966 79.709145 
L 54.045968 74.912798 
L 55.383113 66.681384 
L 58.725976 45.225687 
L 59.795692 39.984656 
L 60.731694 36.434069 
L 61.533981 34.15294 
L 62.336268 32.504706 
L 63.138555 31.385897 
L 63.940842 30.675187 
L 64.876844 30.188028 
L 67.417419 29.114401 
L 68.353421 28.36663 
L 71.161426 25.833025 
L 71.696284 25.677995 
L 71.963713 25.705231 
L 72.231142 25.964352 
L 72.632286 26.833197 
L 73.033429 28.272835 
L 73.568287 31.053057 
L 74.23686 35.820314 
L 75.039147 43.191229 
L 76.242577 56.735294 
L 79.986584 101.228279 
L 81.0563 110.764208 
L 81.992302 117.388243 
L 82.928303 122.512996 
L 83.864305 126.367177 
L 84.800306 129.227759 
L 85.736308 131.350934 
L 86.67231 132.913016 
L 87.474597 133.851021 
L 88.143169 134.321445 
L 88.678027 134.451785 
L 89.212885 134.316398 
L 89.747744 133.863774 
L 90.282602 133.039076 
L 90.81746 131.788718 
L 91.486032 129.555581 
L 92.154605 126.514798 
L 92.956892 121.757791 
L 93.892894 114.728915 
L 95.096324 103.714996 
L 97.235756 81.330059 
L 98.974045 64.123224 
L 100.177476 54.295966 
L 101.247192 47.389195 
L 102.183193 42.736639 
L 103.119195 39.20841 
L 104.055197 36.548965 
L 105.124913 34.200828 
L 106.996916 30.771273 
L 109.136348 27.143655 
L 109.938635 26.167526 
L 110.473493 25.78056 
L 110.874637 25.672643 
L 111.142066 25.774037 
L 111.409495 26.173714 
L 111.810639 27.343259 
L 112.345497 29.961272 
L 112.880355 33.754269 
L 113.548927 40.034058 
L 114.484929 51.284316 
L 115.822074 70.726004 
L 118.36265 108.226938 
L 119.432366 120.344278 
L 120.234653 127.081593 
L 120.903226 131.019429 
L 121.438084 133.071606 
L 121.839227 133.993584 
L 122.240371 134.415598 
L 122.5078 134.435773 
L 122.775229 134.260398 
L 123.176372 133.658364 
L 123.71123 132.29405 
L 124.379803 129.844548 
L 125.315805 125.412149 
L 126.786664 117.180209 
L 129.594669 100.091127 
L 131.199243 89.044348 
L 132.670103 77.279808 
L 134.542106 60.279869 
L 136.681538 41.240583 
L 137.751255 33.68313 
L 138.553542 29.483729 
L 139.222114 27.125314 
L 139.756972 26.037891 
L 140.158116 25.696015 
L 140.425545 25.719716 
L 140.692974 26.13556 
L 141.094117 27.542044 
L 141.495261 29.848649 
L 142.030119 34.218592 
L 142.698692 41.496015 
L 143.634693 54.268863 
L 145.90784 89.960182 
L 147.244985 108.528456 
L 148.180987 118.781832 
L 148.983274 125.45983 
L 149.651846 129.52391 
L 150.320419 132.29605 
L 150.855277 133.660071 
L 151.256421 134.230732 
L 151.657564 134.447872 
L 152.058708 134.341628 
L 152.459851 133.940198 
L 152.994709 132.988904 
L 153.663282 131.198245 
L 154.465569 128.250208 
L 155.401571 123.765609 
L 156.337572 118.134519 
L 157.407288 110.204711 
L 158.610719 99.312946 
L 159.947864 84.99423 
L 164.093014 38.710096 
L 164.895301 32.612457 
L 165.563874 28.906233 
L 166.098732 26.930596 
L 166.499875 26.048192 
L 166.901019 25.682988 
L 167.168448 25.775122 
L 167.435877 26.301688 
L 167.837021 27.912747 
L 168.371879 31.528901 
L 169.040451 38.194767 
L 169.842738 48.796889 
L 171.046169 68.153599 
L 173.319316 105.422323 
L 174.255317 117.492061 
L 175.057604 125.366167 
L 175.726177 130.036886 
L 176.261035 132.536859 
L 176.795893 133.98439 
L 177.197037 134.422098 
L 177.464466 134.425941 
L 177.731895 134.213677 
L 178.133038 133.518329 
L 178.667896 131.956926 
L 179.336469 129.132025 
L 180.138756 124.707397 
L 181.208472 117.478874 
L 182.545617 106.861408 
L 184.150191 92.223808 
L 186.022195 72.93468 
L 188.963914 42.355445 
L 190.03363 33.74527 
L 190.835917 29.082594 
L 191.370775 27.020441 
L 191.771919 26.079444 
L 192.173062 25.68382 
L 192.440491 25.771349 
L 192.70792 26.282298 
L 193.109064 27.857592 
L 193.643922 31.432394 
L 194.312495 38.122311 
L 195.114782 48.971258 
L 196.184498 66.88064 
L 198.858788 113.354479 
L 199.661075 123.492999 
L 200.329648 129.565963 
L 200.864506 132.703352 
L 201.265649 134.020107 
L 201.533078 134.405239 
L 201.800507 134.402421 
L 202.067936 134.020748 
L 202.46908 132.765365 
L 203.003938 129.902568 
L 203.672511 124.641634 
L 204.474798 116.354958 
L 205.678228 101.35831 
L 208.619948 63.892265 
L 209.823378 51.676665 
L 210.893095 42.904458 
L 211.962811 36.013456 
L 212.898812 31.416383 
L 213.701099 28.503943 
L 214.369672 26.82192 
L 214.90453 25.99726 
L 215.305674 25.705887 
L 215.573103 25.682279 
L 215.840532 25.886663 
L 216.241675 26.687647 
L 216.642819 28.092507 
L 217.177677 30.916572 
L 217.846249 35.970363 
L 218.648536 44.186967 
L 219.584538 56.418538 
L 220.921683 77.422341 
L 223.19483 113.703391 
L 224.130832 124.940366 
L 224.799404 130.542205 
L 225.334262 133.307655 
L 225.735406 134.306417 
L 226.002835 134.44557 
L 226.270264 134.160387 
L 226.537693 133.452664 
L 226.938836 131.612207 
L 227.473694 127.763505 
L 228.142267 120.906707 
L 228.944554 110.178758 
L 230.147985 90.723135 
L 232.421131 53.247525 
L 233.357133 41.162617 
L 234.15942 33.409314 
L 234.827993 28.983388 
L 235.362851 26.79496 
L 235.763994 25.921155 
L 236.031423 25.688973 
L 236.298852 25.753176 
L 236.566281 26.205562 
L 236.967425 27.59227 
L 237.502283 30.654625 
L 238.170856 36.165737 
L 239.106857 46.293617 
L 240.577717 65.43013 
L 243.118293 98.681739 
L 244.455438 113.165295 
L 245.525154 122.459305 
L 246.461156 128.627584 
L 247.129728 131.76824 
L 247.664586 133.446353 
L 248.06573 134.184016 
L 248.466873 134.451204 
L 248.734302 134.357907 
L 249.001731 134.041044 
L 249.402875 133.136138 
L 249.937733 131.10836 
L 250.472591 128.127079 
L 251.141164 123.065256 
L 251.943451 115.115938 
L 252.879452 103.55477 
L 254.216597 83.994729 
L 256.757173 46.386216 
L 257.693175 35.935727 
L 258.361747 30.498092 
L 258.896606 27.559755 
L 259.297749 26.235733 
L 259.565178 25.783461 
L 259.832607 25.681556 
L 260.100036 26.035832 
L 260.367465 26.890507 
L 260.768609 29.081714 
L 261.303467 33.599891 
L 261.972039 41.522173 
L 262.908041 55.926521 
L 264.64633 87.521306 
L 265.983475 110.185758 
L 266.919476 122.535626 
L 267.588049 128.874725 
L 268.122907 132.265848 
L 268.524051 133.787575 
L 268.79148 134.312011 
L 269.058909 134.447611 
L 269.326338 134.200795 
L 269.593767 133.581099 
L 269.99491 131.98046 
L 270.529768 128.679955 
L 271.198341 122.908693 
L 272.134343 112.431691 
L 273.605202 92.796009 
L 275.744634 64.384234 
L 276.948065 51.07747 
L 278.017781 41.506088 
L 278.953783 34.952185 
L 279.75607 30.690482 
L 280.424643 28.105552 
L 280.959501 26.687922 
L 281.494359 25.871889 
L 281.895502 25.671986 
L 282.162931 25.791673 
L 282.43036 26.192482 
L 282.831504 27.322261 
L 283.366362 29.810035 
L 283.90122 33.398058 
L 284.569792 39.361929 
L 285.37208 48.498188 
L 286.441796 63.426354 
L 288.581228 97.68999 
L 289.918373 117.039206 
L 290.72066 125.945126 
L 291.389233 131.151223 
L 291.924091 133.620574 
L 292.325234 134.401993 
L 292.592663 134.394989 
L 292.860092 133.960258 
L 293.261236 132.50677 
L 293.66238 130.107421 
L 294.197238 125.502685 
L 294.86581 117.695768 
L 295.801812 103.683154 
L 297.406386 75.306534 
L 298.877246 50.636455 
L 299.813247 38.368195 
L 300.48182 31.957174 
L 301.016678 28.410587 
L 301.551536 26.319563 
L 301.95268 25.701603 
L 302.086394 25.673635 
L 302.353823 25.972356 
L 302.621252 26.765066 
L 303.022396 28.835133 
L 303.557254 33.103687 
L 304.225826 40.513575 
L 305.161828 53.759063 
L 309.039549 112.919347 
L 309.97555 122.496468 
L 310.777838 128.459534 
L 311.44641 131.838403 
L 311.981268 133.529087 
L 312.382412 134.22674 
L 312.649841 134.428364 
L 312.91727 134.424393 
L 313.184699 134.219228 
L 313.585842 133.543586 
L 314.1207 131.977228 
L 314.655558 129.677802 
L 315.324131 125.814815 
L 316.126418 119.798863 
L 317.06242 111.008851 
L 318.26585 97.267309 
L 319.870425 76.018699 
L 322.143571 46.106565 
L 323.079573 36.352415 
L 323.88186 30.18822 
L 324.416718 27.455802 
L 324.817862 26.208938 
L 325.085291 25.778909 
L 325.35272 25.680958 
L 325.620149 26.022173 
L 325.887578 26.849562 
L 326.288721 28.981066 
L 326.823579 33.404146 
L 327.492152 41.223149 
L 328.294439 53.345769 
L 329.631584 77.538595 
L 331.503587 110.84756 
L 332.439589 123.440238 
L 333.108162 129.748394 
L 333.64302 132.935847 
L 334.044163 134.178203 
L 334.311592 134.449291 
L 334.579021 134.274397 
L 334.84645 133.657641 
L 335.247594 131.922382 
L 335.782452 128.167097 
L 336.451024 121.375005 
L 337.253312 110.687259 
L 338.456742 91.303568 
L 340.729889 54.182535 
L 341.665891 42.222078 
L 342.468178 34.45178 
L 343.13675 29.869503 
L 343.671608 27.440591 
L 344.072752 26.313961 
L 344.473895 25.7522 
L 344.741324 25.676371 
L 345.008753 25.913302 
L 345.276182 26.494632 
L 345.677326 27.97221 
L 346.212184 30.967607 
L 346.880757 36.120679 
L 347.816758 45.365061 
L 349.153903 61.155632 
L 353.432768 113.42153 
L 354.502484 123.414898 
L 355.304771 129.156461 
L 355.973344 132.477702 
L 356.508202 134.01429 
L 356.775631 134.372397 
L 357.04306 134.44137 
L 357.310489 134.211171 
L 357.577918 133.673458 
L 357.979061 132.276913 
L 358.51392 129.297905 
L 359.182492 123.796539 
L 359.984779 114.75222 
L 360.920781 101.380026 
L 362.525355 74.438207 
L 364.129929 48.527699 
L 365.065931 36.776576 
L 365.734503 30.734926 
L 366.269361 27.540394 
L 366.670505 26.16104 
L 366.937934 25.736111 
L 367.205363 25.724698 
L 367.472792 26.251196 
L 367.873936 28.070206 
L 368.275079 31.061792 
L 368.809937 36.71064 
L 369.612224 48.153962 
L 370.68194 67.129266 
L 373.088802 110.72457 
L 374.024803 123.096618 
L 374.693376 129.312282 
L 375.228234 132.551046 
L 375.629377 133.942414 
L 375.896807 134.37745 
L 376.164236 134.424488 
L 376.431665 134.091993 
L 376.832808 132.906766 
L 377.233952 130.941398 
L 377.76881 127.210767 
L 378.437382 120.998811 
L 379.373384 110.073623 
L 380.977958 88.135829 
L 382.983676 61.336746 
L 384.187106 48.057601 
L 385.256823 38.691886 
L 386.192824 32.511578 
L 386.995111 28.749982 
L 387.663684 26.728556 
L 388.198542 25.865033 
L 388.599685 25.671613 
L 388.867115 25.827915 
L 389.134544 26.283886 
L 389.535687 27.525068 
L 390.070545 30.201038 
L 390.739118 35.123082 
L 391.541405 43.166105 
L 392.477406 55.071428 
L 393.814552 75.354347 
L 396.355127 114.428836 
L 397.291129 125.158335 
L 397.959702 130.564091 
L 398.49456 133.276344 
L 398.895703 134.285698 
L 399.163132 134.449633 
L 399.430561 134.198398 
L 399.69799 133.528946 
L 400.099134 131.742716 
L 400.633992 127.932941 
L 401.302564 121.017347 
L 402.104852 109.990139 
L 403.308282 89.580183 
L 405.581429 49.827743 
L 406.517431 37.462367 
L 407.186003 31.133059 
L 407.720861 27.770858 
L 408.122005 26.283211 
L 408.389434 25.786555 
L 408.656863 25.686487 
L 408.924292 26.093922 
L 409.191721 27.045252 
L 409.592864 29.442953 
L 410.127722 34.300417 
L 410.796295 42.642789 
L 411.732297 57.401246 
L 415.07516 113.238005 
L 415.877447 122.46456 
L 416.546019 128.16902 
L 417.214592 132.016776 
L 417.74945 133.784851 
L 418.150593 134.379506 
L 418.418022 134.443617 
L 418.685451 134.253272 
L 419.086595 133.513735 
L 419.487739 132.262432 
L 420.022597 129.863512 
L 420.691169 125.815709 
L 421.627171 118.4836 
L 422.696887 108.194511 
L 424.167747 91.652165 
L 428.580326 39.799658 
L 429.516327 32.193941 
L 430.1849 28.378741 
L 430.719758 26.472677 
L 431.120901 25.774869 
L 431.38833 25.677849 
L 431.655759 25.980218 
L 431.923188 26.733909 
L 432.324332 28.696272 
L 432.85919 32.80432 
L 433.527763 40.136235 
L 434.33005 51.640096 
L 435.53348 72.575747 
L 437.672913 110.487225 
L 438.608914 123.118486 
L 439.277487 129.522589 
L 439.812345 132.808235 
L 440.213488 134.12552 
L 440.480917 134.442658 
L 440.614632 134.431695 
L 440.882061 134.071068 
L 441.14949 133.262113 
L 441.550634 131.225019 
L 442.085492 127.039162 
L 442.754064 119.660622 
L 443.556351 108.205014 
L 444.893496 85.210291 
L 446.7655 53.026475 
L 447.701501 40.347685 
L 448.503788 32.4046 
L 449.172361 28.104463 
L 449.573505 26.561352 
L 449.974648 25.783025 
L 450.242077 25.678705 
L 450.509506 26.000337 
L 450.776935 26.785916 
L 451.178079 28.784568 
L 451.712937 32.838794 
L 452.381509 39.789859 
L 453.317511 52.083099 
L 457.462661 110.556912 
L 458.398663 119.811228 
L 459.334664 126.867786 
L 460.003237 130.524129 
L 460.671809 133.004441 
L 461.206667 134.12257 
L 461.607811 134.442329 
L 461.87524 134.402456 
L 461.87524 134.402456 
" clip-path="url(#p990424ce0f)" style="fill: none; stroke: #009afa; stroke-width: 6"/>
   </g>
   <g id="matplotlib.axis_1"/>
   <g id="matplotlib.axis_2"/>
   <g id="line2d_2">
    <path d="M 16.20476 25.671551 
L 16.338475 25.778878 
L 16.605904 26.63495 
L 17.007047 29.491019 
L 17.408191 34.138578 
L 17.943049 42.82908 
L 18.745336 60.039349 
L 21.419626 121.970025 
L 21.954484 129.275373 
L 22.355628 132.743077 
L 22.623057 134.022961 
L 22.890486 134.451844 
L 23.0242 134.344517 
L 23.291629 133.488445 
L 23.692773 130.632377 
L 24.093916 125.984817 
L 24.628775 117.294315 
L 25.431062 100.084046 
L 28.105352 38.15337 
L 28.64021 30.848022 
L 29.041354 27.380318 
L 29.308783 26.100434 
L 29.576212 25.671551 
L 29.709926 25.778878 
L 29.977355 26.63495 
L 30.378499 29.491019 
L 30.779642 34.138578 
L 31.3145 42.82908 
L 32.116787 60.039349 
L 34.791078 121.970025 
L 35.325936 129.275373 
L 35.727079 132.743077 
L 35.994508 134.022961 
L 36.261937 134.451844 
L 36.395652 134.344517 
L 36.663081 133.488445 
L 37.064224 130.632377 
L 37.465368 125.984817 
L 38.000226 117.294315 
L 38.802513 100.084046 
L 41.476803 38.15337 
L 42.011662 30.848022 
L 42.412805 27.380318 
L 42.680234 26.100434 
L 42.947663 25.671551 
L 43.081378 25.778878 
L 43.348807 26.63495 
L 43.74995 29.491019 
L 44.151094 34.138578 
L 44.685952 42.82908 
L 45.488239 60.039349 
L 48.162529 121.970025 
L 48.697387 129.275373 
L 49.098531 132.743077 
L 49.36596 134.022961 
L 49.633389 134.451844 
L 49.767103 134.344517 
L 50.034532 133.488445 
L 50.435676 130.632377 
L 50.83682 125.984817 
L 51.371678 117.294315 
L 52.173965 100.084046 
L 54.848255 38.15337 
L 55.383113 30.848022 
L 55.784257 27.380318 
L 56.051686 26.100434 
L 56.319115 25.671551 
L 56.452829 25.778878 
L 56.720258 26.63495 
L 57.121402 29.491019 
L 57.522545 34.138578 
L 58.057403 42.82908 
L 58.85969 60.039349 
L 61.533981 121.970025 
L 62.068839 129.275373 
L 62.469982 132.743077 
L 62.737411 134.022961 
L 63.00484 134.451844 
L 63.138555 134.344517 
L 63.405984 133.488445 
L 63.807128 130.632377 
L 64.208271 125.984817 
L 64.743129 117.294315 
L 65.545416 100.084046 
L 68.219707 38.15337 
L 68.754565 30.848022 
L 69.155708 27.380318 
L 69.423137 26.100434 
L 69.690566 25.671551 
L 69.824281 25.778878 
L 70.09171 26.63495 
L 70.492853 29.491019 
L 70.893997 34.138578 
L 71.428855 42.82908 
L 72.231142 60.039349 
L 74.905432 121.970025 
L 75.44029 129.275373 
L 75.841434 132.743077 
L 76.108863 134.022961 
L 76.376292 134.451844 
L 76.510007 134.344517 
L 76.777436 133.488445 
L 77.178579 130.632377 
L 77.579723 125.984817 
L 78.114581 117.294315 
L 78.916868 100.084046 
L 81.591158 38.15337 
L 82.126016 30.848022 
L 82.52716 27.380318 
L 82.794589 26.100434 
L 83.062018 25.671551 
L 83.195732 25.778878 
L 83.463161 26.63495 
L 83.864305 29.491019 
L 84.265448 34.138578 
L 84.800306 42.82908 
L 85.602594 60.039349 
L 88.276884 121.970025 
L 88.811742 129.275373 
L 89.212885 132.743077 
L 89.480315 134.022961 
L 89.747744 134.451844 
L 89.881458 134.344517 
L 90.148887 133.488445 
L 90.550031 130.632377 
L 90.951174 125.984817 
L 91.486032 117.294315 
L 92.288319 100.084046 
L 94.96261 38.15337 
L 95.497468 30.848022 
L 95.898611 27.380318 
L 96.16604 26.100434 
L 96.433469 25.671551 
L 96.567184 25.778878 
L 96.834613 26.63495 
L 97.235756 29.491019 
L 97.6369 34.138578 
L 98.171758 42.82908 
L 98.974045 60.039349 
L 101.648335 121.970025 
L 102.183193 129.275373 
L 102.584337 132.743077 
L 102.851766 134.022961 
L 103.119195 134.451844 
L 103.25291 134.344517 
L 103.520339 133.488445 
L 103.921482 130.632377 
L 104.322626 125.984817 
L 104.857484 117.294315 
L 105.659771 100.084046 
L 108.334061 38.15337 
L 108.868919 30.848022 
L 109.270063 27.380318 
L 109.537492 26.100434 
L 109.804921 25.671551 
L 109.938635 25.778878 
L 110.206064 26.63495 
L 110.607208 29.491019 
L 111.008351 34.138578 
L 111.54321 42.82908 
L 112.345497 60.039349 
L 115.019787 121.970025 
L 115.554645 129.275373 
L 115.955789 132.743077 
L 116.223218 134.022961 
L 116.490647 134.451844 
L 116.624361 134.344517 
L 116.89179 133.488445 
L 117.292934 130.632377 
L 117.694077 125.984817 
L 118.228935 117.294315 
L 119.031222 100.084046 
L 121.705513 38.15337 
L 122.240371 30.848022 
L 122.641514 27.380318 
L 122.908943 26.100434 
L 123.176372 25.671551 
L 123.310087 25.778878 
L 123.577516 26.63495 
L 123.978659 29.491019 
L 124.379803 34.138578 
L 124.914661 42.82908 
L 125.716948 60.039349 
L 128.391238 121.970025 
L 128.926097 129.275373 
L 129.32724 132.743077 
L 129.594669 134.022961 
L 129.862098 134.451844 
L 129.995813 134.344517 
L 130.263242 133.488445 
L 130.664385 130.632377 
L 131.065529 125.984817 
L 131.600387 117.294315 
L 132.402674 100.084046 
L 135.076964 38.15337 
L 135.611822 30.848022 
L 136.012966 27.380318 
L 136.280395 26.100434 
L 136.547824 25.671551 
L 136.681538 25.778878 
L 136.948967 26.63495 
L 137.350111 29.491019 
L 137.751255 34.138578 
L 138.286113 42.82908 
L 139.0884 60.039349 
L 141.76269 121.970025 
L 142.297548 129.275373 
L 142.698692 132.743077 
L 142.966121 134.022961 
L 143.23355 134.451844 
L 143.367264 134.344517 
L 143.634693 133.488445 
L 144.035837 130.632377 
L 144.43698 125.984817 
L 144.971838 117.294315 
L 145.774125 100.084046 
L 148.448416 38.15337 
L 148.983274 30.848022 
L 149.384417 27.380318 
L 149.651846 26.100434 
L 149.919275 25.671551 
L 150.05299 25.778878 
L 150.320419 26.63495 
L 150.721563 29.491019 
L 151.122706 34.138578 
L 151.657564 42.82908 
L 152.459851 60.039349 
L 155.134142 121.970025 
L 155.669 129.275373 
L 156.070143 132.743077 
L 156.337572 134.022961 
L 156.605001 134.451844 
L 156.738716 134.344517 
L 157.006145 133.488445 
L 157.407288 130.632377 
L 157.808432 125.984817 
L 158.34329 117.294315 
L 159.145577 100.084046 
L 161.819867 38.15337 
L 162.354725 30.848022 
L 162.755869 27.380318 
L 163.023298 26.100434 
L 163.290727 25.671551 
L 163.424442 25.778878 
L 163.691871 26.63495 
L 164.093014 29.491019 
L 164.494158 34.138578 
L 165.029016 42.82908 
L 165.831303 60.039349 
L 168.505593 121.970025 
L 169.040451 129.275373 
L 169.441595 132.743077 
L 169.709024 134.022961 
L 169.976453 134.451844 
L 170.110167 134.344517 
L 170.377596 133.488445 
L 170.77874 130.632377 
L 171.179883 125.984817 
L 171.714741 117.294315 
L 172.517029 100.084046 
L 175.191319 38.15337 
L 175.726177 30.848022 
L 176.12732 27.380318 
L 176.39475 26.100434 
L 176.662179 25.671551 
L 176.795893 25.778878 
L 177.063322 26.63495 
L 177.464466 29.491019 
L 177.865609 34.138578 
L 178.400467 42.82908 
L 179.202754 60.039349 
L 181.877045 121.970025 
L 182.411903 129.275373 
L 182.813046 132.743077 
L 183.080475 134.022961 
L 183.347904 134.451844 
L 183.481619 134.344517 
L 183.749048 133.488445 
L 184.150191 130.632377 
L 184.551335 125.984817 
L 185.086193 117.294315 
L 185.88848 100.084046 
L 188.56277 38.15337 
L 189.097628 30.848022 
L 189.498772 27.380318 
L 189.766201 26.100434 
L 190.03363 25.671551 
L 190.167345 25.778878 
L 190.434774 26.63495 
L 190.835917 29.491019 
L 191.237061 34.138578 
L 191.771919 42.82908 
L 192.574206 60.039349 
L 195.248496 121.970025 
L 195.783354 129.275373 
L 196.184498 132.743077 
L 196.451927 134.022961 
L 196.719356 134.451844 
L 196.85307 134.344517 
L 197.120499 133.488445 
L 197.521643 130.632377 
L 197.922787 125.984817 
L 198.457645 117.294315 
L 199.259932 100.084046 
L 201.934222 38.15337 
L 202.46908 30.848022 
L 202.870224 27.380318 
L 203.137653 26.100434 
L 203.405082 25.671551 
L 203.538796 25.778878 
L 203.806225 26.63495 
L 204.207369 29.491019 
L 204.608512 34.138578 
L 205.14337 42.82908 
L 205.945657 60.039349 
L 208.619948 121.970025 
L 209.154806 129.275373 
L 209.555949 132.743077 
L 209.823378 134.022961 
L 210.090807 134.451844 
L 210.224522 134.344517 
L 210.491951 133.488445 
L 210.893095 130.632377 
L 211.294238 125.984817 
L 211.829096 117.294315 
L 212.631383 100.084046 
L 215.305674 38.15337 
L 215.840532 30.848022 
L 216.241675 27.380318 
L 216.509104 26.100434 
L 216.776533 25.671551 
L 216.910248 25.778878 
L 217.177677 26.63495 
L 217.57882 29.491019 
L 217.979964 34.138578 
L 218.514822 42.82908 
L 219.317109 60.039349 
L 221.991399 121.970025 
L 222.526257 129.275373 
L 222.927401 132.743077 
L 223.19483 134.022961 
L 223.462259 134.451844 
L 223.595973 134.344517 
L 223.863403 133.488445 
L 224.264546 130.632377 
L 224.66569 125.984817 
L 225.200548 117.294315 
L 226.002835 100.084046 
L 228.677125 38.15337 
L 229.211983 30.848022 
L 229.613127 27.380318 
L 229.880556 26.100434 
L 230.147985 25.671551 
L 230.281699 25.778878 
L 230.549128 26.63495 
L 230.950272 29.491019 
L 231.351415 34.138578 
L 231.886273 42.82908 
L 232.688561 60.039349 
L 235.362851 121.970025 
L 235.897709 129.275373 
L 236.298852 132.743077 
L 236.566281 134.022961 
L 236.83371 134.451844 
L 236.967425 134.344517 
L 237.234854 133.488445 
L 237.635998 130.632377 
L 238.037141 125.984817 
L 238.571999 117.294315 
L 239.374286 100.084046 
L 242.048577 38.15337 
L 242.583435 30.848022 
L 242.984578 27.380318 
L 243.252007 26.100434 
L 243.519436 25.671551 
L 243.653151 25.778878 
L 243.92058 26.63495 
L 244.321723 29.491019 
L 244.722867 34.138578 
L 245.257725 42.82908 
L 246.060012 60.039349 
L 248.734302 121.970025 
L 249.26916 129.275373 
L 249.670304 132.743077 
L 249.937733 134.022961 
L 250.205162 134.451844 
L 250.338877 134.344517 
L 250.606306 133.488445 
L 251.007449 130.632377 
L 251.408593 125.984817 
L 251.943451 117.294315 
L 252.745738 100.084046 
L 255.420028 38.15337 
L 255.954886 30.848022 
L 256.35603 27.380318 
L 256.623459 26.100434 
L 256.890888 25.671551 
L 257.024602 25.778878 
L 257.292031 26.63495 
L 257.693175 29.491019 
L 258.094318 34.138578 
L 258.629177 42.82908 
L 259.431464 60.039349 
L 262.105754 121.970025 
L 262.640612 129.275373 
L 263.041756 132.743077 
L 263.309185 134.022961 
L 263.576614 134.451844 
L 263.710328 134.344517 
L 263.977757 133.488445 
L 264.378901 130.632377 
L 264.780044 125.984817 
L 265.314902 117.294315 
L 266.117189 100.084046 
L 268.79148 38.15337 
L 269.326338 30.848022 
L 269.727481 27.380318 
L 269.99491 26.100434 
L 270.262339 25.671551 
L 270.396054 25.778878 
L 270.663483 26.63495 
L 271.064626 29.491019 
L 271.46577 34.138578 
L 272.000628 42.82908 
L 272.802915 60.039349 
L 275.477205 121.970025 
L 276.012064 129.275373 
L 276.413207 132.743077 
L 276.680636 134.022961 
L 276.948065 134.451844 
L 277.08178 134.344517 
L 277.349209 133.488445 
L 277.750352 130.632377 
L 278.151496 125.984817 
L 278.686354 117.294315 
L 279.488641 100.084046 
L 282.162931 38.15337 
L 282.697789 30.848022 
L 283.098933 27.380318 
L 283.366362 26.100434 
L 283.633791 25.671551 
L 283.767505 25.778878 
L 284.034934 26.63495 
L 284.436078 29.491019 
L 284.837222 34.138578 
L 285.37208 42.82908 
L 286.174367 60.039349 
L 288.848657 121.970025 
L 289.383515 129.275373 
L 289.784659 132.743077 
L 290.052088 134.022961 
L 290.319517 134.451844 
L 290.453231 134.344517 
L 290.72066 133.488445 
L 291.121804 130.632377 
L 291.522947 125.984817 
L 292.057805 117.294315 
L 292.860092 100.084046 
L 295.534383 38.15337 
L 296.069241 30.848022 
L 296.470384 27.380318 
L 296.737813 26.100434 
L 297.005242 25.671551 
L 297.138957 25.778878 
L 297.406386 26.63495 
L 297.80753 29.491019 
L 298.208673 34.138578 
L 298.743531 42.82908 
L 299.545818 60.039349 
L 302.220109 121.970025 
L 302.754967 129.275373 
L 303.15611 132.743077 
L 303.423539 134.022961 
L 303.690968 134.451844 
L 303.824683 134.344517 
L 304.092112 133.488445 
L 304.493255 130.632377 
L 304.894399 125.984817 
L 305.429257 117.294315 
L 306.231544 100.084046 
L 308.905834 38.15337 
L 309.440692 30.848022 
L 309.841836 27.380318 
L 310.109265 26.100434 
L 310.376694 25.671551 
L 310.510408 25.778878 
L 310.777838 26.63495 
L 311.178981 29.491019 
L 311.580125 34.138578 
L 312.114983 42.82908 
L 312.91727 60.039349 
L 315.59156 121.970025 
L 316.126418 129.275373 
L 316.527562 132.743077 
L 316.794991 134.022961 
L 317.06242 134.451844 
L 317.196134 134.344517 
L 317.463563 133.488445 
L 317.864707 130.632377 
L 318.26585 125.984817 
L 318.800708 117.294315 
L 319.602996 100.084046 
L 322.277286 38.15337 
L 322.812144 30.848022 
L 323.213287 27.380318 
L 323.480716 26.100434 
L 323.748146 25.671551 
L 323.88186 25.778878 
L 324.149289 26.63495 
L 324.550433 29.491019 
L 324.951576 34.138578 
L 325.486434 42.82908 
L 326.288721 60.039349 
L 328.963012 121.970025 
L 329.49787 129.275373 
L 329.899013 132.743077 
L 330.166442 134.022961 
L 330.433871 134.451844 
L 330.567586 134.344517 
L 330.835015 133.488445 
L 331.236158 130.632377 
L 331.637302 125.984817 
L 332.17216 117.294315 
L 332.974447 100.084046 
L 335.648737 38.15337 
L 336.183595 30.848022 
L 336.584739 27.380318 
L 336.852168 26.100434 
L 337.119597 25.671551 
L 337.253312 25.778878 
L 337.520741 26.63495 
L 337.921884 29.491019 
L 338.323028 34.138578 
L 338.857886 42.82908 
L 339.660173 60.039349 
L 342.334463 121.970025 
L 342.869321 129.275373 
L 343.270465 132.743077 
L 343.537894 134.022961 
L 343.805323 134.451844 
L 343.939037 134.344517 
L 344.206466 133.488445 
L 344.60761 130.632377 
L 345.008753 125.984817 
L 345.543612 117.294315 
L 346.345899 100.084046 
L 349.020189 38.15337 
L 349.555047 30.848022 
L 349.956191 27.380318 
L 350.22362 26.100434 
L 350.491049 25.671551 
L 350.624763 25.778878 
L 350.892192 26.63495 
L 351.293336 29.491019 
L 351.694479 34.138578 
L 352.229337 42.82908 
L 353.031624 60.039349 
L 355.705915 121.970025 
L 356.240773 129.275373 
L 356.641916 132.743077 
L 356.909345 134.022961 
L 357.176774 134.451844 
L 357.310489 134.344517 
L 357.577918 133.488445 
L 357.979061 130.632377 
L 358.380205 125.984817 
L 358.915063 117.294315 
L 359.71735 100.084046 
L 362.39164 38.15337 
L 362.926499 30.848022 
L 363.327642 27.380318 
L 363.595071 26.100434 
L 363.8625 25.671551 
L 363.996215 25.778878 
L 364.263644 26.63495 
L 364.664787 29.491019 
L 365.065931 34.138578 
L 365.600789 42.82908 
L 366.403076 60.039349 
L 369.077366 121.970025 
L 369.612224 129.275373 
L 370.013368 132.743077 
L 370.280797 134.022961 
L 370.548226 134.451844 
L 370.68194 134.344517 
L 370.949369 133.488445 
L 371.350513 130.632377 
L 371.751657 125.984817 
L 372.286515 117.294315 
L 373.088802 100.084046 
L 375.763092 38.15337 
L 376.29795 30.848022 
L 376.699094 27.380318 
L 376.966523 26.100434 
L 377.233952 25.671551 
L 377.367666 25.778878 
L 377.635095 26.63495 
L 378.036239 29.491019 
L 378.437382 34.138578 
L 378.97224 42.82908 
L 379.774527 60.039349 
L 382.448818 121.970025 
L 382.983676 129.275373 
L 383.384819 132.743077 
L 383.652248 134.022961 
L 383.919677 134.451844 
L 384.053392 134.344517 
L 384.320821 133.488445 
L 384.721965 130.632377 
L 385.123108 125.984817 
L 385.657966 117.294315 
L 386.460253 100.084046 
L 389.134544 38.15337 
L 389.669402 30.848022 
L 390.070545 27.380318 
L 390.337974 26.100434 
L 390.605403 25.671551 
L 390.739118 25.778878 
L 391.006547 26.63495 
L 391.40769 29.491019 
L 391.808834 34.138578 
L 392.343692 42.82908 
L 393.145979 60.039349 
L 395.820269 121.970025 
L 396.355127 129.275373 
L 396.756271 132.743077 
L 397.0237 134.022961 
L 397.291129 134.451844 
L 397.424844 134.344517 
L 397.692273 133.488445 
L 398.093416 130.632377 
L 398.49456 125.984817 
L 399.029418 117.294315 
L 399.831705 100.084046 
L 402.505995 38.15337 
L 403.040853 30.848022 
L 403.441997 27.380318 
L 403.709426 26.100434 
L 403.976855 25.671551 
L 404.110569 25.778878 
L 404.377998 26.63495 
L 404.779142 29.491019 
L 405.180285 34.138578 
L 405.715143 42.82908 
L 406.517431 60.039349 
L 409.191721 121.970025 
L 409.726579 129.275373 
L 410.127722 132.743077 
L 410.395152 134.022961 
L 410.662581 134.451844 
L 410.796295 134.344517 
L 411.063724 133.488445 
L 411.464868 130.632377 
L 411.866011 125.984817 
L 412.400869 117.294315 
L 413.203156 100.084046 
L 415.877447 38.15337 
L 416.412305 30.848022 
L 416.813448 27.380318 
L 417.080877 26.100434 
L 417.348306 25.671551 
L 417.482021 25.778878 
L 417.74945 26.63495 
L 418.150593 29.491019 
L 418.551737 34.138578 
L 419.086595 42.82908 
L 419.888882 60.039349 
L 422.563172 121.970025 
L 423.09803 129.275373 
L 423.499174 132.743077 
L 423.766603 134.022961 
L 424.034032 134.451844 
L 424.167747 134.344517 
L 424.435176 133.488445 
L 424.836319 130.632377 
L 425.237463 125.984817 
L 425.772321 117.294315 
L 426.574608 100.084046 
L 429.248898 38.15337 
L 429.783756 30.848022 
L 430.1849 27.380318 
L 430.452329 26.100434 
L 430.719758 25.671551 
L 430.853472 25.778878 
L 431.120901 26.63495 
L 431.522045 29.491019 
L 431.923188 34.138578 
L 432.458047 42.82908 
L 433.260334 60.039349 
L 435.934624 121.970025 
L 436.469482 129.275373 
L 436.870626 132.743077 
L 437.138055 134.022961 
L 437.405484 134.451844 
L 437.539198 134.344517 
L 437.806627 133.488445 
L 438.207771 130.632377 
L 438.608914 125.984817 
L 439.143772 117.294315 
L 439.946059 100.084046 
L 442.62035 38.15337 
L 443.155208 30.848022 
L 443.556351 27.380318 
L 443.82378 26.100434 
L 444.091209 25.671551 
L 444.224924 25.778878 
L 444.492353 26.63495 
L 444.893496 29.491019 
L 445.29464 34.138578 
L 445.829498 42.82908 
L 446.631785 60.039349 
L 449.306075 121.970025 
L 449.840934 129.275373 
L 450.242077 132.743077 
L 450.509506 134.022961 
L 450.776935 134.451844 
L 450.91065 134.344517 
L 451.178079 133.488445 
L 451.579222 130.632377 
L 451.980366 125.984817 
L 452.515224 117.294315 
L 453.317511 100.084046 
L 455.991801 38.15337 
L 456.526659 30.848022 
L 456.927803 27.380318 
L 457.195232 26.100434 
L 457.462661 25.671551 
L 457.596375 25.778878 
L 457.863804 26.63495 
L 458.264948 29.491019 
L 458.666092 34.138578 
L 459.20095 42.82908 
L 460.003237 60.039349 
L 461.87524 106.26435 
L 461.87524 106.26435 
" clip-path="url(#p990424ce0f)" style="fill: none; stroke: #e36f47; stroke-width: 6"/>
   </g>
   <g id="line2d_3">
    <path d="M 16.20476 66.464161 
L 22.221913 68.181313 
L 28.64021 69.774619 
L 35.45965 71.234049 
L 42.813949 72.57679 
L 50.83682 73.809777 
L 59.528263 74.917401 
L 69.155708 75.916756 
L 71.696284 76.146411 
L 71.829998 48.965368 
L 76.108863 51.811801 
L 80.521442 54.47456 
L 85.067736 56.955756 
L 89.747744 59.258852 
L 94.695181 61.444425 
L 99.910047 63.500047 
L 105.392342 65.416832 
L 110.874637 67.111775 
L 111.008351 40.008825 
L 114.886072 43.346147 
L 118.897508 46.506211 
L 123.042658 49.486156 
L 127.321522 52.284918 
L 131.734101 54.903082 
L 136.280395 57.342725 
L 140.29183 59.29812 
L 140.425545 32.242415 
L 144.169551 36.095155 
L 148.047272 39.758575 
L 151.924993 43.116748 
L 155.936429 46.296556 
L 160.081579 49.29512 
L 164.360443 52.111369 
L 166.901019 53.659983 
L 167.034733 26.573382 
L 170.645025 30.735111 
L 174.389032 34.709292 
L 178.133038 38.363278 
L 182.010759 41.837712 
L 186.022195 45.127605 
L 190.03363 48.134341 
L 192.173062 49.630655 
L 192.306777 22.555908 
L 195.917069 27.030221 
L 199.527361 31.156405 
L 203.271367 35.096643 
L 207.015374 38.719421 
L 210.893095 42.164179 
L 214.90453 45.425974 
L 215.439388 45.839119 
L 215.573103 18.793632 
L 219.183394 23.560674 
L 222.793686 27.95681 
L 226.403978 32.010899 
L 230.147985 35.882291 
L 233.891991 39.441771 
L 236.031423 41.345473 
L 236.165138 14.288424 
L 239.641715 19.223759 
L 243.252007 23.957335 
L 246.862299 28.322608 
L 250.472591 32.348236 
L 254.216597 36.192449 
L 258.094318 39.847763 
L 259.698893 41.269716 
L 259.832607 14.223153 
L 263.309185 19.163386 
L 266.919476 23.901658 
L 270.529768 28.271264 
L 274.14006 32.300886 
L 277.884067 36.148915 
L 281.761788 39.807855 
L 281.895502 39.928436 
L 282.029217 12.92283 
L 285.505794 17.960634 
L 288.982372 22.620423 
L 292.592663 27.089716 
L 296.202955 31.21127 
L 299.946962 35.147088 
L 301.95268 37.123444 
L 302.086394 10.071728 
L 305.562971 15.323465 
L 309.039549 20.181136 
L 312.649841 24.840221 
L 316.260133 29.1368 
L 320.004139 33.239755 
L 323.748146 37.01214 
L 325.219005 38.409591 
L 325.35272 11.371187 
L 328.829297 16.525419 
L 332.305875 21.2929 
L 335.916166 25.865483 
L 339.526458 30.082291 
L 343.270465 34.109069 
L 344.60761 35.467174 
L 344.741324 8.432268 
L 348.217902 13.807023 
L 351.694479 18.778481 
L 355.304771 23.546702 
L 358.915063 27.943925 
L 362.525355 31.999016 
L 366.269361 35.871366 
L 367.071649 36.659676 
L 367.205363 9.66507 
L 370.68194 14.947321 
L 374.158518 19.833215 
L 377.76881 24.519371 
L 381.379102 28.840915 
L 384.989394 32.826215 
L 388.465971 36.370556 
L 388.599685 9.309654 
L 392.076263 14.618575 
L 395.55284 19.529137 
L 399.163132 24.238952 
L 402.773424 28.582314 
L 406.383716 32.587734 
L 408.523148 34.812659 
L 408.656863 7.790696 
L 412.13344 13.213592 
L 415.610018 18.229578 
L 419.086595 22.869187 
L 422.696887 27.319125 
L 426.307179 31.42283 
L 430.051185 35.341602 
L 431.254616 36.53289 
L 431.38833 9.495372 
L 434.864908 14.790357 
L 438.341485 19.688029 
L 441.951777 24.385481 
L 445.562069 28.717442 
L 449.172361 32.712349 
L 450.108363 33.696318 
L 450.242077 6.668156 
L 453.718654 12.175283 
L 457.195232 17.269179 
L 460.671809 21.980851 
L 461.87524 23.528053 
L 461.87524 23.528053 
" clip-path="url(#p990424ce0f)" style="fill: none; stroke: #3ea44e; stroke-width: 6"/>
   </g>
  </g>
 </g>
 <defs>
  <clipPath id="p990424ce0f">
   <rect x="2.834646" y="2.834646" width="472.410709" height="135.450709"/>
  </clipPath>
 </defs>
</svg>
