<?xml version="1.0" encoding="utf-8" standalone="no"?>
<!DOCTYPE svg PUBLIC "-//W3C//DTD SVG 1.1//EN"
  "http://www.w3.org/Graphics/SVG/1.1/DTD/svg11.dtd">
<svg xmlns:xlink="http://www.w3.org/1999/xlink" width="480.96pt" height="144pt" viewBox="0 0 480.96 144" xmlns="http://www.w3.org/2000/svg" version="1.1">
 <metadata>
  <rdf:RDF xmlns:dc="http://purl.org/dc/elements/1.1/" xmlns:cc="http://creativecommons.org/ns#" xmlns:rdf="http://www.w3.org/1999/02/22-rdf-syntax-ns#">
   <cc:Work>
    <dc:type rdf:resource="http://purl.org/dc/dcmitype/StillImage"/>
    <dc:date>2024-08-16T15:10:23.873215</dc:date>
    <dc:format>image/svg+xml</dc:format>
    <dc:creator>
     <cc:Agent>
      <dc:title>Matplotlib v3.8.4, https://matplotlib.org/</dc:title>
     </cc:Agent>
    </dc:creator>
   </cc:Work>
  </rdf:RDF>
 </metadata>
 <defs>
  <style type="text/css">*{stroke-linejoin: round; stroke-linecap: butt}</style>
 </defs>
 <g id="figure_1">
  <g id="patch_1">
   <path d="M 0 144 
L 480.96 144 
L 480.96 0 
L 0 0 
L 0 144 
z
" style="fill: none"/>
  </g>
  <g id="axes_1">
   <g id="patch_2">
    <path d="M 2.834646 141.165354 
L 478.125354 141.165354 
L 478.125354 2.834646 
L 2.834646 2.834646 
L 2.834646 141.165354 
z
" style="fill: none"/>
   </g>
   <g id="line2d_1">
    <path d="M 16.286269 51.59989 
L 17.227977 55.016594 
L 18.169685 59.287839 
L 19.111393 64.601679 
L 20.187631 71.991731 
L 21.532927 82.897241 
L 25.434289 115.74187 
L 26.510526 122.481099 
L 27.452234 127.050536 
L 28.259412 130.003691 
L 29.06659 132.168121 
L 29.873768 133.685603 
L 30.680946 134.714004 
L 31.488125 135.403899 
L 32.564362 136.01704 
L 34.716837 136.897478 
L 35.927604 137.22671 
L 36.600253 137.225126 
L 37.138372 137.053206 
L 37.67649 136.674815 
L 38.214609 136.040989 
L 38.887258 134.826246 
L 39.559906 133.088788 
L 40.367084 130.283784 
L 41.308792 126.074034 
L 42.519559 119.514061 
L 45.613742 102.096328 
L 46.55545 98.116939 
L 47.362628 95.493144 
L 48.169806 93.552856 
L 48.976984 92.134693 
L 51.263989 88.502746 
L 52.071167 86.446754 
L 52.878346 83.656514 
L 53.685524 80.072136 
L 54.761761 74.145723 
L 56.241588 64.503937 
L 58.797652 47.718333 
L 59.873889 42.018125 
L 60.815597 38.063414 
L 61.622775 35.463699 
L 62.429954 33.541287 
L 63.237132 32.202392 
L 64.04431 31.329321 
L 64.851488 30.79245 
L 65.927726 30.365275 
L 67.407552 29.775953 
L 68.34926 29.142697 
L 69.425498 28.133878 
L 71.174384 26.460882 
L 71.847032 26.107236 
L 72.385151 26.0596 
L 72.65421 26.297244 
L 73.057799 27.145311 
L 73.461388 28.578322 
L 73.999507 31.372102 
L 74.672156 36.19218 
L 75.479334 43.676821 
L 76.555571 55.835512 
L 80.725992 105.707635 
L 81.802229 114.98754 
L 82.743937 121.357603 
L 83.685645 126.242639 
L 84.627353 129.892887 
L 85.569061 132.594253 
L 86.510768 134.591605 
L 87.452476 136.038341 
L 88.259654 136.863027 
L 88.932303 137.212627 
L 89.470422 137.220698 
L 89.874011 137.036967 
L 90.412129 136.495384 
L 90.950248 135.563012 
L 91.488367 134.185862 
L 92.161015 131.768827 
L 92.833664 128.519298 
L 93.640842 123.487631 
L 94.58255 116.12152 
L 95.793317 104.685476 
L 100.501856 57.46557 
L 101.578094 49.898615 
L 102.519802 44.726843 
L 103.461509 40.775166 
L 104.403217 37.803272 
L 105.344925 35.524263 
L 106.690222 32.903778 
L 109.649875 27.748859 
L 110.457053 26.692004 
L 111.129702 26.155861 
L 111.533291 26.039834 
L 111.80235 26.130925 
L 112.07141 26.524759 
L 112.474999 27.697908 
L 113.013118 30.344806 
L 113.551236 34.194452 
L 114.223885 40.582831 
L 115.165593 52.049332 
L 116.510889 71.901835 
L 119.066954 110.295343 
L 120.143191 122.729985 
L 120.950369 129.653254 
L 121.623018 133.705136 
L 122.161137 135.820194 
L 122.564726 136.772896 
L 122.968315 137.211337 
L 123.237374 137.234864 
L 123.506433 137.056993 
L 123.910023 136.440392 
L 124.448141 135.038398 
L 125.12079 132.516008 
L 126.062498 127.94509 
L 127.542324 119.447773 
L 130.501977 100.995908 
L 132.116334 89.6078 
L 133.59616 77.500659 
L 135.614106 58.84366 
L 137.497521 41.991086 
L 138.573759 34.267552 
L 139.380937 29.966321 
L 140.053585 27.54432 
L 140.591704 26.422512 
L 140.995293 26.065438 
L 141.264353 26.082041 
L 141.533412 26.496742 
L 141.937001 27.920259 
L 142.34059 30.265803 
L 142.878709 34.719497 
L 143.551357 42.148971 
L 144.493065 55.209227 
L 146.64554 89.667515 
L 147.990837 109.080503 
L 148.932545 119.954589 
L 149.739723 127.12935 
L 150.412372 131.558664 
L 151.08502 134.639134 
L 151.623139 136.204665 
L 152.026728 136.900041 
L 152.430317 137.220171 
L 152.833906 137.196635 
L 153.237495 136.859696 
L 153.775614 135.970478 
L 154.313733 134.628738 
L 154.986381 132.377528 
L 155.793559 128.89541 
L 156.735267 123.780208 
L 157.676975 117.486648 
L 158.753213 108.760906 
L 159.96398 96.977734 
L 161.443806 80.223034 
L 164.537989 44.398095 
L 165.479697 36.043253 
L 166.286875 30.704593 
L 166.959524 27.74862 
L 167.497642 26.425457 
L 167.901232 26.049918 
L 168.170291 26.142746 
L 168.43935 26.679877 
L 168.842939 28.325743 
L 169.381058 32.022339 
L 170.053707 38.839567 
L 170.860885 49.687654 
L 172.071652 69.503754 
L 174.358657 107.663607 
L 175.300365 120.009997 
L 176.107543 128.054536 
L 176.780191 132.814892 
L 177.31831 135.351537 
L 177.856429 136.805363 
L 178.260018 137.228489 
L 178.529077 137.213923 
L 178.798137 136.976735 
L 179.201726 136.232618 
L 179.739844 134.58727 
L 180.412493 131.633398 
L 181.219671 127.030067 
L 182.295909 119.54356 
L 183.641205 108.606601 
L 185.255562 93.628682 
L 187.273507 72.537115 
L 189.964101 44.20598 
L 191.040338 35.174989 
L 191.847517 30.149414 
L 192.520165 27.396892 
L 192.923754 26.445143 
L 193.327343 26.048921 
L 193.596403 26.147568 
L 193.865462 26.680527 
L 194.269051 28.305525 
L 194.80717 31.977084 
L 195.479818 38.833578 
L 196.286996 49.940188 
L 197.363234 68.262924 
L 200.053828 115.771075 
L 200.861006 126.121333 
L 201.533654 132.311398 
L 202.071773 135.499464 
L 202.475362 136.828402 
L 202.744422 137.209184 
L 203.013481 137.192282 
L 203.28254 136.787011 
L 203.686129 135.478805 
L 204.224248 132.515711 
L 204.896897 127.086752 
L 205.704075 118.54852 
L 206.914842 103.113149 
L 209.739966 66.163752 
L 210.950733 53.38569 
L 212.02697 44.201678 
L 212.968678 37.795876 
L 213.910386 32.802839 
L 214.717564 29.590381 
L 215.390213 27.666162 
L 215.928331 26.64228 
L 216.33192 26.194051 
L 216.735509 26.03785 
L 217.004569 26.163243 
L 217.273628 26.552773 
L 217.677217 27.641522 
L 218.215336 30.049339 
L 218.753455 33.556825 
L 219.426103 39.465105 
L 220.233281 48.665027 
L 221.309519 63.973791 
L 223.058405 93.008476 
L 224.538232 116.267052 
L 225.479939 127.678003 
L 226.152588 133.348045 
L 226.690707 136.130246 
L 227.094296 137.118635 
L 227.363355 137.239855 
L 227.632414 136.928 
L 227.901474 136.185004 
L 228.305063 134.275986 
L 228.843182 130.308223 
L 229.51583 123.26295 
L 230.323008 112.262218 
L 231.533776 92.340513 
L 233.82078 54.029734 
L 234.762488 41.699958 
L 235.569666 33.808442 
L 236.242315 29.32247 
L 236.780433 27.12287 
L 237.184023 26.261928 
L 237.453082 26.047901 
L 237.722141 26.148216 
L 237.991201 26.651493 
L 238.39479 28.133275 
L 238.932909 31.352495 
L 239.605557 37.09946 
L 240.547265 47.608042 
L 242.027091 67.38082 
L 244.448626 99.874064 
L 245.793923 114.888542 
L 246.87016 124.532076 
L 247.811868 130.956569 
L 248.484517 134.259197 
L 249.022635 136.058661 
L 249.426224 136.884324 
L 249.829814 137.237868 
L 250.098873 137.201562 
L 250.367932 136.941315 
L 250.771521 136.120393 
L 251.17511 134.771182 
L 251.713229 132.134401 
L 252.385878 127.486026 
L 253.193056 119.977643 
L 254.134764 108.798952 
L 255.345531 91.476773 
L 258.439714 45.281716 
L 259.381422 35.120833 
L 260.05407 30.002778 
L 260.592189 27.377438 
L 260.995778 26.315751 
L 261.264837 26.049114 
L 261.399367 26.053771 
L 261.668426 26.441293 
L 261.937486 27.339686 
L 262.341075 29.615041 
L 262.879194 34.276805 
L 263.551842 42.42142 
L 264.49355 57.196635 
L 266.242436 89.543691 
L 267.587733 112.692642 
L 268.529441 125.268098 
L 269.202089 131.697079 
L 269.740208 135.113973 
L 270.143797 136.627409 
L 270.412856 137.133186 
L 270.681916 137.239807 
L 270.950975 136.95387 
L 271.220034 136.285379 
L 271.623624 134.593878 
L 272.161742 131.142839 
L 272.834391 125.14343 
L 273.776099 114.29496 
L 275.255925 94.033638 
L 277.4084 64.856893 
L 278.619167 51.286831 
L 279.695405 41.59686 
L 280.637113 35.022975 
L 281.444291 30.796998 
L 282.116939 28.272184 
L 282.655058 26.918561 
L 283.058647 26.304304 
L 283.462236 26.045735 
L 283.731296 26.105391 
L 284.000355 26.443596 
L 284.403944 27.484476 
L 284.807533 29.163236 
L 285.345652 32.379548 
L 286.0183 37.919423 
L 286.825479 46.635409 
L 287.901716 61.219807 
L 289.516072 87.00077 
L 291.264958 114.395233 
L 292.206666 126.083732 
L 292.879315 132.192883 
L 293.417434 135.440552 
L 293.821023 136.821023 
L 294.090082 137.213818 
L 294.359141 137.174676 
L 294.628201 136.69949 
L 295.03179 135.169837 
L 295.435379 132.676478 
L 295.973498 127.920806 
L 296.646146 119.889926 
L 297.587854 105.517133 
L 299.33674 74.035281 
L 300.682037 51.310582 
L 301.623745 38.823204 
L 302.296393 32.318663 
L 302.834512 28.738096 
L 303.238101 27.031834 
L 303.64169 26.164015 
L 303.910749 26.044747 
L 304.179809 26.388555 
L 304.448868 27.237813 
L 304.852457 29.413439 
L 305.390576 33.856185 
L 306.063224 41.526603 
L 307.004932 55.181897 
L 310.906293 115.744647 
L 311.848001 125.464233 
L 312.655179 131.468741 
L 313.327828 134.823752 
L 313.865947 136.458586 
L 314.269536 137.094319 
L 314.538595 137.245673 
L 314.807654 137.184787 
L 315.076714 136.916501 
L 315.480303 136.135626 
L 316.018422 134.412229 
L 316.69107 131.210293 
L 317.498248 125.915683 
L 318.439956 117.875923 
L 319.516194 106.486527 
L 320.861491 89.612863 
L 324.628322 40.538631 
L 325.4355 33.248803 
L 326.108148 28.950341 
L 326.646267 26.852183 
L 327.049856 26.122255 
L 327.318916 26.059176 
L 327.587975 26.454649 
L 327.857034 27.34454 
L 328.260624 29.584115 
L 328.798742 34.175101 
L 329.471391 42.235274 
L 330.413099 56.984322 
L 332.027455 87.175921 
L 333.507282 113.409756 
L 334.448989 126.200817 
L 335.121638 132.579614 
L 335.659757 135.778634 
L 336.063346 137.003242 
L 336.332405 137.249963 
L 336.601464 137.040806 
L 336.870524 136.380017 
L 337.274113 134.560895 
L 337.812232 130.662161 
L 338.48488 123.645204 
L 339.292058 112.635474 
L 340.502825 92.717488 
L 342.78983 54.71848 
L 343.731538 42.538249 
L 344.538716 34.667707 
L 345.211365 30.067633 
L 345.749483 27.666422 
L 346.153072 26.583247 
L 346.556662 26.082936 
L 346.825721 26.065555 
L 347.09478 26.391958 
L 347.498369 27.538162 
L 348.036488 30.186716 
L 348.709137 35.05302 
L 349.516315 42.708911 
L 350.727082 56.700225 
L 355.83921 119.339757 
L 356.780918 127.652176 
L 357.588096 133.009918 
L 358.126215 135.469996 
L 358.529804 136.649672 
L 358.933393 137.208714 
L 359.202453 137.217007 
L 359.471512 136.921982 
L 359.875101 135.893028 
L 360.27869 134.144645 
L 360.816809 130.683263 
L 361.489457 124.576422 
L 362.296635 114.83861 
L 363.372873 98.56997 
L 367.005175 40.180846 
L 367.812353 32.091049 
L 368.350472 28.505453 
L 368.754061 26.843235 
L 369.15765 26.087221 
L 369.292179 26.037833 
L 369.426709 26.112147 
L 369.695768 26.692365 
L 370.099358 28.612387 
L 370.502947 31.727634 
L 371.041065 37.570796 
L 371.848244 49.352823 
L 373.059011 71.420436 
L 375.211486 111.250877 
L 376.153194 124.387209 
L 376.825842 131.139735 
L 377.363961 134.77895 
L 377.76755 136.44499 
L 378.171139 137.199044 
L 378.440198 137.203065 
L 378.709258 136.818031 
L 379.112847 135.537007 
L 379.650966 132.596358 
L 380.323614 127.152076 
L 381.130792 118.489561 
L 382.341559 102.564249 
L 385.570272 58.321417 
L 386.781039 45.469674 
L 387.722747 37.634091 
L 388.529925 32.49193 
L 389.202574 29.332811 
L 389.875222 27.212544 
L 390.413341 26.280826 
L 390.81693 26.039918 
L 391.085989 26.14694 
L 391.355049 26.555753 
L 391.758638 27.732616 
L 392.296757 30.334541 
L 392.834875 34.07678 
L 393.507524 40.262412 
L 394.314702 49.670135 
L 395.390939 64.912925 
L 399.42683 125.340175 
L 400.099479 131.575415 
L 400.637597 135.007948 
L 401.041187 136.576727 
L 401.310246 137.117245 
L 401.579305 137.24154 
L 401.848365 136.943168 
L 402.117424 136.21908 
L 402.521013 134.336993 
L 403.059132 130.374542 
L 403.73178 123.232132 
L 404.538959 111.892603 
L 405.749726 90.978703 
L 408.03673 50.409756 
L 408.978438 37.845937 
L 409.651087 31.445731 
L 410.189206 28.072358 
L 410.592795 26.602488 
L 410.861854 26.129716 
L 411.130913 26.067491 
L 411.399973 26.536261 
L 411.669032 27.561025 
L 412.072621 30.0892 
L 412.61074 35.154377 
L 413.283388 43.796825 
L 414.225096 59.013963 
L 417.453809 114.34038 
L 418.395517 125.487904 
L 419.068165 131.21667 
L 419.606284 134.413223 
L 420.144403 136.397175 
L 420.547992 137.118613 
L 420.817051 137.250307 
L 421.086111 137.114348 
L 421.35517 136.721618 
L 421.758759 135.676241 
L 422.296878 133.493371 
L 422.969526 129.631278 
L 423.776704 123.572952 
L 424.852942 113.547898 
L 426.198239 98.715888 
L 428.485244 70.458215 
L 430.368659 48.026688 
L 431.444897 37.483888 
L 432.252075 31.457908 
L 432.924723 28.017295 
L 433.462842 26.457388 
L 433.731902 26.106547 
L 434.000961 26.062097 
L 434.27002 26.441335 
L 434.53908 27.277601 
L 434.942669 29.373555 
L 435.480787 33.675347 
L 436.153436 41.268436 
L 436.960614 53.100826 
L 438.171381 74.523883 
L 440.323856 113.125784 
L 441.265564 125.925206 
L 441.938213 132.382709 
L 442.476331 135.667894 
L 442.879921 136.959179 
L 443.14898 137.246833 
L 443.28351 137.21753 
L 443.552569 136.813137 
L 443.821628 135.951172 
L 444.225217 133.817879 
L 444.763336 129.474671 
L 445.435985 121.858602 
L 446.243163 110.072758 
L 447.58846 86.484063 
L 449.471875 53.593291 
L 450.413583 40.696436 
L 451.220761 32.661753 
L 451.75888 29.040236 
L 452.296999 26.843144 
L 452.700588 26.115653 
L 452.969647 26.062649 
L 453.238707 26.464149 
L 453.507766 27.34125 
L 453.911355 29.49611 
L 454.449474 33.789029 
L 455.122122 41.072498 
L 456.06383 53.859485 
L 460.099721 112.337355 
L 461.041429 121.965469 
L 461.848607 128.394985 
L 462.655785 133.099429 
L 463.328434 135.68665 
L 463.866552 136.870491 
L 464.270141 137.231499 
L 464.539201 137.216472 
L 464.673731 137.131121 
L 464.673731 137.131121 
" clip-path="url(#pc9a39f867e)" style="fill: none; stroke: #2477d0; stroke-width: 4"/>
   </g>
   <g id="matplotlib.axis_1"/>
   <g id="matplotlib.axis_2"/>
   <g id="line2d_2">
    <path d="M 16.286269 26.037823 
L 16.420799 26.147549 
L 16.689859 27.022762 
L 17.093448 29.942689 
L 17.497037 34.694164 
L 18.035155 43.578977 
L 18.842334 61.17405 
L 21.532927 124.489435 
L 22.071046 131.958123 
L 22.474635 135.503361 
L 22.743695 136.811862 
L 23.012754 137.250334 
L 23.147284 137.140608 
L 23.416343 136.265395 
L 23.819932 133.345468 
L 24.223521 128.593993 
L 24.76164 119.70918 
L 25.568818 102.114106 
L 28.259412 38.798722 
L 28.797531 31.330034 
L 29.20112 27.784795 
L 29.470179 26.476294 
L 29.739239 26.037823 
L 29.873768 26.147549 
L 30.142828 27.022762 
L 30.546417 29.942689 
L 30.950006 34.694164 
L 31.488125 43.578977 
L 32.295303 61.17405 
L 34.985897 124.489435 
L 35.524015 131.958123 
L 35.927604 135.503361 
L 36.196664 136.811862 
L 36.465723 137.250334 
L 36.600253 137.140608 
L 36.869312 136.265395 
L 37.272901 133.345468 
L 37.67649 128.593993 
L 38.214609 119.70918 
L 39.021787 102.114106 
L 41.712381 38.798722 
L 42.2505 31.330034 
L 42.654089 27.784795 
L 42.923148 26.476294 
L 43.192208 26.037823 
L 43.326737 26.147549 
L 43.595797 27.022762 
L 43.999386 29.942689 
L 44.402975 34.694164 
L 44.941094 43.578977 
L 45.748272 61.17405 
L 48.438866 124.489435 
L 48.976984 131.958123 
L 49.380574 135.503361 
L 49.649633 136.811862 
L 49.918692 137.250334 
L 50.053222 137.140608 
L 50.322281 136.265395 
L 50.72587 133.345468 
L 51.12946 128.593993 
L 51.667578 119.70918 
L 52.474756 102.114106 
L 55.16535 38.798722 
L 55.703469 31.330034 
L 56.107058 27.784795 
L 56.376117 26.476294 
L 56.645177 26.037823 
L 56.779707 26.147549 
L 57.048766 27.022762 
L 57.452355 29.942689 
L 57.855944 34.694164 
L 58.394063 43.578977 
L 59.201241 61.17405 
L 61.891835 124.489435 
L 62.429954 131.958123 
L 62.833543 135.503361 
L 63.102602 136.811862 
L 63.371661 137.250334 
L 63.506191 137.140608 
L 63.775251 136.265395 
L 64.17884 133.345468 
L 64.582429 128.593993 
L 65.120547 119.70918 
L 65.927726 102.114106 
L 68.618319 38.798722 
L 69.156438 31.330034 
L 69.560027 27.784795 
L 69.829087 26.476294 
L 70.098146 26.037823 
L 70.232676 26.147549 
L 70.501735 27.022762 
L 70.905324 29.942689 
L 71.308913 34.694164 
L 71.847032 43.578977 
L 72.65421 61.17405 
L 75.344804 124.489435 
L 75.882923 131.958123 
L 76.286512 135.503361 
L 76.555571 136.811862 
L 76.824631 137.250334 
L 76.95916 137.140608 
L 77.22822 136.265395 
L 77.631809 133.345468 
L 78.035398 128.593993 
L 78.573517 119.70918 
L 79.380695 102.114106 
L 82.071289 38.798722 
L 82.609407 31.330034 
L 83.012996 27.784795 
L 83.282056 26.476294 
L 83.551115 26.037823 
L 83.685645 26.147549 
L 83.954704 27.022762 
L 84.358293 29.942689 
L 84.761882 34.694164 
L 85.300001 43.578977 
L 86.107179 61.17405 
L 88.797773 124.489435 
L 89.335892 131.958123 
L 89.739481 135.503361 
L 90.00854 136.811862 
L 90.2776 137.250334 
L 90.412129 137.140608 
L 90.681189 136.265395 
L 91.084778 133.345468 
L 91.488367 128.593993 
L 92.026486 119.70918 
L 92.833664 102.114106 
L 95.524258 38.798722 
L 96.062376 31.330034 
L 96.465965 27.784795 
L 96.735025 26.476294 
L 97.004084 26.037823 
L 97.138614 26.147549 
L 97.407673 27.022762 
L 97.811262 29.942689 
L 98.214851 34.694164 
L 98.75297 43.578977 
L 99.560148 61.17405 
L 102.250742 124.489435 
L 102.788861 131.958123 
L 103.19245 135.503361 
L 103.461509 136.811862 
L 103.730569 137.250334 
L 103.865099 137.140608 
L 104.134158 136.265395 
L 104.537747 133.345468 
L 104.941336 128.593993 
L 105.479455 119.70918 
L 106.286633 102.114106 
L 108.977227 38.798722 
L 109.515346 31.330034 
L 109.918935 27.784795 
L 110.187994 26.476294 
L 110.457053 26.037823 
L 110.591583 26.147549 
L 110.860642 27.022762 
L 111.264232 29.942689 
L 111.667821 34.694164 
L 112.205939 43.578977 
L 113.013118 61.17405 
L 115.703711 124.489435 
L 116.24183 131.958123 
L 116.645419 135.503361 
L 116.914479 136.811862 
L 117.183538 137.250334 
L 117.318068 137.140608 
L 117.587127 136.265395 
L 117.990716 133.345468 
L 118.394305 128.593993 
L 118.932424 119.70918 
L 119.739602 102.114106 
L 122.430196 38.798722 
L 122.968315 31.330034 
L 123.371904 27.784795 
L 123.640963 26.476294 
L 123.910023 26.037823 
L 124.044552 26.147549 
L 124.313612 27.022762 
L 124.717201 29.942689 
L 125.12079 34.694164 
L 125.658909 43.578977 
L 126.466087 61.17405 
L 129.15668 124.489435 
L 129.694799 131.958123 
L 130.098388 135.503361 
L 130.367448 136.811862 
L 130.636507 137.250334 
L 130.771037 137.140608 
L 131.040096 136.265395 
L 131.443685 133.345468 
L 131.847274 128.593993 
L 132.385393 119.70918 
L 133.192571 102.114106 
L 135.883165 38.798722 
L 136.421284 31.330034 
L 136.824873 27.784795 
L 137.093932 26.476294 
L 137.362992 26.037823 
L 137.497521 26.147549 
L 137.766581 27.022762 
L 138.17017 29.942689 
L 138.573759 34.694164 
L 139.111878 43.578977 
L 139.919056 61.17405 
L 142.60965 124.489435 
L 143.147768 131.958123 
L 143.551357 135.503361 
L 143.820417 136.811862 
L 144.089476 137.250334 
L 144.224006 137.140608 
L 144.493065 136.265395 
L 144.896654 133.345468 
L 145.300243 128.593993 
L 145.838362 119.70918 
L 146.64554 102.114106 
L 149.336134 38.798722 
L 149.874253 31.330034 
L 150.277842 27.784795 
L 150.546901 26.476294 
L 150.815961 26.037823 
L 150.95049 26.147549 
L 151.21955 27.022762 
L 151.623139 29.942689 
L 152.026728 34.694164 
L 152.564847 43.578977 
L 153.372025 61.17405 
L 156.062619 124.489435 
L 156.600737 131.958123 
L 157.004327 135.503361 
L 157.273386 136.811862 
L 157.542445 137.250334 
L 157.676975 137.140608 
L 157.946034 136.265395 
L 158.349623 133.345468 
L 158.753213 128.593993 
L 159.291331 119.70918 
L 160.098509 102.114106 
L 162.789103 38.798722 
L 163.327222 31.330034 
L 163.730811 27.784795 
L 163.999871 26.476294 
L 164.26893 26.037823 
L 164.40346 26.147549 
L 164.672519 27.022762 
L 165.076108 29.942689 
L 165.479697 34.694164 
L 166.017816 43.578977 
L 166.824994 61.17405 
L 169.515588 124.489435 
L 170.053707 131.958123 
L 170.457296 135.503361 
L 170.726355 136.811862 
L 170.995414 137.250334 
L 171.129944 137.140608 
L 171.399004 136.265395 
L 171.802593 133.345468 
L 172.206182 128.593993 
L 172.7443 119.70918 
L 173.551479 102.114106 
L 176.242072 38.798722 
L 176.780191 31.330034 
L 177.18378 27.784795 
L 177.45284 26.476294 
L 177.721899 26.037823 
L 177.856429 26.147549 
L 178.125488 27.022762 
L 178.529077 29.942689 
L 178.932666 34.694164 
L 179.470785 43.578977 
L 180.277963 61.17405 
L 182.968557 124.489435 
L 183.506676 131.958123 
L 183.910265 135.503361 
L 184.179324 136.811862 
L 184.448384 137.250334 
L 184.582913 137.140608 
L 184.851973 136.265395 
L 185.255562 133.345468 
L 185.659151 128.593993 
L 186.19727 119.70918 
L 187.004448 102.114106 
L 189.695042 38.798722 
L 190.23316 31.330034 
L 190.636749 27.784795 
L 190.905809 26.476294 
L 191.174868 26.037823 
L 191.309398 26.147549 
L 191.578457 27.022762 
L 191.982046 29.942689 
L 192.385635 34.694164 
L 192.923754 43.578977 
L 193.730932 61.17405 
L 196.421526 124.489435 
L 196.959645 131.958123 
L 197.363234 135.503361 
L 197.632293 136.811862 
L 197.901353 137.250334 
L 198.035882 137.140608 
L 198.304942 136.265395 
L 198.708531 133.345468 
L 199.11212 128.593993 
L 199.650239 119.70918 
L 200.457417 102.114106 
L 203.148011 38.798722 
L 203.686129 31.330034 
L 204.089719 27.784795 
L 204.358778 26.476294 
L 204.627837 26.037823 
L 204.762367 26.147549 
L 205.031426 27.022762 
L 205.435015 29.942689 
L 205.838604 34.694164 
L 206.376723 43.578977 
L 207.183901 61.17405 
L 209.874495 124.489435 
L 210.412614 131.958123 
L 210.816203 135.503361 
L 211.085262 136.811862 
L 211.354322 137.250334 
L 211.488852 137.140608 
L 211.757911 136.265395 
L 212.1615 133.345468 
L 212.565089 128.593993 
L 213.103208 119.70918 
L 213.910386 102.114106 
L 216.60098 38.798722 
L 217.139099 31.330034 
L 217.542688 27.784795 
L 217.811747 26.476294 
L 218.080806 26.037823 
L 218.215336 26.147549 
L 218.484395 27.022762 
L 218.887985 29.942689 
L 219.291574 34.694164 
L 219.829692 43.578977 
L 220.636871 61.17405 
L 223.327464 124.489435 
L 223.865583 131.958123 
L 224.269172 135.503361 
L 224.538232 136.811862 
L 224.807291 137.250334 
L 224.941821 137.140608 
L 225.21088 136.265395 
L 225.614469 133.345468 
L 226.018058 128.593993 
L 226.556177 119.70918 
L 227.363355 102.114106 
L 230.053949 38.798722 
L 230.592068 31.330034 
L 230.995657 27.784795 
L 231.264716 26.476294 
L 231.533776 26.037823 
L 231.668305 26.147549 
L 231.937365 27.022762 
L 232.340954 29.942689 
L 232.744543 34.694164 
L 233.282662 43.578977 
L 234.08984 61.17405 
L 236.780433 124.489435 
L 237.318552 131.958123 
L 237.722141 135.503361 
L 237.991201 136.811862 
L 238.26026 137.250334 
L 238.39479 137.140608 
L 238.663849 136.265395 
L 239.067438 133.345468 
L 239.471027 128.593993 
L 240.009146 119.70918 
L 240.816324 102.114106 
L 243.506918 38.798722 
L 244.045037 31.330034 
L 244.448626 27.784795 
L 244.717685 26.476294 
L 244.986745 26.037823 
L 245.121274 26.147549 
L 245.390334 27.022762 
L 245.793923 29.942689 
L 246.197512 34.694164 
L 246.735631 43.578977 
L 247.542809 61.17405 
L 250.233403 124.489435 
L 250.771521 131.958123 
L 251.17511 135.503361 
L 251.44417 136.811862 
L 251.713229 137.250334 
L 251.847759 137.140608 
L 252.116818 136.265395 
L 252.520407 133.345468 
L 252.923996 128.593993 
L 253.462115 119.70918 
L 254.269293 102.114106 
L 256.959887 38.798722 
L 257.498006 31.330034 
L 257.901595 27.784795 
L 258.170654 26.476294 
L 258.439714 26.037823 
L 258.574243 26.147549 
L 258.843303 27.022762 
L 259.246892 29.942689 
L 259.650481 34.694164 
L 260.1886 43.578977 
L 260.995778 61.17405 
L 263.686372 124.489435 
L 264.224491 131.958123 
L 264.62808 135.503361 
L 264.897139 136.811862 
L 265.166198 137.250334 
L 265.300728 137.140608 
L 265.569787 136.265395 
L 265.973376 133.345468 
L 266.376966 128.593993 
L 266.915084 119.70918 
L 267.722262 102.114106 
L 270.412856 38.798722 
L 270.950975 31.330034 
L 271.354564 27.784795 
L 271.623624 26.476294 
L 271.892683 26.037823 
L 272.027213 26.147549 
L 272.296272 27.022762 
L 272.699861 29.942689 
L 273.10345 34.694164 
L 273.641569 43.578977 
L 274.448747 61.17405 
L 277.139341 124.489435 
L 277.67746 131.958123 
L 278.081049 135.503361 
L 278.350108 136.811862 
L 278.619167 137.250334 
L 278.753697 137.140608 
L 279.022757 136.265395 
L 279.426346 133.345468 
L 279.829935 128.593993 
L 280.368053 119.70918 
L 281.175232 102.114106 
L 283.865825 38.798722 
L 284.403944 31.330034 
L 284.807533 27.784795 
L 285.076593 26.476294 
L 285.345652 26.037823 
L 285.480182 26.147549 
L 285.749241 27.022762 
L 286.15283 29.942689 
L 286.556419 34.694164 
L 287.094538 43.578977 
L 287.901716 61.17405 
L 290.59231 124.489435 
L 291.130429 131.958123 
L 291.534018 135.503361 
L 291.803077 136.811862 
L 292.072137 137.250334 
L 292.206666 137.140608 
L 292.475726 136.265395 
L 292.879315 133.345468 
L 293.282904 128.593993 
L 293.821023 119.70918 
L 294.628201 102.114106 
L 297.318795 38.798722 
L 297.856913 31.330034 
L 298.260502 27.784795 
L 298.529562 26.476294 
L 298.798621 26.037823 
L 298.933151 26.147549 
L 299.20221 27.022762 
L 299.605799 29.942689 
L 300.009388 34.694164 
L 300.547507 43.578977 
L 301.354685 61.17405 
L 304.045279 124.489435 
L 304.583398 131.958123 
L 304.986987 135.503361 
L 305.256046 136.811862 
L 305.525106 137.250334 
L 305.659635 137.140608 
L 305.928695 136.265395 
L 306.332284 133.345468 
L 306.735873 128.593993 
L 307.273992 119.70918 
L 308.08117 102.114106 
L 310.771764 38.798722 
L 311.309882 31.330034 
L 311.713472 27.784795 
L 311.982531 26.476294 
L 312.25159 26.037823 
L 312.38612 26.147549 
L 312.655179 27.022762 
L 313.058768 29.942689 
L 313.462358 34.694164 
L 314.000476 43.578977 
L 314.807654 61.17405 
L 317.498248 124.489435 
L 318.036367 131.958123 
L 318.439956 135.503361 
L 318.709015 136.811862 
L 318.978075 137.250334 
L 319.112605 137.140608 
L 319.381664 136.265395 
L 319.785253 133.345468 
L 320.188842 128.593993 
L 320.726961 119.70918 
L 321.534139 102.114106 
L 324.224733 38.798722 
L 324.762852 31.330034 
L 325.166441 27.784795 
L 325.4355 26.476294 
L 325.704559 26.037823 
L 325.839089 26.147549 
L 326.108148 27.022762 
L 326.511738 29.942689 
L 326.915327 34.694164 
L 327.453445 43.578977 
L 328.260624 61.17405 
L 330.951217 124.489435 
L 331.489336 131.958123 
L 331.892925 135.503361 
L 332.161985 136.811862 
L 332.431044 137.250334 
L 332.565574 137.140608 
L 332.834633 136.265395 
L 333.238222 133.345468 
L 333.641811 128.593993 
L 334.17993 119.70918 
L 334.987108 102.114106 
L 337.677702 38.798722 
L 338.215821 31.330034 
L 338.61941 27.784795 
L 338.888469 26.476294 
L 339.157529 26.037823 
L 339.292058 26.147549 
L 339.561118 27.022762 
L 339.964707 29.942689 
L 340.368296 34.694164 
L 340.906415 43.578977 
L 341.713593 61.17405 
L 344.404187 124.489435 
L 344.942305 131.958123 
L 345.345894 135.503361 
L 345.614954 136.811862 
L 345.884013 137.250334 
L 346.018543 137.140608 
L 346.287602 136.265395 
L 346.691191 133.345468 
L 347.09478 128.593993 
L 347.632899 119.70918 
L 348.440077 102.114106 
L 351.130671 38.798722 
L 351.66879 31.330034 
L 352.072379 27.784795 
L 352.341438 26.476294 
L 352.610498 26.037823 
L 352.745027 26.147549 
L 353.014087 27.022762 
L 353.417676 29.942689 
L 353.821265 34.694164 
L 354.359384 43.578977 
L 355.166562 61.17405 
L 357.857156 124.489435 
L 358.395274 131.958123 
L 358.798863 135.503361 
L 359.067923 136.811862 
L 359.336982 137.250334 
L 359.471512 137.140608 
L 359.740571 136.265395 
L 360.14416 133.345468 
L 360.547749 128.593993 
L 361.085868 119.70918 
L 361.893046 102.114106 
L 364.58364 38.798722 
L 365.121759 31.330034 
L 365.525348 27.784795 
L 365.794407 26.476294 
L 366.063467 26.037823 
L 366.197996 26.147549 
L 366.467056 27.022762 
L 366.870645 29.942689 
L 367.274234 34.694164 
L 367.812353 43.578977 
L 368.619531 61.17405 
L 371.310125 124.489435 
L 371.848244 131.958123 
L 372.251833 135.503361 
L 372.520892 136.811862 
L 372.789951 137.250334 
L 372.924481 137.140608 
L 373.19354 136.265395 
L 373.59713 133.345468 
L 374.000719 128.593993 
L 374.538837 119.70918 
L 375.346015 102.114106 
L 378.036609 38.798722 
L 378.574728 31.330034 
L 378.978317 27.784795 
L 379.247377 26.476294 
L 379.516436 26.037823 
L 379.650966 26.147549 
L 379.920025 27.022762 
L 380.323614 29.942689 
L 380.727203 34.694164 
L 381.265322 43.578977 
L 382.0725 61.17405 
L 384.763094 124.489435 
L 385.301213 131.958123 
L 385.704802 135.503361 
L 385.973861 136.811862 
L 386.24292 137.250334 
L 386.37745 137.140608 
L 386.64651 136.265395 
L 387.050099 133.345468 
L 387.453688 128.593993 
L 387.991806 119.70918 
L 388.798985 102.114106 
L 391.489578 38.798722 
L 392.027697 31.330034 
L 392.431286 27.784795 
L 392.700346 26.476294 
L 392.969405 26.037823 
L 393.103935 26.147549 
L 393.372994 27.022762 
L 393.776583 29.942689 
L 394.180172 34.694164 
L 394.718291 43.578977 
L 395.525469 61.17405 
L 398.216063 124.489435 
L 398.754182 131.958123 
L 399.157771 135.503361 
L 399.42683 136.811862 
L 399.69589 137.250334 
L 399.830419 137.140608 
L 400.099479 136.265395 
L 400.503068 133.345468 
L 400.906657 128.593993 
L 401.444776 119.70918 
L 402.251954 102.114106 
L 404.942548 38.798722 
L 405.480666 31.330034 
L 405.884255 27.784795 
L 406.153315 26.476294 
L 406.422374 26.037823 
L 406.556904 26.147549 
L 406.825963 27.022762 
L 407.229552 29.942689 
L 407.633141 34.694164 
L 408.17126 43.578977 
L 408.978438 61.17405 
L 411.669032 124.489435 
L 412.207151 131.958123 
L 412.61074 135.503361 
L 412.879799 136.811862 
L 413.148859 137.250334 
L 413.283388 137.140608 
L 413.552448 136.265395 
L 413.956037 133.345468 
L 414.359626 128.593993 
L 414.897745 119.70918 
L 415.704923 102.114106 
L 418.395517 38.798722 
L 418.933635 31.330034 
L 419.337225 27.784795 
L 419.606284 26.476294 
L 419.875343 26.037823 
L 420.009873 26.147549 
L 420.278932 27.022762 
L 420.682521 29.942689 
L 421.086111 34.694164 
L 421.624229 43.578977 
L 422.431407 61.17405 
L 425.122001 124.489435 
L 425.66012 131.958123 
L 426.063709 135.503361 
L 426.332768 136.811862 
L 426.601828 137.250334 
L 426.736358 137.140608 
L 427.005417 136.265395 
L 427.409006 133.345468 
L 427.812595 128.593993 
L 428.350714 119.70918 
L 429.157892 102.114106 
L 431.848486 38.798722 
L 432.386605 31.330034 
L 432.790194 27.784795 
L 433.059253 26.476294 
L 433.328312 26.037823 
L 433.462842 26.147549 
L 433.731902 27.022762 
L 434.135491 29.942689 
L 434.53908 34.694164 
L 435.077198 43.578977 
L 435.884377 61.17405 
L 438.57497 124.489435 
L 439.113089 131.958123 
L 439.516678 135.503361 
L 439.785738 136.811862 
L 440.054797 137.250334 
L 440.189327 137.140608 
L 440.458386 136.265395 
L 440.861975 133.345468 
L 441.265564 128.593993 
L 441.803683 119.70918 
L 442.610861 102.114106 
L 445.301455 38.798722 
L 445.839574 31.330034 
L 446.243163 27.784795 
L 446.512222 26.476294 
L 446.781282 26.037823 
L 446.915811 26.147549 
L 447.184871 27.022762 
L 447.58846 29.942689 
L 447.992049 34.694164 
L 448.530168 43.578977 
L 449.337346 61.17405 
L 452.02794 124.489435 
L 452.566058 131.958123 
L 452.969647 135.503361 
L 453.238707 136.811862 
L 453.507766 137.250334 
L 453.642296 137.140608 
L 453.911355 136.265395 
L 454.314944 133.345468 
L 454.718533 128.593993 
L 455.256652 119.70918 
L 456.06383 102.114106 
L 458.754424 38.798722 
L 459.292543 31.330034 
L 459.696132 27.784795 
L 459.965191 26.476294 
L 460.234251 26.037823 
L 460.36878 26.147549 
L 460.63784 27.022762 
L 461.041429 29.942689 
L 461.445018 34.694164 
L 461.983137 43.578977 
L 462.790315 61.17405 
L 464.673731 108.432596 
L 464.673731 108.432596 
" clip-path="url(#pc9a39f867e)" style="fill: none; stroke: #ffa231; stroke-width: 4"/>
   </g>
   <g id="line2d_3">
    <path d="M 16.286269 67.742514 
L 22.205576 69.463585 
L 28.528471 71.067311 
L 35.254956 72.54228 
L 42.519559 73.905106 
L 50.456811 75.161963 
L 59.066711 76.295629 
L 68.618319 77.322849 
L 72.250621 77.659471 
L 72.385151 49.936464 
L 76.555571 52.75566 
L 80.860521 55.403155 
L 85.434531 57.950768 
L 90.14307 60.315215 
L 94.986139 62.501296 
L 100.098267 64.566209 
L 105.479455 66.499643 
L 111.129702 68.294631 
L 111.533291 68.414382 
L 111.667821 40.697692 
L 115.569182 44.113542 
L 119.605072 47.347616 
L 123.775493 50.397012 
L 128.080443 53.260643 
L 132.519923 55.939186 
L 137.093932 58.434759 
L 141.129823 60.434755 
L 141.264353 32.770055 
L 145.031184 36.712519 
L 148.798015 40.336922 
L 152.699376 43.782882 
L 156.735267 47.045449 
L 160.771158 50.026875 
L 164.941578 52.83804 
L 167.901232 54.680099 
L 168.035761 26.987365 
L 171.668063 31.245134 
L 175.434894 35.310568 
L 179.201726 39.048083 
L 183.103087 42.601573 
L 187.004448 45.858602 
L 191.040338 48.942301 
L 193.327343 50.570253 
L 193.461873 22.894496 
L 197.094175 27.471092 
L 200.726476 31.691133 
L 204.493308 35.720633 
L 208.260139 39.425057 
L 212.1615 42.947074 
L 216.062861 46.175287 
L 216.735509 46.704006 
L 216.870039 19.085718 
L 220.367811 23.785475 
L 224.000113 28.292678 
L 227.632414 32.448714 
L 231.399246 36.417106 
L 235.166077 40.065339 
L 237.453082 42.135232 
L 237.587612 14.488666 
L 241.085384 19.533791 
L 244.583156 24.199873 
L 248.215457 28.674748 
L 251.847759 32.801075 
L 255.61459 36.740995 
L 259.381422 40.363136 
L 261.264837 42.063118 
L 261.399367 14.419996 
L 264.897139 19.470276 
L 268.394911 24.141123 
L 272.027213 28.620584 
L 275.659514 32.751128 
L 279.426346 36.695079 
L 283.193177 40.320917 
L 283.462236 40.568415 
L 283.596766 12.920198 
L 287.094538 18.08316 
L 290.59231 22.858234 
L 294.224612 27.437611 
L 297.856913 31.660311 
L 301.623745 35.69225 
L 303.77622 37.84848 
L 303.910749 10.203839 
L 307.408521 15.570871 
L 310.906293 20.534691 
L 314.404065 25.125573 
L 318.036367 29.528345 
L 321.668669 33.588175 
L 325.4355 37.464605 
L 327.184386 39.156521 
L 327.318916 11.529588 
L 330.816688 16.797 
L 334.31446 21.668668 
L 337.946761 26.340755 
L 341.579063 30.648886 
L 345.211365 34.62138 
L 346.691191 36.149714 
L 346.825721 8.547184 
L 350.323493 14.038624 
L 353.821265 19.117546 
L 357.319037 23.814924 
L 360.951339 28.319813 
L 364.58364 32.473744 
L 368.350472 36.44011 
L 369.15765 37.247483 
L 369.292179 9.578488 
L 372.789951 14.992463 
L 376.287723 19.999736 
L 379.785495 24.63084 
L 383.417797 29.072151 
L 387.050099 33.167491 
L 390.81693 37.07788 
L 390.95146 9.466357 
L 394.449232 14.888748 
L 397.947004 19.90379 
L 401.444776 24.542096 
L 405.077077 28.990351 
L 408.709379 33.092039 
L 410.996384 35.50908 
L 411.130913 7.897854 
L 414.628685 13.438091 
L 418.126457 18.562104 
L 421.624229 23.3012 
L 425.256531 27.846127 
L 428.888833 32.036949 
L 432.655664 36.038557 
L 433.866431 37.254925 
L 434.000961 9.639143 
L 437.498733 15.048563 
L 440.996505 20.051589 
L 444.494277 24.678788 
L 448.126578 29.116399 
L 451.75888 33.208268 
L 452.835118 34.358338 
L 452.969647 6.749666 
L 456.467419 12.376164 
L 459.965191 17.579953 
L 463.462963 22.392833 
L 464.673731 23.97315 
L 464.673731 23.97315 
" clip-path="url(#pc9a39f867e)" style="fill: none; stroke: #4eba88; stroke-width: 4"/>
   </g>
  </g>
 </g>
 <defs>
  <clipPath id="pc9a39f867e">
   <rect x="2.834646" y="2.834646" width="475.290709" height="138.330709"/>
  </clipPath>
 </defs>
</svg>
