<?xml version="1.0" encoding="utf-8" standalone="no"?>
<!DOCTYPE svg PUBLIC "-//W3C//DTD SVG 1.1//EN"
  "http://www.w3.org/Graphics/SVG/1.1/DTD/svg11.dtd">
<svg xmlns:xlink="http://www.w3.org/1999/xlink" width="979.2pt" height="331.2pt" viewBox="0 0 979.2 331.2" xmlns="http://www.w3.org/2000/svg" version="1.1">
 <metadata>
  <rdf:RDF xmlns:dc="http://purl.org/dc/elements/1.1/" xmlns:cc="http://creativecommons.org/ns#" xmlns:rdf="http://www.w3.org/1999/02/22-rdf-syntax-ns#">
   <cc:Work>
    <dc:type rdf:resource="http://purl.org/dc/dcmitype/StillImage"/>
    <dc:date>2024-08-20T12:26:42.282012</dc:date>
    <dc:format>image/svg+xml</dc:format>
    <dc:creator>
     <cc:Agent>
      <dc:title>Matplotlib v3.8.4, https://matplotlib.org/</dc:title>
     </cc:Agent>
    </dc:creator>
   </cc:Work>
  </rdf:RDF>
 </metadata>
 <defs>
  <style type="text/css">*{stroke-linejoin: round; stroke-linecap: butt}</style>
 </defs>
 <g id="figure_1">
  <g id="patch_1">
   <path d="M 0 331.2 
L 979.2 331.2 
L 979.2 0 
L 0 0 
L 0 331.2 
z
" style="fill: none"/>
  </g>
  <g id="axes_1">
   <g id="patch_2">
    <path d="M 42.418977 297.505354 
L 976.365354 297.505354 
L 976.365354 6.416985 
L 42.418977 6.416985 
L 42.418977 297.505354 
z
" style="fill: none"/>
   </g>
   <g id="line2d_1">
    <path d="M 138.208349 21.69666 
L 162.155692 49.86196 
L 186.103035 78.027259 
L 210.050378 106.192558 
L 233.997721 134.357858 
L 257.945064 162.523157 
L 281.892407 183.647132 
L 305.83975 211.812431 
L 329.787093 232.936406 
L 353.734436 254.06038 
L 377.681779 268.14303 
L 401.629122 282.225679 
L 425.576465 268.14303 
L 449.523808 254.06038 
L 473.471151 239.97773 
L 497.418494 232.936406 
L 521.365837 218.853756 
L 545.31318 211.812431 
L 569.260523 197.729781 
L 593.207866 190.688456 
L 617.155209 183.647132 
L 641.102552 183.647132 
L 665.049895 176.605807 
L 688.997238 169.564482 
L 712.944581 169.564482 
L 736.891924 162.523157 
L 760.839267 162.523157 
L 784.78661 155.481832 
L 808.733953 155.481832 
L 832.681296 155.481832 
L 856.628639 148.440507 
L 880.575982 148.440507 
L 904.523325 148.440507 
L 928.470668 148.440507 
L 952.418011 148.440507 
L 976.365354 141.399183 
" clip-path="url(#p373c460a40)" style="fill: none; stroke: #c68225; stroke-width: 4"/>
   </g>
   <g id="PolyCollection_1">
    <defs>
     <path id="m50f7d15273" d="M 138.208349 -309.50334 
L 138.208349 -316.544665 
L 162.155692 -316.544665 
L 186.103035 -316.544665 
L 210.050378 -316.544665 
L 233.997721 -316.544665 
L 257.945064 -316.544665 
L 281.892407 -316.544665 
L 305.83975 -316.544665 
L 329.787093 -316.544665 
L 353.734436 -316.544665 
L 377.681779 -316.544665 
L 401.629122 -316.544665 
L 425.576465 -316.544665 
L 449.523808 -316.544665 
L 473.471151 -316.544665 
L 497.418494 -316.544665 
L 521.365837 -316.544665 
L 545.31318 -316.544665 
L 569.260523 -316.544665 
L 593.207866 -316.544665 
L 617.155209 -316.544665 
L 641.102552 -316.544665 
L 665.049895 -316.544665 
L 688.997238 -316.544665 
L 712.944581 -316.544665 
L 736.891924 -316.544665 
L 760.839267 -316.544665 
L 784.78661 -316.544665 
L 808.733953 -316.544665 
L 832.681296 -316.544665 
L 856.628639 -316.544665 
L 880.575982 -316.544665 
L 904.523325 -316.544665 
L 928.470668 -316.544665 
L 952.418011 -316.544665 
L 976.365354 -316.544665 
L 976.365354 -189.800817 
L 976.365354 -189.800817 
L 952.418011 -182.759493 
L 928.470668 -182.759493 
L 904.523325 -182.759493 
L 880.575982 -182.759493 
L 856.628639 -182.759493 
L 832.681296 -175.718168 
L 808.733953 -175.718168 
L 784.78661 -175.718168 
L 760.839267 -168.676843 
L 736.891924 -168.676843 
L 712.944581 -161.635518 
L 688.997238 -161.635518 
L 665.049895 -154.594193 
L 641.102552 -147.552868 
L 617.155209 -147.552868 
L 593.207866 -140.511544 
L 569.260523 -133.470219 
L 545.31318 -119.387569 
L 521.365837 -112.346244 
L 497.418494 -98.263594 
L 473.471151 -91.22227 
L 449.523808 -77.13962 
L 425.576465 -63.05697 
L 401.629122 -48.974321 
L 377.681779 -63.05697 
L 353.734436 -77.13962 
L 329.787093 -98.263594 
L 305.83975 -119.387569 
L 281.892407 -147.552868 
L 257.945064 -168.676843 
L 233.997721 -196.842142 
L 210.050378 -225.007442 
L 186.103035 -253.172741 
L 162.155692 -281.33804 
L 138.208349 -309.50334 
z
"/>
    </defs>
    <g clip-path="url(#p373c460a40)">
     <use xlink:href="#m50f7d15273" x="0" y="331.2" style="fill: #c68225; fill-opacity: 0.2"/>
    </g>
   </g>
   <g id="matplotlib.axis_1">
    <g id="xtick_1">
     <g id="line2d_2">
      <defs>
       <path id="m6e32c41c2e" d="M 0 0 
L 0 -5 
" style="stroke: #000000"/>
      </defs>
      <g>
       <use xlink:href="#m6e32c41c2e" x="114.261006" y="297.505354" style="stroke: #000000"/>
      </g>
     </g>
     <g id="text_1">
      <!-- $0.6$ -->
      <g transform="translate(96.341006 322.280979) scale(0.28 -0.28)">
       <defs>
        <path id="Cmr10-30" d="M 1600 -141 
Q 816 -141 533 504 
Q 250 1150 250 2041 
Q 250 2597 351 3087 
Q 453 3578 754 3920 
Q 1056 4263 1600 4263 
Q 2022 4263 2290 4056 
Q 2559 3850 2700 3523 
Q 2841 3197 2892 2823 
Q 2944 2450 2944 2041 
Q 2944 1491 2842 1011 
Q 2741 531 2444 195 
Q 2147 -141 1600 -141 
z
M 1600 25 
Q 1956 25 2131 390 
Q 2306 756 2347 1200 
Q 2388 1644 2388 2144 
Q 2388 2625 2347 3031 
Q 2306 3438 2132 3767 
Q 1959 4097 1600 4097 
Q 1238 4097 1063 3765 
Q 888 3434 847 3029 
Q 806 2625 806 2144 
Q 806 1788 823 1472 
Q 841 1156 916 820 
Q 991 484 1158 254 
Q 1325 25 1600 25 
z
" transform="scale(0.015625)"/>
        <path id="Cmmi10-3a" d="M 538 353 
Q 538 497 644 600 
Q 750 703 891 703 
Q 978 703 1062 656 
Q 1147 609 1194 525 
Q 1241 441 1241 353 
Q 1241 213 1137 106 
Q 1034 0 891 0 
Q 750 0 644 106 
Q 538 213 538 353 
z
" transform="scale(0.015625)"/>
        <path id="Cmr10-36" d="M 1600 -141 
Q 1203 -141 937 70 
Q 672 281 526 617 
Q 381 953 325 1322 
Q 269 1691 269 2069 
Q 269 2575 466 3084 
Q 663 3594 1045 3928 
Q 1428 4263 1953 4263 
Q 2172 4263 2361 4180 
Q 2550 4097 2658 3936 
Q 2766 3775 2766 3547 
Q 2766 3416 2677 3327 
Q 2588 3238 2456 3238 
Q 2331 3238 2240 3328 
Q 2150 3419 2150 3547 
Q 2150 3672 2240 3762 
Q 2331 3853 2456 3853 
L 2491 3853 
Q 2409 3969 2261 4023 
Q 2113 4078 1953 4078 
Q 1759 4078 1595 3993 
Q 1431 3909 1300 3765 
Q 1169 3622 1081 3448 
Q 994 3275 945 3053 
Q 897 2831 884 2637 
Q 872 2444 872 2150 
Q 984 2413 1190 2580 
Q 1397 2747 1656 2747 
Q 1941 2747 2175 2631 
Q 2409 2516 2578 2311 
Q 2747 2106 2836 1843 
Q 2925 1581 2925 1313 
Q 2925 938 2758 598 
Q 2591 259 2287 59 
Q 1984 -141 1600 -141 
z
M 1600 63 
Q 1847 63 1997 175 
Q 2147 288 2217 473 
Q 2288 659 2305 848 
Q 2322 1038 2322 1313 
Q 2322 1675 2287 1931 
Q 2253 2188 2100 2383 
Q 1947 2578 1631 2578 
Q 1372 2578 1205 2403 
Q 1038 2228 961 1961 
Q 884 1694 884 1447 
Q 884 1363 891 1319 
Q 891 1309 889 1303 
Q 888 1297 884 1288 
Q 884 1013 940 731 
Q 997 450 1156 256 
Q 1316 63 1600 63 
z
" transform="scale(0.015625)"/>
       </defs>
       <use xlink:href="#Cmr10-30" transform="translate(0 0.390625)"/>
       <use xlink:href="#Cmmi10-3a" transform="translate(50 0.390625)"/>
       <use xlink:href="#Cmr10-36" transform="translate(77.685547 0.390625)"/>
      </g>
     </g>
    </g>
    <g id="xtick_2">
     <g id="line2d_3">
      <g>
       <use xlink:href="#m6e32c41c2e" x="257.945064" y="297.505354" style="stroke: #000000"/>
      </g>
     </g>
     <g id="text_2">
      <!-- $0.8$ -->
      <g transform="translate(240.025064 322.280979) scale(0.28 -0.28)">
       <defs>
        <path id="Cmr10-38" d="M 269 972 
Q 269 1356 522 1651 
Q 775 1947 1172 2144 
L 934 2297 
Q 716 2441 578 2680 
Q 441 2919 441 3181 
Q 441 3488 602 3734 
Q 763 3981 1030 4122 
Q 1297 4263 1600 4263 
Q 1884 4263 2148 4147 
Q 2413 4031 2583 3815 
Q 2753 3600 2753 3303 
Q 2753 3088 2651 2903 
Q 2550 2719 2373 2572 
Q 2197 2425 1997 2322 
L 2363 2088 
Q 2616 1922 2770 1653 
Q 2925 1384 2925 1088 
Q 2925 741 2739 456 
Q 2553 172 2247 15 
Q 1941 -141 1600 -141 
Q 1269 -141 961 -6 
Q 653 128 461 383 
Q 269 638 269 972 
z
M 616 972 
Q 616 719 755 509 
Q 894 300 1122 181 
Q 1350 63 1600 63 
Q 1972 63 2275 280 
Q 2578 497 2578 856 
Q 2578 978 2529 1098 
Q 2481 1219 2395 1317 
Q 2309 1416 2203 1478 
L 1344 2034 
Q 1144 1928 976 1765 
Q 809 1603 712 1400 
Q 616 1197 616 972 
z
M 1056 2925 
L 1831 2425 
Q 2100 2581 2272 2803 
Q 2444 3025 2444 3303 
Q 2444 3519 2323 3698 
Q 2203 3878 2009 3978 
Q 1816 4078 1594 4078 
Q 1400 4078 1203 4003 
Q 1006 3928 878 3779 
Q 750 3631 750 3431 
Q 750 3131 1056 2925 
z
" transform="scale(0.015625)"/>
       </defs>
       <use xlink:href="#Cmr10-30" transform="translate(0 0.390625)"/>
       <use xlink:href="#Cmmi10-3a" transform="translate(50 0.390625)"/>
       <use xlink:href="#Cmr10-38" transform="translate(77.685547 0.390625)"/>
      </g>
     </g>
    </g>
    <g id="xtick_3">
     <g id="line2d_4">
      <g>
       <use xlink:href="#m6e32c41c2e" x="401.629122" y="297.505354" style="stroke: #000000"/>
      </g>
     </g>
     <g id="text_3">
      <!-- $1.0$ -->
      <g transform="translate(383.709122 322.280979) scale(0.28 -0.28)">
       <defs>
        <path id="Cmr10-31" d="M 594 0 
L 594 225 
Q 1394 225 1394 428 
L 1394 3788 
Q 1063 3628 556 3628 
L 556 3853 
Q 1341 3853 1741 4263 
L 1831 4263 
Q 1853 4263 1873 4245 
Q 1894 4228 1894 4206 
L 1894 428 
Q 1894 225 2694 225 
L 2694 0 
L 594 0 
z
" transform="scale(0.015625)"/>
       </defs>
       <use xlink:href="#Cmr10-31" transform="translate(0 0.390625)"/>
       <use xlink:href="#Cmmi10-3a" transform="translate(50 0.390625)"/>
       <use xlink:href="#Cmr10-30" transform="translate(77.685547 0.390625)"/>
      </g>
     </g>
    </g>
    <g id="xtick_4">
     <g id="line2d_5">
      <g>
       <use xlink:href="#m6e32c41c2e" x="545.31318" y="297.505354" style="stroke: #000000"/>
      </g>
     </g>
     <g id="text_4">
      <!-- $1.2$ -->
      <g transform="translate(527.39318 322.280979) scale(0.28 -0.28)">
       <defs>
        <path id="Cmr10-32" d="M 319 0 
L 319 172 
Q 319 188 331 206 
L 1325 1306 
Q 1550 1550 1690 1715 
Q 1831 1881 1968 2097 
Q 2106 2313 2186 2536 
Q 2266 2759 2266 3009 
Q 2266 3272 2169 3511 
Q 2072 3750 1880 3894 
Q 1688 4038 1416 4038 
Q 1138 4038 916 3870 
Q 694 3703 603 3438 
Q 628 3444 672 3444 
Q 816 3444 917 3347 
Q 1019 3250 1019 3097 
Q 1019 2950 917 2848 
Q 816 2747 672 2747 
Q 522 2747 420 2851 
Q 319 2956 319 3097 
Q 319 3338 409 3548 
Q 500 3759 670 3923 
Q 841 4088 1055 4175 
Q 1269 4263 1509 4263 
Q 1875 4263 2190 4108 
Q 2506 3953 2690 3670 
Q 2875 3388 2875 3009 
Q 2875 2731 2753 2481 
Q 2631 2231 2440 2026 
Q 2250 1822 1953 1562 
Q 1656 1303 1563 1216 
L 838 519 
L 1453 519 
Q 1906 519 2211 526 
Q 2516 534 2534 550 
Q 2609 631 2688 1141 
L 2875 1141 
L 2694 0 
L 319 0 
z
" transform="scale(0.015625)"/>
       </defs>
       <use xlink:href="#Cmr10-31" transform="translate(0 0.390625)"/>
       <use xlink:href="#Cmmi10-3a" transform="translate(50 0.390625)"/>
       <use xlink:href="#Cmr10-32" transform="translate(77.685547 0.390625)"/>
      </g>
     </g>
    </g>
    <g id="xtick_5">
     <g id="line2d_6">
      <g>
       <use xlink:href="#m6e32c41c2e" x="688.997238" y="297.505354" style="stroke: #000000"/>
      </g>
     </g>
     <g id="text_5">
      <!-- $1.4$ -->
      <g transform="translate(671.077238 322.280979) scale(0.28 -0.28)">
       <defs>
        <path id="Cmr10-34" d="M 178 1056 
L 178 1281 
L 2156 4231 
Q 2178 4263 2222 4263 
L 2316 4263 
Q 2388 4263 2388 4191 
L 2388 1281 
L 3016 1281 
L 3016 1056 
L 2388 1056 
L 2388 428 
Q 2388 297 2575 261 
Q 2763 225 3009 225 
L 3009 0 
L 1247 0 
L 1247 225 
Q 1494 225 1681 261 
Q 1869 297 1869 428 
L 1869 1056 
L 178 1056 
z
M 391 1281 
L 1906 1281 
L 1906 3547 
L 391 1281 
z
" transform="scale(0.015625)"/>
       </defs>
       <use xlink:href="#Cmr10-31" transform="translate(0 0.390625)"/>
       <use xlink:href="#Cmmi10-3a" transform="translate(50 0.390625)"/>
       <use xlink:href="#Cmr10-34" transform="translate(77.685547 0.390625)"/>
      </g>
     </g>
    </g>
    <g id="xtick_6">
     <g id="line2d_7">
      <g>
       <use xlink:href="#m6e32c41c2e" x="832.681296" y="297.505354" style="stroke: #000000"/>
      </g>
     </g>
     <g id="text_6">
      <!-- $1.6$ -->
      <g transform="translate(814.761296 322.280979) scale(0.28 -0.28)">
       <use xlink:href="#Cmr10-31" transform="translate(0 0.390625)"/>
       <use xlink:href="#Cmmi10-3a" transform="translate(50 0.390625)"/>
       <use xlink:href="#Cmr10-36" transform="translate(77.685547 0.390625)"/>
      </g>
     </g>
    </g>
   </g>
   <g id="matplotlib.axis_2">
    <g id="ytick_1">
     <g id="line2d_8">
      <defs>
       <path id="m8d71069a88" d="M 0 0 
L 5 0 
" style="stroke: #000000"/>
      </defs>
      <g>
       <use xlink:href="#m8d71069a88" x="42.418977" y="289.267004" style="stroke: #000000"/>
      </g>
     </g>
     <g id="text_7">
      <!-- $0.0$ -->
      <g transform="translate(3.078977 299.904817) scale(0.28 -0.28)">
       <use xlink:href="#Cmr10-30" transform="translate(0 0.390625)"/>
       <use xlink:href="#Cmmi10-3a" transform="translate(50 0.390625)"/>
       <use xlink:href="#Cmr10-30" transform="translate(77.685547 0.390625)"/>
      </g>
     </g>
    </g>
    <g id="ytick_2">
     <g id="line2d_9">
      <g>
       <use xlink:href="#m8d71069a88" x="42.418977" y="220.614087" style="stroke: #000000"/>
      </g>
     </g>
     <g id="text_8">
      <!-- $0.5$ -->
      <g transform="translate(3.078977 231.2519) scale(0.28 -0.28)">
       <defs>
        <path id="Cmr10-35" d="M 556 728 
Q 622 541 758 387 
Q 894 234 1080 148 
Q 1266 63 1466 63 
Q 1928 63 2103 422 
Q 2278 781 2278 1294 
Q 2278 1516 2270 1667 
Q 2263 1819 2228 1959 
Q 2169 2184 2020 2353 
Q 1872 2522 1656 2522 
Q 1441 2522 1286 2456 
Q 1131 2391 1034 2303 
Q 938 2216 863 2119 
Q 788 2022 769 2016 
L 697 2016 
Q 681 2016 657 2036 
Q 634 2056 634 2075 
L 634 4213 
Q 634 4228 654 4245 
Q 675 4263 697 4263 
L 716 4263 
Q 1147 4056 1631 4056 
Q 2106 4056 2547 4263 
L 2566 4263 
Q 2588 4263 2606 4247 
Q 2625 4231 2625 4213 
L 2625 4153 
Q 2625 4122 2613 4122 
Q 2394 3831 2064 3668 
Q 1734 3506 1381 3506 
Q 1125 3506 856 3578 
L 856 2369 
Q 1069 2541 1236 2614 
Q 1403 2688 1663 2688 
Q 2016 2688 2295 2484 
Q 2575 2281 2725 1954 
Q 2875 1628 2875 1288 
Q 2875 903 2686 575 
Q 2497 247 2172 53 
Q 1847 -141 1466 -141 
Q 1150 -141 886 21 
Q 622 184 470 459 
Q 319 734 319 1044 
Q 319 1188 412 1278 
Q 506 1369 647 1369 
Q 788 1369 883 1276 
Q 978 1184 978 1044 
Q 978 906 883 811 
Q 788 716 647 716 
Q 625 716 597 720 
Q 569 725 556 728 
z
" transform="scale(0.015625)"/>
       </defs>
       <use xlink:href="#Cmr10-30" transform="translate(0 0.390625)"/>
       <use xlink:href="#Cmmi10-3a" transform="translate(50 0.390625)"/>
       <use xlink:href="#Cmr10-35" transform="translate(77.685547 0.390625)"/>
      </g>
     </g>
    </g>
    <g id="ytick_3">
     <g id="line2d_10">
      <g>
       <use xlink:href="#m8d71069a88" x="42.418977" y="151.96117" style="stroke: #000000"/>
      </g>
     </g>
     <g id="text_9">
      <!-- $1.0$ -->
      <g transform="translate(3.078977 162.598982) scale(0.28 -0.28)">
       <use xlink:href="#Cmr10-31" transform="translate(0 0.390625)"/>
       <use xlink:href="#Cmmi10-3a" transform="translate(50 0.390625)"/>
       <use xlink:href="#Cmr10-30" transform="translate(77.685547 0.390625)"/>
      </g>
     </g>
    </g>
    <g id="ytick_4">
     <g id="line2d_11">
      <g>
       <use xlink:href="#m8d71069a88" x="42.418977" y="83.308253" style="stroke: #000000"/>
      </g>
     </g>
     <g id="text_10">
      <!-- $1.5$ -->
      <g transform="translate(3.078977 93.946065) scale(0.28 -0.28)">
       <use xlink:href="#Cmr10-31" transform="translate(0 0.390625)"/>
       <use xlink:href="#Cmmi10-3a" transform="translate(50 0.390625)"/>
       <use xlink:href="#Cmr10-35" transform="translate(77.685547 0.390625)"/>
      </g>
     </g>
    </g>
    <g id="ytick_5">
     <g id="line2d_12">
      <g>
       <use xlink:href="#m8d71069a88" x="42.418977" y="14.655335" style="stroke: #000000"/>
      </g>
     </g>
     <g id="text_11">
      <!-- $2.0$ -->
      <g transform="translate(3.078977 25.293148) scale(0.28 -0.28)">
       <use xlink:href="#Cmr10-32" transform="translate(0 0.390625)"/>
       <use xlink:href="#Cmmi10-3a" transform="translate(50 0.390625)"/>
       <use xlink:href="#Cmr10-30" transform="translate(77.685547 0.390625)"/>
      </g>
     </g>
    </g>
   </g>
   <g id="line2d_13">
    <path d="M 42.418977 127.316533 
L 66.36632 127.316533 
L 90.313663 127.316533 
L 114.261006 134.357858 
L 138.208349 134.357858 
L 162.155692 141.399183 
L 186.103035 148.440507 
L 210.050378 155.481832 
L 233.997721 162.523157 
L 257.945064 176.605807 
L 281.892407 197.729781 
L 305.83975 211.812431 
L 329.787093 232.936406 
L 353.734436 254.06038 
L 377.681779 268.14303 
L 401.629122 282.225679 
L 425.576465 268.14303 
L 449.523808 254.06038 
L 473.471151 239.97773 
L 497.418494 225.895081 
L 521.365837 211.812431 
L 545.31318 197.729781 
L 569.260523 190.688456 
L 593.207866 176.605807 
L 617.155209 169.564482 
L 641.102552 162.523157 
L 665.049895 148.440507 
L 688.997238 141.399183 
L 712.944581 134.357858 
L 736.891924 127.316533 
L 760.839267 120.275208 
L 784.78661 113.233883 
L 808.733953 106.192558 
L 832.681296 106.192558 
L 856.628639 99.151233 
L 880.575982 92.109909 
L 904.523325 85.068584 
L 928.470668 85.068584 
L 952.418011 78.027259 
L 976.365354 70.985934 
" clip-path="url(#p373c460a40)" style="fill: none; stroke: #03a98d; stroke-width: 4"/>
   </g>
   <g id="PolyCollection_2">
    <defs>
     <path id="m31d280d376" d="M 42.418977 -203.883467 
L 42.418977 -316.544665 
L 66.36632 -316.544665 
L 90.313663 -316.544665 
L 114.261006 -316.544665 
L 138.208349 -316.544665 
L 162.155692 -316.544665 
L 186.103035 -316.544665 
L 210.050378 -316.544665 
L 233.997721 -316.544665 
L 257.945064 -316.544665 
L 281.892407 -316.544665 
L 305.83975 -316.544665 
L 329.787093 -316.544665 
L 353.734436 -316.544665 
L 377.681779 -316.544665 
L 401.629122 -316.544665 
L 425.576465 -316.544665 
L 449.523808 -316.544665 
L 473.471151 -316.544665 
L 497.418494 -316.544665 
L 521.365837 -316.544665 
L 545.31318 -316.544665 
L 569.260523 -316.544665 
L 593.207866 -316.544665 
L 617.155209 -316.544665 
L 641.102552 -316.544665 
L 665.049895 -316.544665 
L 688.997238 -316.544665 
L 712.944581 -316.544665 
L 736.891924 -316.544665 
L 760.839267 -316.544665 
L 784.78661 -316.544665 
L 808.733953 -316.544665 
L 832.681296 -316.544665 
L 856.628639 -316.544665 
L 880.575982 -316.544665 
L 904.523325 -316.544665 
L 928.470668 -316.544665 
L 952.418011 -316.544665 
L 976.365354 -316.544665 
L 976.365354 -260.214066 
L 976.365354 -260.214066 
L 952.418011 -253.172741 
L 928.470668 -246.131416 
L 904.523325 -246.131416 
L 880.575982 -239.090091 
L 856.628639 -232.048767 
L 832.681296 -225.007442 
L 808.733953 -225.007442 
L 784.78661 -217.966117 
L 760.839267 -210.924792 
L 736.891924 -203.883467 
L 712.944581 -196.842142 
L 688.997238 -189.800817 
L 665.049895 -182.759493 
L 641.102552 -168.676843 
L 617.155209 -161.635518 
L 593.207866 -154.594193 
L 569.260523 -140.511544 
L 545.31318 -133.470219 
L 521.365837 -119.387569 
L 497.418494 -105.304919 
L 473.471151 -91.22227 
L 449.523808 -77.13962 
L 425.576465 -63.05697 
L 401.629122 -48.974321 
L 377.681779 -63.05697 
L 353.734436 -77.13962 
L 329.787093 -98.263594 
L 305.83975 -119.387569 
L 281.892407 -133.470219 
L 257.945064 -154.594193 
L 233.997721 -168.676843 
L 210.050378 -175.718168 
L 186.103035 -182.759493 
L 162.155692 -189.800817 
L 138.208349 -196.842142 
L 114.261006 -196.842142 
L 90.313663 -203.883467 
L 66.36632 -203.883467 
L 42.418977 -203.883467 
z
"/>
    </defs>
    <g clip-path="url(#p373c460a40)">
     <use xlink:href="#m31d280d376" x="0" y="331.2" style="fill: #03a98d; fill-opacity: 0.2"/>
    </g>
   </g>
   <g id="patch_3">
    <path d="M 42.418977 297.505354 
L 42.418977 6.416985 
" style="fill: none; stroke: #000000; stroke-width: 2; stroke-linejoin: miter; stroke-linecap: square"/>
   </g>
   <g id="patch_4">
    <path d="M 42.418977 297.505354 
L 976.365354 297.505354 
" style="fill: none; stroke: #000000; stroke-width: 2; stroke-linejoin: miter; stroke-linecap: square"/>
   </g>
   <g id="line2d_14">
    <path d="M 233.997721 21.69666 
L 257.945064 70.985934 
L 281.892407 113.233883 
L 305.83975 155.481832 
L 329.787093 190.688456 
L 353.734436 225.895081 
L 377.681779 254.06038 
L 401.629122 289.267004 
L 425.576465 261.101705 
L 449.523808 232.936406 
L 473.471151 204.771106 
L 497.418494 183.647132 
L 521.365837 162.523157 
L 545.31318 141.399183 
L 569.260523 120.275208 
L 593.207866 106.192558 
L 617.155209 85.068584 
L 641.102552 70.985934 
L 665.049895 56.903284 
L 688.997238 35.77931 
L 712.944581 21.69666 
L 736.891924 14.655335 
" clip-path="url(#p373c460a40)" style="fill: none; stroke-dasharray: 14.8,6.4; stroke-dashoffset: 0; stroke: #000000; stroke-width: 4"/>
   </g>
   <g id="PathCollection_1">
    <defs>
     <path id="me8b86e80e8" d="M -2 2 
L 2 2 
L 2 -2 
L -2 -2 
z
" style="stroke: #000000; stroke-width: 2"/>
    </defs>
    <g clip-path="url(#p373c460a40)">
     <use xlink:href="#me8b86e80e8" x="114.261006" y="110.769419" style="stroke: #000000; stroke-width: 2"/>
    </g>
   </g>
  </g>
 </g>
 <defs>
  <clipPath id="p373c460a40">
   <rect x="42.418977" y="6.416985" width="933.946378" height="291.088369"/>
  </clipPath>
 </defs>
</svg>
