<?xml version="1.0" encoding="utf-8" standalone="no"?>
<!DOCTYPE svg PUBLIC "-//W3C//DTD SVG 1.1//EN"
  "http://www.w3.org/Graphics/SVG/1.1/DTD/svg11.dtd">
<svg xmlns:xlink="http://www.w3.org/1999/xlink" width="478.08pt" height="141.12pt" viewBox="0 0 478.08 141.12" xmlns="http://www.w3.org/2000/svg" version="1.1">
 <metadata>
  <rdf:RDF xmlns:dc="http://purl.org/dc/elements/1.1/" xmlns:cc="http://creativecommons.org/ns#" xmlns:rdf="http://www.w3.org/1999/02/22-rdf-syntax-ns#">
   <cc:Work>
    <dc:type rdf:resource="http://purl.org/dc/dcmitype/StillImage"/>
    <dc:date>2024-04-27T16:44:20.482457</dc:date>
    <dc:format>image/svg+xml</dc:format>
    <dc:creator>
     <cc:Agent>
      <dc:title>Matplotlib v3.7.0, https://matplotlib.org/</dc:title>
     </cc:Agent>
    </dc:creator>
   </cc:Work>
  </rdf:RDF>
 </metadata>
 <defs>
  <style type="text/css">*{stroke-linejoin: round; stroke-linecap: butt}</style>
 </defs>
 <g id="figure_1">
  <g id="patch_1">
   <path d="M 0 141.12 
L 478.08 141.12 
L 478.08 0 
L 0 0 
L 0 141.12 
z
" style="fill: none"/>
  </g>
  <g id="axes_1">
   <g id="patch_2">
    <path d="M 2.834646 138.285354 
L 475.245354 138.285354 
L 475.245354 2.834646 
L 2.834646 2.834646 
L 2.834646 138.285354 
z
" style="fill: none"/>
   </g>
   <g id="line2d_1">
    <path d="M 16.20476 68.843341 
L 17.408191 90.949557 
L 18.745336 114.836834 
L 19.547623 125.626253 
L 20.082481 130.598738 
L 20.617339 133.563681 
L 20.884768 134.265654 
L 21.152197 134.445791 
L 21.419626 134.110816 
L 21.687055 133.273341 
L 22.088199 131.115961 
L 22.623057 126.691015 
L 23.291629 119.039005 
L 24.227631 105.485653 
L 26.901921 64.652377 
L 27.704208 56.207671 
L 28.239066 52.320479 
L 28.773925 49.984164 
L 29.041354 49.420871 
L 29.308783 49.268213 
L 29.442497 49.409535 
L 29.709926 50.255044 
L 30.11107 52.865821 
L 30.645928 58.601613 
L 31.3145 68.686714 
L 32.517931 91.371593 
L 33.855076 115.781002 
L 34.657363 126.566427 
L 35.192221 131.347034 
L 35.593365 133.513975 
L 35.860794 134.259645 
L 36.128223 134.443677 
L 36.395652 134.072128 
L 36.663081 133.157966 
L 37.064224 130.813583 
L 37.599083 126.019622 
L 38.267655 117.76218 
L 39.337371 101.013429 
L 41.476803 66.48604 
L 42.279091 57.142973 
L 42.947663 51.963911 
L 43.348807 50.136686 
L 43.74995 49.312692 
L 43.883665 49.26305 
L 44.017379 49.377031 
L 44.284808 50.208928 
L 44.685952 52.89738 
L 45.22081 58.895597 
L 45.889382 69.485165 
L 47.092813 93.150139 
L 48.296244 115.801849 
L 49.098531 126.901317 
L 49.633389 131.691596 
L 50.034532 133.749919 
L 50.301961 134.368714 
L 50.435676 134.451643 
L 50.569391 134.38463 
L 50.83682 133.806934 
L 51.237963 131.866911 
L 51.772821 127.422751 
L 52.441394 119.316392 
L 53.377395 104.592253 
L 55.784257 64.732708 
L 56.586544 55.69725 
L 57.121402 51.744493 
L 57.522545 49.97938 
L 57.789974 49.391991 
L 58.057403 49.291721 
L 58.324832 49.93307 
L 58.592261 51.390133 
L 58.993405 55.002203 
L 59.528263 62.143743 
L 60.33055 76.510764 
L 62.603697 120.336548 
L 63.272269 128.703791 
L 63.807128 132.810742 
L 64.208271 134.259619 
L 64.4757 134.43699 
L 64.743129 133.991237 
L 65.010558 132.938876 
L 65.411702 130.279068 
L 65.94656 124.90132 
L 66.615132 115.755242 
L 67.684848 97.603899 
L 69.423137 67.984642 
L 70.225424 57.837199 
L 70.893997 52.201439 
L 71.29514 50.213864 
L 71.696284 49.317625 
L 71.829998 49.262988 
L 71.963713 49.382098 
L 72.231142 50.259881 
L 72.632286 53.102471 
L 73.167144 59.442688 
L 73.835716 70.600528 
L 75.172861 98.033765 
L 76.242577 118.134448 
L 76.91115 127.302114 
L 77.446008 132.060196 
L 77.847152 133.971945 
L 78.114581 134.436502 
L 78.248295 134.426342 
L 78.515724 133.928076 
L 78.783153 132.80845 
L 79.184297 130.024242 
L 79.719155 124.449158 
L 80.387727 115.036823 
L 81.591158 94.077887 
L 83.062018 68.792851 
L 83.864305 58.328929 
L 84.532877 52.456204 
L 84.934021 50.347498 
L 85.335165 49.349113 
L 85.468879 49.264755 
L 85.602594 49.336281 
L 85.870023 50.126548 
L 86.137452 51.754574 
L 86.538595 55.656119 
L 87.073453 63.219069 
L 87.87574 78.195202 
L 90.015173 120.306198 
L 90.683745 128.834891 
L 91.218603 132.945501 
L 91.619747 134.31838 
L 91.753461 134.445673 
L 91.887176 134.408796 
L 92.154605 133.849255 
L 92.422034 132.659057 
L 92.823177 129.755194 
L 93.358035 124.005032 
L 94.160323 112.194821 
L 95.631182 85.76576 
L 96.834613 65.89549 
L 97.6369 56.230116 
L 98.171758 51.979884 
L 98.572902 50.067645 
L 98.840331 49.419176 
L 99.10776 49.282319 
L 99.241474 49.485708 
L 99.508903 50.542255 
L 99.910047 53.6719 
L 100.444905 60.408248 
L 101.113477 72.028903 
L 103.921482 125.542442 
L 104.45634 131.044773 
L 104.857484 133.49194 
L 105.124913 134.290881 
L 105.258627 134.4392 
L 105.392342 134.421009 
L 105.659771 133.891676 
L 105.9272 132.722096 
L 106.328343 129.831683 
L 106.863202 124.069868 
L 107.665489 112.194181 
L 109.136348 85.598151 
L 110.339779 65.663963 
L 111.142066 56.030075 
L 111.676924 51.836409 
L 112.078068 49.983578 
L 112.345497 49.381716 
L 112.479211 49.271428 
L 112.612926 49.30689 
L 112.880355 50.027842 
L 113.147784 51.605127 
L 113.548927 55.46641 
L 114.083785 63.039419 
L 114.886072 78.137348 
L 117.025505 120.62341 
L 117.694077 129.11826 
L 118.228935 133.123297 
L 118.496364 134.125647 
L 118.763793 134.451758 
L 118.897508 134.362838 
L 119.164937 133.68994 
L 119.56608 131.487863 
L 120.100939 126.508772 
L 120.769511 117.541113 
L 121.705513 101.562559 
L 123.71123 66.435106 
L 124.513518 56.521268 
L 125.048376 52.133773 
L 125.449519 50.139707 
L 125.716948 49.44787 
L 125.984377 49.272631 
L 126.118092 49.451309 
L 126.385521 50.469086 
L 126.786664 53.567832 
L 127.321522 60.311667 
L 127.990095 72.005074 
L 130.7981 125.817868 
L 131.332958 131.253431 
L 131.734101 133.61542 
L 132.00153 134.342187 
L 132.135245 134.450239 
L 132.268959 134.389235 
L 132.536388 133.767481 
L 132.937532 131.629467 
L 133.47239 126.710852 
L 134.140963 117.779323 
L 135.076964 101.78862 
L 137.082682 66.515412 
L 137.884969 56.549828 
L 138.419827 52.140876 
L 138.820971 50.139034 
L 139.0884 49.44616 
L 139.355829 49.273596 
L 139.489543 49.456183 
L 139.756972 50.484991 
L 140.158116 53.607372 
L 140.692974 60.392413 
L 141.361546 72.143414 
L 144.169551 125.994341 
L 144.704409 131.37297 
L 145.105553 133.680091 
L 145.372982 134.365577 
L 145.506696 134.45184 
L 145.640411 134.368409 
L 145.90784 133.700293 
L 146.308984 131.490564 
L 146.843842 126.476903 
L 147.512414 117.437379 
L 148.58213 98.859014 
L 150.320419 68.073971 
L 151.122706 57.615615 
L 151.657564 52.829169 
L 152.058708 50.533765 
L 152.459851 49.395167 
L 152.72728 49.299234 
L 152.994709 50.003973 
L 153.262138 51.579244 
L 153.663282 55.462174 
L 154.19814 63.10193 
L 155.000427 78.345597 
L 157.006145 118.925571 
L 157.674717 128.050149 
L 158.209575 132.581102 
L 158.610719 134.212518 
L 158.878148 134.442788 
L 159.011863 134.30279 
L 159.279292 133.522626 
L 159.680435 131.150809 
L 160.215293 125.940673 
L 160.883866 116.702633 
L 161.953582 97.951116 
L 163.691871 67.307149 
L 164.494158 57.066169 
L 165.029016 52.461163 
L 165.430159 50.314474 
L 165.831303 49.330831 
L 165.965017 49.262763 
L 166.098732 49.370469 
L 166.366161 50.257631 
L 166.767304 53.192132 
L 167.302162 59.781008 
L 167.970735 71.383372 
L 170.77874 125.589126 
L 171.313598 131.129413 
L 171.714741 133.558355 
L 171.982171 134.32278 
L 172.115885 134.447374 
L 172.2496 134.401332 
L 172.517029 133.804665 
L 172.784458 132.553751 
L 173.185601 129.519901 
L 173.720459 123.540539 
L 174.522746 111.330013 
L 177.59818 59.33391 
L 178.266753 52.963203 
L 178.801611 50.083753 
L 179.06904 49.419479 
L 179.336469 49.285303 
L 179.470183 49.499849 
L 179.737612 50.595873 
L 180.138756 53.82335 
L 180.673614 60.745189 
L 181.342187 72.63921 
L 184.016477 124.686108 
L 184.551335 130.553026 
L 184.952479 133.245794 
L 185.219908 134.189479 
L 185.487337 134.446604 
L 185.621051 134.319752 
L 185.88848 133.56511 
L 186.289624 131.22907 
L 186.824482 126.060481 
L 187.493054 116.861882 
L 188.56277 98.139161 
L 190.301059 67.451846 
L 191.103346 57.163421 
L 191.638204 52.522651 
L 192.039348 50.348949 
L 192.440491 49.339452 
L 192.574206 49.263222 
L 192.70792 49.357381 
L 192.975349 50.218459 
L 193.376493 53.118305 
L 193.911351 59.669572 
L 194.579924 71.238885 
L 197.387928 125.479095 
L 197.922787 131.056729 
L 198.32393 133.5187 
L 198.591359 134.307035 
L 198.725074 134.444032 
L 198.858788 134.410634 
L 199.126217 133.839786 
L 199.393646 132.615071 
L 199.79479 129.620309 
L 200.329648 123.690385 
L 201.131935 111.541271 
L 204.341083 57.994957 
L 204.875941 53.078056 
L 205.410799 50.139616 
L 205.678228 49.444531 
L 205.945657 49.274777 
L 206.079372 49.462206 
L 206.346801 50.505282 
L 206.747945 53.657949 
L 207.282803 60.492275 
L 207.951375 72.303374 
L 210.625665 124.414639 
L 211.160524 130.368813 
L 211.561667 133.138258 
L 211.829096 134.136993 
L 212.096525 134.451329 
L 212.23024 134.353614 
L 212.497669 133.657733 
L 212.898812 131.409284 
L 213.43367 126.351527 
L 214.102243 117.271828 
L 215.171959 98.666329 
L 216.910248 67.919595 
L 217.712535 57.50348 
L 218.247393 52.751799 
L 218.648536 50.485749 
L 219.04968 49.379322 
L 219.183394 49.270295 
L 219.317109 49.311926 
L 219.584538 50.058835 
L 219.851967 51.676047 
L 220.253111 55.61794 
L 220.787969 63.321853 
L 221.590256 78.616465 
L 223.595973 119.091388 
L 224.264546 128.146429 
L 224.799404 132.626501 
L 225.200548 134.226544 
L 225.467977 134.440144 
L 225.601691 134.293218 
L 225.86912 133.502138 
L 226.270264 131.121405 
L 226.805122 125.912658 
L 227.473694 116.69396 
L 228.543411 97.994394 
L 230.281699 67.403455 
L 231.083986 57.149114 
L 231.618844 52.521075 
L 232.019988 50.351191 
L 232.421131 49.340831 
L 232.554846 49.263361 
L 232.688561 49.35476 
L 232.95599 50.208464 
L 233.357133 53.093045 
L 233.891991 59.616714 
L 234.560564 71.143789 
L 237.502283 126.964167 
L 238.037141 131.95115 
L 238.438285 133.953123 
L 238.705714 134.436703 
L 238.839428 134.423762 
L 239.106857 133.896073 
L 239.374286 132.71685 
L 239.77543 129.792827 
L 240.310288 123.957017 
L 241.112575 111.933142 
L 242.717149 82.655468 
L 243.786865 65.127119 
L 244.455438 56.919144 
L 244.990296 52.373814 
L 245.391439 50.26746 
L 245.658869 49.506188 
L 245.926298 49.263103 
L 246.060012 49.389662 
L 246.327441 50.312107 
L 246.728585 53.290876 
L 247.263443 59.917749 
L 247.932015 71.52973 
L 250.74002 125.552782 
L 251.274878 131.087453 
L 251.676022 133.528603 
L 251.943451 134.309263 
L 252.077165 134.444353 
L 252.21088 134.410338 
L 252.478309 133.842074 
L 252.745738 132.624834 
L 253.146881 129.649611 
L 253.681739 123.75829 
L 254.484027 111.681856 
L 256.222315 80.01563 
L 257.292031 63.110571 
L 257.960604 55.487824 
L 258.495462 51.476009 
L 258.896606 49.789042 
L 259.164035 49.309848 
L 259.297749 49.265089 
L 259.431464 49.411019 
L 259.698893 50.370534 
L 260.100036 53.399423 
L 260.634894 60.080011 
L 261.303467 71.734309 
L 264.111472 125.665017 
L 264.64633 131.155408 
L 265.047473 133.563257 
L 265.314902 134.322415 
L 265.448617 134.447093 
L 265.582331 134.402945 
L 265.84976 133.815392 
L 266.117189 132.580369 
L 266.518333 129.581732 
L 267.053191 123.666003 
L 267.855478 111.568484 
L 269.593767 79.913878 
L 270.663483 63.041528 
L 271.332055 55.442909 
L 271.866914 51.450342 
L 272.268057 49.77706 
L 272.535486 49.306419 
L 272.669201 49.266225 
L 272.802915 49.419103 
L 273.070344 50.391633 
L 273.471488 53.437431 
L 274.006346 60.134895 
L 274.674918 71.800522 
L 277.482923 125.693397 
L 278.017781 131.171477 
L 278.418925 133.570976 
L 278.686354 134.32518 
L 278.820068 134.447595 
L 278.953783 134.401335 
L 279.221212 133.810035 
L 279.488641 132.571925 
L 279.889784 129.569916 
L 280.424643 123.65196 
L 281.22693 111.555284 
L 282.965218 79.911534 
L 284.034934 63.044896 
L 284.703507 55.44744 
L 285.238365 51.454122 
L 285.639509 49.779276 
L 285.906938 49.307138 
L 286.040652 49.265948 
L 286.174367 49.417157 
L 286.441796 50.386078 
L 286.842939 53.425976 
L 287.377797 60.11527 
L 288.04637 71.771546 
L 290.854375 125.665768 
L 291.389233 131.153154 
L 291.790376 133.561022 
L 292.057805 134.321294 
L 292.19152 134.446851 
L 292.325234 134.403788 
L 292.592663 133.818989 
L 292.860092 132.587432 
L 293.261236 129.595099 
L 293.796094 123.689189 
L 294.598381 111.60713 
L 296.33667 79.972539 
L 297.406386 63.093875 
L 298.074959 55.482894 
L 298.609817 51.476222 
L 299.01096 49.790308 
L 299.278389 49.310456 
L 299.412104 49.26488 
L 299.545818 49.409128 
L 299.813247 50.364268 
L 300.214391 53.384408 
L 300.749249 60.050478 
L 301.417821 71.685229 
L 304.225826 125.605337 
L 304.760684 131.114752 
L 305.161828 133.540715 
L 305.429257 134.313414 
L 305.562971 134.445216 
L 305.696686 134.408385 
L 305.964115 133.835915 
L 306.231544 132.616348 
L 306.632688 129.640977 
L 307.167546 123.754943 
L 307.969833 111.694772 
L 309.574407 82.457908 
L 310.644123 65.001728 
L 311.312696 56.840946 
L 311.847554 52.32956 
L 312.248697 50.244957 
L 312.516126 49.496051 
L 312.783555 49.263755 
L 312.91727 49.398404 
L 313.184699 50.334731 
L 313.585842 53.328339 
L 314.1207 59.963988 
L 314.789273 71.571626 
L 317.597278 125.530134 
L 318.132136 131.067343 
L 318.533279 133.515691 
L 318.800708 134.303562 
L 318.934423 134.442932 
L 319.068137 134.413617 
L 319.335567 133.855905 
L 319.602996 132.650549 
L 320.004139 129.695029 
L 320.538997 123.831819 
L 321.341284 111.795958 
L 322.945858 82.566405 
L 324.015575 65.086686 
L 324.684147 56.902726 
L 325.219005 52.369763 
L 325.620149 50.267948 
L 325.887578 49.507342 
L 326.155007 49.263002 
L 326.288721 49.387369 
L 326.55615 50.303621 
L 326.957294 53.269117 
L 327.492152 59.872866 
L 328.160725 71.452565 
L 330.968729 125.453162 
L 331.503587 131.018935 
L 331.904731 133.490073 
L 332.17216 134.293296 
L 332.305875 134.440295 
L 332.439589 134.418536 
L 332.707018 133.875607 
L 332.974447 132.684413 
L 333.375591 129.748547 
L 333.910449 123.907705 
L 334.712736 111.895228 
L 336.31731 82.671438 
L 337.387026 65.168234 
L 338.055599 56.961757 
L 338.590457 52.408089 
L 338.9916 50.289895 
L 339.392744 49.326043 
L 339.526458 49.262725 
L 339.660173 49.377433 
L 339.927602 50.274876 
L 340.328745 53.214141 
L 340.863603 59.788317 
L 341.532176 71.342394 
L 344.340181 125.38294 
L 344.875039 130.974811 
L 345.276182 133.466645 
L 345.543612 134.283749 
L 345.811041 134.422672 
L 346.07847 133.893019 
L 346.345899 132.714499 
L 346.747042 129.796138 
L 347.2819 123.975079 
L 348.084187 111.983003 
L 349.688762 82.763428 
L 350.758478 65.239212 
L 351.560765 55.691901 
L 352.095623 51.603796 
L 352.496766 49.853818 
L 352.764195 49.330813 
L 352.89791 49.262775 
L 353.031624 49.369262 
L 353.299053 50.250642 
L 353.700197 53.167578 
L 354.235055 59.716711 
L 354.903628 71.249277 
L 357.845347 126.959626 
L 358.380205 131.941308 
L 358.781349 133.94631 
L 359.048778 134.435214 
L 359.182492 134.425881 
L 359.449921 133.907172 
L 359.71735 132.739069 
L 360.118494 129.835039 
L 360.653352 124.03007 
L 361.455639 112.054387 
L 363.060213 82.837597 
L 364.129929 65.296108 
L 364.932216 55.729311 
L 365.467074 51.626542 
L 365.868218 49.86524 
L 366.135647 49.334703 
L 366.269361 49.262938 
L 366.403076 49.363029 
L 366.670505 50.231759 
L 367.071649 53.131166 
L 367.606507 59.660736 
L 368.275079 71.176649 
L 371.216798 126.918485 
L 371.751657 131.917342 
L 372.1528 133.935605 
L 372.420229 134.433247 
L 372.553944 134.4282 
L 372.821373 133.917816 
L 373.088802 132.757612 
L 373.489945 129.864401 
L 374.024803 124.071496 
L 374.82709 112.107939 
L 376.29795 85.327382 
L 377.501381 65.338106 
L 378.303668 55.756798 
L 378.838526 51.64322 
L 379.239669 49.873625 
L 379.507098 49.337598 
L 379.640813 49.263123 
L 379.774527 49.358626 
L 380.041957 50.218195 
L 380.4431 53.104956 
L 380.977958 59.620501 
L 381.646531 71.124602 
L 383.251105 104.79352 
L 384.187106 121.531214 
L 384.855679 129.715189 
L 385.256823 132.744993 
L 385.657966 134.264856 
L 385.925395 134.429751 
L 386.192824 133.925155 
L 386.460253 132.770419 
L 386.861397 129.884658 
L 387.396255 124.099988 
L 388.198542 112.144562 
L 389.669402 85.365274 
L 390.872832 65.366208 
L 391.675119 55.775067 
L 392.209977 51.654262 
L 392.611121 49.87917 
L 392.87855 49.339528 
L 393.012264 49.263275 
L 393.145979 49.355798 
L 393.413408 50.209389 
L 393.814552 53.087945 
L 394.34941 59.594468 
L 395.017982 71.091095 
L 396.622556 104.760333 
L 397.558558 121.507664 
L 398.227131 129.700782 
L 398.628274 132.73641 
L 399.029418 134.262058 
L 399.296847 134.430683 
L 399.564276 133.929649 
L 399.831705 132.778257 
L 400.232848 129.897014 
L 400.767706 124.117269 
L 401.569993 112.166564 
L 403.040853 85.387601 
L 404.244284 65.382483 
L 405.046571 55.785521 
L 405.581429 51.660529 
L 405.982572 49.882302 
L 406.250002 49.340619 
L 406.383716 49.263371 
L 406.517431 49.354239 
L 406.78486 50.204513 
L 407.186003 53.078561 
L 407.720861 59.58021 
L 408.389434 71.072925 
L 409.994008 104.742813 
L 410.93001 121.495446 
L 411.598582 129.693405 
L 411.999726 132.732049 
L 412.400869 134.260644 
L 412.668298 134.431141 
L 412.935727 133.931873 
L 413.203156 132.782117 
L 413.6043 129.903042 
L 414.139158 124.125585 
L 414.941445 112.176919 
L 416.412305 85.397633 
L 417.615735 65.38948 
L 418.418022 55.789869 
L 418.95288 51.663076 
L 419.354024 49.883552 
L 419.621453 49.341051 
L 419.755168 49.26341 
L 419.888882 49.353637 
L 420.156311 50.202645 
L 420.557455 53.075025 
L 421.092313 59.574969 
L 421.760885 71.066469 
L 423.365459 104.737163 
L 424.301461 121.491772 
L 424.970034 129.691311 
L 425.371177 132.730858 
L 425.772321 134.260274 
L 426.03975 134.431257 
L 426.307179 133.932418 
L 426.574608 132.783031 
L 426.975751 129.904391 
L 427.510609 124.127292 
L 428.312897 112.178731 
L 429.783756 85.398736 
L 430.987187 65.389796 
L 431.789474 55.789846 
L 432.324332 51.662967 
L 432.725476 49.883461 
L 432.992905 49.34101 
L 433.126619 49.263406 
L 433.260334 49.353706 
L 433.527763 50.202895 
L 433.928906 53.075604 
L 434.463764 59.576054 
L 435.132337 71.068196 
L 436.736911 104.739717 
L 437.672913 121.493964 
L 438.341485 129.692828 
L 438.742629 132.731828 
L 439.143772 134.260613 
L 439.411201 134.431142 
L 439.67863 133.931831 
L 439.946059 132.781962 
L 440.347203 129.9026 
L 440.882061 124.124583 
L 441.684348 112.174873 
L 443.155208 85.393992 
L 444.358638 65.38579 
L 445.160926 55.787019 
L 445.695784 51.661165 
L 446.096927 49.882518 
L 446.364356 49.34067 
L 446.498071 49.263374 
L 446.631785 49.354199 
L 446.899214 50.204479 
L 447.300358 53.078764 
L 447.835216 59.581088 
L 448.503788 71.074998 
L 450.108363 104.747273 
L 451.044364 121.499695 
L 451.712937 129.696505 
L 452.11408 132.734083 
L 452.515224 134.261373 
L 452.782653 134.430891 
L 453.050082 133.930577 
L 453.317511 132.779729 
L 453.718654 129.898976 
L 454.253513 124.119317 
L 455.0558 112.167773 
L 456.526659 85.385987 
L 457.73009 65.379426 
L 458.532377 55.782686 
L 459.067235 51.658463 
L 459.468379 49.881127 
L 459.735808 49.340175 
L 459.869522 49.26333 
L 460.003237 49.354911 
L 460.270666 50.206745 
L 460.671809 53.083233 
L 461.206667 59.588099 
L 461.87524 71.084307 
L 461.87524 71.084307 
" clip-path="url(#pc2966b7c33)" style="fill: none; stroke: #009afa; stroke-width: 6"/>
   </g>
   <g id="matplotlib.axis_1"/>
   <g id="matplotlib.axis_2"/>
   <g id="line2d_2">
    <path d="M 16.20476 49.262719 
L 16.338475 49.346769 
L 16.605904 50.017186 
L 17.007047 52.253859 
L 17.408191 55.893503 
L 17.943049 62.699297 
L 18.745336 76.177177 
L 21.419626 124.676956 
L 21.954484 130.397994 
L 22.355628 133.113657 
L 22.756771 134.367793 
L 22.890486 134.451844 
L 23.0242 134.367793 
L 23.291629 133.697377 
L 23.692773 131.460704 
L 24.093916 127.82106 
L 24.628775 121.015266 
L 25.431062 107.537385 
L 28.105352 59.037607 
L 28.64021 53.316569 
L 29.041354 50.600905 
L 29.442497 49.346769 
L 29.576212 49.262719 
L 29.709926 49.346769 
L 29.977355 50.017186 
L 30.378499 52.253859 
L 30.779642 55.893503 
L 31.3145 62.699297 
L 32.116787 76.177177 
L 34.791078 124.676956 
L 35.325936 130.397994 
L 35.727079 133.113657 
L 36.128223 134.367793 
L 36.261937 134.451844 
L 36.395652 134.367793 
L 36.663081 133.697377 
L 37.064224 131.460704 
L 37.465368 127.82106 
L 38.000226 121.015266 
L 38.802513 107.537385 
L 41.476803 59.037607 
L 42.011662 53.316569 
L 42.412805 50.600905 
L 42.813949 49.346769 
L 42.947663 49.262719 
L 43.081378 49.346769 
L 43.348807 50.017186 
L 43.74995 52.253859 
L 44.151094 55.893503 
L 44.685952 62.699297 
L 45.488239 76.177177 
L 48.162529 124.676956 
L 48.697387 130.397994 
L 49.098531 133.113657 
L 49.499674 134.367793 
L 49.633389 134.451844 
L 49.767103 134.367793 
L 50.034532 133.697377 
L 50.435676 131.460704 
L 50.83682 127.82106 
L 51.371678 121.015266 
L 52.173965 107.537385 
L 54.848255 59.037607 
L 55.383113 53.316569 
L 55.784257 50.600905 
L 56.1854 49.346769 
L 56.319115 49.262719 
L 56.452829 49.346769 
L 56.720258 50.017186 
L 57.121402 52.253859 
L 57.522545 55.893503 
L 58.057403 62.699297 
L 58.85969 76.177177 
L 61.533981 124.676956 
L 62.068839 130.397994 
L 62.469982 133.113657 
L 62.871126 134.367793 
L 63.00484 134.451844 
L 63.138555 134.367793 
L 63.405984 133.697377 
L 63.807128 131.460704 
L 64.208271 127.82106 
L 64.743129 121.015266 
L 65.545416 107.537385 
L 68.219707 59.037607 
L 68.754565 53.316569 
L 69.155708 50.600905 
L 69.556852 49.346769 
L 69.690566 49.262719 
L 69.824281 49.346769 
L 70.09171 50.017186 
L 70.492853 52.253859 
L 70.893997 55.893503 
L 71.428855 62.699297 
L 72.231142 76.177177 
L 74.905432 124.676956 
L 75.44029 130.397994 
L 75.841434 133.113657 
L 76.242577 134.367793 
L 76.376292 134.451844 
L 76.510007 134.367793 
L 76.777436 133.697377 
L 77.178579 131.460704 
L 77.579723 127.82106 
L 78.114581 121.015266 
L 78.916868 107.537385 
L 81.591158 59.037607 
L 82.126016 53.316569 
L 82.52716 50.600905 
L 82.928303 49.346769 
L 83.062018 49.262719 
L 83.195732 49.346769 
L 83.463161 50.017186 
L 83.864305 52.253859 
L 84.265448 55.893503 
L 84.800306 62.699297 
L 85.602594 76.177177 
L 88.276884 124.676956 
L 88.811742 130.397994 
L 89.212885 133.113657 
L 89.614029 134.367793 
L 89.747744 134.451844 
L 89.881458 134.367793 
L 90.148887 133.697377 
L 90.550031 131.460704 
L 90.951174 127.82106 
L 91.486032 121.015266 
L 92.288319 107.537385 
L 94.96261 59.037607 
L 95.497468 53.316569 
L 95.898611 50.600905 
L 96.299755 49.346769 
L 96.433469 49.262719 
L 96.567184 49.346769 
L 96.834613 50.017186 
L 97.235756 52.253859 
L 97.6369 55.893503 
L 98.171758 62.699297 
L 98.974045 76.177177 
L 101.648335 124.676956 
L 102.183193 130.397994 
L 102.584337 133.113657 
L 102.985481 134.367793 
L 103.119195 134.451844 
L 103.25291 134.367793 
L 103.520339 133.697377 
L 103.921482 131.460704 
L 104.322626 127.82106 
L 104.857484 121.015266 
L 105.659771 107.537385 
L 108.334061 59.037607 
L 108.868919 53.316569 
L 109.270063 50.600905 
L 109.671206 49.346769 
L 109.804921 49.262719 
L 109.938635 49.346769 
L 110.206064 50.017186 
L 110.607208 52.253859 
L 111.008351 55.893503 
L 111.54321 62.699297 
L 112.345497 76.177177 
L 115.019787 124.676956 
L 115.554645 130.397994 
L 115.955789 133.113657 
L 116.356932 134.367793 
L 116.490647 134.451844 
L 116.624361 134.367793 
L 116.89179 133.697377 
L 117.292934 131.460704 
L 117.694077 127.82106 
L 118.228935 121.015266 
L 119.031222 107.537385 
L 121.705513 59.037607 
L 122.240371 53.316569 
L 122.641514 50.600905 
L 123.042658 49.346769 
L 123.176372 49.262719 
L 123.310087 49.346769 
L 123.577516 50.017186 
L 123.978659 52.253859 
L 124.379803 55.893503 
L 124.914661 62.699297 
L 125.716948 76.177177 
L 128.391238 124.676956 
L 128.926097 130.397994 
L 129.32724 133.113657 
L 129.728384 134.367793 
L 129.862098 134.451844 
L 129.995813 134.367793 
L 130.263242 133.697377 
L 130.664385 131.460704 
L 131.065529 127.82106 
L 131.600387 121.015266 
L 132.402674 107.537385 
L 135.076964 59.037607 
L 135.611822 53.316569 
L 136.012966 50.600905 
L 136.414109 49.346769 
L 136.547824 49.262719 
L 136.681538 49.346769 
L 136.948967 50.017186 
L 137.350111 52.253859 
L 137.751255 55.893503 
L 138.286113 62.699297 
L 139.0884 76.177177 
L 141.76269 124.676956 
L 142.297548 130.397994 
L 142.698692 133.113657 
L 143.099835 134.367793 
L 143.23355 134.451844 
L 143.367264 134.367793 
L 143.634693 133.697377 
L 144.035837 131.460704 
L 144.43698 127.82106 
L 144.971838 121.015266 
L 145.774125 107.537385 
L 148.448416 59.037607 
L 148.983274 53.316569 
L 149.384417 50.600905 
L 149.785561 49.346769 
L 149.919275 49.262719 
L 150.05299 49.346769 
L 150.320419 50.017186 
L 150.721563 52.253859 
L 151.122706 55.893503 
L 151.657564 62.699297 
L 152.459851 76.177177 
L 155.134142 124.676956 
L 155.669 130.397994 
L 156.070143 133.113657 
L 156.471287 134.367793 
L 156.605001 134.451844 
L 156.738716 134.367793 
L 157.006145 133.697377 
L 157.407288 131.460704 
L 157.808432 127.82106 
L 158.34329 121.015266 
L 159.145577 107.537385 
L 161.819867 59.037607 
L 162.354725 53.316569 
L 162.755869 50.600905 
L 163.157013 49.346769 
L 163.290727 49.262719 
L 163.424442 49.346769 
L 163.691871 50.017186 
L 164.093014 52.253859 
L 164.494158 55.893503 
L 165.029016 62.699297 
L 165.831303 76.177177 
L 168.505593 124.676956 
L 169.040451 130.397994 
L 169.441595 133.113657 
L 169.842738 134.367793 
L 169.976453 134.451844 
L 170.110167 134.367793 
L 170.377596 133.697377 
L 170.77874 131.460704 
L 171.179883 127.82106 
L 171.714741 121.015266 
L 172.517029 107.537385 
L 175.191319 59.037607 
L 175.726177 53.316569 
L 176.12732 50.600905 
L 176.528464 49.346769 
L 176.662179 49.262719 
L 176.795893 49.346769 
L 177.063322 50.017186 
L 177.464466 52.253859 
L 177.865609 55.893503 
L 178.400467 62.699297 
L 179.202754 76.177177 
L 181.877045 124.676956 
L 182.411903 130.397994 
L 182.813046 133.113657 
L 183.21419 134.367793 
L 183.347904 134.451844 
L 183.481619 134.367793 
L 183.749048 133.697377 
L 184.150191 131.460704 
L 184.551335 127.82106 
L 185.086193 121.015266 
L 185.88848 107.537385 
L 188.56277 59.037607 
L 189.097628 53.316569 
L 189.498772 50.600905 
L 189.899916 49.346769 
L 190.03363 49.262719 
L 190.167345 49.346769 
L 190.434774 50.017186 
L 190.835917 52.253859 
L 191.237061 55.893503 
L 191.771919 62.699297 
L 192.574206 76.177177 
L 195.248496 124.676956 
L 195.783354 130.397994 
L 196.184498 133.113657 
L 196.585641 134.367793 
L 196.719356 134.451844 
L 196.85307 134.367793 
L 197.120499 133.697377 
L 197.521643 131.460704 
L 197.922787 127.82106 
L 198.457645 121.015266 
L 199.259932 107.537385 
L 201.934222 59.037607 
L 202.46908 53.316569 
L 202.870224 50.600905 
L 203.271367 49.346769 
L 203.405082 49.262719 
L 203.538796 49.346769 
L 203.806225 50.017186 
L 204.207369 52.253859 
L 204.608512 55.893503 
L 205.14337 62.699297 
L 205.945657 76.177177 
L 208.619948 124.676956 
L 209.154806 130.397994 
L 209.555949 133.113657 
L 209.957093 134.367793 
L 210.090807 134.451844 
L 210.224522 134.367793 
L 210.491951 133.697377 
L 210.893095 131.460704 
L 211.294238 127.82106 
L 211.829096 121.015266 
L 212.631383 107.537385 
L 215.305674 59.037607 
L 215.840532 53.316569 
L 216.241675 50.600905 
L 216.642819 49.346769 
L 216.776533 49.262719 
L 216.910248 49.346769 
L 217.177677 50.017186 
L 217.57882 52.253859 
L 217.979964 55.893503 
L 218.514822 62.699297 
L 219.317109 76.177177 
L 221.991399 124.676956 
L 222.526257 130.397994 
L 222.927401 133.113657 
L 223.328544 134.367793 
L 223.462259 134.451844 
L 223.595973 134.367793 
L 223.863403 133.697377 
L 224.264546 131.460704 
L 224.66569 127.82106 
L 225.200548 121.015266 
L 226.002835 107.537385 
L 228.677125 59.037607 
L 229.211983 53.316569 
L 229.613127 50.600905 
L 230.01427 49.346769 
L 230.147985 49.262719 
L 230.281699 49.346769 
L 230.549128 50.017186 
L 230.950272 52.253859 
L 231.351415 55.893503 
L 231.886273 62.699297 
L 232.688561 76.177177 
L 235.362851 124.676956 
L 235.897709 130.397994 
L 236.298852 133.113657 
L 236.699996 134.367793 
L 236.83371 134.451844 
L 236.967425 134.367793 
L 237.234854 133.697377 
L 237.635998 131.460704 
L 238.037141 127.82106 
L 238.571999 121.015266 
L 239.374286 107.537385 
L 242.048577 59.037607 
L 242.583435 53.316569 
L 242.984578 50.600905 
L 243.385722 49.346769 
L 243.519436 49.262719 
L 243.653151 49.346769 
L 243.92058 50.017186 
L 244.321723 52.253859 
L 244.722867 55.893503 
L 245.257725 62.699297 
L 246.060012 76.177177 
L 248.734302 124.676956 
L 249.26916 130.397994 
L 249.670304 133.113657 
L 250.071448 134.367793 
L 250.205162 134.451844 
L 250.338877 134.367793 
L 250.606306 133.697377 
L 251.007449 131.460704 
L 251.408593 127.82106 
L 251.943451 121.015266 
L 252.745738 107.537385 
L 255.420028 59.037607 
L 255.954886 53.316569 
L 256.35603 50.600905 
L 256.757173 49.346769 
L 256.890888 49.262719 
L 257.024602 49.346769 
L 257.292031 50.017186 
L 257.693175 52.253859 
L 258.094318 55.893503 
L 258.629177 62.699297 
L 259.431464 76.177177 
L 262.105754 124.676956 
L 262.640612 130.397994 
L 263.041756 133.113657 
L 263.442899 134.367793 
L 263.576614 134.451844 
L 263.710328 134.367793 
L 263.977757 133.697377 
L 264.378901 131.460704 
L 264.780044 127.82106 
L 265.314902 121.015266 
L 266.117189 107.537385 
L 268.79148 59.037607 
L 269.326338 53.316569 
L 269.727481 50.600905 
L 270.128625 49.346769 
L 270.262339 49.262719 
L 270.396054 49.346769 
L 270.663483 50.017186 
L 271.064626 52.253859 
L 271.46577 55.893503 
L 272.000628 62.699297 
L 272.802915 76.177177 
L 275.477205 124.676956 
L 276.012064 130.397994 
L 276.413207 133.113657 
L 276.814351 134.367793 
L 276.948065 134.451844 
L 277.08178 134.367793 
L 277.349209 133.697377 
L 277.750352 131.460704 
L 278.151496 127.82106 
L 278.686354 121.015266 
L 279.488641 107.537385 
L 282.162931 59.037607 
L 282.697789 53.316569 
L 283.098933 50.600905 
L 283.500076 49.346769 
L 283.633791 49.262719 
L 283.767505 49.346769 
L 284.034934 50.017186 
L 284.436078 52.253859 
L 284.837222 55.893503 
L 285.37208 62.699297 
L 286.174367 76.177177 
L 288.848657 124.676956 
L 289.383515 130.397994 
L 289.784659 133.113657 
L 290.185802 134.367793 
L 290.319517 134.451844 
L 290.453231 134.367793 
L 290.72066 133.697377 
L 291.121804 131.460704 
L 291.522947 127.82106 
L 292.057805 121.015266 
L 292.860092 107.537385 
L 295.534383 59.037607 
L 296.069241 53.316569 
L 296.470384 50.600905 
L 296.871528 49.346769 
L 297.005242 49.262719 
L 297.138957 49.346769 
L 297.406386 50.017186 
L 297.80753 52.253859 
L 298.208673 55.893503 
L 298.743531 62.699297 
L 299.545818 76.177177 
L 302.220109 124.676956 
L 302.754967 130.397994 
L 303.15611 133.113657 
L 303.557254 134.367793 
L 303.690968 134.451844 
L 303.824683 134.367793 
L 304.092112 133.697377 
L 304.493255 131.460704 
L 304.894399 127.82106 
L 305.429257 121.015266 
L 306.231544 107.537385 
L 308.905834 59.037607 
L 309.440692 53.316569 
L 309.841836 50.600905 
L 310.242979 49.346769 
L 310.376694 49.262719 
L 310.510408 49.346769 
L 310.777838 50.017186 
L 311.178981 52.253859 
L 311.580125 55.893503 
L 312.114983 62.699297 
L 312.91727 76.177177 
L 315.59156 124.676956 
L 316.126418 130.397994 
L 316.527562 133.113657 
L 316.928705 134.367793 
L 317.06242 134.451844 
L 317.196134 134.367793 
L 317.463563 133.697377 
L 317.864707 131.460704 
L 318.26585 127.82106 
L 318.800708 121.015266 
L 319.602996 107.537385 
L 322.277286 59.037607 
L 322.812144 53.316569 
L 323.213287 50.600905 
L 323.614431 49.346769 
L 323.748146 49.262719 
L 323.88186 49.346769 
L 324.149289 50.017186 
L 324.550433 52.253859 
L 324.951576 55.893503 
L 325.486434 62.699297 
L 326.288721 76.177177 
L 328.963012 124.676956 
L 329.49787 130.397994 
L 329.899013 133.113657 
L 330.300157 134.367793 
L 330.433871 134.451844 
L 330.567586 134.367793 
L 330.835015 133.697377 
L 331.236158 131.460704 
L 331.637302 127.82106 
L 332.17216 121.015266 
L 332.974447 107.537385 
L 335.648737 59.037607 
L 336.183595 53.316569 
L 336.584739 50.600905 
L 336.985883 49.346769 
L 337.119597 49.262719 
L 337.253312 49.346769 
L 337.520741 50.017186 
L 337.921884 52.253859 
L 338.323028 55.893503 
L 338.857886 62.699297 
L 339.660173 76.177177 
L 342.334463 124.676956 
L 342.869321 130.397994 
L 343.270465 133.113657 
L 343.671608 134.367793 
L 343.805323 134.451844 
L 343.939037 134.367793 
L 344.206466 133.697377 
L 344.60761 131.460704 
L 345.008753 127.82106 
L 345.543612 121.015266 
L 346.345899 107.537385 
L 349.020189 59.037607 
L 349.555047 53.316569 
L 349.956191 50.600905 
L 350.357334 49.346769 
L 350.491049 49.262719 
L 350.624763 49.346769 
L 350.892192 50.017186 
L 351.293336 52.253859 
L 351.694479 55.893503 
L 352.229337 62.699297 
L 353.031624 76.177177 
L 355.705915 124.676956 
L 356.240773 130.397994 
L 356.641916 133.113657 
L 357.04306 134.367793 
L 357.176774 134.451844 
L 357.310489 134.367793 
L 357.577918 133.697377 
L 357.979061 131.460704 
L 358.380205 127.82106 
L 358.915063 121.015266 
L 359.71735 107.537385 
L 362.39164 59.037607 
L 362.926499 53.316569 
L 363.327642 50.600905 
L 363.728786 49.346769 
L 363.8625 49.262719 
L 363.996215 49.346769 
L 364.263644 50.017186 
L 364.664787 52.253859 
L 365.065931 55.893503 
L 365.600789 62.699297 
L 366.403076 76.177177 
L 369.077366 124.676956 
L 369.612224 130.397994 
L 370.013368 133.113657 
L 370.414511 134.367793 
L 370.548226 134.451844 
L 370.68194 134.367793 
L 370.949369 133.697377 
L 371.350513 131.460704 
L 371.751657 127.82106 
L 372.286515 121.015266 
L 373.088802 107.537385 
L 375.763092 59.037607 
L 376.29795 53.316569 
L 376.699094 50.600905 
L 377.100237 49.346769 
L 377.233952 49.262719 
L 377.367666 49.346769 
L 377.635095 50.017186 
L 378.036239 52.253859 
L 378.437382 55.893503 
L 378.97224 62.699297 
L 379.774527 76.177177 
L 382.448818 124.676956 
L 382.983676 130.397994 
L 383.384819 133.113657 
L 383.785963 134.367793 
L 383.919677 134.451844 
L 384.053392 134.367793 
L 384.320821 133.697377 
L 384.721965 131.460704 
L 385.123108 127.82106 
L 385.657966 121.015266 
L 386.460253 107.537385 
L 389.134544 59.037607 
L 389.669402 53.316569 
L 390.070545 50.600905 
L 390.471689 49.346769 
L 390.605403 49.262719 
L 390.739118 49.346769 
L 391.006547 50.017186 
L 391.40769 52.253859 
L 391.808834 55.893503 
L 392.343692 62.699297 
L 393.145979 76.177177 
L 395.820269 124.676956 
L 396.355127 130.397994 
L 396.756271 133.113657 
L 397.157414 134.367793 
L 397.291129 134.451844 
L 397.424844 134.367793 
L 397.692273 133.697377 
L 398.093416 131.460704 
L 398.49456 127.82106 
L 399.029418 121.015266 
L 399.831705 107.537385 
L 402.505995 59.037607 
L 403.040853 53.316569 
L 403.441997 50.600905 
L 403.84314 49.346769 
L 403.976855 49.262719 
L 404.110569 49.346769 
L 404.377998 50.017186 
L 404.779142 52.253859 
L 405.180285 55.893503 
L 405.715143 62.699297 
L 406.517431 76.177177 
L 409.191721 124.676956 
L 409.726579 130.397994 
L 410.127722 133.113657 
L 410.528866 134.367793 
L 410.662581 134.451844 
L 410.796295 134.367793 
L 411.063724 133.697377 
L 411.464868 131.460704 
L 411.866011 127.82106 
L 412.400869 121.015266 
L 413.203156 107.537385 
L 415.877447 59.037607 
L 416.412305 53.316569 
L 416.813448 50.600905 
L 417.214592 49.346769 
L 417.348306 49.262719 
L 417.482021 49.346769 
L 417.74945 50.017186 
L 418.150593 52.253859 
L 418.551737 55.893503 
L 419.086595 62.699297 
L 419.888882 76.177177 
L 422.563172 124.676956 
L 423.09803 130.397994 
L 423.499174 133.113657 
L 423.900318 134.367793 
L 424.034032 134.451844 
L 424.167747 134.367793 
L 424.435176 133.697377 
L 424.836319 131.460704 
L 425.237463 127.82106 
L 425.772321 121.015266 
L 426.574608 107.537385 
L 429.248898 59.037607 
L 429.783756 53.316569 
L 430.1849 50.600905 
L 430.586043 49.346769 
L 430.719758 49.262719 
L 430.853472 49.346769 
L 431.120901 50.017186 
L 431.522045 52.253859 
L 431.923188 55.893503 
L 432.458047 62.699297 
L 433.260334 76.177177 
L 435.934624 124.676956 
L 436.469482 130.397994 
L 436.870626 133.113657 
L 437.271769 134.367793 
L 437.405484 134.451844 
L 437.539198 134.367793 
L 437.806627 133.697377 
L 438.207771 131.460704 
L 438.608914 127.82106 
L 439.143772 121.015266 
L 439.946059 107.537385 
L 442.62035 59.037607 
L 443.155208 53.316569 
L 443.556351 50.600905 
L 443.957495 49.346769 
L 444.091209 49.262719 
L 444.224924 49.346769 
L 444.492353 50.017186 
L 444.893496 52.253859 
L 445.29464 55.893503 
L 445.829498 62.699297 
L 446.631785 76.177177 
L 449.306075 124.676956 
L 449.840934 130.397994 
L 450.242077 133.113657 
L 450.643221 134.367793 
L 450.776935 134.451844 
L 450.91065 134.367793 
L 451.178079 133.697377 
L 451.579222 131.460704 
L 451.980366 127.82106 
L 452.515224 121.015266 
L 453.317511 107.537385 
L 455.991801 59.037607 
L 456.526659 53.316569 
L 456.927803 50.600905 
L 457.328946 49.346769 
L 457.462661 49.262719 
L 457.596375 49.346769 
L 457.863804 50.017186 
L 458.264948 52.253859 
L 458.666092 55.893503 
L 459.20095 62.699297 
L 460.003237 76.177177 
L 461.87524 112.377368 
L 461.87524 112.377368 
" clip-path="url(#pc2966b7c33)" style="fill: none; stroke: #e36f47; stroke-width: 6"/>
   </g>
   <g id="line2d_3">
    <path d="M 16.20476 6.668156 
L 19.547623 12.823625 
L 23.0242 18.753961 
L 26.500778 24.239311 
L 29.175068 28.177075 
L 29.308783 7.085826 
L 32.651645 13.211116 
L 36.128223 19.112376 
L 39.6048 24.570832 
L 43.081378 29.619709 
L 43.74995 30.546306 
L 43.883665 9.436309 
L 47.226528 15.391761 
L 50.703105 21.129395 
L 54.179682 26.436503 
L 57.65626 31.345389 
L 57.923689 31.707373 
L 58.057403 10.623599 
L 61.400266 16.493262 
L 64.876844 22.148244 
L 68.353421 27.378902 
L 71.696284 32.037885 
L 71.829998 10.922974 
L 75.172861 16.771005 
L 78.649439 22.405147 
L 82.126016 27.616528 
L 85.468879 32.25834 
L 85.602594 11.191818 
L 88.945456 17.020423 
L 92.422034 22.635849 
L 95.898611 27.829919 
L 98.974045 32.098836 
L 99.10776 11.007392 
L 102.450623 16.849323 
L 105.9272 22.477588 
L 109.403777 27.683533 
L 112.479211 31.96221 
L 112.612926 10.884475 
L 115.955789 16.735287 
L 119.432366 22.372109 
L 122.908943 27.585969 
L 125.850663 31.690922 
L 125.984377 10.592818 
L 129.32724 16.464705 
L 132.803818 22.12183 
L 136.280395 27.354469 
L 139.222114 31.474208 
L 139.355829 10.377603 
L 142.698692 16.26504 
L 146.175269 21.937147 
L 149.651846 27.183645 
L 152.593566 31.314294 
L 152.72728 10.234576 
L 156.070143 16.132348 
L 159.546721 21.814411 
L 163.023298 27.070118 
L 165.965017 31.208018 
L 166.098732 10.154536 
L 169.441595 16.058092 
L 172.918172 21.745727 
L 176.39475 27.006588 
L 179.202754 30.966146 
L 179.336469 9.87968 
L 182.679332 15.803095 
L 186.155909 21.509865 
L 189.632487 26.788423 
L 192.574206 30.944315 
L 192.70792 9.887676 
L 196.050783 15.810514 
L 199.527361 21.516727 
L 203.003938 26.79477 
L 205.811943 30.767261 
L 205.945657 9.673738 
L 209.28852 15.612034 
L 212.765098 21.33314 
L 216.241675 26.624959 
L 219.183394 30.791292 
L 219.317109 9.718901 
L 222.659972 15.653934 
L 226.136549 21.371896 
L 229.613127 26.660807 
L 232.554846 30.82485 
L 232.688561 9.767828 
L 236.031423 15.699325 
L 239.508001 21.413881 
L 242.984578 26.699642 
L 245.792583 30.677941 
L 245.926298 9.567634 
L 249.26916 15.513597 
L 252.745738 21.242089 
L 256.222315 26.54074 
L 259.164035 30.712451 
L 259.297749 9.607553 
L 262.640612 15.550632 
L 266.117189 21.276345 
L 269.593767 26.572426 
L 272.535486 30.742113 
L 272.669201 9.639125 
L 276.012064 15.579922 
L 279.488641 21.303438 
L 282.965218 26.597486 
L 285.906938 30.765573 
L 286.040652 9.662065 
L 289.383515 15.601205 
L 292.860092 21.323123 
L 296.33667 26.615694 
L 299.278389 30.782618 
L 299.412104 9.677101 
L 302.754967 15.615154 
L 306.231544 21.336026 
L 309.708121 26.627629 
L 312.649841 30.79379 
L 312.783555 9.685528 
L 316.126418 15.622972 
L 319.602996 21.343257 
L 323.079573 26.634318 
L 326.021292 30.800052 
L 326.155007 9.688861 
L 329.49787 15.626064 
L 332.974447 21.346117 
L 336.451024 26.636963 
L 339.392744 30.802528 
L 339.526458 9.688595 
L 342.869321 15.625818 
L 346.345899 21.345889 
L 349.822476 26.636752 
L 352.89791 30.985221 
L 353.031624 9.932201 
L 356.374487 15.851822 
L 359.851065 21.554935 
L 363.327642 26.830112 
L 366.269361 30.983341 
L 366.403076 9.928485 
L 369.745939 15.848374 
L 373.222516 21.551746 
L 376.699094 26.827162 
L 379.640813 30.980579 
L 379.774527 9.924394 
L 383.11739 15.844579 
L 386.593968 21.548236 
L 390.070545 26.823915 
L 393.012264 30.97754 
L 393.145979 9.920489 
L 396.488842 15.840956 
L 399.965419 21.544884 
L 403.441997 26.820815 
L 406.383716 30.974638 
L 406.517431 9.917106 
L 409.860293 15.837817 
L 413.336871 21.541982 
L 416.813448 26.81813 
L 419.755168 30.972125 
L 419.888882 9.914409 
L 423.231745 15.835316 
L 426.708322 21.539667 
L 430.1849 26.81599 
L 433.126619 30.970121 
L 433.260334 9.912432 
L 436.603197 15.833481 
L 440.079774 21.53797 
L 443.556351 26.81442 
L 446.498071 30.968652 
L 446.631785 9.911121 
L 449.974648 15.832265 
L 453.451225 21.536845 
L 456.927803 26.81338 
L 459.869522 30.967677 
L 460.003237 9.910372 
L 461.87524 13.280866 
L 461.87524 13.280866 
" clip-path="url(#pc2966b7c33)" style="fill: none; stroke: #3ea44e; stroke-width: 6"/>
   </g>
  </g>
 </g>
 <defs>
  <clipPath id="pc2966b7c33">
   <rect x="2.834646" y="2.834646" width="472.410709" height="135.450709"/>
  </clipPath>
 </defs>
</svg>
