<?xml version="1.0" encoding="utf-8" standalone="no"?>
<!DOCTYPE svg PUBLIC "-//W3C//DTD SVG 1.1//EN"
  "http://www.w3.org/Graphics/SVG/1.1/DTD/svg11.dtd">
<svg xmlns:xlink="http://www.w3.org/1999/xlink" width="504pt" height="144pt" viewBox="0 0 504 144" xmlns="http://www.w3.org/2000/svg" version="1.1">
 <metadata>
  <rdf:RDF xmlns:dc="http://purl.org/dc/elements/1.1/" xmlns:cc="http://creativecommons.org/ns#" xmlns:rdf="http://www.w3.org/1999/02/22-rdf-syntax-ns#">
   <cc:Work>
    <dc:type rdf:resource="http://purl.org/dc/dcmitype/StillImage"/>
    <dc:date>2024-08-20T12:27:27.437181</dc:date>
    <dc:format>image/svg+xml</dc:format>
    <dc:creator>
     <cc:Agent>
      <dc:title>Matplotlib v3.8.4, https://matplotlib.org/</dc:title>
     </cc:Agent>
    </dc:creator>
   </cc:Work>
  </rdf:RDF>
 </metadata>
 <defs>
  <style type="text/css">*{stroke-linejoin: round; stroke-linecap: butt}</style>
 </defs>
 <g id="figure_1">
  <g id="patch_1">
   <path d="M 0 144 
L 504 144 
L 504 0 
L 0 0 
L 0 144 
z
" style="fill: none"/>
  </g>
  <g id="axes_1">
   <g id="patch_2">
    <path d="M 2.834646 141.165354 
L 501.165354 141.165354 
L 501.165354 2.834646 
L 2.834646 2.834646 
L 2.834646 141.165354 
z
" style="fill: none"/>
   </g>
   <g id="line2d_1">
    <path d="M 16.938345 70.246841 
L 18.207805 92.856952 
L 19.618316 117.273611 
L 20.464622 128.286972 
L 21.028827 133.35346 
L 21.45198 135.8098 
L 21.875133 137.069849 
L 22.157236 137.242187 
L 22.439338 136.887694 
L 22.72144 136.019628 
L 23.144593 133.79654 
L 23.708798 129.251781 
L 24.414053 121.408288 
L 25.401411 107.53832 
L 28.222433 65.859819 
L 29.068739 57.26807 
L 29.632944 53.32303 
L 30.056097 51.399603 
L 30.47925 50.400475 
L 30.761353 50.258678 
L 30.902404 50.414986 
L 31.184506 51.302864 
L 31.607659 54.005764 
L 32.171864 59.909338 
L 32.877119 70.256357 
L 34.146579 93.464543 
L 35.55709 118.360339 
L 36.403397 129.32203 
L 36.967601 134.159796 
L 37.390754 136.336921 
L 37.672856 137.073843 
L 37.954959 137.237288 
L 38.237061 136.833704 
L 38.519163 135.876763 
L 38.942316 133.449488 
L 39.506521 128.514936 
L 40.211776 120.044835 
L 41.199134 105.202976 
L 43.597003 67.699573 
L 44.443309 58.201605 
L 45.007513 53.789673 
L 45.430667 51.612606 
L 45.85382 50.451716 
L 46.135922 50.251492 
L 46.276973 50.382001 
L 46.559076 51.260041 
L 46.982229 54.047079 
L 47.546433 60.223311 
L 48.251689 71.087538 
L 49.521149 95.291455 
L 50.790609 118.386162 
L 51.495864 128.09798 
L 52.060068 133.515959 
L 52.483222 136.036955 
L 52.765324 136.952234 
L 53.047426 137.250262 
L 53.188477 137.169292 
L 53.470579 136.554754 
L 53.893733 134.5388 
L 54.316886 131.29335 
L 54.88109 125.273444 
L 55.727397 113.392951 
L 57.42001 85.020719 
L 58.548419 67.773372 
L 59.394726 58.015701 
L 59.95893 53.562021 
L 60.382083 51.427567 
L 60.805236 50.3706 
L 61.087339 50.287267 
L 61.369441 50.970225 
L 61.651543 52.485989 
L 62.074696 56.214187 
L 62.638901 63.55377 
L 63.485207 78.273044 
L 65.883076 122.990304 
L 66.588332 131.483641 
L 67.152536 135.630191 
L 67.575689 137.072842 
L 67.857791 137.229378 
L 68.139894 136.750092 
L 68.421996 135.652366 
L 68.845149 132.903772 
L 69.409353 127.375124 
L 70.114609 118.00102 
L 71.243018 99.442184 
L 73.076682 69.234804 
L 73.922989 58.913009 
L 74.487193 54.107953 
L 74.910346 51.736614 
L 75.3335 50.471612 
L 75.615602 50.25125 
L 75.756653 50.386458 
L 76.038755 51.310092 
L 76.461908 54.252233 
L 77.026113 60.774103 
L 77.731368 72.213656 
L 79.141879 100.255559 
L 80.270288 120.742217 
L 80.975544 130.057406 
L 81.539748 134.871723 
L 81.962901 136.788632 
L 82.245003 137.239384 
L 82.386055 137.217263 
L 82.668157 136.685466 
L 82.950259 135.519953 
L 83.373412 132.646079 
L 83.937617 126.917584 
L 84.642872 117.273726 
L 85.771281 98.345941 
L 87.463894 70.064609 
L 88.310201 59.417424 
L 88.874405 54.413957 
L 89.438609 51.326554 
L 89.720712 50.535124 
L 90.002814 50.250852 
L 90.143865 50.33605 
L 90.425967 51.169093 
L 90.708069 52.857246 
L 91.131223 56.877345 
L 91.695427 64.641623 
L 92.541734 79.976272 
L 94.798551 122.942791 
L 95.503807 131.605356 
L 96.068011 135.759684 
L 96.350113 136.840669 
L 96.632215 137.246721 
L 96.773267 137.197945 
L 97.055369 136.604715 
L 97.337471 135.368515 
L 97.760624 132.373974 
L 98.324829 126.469113 
L 99.030084 116.603538 
L 100.299544 94.882391 
L 101.851106 69.100272 
L 102.697413 58.663064 
L 103.261617 53.87364 
L 103.68477 51.563449 
L 104.107924 50.398856 
L 104.390026 50.275381 
L 104.531077 50.495366 
L 104.813179 51.598507 
L 105.236332 54.829712 
L 105.800537 61.750057 
L 106.505792 73.655374 
L 109.467865 128.256721 
L 110.03207 133.83725 
L 110.455223 136.305226 
L 110.737325 137.100169 
L 110.878376 137.241169 
L 111.019427 137.212208 
L 111.30153 136.651361 
L 111.583632 135.437409 
L 112.006785 132.458869 
L 112.57099 126.544447 
L 113.276245 116.628311 
L 114.545705 94.766985 
L 116.097267 68.875754 
L 116.943574 58.457017 
L 117.507778 53.716084 
L 117.930931 51.459882 
L 118.354085 50.362885 
L 118.495136 50.2566 
L 118.636187 50.302286 
L 118.918289 51.060674 
L 119.200391 52.693303 
L 119.623544 56.666982 
L 120.187749 64.435903 
L 121.034055 79.888545 
L 123.149822 121.093837 
L 123.855077 130.453133 
L 124.419282 135.170648 
L 124.842435 136.93565 
L 125.124537 137.249687 
L 125.265588 137.14954 
L 125.547691 136.444067 
L 125.970844 134.1697 
L 126.393997 130.540124 
L 126.958202 123.86589 
L 127.804508 110.877546 
L 130.766581 62.177432 
L 131.471837 55.126958 
L 132.036041 51.668178 
L 132.459194 50.42963 
L 132.741297 50.263085 
L 132.882348 50.455275 
L 133.16445 51.513903 
L 133.587603 54.706284 
L 134.151808 61.625901 
L 134.857063 73.597942 
L 137.819136 128.514558 
L 138.38334 134.034596 
L 138.806494 136.422043 
L 139.088596 137.147558 
L 139.229647 137.249634 
L 139.370698 137.17913 
L 139.6528 136.528265 
L 139.934903 135.216499 
L 140.358056 132.081168 
L 140.92226 125.950618 
L 141.768567 113.492294 
L 145.012742 60.597419 
L 145.717998 54.091514 
L 146.141151 51.67393 
L 146.564304 50.429555 
L 146.846406 50.263599 
L 146.987457 50.458072 
L 147.26956 51.524607 
L 147.692713 54.736413 
L 148.256917 61.692695 
L 148.962173 73.718704 
L 151.783195 126.919558 
L 152.347399 133.026616 
L 152.770552 135.877843 
L 153.052655 136.913448 
L 153.334757 137.250241 
L 153.475808 137.158186 
L 153.75791 136.462648 
L 154.181063 134.187239 
L 154.604217 130.540308 
L 155.168421 123.821093 
L 156.014728 110.737438 
L 158.83575 63.608652 
L 159.541005 56.056861 
L 160.10521 52.179478 
L 160.528363 50.63177 
L 160.810465 50.260766 
L 160.951516 50.290719 
L 161.233618 51.022601 
L 161.515721 52.643535 
L 161.938874 56.626208 
L 162.503078 64.448846 
L 163.349385 80.036477 
L 165.465151 121.463752 
L 166.170407 130.75961 
L 166.734611 135.3657 
L 167.157764 137.015069 
L 167.439867 137.239216 
L 167.580918 137.090869 
L 167.86302 136.283652 
L 168.286173 133.847021 
L 168.850378 128.509659 
L 169.555633 119.060894 
L 170.684042 99.903442 
L 172.517706 68.629977 
L 173.364013 58.188758 
L 173.928217 53.497755 
L 174.35137 51.313811 
L 174.633473 50.516606 
L 174.915575 50.249894 
L 175.056626 50.363967 
L 175.338728 51.27848 
L 175.62083 53.075158 
L 176.043984 57.30132 
L 176.608188 65.393309 
L 177.454495 81.2333 
L 179.42921 120.181938 
L 180.134466 129.891492 
L 180.69867 134.878447 
L 181.121823 136.825166 
L 181.403925 137.246651 
L 181.544976 137.195589 
L 181.827079 136.57832 
L 182.109181 135.293514 
L 182.532334 132.184956 
L 183.096539 126.067791 
L 183.801794 115.882789 
L 185.071254 93.635811 
L 186.481765 69.758089 
L 187.328072 58.976437 
L 187.892276 54.016691 
L 188.315429 51.61995 
L 188.738582 50.40787 
L 189.020685 50.273976 
L 189.161736 50.495459 
L 189.443838 51.619602 
L 189.866991 54.923662 
L 190.431196 62.002676 
L 191.136451 74.160127 
L 193.957473 127.306291 
L 194.521678 133.287632 
L 194.944831 136.029354 
L 195.226933 136.98732 
L 195.509035 137.24426 
L 195.650086 137.111933 
L 195.932188 136.33595 
L 196.355342 133.942835 
L 196.919546 128.656269 
L 197.624802 119.255586 
L 198.75321 100.133494 
L 200.586875 68.80741 
L 201.433181 58.308826 
L 201.997386 53.573985 
L 202.420539 51.356841 
L 202.702641 50.537882 
L 202.984743 50.25037 
L 203.125794 50.34719 
L 203.407897 51.228372 
L 203.689999 52.994703 
L 204.113152 57.180685 
L 204.677357 65.230511 
L 205.523663 81.032143 
L 207.63943 122.23589 
L 208.344685 131.272324 
L 208.90889 135.639946 
L 209.332043 137.104779 
L 209.473094 137.242881 
L 209.614145 137.207024 
L 209.896247 136.620584 
L 210.178349 135.366744 
L 210.601503 132.303972 
L 211.165707 126.243896 
L 211.870963 116.11848 
L 213.140422 93.927268 
L 214.550933 70.014493 
L 215.39724 59.16535 
L 215.961444 54.146182 
L 216.384598 51.699865 
L 216.807751 50.436009 
L 217.089853 50.262007 
L 217.230904 50.452954 
L 217.513007 51.517697 
L 217.93616 54.737765 
L 218.500364 61.719221 
L 219.20562 73.785364 
L 222.026642 127.009353 
L 222.590846 133.087054 
L 223.013999 135.912772 
L 223.296102 136.930662 
L 223.578204 137.249729 
L 223.719255 137.148945 
L 224.001357 136.436471 
L 224.42451 134.13759 
L 224.847664 130.470346 
L 225.411868 123.729901 
L 226.258175 110.627998 
L 229.079197 63.529039 
L 229.784452 55.999144 
L 230.348656 52.143332 
L 230.77181 50.614668 
L 231.053912 50.25792 
L 231.194963 50.299201 
L 231.477065 51.059455 
L 231.759167 52.709431 
L 232.182321 56.733577 
L 232.746525 64.601759 
L 233.592832 80.224331 
L 235.708598 121.566951 
L 236.413854 130.81406 
L 236.978058 135.388217 
L 237.401211 137.020987 
L 237.683314 137.238218 
L 237.824365 137.087751 
L 238.106467 136.278977 
L 238.52962 133.846709 
L 239.093825 128.526301 
L 239.79908 119.111805 
L 240.927489 100.017604 
L 242.761153 68.783219 
L 243.60746 58.311395 
L 244.171664 53.583688 
L 244.594817 51.365584 
L 244.87692 50.543428 
L 245.159022 50.250668 
L 245.300073 50.342063 
L 245.582175 51.210447 
L 245.864277 52.962089 
L 246.287431 57.122661 
L 246.851635 65.134194 
L 247.697942 80.877191 
L 249.813708 122.038078 
L 250.518963 131.121598 
L 251.083168 135.551297 
L 251.506321 137.07515 
L 251.647372 137.23492 
L 251.788423 137.221593 
L 252.070526 136.682404 
L 252.352628 135.477996 
L 252.775781 132.491561 
L 253.339985 126.532103 
L 254.045241 116.519419 
L 255.314701 94.452243 
L 256.725212 70.503194 
L 257.571518 59.538784 
L 258.135723 54.409999 
L 258.699927 51.280755 
L 258.982029 50.501058 
L 259.264132 50.250152 
L 259.405183 50.377054 
L 259.687285 51.315177 
L 260.110438 54.352642 
L 260.674643 61.117371 
L 261.379898 72.976126 
L 264.341971 128.160379 
L 264.906175 133.81382 
L 265.329329 136.307329 
L 265.611431 137.104658 
L 265.752482 137.242668 
L 265.893533 137.207972 
L 266.175635 136.627651 
L 266.457738 135.384741 
L 266.880891 132.346354 
L 267.445095 126.330491 
L 268.150351 116.270683 
L 269.419811 94.185012 
L 270.830322 70.298332 
L 271.676628 59.397627 
L 272.240833 54.316303 
L 272.663986 51.81091 
L 273.087139 50.479164 
L 273.369241 50.251951 
L 273.510292 50.39853 
L 273.792395 51.374316 
L 274.215548 54.462723 
L 274.779752 61.28191 
L 275.485008 73.183699 
L 278.447081 128.27452 
L 279.011285 133.882861 
L 279.434439 136.342581 
L 279.716541 137.118026 
L 279.857592 137.245461 
L 279.998643 137.200452 
L 280.280745 136.600543 
L 280.562847 135.339498 
L 280.986001 132.277372 
L 281.550205 126.23656 
L 282.255461 116.157522 
L 283.52492 94.068684 
L 284.935431 70.214057 
L 285.781738 59.34183 
L 286.345942 54.280322 
L 286.769096 51.789455 
L 287.192249 50.471316 
L 287.474351 50.25303 
L 287.615402 50.406712 
L 287.897504 51.395798 
L 288.320658 54.501531 
L 288.884862 61.337983 
L 289.590118 73.251437 
L 292.552191 128.303773 
L 293.116395 133.899434 
L 293.539548 136.350558 
L 293.821651 137.120887 
L 293.962702 137.245981 
L 294.103753 137.198782 
L 294.385855 136.595001 
L 294.667957 135.330711 
L 295.09111 132.265093 
L 295.655315 126.221835 
L 296.36057 116.143072 
L 297.63003 94.060751 
L 299.040541 70.215115 
L 299.886848 59.345776 
L 300.451052 54.284411 
L 300.874206 51.792668 
L 301.297359 50.472782 
L 301.579461 50.252777 
L 301.720512 50.404829 
L 302.002614 51.390382 
L 302.425768 54.490302 
L 302.989972 61.318677 
L 303.695227 73.222828 
L 306.657301 128.276263 
L 307.221505 133.881177 
L 307.644658 136.340634 
L 307.92676 137.117011 
L 308.067812 137.245239 
L 308.208863 137.20123 
L 308.490965 136.603934 
L 308.773067 135.346193 
L 309.19622 132.290233 
L 309.760425 126.259034 
L 310.46568 116.19284 
L 311.73514 94.122451 
L 313.145651 70.270202 
L 313.991958 59.387206 
L 314.556162 54.313508 
L 314.979315 51.81123 
L 315.402469 50.480036 
L 315.684571 50.251779 
L 315.825622 50.396837 
L 316.107724 51.368551 
L 316.530877 54.448599 
L 317.095082 61.253665 
L 317.800337 73.136168 
L 320.76241 128.215501 
L 321.326615 133.842587 
L 321.749768 136.320225 
L 322.03187 137.109093 
L 322.172921 137.243597 
L 322.313972 137.205856 
L 322.596075 136.620937 
L 322.878177 135.375273 
L 323.30133 132.336317 
L 323.865534 126.325138 
L 324.57079 116.278037 
L 325.84025 94.221859 
L 327.250761 70.353898 
L 328.097067 59.448228 
L 328.661272 54.355595 
L 329.084425 51.837767 
L 329.507578 50.490388 
L 329.789681 50.250744 
L 329.930732 50.386134 
L 330.212834 51.338902 
L 330.635987 54.392217 
L 331.200192 61.166704 
L 331.905447 73.021897 
L 334.86752 128.139767 
L 335.431725 133.794885 
L 335.854878 136.295035 
L 336.13698 137.099187 
L 336.278031 137.241305 
L 336.419082 137.211134 
L 336.701184 136.641054 
L 336.983287 135.409721 
L 337.40644 132.390698 
L 337.970644 126.40254 
L 338.6759 116.376747 
L 339.94536 94.334853 
L 341.355871 70.447146 
L 342.202177 59.515485 
L 342.766382 54.401709 
L 343.330586 51.280429 
L 343.612688 50.501798 
L 343.89479 50.250084 
L 344.035842 50.375113 
L 344.317944 51.307646 
L 344.741097 54.332635 
L 345.305301 61.075064 
L 346.010557 72.902114 
L 348.97263 128.062236 
L 349.536834 133.74618 
L 349.959988 136.26924 
L 350.24209 137.088869 
L 350.383141 137.23866 
L 350.524192 137.216103 
L 350.806294 136.660898 
L 351.088396 135.443839 
L 351.51155 132.444572 
L 352.075754 126.47898 
L 352.78101 116.473734 
L 354.050469 94.444754 
L 355.46098 70.53685 
L 356.307287 59.579815 
L 356.871491 54.445688 
L 357.435696 51.302554 
L 357.717798 50.512789 
L 357.9999 50.249889 
L 358.140951 50.365191 
L 358.423054 51.27876 
L 358.705156 53.069531 
L 359.128309 57.277238 
L 359.692513 65.327914 
L 360.53882 81.082717 
L 362.654586 122.127214 
L 363.359842 131.166154 
L 363.924046 135.568901 
L 364.3472 137.079282 
L 364.488251 137.23599 
L 364.629302 137.220285 
L 364.911404 136.67844 
L 365.193506 135.474143 
L 365.61666 132.492488 
L 366.180864 126.546843 
L 366.886119 116.559547 
L 368.155579 94.541293 
L 369.56609 70.615019 
L 370.412397 59.635641 
L 370.976601 54.483773 
L 371.540806 51.321735 
L 371.822908 50.522397 
L 372.10501 50.249979 
L 372.246061 50.357034 
L 372.528163 51.254412 
L 372.810266 53.029972 
L 373.233419 57.216992 
L 373.797623 65.245737 
L 374.64393 80.981861 
L 376.759696 122.053415 
L 377.464952 131.117824 
L 378.029156 135.543352 
L 378.452309 137.071151 
L 378.593361 137.233577 
L 378.734412 137.223531 
L 379.016514 136.692699 
L 379.298616 135.498876 
L 379.721769 132.531642 
L 380.285974 126.602209 
L 380.991229 116.629347 
L 382.260689 94.619308 
L 383.812251 68.609585 
L 384.658558 58.21168 
L 385.222762 53.527542 
L 385.645915 51.337036 
L 385.928018 50.530111 
L 386.21012 50.25017 
L 386.351171 50.350818 
L 386.633273 51.235452 
L 386.915375 52.999063 
L 387.338529 57.169909 
L 387.902733 65.181605 
L 388.74904 80.903387 
L 390.864806 121.996508 
L 391.570062 131.080646 
L 392.134266 135.523701 
L 392.557419 137.064823 
L 392.69847 137.231615 
L 392.839521 137.225878 
L 393.121624 136.703415 
L 393.403726 135.51752 
L 393.826879 132.561173 
L 394.391084 126.64388 
L 395.096339 116.681702 
L 396.365799 94.677405 
L 397.917361 68.653907 
L 398.763668 58.241904 
L 399.327872 53.547068 
L 399.751025 51.34824 
L 400.033127 50.535784 
L 400.31523 50.250375 
L 400.456281 50.346431 
L 400.738383 51.221848 
L 401.020485 52.976839 
L 401.443638 57.136076 
L 402.007843 65.135621 
L 402.854149 80.847342 
L 404.969916 121.956333 
L 405.675171 131.054493 
L 406.239376 135.509898 
L 406.662529 137.060347 
L 406.944631 137.227446 
L 407.226733 136.710795 
L 407.508836 135.530377 
L 407.931989 132.58152 
L 408.496193 126.6725 
L 409.201449 116.71749 
L 410.470909 94.716739 
L 412.022471 68.683548 
L 412.868777 58.261981 
L 413.432982 53.559984 
L 413.856135 51.355633 
L 414.138237 50.539534 
L 414.420339 50.250539 
L 414.561391 50.343619 
L 414.843493 51.213034 
L 415.125595 52.962434 
L 415.548748 57.114192 
L 416.112953 65.105989 
L 416.959259 80.811453 
L 419.075026 121.93106 
L 419.780281 131.038141 
L 420.344486 135.501304 
L 420.767639 137.057554 
L 421.049741 137.228387 
L 421.331843 136.715304 
L 421.613945 135.538226 
L 422.037099 132.593902 
L 422.601303 126.689815 
L 423.306559 116.73897 
L 424.576019 94.739978 
L 426.127581 68.700698 
L 426.973887 58.273457 
L 427.538092 53.567307 
L 427.961245 51.3598 
L 428.243347 50.541643 
L 428.525449 50.250641 
L 428.6665 50.342074 
L 428.948603 51.208171 
L 429.230705 52.954504 
L 429.653858 57.102207 
L 430.218062 65.089887 
L 431.064369 80.792193 
L 433.180136 121.917975 
L 433.885391 131.029786 
L 434.449595 135.49696 
L 434.872749 137.05615 
L 435.154851 137.228847 
L 435.436953 136.717524 
L 435.719055 135.542068 
L 436.142209 132.599909 
L 436.706413 126.6981 
L 437.411668 116.749058 
L 438.681128 94.75049 
L 440.23269 68.708054 
L 441.078997 58.278219 
L 441.643201 53.570274 
L 442.066355 51.361456 
L 442.348457 50.542472 
L 442.630559 50.250682 
L 442.77161 50.341485 
L 443.053712 51.206328 
L 443.335815 52.951533 
L 443.758968 57.097799 
L 444.323172 65.084119 
L 445.169479 80.785591 
L 447.285245 121.91407 
L 447.990501 131.027434 
L 448.554705 135.495801 
L 448.977859 137.055791 
L 449.259961 137.22896 
L 449.542063 136.718054 
L 449.824165 135.542952 
L 450.247318 132.601212 
L 450.811523 126.699741 
L 451.516778 116.750798 
L 452.786238 94.75175 
L 454.3378 68.708364 
L 455.184107 58.278178 
L 455.748311 53.570136 
L 456.171465 51.361327 
L 456.453567 50.54239 
L 456.735669 50.250677 
L 456.87672 50.341563 
L 457.158822 51.206609 
L 457.440924 52.952046 
L 457.864078 57.098702 
L 458.428282 65.085574 
L 459.274589 80.787789 
L 461.390355 121.916458 
L 462.095611 131.029179 
L 462.659815 135.496806 
L 463.082968 137.056142 
L 463.365071 137.22884 
L 463.647173 136.717446 
L 463.929275 135.541848 
L 464.352428 132.599364 
L 464.916633 126.696952 
L 465.621888 116.747004 
L 466.891348 94.746946 
L 468.44291 68.704122 
L 469.289217 58.27506 
L 469.853421 53.568022 
L 470.276574 51.360066 
L 470.558677 50.541733 
L 470.840779 50.250643 
L 470.98183 50.342061 
L 471.263932 51.208221 
L 471.546034 52.95474 
L 471.969188 57.102919 
L 472.533392 65.09151 
L 473.379699 80.795403 
L 475.495465 121.922635 
L 476.20072 131.033368 
L 476.764925 135.499094 
L 477.188078 137.05691 
L 477.47018 137.228583 
L 477.752283 136.716172 
L 478.034385 135.539582 
L 478.457538 132.595686 
L 479.021742 126.69161 
L 479.726998 116.740054 
L 480.996458 94.738753 
L 482.54802 68.697402 
L 483.394326 58.270293 
L 483.958531 53.564861 
L 484.381684 51.358212 
L 484.663786 50.540777 
L 484.945889 50.250595 
L 485.08694 50.34278 
L 485.369042 51.210523 
L 485.651144 52.958554 
L 486.074297 57.108824 
L 486.638502 65.099705 
L 487.061655 72.532146 
L 487.061655 72.532146 
" clip-path="url(#p62b0a3a8d3)" style="fill: none; stroke: #2477d0; stroke-width: 4"/>
   </g>
   <g id="matplotlib.axis_1"/>
   <g id="matplotlib.axis_2"/>
   <g id="line2d_2">
    <path d="M 16.938345 50.249889 
L 17.079396 50.335726 
L 17.361498 51.020397 
L 17.6436 52.378941 
L 18.066754 55.630576 
L 18.630958 62.039814 
L 19.336214 72.793719 
L 20.605674 96.481513 
L 21.875133 119.318901 
L 22.580389 128.942531 
L 23.144593 134.195596 
L 23.567747 136.479826 
L 23.849849 137.164497 
L 23.9909 137.250334 
L 24.131951 137.164497 
L 24.414053 136.479826 
L 24.696155 135.121282 
L 25.119309 131.869647 
L 25.683513 125.460409 
L 26.388769 114.706504 
L 27.658228 91.01871 
L 28.927688 68.181322 
L 29.632944 58.557692 
L 30.197148 53.304627 
L 30.620301 51.020397 
L 30.902404 50.335726 
L 31.043455 50.249889 
L 31.184506 50.335726 
L 31.466608 51.020397 
L 31.74871 52.378941 
L 32.171864 55.630576 
L 32.736068 62.039814 
L 33.441323 72.793719 
L 34.710783 96.481513 
L 35.980243 119.318901 
L 36.685499 128.942531 
L 37.249703 134.195596 
L 37.672856 136.479826 
L 37.954959 137.164497 
L 38.09601 137.250334 
L 38.237061 137.164497 
L 38.519163 136.479826 
L 38.801265 135.121282 
L 39.224418 131.869647 
L 39.788623 125.460409 
L 40.493878 114.706504 
L 41.763338 91.01871 
L 43.032798 68.181322 
L 43.738054 58.557692 
L 44.302258 53.304627 
L 44.725411 51.020397 
L 45.007513 50.335726 
L 45.148565 50.249889 
L 45.289616 50.335726 
L 45.571718 51.020397 
L 45.85382 52.378941 
L 46.276973 55.630576 
L 46.841178 62.039814 
L 47.546433 72.793719 
L 48.815893 96.481513 
L 50.085353 119.318901 
L 50.790609 128.942531 
L 51.354813 134.195596 
L 51.777966 136.479826 
L 52.060068 137.164497 
L 52.20112 137.250334 
L 52.342171 137.164497 
L 52.624273 136.479826 
L 52.906375 135.121282 
L 53.329528 131.869647 
L 53.893733 125.460409 
L 54.598988 114.706504 
L 55.868448 91.01871 
L 57.137908 68.181322 
L 57.843163 58.557692 
L 58.407368 53.304627 
L 58.830521 51.020397 
L 59.112623 50.335726 
L 59.253674 50.249889 
L 59.394726 50.335726 
L 59.676828 51.020397 
L 59.95893 52.378941 
L 60.382083 55.630576 
L 60.946288 62.039814 
L 61.651543 72.793719 
L 62.921003 96.481513 
L 64.190463 119.318901 
L 64.895718 128.942531 
L 65.459923 134.195596 
L 65.883076 136.479826 
L 66.165178 137.164497 
L 66.306229 137.250334 
L 66.44728 137.164497 
L 66.729383 136.479826 
L 67.011485 135.121282 
L 67.434638 131.869647 
L 67.998842 125.460409 
L 68.704098 114.706504 
L 69.973558 91.01871 
L 71.243018 68.181322 
L 71.948273 58.557692 
L 72.512478 53.304627 
L 72.935631 51.020397 
L 73.217733 50.335726 
L 73.358784 50.249889 
L 73.499835 50.335726 
L 73.781938 51.020397 
L 74.06404 52.378941 
L 74.487193 55.630576 
L 75.051397 62.039814 
L 75.756653 72.793719 
L 77.026113 96.481513 
L 78.295573 119.318901 
L 79.000828 128.942531 
L 79.565033 134.195596 
L 79.988186 136.479826 
L 80.270288 137.164497 
L 80.411339 137.250334 
L 80.55239 137.164497 
L 80.834492 136.479826 
L 81.116595 135.121282 
L 81.539748 131.869647 
L 82.103952 125.460409 
L 82.809208 114.706504 
L 84.078668 91.01871 
L 85.348128 68.181322 
L 86.053383 58.557692 
L 86.617587 53.304627 
L 87.040741 51.020397 
L 87.322843 50.335726 
L 87.463894 50.249889 
L 87.604945 50.335726 
L 87.887047 51.020397 
L 88.16915 52.378941 
L 88.592303 55.630576 
L 89.156507 62.039814 
L 89.861763 72.793719 
L 91.131223 96.481513 
L 92.400682 119.318901 
L 93.105938 128.942531 
L 93.670142 134.195596 
L 94.093296 136.479826 
L 94.375398 137.164497 
L 94.516449 137.250334 
L 94.6575 137.164497 
L 94.939602 136.479826 
L 95.221704 135.121282 
L 95.644858 131.869647 
L 96.209062 125.460409 
L 96.914318 114.706504 
L 98.183777 91.01871 
L 99.453237 68.181322 
L 100.158493 58.557692 
L 100.722697 53.304627 
L 101.145851 51.020397 
L 101.427953 50.335726 
L 101.569004 50.249889 
L 101.710055 50.335726 
L 101.992157 51.020397 
L 102.274259 52.378941 
L 102.697413 55.630576 
L 103.261617 62.039814 
L 103.966873 72.793719 
L 105.236332 96.481513 
L 106.505792 119.318901 
L 107.211048 128.942531 
L 107.775252 134.195596 
L 108.198405 136.479826 
L 108.480508 137.164497 
L 108.621559 137.250334 
L 108.76261 137.164497 
L 109.044712 136.479826 
L 109.326814 135.121282 
L 109.749968 131.869647 
L 110.314172 125.460409 
L 111.019427 114.706504 
L 112.288887 91.01871 
L 113.558347 68.181322 
L 114.263603 58.557692 
L 114.827807 53.304627 
L 115.25096 51.020397 
L 115.533063 50.335726 
L 115.674114 50.249889 
L 115.815165 50.335726 
L 116.097267 51.020397 
L 116.379369 52.378941 
L 116.802522 55.630576 
L 117.366727 62.039814 
L 118.071982 72.793719 
L 119.341442 96.481513 
L 120.610902 119.318901 
L 121.316158 128.942531 
L 121.880362 134.195596 
L 122.303515 136.479826 
L 122.585617 137.164497 
L 122.726669 137.250334 
L 122.86772 137.164497 
L 123.149822 136.479826 
L 123.431924 135.121282 
L 123.855077 131.869647 
L 124.419282 125.460409 
L 125.124537 114.706504 
L 126.393997 91.01871 
L 127.663457 68.181322 
L 128.368712 58.557692 
L 128.932917 53.304627 
L 129.35607 51.020397 
L 129.638172 50.335726 
L 129.779223 50.249889 
L 129.920275 50.335726 
L 130.202377 51.020397 
L 130.484479 52.378941 
L 130.907632 55.630576 
L 131.471837 62.039814 
L 132.177092 72.793719 
L 133.446552 96.481513 
L 134.716012 119.318901 
L 135.421267 128.942531 
L 135.985472 134.195596 
L 136.408625 136.479826 
L 136.690727 137.164497 
L 136.831778 137.250334 
L 136.972829 137.164497 
L 137.254932 136.479826 
L 137.537034 135.121282 
L 137.960187 131.869647 
L 138.524392 125.460409 
L 139.229647 114.706504 
L 140.499107 91.01871 
L 141.768567 68.181322 
L 142.473822 58.557692 
L 143.038027 53.304627 
L 143.46118 51.020397 
L 143.743282 50.335726 
L 143.884333 50.249889 
L 144.025384 50.335726 
L 144.307487 51.020397 
L 144.589589 52.378941 
L 145.012742 55.630576 
L 145.576946 62.039814 
L 146.282202 72.793719 
L 147.551662 96.481513 
L 148.821122 119.318901 
L 149.526377 128.942531 
L 150.090582 134.195596 
L 150.513735 136.479826 
L 150.795837 137.164497 
L 150.936888 137.250334 
L 151.077939 137.164497 
L 151.360041 136.479826 
L 151.642144 135.121282 
L 152.065297 131.869647 
L 152.629501 125.460409 
L 153.334757 114.706504 
L 154.604217 91.01871 
L 155.873677 68.181322 
L 156.578932 58.557692 
L 157.143137 53.304627 
L 157.56629 51.020397 
L 157.848392 50.335726 
L 157.989443 50.249889 
L 158.130494 50.335726 
L 158.412596 51.020397 
L 158.694699 52.378941 
L 159.117852 55.630576 
L 159.682056 62.039814 
L 160.387312 72.793719 
L 161.656772 96.481513 
L 162.926232 119.318901 
L 163.631487 128.942531 
L 164.195691 134.195596 
L 164.618845 136.479826 
L 164.900947 137.164497 
L 165.041998 137.250334 
L 165.183049 137.164497 
L 165.465151 136.479826 
L 165.747253 135.121282 
L 166.170407 131.869647 
L 166.734611 125.460409 
L 167.439867 114.706504 
L 168.709327 91.01871 
L 169.978786 68.181322 
L 170.684042 58.557692 
L 171.248246 53.304627 
L 171.6714 51.020397 
L 171.953502 50.335726 
L 172.094553 50.249889 
L 172.235604 50.335726 
L 172.517706 51.020397 
L 172.799808 52.378941 
L 173.222962 55.630576 
L 173.787166 62.039814 
L 174.492422 72.793719 
L 175.761881 96.481513 
L 177.031341 119.318901 
L 177.736597 128.942531 
L 178.300801 134.195596 
L 178.723955 136.479826 
L 179.006057 137.164497 
L 179.147108 137.250334 
L 179.288159 137.164497 
L 179.570261 136.479826 
L 179.852363 135.121282 
L 180.275517 131.869647 
L 180.839721 125.460409 
L 181.544976 114.706504 
L 182.814436 91.01871 
L 184.083896 68.181322 
L 184.789152 58.557692 
L 185.353356 53.304627 
L 185.776509 51.020397 
L 186.058612 50.335726 
L 186.199663 50.249889 
L 186.340714 50.335726 
L 186.622816 51.020397 
L 186.904918 52.378941 
L 187.328072 55.630576 
L 187.892276 62.039814 
L 188.597531 72.793719 
L 189.866991 96.481513 
L 191.136451 119.318901 
L 191.841707 128.942531 
L 192.405911 134.195596 
L 192.829064 136.479826 
L 193.111167 137.164497 
L 193.252218 137.250334 
L 193.393269 137.164497 
L 193.675371 136.479826 
L 193.957473 135.121282 
L 194.380626 131.869647 
L 194.944831 125.460409 
L 195.650086 114.706504 
L 196.919546 91.01871 
L 198.189006 68.181322 
L 198.894262 58.557692 
L 199.458466 53.304627 
L 199.881619 51.020397 
L 200.163721 50.335726 
L 200.304773 50.249889 
L 200.445824 50.335726 
L 200.727926 51.020397 
L 201.010028 52.378941 
L 201.433181 55.630576 
L 201.997386 62.039814 
L 202.702641 72.793719 
L 203.972101 96.481513 
L 205.241561 119.318901 
L 205.946816 128.942531 
L 206.511021 134.195596 
L 206.934174 136.479826 
L 207.216276 137.164497 
L 207.357327 137.250334 
L 207.498379 137.164497 
L 207.780481 136.479826 
L 208.062583 135.121282 
L 208.485736 131.869647 
L 209.049941 125.460409 
L 209.755196 114.706504 
L 211.024656 91.01871 
L 212.294116 68.181322 
L 212.999371 58.557692 
L 213.563576 53.304627 
L 213.986729 51.020397 
L 214.268831 50.335726 
L 214.409882 50.249889 
L 214.550933 50.335726 
L 214.833036 51.020397 
L 215.115138 52.378941 
L 215.538291 55.630576 
L 216.102496 62.039814 
L 216.807751 72.793719 
L 218.077211 96.481513 
L 219.346671 119.318901 
L 220.051926 128.942531 
L 220.616131 134.195596 
L 221.039284 136.479826 
L 221.321386 137.164497 
L 221.462437 137.250334 
L 221.603488 137.164497 
L 221.885591 136.479826 
L 222.167693 135.121282 
L 222.590846 131.869647 
L 223.15505 125.460409 
L 223.860306 114.706504 
L 225.129766 91.01871 
L 226.399226 68.181322 
L 227.104481 58.557692 
L 227.668686 53.304627 
L 228.091839 51.020397 
L 228.373941 50.335726 
L 228.514992 50.249889 
L 228.656043 50.335726 
L 228.938145 51.020397 
L 229.220248 52.378941 
L 229.643401 55.630576 
L 230.207605 62.039814 
L 230.912861 72.793719 
L 232.182321 96.481513 
L 233.451781 119.318901 
L 234.157036 128.942531 
L 234.72124 134.195596 
L 235.144394 136.479826 
L 235.426496 137.164497 
L 235.567547 137.250334 
L 235.708598 137.164497 
L 235.9907 136.479826 
L 236.272803 135.121282 
L 236.695956 131.869647 
L 237.26016 125.460409 
L 237.965416 114.706504 
L 239.234876 91.01871 
L 240.504336 68.181322 
L 241.209591 58.557692 
L 241.773795 53.304627 
L 242.196949 51.020397 
L 242.479051 50.335726 
L 242.620102 50.249889 
L 242.761153 50.335726 
L 243.043255 51.020397 
L 243.325357 52.378941 
L 243.748511 55.630576 
L 244.312715 62.039814 
L 245.017971 72.793719 
L 246.287431 96.481513 
L 247.55689 119.318901 
L 248.262146 128.942531 
L 248.82635 134.195596 
L 249.249504 136.479826 
L 249.531606 137.164497 
L 249.672657 137.250334 
L 249.813708 137.164497 
L 250.09581 136.479826 
L 250.377912 135.121282 
L 250.801066 131.869647 
L 251.36527 125.460409 
L 252.070526 114.706504 
L 253.339985 91.01871 
L 254.609445 68.181322 
L 255.314701 58.557692 
L 255.878905 53.304627 
L 256.302058 51.020397 
L 256.584161 50.335726 
L 256.725212 50.249889 
L 256.866263 50.335726 
L 257.148365 51.020397 
L 257.430467 52.378941 
L 257.853621 55.630576 
L 258.417825 62.039814 
L 259.12308 72.793719 
L 260.39254 96.481513 
L 261.662 119.318901 
L 262.367256 128.942531 
L 262.93146 134.195596 
L 263.354613 136.479826 
L 263.636716 137.164497 
L 263.777767 137.250334 
L 263.918818 137.164497 
L 264.20092 136.479826 
L 264.483022 135.121282 
L 264.906175 131.869647 
L 265.47038 125.460409 
L 266.175635 114.706504 
L 267.445095 91.01871 
L 268.714555 68.181322 
L 269.419811 58.557692 
L 269.984015 53.304627 
L 270.407168 51.020397 
L 270.689271 50.335726 
L 270.830322 50.249889 
L 270.971373 50.335726 
L 271.253475 51.020397 
L 271.535577 52.378941 
L 271.95873 55.630576 
L 272.522935 62.039814 
L 273.22819 72.793719 
L 274.49765 96.481513 
L 275.76711 119.318901 
L 276.472366 128.942531 
L 277.03657 134.195596 
L 277.459723 136.479826 
L 277.741825 137.164497 
L 277.882877 137.250334 
L 278.023928 137.164497 
L 278.30603 136.479826 
L 278.588132 135.121282 
L 279.011285 131.869647 
L 279.57549 125.460409 
L 280.280745 114.706504 
L 281.550205 91.01871 
L 282.819665 68.181322 
L 283.52492 58.557692 
L 284.089125 53.304627 
L 284.512278 51.020397 
L 284.79438 50.335726 
L 284.935431 50.249889 
L 285.076483 50.335726 
L 285.358585 51.020397 
L 285.640687 52.378941 
L 286.06384 55.630576 
L 286.628045 62.039814 
L 287.3333 72.793719 
L 288.60276 96.481513 
L 289.87222 119.318901 
L 290.577475 128.942531 
L 291.14168 134.195596 
L 291.564833 136.479826 
L 291.846935 137.164497 
L 291.987986 137.250334 
L 292.129037 137.164497 
L 292.41114 136.479826 
L 292.693242 135.121282 
L 293.116395 131.869647 
L 293.680599 125.460409 
L 294.385855 114.706504 
L 295.655315 91.01871 
L 296.924775 68.181322 
L 297.63003 58.557692 
L 298.194235 53.304627 
L 298.617388 51.020397 
L 298.89949 50.335726 
L 299.040541 50.249889 
L 299.181592 50.335726 
L 299.463695 51.020397 
L 299.745797 52.378941 
L 300.16895 55.630576 
L 300.733154 62.039814 
L 301.43841 72.793719 
L 302.70787 96.481513 
L 303.97733 119.318901 
L 304.682585 128.942531 
L 305.24679 134.195596 
L 305.669943 136.479826 
L 305.952045 137.164497 
L 306.093096 137.250334 
L 306.234147 137.164497 
L 306.516249 136.479826 
L 306.798352 135.121282 
L 307.221505 131.869647 
L 307.785709 125.460409 
L 308.490965 114.706504 
L 309.760425 91.01871 
L 311.029885 68.181322 
L 311.73514 58.557692 
L 312.299344 53.304627 
L 312.722498 51.020397 
L 313.0046 50.335726 
L 313.145651 50.249889 
L 313.286702 50.335726 
L 313.568804 51.020397 
L 313.850907 52.378941 
L 314.27406 55.630576 
L 314.838264 62.039814 
L 315.54352 72.793719 
L 316.81298 96.481513 
L 318.082439 119.318901 
L 318.787695 128.942531 
L 319.351899 134.195596 
L 319.775053 136.479826 
L 320.057155 137.164497 
L 320.198206 137.250334 
L 320.339257 137.164497 
L 320.621359 136.479826 
L 320.903461 135.121282 
L 321.326615 131.869647 
L 321.890819 125.460409 
L 322.596075 114.706504 
L 323.865534 91.01871 
L 325.134994 68.181322 
L 325.84025 58.557692 
L 326.404454 53.304627 
L 326.827608 51.020397 
L 327.10971 50.335726 
L 327.250761 50.249889 
L 327.391812 50.335726 
L 327.673914 51.020397 
L 327.956016 52.378941 
L 328.37917 55.630576 
L 328.943374 62.039814 
L 329.64863 72.793719 
L 330.918089 96.481513 
L 332.187549 119.318901 
L 332.892805 128.942531 
L 333.457009 134.195596 
L 333.880162 136.479826 
L 334.162265 137.164497 
L 334.303316 137.250334 
L 334.444367 137.164497 
L 334.726469 136.479826 
L 335.008571 135.121282 
L 335.431725 131.869647 
L 335.995929 125.460409 
L 336.701184 114.706504 
L 337.970644 91.01871 
L 339.240104 68.181322 
L 339.94536 58.557692 
L 340.509564 53.304627 
L 340.932717 51.020397 
L 341.21482 50.335726 
L 341.355871 50.249889 
L 341.496922 50.335726 
L 341.779024 51.020397 
L 342.061126 52.378941 
L 342.484279 55.630576 
L 343.048484 62.039814 
L 343.753739 72.793719 
L 345.023199 96.481513 
L 346.292659 119.318901 
L 346.997915 128.942531 
L 347.562119 134.195596 
L 347.985272 136.479826 
L 348.267374 137.164497 
L 348.408426 137.250334 
L 348.549477 137.164497 
L 348.831579 136.479826 
L 349.113681 135.121282 
L 349.536834 131.869647 
L 350.101039 125.460409 
L 350.806294 114.706504 
L 352.075754 91.01871 
L 353.345214 68.181322 
L 354.050469 58.557692 
L 354.614674 53.304627 
L 355.037827 51.020397 
L 355.319929 50.335726 
L 355.46098 50.249889 
L 355.602032 50.335726 
L 355.884134 51.020397 
L 356.166236 52.378941 
L 356.589389 55.630576 
L 357.153594 62.039814 
L 357.858849 72.793719 
L 359.128309 96.481513 
L 360.397769 119.318901 
L 361.103024 128.942531 
L 361.667229 134.195596 
L 362.090382 136.479826 
L 362.372484 137.164497 
L 362.513535 137.250334 
L 362.654586 137.164497 
L 362.936689 136.479826 
L 363.218791 135.121282 
L 363.641944 131.869647 
L 364.206149 125.460409 
L 364.911404 114.706504 
L 366.180864 91.01871 
L 367.450324 68.181322 
L 368.155579 58.557692 
L 368.719784 53.304627 
L 369.142937 51.020397 
L 369.425039 50.335726 
L 369.56609 50.249889 
L 369.707141 50.335726 
L 369.989244 51.020397 
L 370.271346 52.378941 
L 370.694499 55.630576 
L 371.258703 62.039814 
L 371.963959 72.793719 
L 373.233419 96.481513 
L 374.502879 119.318901 
L 375.208134 128.942531 
L 375.772339 134.195596 
L 376.195492 136.479826 
L 376.477594 137.164497 
L 376.618645 137.250334 
L 376.759696 137.164497 
L 377.041798 136.479826 
L 377.323901 135.121282 
L 377.747054 131.869647 
L 378.311258 125.460409 
L 379.016514 114.706504 
L 380.285974 91.01871 
L 381.555434 68.181322 
L 382.260689 58.557692 
L 382.824894 53.304627 
L 383.248047 51.020397 
L 383.530149 50.335726 
L 383.6712 50.249889 
L 383.812251 50.335726 
L 384.094353 51.020397 
L 384.376456 52.378941 
L 384.799609 55.630576 
L 385.363813 62.039814 
L 386.069069 72.793719 
L 387.338529 96.481513 
L 388.607989 119.318901 
L 389.313244 128.942531 
L 389.877448 134.195596 
L 390.300602 136.479826 
L 390.582704 137.164497 
L 390.723755 137.250334 
L 390.864806 137.164497 
L 391.146908 136.479826 
L 391.42901 135.121282 
L 391.852164 131.869647 
L 392.416368 125.460409 
L 393.121624 114.706504 
L 394.391084 91.01871 
L 395.660543 68.181322 
L 396.365799 58.557692 
L 396.930003 53.304627 
L 397.353157 51.020397 
L 397.635259 50.335726 
L 397.77631 50.249889 
L 397.917361 50.335726 
L 398.199463 51.020397 
L 398.481565 52.378941 
L 398.904719 55.630576 
L 399.468923 62.039814 
L 400.174179 72.793719 
L 401.443638 96.481513 
L 402.713098 119.318901 
L 403.418354 128.942531 
L 403.982558 134.195596 
L 404.405712 136.479826 
L 404.687814 137.164497 
L 404.828865 137.250334 
L 404.969916 137.164497 
L 405.252018 136.479826 
L 405.53412 135.121282 
L 405.957274 131.869647 
L 406.521478 125.460409 
L 407.226733 114.706504 
L 408.496193 91.01871 
L 409.765653 68.181322 
L 410.470909 58.557692 
L 411.035113 53.304627 
L 411.458266 51.020397 
L 411.740369 50.335726 
L 411.88142 50.249889 
L 412.022471 50.335726 
L 412.304573 51.020397 
L 412.586675 52.378941 
L 413.009829 55.630576 
L 413.574033 62.039814 
L 414.279288 72.793719 
L 415.548748 96.481513 
L 416.818208 119.318901 
L 417.523464 128.942531 
L 418.087668 134.195596 
L 418.510821 136.479826 
L 418.792924 137.164497 
L 418.933975 137.250334 
L 419.075026 137.164497 
L 419.357128 136.479826 
L 419.63923 135.121282 
L 420.062383 131.869647 
L 420.626588 125.460409 
L 421.331843 114.706504 
L 422.601303 91.01871 
L 423.870763 68.181322 
L 424.576019 58.557692 
L 425.140223 53.304627 
L 425.563376 51.020397 
L 425.845478 50.335726 
L 425.98653 50.249889 
L 426.127581 50.335726 
L 426.409683 51.020397 
L 426.691785 52.378941 
L 427.114938 55.630576 
L 427.679143 62.039814 
L 428.384398 72.793719 
L 429.653858 96.481513 
L 430.923318 119.318901 
L 431.628573 128.942531 
L 432.192778 134.195596 
L 432.615931 136.479826 
L 432.898033 137.164497 
L 433.039084 137.250334 
L 433.180136 137.164497 
L 433.462238 136.479826 
L 433.74434 135.121282 
L 434.167493 131.869647 
L 434.731698 125.460409 
L 435.436953 114.706504 
L 436.706413 91.01871 
L 437.975873 68.181322 
L 438.681128 58.557692 
L 439.245333 53.304627 
L 439.668486 51.020397 
L 439.950588 50.335726 
L 440.091639 50.249889 
L 440.23269 50.335726 
L 440.514793 51.020397 
L 440.796895 52.378941 
L 441.220048 55.630576 
L 441.784253 62.039814 
L 442.489508 72.793719 
L 443.758968 96.481513 
L 445.028428 119.318901 
L 445.733683 128.942531 
L 446.297888 134.195596 
L 446.721041 136.479826 
L 447.003143 137.164497 
L 447.144194 137.250334 
L 447.285245 137.164497 
L 447.567348 136.479826 
L 447.84945 135.121282 
L 448.272603 131.869647 
L 448.836807 125.460409 
L 449.542063 114.706504 
L 450.811523 91.01871 
L 452.080983 68.181322 
L 452.786238 58.557692 
L 453.350443 53.304627 
L 453.773596 51.020397 
L 454.055698 50.335726 
L 454.196749 50.249889 
L 454.3378 50.335726 
L 454.619902 51.020397 
L 454.902005 52.378941 
L 455.325158 55.630576 
L 455.889362 62.039814 
L 456.594618 72.793719 
L 457.864078 96.481513 
L 459.133538 119.318901 
L 459.838793 128.942531 
L 460.402997 134.195596 
L 460.826151 136.479826 
L 461.108253 137.164497 
L 461.249304 137.250334 
L 461.390355 137.164497 
L 461.672457 136.479826 
L 461.95456 135.121282 
L 462.377713 131.869647 
L 462.941917 125.460409 
L 463.647173 114.706504 
L 464.916633 91.01871 
L 466.186093 68.181322 
L 466.891348 58.557692 
L 467.455552 53.304627 
L 467.878706 51.020397 
L 468.160808 50.335726 
L 468.301859 50.249889 
L 468.44291 50.335726 
L 468.725012 51.020397 
L 469.007114 52.378941 
L 469.430268 55.630576 
L 469.994472 62.039814 
L 470.699728 72.793719 
L 471.969188 96.481513 
L 473.238647 119.318901 
L 473.943903 128.942531 
L 474.508107 134.195596 
L 474.931261 136.479826 
L 475.213363 137.164497 
L 475.354414 137.250334 
L 475.495465 137.164497 
L 475.777567 136.479826 
L 476.059669 135.121282 
L 476.482823 131.869647 
L 477.047027 125.460409 
L 477.752283 114.706504 
L 479.021742 91.01871 
L 480.291202 68.181322 
L 480.996458 58.557692 
L 481.560662 53.304627 
L 481.983815 51.020397 
L 482.265918 50.335726 
L 482.406969 50.249889 
L 482.54802 50.335726 
L 482.830122 51.020397 
L 483.112224 52.378941 
L 483.535378 55.630576 
L 484.099582 62.039814 
L 484.804837 72.793719 
L 486.074297 96.481513 
L 487.061655 114.706504 
L 487.061655 114.706504 
" clip-path="url(#p62b0a3a8d3)" style="fill: none; stroke: #ffa231; stroke-width: 4"/>
   </g>
   <g id="line2d_3">
    <path d="M 16.938345 6.749666 
L 20.464622 13.043594 
L 23.9909 18.882196 
L 27.517177 24.298413 
L 30.620301 28.739596 
L 30.761353 7.20398 
L 34.28763 13.465041 
L 37.813907 19.273154 
L 41.340185 24.661088 
L 44.866462 29.659239 
L 45.994871 31.181008 
L 46.135922 9.6266 
L 49.6622 15.712401 
L 53.188477 21.357932 
L 56.714755 26.595045 
L 60.382083 31.640134 
L 60.946288 32.381925 
L 61.087339 10.854172 
L 64.613616 16.851165 
L 68.139894 22.414314 
L 71.666171 27.575005 
L 75.3335 32.546467 
L 75.474551 32.730004 
L 75.615602 11.170118 
L 79.141879 17.144254 
L 82.668157 22.6862 
L 86.194434 27.827222 
L 89.861763 32.77974 
L 90.002814 32.962645 
L 90.143865 11.452005 
L 93.670142 17.405749 
L 97.19642 22.928777 
L 100.722697 28.052249 
L 104.248975 32.805072 
L 104.390026 11.268729 
L 107.916303 17.235732 
L 111.442581 22.77106 
L 114.968858 27.905942 
L 118.495136 32.669355 
L 118.636187 11.146663 
L 122.162464 17.122497 
L 125.688742 22.666017 
L 129.215019 27.808498 
L 132.600245 32.394926 
L 132.741297 10.850923 
L 136.267574 16.848151 
L 139.793851 22.411518 
L 143.320129 27.572411 
L 146.705355 32.175258 
L 146.846406 10.632321 
L 150.372684 16.645364 
L 153.898961 22.223401 
L 157.425239 27.397903 
L 160.810465 32.012898 
L 160.951516 10.486721 
L 164.477794 16.510297 
L 168.004071 22.098105 
L 171.530349 27.281672 
L 174.915575 31.904738 
L 175.056626 10.404758 
L 178.582903 16.434264 
L 182.109181 22.027573 
L 185.635458 27.216242 
L 188.879634 31.657678 
L 189.020685 10.123461 
L 192.546962 16.173317 
L 196.07324 21.785504 
L 199.599517 26.991685 
L 202.984743 31.634932 
L 203.125794 10.13076 
L 206.652072 16.180088 
L 210.178349 21.791785 
L 213.704627 26.997512 
L 216.948802 31.453541 
L 217.089853 9.911301 
L 220.616131 15.976505 
L 224.142408 21.60293 
L 227.668686 26.822319 
L 231.053912 31.47735 
L 231.194963 9.95654 
L 234.72124 16.018472 
L 238.247518 21.641861 
L 241.773795 26.858433 
L 245.159022 31.510959 
L 245.300073 10.005633 
L 248.82635 16.064013 
L 252.352628 21.684107 
L 255.878905 26.897624 
L 259.12308 31.360317 
L 259.264132 9.80043 
L 262.790409 15.873655 
L 266.316686 21.507521 
L 269.842964 26.733812 
L 273.22819 31.395022 
L 273.369241 9.840612 
L 276.895519 15.910929 
L 280.421796 21.542098 
L 283.948074 26.765888 
L 287.3333 31.424866 
L 287.474351 9.872409 
L 291.000629 15.940426 
L 294.526906 21.569461 
L 298.053184 26.791272 
L 301.43841 31.448478 
L 301.579461 9.89551 
L 305.105738 15.961857 
L 308.632016 21.589342 
L 312.158293 26.809714 
L 315.54352 31.465639 
L 315.684571 9.910648 
L 319.210848 15.975899 
L 322.737126 21.602368 
L 326.263403 26.821798 
L 329.64863 31.476888 
L 329.789681 9.919128 
L 333.315958 15.983766 
L 336.842236 21.609666 
L 340.368513 26.828568 
L 343.753739 31.483189 
L 343.89479 9.922481 
L 347.421068 15.986876 
L 350.947345 21.612551 
L 354.473623 26.831244 
L 357.9999 31.672398 
L 358.140951 10.173609 
L 361.667229 16.219836 
L 365.193506 21.828658 
L 368.719784 27.031717 
L 372.10501 31.6722 
L 372.246061 10.171055 
L 375.772339 16.217467 
L 379.298616 21.82646 
L 382.824894 27.029678 
L 386.21012 31.670309 
L 386.351171 10.167313 
L 389.877448 16.213997 
L 393.403726 21.823241 
L 396.930003 27.026692 
L 400.31523 31.667532 
L 400.456281 10.163201 
L 403.982558 16.210182 
L 407.508836 21.819702 
L 411.035113 27.023409 
L 414.420339 31.664478 
L 414.561391 10.159279 
L 418.087668 16.206544 
L 421.613945 21.816327 
L 425.140223 27.020278 
L 428.525449 31.661565 
L 428.6665 10.155887 
L 432.192778 16.203397 
L 435.719055 21.813408 
L 439.245333 27.01757 
L 442.630559 31.659045 
L 442.77161 10.153187 
L 446.297888 16.200892 
L 449.824165 21.811084 
L 453.350443 27.015415 
L 456.735669 31.657039 
L 456.87672 10.151211 
L 460.402997 16.199059 
L 463.929275 21.809384 
L 467.455552 27.013837 
L 470.840779 31.655572 
L 470.98183 10.149905 
L 474.508107 16.197848 
L 478.034385 21.80826 
L 481.560662 27.012795 
L 484.945889 31.654602 
L 485.08694 10.149164 
L 487.061655 13.591893 
L 487.061655 13.591893 
" clip-path="url(#p62b0a3a8d3)" style="fill: none; stroke: #4eba88; stroke-width: 4"/>
   </g>
  </g>
 </g>
 <defs>
  <clipPath id="p62b0a3a8d3">
   <rect x="2.834646" y="2.834646" width="498.330709" height="138.330709"/>
  </clipPath>
 </defs>
</svg>
