<?xml version="1.0" encoding="utf-8" standalone="no"?>
<!DOCTYPE svg PUBLIC "-//W3C//DTD SVG 1.1//EN"
  "http://www.w3.org/Graphics/SVG/1.1/DTD/svg11.dtd">
<svg xmlns:xlink="http://www.w3.org/1999/xlink" width="794.88pt" height="141.12pt" viewBox="0 0 794.88 141.12" xmlns="http://www.w3.org/2000/svg" version="1.1">
 <metadata>
  <rdf:RDF xmlns:dc="http://purl.org/dc/elements/1.1/" xmlns:cc="http://creativecommons.org/ns#" xmlns:rdf="http://www.w3.org/1999/02/22-rdf-syntax-ns#">
   <cc:Work>
    <dc:type rdf:resource="http://purl.org/dc/dcmitype/StillImage"/>
    <dc:date>2024-04-27T16:44:23.738727</dc:date>
    <dc:format>image/svg+xml</dc:format>
    <dc:creator>
     <cc:Agent>
      <dc:title>Matplotlib v3.7.0, https://matplotlib.org/</dc:title>
     </cc:Agent>
    </dc:creator>
   </cc:Work>
  </rdf:RDF>
 </metadata>
 <defs>
  <style type="text/css">*{stroke-linejoin: round; stroke-linecap: butt}</style>
 </defs>
 <g id="figure_1">
  <g id="patch_1">
   <path d="M 0 141.12 
L 794.88 141.12 
L 794.88 0 
L 0 0 
L 0 141.12 
z
" style="fill: none"/>
  </g>
  <g id="axes_1">
   <g id="patch_2">
    <path d="M 41.316477 124.800705 
L 792.045354 124.800705 
L 792.045354 2.834646 
L 41.316477 2.834646 
L 41.316477 124.800705 
z
" style="fill: none"/>
   </g>
   <g id="line2d_1">
    <path d="M 62.56352 101.457197 
L 66.193224 95.631018 
L 71.593514 86.489675 
L 79.207038 73.64955 
L 83.190859 67.372795 
L 86.643503 62.337075 
L 89.742031 58.195936 
L 92.663499 54.646968 
L 95.496438 51.545939 
L 98.240848 48.861014 
L 100.985258 46.481766 
L 103.729668 44.393653 
L 106.474077 42.577771 
L 109.307017 40.966086 
L 112.228485 39.55795 
L 115.238483 38.349862 
L 118.42554 37.312032 
L 121.701125 36.48061 
L 125.065241 35.859175 
L 128.340827 35.476005 
L 131.616412 35.31452 
L 133.121411 35.426976 
L 134.71494 35.773552 
L 136.308468 36.349136 
L 137.990526 37.198585 
L 139.761113 38.352625 
L 141.620229 39.840337 
L 143.567875 41.68838 
L 145.692579 44.023779 
L 147.994342 46.90449 
L 150.473164 50.380016 
L 153.217574 54.629665 
L 156.316101 59.859271 
L 159.945804 66.440472 
L 164.991977 76.096289 
L 173.756382 92.895998 
L 177.474615 99.494042 
L 180.484613 104.404446 
L 183.140493 108.335324 
L 185.530786 111.500354 
L 187.74402 114.081879 
L 189.868724 116.219482 
L 191.81637 117.86881 
L 193.675486 119.154664 
L 195.446073 120.109387 
L 197.128131 120.767451 
L 198.721659 121.164339 
L 200.315187 121.339527 
L 201.908715 121.293058 
L 203.502244 121.02627 
L 205.184301 120.50856 
L 206.866359 119.752938 
L 208.636946 118.707349 
L 210.496062 117.343091 
L 212.443708 115.63477 
L 214.568412 113.46519 
L 216.870175 110.783172 
L 219.348997 107.549655 
L 222.181936 103.478507 
L 225.546052 98.230567 
L 229.88399 91.020795 
L 241.835452 70.934351 
L 245.553684 65.243092 
L 248.82927 60.620702 
L 251.927797 56.631438 
L 254.849266 53.232442 
L 257.682205 50.278139 
L 260.426615 47.732705 
L 263.171025 45.487331 
L 265.915435 43.525278 
L 268.748374 41.775571 
L 271.669842 40.239014 
L 274.67984 38.912482 
L 277.778367 37.790996 
L 280.965424 36.870498 
L 284.24101 36.151239 
L 287.605125 35.641436 
L 290.880711 35.368756 
L 293.359533 35.350179 
L 294.953061 35.597493 
L 296.546589 36.075928 
L 298.228647 36.825488 
L 299.910704 37.818822 
L 301.681291 39.118619 
L 303.628937 40.836989 
L 305.665112 42.940512 
L 307.878346 45.561009 
L 310.268638 48.752189 
L 312.835989 52.55694 
L 315.757458 57.300733 
L 319.121573 63.210944 
L 323.282453 70.995647 
L 337.093031 97.215275 
L 340.368617 102.737613 
L 343.201556 107.083488 
L 345.680378 110.497508 
L 347.982141 113.302459 
L 350.106845 115.552093 
L 352.054491 117.309625 
L 353.913607 118.702783 
L 355.684194 119.762554 
L 357.366252 120.522286 
L 359.048309 121.037544 
L 360.641838 121.298253 
L 362.235366 121.337188 
L 363.828894 121.155178 
L 365.422423 120.754338 
L 367.10448 120.0976 
L 368.875067 119.153097 
L 370.645654 117.957077 
L 372.5933 116.363102 
L 374.629475 114.401766 
L 376.842709 111.952306 
L 379.233001 108.969891 
L 381.888881 105.296808 
L 384.987409 100.61689 
L 388.794171 94.43952 
L 395.079754 83.736695 
L 401.365338 73.190047 
L 405.349159 66.939336 
L 408.713274 62.056276 
L 411.811801 57.934961 
L 414.73327 54.406352 
L 417.566209 51.325937 
L 420.310619 48.661255 
L 423.055029 46.302071 
L 425.799438 44.233495 
L 428.543848 42.436372 
L 431.376787 40.843077 
L 434.298256 39.452816 
L 437.308254 38.262047 
L 440.49531 37.241538 
L 443.770896 36.427155 
L 447.135012 35.822857 
L 450.410597 35.456458 
L 453.597654 35.316234 
L 455.102653 35.449346 
L 456.696181 35.817035 
L 458.289709 36.412844 
L 459.971767 37.282584 
L 461.742354 38.45672 
L 463.60147 39.964056 
L 465.549116 41.830964 
L 467.67382 44.184896 
L 469.975583 47.083214 
L 472.454405 50.574778 
L 475.198815 54.838612 
L 478.297342 60.079717 
L 482.015575 66.833808 
L 487.238807 76.840279 
L 495.472036 92.609545 
L 499.190269 99.223911 
L 502.288796 104.292427 
L 504.944676 108.232087 
L 507.423498 111.517236 
L 509.636732 114.095377 
L 511.761436 116.230041 
L 513.709082 117.876945 
L 515.568198 119.160722 
L 517.338785 120.113671 
L 519.020843 120.770222 
L 520.614371 121.165821 
L 522.207899 121.339841 
L 523.801428 121.292314 
L 525.394956 121.024557 
L 527.077013 120.505902 
L 528.759071 119.749394 
L 530.529658 118.702912 
L 532.388774 117.337732 
L 534.33642 115.628436 
L 536.461124 113.457747 
L 538.762887 110.77444 
L 541.241709 107.539399 
L 544.074648 103.466303 
L 547.438764 98.215756 
L 551.776702 91.002201 
L 563.728164 70.904781 
L 567.446396 65.210758 
L 570.721982 60.586501 
L 573.73198 56.704651 
L 576.653449 53.294326 
L 579.486388 50.329617 
L 582.230798 47.774922 
L 584.975208 45.521287 
L 587.719617 43.552089 
L 590.552557 41.796231 
L 593.385496 40.297564 
L 596.395494 38.959756 
L 599.494021 37.828564 
L 602.681077 36.899633 
L 605.956663 36.172713 
L 609.320778 35.655339 
L 612.596364 35.374818 
L 615.163715 35.347173 
L 616.757244 35.58871 
L 618.350772 36.061103 
L 620.03283 36.803945 
L 621.714887 37.790147 
L 623.485474 39.081942 
L 625.43312 40.790919 
L 627.469295 42.88403 
L 629.682529 45.492718 
L 632.072821 48.670932 
L 634.640172 52.462072 
L 637.561641 57.191603 
L 640.925756 63.088143 
L 645.086635 70.861471 
L 659.074272 97.400532 
L 662.261329 102.764601 
L 665.094268 107.106743 
L 667.57309 110.51678 
L 669.874853 113.317638 
L 671.999557 115.563393 
L 673.947203 117.317506 
L 675.806319 118.707724 
L 677.576906 119.765161 
L 679.258964 120.523239 
L 680.941022 121.037511 
L 682.53455 121.297988 
L 684.128078 121.337439 
L 685.721606 121.156729 
L 687.315135 120.757984 
L 688.997192 120.104304 
L 690.767779 119.163902 
L 692.626896 117.906827 
L 694.574541 116.306146 
L 696.610716 114.339267 
L 698.82395 111.885292 
L 701.214242 108.89949 
L 703.870123 105.224055 
L 706.96865 100.542709 
L 710.775412 94.364747 
L 717.149525 83.510862 
L 723.34658 73.118783 
L 727.3304 66.872178 
L 730.694516 61.994342 
L 733.793043 57.879264 
L 736.714511 54.357576 
L 739.547451 51.284488 
L 742.29186 48.627067 
L 745.03627 46.274859 
L 747.78068 44.212546 
L 750.52509 42.420622 
L 753.358029 40.831345 
L 756.279497 39.44375 
L 759.378025 38.222842 
L 762.565081 37.209425 
L 765.840667 36.401778 
L 769.204782 35.805086 
L 770.798311 35.612305 
L 770.798311 35.612305 
" clip-path="url(#p8a7e435dd5)" style="fill: none; stroke: #009afa; stroke-width: 6"/>
   </g>
   <g id="matplotlib.axis_1">
    <g id="xtick_1"/>
    <g id="xtick_2"/>
    <g id="xtick_3"/>
    <g id="xtick_4"/>
    <g id="xtick_5"/>
   </g>
   <g id="matplotlib.axis_2">
    <g id="ytick_1">
     <g id="line2d_2">
      <defs>
       <path id="m794530c304" d="M 0 0 
L 5 0 
" style="stroke: #000000"/>
      </defs>
      <g>
       <use xlink:href="#m794530c304" x="41.316477" y="121.348836" style="stroke: #000000"/>
      </g>
     </g>
     <g id="text_1">
      <!-- $-1$ -->
      <g transform="translate(1.976477 131.986648) scale(0.28 -0.28)">
       <defs>
        <path id="Cmsy10-a1" d="M 653 1472 
Q 600 1472 565 1512 
Q 531 1553 531 1600 
Q 531 1647 565 1687 
Q 600 1728 653 1728 
L 4325 1728 
Q 4375 1728 4408 1687 
Q 4441 1647 4441 1600 
Q 4441 1553 4408 1512 
Q 4375 1472 4325 1472 
L 653 1472 
z
" transform="scale(0.015625)"/>
        <path id="Cmr10-31" d="M 594 0 
L 594 225 
Q 1394 225 1394 428 
L 1394 3788 
Q 1063 3628 556 3628 
L 556 3853 
Q 1341 3853 1741 4263 
L 1831 4263 
Q 1853 4263 1873 4245 
Q 1894 4228 1894 4206 
L 1894 428 
Q 1894 225 2694 225 
L 2694 0 
L 594 0 
z
" transform="scale(0.015625)"/>
       </defs>
       <use xlink:href="#Cmsy10-a1" transform="translate(0 0.390625)"/>
       <use xlink:href="#Cmr10-31" transform="translate(77.685547 0.390625)"/>
      </g>
     </g>
    </g>
    <g id="ytick_2">
     <g id="line2d_3">
      <g>
       <use xlink:href="#m794530c304" x="41.316477" y="78.331623" style="stroke: #000000"/>
      </g>
     </g>
     <g id="text_2">
      <!-- $0$ -->
      <g transform="translate(23.816477 88.969436) scale(0.28 -0.28)">
       <defs>
        <path id="Cmr10-30" d="M 1600 -141 
Q 816 -141 533 504 
Q 250 1150 250 2041 
Q 250 2597 351 3087 
Q 453 3578 754 3920 
Q 1056 4263 1600 4263 
Q 2022 4263 2290 4056 
Q 2559 3850 2700 3523 
Q 2841 3197 2892 2823 
Q 2944 2450 2944 2041 
Q 2944 1491 2842 1011 
Q 2741 531 2444 195 
Q 2147 -141 1600 -141 
z
M 1600 25 
Q 1956 25 2131 390 
Q 2306 756 2347 1200 
Q 2388 1644 2388 2144 
Q 2388 2625 2347 3031 
Q 2306 3438 2132 3767 
Q 1959 4097 1600 4097 
Q 1238 4097 1063 3765 
Q 888 3434 847 3029 
Q 806 2625 806 2144 
Q 806 1788 823 1472 
Q 841 1156 916 820 
Q 991 484 1158 254 
Q 1325 25 1600 25 
z
" transform="scale(0.015625)"/>
       </defs>
       <use xlink:href="#Cmr10-30" transform="translate(0 0.390625)"/>
      </g>
     </g>
    </g>
    <g id="ytick_3">
     <g id="line2d_4">
      <g>
       <use xlink:href="#m794530c304" x="41.316477" y="35.314411" style="stroke: #000000"/>
      </g>
     </g>
     <g id="text_3">
      <!-- $1$ -->
      <g transform="translate(23.816477 45.952223) scale(0.28 -0.28)">
       <use xlink:href="#Cmr10-31" transform="translate(0 0.390625)"/>
      </g>
     </g>
    </g>
   </g>
   <g id="line2d_5">
    <path d="M 62.56352 35.31526 
L 63.448814 35.436627 
L 64.422637 35.80665 
L 65.39646 36.42235 
L 66.458812 37.37 
L 67.609693 38.71415 
L 68.849104 40.518766 
L 70.177044 42.844329 
L 71.682043 45.939128 
L 73.364101 49.924401 
L 75.311747 55.145087 
L 77.61351 61.994585 
L 80.623508 71.709053 
L 88.325561 96.916039 
L 90.715853 103.791118 
L 92.663499 108.749386 
L 94.345557 112.470439 
L 95.850556 115.303194 
L 97.267025 117.504214 
L 98.506436 119.038325 
L 99.657318 120.122111 
L 100.71967 120.823442 
L 101.693493 121.20979 
L 102.667315 121.34842 
L 103.552609 121.258783 
L 104.526432 120.923481 
L 105.500255 120.342115 
L 106.562607 119.431247 
L 107.713488 118.125866 
L 108.952899 116.361397 
L 110.280839 114.076588 
L 111.785838 111.024608 
L 113.467896 107.082264 
L 115.415542 101.903855 
L 117.717305 95.09278 
L 120.638773 85.700906 
L 128.872003 58.826304 
L 131.173766 52.287587 
L 133.121411 47.402237 
L 134.803469 43.753728 
L 136.308468 40.992329 
L 137.636408 38.98231 
L 138.875819 37.487158 
L 140.026701 36.440709 
L 141.089053 35.77457 
L 142.062876 35.420881 
L 143.036698 35.315098 
L 143.921992 35.434599 
L 144.895815 35.802581 
L 145.869638 36.416264 
L 146.93199 37.361753 
L 148.082871 38.703626 
L 149.322282 40.505887 
L 150.650222 42.829059 
L 152.155221 45.92135 
L 153.837279 49.90411 
L 155.784925 55.122325 
L 158.086688 61.969585 
L 161.096686 71.682348 
L 168.798739 96.89166 
L 171.189031 103.769327 
L 173.136677 108.730268 
L 174.818735 112.453987 
L 176.323734 115.28937 
L 177.740203 117.493037 
L 178.979614 119.029578 
L 180.130496 120.115694 
L 181.192848 120.819222 
L 182.166671 121.20761 
L 183.140493 121.348292 
L 184.025787 121.260523 
L 184.99961 120.927264 
L 185.973433 120.34792 
L 187.035785 119.439219 
L 188.186666 118.136123 
L 189.426077 116.374022 
L 190.754017 114.091618 
L 192.259016 111.042168 
L 193.941074 107.102363 
L 195.88872 101.926459 
L 198.190483 95.117669 
L 201.111951 85.727534 
L 209.345181 58.850398 
L 211.646944 52.309104 
L 213.594589 47.421028 
L 215.276647 43.769814 
L 216.781646 41.005758 
L 218.109586 38.993239 
L 219.348997 37.495647 
L 220.499879 36.446862 
L 221.562231 35.778521 
L 222.536054 35.42279 
L 223.509877 35.314954 
L 224.39517 35.432589 
L 225.368993 35.798529 
L 226.342816 36.410194 
L 227.405168 37.353522 
L 228.556049 38.693118 
L 229.79546 40.493022 
L 231.1234 42.813804 
L 232.628399 45.903584 
L 234.310457 49.88383 
L 236.258103 55.099573 
L 238.559866 61.944591 
L 241.569864 71.655645 
L 249.360446 97.135125 
L 251.662209 103.747525 
L 253.609855 108.711138 
L 255.291913 112.437522 
L 256.796912 115.275531 
L 258.213381 117.481845 
L 259.452792 119.020815 
L 260.603674 120.109261 
L 261.666026 120.814986 
L 262.639849 121.205413 
L 263.613671 121.348148 
L 264.498965 121.262245 
L 265.472788 120.931031 
L 266.446611 120.353708 
L 267.508963 119.447174 
L 268.659844 118.146364 
L 269.899255 116.386632 
L 271.227195 114.106635 
L 272.732194 111.059715 
L 274.414252 107.122451 
L 276.361898 101.949054 
L 278.663661 95.142552 
L 281.585129 85.754158 
L 289.818359 58.8745 
L 292.120122 52.330631 
L 294.067767 47.439832 
L 295.749825 43.785913 
L 297.254824 41.019201 
L 298.582764 39.004183 
L 299.822175 37.504153 
L 300.973057 36.453031 
L 302.035409 35.782489 
L 303.009232 35.424716 
L 303.983055 35.314827 
L 304.868348 35.430595 
L 305.842171 35.794494 
L 306.815994 36.40414 
L 307.878346 37.345307 
L 309.029227 38.682626 
L 310.268638 40.480172 
L 311.596579 42.798562 
L 313.101577 45.885831 
L 314.783635 49.863561 
L 316.731281 55.076829 
L 319.033044 61.919604 
L 322.043042 71.628946 
L 329.833624 97.110812 
L 332.135387 103.725714 
L 334.083033 108.691996 
L 335.765091 112.421043 
L 337.27009 115.261678 
L 338.686559 117.470637 
L 339.92597 119.012036 
L 341.076852 120.102811 
L 342.139204 120.810732 
L 343.113027 121.203199 
L 344.08685 121.347987 
L 344.972143 121.263951 
L 345.945966 120.93478 
L 346.919789 120.35948 
L 347.982141 119.455114 
L 349.133022 118.15659 
L 350.372433 116.399227 
L 351.700374 114.121637 
L 353.205372 111.07725 
L 354.88743 107.142528 
L 356.835076 101.97164 
L 359.136839 95.167427 
L 362.058307 85.78078 
L 370.291537 58.898609 
L 372.5933 52.352169 
L 374.540946 47.458647 
L 376.223003 43.802026 
L 377.728002 41.032659 
L 379.055942 39.015143 
L 380.295353 37.512674 
L 381.446235 36.459217 
L 382.508587 35.786474 
L 383.48241 35.426659 
L 384.456233 35.314716 
L 385.341526 35.428618 
L 386.315349 35.790475 
L 387.289172 36.398103 
L 388.351524 37.337108 
L 389.502405 38.67215 
L 390.741816 40.467338 
L 392.069757 42.783335 
L 393.574755 45.868091 
L 395.256813 49.843304 
L 397.204459 55.054095 
L 399.506222 61.894623 
L 402.51622 71.602249 
L 410.306802 97.086491 
L 412.608565 103.703892 
L 414.556211 108.672842 
L 416.238269 112.404551 
L 417.743268 115.247809 
L 419.159737 117.459414 
L 420.399148 119.003241 
L 421.55003 120.096345 
L 422.612382 120.806462 
L 423.586205 121.200969 
L 424.560028 121.347808 
L 425.445321 121.26564 
L 426.419144 120.938513 
L 427.392967 120.365235 
L 428.455319 119.463037 
L 429.6062 118.1668 
L 430.845611 116.411807 
L 432.173552 114.136625 
L 433.67855 111.094771 
L 435.360608 107.162593 
L 437.308254 101.994217 
L 439.521488 95.465416 
L 442.442956 86.100007 
L 450.853244 58.657861 
L 453.155007 52.137256 
L 455.102653 47.271041 
L 456.784711 43.641512 
L 458.289709 40.898744 
L 459.61765 38.906244 
L 460.857061 37.428183 
L 462.007942 36.398103 
L 463.070294 35.747382 
L 464.044117 35.407993 
L 465.01794 35.316584 
L 465.903233 35.449147 
L 466.877056 35.831415 
L 467.850879 36.459217 
L 468.913231 37.419823 
L 470.064113 38.777619 
L 471.303524 40.596356 
L 472.719993 43.106048 
L 474.224992 46.243314 
L 475.90705 50.271061 
L 477.854696 55.533427 
L 480.156459 62.420568 
L 483.254986 72.457815 
L 490.514392 96.255244 
L 492.904685 103.19925 
L 494.94086 108.442061 
L 496.711447 112.388046 
L 498.216446 115.233927 
L 499.632915 117.448176 
L 500.872326 118.99443 
L 502.023208 120.089862 
L 503.08556 120.802175 
L 504.059383 121.198721 
L 505.033206 121.347613 
L 505.918499 121.267311 
L 506.892322 120.942229 
L 507.866145 120.370974 
L 508.928497 119.470944 
L 510.079378 118.176994 
L 511.318789 116.424371 
L 512.64673 114.151598 
L 514.151729 111.112279 
L 515.833786 107.182647 
L 517.692902 102.264405 
L 519.906136 95.762431 
L 522.739075 86.71061 
L 531.59201 57.892733 
L 533.805244 51.689316 
L 535.66436 47.084661 
L 537.346418 43.482368 
L 538.851417 40.766307 
L 540.179357 38.798901 
L 541.418768 37.345307 
L 542.569649 36.338645 
L 543.632002 35.709971 
L 544.605825 35.391022 
L 545.579647 35.320151 
L 546.464941 35.471369 
L 547.438764 35.874032 
L 548.412587 36.521983 
L 549.474939 37.504153 
L 550.62582 38.88465 
L 551.865231 40.726864 
L 553.281701 43.261879 
L 554.7867 46.42396 
L 556.468757 50.476477 
L 558.416403 55.76308 
L 560.718166 62.671997 
L 563.816693 72.725683 
L 570.98757 96.23067 
L 573.377863 103.177191 
L 575.414038 108.422752 
L 577.184625 112.371527 
L 578.689624 115.22003 
L 580.106093 117.436922 
L 581.345504 118.985602 
L 582.496386 120.083362 
L 583.558738 120.797872 
L 584.532561 121.196457 
L 585.506384 121.347401 
L 586.391677 121.268966 
L 587.3655 120.945928 
L 588.339323 120.376696 
L 589.401675 119.478834 
L 590.552557 118.187172 
L 591.791967 116.436921 
L 593.119908 114.166558 
L 594.624907 111.129775 
L 596.306964 107.20269 
L 598.166081 102.28686 
L 600.379314 95.787137 
L 603.212253 86.737119 
L 612.065188 57.916519 
L 614.278422 51.710541 
L 616.137538 47.103244 
L 617.819596 43.498221 
L 619.324595 40.779484 
L 620.652535 38.809565 
L 621.891946 37.353522 
L 623.042828 36.344517 
L 624.10518 35.713636 
L 625.079003 35.392642 
L 626.052825 35.319718 
L 626.938119 35.469071 
L 627.911942 35.869695 
L 628.885765 36.515632 
L 629.948117 37.495647 
L 631.098998 38.873877 
L 632.338409 40.713747 
L 633.754879 43.246234 
L 635.259878 46.405838 
L 636.941935 50.455886 
L 638.889581 55.740074 
L 641.191344 62.646826 
L 644.289871 72.698886 
L 651.460748 96.206089 
L 653.851041 103.155122 
L 655.887216 108.403431 
L 657.657803 112.354994 
L 659.162802 115.206118 
L 660.579271 117.425652 
L 661.818682 118.976759 
L 662.969564 120.076846 
L 664.031916 120.793551 
L 665.005739 121.194175 
L 665.979562 121.347171 
L 666.864855 121.270604 
L 667.838678 120.94961 
L 668.812501 120.382401 
L 669.874853 119.486709 
L 671.025735 118.197335 
L 672.265145 116.449456 
L 673.593086 114.181504 
L 675.098085 111.147257 
L 676.780142 107.222721 
L 678.639259 102.309305 
L 680.852492 95.811837 
L 683.685431 86.763625 
L 692.626896 57.679016 
L 694.840129 51.498756 
L 696.699246 46.917974 
L 698.381303 43.340315 
L 699.886302 40.648381 
L 701.214242 38.703626 
L 702.453653 37.272102 
L 703.604535 36.286551 
L 704.666887 35.67774 
L 705.64071 35.377197 
L 706.526003 35.319302 
L 707.411297 35.46679 
L 708.38512 35.865375 
L 709.358943 36.509298 
L 710.421295 37.487158 
L 711.572176 38.863119 
L 712.811587 40.700644 
L 714.228057 43.230602 
L 715.733056 46.38773 
L 717.415113 50.435306 
L 719.362759 55.717078 
L 721.664522 62.621661 
L 724.763049 72.672091 
L 731.933927 96.181501 
L 734.324219 103.133042 
L 736.360394 108.384098 
L 738.130981 112.338448 
L 739.63598 115.192191 
L 741.052449 117.414367 
L 742.29186 118.9679 
L 743.442742 120.070314 
L 744.505094 120.789214 
L 745.478917 121.191877 
L 746.45274 121.346925 
L 747.338033 121.272225 
L 748.311856 120.953275 
L 749.285679 120.38809 
L 750.348031 119.494567 
L 751.498913 118.207482 
L 752.738323 116.461976 
L 754.066264 114.196435 
L 755.571263 111.164727 
L 757.25332 107.24274 
L 759.112437 102.331741 
L 761.32567 95.83653 
L 764.158609 86.790128 
L 770.798311 65.038573 
L 770.798311 65.038573 
" clip-path="url(#p8a7e435dd5)" style="fill: none; stroke: #e36f47; stroke-width: 6"/>
   </g>
   <g id="patch_3">
    <path d="M 41.316477 124.800705 
L 41.316477 2.834646 
" style="fill: none; stroke: #000000; stroke-width: 2; stroke-linejoin: miter; stroke-linecap: square"/>
   </g>
   <g id="line2d_6">
    <path d="M 62.56352 35.471332 
L 75.665864 38.528484 
L 89.210854 41.459869 
L 103.287021 44.277681 
L 117.894363 46.974364 
L 131.527883 49.298255 
L 131.616412 6.3073 
L 131.704942 6.343303 
L 142.062876 10.433806 
L 152.686397 14.387867 
L 163.575507 18.201924 
L 174.730205 21.873235 
L 186.239021 25.426304 
L 198.101953 28.854823 
L 210.319004 32.153605 
L 222.9787 35.34006 
L 236.081044 38.406576 
L 249.626034 41.346939 
L 263.702201 44.173382 
L 278.309543 46.878324 
L 292.474239 49.296569 
L 292.562769 6.312834 
L 292.651298 6.348834 
L 303.009232 10.439023 
L 313.632754 14.39278 
L 324.521863 18.206544 
L 335.676561 21.877572 
L 347.185377 25.430369 
L 359.048309 28.858624 
L 371.26536 32.157153 
L 383.925056 35.343363 
L 397.0274 38.409643 
L 410.57239 41.349781 
L 424.648557 44.176006 
L 439.255899 46.88074 
L 453.332066 49.284279 
L 453.420595 6.286515 
L 453.509125 6.322529 
L 463.867058 10.414212 
L 474.49058 14.369414 
L 485.37969 18.184572 
L 496.534388 21.856942 
L 508.043203 25.411037 
L 519.906136 28.840545 
L 532.123186 32.140279 
L 544.782883 35.327654 
L 557.885227 38.395054 
L 571.430217 41.336266 
L 585.506384 44.163524 
L 600.113726 46.869247 
L 614.278422 49.28819 
L 614.366951 6.295466 
L 614.455481 6.331475 
L 624.813414 10.42265 
L 635.436936 14.377361 
L 646.326046 18.192044 
L 657.480744 21.863958 
L 668.98956 25.417611 
L 680.852492 28.846693 
L 693.069542 32.146018 
L 705.729239 35.332996 
L 718.831583 38.400016 
L 732.376573 41.340862 
L 746.45274 44.167769 
L 761.060082 46.873156 
L 770.798311 48.543114 
L 770.798311 48.543114 
" clip-path="url(#p8a7e435dd5)" style="fill: none; stroke: #3ea44e; stroke-width: 6"/>
   </g>
  </g>
 </g>
 <defs>
  <clipPath id="p8a7e435dd5">
   <rect x="41.316477" y="2.834646" width="750.728878" height="121.96606"/>
  </clipPath>
 </defs>
</svg>
