<?xml version="1.0" encoding="utf-8" standalone="no"?>
<!DOCTYPE svg PUBLIC "-//W3C//DTD SVG 1.1//EN"
  "http://www.w3.org/Graphics/SVG/1.1/DTD/svg11.dtd">
<svg xmlns:xlink="http://www.w3.org/1999/xlink" width="720pt" height="250.56pt" viewBox="0 0 720 250.56" xmlns="http://www.w3.org/2000/svg" version="1.1">
 <metadata>
  <rdf:RDF xmlns:dc="http://purl.org/dc/elements/1.1/" xmlns:cc="http://creativecommons.org/ns#" xmlns:rdf="http://www.w3.org/1999/02/22-rdf-syntax-ns#">
   <cc:Work>
    <dc:type rdf:resource="http://purl.org/dc/dcmitype/StillImage"/>
    <dc:date>2024-08-16T13:38:03.078485</dc:date>
    <dc:format>image/svg+xml</dc:format>
    <dc:creator>
     <cc:Agent>
      <dc:title>Matplotlib v3.8.4, https://matplotlib.org/</dc:title>
     </cc:Agent>
    </dc:creator>
   </cc:Work>
  </rdf:RDF>
 </metadata>
 <defs>
  <style type="text/css">*{stroke-linejoin: round; stroke-linecap: butt}</style>
 </defs>
 <g id="figure_1">
  <g id="patch_1">
   <path d="M 0 250.56 
L 720 250.56 
L 720 0 
L 0 0 
L 0 250.56 
z
" style="fill: none"/>
  </g>
  <g id="axes_1">
   <g id="patch_2">
    <path d="M 64.170808 216.865354 
L 717.165354 216.865354 
L 717.165354 4.932252 
L 64.170808 4.932252 
L 64.170808 216.865354 
z
" style="fill: none"/>
   </g>
   <g id="line2d_1">
    <path d="M 82.651786 53.766849 
L 83.165146 53.958536 
L 83.678506 54.534054 
L 84.191867 55.492701 
L 84.705227 56.83191 
L 85.731948 60.632331 
L 86.758669 65.877077 
L 87.78539 72.477986 
L 88.812111 80.317854 
L 90.352193 94.077108 
L 92.405635 115.203537 
L 98.0526 175.902928 
L 99.592682 189.336385 
L 100.619403 196.787378 
L 101.646124 202.810731 
L 102.672845 207.244822 
L 103.186205 208.82419 
L 103.699566 209.960727 
L 104.212926 210.644237 
L 104.726287 210.867157 
L 105.239647 210.624677 
L 105.753008 209.914847 
L 106.266368 208.738659 
L 106.779729 207.100115 
L 107.80645 202.467209 
L 108.833171 196.10914 
L 109.859892 188.166755 
L 111.399973 173.700477 
L 112.940055 156.888883 
L 119.10038 86.058947 
L 120.640462 72.501866 
L 121.667183 65.284824 
L 122.693904 59.725988 
L 123.720625 55.947468 
L 124.233985 54.750987 
L 124.747346 54.023705 
L 125.260706 53.767324 
L 125.774067 54.067896 
L 126.287427 55.020889 
L 126.800788 56.610993 
L 127.314148 58.817753 
L 128.340869 64.976509 
L 129.36759 73.246658 
L 130.394311 83.320362 
L 131.934393 101.032228 
L 134.501195 134.202131 
L 137.067998 166.505515 
L 138.608079 183.087836 
L 139.6348 192.345367 
L 140.661521 199.892331 
L 141.688242 205.553853 
L 142.201603 207.637906 
L 142.714963 209.209953 
L 143.228324 210.263688 
L 143.741684 210.796245 
L 144.255045 210.808147 
L 144.768405 210.303234 
L 145.281766 209.288578 
L 145.795126 207.774377 
L 146.308487 205.773843 
L 147.335208 200.3809 
L 148.361929 193.270523 
L 149.38865 184.642384 
L 150.928731 169.372033 
L 152.982173 146.088502 
L 157.089057 98.393795 
L 158.629138 83.10501 
L 159.655859 74.375323 
L 160.68258 67.036597 
L 161.709301 61.231464 
L 162.736022 57.057825 
L 163.249383 55.600839 
L 163.762743 54.567612 
L 164.276104 53.957526 
L 164.789464 53.767422 
L 165.302825 54.101983 
L 165.816185 55.043112 
L 166.329546 56.573506 
L 166.842906 58.671519 
L 167.869627 64.464162 
L 168.896348 72.174435 
L 169.923069 81.509926 
L 171.463151 97.843066 
L 174.029953 128.374472 
L 176.596756 158.479704 
L 178.136837 174.450647 
L 179.676919 187.952288 
L 180.70364 195.333623 
L 181.730361 201.309803 
L 182.757082 205.834838 
L 183.783803 208.902063 
L 184.297163 209.896711 
L 184.810524 210.540182 
L 185.323884 210.840816 
L 185.837245 210.808535 
L 186.350605 210.454679 
L 186.863966 209.791827 
L 187.377326 208.833619 
L 188.404047 206.089965 
L 189.430768 202.347528 
L 190.457489 197.736343 
L 191.99757 189.477625 
L 193.537652 179.988028 
L 196.104454 162.475794 
L 203.804862 108.49171 
L 206.371664 92.488515 
L 208.425106 80.989909 
L 209.965188 73.319458 
L 211.505269 66.639014 
L 213.045351 61.133838 
L 214.072072 58.218526 
L 215.098793 55.982424 
L 216.125514 54.490623 
L 216.638874 54.043643 
L 217.152235 53.805997 
L 217.665595 53.796055 
L 218.178956 54.121903 
L 218.692316 54.808557 
L 219.205677 55.854222 
L 219.719037 57.255555 
L 220.745758 61.10399 
L 221.772479 66.295658 
L 222.7992 72.747297 
L 224.339281 84.545004 
L 225.879363 98.468642 
L 227.932805 119.348964 
L 233.06641 172.966076 
L 234.606491 186.430998 
L 235.633212 194.084868 
L 236.659933 200.471568 
L 237.686654 205.436793 
L 238.713375 208.852657 
L 239.226736 209.94773 
L 239.740096 210.621281 
L 240.253457 210.866282 
L 240.766817 210.677952 
L 241.280178 210.053828 
L 241.793538 208.993832 
L 242.306899 207.500324 
L 243.33362 203.234668 
L 244.360341 197.325967 
L 245.387062 189.884023 
L 246.413783 181.058865 
L 247.953864 165.650027 
L 250.007306 142.309509 
L 254.11419 94.647683 
L 255.654272 79.535831 
L 256.680992 71.043018 
L 257.707713 64.07454 
L 258.734434 58.806818 
L 259.247795 56.853387 
L 259.761155 55.370236 
L 260.274516 54.365914 
L 260.787876 53.845757 
L 261.301237 53.83129 
L 261.814597 54.474564 
L 262.327958 55.795845 
L 262.841318 57.775459 
L 263.354679 60.388476 
L 264.3814 67.390913 
L 265.408121 76.51298 
L 266.948202 93.395233 
L 269.001644 119.740306 
L 272.595168 166.704393 
L 274.135249 183.634156 
L 275.16197 193.016071 
L 276.188691 200.583422 
L 277.215412 206.152004 
L 277.728773 208.145795 
L 278.242133 209.598451 
L 278.755494 210.504181 
L 279.268854 210.861006 
L 279.782215 210.670689 
L 280.295575 209.93865 
L 280.808936 208.673864 
L 281.322296 206.888732 
L 282.349017 201.823288 
L 283.375738 194.904242 
L 284.402459 186.337699 
L 285.942541 170.940972 
L 287.995983 147.161083 
L 292.102866 97.940491 
L 293.642948 82.150786 
L 294.669669 73.191722 
L 295.69639 65.748223 
L 296.723111 59.998302 
L 297.749832 56.073113 
L 298.263192 54.822029 
L 298.776553 54.053282 
L 299.289913 53.768733 
L 299.803274 54.069486 
L 300.316634 55.089083 
L 300.829995 56.810125 
L 301.343355 59.208109 
L 302.370076 65.908705 
L 303.396797 74.888661 
L 304.423518 85.777481 
L 305.9636 104.758184 
L 311.097205 172.295491 
L 312.637286 188.32126 
L 313.664007 196.882221 
L 314.690728 203.502458 
L 315.717449 208.048804 
L 316.23081 209.520853 
L 316.74417 210.454478 
L 317.257531 210.851339 
L 317.770891 210.716866 
L 318.284252 210.060092 
L 318.797612 208.893466 
L 319.310973 207.23265 
L 320.337694 202.505789 
L 321.364415 196.060201 
L 322.391136 188.112443 
L 323.931217 173.913284 
L 325.984659 152.135227 
L 330.604903 101.683574 
L 332.144985 87.253048 
L 333.685066 75.033886 
L 334.711787 68.316184 
L 335.738508 62.836256 
L 336.765229 58.64107 
L 337.79195 55.747734 
L 338.305311 54.78676 
L 338.818671 54.144841 
L 339.332032 53.816421 
L 339.845392 53.81474 
L 340.358753 54.294337 
L 340.872113 55.275688 
L 341.385474 56.739745 
L 341.898834 58.664589 
L 342.925555 63.796597 
L 343.952276 70.451566 
L 345.492358 82.750053 
L 347.032439 97.046005 
L 353.706126 162.358701 
L 355.246207 174.767081 
L 356.786289 185.417081 
L 358.32637 194.18621 
L 359.353091 198.970721 
L 360.379812 202.915088 
L 361.406533 206.037951 
L 362.433254 208.363539 
L 363.459975 209.918388 
L 363.973335 210.415006 
L 364.486696 210.728537 
L 365.000056 210.861796 
L 365.513417 210.817326 
L 366.026777 210.59737 
L 366.540138 210.203842 
L 367.053498 209.638323 
L 368.080219 207.995978 
L 369.10694 205.676581 
L 370.133661 202.682165 
L 371.160382 199.012041 
L 372.187103 194.664836 
L 373.727185 186.876673 
L 375.267266 177.591688 
L 376.807348 166.881691 
L 378.86079 150.643093 
L 381.427592 128.078396 
L 385.534476 91.382547 
L 387.074558 79.227633 
L 388.614639 68.877213 
L 389.64136 63.25763 
L 390.668081 58.835846 
L 391.694802 55.736936 
L 392.208163 54.715711 
L 392.721523 54.060227 
L 393.234884 53.778263 
L 393.748244 53.928768 
L 394.261605 54.637917 
L 394.774965 55.901622 
L 395.288325 57.706409 
L 396.315046 62.867805 
L 397.341767 69.94678 
L 398.368488 78.720748 
L 399.90857 94.476508 
L 401.962012 118.721177 
L 406.068896 168.339053 
L 407.608977 184.0103 
L 408.635698 192.810064 
L 409.662419 200.035764 
L 410.68914 205.514087 
L 411.202501 207.555975 
L 411.715861 209.116421 
L 412.229222 210.186709 
L 412.742582 210.761147 
L 413.255943 210.837075 
L 413.769303 210.414867 
L 414.282664 209.497909 
L 414.796024 208.092565 
L 415.309385 206.208129 
L 416.336106 201.053413 
L 417.362827 194.163964 
L 418.389548 185.711454 
L 419.929629 170.569141 
L 421.983071 147.127117 
L 426.603316 92.51299 
L 428.143397 77.47793 
L 429.170118 69.165712 
L 430.196839 62.48652 
L 431.22356 57.617947 
L 431.73692 55.904611 
L 432.250281 54.687646 
L 432.763641 53.974531 
L 433.277002 53.77034 
L 433.790362 54.216904 
L 434.303723 55.401282 
L 434.817083 57.302984 
L 435.330444 59.895222 
L 436.357165 67.015306 
L 437.383886 76.438793 
L 438.410607 87.773681 
L 439.950688 107.380449 
L 445.084293 175.783507 
L 446.111014 186.66907 
L 447.137735 195.781408 
L 448.164456 202.878586 
L 449.191177 207.788089 
L 449.704538 209.387991 
L 450.217898 210.408494 
L 450.731259 210.847941 
L 451.244619 210.708944 
L 451.75798 209.998256 
L 452.27134 208.726631 
L 452.784701 206.908644 
L 453.811422 201.709839 
L 454.838143 194.587161 
L 455.864864 185.772983 
L 457.404945 169.981645 
L 459.458387 145.762642 
L 463.051911 102.1298 
L 464.591992 85.744126 
L 466.132073 72.100035 
L 467.158794 64.891375 
L 468.185515 59.389862 
L 468.698876 57.318439 
L 469.212236 55.714977 
L 469.725597 54.587027 
L 470.238957 53.939078 
L 470.752318 53.775926 
L 471.265678 54.275277 
L 471.779039 55.526691 
L 472.292399 57.509005 
L 472.80576 60.194363 
L 473.832481 67.532148 
L 474.859202 77.202099 
L 476.399283 95.165424 
L 478.452725 123.049927 
L 481.532888 165.143213 
L 483.07297 182.938723 
L 484.099691 192.743312 
L 485.126412 200.587408 
L 486.153133 206.284688 
L 486.666493 208.290556 
L 487.179854 209.723792 
L 487.693214 210.58201 
L 488.206575 210.867247 
L 488.719935 210.585803 
L 489.233296 209.748054 
L 489.746656 208.36824 
L 490.260017 206.464233 
L 491.286738 201.171718 
L 492.313459 194.075953 
L 493.34018 185.422589 
L 494.880261 170.131738 
L 496.933703 147.012874 
L 500.527226 105.811426 
L 502.067308 90.22492 
L 503.607389 76.923229 
L 504.63411 69.577439 
L 505.660831 63.574079 
L 506.687552 58.980212 
L 507.714273 55.828634 
L 508.227634 54.795017 
L 508.740994 54.119685 
L 509.254355 53.797987 
L 509.767715 53.868398 
L 510.281076 54.522518 
L 510.794436 55.768308 
L 511.307797 57.584709 
L 512.334518 62.825152 
L 513.361239 70.001092 
L 514.38796 78.824142 
L 515.928041 94.440885 
L 518.494844 123.981901 
L 521.575007 159.019994 
L 523.115088 174.271179 
L 524.65517 187.170857 
L 525.681891 194.275627 
L 526.708612 200.11176 
L 527.735333 204.658953 
L 528.762054 207.929688 
L 529.275414 209.098051 
L 529.788775 209.964321 
L 530.302135 210.537022 
L 530.815496 210.825737 
L 531.328856 210.840939 
L 531.842217 210.593823 
L 532.355577 210.096135 
L 532.868937 209.36002 
L 533.895658 207.222156 
L 534.922379 204.279775 
L 535.9491 200.630086 
L 537.489182 194.027534 
L 539.029263 186.310989 
L 541.082705 174.666813 
L 543.649508 158.455088 
L 546.729671 137.2242 
L 554.943439 79.056996 
L 556.48352 70.141027 
L 558.023602 62.778098 
L 559.050323 58.939203 
L 560.077044 56.091812 
L 560.590404 55.072759 
L 561.103765 54.339067 
L 561.617125 53.901014 
L 562.130486 53.768036 
L 562.643846 54.051406 
L 563.157207 54.829193 
L 563.670567 56.093967 
L 564.183928 57.835421 
L 565.210649 62.693278 
L 566.23737 69.266444 
L 567.26409 77.379658 
L 568.804172 91.970642 
L 570.857614 114.633106 
L 575.477858 168.033909 
L 577.01794 183.177019 
L 578.044661 191.79244 
L 579.071382 198.984102 
L 580.098103 204.583762 
L 581.124824 208.460356 
L 581.638184 209.722418 
L 582.151545 210.522793 
L 582.664905 210.856655 
L 583.178266 210.721867 
L 583.691626 210.118989 
L 584.204987 209.051278 
L 584.718347 207.52467 
L 585.745068 203.13169 
L 586.771789 197.039582 
L 587.79851 189.387392 
L 589.338592 175.377664 
L 590.878673 158.990231 
L 593.445476 128.787403 
L 596.012278 98.927503 
L 597.55236 83.11855 
L 598.579081 74.041042 
L 599.605802 66.41882 
L 600.632523 60.457895 
L 601.659244 56.321729 
L 602.172604 54.975901 
L 602.685964 54.125364 
L 603.199325 53.776227 
L 603.712685 54.012638 
L 604.226046 54.99084 
L 604.739406 56.696437 
L 605.252767 59.103893 
L 606.279488 65.892751 
L 607.306209 75.042119 
L 608.33293 86.165372 
L 609.873011 105.578442 
L 615.006616 174.351155 
L 616.546698 190.372048 
L 617.573419 198.75996 
L 618.60014 205.048392 
L 619.1135 207.356073 
L 619.626861 209.088742 
L 620.140221 210.238985 
L 620.653582 210.8038 
L 621.166942 210.784514 
L 621.680303 210.186677 
L 622.193663 209.019924 
L 622.707024 207.297819 
L 623.220384 205.037677 
L 624.247105 198.990035 
L 625.273826 191.082359 
L 626.300547 181.565383 
L 627.840629 164.909621 
L 630.407431 133.522598 
L 632.974234 102.227708 
L 634.514315 85.623129 
L 636.054397 71.822122 
L 637.081117 64.564879 
L 638.107838 59.073626 
L 638.621199 57.032782 
L 639.134559 55.478477 
L 639.64792 54.419322 
L 640.16128 53.860729 
L 640.674641 53.827862 
L 641.188001 54.540359 
L 641.701362 56.038515 
L 642.214722 58.297733 
L 642.728083 61.286176 
L 643.754804 69.290447 
L 644.781525 79.673315 
L 646.321606 98.69613 
L 648.888409 135.196714 
L 650.941851 163.826778 
L 652.481932 182.363923 
L 653.508653 192.567663 
L 654.535374 200.691542 
L 655.562095 206.520306 
L 656.075456 208.529536 
L 656.588816 209.922056 
L 657.102177 210.694344 
L 657.615537 210.847894 
L 658.128898 210.389063 
L 658.642258 209.32888 
L 659.155619 207.68283 
L 659.668979 205.470605 
L 660.6957 199.445785 
L 661.722421 191.48527 
L 662.749142 181.867878 
L 664.289224 165.033505 
L 666.856026 133.467332 
L 669.422829 102.298892 
L 670.96291 85.888466 
L 672.502991 72.284881 
L 673.529712 65.109096 
L 674.556433 59.617768 
L 675.583154 55.905396 
L 676.096515 54.733407 
L 676.609875 54.021053 
L 677.123236 53.767536 
L 677.636596 54.116932 
L 678.149957 55.240399 
L 678.663317 57.11816 
L 679.176678 59.72276 
L 680.203399 66.96969 
L 681.23012 76.637451 
L 682.256841 88.303017 
L 683.796922 108.48369 
L 688.417167 171.924581 
L 689.957248 188.646727 
L 690.983969 197.475245 
L 692.01069 204.17502 
L 692.524051 206.678212 
L 693.037411 208.601091 
L 693.550772 209.937911 
L 694.064132 210.687706 
L 694.577493 210.854144 
L 695.090853 210.445331 
L 695.604214 209.473603 
L 696.117574 207.955271 
L 696.630935 205.910357 
L 697.657656 200.337651 
L 698.684377 192.978916 
L 698.684377 192.978916 
" clip-path="url(#pfd32c7c0e2)" style="fill: none; stroke: #2477d0; stroke-width: 4"/>
   </g>
   <g id="matplotlib.axis_1">
    <g id="xtick_1">
     <g id="line2d_2">
      <defs>
       <path id="m9d43e7808f" d="M 0 0 
L 0 -5 
" style="stroke: #000000"/>
      </defs>
      <g>
       <use xlink:href="#m9d43e7808f" x="82.651786" y="216.865354" style="stroke: #000000"/>
      </g>
     </g>
     <g id="text_1">
      <!-- $0.0$ -->
      <g transform="translate(64.731786 241.640979) scale(0.28 -0.28)">
       <defs>
        <path id="Cmr10-30" d="M 1600 -141 
Q 816 -141 533 504 
Q 250 1150 250 2041 
Q 250 2597 351 3087 
Q 453 3578 754 3920 
Q 1056 4263 1600 4263 
Q 2022 4263 2290 4056 
Q 2559 3850 2700 3523 
Q 2841 3197 2892 2823 
Q 2944 2450 2944 2041 
Q 2944 1491 2842 1011 
Q 2741 531 2444 195 
Q 2147 -141 1600 -141 
z
M 1600 25 
Q 1956 25 2131 390 
Q 2306 756 2347 1200 
Q 2388 1644 2388 2144 
Q 2388 2625 2347 3031 
Q 2306 3438 2132 3767 
Q 1959 4097 1600 4097 
Q 1238 4097 1063 3765 
Q 888 3434 847 3029 
Q 806 2625 806 2144 
Q 806 1788 823 1472 
Q 841 1156 916 820 
Q 991 484 1158 254 
Q 1325 25 1600 25 
z
" transform="scale(0.015625)"/>
        <path id="Cmmi10-3a" d="M 538 353 
Q 538 497 644 600 
Q 750 703 891 703 
Q 978 703 1062 656 
Q 1147 609 1194 525 
Q 1241 441 1241 353 
Q 1241 213 1137 106 
Q 1034 0 891 0 
Q 750 0 644 106 
Q 538 213 538 353 
z
" transform="scale(0.015625)"/>
       </defs>
       <use xlink:href="#Cmr10-30" transform="translate(0 0.390625)"/>
       <use xlink:href="#Cmmi10-3a" transform="translate(50 0.390625)"/>
       <use xlink:href="#Cmr10-30" transform="translate(77.685547 0.390625)"/>
      </g>
     </g>
    </g>
    <g id="xtick_2">
     <g id="line2d_3">
      <g>
       <use xlink:href="#m9d43e7808f" x="210.991909" y="216.865354" style="stroke: #000000"/>
      </g>
     </g>
     <g id="text_2">
      <!-- $2.5$ -->
      <g transform="translate(193.071909 241.640979) scale(0.28 -0.28)">
       <defs>
        <path id="Cmr10-32" d="M 319 0 
L 319 172 
Q 319 188 331 206 
L 1325 1306 
Q 1550 1550 1690 1715 
Q 1831 1881 1968 2097 
Q 2106 2313 2186 2536 
Q 2266 2759 2266 3009 
Q 2266 3272 2169 3511 
Q 2072 3750 1880 3894 
Q 1688 4038 1416 4038 
Q 1138 4038 916 3870 
Q 694 3703 603 3438 
Q 628 3444 672 3444 
Q 816 3444 917 3347 
Q 1019 3250 1019 3097 
Q 1019 2950 917 2848 
Q 816 2747 672 2747 
Q 522 2747 420 2851 
Q 319 2956 319 3097 
Q 319 3338 409 3548 
Q 500 3759 670 3923 
Q 841 4088 1055 4175 
Q 1269 4263 1509 4263 
Q 1875 4263 2190 4108 
Q 2506 3953 2690 3670 
Q 2875 3388 2875 3009 
Q 2875 2731 2753 2481 
Q 2631 2231 2440 2026 
Q 2250 1822 1953 1562 
Q 1656 1303 1563 1216 
L 838 519 
L 1453 519 
Q 1906 519 2211 526 
Q 2516 534 2534 550 
Q 2609 631 2688 1141 
L 2875 1141 
L 2694 0 
L 319 0 
z
" transform="scale(0.015625)"/>
        <path id="Cmr10-35" d="M 556 728 
Q 622 541 758 387 
Q 894 234 1080 148 
Q 1266 63 1466 63 
Q 1928 63 2103 422 
Q 2278 781 2278 1294 
Q 2278 1516 2270 1667 
Q 2263 1819 2228 1959 
Q 2169 2184 2020 2353 
Q 1872 2522 1656 2522 
Q 1441 2522 1286 2456 
Q 1131 2391 1034 2303 
Q 938 2216 863 2119 
Q 788 2022 769 2016 
L 697 2016 
Q 681 2016 657 2036 
Q 634 2056 634 2075 
L 634 4213 
Q 634 4228 654 4245 
Q 675 4263 697 4263 
L 716 4263 
Q 1147 4056 1631 4056 
Q 2106 4056 2547 4263 
L 2566 4263 
Q 2588 4263 2606 4247 
Q 2625 4231 2625 4213 
L 2625 4153 
Q 2625 4122 2613 4122 
Q 2394 3831 2064 3668 
Q 1734 3506 1381 3506 
Q 1125 3506 856 3578 
L 856 2369 
Q 1069 2541 1236 2614 
Q 1403 2688 1663 2688 
Q 2016 2688 2295 2484 
Q 2575 2281 2725 1954 
Q 2875 1628 2875 1288 
Q 2875 903 2686 575 
Q 2497 247 2172 53 
Q 1847 -141 1466 -141 
Q 1150 -141 886 21 
Q 622 184 470 459 
Q 319 734 319 1044 
Q 319 1188 412 1278 
Q 506 1369 647 1369 
Q 788 1369 883 1276 
Q 978 1184 978 1044 
Q 978 906 883 811 
Q 788 716 647 716 
Q 625 716 597 720 
Q 569 725 556 728 
z
" transform="scale(0.015625)"/>
       </defs>
       <use xlink:href="#Cmr10-32" transform="translate(0 0.390625)"/>
       <use xlink:href="#Cmmi10-3a" transform="translate(50 0.390625)"/>
       <use xlink:href="#Cmr10-35" transform="translate(77.685547 0.390625)"/>
      </g>
     </g>
    </g>
    <g id="xtick_3">
     <g id="line2d_4">
      <g>
       <use xlink:href="#m9d43e7808f" x="339.332032" y="216.865354" style="stroke: #000000"/>
      </g>
     </g>
     <g id="text_3">
      <!-- $5.0$ -->
      <g transform="translate(321.412032 241.640979) scale(0.28 -0.28)">
       <use xlink:href="#Cmr10-35" transform="translate(0 0.390625)"/>
       <use xlink:href="#Cmmi10-3a" transform="translate(50 0.390625)"/>
       <use xlink:href="#Cmr10-30" transform="translate(77.685547 0.390625)"/>
      </g>
     </g>
    </g>
    <g id="xtick_4">
     <g id="line2d_5">
      <g>
       <use xlink:href="#m9d43e7808f" x="467.672155" y="216.865354" style="stroke: #000000"/>
      </g>
     </g>
     <g id="text_4">
      <!-- $7.5$ -->
      <g transform="translate(449.752155 241.640979) scale(0.28 -0.28)">
       <defs>
        <path id="Cmr10-37" d="M 1113 166 
Q 1113 522 1175 862 
Q 1238 1203 1358 1536 
Q 1478 1869 1648 2189 
Q 1819 2509 2022 2791 
L 2606 3603 
L 1875 3603 
Q 738 3603 703 3572 
Q 619 3469 544 2981 
L 359 2981 
L 569 4325 
L 756 4325 
L 756 4306 
Q 756 4191 1147 4156 
Q 1538 4122 1913 4122 
L 3103 4122 
L 3103 3956 
Q 3103 3950 3101 3947 
Q 3100 3944 3097 3938 
L 2216 2700 
Q 1891 2219 1809 1631 
Q 1728 1044 1728 166 
Q 1728 41 1637 -50 
Q 1547 -141 1422 -141 
Q 1294 -141 1203 -50 
Q 1113 41 1113 166 
z
" transform="scale(0.015625)"/>
       </defs>
       <use xlink:href="#Cmr10-37" transform="translate(0 0.421875)"/>
       <use xlink:href="#Cmmi10-3a" transform="translate(50 0.421875)"/>
       <use xlink:href="#Cmr10-35" transform="translate(77.685547 0.421875)"/>
      </g>
     </g>
    </g>
    <g id="xtick_5">
     <g id="line2d_6">
      <g>
       <use xlink:href="#m9d43e7808f" x="596.012278" y="216.865354" style="stroke: #000000"/>
      </g>
     </g>
     <g id="text_5">
      <!-- $10.0$ -->
      <g transform="translate(571.092278 241.640979) scale(0.28 -0.28)">
       <defs>
        <path id="Cmr10-31" d="M 594 0 
L 594 225 
Q 1394 225 1394 428 
L 1394 3788 
Q 1063 3628 556 3628 
L 556 3853 
Q 1341 3853 1741 4263 
L 1831 4263 
Q 1853 4263 1873 4245 
Q 1894 4228 1894 4206 
L 1894 428 
Q 1894 225 2694 225 
L 2694 0 
L 594 0 
z
" transform="scale(0.015625)"/>
       </defs>
       <use xlink:href="#Cmr10-31" transform="translate(0 0.390625)"/>
       <use xlink:href="#Cmr10-30" transform="translate(50 0.390625)"/>
       <use xlink:href="#Cmmi10-3a" transform="translate(100 0.390625)"/>
       <use xlink:href="#Cmr10-30" transform="translate(127.685547 0.390625)"/>
      </g>
     </g>
    </g>
   </g>
   <g id="matplotlib.axis_2">
    <g id="ytick_1">
     <g id="line2d_7">
      <defs>
       <path id="m4b104ea6b4" d="M 0 0 
L 5 0 
" style="stroke: #000000"/>
      </defs>
      <g>
       <use xlink:href="#m4b104ea6b4" x="64.170808" y="210.867248" style="stroke: #000000"/>
      </g>
     </g>
     <g id="text_6">
      <!-- $-1.0$ -->
      <g transform="translate(2.990808 221.50506) scale(0.28 -0.28)">
       <defs>
        <path id="Cmsy10-a1" d="M 653 1472 
Q 600 1472 565 1512 
Q 531 1553 531 1600 
Q 531 1647 565 1687 
Q 600 1728 653 1728 
L 4325 1728 
Q 4375 1728 4408 1687 
Q 4441 1647 4441 1600 
Q 4441 1553 4408 1512 
Q 4375 1472 4325 1472 
L 653 1472 
z
" transform="scale(0.015625)"/>
       </defs>
       <use xlink:href="#Cmsy10-a1" transform="translate(0 0.390625)"/>
       <use xlink:href="#Cmr10-31" transform="translate(77.685547 0.390625)"/>
       <use xlink:href="#Cmmi10-3a" transform="translate(127.685547 0.390625)"/>
       <use xlink:href="#Cmr10-30" transform="translate(155.371094 0.390625)"/>
      </g>
     </g>
    </g>
    <g id="ytick_2">
     <g id="line2d_8">
      <g>
       <use xlink:href="#m4b104ea6b4" x="64.170808" y="171.592148" style="stroke: #000000"/>
      </g>
     </g>
     <g id="text_7">
      <!-- $-0.5$ -->
      <g transform="translate(2.990808 182.22996) scale(0.28 -0.28)">
       <use xlink:href="#Cmsy10-a1" transform="translate(0 0.390625)"/>
       <use xlink:href="#Cmr10-30" transform="translate(77.685547 0.390625)"/>
       <use xlink:href="#Cmmi10-3a" transform="translate(127.685547 0.390625)"/>
       <use xlink:href="#Cmr10-35" transform="translate(155.371094 0.390625)"/>
      </g>
     </g>
    </g>
    <g id="ytick_3">
     <g id="line2d_9">
      <g>
       <use xlink:href="#m4b104ea6b4" x="64.170808" y="132.317048" style="stroke: #000000"/>
      </g>
     </g>
     <g id="text_8">
      <!-- $0.0$ -->
      <g transform="translate(24.830808 142.954861) scale(0.28 -0.28)">
       <use xlink:href="#Cmr10-30" transform="translate(0 0.390625)"/>
       <use xlink:href="#Cmmi10-3a" transform="translate(50 0.390625)"/>
       <use xlink:href="#Cmr10-30" transform="translate(77.685547 0.390625)"/>
      </g>
     </g>
    </g>
    <g id="ytick_4">
     <g id="line2d_10">
      <g>
       <use xlink:href="#m4b104ea6b4" x="64.170808" y="93.041949" style="stroke: #000000"/>
      </g>
     </g>
     <g id="text_9">
      <!-- $0.5$ -->
      <g transform="translate(24.830808 103.679761) scale(0.28 -0.28)">
       <use xlink:href="#Cmr10-30" transform="translate(0 0.390625)"/>
       <use xlink:href="#Cmmi10-3a" transform="translate(50 0.390625)"/>
       <use xlink:href="#Cmr10-35" transform="translate(77.685547 0.390625)"/>
      </g>
     </g>
    </g>
    <g id="ytick_5">
     <g id="line2d_11">
      <g>
       <use xlink:href="#m4b104ea6b4" x="64.170808" y="53.766849" style="stroke: #000000"/>
      </g>
     </g>
     <g id="text_10">
      <!-- $1.0$ -->
      <g transform="translate(24.830808 64.404661) scale(0.28 -0.28)">
       <use xlink:href="#Cmr10-31" transform="translate(0 0.390625)"/>
       <use xlink:href="#Cmmi10-3a" transform="translate(50 0.390625)"/>
       <use xlink:href="#Cmr10-30" transform="translate(77.685547 0.390625)"/>
      </g>
     </g>
    </g>
    <g id="ytick_6">
     <g id="line2d_12">
      <g>
       <use xlink:href="#m4b104ea6b4" x="64.170808" y="14.491749" style="stroke: #000000"/>
      </g>
     </g>
     <g id="text_11">
      <!-- $1.5$ -->
      <g transform="translate(24.830808 25.129562) scale(0.28 -0.28)">
       <use xlink:href="#Cmr10-31" transform="translate(0 0.390625)"/>
       <use xlink:href="#Cmmi10-3a" transform="translate(50 0.390625)"/>
       <use xlink:href="#Cmr10-35" transform="translate(77.685547 0.390625)"/>
      </g>
     </g>
    </g>
   </g>
   <g id="line2d_13">
    <path d="M 82.651786 53.766849 
L 83.165146 54.115458 
L 83.678506 55.158189 
L 84.191867 56.885788 
L 84.705227 59.28292 
L 85.731948 65.994921 
L 86.758669 75.056417 
L 87.78539 86.1464 
L 89.325472 105.709117 
L 94.972437 182.38683 
L 95.999158 192.841017 
L 97.025879 201.151113 
L 98.0526 207.022727 
L 98.565961 208.975505 
L 99.079321 210.247856 
L 99.592682 210.828488 
L 100.106042 210.712247 
L 100.619403 209.900164 
L 101.132763 208.399449 
L 101.646124 206.22342 
L 102.159484 203.391394 
L 103.186205 195.865495 
L 104.212926 186.08836 
L 105.239647 174.40635 
L 106.779729 154.231855 
L 111.399973 90.227747 
L 112.426694 78.545737 
L 113.453415 68.768602 
L 114.480136 61.242703 
L 114.993497 58.410676 
L 115.506857 56.234648 
L 116.020218 54.733932 
L 116.533578 53.92185 
L 117.046939 53.805609 
L 117.560299 54.386241 
L 118.073659 55.658592 
L 118.58702 57.611369 
L 119.10038 60.227239 
L 120.127101 67.349704 
L 121.153822 76.77367 
L 122.180543 88.165287 
L 123.720625 108.043702 
L 128.85423 178.487697 
L 129.880951 189.577679 
L 130.907672 198.639175 
L 131.934393 205.351177 
L 132.447753 207.748309 
L 132.961114 209.475908 
L 133.474474 210.518639 
L 133.987835 210.867248 
L 134.501195 210.518639 
L 135.014556 209.475908 
L 135.527916 207.748309 
L 136.041277 205.351177 
L 137.067998 198.639175 
L 138.094719 189.577679 
L 139.12144 178.487697 
L 140.661521 158.924979 
L 146.308487 82.247267 
L 147.335208 71.793079 
L 148.361929 63.482984 
L 149.38865 57.611369 
L 149.90201 55.658592 
L 150.415371 54.386241 
L 150.928731 53.805609 
L 151.442092 53.92185 
L 151.955452 54.733932 
L 152.468813 56.234648 
L 152.982173 58.410676 
L 153.495533 61.242703 
L 154.522254 68.768602 
L 155.548975 78.545737 
L 156.575696 90.227747 
L 158.115778 110.402241 
L 162.736022 174.40635 
L 163.762743 186.08836 
L 164.789464 195.865495 
L 165.816185 203.391394 
L 166.329546 206.22342 
L 166.842906 208.399449 
L 167.356267 209.900164 
L 167.869627 210.712247 
L 168.382988 210.828488 
L 168.896348 210.247856 
L 169.409709 208.975505 
L 169.923069 207.022727 
L 170.43643 204.406857 
L 171.463151 197.284392 
L 172.489872 187.860427 
L 173.516593 176.46881 
L 175.056674 156.590395 
L 180.190279 86.1464 
L 181.217 75.056417 
L 182.243721 65.994921 
L 183.270442 59.28292 
L 183.783803 56.885788 
L 184.297163 55.158189 
L 184.810524 54.115458 
L 185.323884 53.766849 
L 185.837245 54.115458 
L 186.350605 55.158189 
L 186.863966 56.885788 
L 187.377326 59.28292 
L 188.404047 65.994921 
L 189.430768 75.056417 
L 190.457489 86.1464 
L 191.99757 105.709117 
L 197.644536 182.38683 
L 198.671257 192.841017 
L 199.697978 201.151113 
L 200.724699 207.022727 
L 201.238059 208.975505 
L 201.75142 210.247856 
L 202.26478 210.828488 
L 202.778141 210.712247 
L 203.291501 209.900164 
L 203.804862 208.399449 
L 204.318222 206.22342 
L 204.831583 203.391394 
L 205.858304 195.865495 
L 206.885025 186.08836 
L 207.911746 174.40635 
L 209.451827 154.231855 
L 214.072072 90.227747 
L 215.098793 78.545737 
L 216.125514 68.768602 
L 217.152235 61.242703 
L 217.665595 58.410676 
L 218.178956 56.234648 
L 218.692316 54.733932 
L 219.205677 53.92185 
L 219.719037 53.805609 
L 220.232398 54.386241 
L 220.745758 55.658592 
L 221.259119 57.611369 
L 221.772479 60.227239 
L 222.7992 67.349704 
L 223.825921 76.77367 
L 224.852642 88.165287 
L 226.392723 108.043702 
L 231.526328 178.487697 
L 232.553049 189.577679 
L 233.57977 198.639175 
L 234.606491 205.351177 
L 235.119852 207.748309 
L 235.633212 209.475908 
L 236.146573 210.518639 
L 236.659933 210.867248 
L 237.173294 210.518639 
L 237.686654 209.475908 
L 238.200015 207.748309 
L 238.713375 205.351177 
L 239.740096 198.639175 
L 240.766817 189.577679 
L 241.793538 178.487697 
L 243.33362 158.924979 
L 248.980585 82.247267 
L 250.007306 71.793079 
L 251.034027 63.482984 
L 252.060748 57.611369 
L 252.574109 55.658592 
L 253.087469 54.386241 
L 253.60083 53.805609 
L 254.11419 53.92185 
L 254.627551 54.733932 
L 255.140911 56.234648 
L 255.654272 58.410676 
L 256.167632 61.242703 
L 257.194353 68.768602 
L 258.221074 78.545737 
L 259.247795 90.227747 
L 260.787876 110.402241 
L 265.408121 174.40635 
L 266.434842 186.08836 
L 267.461563 195.865495 
L 268.488284 203.391394 
L 269.001644 206.22342 
L 269.515005 208.399449 
L 270.028365 209.900164 
L 270.541726 210.712247 
L 271.055086 210.828488 
L 271.568447 210.247856 
L 272.081807 208.975505 
L 272.595168 207.022727 
L 273.108528 204.406857 
L 274.135249 197.284392 
L 275.16197 187.860427 
L 276.188691 176.46881 
L 277.728773 156.590395 
L 282.862378 86.1464 
L 283.889099 75.056417 
L 284.91582 65.994921 
L 285.942541 59.28292 
L 286.455901 56.885788 
L 286.969262 55.158189 
L 287.482622 54.115458 
L 287.995983 53.766849 
L 288.509343 54.115458 
L 289.022704 55.158189 
L 289.536064 56.885788 
L 290.049425 59.28292 
L 291.076145 65.994921 
L 292.102866 75.056417 
L 293.129587 86.1464 
L 294.669669 105.709117 
L 300.316634 182.38683 
L 301.343355 192.841017 
L 302.370076 201.151113 
L 303.396797 207.022727 
L 303.910158 208.975505 
L 304.423518 210.247856 
L 304.936879 210.828488 
L 305.450239 210.712247 
L 305.9636 209.900164 
L 306.47696 208.399449 
L 306.990321 206.22342 
L 307.503681 203.391394 
L 308.530402 195.865495 
L 309.557123 186.08836 
L 310.583844 174.40635 
L 312.123926 154.231855 
L 316.74417 90.227747 
L 317.770891 78.545737 
L 318.797612 68.768602 
L 319.824333 61.242703 
L 320.337694 58.410676 
L 320.851054 56.234648 
L 321.364415 54.733932 
L 321.877775 53.92185 
L 322.391136 53.805609 
L 322.904496 54.386241 
L 323.417857 55.658592 
L 323.931217 57.611369 
L 324.444578 60.227239 
L 325.471298 67.349704 
L 326.498019 76.77367 
L 327.52474 88.165287 
L 329.064822 108.043702 
L 334.198427 178.487697 
L 335.225148 189.577679 
L 336.251869 198.639175 
L 337.27859 205.351177 
L 337.79195 207.748309 
L 338.305311 209.475908 
L 338.818671 210.518639 
L 339.332032 210.867248 
L 339.845392 210.518639 
L 340.358753 209.475908 
L 340.872113 207.748309 
L 341.385474 205.351177 
L 342.412195 198.639175 
L 343.438916 189.577679 
L 344.465637 178.487697 
L 346.005718 158.924979 
L 351.652684 82.247267 
L 352.679405 71.793079 
L 353.706126 63.482984 
L 354.732847 57.611369 
L 355.246207 55.658592 
L 355.759568 54.386241 
L 356.272928 53.805609 
L 356.786289 53.92185 
L 357.299649 54.733932 
L 357.81301 56.234648 
L 358.32637 58.410676 
L 358.839731 61.242703 
L 359.866452 68.768602 
L 360.893172 78.545737 
L 361.919893 90.227747 
L 363.459975 110.402241 
L 368.080219 174.40635 
L 369.10694 186.08836 
L 370.133661 195.865495 
L 371.160382 203.391394 
L 371.673743 206.22342 
L 372.187103 208.399449 
L 372.700464 209.900164 
L 373.213824 210.712247 
L 373.727185 210.828488 
L 374.240545 210.247856 
L 374.753906 208.975505 
L 375.267266 207.022727 
L 375.780627 204.406857 
L 376.807348 197.284392 
L 377.834069 187.860427 
L 378.86079 176.46881 
L 380.400871 156.590395 
L 385.534476 86.1464 
L 386.561197 75.056417 
L 387.587918 65.994921 
L 388.614639 59.28292 
L 389.128 56.885788 
L 389.64136 55.158189 
L 390.154721 54.115458 
L 390.668081 53.766849 
L 391.181442 54.115458 
L 391.694802 55.158189 
L 392.208163 56.885788 
L 392.721523 59.28292 
L 393.748244 65.994921 
L 394.774965 75.056417 
L 395.801686 86.1464 
L 397.341767 105.709117 
L 402.988733 182.38683 
L 404.015454 192.841017 
L 405.042175 201.151113 
L 406.068896 207.022727 
L 406.582256 208.975505 
L 407.095617 210.247856 
L 407.608977 210.828488 
L 408.122338 210.712247 
L 408.635698 209.900164 
L 409.149059 208.399449 
L 409.662419 206.22342 
L 410.17578 203.391394 
L 411.202501 195.865495 
L 412.229222 186.08836 
L 413.255943 174.40635 
L 414.796024 154.231855 
L 419.416269 90.227747 
L 420.44299 78.545737 
L 421.469711 68.768602 
L 422.496432 61.242703 
L 423.009792 58.410676 
L 423.523153 56.234648 
L 424.036513 54.733932 
L 424.549874 53.92185 
L 425.063234 53.805609 
L 425.576595 54.386241 
L 426.089955 55.658592 
L 426.603316 57.611369 
L 427.116676 60.227239 
L 428.143397 67.349704 
L 429.170118 76.77367 
L 430.196839 88.165287 
L 431.73692 108.043702 
L 436.870525 178.487697 
L 437.897246 189.577679 
L 438.923967 198.639175 
L 439.950688 205.351177 
L 440.464049 207.748309 
L 440.977409 209.475908 
L 441.49077 210.518639 
L 442.00413 210.867248 
L 442.517491 210.518639 
L 443.030851 209.475908 
L 443.544212 207.748309 
L 444.057572 205.351177 
L 445.084293 198.639175 
L 446.111014 189.577679 
L 447.137735 178.487697 
L 448.677817 158.924979 
L 454.324782 82.247267 
L 455.351503 71.793079 
L 456.378224 63.482984 
L 457.404945 57.611369 
L 457.918306 55.658592 
L 458.431666 54.386241 
L 458.945027 53.805609 
L 459.458387 53.92185 
L 459.971748 54.733932 
L 460.485108 56.234648 
L 460.998469 58.410676 
L 461.511829 61.242703 
L 462.53855 68.768602 
L 463.565271 78.545737 
L 464.591992 90.227747 
L 466.132073 110.402241 
L 470.752318 174.40635 
L 471.779039 186.08836 
L 472.80576 195.865495 
L 473.832481 203.391394 
L 474.345841 206.22342 
L 474.859202 208.399449 
L 475.372562 209.900164 
L 475.885923 210.712247 
L 476.399283 210.828488 
L 476.912644 210.247856 
L 477.426004 208.975505 
L 477.939365 207.022727 
L 478.452725 204.406857 
L 479.479446 197.284392 
L 480.506167 187.860427 
L 481.532888 176.46881 
L 483.07297 156.590395 
L 488.206575 86.1464 
L 489.233296 75.056417 
L 490.260017 65.994921 
L 491.286738 59.28292 
L 491.800098 56.885788 
L 492.313459 55.158189 
L 492.826819 54.115458 
L 493.34018 53.766849 
L 493.85354 54.115458 
L 494.366901 55.158189 
L 494.880261 56.885788 
L 495.393622 59.28292 
L 496.420343 65.994921 
L 497.447064 75.056417 
L 498.473784 86.1464 
L 500.013866 105.709117 
L 505.660831 182.38683 
L 506.687552 192.841017 
L 507.714273 201.151113 
L 508.740994 207.022727 
L 509.254355 208.975505 
L 509.767715 210.247856 
L 510.281076 210.828488 
L 510.794436 210.712247 
L 511.307797 209.900164 
L 511.821157 208.399449 
L 512.334518 206.22342 
L 512.847878 203.391394 
L 513.874599 195.865495 
L 514.90132 186.08836 
L 515.928041 174.40635 
L 517.468123 154.231855 
L 522.088367 90.227747 
L 523.115088 78.545737 
L 524.141809 68.768602 
L 525.16853 61.242703 
L 525.681891 58.410676 
L 526.195251 56.234648 
L 526.708612 54.733932 
L 527.221972 53.92185 
L 527.735333 53.805609 
L 528.248693 54.386241 
L 528.762054 55.658592 
L 529.275414 57.611369 
L 529.788775 60.227239 
L 530.815496 67.349704 
L 531.842217 76.77367 
L 532.868937 88.165287 
L 534.409019 108.043702 
L 539.542624 178.487697 
L 540.569345 189.577679 
L 541.596066 198.639175 
L 542.622787 205.351177 
L 543.136147 207.748309 
L 543.649508 209.475908 
L 544.162868 210.518639 
L 544.676229 210.867248 
L 545.189589 210.518639 
L 545.70295 209.475908 
L 546.21631 207.748309 
L 546.729671 205.351177 
L 547.756392 198.639175 
L 548.783113 189.577679 
L 549.809834 178.487697 
L 551.349915 158.924979 
L 556.996881 82.247267 
L 558.023602 71.793079 
L 559.050323 63.482984 
L 560.077044 57.611369 
L 560.590404 55.658592 
L 561.103765 54.386241 
L 561.617125 53.805609 
L 562.130486 53.92185 
L 562.643846 54.733932 
L 563.157207 56.234648 
L 563.670567 58.410676 
L 564.183928 61.242703 
L 565.210649 68.768602 
L 566.23737 78.545737 
L 567.26409 90.227747 
L 568.804172 110.402241 
L 573.424416 174.40635 
L 574.451137 186.08836 
L 575.477858 195.865495 
L 576.504579 203.391394 
L 577.01794 206.22342 
L 577.5313 208.399449 
L 578.044661 209.900164 
L 578.558021 210.712247 
L 579.071382 210.828488 
L 579.584742 210.247856 
L 580.098103 208.975505 
L 580.611463 207.022727 
L 581.124824 204.406857 
L 582.151545 197.284392 
L 583.178266 187.860427 
L 584.204987 176.46881 
L 585.745068 156.590395 
L 590.878673 86.1464 
L 591.905394 75.056417 
L 592.932115 65.994921 
L 593.958836 59.28292 
L 594.472197 56.885788 
L 594.985557 55.158189 
L 595.498918 54.115458 
L 596.012278 53.766849 
L 596.525639 54.115458 
L 597.038999 55.158189 
L 597.55236 56.885788 
L 598.06572 59.28292 
L 599.092441 65.994921 
L 600.119162 75.056417 
L 601.145883 86.1464 
L 602.685964 105.709117 
L 608.33293 182.38683 
L 609.359651 192.841017 
L 610.386372 201.151113 
L 611.413093 207.022727 
L 611.926453 208.975505 
L 612.439814 210.247856 
L 612.953174 210.828488 
L 613.466535 210.712247 
L 613.979895 209.900164 
L 614.493256 208.399449 
L 615.006616 206.22342 
L 615.519977 203.391394 
L 616.546698 195.865495 
L 617.573419 186.08836 
L 618.60014 174.40635 
L 620.140221 154.231855 
L 624.760466 90.227747 
L 625.787187 78.545737 
L 626.813908 68.768602 
L 627.840629 61.242703 
L 628.353989 58.410676 
L 628.86735 56.234648 
L 629.38071 54.733932 
L 629.894071 53.92185 
L 630.407431 53.805609 
L 630.920792 54.386241 
L 631.434152 55.658592 
L 631.947513 57.611369 
L 632.460873 60.227239 
L 633.487594 67.349704 
L 634.514315 76.77367 
L 635.541036 88.165287 
L 637.081117 108.043702 
L 642.214722 178.487697 
L 643.241443 189.577679 
L 644.268164 198.639175 
L 645.294885 205.351177 
L 645.808246 207.748309 
L 646.321606 209.475908 
L 646.834967 210.518639 
L 647.348327 210.867248 
L 647.861688 210.518639 
L 648.375048 209.475908 
L 648.888409 207.748309 
L 649.401769 205.351177 
L 650.42849 198.639175 
L 651.455211 189.577679 
L 652.481932 178.487697 
L 654.022014 158.924979 
L 659.668979 82.247267 
L 660.6957 71.793079 
L 661.722421 63.482984 
L 662.749142 57.611369 
L 663.262503 55.658592 
L 663.775863 54.386241 
L 664.289224 53.805609 
L 664.802584 53.92185 
L 665.315945 54.733932 
L 665.829305 56.234648 
L 666.342666 58.410676 
L 666.856026 61.242703 
L 667.882747 68.768602 
L 668.909468 78.545737 
L 669.936189 90.227747 
L 671.47627 110.402241 
L 676.096515 174.40635 
L 677.123236 186.08836 
L 678.149957 195.865495 
L 679.176678 203.391394 
L 679.690038 206.22342 
L 680.203399 208.399449 
L 680.716759 209.900164 
L 681.23012 210.712247 
L 681.74348 210.828488 
L 682.256841 210.247856 
L 682.770201 208.975505 
L 683.283562 207.022727 
L 683.796922 204.406857 
L 684.823643 197.284392 
L 685.850364 187.860427 
L 686.877085 176.46881 
L 688.417167 156.590395 
L 693.550772 86.1464 
L 694.577493 75.056417 
L 695.604214 65.994921 
L 696.630935 59.28292 
L 697.144295 56.885788 
L 697.657656 55.158189 
L 698.171016 54.115458 
L 698.684377 53.766849 
L 698.684377 53.766849 
" clip-path="url(#pfd32c7c0e2)" style="fill: none; stroke: #ffa231; stroke-width: 4"/>
   </g>
   <g id="patch_3">
    <path d="M 64.170808 216.865354 
L 64.170808 4.932252 
" style="fill: none; stroke: #000000; stroke-width: 2; stroke-linejoin: miter; stroke-linecap: square"/>
   </g>
   <g id="patch_4">
    <path d="M 64.170808 216.865354 
L 717.165354 216.865354 
" style="fill: none; stroke: #000000; stroke-width: 2; stroke-linejoin: miter; stroke-linecap: square"/>
   </g>
   <g id="line2d_14">
    <path d="M 82.651786 34.129299 
L 88.298751 39.390202 
L 93.945716 44.369225 
L 100.106042 49.497129 
L 106.266368 54.326045 
L 112.426694 58.873405 
L 118.58702 63.155626 
L 125.260706 67.513404 
L 125.774067 28.749255 
L 131.421032 34.298421 
L 137.067998 39.550262 
L 142.714963 44.520709 
L 148.875289 49.639781 
L 155.035615 54.46038 
L 161.195941 58.999907 
L 164.276104 61.169429 
L 164.789464 22.25807 
L 170.43643 28.155033 
L 176.083395 33.736037 
L 181.730361 39.01801 
L 187.377326 44.016975 
L 193.537652 49.165418 
L 199.697978 54.013675 
L 205.858304 58.579248 
L 212.01863 62.87862 
L 217.152235 66.269307 
L 217.665595 27.403076 
L 223.31256 33.024369 
L 228.959526 38.344474 
L 234.606491 43.379527 
L 240.766817 48.565138 
L 246.927143 53.448394 
L 253.087469 58.046927 
L 259.247795 62.377337 
L 260.787876 63.419897 
L 261.301237 24.57341 
L 266.948202 30.346318 
L 272.595168 35.809912 
L 278.242133 40.980767 
L 284.402459 46.30624 
L 290.562785 51.321205 
L 296.723111 56.043766 
L 299.289913 57.929288 
L 299.803274 19.204505 
L 305.450239 25.265079 
L 311.097205 31.000926 
L 316.74417 36.429447 
L 322.391136 41.567108 
L 328.551461 46.858393 
L 334.711787 51.841164 
L 339.332032 55.38664 
L 339.845392 16.579861 
L 345.492358 22.781063 
L 351.139323 28.650004 
L 356.786289 34.204487 
L 362.433254 39.461361 
L 368.080219 44.436572 
L 374.240545 49.560549 
L 380.400871 54.385768 
L 386.561197 58.929645 
L 392.721523 63.208587 
L 393.234884 63.553697 
L 393.748244 24.770128 
L 399.395209 30.532495 
L 405.042175 35.986114 
L 410.68914 41.147529 
L 416.849466 46.463278 
L 423.009792 51.469086 
L 429.170118 56.183025 
L 432.763641 58.804845 
L 433.277002 19.915734 
L 438.923967 25.9382 
L 444.570933 31.637982 
L 450.217898 37.032369 
L 455.864864 42.137725 
L 462.02519 47.39574 
L 468.185515 52.34718 
L 470.238957 53.932652 
L 470.752318 15.079228 
L 476.399283 21.360834 
L 482.046249 27.305871 
L 487.693214 32.932373 
L 493.34018 38.257407 
L 498.987145 43.297125 
L 505.147471 48.48754 
L 509.254355 51.778576 
L 509.767715 13.018584 
L 515.414681 19.410599 
L 521.061646 25.46013 
L 526.708612 31.185527 
L 532.355577 36.604156 
L 538.002542 41.732456 
L 544.162868 47.014101 
L 550.323194 51.987793 
L 556.48352 56.671487 
L 561.617125 60.36527 
L 562.130486 21.463025 
L 567.777451 27.402587 
L 573.424416 33.023907 
L 579.071382 38.344036 
L 584.718347 43.379113 
L 590.878673 48.564747 
L 597.038999 53.448027 
L 603.199325 58.04659 
L 603.712685 19.300799 
L 609.359651 25.356213 
L 615.006616 31.087177 
L 620.653582 36.511077 
L 626.300547 41.644364 
L 632.460873 46.931145 
L 638.621199 51.909673 
L 640.16128 53.108271 
L 640.674641 14.305173 
L 646.321606 20.628253 
L 651.968572 26.612542 
L 657.615537 32.276193 
L 663.262503 37.636384 
L 668.909468 42.709377 
L 675.069794 47.934061 
L 677.123236 49.607041 
L 677.636596 10.930359 
L 683.283562 17.434261 
L 688.930527 23.589684 
L 694.577493 29.4153 
L 698.684377 33.455033 
L 698.684377 33.455033 
" clip-path="url(#pfd32c7c0e2)" style="fill: none; stroke: #4eba88; stroke-width: 4"/>
   </g>
   <g id="line2d_15">
    <path d="M 82.651786 14.491749 
L 698.684377 14.491749 
L 698.684377 14.491749 
" clip-path="url(#pfd32c7c0e2)" style="fill: none; stroke: #710068; stroke-width: 4"/>
   </g>
  </g>
 </g>
 <defs>
  <clipPath id="pfd32c7c0e2">
   <rect x="64.170808" y="4.932252" width="652.994547" height="211.933102"/>
  </clipPath>
 </defs>
</svg>
