<?xml version="1.0" encoding="utf-8" standalone="no"?>
<!DOCTYPE svg PUBLIC "-//W3C//DTD SVG 1.1//EN"
  "http://www.w3.org/Graphics/SVG/1.1/DTD/svg11.dtd">
<svg xmlns:xlink="http://www.w3.org/1999/xlink" width="806.4pt" height="152.64pt" viewBox="0 0 806.4 152.64" xmlns="http://www.w3.org/2000/svg" version="1.1">
 <metadata>
  <rdf:RDF xmlns:dc="http://purl.org/dc/elements/1.1/" xmlns:cc="http://creativecommons.org/ns#" xmlns:rdf="http://www.w3.org/1999/02/22-rdf-syntax-ns#">
   <cc:Work>
    <dc:type rdf:resource="http://purl.org/dc/dcmitype/StillImage"/>
    <dc:date>2024-07-16T17:23:26.907164</dc:date>
    <dc:format>image/svg+xml</dc:format>
    <dc:creator>
     <cc:Agent>
      <dc:title>Matplotlib v3.8.4, https://matplotlib.org/</dc:title>
     </cc:Agent>
    </dc:creator>
   </cc:Work>
  </rdf:RDF>
 </metadata>
 <defs>
  <style type="text/css">*{stroke-linejoin: round; stroke-linecap: butt}</style>
 </defs>
 <g id="figure_1">
  <g id="patch_1">
   <path d="M 0 152.64 
L 806.4 152.64 
L 806.4 0 
L 0 0 
L 0 152.64 
z
" style="fill: none"/>
  </g>
  <g id="axes_1">
   <g id="patch_2">
    <path d="M 41.316477 118.945354 
L 803.565354 118.945354 
L 803.565354 2.834646 
L 41.316477 2.834646 
L 41.316477 118.945354 
z
" style="fill: none"/>
   </g>
   <g id="line2d_1">
    <path d="M 62.889558 68.546986 
L 65.046866 65.41894 
L 67.024399 62.940977 
L 68.822156 61.039269 
L 70.440137 59.628647 
L 71.96823 58.566361 
L 73.496323 57.771384 
L 74.934529 57.269371 
L 76.372734 57.005364 
L 77.631164 56.978818 
L 78.530042 57.178296 
L 79.518808 57.645614 
L 80.507575 58.363874 
L 81.586229 59.420672 
L 82.844658 60.991244 
L 84.192976 63.046687 
L 85.721069 65.787308 
L 87.518826 69.486107 
L 89.766022 74.662005 
L 92.912097 82.515793 
L 98.125591 95.544036 
L 100.552563 101.010011 
L 102.619983 105.136795 
L 104.41774 108.245593 
L 106.035721 110.614968 
L 107.563814 112.451996 
L 108.912132 113.734744 
L 110.170562 114.640048 
L 111.339104 115.224834 
L 112.507645 115.563305 
L 113.676187 115.65774 
L 114.844729 115.511913 
L 116.013271 115.13193 
L 117.271701 114.469165 
L 118.620019 113.480419 
L 120.058224 112.126079 
L 121.586317 110.373874 
L 123.294186 108.06953 
L 125.271719 105.004091 
L 127.608802 100.932419 
L 130.485213 95.440177 
L 135.968372 84.351803 
L 139.923436 76.610025 
L 142.709959 71.623535 
L 145.047043 67.873489 
L 147.114464 64.94995 
L 149.002108 62.642903 
L 150.799865 60.791509 
L 152.417846 59.427912 
L 153.945939 58.411358 
L 155.474033 57.662403 
L 156.912238 57.203649 
L 158.350444 56.982826 
L 159.518985 57.000085 
L 160.417864 57.241067 
L 161.40663 57.752673 
L 162.395396 58.513388 
L 163.47405 59.613755 
L 164.73248 61.232369 
L 166.170686 63.485929 
L 167.698779 66.296441 
L 169.586423 70.260563 
L 171.923507 75.731228 
L 175.788684 85.480583 
L 179.923525 95.737076 
L 182.350497 101.182904 
L 184.417917 105.288371 
L 186.215674 108.375342 
L 187.833655 110.723039 
L 189.27186 112.443238 
L 190.620178 113.727939 
L 191.878608 114.635085 
L 193.04715 115.221604 
L 194.215691 115.561789 
L 195.384233 115.65792 
L 196.552775 115.513754 
L 197.721317 115.135382 
L 198.979747 114.474299 
L 200.328065 113.487233 
L 201.76627 112.134616 
L 203.294363 110.38406 
L 205.002232 108.081356 
L 206.979765 105.017552 
L 209.316848 100.947329 
L 212.103371 95.633629 
L 217.13709 85.458915 
L 221.361819 77.133049 
L 224.148342 72.097917 
L 226.485426 68.295862 
L 228.642734 65.199314 
L 230.530379 62.856393 
L 232.328135 60.968804 
L 233.946116 59.571418 
L 235.47421 58.522015 
L 237.002303 57.73991 
L 238.440508 57.250092 
L 239.878714 56.998243 
L 241.137144 56.986949 
L 242.036022 57.204239 
L 243.024788 57.69058 
L 244.013554 58.427092 
L 245.092209 59.502656 
L 246.350638 61.093784 
L 247.698956 63.169079 
L 249.227049 65.929421 
L 251.114694 69.844581 
L 253.451778 75.273488 
L 256.957403 84.080862 
L 261.631571 95.71779 
L 264.058543 101.16566 
L 266.125963 105.273251 
L 267.92372 108.362411 
L 269.541701 110.712276 
L 270.979906 112.434468 
L 272.328224 113.721123 
L 273.586654 114.63011 
L 274.755195 115.218363 
L 275.923737 115.560261 
L 277.092279 115.658088 
L 278.260821 115.515584 
L 279.429363 115.138821 
L 280.597905 114.535075 
L 281.856335 113.641386 
L 283.29454 112.328402 
L 284.822633 110.615832 
L 286.530502 108.351007 
L 288.418147 105.471176 
L 290.665343 101.61495 
L 293.451866 96.355602 
L 297.946258 87.302628 
L 302.800201 77.6596 
L 305.676612 72.422034 
L 308.103584 68.446263 
L 310.260892 65.330792 
L 312.148537 62.969298 
L 313.946293 61.062889 
L 315.564275 59.647855 
L 317.092368 58.581273 
L 318.620461 57.782017 
L 320.058667 57.275935 
L 321.496872 57.007876 
L 322.84519 56.985973 
L 323.744068 57.201285 
L 324.732834 57.685515 
L 325.7216 58.420004 
L 326.800254 59.493489 
L 328.058684 61.082331 
L 329.407002 63.155434 
L 330.935095 65.913587 
L 332.732852 69.629099 
L 334.980048 74.819295 
L 338.126122 82.682813 
L 343.249729 95.486048 
L 345.676701 100.957949 
L 347.744121 105.091164 
L 349.541878 108.206484 
L 351.159859 110.582352 
L 352.687952 112.425686 
L 354.03627 113.714295 
L 355.2947 114.625123 
L 356.463241 115.215109 
L 357.631783 115.55872 
L 358.800325 115.658244 
L 359.968867 115.517402 
L 361.137409 115.142249 
L 362.305951 114.54007 
L 363.564381 113.647976 
L 364.912698 112.427503 
L 366.440792 110.734775 
L 368.148661 108.49009 
L 370.036305 105.629261 
L 372.193613 101.953004 
L 374.980136 96.723189 
L 379.294753 88.05239 
L 384.418359 77.846015 
L 387.384658 72.436177 
L 389.81163 68.458829 
L 391.968938 65.341789 
L 393.856583 62.978752 
L 395.654339 61.070778 
L 397.272321 59.654272 
L 398.890302 58.531819 
L 400.418395 57.746849 
L 401.8566 57.254323 
L 403.294806 56.999772 
L 404.553235 56.985014 
L 405.452114 57.198349 
L 406.44088 57.680468 
L 407.429646 58.412931 
L 408.5083 59.484337 
L 409.76673 61.070893 
L 411.115048 63.1418 
L 412.643141 65.897764 
L 414.440898 69.611195 
L 416.688094 74.799625 
L 419.834168 82.661932 
L 424.957775 95.466712 
L 427.384747 100.940576 
L 429.452167 105.075938 
L 431.249924 108.19343 
L 432.867905 110.571455 
L 434.395998 112.416892 
L 435.744316 113.707456 
L 437.002746 114.620123 
L 438.171287 115.211842 
L 439.339829 115.557168 
L 440.508371 115.658389 
L 441.676913 115.519209 
L 442.845455 115.145666 
L 444.013997 114.545054 
L 445.272427 113.654555 
L 446.620744 112.435698 
L 448.148838 110.744629 
L 449.856707 108.501639 
L 451.744351 105.642391 
L 453.901659 101.967642 
L 456.688182 96.73914 
L 461.002799 88.069047 
L 466.216293 77.690652 
L 469.182592 72.29493 
L 471.609564 68.333402 
L 473.766872 65.232098 
L 475.654516 62.884524 
L 477.452273 60.992226 
L 479.070254 59.590429 
L 480.598348 58.536732 
L 482.126441 57.75033 
L 483.564646 57.25645 
L 485.002852 57.000548 
L 486.261281 56.984074 
L 487.16016 57.195431 
L 488.148926 57.675437 
L 489.137692 58.405875 
L 490.216346 59.475198 
L 491.474776 61.059469 
L 492.823094 63.128178 
L 494.351187 65.881952 
L 496.148944 69.5933 
L 498.39614 74.779958 
L 501.542214 82.641051 
L 506.665821 95.447372 
L 509.18268 101.113868 
L 511.250101 105.22784 
L 513.047858 108.323557 
L 514.665839 110.679928 
L 516.104044 112.408085 
L 517.452362 113.700606 
L 518.710791 114.615111 
L 519.879333 115.208564 
L 521.047875 115.555605 
L 522.216417 115.658521 
L 523.384959 115.521004 
L 524.553501 115.149072 
L 525.722043 114.550027 
L 526.980473 113.661126 
L 528.32879 112.443882 
L 529.856884 110.754477 
L 531.474865 108.639725 
L 533.362509 105.799582 
L 535.519817 102.142877 
L 538.216453 97.105095 
L 542.261405 89.000725 
L 547.924339 77.70618 
L 550.890638 72.309036 
L 553.31761 68.345924 
L 555.474918 65.243039 
L 557.362562 62.893915 
L 559.160319 61.000048 
L 560.7783 59.59678 
L 562.306394 58.541653 
L 563.834487 57.753819 
L 565.272692 57.258584 
L 566.710898 57.001332 
L 567.969327 56.983153 
L 568.868206 57.19253 
L 569.856972 57.670424 
L 570.845738 58.398835 
L 571.924392 59.466075 
L 573.182822 61.048061 
L 574.53114 63.114567 
L 576.059233 65.86615 
L 577.85699 69.575413 
L 580.104186 74.760293 
L 583.25026 82.620172 
L 588.463755 95.640606 
L 590.890726 101.096583 
L 592.958147 105.212687 
L 594.755904 108.310587 
L 596.373885 110.669126 
L 597.81209 112.399267 
L 599.160408 113.693745 
L 600.418837 114.610088 
L 601.587379 115.205273 
L 602.755921 115.554029 
L 603.924463 115.658642 
L 605.093005 115.522789 
L 606.261547 115.152465 
L 607.430089 114.554989 
L 608.688519 113.667686 
L 610.036836 112.452057 
L 611.564929 110.764316 
L 613.182911 108.651189 
L 615.070555 105.812649 
L 617.227863 102.157443 
L 619.924499 97.120963 
L 623.969451 89.017377 
L 629.632385 77.721711 
L 632.598684 72.323146 
L 635.025656 68.358451 
L 637.182964 65.253986 
L 639.070608 62.903313 
L 640.868365 61.007877 
L 642.486346 59.603139 
L 644.01444 58.54658 
L 645.542533 57.757316 
L 646.980738 57.260726 
L 648.418944 57.002123 
L 649.677373 56.982249 
L 650.576252 57.189648 
L 651.565018 57.665427 
L 652.553784 58.39181 
L 653.632438 59.456965 
L 654.890868 61.036667 
L 656.239186 63.100968 
L 657.767279 65.85036 
L 659.565036 69.557534 
L 661.812232 74.74063 
L 664.958306 82.599293 
L 670.171801 95.6213 
L 672.598772 101.079288 
L 674.666193 105.197525 
L 676.46395 108.297607 
L 678.081931 110.658314 
L 679.520136 112.390436 
L 680.868454 113.686872 
L 682.126883 114.605051 
L 683.295425 115.201969 
L 684.463967 115.552442 
L 685.632509 115.658751 
L 686.801051 115.524561 
L 687.969593 115.155848 
L 689.138135 114.55994 
L 690.396565 113.674237 
L 691.744882 112.460222 
L 693.272975 110.774149 
L 694.890957 108.662646 
L 696.778601 105.825711 
L 698.935909 102.172004 
L 701.632545 97.136826 
L 705.677497 89.034029 
L 711.340431 77.737242 
L 714.30673 72.33726 
L 716.733702 68.370982 
L 718.89101 65.26494 
L 720.778654 62.912719 
L 722.576411 61.015714 
L 724.194392 59.609505 
L 725.722485 58.551515 
L 727.250579 57.760821 
L 728.688784 57.262876 
L 730.12699 57.002922 
L 731.385419 56.981364 
L 732.284298 57.186783 
L 733.273064 57.660448 
L 734.26183 58.384802 
L 735.340484 59.44787 
L 736.598914 61.025289 
L 737.947232 63.08738 
L 739.475325 65.83458 
L 741.273082 69.539664 
L 743.520278 74.72097 
L 746.666352 82.578416 
L 751.879847 95.60199 
L 754.306818 101.061984 
L 756.374239 105.182355 
L 758.171995 108.284617 
L 759.789977 110.647492 
L 761.31807 112.478197 
L 762.666387 113.755091 
L 763.924817 114.654864 
L 765.093359 115.234447 
L 766.261901 115.567784 
L 767.430443 115.65713 
L 768.598985 115.506322 
L 769.767527 115.121509 
L 771.025956 114.453699 
L 772.374274 113.459913 
L 773.81248 112.100415 
L 775.340573 110.34326 
L 777.048442 108.034004 
L 779.025974 104.963671 
L 781.363058 100.887653 
L 781.992273 99.876603 
L 781.992273 99.876603 
" clip-path="url(#padd3ea0a96)" style="fill: none; stroke: #009afa; stroke-width: 4"/>
   </g>
   <g id="matplotlib.axis_1">
    <g id="xtick_1">
     <g id="line2d_2">
      <defs>
       <path id="m59c54db6ec" d="M 0 0 
L 0 -5 
" style="stroke: #000000"/>
      </defs>
      <g>
       <use xlink:href="#m59c54db6ec" x="62.889558" y="118.945354" style="stroke: #000000"/>
      </g>
     </g>
     <g id="text_1">
      <!-- $0$ -->
      <g transform="translate(55.889558 143.720979) scale(0.28 -0.28)">
       <defs>
        <path id="Cmr10-30" d="M 1600 -141 
Q 816 -141 533 504 
Q 250 1150 250 2041 
Q 250 2597 351 3087 
Q 453 3578 754 3920 
Q 1056 4263 1600 4263 
Q 2022 4263 2290 4056 
Q 2559 3850 2700 3523 
Q 2841 3197 2892 2823 
Q 2944 2450 2944 2041 
Q 2944 1491 2842 1011 
Q 2741 531 2444 195 
Q 2147 -141 1600 -141 
z
M 1600 25 
Q 1956 25 2131 390 
Q 2306 756 2347 1200 
Q 2388 1644 2388 2144 
Q 2388 2625 2347 3031 
Q 2306 3438 2132 3767 
Q 1959 4097 1600 4097 
Q 1238 4097 1063 3765 
Q 888 3434 847 3029 
Q 806 2625 806 2144 
Q 806 1788 823 1472 
Q 841 1156 916 820 
Q 991 484 1158 254 
Q 1325 25 1600 25 
z
" transform="scale(0.015625)"/>
       </defs>
       <use xlink:href="#Cmr10-30" transform="translate(0 0.390625)"/>
      </g>
     </g>
    </g>
    <g id="xtick_2">
     <g id="line2d_3">
      <g>
       <use xlink:href="#m59c54db6ec" x="242.665237" y="118.945354" style="stroke: #000000"/>
      </g>
     </g>
     <g id="text_2">
      <!-- $1$ -->
      <g transform="translate(235.665237 143.720979) scale(0.28 -0.28)">
       <defs>
        <path id="Cmr10-31" d="M 594 0 
L 594 225 
Q 1394 225 1394 428 
L 1394 3788 
Q 1063 3628 556 3628 
L 556 3853 
Q 1341 3853 1741 4263 
L 1831 4263 
Q 1853 4263 1873 4245 
Q 1894 4228 1894 4206 
L 1894 428 
Q 1894 225 2694 225 
L 2694 0 
L 594 0 
z
" transform="scale(0.015625)"/>
       </defs>
       <use xlink:href="#Cmr10-31" transform="translate(0 0.390625)"/>
      </g>
     </g>
    </g>
    <g id="xtick_3">
     <g id="line2d_4">
      <g>
       <use xlink:href="#m59c54db6ec" x="422.440916" y="118.945354" style="stroke: #000000"/>
      </g>
     </g>
     <g id="text_3">
      <!-- $2$ -->
      <g transform="translate(415.440916 143.720979) scale(0.28 -0.28)">
       <defs>
        <path id="Cmr10-32" d="M 319 0 
L 319 172 
Q 319 188 331 206 
L 1325 1306 
Q 1550 1550 1690 1715 
Q 1831 1881 1968 2097 
Q 2106 2313 2186 2536 
Q 2266 2759 2266 3009 
Q 2266 3272 2169 3511 
Q 2072 3750 1880 3894 
Q 1688 4038 1416 4038 
Q 1138 4038 916 3870 
Q 694 3703 603 3438 
Q 628 3444 672 3444 
Q 816 3444 917 3347 
Q 1019 3250 1019 3097 
Q 1019 2950 917 2848 
Q 816 2747 672 2747 
Q 522 2747 420 2851 
Q 319 2956 319 3097 
Q 319 3338 409 3548 
Q 500 3759 670 3923 
Q 841 4088 1055 4175 
Q 1269 4263 1509 4263 
Q 1875 4263 2190 4108 
Q 2506 3953 2690 3670 
Q 2875 3388 2875 3009 
Q 2875 2731 2753 2481 
Q 2631 2231 2440 2026 
Q 2250 1822 1953 1562 
Q 1656 1303 1563 1216 
L 838 519 
L 1453 519 
Q 1906 519 2211 526 
Q 2516 534 2534 550 
Q 2609 631 2688 1141 
L 2875 1141 
L 2694 0 
L 319 0 
z
" transform="scale(0.015625)"/>
       </defs>
       <use xlink:href="#Cmr10-32" transform="translate(0 0.390625)"/>
      </g>
     </g>
    </g>
    <g id="xtick_4">
     <g id="line2d_5">
      <g>
       <use xlink:href="#m59c54db6ec" x="602.216594" y="118.945354" style="stroke: #000000"/>
      </g>
     </g>
     <g id="text_4">
      <!-- $3$ -->
      <g transform="translate(595.216594 143.720979) scale(0.28 -0.28)">
       <defs>
        <path id="Cmr10-33" d="M 609 494 
Q 759 275 1012 169 
Q 1266 63 1556 63 
Q 1928 63 2084 380 
Q 2241 697 2241 1100 
Q 2241 1281 2208 1462 
Q 2175 1644 2097 1800 
Q 2019 1956 1883 2050 
Q 1747 2144 1550 2144 
L 1125 2144 
Q 1069 2144 1069 2203 
L 1069 2259 
Q 1069 2309 1125 2309 
L 1478 2338 
Q 1703 2338 1851 2506 
Q 2000 2675 2069 2917 
Q 2138 3159 2138 3378 
Q 2138 3684 1994 3881 
Q 1850 4078 1556 4078 
Q 1313 4078 1091 3986 
Q 869 3894 738 3706 
Q 750 3709 759 3711 
Q 769 3713 781 3713 
Q 925 3713 1022 3613 
Q 1119 3513 1119 3372 
Q 1119 3234 1022 3134 
Q 925 3034 781 3034 
Q 641 3034 541 3134 
Q 441 3234 441 3372 
Q 441 3647 606 3850 
Q 772 4053 1033 4158 
Q 1294 4263 1556 4263 
Q 1750 4263 1965 4205 
Q 2181 4147 2356 4039 
Q 2531 3931 2642 3762 
Q 2753 3594 2753 3378 
Q 2753 3109 2633 2881 
Q 2513 2653 2303 2487 
Q 2094 2322 1844 2241 
Q 2122 2188 2372 2031 
Q 2622 1875 2773 1631 
Q 2925 1388 2925 1106 
Q 2925 753 2731 467 
Q 2538 181 2222 20 
Q 1906 -141 1556 -141 
Q 1256 -141 954 -26 
Q 653 88 461 316 
Q 269 544 269 863 
Q 269 1022 375 1128 
Q 481 1234 641 1234 
Q 744 1234 830 1186 
Q 916 1138 964 1050 
Q 1013 963 1013 863 
Q 1013 706 903 600 
Q 794 494 641 494 
L 609 494 
z
" transform="scale(0.015625)"/>
       </defs>
       <use xlink:href="#Cmr10-33" transform="translate(0 0.390625)"/>
      </g>
     </g>
    </g>
    <g id="xtick_5">
     <g id="line2d_6">
      <g>
       <use xlink:href="#m59c54db6ec" x="781.992273" y="118.945354" style="stroke: #000000"/>
      </g>
     </g>
     <g id="text_5">
      <!-- $4$ -->
      <g transform="translate(774.992273 143.720979) scale(0.28 -0.28)">
       <defs>
        <path id="Cmr10-34" d="M 178 1056 
L 178 1281 
L 2156 4231 
Q 2178 4263 2222 4263 
L 2316 4263 
Q 2388 4263 2388 4191 
L 2388 1281 
L 3016 1281 
L 3016 1056 
L 2388 1056 
L 2388 428 
Q 2388 297 2575 261 
Q 2763 225 3009 225 
L 3009 0 
L 1247 0 
L 1247 225 
Q 1494 225 1681 261 
Q 1869 297 1869 428 
L 1869 1056 
L 178 1056 
z
M 391 1281 
L 1906 1281 
L 1906 3547 
L 391 1281 
z
" transform="scale(0.015625)"/>
       </defs>
       <use xlink:href="#Cmr10-34" transform="translate(0 0.390625)"/>
      </g>
     </g>
    </g>
   </g>
   <g id="matplotlib.axis_2">
    <g id="ytick_1">
     <g id="line2d_7">
      <defs>
       <path id="mcdbb925720" d="M 0 0 
L 5 0 
" style="stroke: #000000"/>
      </defs>
      <g>
       <use xlink:href="#mcdbb925720" x="41.316477" y="115.659202" style="stroke: #000000"/>
      </g>
     </g>
     <g id="text_6">
      <!-- $-1$ -->
      <g transform="translate(1.976477 126.297015) scale(0.28 -0.28)">
       <defs>
        <path id="Cmsy10-a1" d="M 653 1472 
Q 600 1472 565 1512 
Q 531 1553 531 1600 
Q 531 1647 565 1687 
Q 600 1728 653 1728 
L 4325 1728 
Q 4375 1728 4408 1687 
Q 4441 1647 4441 1600 
Q 4441 1553 4408 1512 
Q 4375 1472 4325 1472 
L 653 1472 
z
" transform="scale(0.015625)"/>
       </defs>
       <use xlink:href="#Cmsy10-a1" transform="translate(0 0.390625)"/>
       <use xlink:href="#Cmr10-31" transform="translate(77.685547 0.390625)"/>
      </g>
     </g>
    </g>
    <g id="ytick_2">
     <g id="line2d_8">
      <g>
       <use xlink:href="#mcdbb925720" x="41.316477" y="86.309784" style="stroke: #000000"/>
      </g>
     </g>
     <g id="text_7">
      <!-- $0$ -->
      <g transform="translate(23.816477 96.947596) scale(0.28 -0.28)">
       <use xlink:href="#Cmr10-30" transform="translate(0 0.390625)"/>
      </g>
     </g>
    </g>
    <g id="ytick_3">
     <g id="line2d_9">
      <g>
       <use xlink:href="#mcdbb925720" x="41.316477" y="56.960365" style="stroke: #000000"/>
      </g>
     </g>
     <g id="text_8">
      <!-- $1$ -->
      <g transform="translate(23.816477 67.598178) scale(0.28 -0.28)">
       <use xlink:href="#Cmr10-31" transform="translate(0 0.390625)"/>
      </g>
     </g>
    </g>
    <g id="ytick_4">
     <g id="line2d_10">
      <g>
       <use xlink:href="#mcdbb925720" x="41.316477" y="27.610947" style="stroke: #000000"/>
      </g>
     </g>
     <g id="text_9">
      <!-- $2$ -->
      <g transform="translate(23.816477 38.248759) scale(0.28 -0.28)">
       <use xlink:href="#Cmr10-32" transform="translate(0 0.390625)"/>
      </g>
     </g>
    </g>
   </g>
   <g id="line2d_11">
    <path d="M 62.889558 56.960945 
L 64.0581 57.095877 
L 65.226642 57.466493 
L 66.395184 58.069803 
L 67.653614 58.974129 
L 69.001931 60.226566 
L 70.440137 61.870835 
L 72.058118 64.076361 
L 73.855875 66.928346 
L 75.923295 70.661507 
L 78.350267 75.539842 
L 81.586229 82.594738 
L 88.777256 98.43789 
L 91.294115 103.35141 
L 93.361536 106.919026 
L 95.159292 109.601725 
L 96.777274 111.637527 
L 98.215479 113.119311 
L 99.563797 114.21132 
L 100.822226 114.960396 
L 101.990768 115.416073 
L 103.15931 115.636935 
L 104.327852 115.6212 
L 105.496394 115.368995 
L 106.664936 114.882354 
L 107.923366 114.100644 
L 109.271683 112.974827 
L 110.709889 111.458699 
L 112.237982 109.511672 
L 113.945851 106.958378 
L 115.833496 103.724634 
L 118.080692 99.403596 
L 120.867215 93.519344 
L 126.260485 81.445525 
L 129.766111 73.913612 
L 132.193082 69.193174 
L 134.260503 65.634996 
L 136.058259 62.961858 
L 137.67624 60.935579 
L 139.114446 59.462869 
L 140.462764 58.379782 
L 141.721193 57.639312 
L 142.889735 57.191794 
L 144.058277 56.979186 
L 145.226819 57.003202 
L 146.395361 57.26365 
L 147.563903 57.758428 
L 148.822333 58.548707 
L 150.17065 59.683396 
L 151.608856 61.208525 
L 153.136949 63.164477 
L 154.844818 65.726816 
L 156.732462 68.969238 
L 158.979658 73.298555 
L 161.766181 79.189637 
L 167.429115 91.863649 
L 170.754965 98.972768 
L 173.181937 103.665204 
L 175.249357 107.192942 
L 177.047114 109.835309 
L 178.665095 111.830978 
L 180.103301 113.274558 
L 181.451618 114.32902 
L 182.710048 115.041902 
L 183.87859 115.463281 
L 185.047132 115.649464 
L 186.215674 115.598949 
L 187.384216 115.312143 
L 188.552758 114.79136 
L 189.811187 113.973711 
L 191.159505 112.810713 
L 192.59771 111.256879 
L 194.125804 109.272499 
L 195.833673 106.681384 
L 197.811205 103.246149 
L 200.058401 98.872862 
L 202.934812 92.748149 
L 212.732586 71.417359 
L 214.979782 67.290962 
L 216.867427 64.257914 
L 218.575296 61.911758 
L 220.103389 60.167637 
L 221.541595 58.855045 
L 222.889912 57.928852 
L 224.148342 57.33922 
L 225.316884 57.034309 
L 226.485426 56.965579 
L 227.653968 57.133584 
L 228.82251 57.536967 
L 229.991051 58.172476 
L 231.249481 59.110544 
L 232.597799 60.397709 
L 234.036004 62.076987 
L 235.653985 64.318868 
L 237.451742 67.206828 
L 239.519162 70.974755 
L 241.946134 75.88377 
L 245.271984 83.162473 
L 252.013572 98.033503 
L 254.530432 102.989158 
L 256.597852 106.601589 
L 258.395609 109.329809 
L 260.01359 111.411043 
L 261.541683 113.020865 
L 262.890001 114.136023 
L 264.14843 114.907439 
L 265.316972 115.38431 
L 266.485514 115.626621 
L 267.654056 115.632418 
L 268.822598 115.401654 
L 269.99114 114.936192 
L 271.24957 114.176799 
L 272.508 113.156699 
L 273.856317 111.78532 
L 275.38441 109.901296 
L 277.092279 107.412023 
L 278.979924 104.239908 
L 281.137232 100.1572 
L 283.743979 94.727946 
L 287.87882 85.516926 
L 292.4631 75.436993 
L 295.069847 70.227122 
L 297.227155 66.394148 
L 299.1148 63.485536 
L 300.732781 61.372408 
L 302.260874 59.730128 
L 303.609192 58.58481 
L 304.867622 57.784257 
L 306.126051 57.250572 
L 307.294593 56.998367 
L 308.463135 56.982632 
L 309.631677 57.203494 
L 310.800219 57.659171 
L 312.058649 58.408247 
L 313.317079 59.418353 
L 314.665396 60.779488 
L 316.193489 62.652619 
L 317.811471 64.990872 
L 319.699115 68.132496 
L 321.856423 72.186756 
L 324.463171 77.591786 
L 328.418236 86.383547 
L 333.362067 97.268164 
L 335.968814 102.469494 
L 338.126122 106.293048 
L 340.013767 109.191884 
L 341.631748 111.295657 
L 343.159841 112.928409 
L 344.508159 114.06487 
L 345.766589 114.856863 
L 347.025018 115.381786 
L 348.19356 115.625746 
L 349.362102 115.6332 
L 350.530644 115.404086 
L 351.699186 114.940254 
L 352.957616 114.18258 
L 354.216045 113.164145 
L 355.564363 111.794472 
L 357.092456 109.912262 
L 358.800325 107.424835 
L 360.68797 104.254504 
L 362.845278 100.173456 
L 365.452025 94.74561 
L 369.586866 85.535361 
L 374.261034 75.265922 
L 376.867781 70.073184 
L 379.025089 66.259088 
L 380.912734 63.370056 
L 382.530715 61.27566 
L 384.058808 59.652451 
L 385.407126 58.524858 
L 386.665555 57.741434 
L 387.834097 57.253165 
L 389.002639 56.999311 
L 390.171181 56.98192 
L 391.339723 57.201131 
L 392.508265 57.655177 
L 393.766695 58.402532 
L 395.025125 59.410971 
L 396.373442 60.770397 
L 397.901535 62.641709 
L 399.519516 64.978202 
L 401.407161 68.118022 
L 403.564469 72.170594 
L 406.171217 77.574179 
L 410.126282 86.365106 
L 415.070113 97.251055 
L 417.67686 102.454097 
L 419.834168 106.279538 
L 421.721813 109.180332 
L 423.339794 111.285977 
L 424.867887 112.920636 
L 426.216205 114.05887 
L 427.474635 114.852575 
L 428.733064 115.379251 
L 429.901606 115.62486 
L 431.070148 115.63397 
L 432.23869 115.406507 
L 433.407232 114.944305 
L 434.665662 114.18835 
L 435.924091 113.17158 
L 437.272409 111.803614 
L 438.800502 109.923218 
L 440.508371 107.437639 
L 442.396016 104.269093 
L 444.553324 100.189707 
L 447.160071 94.763271 
L 451.294912 85.553795 
L 455.96908 75.28301 
L 458.575827 70.088549 
L 460.733135 66.272559 
L 462.62078 63.381563 
L 464.238761 61.285291 
L 465.766854 59.660171 
L 467.115172 58.530804 
L 468.373601 57.745665 
L 469.542143 57.255769 
L 470.710685 57.000267 
L 471.879227 56.981219 
L 473.047769 57.19878 
L 474.216311 57.651194 
L 475.474741 58.396828 
L 476.73317 59.403599 
L 478.081488 60.761315 
L 479.609581 62.630809 
L 481.227562 64.96554 
L 483.115207 68.103554 
L 485.272515 72.154437 
L 487.879263 77.556576 
L 491.834327 86.346665 
L 496.778159 97.233941 
L 499.384906 102.438694 
L 501.542214 106.26602 
L 503.429859 109.16877 
L 505.04784 111.276287 
L 506.575933 112.912853 
L 507.924251 114.052858 
L 509.18268 114.848275 
L 510.44111 115.376704 
L 511.609652 115.623963 
L 512.778194 115.634729 
L 513.946736 115.408916 
L 515.115278 114.948345 
L 516.373708 114.194109 
L 517.632137 113.179005 
L 518.980455 111.812745 
L 520.508548 109.934164 
L 522.216417 107.450435 
L 524.104062 104.283675 
L 526.26137 100.205953 
L 528.868117 94.780929 
L 532.91307 85.775031 
L 537.677126 75.300102 
L 540.283873 70.10392 
L 542.441181 66.286037 
L 544.328826 63.39308 
L 545.946807 61.294931 
L 547.4749 59.667902 
L 548.823218 58.536761 
L 550.081647 57.749908 
L 551.250189 57.258385 
L 552.418731 57.001234 
L 553.587273 56.98053 
L 554.755815 57.19644 
L 555.924357 57.647222 
L 557.182787 58.391135 
L 558.441216 59.396238 
L 559.789534 60.752244 
L 561.317627 62.619919 
L 562.935608 64.952887 
L 564.823253 68.089094 
L 566.980561 72.138285 
L 569.587309 77.538976 
L 573.542373 86.328224 
L 578.486205 97.216823 
L 581.092952 102.423284 
L 583.25026 106.252494 
L 585.137905 109.1572 
L 586.755886 111.266588 
L 588.283979 112.905059 
L 589.632297 114.046835 
L 590.890726 114.843965 
L 592.149156 115.374146 
L 593.317698 115.623053 
L 594.48624 115.635476 
L 595.654782 115.411313 
L 596.823324 114.952373 
L 598.081754 114.199857 
L 599.340183 113.186419 
L 600.688501 111.821867 
L 602.216594 109.945102 
L 603.834575 107.60333 
L 605.72222 104.4581 
L 607.879528 100.400469 
L 610.486275 94.992558 
L 614.44134 86.199139 
L 619.295284 75.505542 
L 621.902031 70.288875 
L 624.059339 66.448393 
L 625.946984 63.531981 
L 627.564965 61.411383 
L 629.093058 59.761493 
L 630.441376 58.609097 
L 631.699806 57.801702 
L 632.958235 57.261012 
L 634.126777 57.002212 
L 635.295319 56.979852 
L 636.463861 57.194111 
L 637.632403 57.643261 
L 638.890833 58.385453 
L 640.149262 59.388888 
L 641.49758 60.743183 
L 643.025673 62.609037 
L 644.643654 64.940242 
L 646.531299 68.074641 
L 648.688607 72.122139 
L 651.295354 77.52138 
L 655.250419 86.309784 
L 660.194251 97.199701 
L 662.800998 102.407868 
L 664.958306 106.238961 
L 666.845951 109.14562 
L 668.463932 111.256879 
L 669.992025 112.897254 
L 671.340343 114.040802 
L 672.598772 114.839643 
L 673.857202 115.371576 
L 675.025744 115.622133 
L 676.194286 115.636211 
L 677.362828 115.413699 
L 678.53137 114.95639 
L 679.7898 114.205594 
L 681.048229 113.193822 
L 682.396547 111.830978 
L 683.92464 109.95603 
L 685.542621 107.616017 
L 687.430266 104.472589 
L 689.587574 100.416643 
L 692.194321 95.010171 
L 696.149386 86.21758 
L 701.093217 75.334298 
L 703.699965 70.134682 
L 705.857273 66.313018 
L 707.744918 63.41614 
L 709.362899 61.314241 
L 710.890992 59.683396 
L 712.23931 58.548707 
L 713.497739 57.758428 
L 714.666281 57.26365 
L 715.834823 57.003202 
L 717.003365 56.979186 
L 718.171907 57.191794 
L 719.340449 57.639312 
L 720.598879 58.379782 
L 721.857308 59.381548 
L 723.205626 60.734132 
L 724.733719 62.598165 
L 726.3517 64.927606 
L 728.239345 68.060195 
L 730.396653 72.105999 
L 733.0034 77.503787 
L 736.868578 86.088496 
L 741.902297 97.182574 
L 744.509044 102.392446 
L 746.666352 106.225419 
L 748.553997 109.134031 
L 750.171978 111.24716 
L 751.700071 112.889439 
L 753.048389 114.034757 
L 754.306818 114.83531 
L 755.565248 115.368995 
L 756.73379 115.6212 
L 757.902332 115.636935 
L 759.070874 115.416073 
L 760.239416 114.960396 
L 761.497846 114.21132 
L 762.756275 113.201215 
L 764.104593 111.84008 
L 765.632686 109.966949 
L 767.250667 107.628696 
L 769.138312 104.487071 
L 771.29562 100.432811 
L 773.902367 95.027781 
L 777.857432 86.236021 
L 781.902385 77.257855 
L 781.992273 77.240315 
L 781.992273 77.240315 
" clip-path="url(#padd3ea0a96)" style="fill: none; stroke: #e36f47; stroke-width: 4"/>
   </g>
   <g id="patch_3">
    <path d="M 41.316477 118.945354 
L 41.316477 2.834646 
" style="fill: none; stroke: #000000; stroke-width: 2; stroke-linejoin: miter; stroke-linecap: square"/>
   </g>
   <g id="patch_4">
    <path d="M 41.316477 118.945354 
L 803.565354 118.945354 
" style="fill: none; stroke: #000000; stroke-width: 2; stroke-linejoin: miter; stroke-linecap: square"/>
   </g>
   <g id="line2d_12">
    <path d="M 62.889558 31.223523 
L 75.024416 34.82778 
L 77.181725 35.443513 
L 77.271612 6.120798 
L 77.3615 6.160915 
L 87.428938 10.53653 
L 97.496376 14.673347 
L 107.74359 18.652159 
L 118.799794 22.69742 
L 129.766111 26.470989 
L 140.912203 30.07717 
L 152.68751 33.651005 
L 158.979658 35.466646 
L 159.069546 6.157267 
L 159.159434 6.197409 
L 169.047096 10.495071 
L 179.204422 14.670079 
L 189.451636 18.64908 
L 200.50784 22.694522 
L 211.474157 26.468259 
L 222.620249 30.074607 
L 234.395556 33.648608 
L 240.687704 35.464335 
L 240.777592 6.153619 
L 240.86748 6.193759 
L 250.84503 10.52962 
L 260.912468 14.66681 
L 271.159682 18.646 
L 282.215886 22.691623 
L 293.182203 26.46553 
L 304.328295 30.072045 
L 316.103602 33.646211 
L 322.39575 35.462023 
L 322.485638 6.149971 
L 322.575526 6.190109 
L 332.553076 10.526164 
L 342.620514 14.663541 
L 352.867728 18.64292 
L 363.923932 22.688725 
L 374.890249 26.4628 
L 386.036341 30.069482 
L 397.811648 33.643814 
L 404.103796 35.459711 
L 404.193684 6.146323 
L 404.283572 6.186459 
L 414.261122 10.522709 
L 424.32856 14.660272 
L 434.575774 18.639839 
L 445.54209 22.653956 
L 456.77807 26.520111 
L 467.924162 30.123225 
L 479.969133 33.773158 
L 485.811842 35.457398 
L 485.90173 6.142676 
L 485.991618 6.182809 
L 495.969168 10.519254 
L 506.036606 14.657003 
L 516.28382 18.636758 
L 527.250136 22.651059 
L 538.486116 26.517383 
L 549.632208 30.12067 
L 561.677179 33.770761 
L 567.519888 35.455085 
L 567.609776 6.139029 
L 567.699664 6.17916 
L 577.677214 10.515799 
L 587.744652 14.653734 
L 597.991866 18.633676 
L 608.958182 22.648163 
L 620.194162 26.514655 
L 631.340254 30.118115 
L 643.385225 33.768365 
L 649.227934 35.452771 
L 649.317822 6.135382 
L 649.40771 6.17551 
L 659.38526 10.512344 
L 669.452698 14.650465 
L 679.699912 18.630594 
L 690.666228 22.645268 
L 701.902208 26.511927 
L 713.0483 30.115558 
L 725.093271 33.765968 
L 730.93598 35.450457 
L 731.025868 6.131735 
L 731.115756 6.171861 
L 741.093306 10.508889 
L 751.250632 14.683152 
L 761.497846 18.661395 
L 772.643938 22.738008 
L 781.992273 25.939511 
L 781.992273 25.939511 
" clip-path="url(#padd3ea0a96)" style="fill: none; stroke: #3ea44d; stroke-width: 4"/>
   </g>
  </g>
 </g>
 <defs>
  <clipPath id="padd3ea0a96">
   <rect x="41.316477" y="2.834646" width="762.248878" height="116.110709"/>
  </clipPath>
 </defs>
</svg>
