<?xml version="1.0" encoding="utf-8" standalone="no"?>
<!DOCTYPE svg PUBLIC "-//W3C//DTD SVG 1.1//EN"
  "http://www.w3.org/Graphics/SVG/1.1/DTD/svg11.dtd">
<svg xmlns:xlink="http://www.w3.org/1999/xlink" width="720pt" height="239.04pt" viewBox="0 0 720 239.04" xmlns="http://www.w3.org/2000/svg" version="1.1">
 <metadata>
  <rdf:RDF xmlns:dc="http://purl.org/dc/elements/1.1/" xmlns:cc="http://creativecommons.org/ns#" xmlns:rdf="http://www.w3.org/1999/02/22-rdf-syntax-ns#">
   <cc:Work>
    <dc:type rdf:resource="http://purl.org/dc/dcmitype/StillImage"/>
    <dc:date>2024-08-16T15:10:34.302810</dc:date>
    <dc:format>image/svg+xml</dc:format>
    <dc:creator>
     <cc:Agent>
      <dc:title>Matplotlib v3.8.4, https://matplotlib.org/</dc:title>
     </cc:Agent>
    </dc:creator>
   </cc:Work>
  </rdf:RDF>
 </metadata>
 <defs>
  <style type="text/css">*{stroke-linejoin: round; stroke-linecap: butt}</style>
 </defs>
 <g id="figure_1">
  <g id="patch_1">
   <path d="M 0 239.04 
L 720 239.04 
L 720 0 
L 0 0 
L 0 239.04 
z
" style="fill: none"/>
  </g>
  <g id="axes_1">
   <g id="patch_2">
    <path d="M 64.170808 224.854518 
L 717.165354 224.854518 
L 717.165354 2.834646 
L 64.170808 2.834646 
L 64.170808 224.854518 
z
" style="fill: none"/>
   </g>
   <g id="line2d_1">
    <path d="M 82.651786 66.549181 
L 83.165146 66.733922 
L 83.678506 67.282681 
L 84.191867 68.18624 
L 84.705227 69.434108 
L 85.731948 72.915057 
L 86.758669 77.620006 
L 87.78539 83.42944 
L 89.325472 93.926475 
L 90.865553 106.139331 
L 92.918995 124.230109 
L 98.565961 175.460365 
L 100.106042 187.60851 
L 101.646124 198.181176 
L 102.672845 204.178497 
L 103.699566 209.226913 
L 104.726287 213.247446 
L 105.753008 216.175032 
L 106.266368 217.212865 
L 106.779729 217.960242 
L 107.293089 218.413697 
L 107.80645 218.570936 
L 108.31981 218.43087 
L 108.833171 217.993639 
L 109.346531 217.260633 
L 109.859892 216.234497 
L 110.886613 213.319692 
L 111.913334 209.295254 
L 112.940055 204.22629 
L 113.966776 198.195669 
L 115.506857 187.566788 
L 117.046939 175.38979 
L 119.613741 152.870454 
L 124.233985 111.690472 
L 126.287427 95.810132 
L 127.827509 85.718064 
L 128.85423 80.035848 
L 129.880951 75.281191 
L 130.907672 71.515946 
L 131.934393 68.787055 
L 132.447753 67.821745 
L 132.961114 67.126203 
L 133.474474 66.701982 
L 133.987835 66.549675 
L 134.501195 66.731345 
L 135.014556 67.31975 
L 135.527916 68.304954 
L 136.041277 69.675089 
L 137.067998 73.515093 
L 138.094719 78.716287 
L 139.12144 85.136601 
L 140.661521 96.706759 
L 142.201603 110.091886 
L 144.768405 134.787751 
L 148.361929 169.662876 
L 150.415371 187.281376 
L 151.955452 198.485257 
L 152.982173 204.762425 
L 154.008894 209.961935 
L 155.035615 213.995219 
L 156.062336 216.791243 
L 156.575696 217.708302 
L 157.089057 218.298229 
L 157.602417 218.55784 
L 158.115778 218.485362 
L 158.629138 218.080468 
L 159.142499 217.344312 
L 159.655859 216.279554 
L 160.68258 213.182461 
L 161.709301 208.840781 
L 162.736022 203.329846 
L 163.762743 196.747472 
L 165.302825 185.128864 
L 167.356267 167.134406 
L 170.94979 132.477136 
L 173.516593 108.732113 
L 175.056674 96.125095 
L 176.596756 85.332397 
L 177.623477 79.340714 
L 178.650198 74.422965 
L 179.676919 70.652966 
L 180.70364 68.084526 
L 181.217 67.262117 
L 181.730361 66.750995 
L 182.243721 66.552112 
L 182.757082 66.72164 
L 183.270442 67.347075 
L 183.783803 68.418169 
L 184.297163 69.921034 
L 185.323884 74.156607 
L 186.350605 79.905395 
L 187.377326 86.994864 
L 188.917407 99.720224 
L 190.970849 119.490198 
L 197.131175 181.629728 
L 198.671257 194.274337 
L 199.697978 201.468347 
L 200.724699 207.524335 
L 201.75142 212.336318 
L 202.778141 215.819272 
L 203.291501 217.041806 
L 203.804862 217.910277 
L 204.318222 218.420464 
L 204.831583 218.569667 
L 205.344943 218.356748 
L 205.858304 217.782159 
L 206.371664 216.847975 
L 206.885025 215.557915 
L 207.911746 211.933395 
L 208.938467 206.971823 
L 209.965188 200.763078 
L 210.991909 193.422835 
L 212.53199 180.602564 
L 214.585432 161.023515 
L 220.232398 104.79379 
L 221.772479 92.000656 
L 223.31256 81.40902 
L 224.339281 75.790104 
L 225.366002 71.443912 
L 226.392723 68.443767 
L 226.906084 67.464144 
L 227.419444 66.836501 
L 227.932805 66.562496 
L 228.446165 66.68557 
L 228.959526 67.315001 
L 229.472886 68.443887 
L 229.986247 70.056156 
L 231.012968 74.653687 
L 232.039689 80.930784 
L 233.06641 88.679711 
L 234.606491 102.551587 
L 236.659933 123.914665 
L 241.280178 173.872771 
L 242.820259 188.229298 
L 244.360341 200.306979 
L 245.387062 206.835998 
L 246.413783 212.004348 
L 247.440504 215.720148 
L 247.953864 217.012173 
L 248.467225 217.919156 
L 248.980585 218.437455 
L 249.493946 218.565196 
L 250.007306 218.302278 
L 250.520667 217.65037 
L 251.034027 216.612914 
L 251.547388 215.195115 
L 252.574109 211.248105 
L 253.60083 205.88599 
L 254.627551 199.212898 
L 256.167632 187.038121 
L 257.707713 172.759174 
L 260.274516 146.101642 
L 263.868039 108.706404 
L 265.408121 94.796325 
L 266.948202 83.153945 
L 267.974923 76.928223 
L 269.001644 72.084132 
L 270.028365 68.717989 
L 270.541726 67.610292 
L 271.055086 66.893258 
L 271.568447 66.56955 
L 272.081807 66.681781 
L 272.595168 67.354871 
L 273.108528 68.583387 
L 273.621889 70.348658 
L 274.64861 75.398499 
L 275.675331 82.294076 
L 276.702052 90.786397 
L 278.242133 105.904696 
L 280.295575 128.912645 
L 283.889099 170.122107 
L 285.42918 185.672204 
L 286.969262 198.798532 
L 287.995983 205.897416 
L 289.022704 211.50892 
L 290.049425 215.52975 
L 290.562785 216.920979 
L 291.076145 217.891714 
L 291.589506 218.438905 
L 292.102866 218.561666 
L 292.616227 218.26124 
L 293.129587 217.540973 
L 293.642948 216.406272 
L 294.156308 214.864561 
L 295.183029 210.5996 
L 296.20975 204.843907 
L 297.236471 197.724095 
L 298.776553 184.828807 
L 300.316634 169.83267 
L 302.883437 142.162716 
L 305.9636 109.221764 
L 307.503681 94.809941 
L 309.043763 82.792701 
L 310.070484 76.427493 
L 311.097205 71.55632 
L 312.123926 68.291111 
L 312.637286 67.285215 
L 313.150647 66.705177 
L 313.664007 66.556124 
L 314.177368 66.966534 
L 314.690728 67.999058 
L 315.204089 69.634484 
L 315.717449 71.849289 
L 316.74417 77.903606 
L 317.770891 85.901863 
L 318.797612 95.539389 
L 320.337694 112.326711 
L 323.417857 149.821234 
L 325.471298 173.888154 
L 327.01138 189.657718 
L 328.038101 198.602933 
L 329.064822 206.056245 
L 330.091543 211.861513 
L 331.118264 215.906382 
L 331.631624 217.24563 
L 332.144985 218.122621 
L 332.658345 218.535634 
L 333.171706 218.485596 
L 333.685066 217.976026 
L 334.198427 217.012966 
L 334.711787 215.604906 
L 335.225148 213.762701 
L 336.251869 208.830525 
L 337.27859 202.346869 
L 338.305311 194.473436 
L 339.845392 180.477967 
L 341.898834 158.905393 
L 347.032439 102.946902 
L 348.572521 89.171237 
L 349.599242 81.502089 
L 350.625963 75.269547 
L 351.652684 70.630158 
L 352.166044 68.946588 
L 352.679405 67.70262 
L 353.192765 66.906507 
L 353.706126 66.563692 
L 354.219486 66.743508 
L 354.732847 67.602735 
L 355.246207 69.129752 
L 355.759568 71.299771 
L 356.786289 77.44521 
L 357.81301 85.749538 
L 358.839731 95.866507 
L 360.379812 113.58617 
L 366.026777 183.43896 
L 367.566859 198.212895 
L 368.59358 206.064783 
L 369.620301 212.102025 
L 370.647022 216.199714 
L 371.160382 217.497109 
L 371.673743 218.287421 
L 372.187103 218.570192 
L 372.700464 218.348176 
L 373.213824 217.627252 
L 373.727185 216.416319 
L 374.240545 214.727177 
L 375.267266 209.975179 
L 376.293987 203.518506 
L 377.320708 195.541543 
L 378.86079 181.205732 
L 380.914232 158.990539 
L 385.534476 106.931057 
L 387.074558 92.280282 
L 388.101279 83.997943 
L 389.128 77.145087 
L 390.154721 71.893645 
L 390.668081 69.912352 
L 391.181442 68.379155 
L 391.694802 67.304607 
L 392.208163 66.696484 
L 392.721523 66.56593 
L 393.234884 67.098485 
L 393.748244 68.365557 
L 394.261605 70.342933 
L 394.774965 73.000171 
L 395.801686 80.204626 
L 396.828407 89.632121 
L 398.368488 107.033419 
L 400.42193 133.882895 
L 403.502093 174.265799 
L 405.042175 191.361059 
L 406.068896 200.8123 
L 407.095617 208.409008 
L 408.122338 213.967943 
L 408.635698 215.944028 
L 409.149059 217.371861 
L 409.662419 218.247031 
L 410.17578 218.569108 
L 410.68914 218.341539 
L 411.202501 217.571529 
L 411.715861 216.269898 
L 412.229222 214.450917 
L 413.255943 209.334206 
L 414.282664 202.397645 
L 415.309385 193.860163 
L 416.849466 178.616495 
L 418.902908 155.274389 
L 423.009792 107.641199 
L 424.549874 92.573835 
L 425.576595 84.093137 
L 426.603316 77.110699 
L 427.630037 71.797637 
L 428.143397 69.809773 
L 428.656758 68.28518 
L 429.170118 67.233554 
L 429.683478 66.661763 
L 430.196839 66.590159 
L 430.710199 67.246481 
L 431.22356 68.687133 
L 431.73692 70.884948 
L 432.250281 73.805582 
L 433.277002 81.64586 
L 434.303723 91.814511 
L 435.843804 110.402745 
L 438.410607 145.892044 
L 440.464049 173.569163 
L 442.00413 191.412096 
L 443.030851 201.202323 
L 444.057572 208.973127 
L 445.084293 214.522638 
L 445.597654 216.422728 
L 446.111014 217.727248 
L 446.624375 218.432854 
L 447.137735 218.540883 
L 447.651096 218.057208 
L 448.164456 216.992075 
L 448.677817 215.35991 
L 449.191177 213.179104 
L 450.217898 207.263538 
L 451.244619 199.462486 
L 452.27134 190.03986 
L 453.811422 173.53241 
L 456.378224 142.514572 
L 458.945027 111.8607 
L 460.485108 95.790935 
L 461.511829 86.639687 
L 462.53855 79.009602 
L 463.565271 73.0867 
L 464.591992 69.011717 
L 465.105352 67.698221 
L 465.618713 66.877868 
L 466.132073 66.55468 
L 466.645434 66.85901 
L 467.158794 68.003115 
L 467.672155 69.96571 
L 468.185515 72.713033 
L 469.212236 80.38848 
L 470.238957 90.616775 
L 471.779039 109.63526 
L 474.345841 146.321252 
L 476.399283 174.873609 
L 477.939365 193.058281 
L 478.966086 202.859128 
L 479.992807 210.44358 
L 481.019528 215.604242 
L 481.532888 217.23574 
L 482.046249 218.224703 
L 482.559609 218.570555 
L 483.07297 218.278068 
L 483.58633 217.357172 
L 484.099691 215.822731 
L 484.613051 213.694288 
L 485.639772 207.755237 
L 486.666493 199.778642 
L 487.693214 190.057744 
L 489.233296 172.95034 
L 491.800098 140.850203 
L 494.366901 109.505183 
L 495.906982 93.386696 
L 496.933703 84.385505 
L 497.960424 77.053894 
L 498.987145 71.570443 
L 499.500505 69.563072 
L 500.013866 68.060489 
L 500.527226 67.069818 
L 501.040587 66.594759 
L 501.553947 66.700785 
L 502.067308 67.667696 
L 502.580668 69.505931 
L 503.094029 72.181547 
L 504.12075 79.86503 
L 505.147471 90.282029 
L 506.174192 102.895027 
L 507.714273 124.590513 
L 511.307797 176.870375 
L 512.847878 195.160904 
L 513.874599 204.799042 
L 514.90132 212.022806 
L 515.414681 214.661955 
L 515.928041 216.62966 
L 516.441402 217.916755 
L 516.954762 218.520384 
L 517.468123 218.443835 
L 517.981483 217.696327 
L 518.494844 216.29275 
L 519.008204 214.253373 
L 520.034925 208.37316 
L 521.061646 200.312096 
L 522.088367 190.388755 
L 523.628449 172.82466 
L 526.195251 139.84181 
L 528.762054 107.896669 
L 530.302135 91.709229 
L 531.328856 82.80974 
L 532.355577 75.70083 
L 533.382298 70.555921 
L 533.895658 68.757905 
L 534.409019 67.488878 
L 534.922379 66.753656 
L 535.43574 66.556564 
L 535.9491 67.143966 
L 536.462461 68.653898 
L 536.975821 71.054248 
L 537.489182 74.302729 
L 538.515903 83.129482 
L 539.542624 94.628078 
L 541.082705 115.543537 
L 545.70295 183.262917 
L 546.729671 195.247912 
L 547.756392 205.032924 
L 548.783113 212.299008 
L 549.296473 214.918135 
L 549.809834 216.83839 
L 550.323194 218.051262 
L 550.836555 218.555025 
L 551.349915 218.354532 
L 551.863276 217.460966 
L 552.376636 215.891532 
L 552.889997 213.669121 
L 553.916718 207.383044 
L 554.943439 198.884411 
L 555.97016 188.518844 
L 557.510241 170.342166 
L 563.157207 99.086225 
L 564.183928 88.906061 
L 565.210649 80.409094 
L 566.23737 73.816516 
L 567.26409 69.287727 
L 567.777451 67.829685 
L 568.290811 66.918521 
L 568.804172 66.556269 
L 569.317532 66.890964 
L 569.830893 68.177593 
L 570.344253 70.390022 
L 570.857614 73.485628 
L 571.884335 82.107176 
L 572.911056 93.52175 
L 574.451137 114.492128 
L 579.071382 182.925238 
L 580.098103 195.051568 
L 581.124824 204.944207 
L 582.151545 212.279473 
L 582.664905 214.918334 
L 583.178266 216.848603 
L 583.691626 218.062133 
L 584.204987 218.557716 
L 584.718347 218.340857 
L 585.231708 217.423497 
L 585.745068 215.823693 
L 586.258429 213.565253 
L 587.28515 207.194025 
L 588.311871 198.599463 
L 589.338592 188.135126 
L 590.878673 169.821111 
L 596.525639 98.439645 
L 597.55236 88.322939 
L 598.579081 79.915999 
L 599.605802 73.437871 
L 600.632523 69.044966 
L 601.145883 67.661766 
L 601.659244 66.829353 
L 602.172604 66.549199 
L 602.685964 67.031681 
L 603.199325 68.477379 
L 603.712685 70.850751 
L 604.226046 74.105419 
L 605.252767 83.02552 
L 606.279488 94.692494 
L 607.819569 115.916343 
L 612.439814 184.092133 
L 613.466535 196.004599 
L 614.493256 205.658832 
L 615.519977 212.747897 
L 616.033337 215.265651 
L 616.546698 217.078521 
L 617.060058 218.179948 
L 617.573419 218.570129 
L 618.086779 218.255784 
L 618.60014 217.249864 
L 619.1135 215.571227 
L 619.626861 213.244271 
L 620.653582 206.768299 
L 621.680303 198.112299 
L 622.707024 187.627638 
L 624.247105 169.349574 
L 629.894071 98.391653 
L 630.920792 88.333838 
L 631.947513 79.965589 
L 632.974234 73.503189 
L 634.000955 69.101954 
L 634.514315 67.705665 
L 635.027676 66.854453 
L 635.541036 66.550081 
L 636.054397 66.983702 
L 636.567757 68.377345 
L 637.081117 70.695715 
L 637.594478 73.892185 
L 638.621199 82.68649 
L 639.64792 94.217868 
L 641.188001 115.234936 
L 645.808246 183.109636 
L 646.834967 195.089439 
L 647.861688 204.874415 
L 648.888409 212.157946 
L 649.401769 214.795844 
L 649.91513 216.743115 
L 650.42849 217.992145 
L 650.941851 218.54186 
L 651.455211 218.397502 
L 651.968572 217.570368 
L 652.481932 216.0775 
L 652.995293 213.941345 
L 654.022014 207.853748 
L 655.048735 199.58061 
L 656.075456 189.455542 
L 657.615537 171.635669 
L 660.6957 131.737637 
L 662.749142 106.550073 
L 664.289224 90.548953 
L 665.315945 81.827028 
L 666.342666 74.93284 
L 667.369387 70.034127 
L 667.882747 68.369037 
L 668.396108 67.238351 
L 668.909468 66.645986 
L 669.422829 66.627118 
L 669.936189 67.495639 
L 670.44955 69.300995 
L 670.96291 72.002107 
L 671.47627 75.548087 
L 672.502991 84.92873 
L 673.529712 96.88263 
L 675.069794 118.217044 
L 679.176678 178.706547 
L 680.203399 191.238708 
L 681.23012 201.735833 
L 682.256841 209.863287 
L 683.283562 215.391875 
L 683.796922 217.138993 
L 684.310283 218.198299 
L 684.823643 218.570392 
L 685.337004 218.261908 
L 685.850364 217.28525 
L 686.363725 215.658296 
L 686.877085 213.404058 
L 687.903806 207.129306 
L 688.930527 198.733712 
L 689.957248 188.547252 
L 691.49733 170.735375 
L 697.144295 100.541071 
L 698.684377 85.799647 
L 698.684377 85.799647 
" clip-path="url(#pa8789969e2)" style="fill: none; stroke: #2477d0; stroke-width: 4"/>
   </g>
   <g id="matplotlib.axis_1">
    <g id="xtick_1"/>
    <g id="xtick_2"/>
    <g id="xtick_3"/>
    <g id="xtick_4"/>
    <g id="xtick_5"/>
   </g>
   <g id="matplotlib.axis_2">
    <g id="ytick_1">
     <g id="line2d_2">
      <defs>
       <path id="me6221a6b01" d="M 0 0 
L 5 0 
" style="stroke: #000000"/>
      </defs>
      <g>
       <use xlink:href="#me6221a6b01" x="64.170808" y="218.571063" style="stroke: #000000"/>
      </g>
     </g>
     <g id="text_1">
      <!-- $-1.0$ -->
      <g transform="translate(2.990808 229.208875) scale(0.28 -0.28)">
       <defs>
        <path id="Cmsy10-a1" d="M 653 1472 
Q 600 1472 565 1512 
Q 531 1553 531 1600 
Q 531 1647 565 1687 
Q 600 1728 653 1728 
L 4325 1728 
Q 4375 1728 4408 1687 
Q 4441 1647 4441 1600 
Q 4441 1553 4408 1512 
Q 4375 1472 4325 1472 
L 653 1472 
z
" transform="scale(0.015625)"/>
        <path id="Cmr10-31" d="M 594 0 
L 594 225 
Q 1394 225 1394 428 
L 1394 3788 
Q 1063 3628 556 3628 
L 556 3853 
Q 1341 3853 1741 4263 
L 1831 4263 
Q 1853 4263 1873 4245 
Q 1894 4228 1894 4206 
L 1894 428 
Q 1894 225 2694 225 
L 2694 0 
L 594 0 
z
" transform="scale(0.015625)"/>
        <path id="Cmmi10-3a" d="M 538 353 
Q 538 497 644 600 
Q 750 703 891 703 
Q 978 703 1062 656 
Q 1147 609 1194 525 
Q 1241 441 1241 353 
Q 1241 213 1137 106 
Q 1034 0 891 0 
Q 750 0 644 106 
Q 538 213 538 353 
z
" transform="scale(0.015625)"/>
        <path id="Cmr10-30" d="M 1600 -141 
Q 816 -141 533 504 
Q 250 1150 250 2041 
Q 250 2597 351 3087 
Q 453 3578 754 3920 
Q 1056 4263 1600 4263 
Q 2022 4263 2290 4056 
Q 2559 3850 2700 3523 
Q 2841 3197 2892 2823 
Q 2944 2450 2944 2041 
Q 2944 1491 2842 1011 
Q 2741 531 2444 195 
Q 2147 -141 1600 -141 
z
M 1600 25 
Q 1956 25 2131 390 
Q 2306 756 2347 1200 
Q 2388 1644 2388 2144 
Q 2388 2625 2347 3031 
Q 2306 3438 2132 3767 
Q 1959 4097 1600 4097 
Q 1238 4097 1063 3765 
Q 888 3434 847 3029 
Q 806 2625 806 2144 
Q 806 1788 823 1472 
Q 841 1156 916 820 
Q 991 484 1158 254 
Q 1325 25 1600 25 
z
" transform="scale(0.015625)"/>
       </defs>
       <use xlink:href="#Cmsy10-a1" transform="translate(0 0.390625)"/>
       <use xlink:href="#Cmr10-31" transform="translate(77.685547 0.390625)"/>
       <use xlink:href="#Cmmi10-3a" transform="translate(127.685547 0.390625)"/>
       <use xlink:href="#Cmr10-30" transform="translate(155.371094 0.390625)"/>
      </g>
     </g>
    </g>
    <g id="ytick_2">
     <g id="line2d_3">
      <g>
       <use xlink:href="#me6221a6b01" x="64.170808" y="180.565592" style="stroke: #000000"/>
      </g>
     </g>
     <g id="text_2">
      <!-- $-0.5$ -->
      <g transform="translate(2.990808 191.203405) scale(0.28 -0.28)">
       <defs>
        <path id="Cmr10-35" d="M 556 728 
Q 622 541 758 387 
Q 894 234 1080 148 
Q 1266 63 1466 63 
Q 1928 63 2103 422 
Q 2278 781 2278 1294 
Q 2278 1516 2270 1667 
Q 2263 1819 2228 1959 
Q 2169 2184 2020 2353 
Q 1872 2522 1656 2522 
Q 1441 2522 1286 2456 
Q 1131 2391 1034 2303 
Q 938 2216 863 2119 
Q 788 2022 769 2016 
L 697 2016 
Q 681 2016 657 2036 
Q 634 2056 634 2075 
L 634 4213 
Q 634 4228 654 4245 
Q 675 4263 697 4263 
L 716 4263 
Q 1147 4056 1631 4056 
Q 2106 4056 2547 4263 
L 2566 4263 
Q 2588 4263 2606 4247 
Q 2625 4231 2625 4213 
L 2625 4153 
Q 2625 4122 2613 4122 
Q 2394 3831 2064 3668 
Q 1734 3506 1381 3506 
Q 1125 3506 856 3578 
L 856 2369 
Q 1069 2541 1236 2614 
Q 1403 2688 1663 2688 
Q 2016 2688 2295 2484 
Q 2575 2281 2725 1954 
Q 2875 1628 2875 1288 
Q 2875 903 2686 575 
Q 2497 247 2172 53 
Q 1847 -141 1466 -141 
Q 1150 -141 886 21 
Q 622 184 470 459 
Q 319 734 319 1044 
Q 319 1188 412 1278 
Q 506 1369 647 1369 
Q 788 1369 883 1276 
Q 978 1184 978 1044 
Q 978 906 883 811 
Q 788 716 647 716 
Q 625 716 597 720 
Q 569 725 556 728 
z
" transform="scale(0.015625)"/>
       </defs>
       <use xlink:href="#Cmsy10-a1" transform="translate(0 0.390625)"/>
       <use xlink:href="#Cmr10-30" transform="translate(77.685547 0.390625)"/>
       <use xlink:href="#Cmmi10-3a" transform="translate(127.685547 0.390625)"/>
       <use xlink:href="#Cmr10-35" transform="translate(155.371094 0.390625)"/>
      </g>
     </g>
    </g>
    <g id="ytick_3">
     <g id="line2d_4">
      <g>
       <use xlink:href="#me6221a6b01" x="64.170808" y="142.560122" style="stroke: #000000"/>
      </g>
     </g>
     <g id="text_3">
      <!-- $0.0$ -->
      <g transform="translate(24.830808 153.197934) scale(0.28 -0.28)">
       <use xlink:href="#Cmr10-30" transform="translate(0 0.390625)"/>
       <use xlink:href="#Cmmi10-3a" transform="translate(50 0.390625)"/>
       <use xlink:href="#Cmr10-30" transform="translate(77.685547 0.390625)"/>
      </g>
     </g>
    </g>
    <g id="ytick_4">
     <g id="line2d_5">
      <g>
       <use xlink:href="#me6221a6b01" x="64.170808" y="104.554651" style="stroke: #000000"/>
      </g>
     </g>
     <g id="text_4">
      <!-- $0.5$ -->
      <g transform="translate(24.830808 115.192464) scale(0.28 -0.28)">
       <use xlink:href="#Cmr10-30" transform="translate(0 0.390625)"/>
       <use xlink:href="#Cmmi10-3a" transform="translate(50 0.390625)"/>
       <use xlink:href="#Cmr10-35" transform="translate(77.685547 0.390625)"/>
      </g>
     </g>
    </g>
    <g id="ytick_5">
     <g id="line2d_6">
      <g>
       <use xlink:href="#me6221a6b01" x="64.170808" y="66.549181" style="stroke: #000000"/>
      </g>
     </g>
     <g id="text_5">
      <!-- $1.0$ -->
      <g transform="translate(24.830808 77.186993) scale(0.28 -0.28)">
       <use xlink:href="#Cmr10-31" transform="translate(0 0.390625)"/>
       <use xlink:href="#Cmmi10-3a" transform="translate(50 0.390625)"/>
       <use xlink:href="#Cmr10-30" transform="translate(77.685547 0.390625)"/>
      </g>
     </g>
    </g>
    <g id="ytick_6">
     <g id="line2d_7">
      <g>
       <use xlink:href="#me6221a6b01" x="64.170808" y="28.54371" style="stroke: #000000"/>
      </g>
     </g>
     <g id="text_6">
      <!-- $1.5$ -->
      <g transform="translate(24.830808 39.181523) scale(0.28 -0.28)">
       <use xlink:href="#Cmr10-31" transform="translate(0 0.390625)"/>
       <use xlink:href="#Cmmi10-3a" transform="translate(50 0.390625)"/>
       <use xlink:href="#Cmr10-35" transform="translate(77.685547 0.390625)"/>
      </g>
     </g>
    </g>
   </g>
   <g id="line2d_8">
    <path d="M 82.651786 66.549181 
L 83.165146 66.699218 
L 83.678506 67.149111 
L 84.191867 67.897642 
L 84.705227 68.942403 
L 85.731948 71.905082 
L 86.758669 75.994413 
L 87.78539 81.149425 
L 88.812111 87.291724 
L 90.352193 98.145035 
L 91.892274 110.622238 
L 94.459077 133.800167 
L 99.079321 176.278811 
L 100.619403 188.683516 
L 102.159484 199.403711 
L 103.186205 205.410512 
L 104.212926 210.382991 
L 105.239647 214.234739 
L 106.266368 216.897502 
L 106.779729 217.766977 
L 107.293089 218.322484 
L 107.80645 218.561126 
L 108.31981 218.481326 
L 108.833171 218.082838 
L 109.346531 217.366759 
L 109.859892 216.335524 
L 110.886613 213.344005 
L 111.913334 209.154272 
L 112.940055 203.832887 
L 113.966776 197.466023 
L 115.506857 186.188629 
L 117.046939 173.218882 
L 119.613741 149.196145 
L 123.720625 110.250264 
L 125.260706 97.343416 
L 126.800788 86.186639 
L 127.827509 79.945706 
L 128.85423 74.796651 
L 129.880951 70.833978 
L 130.907672 68.131805 
L 131.421032 67.270622 
L 131.934393 66.742384 
L 132.447753 66.550021 
L 132.961114 66.694984 
L 133.474474 67.177222 
L 133.987835 67.995187 
L 134.501195 69.145826 
L 135.527916 72.42546 
L 136.554637 76.962125 
L 137.581358 82.678971 
L 138.608079 89.477488 
L 140.148161 101.439027 
L 142.201603 119.921865 
L 149.38865 188.24039 
L 150.928731 199.598972 
L 151.955452 205.891202 
L 152.982173 211.016161 
L 154.008894 214.874537 
L 154.522254 216.303976 
L 155.035615 217.390065 
L 155.548975 218.127134 
L 156.062336 218.511135 
L 156.575696 218.539661 
L 157.089057 218.211965 
L 157.602417 217.528974 
L 158.115778 216.493287 
L 158.629138 215.109173 
L 159.655859 211.320982 
L 160.68258 206.2312 
L 161.709301 199.931638 
L 163.249383 188.472073 
L 164.789464 175.032001 
L 166.842906 155.019507 
L 171.463151 108.795294 
L 173.003232 95.399137 
L 174.543314 84.038852 
L 175.570035 77.851336 
L 176.596756 72.921308 
L 177.623477 69.349563 
L 178.136837 68.097453 
L 178.650198 67.21078 
L 179.163558 66.694522 
L 179.676919 66.551846 
L 180.190279 66.784083 
L 180.70364 67.390714 
L 181.217 68.369367 
L 181.730361 69.715818 
L 182.757082 73.486086 
L 183.783803 78.631478 
L 184.810524 85.054218 
L 186.350605 96.805952 
L 187.890686 110.632424 
L 189.944128 131.224738 
L 194.564373 178.4112 
L 196.104454 191.846381 
L 197.644536 203.04251 
L 198.671257 208.997907 
L 199.697978 213.5953 
L 200.724699 216.735593 
L 201.238059 217.736385 
L 201.75142 218.349225 
L 202.26478 218.570304 
L 202.778141 218.397838 
L 203.291501 217.832075 
L 203.804862 216.87531 
L 204.318222 215.531876 
L 205.344943 211.712432 
L 206.371664 206.448366 
L 207.398385 199.844887 
L 208.425106 192.035817 
L 209.965188 178.417727 
L 212.01863 157.713911 
L 217.152235 104.236681 
L 218.692316 90.862526 
L 219.719037 83.280401 
L 220.745758 76.962864 
L 221.772479 72.049908 
L 222.7992 68.651976 
L 223.31256 67.546919 
L 223.825921 66.847343 
L 224.339281 66.557688 
L 224.852642 66.680182 
L 225.366002 67.214818 
L 225.879363 68.159348 
L 226.392723 69.509285 
L 227.419444 73.396354 
L 228.446165 78.79633 
L 229.472886 85.595885 
L 230.499607 93.650517 
L 232.039689 107.700705 
L 234.093131 129.017844 
L 238.713375 178.475736 
L 240.253457 192.485349 
L 241.280178 200.481799 
L 242.306899 207.186606 
L 243.33362 212.444904 
L 244.360341 216.133638 
L 244.873701 217.360418 
L 245.387062 218.164577 
L 245.900422 218.540895 
L 246.413783 218.48657 
L 246.927143 218.001237 
L 247.440504 217.086981 
L 247.953864 215.748331 
L 248.467225 213.992251 
L 249.493946 209.267586 
L 250.520667 203.01575 
L 251.547388 195.374981 
L 253.087469 181.691216 
L 255.140911 160.408891 
L 260.274516 104.45594 
L 261.814597 90.498151 
L 262.841318 82.659606 
L 263.868039 76.21714 
L 264.89476 71.326375 
L 265.408121 69.501828 
L 265.921481 68.107187 
L 266.434842 67.151346 
L 266.948202 66.640624 
L 267.461563 66.578727 
L 267.974923 66.966707 
L 268.488284 67.802952 
L 269.001644 69.083187 
L 269.515005 70.800484 
L 270.541726 75.50552 
L 271.568447 81.811265 
L 272.595168 89.572213 
L 274.135249 103.537234 
L 276.188691 125.310402 
L 281.322296 182.244673 
L 282.862378 196.207728 
L 283.889099 203.938348 
L 284.91582 210.177007 
L 285.942541 214.766469 
L 286.455901 216.404374 
L 286.969262 217.589188 
L 287.482622 218.312939 
L 287.995983 218.570477 
L 288.509343 218.359515 
L 289.022704 217.680652 
L 289.536064 216.537381 
L 290.049425 214.936078 
L 291.076145 210.399089 
L 292.102866 204.176761 
L 293.129587 196.418565 
L 294.669669 182.323313 
L 296.20975 165.980511 
L 302.370076 97.196468 
L 303.910158 84.044472 
L 304.936879 77.079221 
L 305.9636 71.773466 
L 306.47696 69.788436 
L 306.990321 68.267384 
L 307.503681 67.22072 
L 308.017042 66.655845 
L 308.530402 66.577087 
L 309.043763 66.985667 
L 309.557123 67.879677 
L 310.070484 69.254085 
L 310.583844 71.100752 
L 311.610565 76.163067 
L 312.637286 82.941526 
L 313.664007 91.266105 
L 315.204089 106.180644 
L 317.257531 129.227972 
L 321.364415 177.058548 
L 322.904496 192.366563 
L 323.931217 200.999033 
L 324.957938 208.098185 
L 325.984659 213.471935 
L 326.498019 215.46388 
L 327.01138 216.972985 
L 327.52474 217.988525 
L 328.038101 218.503034 
L 328.551461 218.512366 
L 329.064822 218.015729 
L 329.578182 217.015704 
L 330.091543 215.518243 
L 330.604903 213.532632 
L 331.631624 208.150489 
L 332.658345 201.007877 
L 333.685066 192.291284 
L 335.225148 176.778 
L 337.27859 153.021693 
L 340.872113 110.253484 
L 342.412195 94.358772 
L 343.438916 85.336577 
L 344.465637 77.871221 
L 345.492358 72.171738 
L 346.005718 70.036669 
L 346.519079 68.399645 
L 347.032439 67.272651 
L 347.5458 66.664181 
L 348.05916 66.579167 
L 348.572521 67.018941 
L 349.085881 67.981203 
L 349.599242 69.460034 
L 350.112602 71.44592 
L 351.139323 76.883184 
L 352.166044 84.147686 
L 353.192765 93.042627 
L 354.732847 108.899057 
L 356.786289 133.165328 
L 360.379812 176.5495 
L 361.919893 192.44989 
L 362.946614 201.358133 
L 363.973335 208.607846 
L 365.000056 213.988496 
L 365.513417 215.926269 
L 366.026777 217.341776 
L 366.540138 218.224186 
L 367.053498 218.566452 
L 367.566859 218.365374 
L 368.080219 217.621635 
L 368.59358 216.339808 
L 369.10694 214.528337 
L 370.133661 209.369279 
L 371.160382 202.286906 
L 372.187103 193.479676 
L 373.727185 177.591838 
L 375.780627 153.040237 
L 379.37415 108.858727 
L 380.914232 92.663035 
L 381.940953 83.616249 
L 382.967674 76.29011 
L 383.994395 70.90462 
L 384.507755 68.993171 
L 385.021116 67.623638 
L 385.534476 66.806878 
L 386.047837 66.549685 
L 386.561197 66.85473 
L 387.074558 67.720521 
L 387.587918 69.141408 
L 388.101279 71.107608 
L 389.128 76.616542 
L 390.154721 84.08943 
L 391.181442 93.309198 
L 392.721523 109.810655 
L 394.774965 135.050479 
L 397.855128 173.688784 
L 399.395209 190.527379 
L 400.42193 200.020242 
L 401.448651 207.780344 
L 402.475372 213.567419 
L 402.988733 215.661932 
L 403.502093 217.200146 
L 404.015454 218.169575 
L 404.528814 218.562047 
L 405.042175 218.373787 
L 405.555535 217.605453 
L 406.068896 216.262148 
L 406.582256 214.353394 
L 407.608977 208.899339 
L 408.635698 201.404767 
L 409.662419 192.094623 
L 411.202501 175.355373 
L 413.255943 149.692439 
L 416.336106 110.500269 
L 417.876187 93.556138 
L 418.902908 84.090225 
L 419.929629 76.445633 
L 420.95635 70.866844 
L 421.469711 68.911257 
L 421.983071 67.534527 
L 422.496432 66.748267 
L 423.009792 66.55946 
L 423.523153 66.97039 
L 424.036513 67.978603 
L 424.549874 69.576919 
L 425.063234 71.753471 
L 426.089955 77.770889 
L 427.116676 85.846117 
L 428.143397 95.728278 
L 429.683478 113.248897 
L 432.250281 146.469486 
L 434.817083 178.986324 
L 436.357165 195.431965 
L 437.383886 204.347286 
L 438.410607 211.274823 
L 439.437328 215.985253 
L 439.950688 217.456602 
L 440.464049 218.320132 
L 440.977409 218.568029 
L 441.49077 218.19747 
L 442.00413 217.210668 
L 442.517491 215.614865 
L 443.030851 213.422288 
L 444.057572 207.320108 
L 445.084293 199.097452 
L 446.111014 189.01788 
L 447.651096 171.143467 
L 450.217898 137.343492 
L 452.27134 110.683134 
L 453.811422 93.231806 
L 454.838143 83.55507 
L 455.864864 75.832551 
L 456.891585 70.32657 
L 457.404945 68.467036 
L 457.918306 67.226583 
L 458.431666 66.616395 
L 458.945027 66.642398 
L 459.458387 67.30519 
L 459.971748 68.600026 
L 460.485108 70.516836 
L 460.998469 73.0403 
L 462.02519 79.820358 
L 463.051911 88.717949 
L 464.078631 99.438459 
L 465.618713 118.140932 
L 471.265678 190.862273 
L 472.292399 200.842606 
L 473.31912 208.835948 
L 474.345841 214.56313 
L 474.859202 216.510417 
L 475.372562 217.821668 
L 475.885923 218.484774 
L 476.399283 218.493192 
L 476.912644 217.846021 
L 477.426004 216.548023 
L 477.939365 214.6096 
L 478.452725 212.046722 
L 479.479446 205.138531 
L 480.506167 196.056719 
L 481.532888 185.11098 
L 483.07297 166.034561 
L 488.206575 98.23892 
L 489.233296 87.490871 
L 490.260017 78.672244 
L 491.286738 72.098784 
L 491.800098 69.731599 
L 492.313459 68.008246 
L 492.826819 66.944803 
L 493.34018 66.551525 
L 493.85354 66.832673 
L 494.366901 67.785982 
L 494.880261 69.402992 
L 495.393622 71.66935 
L 496.420343 78.064059 
L 497.447064 86.743573 
L 498.473784 97.400416 
L 500.013866 116.251433 
L 505.660831 190.549837 
L 506.687552 200.745217 
L 507.714273 208.879361 
L 508.740994 214.664113 
L 509.254355 216.607956 
L 509.767715 217.894545 
L 510.281076 218.512461 
L 510.794436 218.456218 
L 511.307797 217.726316 
L 511.821157 216.329233 
L 512.334518 214.277371 
L 512.847878 211.588941 
L 513.874599 204.403269 
L 514.90132 195.026772 
L 515.928041 183.791618 
L 517.468123 164.339128 
L 522.088367 102.336733 
L 523.628449 85.940028 
L 524.65517 77.44022 
L 525.681891 71.247318 
L 526.195251 69.08794 
L 526.708612 67.580707 
L 527.221972 66.738996 
L 527.735333 66.570279 
L 528.248693 67.076053 
L 528.762054 68.251829 
L 529.275414 70.087171 
L 529.788775 72.565788 
L 530.815496 79.359331 
L 531.842217 88.391793 
L 532.868937 99.343196 
L 534.409019 118.504404 
L 539.542624 186.75388 
L 540.569345 197.559337 
L 541.596066 206.41642 
L 542.622787 213.011361 
L 543.136147 215.384143 
L 543.649508 217.110533 
L 544.162868 218.175208 
L 544.676229 218.568718 
L 545.189589 218.287571 
L 545.70295 217.334261 
L 546.21631 215.717251 
L 546.729671 213.450893 
L 547.756392 207.056185 
L 548.783113 198.37667 
L 549.809834 187.719827 
L 551.349915 168.86881 
L 556.996881 94.570406 
L 558.023602 84.375026 
L 559.050323 76.240882 
L 560.077044 70.45613 
L 560.590404 68.512287 
L 561.103765 67.225698 
L 561.617125 66.607783 
L 562.130486 66.664026 
L 562.643846 67.393928 
L 563.157207 68.79101 
L 563.670567 70.842872 
L 564.183928 73.531302 
L 565.210649 80.716975 
L 566.23737 90.093471 
L 567.26409 101.328625 
L 568.804172 120.781115 
L 573.424416 182.783511 
L 574.964498 199.180216 
L 575.991219 207.680023 
L 577.01794 213.872926 
L 577.5313 216.032303 
L 578.044661 217.539537 
L 578.558021 218.381247 
L 579.071382 218.549964 
L 579.584742 218.04419 
L 580.098103 216.868414 
L 580.611463 215.033072 
L 581.124824 212.554455 
L 582.151545 205.760912 
L 583.178266 196.72845 
L 584.204987 185.777048 
L 585.745068 166.615839 
L 590.878673 98.366363 
L 591.905394 87.560906 
L 592.932115 78.703823 
L 593.958836 72.108882 
L 594.472197 69.736101 
L 594.985557 68.009711 
L 595.498918 66.945036 
L 596.012278 66.551525 
L 596.525639 66.832673 
L 597.038999 67.785982 
L 597.55236 69.402992 
L 598.06572 71.66935 
L 599.092441 78.064059 
L 600.119162 86.743573 
L 601.145883 97.400416 
L 602.685964 116.251433 
L 608.33293 190.549837 
L 609.359651 200.745217 
L 610.386372 208.879361 
L 611.413093 214.664113 
L 611.926453 216.607956 
L 612.439814 217.894545 
L 612.953174 218.512461 
L 613.466535 218.456218 
L 613.979895 217.726316 
L 614.493256 216.329233 
L 615.006616 214.277371 
L 615.519977 211.588941 
L 616.546698 204.403269 
L 617.573419 195.026772 
L 618.60014 183.791618 
L 620.140221 164.339128 
L 624.760466 102.336733 
L 626.300547 85.940028 
L 627.327268 77.44022 
L 628.353989 71.247318 
L 628.86735 69.08794 
L 629.38071 67.580707 
L 629.894071 66.738996 
L 630.407431 66.570279 
L 630.920792 67.076053 
L 631.434152 68.251829 
L 631.947513 70.087171 
L 632.460873 72.565788 
L 633.487594 79.359331 
L 634.514315 88.391793 
L 635.541036 99.343196 
L 637.081117 118.504404 
L 642.214722 186.75388 
L 643.241443 197.559337 
L 644.268164 206.41642 
L 645.294885 213.011361 
L 645.808246 215.384143 
L 646.321606 217.110533 
L 646.834967 218.175208 
L 647.348327 218.568718 
L 647.861688 218.287571 
L 648.375048 217.334261 
L 648.888409 215.717251 
L 649.401769 213.450893 
L 650.42849 207.056185 
L 651.455211 198.376671 
L 652.481932 187.719827 
L 654.022014 168.86881 
L 659.668979 94.570406 
L 660.6957 84.375026 
L 661.722421 76.240882 
L 662.749142 70.45613 
L 663.262503 68.512287 
L 663.775863 67.225698 
L 664.289224 66.607783 
L 664.802584 66.664026 
L 665.315945 67.393928 
L 665.829305 68.79101 
L 666.342666 70.842872 
L 666.856026 73.531302 
L 667.882747 80.716975 
L 668.909468 90.093471 
L 669.936189 101.328625 
L 671.47627 120.781115 
L 676.096515 182.783511 
L 677.636596 199.180216 
L 678.663317 207.680023 
L 679.690038 213.872926 
L 680.203399 216.032303 
L 680.716759 217.539537 
L 681.23012 218.381247 
L 681.74348 218.549964 
L 682.256841 218.04419 
L 682.770201 216.868414 
L 683.283562 215.033072 
L 683.796922 212.554455 
L 684.823643 205.760912 
L 685.850364 196.72845 
L 686.877085 185.777048 
L 688.417167 166.615839 
L 693.550772 98.366363 
L 694.577493 87.560906 
L 695.604214 78.703823 
L 696.630935 72.108882 
L 697.144295 69.736101 
L 697.657656 68.009711 
L 698.171016 66.945036 
L 698.684377 66.551525 
L 698.684377 66.551525 
" clip-path="url(#pa8789969e2)" style="fill: none; stroke: #ffa231; stroke-width: 4"/>
   </g>
   <g id="patch_3">
    <path d="M 64.170808 224.854518 
L 64.170808 2.834646 
" style="fill: none; stroke: #000000; stroke-width: 2; stroke-linejoin: miter; stroke-linecap: square"/>
   </g>
   <g id="line2d_9">
    <path d="M 82.651786 47.546446 
L 88.298751 52.637281 
L 94.459077 57.880342 
L 100.619403 62.817699 
L 106.779729 67.467178 
L 112.940055 71.845563 
L 119.10038 75.968661 
L 125.774067 80.164509 
L 132.447753 84.095982 
L 133.987835 84.967481 
L 134.501195 47.427985 
L 140.148161 52.525167 
L 146.308487 57.774765 
L 152.468813 62.718278 
L 158.629138 67.373553 
L 164.789464 71.757398 
L 170.94979 75.885636 
L 177.623477 80.086716 
L 182.243721 82.839068 
L 182.757082 45.295647 
L 188.404047 50.507081 
L 194.564373 55.874345 
L 200.724699 60.928664 
L 206.885025 65.688286 
L 213.045351 70.170391 
L 219.205677 74.391163 
L 225.879363 78.686407 
L 227.932805 79.952759 
L 228.446165 42.397685 
L 234.093131 47.764391 
L 239.740096 52.843549 
L 245.900422 58.074583 
L 252.060748 63.000615 
L 258.221074 67.639428 
L 264.3814 72.00777 
L 271.055086 76.453189 
L 271.568447 76.783311 
L 272.081807 39.235139 
L 277.728773 44.771295 
L 283.375738 50.010823 
L 289.022704 54.969617 
L 295.183029 60.076688 
L 301.343355 64.885985 
L 307.503681 69.41487 
L 313.150647 73.333994 
L 313.664007 35.702263 
L 319.310973 41.427711 
L 324.957938 46.846388 
L 330.604903 51.974733 
L 336.765229 57.256424 
L 342.925555 62.23016 
L 349.085881 66.913896 
L 353.706126 70.246609 
L 354.219486 32.744291 
L 359.866452 38.628227 
L 365.513417 44.196901 
L 371.160382 49.467205 
L 376.807348 54.455126 
L 382.967674 59.592195 
L 389.128 64.429741 
L 392.208163 66.74169 
L 392.721523 29.154886 
L 398.368488 35.231142 
L 404.015454 40.981832 
L 409.662419 46.4244 
L 415.309385 51.575355 
L 421.469711 56.880332 
L 427.630037 61.875996 
L 429.683478 63.475629 
L 430.196839 25.925703 
L 435.843804 32.174978 
L 441.49077 38.089417 
L 447.137735 43.686961 
L 452.784701 48.984588 
L 458.431666 53.998368 
L 464.591992 59.162068 
L 466.132073 60.40526 
L 466.645434 22.971719 
L 472.292399 29.379269 
L 477.939365 35.443503 
L 483.58633 41.182814 
L 489.233296 46.614613 
L 494.880261 51.755376 
L 501.040587 57.049857 
L 501.553947 19.581459 
L 507.200913 26.170659 
L 512.847878 32.40681 
L 518.494844 38.308828 
L 524.141809 43.894615 
L 529.788775 49.181116 
L 534.922379 53.740824 
L 535.43574 16.202678 
L 541.082705 22.972913 
L 546.729671 29.380399 
L 552.376636 35.444572 
L 558.023602 41.183827 
L 563.670567 46.615571 
L 568.804172 51.300582 
L 569.317532 13.910183 
L 574.964498 20.80325 
L 580.611463 27.326987 
L 586.258429 33.501182 
L 591.905394 39.344563 
L 597.55236 44.874856 
L 602.172604 49.178521 
L 602.685964 11.827613 
L 608.33293 18.832264 
L 613.979895 25.461607 
L 619.626861 31.735749 
L 625.273826 37.673722 
L 630.920792 43.293538 
L 635.541036 47.666865 
L 636.054397 10.314173 
L 641.701362 17.399915 
L 647.348327 24.106003 
L 652.995293 30.452778 
L 658.642258 36.459493 
L 664.289224 42.144368 
L 668.909468 46.568322 
L 669.422829 9.118227 
L 675.069794 16.268048 
L 680.716759 23.034781 
L 686.363725 29.438952 
L 692.01069 35.499987 
L 697.657656 41.236273 
L 698.684377 42.245637 
L 698.684377 42.245637 
" clip-path="url(#pa8789969e2)" style="fill: none; stroke: #4eba88; stroke-width: 4"/>
   </g>
   <g id="line2d_10">
    <path d="M 82.651786 66.549181 
L 494.366901 28.54371 
L 698.684377 28.54371 
L 698.684377 28.54371 
" clip-path="url(#pa8789969e2)" style="fill: none; stroke: #710068; stroke-width: 4"/>
   </g>
  </g>
 </g>
 <defs>
  <clipPath id="pa8789969e2">
   <rect x="64.170808" y="2.834646" width="652.994547" height="222.019872"/>
  </clipPath>
 </defs>
</svg>
