<?xml version="1.0" encoding="utf-8" standalone="no"?>
<!DOCTYPE svg PUBLIC "-//W3C//DTD SVG 1.1//EN"
  "http://www.w3.org/Graphics/SVG/1.1/DTD/svg11.dtd">
<svg xmlns:xlink="http://www.w3.org/1999/xlink" width="806.4pt" height="152.64pt" viewBox="0 0 806.4 152.64" xmlns="http://www.w3.org/2000/svg" version="1.1">
 <metadata>
  <rdf:RDF xmlns:dc="http://purl.org/dc/elements/1.1/" xmlns:cc="http://creativecommons.org/ns#" xmlns:rdf="http://www.w3.org/1999/02/22-rdf-syntax-ns#">
   <cc:Work>
    <dc:type rdf:resource="http://purl.org/dc/dcmitype/StillImage"/>
    <dc:date>2024-05-07T19:24:43.275527</dc:date>
    <dc:format>image/svg+xml</dc:format>
    <dc:creator>
     <cc:Agent>
      <dc:title>Matplotlib v3.7.0, https://matplotlib.org/</dc:title>
     </cc:Agent>
    </dc:creator>
   </cc:Work>
  </rdf:RDF>
 </metadata>
 <defs>
  <style type="text/css">*{stroke-linejoin: round; stroke-linecap: butt}</style>
 </defs>
 <g id="figure_1">
  <g id="patch_1">
   <path d="M 0 152.64 
L 806.4 152.64 
L 806.4 0 
L 0 0 
L 0 152.64 
z
" style="fill: none"/>
  </g>
  <g id="axes_1">
   <g id="patch_2">
    <path d="M 41.316477 118.945354 
L 803.565354 118.945354 
L 803.565354 2.834646 
L 41.316477 2.834646 
L 41.316477 118.945354 
z
" style="fill: none"/>
   </g>
   <g id="line2d_1">
    <path d="M 62.889558 68.611946 
L 65.046866 65.486503 
L 67.024399 63.011461 
L 68.822156 61.112231 
L 70.530025 59.634079 
L 72.058118 58.589718 
L 73.586211 57.812912 
L 75.024416 57.327913 
L 76.462622 57.081039 
L 77.721052 57.076211 
L 78.61993 57.300131 
L 79.608696 57.792662 
L 80.597463 58.534234 
L 81.676117 59.614151 
L 82.934546 61.209311 
L 84.282864 63.285781 
L 85.810957 66.046514 
L 87.608714 69.761369 
L 89.85591 74.946351 
L 93.18176 83.25475 
L 98.215479 95.781356 
L 100.642451 101.214568 
L 102.709871 105.311343 
L 104.507628 108.39152 
L 106.125609 110.734063 
L 107.563814 112.450164 
L 108.912132 113.732535 
L 110.170562 114.637493 
L 111.339104 115.222723 
L 112.507645 115.562192 
L 113.676187 115.6579 
L 114.844729 115.513809 
L 116.013271 115.135724 
L 117.271701 114.475522 
L 118.530131 113.564094 
L 119.968336 112.232004 
L 121.496429 110.501532 
L 123.204298 108.219723 
L 125.181831 105.177529 
L 127.429027 101.291949 
L 130.21555 96.009906 
L 134.979605 86.404243 
L 139.563885 77.344557 
L 142.440296 72.145564 
L 144.867268 68.210994 
L 147.024576 65.13701 
L 148.91222 62.815399 
L 150.709977 60.94913 
L 152.327958 59.571522 
L 153.856052 58.541378 
L 155.384145 57.778956 
L 156.82235 57.30752 
L 158.260556 57.074119 
L 159.518985 57.087598 
L 160.417864 57.331161 
L 161.40663 57.844648 
L 162.395396 58.606331 
L 163.563938 59.810976 
L 164.822368 61.453269 
L 166.260573 63.729109 
L 167.878555 66.736001 
L 169.766199 70.738118 
L 172.193171 76.456894 
L 176.417899 87.125994 
L 180.103301 96.183896 
L 182.530272 101.575026 
L 184.507805 105.461595 
L 186.305562 108.519898 
L 187.923543 110.840984 
L 189.361748 112.536979 
L 190.710066 113.799906 
L 191.968495 114.68642 
L 193.137037 115.254442 
L 194.305579 115.576777 
L 195.474121 115.655564 
L 196.642663 115.494901 
L 197.811205 115.100715 
L 199.069635 114.423831 
L 200.417952 113.421057 
L 201.856158 112.053352 
L 203.384251 110.288185 
L 205.09212 107.971816 
L 207.069652 104.895598 
L 209.406736 100.815221 
L 212.283147 95.317767 
L 218.035969 83.695055 
L 221.901146 76.180515 
L 224.597781 71.396168 
L 226.934865 67.681528 
L 229.002285 64.79415 
L 230.88993 62.522552 
L 232.687687 60.706804 
L 234.305668 59.37641 
L 235.833761 58.391842 
L 237.361854 57.675479 
L 238.80006 57.247429 
L 240.238265 57.057083 
L 241.316919 57.100791 
L 242.215798 57.36395 
L 243.204564 57.89833 
L 244.283218 58.762996 
L 245.45176 60.014472 
L 246.71019 61.70332 
L 248.148395 64.026823 
L 249.766376 67.079568 
L 251.743909 71.327453 
L 254.260768 77.322624 
L 263.698991 100.413099 
L 265.766412 104.60822 
L 267.564168 107.787611 
L 269.182149 110.227898 
L 270.710243 112.137169 
L 272.05856 113.487372 
L 273.31699 114.45678 
L 274.57542 115.141689 
L 275.743962 115.52232 
L 276.912504 115.658714 
L 278.081046 115.554512 
L 279.249587 115.215219 
L 280.418129 114.64807 
L 281.676559 113.792634 
L 283.024877 112.608937 
L 284.55297 110.955786 
L 286.260839 108.751296 
L 288.148484 105.929078 
L 290.305792 102.289308 
L 293.002427 97.268707 
L 296.957492 89.363468 
L 302.800201 77.716274 
L 305.676612 72.483134 
L 308.103584 68.51116 
L 310.260892 65.398512 
L 312.238424 62.93641 
L 314.036181 61.049717 
L 315.74405 59.583973 
L 317.272143 58.550984 
L 318.800237 57.785685 
L 320.238442 57.311537 
L 321.676648 57.075442 
L 322.935077 57.085176 
L 323.833956 57.324814 
L 324.822722 57.834115 
L 325.811488 58.591781 
L 326.890142 59.688341 
L 328.148572 61.301524 
L 329.49689 63.395429 
L 331.114871 66.348814 
L 333.002515 70.301179 
L 335.339599 75.757931 
L 339.025001 85.025723 
L 343.339617 95.723651 
L 345.766589 101.162792 
L 347.834009 105.266085 
L 349.631766 108.352803 
L 351.249747 110.701769 
L 352.687952 112.423892 
L 354.03627 113.712091 
L 355.2947 114.62258 
L 356.463241 115.212973 
L 357.631783 115.557584 
L 358.800325 115.658372 
L 359.968867 115.519258 
L 361.137409 115.146011 
L 362.395839 114.490823 
L 363.654269 113.584167 
L 365.092474 112.257191 
L 366.620567 110.531707 
L 368.328436 108.254874 
L 370.216081 105.363994 
L 372.463277 101.499065 
L 375.2498 96.234243 
L 379.744192 87.184857 
L 384.598135 77.561161 
L 387.474546 72.342149 
L 389.901518 68.38569 
L 392.058826 65.289102 
L 393.94647 62.945767 
L 395.744227 61.057506 
L 397.452096 59.59021 
L 398.980189 58.555799 
L 400.508283 57.789062 
L 401.946488 57.313557 
L 403.384694 57.076115 
L 404.643123 57.083992 
L 405.542002 57.321667 
L 406.530768 57.828874 
L 407.519534 58.584531 
L 408.598188 59.679014 
L 409.856618 61.289948 
L 411.204936 63.38168 
L 412.822917 66.332809 
L 414.710561 70.28307 
L 417.047645 75.738041 
L 420.733047 85.004891 
L 425.047663 95.704405 
L 427.474635 101.145518 
L 429.542055 105.25098 
L 431.339812 108.339877 
L 432.957793 110.690982 
L 434.395998 112.415112 
L 435.744316 113.705253 
L 437.002746 114.617585 
L 438.171287 115.209698 
L 439.339829 115.556024 
L 440.508371 115.658505 
L 441.676913 115.521052 
L 442.845455 115.149417 
L 444.103885 114.495902 
L 445.362315 113.590838 
L 446.80052 112.265569 
L 448.328613 110.541748 
L 450.036482 108.266576 
L 451.924127 105.377267 
L 454.171323 101.513825 
L 456.957846 96.250247 
L 461.452238 87.201477 
L 466.306181 77.576657 
L 469.182592 72.356226 
L 471.609564 68.398211 
L 473.766872 65.300014 
L 475.654516 62.955131 
L 477.452273 61.065302 
L 479.160142 59.596455 
L 480.688235 58.560622 
L 482.216329 57.792446 
L 483.654534 57.315585 
L 485.09274 57.076796 
L 486.351169 57.082827 
L 487.250048 57.318537 
L 488.238814 57.82365 
L 489.22758 58.577297 
L 490.306234 59.669702 
L 491.564664 61.278387 
L 492.912982 63.367943 
L 494.530963 66.316815 
L 496.418607 70.264969 
L 498.755691 75.718156 
L 502.441093 84.984059 
L 506.755709 95.685154 
L 509.18268 101.128236 
L 511.250101 105.235866 
L 513.047858 108.32694 
L 514.665839 110.680184 
L 516.104044 112.40632 
L 517.452362 113.698403 
L 518.710791 114.612578 
L 519.879333 115.206412 
L 521.047875 115.554452 
L 522.216417 115.658628 
L 523.384959 115.522834 
L 524.553501 115.152813 
L 525.811931 114.50097 
L 527.070361 113.597499 
L 528.508566 112.273937 
L 530.036659 110.551781 
L 531.744528 108.27827 
L 533.632173 105.390533 
L 535.879369 101.52858 
L 538.665892 96.266248 
L 543.160284 87.218098 
L 548.014227 77.592157 
L 550.890638 72.370308 
L 553.31761 68.410738 
L 555.474918 65.310932 
L 557.362562 62.964502 
L 559.160319 61.073105 
L 560.868188 59.602707 
L 562.396281 58.565452 
L 563.924375 57.795838 
L 565.36258 57.31762 
L 566.800786 57.077484 
L 568.059215 57.081679 
L 568.958094 57.315426 
L 569.94686 57.818442 
L 570.935626 58.570079 
L 572.01428 59.660405 
L 573.27271 61.266839 
L 574.621028 63.354218 
L 576.239009 66.300832 
L 578.126653 70.246876 
L 580.463737 75.698275 
L 584.149139 84.963226 
L 588.463755 95.665897 
L 590.890726 101.110947 
L 592.958147 105.220743 
L 594.755904 108.313992 
L 596.373885 110.669375 
L 597.81209 112.397516 
L 599.160408 113.691541 
L 600.418837 114.607559 
L 601.587379 115.203114 
L 602.755921 115.552869 
L 603.924463 115.658738 
L 605.093005 115.524604 
L 606.261547 115.156198 
L 607.519977 114.506028 
L 608.778406 113.60415 
L 610.216612 112.282295 
L 611.744705 110.561806 
L 613.452574 108.289957 
L 615.340219 105.403794 
L 617.587415 101.54333 
L 620.373938 96.282247 
L 624.86833 87.234719 
L 629.722273 77.60766 
L 632.598684 72.384395 
L 635.025656 68.423271 
L 637.182964 65.321857 
L 639.070608 62.97388 
L 640.868365 61.080916 
L 642.576234 59.608966 
L 644.104327 58.57029 
L 645.632421 57.799237 
L 647.070626 57.319663 
L 648.508831 57.07818 
L 649.767261 57.080549 
L 650.66614 57.312331 
L 651.654906 57.813252 
L 652.643672 58.562878 
L 653.722326 59.651124 
L 654.980756 61.255306 
L 656.329073 63.340506 
L 657.947055 66.284858 
L 659.834699 70.228791 
L 662.171783 75.678399 
L 665.857184 84.942393 
L 670.171801 95.646635 
L 672.598772 101.093649 
L 674.666193 105.20561 
L 676.46395 108.301035 
L 678.081931 110.658554 
L 679.520136 112.388701 
L 680.868454 113.684667 
L 682.126883 114.602528 
L 683.295425 115.199804 
L 684.463967 115.551273 
L 685.632509 115.658836 
L 686.801051 115.526364 
L 687.969593 115.159571 
L 689.228023 114.511075 
L 690.486452 113.610791 
L 691.924658 112.290644 
L 693.452751 110.571822 
L 695.16062 108.301637 
L 697.048265 105.417048 
L 699.295461 101.558075 
L 702.081984 96.298243 
L 706.576376 87.25134 
L 711.430319 77.623167 
L 714.30673 72.398486 
L 716.733702 68.435809 
L 718.89101 65.332789 
L 720.778654 62.983265 
L 722.576411 61.088733 
L 724.28428 59.615233 
L 725.812373 58.575135 
L 727.340467 57.802644 
L 728.778672 57.321714 
L 730.216877 57.078883 
L 731.475307 57.079437 
L 732.374186 57.309255 
L 733.362952 57.808079 
L 734.351718 58.555692 
L 735.430372 59.641858 
L 736.688802 61.243787 
L 738.037119 63.326808 
L 739.655101 66.268899 
L 741.542745 70.210718 
L 743.879829 75.658534 
L 747.56523 84.921563 
L 751.879847 95.627364 
L 754.306818 101.07634 
L 756.374239 105.190463 
L 758.171995 108.288062 
L 759.789977 110.64772 
L 761.228182 112.379872 
L 762.5765 113.67778 
L 763.834929 114.597484 
L 765.003471 115.196481 
L 766.172013 115.549666 
L 767.340555 115.658923 
L 768.509097 115.528111 
L 769.677639 115.162932 
L 770.846181 114.570809 
L 772.104611 113.689692 
L 773.452928 112.480086 
L 774.981021 110.799835 
L 776.68889 108.568202 
L 778.576535 105.720168 
L 780.823731 101.895922 
L 781.992273 99.909456 
L 781.992273 99.909456 
" clip-path="url(#p36937c81c2)" style="fill: none; stroke: #009afa; stroke-width: 6"/>
   </g>
   <g id="matplotlib.axis_1">
    <g id="xtick_1">
     <g id="line2d_2">
      <defs>
       <path id="m803469f56b" d="M 0 0 
L 0 -5 
" style="stroke: #000000"/>
      </defs>
      <g>
       <use xlink:href="#m803469f56b" x="62.889558" y="118.945354" style="stroke: #000000"/>
      </g>
     </g>
     <g id="text_1">
      <!-- $0$ -->
      <g transform="translate(55.889558 143.720979) scale(0.28 -0.28)">
       <defs>
        <path id="Cmr10-30" d="M 1600 -141 
Q 816 -141 533 504 
Q 250 1150 250 2041 
Q 250 2597 351 3087 
Q 453 3578 754 3920 
Q 1056 4263 1600 4263 
Q 2022 4263 2290 4056 
Q 2559 3850 2700 3523 
Q 2841 3197 2892 2823 
Q 2944 2450 2944 2041 
Q 2944 1491 2842 1011 
Q 2741 531 2444 195 
Q 2147 -141 1600 -141 
z
M 1600 25 
Q 1956 25 2131 390 
Q 2306 756 2347 1200 
Q 2388 1644 2388 2144 
Q 2388 2625 2347 3031 
Q 2306 3438 2132 3767 
Q 1959 4097 1600 4097 
Q 1238 4097 1063 3765 
Q 888 3434 847 3029 
Q 806 2625 806 2144 
Q 806 1788 823 1472 
Q 841 1156 916 820 
Q 991 484 1158 254 
Q 1325 25 1600 25 
z
" transform="scale(0.015625)"/>
       </defs>
       <use xlink:href="#Cmr10-30" transform="translate(0 0.390625)"/>
      </g>
     </g>
    </g>
    <g id="xtick_2">
     <g id="line2d_3">
      <g>
       <use xlink:href="#m803469f56b" x="242.665237" y="118.945354" style="stroke: #000000"/>
      </g>
     </g>
     <g id="text_2">
      <!-- $1$ -->
      <g transform="translate(235.665237 143.720979) scale(0.28 -0.28)">
       <defs>
        <path id="Cmr10-31" d="M 594 0 
L 594 225 
Q 1394 225 1394 428 
L 1394 3788 
Q 1063 3628 556 3628 
L 556 3853 
Q 1341 3853 1741 4263 
L 1831 4263 
Q 1853 4263 1873 4245 
Q 1894 4228 1894 4206 
L 1894 428 
Q 1894 225 2694 225 
L 2694 0 
L 594 0 
z
" transform="scale(0.015625)"/>
       </defs>
       <use xlink:href="#Cmr10-31" transform="translate(0 0.390625)"/>
      </g>
     </g>
    </g>
    <g id="xtick_3">
     <g id="line2d_4">
      <g>
       <use xlink:href="#m803469f56b" x="422.440916" y="118.945354" style="stroke: #000000"/>
      </g>
     </g>
     <g id="text_3">
      <!-- $2$ -->
      <g transform="translate(415.440916 143.720979) scale(0.28 -0.28)">
       <defs>
        <path id="Cmr10-32" d="M 319 0 
L 319 172 
Q 319 188 331 206 
L 1325 1306 
Q 1550 1550 1690 1715 
Q 1831 1881 1968 2097 
Q 2106 2313 2186 2536 
Q 2266 2759 2266 3009 
Q 2266 3272 2169 3511 
Q 2072 3750 1880 3894 
Q 1688 4038 1416 4038 
Q 1138 4038 916 3870 
Q 694 3703 603 3438 
Q 628 3444 672 3444 
Q 816 3444 917 3347 
Q 1019 3250 1019 3097 
Q 1019 2950 917 2848 
Q 816 2747 672 2747 
Q 522 2747 420 2851 
Q 319 2956 319 3097 
Q 319 3338 409 3548 
Q 500 3759 670 3923 
Q 841 4088 1055 4175 
Q 1269 4263 1509 4263 
Q 1875 4263 2190 4108 
Q 2506 3953 2690 3670 
Q 2875 3388 2875 3009 
Q 2875 2731 2753 2481 
Q 2631 2231 2440 2026 
Q 2250 1822 1953 1562 
Q 1656 1303 1563 1216 
L 838 519 
L 1453 519 
Q 1906 519 2211 526 
Q 2516 534 2534 550 
Q 2609 631 2688 1141 
L 2875 1141 
L 2694 0 
L 319 0 
z
" transform="scale(0.015625)"/>
       </defs>
       <use xlink:href="#Cmr10-32" transform="translate(0 0.390625)"/>
      </g>
     </g>
    </g>
    <g id="xtick_4">
     <g id="line2d_5">
      <g>
       <use xlink:href="#m803469f56b" x="602.216594" y="118.945354" style="stroke: #000000"/>
      </g>
     </g>
     <g id="text_4">
      <!-- $3$ -->
      <g transform="translate(595.216594 143.720979) scale(0.28 -0.28)">
       <defs>
        <path id="Cmr10-33" d="M 609 494 
Q 759 275 1012 169 
Q 1266 63 1556 63 
Q 1928 63 2084 380 
Q 2241 697 2241 1100 
Q 2241 1281 2208 1462 
Q 2175 1644 2097 1800 
Q 2019 1956 1883 2050 
Q 1747 2144 1550 2144 
L 1125 2144 
Q 1069 2144 1069 2203 
L 1069 2259 
Q 1069 2309 1125 2309 
L 1478 2338 
Q 1703 2338 1851 2506 
Q 2000 2675 2069 2917 
Q 2138 3159 2138 3378 
Q 2138 3684 1994 3881 
Q 1850 4078 1556 4078 
Q 1313 4078 1091 3986 
Q 869 3894 738 3706 
Q 750 3709 759 3711 
Q 769 3713 781 3713 
Q 925 3713 1022 3613 
Q 1119 3513 1119 3372 
Q 1119 3234 1022 3134 
Q 925 3034 781 3034 
Q 641 3034 541 3134 
Q 441 3234 441 3372 
Q 441 3647 606 3850 
Q 772 4053 1033 4158 
Q 1294 4263 1556 4263 
Q 1750 4263 1965 4205 
Q 2181 4147 2356 4039 
Q 2531 3931 2642 3762 
Q 2753 3594 2753 3378 
Q 2753 3109 2633 2881 
Q 2513 2653 2303 2487 
Q 2094 2322 1844 2241 
Q 2122 2188 2372 2031 
Q 2622 1875 2773 1631 
Q 2925 1388 2925 1106 
Q 2925 753 2731 467 
Q 2538 181 2222 20 
Q 1906 -141 1556 -141 
Q 1256 -141 954 -26 
Q 653 88 461 316 
Q 269 544 269 863 
Q 269 1022 375 1128 
Q 481 1234 641 1234 
Q 744 1234 830 1186 
Q 916 1138 964 1050 
Q 1013 963 1013 863 
Q 1013 706 903 600 
Q 794 494 641 494 
L 609 494 
z
" transform="scale(0.015625)"/>
       </defs>
       <use xlink:href="#Cmr10-33" transform="translate(0 0.390625)"/>
      </g>
     </g>
    </g>
    <g id="xtick_5">
     <g id="line2d_6">
      <g>
       <use xlink:href="#m803469f56b" x="781.992273" y="118.945354" style="stroke: #000000"/>
      </g>
     </g>
     <g id="text_5">
      <!-- $4$ -->
      <g transform="translate(774.992273 143.720979) scale(0.28 -0.28)">
       <defs>
        <path id="Cmr10-34" d="M 178 1056 
L 178 1281 
L 2156 4231 
Q 2178 4263 2222 4263 
L 2316 4263 
Q 2388 4263 2388 4191 
L 2388 1281 
L 3016 1281 
L 3016 1056 
L 2388 1056 
L 2388 428 
Q 2388 297 2575 261 
Q 2763 225 3009 225 
L 3009 0 
L 1247 0 
L 1247 225 
Q 1494 225 1681 261 
Q 1869 297 1869 428 
L 1869 1056 
L 178 1056 
z
M 391 1281 
L 1906 1281 
L 1906 3547 
L 391 1281 
z
" transform="scale(0.015625)"/>
       </defs>
       <use xlink:href="#Cmr10-34" transform="translate(0 0.390625)"/>
      </g>
     </g>
    </g>
   </g>
   <g id="matplotlib.axis_2">
    <g id="ytick_1">
     <g id="line2d_7">
      <defs>
       <path id="m2e35a5402b" d="M 0 0 
L 5 0 
" style="stroke: #000000"/>
      </defs>
      <g>
       <use xlink:href="#m2e35a5402b" x="41.316477" y="115.659202" style="stroke: #000000"/>
      </g>
     </g>
     <g id="text_6">
      <!-- $-1$ -->
      <g transform="translate(1.976477 126.297015) scale(0.28 -0.28)">
       <defs>
        <path id="Cmsy10-a1" d="M 653 1472 
Q 600 1472 565 1512 
Q 531 1553 531 1600 
Q 531 1647 565 1687 
Q 600 1728 653 1728 
L 4325 1728 
Q 4375 1728 4408 1687 
Q 4441 1647 4441 1600 
Q 4441 1553 4408 1512 
Q 4375 1472 4325 1472 
L 653 1472 
z
" transform="scale(0.015625)"/>
       </defs>
       <use xlink:href="#Cmsy10-a1" transform="translate(0 0.390625)"/>
       <use xlink:href="#Cmr10-31" transform="translate(77.685547 0.390625)"/>
      </g>
     </g>
    </g>
    <g id="ytick_2">
     <g id="line2d_8">
      <g>
       <use xlink:href="#m2e35a5402b" x="41.316477" y="86.352566" style="stroke: #000000"/>
      </g>
     </g>
     <g id="text_7">
      <!-- $0$ -->
      <g transform="translate(23.816477 96.990379) scale(0.28 -0.28)">
       <use xlink:href="#Cmr10-30" transform="translate(0 0.390625)"/>
      </g>
     </g>
    </g>
    <g id="ytick_3">
     <g id="line2d_9">
      <g>
       <use xlink:href="#m2e35a5402b" x="41.316477" y="57.045931" style="stroke: #000000"/>
      </g>
     </g>
     <g id="text_8">
      <!-- $1$ -->
      <g transform="translate(23.816477 67.683743) scale(0.28 -0.28)">
       <use xlink:href="#Cmr10-31" transform="translate(0 0.390625)"/>
      </g>
     </g>
    </g>
    <g id="ytick_4">
     <g id="line2d_10">
      <g>
       <use xlink:href="#m2e35a5402b" x="41.316477" y="27.739295" style="stroke: #000000"/>
      </g>
     </g>
     <g id="text_9">
      <!-- $2$ -->
      <g transform="translate(23.816477 38.377108) scale(0.28 -0.28)">
       <use xlink:href="#Cmr10-32" transform="translate(0 0.390625)"/>
      </g>
     </g>
    </g>
   </g>
   <g id="line2d_11">
    <path d="M 62.889558 57.046509 
L 64.0581 57.181245 
L 65.226642 57.551321 
L 66.395184 58.153751 
L 67.653614 59.056759 
L 69.001931 60.30737 
L 70.440137 61.949243 
L 72.058118 64.151553 
L 73.855875 66.999381 
L 75.923295 70.7271 
L 78.350267 75.598324 
L 81.586229 82.642937 
L 88.777256 98.462994 
L 91.294115 103.369351 
L 93.361536 106.931767 
L 95.159292 109.610555 
L 96.777274 111.643389 
L 98.215479 113.123013 
L 99.563797 114.213431 
L 100.822226 114.961415 
L 101.990768 115.416428 
L 103.15931 115.636968 
L 104.327852 115.621256 
L 105.496394 115.369418 
L 106.664936 114.883486 
L 107.923366 114.102916 
L 109.271683 112.97874 
L 110.709889 111.464822 
L 112.237982 109.520633 
L 113.945851 106.971061 
L 115.833496 103.742031 
L 118.080692 99.427292 
L 120.867215 93.551618 
L 126.260485 81.495398 
L 129.766111 73.974465 
L 132.193082 69.260907 
L 134.260503 65.707916 
L 136.058259 63.038675 
L 137.67624 61.01535 
L 139.114446 59.544786 
L 140.462764 58.463279 
L 141.721193 57.723888 
L 142.889735 57.277022 
L 144.058277 57.064724 
L 145.226819 57.088705 
L 146.395361 57.348774 
L 147.563903 57.84283 
L 148.822333 58.631958 
L 150.17065 59.764992 
L 151.608856 61.287898 
L 153.136949 63.240999 
L 154.844818 65.799603 
L 156.732462 69.037298 
L 158.979658 73.360304 
L 161.766181 79.242799 
L 167.429115 91.898336 
L 170.754965 98.997092 
L 173.181937 103.682688 
L 175.249357 107.205283 
L 177.047114 109.843798 
L 178.665095 111.836559 
L 180.103301 113.278034 
L 181.451618 114.330959 
L 182.710048 115.042802 
L 183.87859 115.463567 
L 185.047132 115.649478 
L 186.215674 115.599037 
L 187.384216 115.312649 
L 188.552758 114.792625 
L 189.811187 113.976168 
L 191.159505 112.814865 
L 192.59771 111.263296 
L 194.125804 109.281809 
L 195.833673 106.694471 
L 197.811205 103.264244 
L 200.058401 98.897331 
L 202.934812 92.781547 
L 212.732586 71.481851 
L 214.979782 67.361469 
L 216.867427 64.332842 
L 218.575296 61.990106 
L 220.103389 60.248528 
L 221.541595 58.937849 
L 222.889912 58.013006 
L 224.148342 57.424233 
L 225.316884 57.119767 
L 226.485426 57.051137 
L 227.653968 57.218897 
L 228.82251 57.621692 
L 229.991051 58.256275 
L 231.249481 59.192976 
L 232.597799 60.478264 
L 234.036004 62.155094 
L 235.653985 64.393707 
L 237.451742 67.277457 
L 239.519162 71.039891 
L 241.946134 75.941751 
L 245.271984 83.209844 
L 252.013572 98.059196 
L 254.530432 103.007627 
L 256.597852 106.614793 
L 258.395609 109.339035 
L 260.01359 111.417235 
L 261.541683 113.024711 
L 262.890001 114.138244 
L 264.14843 114.908535 
L 265.316972 115.38471 
L 266.485514 115.626668 
L 267.654056 115.632457 
L 268.822598 115.40203 
L 269.99114 114.937246 
L 271.24957 114.17896 
L 272.508 113.160347 
L 273.856317 111.790967 
L 275.38441 109.90969 
L 277.092279 107.424045 
L 278.979924 104.256554 
L 281.137232 100.179797 
L 283.743979 94.758458 
L 287.87882 85.560865 
L 292.4631 75.495625 
L 295.069847 70.293348 
L 297.227155 66.465962 
L 299.1148 63.56159 
L 300.732781 61.451542 
L 302.260874 59.811656 
L 303.609192 58.668008 
L 304.867622 57.868622 
L 306.126051 57.335715 
L 307.294593 57.083877 
L 308.463135 57.068165 
L 309.631677 57.288705 
L 310.800219 57.743718 
L 312.058649 58.491702 
L 313.317079 59.500335 
L 314.665396 60.859486 
L 316.193489 62.729887 
L 317.811471 65.064731 
L 319.699115 68.201776 
L 321.856423 72.250126 
L 324.463171 77.647277 
L 328.418236 86.426222 
L 333.362067 97.294973 
L 335.968814 102.488721 
L 338.126122 106.306701 
L 340.013767 109.201312 
L 341.631748 111.302017 
L 343.159841 112.93239 
L 344.508159 114.067194 
L 345.766589 114.858032 
L 347.025018 115.38219 
L 348.19356 115.625795 
L 349.362102 115.633238 
L 350.530644 115.404458 
L 351.699186 114.941302 
L 352.957616 114.184732 
L 354.216045 113.167782 
L 355.564363 111.800106 
L 357.092456 109.920639 
L 358.800325 107.436838 
L 360.68797 104.271129 
L 362.845278 100.19603 
L 365.452025 94.776096 
L 369.586866 85.579272 
L 374.261034 75.324803 
L 376.867781 70.139635 
L 379.025089 66.331099 
L 380.912734 63.446278 
L 382.530715 61.354936 
L 384.058808 59.734092 
L 385.407126 58.608143 
L 386.665555 57.825861 
L 387.834097 57.338304 
L 389.002639 57.08482 
L 390.171181 57.067454 
L 391.339723 57.286346 
L 392.508265 57.73973 
L 393.766695 58.485995 
L 395.025125 59.492964 
L 396.373442 60.850408 
L 397.901535 62.718993 
L 399.519516 65.05208 
L 401.407161 68.187323 
L 403.564469 72.233987 
L 406.171217 77.629696 
L 410.126282 86.407808 
L 415.070113 97.277888 
L 417.67686 102.473346 
L 419.834168 106.293211 
L 421.721813 109.189776 
L 423.339794 111.292352 
L 424.867887 112.924628 
L 426.216205 114.061202 
L 427.474635 114.853751 
L 428.733064 115.379659 
L 429.901606 115.62491 
L 431.070148 115.634007 
L 432.23869 115.406875 
L 433.407232 114.945347 
L 434.665662 114.190494 
L 435.924091 113.175206 
L 437.272409 111.809234 
L 438.800502 109.931579 
L 440.508371 107.449624 
L 442.396016 104.285696 
L 444.553324 100.212257 
L 447.160071 94.793731 
L 451.294912 85.59768 
L 455.96908 75.341866 
L 458.575827 70.154977 
L 460.733135 66.34455 
L 462.62078 63.457769 
L 464.238761 61.364552 
L 465.766854 59.741801 
L 467.115172 58.61408 
L 468.373601 57.830086 
L 469.542143 57.340904 
L 470.710685 57.085774 
L 471.879227 57.066754 
L 473.047769 57.283998 
L 474.216311 57.735752 
L 475.474741 58.4803 
L 476.73317 59.485603 
L 478.081488 60.84134 
L 479.609581 62.708109 
L 481.227562 65.039437 
L 483.115207 68.172876 
L 485.272515 72.217854 
L 487.879263 77.612118 
L 491.834327 86.389394 
L 496.778159 97.2608 
L 499.384906 102.457965 
L 501.542214 106.279712 
L 503.429859 109.178231 
L 505.04784 111.282676 
L 506.575933 112.916856 
L 507.924251 114.0552 
L 509.18268 114.849458 
L 510.44111 115.377116 
L 511.609652 115.624014 
L 512.778194 115.634764 
L 513.946736 115.40928 
L 515.115278 114.949381 
L 516.373708 114.196245 
L 517.632137 113.18262 
L 518.980455 111.818352 
L 520.508548 109.94251 
L 522.216417 107.462401 
L 524.104062 104.300257 
L 526.26137 100.228479 
L 528.868117 94.811363 
L 532.91307 85.818593 
L 537.677126 75.358933 
L 540.283873 70.170326 
L 542.441181 66.358009 
L 544.328826 63.469268 
L 545.946807 61.374178 
L 547.4749 59.749521 
L 548.823218 58.620028 
L 550.081647 57.834323 
L 551.250189 57.343516 
L 552.418731 57.08674 
L 553.587273 57.066066 
L 554.755815 57.281661 
L 555.924357 57.731786 
L 557.182787 58.474615 
L 558.441216 59.478253 
L 559.789534 60.832282 
L 561.317627 62.697234 
L 562.935608 65.026802 
L 564.823253 68.158437 
L 566.980561 72.201726 
L 569.587309 77.594544 
L 573.542373 86.37098 
L 578.486205 97.243707 
L 581.092952 102.442578 
L 583.25026 106.266206 
L 585.137905 109.166678 
L 586.755886 111.272991 
L 588.283979 112.909074 
L 589.632297 114.049186 
L 590.890726 114.845153 
L 592.149156 115.374561 
L 593.317698 115.623106 
L 594.48624 115.63551 
L 595.654782 115.411674 
L 596.823324 114.953404 
L 598.081754 114.201985 
L 599.340183 113.190023 
L 600.688501 111.82746 
L 602.216594 109.953431 
L 603.924463 107.475169 
L 605.812108 104.31481 
L 607.969416 100.244695 
L 610.576163 94.828992 
L 614.621116 85.837004 
L 619.385172 75.376005 
L 621.991919 70.185682 
L 624.149227 66.371475 
L 626.036872 63.480777 
L 627.654853 61.383814 
L 629.182946 59.757251 
L 630.531264 58.625988 
L 631.789693 57.838571 
L 633.048123 57.317914 
L 634.216665 57.077603 
L 635.385207 57.073468 
L 636.553749 57.305543 
L 637.722291 57.771955 
L 638.98072 58.531957 
L 640.23915 59.552232 
L 641.677356 61.024609 
L 643.205449 62.92756 
L 644.913318 65.43526 
L 646.800963 68.624024 
L 648.958271 72.720553 
L 651.654906 78.353264 
L 656.05941 88.174367 
L 660.284138 97.414442 
L 662.890886 102.596164 
L 665.048194 106.400912 
L 666.935839 109.281809 
L 668.55382 111.3694 
L 670.081913 112.986428 
L 671.430231 114.108831 
L 672.68866 114.887689 
L 673.857202 115.371995 
L 675.025744 115.622187 
L 676.194286 115.636245 
L 677.362828 115.414057 
L 678.53137 114.957415 
L 679.7898 114.207713 
L 681.048229 113.197416 
L 682.396547 111.836559 
L 683.92464 109.964343 
L 685.542621 107.627742 
L 687.430266 104.488896 
L 689.587574 100.438862 
L 692.194321 95.040271 
L 696.149386 86.260497 
L 701.093217 75.39308 
L 703.699965 70.201044 
L 705.857273 66.38495 
L 707.744918 63.492295 
L 709.362899 61.39346 
L 710.890992 59.764992 
L 712.23931 58.631958 
L 713.497739 57.84283 
L 714.756169 57.320423 
L 715.924711 57.078465 
L 717.093253 57.072676 
L 718.261795 57.303103 
L 719.430337 57.767887 
L 720.688766 58.526173 
L 721.947196 59.544786 
L 723.295514 60.914166 
L 724.823607 62.795443 
L 726.531476 65.281088 
L 728.419121 68.448579 
L 730.576429 72.525336 
L 733.183176 77.946675 
L 737.318017 87.144268 
L 741.902297 97.209508 
L 744.509044 102.411785 
L 746.666352 106.239171 
L 748.553997 109.143543 
L 750.171978 111.253591 
L 751.700071 112.893477 
L 753.048389 114.037125 
L 754.306818 114.836511 
L 755.565248 115.369418 
L 756.73379 115.621256 
L 757.902332 115.636968 
L 759.070874 115.416428 
L 760.239416 114.961415 
L 761.497846 114.213431 
L 762.756275 113.204798 
L 764.104593 111.845647 
L 765.632686 109.975246 
L 767.250667 107.640402 
L 769.138312 104.503357 
L 771.29562 100.455007 
L 773.902367 95.057856 
L 777.857432 86.278911 
L 781.902385 77.313832 
L 781.992273 77.296318 
L 781.992273 77.296318 
" clip-path="url(#p36937c81c2)" style="fill: none; stroke: #e36f47; stroke-width: 6"/>
   </g>
   <g id="patch_3">
    <path d="M 41.316477 118.945354 
L 41.316477 2.834646 
" style="fill: none; stroke: #000000; stroke-width: 2; stroke-linejoin: miter; stroke-linecap: square"/>
   </g>
   <g id="patch_4">
    <path d="M 41.316477 118.945354 
L 803.565354 118.945354 
" style="fill: none; stroke: #000000; stroke-width: 2; stroke-linejoin: miter; stroke-linecap: square"/>
   </g>
   <g id="line2d_12">
    <path d="M 62.889558 31.190077 
L 74.664865 34.687431 
L 77.181725 35.405703 
L 77.271612 6.128091 
L 77.3615 6.168193 
L 87.33905 10.497186 
L 97.586264 14.700023 
L 108.103141 18.771447 
L 118.889682 22.707065 
L 129.945886 26.503332 
L 141.271754 30.157518 
L 152.957173 33.694015 
L 158.889771 35.403387 
L 158.979658 6.124445 
L 159.069546 6.164549 
L 169.047096 10.493737 
L 179.29431 14.696766 
L 189.811187 18.768375 
L 200.597728 22.704172 
L 211.653932 26.500611 
L 222.9798 30.154964 
L 234.665219 33.691621 
L 240.597817 35.401072 
L 240.687704 6.120798 
L 240.777592 6.160904 
L 250.755142 10.490289 
L 261.002356 14.693509 
L 271.519233 18.765303 
L 282.305774 22.701279 
L 293.361978 26.497891 
L 304.687846 30.152409 
L 316.373265 33.689228 
L 322.39575 35.424226 
L 322.485638 6.157258 
L 322.575526 6.197346 
L 332.553076 10.524764 
L 342.80029 14.726074 
L 353.317167 18.796018 
L 364.103708 22.730205 
L 375.159912 26.525091 
L 386.48578 30.177949 
L 398.171199 33.71316 
L 404.103796 35.421911 
L 404.193684 6.153613 
L 404.283572 6.193703 
L 414.261122 10.521317 
L 424.508336 14.722818 
L 435.025213 18.792947 
L 445.811754 22.727313 
L 456.867958 26.522372 
L 468.193826 30.175396 
L 479.879245 33.710767 
L 485.811842 35.419596 
L 485.90173 6.149968 
L 485.991618 6.190059 
L 495.969168 10.517871 
L 506.216382 14.719562 
L 516.733259 18.789876 
L 527.5198 22.724421 
L 538.576004 26.519652 
L 549.901872 30.172842 
L 561.587291 33.708375 
L 567.519888 35.417281 
L 567.609776 6.146322 
L 567.699664 6.186415 
L 577.677214 10.514423 
L 587.924428 14.716306 
L 598.441305 18.786805 
L 609.227846 22.721528 
L 620.28405 26.516932 
L 631.609918 30.170288 
L 643.295337 33.705982 
L 649.227934 35.414966 
L 649.317822 6.142676 
L 649.40771 6.182771 
L 659.38526 10.510976 
L 669.632474 14.71305 
L 680.149351 18.783733 
L 690.935892 22.718636 
L 701.992096 26.514212 
L 713.317964 30.167734 
L 725.003383 33.703588 
L 730.93598 35.41265 
L 731.025868 6.13903 
L 731.115756 6.179127 
L 741.093306 10.507529 
L 751.34052 14.709794 
L 761.857397 18.780662 
L 772.643938 22.715743 
L 781.992273 25.912827 
L 781.992273 25.912827 
" clip-path="url(#p36937c81c2)" style="fill: none; stroke: #3ea44e; stroke-width: 6"/>
   </g>
  </g>
 </g>
 <defs>
  <clipPath id="p36937c81c2">
   <rect x="41.316477" y="2.834646" width="762.248878" height="116.110709"/>
  </clipPath>
 </defs>
</svg>
