<?xml version="1.0" encoding="utf-8" standalone="no"?>
<!DOCTYPE svg PUBLIC "-//W3C//DTD SVG 1.1//EN"
  "http://www.w3.org/Graphics/SVG/1.1/DTD/svg11.dtd">
<svg xmlns:xlink="http://www.w3.org/1999/xlink" width="979.2pt" height="187.2pt" viewBox="0 0 979.2 187.2" xmlns="http://www.w3.org/2000/svg" version="1.1">
 <metadata>
  <rdf:RDF xmlns:dc="http://purl.org/dc/elements/1.1/" xmlns:cc="http://creativecommons.org/ns#" xmlns:rdf="http://www.w3.org/1999/02/22-rdf-syntax-ns#">
   <cc:Work>
    <dc:type rdf:resource="http://purl.org/dc/dcmitype/StillImage"/>
    <dc:date>2024-05-07T19:21:55.869204</dc:date>
    <dc:format>image/svg+xml</dc:format>
    <dc:creator>
     <cc:Agent>
      <dc:title>Matplotlib v3.7.0, https://matplotlib.org/</dc:title>
     </cc:Agent>
    </dc:creator>
   </cc:Work>
  </rdf:RDF>
 </metadata>
 <defs>
  <style type="text/css">*{stroke-linejoin: round; stroke-linecap: butt}</style>
 </defs>
 <g id="figure_1">
  <g id="patch_1">
   <path d="M 0 187.2 
L 979.2 187.2 
L 979.2 0 
L 0 0 
L 0 187.2 
z
" style="fill: none"/>
  </g>
  <g id="axes_1">
   <g id="patch_2">
    <path d="M 64.170808 153.505354 
L 976.365354 153.505354 
L 976.365354 6.935535 
L 64.170808 6.935535 
L 64.170808 153.505354 
z
" style="fill: none"/>
   </g>
   <g id="line2d_1">
    <path d="M 89.987635 40.869339 
L 90.704769 41.001831 
L 91.421903 41.399622 
L 92.139037 42.062231 
L 92.856171 42.987881 
L 93.573305 44.173495 
L 94.290439 45.614687 
L 95.724707 49.239745 
L 97.158975 53.80205 
L 98.593243 59.220504 
L 100.027512 65.394973 
L 102.178914 75.812476 
L 105.04745 91.125867 
L 110.067389 118.252096 
L 112.218791 128.53309 
L 113.653059 134.530741 
L 115.087327 139.671262 
L 116.521595 143.824028 
L 117.23873 145.494292 
L 117.955864 146.877467 
L 118.672998 147.96318 
L 119.390132 148.742691 
L 120.107266 149.208994 
L 120.8244 149.356908 
L 121.541534 149.183159 
L 122.258668 148.686456 
L 122.975802 147.867544 
L 123.692936 146.729249 
L 124.41007 145.276507 
L 125.127204 143.516371 
L 126.561473 139.112618 
L 127.995741 133.615816 
L 129.430009 127.154865 
L 131.581411 116.00517 
L 134.449947 99.410561 
L 138.752752 74.247692 
L 140.904154 63.095348 
L 142.338422 56.630111 
L 143.77269 51.126965 
L 145.206959 46.715767 
L 145.924093 44.952069 
L 146.641227 43.496296 
L 147.358361 42.355869 
L 148.075495 41.536119 
L 148.792629 41.040271 
L 149.509763 40.869449 
L 150.226897 41.085205 
L 150.944031 41.750813 
L 151.661165 42.855579 
L 152.378299 44.385362 
L 153.095433 46.322818 
L 154.529702 51.336776 
L 155.96397 57.70377 
L 157.398238 65.194923 
L 159.54964 77.976238 
L 166.720981 122.774409 
L 168.155249 130.185804 
L 169.589517 136.573884 
L 171.023785 141.781754 
L 172.458053 145.688825 
L 173.175188 147.127202 
L 173.892322 148.212344 
L 174.609456 148.939895 
L 175.32659 149.307876 
L 176.043724 149.316639 
L 176.760858 148.968827 
L 177.477992 148.26931 
L 178.195126 147.225113 
L 178.91226 145.845342 
L 179.629394 144.141089 
L 181.063662 139.812872 
L 182.497931 134.365163 
L 183.932199 127.947675 
L 186.083601 116.88148 
L 188.952137 100.455276 
L 193.254942 75.588948 
L 195.406344 64.5233 
L 196.840612 58.059563 
L 198.27488 52.493749 
L 199.709148 47.938747 
L 201.143417 44.477453 
L 201.860551 43.174277 
L 202.577685 42.161353 
L 203.294819 41.440166 
L 204.011953 41.010273 
L 204.729087 40.869354 
L 205.446221 41.084982 
L 206.163355 41.718505 
L 206.880489 42.758078 
L 207.597623 44.188867 
L 208.314757 45.993287 
L 209.749026 50.640416 
L 211.183294 56.51345 
L 212.617562 63.399273 
L 214.768964 75.11828 
L 222.657439 120.349829 
L 224.091707 127.184781 
L 225.525975 133.211878 
L 226.960243 138.340198 
L 228.394512 142.508941 
L 229.82878 145.686258 
L 230.545914 146.900612 
L 231.263048 147.867225 
L 231.980182 148.589241 
L 232.697316 149.071114 
L 233.41445 149.318496 
L 234.131584 149.338124 
L 234.848718 149.137695 
L 235.565852 148.725751 
L 236.282986 148.111552 
L 237.00012 147.30496 
L 238.434389 145.156335 
L 239.868657 142.366353 
L 241.302925 139.023927 
L 243.454327 133.166737 
L 245.605729 126.546507 
L 248.474266 116.962371 
L 259.948411 77.598508 
L 262.816947 68.733735 
L 265.685484 60.628597 
L 267.836886 55.180905 
L 269.988288 50.401969 
L 271.422556 47.654031 
L 272.856824 45.307828 
L 274.291092 43.409794 
L 275.725361 42.007089 
L 276.442495 41.50603 
L 277.159629 41.14599 
L 277.876763 40.932317 
L 278.593897 40.870512 
L 279.311031 41.021364 
L 280.028165 41.425099 
L 280.745299 42.080731 
L 281.462433 42.986163 
L 282.179567 44.138182 
L 283.613835 47.163539 
L 285.048104 51.108757 
L 286.482372 55.908152 
L 287.91664 61.478949 
L 290.068042 71.060922 
L 292.219444 81.757375 
L 300.825053 126.036352 
L 302.259322 132.138905 
L 303.69359 137.489724 
L 305.127858 141.965378 
L 306.562126 145.458043 
L 307.27926 146.807001 
L 307.996394 147.878219 
L 308.713528 148.663783 
L 309.430662 149.157217 
L 310.147796 149.353554 
L 310.86493 149.249388 
L 311.582065 148.842928 
L 312.299199 148.134044 
L 313.016333 147.124306 
L 313.733467 145.817013 
L 314.450601 144.217222 
L 315.884869 140.169208 
L 317.319137 135.056067 
L 318.753405 128.981469 
L 320.187673 122.075739 
L 322.339076 110.503544 
L 326.64188 85.320961 
L 329.510416 69.274539 
L 331.661819 58.804534 
L 333.096087 52.914184 
L 334.530355 48.075267 
L 335.964623 44.41036 
L 336.681757 43.047826 
L 337.398891 42.010184 
L 338.116025 41.303416 
L 338.833159 40.93128 
L 339.550294 40.906451 
L 340.267428 41.332954 
L 340.984562 42.228114 
L 341.701696 43.578509 
L 342.41883 45.367074 
L 343.135964 47.573347 
L 344.570232 53.141813 
L 346.0045 60.06284 
L 347.438768 68.079623 
L 349.590171 81.537102 
L 355.327243 118.708996 
L 356.761511 126.758213 
L 358.19578 133.823235 
L 359.630048 139.716712 
L 361.064316 144.290203 
L 361.78145 146.046827 
L 362.498584 147.436596 
L 363.215718 148.452772 
L 363.932852 149.091277 
L 364.649986 149.35067 
L 365.36712 149.232098 
L 366.084254 148.739242 
L 366.801388 147.878238 
L 367.518523 146.657593 
L 368.235657 145.088082 
L 368.952791 143.18264 
L 370.387059 138.42578 
L 371.821327 132.528943 
L 373.255595 125.660175 
L 375.406997 113.953654 
L 378.992668 92.470017 
L 381.861204 75.507378 
L 384.012606 64.051029 
L 385.446874 57.381923 
L 386.881143 51.682936 
L 388.315411 47.09209 
L 389.032545 45.247085 
L 389.749679 43.716837 
L 390.466813 42.509488 
L 391.183947 41.630938 
L 391.901081 41.084813 
L 392.618215 40.87246 
L 393.335349 41.055062 
L 394.052483 41.732781 
L 394.769617 42.89501 
L 395.486752 44.525074 
L 396.203886 46.602338 
L 397.638154 51.997977 
L 399.072422 58.849849 
L 400.50669 66.884337 
L 402.658092 80.485824 
L 408.395165 118.237714 
L 409.829433 126.394877 
L 411.263701 133.541501 
L 412.697969 139.494483 
L 414.132238 144.114914 
L 414.849372 145.894511 
L 415.566506 147.309627 
L 416.28364 148.35576 
L 417.000774 149.031184 
L 417.717908 149.336874 
L 418.435042 149.276404 
L 419.152176 148.855842 
L 419.86931 148.083615 
L 420.586444 146.970369 
L 421.303578 145.528817 
L 422.020712 143.77357 
L 423.454981 139.388915 
L 424.889249 133.964653 
L 426.323517 127.667943 
L 428.474919 116.983236 
L 432.06059 97.435269 
L 435.64626 78.156085 
L 437.797662 67.745707 
L 439.23193 61.552978 
L 440.666198 56.072634 
L 442.100467 51.379231 
L 443.534735 47.526198 
L 444.969003 44.546076 
L 445.686137 43.387961 
L 446.403271 42.451145 
L 447.120405 41.734159 
L 447.837539 41.23441 
L 448.554673 40.948226 
L 449.271807 40.871925 
L 449.988941 41.090445 
L 450.706076 41.653061 
L 451.42321 42.54723 
L 452.140344 43.75841 
L 452.857478 45.270321 
L 454.291746 49.124003 
L 455.726014 53.952455 
L 457.160282 59.586921 
L 459.311684 69.16656 
L 462.897355 86.7082 
L 466.483025 104.1485 
L 468.634427 113.776952 
L 470.78583 122.435034 
L 472.937232 129.951594 
L 474.3715 134.281038 
L 475.805768 138.051254 
L 477.240036 141.261582 
L 478.674305 143.91846 
L 480.108573 146.032879 
L 481.542841 147.618101 
L 482.977109 148.687709 
L 483.694243 149.033099 
L 484.411377 149.254052 
L 485.128511 149.351734 
L 485.845645 149.327118 
L 486.562779 149.180972 
L 487.279913 148.913854 
L 488.714182 148.017927 
L 490.14845 146.639929 
L 491.582718 144.778006 
L 493.016986 142.428893 
L 494.451254 139.58931 
L 495.885522 136.257693 
L 497.319791 132.436159 
L 498.754059 128.13265 
L 500.905461 120.811271 
L 503.056863 112.542022 
L 505.9254 100.332301 
L 514.531008 62.188931 
L 516.682411 54.33829 
L 518.116679 49.915859 
L 519.550947 46.272613 
L 520.985215 43.505632 
L 521.702349 42.476639 
L 522.419483 41.69546 
L 523.136617 41.169108 
L 523.853751 40.903229 
L 524.570886 40.917862 
L 525.28802 41.310153 
L 526.005154 42.090661 
L 526.722288 43.250551 
L 527.439422 44.778472 
L 528.156556 46.660678 
L 529.590824 51.421822 
L 531.025092 57.38156 
L 532.45936 64.358897 
L 534.610763 76.281919 
L 538.196433 98.146152 
L 541.064969 115.319332 
L 543.216372 126.837958 
L 544.65064 133.497551 
L 546.084908 139.146124 
L 547.519176 143.646519 
L 548.23631 145.43145 
L 548.953444 146.891644 
L 549.670578 148.018736 
L 550.387712 148.806448 
L 551.104846 149.250603 
L 551.82198 149.349142 
L 552.539115 149.102114 
L 553.256249 148.511664 
L 553.973383 147.582011 
L 554.690517 146.319415 
L 555.407651 144.732126 
L 556.841919 140.626132 
L 558.276187 135.367721 
L 559.710455 129.088238 
L 561.144723 121.943836 
L 563.296126 109.99907 
L 571.184601 64.306851 
L 572.618869 57.545464 
L 574.053137 51.752011 
L 575.487405 47.081023 
L 576.204539 45.206574 
L 576.921673 43.656701 
L 577.638807 42.441499 
L 578.355941 41.568715 
L 579.073075 41.04369 
L 579.790209 40.86934 
L 580.507344 41.129178 
L 581.224478 41.899708 
L 581.941612 43.167223 
L 582.658746 44.913632 
L 583.37588 47.116764 
L 584.810148 52.78607 
L 586.244416 59.929052 
L 587.678684 68.257228 
L 589.830087 82.270465 
L 594.850025 116.191273 
L 596.284293 124.762471 
L 597.718561 132.331709 
L 599.15283 138.684653 
L 600.587098 143.652025 
L 601.304232 145.576278 
L 602.021366 147.112458 
L 602.7385 148.253083 
L 603.455634 148.993736 
L 604.172768 149.333022 
L 604.889902 149.272504 
L 605.607036 148.816622 
L 606.32417 147.972587 
L 607.041304 146.750268 
L 607.758439 145.162053 
L 608.475573 143.22271 
L 609.909841 138.360616 
L 611.344109 132.323357 
L 612.778377 125.297252 
L 614.929779 113.361344 
L 619.232584 87.267754 
L 622.10112 70.698925 
L 624.252522 59.902887 
L 625.68679 53.815524 
L 627.121059 48.785423 
L 628.555327 44.926393 
L 629.272461 43.463322 
L 629.989595 42.321795 
L 630.706729 41.507173 
L 631.423863 41.022719 
L 632.140997 40.86967 
L 632.858131 41.15164 
L 633.575265 41.953186 
L 634.292399 43.260291 
L 635.009533 45.054299 
L 635.726668 47.312235 
L 637.160936 53.108497 
L 638.595204 60.392738 
L 640.029472 68.864211 
L 642.180874 83.067615 
L 647.200813 117.12524 
L 648.635081 125.630363 
L 650.069349 133.08905 
L 651.503617 139.29536 
L 652.937885 144.09238 
L 653.655019 145.927333 
L 654.372154 147.374328 
L 655.089288 148.428169 
L 655.806422 149.086789 
L 656.523556 149.35117 
L 657.24069 149.225231 
L 657.957824 148.715707 
L 658.674958 147.832005 
L 659.392092 146.586039 
L 660.109226 144.992062 
L 661.543494 140.827638 
L 662.977762 135.492169 
L 664.412031 129.163708 
L 666.563433 118.240742 
L 669.431969 102.10292 
L 673.734774 77.850619 
L 675.886176 67.034339 
L 677.320444 60.646687 
L 678.754712 55.046979 
L 680.18898 50.318821 
L 681.623248 46.521455 
L 683.057517 43.690326 
L 683.774651 42.641928 
L 684.491785 41.838166 
L 685.208919 41.27732 
L 685.926053 40.956452 
L 686.643187 40.873266 
L 687.360321 41.136865 
L 688.077455 41.806016 
L 688.794589 42.867569 
L 689.511723 44.305579 
L 690.228857 46.101554 
L 691.663126 50.682245 
L 693.097394 56.420953 
L 694.531662 63.106071 
L 696.683064 74.414096 
L 704.571539 117.831685 
L 706.722941 127.540725 
L 708.157209 133.100339 
L 709.591478 137.858929 
L 711.025746 141.784973 
L 712.460014 144.870108 
L 713.894282 147.126114 
L 714.611416 147.951546 
L 715.32855 148.581492 
L 716.045684 149.021528 
L 716.762818 149.27782 
L 717.479952 149.357006 
L 718.197086 149.26609 
L 718.914221 149.012338 
L 719.631355 148.603178 
L 721.065623 147.348612 
L 722.499891 145.56174 
L 723.934159 143.299403 
L 725.368427 140.614145 
L 726.802695 137.552998 
L 728.954098 132.344146 
L 731.1055 126.491856 
L 733.256902 120.080558 
L 736.125438 110.775021 
L 738.993975 100.73745 
L 743.296779 84.752171 
L 748.316718 66.146635 
L 750.46812 58.867905 
L 752.619522 52.427078 
L 754.05379 48.754907 
L 755.488058 45.687635 
L 756.922327 43.311687 
L 757.639461 42.407667 
L 758.356595 41.704758 
L 759.073729 41.210791 
L 759.790863 40.932678 
L 760.507997 40.880289 
L 761.225131 41.145658 
L 761.942265 41.762326 
L 762.659399 42.72426 
L 763.376533 44.02333 
L 764.093667 45.649385 
L 765.527936 49.832215 
L 766.962204 55.154435 
L 768.396472 61.471683 
L 770.547874 72.444161 
L 773.41641 88.867292 
L 777.719215 114.008001 
L 779.870617 125.315785 
L 781.304885 131.958782 
L 782.739153 137.698485 
L 784.173422 142.39929 
L 785.60769 145.950711 
L 786.324824 147.26833 
L 787.041958 148.269713 
L 787.759092 148.949049 
L 788.476226 149.302421 
L 789.19336 149.327823 
L 789.910494 149.025162 
L 790.627628 148.396259 
L 791.344762 147.444834 
L 792.061896 146.17648 
L 792.77903 144.598634 
L 794.213299 140.553167 
L 795.647567 135.402982 
L 797.081835 129.26859 
L 798.516103 122.294013 
L 800.667505 110.621791 
L 804.97031 85.287954 
L 807.838846 69.162746 
L 809.990248 58.640471 
L 811.424517 52.725445 
L 812.858785 47.878167 
L 814.293053 44.230281 
L 815.010187 42.888797 
L 815.727321 41.882124 
L 816.444455 41.217307 
L 817.161589 40.89904 
L 817.878723 40.95958 
L 818.595857 41.524189 
L 819.312991 42.595666 
L 820.030125 44.157286 
L 820.74726 46.188091 
L 821.464394 48.663219 
L 822.898662 54.829563 
L 824.33293 62.392984 
L 826.484332 75.68985 
L 830.787137 105.164906 
L 832.938539 119.094102 
L 834.372807 127.389745 
L 835.807075 134.601925 
L 837.241343 140.528145 
L 838.675611 145.012277 
L 839.392746 146.678075 
L 840.10988 147.946975 
L 840.827014 148.813319 
L 841.544148 149.274522 
L 842.261282 149.33102 
L 842.978416 148.986194 
L 843.69555 148.246283 
L 844.412684 147.120275 
L 845.129818 145.619778 
L 845.846952 143.758886 
L 847.28122 139.023792 
L 848.715489 133.071382 
L 850.149757 126.087033 
L 852.301159 114.135972 
L 855.886829 92.207159 
L 858.755366 74.985198 
L 860.906768 63.436095 
L 862.341036 56.759609 
L 863.775304 51.097263 
L 865.209572 46.586708 
L 865.926706 44.798217 
L 866.64384 43.335533 
L 867.360975 42.207017 
L 868.078109 41.41888 
L 868.795243 40.975142 
L 869.512377 40.882679 
L 870.229511 41.280738 
L 870.946645 42.223242 
L 871.663779 43.694125 
L 872.380913 45.672269 
L 873.098047 48.131868 
L 874.532315 54.371154 
L 875.966583 62.127497 
L 877.400852 71.069381 
L 879.552254 85.906067 
L 883.855058 116.042235 
L 885.289326 124.925634 
L 886.723595 132.723079 
L 888.157863 139.19942 
L 889.592131 144.173154 
L 890.309265 146.055291 
L 891.026399 147.519487 
L 891.743533 148.559158 
L 892.460667 149.171267 
L 893.177801 149.356254 
L 893.894935 149.117931 
L 894.612069 148.463356 
L 895.329204 147.402685 
L 896.046338 145.949005 
L 896.763472 144.118148 
L 898.19774 139.400742 
L 899.632008 133.424102 
L 901.066276 126.391812 
L 903.217678 114.362265 
L 907.520483 87.989365 
L 910.389019 71.288532 
L 912.540421 60.434606 
L 913.97469 54.315209 
L 915.408958 49.243734 
L 916.843226 45.318641 
L 917.56036 43.808229 
L 918.277494 42.60719 
L 918.994628 41.719066 
L 919.711762 41.145489 
L 920.428896 40.886223 
L 921.14603 40.990681 
L 921.863164 41.617109 
L 922.580299 42.765314 
L 923.297433 44.417784 
L 924.014567 46.552347 
L 924.731701 49.142527 
L 926.165969 55.564673 
L 927.600237 63.401703 
L 929.751639 77.093163 
L 936.205846 120.910224 
L 937.640114 129.061109 
L 939.074382 136.044349 
L 940.50865 141.672274 
L 941.225785 143.9338 
L 941.942919 145.810238 
L 942.660053 147.293221 
L 943.377187 148.377728 
L 944.094321 149.062007 
L 944.811455 149.34748 
L 945.528589 149.238621 
L 946.245723 148.742814 
L 946.962857 147.87019 
L 947.679991 146.633448 
L 948.397125 145.047659 
L 949.831393 140.899853 
L 950.548528 138.377944 
L 950.548528 138.377944 
" clip-path="url(#pab8411e6e2)" style="fill: none; stroke: #009afa; stroke-width: 6"/>
   </g>
   <g id="matplotlib.axis_1">
    <g id="xtick_1">
     <g id="line2d_2">
      <defs>
       <path id="md835ab69a0" d="M 0 0 
L 0 -5 
" style="stroke: #000000"/>
      </defs>
      <g>
       <use xlink:href="#md835ab69a0" x="89.987635" y="153.505354" style="stroke: #000000"/>
      </g>
     </g>
     <g id="text_1">
      <!-- $0.0$ -->
      <g transform="translate(72.067635 178.280979) scale(0.28 -0.28)">
       <defs>
        <path id="Cmr10-30" d="M 1600 -141 
Q 816 -141 533 504 
Q 250 1150 250 2041 
Q 250 2597 351 3087 
Q 453 3578 754 3920 
Q 1056 4263 1600 4263 
Q 2022 4263 2290 4056 
Q 2559 3850 2700 3523 
Q 2841 3197 2892 2823 
Q 2944 2450 2944 2041 
Q 2944 1491 2842 1011 
Q 2741 531 2444 195 
Q 2147 -141 1600 -141 
z
M 1600 25 
Q 1956 25 2131 390 
Q 2306 756 2347 1200 
Q 2388 1644 2388 2144 
Q 2388 2625 2347 3031 
Q 2306 3438 2132 3767 
Q 1959 4097 1600 4097 
Q 1238 4097 1063 3765 
Q 888 3434 847 3029 
Q 806 2625 806 2144 
Q 806 1788 823 1472 
Q 841 1156 916 820 
Q 991 484 1158 254 
Q 1325 25 1600 25 
z
" transform="scale(0.015625)"/>
        <path id="Cmmi10-3a" d="M 538 353 
Q 538 497 644 600 
Q 750 703 891 703 
Q 978 703 1062 656 
Q 1147 609 1194 525 
Q 1241 441 1241 353 
Q 1241 213 1137 106 
Q 1034 0 891 0 
Q 750 0 644 106 
Q 538 213 538 353 
z
" transform="scale(0.015625)"/>
       </defs>
       <use xlink:href="#Cmr10-30" transform="translate(0 0.390625)"/>
       <use xlink:href="#Cmmi10-3a" transform="translate(50 0.390625)"/>
       <use xlink:href="#Cmr10-30" transform="translate(77.685547 0.390625)"/>
      </g>
     </g>
    </g>
    <g id="xtick_2">
     <g id="line2d_3">
      <g>
       <use xlink:href="#md835ab69a0" x="269.271154" y="153.505354" style="stroke: #000000"/>
      </g>
     </g>
     <g id="text_2">
      <!-- $2.5$ -->
      <g transform="translate(251.351154 178.280979) scale(0.28 -0.28)">
       <defs>
        <path id="Cmr10-32" d="M 319 0 
L 319 172 
Q 319 188 331 206 
L 1325 1306 
Q 1550 1550 1690 1715 
Q 1831 1881 1968 2097 
Q 2106 2313 2186 2536 
Q 2266 2759 2266 3009 
Q 2266 3272 2169 3511 
Q 2072 3750 1880 3894 
Q 1688 4038 1416 4038 
Q 1138 4038 916 3870 
Q 694 3703 603 3438 
Q 628 3444 672 3444 
Q 816 3444 917 3347 
Q 1019 3250 1019 3097 
Q 1019 2950 917 2848 
Q 816 2747 672 2747 
Q 522 2747 420 2851 
Q 319 2956 319 3097 
Q 319 3338 409 3548 
Q 500 3759 670 3923 
Q 841 4088 1055 4175 
Q 1269 4263 1509 4263 
Q 1875 4263 2190 4108 
Q 2506 3953 2690 3670 
Q 2875 3388 2875 3009 
Q 2875 2731 2753 2481 
Q 2631 2231 2440 2026 
Q 2250 1822 1953 1562 
Q 1656 1303 1563 1216 
L 838 519 
L 1453 519 
Q 1906 519 2211 526 
Q 2516 534 2534 550 
Q 2609 631 2688 1141 
L 2875 1141 
L 2694 0 
L 319 0 
z
" transform="scale(0.015625)"/>
        <path id="Cmr10-35" d="M 556 728 
Q 622 541 758 387 
Q 894 234 1080 148 
Q 1266 63 1466 63 
Q 1928 63 2103 422 
Q 2278 781 2278 1294 
Q 2278 1516 2270 1667 
Q 2263 1819 2228 1959 
Q 2169 2184 2020 2353 
Q 1872 2522 1656 2522 
Q 1441 2522 1286 2456 
Q 1131 2391 1034 2303 
Q 938 2216 863 2119 
Q 788 2022 769 2016 
L 697 2016 
Q 681 2016 657 2036 
Q 634 2056 634 2075 
L 634 4213 
Q 634 4228 654 4245 
Q 675 4263 697 4263 
L 716 4263 
Q 1147 4056 1631 4056 
Q 2106 4056 2547 4263 
L 2566 4263 
Q 2588 4263 2606 4247 
Q 2625 4231 2625 4213 
L 2625 4153 
Q 2625 4122 2613 4122 
Q 2394 3831 2064 3668 
Q 1734 3506 1381 3506 
Q 1125 3506 856 3578 
L 856 2369 
Q 1069 2541 1236 2614 
Q 1403 2688 1663 2688 
Q 2016 2688 2295 2484 
Q 2575 2281 2725 1954 
Q 2875 1628 2875 1288 
Q 2875 903 2686 575 
Q 2497 247 2172 53 
Q 1847 -141 1466 -141 
Q 1150 -141 886 21 
Q 622 184 470 459 
Q 319 734 319 1044 
Q 319 1188 412 1278 
Q 506 1369 647 1369 
Q 788 1369 883 1276 
Q 978 1184 978 1044 
Q 978 906 883 811 
Q 788 716 647 716 
Q 625 716 597 720 
Q 569 725 556 728 
z
" transform="scale(0.015625)"/>
       </defs>
       <use xlink:href="#Cmr10-32" transform="translate(0 0.390625)"/>
       <use xlink:href="#Cmmi10-3a" transform="translate(50 0.390625)"/>
       <use xlink:href="#Cmr10-35" transform="translate(77.685547 0.390625)"/>
      </g>
     </g>
    </g>
    <g id="xtick_3">
     <g id="line2d_4">
      <g>
       <use xlink:href="#md835ab69a0" x="448.554673" y="153.505354" style="stroke: #000000"/>
      </g>
     </g>
     <g id="text_3">
      <!-- $5.0$ -->
      <g transform="translate(430.634673 178.280979) scale(0.28 -0.28)">
       <use xlink:href="#Cmr10-35" transform="translate(0 0.390625)"/>
       <use xlink:href="#Cmmi10-3a" transform="translate(50 0.390625)"/>
       <use xlink:href="#Cmr10-30" transform="translate(77.685547 0.390625)"/>
      </g>
     </g>
    </g>
    <g id="xtick_4">
     <g id="line2d_5">
      <g>
       <use xlink:href="#md835ab69a0" x="627.838193" y="153.505354" style="stroke: #000000"/>
      </g>
     </g>
     <g id="text_4">
      <!-- $7.5$ -->
      <g transform="translate(609.918193 178.280979) scale(0.28 -0.28)">
       <defs>
        <path id="Cmr10-37" d="M 1113 166 
Q 1113 522 1175 862 
Q 1238 1203 1358 1536 
Q 1478 1869 1648 2189 
Q 1819 2509 2022 2791 
L 2606 3603 
L 1875 3603 
Q 738 3603 703 3572 
Q 619 3469 544 2981 
L 359 2981 
L 569 4325 
L 756 4325 
L 756 4306 
Q 756 4191 1147 4156 
Q 1538 4122 1913 4122 
L 3103 4122 
L 3103 3956 
Q 3103 3950 3101 3947 
Q 3100 3944 3097 3938 
L 2216 2700 
Q 1891 2219 1809 1631 
Q 1728 1044 1728 166 
Q 1728 41 1637 -50 
Q 1547 -141 1422 -141 
Q 1294 -141 1203 -50 
Q 1113 41 1113 166 
z
" transform="scale(0.015625)"/>
       </defs>
       <use xlink:href="#Cmr10-37" transform="translate(0 0.421875)"/>
       <use xlink:href="#Cmmi10-3a" transform="translate(50 0.421875)"/>
       <use xlink:href="#Cmr10-35" transform="translate(77.685547 0.421875)"/>
      </g>
     </g>
    </g>
    <g id="xtick_5">
     <g id="line2d_6">
      <g>
       <use xlink:href="#md835ab69a0" x="807.121712" y="153.505354" style="stroke: #000000"/>
      </g>
     </g>
     <g id="text_5">
      <!-- $10.0$ -->
      <g transform="translate(782.201712 178.280979) scale(0.28 -0.28)">
       <defs>
        <path id="Cmr10-31" d="M 594 0 
L 594 225 
Q 1394 225 1394 428 
L 1394 3788 
Q 1063 3628 556 3628 
L 556 3853 
Q 1341 3853 1741 4263 
L 1831 4263 
Q 1853 4263 1873 4245 
Q 1894 4228 1894 4206 
L 1894 428 
Q 1894 225 2694 225 
L 2694 0 
L 594 0 
z
" transform="scale(0.015625)"/>
       </defs>
       <use xlink:href="#Cmr10-31" transform="translate(0 0.390625)"/>
       <use xlink:href="#Cmr10-30" transform="translate(50 0.390625)"/>
       <use xlink:href="#Cmmi10-3a" transform="translate(100 0.390625)"/>
       <use xlink:href="#Cmr10-30" transform="translate(127.685547 0.390625)"/>
      </g>
     </g>
    </g>
   </g>
   <g id="matplotlib.axis_2">
    <g id="ytick_1">
     <g id="line2d_7">
      <defs>
       <path id="m58bfe9c3b0" d="M 0 0 
L 5 0 
" style="stroke: #000000"/>
      </defs>
      <g>
       <use xlink:href="#m58bfe9c3b0" x="64.170808" y="149.357152" style="stroke: #000000"/>
      </g>
     </g>
     <g id="text_6">
      <!-- $-1.0$ -->
      <g transform="translate(2.990808 159.994964) scale(0.28 -0.28)">
       <defs>
        <path id="Cmsy10-a1" d="M 653 1472 
Q 600 1472 565 1512 
Q 531 1553 531 1600 
Q 531 1647 565 1687 
Q 600 1728 653 1728 
L 4325 1728 
Q 4375 1728 4408 1687 
Q 4441 1647 4441 1600 
Q 4441 1553 4408 1512 
Q 4375 1472 4325 1472 
L 653 1472 
z
" transform="scale(0.015625)"/>
       </defs>
       <use xlink:href="#Cmsy10-a1" transform="translate(0 0.390625)"/>
       <use xlink:href="#Cmr10-31" transform="translate(77.685547 0.390625)"/>
       <use xlink:href="#Cmmi10-3a" transform="translate(127.685547 0.390625)"/>
       <use xlink:href="#Cmr10-30" transform="translate(155.371094 0.390625)"/>
      </g>
     </g>
    </g>
    <g id="ytick_2">
     <g id="line2d_8">
      <g>
       <use xlink:href="#m58bfe9c3b0" x="64.170808" y="122.235199" style="stroke: #000000"/>
      </g>
     </g>
     <g id="text_7">
      <!-- $-0.5$ -->
      <g transform="translate(2.990808 132.873011) scale(0.28 -0.28)">
       <use xlink:href="#Cmsy10-a1" transform="translate(0 0.390625)"/>
       <use xlink:href="#Cmr10-30" transform="translate(77.685547 0.390625)"/>
       <use xlink:href="#Cmmi10-3a" transform="translate(127.685547 0.390625)"/>
       <use xlink:href="#Cmr10-35" transform="translate(155.371094 0.390625)"/>
      </g>
     </g>
    </g>
    <g id="ytick_3">
     <g id="line2d_9">
      <g>
       <use xlink:href="#m58bfe9c3b0" x="64.170808" y="95.113246" style="stroke: #000000"/>
      </g>
     </g>
     <g id="text_8">
      <!-- $0.0$ -->
      <g transform="translate(24.830808 105.751058) scale(0.28 -0.28)">
       <use xlink:href="#Cmr10-30" transform="translate(0 0.390625)"/>
       <use xlink:href="#Cmmi10-3a" transform="translate(50 0.390625)"/>
       <use xlink:href="#Cmr10-30" transform="translate(77.685547 0.390625)"/>
      </g>
     </g>
    </g>
    <g id="ytick_4">
     <g id="line2d_10">
      <g>
       <use xlink:href="#m58bfe9c3b0" x="64.170808" y="67.991292" style="stroke: #000000"/>
      </g>
     </g>
     <g id="text_9">
      <!-- $0.5$ -->
      <g transform="translate(24.830808 78.629105) scale(0.28 -0.28)">
       <use xlink:href="#Cmr10-30" transform="translate(0 0.390625)"/>
       <use xlink:href="#Cmmi10-3a" transform="translate(50 0.390625)"/>
       <use xlink:href="#Cmr10-35" transform="translate(77.685547 0.390625)"/>
      </g>
     </g>
    </g>
    <g id="ytick_5">
     <g id="line2d_11">
      <g>
       <use xlink:href="#m58bfe9c3b0" x="64.170808" y="40.869339" style="stroke: #000000"/>
      </g>
     </g>
     <g id="text_10">
      <!-- $1.0$ -->
      <g transform="translate(24.830808 51.507152) scale(0.28 -0.28)">
       <use xlink:href="#Cmr10-31" transform="translate(0 0.390625)"/>
       <use xlink:href="#Cmmi10-3a" transform="translate(50 0.390625)"/>
       <use xlink:href="#Cmr10-30" transform="translate(77.685547 0.390625)"/>
      </g>
     </g>
    </g>
    <g id="ytick_6">
     <g id="line2d_12">
      <g>
       <use xlink:href="#m58bfe9c3b0" x="64.170808" y="13.747386" style="stroke: #000000"/>
      </g>
     </g>
     <g id="text_11">
      <!-- $1.5$ -->
      <g transform="translate(24.830808 24.385198) scale(0.28 -0.28)">
       <use xlink:href="#Cmr10-31" transform="translate(0 0.390625)"/>
       <use xlink:href="#Cmmi10-3a" transform="translate(50 0.390625)"/>
       <use xlink:href="#Cmr10-35" transform="translate(77.685547 0.390625)"/>
      </g>
     </g>
    </g>
   </g>
   <g id="line2d_13">
    <path d="M 89.987635 40.869339 
L 90.704769 41.110076 
L 91.421903 41.830148 
L 92.139037 43.023165 
L 92.856171 44.678537 
L 93.573305 46.781571 
L 95.007573 52.252151 
L 96.441841 59.241107 
L 97.876109 67.500851 
L 100.027512 81.623335 
L 105.764584 121.245447 
L 107.198852 129.689613 
L 108.633121 136.908894 
L 110.067389 142.647543 
L 110.784523 144.895842 
L 111.501657 146.702266 
L 112.218791 148.050783 
L 112.935925 148.929422 
L 113.653059 149.330386 
L 114.370193 149.250114 
L 115.087327 148.689319 
L 115.804461 147.65298 
L 116.521595 146.150294 
L 117.23873 144.194599 
L 117.955864 141.803255 
L 119.390132 135.8022 
L 120.8244 128.359718 
L 122.258668 119.739464 
L 124.41007 105.27754 
L 129.430009 70.487027 
L 130.864277 61.866773 
L 132.298545 54.424291 
L 133.732813 48.423236 
L 134.449947 46.031892 
L 135.167081 44.076197 
L 135.884216 42.573511 
L 136.60135 41.537172 
L 137.318484 40.976377 
L 138.035618 40.896105 
L 138.752752 41.297069 
L 139.469886 42.175708 
L 140.18702 43.524225 
L 140.904154 45.33065 
L 141.621288 47.578948 
L 143.055556 53.317597 
L 144.489824 60.536878 
L 145.924093 68.981044 
L 148.075495 83.280304 
L 153.095433 118.209178 
L 154.529702 126.997014 
L 155.96397 134.655351 
L 157.398238 140.91289 
L 158.115372 143.44492 
L 158.832506 145.547954 
L 159.54964 147.203326 
L 160.266774 148.396343 
L 160.983908 149.116416 
L 161.701042 149.357152 
L 162.418176 149.116416 
L 163.13531 148.396343 
L 163.852445 147.203326 
L 164.569579 145.547954 
L 165.286713 143.44492 
L 166.720981 137.97434 
L 168.155249 130.985384 
L 169.589517 122.72564 
L 171.740919 108.603156 
L 177.477992 68.981044 
L 178.91226 60.536878 
L 180.346528 53.317597 
L 181.780796 47.578948 
L 182.497931 45.33065 
L 183.215065 43.524225 
L 183.932199 42.175708 
L 184.649333 41.297069 
L 185.366467 40.896105 
L 186.083601 40.976377 
L 186.800735 41.537172 
L 187.517869 42.573511 
L 188.235003 44.076197 
L 188.952137 46.031892 
L 189.669271 48.423236 
L 191.103539 54.424291 
L 192.537808 61.866773 
L 193.972076 70.487027 
L 196.123478 84.948951 
L 201.143417 119.739464 
L 202.577685 128.359718 
L 204.011953 135.8022 
L 205.446221 141.803255 
L 206.163355 144.194599 
L 206.880489 146.150294 
L 207.597623 147.65298 
L 208.314757 148.689319 
L 209.031891 149.250114 
L 209.749026 149.330386 
L 210.46616 148.929422 
L 211.183294 148.050783 
L 211.900428 146.702266 
L 212.617562 144.895842 
L 213.334696 142.647543 
L 214.768964 136.908894 
L 216.203232 129.689613 
L 217.6375 121.245447 
L 219.788903 106.946187 
L 224.808841 72.017313 
L 226.243109 63.229477 
L 227.677377 55.57114 
L 229.111646 49.313601 
L 229.82878 46.781571 
L 230.545914 44.678537 
L 231.263048 43.023165 
L 231.980182 41.830148 
L 232.697316 41.110076 
L 233.41445 40.869339 
L 234.131584 41.110076 
L 234.848718 41.830148 
L 235.565852 43.023165 
L 236.282986 44.678537 
L 237.00012 46.781571 
L 238.434389 52.252151 
L 239.868657 59.241107 
L 241.302925 67.500851 
L 243.454327 81.623335 
L 249.1914 121.245447 
L 250.625668 129.689613 
L 252.059936 136.908894 
L 253.494204 142.647543 
L 254.211338 144.895842 
L 254.928472 146.702266 
L 255.645606 148.050783 
L 256.362741 148.929422 
L 257.079875 149.330386 
L 257.797009 149.250114 
L 258.514143 148.689319 
L 259.231277 147.65298 
L 259.948411 146.150294 
L 260.665545 144.194599 
L 261.382679 141.803255 
L 262.816947 135.8022 
L 264.251215 128.359718 
L 265.685484 119.739464 
L 267.836886 105.27754 
L 272.856824 70.487027 
L 274.291092 61.866773 
L 275.725361 54.424291 
L 277.159629 48.423236 
L 277.876763 46.031892 
L 278.593897 44.076197 
L 279.311031 42.573511 
L 280.028165 41.537172 
L 280.745299 40.976377 
L 281.462433 40.896105 
L 282.179567 41.297069 
L 282.896701 42.175708 
L 283.613835 43.524225 
L 284.33097 45.33065 
L 285.048104 47.578948 
L 286.482372 53.317597 
L 287.91664 60.536878 
L 289.350908 68.981044 
L 291.50231 83.280304 
L 296.522249 118.209178 
L 297.956517 126.997014 
L 299.390785 134.655351 
L 300.825053 140.91289 
L 301.542187 143.44492 
L 302.259322 145.547954 
L 302.976456 147.203326 
L 303.69359 148.396343 
L 304.410724 149.116416 
L 305.127858 149.357152 
L 305.844992 149.116416 
L 306.562126 148.396343 
L 307.27926 147.203326 
L 307.996394 145.547954 
L 308.713528 143.44492 
L 310.147796 137.97434 
L 311.582065 130.985384 
L 313.016333 122.72564 
L 315.167735 108.603156 
L 320.904808 68.981044 
L 322.339076 60.536878 
L 323.773344 53.317597 
L 325.207612 47.578948 
L 325.924746 45.33065 
L 326.64188 43.524225 
L 327.359014 42.175708 
L 328.076148 41.297069 
L 328.793282 40.896105 
L 329.510416 40.976377 
L 330.227551 41.537172 
L 330.944685 42.573511 
L 331.661819 44.076197 
L 332.378953 46.031892 
L 333.096087 48.423236 
L 334.530355 54.424291 
L 335.964623 61.866773 
L 337.398891 70.487027 
L 339.550294 84.948951 
L 344.570232 119.739464 
L 346.0045 128.359718 
L 347.438768 135.8022 
L 348.873037 141.803255 
L 349.590171 144.194599 
L 350.307305 146.150294 
L 351.024439 147.65298 
L 351.741573 148.689319 
L 352.458707 149.250114 
L 353.175841 149.330386 
L 353.892975 148.929422 
L 354.610109 148.050783 
L 355.327243 146.702266 
L 356.044377 144.895842 
L 356.761511 142.647543 
L 358.19578 136.908894 
L 359.630048 129.689613 
L 361.064316 121.245447 
L 363.215718 106.946187 
L 368.235657 72.017313 
L 369.669925 63.229477 
L 371.104193 55.57114 
L 372.538461 49.313601 
L 373.255595 46.781571 
L 373.972729 44.678537 
L 374.689863 43.023165 
L 375.406997 41.830148 
L 376.124131 41.110076 
L 376.841266 40.869339 
L 377.5584 41.110076 
L 378.275534 41.830148 
L 378.992668 43.023165 
L 379.709802 44.678537 
L 380.426936 46.781571 
L 381.861204 52.252151 
L 383.295472 59.241107 
L 384.72974 67.500851 
L 386.881143 81.623335 
L 392.618215 121.245447 
L 394.052483 129.689613 
L 395.486752 136.908894 
L 396.92102 142.647543 
L 397.638154 144.895842 
L 398.355288 146.702266 
L 399.072422 148.050783 
L 399.789556 148.929422 
L 400.50669 149.330386 
L 401.223824 149.250114 
L 401.940958 148.689319 
L 402.658092 147.65298 
L 403.375226 146.150294 
L 404.092361 144.194599 
L 404.809495 141.803255 
L 406.243763 135.8022 
L 407.678031 128.359718 
L 409.112299 119.739464 
L 411.263701 105.27754 
L 416.28364 70.487027 
L 417.717908 61.866773 
L 419.152176 54.424291 
L 420.586444 48.423236 
L 421.303578 46.031892 
L 422.020712 44.076197 
L 422.737847 42.573511 
L 423.454981 41.537172 
L 424.172115 40.976377 
L 424.889249 40.896105 
L 425.606383 41.297069 
L 426.323517 42.175708 
L 427.040651 43.524225 
L 427.757785 45.33065 
L 428.474919 47.578948 
L 429.909187 53.317597 
L 431.343455 60.536878 
L 432.777724 68.981044 
L 434.929126 83.280304 
L 439.949064 118.209178 
L 441.383333 126.997014 
L 442.817601 134.655351 
L 444.251869 140.91289 
L 444.969003 143.44492 
L 445.686137 145.547954 
L 446.403271 147.203326 
L 447.120405 148.396343 
L 447.837539 149.116416 
L 448.554673 149.357152 
L 449.271807 149.116416 
L 449.988941 148.396343 
L 450.706076 147.203326 
L 451.42321 145.547954 
L 452.140344 143.44492 
L 453.574612 137.97434 
L 455.00888 130.985384 
L 456.443148 122.72564 
L 458.59455 108.603156 
L 464.331623 68.981044 
L 465.765891 60.536878 
L 467.200159 53.317597 
L 468.634427 47.578948 
L 469.351562 45.33065 
L 470.068696 43.524225 
L 470.78583 42.175708 
L 471.502964 41.297069 
L 472.220098 40.896105 
L 472.937232 40.976377 
L 473.654366 41.537172 
L 474.3715 42.573511 
L 475.088634 44.076197 
L 475.805768 46.031892 
L 476.522902 48.423236 
L 477.95717 54.424291 
L 479.391439 61.866773 
L 480.825707 70.487027 
L 482.977109 84.948951 
L 487.997048 119.739464 
L 489.431316 128.359718 
L 490.865584 135.8022 
L 492.299852 141.803255 
L 493.016986 144.194599 
L 493.73412 146.150294 
L 494.451254 147.65298 
L 495.168388 148.689319 
L 495.885522 149.250114 
L 496.602656 149.330386 
L 497.319791 148.929422 
L 498.036925 148.050783 
L 498.754059 146.702266 
L 499.471193 144.895842 
L 500.188327 142.647543 
L 501.622595 136.908894 
L 503.056863 129.689613 
L 504.491131 121.245447 
L 506.642534 106.946187 
L 511.662472 72.017313 
L 513.09674 63.229477 
L 514.531008 55.57114 
L 515.965277 49.313601 
L 516.682411 46.781571 
L 517.399545 44.678537 
L 518.116679 43.023165 
L 518.833813 41.830148 
L 519.550947 41.110076 
L 520.268081 40.869339 
L 520.985215 41.110076 
L 521.702349 41.830148 
L 522.419483 43.023165 
L 523.136617 44.678537 
L 523.853751 46.781571 
L 525.28802 52.252151 
L 526.722288 59.241107 
L 528.156556 67.500851 
L 530.307958 81.623335 
L 536.045031 121.245447 
L 537.479299 129.689613 
L 538.913567 136.908894 
L 540.347835 142.647543 
L 541.064969 144.895842 
L 541.782103 146.702266 
L 542.499237 148.050783 
L 543.216372 148.929422 
L 543.933506 149.330386 
L 544.65064 149.250114 
L 545.367774 148.689319 
L 546.084908 147.65298 
L 546.802042 146.150294 
L 547.519176 144.194599 
L 548.23631 141.803255 
L 549.670578 135.8022 
L 551.104846 128.359718 
L 552.539115 119.739464 
L 554.690517 105.27754 
L 559.710455 70.487027 
L 561.144723 61.866773 
L 562.578992 54.424291 
L 564.01326 48.423236 
L 564.730394 46.031892 
L 565.447528 44.076197 
L 566.164662 42.573511 
L 566.881796 41.537172 
L 567.59893 40.976377 
L 568.316064 40.896105 
L 569.033198 41.297069 
L 569.750332 42.175708 
L 570.467466 43.524225 
L 571.184601 45.33065 
L 571.901735 47.578948 
L 573.336003 53.317597 
L 574.770271 60.536878 
L 576.204539 68.981044 
L 578.355941 83.280304 
L 583.37588 118.209178 
L 584.810148 126.997014 
L 586.244416 134.655351 
L 587.678684 140.91289 
L 588.395818 143.44492 
L 589.112952 145.547954 
L 589.830087 147.203326 
L 590.547221 148.396343 
L 591.264355 149.116416 
L 591.981489 149.357152 
L 592.698623 149.116416 
L 593.415757 148.396343 
L 594.132891 147.203326 
L 594.850025 145.547954 
L 595.567159 143.44492 
L 597.001427 137.97434 
L 598.435695 130.985384 
L 599.869964 122.72564 
L 602.021366 108.603156 
L 607.758439 68.981044 
L 609.192707 60.536878 
L 610.626975 53.317597 
L 612.061243 47.578948 
L 612.778377 45.33065 
L 613.495511 43.524225 
L 614.212645 42.175708 
L 614.929779 41.297069 
L 615.646913 40.896105 
L 616.364047 40.976377 
L 617.081182 41.537172 
L 617.798316 42.573511 
L 618.51545 44.076197 
L 619.232584 46.031892 
L 619.949718 48.423236 
L 621.383986 54.424291 
L 622.818254 61.866773 
L 624.252522 70.487027 
L 626.403925 84.948951 
L 631.423863 119.739464 
L 632.858131 128.359718 
L 634.292399 135.8022 
L 635.726668 141.803255 
L 636.443802 144.194599 
L 637.160936 146.150294 
L 637.87807 147.65298 
L 638.595204 148.689319 
L 639.312338 149.250114 
L 640.029472 149.330386 
L 640.746606 148.929422 
L 641.46374 148.050783 
L 642.180874 146.702266 
L 642.898008 144.895842 
L 643.615142 142.647543 
L 645.049411 136.908894 
L 646.483679 129.689613 
L 647.917947 121.245447 
L 650.069349 106.946187 
L 655.089288 72.017313 
L 656.523556 63.229477 
L 657.957824 55.57114 
L 659.392092 49.313601 
L 660.109226 46.781571 
L 660.82636 44.678537 
L 661.543494 43.023165 
L 662.260628 41.830148 
L 662.977762 41.110076 
L 663.694897 40.869339 
L 664.412031 41.110076 
L 665.129165 41.830148 
L 665.846299 43.023165 
L 666.563433 44.678537 
L 667.280567 46.781571 
L 668.714835 52.252151 
L 670.149103 59.241107 
L 671.583371 67.500851 
L 673.734774 81.623335 
L 679.471846 121.245447 
L 680.906114 129.689613 
L 682.340383 136.908894 
L 683.774651 142.647543 
L 684.491785 144.895842 
L 685.208919 146.702266 
L 685.926053 148.050783 
L 686.643187 148.929422 
L 687.360321 149.330386 
L 688.077455 149.250114 
L 688.794589 148.689319 
L 689.511723 147.65298 
L 690.228857 146.150294 
L 690.945991 144.194599 
L 691.663126 141.803255 
L 693.097394 135.8022 
L 694.531662 128.359718 
L 695.96593 119.739464 
L 698.117332 105.27754 
L 703.137271 70.487027 
L 704.571539 61.866773 
L 706.005807 54.424291 
L 707.440075 48.423236 
L 708.157209 46.031892 
L 708.874343 44.076197 
L 709.591478 42.573511 
L 710.308612 41.537172 
L 711.025746 40.976377 
L 711.74288 40.896105 
L 712.460014 41.297069 
L 713.177148 42.175708 
L 713.894282 43.524225 
L 714.611416 45.33065 
L 715.32855 47.578948 
L 716.762818 53.317597 
L 718.197086 60.536878 
L 719.631355 68.981044 
L 721.782757 83.280304 
L 726.802695 118.209178 
L 728.236964 126.997014 
L 729.671232 134.655351 
L 731.1055 140.91289 
L 731.822634 143.44492 
L 732.539768 145.547954 
L 733.256902 147.203326 
L 733.974036 148.396343 
L 734.69117 149.116416 
L 735.408304 149.357152 
L 736.125438 149.116416 
L 736.842572 148.396343 
L 737.559707 147.203326 
L 738.276841 145.547954 
L 738.993975 143.44492 
L 740.428243 137.97434 
L 741.862511 130.985384 
L 743.296779 122.72564 
L 745.448181 108.603156 
L 751.185254 68.981044 
L 752.619522 60.536878 
L 754.05379 53.317597 
L 755.488058 47.578948 
L 756.205193 45.33065 
L 756.922327 43.524225 
L 757.639461 42.175708 
L 758.356595 41.297069 
L 759.073729 40.896105 
L 759.790863 40.976377 
L 760.507997 41.537172 
L 761.225131 42.573511 
L 761.942265 44.076197 
L 762.659399 46.031892 
L 763.376533 48.423236 
L 764.810801 54.424291 
L 766.24507 61.866773 
L 767.679338 70.487027 
L 769.83074 84.948951 
L 774.850679 119.739464 
L 776.284947 128.359718 
L 777.719215 135.8022 
L 779.153483 141.803255 
L 779.870617 144.194599 
L 780.587751 146.150294 
L 781.304885 147.65298 
L 782.022019 148.689319 
L 782.739153 149.250114 
L 783.456287 149.330386 
L 784.173422 148.929422 
L 784.890556 148.050783 
L 785.60769 146.702266 
L 786.324824 144.895842 
L 787.041958 142.647543 
L 788.476226 136.908894 
L 789.910494 129.689613 
L 791.344762 121.245447 
L 793.496165 106.946187 
L 798.516103 72.017313 
L 799.950371 63.229477 
L 801.384639 55.57114 
L 802.818908 49.313601 
L 803.536042 46.781571 
L 804.253176 44.678537 
L 804.97031 43.023165 
L 805.687444 41.830148 
L 806.404578 41.110076 
L 807.121712 40.869339 
L 807.838846 41.110076 
L 808.55598 41.830148 
L 809.273114 43.023165 
L 809.990248 44.678537 
L 810.707382 46.781571 
L 812.141651 52.252151 
L 813.575919 59.241107 
L 815.010187 67.500851 
L 817.161589 81.623335 
L 822.898662 121.245447 
L 824.33293 129.689613 
L 825.767198 136.908894 
L 827.201466 142.647543 
L 827.9186 144.895842 
L 828.635734 146.702266 
L 829.352868 148.050783 
L 830.070003 148.929422 
L 830.787137 149.330386 
L 831.504271 149.250114 
L 832.221405 148.689319 
L 832.938539 147.65298 
L 833.655673 146.150294 
L 834.372807 144.194599 
L 835.089941 141.803255 
L 836.524209 135.8022 
L 837.958477 128.359718 
L 839.392746 119.739464 
L 841.544148 105.27754 
L 846.564086 70.487027 
L 847.998354 61.866773 
L 849.432623 54.424291 
L 850.866891 48.423236 
L 851.584025 46.031892 
L 852.301159 44.076197 
L 853.018293 42.573511 
L 853.735427 41.537172 
L 854.452561 40.976377 
L 855.169695 40.896105 
L 855.886829 41.297069 
L 856.603963 42.175708 
L 857.321097 43.524225 
L 858.038232 45.33065 
L 858.755366 47.578948 
L 860.189634 53.317597 
L 861.623902 60.536878 
L 863.05817 68.981044 
L 865.209572 83.280304 
L 870.229511 118.209178 
L 871.663779 126.997014 
L 873.098047 134.655351 
L 874.532315 140.91289 
L 875.249449 143.44492 
L 875.966583 145.547954 
L 876.683718 147.203326 
L 877.400852 148.396343 
L 878.117986 149.116416 
L 878.83512 149.357152 
L 879.552254 149.116416 
L 880.269388 148.396343 
L 880.986522 147.203326 
L 881.703656 145.547954 
L 882.42079 143.44492 
L 883.855058 137.97434 
L 885.289326 130.985384 
L 886.723595 122.72564 
L 888.874997 108.603156 
L 894.612069 68.981044 
L 896.046338 60.536878 
L 897.480606 53.317597 
L 898.914874 47.578948 
L 899.632008 45.33065 
L 900.349142 43.524225 
L 901.066276 42.175708 
L 901.78341 41.297069 
L 902.500544 40.896105 
L 903.217678 40.976377 
L 903.934813 41.537172 
L 904.651947 42.573511 
L 905.369081 44.076197 
L 906.086215 46.031892 
L 906.803349 48.423236 
L 908.237617 54.424291 
L 909.671885 61.866773 
L 911.106153 70.487027 
L 913.257556 84.948951 
L 918.277494 119.739464 
L 919.711762 128.359718 
L 921.14603 135.8022 
L 922.580299 141.803255 
L 923.297433 144.194599 
L 924.014567 146.150294 
L 924.731701 147.65298 
L 925.448835 148.689319 
L 926.165969 149.250114 
L 926.883103 149.330386 
L 927.600237 148.929422 
L 928.317371 148.050783 
L 929.034505 146.702266 
L 929.751639 144.895842 
L 930.468773 142.647543 
L 931.903042 136.908894 
L 933.33731 129.689613 
L 934.771578 121.245447 
L 936.92298 106.946187 
L 941.942919 72.017313 
L 943.377187 63.229477 
L 944.811455 55.57114 
L 946.245723 49.313601 
L 946.962857 46.781571 
L 947.679991 44.678537 
L 948.397125 43.023165 
L 949.114259 41.830148 
L 949.831393 41.110076 
L 950.548528 40.869339 
L 950.548528 40.869339 
" clip-path="url(#pab8411e6e2)" style="fill: none; stroke: #e36f47; stroke-width: 6"/>
   </g>
   <g id="patch_3">
    <path d="M 64.170808 153.505354 
L 64.170808 6.935535 
" style="fill: none; stroke: #000000; stroke-width: 2; stroke-linejoin: miter; stroke-linecap: square"/>
   </g>
   <g id="patch_4">
    <path d="M 64.170808 153.505354 
L 976.365354 153.505354 
" style="fill: none; stroke: #000000; stroke-width: 2; stroke-linejoin: miter; stroke-linecap: square"/>
   </g>
   <g id="line2d_14">
    <path d="M 89.987635 27.308363 
L 98.593243 31.257012 
L 107.198852 34.975709 
L 116.521595 38.760317 
L 125.844338 42.30675 
L 135.884216 45.876795 
L 145.924093 49.205483 
L 149.509763 50.33895 
L 150.226897 23.572061 
L 158.832506 27.738296 
L 167.438115 31.661907 
L 176.760858 35.655061 
L 186.083601 39.396915 
L 195.406344 42.903285 
L 204.011953 45.943757 
L 204.729087 19.068157 
L 213.334696 23.496678 
L 221.940305 27.667302 
L 230.545914 31.595048 
L 239.868657 35.59241 
L 249.1914 39.338207 
L 258.514143 42.848271 
L 268.55402 46.381707 
L 277.876763 49.448506 
L 278.593897 22.567368 
L 287.199506 26.792111 
L 295.805115 30.770825 
L 304.410724 34.517835 
L 313.733467 38.331258 
L 323.05621 41.904693 
L 333.096087 45.50192 
L 338.833159 47.447208 
L 339.550294 20.616242 
L 348.155902 24.95461 
L 356.761511 29.040331 
L 365.36712 32.888118 
L 374.689863 36.804103 
L 384.012606 40.473645 
L 392.618215 43.655608 
L 393.335349 16.906658 
L 401.940958 21.461055 
L 410.546567 25.750225 
L 419.152176 29.789613 
L 427.757785 33.593765 
L 437.080528 37.465342 
L 446.403271 41.093271 
L 448.554673 41.897523 
L 449.271807 15.05734 
L 457.160282 19.34152 
L 465.765891 23.754122 
L 474.3715 27.909754 
L 482.977109 31.823381 
L 492.299852 35.806372 
L 501.622595 39.538704 
L 510.945338 43.036151 
L 520.985215 46.556885 
L 523.853751 47.518365 
L 524.570886 20.700833 
L 533.176494 25.034275 
L 541.782103 29.115356 
L 550.387712 32.958774 
L 559.710455 36.870313 
L 569.033198 40.535688 
L 578.355941 43.970392 
L 579.073075 44.225468 
L 579.790209 17.357599 
L 588.395818 21.885735 
L 597.001427 26.150173 
L 605.607036 30.16627 
L 614.212645 33.948487 
L 623.535388 37.797741 
L 631.423863 40.864971 
L 632.140997 14.01838 
L 640.029472 18.35816 
L 648.635081 22.828028 
L 657.24069 27.037591 
L 665.846299 31.002009 
L 674.451908 34.735557 
L 683.774651 38.535278 
L 685.926053 39.377614 
L 686.643187 12.552253 
L 694.531662 16.970492 
L 703.137271 21.521172 
L 711.74288 25.806841 
L 720.348489 29.842932 
L 728.954098 33.643979 
L 738.276841 37.512396 
L 747.599584 41.137363 
L 756.922327 44.534202 
L 759.790863 45.535735 
L 760.507997 18.694674 
L 769.113606 23.144945 
L 777.719215 27.336052 
L 786.324824 31.283089 
L 794.930433 35.000268 
L 804.253176 38.78333 
L 813.575919 42.328314 
L 817.161589 43.631579 
L 817.878723 16.845945 
L 826.484332 21.403878 
L 835.089941 25.696377 
L 843.69555 29.738901 
L 852.301159 33.546006 
L 861.623902 37.420589 
L 868.795243 40.234293 
L 869.512377 13.41572 
L 877.400852 17.787751 
L 886.006461 22.290838 
L 894.612069 26.531684 
L 903.217678 30.525564 
L 911.823287 34.286857 
L 920.428896 37.82911 
L 921.14603 11.083737 
L 929.034505 15.580564 
L 936.92298 19.836744 
L 945.528589 24.220506 
L 950.548528 26.658832 
L 950.548528 26.658832 
" clip-path="url(#pab8411e6e2)" style="fill: none; stroke: #3ea44e; stroke-width: 6"/>
   </g>
   <g id="line2d_15">
    <path d="M 89.987635 13.747386 
L 950.548528 13.747386 
L 950.548528 13.747386 
" clip-path="url(#pab8411e6e2)" style="fill: none; stroke: #9b7fe9; stroke-width: 6"/>
   </g>
  </g>
 </g>
 <defs>
  <clipPath id="pab8411e6e2">
   <rect x="64.170808" y="6.935535" width="912.194547" height="146.56982"/>
  </clipPath>
 </defs>
</svg>
