<?xml version="1.0" encoding="utf-8" standalone="no"?>
<!DOCTYPE svg PUBLIC "-//W3C//DTD SVG 1.1//EN"
  "http://www.w3.org/Graphics/SVG/1.1/DTD/svg11.dtd">
<svg xmlns:xlink="http://www.w3.org/1999/xlink" width="794.88pt" height="149.76pt" viewBox="0 0 794.88 149.76" xmlns="http://www.w3.org/2000/svg" version="1.1">
 <metadata>
  <rdf:RDF xmlns:dc="http://purl.org/dc/elements/1.1/" xmlns:cc="http://creativecommons.org/ns#" xmlns:rdf="http://www.w3.org/1999/02/22-rdf-syntax-ns#">
   <cc:Work>
    <dc:type rdf:resource="http://purl.org/dc/dcmitype/StillImage"/>
    <dc:date>2024-04-27T16:44:24.151759</dc:date>
    <dc:format>image/svg+xml</dc:format>
    <dc:creator>
     <cc:Agent>
      <dc:title>Matplotlib v3.7.0, https://matplotlib.org/</dc:title>
     </cc:Agent>
    </dc:creator>
   </cc:Work>
  </rdf:RDF>
 </metadata>
 <defs>
  <style type="text/css">*{stroke-linejoin: round; stroke-linecap: butt}</style>
 </defs>
 <g id="figure_1">
  <g id="patch_1">
   <path d="M 0 149.76 
L 794.88 149.76 
L 794.88 0 
L 0 0 
L 0 149.76 
z
" style="fill: none"/>
  </g>
  <g id="axes_1">
   <g id="patch_2">
    <path d="M 41.316477 116.065354 
L 792.045354 116.065354 
L 792.045354 2.834646 
L 41.316477 2.834646 
L 41.316477 116.065354 
z
" style="fill: none"/>
   </g>
   <g id="line2d_1">
    <path d="M 62.56352 66.980412 
L 64.688225 63.932492 
L 66.63587 61.51884 
L 68.406457 59.666718 
L 70.088515 58.225231 
L 71.682043 57.15496 
L 73.187042 56.412852 
L 74.603512 55.954432 
L 76.019981 55.728134 
L 77.259392 55.74312 
L 78.144686 55.982554 
L 79.118509 56.485345 
L 80.180861 57.309428 
L 81.331742 58.510348 
L 82.571153 60.137918 
L 83.987623 62.383956 
L 85.581151 65.341926 
L 87.528797 69.466181 
L 90.007619 75.297741 
L 99.480259 98.215243 
L 101.516434 102.279543 
L 103.287021 105.352962 
L 104.880549 107.705941 
L 106.385548 109.541026 
L 107.713488 110.833209 
L 108.952899 111.755247 
L 110.19231 112.399678 
L 111.343192 112.749119 
L 112.494073 112.860625 
L 113.644955 112.737918 
L 114.795836 112.386524 
L 116.035247 111.760647 
L 117.363187 110.81757 
L 118.779657 109.518521 
L 120.284656 107.830971 
L 121.966713 105.605761 
L 123.914359 102.639025 
L 126.127593 98.849823 
L 128.960532 93.526554 
L 133.829646 83.797691 
L 138.167584 75.330903 
L 141.000523 70.276394 
L 143.390816 66.456321 
L 145.51552 63.475999 
L 147.374637 61.228685 
L 149.145224 59.425603 
L 150.827281 58.032603 
L 152.420809 57.009372 
L 153.925808 56.312182 
L 155.342278 55.896072 
L 156.758748 55.711757 
L 157.909629 55.772536 
L 158.794923 56.052041 
L 159.768745 56.597532 
L 160.831098 57.466159 
L 161.981979 58.712481 
L 163.22139 60.385125 
L 164.63786 62.677231 
L 166.319917 65.857866 
L 168.267563 70.046106 
L 170.834914 76.147374 
L 179.422261 97.055689 
L 181.546965 101.42589 
L 183.406082 104.762198 
L 185.088139 107.331205 
L 186.593138 109.236271 
L 188.009608 110.671838 
L 189.337548 111.693349 
L 190.576959 112.359462 
L 191.72784 112.728979 
L 192.878722 112.860334 
L 194.029603 112.757093 
L 195.180485 112.424636 
L 196.419896 111.818403 
L 197.659307 110.965389 
L 199.075776 109.70474 
L 200.580775 108.054672 
L 202.262833 105.866893 
L 204.121949 103.078585 
L 206.335183 99.338805 
L 209.079593 94.229211 
L 213.417531 85.595243 
L 218.463704 75.677436 
L 221.296643 70.590648 
L 223.686935 66.735363 
L 225.81164 63.718723 
L 227.759285 61.336679 
L 229.529872 59.515166 
L 231.21193 58.103956 
L 232.805458 57.06307 
L 234.310457 56.349031 
L 235.726927 55.917058 
L 237.143396 55.71701 
L 238.294278 55.754778 
L 239.179571 56.01141 
L 240.153394 56.532535 
L 241.215746 57.375754 
L 242.366628 58.596189 
L 243.606039 60.243147 
L 245.022508 62.509017 
L 246.616037 65.486042 
L 248.563682 69.628563 
L 251.042504 75.47503 
L 260.338086 97.992771 
L 262.374261 102.083837 
L 264.144848 105.184366 
L 265.738376 107.564125 
L 267.243375 109.426038 
L 268.571315 110.742751 
L 269.810726 111.688115 
L 271.050137 112.356035 
L 272.201018 112.727225 
L 273.3519 112.860235 
L 274.502781 112.758619 
L 275.653663 112.427741 
L 276.893074 111.823148 
L 278.132485 110.971698 
L 279.548954 109.712726 
L 281.053953 108.064298 
L 282.736011 105.87816 
L 284.595127 103.091408 
L 286.808361 99.353107 
L 289.552771 94.244765 
L 293.802179 85.789865 
L 298.848352 75.858917 
L 301.769821 70.604367 
L 304.160113 66.747562 
L 306.284818 63.729352 
L 308.232463 61.345722 
L 310.00305 59.522676 
L 311.685108 58.10995 
L 313.278636 57.067593 
L 314.783635 56.35215 
L 316.200105 55.918855 
L 317.616574 55.717496 
L 318.767456 55.753413 
L 319.652749 56.008135 
L 320.626572 56.527226 
L 321.688924 57.368322 
L 322.839806 58.586593 
L 324.079217 60.231401 
L 325.495686 62.495075 
L 327.089215 65.469991 
L 329.03686 69.610492 
L 331.515682 75.455317 
L 340.811264 97.975607 
L 342.847439 102.06872 
L 344.618026 105.171327 
L 346.211554 107.55314 
L 347.716553 109.417114 
L 349.133022 110.812508 
L 350.372433 111.739931 
L 351.611844 112.389783 
L 352.762726 112.744241 
L 353.913607 112.860707 
L 355.064489 112.742863 
L 356.21537 112.396199 
L 357.454781 111.775226 
L 358.782721 110.837146 
L 360.199191 109.543084 
L 361.70419 107.860398 
L 363.386248 105.64004 
L 365.333893 102.67809 
L 367.547127 98.893178 
L 370.380066 93.573558 
L 375.24918 83.846176 
L 379.587118 75.376005 
L 382.420058 70.317243 
L 384.81035 66.492548 
L 386.935054 63.507469 
L 388.8827 61.157234 
L 390.653287 59.366467 
L 392.335345 57.985624 
L 393.840344 57.022696 
L 395.345342 56.321293 
L 396.761812 55.901217 
L 398.178282 55.712971 
L 399.329163 55.76786 
L 400.214457 56.041653 
L 401.188279 56.581061 
L 402.250632 57.443347 
L 403.401513 58.683212 
L 404.640924 60.349452 
L 406.057394 62.635021 
L 407.739451 65.809082 
L 409.687097 69.991438 
L 412.254448 76.087892 
L 420.930324 97.195809 
L 423.055029 101.54952 
L 424.914145 104.86869 
L 426.596203 107.420493 
L 428.101202 109.309148 
L 429.517671 110.728661 
L 430.757082 111.677611 
L 431.996493 112.349144 
L 433.147374 112.723682 
L 434.298256 112.860003 
L 435.449137 112.761635 
L 436.600019 112.433919 
L 437.83943 111.832608 
L 439.078841 110.984286 
L 440.49531 109.728672 
L 442.000309 108.083526 
L 443.682367 105.90067 
L 445.541483 103.117033 
L 447.754717 99.381697 
L 450.499127 94.275865 
L 454.748536 85.822304 
L 459.883238 75.722763 
L 462.716177 70.631819 
L 465.106469 66.771978 
L 467.231174 63.750628 
L 469.178819 61.36383 
L 470.949406 59.537717 
L 472.631464 58.12196 
L 474.224992 57.076663 
L 475.729991 56.358412 
L 477.146461 55.922473 
L 478.56293 55.71849 
L 479.713812 55.750734 
L 480.599105 56.001637 
L 481.572928 56.516657 
L 482.63528 57.353504 
L 483.786162 58.567444 
L 485.025573 60.207951 
L 486.442042 62.467225 
L 488.035571 65.437916 
L 489.983216 69.574372 
L 492.462038 75.415901 
L 501.846149 98.129823 
L 503.882324 102.20445 
L 505.652911 105.288318 
L 507.246439 107.651612 
L 508.751438 109.497025 
L 510.079378 110.798649 
L 511.318789 111.729661 
L 512.5582 112.383127 
L 513.709082 112.740931 
L 514.859963 112.860705 
L 516.010845 112.746104 
L 517.161726 112.402594 
L 518.401137 111.784894 
L 519.729078 110.850147 
L 521.145547 109.559414 
L 522.650546 107.879975 
L 524.332604 105.662856 
L 526.280249 102.704103 
L 528.493483 98.922059 
L 531.326422 93.604882 
L 536.107007 84.056357 
L 540.533474 75.406089 
L 543.366414 70.3445 
L 545.756706 66.516729 
L 547.88141 63.528481 
L 549.829056 61.175056 
L 551.599643 59.381208 
L 553.281701 57.997324 
L 554.7867 57.031615 
L 556.291699 56.327404 
L 557.708168 55.904685 
L 559.124638 55.713816 
L 560.275519 55.76483 
L 561.160813 56.034812 
L 562.134636 56.570162 
L 563.196988 57.428217 
L 564.347869 58.663772 
L 565.58728 60.325736 
L 567.00375 62.606939 
L 568.597278 65.598672 
L 570.544924 69.755254 
L 573.023745 75.613125 
L 582.230798 97.924071 
L 584.266973 102.023317 
L 586.126089 105.275359 
L 587.719617 107.640713 
L 589.224616 109.488191 
L 590.552557 110.791702 
L 591.791967 111.724509 
L 593.031378 112.379781 
L 594.18226 112.739258 
L 595.333141 112.860686 
L 596.484023 112.747707 
L 597.634904 112.405775 
L 598.874315 111.789712 
L 600.202256 110.856633 
L 601.618725 109.567565 
L 603.123724 107.88975 
L 604.805782 105.674253 
L 606.753427 102.7171 
L 608.966661 98.936492 
L 611.7996 93.620541 
L 616.580185 84.07253 
L 621.006652 75.421136 
L 623.839592 70.358135 
L 626.229884 66.528827 
L 628.354588 63.538996 
L 630.302234 61.183977 
L 632.072821 59.388589 
L 633.754879 58.003186 
L 635.259878 57.036086 
L 636.764877 56.330471 
L 638.181346 55.90643 
L 639.597816 55.71425 
L 640.748697 55.763341 
L 641.633991 56.031418 
L 642.607814 56.564737 
L 643.670166 57.420676 
L 644.821047 58.654073 
L 646.060458 60.313898 
L 647.476928 62.592915 
L 649.070456 65.582554 
L 651.018102 69.737134 
L 653.496923 75.593387 
L 662.703976 97.906877 
L 664.740151 102.008165 
L 666.599267 105.26239 
L 668.192795 107.629804 
L 669.697794 109.479346 
L 671.025735 110.784744 
L 672.265145 111.719345 
L 673.504556 112.376424 
L 674.655438 112.737574 
L 675.806319 112.860656 
L 676.957201 112.7493 
L 678.108082 112.408946 
L 679.347493 111.79452 
L 680.675434 110.863109 
L 682.091903 109.575707 
L 683.596902 107.899518 
L 685.27896 105.685643 
L 687.226605 102.730092 
L 689.439839 98.950922 
L 692.272778 93.636196 
L 697.053363 84.088704 
L 701.479831 75.436186 
L 704.31277 70.371775 
L 706.703062 66.540931 
L 708.827766 63.549518 
L 710.775412 61.192905 
L 712.545999 59.395978 
L 714.228057 58.009055 
L 715.733056 57.040565 
L 717.238055 56.333546 
L 718.654524 55.908182 
L 720.070994 55.714692 
L 721.221875 55.76187 
L 722.107169 56.028041 
L 723.080992 56.559329 
L 724.143344 57.41315 
L 725.294225 58.64439 
L 726.533636 60.302074 
L 727.950106 62.578906 
L 729.543634 65.566448 
L 731.49128 69.719027 
L 733.970102 75.573657 
L 743.177154 97.889672 
L 745.213329 101.993 
L 747.072445 105.249406 
L 748.665973 107.618881 
L 750.170972 109.470487 
L 751.498913 110.777773 
L 752.738323 111.714168 
L 753.977734 112.373055 
L 755.128616 112.735879 
L 756.279497 112.860615 
L 757.430379 112.750881 
L 758.58126 112.412105 
L 759.820671 111.799315 
L 761.148612 110.869572 
L 762.565081 109.583836 
L 764.07008 107.909272 
L 765.752138 105.69702 
L 767.699783 102.74307 
L 769.913017 98.965339 
L 770.798311 97.50162 
L 770.798311 97.50162 
" clip-path="url(#pfb1a36bf97)" style="fill: none; stroke: #009afa; stroke-width: 6"/>
   </g>
   <g id="matplotlib.axis_1">
    <g id="xtick_1">
     <g id="line2d_2">
      <defs>
       <path id="m0e7eb1b8d7" d="M 0 0 
L 0 -5 
" style="stroke: #000000"/>
      </defs>
      <g>
       <use xlink:href="#m0e7eb1b8d7" x="62.56352" y="116.065354" style="stroke: #000000"/>
      </g>
     </g>
     <g id="text_1">
      <!-- $0$ -->
      <g transform="translate(55.56352 140.840979) scale(0.28 -0.28)">
       <defs>
        <path id="Cmr10-30" d="M 1600 -141 
Q 816 -141 533 504 
Q 250 1150 250 2041 
Q 250 2597 351 3087 
Q 453 3578 754 3920 
Q 1056 4263 1600 4263 
Q 2022 4263 2290 4056 
Q 2559 3850 2700 3523 
Q 2841 3197 2892 2823 
Q 2944 2450 2944 2041 
Q 2944 1491 2842 1011 
Q 2741 531 2444 195 
Q 2147 -141 1600 -141 
z
M 1600 25 
Q 1956 25 2131 390 
Q 2306 756 2347 1200 
Q 2388 1644 2388 2144 
Q 2388 2625 2347 3031 
Q 2306 3438 2132 3767 
Q 1959 4097 1600 4097 
Q 1238 4097 1063 3765 
Q 888 3434 847 3029 
Q 806 2625 806 2144 
Q 806 1788 823 1472 
Q 841 1156 916 820 
Q 991 484 1158 254 
Q 1325 25 1600 25 
z
" transform="scale(0.015625)"/>
       </defs>
       <use xlink:href="#Cmr10-30" transform="translate(0 0.390625)"/>
      </g>
     </g>
    </g>
    <g id="xtick_2">
     <g id="line2d_3">
      <g>
       <use xlink:href="#m0e7eb1b8d7" x="239.622218" y="116.065354" style="stroke: #000000"/>
      </g>
     </g>
     <g id="text_2">
      <!-- $1$ -->
      <g transform="translate(232.622218 140.840979) scale(0.28 -0.28)">
       <defs>
        <path id="Cmr10-31" d="M 594 0 
L 594 225 
Q 1394 225 1394 428 
L 1394 3788 
Q 1063 3628 556 3628 
L 556 3853 
Q 1341 3853 1741 4263 
L 1831 4263 
Q 1853 4263 1873 4245 
Q 1894 4228 1894 4206 
L 1894 428 
Q 1894 225 2694 225 
L 2694 0 
L 594 0 
z
" transform="scale(0.015625)"/>
       </defs>
       <use xlink:href="#Cmr10-31" transform="translate(0 0.390625)"/>
      </g>
     </g>
    </g>
    <g id="xtick_3">
     <g id="line2d_4">
      <g>
       <use xlink:href="#m0e7eb1b8d7" x="416.680916" y="116.065354" style="stroke: #000000"/>
      </g>
     </g>
     <g id="text_3">
      <!-- $2$ -->
      <g transform="translate(409.680916 140.840979) scale(0.28 -0.28)">
       <defs>
        <path id="Cmr10-32" d="M 319 0 
L 319 172 
Q 319 188 331 206 
L 1325 1306 
Q 1550 1550 1690 1715 
Q 1831 1881 1968 2097 
Q 2106 2313 2186 2536 
Q 2266 2759 2266 3009 
Q 2266 3272 2169 3511 
Q 2072 3750 1880 3894 
Q 1688 4038 1416 4038 
Q 1138 4038 916 3870 
Q 694 3703 603 3438 
Q 628 3444 672 3444 
Q 816 3444 917 3347 
Q 1019 3250 1019 3097 
Q 1019 2950 917 2848 
Q 816 2747 672 2747 
Q 522 2747 420 2851 
Q 319 2956 319 3097 
Q 319 3338 409 3548 
Q 500 3759 670 3923 
Q 841 4088 1055 4175 
Q 1269 4263 1509 4263 
Q 1875 4263 2190 4108 
Q 2506 3953 2690 3670 
Q 2875 3388 2875 3009 
Q 2875 2731 2753 2481 
Q 2631 2231 2440 2026 
Q 2250 1822 1953 1562 
Q 1656 1303 1563 1216 
L 838 519 
L 1453 519 
Q 1906 519 2211 526 
Q 2516 534 2534 550 
Q 2609 631 2688 1141 
L 2875 1141 
L 2694 0 
L 319 0 
z
" transform="scale(0.015625)"/>
       </defs>
       <use xlink:href="#Cmr10-32" transform="translate(0 0.390625)"/>
      </g>
     </g>
    </g>
    <g id="xtick_4">
     <g id="line2d_5">
      <g>
       <use xlink:href="#m0e7eb1b8d7" x="593.739613" y="116.065354" style="stroke: #000000"/>
      </g>
     </g>
     <g id="text_4">
      <!-- $3$ -->
      <g transform="translate(586.739613 140.840979) scale(0.28 -0.28)">
       <defs>
        <path id="Cmr10-33" d="M 609 494 
Q 759 275 1012 169 
Q 1266 63 1556 63 
Q 1928 63 2084 380 
Q 2241 697 2241 1100 
Q 2241 1281 2208 1462 
Q 2175 1644 2097 1800 
Q 2019 1956 1883 2050 
Q 1747 2144 1550 2144 
L 1125 2144 
Q 1069 2144 1069 2203 
L 1069 2259 
Q 1069 2309 1125 2309 
L 1478 2338 
Q 1703 2338 1851 2506 
Q 2000 2675 2069 2917 
Q 2138 3159 2138 3378 
Q 2138 3684 1994 3881 
Q 1850 4078 1556 4078 
Q 1313 4078 1091 3986 
Q 869 3894 738 3706 
Q 750 3709 759 3711 
Q 769 3713 781 3713 
Q 925 3713 1022 3613 
Q 1119 3513 1119 3372 
Q 1119 3234 1022 3134 
Q 925 3034 781 3034 
Q 641 3034 541 3134 
Q 441 3234 441 3372 
Q 441 3647 606 3850 
Q 772 4053 1033 4158 
Q 1294 4263 1556 4263 
Q 1750 4263 1965 4205 
Q 2181 4147 2356 4039 
Q 2531 3931 2642 3762 
Q 2753 3594 2753 3378 
Q 2753 3109 2633 2881 
Q 2513 2653 2303 2487 
Q 2094 2322 1844 2241 
Q 2122 2188 2372 2031 
Q 2622 1875 2773 1631 
Q 2925 1388 2925 1106 
Q 2925 753 2731 467 
Q 2538 181 2222 20 
Q 1906 -141 1556 -141 
Q 1256 -141 954 -26 
Q 653 88 461 316 
Q 269 544 269 863 
Q 269 1022 375 1128 
Q 481 1234 641 1234 
Q 744 1234 830 1186 
Q 916 1138 964 1050 
Q 1013 963 1013 863 
Q 1013 706 903 600 
Q 794 494 641 494 
L 609 494 
z
" transform="scale(0.015625)"/>
       </defs>
       <use xlink:href="#Cmr10-33" transform="translate(0 0.390625)"/>
      </g>
     </g>
    </g>
    <g id="xtick_5">
     <g id="line2d_6">
      <g>
       <use xlink:href="#m0e7eb1b8d7" x="770.798311" y="116.065354" style="stroke: #000000"/>
      </g>
     </g>
     <g id="text_5">
      <!-- $4$ -->
      <g transform="translate(763.798311 140.840979) scale(0.28 -0.28)">
       <defs>
        <path id="Cmr10-34" d="M 178 1056 
L 178 1281 
L 2156 4231 
Q 2178 4263 2222 4263 
L 2316 4263 
Q 2388 4263 2388 4191 
L 2388 1281 
L 3016 1281 
L 3016 1056 
L 2388 1056 
L 2388 428 
Q 2388 297 2575 261 
Q 2763 225 3009 225 
L 3009 0 
L 1247 0 
L 1247 225 
Q 1494 225 1681 261 
Q 1869 297 1869 428 
L 1869 1056 
L 178 1056 
z
M 391 1281 
L 1906 1281 
L 1906 3547 
L 391 1281 
z
" transform="scale(0.015625)"/>
       </defs>
       <use xlink:href="#Cmr10-34" transform="translate(0 0.390625)"/>
      </g>
     </g>
    </g>
   </g>
   <g id="matplotlib.axis_2">
    <g id="ytick_1">
     <g id="line2d_7">
      <defs>
       <path id="m4512f82c50" d="M 0 0 
L 5 0 
" style="stroke: #000000"/>
      </defs>
      <g>
       <use xlink:href="#m4512f82c50" x="41.316477" y="112.860712" style="stroke: #000000"/>
      </g>
     </g>
     <g id="text_6">
      <!-- $-1$ -->
      <g transform="translate(1.976477 123.498524) scale(0.28 -0.28)">
       <defs>
        <path id="Cmsy10-a1" d="M 653 1472 
Q 600 1472 565 1512 
Q 531 1553 531 1600 
Q 531 1647 565 1687 
Q 600 1728 653 1728 
L 4325 1728 
Q 4375 1728 4408 1687 
Q 4441 1647 4441 1600 
Q 4441 1553 4408 1512 
Q 4375 1472 4325 1472 
L 653 1472 
z
" transform="scale(0.015625)"/>
       </defs>
       <use xlink:href="#Cmsy10-a1" transform="translate(0 0.390625)"/>
       <use xlink:href="#Cmr10-31" transform="translate(77.685547 0.390625)"/>
      </g>
     </g>
    </g>
    <g id="ytick_2">
     <g id="line2d_8">
      <g>
       <use xlink:href="#m4512f82c50" x="41.316477" y="84.280995" style="stroke: #000000"/>
      </g>
     </g>
     <g id="text_7">
      <!-- $0$ -->
      <g transform="translate(23.816477 94.918808) scale(0.28 -0.28)">
       <use xlink:href="#Cmr10-30" transform="translate(0 0.390625)"/>
      </g>
     </g>
    </g>
    <g id="ytick_3">
     <g id="line2d_9">
      <g>
       <use xlink:href="#m4512f82c50" x="41.316477" y="55.701279" style="stroke: #000000"/>
      </g>
     </g>
     <g id="text_8">
      <!-- $1$ -->
      <g transform="translate(23.816477 66.339091) scale(0.28 -0.28)">
       <use xlink:href="#Cmr10-31" transform="translate(0 0.390625)"/>
      </g>
     </g>
    </g>
    <g id="ytick_4">
     <g id="line2d_10">
      <g>
       <use xlink:href="#m4512f82c50" x="41.316477" y="27.121562" style="stroke: #000000"/>
      </g>
     </g>
     <g id="text_9">
      <!-- $2$ -->
      <g transform="translate(23.816477 37.759375) scale(0.28 -0.28)">
       <use xlink:href="#Cmr10-32" transform="translate(0 0.390625)"/>
      </g>
     </g>
    </g>
   </g>
   <g id="line2d_11">
    <path d="M 62.56352 55.701843 
L 63.714402 55.833237 
L 64.865283 56.194133 
L 66.016165 56.781621 
L 67.255576 57.662231 
L 68.583516 58.881822 
L 69.999986 60.482969 
L 71.593514 62.630654 
L 73.364101 65.407844 
L 75.400276 69.043101 
L 77.790568 73.7935 
L 80.977625 80.663379 
L 88.059973 96.091037 
L 90.538795 100.875697 
L 92.57497 104.349751 
L 94.345557 106.962094 
L 95.939085 108.944507 
L 97.444084 110.467186 
L 98.772024 111.511428 
L 100.011435 112.222413 
L 101.250846 112.671995 
L 102.401727 112.851686 
L 103.552609 112.800883 
L 104.70349 112.519995 
L 105.854372 112.011289 
L 107.093783 111.21342 
L 108.421723 110.079203 
L 109.838193 108.564377 
L 111.343192 106.630315 
L 113.025249 104.10541 
L 114.972895 100.758528 
L 117.186129 96.498369 
L 120.019068 90.532991 
L 129.668767 69.76366 
L 131.882001 65.747278 
L 133.829646 62.665859 
L 135.511704 60.403721 
L 137.016703 58.727214 
L 138.433172 57.470862 
L 139.761113 56.590253 
L 141.000523 56.036488 
L 142.151405 55.758807 
L 143.302287 55.71123 
L 144.453168 55.894139 
L 145.60405 56.306059 
L 146.84346 57.001927 
L 148.082871 57.953001 
L 149.410812 59.245055 
L 150.915811 61.033518 
L 152.509339 63.275991 
L 154.368455 66.299849 
L 156.493159 70.214616 
L 159.060511 75.449377 
L 162.867273 83.796175 
L 168.001975 94.985295 
L 170.569326 100.046878 
L 172.69403 103.766477 
L 174.553147 106.585475 
L 176.235204 108.733263 
L 177.740203 110.299002 
L 179.068143 111.383183 
L 180.307554 112.132697 
L 181.546965 112.621647 
L 182.697847 112.838324 
L 183.848728 112.824614 
L 184.99961 112.580629 
L 186.150491 112.108335 
L 187.389902 111.348796 
L 188.717842 110.254232 
L 190.134312 108.779621 
L 191.639311 106.885396 
L 193.321369 104.400828 
L 195.180485 101.253584 
L 197.393719 97.047485 
L 200.138128 91.318887 
L 205.538419 79.36731 
L 208.991063 72.04739 
L 211.381356 67.467735 
L 213.417531 64.021357 
L 215.188118 61.437021 
L 216.781646 59.482488 
L 218.286645 57.988063 
L 219.614585 56.969987 
L 220.853996 56.28421 
L 222.004878 55.881845 
L 223.155759 55.70859 
L 224.306641 55.765843 
L 225.457522 56.053142 
L 226.608404 56.568171 
L 227.847815 57.372689 
L 229.175755 58.513778 
L 230.592224 60.035566 
L 232.185753 62.100551 
L 233.86781 64.651479 
L 235.815456 68.024273 
L 238.117219 72.487308 
L 241.038688 78.678953 
L 249.980152 98.002146 
L 252.281915 102.262141 
L 254.229561 105.419442 
L 255.911618 107.756037 
L 257.505146 109.597341 
L 258.921616 110.906291 
L 260.249556 111.838274 
L 261.488967 112.441293 
L 262.639849 112.765425 
L 263.79073 112.859758 
L 264.941612 112.723532 
L 266.092493 112.357846 
L 267.243375 111.765649 
L 268.482786 110.880101 
L 269.810726 109.655425 
L 271.227195 108.049148 
L 272.820724 105.896131 
L 274.591311 103.113658 
L 276.627486 99.473286 
L 279.017778 94.718358 
L 282.293364 87.649097 
L 289.198653 72.601921 
L 291.677475 67.803462 
L 293.71365 64.314773 
L 295.484237 61.687587 
L 297.077765 59.690378 
L 298.582764 58.152685 
L 299.910704 57.094526 
L 301.150115 56.370122 
L 302.389526 55.906836 
L 303.540408 55.714276 
L 304.691289 55.752177 
L 305.842171 56.020236 
L 306.993052 56.516288 
L 308.232463 57.300844 
L 309.560404 58.421295 
L 310.976873 59.922168 
L 312.481872 61.84242 
L 314.16393 64.353354 
L 316.111575 67.686294 
L 318.324809 71.933906 
L 321.157748 77.888901 
L 330.984506 99.014317 
L 333.19774 103.005364 
L 335.056856 105.931336 
L 336.738914 108.187831 
L 338.243913 109.858856 
L 339.660382 111.109743 
L 340.988322 111.985019 
L 342.227733 112.533679 
L 343.378615 112.806549 
L 344.529496 112.849289 
L 345.680378 112.661553 
L 346.831259 112.244858 
L 348.07067 111.543948 
L 349.310081 110.587983 
L 350.638021 109.290909 
L 352.14302 107.497096 
L 353.736549 105.249431 
L 355.595665 102.220236 
L 357.720369 98.300454 
L 360.28772 93.061363 
L 364.094482 84.711951 
L 369.229185 73.526764 
L 371.796536 68.470208 
L 373.92124 64.756138 
L 375.780356 61.942872 
L 377.462414 59.800884 
L 378.967413 58.240743 
L 380.295353 57.161758 
L 381.534764 56.417261 
L 382.774175 55.933441 
L 383.925056 55.721585 
L 385.075938 55.740134 
L 386.22682 55.988936 
L 387.377701 56.465984 
L 388.617112 57.230532 
L 389.945052 58.330281 
L 391.361522 59.810155 
L 392.866521 61.7096 
L 394.548578 64.199458 
L 396.407695 67.35178 
L 398.620928 71.562726 
L 401.365338 77.295328 
L 406.942687 89.6363 
L 410.306802 96.741328 
L 412.697095 101.296896 
L 414.73327 104.717167 
L 416.503857 107.275156 
L 418.097385 109.203511 
L 419.513855 110.594996 
L 420.841795 111.607827 
L 422.081206 112.288555 
L 423.232087 112.686141 
L 424.382969 112.854568 
L 425.53385 112.792478 
L 426.684732 112.50037 
L 427.835613 111.980603 
L 429.075024 111.171101 
L 430.402965 110.024862 
L 431.819434 108.497859 
L 433.412962 106.427428 
L 435.09502 103.871322 
L 437.042666 100.493381 
L 439.344429 96.02559 
L 442.265897 89.830201 
L 451.207362 70.512612 
L 453.509125 66.258008 
L 455.45677 63.10633 
L 457.138828 60.775268 
L 458.732356 58.939696 
L 460.148826 57.636167 
L 461.476766 56.709485 
L 462.716177 56.111552 
L 463.867058 55.792221 
L 465.01794 55.702723 
L 466.168821 55.843781 
L 467.319703 56.214256 
L 468.470585 56.81116 
L 469.709995 57.701642 
L 471.037936 58.931398 
L 472.454405 60.5428 
L 474.047934 62.701141 
L 475.818521 65.488887 
L 477.854696 69.134361 
L 480.244988 73.893801 
L 483.520574 80.966396 
L 490.425863 96.009217 
L 492.904685 100.802515 
L 494.94086 104.285727 
L 496.711447 106.907354 
L 498.304975 108.899021 
L 499.809974 110.431088 
L 501.137914 111.484031 
L 502.377325 112.203405 
L 503.616736 112.661553 
L 504.767618 112.849289 
L 505.918499 112.806549 
L 507.069381 112.533679 
L 508.220262 112.03288 
L 509.459673 111.243329 
L 510.787613 110.117712 
L 512.204083 108.611602 
L 513.709082 106.686166 
L 515.391139 104.169986 
L 517.338785 100.831807 
L 519.552019 96.579477 
L 522.384958 90.620571 
L 532.123186 69.670956 
L 534.33642 65.665394 
L 536.284066 62.595526 
L 537.966123 60.344681 
L 539.471122 58.679146 
L 540.887592 57.433729 
L 542.215532 56.563787 
L 543.454943 56.020236 
L 544.605825 55.752177 
L 545.756706 55.714276 
L 546.907588 55.906836 
L 548.058469 56.328306 
L 549.29788 57.034254 
L 550.537291 57.995107 
L 551.95376 59.393714 
L 553.458759 61.212408 
L 555.140817 63.620178 
L 556.999933 66.693427 
L 559.124638 70.654455 
L 561.780518 76.118015 
L 565.941398 85.286389 
L 570.456394 95.085119 
L 573.023745 100.136632 
L 575.14845 103.845157 
L 577.007566 106.652682 
L 578.689624 108.788864 
L 580.194623 110.343401 
L 581.522563 111.417185 
L 582.761974 112.156663 
L 584.001385 112.635352 
L 585.152266 112.842385 
L 586.303148 112.818998 
L 587.454029 112.565381 
L 588.604911 112.083578 
L 589.844322 111.314025 
L 591.172262 110.209094 
L 592.588732 108.723962 
L 594.09373 106.819306 
L 595.775788 104.324165 
L 597.723434 101.00701 
L 599.936667 96.77364 
L 602.769607 90.830506 
L 612.773423 69.348134 
L 614.986657 65.38089 
L 616.845773 62.478989 
L 618.527831 60.247037 
L 620.03283 58.599842 
L 621.449299 57.372689 
L 622.777239 56.520551 
L 624.01665 55.994041 
L 625.167532 55.742028 
L 626.318413 55.720254 
L 627.469295 55.928895 
L 628.620176 56.366266 
L 629.859587 57.088993 
L 631.187528 58.145414 
L 632.603997 59.58127 
L 634.108996 61.437021 
L 635.791054 63.88252 
L 637.65017 66.99219 
L 639.774874 70.987109 
L 642.430755 76.480106 
L 646.768693 86.057608 
L 651.018102 95.251151 
L 653.585453 100.28572 
L 655.710157 103.975672 
L 657.569274 106.763986 
L 659.162802 108.779621 
L 660.667801 110.336027 
L 661.995741 111.411545 
L 663.235152 112.152696 
L 664.474563 112.633096 
L 665.625444 112.841736 
L 666.776326 112.819962 
L 667.927207 112.56795 
L 669.078089 112.087732 
L 670.3175 111.319846 
L 671.64544 110.216643 
L 673.06191 108.733263 
L 674.566909 106.830343 
L 676.248966 104.336962 
L 678.196612 101.021567 
L 680.409846 96.789788 
L 683.242785 90.847984 
L 693.246601 69.363448 
L 695.459835 65.394363 
L 697.318951 62.490604 
L 699.001009 60.256759 
L 700.506008 58.607727 
L 701.922477 57.378745 
L 703.250418 56.524826 
L 704.489828 55.99661 
L 705.64071 55.742992 
L 706.791591 55.719606 
L 707.942473 55.926638 
L 709.093355 56.36242 
L 710.332765 57.083471 
L 711.660706 58.138153 
L 713.077175 59.572241 
L 714.582174 61.426234 
L 716.264232 63.869946 
L 718.123348 66.977894 
L 720.248052 70.971216 
L 722.903933 76.462832 
L 727.241871 86.039686 
L 731.49128 95.234567 
L 734.058631 100.270839 
L 736.183335 103.962656 
L 738.042452 106.752896 
L 739.63598 108.770369 
L 741.140979 110.328642 
L 742.468919 111.405894 
L 743.70833 112.148718 
L 744.947741 112.630828 
L 746.098622 112.841076 
L 747.249504 112.820915 
L 748.400385 112.570508 
L 749.551267 112.091875 
L 750.790678 111.325658 
L 752.118618 110.224181 
L 753.535088 108.742554 
L 755.040087 106.841371 
L 756.722144 104.349751 
L 758.58126 101.19574 
L 760.794494 96.983181 
L 763.538904 91.249248 
L 769.204782 78.714175 
L 770.798311 75.449377 
L 770.798311 75.449377 
" clip-path="url(#pfb1a36bf97)" style="fill: none; stroke: #e36f47; stroke-width: 6"/>
   </g>
   <g id="patch_3">
    <path d="M 41.316477 116.065354 
L 41.316477 2.834646 
" style="fill: none; stroke: #000000; stroke-width: 2; stroke-linejoin: miter; stroke-linecap: square"/>
   </g>
   <g id="patch_4">
    <path d="M 41.316477 116.065354 
L 792.045354 116.065354 
" style="fill: none; stroke: #000000; stroke-width: 2; stroke-linejoin: miter; stroke-linecap: square"/>
   </g>
   <g id="line2d_12">
    <path d="M 62.56352 30.486751 
L 74.337924 33.947716 
L 76.639687 34.597814 
L 76.728216 6.046401 
L 76.816746 6.085508 
L 86.820562 10.381061 
L 97.001437 14.51045 
L 107.4479 18.50783 
L 118.159951 22.369125 
L 129.22612 26.120175 
L 140.557877 29.725855 
L 152.243751 33.210245 
L 157.112865 34.595555 
L 157.201394 6.042845 
L 157.289924 6.081954 
L 167.29374 10.377702 
L 177.474615 14.507279 
L 187.921078 18.50484 
L 198.633129 22.36631 
L 209.699298 26.117531 
L 221.031055 29.723375 
L 232.716929 33.207923 
L 237.586043 34.593297 
L 237.674572 6.039288 
L 237.763102 6.078399 
L 247.766918 10.374343 
L 257.947793 14.504107 
L 268.394256 18.50185 
L 279.106308 22.363496 
L 290.172476 26.114888 
L 301.504233 29.720895 
L 313.190107 33.205602 
L 318.14775 34.615877 
L 318.23628 6.074845 
L 318.324809 6.113938 
L 328.328625 10.407929 
L 338.509501 14.535817 
L 348.955964 18.531743 
L 359.668015 22.391634 
L 370.734184 26.141321 
L 382.06594 29.74569 
L 393.751814 33.228813 
L 398.620928 34.613619 
L 398.709458 6.07129 
L 398.797987 6.110385 
L 408.801803 10.404571 
L 418.982679 14.532646 
L 429.429142 18.528754 
L 440.141193 22.388821 
L 451.207362 26.138678 
L 462.539118 29.743211 
L 474.224992 33.226492 
L 479.094106 34.611362 
L 479.182636 6.067735 
L 479.271165 6.106832 
L 489.274982 10.401213 
L 499.455857 14.529476 
L 509.90232 18.525766 
L 520.614371 22.386007 
L 531.68054 26.136035 
L 543.012296 29.740732 
L 554.69817 33.224171 
L 559.567284 34.609104 
L 559.655814 6.064179 
L 559.744343 6.103278 
L 569.74816 10.397855 
L 579.929035 14.526305 
L 590.375498 18.522777 
L 601.087549 22.383194 
L 612.153718 26.133392 
L 623.485474 29.738253 
L 635.171348 33.221851 
L 640.040462 34.606846 
L 640.128992 6.060624 
L 640.217521 6.099725 
L 650.221338 10.394497 
L 660.402213 14.523134 
L 670.848676 18.519788 
L 681.560727 22.38038 
L 692.626896 26.130749 
L 703.958652 29.735773 
L 715.644526 33.21953 
L 720.513641 34.604588 
L 720.60217 6.057069 
L 720.690699 6.096171 
L 730.694516 10.391138 
L 740.875391 14.519964 
L 751.321854 18.516798 
L 762.033905 22.377567 
L 770.798311 25.340398 
L 770.798311 25.340398 
" clip-path="url(#pfb1a36bf97)" style="fill: none; stroke: #3ea44e; stroke-width: 6"/>
   </g>
  </g>
 </g>
 <defs>
  <clipPath id="pfb1a36bf97">
   <rect x="41.316477" y="2.834646" width="750.728878" height="113.230709"/>
  </clipPath>
 </defs>
</svg>
