<?xml version="1.0" encoding="utf-8" standalone="no"?>
<!DOCTYPE svg PUBLIC "-//W3C//DTD SVG 1.1//EN"
  "http://www.w3.org/Graphics/SVG/1.1/DTD/svg11.dtd">
<svg xmlns:xlink="http://www.w3.org/1999/xlink" width="806.4pt" height="141.12pt" viewBox="0 0 806.4 141.12" xmlns="http://www.w3.org/2000/svg" version="1.1">
 <metadata>
  <rdf:RDF xmlns:dc="http://purl.org/dc/elements/1.1/" xmlns:cc="http://creativecommons.org/ns#" xmlns:rdf="http://www.w3.org/1999/02/22-rdf-syntax-ns#">
   <cc:Work>
    <dc:type rdf:resource="http://purl.org/dc/dcmitype/StillImage"/>
    <dc:date>2024-05-07T19:24:42.269376</dc:date>
    <dc:format>image/svg+xml</dc:format>
    <dc:creator>
     <cc:Agent>
      <dc:title>Matplotlib v3.7.0, https://matplotlib.org/</dc:title>
     </cc:Agent>
    </dc:creator>
   </cc:Work>
  </rdf:RDF>
 </metadata>
 <defs>
  <style type="text/css">*{stroke-linejoin: round; stroke-linecap: butt}</style>
 </defs>
 <g id="figure_1">
  <g id="patch_1">
   <path d="M 0 141.12 
L 806.4 141.12 
L 806.4 0 
L 0 0 
L 0 141.12 
z
" style="fill: none"/>
  </g>
  <g id="axes_1">
   <g id="patch_2">
    <path d="M 41.316477 124.800705 
L 803.565354 124.800705 
L 803.565354 2.834646 
L 41.316477 2.834646 
L 41.316477 124.800705 
z
" style="fill: none"/>
   </g>
   <g id="line2d_1">
    <path d="M 62.889558 101.457197 
L 66.57496 95.631018 
L 72.058118 86.489675 
L 79.788472 73.64955 
L 83.833425 67.372795 
L 87.33905 62.337075 
L 90.485125 58.195936 
L 93.451424 54.646968 
L 96.327834 51.545939 
L 99.114357 48.861014 
L 101.90088 46.481766 
L 104.687403 44.393653 
L 107.473926 42.577771 
L 110.350337 40.966086 
L 113.316636 39.55795 
L 116.372823 38.349862 
L 119.608785 37.312032 
L 122.934635 36.48061 
L 126.350373 35.859175 
L 129.676223 35.476005 
L 133.002073 35.31452 
L 134.530166 35.426976 
L 136.148147 35.773552 
L 137.766128 36.349136 
L 139.473997 37.198585 
L 141.271754 38.352625 
L 143.159399 39.840337 
L 145.136931 41.68838 
L 147.294239 44.023779 
L 149.541435 46.787301 
L 152.058295 50.249672 
L 154.75493 54.343879 
L 157.811117 59.395326 
L 161.40663 65.7811 
L 166.260573 74.892759 
L 176.058348 93.383153 
L 179.743749 99.794737 
L 182.799936 104.67899 
L 185.496571 108.582424 
L 187.923543 111.719625 
L 190.170739 114.273062 
L 192.238159 116.301 
L 194.215691 117.936511 
L 196.103336 119.208709 
L 197.901093 120.150104 
L 199.608962 120.795301 
L 201.226943 121.179893 
L 202.844924 121.342754 
L 204.462905 121.283998 
L 206.080886 121.005035 
L 207.788755 120.474674 
L 209.496624 119.706688 
L 211.294381 118.648485 
L 213.182026 117.271521 
L 215.159558 115.550593 
L 217.316866 113.36821 
L 219.65395 110.67359 
L 222.170809 107.428143 
L 225.04722 103.345637 
L 228.462958 98.08759 
L 232.95735 90.719931 
L 244.642769 71.356545 
L 248.418059 65.634865 
L 251.743909 60.980452 
L 254.889983 56.958073 
L 257.856282 53.52666 
L 260.732693 50.540872 
L 263.519216 47.965695 
L 266.305739 45.691943 
L 269.092262 43.703315 
L 271.968672 41.92835 
L 274.845083 40.411665 
L 277.90127 39.05592 
L 281.047344 37.907449 
L 284.283306 36.961754 
L 287.609157 36.218306 
L 291.024894 35.684243 
L 294.350744 35.387342 
L 297.137267 35.343315 
L 298.755249 35.577643 
L 300.37323 36.043376 
L 302.081099 36.779891 
L 303.788968 37.760595 
L 305.586724 39.047594 
L 307.474369 40.668657 
L 309.541789 42.745598 
L 311.699097 45.228997 
L 314.036181 48.257086 
L 316.642929 52.010615 
L 319.519339 56.556465 
L 322.84519 62.250733 
L 326.890142 69.643657 
L 334.260945 83.69696 
L 339.564328 93.565621 
L 343.159841 99.811741 
L 346.216028 104.693049 
L 348.912663 108.594011 
L 351.339635 111.729124 
L 353.586831 114.280764 
L 355.654251 116.307171 
L 357.631783 117.941333 
L 359.519428 119.212348 
L 361.317185 120.152706 
L 363.025054 120.796996 
L 364.643035 121.180794 
L 366.261016 121.342918 
L 367.878997 121.283476 
L 369.496978 121.00387 
L 371.204847 120.472869 
L 372.912716 119.704272 
L 374.710473 118.645449 
L 376.598117 117.267846 
L 378.57565 115.546249 
L 380.732958 113.363121 
L 383.070042 110.66766 
L 385.586901 107.421253 
L 388.463312 103.337565 
L 391.87905 98.07799 
L 396.373442 90.708147 
L 408.058861 71.339036 
L 411.83415 65.615892 
L 415.160001 60.960503 
L 418.306075 56.93753 
L 421.272374 53.505887 
L 424.148784 50.520196 
L 426.935307 47.945419 
L 429.721831 45.672363 
L 432.508354 43.684712 
L 435.384764 41.911027 
L 438.261175 40.39587 
L 441.227474 39.078294 
L 444.373548 37.92514 
L 447.609511 36.975447 
L 450.935361 36.228446 
L 454.351098 35.690938 
L 457.676949 35.390497 
L 460.463472 35.339209 
L 462.081453 35.564879 
L 463.699434 36.021945 
L 465.317415 36.704886 
L 467.025284 37.663843 
L 468.823041 38.928513 
L 470.710685 40.526841 
L 472.778106 42.579826 
L 474.935414 45.039421 
L 477.272498 48.043293 
L 479.879245 51.772016 
L 482.755656 56.293596 
L 485.991618 61.805897 
L 489.946683 69.00085 
L 496.508495 81.489592 
L 502.53098 92.772444 
L 506.30627 99.374932 
L 509.362456 104.292427 
L 512.059091 108.232087 
L 514.486063 111.406934 
L 516.733259 113.999043 
L 518.800679 116.065397 
L 520.778212 117.739836 
L 522.665856 119.050844 
L 524.463613 120.03039 
L 526.171482 120.712632 
L 527.879351 121.14965 
L 529.497332 121.335992 
L 531.115313 121.30075 
L 532.733294 121.045171 
L 534.351276 120.571791 
L 536.059144 119.840056 
L 537.856901 118.818869 
L 539.744546 117.479185 
L 541.722078 115.795209 
L 543.879386 113.650264 
L 546.21647 110.99233 
L 548.73333 107.781351 
L 551.609741 103.731219 
L 554.935591 98.643591 
L 559.250207 91.603178 
L 572.104168 70.344551 
L 575.789569 64.821253 
L 579.115419 60.22938 
L 582.171606 56.379889 
L 585.137905 53.002067 
L 588.014316 50.068871 
L 590.800839 47.5439 
L 593.587362 45.31859 
L 596.373885 43.375887 
L 599.250296 41.645189 
L 602.216594 40.127087 
L 605.272781 38.818351 
L 608.418855 37.714019 
L 611.654817 36.81019 
L 614.980667 36.107409 
L 618.396405 35.61429 
L 621.722255 35.358023 
L 624.149227 35.362455 
L 625.767208 35.629893 
L 627.385189 36.127604 
L 629.093058 36.896435 
L 630.800927 37.907779 
L 632.598684 39.225039 
L 634.576216 40.960744 
L 636.643637 43.080247 
L 638.890833 45.715684 
L 641.317804 48.920332 
L 643.924552 52.736782 
L 646.89085 57.490877 
L 650.306588 63.409589 
L 654.531317 71.200434 
L 668.284156 96.933986 
L 671.610006 102.478995 
L 674.486417 106.848628 
L 677.003277 110.286294 
L 679.34036 113.115438 
L 681.497669 115.389247 
L 683.565089 117.244296 
L 685.452733 118.647964 
L 687.25049 119.718569 
L 688.958359 120.489394 
L 690.666228 121.016561 
L 692.284209 121.289318 
L 693.90219 121.341037 
L 695.520171 121.172513 
L 697.138153 120.785805 
L 698.846021 120.144589 
L 700.55389 119.269373 
L 702.351647 118.102914 
L 704.239292 116.618109 
L 706.306712 114.702021 
L 708.553908 112.298892 
L 710.98088 109.362265 
L 713.677515 105.733752 
L 716.733702 101.233666 
L 720.419103 95.394704 
L 725.992149 86.091291 
L 733.542727 73.550322 
L 737.58768 67.273909 
L 741.093306 62.240816 
L 744.23938 58.104054 
L 747.205679 54.560859 
L 750.08209 51.466675 
L 752.868613 48.789169 
L 755.655136 46.417677 
L 758.441659 44.337214 
L 761.228182 42.528489 
L 764.104593 40.923384 
L 767.070892 39.521057 
L 770.127078 38.318046 
L 773.36304 37.285056 
L 776.68889 36.458814 
L 780.104628 35.843766 
L 781.992273 35.612305 
L 781.992273 35.612305 
" clip-path="url(#pc351f5aa81)" style="fill: none; stroke: #009afa; stroke-width: 6"/>
   </g>
   <g id="matplotlib.axis_1">
    <g id="xtick_1"/>
    <g id="xtick_2"/>
    <g id="xtick_3"/>
    <g id="xtick_4"/>
    <g id="xtick_5"/>
   </g>
   <g id="matplotlib.axis_2">
    <g id="ytick_1">
     <g id="line2d_2">
      <defs>
       <path id="mf8b85ce1bb" d="M 0 0 
L 5 0 
" style="stroke: #000000"/>
      </defs>
      <g>
       <use xlink:href="#mf8b85ce1bb" x="41.316477" y="121.348836" style="stroke: #000000"/>
      </g>
     </g>
     <g id="text_1">
      <!-- $-1$ -->
      <g transform="translate(1.976477 131.986648) scale(0.28 -0.28)">
       <defs>
        <path id="Cmsy10-a1" d="M 653 1472 
Q 600 1472 565 1512 
Q 531 1553 531 1600 
Q 531 1647 565 1687 
Q 600 1728 653 1728 
L 4325 1728 
Q 4375 1728 4408 1687 
Q 4441 1647 4441 1600 
Q 4441 1553 4408 1512 
Q 4375 1472 4325 1472 
L 653 1472 
z
" transform="scale(0.015625)"/>
        <path id="Cmr10-31" d="M 594 0 
L 594 225 
Q 1394 225 1394 428 
L 1394 3788 
Q 1063 3628 556 3628 
L 556 3853 
Q 1341 3853 1741 4263 
L 1831 4263 
Q 1853 4263 1873 4245 
Q 1894 4228 1894 4206 
L 1894 428 
Q 1894 225 2694 225 
L 2694 0 
L 594 0 
z
" transform="scale(0.015625)"/>
       </defs>
       <use xlink:href="#Cmsy10-a1" transform="translate(0 0.390625)"/>
       <use xlink:href="#Cmr10-31" transform="translate(77.685547 0.390625)"/>
      </g>
     </g>
    </g>
    <g id="ytick_2">
     <g id="line2d_3">
      <g>
       <use xlink:href="#mf8b85ce1bb" x="41.316477" y="78.331623" style="stroke: #000000"/>
      </g>
     </g>
     <g id="text_2">
      <!-- $0$ -->
      <g transform="translate(23.816477 88.969436) scale(0.28 -0.28)">
       <defs>
        <path id="Cmr10-30" d="M 1600 -141 
Q 816 -141 533 504 
Q 250 1150 250 2041 
Q 250 2597 351 3087 
Q 453 3578 754 3920 
Q 1056 4263 1600 4263 
Q 2022 4263 2290 4056 
Q 2559 3850 2700 3523 
Q 2841 3197 2892 2823 
Q 2944 2450 2944 2041 
Q 2944 1491 2842 1011 
Q 2741 531 2444 195 
Q 2147 -141 1600 -141 
z
M 1600 25 
Q 1956 25 2131 390 
Q 2306 756 2347 1200 
Q 2388 1644 2388 2144 
Q 2388 2625 2347 3031 
Q 2306 3438 2132 3767 
Q 1959 4097 1600 4097 
Q 1238 4097 1063 3765 
Q 888 3434 847 3029 
Q 806 2625 806 2144 
Q 806 1788 823 1472 
Q 841 1156 916 820 
Q 991 484 1158 254 
Q 1325 25 1600 25 
z
" transform="scale(0.015625)"/>
       </defs>
       <use xlink:href="#Cmr10-30" transform="translate(0 0.390625)"/>
      </g>
     </g>
    </g>
    <g id="ytick_3">
     <g id="line2d_4">
      <g>
       <use xlink:href="#mf8b85ce1bb" x="41.316477" y="35.314411" style="stroke: #000000"/>
      </g>
     </g>
     <g id="text_3">
      <!-- $1$ -->
      <g transform="translate(23.816477 45.952223) scale(0.28 -0.28)">
       <use xlink:href="#Cmr10-31" transform="translate(0 0.390625)"/>
      </g>
     </g>
    </g>
   </g>
   <g id="line2d_5">
    <path d="M 62.889558 35.31526 
L 63.788437 35.436627 
L 64.777203 35.80665 
L 65.765969 36.42235 
L 66.844623 37.37 
L 68.013165 38.71415 
L 69.271595 40.518766 
L 70.619912 42.844329 
L 72.148006 45.939128 
L 73.855875 49.924401 
L 75.833407 55.145087 
L 78.170491 61.994585 
L 81.226677 71.709053 
L 89.046919 96.916039 
L 91.384003 103.550862 
L 93.361536 108.538428 
L 95.069405 112.28873 
L 96.597498 115.150325 
L 98.035703 117.38042 
L 99.294133 118.941225 
L 100.462675 120.050618 
L 101.541329 120.776102 
L 102.530095 121.18488 
L 103.518862 121.346085 
L 104.41774 121.276986 
L 105.406506 120.96417 
L 106.395272 120.405056 
L 107.473926 119.518044 
L 108.642468 118.237828 
L 109.900898 116.499444 
L 111.249216 114.241144 
L 112.777309 111.217057 
L 114.485178 107.302731 
L 116.372823 102.39899 
L 118.620019 95.910567 
L 121.496429 86.869615 
L 130.575101 57.77392 
L 132.822297 51.583344 
L 134.709942 46.991933 
L 136.417811 43.403312 
L 137.945904 40.700644 
L 139.294222 38.745814 
L 140.552651 37.304475 
L 141.721193 36.309538 
L 142.799847 35.691897 
L 143.788614 35.383172 
L 144.687492 35.317807 
L 145.58637 35.457833 
L 146.575137 35.84826 
L 147.563903 36.484125 
L 148.642557 37.453361 
L 149.811099 38.820245 
L 151.069529 40.648381 
L 152.417846 42.997793 
L 153.945939 46.117616 
L 155.653808 50.127929 
L 157.631341 55.373204 
L 159.968425 62.244941 
L 163.024611 71.976244 
L 170.665078 96.623002 
L 173.092049 103.52896 
L 175.069582 108.519179 
L 176.777451 112.272131 
L 178.305544 115.13634 
L 179.743749 117.369073 
L 181.002179 118.932302 
L 182.170721 120.04402 
L 183.249375 120.771698 
L 184.238141 121.182514 
L 185.226908 121.34577 
L 186.125786 121.278539 
L 187.114552 120.967769 
L 188.103318 120.410679 
L 189.181972 119.525837 
L 190.350514 118.247912 
L 191.608944 116.511904 
L 192.957262 114.256019 
L 194.485355 111.234475 
L 196.193224 107.322705 
L 198.080869 102.421388 
L 200.328065 95.935232 
L 203.204475 86.896104 
L 212.283147 57.797666 
L 214.530343 51.604517 
L 216.417988 47.010454 
L 218.125857 43.419095 
L 219.65395 40.713747 
L 221.002268 38.7564 
L 222.260697 37.312609 
L 223.429239 36.315326 
L 224.507893 35.695478 
L 225.49666 35.384708 
L 226.395538 35.317476 
L 227.294416 35.455636 
L 228.283183 35.844024 
L 229.271949 36.477873 
L 230.350603 37.444952 
L 231.519145 38.809565 
L 232.777575 40.635352 
L 234.125892 42.982383 
L 235.653985 46.09971 
L 237.361854 50.107526 
L 239.339387 55.350352 
L 241.676471 62.219876 
L 244.732657 71.949514 
L 252.373123 96.598535 
L 254.800095 103.507049 
L 256.777628 108.499917 
L 258.485497 112.255518 
L 260.01359 115.122341 
L 261.451795 117.357711 
L 262.710225 118.923362 
L 263.878767 120.037405 
L 264.957421 120.767277 
L 265.946187 121.180131 
L 266.934953 121.345439 
L 267.833832 121.280075 
L 268.822598 120.97135 
L 269.811364 120.416284 
L 270.890018 119.533614 
L 272.05856 118.25798 
L 273.31699 116.524348 
L 274.665308 114.27088 
L 276.193401 111.25188 
L 277.90127 107.342667 
L 279.788914 102.443776 
L 282.03611 95.959891 
L 284.912521 86.92259 
L 294.081081 57.560569 
L 296.328277 51.39326 
L 298.215922 46.825803 
L 299.923791 43.261879 
L 301.451884 40.583387 
L 302.800201 38.651243 
L 304.058631 37.231999 
L 305.137285 36.321131 
L 306.215939 35.699076 
L 307.204705 35.386261 
L 308.103584 35.317162 
L 309.002462 35.453456 
L 309.991229 35.839804 
L 310.979995 36.471638 
L 312.058649 37.43656 
L 313.227191 38.798901 
L 314.48562 40.622339 
L 315.833938 42.966988 
L 317.362031 46.081816 
L 319.0699 50.087134 
L 321.047433 55.327508 
L 323.384517 62.194818 
L 326.440703 71.922786 
L 334.171057 96.842878 
L 336.508141 103.485128 
L 338.485674 108.480644 
L 340.193543 112.238892 
L 341.721636 115.108328 
L 343.159841 117.346334 
L 344.418271 118.914407 
L 345.586813 120.030774 
L 346.665467 120.762839 
L 347.654233 121.177731 
L 348.642999 121.345091 
L 349.541878 121.281594 
L 350.530644 120.974914 
L 351.51941 120.421873 
L 352.598064 119.541374 
L 353.766606 118.268033 
L 355.025036 116.536778 
L 356.373354 114.285726 
L 357.901447 111.269271 
L 359.609316 107.362618 
L 361.49696 102.466155 
L 363.744156 95.984542 
L 366.620567 86.949072 
L 375.789127 57.584242 
L 378.036323 51.414338 
L 379.923968 46.844213 
L 381.631836 43.277539 
L 383.15993 40.596356 
L 384.508247 38.661689 
L 385.766677 37.239987 
L 386.935219 36.263829 
L 388.013873 35.663853 
L 389.002639 35.371493 
L 389.901518 35.321068 
L 390.800396 35.476017 
L 391.789162 35.882757 
L 392.777929 36.534734 
L 393.856583 37.521212 
L 395.025125 38.906244 
L 396.283554 40.753144 
L 397.72176 43.293212 
L 399.249853 46.46024 
L 400.957722 50.517693 
L 402.935254 55.809118 
L 405.272338 62.722357 
L 408.418413 72.779283 
L 415.60944 96.009186 
L 418.036411 102.978215 
L 420.013944 108.034084 
L 421.811701 112.038334 
L 423.339794 114.939034 
L 424.777999 117.208605 
L 426.036429 118.805691 
L 427.204971 119.949916 
L 428.283625 120.70828 
L 429.272391 121.147614 
L 430.261158 121.339589 
L 431.160036 121.298501 
L 432.148802 121.016374 
L 433.137568 120.487646 
L 434.216222 119.633232 
L 435.294877 118.494879 
L 436.553306 116.818479 
L 437.901624 114.623263 
L 439.339829 111.852806 
L 440.95781 108.248436 
L 442.845455 103.463197 
L 445.002763 97.353609 
L 447.699398 89.003387 
L 452.64323 72.779283 
L 456.328631 61.073955 
L 458.755603 54.06302 
L 460.823023 48.74668 
L 462.62078 44.72591 
L 464.238761 41.65342 
L 465.676966 39.396985 
L 466.935396 37.811977 
L 468.103938 36.679352 
L 469.182592 35.93194 
L 470.171358 35.502787 
L 471.160124 35.321068 
L 472.059003 35.371493 
L 473.047769 35.663853 
L 474.036535 36.202715 
L 475.115189 37.068003 
L 476.283731 38.325289 
L 477.542161 40.039886 
L 478.890479 42.273993 
L 480.418572 45.272598 
L 482.126441 49.161292 
L 484.014085 54.040709 
L 486.261281 60.506341 
L 489.137692 69.528894 
L 498.39614 99.173647 
L 500.643336 105.333156 
L 502.53098 109.892596 
L 504.238849 113.448262 
L 505.766943 116.118677 
L 507.11526 118.043245 
L 508.37369 119.455114 
L 509.452344 120.35948 
L 510.530998 120.974914 
L 511.519764 121.281594 
L 512.418643 121.345091 
L 513.317521 121.203199 
L 514.306287 120.810732 
L 515.295054 120.172853 
L 516.373708 119.20146 
L 517.54225 117.832306 
L 518.800679 116.001822 
L 520.148997 113.650031 
L 521.67709 110.527712 
L 523.384959 106.514903 
L 525.362492 101.26718 
L 527.699575 94.393235 
L 530.755762 84.660269 
L 538.396228 60.015785 
L 540.8232 53.112385 
L 542.800732 48.124818 
L 544.508601 44.374516 
L 546.036695 41.512921 
L 547.4749 39.282826 
L 548.73333 37.722021 
L 549.901872 36.612628 
L 550.980526 35.887144 
L 551.969292 35.478366 
L 552.958058 35.317162 
L 553.856937 35.386261 
L 554.845703 35.699076 
L 555.834469 36.25819 
L 556.913123 37.145202 
L 558.081665 38.425418 
L 559.340095 40.163802 
L 560.688412 42.422102 
L 562.216506 45.446189 
L 563.924375 49.360515 
L 565.812019 54.264256 
L 568.059215 60.752679 
L 570.935626 69.793631 
L 580.014298 98.889327 
L 582.261494 105.079903 
L 584.149139 109.671313 
L 585.857007 113.259935 
L 587.385101 115.962602 
L 588.733418 117.917432 
L 589.991848 119.358771 
L 591.16039 120.353708 
L 592.239044 120.97135 
L 593.22781 121.280075 
L 594.126689 121.345439 
L 595.025567 121.205413 
L 596.014333 120.814986 
L 597.0031 120.179121 
L 598.081754 119.209885 
L 599.250296 117.843002 
L 600.508725 116.014865 
L 601.857043 113.665454 
L 603.385136 110.54563 
L 605.093005 106.535317 
L 607.070538 101.290042 
L 609.407621 94.418306 
L 612.463808 84.687002 
L 620.104274 60.040245 
L 622.531246 53.134286 
L 624.508778 48.144067 
L 626.216647 44.391115 
L 627.744741 41.526906 
L 629.182946 39.294173 
L 630.441376 37.730945 
L 631.609918 36.619227 
L 632.688572 35.891548 
L 633.677338 35.480732 
L 634.666104 35.317476 
L 635.564983 35.384708 
L 636.553749 35.695478 
L 637.542515 36.252568 
L 638.621169 37.137409 
L 639.789711 38.415334 
L 641.048141 40.151342 
L 642.396458 42.407227 
L 643.924552 45.428771 
L 645.632421 49.340541 
L 647.520065 54.241858 
L 649.767261 60.728014 
L 652.643672 69.767142 
L 661.722344 98.86558 
L 663.96954 105.058729 
L 665.857184 109.652792 
L 667.565053 113.244151 
L 669.093147 115.9495 
L 670.441464 117.906846 
L 671.699894 119.350637 
L 672.868436 120.34792 
L 673.94709 120.967769 
L 674.935856 121.278539 
L 675.834735 121.34577 
L 676.733613 121.20761 
L 677.722379 120.819222 
L 678.711145 120.185373 
L 679.7898 119.218294 
L 680.958341 117.853681 
L 682.216771 116.027894 
L 683.565089 113.680863 
L 685.093182 110.563536 
L 686.801051 106.55572 
L 688.778583 101.312895 
L 691.115667 94.44337 
L 694.171854 84.713732 
L 701.81232 60.064712 
L 704.239292 53.156197 
L 706.216824 48.163329 
L 707.924693 44.407728 
L 709.452787 41.540905 
L 710.890992 39.305535 
L 712.149422 37.739884 
L 713.317964 36.625841 
L 714.396618 35.895969 
L 715.385384 35.483115 
L 716.37415 35.317807 
L 717.273029 35.383172 
L 718.261795 35.691897 
L 719.250561 36.246962 
L 720.329215 37.129632 
L 721.497757 38.405266 
L 722.756187 40.138898 
L 724.104504 42.392367 
L 725.632598 45.411367 
L 727.340467 49.320579 
L 729.228111 54.21947 
L 731.475307 60.703356 
L 734.351718 69.740656 
L 743.520278 99.102677 
L 745.767474 105.269986 
L 747.655118 109.837443 
L 749.362987 113.401367 
L 750.89108 116.079859 
L 752.239398 118.012003 
L 753.497828 119.431247 
L 754.576482 120.342115 
L 755.655136 120.96417 
L 756.643902 121.276986 
L 757.542781 121.346085 
L 758.441659 121.20979 
L 759.430425 120.823442 
L 760.419191 120.191609 
L 761.497846 119.226687 
L 762.666387 117.864346 
L 763.924817 116.040907 
L 765.273135 113.696258 
L 766.801228 110.58143 
L 768.509097 106.576112 
L 770.486629 101.335738 
L 772.823713 94.468428 
L 775.8799 84.740461 
L 781.992273 65.038573 
L 781.992273 65.038573 
" clip-path="url(#pc351f5aa81)" style="fill: none; stroke: #e36f47; stroke-width: 6"/>
   </g>
   <g id="patch_3">
    <path d="M 41.316477 124.800705 
L 41.316477 2.834646 
" style="fill: none; stroke: #000000; stroke-width: 2; stroke-linejoin: miter; stroke-linecap: square"/>
   </g>
   <g id="line2d_6">
    <path d="M 62.889558 35.471332 
L 76.192958 38.528484 
L 89.945798 41.459869 
L 104.237964 44.277681 
L 119.069458 46.974364 
L 132.912185 49.298255 
L 133.002073 6.3073 
L 133.091961 6.343303 
L 143.51895 10.399849 
L 154.215603 14.323892 
L 165.271807 18.141764 
L 176.597675 21.816748 
L 188.283094 25.373372 
L 200.328065 28.805321 
L 212.732586 32.107404 
L 225.586547 35.297047 
L 238.889948 38.366631 
L 252.642787 41.309936 
L 266.934953 44.139207 
L 281.766447 46.846855 
L 296.328277 49.296569 
L 296.418165 6.312834 
L 296.508053 6.348834 
L 306.935042 10.405068 
L 317.631695 14.328809 
L 328.687899 18.146388 
L 340.013767 21.82109 
L 351.699186 25.377441 
L 363.744156 28.809126 
L 376.148678 32.110955 
L 389.002639 35.300353 
L 402.30604 38.369701 
L 416.058879 41.31278 
L 430.351045 44.141833 
L 445.182539 46.849274 
L 459.654481 49.284279 
L 459.744369 6.286515 
L 459.834257 6.322529 
L 470.261246 10.380245 
L 480.957899 14.30542 
L 492.014103 18.124395 
L 503.339971 21.800439 
L 515.02539 25.35809 
L 527.070361 28.791029 
L 539.474882 32.094065 
L 552.328843 35.284628 
L 565.632244 38.355098 
L 579.385083 41.299252 
L 593.677249 44.129339 
L 608.508743 46.837769 
L 623.070573 49.28819 
L 623.160461 6.295466 
L 623.250349 6.331475 
L 633.677338 10.388687 
L 644.373991 14.313374 
L 655.430195 18.131874 
L 666.756063 21.807462 
L 678.441482 25.364671 
L 690.486452 28.797183 
L 702.890974 32.099809 
L 715.744935 35.289976 
L 729.048336 38.360064 
L 742.801175 41.303853 
L 757.093341 44.133588 
L 771.924835 46.841682 
L 781.992273 48.543114 
L 781.992273 48.543114 
" clip-path="url(#pc351f5aa81)" style="fill: none; stroke: #3ea44e; stroke-width: 6"/>
   </g>
  </g>
 </g>
 <defs>
  <clipPath id="pc351f5aa81">
   <rect x="41.316477" y="2.834646" width="762.248878" height="121.96606"/>
  </clipPath>
 </defs>
</svg>
