<?xml version="1.0" encoding="utf-8" standalone="no"?>
<!DOCTYPE svg PUBLIC "-//W3C//DTD SVG 1.1//EN"
  "http://www.w3.org/Graphics/SVG/1.1/DTD/svg11.dtd">
<svg xmlns:xlink="http://www.w3.org/1999/xlink" width="979.2pt" height="161.28pt" viewBox="0 0 979.2 161.28" xmlns="http://www.w3.org/2000/svg" version="1.1">
 <metadata>
  <rdf:RDF xmlns:dc="http://purl.org/dc/elements/1.1/" xmlns:cc="http://creativecommons.org/ns#" xmlns:rdf="http://www.w3.org/1999/02/22-rdf-syntax-ns#">
   <cc:Work>
    <dc:type rdf:resource="http://purl.org/dc/dcmitype/StillImage"/>
    <dc:date>2024-04-26T17:51:08.922118</dc:date>
    <dc:format>image/svg+xml</dc:format>
    <dc:creator>
     <cc:Agent>
      <dc:title>Matplotlib v3.7.0, https://matplotlib.org/</dc:title>
     </cc:Agent>
    </dc:creator>
   </cc:Work>
  </rdf:RDF>
 </metadata>
 <defs>
  <style type="text/css">*{stroke-linejoin: round; stroke-linecap: butt}</style>
 </defs>
 <g id="figure_1">
  <g id="patch_1">
   <path d="M 0 161.28 
L 979.2 161.28 
L 979.2 0 
L 0 0 
L 0 161.28 
z
" style="fill: none"/>
  </g>
  <g id="axes_1">
   <g id="patch_2">
    <path d="M 64.170808 145.400041 
L 976.365354 145.400041 
L 976.365354 2.834646 
L 64.170808 2.834646 
L 64.170808 145.400041 
z
" style="fill: none"/>
   </g>
   <g id="line2d_1">
    <path d="M 89.987635 43.787691 
L 90.704769 43.905903 
L 91.421903 44.257077 
L 92.139037 44.835372 
L 92.856171 45.634127 
L 93.573305 46.645934 
L 95.007573 49.275702 
L 96.441841 52.652809 
L 97.876109 56.697327 
L 99.310378 61.323053 
L 101.46178 69.151806 
L 104.330316 80.753961 
L 112.218791 113.64151 
L 114.370193 121.447006 
L 116.521595 128.242706 
L 117.955864 132.098809 
L 119.390132 135.345774 
L 120.8244 137.932674 
L 122.258668 139.817556 
L 122.975802 140.486363 
L 123.692936 140.96857 
L 124.41007 141.261948 
L 125.127204 141.365019 
L 125.844338 141.277086 
L 126.561473 140.998238 
L 127.278607 140.529374 
L 127.995741 139.872197 
L 128.712875 139.02922 
L 130.147143 136.799899 
L 131.581411 133.877227 
L 133.015679 130.308878 
L 134.449947 126.153387 
L 136.60135 118.970614 
L 138.752752 110.884889 
L 142.338422 96.203771 
L 147.358361 75.536759 
L 149.509763 67.477284 
L 151.661165 60.288165 
L 153.095433 56.093129 
L 154.529702 52.444757 
L 155.96397 49.39203 
L 157.398238 46.974713 
L 158.832506 45.222992 
L 159.54964 44.603487 
L 160.266774 44.157252 
L 160.983908 43.885287 
L 161.701042 43.787978 
L 162.418176 43.905117 
L 163.13531 44.282851 
L 163.852445 44.914844 
L 164.569579 45.793536 
L 165.286713 46.910376 
L 166.720981 49.81985 
L 168.155249 53.558168 
L 169.589517 58.029519 
L 171.023785 63.12976 
L 173.175188 71.716978 
L 176.043724 84.310136 
L 181.780796 109.955368 
L 183.932199 118.603867 
L 186.083601 126.211084 
L 187.517869 130.564437 
L 188.952137 134.257989 
L 190.386405 137.229472 
L 191.820674 139.427378 
L 192.537808 140.223355 
L 193.254942 140.812056 
L 193.972076 141.190561 
L 194.68921 141.356827 
L 195.406344 141.309721 
L 196.123478 141.04904 
L 196.840612 140.575536 
L 197.557746 139.890929 
L 198.27488 138.997914 
L 199.709148 136.602334 
L 201.143417 133.42976 
L 202.577685 129.53606 
L 204.011953 124.990954 
L 206.163355 117.134483 
L 208.314757 108.319269 
L 211.900428 92.477109 
L 215.486098 76.718803 
L 217.6375 68.015201 
L 219.788903 60.283181 
L 221.223171 55.810749 
L 222.657439 51.968868 
L 224.091707 48.817235 
L 225.525975 46.403201 
L 226.243109 45.484073 
L 226.960243 44.761255 
L 227.677377 44.237 
L 228.394512 43.912734 
L 229.111646 43.789056 
L 229.82878 43.903459 
L 230.545914 44.310159 
L 231.263048 45.002347 
L 231.980182 45.971142 
L 232.697316 47.20637 
L 234.131584 50.429606 
L 235.565852 54.568919 
L 237.00012 59.507385 
L 239.151523 68.132662 
L 241.302925 77.809493 
L 249.1914 114.716596 
L 251.342802 123.247219 
L 252.77707 128.19752 
L 254.211338 132.45537 
L 255.645606 135.946213 
L 257.079875 138.608597 
L 257.797009 139.613683 
L 258.514143 140.394932 
L 259.231277 140.948682 
L 259.948411 141.272233 
L 260.665545 141.363866 
L 261.382679 141.222865 
L 262.099813 140.84954 
L 262.816947 140.245244 
L 263.534081 139.412392 
L 264.251215 138.354471 
L 265.685484 135.582764 
L 267.119752 131.979572 
L 268.55402 127.611265 
L 269.988288 122.560291 
L 272.13969 113.919823 
L 275.008227 101.016343 
L 280.745299 74.337787 
L 282.896701 65.379805 
L 284.33097 60.049214 
L 285.765238 55.349815 
L 287.199506 51.367828 
L 288.633774 48.174512 
L 290.068042 45.825069 
L 290.785176 44.97947 
L 291.50231 44.357904 
L 292.219444 43.962484 
L 292.936578 43.794245 
L 293.653713 43.883536 
L 294.370847 44.298084 
L 295.087981 45.032475 
L 295.805115 46.076391 
L 296.522249 47.417845 
L 297.956517 50.937907 
L 299.390785 55.46879 
L 300.825053 60.869131 
L 302.976456 70.259748 
L 305.844992 84.321272 
L 310.86493 109.434789 
L 313.016333 119.042279 
L 314.450601 124.726499 
L 315.884869 129.70514 
L 317.319137 133.885322 
L 318.753405 137.190848 
L 319.470539 138.49653 
L 320.187673 139.562854 
L 320.904808 140.385242 
L 321.621942 140.960244 
L 322.339076 141.285544 
L 323.05621 141.359966 
L 323.773344 141.183472 
L 324.490478 140.757166 
L 325.207612 140.08329 
L 325.924746 139.165226 
L 326.64188 138.007486 
L 328.076148 134.996648 
L 329.510416 131.109221 
L 330.944685 126.421055 
L 332.378953 121.024691 
L 334.530355 111.842717 
L 337.398891 98.241565 
L 342.41883 73.94464 
L 344.570232 64.634876 
L 346.0045 59.140662 
L 347.438768 54.353875 
L 348.873037 50.374444 
L 350.307305 47.28387 
L 351.024439 46.091927 
L 351.741573 45.143613 
L 352.458707 44.443302 
L 353.175841 43.99401 
L 353.892975 43.797392 
L 354.610109 43.884233 
L 355.327243 44.331831 
L 356.044377 45.135017 
L 356.761511 46.281768 
L 357.478645 47.757948 
L 358.912914 51.632584 
L 360.347182 56.610674 
L 361.78145 62.522315 
L 363.932852 72.73153 
L 366.801388 87.812249 
L 370.387059 106.810023 
L 372.538461 117.192204 
L 373.972729 123.358971 
L 375.406997 128.767371 
L 376.841266 133.307599 
L 378.275534 136.89138 
L 378.992668 138.303091 
L 379.709802 139.452692 
L 380.426936 140.335461 
L 381.14407 140.948085 
L 381.861204 141.288651 
L 382.578338 141.356636 
L 383.295472 141.152888 
L 384.012606 140.679602 
L 384.72974 139.940296 
L 385.446874 138.939788 
L 386.164009 137.684158 
L 387.598277 134.437981 
L 389.032545 130.274398 
L 390.466813 125.283901 
L 391.901081 119.573431 
L 394.052483 109.927807 
L 396.92102 95.787102 
L 401.223824 74.356585 
L 403.375226 64.713542 
L 404.809495 59.030305 
L 406.243763 54.099575 
L 407.678031 50.036143 
L 409.112299 46.934323 
L 409.829433 45.767248 
L 410.546567 44.8654 
L 411.263701 44.233793 
L 411.980835 43.87582 
L 412.697969 43.795912 
L 413.415104 44.080402 
L 414.132238 44.763152 
L 414.849372 45.831736 
L 415.566506 47.270978 
L 416.28364 49.063187 
L 417.717908 53.62462 
L 419.152176 59.333519 
L 420.586444 65.982948 
L 422.737847 77.22895 
L 429.909187 116.391427 
L 431.343455 122.94624 
L 432.777724 128.667985 
L 434.211992 133.429575 
L 435.64626 137.131221 
L 436.363394 138.561065 
L 437.080528 139.701272 
L 437.797662 140.547318 
L 438.514796 141.096434 
L 439.23193 141.347585 
L 439.949064 141.301435 
L 440.666198 140.960314 
L 441.383333 140.328171 
L 442.100467 139.410527 
L 442.817601 138.214422 
L 443.534735 136.74835 
L 444.969003 133.047186 
L 446.403271 128.401627 
L 447.837539 122.925138 
L 449.988941 113.44033 
L 452.857478 99.205753 
L 457.877416 73.617763 
L 460.028819 63.859775 
L 461.463087 58.155896 
L 462.897355 53.256849 
L 464.331623 49.283641 
L 465.765891 46.33614 
L 466.483025 45.271642 
L 467.200159 44.489812 
L 467.917293 43.995843 
L 468.634427 43.793124 
L 469.351562 43.932921 
L 470.068696 44.509778 
L 470.78583 45.513977 
L 471.502964 46.929468 
L 472.220098 48.737025 
L 473.654366 53.43733 
L 475.088634 59.409021 
L 476.522902 66.415127 
L 478.674305 78.295972 
L 485.128511 115.410192 
L 486.562779 122.379216 
L 487.997048 128.443332 
L 489.431316 133.454454 
L 490.865584 137.298267 
L 491.582718 138.756224 
L 492.299852 139.895287 
L 493.016986 140.71099 
L 493.73412 141.201017 
L 494.451254 141.365167 
L 495.168388 141.205304 
L 495.885522 140.725298 
L 496.602656 139.930958 
L 497.319791 138.829955 
L 498.036925 137.431741 
L 499.471193 133.789822 
L 500.905461 129.112785 
L 502.339729 123.530306 
L 504.491131 113.787214 
L 507.359668 99.124018 
L 512.379606 72.933314 
L 514.531008 63.075489 
L 515.965277 57.371583 
L 517.399545 52.52689 
L 518.833813 48.661695 
L 519.550947 47.128063 
L 520.268081 45.874288 
L 520.985215 44.908753 
L 521.702349 44.238128 
L 522.419483 43.867292 
L 523.136617 43.806131 
L 523.853751 44.178838 
L 524.570886 45.021679 
L 525.28802 46.318885 
L 526.005154 48.050721 
L 526.722288 50.193832 
L 528.156556 55.604571 
L 529.590824 62.306044 
L 531.025092 70.019561 
L 533.176494 82.828248 
L 537.479299 109.114435 
L 539.630701 120.676119 
L 541.064969 127.25002 
L 542.499237 132.703665 
L 543.933506 136.899605 
L 544.65064 138.494466 
L 545.367774 139.742448 
L 546.084908 140.638248 
L 546.802042 141.179167 
L 547.519176 141.365058 
L 548.23631 141.198262 
L 548.953444 140.68353 
L 549.670578 139.827926 
L 550.387712 138.640732 
L 551.104846 137.133327 
L 552.539115 133.213172 
L 553.973383 128.195678 
L 555.407651 122.234092 
L 557.559053 111.905354 
L 560.427589 96.562587 
L 564.730394 73.474828 
L 566.881796 63.326166 
L 568.316064 57.476329 
L 569.750332 52.52938 
L 571.184601 48.606438 
L 571.901735 47.060134 
L 572.618869 45.80396 
L 573.336003 44.84579 
L 574.053137 44.191718 
L 574.770271 43.846023 
L 575.487405 43.826971 
L 576.204539 44.284069 
L 576.921673 45.243121 
L 577.638807 46.686391 
L 578.355941 48.591569 
L 579.073075 50.932178 
L 580.507344 56.795551 
L 581.941612 63.998111 
L 584.093014 76.614538 
L 590.547221 116.786568 
L 591.981489 124.154505 
L 593.415757 130.398807 
L 594.850025 135.342251 
L 595.567159 137.284162 
L 596.284293 138.856745 
L 597.001427 140.051844 
L 597.718561 140.864423 
L 598.435695 141.292513 
L 599.15283 141.337146 
L 599.869964 141.002259 
L 600.587098 140.294591 
L 601.304232 139.22356 
L 602.021366 137.801119 
L 602.7385 136.041612 
L 604.172768 131.579722 
L 605.607036 125.99398 
L 607.041304 119.467396 
L 609.192707 108.363226 
L 617.081182 65.580255 
L 618.51545 59.299126 
L 619.949718 53.930099 
L 621.383986 49.605516 
L 622.10112 47.86858 
L 622.818254 46.429488 
L 623.535388 45.296556 
L 624.252522 44.476156 
L 624.969656 43.972692 
L 625.68679 43.788598 
L 626.403925 44.022368 
L 627.121059 44.795717 
L 627.838193 46.09266 
L 628.555327 47.891173 
L 629.272461 50.164261 
L 630.706729 56.004196 
L 632.140997 63.315842 
L 633.575265 71.755922 
L 636.443802 90.519137 
L 639.312338 109.261477 
L 641.46374 121.624373 
L 642.898008 128.515693 
L 644.332276 134.066581 
L 645.049411 136.287031 
L 645.766545 138.11681 
L 646.483679 139.544986 
L 647.200813 140.564278 
L 647.917947 141.171003 
L 648.635081 141.365009 
L 649.352215 141.149568 
L 650.069349 140.531259 
L 650.786483 139.519819 
L 651.503617 138.127979 
L 652.220751 136.371284 
L 653.655019 131.838365 
L 655.089288 126.093854 
L 656.523556 119.341746 
L 658.674958 107.826692 
L 665.846299 67.459918 
L 667.280567 60.78673 
L 668.714835 55.044491 
L 670.149103 50.379197 
L 671.583371 46.90433 
L 672.300505 45.63942 
L 673.01764 44.699072 
L 673.734774 44.087686 
L 674.451908 43.807464 
L 675.169042 43.912084 
L 675.886176 44.575457 
L 676.60331 45.796317 
L 677.320444 47.552449 
L 678.037578 49.815915 
L 679.471846 55.727699 
L 680.906114 63.214725 
L 682.340383 71.905585 
L 685.208919 91.261114 
L 688.077455 110.483699 
L 689.511723 119.084847 
L 690.945991 126.580447 
L 692.38026 132.714629 
L 693.097394 135.208195 
L 693.814528 137.293961 
L 694.531662 138.958036 
L 695.248796 140.190684 
L 695.96593 140.986291 
L 696.683064 141.343287 
L 697.400198 141.264033 
L 698.117332 140.754689 
L 698.834466 139.825041 
L 699.5516 138.488316 
L 700.268735 136.760963 
L 700.985869 134.662425 
L 702.420137 129.443026 
L 703.854405 123.035774 
L 705.288673 115.677167 
L 707.440075 103.423947 
L 712.460014 73.904384 
L 714.611416 62.939751 
L 716.045684 56.741077 
L 717.479952 51.627802 
L 718.914221 47.728619 
L 719.631355 46.264254 
L 720.348489 45.134524 
L 721.065623 44.344761 
L 721.782757 43.897882 
L 722.499891 43.79959 
L 723.217025 44.220198 
L 723.934159 45.231264 
L 724.651293 46.811707 
L 725.368427 48.933964 
L 726.085561 51.564569 
L 727.519829 58.191214 
L 728.954098 66.330429 
L 731.1055 80.464061 
L 736.125438 114.705597 
L 737.559707 122.966018 
L 738.993975 129.934166 
L 740.428243 135.372999 
L 741.145377 137.463941 
L 741.862511 139.115558 
L 742.579645 140.318215 
L 743.296779 141.066723 
L 744.013913 141.360233 
L 744.731047 141.202114 
L 745.448181 140.599782 
L 746.165315 139.564505 
L 746.88245 138.111188 
L 747.599584 136.258124 
L 749.033852 131.441281 
L 750.46812 125.317726 
L 751.902388 118.127163 
L 754.05379 105.92655 
L 759.790863 71.844455 
L 761.225131 64.43468 
L 762.659399 57.93298 
L 764.093667 52.51756 
L 765.527936 48.329213 
L 766.24507 46.728355 
L 766.962204 45.468966 
L 767.679338 44.557276 
L 768.396472 43.996953 
L 769.113606 43.789132 
L 769.83074 44.044947 
L 770.547874 44.91249 
L 771.265008 46.372079 
L 771.982142 48.395935 
L 772.699276 50.949952 
L 774.133544 57.48453 
L 775.567813 65.60321 
L 777.719215 79.808106 
L 782.739153 114.422815 
L 784.173422 122.784452 
L 785.60769 129.83517 
L 787.041958 135.33348 
L 787.759092 137.444816 
L 788.476226 139.110518 
L 789.19336 140.321057 
L 789.910494 141.071459 
L 790.627628 141.361192 
L 791.344762 141.194025 
L 792.061896 140.577844 
L 792.77903 139.524448 
L 793.496165 138.049316 
L 794.213299 136.171347 
L 795.647567 131.29794 
L 797.081835 125.113047 
L 798.516103 117.861302 
L 800.667505 105.579025 
L 806.404578 71.417128 
L 807.838846 64.029149 
L 809.273114 57.566979 
L 810.707382 52.208133 
L 812.141651 48.092101 
L 812.858785 46.532746 
L 813.575919 45.31806 
L 814.293053 44.453969 
L 815.010187 43.943806 
L 815.727321 43.788862 
L 816.444455 44.141417 
L 817.161589 45.110253 
L 817.878723 46.672106 
L 818.595857 48.796826 
L 819.312991 51.448068 
L 820.74726 58.158178 
L 822.181528 66.416197 
L 824.33293 80.743084 
L 828.635734 110.691801 
L 830.070003 119.4863 
L 831.504271 127.090676 
L 832.938539 133.239325 
L 833.655673 135.703983 
L 834.372807 137.737285 
L 835.089941 139.326267 
L 835.807075 140.462502 
L 836.524209 141.142014 
L 837.241343 141.365155 
L 837.958477 141.136453 
L 838.675611 140.464427 
L 839.392746 139.361376 
L 840.10988 137.843144 
L 840.827014 135.928865 
L 842.261282 131.003517 
L 843.69555 124.793597 
L 845.129818 117.541493 
L 847.28122 105.296769 
L 853.018293 71.339198 
L 854.452561 63.998309 
L 855.886829 57.573185 
L 857.321097 52.238596 
L 858.755366 48.132327 
L 859.4725 46.572172 
L 860.189634 45.352899 
L 860.906768 44.480505 
L 861.623902 43.958459 
L 862.341036 43.787745 
L 863.05817 44.109317 
L 863.775304 45.045436 
L 864.492438 46.572553 
L 865.209572 48.660378 
L 865.926706 51.272576 
L 867.360975 57.898969 
L 868.795243 66.068648 
L 870.946645 80.266409 
L 875.249449 110.060213 
L 876.683718 118.860627 
L 878.117986 126.508921 
L 879.552254 132.742065 
L 880.269388 135.264328 
L 880.986522 137.365226 
L 881.703656 139.031417 
L 882.42079 140.253938 
L 883.137924 141.028128 
L 883.855058 141.353518 
L 884.572192 141.233685 
L 885.289326 140.676084 
L 886.006461 139.691847 
L 886.723595 138.295566 
L 887.440729 136.505055 
L 888.874997 131.827168 
L 890.309265 125.855164 
L 891.743533 118.820166 
L 893.894935 106.838947 
L 900.349142 69.208664 
L 901.78341 62.159251 
L 903.217678 56.059393 
L 904.651947 51.070822 
L 906.086215 47.319003 
L 906.803349 45.935659 
L 907.520483 44.891166 
L 908.237617 44.190309 
L 908.954751 43.83543 
L 909.671885 43.857844 
L 910.389019 44.459857 
L 911.106153 45.660719 
L 911.823287 47.433668 
L 912.540421 49.74571 
L 913.257556 52.558329 
L 914.691824 59.508063 
L 916.126092 67.892567 
L 918.277494 82.211373 
L 922.580299 111.647257 
L 924.014567 120.207948 
L 925.448835 127.586161 
L 926.883103 133.536194 
L 927.600237 135.916995 
L 928.317371 137.878885 
L 929.034505 139.410119 
L 929.751639 140.503164 
L 930.468773 141.154617 
L 931.185907 141.365082 
L 931.903042 141.139032 
L 932.620176 140.484634 
L 933.33731 139.413558 
L 934.054444 137.940762 
L 934.771578 136.084261 
L 936.205846 131.30601 
L 937.640114 125.274485 
L 939.074382 118.217575 
L 941.225785 106.263311 
L 947.679991 68.94589 
L 949.114259 61.972503 
L 950.548528 55.939563 
L 950.548528 55.939563 
" clip-path="url(#p9a440e78d1)" style="fill: none; stroke: #009afa; stroke-width: 6"/>
   </g>
   <g id="matplotlib.axis_1">
    <g id="xtick_1"/>
    <g id="xtick_2"/>
    <g id="xtick_3"/>
    <g id="xtick_4"/>
    <g id="xtick_5"/>
   </g>
   <g id="matplotlib.axis_2">
    <g id="ytick_1">
     <g id="line2d_2">
      <defs>
       <path id="m7faaae1dc5" d="M 0 0 
L 5 0 
" style="stroke: #000000"/>
      </defs>
      <g>
       <use xlink:href="#m7faaae1dc5" x="64.170808" y="141.365171" style="stroke: #000000"/>
      </g>
     </g>
     <g id="text_1">
      <!-- $-1.0$ -->
      <g transform="translate(2.990808 152.002984) scale(0.28 -0.28)">
       <defs>
        <path id="Cmsy10-a1" d="M 653 1472 
Q 600 1472 565 1512 
Q 531 1553 531 1600 
Q 531 1647 565 1687 
Q 600 1728 653 1728 
L 4325 1728 
Q 4375 1728 4408 1687 
Q 4441 1647 4441 1600 
Q 4441 1553 4408 1512 
Q 4375 1472 4325 1472 
L 653 1472 
z
" transform="scale(0.015625)"/>
        <path id="Cmr10-31" d="M 594 0 
L 594 225 
Q 1394 225 1394 428 
L 1394 3788 
Q 1063 3628 556 3628 
L 556 3853 
Q 1341 3853 1741 4263 
L 1831 4263 
Q 1853 4263 1873 4245 
Q 1894 4228 1894 4206 
L 1894 428 
Q 1894 225 2694 225 
L 2694 0 
L 594 0 
z
" transform="scale(0.015625)"/>
        <path id="Cmmi10-3a" d="M 538 353 
Q 538 497 644 600 
Q 750 703 891 703 
Q 978 703 1062 656 
Q 1147 609 1194 525 
Q 1241 441 1241 353 
Q 1241 213 1137 106 
Q 1034 0 891 0 
Q 750 0 644 106 
Q 538 213 538 353 
z
" transform="scale(0.015625)"/>
        <path id="Cmr10-30" d="M 1600 -141 
Q 816 -141 533 504 
Q 250 1150 250 2041 
Q 250 2597 351 3087 
Q 453 3578 754 3920 
Q 1056 4263 1600 4263 
Q 2022 4263 2290 4056 
Q 2559 3850 2700 3523 
Q 2841 3197 2892 2823 
Q 2944 2450 2944 2041 
Q 2944 1491 2842 1011 
Q 2741 531 2444 195 
Q 2147 -141 1600 -141 
z
M 1600 25 
Q 1956 25 2131 390 
Q 2306 756 2347 1200 
Q 2388 1644 2388 2144 
Q 2388 2625 2347 3031 
Q 2306 3438 2132 3767 
Q 1959 4097 1600 4097 
Q 1238 4097 1063 3765 
Q 888 3434 847 3029 
Q 806 2625 806 2144 
Q 806 1788 823 1472 
Q 841 1156 916 820 
Q 991 484 1158 254 
Q 1325 25 1600 25 
z
" transform="scale(0.015625)"/>
       </defs>
       <use xlink:href="#Cmsy10-a1" transform="translate(0 0.390625)"/>
       <use xlink:href="#Cmr10-31" transform="translate(77.685547 0.390625)"/>
       <use xlink:href="#Cmmi10-3a" transform="translate(127.685547 0.390625)"/>
       <use xlink:href="#Cmr10-30" transform="translate(155.371094 0.390625)"/>
      </g>
     </g>
    </g>
    <g id="ytick_2">
     <g id="line2d_3">
      <g>
       <use xlink:href="#m7faaae1dc5" x="64.170808" y="116.970801" style="stroke: #000000"/>
      </g>
     </g>
     <g id="text_2">
      <!-- $-0.5$ -->
      <g transform="translate(2.990808 127.608614) scale(0.28 -0.28)">
       <defs>
        <path id="Cmr10-35" d="M 556 728 
Q 622 541 758 387 
Q 894 234 1080 148 
Q 1266 63 1466 63 
Q 1928 63 2103 422 
Q 2278 781 2278 1294 
Q 2278 1516 2270 1667 
Q 2263 1819 2228 1959 
Q 2169 2184 2020 2353 
Q 1872 2522 1656 2522 
Q 1441 2522 1286 2456 
Q 1131 2391 1034 2303 
Q 938 2216 863 2119 
Q 788 2022 769 2016 
L 697 2016 
Q 681 2016 657 2036 
Q 634 2056 634 2075 
L 634 4213 
Q 634 4228 654 4245 
Q 675 4263 697 4263 
L 716 4263 
Q 1147 4056 1631 4056 
Q 2106 4056 2547 4263 
L 2566 4263 
Q 2588 4263 2606 4247 
Q 2625 4231 2625 4213 
L 2625 4153 
Q 2625 4122 2613 4122 
Q 2394 3831 2064 3668 
Q 1734 3506 1381 3506 
Q 1125 3506 856 3578 
L 856 2369 
Q 1069 2541 1236 2614 
Q 1403 2688 1663 2688 
Q 2016 2688 2295 2484 
Q 2575 2281 2725 1954 
Q 2875 1628 2875 1288 
Q 2875 903 2686 575 
Q 2497 247 2172 53 
Q 1847 -141 1466 -141 
Q 1150 -141 886 21 
Q 622 184 470 459 
Q 319 734 319 1044 
Q 319 1188 412 1278 
Q 506 1369 647 1369 
Q 788 1369 883 1276 
Q 978 1184 978 1044 
Q 978 906 883 811 
Q 788 716 647 716 
Q 625 716 597 720 
Q 569 725 556 728 
z
" transform="scale(0.015625)"/>
       </defs>
       <use xlink:href="#Cmsy10-a1" transform="translate(0 0.390625)"/>
       <use xlink:href="#Cmr10-30" transform="translate(77.685547 0.390625)"/>
       <use xlink:href="#Cmmi10-3a" transform="translate(127.685547 0.390625)"/>
       <use xlink:href="#Cmr10-35" transform="translate(155.371094 0.390625)"/>
      </g>
     </g>
    </g>
    <g id="ytick_3">
     <g id="line2d_4">
      <g>
       <use xlink:href="#m7faaae1dc5" x="64.170808" y="92.576431" style="stroke: #000000"/>
      </g>
     </g>
     <g id="text_3">
      <!-- $0.0$ -->
      <g transform="translate(24.830808 103.214244) scale(0.28 -0.28)">
       <use xlink:href="#Cmr10-30" transform="translate(0 0.390625)"/>
       <use xlink:href="#Cmmi10-3a" transform="translate(50 0.390625)"/>
       <use xlink:href="#Cmr10-30" transform="translate(77.685547 0.390625)"/>
      </g>
     </g>
    </g>
    <g id="ytick_4">
     <g id="line2d_5">
      <g>
       <use xlink:href="#m7faaae1dc5" x="64.170808" y="68.182061" style="stroke: #000000"/>
      </g>
     </g>
     <g id="text_4">
      <!-- $0.5$ -->
      <g transform="translate(24.830808 78.819873) scale(0.28 -0.28)">
       <use xlink:href="#Cmr10-30" transform="translate(0 0.390625)"/>
       <use xlink:href="#Cmmi10-3a" transform="translate(50 0.390625)"/>
       <use xlink:href="#Cmr10-35" transform="translate(77.685547 0.390625)"/>
      </g>
     </g>
    </g>
    <g id="ytick_5">
     <g id="line2d_6">
      <g>
       <use xlink:href="#m7faaae1dc5" x="64.170808" y="43.787691" style="stroke: #000000"/>
      </g>
     </g>
     <g id="text_5">
      <!-- $1.0$ -->
      <g transform="translate(24.830808 54.425503) scale(0.28 -0.28)">
       <use xlink:href="#Cmr10-31" transform="translate(0 0.390625)"/>
       <use xlink:href="#Cmmi10-3a" transform="translate(50 0.390625)"/>
       <use xlink:href="#Cmr10-30" transform="translate(77.685547 0.390625)"/>
      </g>
     </g>
    </g>
    <g id="ytick_6">
     <g id="line2d_7">
      <g>
       <use xlink:href="#m7faaae1dc5" x="64.170808" y="19.39332" style="stroke: #000000"/>
      </g>
     </g>
     <g id="text_6">
      <!-- $1.5$ -->
      <g transform="translate(24.830808 30.031133) scale(0.28 -0.28)">
       <use xlink:href="#Cmr10-31" transform="translate(0 0.390625)"/>
       <use xlink:href="#Cmmi10-3a" transform="translate(50 0.390625)"/>
       <use xlink:href="#Cmr10-35" transform="translate(77.685547 0.390625)"/>
      </g>
     </g>
    </g>
   </g>
   <g id="line2d_8">
    <path d="M 89.987635 43.787691 
L 90.704769 43.884024 
L 91.421903 44.172885 
L 92.139037 44.65349 
L 92.856171 45.324293 
L 93.573305 46.182988 
L 95.007573 48.451066 
L 96.441841 51.424365 
L 97.876109 55.058053 
L 99.310378 59.296441 
L 101.46178 66.641508 
L 103.613182 74.938086 
L 106.481718 86.964669 
L 112.218791 111.389472 
L 114.370193 119.646946 
L 116.521595 126.91845 
L 117.955864 131.080668 
L 119.390132 134.610396 
L 120.8244 137.446721 
L 122.258668 139.539905 
L 122.975802 140.295565 
L 123.692936 140.852318 
L 124.41007 141.20747 
L 125.127204 141.359168 
L 125.844338 141.306403 
L 126.561473 141.049027 
L 127.278607 140.587749 
L 127.995741 139.92414 
L 128.712875 139.06063 
L 130.147143 136.747873 
L 131.581411 133.685732 
L 133.015679 129.923393 
L 134.449947 125.522242 
L 136.60135 117.88445 
L 138.752752 109.261563 
L 142.338422 93.602336 
L 146.641227 74.757805 
L 148.792629 66.172584 
L 150.944031 58.606528 
L 152.378299 54.280199 
L 153.812567 50.620486 
L 155.246836 47.694113 
L 156.681104 45.555266 
L 157.398238 44.794402 
L 158.115372 44.244525 
L 158.832506 43.908446 
L 159.54964 43.788034 
L 160.266774 43.884205 
L 160.983908 44.196914 
L 161.701042 44.725153 
L 162.418176 45.466945 
L 163.13531 46.419359 
L 164.569579 48.939578 
L 166.003847 52.243606 
L 167.438115 56.274922 
L 168.872383 60.963584 
L 171.023785 69.046257 
L 173.175188 78.098783 
L 176.760858 94.33966 
L 180.346528 110.426265 
L 182.497931 119.235125 
L 184.649333 126.955855 
L 186.083601 131.335178 
L 187.517869 135.001358 
L 188.952137 137.883828 
L 189.669271 139.012969 
L 190.386405 139.926219 
L 191.103539 140.618944 
L 191.820674 141.087523 
L 192.537808 141.329377 
L 193.254942 141.342984 
L 193.972076 141.127887 
L 194.68921 140.684702 
L 195.406344 140.015121 
L 196.123478 139.121907 
L 196.840612 138.008886 
L 198.27488 135.143944 
L 199.709148 131.471497 
L 201.143417 127.058341 
L 202.577685 121.985725 
L 204.729087 113.349666 
L 207.597623 100.49617 
L 214.05183 70.829771 
L 216.203232 62.239392 
L 217.6375 57.218877 
L 219.071769 52.8815 
L 220.506037 49.314256 
L 221.940305 46.589552 
L 222.657439 45.561404 
L 223.374573 44.763662 
L 224.091707 44.200637 
L 224.808841 43.875497 
L 225.525975 43.790243 
L 226.243109 43.9457 
L 226.960243 44.341502 
L 227.677377 44.976093 
L 228.394512 45.846732 
L 229.111646 46.949497 
L 230.545914 49.829918 
L 231.980182 53.563125 
L 233.41445 58.077582 
L 234.848718 63.285749 
L 237.00012 72.172301 
L 239.868657 85.399632 
L 245.605729 112.556737 
L 247.757132 121.562849 
L 249.1914 126.860564 
L 250.625668 131.462821 
L 252.059936 135.272977 
L 253.494204 138.210147 
L 254.211338 139.33084 
L 254.928472 140.210986 
L 255.645606 140.845647 
L 256.362741 141.231138 
L 257.079875 141.365056 
L 257.797009 141.246295 
L 258.514143 140.875058 
L 259.231277 140.25286 
L 259.948411 139.382525 
L 260.665545 138.268177 
L 262.099813 135.33033 
L 263.534081 131.497506 
L 264.968349 126.84693 
L 266.402618 121.473389 
L 268.55402 112.30297 
L 271.422556 98.682728 
L 276.442495 74.260378 
L 278.593897 64.86145 
L 280.028165 59.300644 
L 281.462433 54.446965 
L 282.896701 50.406929 
L 284.33097 47.2701 
L 285.048104 46.063227 
L 285.765238 45.107031 
L 286.482372 44.407086 
L 287.199506 43.967594 
L 287.91664 43.791353 
L 288.633774 43.879741 
L 289.350908 44.232701 
L 290.068042 44.848736 
L 290.785176 45.724912 
L 291.50231 46.856869 
L 292.219444 48.238838 
L 293.653713 51.72287 
L 295.087981 56.103896 
L 296.522249 61.288751 
L 297.956517 67.166113 
L 300.107919 76.998769 
L 303.69359 94.878523 
L 307.27926 112.486797 
L 309.430662 121.897749 
L 310.86493 127.38815 
L 312.299199 132.103583 
L 313.733467 135.935632 
L 315.167735 138.795221 
L 315.884869 139.838334 
L 316.602003 140.614765 
L 317.319137 141.119702 
L 318.036271 141.34986 
L 318.753405 141.303501 
L 319.470539 140.980458 
L 320.187673 140.382133 
L 320.904808 139.511503 
L 321.621942 138.373101 
L 322.339076 136.973001 
L 323.773344 133.419516 
L 325.207612 128.929098 
L 326.64188 123.601672 
L 328.076148 117.556895 
L 330.227551 107.447842 
L 333.813221 89.130629 
L 336.681757 74.673116 
L 338.833159 64.829922 
L 340.267428 59.038137 
L 341.701696 54.025176 
L 343.135964 49.910979 
L 344.570232 46.794974 
L 345.287366 45.636131 
L 346.0045 44.753583 
L 346.721634 44.152965 
L 347.438768 43.838259 
L 348.155902 43.811765 
L 348.873037 44.074082 
L 349.590171 44.624096 
L 350.307305 45.458981 
L 351.024439 46.574214 
L 351.741573 47.963589 
L 353.175841 51.531742 
L 354.610109 56.081635 
L 356.044377 61.507591 
L 357.478645 67.682422 
L 359.630048 78.025615 
L 363.932852 100.515074 
L 366.801388 114.893188 
L 368.952791 124.350235 
L 370.387059 129.726027 
L 371.821327 134.200178 
L 373.255595 137.660509 
L 373.972729 138.982015 
L 374.689863 140.019147 
L 375.406997 140.7651 
L 376.124131 141.214847 
L 376.841266 141.365171 
L 377.5584 141.214697 
L 378.275534 140.763902 
L 378.992668 140.015121 
L 379.709802 138.972542 
L 380.426936 137.642179 
L 381.861204 134.151125 
L 383.295472 129.625239 
L 384.72974 124.173952 
L 386.164009 117.930299 
L 388.315411 107.419555 
L 391.901081 88.327499 
L 394.769617 73.354056 
L 396.92102 63.294943 
L 398.355288 57.473355 
L 399.789556 52.536936 
L 401.223824 48.613834 
L 401.940958 47.065512 
L 402.658092 45.806994 
L 403.375226 44.84675 
L 404.092361 44.191362 
L 404.809495 43.845476 
L 405.526629 43.811765 
L 406.243763 44.090904 
L 406.960897 44.681561 
L 407.678031 45.580394 
L 408.395165 46.782073 
L 409.112299 48.279301 
L 410.546567 52.121651 
L 411.980835 57.011626 
L 413.415104 62.825845 
L 415.566506 72.950702 
L 418.435042 88.141437 
L 422.737847 111.332005 
L 424.889249 121.631385 
L 426.323517 127.586899 
L 427.757785 132.625229 
L 429.192053 136.610643 
L 429.909187 138.173443 
L 430.626321 139.434626 
L 431.343455 140.385384 
L 432.06059 141.018949 
L 432.777724 141.33065 
L 433.494858 141.317947 
L 434.211992 140.980458 
L 434.929126 140.319964 
L 435.64626 139.340409 
L 436.363394 138.047882 
L 437.080528 136.450578 
L 438.514796 132.384666 
L 439.949064 127.248254 
L 441.383333 121.176177 
L 443.534735 110.67118 
L 446.403271 95.057447 
L 449.988941 75.327254 
L 452.140344 64.659972 
L 453.574612 58.452832 
L 455.00888 53.172625 
L 456.443148 48.966604 
L 457.160282 47.304659 
L 457.877416 45.953235 
L 458.59455 44.922075 
L 459.311684 44.21874 
L 460.028819 43.848545 
L 460.745953 43.814517 
L 461.463087 44.117369 
L 462.180221 44.755481 
L 462.897355 45.724912 
L 463.614489 47.019412 
L 464.331623 48.630464 
L 465.765891 52.757122 
L 467.200159 57.993689 
L 468.634427 64.197545 
L 470.78583 74.938086 
L 473.654366 90.876388 
L 477.240036 110.892484 
L 479.391439 121.600594 
L 480.825707 127.762565 
L 482.259975 132.933496 
L 483.694243 136.963861 
L 484.411377 138.51318 
L 485.128511 139.735878 
L 485.845645 140.622777 
L 486.562779 141.167078 
L 487.279913 141.364413 
L 487.997048 141.212887 
L 488.714182 140.7131 
L 489.431316 139.868149 
L 490.14845 138.683615 
L 490.865584 137.167531 
L 491.582718 135.33033 
L 493.016986 130.745907 
L 494.451254 125.058876 
L 495.885522 118.430163 
L 498.036925 107.140962 
L 505.9254 63.590013 
L 507.359668 57.324666 
L 508.793936 52.086877 
L 510.228204 48.033276 
L 510.945338 46.490272 
L 511.662472 45.286362 
L 512.379606 44.430894 
L 513.09674 43.930668 
L 513.813874 43.789867 
L 514.531008 44.010025 
L 515.248143 44.590006 
L 515.965277 45.526001 
L 516.682411 46.811552 
L 517.399545 48.437587 
L 518.833813 52.66214 
L 520.268081 58.077582 
L 521.702349 64.525784 
L 523.853751 75.712287 
L 526.722288 92.270842 
L 530.307958 112.824675 
L 532.45936 123.593539 
L 533.893629 129.651406 
L 535.327897 134.59093 
L 536.045031 136.592064 
L 536.762165 138.259102 
L 537.479299 139.578895 
L 538.196433 140.540909 
L 538.913567 141.137322 
L 539.630701 141.363085 
L 540.347835 141.215972 
L 541.064969 140.696608 
L 541.782103 139.808469 
L 542.499237 138.557868 
L 543.216372 136.953915 
L 543.933506 135.008452 
L 545.367774 130.153531 
L 546.802042 124.138902 
L 548.23631 117.146745 
L 550.387712 105.29886 
L 556.841919 67.905218 
L 558.276187 60.884123 
L 559.710455 54.847036 
L 561.144723 49.985534 
L 561.861858 48.045792 
L 562.578992 46.45517 
L 563.296126 45.226643 
L 564.01326 44.370364 
L 564.730394 43.893576 
L 565.447528 43.800542 
L 566.164662 44.092506 
L 566.881796 44.76767 
L 567.59893 45.821201 
L 568.316064 47.245263 
L 569.033198 49.029061 
L 570.467466 53.618417 
L 571.901735 59.447344 
L 573.336003 66.333899 
L 575.487405 78.165579 
L 582.658746 119.975204 
L 584.093014 126.749293 
L 585.527282 132.427267 
L 586.96155 136.822838 
L 587.678684 138.492489 
L 588.395818 139.790413 
L 589.112952 140.705586 
L 589.830087 141.230071 
L 590.547221 141.359092 
L 591.264355 141.091083 
L 591.981489 140.427709 
L 592.698623 139.373866 
L 593.415757 137.937644 
L 594.132891 136.130278 
L 595.567159 131.462242 
L 597.001427 125.518709 
L 598.435695 118.491066 
L 600.587098 106.423384 
L 607.041304 67.872167 
L 608.475573 60.651684 
L 609.909841 54.485245 
L 611.344109 49.580708 
L 612.061243 47.655519 
L 612.778377 46.104759 
L 613.495511 44.941876 
L 614.212645 44.177101 
L 614.929779 43.817352 
L 615.646913 43.866165 
L 616.364047 44.323656 
L 617.081182 45.186508 
L 617.798316 46.447989 
L 618.51545 48.098001 
L 619.232584 50.12315 
L 620.666852 55.229469 
L 622.10112 61.598531 
L 623.535388 69.018569 
L 625.68679 81.568271 
L 631.423863 116.435195 
L 632.858131 123.857505 
L 634.292399 130.217146 
L 635.726668 135.293421 
L 636.443802 137.292881 
L 637.160936 138.908577 
L 637.87807 140.126082 
L 638.595204 140.934382 
L 639.312338 141.325989 
L 640.029472 141.297018 
L 640.746606 140.847231 
L 641.46374 139.980044 
L 642.180874 138.70251 
L 642.898008 137.025258 
L 643.615142 134.962407 
L 645.049411 129.753082 
L 646.483679 123.252004 
L 647.917947 115.681903 
L 650.069349 102.90015 
L 655.089288 71.711664 
L 656.523556 63.852985 
L 657.957824 56.995709 
L 659.392092 51.384525 
L 660.109226 49.11121 
L 660.82636 47.221345 
L 661.543494 45.732208 
L 662.260628 44.657514 
L 662.977762 44.007278 
L 663.694897 43.787702 
L 664.412031 44.001102 
L 665.129165 44.645871 
L 665.846299 45.716489 
L 666.563433 47.203565 
L 667.280567 49.093922 
L 668.714835 54.013653 
L 670.149103 60.300318 
L 671.583371 67.729834 
L 673.734774 80.430956 
L 679.471846 116.059023 
L 680.906114 123.656583 
L 682.340383 130.153114 
L 683.774651 135.318472 
L 684.491785 137.342746 
L 685.208919 138.969672 
L 685.926053 140.184807 
L 686.643187 140.977368 
L 687.360321 141.340318 
L 688.077455 141.270437 
L 688.794589 140.768344 
L 689.511723 139.838496 
L 690.228857 138.489147 
L 690.945991 136.732273 
L 691.663126 134.583469 
L 693.097394 129.189671 
L 694.531662 122.498831 
L 695.96593 114.747975 
L 698.117332 101.742696 
L 703.137271 70.448731 
L 704.571539 62.692912 
L 706.005807 55.995732 
L 707.440075 50.594441 
L 708.157209 48.44154 
L 708.874343 46.680383 
L 709.591478 45.326603 
L 710.308612 44.392216 
L 711.025746 43.885515 
L 711.74288 43.810998 
L 712.460014 44.169327 
L 713.177148 44.957321 
L 713.894282 46.167985 
L 714.611416 47.790573 
L 715.32855 49.810685 
L 716.762818 54.968382 
L 718.197086 61.458364 
L 719.631355 69.050719 
L 721.782757 81.909488 
L 726.802695 113.327402 
L 728.236964 121.233825 
L 729.671232 128.125045 
L 731.1055 133.756939 
L 731.822634 136.036342 
L 732.539768 137.929992 
L 733.256902 139.42108 
L 733.974036 140.496372 
L 734.69117 141.146324 
L 735.408304 141.365165 
L 736.125438 141.150954 
L 736.842572 140.505593 
L 737.559707 139.434809 
L 738.276841 137.948106 
L 738.993975 136.058681 
L 740.428243 131.142173 
L 741.862511 124.859455 
L 743.296779 117.433094 
L 745.448181 104.733526 
L 751.185254 69.093839 
L 752.619522 61.496279 
L 754.05379 54.999748 
L 755.488058 49.83439 
L 756.205193 47.810116 
L 756.922327 46.18319 
L 757.639461 44.968055 
L 758.356595 44.175494 
L 759.073729 43.812544 
L 759.790863 43.882425 
L 760.507997 44.384518 
L 761.225131 45.314366 
L 761.942265 46.663715 
L 762.659399 48.420589 
L 763.376533 50.569393 
L 764.810801 55.963191 
L 766.24507 62.654031 
L 767.679338 70.404887 
L 769.83074 83.410166 
L 774.850679 114.704131 
L 776.284947 122.45995 
L 777.719215 129.15713 
L 779.153483 134.558421 
L 779.870617 136.711322 
L 780.587751 138.472479 
L 781.304885 139.826259 
L 782.022019 140.760646 
L 782.739153 141.267347 
L 783.456287 141.341864 
L 784.173422 140.983535 
L 784.890556 140.195542 
L 785.60769 138.984877 
L 786.324824 137.362289 
L 787.041958 135.342177 
L 788.476226 130.18448 
L 789.910494 123.694498 
L 791.344762 116.102143 
L 793.496165 103.243374 
L 798.516103 71.82546 
L 799.950371 63.919037 
L 801.384639 57.027817 
L 802.818908 51.395923 
L 803.536042 49.11652 
L 804.253176 47.22287 
L 804.97031 45.731782 
L 805.687444 44.65649 
L 806.404578 44.006538 
L 807.121712 43.787697 
L 807.838846 44.001908 
L 808.55598 44.647269 
L 809.273114 45.718054 
L 809.990248 47.204756 
L 810.707382 49.094181 
L 812.141651 54.010689 
L 813.575919 60.293407 
L 815.010187 67.719768 
L 817.161589 80.419336 
L 822.898662 116.059023 
L 824.33293 123.656583 
L 825.767198 130.153114 
L 827.201466 135.318472 
L 827.9186 137.342746 
L 828.635734 138.969672 
L 829.352868 140.184807 
L 830.070003 140.977368 
L 830.787137 141.340318 
L 831.504271 141.270437 
L 832.221405 140.768344 
L 832.938539 139.838496 
L 833.655673 138.489147 
L 834.372807 136.732273 
L 835.089941 134.583469 
L 836.524209 129.189671 
L 837.958477 122.498831 
L 839.392746 114.747975 
L 841.544148 101.742696 
L 846.564086 70.448731 
L 847.998354 62.692912 
L 849.432623 55.995732 
L 850.866891 50.594441 
L 851.584025 48.44154 
L 852.301159 46.680383 
L 853.018293 45.326603 
L 853.735427 44.392216 
L 854.452561 43.885515 
L 855.169695 43.810998 
L 855.886829 44.169327 
L 856.603963 44.957321 
L 857.321097 46.167985 
L 858.038232 47.790573 
L 858.755366 49.810685 
L 860.189634 54.968382 
L 861.623902 61.458364 
L 863.05817 69.050719 
L 865.209572 81.909488 
L 870.229511 113.327402 
L 871.663779 121.233825 
L 873.098047 128.125045 
L 874.532315 133.756939 
L 875.249449 136.036342 
L 875.966583 137.929992 
L 876.683718 139.42108 
L 877.400852 140.496372 
L 878.117986 141.146324 
L 878.83512 141.365165 
L 879.552254 141.150954 
L 880.269388 140.505593 
L 880.986522 139.434809 
L 881.703656 137.948106 
L 882.42079 136.058681 
L 883.855058 131.142173 
L 885.289326 124.859455 
L 886.723595 117.433094 
L 888.874997 104.733526 
L 894.612069 69.093839 
L 896.046338 61.496279 
L 897.480606 54.999748 
L 898.914874 49.83439 
L 899.632008 47.810116 
L 900.349142 46.18319 
L 901.066276 44.968055 
L 901.78341 44.175494 
L 902.500544 43.812544 
L 903.217678 43.882425 
L 903.934813 44.384518 
L 904.651947 45.314366 
L 905.369081 46.663715 
L 906.086215 48.420589 
L 906.803349 50.569393 
L 908.237617 55.963191 
L 909.671885 62.654031 
L 911.106153 70.404887 
L 913.257556 83.410166 
L 918.277494 114.704131 
L 919.711762 122.45995 
L 921.14603 129.15713 
L 922.580299 134.558421 
L 923.297433 136.711322 
L 924.014567 138.472479 
L 924.731701 139.826259 
L 925.448835 140.760646 
L 926.165969 141.267347 
L 926.883103 141.341864 
L 927.600237 140.983535 
L 928.317371 140.195542 
L 929.034505 138.984877 
L 929.751639 137.362289 
L 930.468773 135.342177 
L 931.903042 130.18448 
L 933.33731 123.694498 
L 934.771578 116.102143 
L 936.92298 103.243374 
L 941.942919 71.82546 
L 943.377187 63.919037 
L 944.811455 57.027817 
L 946.245723 51.395923 
L 946.962857 49.11652 
L 947.679991 47.22287 
L 948.397125 45.731782 
L 949.114259 44.65649 
L 949.831393 44.006538 
L 950.548528 43.787697 
L 950.548528 43.787697 
" clip-path="url(#p9a440e78d1)" style="fill: none; stroke: #e36f47; stroke-width: 6"/>
   </g>
   <g id="patch_3">
    <path d="M 64.170808 145.400041 
L 64.170808 2.834646 
" style="fill: none; stroke: #000000; stroke-width: 2; stroke-linejoin: miter; stroke-linecap: square"/>
   </g>
   <g id="line2d_9">
    <path d="M 89.987635 31.590506 
L 99.310378 35.428505 
L 108.633121 39.024969 
L 117.955864 42.395098 
L 127.995741 45.787666 
L 138.035618 48.950876 
L 148.792629 52.103106 
L 159.54964 55.027568 
L 161.701042 55.586597 
L 162.418176 31.491419 
L 171.740919 35.335654 
L 181.063662 38.937961 
L 190.386405 42.313566 
L 200.426282 45.711646 
L 210.46616 48.879995 
L 221.223171 52.037348 
L 229.111646 54.206791 
L 229.82878 30.111288 
L 239.151523 34.042378 
L 248.474266 37.726074 
L 257.797009 41.177947 
L 267.836886 44.652802 
L 277.876763 47.892735 
L 288.633774 51.121423 
L 292.936578 52.346604 
L 293.653713 28.24538 
L 302.259322 31.991728 
L 311.582065 35.804477 
L 320.904808 39.37728 
L 330.944685 42.973872 
L 340.984562 46.327311 
L 351.024439 49.454038 
L 353.892975 50.307918 
L 354.610109 26.2124 
L 363.215718 30.07714 
L 372.538461 34.010379 
L 381.861204 37.696089 
L 391.183947 41.149848 
L 401.223824 44.626603 
L 411.263701 47.868308 
L 411.980835 48.09129 
L 412.697969 23.943234 
L 421.303578 27.94012 
L 429.909187 31.704246 
L 439.23193 35.535087 
L 448.554673 39.124843 
L 457.877416 42.488687 
L 467.917293 45.874928 
L 468.634427 46.107853 
L 469.351562 22.043542 
L 477.95717 26.151058 
L 486.562779 30.01937 
L 495.885522 33.956245 
L 505.208265 37.645362 
L 514.531008 41.102313 
L 522.419483 43.856943 
L 523.136617 19.739222 
L 531.742226 23.980931 
L 540.347835 27.975622 
L 548.953444 31.73768 
L 558.276187 35.566417 
L 567.59893 39.154202 
L 574.770271 41.759635 
L 575.487405 17.666185 
L 584.093014 22.028618 
L 592.698623 26.137003 
L 601.304232 30.006134 
L 610.626975 33.943841 
L 619.949718 37.633739 
L 625.68679 39.788073 
L 626.403925 15.769613 
L 635.009533 20.242494 
L 643.615142 24.454894 
L 652.220751 28.421984 
L 660.82636 32.158048 
L 670.149103 35.96033 
L 674.451908 37.633589 
L 675.169042 13.593074 
L 683.057517 17.819857 
L 691.663126 22.173341 
L 700.268735 26.273298 
L 708.874343 30.134491 
L 718.197086 34.064121 
L 721.782757 35.508795 
L 722.499891 11.423201 
L 730.388366 15.766104 
L 738.993975 20.23919 
L 747.599584 24.451783 
L 756.205193 28.419053 
L 764.810801 32.155288 
L 769.113606 33.941003 
L 769.83074 9.949731 
L 777.719215 14.371486 
L 786.324824 18.925788 
L 794.930433 23.214867 
L 803.536042 27.25417 
L 812.141651 31.058243 
L 815.010187 32.276384 
L 815.727321 8.19018 
L 823.615796 12.706098 
L 831.504271 16.980347 
L 840.10988 21.38272 
L 848.715489 25.528719 
L 857.321097 29.433274 
L 861.623902 31.299436 
L 862.341036 7.212283 
L 870.229511 11.780533 
L 878.117986 16.104313 
L 886.723595 20.557703 
L 895.329204 24.751747 
L 903.934813 28.701549 
L 908.954751 30.898499 
L 909.671885 6.869515 
L 917.56036 11.456108 
L 925.448835 15.79725 
L 934.054444 20.268522 
L 942.660053 24.479407 
L 950.548528 28.123609 
L 950.548528 28.123609 
" clip-path="url(#p9a440e78d1)" style="fill: none; stroke: #3ea44e; stroke-width: 6"/>
   </g>
   <g id="line2d_10">
    <path d="M 89.987635 43.787691 
L 665.846299 19.39332 
L 950.548528 19.39332 
L 950.548528 19.39332 
" clip-path="url(#p9a440e78d1)" style="fill: none; stroke: #9b7fe9; stroke-width: 6"/>
   </g>
  </g>
 </g>
 <defs>
  <clipPath id="p9a440e78d1">
   <rect x="64.170808" y="2.834646" width="912.194547" height="142.565395"/>
  </clipPath>
 </defs>
</svg>
