<?xml version="1.0" encoding="utf-8" standalone="no"?>
<!DOCTYPE svg PUBLIC "-//W3C//DTD SVG 1.1//EN"
  "http://www.w3.org/Graphics/SVG/1.1/DTD/svg11.dtd">
<svg xmlns:xlink="http://www.w3.org/1999/xlink" width="806.4pt" height="141.12pt" viewBox="0 0 806.4 141.12" xmlns="http://www.w3.org/2000/svg" version="1.1">
 <metadata>
  <rdf:RDF xmlns:dc="http://purl.org/dc/elements/1.1/" xmlns:cc="http://creativecommons.org/ns#" xmlns:rdf="http://www.w3.org/1999/02/22-rdf-syntax-ns#">
   <cc:Work>
    <dc:type rdf:resource="http://purl.org/dc/dcmitype/StillImage"/>
    <dc:date>2024-06-27T17:35:17.682097</dc:date>
    <dc:format>image/svg+xml</dc:format>
    <dc:creator>
     <cc:Agent>
      <dc:title>Matplotlib v3.8.4, https://matplotlib.org/</dc:title>
     </cc:Agent>
    </dc:creator>
   </cc:Work>
  </rdf:RDF>
 </metadata>
 <defs>
  <style type="text/css">*{stroke-linejoin: round; stroke-linecap: butt}</style>
 </defs>
 <g id="figure_1">
  <g id="patch_1">
   <path d="M 0 141.12 
L 806.4 141.12 
L 806.4 0 
L 0 0 
L 0 141.12 
z
" style="fill: none"/>
  </g>
  <g id="axes_1">
   <g id="patch_2">
    <path d="M 41.316477 124.800705 
L 803.565354 124.800705 
L 803.565354 2.834646 
L 41.316477 2.834646 
L 41.316477 124.800705 
z
" style="fill: none"/>
   </g>
   <g id="line2d_1">
    <path d="M 62.889558 102.582138 
L 66.305296 97.303009 
L 70.889576 89.789443 
L 81.855892 71.717323 
L 85.721069 65.882238 
L 88.957032 61.368539 
L 92.192994 57.239259 
L 95.159292 53.815217 
L 98.215479 50.654336 
L 101.002002 48.09134 
L 103.698637 45.890951 
L 106.48516 43.890204 
L 109.271683 42.147963 
L 112.148094 40.598416 
L 115.204281 39.203795 
L 118.350355 38.011942 
L 121.586317 37.021223 
L 124.912167 36.232489 
L 128.238017 35.666837 
L 131.563867 35.324382 
L 134.79983 35.215322 
L 136.327923 35.336746 
L 137.856016 35.673949 
L 139.473997 36.261714 
L 141.181866 37.133503 
L 142.889735 38.255937 
L 144.687492 39.698672 
L 146.665024 41.581834 
L 148.732445 43.864763 
L 150.979641 46.685959 
L 153.406612 50.097014 
L 156.103248 54.281537 
L 159.159434 59.450688 
L 162.754948 65.985306 
L 167.788667 75.644687 
L 176.597675 92.586982 
L 180.283076 99.152562 
L 183.339263 104.159753 
L 186.035898 108.164501 
L 188.46287 111.385165 
L 190.710066 114.008112 
L 192.777486 116.093161 
L 194.755018 117.777018 
L 196.642663 119.089916 
L 198.44042 120.065636 
L 200.148289 120.740031 
L 201.76627 121.149838 
L 203.384251 121.336237 
L 205.002232 121.300079 
L 206.620213 121.043473 
L 208.238194 120.569816 
L 209.946063 119.839524 
L 211.74382 118.822602 
L 213.631465 117.491155 
L 215.608997 115.820522 
L 217.766305 113.695562 
L 220.103389 111.064946 
L 222.620249 107.888449 
L 225.406772 104.01219 
L 228.642734 99.126088 
L 232.867462 92.311224 
L 246.620302 69.770933 
L 250.125928 64.599519 
L 253.36189 60.194089 
L 256.597852 56.182399 
L 259.474263 52.962753 
L 262.350674 50.07258 
L 265.316972 47.428797 
L 268.103495 45.242568 
L 270.890018 43.327322 
L 273.766429 41.613167 
L 276.732728 40.10138 
L 279.878802 38.754064 
L 283.024877 37.645099 
L 286.350727 36.709396 
L 289.676577 36.001589 
L 293.002427 35.515825 
L 296.238389 35.26046 
L 299.024912 35.242772 
L 300.553005 35.461627 
L 302.170986 35.927163 
L 303.788968 36.628138 
L 305.496837 37.616815 
L 307.294593 38.924683 
L 309.182238 40.581312 
L 311.15977 42.613363 
L 313.317079 45.155766 
L 315.654162 48.264736 
L 318.171022 51.986154 
L 321.047433 56.652747 
L 324.373283 62.499724 
L 328.508123 70.254142 
L 342.710402 97.316749 
L 345.946364 102.769853 
L 348.732887 107.042638 
L 351.249747 110.504769 
L 353.586831 113.341213 
L 355.744139 115.608541 
L 357.721671 117.372954 
L 359.609316 118.765037 
L 361.407073 119.817578 
L 363.114942 120.565706 
L 364.822811 121.065736 
L 366.440792 121.309654 
L 368.058773 121.330484 
L 369.676754 121.130107 
L 371.294735 120.711638 
L 373.002604 120.038099 
L 374.800361 119.078973 
L 376.688005 117.805725 
L 378.665538 116.192782 
L 380.732958 114.218813 
L 382.980154 111.764363 
L 385.497014 108.66885 
L 388.283537 104.869209 
L 391.429611 100.19146 
L 395.384676 93.886978 
L 402.126264 82.643931 
L 407.789198 73.376067 
L 411.924038 67.040058 
L 415.249888 62.325489 
L 418.395963 58.229966 
L 421.362261 54.719891 
L 424.418448 51.468757 
L 427.204971 48.82407 
L 429.901606 46.546842 
L 432.688129 44.470158 
L 435.474652 42.656287 
L 438.351063 41.0377 
L 441.40725 39.575207 
L 444.553324 38.318697 
L 447.789286 37.266057 
L 451.115136 36.41691 
L 454.440986 35.792332 
L 457.766836 35.390539 
L 461.002799 35.221394 
L 463.070219 35.296107 
L 464.598312 35.592455 
L 466.216293 36.138918 
L 467.834274 36.919267 
L 469.542143 37.989675 
L 471.3399 39.381026 
L 473.227545 41.12206 
L 475.294965 43.341341 
L 477.452273 45.983605 
L 479.879245 49.322539 
L 482.485992 53.296145 
L 485.452291 58.237179 
L 488.957917 64.535945 
L 493.542196 73.273375 
L 504.328737 94.013265 
L 507.834363 100.177161 
L 510.800662 104.961586 
L 513.407409 108.765231 
L 515.834381 111.920232 
L 518.081577 114.475854 
L 520.148997 116.493826 
L 522.126529 118.109792 
L 523.924286 119.302602 
L 525.632155 120.186078 
L 527.340024 120.822549 
L 528.958005 121.195897 
L 530.575986 121.345572 
L 532.193967 121.272711 
L 533.811948 120.979714 
L 535.519817 120.435654 
L 537.227686 119.656114 
L 539.025443 118.589093 
L 540.913088 117.207423 
L 542.89062 115.487039 
L 545.047928 113.311571 
L 547.385012 110.632052 
L 549.99176 107.288582 
L 552.86817 103.227135 
L 556.283908 98.001504 
L 560.7783 90.682466 
L 572.373832 71.60225 
L 576.328896 65.65892 
L 579.564859 61.173842 
L 582.800821 57.073753 
L 585.677232 53.773183 
L 588.64353 50.714391 
L 591.519941 48.075263 
L 594.306464 45.814929 
L 597.092987 43.829783 
L 599.969398 42.048525 
L 602.935697 40.473144 
L 606.081771 39.063796 
L 609.227846 37.898248 
L 612.553696 36.906839 
L 615.879546 36.146057 
L 619.205396 35.608002 
L 622.531246 35.295221 
L 625.587432 35.221614 
L 627.115526 35.384926 
L 628.643619 35.764451 
L 630.2616 36.397228 
L 631.969469 37.316587 
L 633.767226 38.554824 
L 635.65487 40.142337 
L 637.632403 42.106626 
L 639.789711 44.580807 
L 642.036907 47.499892 
L 644.553767 51.145406 
L 647.34029 55.58981 
L 650.486364 61.037943 
L 654.351541 68.200216 
L 660.463914 80.074205 
L 666.756063 92.150985 
L 670.441464 98.759697 
L 673.497651 103.808929 
L 676.194286 107.854521 
L 678.621258 111.114251 
L 680.868454 113.775124 
L 682.935874 115.895818 
L 684.913406 117.614442 
L 686.801051 118.960803 
L 688.598808 119.968391 
L 690.306677 120.672894 
L 691.924658 121.110971 
L 693.542639 121.325266 
L 695.16062 121.316473 
L 696.778601 121.086653 
L 698.396582 120.639144 
L 700.104451 119.935596 
L 701.902208 118.945802 
L 703.789853 117.641607 
L 705.767385 115.997928 
L 707.924693 113.900765 
L 710.171889 111.404083 
L 712.688749 108.267109 
L 715.475272 104.428388 
L 718.711234 99.577343 
L 722.666299 93.237006 
L 737.677568 68.732065 
L 741.273082 63.51654 
L 744.509044 59.205815 
L 747.56523 55.503141 
L 750.531529 52.260853 
L 753.318052 49.531878 
L 756.104575 47.102027 
L 758.891098 44.957633 
L 761.767509 43.024622 
L 764.823696 41.258324 
L 767.789994 39.800506 
L 770.846181 38.538479 
L 774.082143 37.442074 
L 777.407993 36.55142 
L 780.733843 35.886831 
L 781.992273 35.704859 
L 781.992273 35.704859 
" clip-path="url(#p51e39f778c)" style="fill: none; stroke: #009afa; stroke-width: 4"/>
   </g>
   <g id="matplotlib.axis_1">
    <g id="xtick_1"/>
    <g id="xtick_2"/>
    <g id="xtick_3"/>
    <g id="xtick_4"/>
    <g id="xtick_5"/>
   </g>
   <g id="matplotlib.axis_2">
    <g id="ytick_1">
     <g id="line2d_2">
      <defs>
       <path id="m3d53b3f947" d="M 0 0 
L 5 0 
" style="stroke: #000000"/>
      </defs>
      <g>
       <use xlink:href="#m3d53b3f947" x="41.316477" y="121.348836" style="stroke: #000000"/>
      </g>
     </g>
     <g id="text_1">
      <!-- $-1$ -->
      <g transform="translate(1.976477 131.986648) scale(0.28 -0.28)">
       <defs>
        <path id="Cmsy10-a1" d="M 653 1472 
Q 600 1472 565 1512 
Q 531 1553 531 1600 
Q 531 1647 565 1687 
Q 600 1728 653 1728 
L 4325 1728 
Q 4375 1728 4408 1687 
Q 4441 1647 4441 1600 
Q 4441 1553 4408 1512 
Q 4375 1472 4325 1472 
L 653 1472 
z
" transform="scale(0.015625)"/>
        <path id="Cmr10-31" d="M 594 0 
L 594 225 
Q 1394 225 1394 428 
L 1394 3788 
Q 1063 3628 556 3628 
L 556 3853 
Q 1341 3853 1741 4263 
L 1831 4263 
Q 1853 4263 1873 4245 
Q 1894 4228 1894 4206 
L 1894 428 
Q 1894 225 2694 225 
L 2694 0 
L 594 0 
z
" transform="scale(0.015625)"/>
       </defs>
       <use xlink:href="#Cmsy10-a1" transform="translate(0 0.390625)"/>
       <use xlink:href="#Cmr10-31" transform="translate(77.685547 0.390625)"/>
      </g>
     </g>
    </g>
    <g id="ytick_2">
     <g id="line2d_3">
      <g>
       <use xlink:href="#m3d53b3f947" x="41.316477" y="78.281905" style="stroke: #000000"/>
      </g>
     </g>
     <g id="text_2">
      <!-- $0$ -->
      <g transform="translate(23.816477 88.919718) scale(0.28 -0.28)">
       <defs>
        <path id="Cmr10-30" d="M 1600 -141 
Q 816 -141 533 504 
Q 250 1150 250 2041 
Q 250 2597 351 3087 
Q 453 3578 754 3920 
Q 1056 4263 1600 4263 
Q 2022 4263 2290 4056 
Q 2559 3850 2700 3523 
Q 2841 3197 2892 2823 
Q 2944 2450 2944 2041 
Q 2944 1491 2842 1011 
Q 2741 531 2444 195 
Q 2147 -141 1600 -141 
z
M 1600 25 
Q 1956 25 2131 390 
Q 2306 756 2347 1200 
Q 2388 1644 2388 2144 
Q 2388 2625 2347 3031 
Q 2306 3438 2132 3767 
Q 1959 4097 1600 4097 
Q 1238 4097 1063 3765 
Q 888 3434 847 3029 
Q 806 2625 806 2144 
Q 806 1788 823 1472 
Q 841 1156 916 820 
Q 991 484 1158 254 
Q 1325 25 1600 25 
z
" transform="scale(0.015625)"/>
       </defs>
       <use xlink:href="#Cmr10-30" transform="translate(0 0.390625)"/>
      </g>
     </g>
    </g>
    <g id="ytick_3">
     <g id="line2d_4">
      <g>
       <use xlink:href="#m3d53b3f947" x="41.316477" y="35.214975" style="stroke: #000000"/>
      </g>
     </g>
     <g id="text_3">
      <!-- $1$ -->
      <g transform="translate(23.816477 45.852788) scale(0.28 -0.28)">
       <use xlink:href="#Cmr10-31" transform="translate(0 0.390625)"/>
      </g>
     </g>
    </g>
   </g>
   <g id="line2d_5">
    <path d="M 62.889558 35.215825 
L 63.788437 35.337333 
L 64.777203 35.707783 
L 65.765969 36.324195 
L 66.844623 37.27294 
L 68.013165 38.618644 
L 69.271595 40.425346 
L 70.619912 42.753596 
L 72.148006 45.851973 
L 73.855875 49.841852 
L 75.833407 55.068571 
L 78.170491 61.925986 
L 81.226677 71.651681 
L 89.046919 96.887801 
L 91.384003 103.530292 
L 93.361536 108.523623 
L 95.069405 112.278259 
L 96.597498 115.143161 
L 98.035703 117.375834 
L 99.294133 118.938443 
L 100.462675 120.049118 
L 101.541329 120.77544 
L 102.530095 121.184691 
L 103.518862 121.346081 
L 104.41774 121.276903 
L 105.406506 120.963726 
L 106.395272 120.403966 
L 107.473926 119.515928 
L 108.642468 118.234233 
L 109.900898 116.49384 
L 111.249216 114.23293 
L 112.777309 111.205348 
L 114.485178 107.286497 
L 116.372823 102.377089 
L 118.620019 95.881167 
L 121.496429 86.829765 
L 130.575101 57.700442 
L 132.822297 51.502711 
L 134.709942 46.905994 
L 136.417811 43.313225 
L 137.945904 40.607434 
L 139.294222 38.650345 
L 140.552651 37.20734 
L 141.721193 36.211253 
L 142.799847 35.592897 
L 143.788614 35.283816 
L 144.687492 35.218376 
L 145.58637 35.358563 
L 146.575137 35.749442 
L 147.563903 36.386041 
L 148.642557 37.356398 
L 149.811099 38.724861 
L 151.069529 40.55511 
L 152.417846 42.907237 
L 153.945939 46.030667 
L 155.653808 50.045615 
L 157.631341 55.296952 
L 159.968425 62.17663 
L 163.024611 71.919181 
L 170.665078 96.594424 
L 173.092049 103.508365 
L 175.069582 108.504351 
L 176.777451 112.26164 
L 178.305544 115.12916 
L 179.743749 117.364474 
L 181.002179 118.929509 
L 182.170721 120.042512 
L 183.249375 120.771031 
L 184.238141 121.182322 
L 185.226908 121.345767 
L 186.125786 121.278457 
L 187.114552 120.967328 
L 188.103318 120.409594 
L 189.181972 119.52373 
L 190.350514 118.244328 
L 191.608944 116.506313 
L 192.957262 114.247822 
L 194.485355 111.222785 
L 196.193224 107.306494 
L 198.080869 102.399512 
L 200.328065 95.90586 
L 203.204475 86.856285 
L 212.283147 57.724216 
L 214.530343 51.523909 
L 216.417988 46.924537 
L 218.125857 43.329027 
L 219.65395 40.620552 
L 221.002268 38.660943 
L 222.260697 37.215483 
L 223.429239 36.217048 
L 224.507893 35.596483 
L 225.49666 35.285353 
L 226.395538 35.218044 
L 227.294416 35.356364 
L 228.283183 35.745201 
L 229.271949 36.379782 
L 230.350603 37.347979 
L 231.519145 38.714169 
L 232.777575 40.542067 
L 234.125892 42.89181 
L 235.653985 46.01274 
L 237.361854 50.025188 
L 239.339387 55.274073 
L 241.676471 62.151537 
L 244.732657 71.89242 
L 252.373123 96.569929 
L 254.800095 103.486428 
L 256.777628 108.485067 
L 258.485497 112.245008 
L 260.01359 115.115145 
L 261.451795 117.353099 
L 262.710225 118.920559 
L 263.878767 120.035889 
L 264.957421 120.766605 
L 265.946187 121.179936 
L 266.934953 121.345435 
L 267.833832 121.279995 
L 268.822598 120.970913 
L 269.811364 120.415207 
L 270.890018 119.531516 
L 272.05856 118.254408 
L 273.31699 116.518772 
L 274.665308 114.262699 
L 276.193401 111.24021 
L 277.90127 107.32648 
L 279.788914 102.421926 
L 282.03611 95.930547 
L 284.912521 86.882801 
L 294.081081 57.486845 
L 296.328277 51.312408 
L 298.215922 46.739672 
L 299.923791 43.171629 
L 301.451884 40.490042 
L 302.800201 38.555665 
L 304.058631 37.13478 
L 305.137285 36.222859 
L 306.215939 35.600085 
L 307.204705 35.286908 
L 308.103584 35.21773 
L 309.002462 35.354182 
L 309.991229 35.740976 
L 310.979995 36.37354 
L 312.058649 37.339577 
L 313.227191 38.703493 
L 314.48562 40.529038 
L 315.833938 42.876397 
L 317.362031 45.994826 
L 319.0699 50.004773 
L 321.047433 55.251203 
L 323.384517 62.12645 
L 326.440703 71.865661 
L 334.171057 96.814555 
L 336.508141 103.464482 
L 338.485674 108.465771 
L 340.193543 112.228363 
L 341.721636 115.101115 
L 343.159841 117.341708 
L 344.418271 118.911593 
L 345.586813 120.02925 
L 346.665467 120.762162 
L 347.654233 121.177534 
L 348.642999 121.345087 
L 349.541878 121.281516 
L 350.530644 120.974482 
L 351.51941 120.420802 
L 352.598064 119.539285 
L 353.766606 118.264472 
L 355.025036 116.531216 
L 356.373354 114.277563 
L 357.901447 111.257622 
L 359.609316 107.346454 
L 361.49696 102.444331 
L 363.744156 95.955227 
L 366.620567 86.909314 
L 375.789127 57.510545 
L 378.036323 51.333511 
L 379.923968 46.758103 
L 381.631836 43.187307 
L 383.15993 40.503025 
L 384.508247 38.566122 
L 385.766677 37.142777 
L 386.845331 36.228688 
L 387.923985 35.603704 
L 388.912751 35.28848 
L 389.81163 35.217432 
L 390.710508 35.352016 
L 391.699274 35.736768 
L 392.688041 36.367314 
L 393.766695 37.331191 
L 394.935237 38.692832 
L 396.193666 40.516024 
L 397.541984 42.860998 
L 399.070077 45.976924 
L 400.777946 49.984368 
L 402.755479 55.228342 
L 405.092563 62.10137 
L 408.148749 71.838904 
L 415.879103 96.790125 
L 418.216187 103.442525 
L 420.19372 108.446464 
L 421.901588 112.211704 
L 423.429682 115.087071 
L 424.867887 117.330302 
L 426.126317 118.902611 
L 427.294859 120.022595 
L 428.373513 120.757702 
L 429.362279 121.175114 
L 430.351045 121.344721 
L 431.249924 121.28302 
L 432.23869 120.978034 
L 433.227456 120.426381 
L 434.30611 119.547039 
L 435.474652 118.27452 
L 436.733082 116.543644 
L 438.0814 114.292412 
L 439.609493 111.275021 
L 441.317362 107.366416 
L 443.205006 102.466726 
L 445.452202 95.9799 
L 448.328613 86.935824 
L 457.497173 57.534254 
L 459.744369 51.354624 
L 461.632013 46.776546 
L 463.339882 43.202998 
L 464.867976 40.516024 
L 466.216293 38.576595 
L 467.474723 37.150791 
L 468.643265 36.171153 
L 469.721919 35.568272 
L 470.710685 35.273526 
L 471.609564 35.221172 
L 472.508442 35.374433 
L 473.497208 35.779602 
L 474.485975 36.430318 
L 475.564629 37.41578 
L 476.73317 38.800143 
L 477.9916 40.646832 
L 479.429806 43.187307 
L 480.957899 46.355519 
L 482.665768 50.415192 
L 484.6433 55.71032 
L 486.980384 62.629387 
L 490.126459 72.696316 
L 497.317486 95.955227 
L 499.744457 102.9348 
L 501.72199 107.999116 
L 503.519747 112.010754 
L 505.04784 114.917407 
L 506.486045 117.192229 
L 507.744475 118.793578 
L 508.913017 119.941446 
L 509.991671 120.702879 
L 510.980437 121.144759 
L 511.969204 121.339009 
L 512.868082 121.299743 
L 513.76696 121.055067 
L 514.755727 120.550099 
L 515.744493 119.800938 
L 516.823147 118.710291 
L 517.991689 117.215395 
L 519.340006 115.101115 
L 520.778212 112.410725 
L 522.396193 108.887512 
L 524.19395 104.420606 
L 526.26137 98.672952 
L 528.778229 90.997037 
L 532.643407 78.390144 
L 537.587238 62.402755 
L 540.104097 55.000235 
L 542.171518 49.558472 
L 543.969274 45.410855 
L 545.587255 42.212144 
L 547.025461 39.835553 
L 548.373778 38.03359 
L 549.54232 36.820914 
L 550.620974 35.998225 
L 551.609741 35.499354 
L 552.598507 35.247649 
L 553.497385 35.23456 
L 554.396264 35.427022 
L 555.38503 35.875014 
L 556.373796 36.568002 
L 557.45245 37.598663 
L 558.620992 39.030564 
L 559.879422 40.926359 
L 561.317627 43.519725 
L 562.845721 46.739672 
L 564.643477 51.080988 
L 566.710898 56.709395 
L 569.137869 63.999435 
L 572.553607 75.037811 
L 578.576092 94.562699 
L 581.092952 101.926633 
L 583.160372 107.32648 
L 584.958129 111.431022 
L 586.57611 114.586405 
L 588.014316 116.921414 
L 589.272745 118.578165 
L 590.441287 119.779295 
L 591.519941 120.591064 
L 592.508708 121.079768 
L 593.497474 121.321219 
L 594.396352 121.324958 
L 595.295231 121.123168 
L 596.283997 120.664991 
L 597.272763 119.961956 
L 598.351417 118.920559 
L 599.519959 117.477376 
L 600.778389 115.569938 
L 602.216594 112.964044 
L 603.834575 109.527761 
L 605.632332 105.145785 
L 607.699752 99.478608 
L 610.216612 91.873088 
L 613.812125 80.202511 
L 619.295284 62.427911 
L 621.812143 55.023004 
L 623.879563 49.57864 
L 625.67732 45.428344 
L 627.295301 42.226936 
L 628.733507 39.847755 
L 630.081824 38.043226 
L 631.250366 36.828242 
L 632.32902 36.00337 
L 633.317787 35.502467 
L 634.306553 35.248712 
L 635.205431 35.233753 
L 636.10431 35.424348 
L 637.093076 35.870303 
L 638.081842 36.561281 
L 639.160496 37.589794 
L 640.329038 39.019436 
L 641.587468 40.9129 
L 643.025673 43.503758 
L 644.553767 46.721254 
L 646.351523 51.060014 
L 648.418944 56.685979 
L 650.845915 63.973909 
L 654.261653 75.010829 
L 660.284138 94.537644 
L 662.800998 101.904011 
L 664.868418 107.306494 
L 666.666175 111.413741 
L 668.284156 114.571841 
L 669.722362 116.909456 
L 670.980791 118.568608 
L 672.149333 119.772048 
L 673.227987 120.586002 
L 674.216754 121.07674 
L 675.20552 121.320241 
L 676.104398 121.325851 
L 677.003277 121.125926 
L 677.992043 120.669785 
L 678.980809 119.968759 
L 680.059463 118.929509 
L 681.228005 117.488581 
L 682.486435 115.58347 
L 683.92464 112.98008 
L 685.542621 109.546378 
L 687.340378 105.16693 
L 689.407798 99.502159 
L 691.924658 91.898762 
L 695.520171 80.229543 
L 701.00333 62.453074 
L 703.520189 55.045783 
L 705.587609 49.598819 
L 707.385366 45.445847 
L 709.003347 42.241743 
L 710.441553 39.859971 
L 711.78987 38.052878 
L 712.958412 36.835588 
L 714.037066 36.008532 
L 715.025833 35.505597 
L 716.014599 35.249791 
L 716.913477 35.232962 
L 717.812356 35.421692 
L 718.801122 35.865609 
L 719.789888 36.554576 
L 720.868542 37.58094 
L 722.037084 39.008324 
L 723.295514 40.899456 
L 724.733719 43.487805 
L 726.261812 46.702849 
L 728.059569 51.03905 
L 730.12699 56.662571 
L 732.553961 63.948389 
L 735.969699 74.983848 
L 742.082072 94.787903 
L 744.598932 102.129804 
L 746.666352 107.505833 
L 748.464109 111.585964 
L 750.08209 114.716834 
L 751.520295 117.028349 
L 752.778725 118.663462 
L 753.947267 119.84378 
L 755.025921 120.635871 
L 756.014687 121.106265 
L 757.003454 121.329251 
L 757.902332 121.316162 
L 758.80121 121.097585 
L 759.789977 120.621086 
L 760.778743 119.899983 
L 761.857397 118.839289 
L 763.025939 117.375834 
L 764.284369 115.447485 
L 765.722574 112.819107 
L 767.340555 109.359659 
L 769.138312 104.955005 
L 771.205732 99.266273 
L 773.722592 91.641779 
L 777.407993 79.661717 
L 781.902385 64.99923 
L 781.992273 64.973492 
L 781.992273 64.973492 
" clip-path="url(#p51e39f778c)" style="fill: none; stroke: #e36f47; stroke-width: 4"/>
   </g>
   <g id="patch_3">
    <path d="M 41.316477 124.800705 
L 41.316477 2.834646 
" style="fill: none; stroke: #000000; stroke-width: 2; stroke-linejoin: miter; stroke-linecap: square"/>
   </g>
   <g id="line2d_6">
    <path d="M 62.889558 35.122946 
L 76.282846 38.228964 
L 90.395237 41.260189 
L 104.507628 44.061933 
L 119.069458 46.730911 
L 134.260503 49.29357 
L 134.709942 49.366142 
L 134.79983 6.334283 
L 134.889717 6.370315 
L 145.316707 10.432572 
L 156.103248 14.393426 
L 167.24934 18.24341 
L 178.575207 21.918195 
L 190.350514 25.500366 
L 202.665148 29.0033 
L 214.889894 32.250622 
L 227.653968 35.413179 
L 240.687704 38.418484 
L 254.710207 41.416837 
L 268.73271 44.18967 
L 283.654092 46.911669 
L 298.215922 49.358351 
L 298.305809 6.317892 
L 298.395697 6.353915 
L 308.822687 10.417093 
L 319.609227 14.37885 
L 330.665432 18.199642 
L 342.171075 21.933584 
L 354.03627 25.541145 
L 366.261016 29.016774 
L 378.57565 32.286273 
L 391.159947 35.403391 
L 404.193684 38.409397 
L 418.126299 41.38991 
L 432.148802 44.164843 
L 447.339847 46.935956 
L 461.721901 49.35176 
L 461.811789 6.312707 
L 461.901677 6.348736 
L 472.328666 10.412208 
L 483.115207 14.37425 
L 494.171411 18.195313 
L 505.677055 21.929526 
L 517.54225 25.537346 
L 529.766996 29.013229 
L 542.08163 32.282963 
L 554.665927 35.400306 
L 567.699664 38.406526 
L 581.632279 41.387255 
L 595.654782 44.162384 
L 610.845827 46.933698 
L 625.137993 49.335186 
L 625.227881 6.286515 
L 625.317769 6.322538 
L 635.834646 10.421502 
L 646.711075 14.414998 
L 658.12683 18.354006 
L 669.272922 21.965407 
L 681.228005 25.597393 
L 693.0932 28.970526 
L 705.317946 32.22004 
L 718.171907 35.406191 
L 731.205644 38.411975 
L 745.318034 41.429326 
L 759.430425 44.218271 
L 774.082143 46.89081 
L 781.992273 48.231594 
L 781.992273 48.231594 
" clip-path="url(#p51e39f778c)" style="fill: none; stroke: #3ea44d; stroke-width: 4"/>
   </g>
  </g>
 </g>
 <defs>
  <clipPath id="p51e39f778c">
   <rect x="41.316477" y="2.834646" width="762.248878" height="121.96606"/>
  </clipPath>
 </defs>
</svg>
