<?xml version="1.0" encoding="utf-8" standalone="no"?>
<!DOCTYPE svg PUBLIC "-//W3C//DTD SVG 1.1//EN"
  "http://www.w3.org/Graphics/SVG/1.1/DTD/svg11.dtd">
<svg xmlns:xlink="http://www.w3.org/1999/xlink" width="979.2pt" height="184.32pt" viewBox="0 0 979.2 184.32" xmlns="http://www.w3.org/2000/svg" version="1.1">
 <metadata>
  <rdf:RDF xmlns:dc="http://purl.org/dc/elements/1.1/" xmlns:cc="http://creativecommons.org/ns#" xmlns:rdf="http://www.w3.org/1999/02/22-rdf-syntax-ns#">
   <cc:Work>
    <dc:type rdf:resource="http://purl.org/dc/dcmitype/StillImage"/>
    <dc:date>2024-04-26T17:51:09.323731</dc:date>
    <dc:format>image/svg+xml</dc:format>
    <dc:creator>
     <cc:Agent>
      <dc:title>Matplotlib v3.7.0, https://matplotlib.org/</dc:title>
     </cc:Agent>
    </dc:creator>
   </cc:Work>
  </rdf:RDF>
 </metadata>
 <defs>
  <style type="text/css">*{stroke-linejoin: round; stroke-linecap: butt}</style>
 </defs>
 <g id="figure_1">
  <g id="patch_1">
   <path d="M 0 184.32 
L 979.2 184.32 
L 979.2 0 
L 0 0 
L 0 184.32 
z
" style="fill: none"/>
  </g>
  <g id="axes_1">
   <g id="patch_2">
    <path d="M 64.170808 150.625354 
L 976.365354 150.625354 
L 976.365354 7.038598 
L 64.170808 7.038598 
L 64.170808 150.625354 
z
" style="fill: none"/>
   </g>
   <g id="line2d_1">
    <path d="M 89.987635 40.281764 
L 90.704769 40.411559 
L 91.421903 40.801255 
L 92.139037 41.450378 
L 92.856171 42.357188 
L 93.573305 43.518672 
L 95.007573 46.587195 
L 96.441841 50.606279 
L 97.876109 55.506218 
L 99.310378 61.198082 
L 101.46178 70.982398 
L 103.613182 81.876929 
L 110.784523 119.589075 
L 112.935925 129.195462 
L 114.370193 134.668225 
L 115.804461 139.235212 
L 117.23873 142.777337 
L 117.955864 144.132361 
L 118.672998 145.195977 
L 119.390132 145.959624 
L 120.107266 146.416436 
L 120.8244 146.561339 
L 121.541534 146.391127 
L 122.258668 145.904533 
L 122.975802 145.102287 
L 123.692936 143.98716 
L 124.41007 142.563985 
L 125.127204 140.839672 
L 126.561473 136.525546 
L 127.995741 131.140618 
L 129.430009 124.811164 
L 131.581411 113.888393 
L 134.449947 97.631526 
L 138.752752 72.980784 
L 140.904154 62.055418 
L 142.338422 55.721765 
L 143.77269 50.330622 
L 145.206959 46.009203 
L 145.924093 44.281401 
L 146.641227 42.855256 
L 147.358361 41.73804 
L 148.075495 40.934974 
L 148.792629 40.449218 
L 149.509763 40.281872 
L 150.226897 40.493237 
L 150.944031 41.145298 
L 151.661165 42.22758 
L 152.378299 43.726227 
L 153.095433 45.624252 
L 154.529702 50.536163 
L 155.96397 56.773572 
L 157.398238 64.112262 
L 159.54964 76.633445 
L 166.720981 120.519861 
L 168.155249 127.780415 
L 169.589517 134.038482 
L 171.023785 139.140359 
L 172.458053 142.967911 
L 173.175188 144.377014 
L 173.892322 145.44007 
L 174.609456 146.152814 
L 175.32659 146.513305 
L 176.043724 146.52189 
L 176.760858 146.181157 
L 177.477992 145.495876 
L 178.195126 144.472932 
L 178.91226 143.121243 
L 179.629394 141.451676 
L 181.063662 137.211548 
L 182.497931 131.874714 
L 183.932199 125.587838 
L 186.083601 114.746867 
L 188.952137 98.654978 
L 193.254942 74.294742 
L 195.406344 63.454308 
L 196.840612 57.122124 
L 198.27488 51.669588 
L 199.709148 47.207292 
L 201.143417 43.816444 
L 201.860551 42.539791 
L 202.577685 41.547482 
L 203.294819 40.840974 
L 204.011953 40.41983 
L 204.729087 40.281779 
L 205.446221 40.493019 
L 206.163355 41.113648 
L 206.880489 42.132062 
L 207.597623 43.533731 
L 208.314757 45.301427 
L 209.749026 49.853975 
L 211.183294 55.607479 
L 212.617562 62.353157 
L 214.768964 73.833653 
L 222.657439 118.144627 
L 224.091707 124.84047 
L 225.525975 130.744901 
L 226.960243 135.768847 
L 228.394512 139.852746 
L 229.82878 142.965396 
L 230.545914 144.155035 
L 231.263048 145.101975 
L 231.980182 145.809296 
L 232.697316 146.281362 
L 233.41445 146.523709 
L 234.131584 146.542937 
L 234.848718 146.346588 
L 235.565852 145.943028 
L 236.282986 145.341329 
L 237.00012 144.551154 
L 238.434389 142.446258 
L 239.868657 139.713059 
L 241.302925 136.438661 
L 243.454327 130.700679 
L 245.605729 124.215187 
L 248.474266 114.826112 
L 259.948411 76.263402 
L 262.816947 67.57905 
L 265.685484 59.638872 
L 267.836886 54.302054 
L 269.988288 49.620381 
L 271.422556 46.92837 
L 272.856824 44.629919 
L 274.291092 42.770515 
L 275.725361 41.396358 
L 276.442495 40.905497 
L 277.159629 40.552785 
L 277.876763 40.34346 
L 278.593897 40.282914 
L 279.311031 40.430695 
L 280.028165 40.826213 
L 280.745299 41.468501 
L 281.462433 42.355505 
L 282.179567 43.484078 
L 283.613835 46.447862 
L 285.048104 50.312784 
L 286.482372 55.0145 
L 287.91664 60.471917 
L 290.068042 69.858873 
L 292.219444 80.337627 
L 300.825053 123.715415 
L 302.259322 129.693765 
L 303.69359 134.935682 
L 305.127858 139.320245 
L 306.562126 142.741826 
L 307.27926 144.063329 
L 307.996394 145.112746 
L 308.713528 145.882321 
L 309.430662 146.365713 
L 310.147796 146.558054 
L 310.86493 146.456008 
L 311.582065 146.05782 
L 312.299199 145.363364 
L 313.016333 144.374176 
L 313.733467 143.09349 
L 314.450601 141.526259 
L 315.884869 137.560632 
L 317.319137 132.551556 
L 318.753405 126.600592 
L 320.187673 119.835411 
L 322.339076 108.498739 
L 326.64188 83.828684 
L 329.510416 68.108848 
L 331.661819 57.851933 
L 333.096087 52.081466 
L 334.530355 47.341034 
L 335.964623 43.750716 
L 336.681757 42.415913 
L 337.398891 41.39939 
L 338.116025 40.707007 
L 338.833159 40.342444 
L 339.550294 40.318121 
L 340.267428 40.735943 
L 340.984562 41.612885 
L 341.701696 42.935796 
L 342.41883 44.687959 
L 343.135964 46.849329 
L 344.570232 52.304462 
L 346.0045 59.08463 
L 347.438768 66.938251 
L 349.590171 80.121836 
L 355.327243 116.537189 
L 356.761511 124.422585 
L 358.19578 131.343815 
L 359.630048 137.117346 
L 361.064316 141.597755 
L 361.78145 143.318627 
L 362.498584 144.680111 
L 363.215718 145.675605 
L 363.932852 146.301115 
L 364.649986 146.555228 
L 365.36712 146.439069 
L 366.084254 145.956244 
L 366.801388 145.112764 
L 367.518523 143.916962 
L 368.235657 142.379394 
L 368.952791 140.512733 
L 370.387059 135.852688 
L 371.821327 130.075865 
L 373.255595 123.346894 
L 375.406997 111.87863 
L 378.992668 90.832239 
L 381.861204 74.214833 
L 384.012606 62.991649 
L 385.446874 56.458276 
L 386.881143 50.875278 
L 388.315411 46.377866 
L 389.032545 44.570412 
L 389.749679 43.071309 
L 390.466813 41.888532 
L 391.183947 41.027863 
L 391.901081 40.492853 
L 392.618215 40.284822 
L 393.335349 40.463707 
L 394.052483 41.127633 
L 394.769617 42.266208 
L 395.486752 43.863096 
L 396.203886 45.898082 
L 397.638154 51.183906 
L 399.072422 57.896326 
L 400.50669 65.767292 
L 402.658092 79.091954 
L 408.395165 116.075499 
L 409.829433 124.066643 
L 411.263701 131.067815 
L 412.697969 136.89964 
L 414.132238 141.426033 
L 414.849372 143.169411 
L 415.566506 144.555726 
L 416.28364 145.580567 
L 417.000774 146.242245 
L 417.717908 146.541713 
L 418.435042 146.482474 
L 419.152176 146.070471 
L 419.86931 145.313961 
L 420.586444 144.223373 
L 421.303578 142.811159 
L 422.020712 141.091637 
L 423.454981 136.79622 
L 424.889249 131.482355 
L 426.323517 125.313799 
L 428.474919 114.846553 
L 432.06059 95.696436 
L 435.64626 76.809632 
L 437.797662 66.61113 
L 439.23193 60.544439 
L 440.666198 55.175634 
L 442.100467 50.577753 
L 443.534735 46.803139 
L 444.969003 43.88367 
L 445.686137 42.749126 
L 446.403271 41.831376 
L 447.120405 41.128983 
L 447.837539 40.639405 
L 448.554673 40.359046 
L 449.271807 40.284298 
L 449.988941 40.49837 
L 450.706076 41.049535 
L 451.42321 41.925506 
L 452.140344 43.112035 
L 452.857478 44.593175 
L 454.291746 48.368425 
L 455.726014 53.098606 
L 457.160282 58.618397 
L 459.311684 68.003066 
L 462.897355 85.18769 
L 466.483025 102.273036 
L 468.634427 111.705525 
L 470.78583 120.187393 
L 472.937232 127.550972 
L 474.3715 131.792301 
L 475.805768 135.485784 
L 477.240036 138.630774 
L 478.674305 141.233577 
L 480.108573 143.304962 
L 481.542841 144.857921 
L 482.977109 145.90576 
L 484.411377 146.460576 
L 485.128511 146.556271 
L 485.845645 146.532156 
L 486.562779 146.388984 
L 487.997048 145.74746 
L 489.431316 144.633734 
L 490.865584 143.047085 
L 492.299852 140.984856 
L 493.73412 138.443649 
L 495.168388 135.420863 
L 496.602656 131.916513 
L 498.036925 127.935262 
L 500.188327 121.096582 
L 502.339729 113.290811 
L 504.491131 104.654809 
L 507.359668 92.213069 
L 513.09674 66.915892 
L 515.248143 58.464294 
L 516.682411 53.476589 
L 518.116679 49.144165 
L 519.550947 45.575068 
L 520.985215 42.864402 
L 521.702349 41.856351 
L 522.419483 41.091072 
L 523.136617 40.575433 
L 523.853751 40.314964 
L 524.570886 40.329299 
L 525.28802 40.713606 
L 526.005154 41.478229 
L 526.722288 42.614513 
L 527.439422 44.111337 
L 528.156556 45.955235 
L 529.590824 50.619478 
L 531.025092 56.45792 
L 532.45936 63.29325 
L 534.610763 74.97361 
L 538.196433 96.392851 
L 541.064969 113.216513 
L 543.216372 124.500706 
L 544.65064 131.02476 
L 546.084908 136.55837 
L 547.519176 140.967171 
L 548.23631 142.715774 
L 548.953444 144.146249 
L 549.670578 145.250403 
L 550.387712 146.022082 
L 551.104846 146.457198 
L 551.82198 146.553732 
L 552.539115 146.311731 
L 553.256249 145.733298 
L 553.973383 144.822566 
L 554.690517 143.585667 
L 555.407651 142.030683 
L 556.841919 138.008257 
L 558.276187 132.856867 
L 559.710455 126.705188 
L 561.144723 119.706192 
L 563.296126 108.004532 
L 571.184601 63.242264 
L 572.618869 56.618489 
L 574.053137 50.942946 
L 575.487405 46.367025 
L 576.204539 44.530725 
L 576.921673 43.012396 
L 577.638807 41.821927 
L 578.355941 40.966906 
L 579.073075 40.452567 
L 579.790209 40.281765 
L 580.507344 40.536315 
L 581.224478 41.291163 
L 581.941612 42.53288 
L 582.658746 44.243746 
L 583.37588 46.402039 
L 584.810148 51.95596 
L 586.244416 58.953565 
L 587.678684 67.112241 
L 589.830087 80.840274 
L 594.850025 114.070708 
L 596.284293 122.467461 
L 597.718561 129.882646 
L 599.15283 136.106291 
L 600.587098 140.972565 
L 601.304232 142.857655 
L 602.021366 144.36257 
L 602.7385 145.47998 
L 603.455634 146.205559 
L 604.172768 146.537939 
L 604.889902 146.478653 
L 605.607036 146.03205 
L 606.32417 145.205193 
L 607.041304 144.007751 
L 607.758439 142.45186 
L 608.475573 140.551988 
L 609.909841 135.788849 
L 611.344109 129.874464 
L 612.778377 122.991357 
L 614.929779 111.298376 
L 619.232584 85.735855 
L 622.10112 69.504244 
L 624.252522 58.927932 
L 625.68679 52.964462 
L 627.121059 48.036736 
L 628.555327 44.256247 
L 629.272461 42.822954 
L 629.989595 41.704659 
L 630.706729 40.906616 
L 631.423863 40.432022 
L 632.140997 40.282089 
L 632.858131 40.558319 
L 633.575265 41.343552 
L 634.292399 42.624054 
L 635.009533 44.38155 
L 635.726668 46.593531 
L 637.160936 52.271825 
L 638.595204 59.407813 
L 640.029472 67.706871 
L 642.180874 81.621199 
L 647.200813 114.985666 
L 648.635081 123.317689 
L 650.069349 130.624573 
L 651.503617 136.704569 
L 652.937885 141.403957 
L 653.655019 143.201565 
L 654.372154 144.61911 
L 655.089288 145.651502 
L 655.806422 146.296718 
L 656.523556 146.555718 
L 657.24069 146.432342 
L 657.957824 145.933189 
L 658.674958 145.067471 
L 659.392092 143.846864 
L 660.109226 142.285329 
L 661.543494 138.205661 
L 662.977762 132.978783 
L 664.412031 126.779121 
L 666.563433 116.078465 
L 669.431969 100.269088 
L 673.734774 76.510383 
L 675.886176 65.914241 
L 677.320444 59.656593 
L 678.754712 54.170853 
L 680.18898 49.538926 
L 681.623248 45.818845 
L 683.057517 43.045337 
L 683.774651 42.018277 
L 684.491785 41.230873 
L 685.208919 40.681442 
L 685.926053 40.367104 
L 686.643187 40.285611 
L 687.360321 40.543845 
L 688.077455 41.199378 
L 688.794589 42.239325 
L 689.511723 43.648069 
L 690.228857 45.40749 
L 691.663126 49.894953 
L 693.097394 55.516864 
L 694.531662 62.065923 
L 696.683064 73.143801 
L 704.571539 115.677734 
L 706.722941 125.189171 
L 708.157209 130.635633 
L 709.591478 135.297373 
L 711.025746 139.143512 
L 712.460014 142.165857 
L 713.894282 144.375948 
L 714.611416 145.18458 
L 715.32855 145.801705 
L 716.045684 146.232785 
L 716.762818 146.483861 
L 717.479952 146.561435 
L 718.197086 146.47237 
L 718.914221 146.223782 
L 719.631355 145.82295 
L 721.065623 144.593917 
L 722.499891 142.843412 
L 723.934159 140.627119 
L 725.368427 137.996514 
L 726.802695 134.997668 
L 728.954098 129.89483 
L 731.1055 124.161649 
L 733.256902 117.880836 
L 736.125438 108.764691 
L 738.993975 98.93141 
L 743.296779 83.27147 
L 748.316718 65.044604 
L 750.46812 57.914014 
L 752.619522 51.604274 
L 754.05379 48.006841 
L 755.488058 45.001996 
L 756.922327 42.674404 
L 757.639461 41.788784 
L 758.356595 41.10018 
L 759.073729 40.616267 
L 759.790863 40.343814 
L 760.507997 40.292491 
L 761.225131 40.55246 
L 761.942265 41.156577 
L 762.659399 42.098932 
L 763.376533 43.371564 
L 764.093667 44.964524 
L 765.527936 49.062224 
L 766.962204 54.276123 
L 768.396472 60.464799 
L 770.547874 71.21396 
L 773.41641 87.302838 
L 777.719215 111.931871 
L 779.870617 123.009514 
L 781.304885 129.517309 
L 782.739153 135.140194 
L 784.173422 139.745327 
L 785.60769 143.224467 
L 786.324824 144.515269 
L 787.041958 145.496271 
L 787.759092 146.161781 
L 788.476226 146.507962 
L 789.19336 146.532846 
L 789.910494 146.236345 
L 790.627628 145.620242 
L 791.344762 144.68818 
L 792.061896 143.445641 
L 792.77903 141.899908 
L 794.213299 137.936776 
L 795.647567 132.89141 
L 797.081835 126.881869 
L 798.516103 120.049242 
L 800.667505 108.614579 
L 804.97031 83.79635 
L 807.838846 67.999329 
L 809.990248 57.691209 
L 811.424517 51.896569 
L 812.858785 47.147945 
L 814.293053 43.574303 
L 815.010187 42.260121 
L 815.727321 41.273937 
L 816.444455 40.62265 
L 817.161589 40.310861 
L 817.878723 40.370169 
L 818.595857 40.923287 
L 819.312991 41.972956 
L 820.030125 43.502793 
L 820.74726 45.492267 
L 821.464394 47.917019 
L 822.898662 53.957863 
L 824.33293 61.367349 
L 826.484332 74.39359 
L 830.787137 103.268755 
L 832.938539 116.914457 
L 834.372807 125.041263 
L 835.807075 132.106657 
L 837.241343 137.912264 
L 838.675611 142.305132 
L 839.392746 143.937027 
L 840.10988 145.180102 
L 840.827014 146.028814 
L 841.544148 146.48063 
L 842.261282 146.535978 
L 842.978416 146.19817 
L 843.69555 145.473319 
L 844.412684 144.370227 
L 845.129818 142.900269 
L 845.846952 141.077251 
L 847.28122 136.438528 
L 848.715489 130.607265 
L 850.149757 123.765064 
L 852.301159 112.057238 
L 855.886829 90.574731 
L 858.755366 73.70328 
L 860.906768 62.38923 
L 862.341036 55.848627 
L 863.775304 50.301524 
L 865.209572 45.882771 
L 865.926706 44.13068 
L 866.64384 42.697765 
L 867.360975 41.592217 
L 868.078109 40.820121 
L 868.795243 40.385414 
L 869.512377 40.294832 
L 870.229511 40.684791 
L 870.946645 41.608112 
L 871.663779 43.049059 
L 872.380913 44.986943 
L 873.098047 47.396483 
L 874.532315 53.508784 
L 875.966583 61.107265 
L 877.400852 69.86716 
L 879.552254 84.401882 
L 883.855058 113.924703 
L 885.289326 122.627302 
L 886.723595 130.26605 
L 888.157863 136.610582 
L 889.592131 141.483088 
L 890.309265 143.326918 
L 891.026399 144.761315 
L 891.743533 145.779825 
L 892.460667 146.379477 
L 893.177801 146.560699 
L 893.894935 146.327226 
L 894.612069 145.685974 
L 895.329204 144.64689 
L 896.046338 143.222796 
L 896.763472 141.429202 
L 898.19774 136.807806 
L 899.632008 130.952806 
L 901.066276 124.063641 
L 903.217678 112.278925 
L 907.520483 86.44278 
L 910.389019 70.08185 
L 912.540421 59.448829 
L 913.97469 53.453977 
L 915.408958 48.485719 
L 916.843226 44.640512 
L 917.56036 43.16084 
L 918.277494 41.984246 
L 918.994628 41.114197 
L 919.711762 40.552294 
L 920.428896 40.298304 
L 921.14603 40.400637 
L 921.863164 41.014315 
L 922.580299 42.139152 
L 923.297433 43.75799 
L 924.014567 45.849109 
L 924.731701 48.386573 
L 926.165969 54.678012 
L 927.600237 62.355538 
L 929.751639 75.768342 
L 936.205846 118.693617 
L 937.640114 126.67861 
L 939.074382 133.519724 
L 940.50865 139.033106 
L 941.225785 141.248605 
L 941.942919 143.086853 
L 942.660053 144.539654 
L 943.377187 145.602088 
L 944.094321 146.27244 
L 944.811455 146.552103 
L 945.528589 146.44546 
L 946.245723 145.959744 
L 946.962857 145.10488 
L 947.679991 143.893308 
L 948.397125 142.339794 
L 949.831393 138.276406 
L 950.548528 135.805825 
L 950.548528 135.805825 
" clip-path="url(#p7ea79e814e)" style="fill: none; stroke: #009afa; stroke-width: 6"/>
   </g>
   <g id="matplotlib.axis_1">
    <g id="xtick_1">
     <g id="line2d_2">
      <defs>
       <path id="m8eae072a89" d="M 0 0 
L 0 -5 
" style="stroke: #000000"/>
      </defs>
      <g>
       <use xlink:href="#m8eae072a89" x="89.987635" y="150.625354" style="stroke: #000000"/>
      </g>
     </g>
     <g id="text_1">
      <!-- $0.0$ -->
      <g transform="translate(72.067635 175.400979) scale(0.28 -0.28)">
       <defs>
        <path id="Cmr10-30" d="M 1600 -141 
Q 816 -141 533 504 
Q 250 1150 250 2041 
Q 250 2597 351 3087 
Q 453 3578 754 3920 
Q 1056 4263 1600 4263 
Q 2022 4263 2290 4056 
Q 2559 3850 2700 3523 
Q 2841 3197 2892 2823 
Q 2944 2450 2944 2041 
Q 2944 1491 2842 1011 
Q 2741 531 2444 195 
Q 2147 -141 1600 -141 
z
M 1600 25 
Q 1956 25 2131 390 
Q 2306 756 2347 1200 
Q 2388 1644 2388 2144 
Q 2388 2625 2347 3031 
Q 2306 3438 2132 3767 
Q 1959 4097 1600 4097 
Q 1238 4097 1063 3765 
Q 888 3434 847 3029 
Q 806 2625 806 2144 
Q 806 1788 823 1472 
Q 841 1156 916 820 
Q 991 484 1158 254 
Q 1325 25 1600 25 
z
" transform="scale(0.015625)"/>
        <path id="Cmmi10-3a" d="M 538 353 
Q 538 497 644 600 
Q 750 703 891 703 
Q 978 703 1062 656 
Q 1147 609 1194 525 
Q 1241 441 1241 353 
Q 1241 213 1137 106 
Q 1034 0 891 0 
Q 750 0 644 106 
Q 538 213 538 353 
z
" transform="scale(0.015625)"/>
       </defs>
       <use xlink:href="#Cmr10-30" transform="translate(0 0.390625)"/>
       <use xlink:href="#Cmmi10-3a" transform="translate(50 0.390625)"/>
       <use xlink:href="#Cmr10-30" transform="translate(77.685547 0.390625)"/>
      </g>
     </g>
    </g>
    <g id="xtick_2">
     <g id="line2d_3">
      <g>
       <use xlink:href="#m8eae072a89" x="269.271154" y="150.625354" style="stroke: #000000"/>
      </g>
     </g>
     <g id="text_2">
      <!-- $2.5$ -->
      <g transform="translate(251.351154 175.400979) scale(0.28 -0.28)">
       <defs>
        <path id="Cmr10-32" d="M 319 0 
L 319 172 
Q 319 188 331 206 
L 1325 1306 
Q 1550 1550 1690 1715 
Q 1831 1881 1968 2097 
Q 2106 2313 2186 2536 
Q 2266 2759 2266 3009 
Q 2266 3272 2169 3511 
Q 2072 3750 1880 3894 
Q 1688 4038 1416 4038 
Q 1138 4038 916 3870 
Q 694 3703 603 3438 
Q 628 3444 672 3444 
Q 816 3444 917 3347 
Q 1019 3250 1019 3097 
Q 1019 2950 917 2848 
Q 816 2747 672 2747 
Q 522 2747 420 2851 
Q 319 2956 319 3097 
Q 319 3338 409 3548 
Q 500 3759 670 3923 
Q 841 4088 1055 4175 
Q 1269 4263 1509 4263 
Q 1875 4263 2190 4108 
Q 2506 3953 2690 3670 
Q 2875 3388 2875 3009 
Q 2875 2731 2753 2481 
Q 2631 2231 2440 2026 
Q 2250 1822 1953 1562 
Q 1656 1303 1563 1216 
L 838 519 
L 1453 519 
Q 1906 519 2211 526 
Q 2516 534 2534 550 
Q 2609 631 2688 1141 
L 2875 1141 
L 2694 0 
L 319 0 
z
" transform="scale(0.015625)"/>
        <path id="Cmr10-35" d="M 556 728 
Q 622 541 758 387 
Q 894 234 1080 148 
Q 1266 63 1466 63 
Q 1928 63 2103 422 
Q 2278 781 2278 1294 
Q 2278 1516 2270 1667 
Q 2263 1819 2228 1959 
Q 2169 2184 2020 2353 
Q 1872 2522 1656 2522 
Q 1441 2522 1286 2456 
Q 1131 2391 1034 2303 
Q 938 2216 863 2119 
Q 788 2022 769 2016 
L 697 2016 
Q 681 2016 657 2036 
Q 634 2056 634 2075 
L 634 4213 
Q 634 4228 654 4245 
Q 675 4263 697 4263 
L 716 4263 
Q 1147 4056 1631 4056 
Q 2106 4056 2547 4263 
L 2566 4263 
Q 2588 4263 2606 4247 
Q 2625 4231 2625 4213 
L 2625 4153 
Q 2625 4122 2613 4122 
Q 2394 3831 2064 3668 
Q 1734 3506 1381 3506 
Q 1125 3506 856 3578 
L 856 2369 
Q 1069 2541 1236 2614 
Q 1403 2688 1663 2688 
Q 2016 2688 2295 2484 
Q 2575 2281 2725 1954 
Q 2875 1628 2875 1288 
Q 2875 903 2686 575 
Q 2497 247 2172 53 
Q 1847 -141 1466 -141 
Q 1150 -141 886 21 
Q 622 184 470 459 
Q 319 734 319 1044 
Q 319 1188 412 1278 
Q 506 1369 647 1369 
Q 788 1369 883 1276 
Q 978 1184 978 1044 
Q 978 906 883 811 
Q 788 716 647 716 
Q 625 716 597 720 
Q 569 725 556 728 
z
" transform="scale(0.015625)"/>
       </defs>
       <use xlink:href="#Cmr10-32" transform="translate(0 0.390625)"/>
       <use xlink:href="#Cmmi10-3a" transform="translate(50 0.390625)"/>
       <use xlink:href="#Cmr10-35" transform="translate(77.685547 0.390625)"/>
      </g>
     </g>
    </g>
    <g id="xtick_3">
     <g id="line2d_4">
      <g>
       <use xlink:href="#m8eae072a89" x="448.554673" y="150.625354" style="stroke: #000000"/>
      </g>
     </g>
     <g id="text_3">
      <!-- $5.0$ -->
      <g transform="translate(430.634673 175.400979) scale(0.28 -0.28)">
       <use xlink:href="#Cmr10-35" transform="translate(0 0.390625)"/>
       <use xlink:href="#Cmmi10-3a" transform="translate(50 0.390625)"/>
       <use xlink:href="#Cmr10-30" transform="translate(77.685547 0.390625)"/>
      </g>
     </g>
    </g>
    <g id="xtick_4">
     <g id="line2d_5">
      <g>
       <use xlink:href="#m8eae072a89" x="627.838193" y="150.625354" style="stroke: #000000"/>
      </g>
     </g>
     <g id="text_4">
      <!-- $7.5$ -->
      <g transform="translate(609.918193 175.400979) scale(0.28 -0.28)">
       <defs>
        <path id="Cmr10-37" d="M 1113 166 
Q 1113 522 1175 862 
Q 1238 1203 1358 1536 
Q 1478 1869 1648 2189 
Q 1819 2509 2022 2791 
L 2606 3603 
L 1875 3603 
Q 738 3603 703 3572 
Q 619 3469 544 2981 
L 359 2981 
L 569 4325 
L 756 4325 
L 756 4306 
Q 756 4191 1147 4156 
Q 1538 4122 1913 4122 
L 3103 4122 
L 3103 3956 
Q 3103 3950 3101 3947 
Q 3100 3944 3097 3938 
L 2216 2700 
Q 1891 2219 1809 1631 
Q 1728 1044 1728 166 
Q 1728 41 1637 -50 
Q 1547 -141 1422 -141 
Q 1294 -141 1203 -50 
Q 1113 41 1113 166 
z
" transform="scale(0.015625)"/>
       </defs>
       <use xlink:href="#Cmr10-37" transform="translate(0 0.421875)"/>
       <use xlink:href="#Cmmi10-3a" transform="translate(50 0.421875)"/>
       <use xlink:href="#Cmr10-35" transform="translate(77.685547 0.421875)"/>
      </g>
     </g>
    </g>
    <g id="xtick_5">
     <g id="line2d_6">
      <g>
       <use xlink:href="#m8eae072a89" x="807.121712" y="150.625354" style="stroke: #000000"/>
      </g>
     </g>
     <g id="text_5">
      <!-- $10.0$ -->
      <g transform="translate(782.201712 175.400979) scale(0.28 -0.28)">
       <defs>
        <path id="Cmr10-31" d="M 594 0 
L 594 225 
Q 1394 225 1394 428 
L 1394 3788 
Q 1063 3628 556 3628 
L 556 3853 
Q 1341 3853 1741 4263 
L 1831 4263 
Q 1853 4263 1873 4245 
Q 1894 4228 1894 4206 
L 1894 428 
Q 1894 225 2694 225 
L 2694 0 
L 594 0 
z
" transform="scale(0.015625)"/>
       </defs>
       <use xlink:href="#Cmr10-31" transform="translate(0 0.390625)"/>
       <use xlink:href="#Cmr10-30" transform="translate(50 0.390625)"/>
       <use xlink:href="#Cmmi10-3a" transform="translate(100 0.390625)"/>
       <use xlink:href="#Cmr10-30" transform="translate(127.685547 0.390625)"/>
      </g>
     </g>
    </g>
   </g>
   <g id="matplotlib.axis_2">
    <g id="ytick_1">
     <g id="line2d_7">
      <defs>
       <path id="meabbeff713" d="M 0 0 
L 5 0 
" style="stroke: #000000"/>
      </defs>
      <g>
       <use xlink:href="#meabbeff713" x="64.170808" y="146.561578" style="stroke: #000000"/>
      </g>
     </g>
     <g id="text_6">
      <!-- $-1.0$ -->
      <g transform="translate(2.990808 157.199391) scale(0.28 -0.28)">
       <defs>
        <path id="Cmsy10-a1" d="M 653 1472 
Q 600 1472 565 1512 
Q 531 1553 531 1600 
Q 531 1647 565 1687 
Q 600 1728 653 1728 
L 4325 1728 
Q 4375 1728 4408 1687 
Q 4441 1647 4441 1600 
Q 4441 1553 4408 1512 
Q 4375 1472 4325 1472 
L 653 1472 
z
" transform="scale(0.015625)"/>
       </defs>
       <use xlink:href="#Cmsy10-a1" transform="translate(0 0.390625)"/>
       <use xlink:href="#Cmr10-31" transform="translate(77.685547 0.390625)"/>
       <use xlink:href="#Cmmi10-3a" transform="translate(127.685547 0.390625)"/>
       <use xlink:href="#Cmr10-30" transform="translate(155.371094 0.390625)"/>
      </g>
     </g>
    </g>
    <g id="ytick_2">
     <g id="line2d_8">
      <g>
       <use xlink:href="#meabbeff713" x="64.170808" y="119.991625" style="stroke: #000000"/>
      </g>
     </g>
     <g id="text_7">
      <!-- $-0.5$ -->
      <g transform="translate(2.990808 130.629437) scale(0.28 -0.28)">
       <use xlink:href="#Cmsy10-a1" transform="translate(0 0.390625)"/>
       <use xlink:href="#Cmr10-30" transform="translate(77.685547 0.390625)"/>
       <use xlink:href="#Cmmi10-3a" transform="translate(127.685547 0.390625)"/>
       <use xlink:href="#Cmr10-35" transform="translate(155.371094 0.390625)"/>
      </g>
     </g>
    </g>
    <g id="ytick_3">
     <g id="line2d_9">
      <g>
       <use xlink:href="#meabbeff713" x="64.170808" y="93.421671" style="stroke: #000000"/>
      </g>
     </g>
     <g id="text_8">
      <!-- $0.0$ -->
      <g transform="translate(24.830808 104.059484) scale(0.28 -0.28)">
       <use xlink:href="#Cmr10-30" transform="translate(0 0.390625)"/>
       <use xlink:href="#Cmmi10-3a" transform="translate(50 0.390625)"/>
       <use xlink:href="#Cmr10-30" transform="translate(77.685547 0.390625)"/>
      </g>
     </g>
    </g>
    <g id="ytick_4">
     <g id="line2d_10">
      <g>
       <use xlink:href="#meabbeff713" x="64.170808" y="66.851718" style="stroke: #000000"/>
      </g>
     </g>
     <g id="text_9">
      <!-- $0.5$ -->
      <g transform="translate(24.830808 77.48953) scale(0.28 -0.28)">
       <use xlink:href="#Cmr10-30" transform="translate(0 0.390625)"/>
       <use xlink:href="#Cmmi10-3a" transform="translate(50 0.390625)"/>
       <use xlink:href="#Cmr10-35" transform="translate(77.685547 0.390625)"/>
      </g>
     </g>
    </g>
    <g id="ytick_5">
     <g id="line2d_11">
      <g>
       <use xlink:href="#meabbeff713" x="64.170808" y="40.281764" style="stroke: #000000"/>
      </g>
     </g>
     <g id="text_10">
      <!-- $1.0$ -->
      <g transform="translate(24.830808 50.919577) scale(0.28 -0.28)">
       <use xlink:href="#Cmr10-31" transform="translate(0 0.390625)"/>
       <use xlink:href="#Cmmi10-3a" transform="translate(50 0.390625)"/>
       <use xlink:href="#Cmr10-30" transform="translate(77.685547 0.390625)"/>
      </g>
     </g>
    </g>
    <g id="ytick_6">
     <g id="line2d_12">
      <g>
       <use xlink:href="#meabbeff713" x="64.170808" y="13.711811" style="stroke: #000000"/>
      </g>
     </g>
     <g id="text_11">
      <!-- $1.5$ -->
      <g transform="translate(24.830808 24.349623) scale(0.28 -0.28)">
       <use xlink:href="#Cmr10-31" transform="translate(0 0.390625)"/>
       <use xlink:href="#Cmmi10-3a" transform="translate(50 0.390625)"/>
       <use xlink:href="#Cmr10-35" transform="translate(77.685547 0.390625)"/>
      </g>
     </g>
    </g>
   </g>
   <g id="line2d_13">
    <path d="M 89.987635 40.281764 
L 90.704769 40.517601 
L 91.421903 41.223018 
L 92.139037 42.391754 
L 92.856171 44.013435 
L 93.573305 46.073668 
L 95.007573 51.432908 
L 96.441841 58.27962 
L 97.876109 66.371258 
L 100.027512 80.206314 
L 105.764584 119.022017 
L 107.198852 127.294323 
L 108.633121 134.366673 
L 110.067389 139.988527 
L 110.784523 142.191067 
L 111.501657 143.960726 
L 112.218791 145.281797 
L 112.935925 146.142554 
L 113.653059 146.535357 
L 114.370193 146.456719 
L 115.087327 145.907338 
L 115.804461 144.89209 
L 116.521595 143.419988 
L 117.23873 141.504097 
L 117.955864 139.161422 
L 119.390132 133.282504 
L 120.8244 125.991495 
L 122.258668 117.546684 
L 124.41007 103.379097 
L 129.430009 69.296658 
L 130.864277 60.851848 
L 132.298545 53.560839 
L 133.732813 47.68192 
L 134.449947 45.339246 
L 135.167081 43.423355 
L 135.884216 41.951252 
L 136.60135 40.936005 
L 137.318484 40.386624 
L 138.035618 40.307986 
L 138.752752 40.700788 
L 139.469886 41.561545 
L 140.18702 42.882617 
L 140.904154 44.652276 
L 141.621288 46.854816 
L 143.055556 52.476669 
L 144.489824 59.54902 
L 145.924093 67.821326 
L 148.075495 81.82956 
L 153.095433 116.047543 
L 154.529702 124.656525 
L 155.96397 132.158996 
L 157.398238 138.289179 
L 158.115372 140.769675 
L 158.832506 142.829907 
L 159.54964 144.451588 
L 160.266774 145.620324 
L 160.983908 146.325741 
L 161.701042 146.561578 
L 162.418176 146.325741 
L 163.13531 145.620324 
L 163.852445 144.451588 
L 164.569579 142.829907 
L 165.286713 140.769675 
L 166.720981 135.410435 
L 168.155249 128.563722 
L 169.589517 120.472085 
L 171.740919 106.637029 
L 177.477992 67.821326 
L 178.91226 59.54902 
L 180.346528 52.476669 
L 181.780796 46.854816 
L 182.497931 44.652276 
L 183.215065 42.882617 
L 183.932199 41.561545 
L 184.649333 40.700788 
L 185.366467 40.307986 
L 186.083601 40.386624 
L 186.800735 40.936005 
L 187.517869 41.951252 
L 188.235003 43.423355 
L 188.952137 45.339246 
L 189.669271 47.68192 
L 191.103539 53.560839 
L 192.537808 60.851848 
L 193.972076 69.296658 
L 196.123478 83.464246 
L 201.143417 117.546684 
L 202.577685 125.991495 
L 204.011953 133.282504 
L 205.446221 139.161422 
L 206.163355 141.504097 
L 206.880489 143.419988 
L 207.597623 144.89209 
L 208.314757 145.907338 
L 209.031891 146.456719 
L 209.749026 146.535357 
L 210.46616 146.142554 
L 211.183294 145.281797 
L 211.900428 143.960726 
L 212.617562 142.191067 
L 213.334696 139.988527 
L 214.768964 134.366673 
L 216.203232 127.294323 
L 217.6375 119.022017 
L 219.788903 105.013783 
L 224.808841 70.795799 
L 226.243109 62.186818 
L 227.677377 54.684346 
L 229.111646 48.554164 
L 229.82878 46.073668 
L 230.545914 44.013435 
L 231.263048 42.391754 
L 231.980182 41.223018 
L 232.697316 40.517601 
L 233.41445 40.281764 
L 234.131584 40.517601 
L 234.848718 41.223018 
L 235.565852 42.391754 
L 236.282986 44.013435 
L 237.00012 46.073668 
L 238.434389 51.432908 
L 239.868657 58.27962 
L 241.302925 66.371258 
L 243.454327 80.206314 
L 249.1914 119.022017 
L 250.625668 127.294323 
L 252.059936 134.366673 
L 253.494204 139.988527 
L 254.211338 142.191067 
L 254.928472 143.960726 
L 255.645606 145.281797 
L 256.362741 146.142554 
L 257.079875 146.535357 
L 257.797009 146.456719 
L 258.514143 145.907338 
L 259.231277 144.89209 
L 259.948411 143.419988 
L 260.665545 141.504097 
L 261.382679 139.161422 
L 262.816947 133.282504 
L 264.251215 125.991495 
L 265.685484 117.546684 
L 267.836886 103.379097 
L 272.856824 69.296658 
L 274.291092 60.851848 
L 275.725361 53.560839 
L 277.159629 47.68192 
L 277.876763 45.339246 
L 278.593897 43.423355 
L 279.311031 41.951252 
L 280.028165 40.936005 
L 280.745299 40.386624 
L 281.462433 40.307986 
L 282.179567 40.700788 
L 282.896701 41.561545 
L 283.613835 42.882617 
L 284.33097 44.652276 
L 285.048104 46.854816 
L 286.482372 52.476669 
L 287.91664 59.54902 
L 289.350908 67.821326 
L 291.50231 81.82956 
L 296.522249 116.047543 
L 297.956517 124.656525 
L 299.390785 132.158996 
L 300.825053 138.289179 
L 301.542187 140.769675 
L 302.259322 142.829907 
L 302.976456 144.451588 
L 303.69359 145.620324 
L 304.410724 146.325741 
L 305.127858 146.561578 
L 305.844992 146.325741 
L 306.562126 145.620324 
L 307.27926 144.451588 
L 307.996394 142.829907 
L 308.713528 140.769675 
L 310.147796 135.410435 
L 311.582065 128.563722 
L 313.016333 120.472085 
L 315.167735 106.637029 
L 320.904808 67.821326 
L 322.339076 59.54902 
L 323.773344 52.476669 
L 325.207612 46.854816 
L 325.924746 44.652276 
L 326.64188 42.882617 
L 327.359014 41.561545 
L 328.076148 40.700788 
L 328.793282 40.307986 
L 329.510416 40.386624 
L 330.227551 40.936005 
L 330.944685 41.951252 
L 331.661819 43.423355 
L 332.378953 45.339246 
L 333.096087 47.68192 
L 334.530355 53.560839 
L 335.964623 60.851848 
L 337.398891 69.296658 
L 339.550294 83.464246 
L 344.570232 117.546684 
L 346.0045 125.991495 
L 347.438768 133.282504 
L 348.873037 139.161422 
L 349.590171 141.504097 
L 350.307305 143.419988 
L 351.024439 144.89209 
L 351.741573 145.907338 
L 352.458707 146.456719 
L 353.175841 146.535357 
L 353.892975 146.142554 
L 354.610109 145.281797 
L 355.327243 143.960726 
L 356.044377 142.191067 
L 356.761511 139.988527 
L 358.19578 134.366673 
L 359.630048 127.294323 
L 361.064316 119.022017 
L 363.215718 105.013783 
L 368.235657 70.795799 
L 369.669925 62.186818 
L 371.104193 54.684346 
L 372.538461 48.554164 
L 373.255595 46.073668 
L 373.972729 44.013435 
L 374.689863 42.391754 
L 375.406997 41.223018 
L 376.124131 40.517601 
L 376.841266 40.281764 
L 377.5584 40.517601 
L 378.275534 41.223018 
L 378.992668 42.391754 
L 379.709802 44.013435 
L 380.426936 46.073668 
L 381.861204 51.432908 
L 383.295472 58.27962 
L 384.72974 66.371258 
L 386.881143 80.206314 
L 392.618215 119.022017 
L 394.052483 127.294323 
L 395.486752 134.366673 
L 396.92102 139.988527 
L 397.638154 142.191067 
L 398.355288 143.960726 
L 399.072422 145.281797 
L 399.789556 146.142554 
L 400.50669 146.535357 
L 401.223824 146.456719 
L 401.940958 145.907338 
L 402.658092 144.89209 
L 403.375226 143.419988 
L 404.092361 141.504097 
L 404.809495 139.161422 
L 406.243763 133.282504 
L 407.678031 125.991495 
L 409.112299 117.546684 
L 411.263701 103.379097 
L 416.28364 69.296658 
L 417.717908 60.851848 
L 419.152176 53.560839 
L 420.586444 47.68192 
L 421.303578 45.339246 
L 422.020712 43.423355 
L 422.737847 41.951252 
L 423.454981 40.936005 
L 424.172115 40.386624 
L 424.889249 40.307986 
L 425.606383 40.700788 
L 426.323517 41.561545 
L 427.040651 42.882617 
L 427.757785 44.652276 
L 428.474919 46.854816 
L 429.909187 52.476669 
L 431.343455 59.54902 
L 432.777724 67.821326 
L 434.929126 81.82956 
L 439.949064 116.047543 
L 441.383333 124.656525 
L 442.817601 132.158996 
L 444.251869 138.289179 
L 444.969003 140.769675 
L 445.686137 142.829907 
L 446.403271 144.451588 
L 447.120405 145.620324 
L 447.837539 146.325741 
L 448.554673 146.561578 
L 449.271807 146.325741 
L 449.988941 145.620324 
L 450.706076 144.451588 
L 451.42321 142.829907 
L 452.140344 140.769675 
L 453.574612 135.410435 
L 455.00888 128.563722 
L 456.443148 120.472085 
L 458.59455 106.637029 
L 464.331623 67.821326 
L 465.765891 59.54902 
L 467.200159 52.476669 
L 468.634427 46.854816 
L 469.351562 44.652276 
L 470.068696 42.882617 
L 470.78583 41.561545 
L 471.502964 40.700788 
L 472.220098 40.307986 
L 472.937232 40.386624 
L 473.654366 40.936005 
L 474.3715 41.951252 
L 475.088634 43.423355 
L 475.805768 45.339246 
L 476.522902 47.68192 
L 477.95717 53.560839 
L 479.391439 60.851848 
L 480.825707 69.296658 
L 482.977109 83.464246 
L 487.997048 117.546684 
L 489.431316 125.991495 
L 490.865584 133.282504 
L 492.299852 139.161422 
L 493.016986 141.504097 
L 493.73412 143.419988 
L 494.451254 144.89209 
L 495.168388 145.907338 
L 495.885522 146.456719 
L 496.602656 146.535357 
L 497.319791 146.142554 
L 498.036925 145.281797 
L 498.754059 143.960726 
L 499.471193 142.191067 
L 500.188327 139.988527 
L 501.622595 134.366673 
L 503.056863 127.294323 
L 504.491131 119.022017 
L 506.642534 105.013783 
L 511.662472 70.795799 
L 513.09674 62.186818 
L 514.531008 54.684346 
L 515.965277 48.554164 
L 516.682411 46.073668 
L 517.399545 44.013435 
L 518.116679 42.391754 
L 518.833813 41.223018 
L 519.550947 40.517601 
L 520.268081 40.281764 
L 520.985215 40.517601 
L 521.702349 41.223018 
L 522.419483 42.391754 
L 523.136617 44.013435 
L 523.853751 46.073668 
L 525.28802 51.432908 
L 526.722288 58.27962 
L 528.156556 66.371258 
L 530.307958 80.206314 
L 536.045031 119.022017 
L 537.479299 127.294323 
L 538.913567 134.366673 
L 540.347835 139.988527 
L 541.064969 142.191067 
L 541.782103 143.960726 
L 542.499237 145.281797 
L 543.216372 146.142554 
L 543.933506 146.535357 
L 544.65064 146.456719 
L 545.367774 145.907338 
L 546.084908 144.89209 
L 546.802042 143.419988 
L 547.519176 141.504097 
L 548.23631 139.161422 
L 549.670578 133.282504 
L 551.104846 125.991495 
L 552.539115 117.546684 
L 554.690517 103.379097 
L 559.710455 69.296658 
L 561.144723 60.851848 
L 562.578992 53.560839 
L 564.01326 47.68192 
L 564.730394 45.339246 
L 565.447528 43.423355 
L 566.164662 41.951252 
L 566.881796 40.936005 
L 567.59893 40.386624 
L 568.316064 40.307986 
L 569.033198 40.700788 
L 569.750332 41.561545 
L 570.467466 42.882617 
L 571.184601 44.652276 
L 571.901735 46.854816 
L 573.336003 52.476669 
L 574.770271 59.54902 
L 576.204539 67.821326 
L 578.355941 81.82956 
L 583.37588 116.047543 
L 584.810148 124.656525 
L 586.244416 132.158996 
L 587.678684 138.289179 
L 588.395818 140.769675 
L 589.112952 142.829907 
L 589.830087 144.451588 
L 590.547221 145.620324 
L 591.264355 146.325741 
L 591.981489 146.561578 
L 592.698623 146.325741 
L 593.415757 145.620324 
L 594.132891 144.451588 
L 594.850025 142.829907 
L 595.567159 140.769675 
L 597.001427 135.410435 
L 598.435695 128.563722 
L 599.869964 120.472085 
L 602.021366 106.637029 
L 607.758439 67.821326 
L 609.192707 59.54902 
L 610.626975 52.476669 
L 612.061243 46.854816 
L 612.778377 44.652276 
L 613.495511 42.882617 
L 614.212645 41.561545 
L 614.929779 40.700788 
L 615.646913 40.307986 
L 616.364047 40.386624 
L 617.081182 40.936005 
L 617.798316 41.951252 
L 618.51545 43.423355 
L 619.232584 45.339246 
L 619.949718 47.68192 
L 621.383986 53.560839 
L 622.818254 60.851848 
L 624.252522 69.296658 
L 626.403925 83.464246 
L 631.423863 117.546684 
L 632.858131 125.991495 
L 634.292399 133.282504 
L 635.726668 139.161422 
L 636.443802 141.504097 
L 637.160936 143.419988 
L 637.87807 144.89209 
L 638.595204 145.907338 
L 639.312338 146.456719 
L 640.029472 146.535357 
L 640.746606 146.142554 
L 641.46374 145.281797 
L 642.180874 143.960726 
L 642.898008 142.191067 
L 643.615142 139.988527 
L 645.049411 134.366673 
L 646.483679 127.294323 
L 647.917947 119.022017 
L 650.069349 105.013783 
L 655.089288 70.795799 
L 656.523556 62.186818 
L 657.957824 54.684346 
L 659.392092 48.554164 
L 660.109226 46.073668 
L 660.82636 44.013435 
L 661.543494 42.391754 
L 662.260628 41.223018 
L 662.977762 40.517601 
L 663.694897 40.281764 
L 664.412031 40.517601 
L 665.129165 41.223018 
L 665.846299 42.391754 
L 666.563433 44.013435 
L 667.280567 46.073668 
L 668.714835 51.432908 
L 670.149103 58.27962 
L 671.583371 66.371258 
L 673.734774 80.206314 
L 679.471846 119.022017 
L 680.906114 127.294323 
L 682.340383 134.366673 
L 683.774651 139.988527 
L 684.491785 142.191067 
L 685.208919 143.960726 
L 685.926053 145.281797 
L 686.643187 146.142554 
L 687.360321 146.535357 
L 688.077455 146.456719 
L 688.794589 145.907338 
L 689.511723 144.89209 
L 690.228857 143.419988 
L 690.945991 141.504097 
L 691.663126 139.161422 
L 693.097394 133.282504 
L 694.531662 125.991495 
L 695.96593 117.546684 
L 698.117332 103.379097 
L 703.137271 69.296658 
L 704.571539 60.851848 
L 706.005807 53.560839 
L 707.440075 47.68192 
L 708.157209 45.339246 
L 708.874343 43.423355 
L 709.591478 41.951252 
L 710.308612 40.936005 
L 711.025746 40.386624 
L 711.74288 40.307986 
L 712.460014 40.700788 
L 713.177148 41.561545 
L 713.894282 42.882617 
L 714.611416 44.652276 
L 715.32855 46.854816 
L 716.762818 52.476669 
L 718.197086 59.54902 
L 719.631355 67.821326 
L 721.782757 81.82956 
L 726.802695 116.047543 
L 728.236964 124.656525 
L 729.671232 132.158996 
L 731.1055 138.289179 
L 731.822634 140.769675 
L 732.539768 142.829907 
L 733.256902 144.451588 
L 733.974036 145.620324 
L 734.69117 146.325741 
L 735.408304 146.561578 
L 736.125438 146.325741 
L 736.842572 145.620324 
L 737.559707 144.451588 
L 738.276841 142.829907 
L 738.993975 140.769675 
L 740.428243 135.410435 
L 741.862511 128.563722 
L 743.296779 120.472085 
L 745.448181 106.637029 
L 751.185254 67.821326 
L 752.619522 59.54902 
L 754.05379 52.476669 
L 755.488058 46.854816 
L 756.205193 44.652276 
L 756.922327 42.882617 
L 757.639461 41.561545 
L 758.356595 40.700788 
L 759.073729 40.307986 
L 759.790863 40.386624 
L 760.507997 40.936005 
L 761.225131 41.951252 
L 761.942265 43.423355 
L 762.659399 45.339246 
L 763.376533 47.68192 
L 764.810801 53.560839 
L 766.24507 60.851848 
L 767.679338 69.296658 
L 769.83074 83.464246 
L 774.850679 117.546684 
L 776.284947 125.991495 
L 777.719215 133.282504 
L 779.153483 139.161422 
L 779.870617 141.504097 
L 780.587751 143.419988 
L 781.304885 144.89209 
L 782.022019 145.907338 
L 782.739153 146.456719 
L 783.456287 146.535357 
L 784.173422 146.142554 
L 784.890556 145.281797 
L 785.60769 143.960726 
L 786.324824 142.191067 
L 787.041958 139.988527 
L 788.476226 134.366673 
L 789.910494 127.294323 
L 791.344762 119.022017 
L 793.496165 105.013783 
L 798.516103 70.795799 
L 799.950371 62.186818 
L 801.384639 54.684346 
L 802.818908 48.554164 
L 803.536042 46.073668 
L 804.253176 44.013435 
L 804.97031 42.391754 
L 805.687444 41.223018 
L 806.404578 40.517601 
L 807.121712 40.281764 
L 807.838846 40.517601 
L 808.55598 41.223018 
L 809.273114 42.391754 
L 809.990248 44.013435 
L 810.707382 46.073668 
L 812.141651 51.432908 
L 813.575919 58.27962 
L 815.010187 66.371258 
L 817.161589 80.206314 
L 822.898662 119.022017 
L 824.33293 127.294323 
L 825.767198 134.366673 
L 827.201466 139.988527 
L 827.9186 142.191067 
L 828.635734 143.960726 
L 829.352868 145.281797 
L 830.070003 146.142554 
L 830.787137 146.535357 
L 831.504271 146.456719 
L 832.221405 145.907338 
L 832.938539 144.89209 
L 833.655673 143.419988 
L 834.372807 141.504097 
L 835.089941 139.161422 
L 836.524209 133.282504 
L 837.958477 125.991495 
L 839.392746 117.546684 
L 841.544148 103.379097 
L 846.564086 69.296658 
L 847.998354 60.851848 
L 849.432623 53.560839 
L 850.866891 47.68192 
L 851.584025 45.339246 
L 852.301159 43.423355 
L 853.018293 41.951252 
L 853.735427 40.936005 
L 854.452561 40.386624 
L 855.169695 40.307986 
L 855.886829 40.700788 
L 856.603963 41.561545 
L 857.321097 42.882617 
L 858.038232 44.652276 
L 858.755366 46.854816 
L 860.189634 52.476669 
L 861.623902 59.54902 
L 863.05817 67.821326 
L 865.209572 81.82956 
L 870.229511 116.047543 
L 871.663779 124.656525 
L 873.098047 132.158996 
L 874.532315 138.289179 
L 875.249449 140.769675 
L 875.966583 142.829907 
L 876.683718 144.451588 
L 877.400852 145.620324 
L 878.117986 146.325741 
L 878.83512 146.561578 
L 879.552254 146.325741 
L 880.269388 145.620324 
L 880.986522 144.451588 
L 881.703656 142.829907 
L 882.42079 140.769675 
L 883.855058 135.410435 
L 885.289326 128.563722 
L 886.723595 120.472085 
L 888.874997 106.637029 
L 894.612069 67.821326 
L 896.046338 59.54902 
L 897.480606 52.476669 
L 898.914874 46.854816 
L 899.632008 44.652276 
L 900.349142 42.882617 
L 901.066276 41.561545 
L 901.78341 40.700788 
L 902.500544 40.307986 
L 903.217678 40.386624 
L 903.934813 40.936005 
L 904.651947 41.951252 
L 905.369081 43.423355 
L 906.086215 45.339246 
L 906.803349 47.68192 
L 908.237617 53.560839 
L 909.671885 60.851848 
L 911.106153 69.296658 
L 913.257556 83.464246 
L 918.277494 117.546684 
L 919.711762 125.991495 
L 921.14603 133.282504 
L 922.580299 139.161422 
L 923.297433 141.504097 
L 924.014567 143.419988 
L 924.731701 144.89209 
L 925.448835 145.907338 
L 926.165969 146.456719 
L 926.883103 146.535357 
L 927.600237 146.142554 
L 928.317371 145.281797 
L 929.034505 143.960726 
L 929.751639 142.191067 
L 930.468773 139.988527 
L 931.903042 134.366673 
L 933.33731 127.294323 
L 934.771578 119.022017 
L 936.92298 105.013783 
L 941.942919 70.795799 
L 943.377187 62.186818 
L 944.811455 54.684346 
L 946.245723 48.554164 
L 946.962857 46.073668 
L 947.679991 44.013435 
L 948.397125 42.391754 
L 949.114259 41.223018 
L 949.831393 40.517601 
L 950.548528 40.281764 
L 950.548528 40.281764 
" clip-path="url(#p7ea79e814e)" style="fill: none; stroke: #e36f47; stroke-width: 6"/>
   </g>
   <g id="patch_3">
    <path d="M 64.170808 150.625354 
L 64.170808 7.038598 
" style="fill: none; stroke: #000000; stroke-width: 2; stroke-linejoin: miter; stroke-linecap: square"/>
   </g>
   <g id="patch_4">
    <path d="M 64.170808 150.625354 
L 976.365354 150.625354 
" style="fill: none; stroke: #000000; stroke-width: 2; stroke-linejoin: miter; stroke-linecap: square"/>
   </g>
   <g id="line2d_14">
    <path d="M 89.987635 26.996788 
L 98.593243 30.865072 
L 107.915987 34.801917 
L 117.23873 38.491007 
L 126.561473 41.947933 
L 136.60135 45.427876 
L 146.641227 48.672553 
L 149.509763 49.558645 
L 150.226897 23.33653 
L 158.832506 27.41797 
L 167.438115 31.261727 
L 176.760858 35.17361 
L 186.083601 38.839308 
L 195.406344 42.274315 
L 204.011953 45.252905 
L 204.729087 18.924291 
L 213.334696 23.262681 
L 221.940305 27.348422 
L 230.545914 31.196229 
L 239.868657 35.112234 
L 249.1914 38.781794 
L 258.514143 42.22042 
L 268.55402 45.681941 
L 277.876763 48.686324 
L 278.593897 22.352285 
L 287.199506 26.491044 
L 295.805115 30.38878 
L 305.127858 34.3556 
L 314.450601 38.072777 
L 323.773344 41.556024 
L 333.813221 45.062462 
L 338.833159 46.725757 
L 339.550294 20.440869 
L 348.155902 24.69094 
L 356.761511 28.693506 
L 365.36712 32.462981 
L 374.689863 36.299266 
L 384.012606 39.894124 
L 392.618215 43.011326 
L 393.335349 16.806784 
L 401.940958 21.268488 
L 410.546567 25.470362 
L 419.152176 29.427538 
L 427.757785 33.154266 
L 437.080528 36.947047 
L 446.403271 40.501138 
L 448.554673 41.289022 
L 449.271807 14.995105 
L 457.160282 19.192091 
L 465.765891 23.514885 
L 474.3715 27.585939 
L 482.977109 31.419914 
L 492.299852 35.321842 
L 501.622595 38.978211 
L 510.945338 42.404476 
L 520.985215 45.853554 
L 523.853751 46.795466 
L 524.570886 20.523738 
L 533.176494 24.768983 
L 541.782103 28.767004 
L 550.387712 32.532199 
L 559.710455 36.364128 
L 569.033198 39.954904 
L 578.355941 43.319703 
L 579.073075 43.569588 
L 579.790209 17.248547 
L 588.395818 21.684524 
L 597.001427 25.86217 
L 605.607036 29.796529 
L 614.929779 33.800621 
L 624.252522 37.552725 
L 631.423863 40.277486 
L 632.140997 13.97729 
L 640.029472 18.228744 
L 648.635081 22.607639 
L 657.24069 26.731527 
L 665.846299 30.615259 
L 675.169042 34.567826 
L 684.491785 38.271648 
L 685.926053 38.8204 
L 686.643187 12.541002 
L 694.531662 16.869319 
L 703.137271 21.327381 
L 711.74288 25.525826 
L 720.348489 29.479772 
L 728.954098 33.203458 
L 738.276841 36.993143 
L 747.599584 40.544334 
L 757.639461 44.119168 
L 759.790863 44.853187 
L 760.507997 18.558409 
L 769.113606 22.918106 
L 777.719215 27.023914 
L 786.324824 30.890618 
L 795.647567 34.825856 
L 804.97031 38.513439 
L 814.293053 41.968954 
L 817.161589 42.987786 
L 817.878723 16.747307 
L 826.484332 21.212474 
L 835.089941 25.41761 
L 843.69555 29.377858 
L 852.301159 33.10748 
L 861.623902 36.903205 
L 868.795243 39.659643 
L 869.512377 13.386896 
L 877.400852 17.669945 
L 886.006461 22.081382 
L 894.612069 26.235917 
L 903.217678 30.148511 
L 912.540421 34.130451 
L 920.428896 37.303412 
L 921.14603 11.102374 
L 929.034505 15.507679 
L 937.640114 20.045037 
L 946.245723 24.318159 
L 950.548528 26.360477 
L 950.548528 26.360477 
" clip-path="url(#p7ea79e814e)" style="fill: none; stroke: #3ea44e; stroke-width: 6"/>
   </g>
   <g id="line2d_15">
    <path d="M 89.987635 13.711811 
L 950.548528 13.711811 
L 950.548528 13.711811 
" clip-path="url(#p7ea79e814e)" style="fill: none; stroke: #9b7fe9; stroke-width: 6"/>
   </g>
  </g>
 </g>
 <defs>
  <clipPath id="p7ea79e814e">
   <rect x="64.170808" y="7.038598" width="912.194547" height="143.586756"/>
  </clipPath>
 </defs>
</svg>
