<?xml version="1.0" encoding="utf-8" standalone="no"?>
<!DOCTYPE svg PUBLIC "-//W3C//DTD SVG 1.1//EN"
  "http://www.w3.org/Graphics/SVG/1.1/DTD/svg11.dtd">
<svg xmlns:xlink="http://www.w3.org/1999/xlink" width="907.2pt" height="172.8pt" viewBox="0 0 907.2 172.8" xmlns="http://www.w3.org/2000/svg" version="1.1">
 <metadata>
  <rdf:RDF xmlns:dc="http://purl.org/dc/elements/1.1/" xmlns:cc="http://creativecommons.org/ns#" xmlns:rdf="http://www.w3.org/1999/02/22-rdf-syntax-ns#">
   <cc:Work>
    <dc:type rdf:resource="http://purl.org/dc/dcmitype/StillImage"/>
    <dc:date>2024-08-16T15:10:39.431119</dc:date>
    <dc:format>image/svg+xml</dc:format>
    <dc:creator>
     <cc:Agent>
      <dc:title>Matplotlib v3.8.4, https://matplotlib.org/</dc:title>
     </cc:Agent>
    </dc:creator>
   </cc:Work>
  </rdf:RDF>
 </metadata>
 <defs>
  <style type="text/css">*{stroke-linejoin: round; stroke-linecap: butt}</style>
 </defs>
 <g id="figure_1">
  <g id="patch_1">
   <path d="M 0 172.8 
L 907.2 172.8 
L 907.2 0 
L 0 0 
L 0 172.8 
z
" style="fill: none"/>
  </g>
  <g id="axes_1">
   <g id="patch_2">
    <path d="M 41.316477 139.105354 
L 904.365354 139.105354 
L 904.365354 4.562646 
L 41.316477 4.562646 
L 41.316477 139.105354 
z
" style="fill: none"/>
   </g>
   <g id="line2d_1">
    <path d="M 65.742388 74.891789 
L 66.19472 75.029768 
L 66.647052 75.439103 
L 67.18985 76.276215 
L 67.823114 77.705447 
L 68.546845 79.890125 
L 69.451508 83.351981 
L 70.627571 88.841206 
L 72.255965 97.676503 
L 76.32695 120.26034 
L 77.683945 126.308006 
L 78.769541 130.208378 
L 79.674205 132.734816 
L 80.488402 134.40987 
L 81.212132 135.409387 
L 81.845397 135.90374 
L 82.388195 136.047108 
L 82.930993 135.935977 
L 83.473791 135.576496 
L 84.107055 134.853969 
L 84.830786 133.647813 
L 85.644983 131.839231 
L 86.640113 129.043925 
L 87.816175 125.032385 
L 89.354103 118.898411 
L 91.706228 108.416068 
L 94.963016 94.010868 
L 96.681876 87.427994 
L 98.038872 83.050602 
L 99.214934 79.953122 
L 100.210064 77.885017 
L 101.114727 76.466714 
L 101.928924 75.575248 
L 102.652655 75.091292 
L 103.285919 74.905083 
L 103.828717 74.956188 
L 104.281049 75.261446 
L 104.823847 75.949043 
L 105.457111 77.173127 
L 106.180842 79.089156 
L 107.085505 82.177522 
L 108.171102 86.735822 
L 109.618563 93.871622 
L 115.408409 123.699576 
L 116.674937 128.500202 
L 117.760533 131.740352 
L 118.665197 133.768085 
L 119.479394 135.049022 
L 120.112658 135.684258 
L 120.745923 136.004369 
L 121.288721 136.031019 
L 121.831519 135.83356 
L 122.464783 135.327887 
L 123.188514 134.401529 
L 124.002711 132.94074 
L 124.907374 130.839585 
L 125.99297 127.729744 
L 127.349965 123.093264 
L 129.068826 116.352258 
L 135.944268 88.372615 
L 137.391729 83.820217 
L 138.658258 80.530944 
L 139.743854 78.282397 
L 140.738984 76.711216 
L 141.643647 75.701692 
L 142.457844 75.138046 
L 143.181575 74.910982 
L 143.724373 74.93132 
L 144.176705 75.18386 
L 144.719503 75.786611 
L 145.352767 76.884649 
L 146.076498 78.625995 
L 146.981161 81.460607 
L 148.066757 85.683217 
L 149.423752 91.9213 
L 151.594944 103.115821 
L 154.399401 117.371384 
L 155.937329 124.067719 
L 157.203857 128.627538 
L 158.289454 131.72612 
L 159.194117 133.688535 
L 160.008314 134.953838 
L 160.732045 135.674625 
L 161.365309 135.993988 
L 161.908107 136.039145 
L 162.450905 135.877193 
L 163.08417 135.433262 
L 163.8079 134.602124 
L 164.622097 133.276201 
L 165.526761 131.353422 
L 166.612357 128.486793 
L 167.878886 124.487424 
L 169.50728 118.551839 
L 171.949871 108.690521 
L 175.568524 94.169914 
L 177.377851 87.839576 
L 178.825313 83.521063 
L 180.091841 80.392439 
L 181.177437 78.242827 
L 182.172567 76.728339 
L 183.077231 75.741353 
L 183.891428 75.174482 
L 184.615158 74.92634 
L 185.248423 74.924436 
L 185.700754 75.156994 
L 186.243552 75.7235 
L 186.876817 76.763836 
L 187.600547 78.421654 
L 188.505211 81.131104 
L 189.590807 85.183987 
L 190.947802 91.201536 
L 193.028528 101.622591 
L 196.19485 117.430332 
L 197.732777 123.991193 
L 198.999306 128.481845 
L 200.084902 131.557661 
L 200.989566 133.528416 
L 201.803763 134.822422 
L 202.527493 135.584979 
L 203.160758 135.952711 
L 203.703556 136.047477 
L 204.246354 135.942022 
L 204.879618 135.571804 
L 205.512883 134.943873 
L 206.236613 133.924545 
L 207.141277 132.225737 
L 208.136407 129.859728 
L 209.312469 126.47653 
L 210.75993 121.602078 
L 212.75019 114.01662 
L 218.630502 91.009401 
L 220.258896 85.760863 
L 221.615891 82.068399 
L 222.791954 79.441653 
L 223.87755 77.527466 
L 224.872679 76.222784 
L 225.686876 75.482667 
L 226.501073 75.039347 
L 227.224804 74.893675 
L 227.677136 74.961997 
L 228.129468 75.246622 
L 228.672266 75.868618 
L 229.30553 76.964032 
L 230.029261 78.672273 
L 230.933924 81.426803 
L 232.01952 85.509691 
L 233.376515 91.533237 
L 235.457241 101.913767 
L 238.623563 117.605548 
L 240.161491 124.10911 
L 241.428019 128.558856 
L 242.513615 131.605928 
L 243.418279 133.557735 
L 244.232476 134.838691 
L 244.956207 135.592775 
L 245.589471 135.955402 
L 246.132269 136.047404 
L 246.675067 135.940571 
L 247.308331 135.570342 
L 247.941596 134.943935 
L 248.665327 133.927955 
L 249.56999 132.235267 
L 250.56512 129.877761 
L 251.741182 126.505924 
L 253.188644 121.645706 
L 255.088437 114.436063 
L 261.240148 90.45841 
L 262.868542 85.293524 
L 264.225537 81.682533 
L 265.401599 79.132717 
L 266.487195 77.292997 
L 267.391859 76.152246 
L 268.206056 75.436552 
L 269.020253 75.017133 
L 269.743984 74.891982 
L 270.196315 74.98833 
L 270.648647 75.302314 
L 271.191445 75.957969 
L 271.824709 77.090442 
L 272.54844 78.838065 
L 273.453104 81.637262 
L 274.5387 85.766832 
L 275.986161 92.269569 
L 278.24782 103.661909 
L 281.052276 117.542887 
L 282.590204 124.076619 
L 283.856733 128.547713 
L 284.942329 131.608257 
L 285.846992 133.566801 
L 286.661189 134.849794 
L 287.38492 135.602239 
L 288.018184 135.960679 
L 288.560982 136.047034 
L 289.10378 135.932675 
L 289.737045 135.55136 
L 290.370309 134.9115 
L 291.09404 133.877468 
L 291.998703 132.158669 
L 292.993833 129.768751 
L 294.169895 126.355209 
L 295.617357 121.441711 
L 297.607616 113.803942 
L 303.397462 91.037737 
L 305.025856 85.761043 
L 306.382851 82.052665 
L 307.558913 79.418577 
L 308.64451 77.503051 
L 309.639639 76.20147 
L 310.453836 75.466619 
L 311.268033 75.030608 
L 311.991764 74.892758 
L 312.444096 74.972736 
L 312.896428 75.270624 
L 313.439226 75.909137 
L 314.07249 77.024992 
L 314.796221 78.758513 
L 315.700884 81.547824 
L 316.78648 85.676882 
L 318.143475 91.762832 
L 320.314667 102.70622 
L 323.300057 117.603075 
L 324.837984 124.166671 
L 326.104513 128.648407 
L 327.190109 131.705728 
L 328.094773 133.652092 
L 328.90897 134.91656 
L 329.6327 135.646603 
L 330.265965 135.981031 
L 330.808763 136.043704 
L 331.351561 135.902994 
L 331.984825 135.487855 
L 332.708556 134.693857 
L 333.522753 133.413561 
L 334.427416 131.544124 
L 335.513012 128.741953 
L 336.779541 124.813762 
L 338.407935 118.955913 
L 340.76006 109.540611 
L 344.650113 93.968656 
L 346.459439 87.680533 
L 347.906901 83.397564 
L 349.17343 80.300076 
L 350.259026 78.176175 
L 351.254155 76.683575 
L 352.158819 75.71431 
L 352.973016 75.16096 
L 353.696747 74.922394 
L 354.330011 74.929862 
L 354.782343 75.170484 
L 355.325141 75.744609 
L 355.958405 76.792172 
L 356.682136 78.45769 
L 357.586799 81.178354 
L 358.672395 85.250111 
L 360.02939 91.302449 
L 362.110116 101.798433 
L 365.276438 117.721844 
L 366.814366 124.308382 
L 368.080895 128.791885 
L 369.166491 131.836518 
L 370.071154 133.761817 
L 370.885351 134.999219 
L 371.609082 135.699002 
L 372.242346 136.002453 
L 372.785144 136.035481 
L 373.327942 135.862524 
L 373.961207 135.40684 
L 374.684937 134.563247 
L 375.499134 133.223956 
L 376.403798 131.286427 
L 377.489394 128.401428 
L 378.755923 124.379015 
L 380.384317 118.411351 
L 382.917374 108.125559 
L 386.355095 94.276507 
L 388.164422 87.903911 
L 389.611883 83.557649 
L 390.878412 80.411111 
L 391.964008 78.251253 
L 392.959138 76.73124 
L 393.863801 75.741873 
L 394.677998 75.174372 
L 395.401729 74.926282 
L 396.034993 74.924379 
L 396.487325 75.15662 
L 397.030123 75.723181 
L 397.663388 76.765489 
L 398.387118 78.429761 
L 399.291782 81.1558 
L 400.377378 85.243234 
L 401.734373 91.326406 
L 403.724632 101.408948 
L 406.98142 117.881602 
L 408.519348 124.480233 
L 409.785877 128.956081 
L 410.871473 131.980282 
L 411.776136 133.878652 
L 412.590334 135.084371 
L 413.314064 135.750428 
L 413.947329 136.020423 
L 414.490127 136.022125 
L 415.032925 135.815665 
L 415.666189 135.318524 
L 416.38992 134.425026 
L 417.204117 133.02731 
L 418.10878 131.023415 
L 419.194376 128.059041 
L 420.551371 123.631438 
L 422.270232 117.164957 
L 425.165155 105.214294 
L 427.969611 93.953534 
L 429.778938 87.587156 
L 431.226399 83.267156 
L 432.492928 80.158834 
L 433.578524 78.042289 
L 434.573654 76.569681 
L 435.478317 75.628988 
L 436.292514 75.109133 
L 437.016245 74.905896 
L 437.559043 74.939888 
L 438.011375 75.199017 
L 438.554173 75.798936 
L 439.187437 76.881243 
L 439.911168 78.591955 
L 440.815831 81.375806 
L 441.901427 85.529828 
L 443.258423 91.68734 
L 445.339148 102.325514 
L 448.415004 117.924456 
L 449.952932 124.547001 
L 451.21946 129.030609 
L 452.305056 132.051348 
L 453.20972 133.939294 
L 454.023917 135.129782 
L 454.657181 135.71794 
L 455.290446 136.010869 
L 455.833244 136.029442 
L 456.376042 135.837215 
L 457.009306 135.353318 
L 457.733037 134.470563 
L 458.547234 133.079508 
L 459.451897 131.076685 
L 460.537493 128.105712 
L 461.804022 123.97798 
L 463.432416 117.877867 
L 466.05594 107.0434 
L 469.222262 94.173851 
L 471.031589 87.7458 
L 472.47905 83.379387 
L 473.745579 80.23513 
L 474.831175 78.092429 
L 475.826305 76.600187 
L 476.730968 75.645511 
L 477.545165 75.116309 
L 478.268896 74.907339 
L 478.811694 74.936603 
L 479.264026 75.191841 
L 479.806824 75.789116 
L 480.440088 76.871086 
L 481.163819 78.584873 
L 482.068482 81.377283 
L 483.154078 85.547323 
L 484.511073 91.730899 
L 486.591799 102.412808 
L 489.577188 117.632115 
L 491.115116 124.324385 
L 492.381645 128.867137 
L 493.467241 131.936351 
L 494.371904 133.861464 
L 495.186101 135.082013 
L 495.819366 135.690964 
L 496.45263 136.002213 
L 496.995428 136.03442 
L 497.538226 135.853865 
L 498.171491 135.381079 
L 498.895221 134.507736 
L 499.709418 133.123195 
L 500.614082 131.122831 
L 501.699678 128.148812 
L 502.966207 124.010553 
L 504.594601 117.888831 
L 507.218124 107.010952 
L 510.384446 94.096924 
L 512.193773 87.65624 
L 513.641235 83.288965 
L 514.907763 80.151316 
L 515.993359 78.019826 
L 516.988489 76.542237 
L 517.893153 75.604316 
L 518.70735 75.09278 
L 519.43108 74.901384 
L 519.973878 74.956498 
L 520.42621 75.241056 
L 520.969008 75.873893 
L 521.602272 76.997343 
L 522.326003 78.757709 
L 523.230667 81.605693 
L 524.316263 85.836212 
L 525.673258 92.081975 
L 527.84445 103.300908 
L 530.648906 117.605594 
L 532.186834 124.317664 
L 533.453363 128.872046 
L 534.538959 131.946891 
L 535.443622 133.873316 
L 536.257819 135.092345 
L 536.891084 135.698368 
L 537.524348 136.005214 
L 538.067146 136.032535 
L 538.609944 135.846132 
L 539.243209 135.36541 
L 539.966939 134.481698 
L 540.781136 133.084109 
L 541.6858 131.067955 
L 542.771396 128.073903 
L 544.037925 123.911961 
L 545.666319 117.761546 
L 548.380309 106.465179 
L 551.456164 93.920835 
L 553.175025 87.78737 
L 554.622486 83.388599 
L 555.889015 80.224455 
L 556.974611 78.071949 
L 557.969741 76.577005 
L 558.874404 75.625214 
L 559.688601 75.102938 
L 560.412332 74.903483 
L 560.95513 74.949155 
L 561.407462 75.224534 
L 561.95026 75.847758 
L 562.583524 76.961933 
L 563.307255 78.714216 
L 564.211918 81.555688 
L 565.297514 85.78316 
L 566.654509 92.031189 
L 568.825702 103.263166 
L 571.630158 117.59039 
L 573.168086 124.312855 
L 574.434615 128.873288 
L 575.520211 131.95111 
L 576.424874 133.878353 
L 577.239071 135.096824 
L 577.872336 135.701593 
L 578.5056 136.006505 
L 579.048398 136.031662 
L 579.591196 135.842665 
L 580.22446 135.358423 
L 580.948191 134.470126 
L 581.762388 133.066793 
L 582.667052 131.043725 
L 583.752648 128.040961 
L 585.019176 123.868796 
L 586.64757 117.706103 
L 589.361561 106.394372 
L 592.437416 93.844702 
L 594.156277 87.715071 
L 595.603738 83.323505 
L 596.870267 80.168595 
L 597.955863 78.026086 
L 598.950993 76.541891 
L 599.855656 75.601095 
L 600.669853 75.089623 
L 601.393584 74.900431 
L 601.936382 74.961199 
L 602.388714 75.252906 
L 602.931512 75.895629 
L 603.564776 77.032094 
L 604.288507 78.808767 
L 605.19317 81.678325 
L 606.278766 85.934804 
L 607.635761 92.210173 
L 609.806953 103.462186 
L 612.61141 117.771835 
L 614.149338 124.466961 
L 615.415866 128.997899 
L 616.410996 131.824157 
L 617.31566 133.785249 
L 618.129857 135.034843 
L 618.853587 135.729242 
L 619.486852 136.015614 
L 620.02965 136.02511 
L 620.572448 135.820785 
L 621.205712 135.319223 
L 621.929443 134.412059 
L 622.74364 132.988927 
L 623.648303 130.945911 
L 624.733899 127.922421 
L 626.090894 123.408233 
L 627.809755 116.824377 
L 630.976077 103.557206 
L 633.599601 93.016424 
L 635.318461 87.000782 
L 636.765922 82.729253 
L 637.941985 79.886446 
L 639.027581 77.807393 
L 640.022711 76.383523 
L 640.836908 75.569346 
L 641.560638 75.112451 
L 642.284369 74.905636 
L 642.827167 74.942603 
L 643.279499 75.209068 
L 643.822297 75.822612 
L 644.455561 76.926854 
L 645.179292 78.669489 
L 646.083955 81.501267 
L 647.169551 85.720205 
L 648.526547 91.961626 
L 650.697739 103.190581 
L 653.502195 117.524815 
L 655.040123 124.255746 
L 656.306652 128.825525 
L 657.392248 131.91302 
L 658.296911 133.849439 
L 659.111108 135.076976 
L 659.744373 135.689273 
L 660.377637 136.002087 
L 660.920435 136.034274 
L 661.463233 135.852505 
L 662.096497 135.376894 
L 662.820228 134.498631 
L 663.634425 133.106667 
L 664.539089 131.096123 
L 665.624685 128.107889 
L 666.891213 123.951416 
L 668.519608 117.805822 
L 671.143131 106.894772 
L 674.309453 93.960722 
L 676.028314 87.82015 
L 677.475775 83.414151 
L 678.742304 80.243287 
L 679.8279 78.085138 
L 680.82303 76.585443 
L 681.727693 75.629937 
L 682.54189 75.105 
L 683.265621 74.903859 
L 683.808419 74.948132 
L 684.260751 75.222456 
L 684.803549 75.844927 
L 685.436813 76.958742 
L 686.160544 78.711023 
L 687.065207 81.552666 
L 688.150803 85.77997 
L 689.507798 92.026432 
L 691.67899 103.252129 
L 694.483447 117.568014 
L 696.021375 124.286183 
L 697.287904 128.845865 
L 698.3735 131.925777 
L 699.278163 133.856995 
L 700.09236 135.080897 
L 700.725624 135.691121 
L 701.358889 136.002552 
L 701.901687 136.034111 
L 702.444485 135.85223 
L 703.077749 135.377124 
L 703.80148 134.500244 
L 704.615677 133.110788 
L 705.52034 131.104076 
L 706.605936 128.121624 
L 707.872465 123.973036 
L 709.500859 117.838333 
L 712.124383 106.943135 
L 715.290705 94.018839 
L 717.100032 87.579314 
L 718.547493 83.217331 
L 719.814022 80.087838 
L 720.899618 77.96617 
L 721.894748 76.500025 
L 722.708945 75.649581 
L 723.523142 75.115934 
L 724.246873 74.906627 
L 724.789671 74.939578 
L 725.242002 75.201177 
L 725.7848 75.808508 
L 726.418065 76.905012 
L 727.141796 78.638227 
L 728.046459 81.457552 
L 729.132055 85.661009 
L 730.48905 91.883361 
L 732.660242 103.086616 
L 735.555165 117.832977 
L 737.093093 124.502429 
L 738.359622 129.015223 
L 739.354751 131.830588 
L 740.259415 133.785043 
L 741.073612 135.031649 
L 741.797342 135.725902 
L 742.430607 136.014114 
L 742.973405 136.026633 
L 743.516203 135.82663 
L 744.149467 135.33168 
L 744.873198 134.433992 
L 745.687395 133.023696 
L 746.592058 130.997192 
L 747.677655 127.995802 
L 749.03465 123.511053 
L 750.75351 116.963838 
L 753.829366 104.127146 
L 756.452889 93.559281 
L 758.17175 87.485977 
L 759.619211 83.144138 
L 760.88574 80.032242 
L 761.971336 77.925135 
L 762.966466 76.471623 
L 763.780663 75.630862 
L 764.59486 75.106222 
L 765.318591 74.9043 
L 765.861389 74.946397 
L 766.31372 75.217784 
L 766.856518 75.836063 
L 767.489783 76.944112 
L 768.213514 78.688754 
L 769.118177 81.519541 
L 770.203773 85.732499 
L 771.560768 91.960386 
L 773.73196 103.159772 
L 776.626883 117.884851 
L 778.164811 124.539998 
L 779.43134 129.041329 
L 780.426469 131.848539 
L 781.331133 133.796552 
L 782.14533 135.038319 
L 782.869061 135.729116 
L 783.502325 136.014993 
L 784.045123 136.026033 
L 784.587921 135.825033 
L 785.221185 135.329519 
L 785.944916 134.431949 
L 786.759113 133.022698 
L 787.663777 130.998374 
L 788.749373 128.000794 
L 790.106368 123.522162 
L 791.825228 116.98383 
L 794.810617 104.541738 
L 797.524608 93.601004 
L 799.243468 87.527862 
L 800.690929 83.183097 
L 801.957458 80.066322 
L 803.043054 77.953388 
L 804.038184 76.493304 
L 804.852381 75.646378 
L 805.666578 75.11495 
L 806.390309 74.906543 
L 806.933107 74.939529 
L 807.385439 75.200571 
L 807.928237 75.806468 
L 808.561501 76.900284 
L 809.285232 78.629184 
L 810.189895 81.441498 
L 811.275491 85.634731 
L 812.632486 91.842799 
L 814.803678 103.024223 
L 817.698601 117.754766 
L 819.236529 124.426088 
L 820.503058 128.946731 
L 821.588654 131.995305 
L 822.493317 133.903071 
L 823.307514 135.108538 
L 823.940779 135.70642 
L 824.574043 136.007387 
L 825.116841 136.031529 
L 825.659639 135.843687 
L 826.292903 135.363469 
L 827.016634 134.48313 
L 827.830831 133.092696 
L 828.735495 131.088244 
L 829.821091 128.112588 
L 831.087619 123.976448 
L 832.716014 117.862461 
L 835.339537 107.003351 
L 838.505859 94.110057 
L 840.315186 87.67562 
L 841.762647 83.309474 
L 843.029176 80.170097 
L 844.114772 78.035433 
L 845.109902 76.553935 
L 846.014565 75.611986 
L 846.828762 75.096742 
L 847.552493 74.90222 
L 848.095291 74.953381 
L 848.547623 75.23398 
L 849.090421 75.862293 
L 849.723685 76.980555 
L 850.447416 78.734821 
L 851.352079 81.574527 
L 852.437676 85.793747 
L 853.794671 92.023253 
L 855.965863 103.213986 
L 858.770319 117.491787 
L 860.308247 124.201585 
L 861.574776 128.763864 
L 862.660372 131.853491 
L 863.565035 133.798144 
L 864.379232 135.038144 
L 865.102963 135.728399 
L 865.736227 136.014592 
L 866.279025 136.026473 
L 866.821823 135.826823 
L 867.455088 135.333489 
L 868.178819 134.439143 
L 868.993016 133.034341 
L 869.897679 131.015802 
L 870.983275 128.026013 
L 872.34027 123.557802 
L 874.059131 117.032495 
L 877.04452 104.608023 
L 879.75851 93.672966 
L 879.939443 92.994039 
L 879.939443 92.994039 
" clip-path="url(#p37002ed997)" style="fill: none; stroke: #2477d0; stroke-width: 4"/>
   </g>
   <g id="matplotlib.axis_1">
    <g id="xtick_1">
     <g id="line2d_2">
      <defs>
       <path id="m50728aad7a" d="M 0 0 
L 0 -5 
" style="stroke: #000000"/>
      </defs>
      <g>
       <use xlink:href="#m50728aad7a" x="65.742388" y="139.105354" style="stroke: #000000"/>
      </g>
     </g>
     <g id="text_1">
      <!-- $0$ -->
      <g transform="translate(58.742388 163.880979) scale(0.28 -0.28)">
       <defs>
        <path id="Cmr10-30" d="M 1600 -141 
Q 816 -141 533 504 
Q 250 1150 250 2041 
Q 250 2597 351 3087 
Q 453 3578 754 3920 
Q 1056 4263 1600 4263 
Q 2022 4263 2290 4056 
Q 2559 3850 2700 3523 
Q 2841 3197 2892 2823 
Q 2944 2450 2944 2041 
Q 2944 1491 2842 1011 
Q 2741 531 2444 195 
Q 2147 -141 1600 -141 
z
M 1600 25 
Q 1956 25 2131 390 
Q 2306 756 2347 1200 
Q 2388 1644 2388 2144 
Q 2388 2625 2347 3031 
Q 2306 3438 2132 3767 
Q 1959 4097 1600 4097 
Q 1238 4097 1063 3765 
Q 888 3434 847 3029 
Q 806 2625 806 2144 
Q 806 1788 823 1472 
Q 841 1156 916 820 
Q 991 484 1158 254 
Q 1325 25 1600 25 
z
" transform="scale(0.015625)"/>
       </defs>
       <use xlink:href="#Cmr10-30" transform="translate(0 0.390625)"/>
      </g>
     </g>
    </g>
    <g id="xtick_2">
     <g id="line2d_3">
      <g>
       <use xlink:href="#m50728aad7a" x="246.675067" y="139.105354" style="stroke: #000000"/>
      </g>
     </g>
     <g id="text_2">
      <!-- $2$ -->
      <g transform="translate(239.675067 163.880979) scale(0.28 -0.28)">
       <defs>
        <path id="Cmr10-32" d="M 319 0 
L 319 172 
Q 319 188 331 206 
L 1325 1306 
Q 1550 1550 1690 1715 
Q 1831 1881 1968 2097 
Q 2106 2313 2186 2536 
Q 2266 2759 2266 3009 
Q 2266 3272 2169 3511 
Q 2072 3750 1880 3894 
Q 1688 4038 1416 4038 
Q 1138 4038 916 3870 
Q 694 3703 603 3438 
Q 628 3444 672 3444 
Q 816 3444 917 3347 
Q 1019 3250 1019 3097 
Q 1019 2950 917 2848 
Q 816 2747 672 2747 
Q 522 2747 420 2851 
Q 319 2956 319 3097 
Q 319 3338 409 3548 
Q 500 3759 670 3923 
Q 841 4088 1055 4175 
Q 1269 4263 1509 4263 
Q 1875 4263 2190 4108 
Q 2506 3953 2690 3670 
Q 2875 3388 2875 3009 
Q 2875 2731 2753 2481 
Q 2631 2231 2440 2026 
Q 2250 1822 1953 1562 
Q 1656 1303 1563 1216 
L 838 519 
L 1453 519 
Q 1906 519 2211 526 
Q 2516 534 2534 550 
Q 2609 631 2688 1141 
L 2875 1141 
L 2694 0 
L 319 0 
z
" transform="scale(0.015625)"/>
       </defs>
       <use xlink:href="#Cmr10-32" transform="translate(0 0.390625)"/>
      </g>
     </g>
    </g>
    <g id="xtick_3">
     <g id="line2d_4">
      <g>
       <use xlink:href="#m50728aad7a" x="427.607746" y="139.105354" style="stroke: #000000"/>
      </g>
     </g>
     <g id="text_3">
      <!-- $4$ -->
      <g transform="translate(420.607746 163.880979) scale(0.28 -0.28)">
       <defs>
        <path id="Cmr10-34" d="M 178 1056 
L 178 1281 
L 2156 4231 
Q 2178 4263 2222 4263 
L 2316 4263 
Q 2388 4263 2388 4191 
L 2388 1281 
L 3016 1281 
L 3016 1056 
L 2388 1056 
L 2388 428 
Q 2388 297 2575 261 
Q 2763 225 3009 225 
L 3009 0 
L 1247 0 
L 1247 225 
Q 1494 225 1681 261 
Q 1869 297 1869 428 
L 1869 1056 
L 178 1056 
z
M 391 1281 
L 1906 1281 
L 1906 3547 
L 391 1281 
z
" transform="scale(0.015625)"/>
       </defs>
       <use xlink:href="#Cmr10-34" transform="translate(0 0.390625)"/>
      </g>
     </g>
    </g>
    <g id="xtick_4">
     <g id="line2d_5">
      <g>
       <use xlink:href="#m50728aad7a" x="608.540425" y="139.105354" style="stroke: #000000"/>
      </g>
     </g>
     <g id="text_4">
      <!-- $6$ -->
      <g transform="translate(601.540425 163.880979) scale(0.28 -0.28)">
       <defs>
        <path id="Cmr10-36" d="M 1600 -141 
Q 1203 -141 937 70 
Q 672 281 526 617 
Q 381 953 325 1322 
Q 269 1691 269 2069 
Q 269 2575 466 3084 
Q 663 3594 1045 3928 
Q 1428 4263 1953 4263 
Q 2172 4263 2361 4180 
Q 2550 4097 2658 3936 
Q 2766 3775 2766 3547 
Q 2766 3416 2677 3327 
Q 2588 3238 2456 3238 
Q 2331 3238 2240 3328 
Q 2150 3419 2150 3547 
Q 2150 3672 2240 3762 
Q 2331 3853 2456 3853 
L 2491 3853 
Q 2409 3969 2261 4023 
Q 2113 4078 1953 4078 
Q 1759 4078 1595 3993 
Q 1431 3909 1300 3765 
Q 1169 3622 1081 3448 
Q 994 3275 945 3053 
Q 897 2831 884 2637 
Q 872 2444 872 2150 
Q 984 2413 1190 2580 
Q 1397 2747 1656 2747 
Q 1941 2747 2175 2631 
Q 2409 2516 2578 2311 
Q 2747 2106 2836 1843 
Q 2925 1581 2925 1313 
Q 2925 938 2758 598 
Q 2591 259 2287 59 
Q 1984 -141 1600 -141 
z
M 1600 63 
Q 1847 63 1997 175 
Q 2147 288 2217 473 
Q 2288 659 2305 848 
Q 2322 1038 2322 1313 
Q 2322 1675 2287 1931 
Q 2253 2188 2100 2383 
Q 1947 2578 1631 2578 
Q 1372 2578 1205 2403 
Q 1038 2228 961 1961 
Q 884 1694 884 1447 
Q 884 1363 891 1319 
Q 891 1309 889 1303 
Q 888 1297 884 1288 
Q 884 1013 940 731 
Q 997 450 1156 256 
Q 1316 63 1600 63 
z
" transform="scale(0.015625)"/>
       </defs>
       <use xlink:href="#Cmr10-36" transform="translate(0 0.390625)"/>
      </g>
     </g>
    </g>
    <g id="xtick_5">
     <g id="line2d_6">
      <g>
       <use xlink:href="#m50728aad7a" x="789.473103" y="139.105354" style="stroke: #000000"/>
      </g>
     </g>
     <g id="text_5">
      <!-- $8$ -->
      <g transform="translate(782.473103 163.880979) scale(0.28 -0.28)">
       <defs>
        <path id="Cmr10-38" d="M 269 972 
Q 269 1356 522 1651 
Q 775 1947 1172 2144 
L 934 2297 
Q 716 2441 578 2680 
Q 441 2919 441 3181 
Q 441 3488 602 3734 
Q 763 3981 1030 4122 
Q 1297 4263 1600 4263 
Q 1884 4263 2148 4147 
Q 2413 4031 2583 3815 
Q 2753 3600 2753 3303 
Q 2753 3088 2651 2903 
Q 2550 2719 2373 2572 
Q 2197 2425 1997 2322 
L 2363 2088 
Q 2616 1922 2770 1653 
Q 2925 1384 2925 1088 
Q 2925 741 2739 456 
Q 2553 172 2247 15 
Q 1941 -141 1600 -141 
Q 1269 -141 961 -6 
Q 653 128 461 383 
Q 269 638 269 972 
z
M 616 972 
Q 616 719 755 509 
Q 894 300 1122 181 
Q 1350 63 1600 63 
Q 1972 63 2275 280 
Q 2578 497 2578 856 
Q 2578 978 2529 1098 
Q 2481 1219 2395 1317 
Q 2309 1416 2203 1478 
L 1344 2034 
Q 1144 1928 976 1765 
Q 809 1603 712 1400 
Q 616 1197 616 972 
z
M 1056 2925 
L 1831 2425 
Q 2100 2581 2272 2803 
Q 2444 3025 2444 3303 
Q 2444 3519 2323 3698 
Q 2203 3878 2009 3978 
Q 1816 4078 1594 4078 
Q 1400 4078 1203 4003 
Q 1006 3928 878 3779 
Q 750 3631 750 3431 
Q 750 3131 1056 2925 
z
" transform="scale(0.015625)"/>
       </defs>
       <use xlink:href="#Cmr10-38" transform="translate(0 0.390625)"/>
      </g>
     </g>
    </g>
   </g>
   <g id="matplotlib.axis_2">
    <g id="ytick_1">
     <g id="line2d_7">
      <defs>
       <path id="mcc0de3244b" d="M 0 0 
L 5 0 
" style="stroke: #000000"/>
      </defs>
      <g>
       <use xlink:href="#mcc0de3244b" x="41.316477" y="136.047565" style="stroke: #000000"/>
      </g>
     </g>
     <g id="text_6">
      <!-- $-1$ -->
      <g transform="translate(1.976477 146.685378) scale(0.28 -0.28)">
       <defs>
        <path id="Cmsy10-a1" d="M 653 1472 
Q 600 1472 565 1512 
Q 531 1553 531 1600 
Q 531 1647 565 1687 
Q 600 1728 653 1728 
L 4325 1728 
Q 4375 1728 4408 1687 
Q 4441 1647 4441 1600 
Q 4441 1553 4408 1512 
Q 4375 1472 4325 1472 
L 653 1472 
z
" transform="scale(0.015625)"/>
        <path id="Cmr10-31" d="M 594 0 
L 594 225 
Q 1394 225 1394 428 
L 1394 3788 
Q 1063 3628 556 3628 
L 556 3853 
Q 1341 3853 1741 4263 
L 1831 4263 
Q 1853 4263 1873 4245 
Q 1894 4228 1894 4206 
L 1894 428 
Q 1894 225 2694 225 
L 2694 0 
L 594 0 
z
" transform="scale(0.015625)"/>
       </defs>
       <use xlink:href="#Cmsy10-a1" transform="translate(0 0.390625)"/>
       <use xlink:href="#Cmr10-31" transform="translate(77.685547 0.390625)"/>
      </g>
     </g>
    </g>
    <g id="ytick_2">
     <g id="line2d_8">
      <g>
       <use xlink:href="#mcc0de3244b" x="41.316477" y="105.469677" style="stroke: #000000"/>
      </g>
     </g>
     <g id="text_7">
      <!-- $0$ -->
      <g transform="translate(23.816477 116.10749) scale(0.28 -0.28)">
       <use xlink:href="#Cmr10-30" transform="translate(0 0.390625)"/>
      </g>
     </g>
    </g>
    <g id="ytick_3">
     <g id="line2d_9">
      <g>
       <use xlink:href="#mcc0de3244b" x="41.316477" y="74.891789" style="stroke: #000000"/>
      </g>
     </g>
     <g id="text_8">
      <!-- $1$ -->
      <g transform="translate(23.816477 85.529601) scale(0.28 -0.28)">
       <use xlink:href="#Cmr10-31" transform="translate(0 0.390625)"/>
      </g>
     </g>
    </g>
    <g id="ytick_4">
     <g id="line2d_10">
      <g>
       <use xlink:href="#mcc0de3244b" x="41.316477" y="44.313901" style="stroke: #000000"/>
      </g>
     </g>
     <g id="text_9">
      <!-- $2$ -->
      <g transform="translate(23.816477 54.951713) scale(0.28 -0.28)">
       <use xlink:href="#Cmr10-32" transform="translate(0 0.390625)"/>
      </g>
     </g>
    </g>
    <g id="ytick_5">
     <g id="line2d_11">
      <g>
       <use xlink:href="#mcc0de3244b" x="41.316477" y="13.736012" style="stroke: #000000"/>
      </g>
     </g>
     <g id="text_10">
      <!-- $3$ -->
      <g transform="translate(23.816477 24.373825) scale(0.28 -0.28)">
       <defs>
        <path id="Cmr10-33" d="M 609 494 
Q 759 275 1012 169 
Q 1266 63 1556 63 
Q 1928 63 2084 380 
Q 2241 697 2241 1100 
Q 2241 1281 2208 1462 
Q 2175 1644 2097 1800 
Q 2019 1956 1883 2050 
Q 1747 2144 1550 2144 
L 1125 2144 
Q 1069 2144 1069 2203 
L 1069 2259 
Q 1069 2309 1125 2309 
L 1478 2338 
Q 1703 2338 1851 2506 
Q 2000 2675 2069 2917 
Q 2138 3159 2138 3378 
Q 2138 3684 1994 3881 
Q 1850 4078 1556 4078 
Q 1313 4078 1091 3986 
Q 869 3894 738 3706 
Q 750 3709 759 3711 
Q 769 3713 781 3713 
Q 925 3713 1022 3613 
Q 1119 3513 1119 3372 
Q 1119 3234 1022 3134 
Q 925 3034 781 3034 
Q 641 3034 541 3134 
Q 441 3234 441 3372 
Q 441 3647 606 3850 
Q 772 4053 1033 4158 
Q 1294 4263 1556 4263 
Q 1750 4263 1965 4205 
Q 2181 4147 2356 4039 
Q 2531 3931 2642 3762 
Q 2753 3594 2753 3378 
Q 2753 3109 2633 2881 
Q 2513 2653 2303 2487 
Q 2094 2322 1844 2241 
Q 2122 2188 2372 2031 
Q 2622 1875 2773 1631 
Q 2925 1388 2925 1106 
Q 2925 753 2731 467 
Q 2538 181 2222 20 
Q 1906 -141 1556 -141 
Q 1256 -141 954 -26 
Q 653 88 461 316 
Q 269 544 269 863 
Q 269 1022 375 1128 
Q 481 1234 641 1234 
Q 744 1234 830 1186 
Q 916 1138 964 1050 
Q 1013 963 1013 863 
Q 1013 706 903 600 
Q 794 494 641 494 
L 609 494 
z
" transform="scale(0.015625)"/>
       </defs>
       <use xlink:href="#Cmr10-33" transform="translate(0 0.390625)"/>
      </g>
     </g>
    </g>
   </g>
   <g id="line2d_12">
    <path d="M 65.742388 88.480283 
L 67.370782 95.264192 
L 70.084773 107.742799 
L 72.708296 119.461588 
L 74.246224 125.407539 
L 75.512753 129.493985 
L 76.598349 132.287681 
L 77.503012 134.056042 
L 78.31721 135.182045 
L 79.04094 135.79776 
L 79.674205 136.032731 
L 80.217003 136.00657 
L 80.759801 135.770474 
L 81.393065 135.231941 
L 82.116796 134.275943 
L 82.930993 132.780555 
L 83.835656 130.625128 
L 84.921252 127.409428 
L 86.187781 122.903698 
L 87.725709 116.575528 
L 90.1683 105.423125 
L 93.244156 91.580366 
L 94.87255 85.299758 
L 96.139078 81.256415 
L 97.224674 78.505349 
L 98.129338 76.775634 
L 98.943535 75.686191 
L 99.576799 75.156515 
L 100.210064 74.91043 
L 100.752862 74.927034 
L 101.29566 75.153612 
L 101.928924 75.681178 
L 102.652655 76.624948 
L 103.466852 78.107149 
L 104.371515 80.248868 
L 105.457111 83.449786 
L 106.72364 87.941077 
L 108.261568 94.256502 
L 110.613693 104.978296 
L 113.780015 119.256193 
L 115.408409 125.552812 
L 116.674937 129.612367 
L 117.760533 132.379452 
L 118.665197 134.12368 
L 119.479394 135.226846 
L 120.203125 135.821669 
L 120.836389 136.038112 
L 121.379187 135.996022 
L 121.921985 135.74407 
L 122.555249 135.187275 
L 123.27898 134.210928 
L 124.093177 132.693609 
L 124.997841 130.515404 
L 126.083437 127.275169 
L 127.349965 122.745515 
L 128.97836 116.0005 
L 131.601883 103.963573 
L 134.40634 91.409478 
L 135.944268 85.473611 
L 137.210796 81.397902 
L 138.296393 78.614838 
L 139.201056 76.856122 
L 140.015253 75.739248 
L 140.738984 75.131887 
L 141.372248 74.904326 
L 141.915046 74.936859 
L 142.457844 75.179298 
L 143.091109 75.725139 
L 143.814839 76.689281 
L 144.629036 78.193448 
L 145.5337 80.357997 
L 146.619296 83.583526 
L 147.885825 88.098848 
L 149.514219 94.830705 
L 152.047276 106.438275 
L 154.942199 119.42741 
L 156.480127 125.378389 
L 157.746655 129.470195 
L 158.832252 132.269199 
L 159.736915 134.042379 
L 160.551112 135.172944 
L 161.274843 135.792834 
L 161.908107 136.03151 
L 162.450905 136.008535 
L 162.993703 135.775611 
L 163.626968 135.240733 
L 164.350698 134.28881 
L 165.164895 132.797815 
L 166.069559 130.646954 
L 167.155155 127.436176 
L 168.421684 122.935252 
L 169.959611 116.61132 
L 172.402202 105.46155 
L 175.478058 91.614609 
L 177.106452 85.328654 
L 178.372981 81.279901 
L 179.458577 78.523491 
L 180.36324 76.788936 
L 181.177437 75.694917 
L 181.810702 75.161584 
L 182.443966 74.911796 
L 182.986764 74.925214 
L 183.529562 75.148618 
L 184.162827 75.672527 
L 184.886557 76.612218 
L 185.700754 78.090018 
L 186.605418 80.227162 
L 187.691014 83.423143 
L 188.957543 87.909606 
L 190.49547 94.220762 
L 192.847595 104.939876 
L 196.013917 119.221884 
L 197.642311 125.523821 
L 198.90884 129.588767 
L 199.994436 132.361183 
L 200.899099 134.110243 
L 201.713296 135.21798 
L 202.437027 135.816983 
L 203.070292 136.037132 
L 203.61309 135.998228 
L 204.155888 135.749446 
L 204.789152 135.196302 
L 205.512883 134.224022 
L 206.32708 132.711085 
L 207.231743 130.537428 
L 208.317339 127.30209 
L 209.583868 122.777206 
L 211.212262 116.036567 
L 213.74532 104.424271 
L 216.549776 91.820528 
L 218.17817 85.502698 
L 219.444699 81.421617 
L 220.530295 78.633235 
L 221.434958 76.869694 
L 222.249155 75.748255 
L 222.972886 75.136717 
L 223.606151 74.90545 
L 224.148949 74.934798 
L 224.691747 75.174065 
L 225.325011 75.716253 
L 226.048742 76.676324 
L 226.862939 78.176102 
L 227.767602 80.336092 
L 228.853198 83.556709 
L 230.119727 88.067238 
L 231.748121 94.794689 
L 234.281179 106.399868 
L 237.176101 119.39321 
L 238.714029 125.349208 
L 239.980558 129.446367 
L 241.066154 132.250676 
L 241.970817 134.028671 
L 242.785015 135.163796 
L 243.508745 135.787861 
L 244.14201 136.030241 
L 244.684808 136.010452 
L 245.227606 135.780701 
L 245.86087 135.249478 
L 246.584601 134.301631 
L 247.398798 132.815032 
L 248.303461 130.66874 
L 249.389057 127.462889 
L 250.655586 122.966778 
L 252.193514 116.647095 
L 254.636105 105.499975 
L 257.711961 91.648874 
L 259.340355 85.357582 
L 260.606883 81.303425 
L 261.692479 78.541675 
L 262.597143 76.802282 
L 263.41134 75.703689 
L 264.044604 75.166701 
L 264.677869 74.91321 
L 265.220667 74.923442 
L 265.763465 75.143672 
L 266.396729 75.663923 
L 267.12046 76.599534 
L 267.934657 78.072931 
L 268.83932 80.205495 
L 269.924916 83.396534 
L 271.191445 87.878162 
L 272.729373 94.185041 
L 275.081498 104.901457 
L 278.24782 119.187553 
L 279.876214 125.494798 
L 281.142742 129.565128 
L 282.228338 132.342871 
L 283.133002 134.09676 
L 283.947199 135.209066 
L 284.67093 135.812249 
L 285.304194 136.036104 
L 285.846992 136.000386 
L 286.38979 135.754775 
L 287.023054 135.205282 
L 287.746785 134.23707 
L 288.560982 132.728517 
L 289.465646 130.559413 
L 290.551242 127.328976 
L 291.81777 122.80887 
L 293.446165 116.072616 
L 295.979222 104.462674 
L 298.874145 91.477767 
L 300.412073 85.531816 
L 301.678601 81.445369 
L 302.764198 78.651674 
L 303.668861 76.883312 
L 304.483058 75.75731 
L 305.206789 75.141595 
L 305.840053 74.906623 
L 306.382851 74.932784 
L 306.925649 75.16888 
L 307.558913 75.707414 
L 308.282644 76.663411 
L 309.096841 78.158799 
L 310.001505 80.314226 
L 311.087101 83.529926 
L 312.353629 88.035657 
L 313.891557 94.363827 
L 316.334148 105.51623 
L 319.410004 119.358989 
L 321.038398 125.639596 
L 322.304927 129.682939 
L 323.390523 132.434005 
L 324.295186 134.16372 
L 325.109383 135.253163 
L 325.742648 135.782839 
L 326.375912 136.028924 
L 326.91871 136.01232 
L 327.461508 135.785742 
L 328.094773 135.258176 
L 328.818503 134.314406 
L 329.6327 132.832206 
L 330.537364 130.690486 
L 331.62296 127.489568 
L 332.889489 122.998277 
L 334.427416 116.682852 
L 336.779541 105.961058 
L 339.945863 91.683162 
L 341.574257 85.386542 
L 342.840786 81.326987 
L 343.926382 78.559902 
L 344.831045 76.815674 
L 345.645242 75.712508 
L 346.368973 75.117685 
L 347.002237 74.901243 
L 347.545035 74.943333 
L 348.087834 75.195284 
L 348.721098 75.75208 
L 349.444829 76.728426 
L 350.259026 78.245745 
L 351.163689 80.42395 
L 352.249285 83.664185 
L 353.515814 88.193839 
L 355.144208 94.938854 
L 357.767732 106.975782 
L 360.572188 119.529876 
L 362.110116 125.465743 
L 363.376645 129.541452 
L 364.462241 132.324516 
L 365.366904 134.083233 
L 366.181101 135.200106 
L 366.904832 135.807467 
L 367.538096 136.035028 
L 368.080895 136.002495 
L 368.623693 135.760056 
L 369.256957 135.214215 
L 369.980688 134.250073 
L 370.794885 132.745906 
L 371.699548 130.581357 
L 372.785144 127.355828 
L 374.051673 122.840507 
L 375.680067 116.108649 
L 378.213125 104.501079 
L 381.108047 91.511944 
L 382.645975 85.560965 
L 383.912504 81.469159 
L 384.9981 78.670155 
L 385.902763 76.896976 
L 386.71696 75.766411 
L 387.440691 75.14652 
L 388.073956 74.907844 
L 388.616754 74.930819 
L 389.159552 75.163743 
L 389.792816 75.698622 
L 390.516547 76.650545 
L 391.330744 78.141539 
L 392.235407 80.292401 
L 393.321003 83.503178 
L 394.587532 88.004103 
L 396.12546 94.328034 
L 398.568051 105.477804 
L 401.643906 119.324745 
L 403.272301 125.6107 
L 404.538829 129.659453 
L 405.624425 132.415863 
L 406.529089 134.150419 
L 407.343286 135.244438 
L 407.97655 135.77777 
L 408.609815 136.027558 
L 409.152613 136.01414 
L 409.695411 135.790736 
L 410.328675 135.266827 
L 411.052406 134.327136 
L 411.866603 132.849336 
L 412.771266 130.712192 
L 413.856862 127.516212 
L 415.123391 123.029749 
L 416.661319 116.718592 
L 419.013444 105.999478 
L 422.179765 91.717471 
L 423.80816 85.415534 
L 425.074688 81.350588 
L 426.160284 78.578172 
L 427.064948 76.829111 
L 427.879145 75.721375 
L 428.602876 75.122371 
L 429.23614 74.902222 
L 429.778938 74.941126 
L 430.321736 75.189908 
L 430.955 75.743053 
L 431.678731 76.715332 
L 432.492928 78.22827 
L 433.397592 80.401926 
L 434.483188 83.637264 
L 435.749716 88.162148 
L 437.37811 94.902788 
L 439.911168 106.515084 
L 442.715625 119.118827 
L 444.344019 125.436656 
L 445.610547 129.517738 
L 446.696143 132.30612 
L 447.600807 134.06966 
L 448.415004 135.191099 
L 449.138735 135.802637 
L 449.771999 136.033904 
L 450.314797 136.004557 
L 450.857595 135.765289 
L 451.490859 135.223101 
L 452.21459 134.263031 
L 453.028787 132.763252 
L 453.933451 130.603263 
L 455.019047 127.382645 
L 456.285575 122.872116 
L 457.91397 116.144665 
L 460.447027 104.539486 
L 463.34195 91.546144 
L 464.879878 85.590146 
L 466.146406 81.492988 
L 467.232002 78.688679 
L 468.136666 76.910684 
L 468.950863 75.775559 
L 469.674594 75.151494 
L 470.307858 74.909113 
L 470.850656 74.928903 
L 471.393454 75.158653 
L 472.026718 75.689876 
L 472.750449 76.637724 
L 473.564646 78.124322 
L 474.46931 80.270614 
L 475.554906 83.476465 
L 476.821434 87.972576 
L 478.359362 94.292259 
L 480.801953 105.439379 
L 483.877809 119.29048 
L 485.506203 125.581772 
L 486.772732 129.635929 
L 487.858328 132.397679 
L 488.762991 134.137072 
L 489.577188 135.235665 
L 490.210453 135.772653 
L 490.843717 136.026144 
L 491.386515 136.015912 
L 491.929313 135.795682 
L 492.562578 135.275431 
L 493.286308 134.339821 
L 494.100505 132.866423 
L 495.005169 130.733859 
L 496.090765 127.542821 
L 497.357293 123.061192 
L 498.895221 116.754314 
L 501.247346 106.037897 
L 504.413668 91.751801 
L 506.042062 85.444557 
L 507.308591 81.374226 
L 508.394187 78.596484 
L 509.29885 76.842594 
L 510.113047 75.730288 
L 510.836778 75.127105 
L 511.470042 74.90325 
L 512.01284 74.938969 
L 512.555639 75.184579 
L 513.188903 75.734072 
L 513.912634 76.702284 
L 514.726831 78.210837 
L 515.631494 80.379942 
L 516.71709 83.610378 
L 517.983619 88.130484 
L 519.612013 94.866738 
L 522.14507 106.47668 
L 525.039993 119.461588 
L 526.577921 125.407539 
L 527.84445 129.493985 
L 528.930046 132.287681 
L 529.834709 134.056042 
L 530.648906 135.182045 
L 531.372637 135.79776 
L 532.005901 136.032731 
L 532.5487 136.00657 
L 533.091498 135.770474 
L 533.724762 135.231941 
L 534.448493 134.275943 
L 535.26269 132.780555 
L 536.167353 130.625128 
L 537.252949 127.409428 
L 538.519478 122.903698 
L 540.057406 116.575528 
L 542.499997 105.423125 
L 545.575852 91.580366 
L 547.204246 85.299758 
L 548.470775 81.256415 
L 549.556371 78.505349 
L 550.461035 76.775634 
L 551.275232 75.686191 
L 551.908496 75.156515 
L 552.541761 74.91043 
L 553.084559 74.927034 
L 553.627357 75.153612 
L 554.260621 75.681178 
L 554.984352 76.624948 
L 555.798549 78.107149 
L 556.703212 80.248868 
L 557.788808 83.449786 
L 559.055337 87.941077 
L 560.593265 94.256502 
L 562.94539 104.978296 
L 566.111711 119.256193 
L 567.740106 125.552812 
L 569.006634 129.612367 
L 570.09223 132.379452 
L 570.996894 134.12368 
L 571.811091 135.226846 
L 572.534822 135.821669 
L 573.168086 136.038112 
L 573.710884 135.996022 
L 574.253682 135.74407 
L 574.886946 135.187275 
L 575.610677 134.210928 
L 576.424874 132.693609 
L 577.329538 130.515404 
L 578.415134 127.275169 
L 579.681662 122.745515 
L 581.310056 116.0005 
L 583.93358 103.963573 
L 586.738037 91.409478 
L 588.275965 85.473611 
L 589.542493 81.397902 
L 590.628089 78.614838 
L 591.532753 76.856122 
L 592.34695 75.739248 
L 593.070681 75.131887 
L 593.703945 74.904326 
L 594.246743 74.936859 
L 594.789541 75.179298 
L 595.422805 75.725139 
L 596.146536 76.689281 
L 596.960733 78.193448 
L 597.865397 80.357997 
L 598.950993 83.583526 
L 600.217521 88.098848 
L 601.845915 94.830705 
L 604.378973 106.438275 
L 607.273896 119.42741 
L 608.811824 125.378389 
L 610.078352 129.470195 
L 611.163948 132.269199 
L 612.068612 134.042379 
L 612.882809 135.172944 
L 613.60654 135.792834 
L 614.239804 136.03151 
L 614.782602 136.008535 
L 615.3254 135.775611 
L 615.958664 135.240733 
L 616.682395 134.28881 
L 617.496592 132.797815 
L 618.401256 130.646954 
L 619.486852 127.436176 
L 620.75338 122.935252 
L 622.291308 116.61132 
L 624.733899 105.46155 
L 627.809755 91.614609 
L 629.438149 85.328654 
L 630.704678 81.279901 
L 631.790274 78.523491 
L 632.694937 76.788936 
L 633.509134 75.694917 
L 634.142399 75.161584 
L 634.775663 74.911796 
L 635.318461 74.925214 
L 635.861259 75.148618 
L 636.494523 75.672527 
L 637.218254 76.612218 
L 638.032451 78.090018 
L 638.937115 80.227162 
L 640.022711 83.423143 
L 641.289239 87.909606 
L 642.827167 94.220762 
L 645.179292 104.939876 
L 648.345614 119.221884 
L 649.974008 125.523821 
L 651.240537 129.588767 
L 652.326133 132.361183 
L 653.230796 134.110243 
L 654.044993 135.21798 
L 654.768724 135.816983 
L 655.401988 136.037132 
L 655.944786 135.998228 
L 656.487584 135.749446 
L 657.120849 135.196302 
L 657.84458 134.224022 
L 658.658777 132.711085 
L 659.56344 130.537428 
L 660.649036 127.30209 
L 661.915565 122.777206 
L 663.543959 116.036567 
L 666.077016 104.424271 
L 668.881473 91.820528 
L 670.509867 85.502698 
L 671.776396 81.421617 
L 672.861992 78.633235 
L 673.766655 76.869694 
L 674.580852 75.748255 
L 675.304583 75.136717 
L 675.937847 74.90545 
L 676.480645 74.934798 
L 677.023443 75.174065 
L 677.656708 75.716253 
L 678.380439 76.676324 
L 679.194636 78.176102 
L 680.099299 80.336092 
L 681.184895 83.556709 
L 682.451424 88.067238 
L 684.079818 94.794689 
L 686.612875 106.399868 
L 689.507798 119.39321 
L 691.045726 125.349208 
L 692.312255 129.446367 
L 693.397851 132.250676 
L 694.302514 134.028671 
L 695.116711 135.163796 
L 695.840442 135.787861 
L 696.473706 136.030241 
L 697.016504 136.010452 
L 697.559303 135.780701 
L 698.192567 135.249478 
L 698.916298 134.301631 
L 699.730495 132.815032 
L 700.635158 130.66874 
L 701.720754 127.462889 
L 702.987283 122.966778 
L 704.525211 116.647095 
L 706.967802 105.499975 
L 710.043657 91.648874 
L 711.672051 85.357582 
L 712.93858 81.303425 
L 714.024176 78.541675 
L 714.92884 76.802282 
L 715.743037 75.703689 
L 716.376301 75.166701 
L 717.009565 74.91321 
L 717.552364 74.923442 
L 718.095162 75.143672 
L 718.728426 75.663923 
L 719.452157 76.599534 
L 720.266354 78.072931 
L 721.171017 80.205495 
L 722.256613 83.396534 
L 723.523142 87.878162 
L 725.06107 94.185041 
L 727.413195 104.901457 
L 730.579516 119.187553 
L 732.207911 125.494798 
L 733.474439 129.565128 
L 734.560035 132.342871 
L 735.464699 134.09676 
L 736.278896 135.209066 
L 737.002626 135.812249 
L 737.635891 136.036104 
L 738.178689 136.000386 
L 738.721487 135.754775 
L 739.354751 135.205282 
L 740.078482 134.23707 
L 740.892679 132.728517 
L 741.797342 130.559413 
L 742.882939 127.328976 
L 744.149467 122.80887 
L 745.777861 116.072616 
L 748.310919 104.462674 
L 751.205842 91.477767 
L 752.74377 85.531816 
L 754.010298 81.445369 
L 755.095894 78.651674 
L 756.000558 76.883312 
L 756.814755 75.75731 
L 757.538486 75.141595 
L 758.17175 74.906623 
L 758.714548 74.932784 
L 759.257346 75.16888 
L 759.89061 75.707414 
L 760.614341 76.663411 
L 761.428538 78.158799 
L 762.333202 80.314226 
L 763.418798 83.529926 
L 764.685326 88.035657 
L 766.223254 94.363827 
L 768.665845 105.51623 
L 771.741701 119.358989 
L 773.370095 125.639596 
L 774.636624 129.682939 
L 775.72222 132.434005 
L 776.626883 134.16372 
L 777.44108 135.253163 
L 778.074345 135.782839 
L 778.707609 136.028924 
L 779.250407 136.01232 
L 779.793205 135.785742 
L 780.426469 135.258176 
L 781.1502 134.314406 
L 781.964397 132.832206 
L 782.869061 130.690486 
L 783.954657 127.489568 
L 785.221185 122.998277 
L 786.759113 116.682852 
L 789.111238 105.961058 
L 792.27756 91.683162 
L 793.905954 85.386542 
L 795.172483 81.326987 
L 796.258079 78.559902 
L 797.162742 76.815674 
L 797.976939 75.712508 
L 798.70067 75.117685 
L 799.333934 74.901243 
L 799.876732 74.943333 
L 800.41953 75.195284 
L 801.052795 75.75208 
L 801.776525 76.728426 
L 802.590723 78.245745 
L 803.495386 80.42395 
L 804.580982 83.664185 
L 805.847511 88.193839 
L 807.475905 94.938854 
L 810.099429 106.975782 
L 812.903885 119.529876 
L 814.441813 125.465743 
L 815.708342 129.541452 
L 816.793938 132.324516 
L 817.698601 134.083233 
L 818.512798 135.200106 
L 819.236529 135.807467 
L 819.869793 136.035028 
L 820.412591 136.002495 
L 820.955389 135.760056 
L 821.588654 135.214215 
L 822.312385 134.250073 
L 823.126582 132.745906 
L 824.031245 130.581357 
L 825.116841 127.355828 
L 826.38337 122.840507 
L 828.011764 116.108649 
L 830.544821 104.501079 
L 833.439744 91.511944 
L 834.977672 85.560965 
L 836.244201 81.469159 
L 837.329797 78.670155 
L 838.23446 76.896976 
L 839.048657 75.766411 
L 839.772388 75.14652 
L 840.405652 74.907844 
L 840.94845 74.930819 
L 841.491248 75.163743 
L 842.124513 75.698622 
L 842.848244 76.650545 
L 843.662441 78.141539 
L 844.567104 80.292401 
L 845.6527 83.503178 
L 846.919229 88.004103 
L 848.457157 94.328034 
L 850.899748 105.477804 
L 853.975603 119.324745 
L 855.603997 125.6107 
L 856.870526 129.659453 
L 857.956122 132.415863 
L 858.860786 134.150419 
L 859.674983 135.244438 
L 860.308247 135.77777 
L 860.941511 136.027558 
L 861.484309 136.01414 
L 862.027108 135.790736 
L 862.660372 135.266827 
L 863.384103 134.327136 
L 864.1983 132.849336 
L 865.102963 130.712192 
L 866.188559 127.516212 
L 867.455088 123.029749 
L 868.993016 116.718592 
L 871.34514 105.999478 
L 874.511462 91.717471 
L 876.139856 85.415534 
L 877.406385 81.350588 
L 878.491981 78.578172 
L 879.396645 76.829111 
L 879.939443 76.04023 
L 879.939443 76.04023 
" clip-path="url(#p37002ed997)" style="fill: none; stroke: #ffa231; stroke-width: 4"/>
   </g>
   <g id="patch_3">
    <path d="M 41.316477 139.105354 
L 41.316477 4.562646 
" style="fill: none; stroke: #000000; stroke-width: 2; stroke-linejoin: miter; stroke-linecap: square"/>
   </g>
   <g id="patch_4">
    <path d="M 41.316477 139.105354 
L 904.365354 139.105354 
" style="fill: none; stroke: #000000; stroke-width: 2; stroke-linejoin: miter; stroke-linecap: square"/>
   </g>
   <g id="line2d_13">
    <path d="M 65.742388 13.045109 
L 71.079902 18.342983 
L 76.507883 23.41931 
L 82.026329 28.277141 
L 87.635242 32.919984 
L 93.334622 37.351763 
L 99.214934 41.640672 
L 103.466852 44.57266 
L 103.557318 14.072684 
L 103.647785 14.164081 
L 108.985299 19.397815 
L 114.413279 24.412683 
L 119.931726 29.211701 
L 125.540639 33.798334 
L 131.330484 38.243751 
L 137.210796 42.476498 
L 143.181575 46.501765 
L 143.452974 46.678495 
L 143.54344 16.186661 
L 143.633907 16.275944 
L 149.061887 21.472705 
L 154.580334 26.445785 
L 160.189247 31.198777 
L 165.888626 35.735699 
L 171.678472 40.060951 
L 177.558784 44.179282 
L 183.620029 48.153115 
L 184.977024 49.006871 
L 185.06749 18.506431 
L 185.157956 18.593394 
L 190.585937 23.655131 
L 196.104383 28.499 
L 201.713296 33.128499 
L 207.412676 37.547541 
L 213.292988 41.824124 
L 219.263766 45.891078 
L 225.415477 49.80964 
L 227.31527 50.966887 
L 227.405737 20.473401 
L 227.496203 20.558397 
L 233.01465 25.58561 
L 238.623563 30.390338 
L 244.322942 34.976644 
L 250.112788 39.348977 
L 255.9931 43.512135 
L 262.054345 47.529224 
L 268.206056 51.340043 
L 269.743984 52.252922 
L 269.83445 21.748809 
L 269.924916 21.83253 
L 275.443363 26.784307 
L 281.052276 31.516938 
L 286.751655 36.034424 
L 292.541501 40.341148 
L 298.51228 44.502864 
L 304.573524 48.455718 
L 310.815702 52.258865 
L 311.991764 52.94647 
L 312.08223 22.429307 
L 312.172697 22.512347 
L 317.691144 27.423875 
L 323.300057 32.118039 
L 328.999436 36.598806 
L 334.789282 40.870525 
L 340.76006 44.998414 
L 346.821305 48.919137 
L 353.063482 52.691372 
L 354.058612 53.269041 
L 354.149078 22.771348 
L 354.239545 22.854046 
L 359.757991 27.745344 
L 365.366904 32.420172 
L 371.066284 36.882483 
L 376.856129 41.136607 
L 382.826908 45.247493 
L 388.888153 49.152067 
L 395.13033 52.908764 
L 395.763594 53.275588 
L 395.854061 22.770923 
L 395.944527 22.853622 
L 401.462974 27.744945 
L 407.071887 32.419797 
L 412.771266 36.882131 
L 418.561112 41.136276 
L 424.53189 45.247184 
L 430.593135 49.151778 
L 436.835312 52.908494 
L 437.197178 53.118424 
L 437.287644 22.600687 
L 437.37811 22.683556 
L 442.896557 27.584947 
L 448.50547 32.269423 
L 454.20485 36.740943 
L 459.994695 41.003845 
L 465.965474 45.123215 
L 472.026718 49.035847 
L 478.268896 52.800296 
L 478.449829 52.905582 
L 478.540295 22.384296 
L 478.630761 22.467381 
L 484.149208 27.381572 
L 489.758121 32.07828 
L 495.4575 36.561476 
L 501.247346 40.835509 
L 507.218124 44.965636 
L 513.279369 48.888485 
L 519.521547 52.662764 
L 519.612013 52.715572 
L 519.702479 22.213542 
L 519.792946 22.296799 
L 525.311392 27.221088 
L 530.920305 31.927449 
L 536.619685 36.419858 
L 542.409531 40.702676 
L 548.380309 44.84129 
L 554.441554 48.772202 
L 560.593265 52.501269 
L 560.683731 21.992525 
L 560.774197 22.076002 
L 566.292644 27.013364 
L 571.901557 31.732219 
L 577.600937 36.236554 
L 583.390782 40.530741 
L 589.361561 44.680342 
L 595.422805 48.621689 
L 601.574516 52.360658 
L 601.664983 21.862753 
L 601.755449 21.94636 
L 607.273896 26.891397 
L 612.882809 31.617588 
L 618.582188 36.128925 
L 624.372034 40.429788 
L 630.342812 44.58584 
L 636.404057 48.533314 
L 642.465302 52.224848 
L 642.555768 21.709886 
L 642.646235 21.793645 
L 648.164681 26.747725 
L 653.773594 31.482556 
L 659.472974 36.002143 
L 665.262819 40.310869 
L 671.233598 44.47452 
L 677.294843 48.429211 
L 683.446554 52.180839 
L 683.53702 21.671341 
L 683.627486 21.755139 
L 689.145933 26.711498 
L 694.754846 31.448509 
L 700.454225 35.970175 
L 706.244071 40.280884 
L 712.21485 44.446451 
L 718.276094 48.402962 
L 724.427805 52.156315 
L 724.518272 21.638426 
L 724.608738 21.722257 
L 730.127185 26.680563 
L 735.736098 31.419434 
L 741.435477 35.942876 
L 747.225323 40.255279 
L 753.196101 44.422482 
L 759.257346 48.380547 
L 765.499523 52.188709 
L 765.58999 21.67767 
L 765.680456 21.761462 
L 771.198903 26.717447 
L 776.807816 31.4541 
L 782.507195 35.975424 
L 788.297041 40.285808 
L 794.267819 44.45106 
L 800.329064 48.407272 
L 806.571241 52.213651 
L 806.661708 21.69578 
L 806.752174 21.779554 
L 812.270621 26.734467 
L 817.879534 31.470097 
L 823.578913 35.990444 
L 829.368759 40.299896 
L 835.339537 44.464248 
L 841.400782 48.419605 
L 847.64296 52.225161 
L 847.733426 52.278408 
L 847.823892 21.773947 
L 847.914359 21.857643 
L 853.432805 26.807933 
L 859.041718 31.539143 
L 864.741098 36.055273 
L 870.530943 40.360704 
L 876.501722 44.52117 
L 879.939443 46.794868 
L 879.939443 46.794868 
" clip-path="url(#p37002ed997)" style="fill: none; stroke: #4eba88; stroke-width: 4"/>
   </g>
   <g id="line2d_14">
    <path d="M 65.742388 173.8 
L 65.742388 -1 
" clip-path="url(#p37002ed997)" style="fill: none; stroke-dasharray: 7.4,3.2; stroke-dashoffset: 0; stroke: #000000; stroke-width: 2"/>
   </g>
   <g id="line2d_15">
    <path d="M 103.557318 173.8 
L 103.557318 -1 
" clip-path="url(#p37002ed997)" style="fill: none; stroke-dasharray: 7.4,3.2; stroke-dashoffset: 0; stroke: #000000; stroke-width: 2"/>
   </g>
   <g id="line2d_16">
    <path d="M 143.54344 173.8 
L 143.54344 -1 
" clip-path="url(#p37002ed997)" style="fill: none; stroke-dasharray: 7.4,3.2; stroke-dashoffset: 0; stroke: #000000; stroke-width: 2"/>
   </g>
   <g id="line2d_17">
    <path d="M 185.06749 173.8 
L 185.06749 -1 
" clip-path="url(#p37002ed997)" style="fill: none; stroke-dasharray: 7.4,3.2; stroke-dashoffset: 0; stroke: #000000; stroke-width: 2"/>
   </g>
   <g id="line2d_18">
    <path d="M 227.405737 173.8 
L 227.405737 -1 
" clip-path="url(#p37002ed997)" style="fill: none; stroke-dasharray: 7.4,3.2; stroke-dashoffset: 0; stroke: #000000; stroke-width: 2"/>
   </g>
   <g id="line2d_19">
    <path d="M 269.83445 173.8 
L 269.83445 -1 
" clip-path="url(#p37002ed997)" style="fill: none; stroke-dasharray: 7.4,3.2; stroke-dashoffset: 0; stroke: #000000; stroke-width: 2"/>
   </g>
   <g id="line2d_20">
    <path d="M 312.08223 173.8 
L 312.08223 -1 
" clip-path="url(#p37002ed997)" style="fill: none; stroke-dasharray: 7.4,3.2; stroke-dashoffset: 0; stroke: #000000; stroke-width: 2"/>
   </g>
   <g id="line2d_21">
    <path d="M 354.149078 173.8 
L 354.149078 -1 
" clip-path="url(#p37002ed997)" style="fill: none; stroke-dasharray: 7.4,3.2; stroke-dashoffset: 0; stroke: #000000; stroke-width: 2"/>
   </g>
   <g id="line2d_22">
    <path d="M 395.854061 173.8 
L 395.854061 -1 
" clip-path="url(#p37002ed997)" style="fill: none; stroke-dasharray: 7.4,3.2; stroke-dashoffset: 0; stroke: #000000; stroke-width: 2"/>
   </g>
   <g id="line2d_23">
    <path d="M 437.287644 173.8 
L 437.287644 -1 
" clip-path="url(#p37002ed997)" style="fill: none; stroke-dasharray: 7.4,3.2; stroke-dashoffset: 0; stroke: #000000; stroke-width: 2"/>
   </g>
   <g id="line2d_24">
    <path d="M 478.540295 173.8 
L 478.540295 -1 
" clip-path="url(#p37002ed997)" style="fill: none; stroke-dasharray: 7.4,3.2; stroke-dashoffset: 0; stroke: #000000; stroke-width: 2"/>
   </g>
   <g id="line2d_25">
    <path d="M 519.702479 173.8 
L 519.702479 -1 
" clip-path="url(#p37002ed997)" style="fill: none; stroke-dasharray: 7.4,3.2; stroke-dashoffset: 0; stroke: #000000; stroke-width: 2"/>
   </g>
   <g id="line2d_26">
    <path d="M 560.683731 173.8 
L 560.683731 -1 
" clip-path="url(#p37002ed997)" style="fill: none; stroke-dasharray: 7.4,3.2; stroke-dashoffset: 0; stroke: #000000; stroke-width: 2"/>
   </g>
   <g id="line2d_27">
    <path d="M 601.664983 173.8 
L 601.664983 -1 
" clip-path="url(#p37002ed997)" style="fill: none; stroke-dasharray: 7.4,3.2; stroke-dashoffset: 0; stroke: #000000; stroke-width: 2"/>
   </g>
   <g id="line2d_28">
    <path d="M 642.555768 173.8 
L 642.555768 -1 
" clip-path="url(#p37002ed997)" style="fill: none; stroke-dasharray: 7.4,3.2; stroke-dashoffset: 0; stroke: #000000; stroke-width: 2"/>
   </g>
   <g id="line2d_29">
    <path d="M 683.53702 173.8 
L 683.53702 -1 
" clip-path="url(#p37002ed997)" style="fill: none; stroke-dasharray: 7.4,3.2; stroke-dashoffset: 0; stroke: #000000; stroke-width: 2"/>
   </g>
   <g id="line2d_30">
    <path d="M 724.518272 173.8 
L 724.518272 -1 
" clip-path="url(#p37002ed997)" style="fill: none; stroke-dasharray: 7.4,3.2; stroke-dashoffset: 0; stroke: #000000; stroke-width: 2"/>
   </g>
   <g id="line2d_31">
    <path d="M 765.58999 173.8 
L 765.58999 -1 
" clip-path="url(#p37002ed997)" style="fill: none; stroke-dasharray: 7.4,3.2; stroke-dashoffset: 0; stroke: #000000; stroke-width: 2"/>
   </g>
   <g id="line2d_32">
    <path d="M 806.661708 173.8 
L 806.661708 -1 
" clip-path="url(#p37002ed997)" style="fill: none; stroke-dasharray: 7.4,3.2; stroke-dashoffset: 0; stroke: #000000; stroke-width: 2"/>
   </g>
   <g id="line2d_33">
    <path d="M 847.823892 173.8 
L 847.823892 -1 
" clip-path="url(#p37002ed997)" style="fill: none; stroke-dasharray: 7.4,3.2; stroke-dashoffset: 0; stroke: #000000; stroke-width: 2"/>
   </g>
   <g id="PathCollection_1">
    <defs>
     <path id="mdb57bcd38b" d="M 0 5 
C 1.326016 5 2.597899 4.473168 3.535534 3.535534 
C 4.473168 2.597899 5 1.326016 5 0 
C 5 -1.326016 4.473168 -2.597899 3.535534 -3.535534 
C 2.597899 -4.473168 1.326016 -5 0 -5 
C -1.326016 -5 -2.597899 -4.473168 -3.535534 -3.535534 
C -4.473168 -2.597899 -5 -1.326016 -5 0 
C -5 1.326016 -4.473168 2.597899 -3.535534 3.535534 
C -2.597899 4.473168 -1.326016 5 0 5 
z
"/>
    </defs>
    <g clip-path="url(#p37002ed997)">
     <use xlink:href="#mdb57bcd38b" x="103.557318" y="14.072684"/>
     <use xlink:href="#mdb57bcd38b" x="143.54344" y="16.186661"/>
     <use xlink:href="#mdb57bcd38b" x="185.06749" y="18.506431"/>
     <use xlink:href="#mdb57bcd38b" x="227.405737" y="20.473401"/>
     <use xlink:href="#mdb57bcd38b" x="269.83445" y="21.748809"/>
     <use xlink:href="#mdb57bcd38b" x="312.08223" y="22.429307"/>
     <use xlink:href="#mdb57bcd38b" x="354.149078" y="22.771348"/>
     <use xlink:href="#mdb57bcd38b" x="395.854061" y="22.770923"/>
     <use xlink:href="#mdb57bcd38b" x="437.287644" y="22.600687"/>
     <use xlink:href="#mdb57bcd38b" x="478.540295" y="22.384296"/>
     <use xlink:href="#mdb57bcd38b" x="519.702479" y="22.213542"/>
     <use xlink:href="#mdb57bcd38b" x="560.683731" y="21.992525"/>
     <use xlink:href="#mdb57bcd38b" x="601.664983" y="21.862753"/>
     <use xlink:href="#mdb57bcd38b" x="642.555768" y="21.709886"/>
     <use xlink:href="#mdb57bcd38b" x="683.53702" y="21.671341"/>
     <use xlink:href="#mdb57bcd38b" x="724.518272" y="21.638426"/>
     <use xlink:href="#mdb57bcd38b" x="765.58999" y="21.67767"/>
     <use xlink:href="#mdb57bcd38b" x="806.661708" y="21.69578"/>
    </g>
   </g>
   <g id="PathCollection_2">
    <defs>
     <path id="ma6e885eaa1" d="M -5 5 
L 5 5 
L 5 -5 
L -5 -5 
z
"/>
    </defs>
    <g clip-path="url(#p37002ed997)">
     <use xlink:href="#ma6e885eaa1" x="65.742388" y="13.045109" style="fill: #ff0000"/>
    </g>
   </g>
   <g id="PathCollection_3">
    <defs>
     <path id="m472282ff7a" d="M -5 5 
L 5 5 
L 5 -5 
L -5 -5 
z
"/>
    </defs>
    <g clip-path="url(#p37002ed997)">
     <use xlink:href="#m472282ff7a" x="847.823892" y="21.773947"/>
    </g>
   </g>
   <g id="PathCollection_4">
    <g clip-path="url(#p37002ed997)">
     <use xlink:href="#mdb57bcd38b" x="103.557318" y="78.298429"/>
     <use xlink:href="#mdb57bcd38b" x="143.54344" y="76.285798"/>
     <use xlink:href="#mdb57bcd38b" x="185.06749" y="76.902769"/>
     <use xlink:href="#mdb57bcd38b" x="227.405737" y="79.412037"/>
     <use xlink:href="#mdb57bcd38b" x="269.83445" y="83.106144"/>
     <use xlink:href="#mdb57bcd38b" x="312.08223" y="87.009202"/>
     <use xlink:href="#mdb57bcd38b" x="354.149078" y="90.712124"/>
     <use xlink:href="#mdb57bcd38b" x="395.854061" y="93.157088"/>
     <use xlink:href="#mdb57bcd38b" x="437.287644" y="94.507172"/>
     <use xlink:href="#mdb57bcd38b" x="478.540295" y="95.083285"/>
     <use xlink:href="#mdb57bcd38b" x="519.702479" y="95.264192"/>
     <use xlink:href="#mdb57bcd38b" x="560.683731" y="94.650794"/>
     <use xlink:href="#mdb57bcd38b" x="601.664983" y="94.042332"/>
     <use xlink:href="#mdb57bcd38b" x="642.555768" y="93.051658"/>
     <use xlink:href="#mdb57bcd38b" x="683.53702" y="92.4576"/>
     <use xlink:href="#mdb57bcd38b" x="724.518272" y="91.869479"/>
     <use xlink:href="#mdb57bcd38b" x="765.58999" y="91.663376"/>
     <use xlink:href="#mdb57bcd38b" x="806.661708" y="91.458057"/>
    </g>
   </g>
   <g id="PathCollection_5">
    <g clip-path="url(#p37002ed997)">
     <use xlink:href="#ma6e885eaa1" x="65.742388" y="88.480283" style="fill: #ff0000"/>
    </g>
   </g>
   <g id="PathCollection_6">
    <g clip-path="url(#p37002ed997)">
     <use xlink:href="#m472282ff7a" x="847.823892" y="91.629101"/>
    </g>
   </g>
  </g>
 </g>
 <defs>
  <clipPath id="p37002ed997">
   <rect x="41.316477" y="4.562646" width="863.048878" height="134.542709"/>
  </clipPath>
 </defs>
</svg>
