<?xml version="1.0" encoding="utf-8" standalone="no"?>
<!DOCTYPE svg PUBLIC "-//W3C//DTD SVG 1.1//EN"
  "http://www.w3.org/Graphics/SVG/1.1/DTD/svg11.dtd">
<svg xmlns:xlink="http://www.w3.org/1999/xlink" width="907.2pt" height="172.8pt" viewBox="0 0 907.2 172.8" xmlns="http://www.w3.org/2000/svg" version="1.1">
 <metadata>
  <rdf:RDF xmlns:dc="http://purl.org/dc/elements/1.1/" xmlns:cc="http://creativecommons.org/ns#" xmlns:rdf="http://www.w3.org/1999/02/22-rdf-syntax-ns#">
   <cc:Work>
    <dc:type rdf:resource="http://purl.org/dc/dcmitype/StillImage"/>
    <dc:date>2024-07-18T10:43:10.646253</dc:date>
    <dc:format>image/svg+xml</dc:format>
    <dc:creator>
     <cc:Agent>
      <dc:title>Matplotlib v3.8.4, https://matplotlib.org/</dc:title>
     </cc:Agent>
    </dc:creator>
   </cc:Work>
  </rdf:RDF>
 </metadata>
 <defs>
  <style type="text/css">*{stroke-linejoin: round; stroke-linecap: butt}</style>
 </defs>
 <g id="figure_1">
  <g id="patch_1">
   <path d="M 0 172.8 
L 907.2 172.8 
L 907.2 0 
L 0 0 
L 0 172.8 
z
" style="fill: none"/>
  </g>
  <g id="axes_1">
   <g id="patch_2">
    <path d="M 41.316477 139.105354 
L 904.365354 139.105354 
L 904.365354 9.476646 
L 41.316477 9.476646 
L 41.316477 139.105354 
z
" style="fill: none"/>
   </g>
   <g id="line2d_1">
    <path d="M 65.742388 54.036514 
L 66.466119 54.141531 
L 67.18985 54.45479 
L 68.004047 55.052067 
L 68.90871 56.012544 
L 69.90384 57.418011 
L 70.989436 59.349492 
L 72.255965 62.094958 
L 73.703426 65.82476 
L 75.33182 70.680476 
L 77.32208 77.384804 
L 79.945604 87.103783 
L 86.640113 112.311006 
L 88.720839 119.072461 
L 90.439699 123.929571 
L 91.88716 127.414668 
L 93.244156 130.125807 
L 94.420218 132.012108 
L 95.505814 133.357017 
L 96.500944 134.24858 
L 97.405607 134.773844 
L 98.219804 135.014678 
L 99.034001 135.037717 
L 99.848198 134.846272 
L 100.752862 134.38752 
L 101.657525 133.677535 
L 102.652655 132.617851 
L 103.828717 131.009528 
L 105.095246 128.876524 
L 106.542707 125.979869 
L 108.171102 122.211787 
L 110.161361 117.013842 
L 112.784885 109.463968 
L 121.379187 84.208548 
L 123.731312 78.298791 
L 125.812038 73.663093 
L 127.802297 69.778462 
L 129.70209 66.559996 
L 131.511417 63.916097 
L 133.320744 61.649861 
L 135.130071 59.725318 
L 136.939397 58.108489 
L 138.748724 56.771866 
L 140.558051 55.697827 
L 142.367378 54.880785 
L 144.086238 54.349042 
L 145.714632 54.079937 
L 147.071627 54.068944 
L 147.885825 54.321174 
L 148.700022 54.819648 
L 149.604685 55.655869 
L 150.599815 56.908634 
L 151.685411 58.656611 
L 152.861473 60.975063 
L 154.218468 64.15828 
L 155.756396 68.356575 
L 157.565723 73.979701 
L 159.827381 81.8059 
L 163.265102 94.636941 
L 167.336087 109.654932 
L 169.597746 117.162746 
L 171.407073 122.447658 
L 172.945001 126.317053 
L 174.301996 129.193565 
L 175.568524 131.386397 
L 176.744587 132.975198 
L 177.739716 133.97296 
L 178.64438 134.6 
L 179.549043 134.959151 
L 180.36324 135.054088 
L 181.177437 134.934914 
L 181.991634 134.605 
L 182.896298 133.996921 
L 183.891428 133.04375 
L 184.977024 131.678936 
L 186.153086 129.840515 
L 187.510081 127.290113 
L 189.048009 123.903155 
L 190.857336 119.346267 
L 193.028528 113.246559 
L 196.285316 103.333675 
L 201.441897 87.663297 
L 203.974955 80.727494 
L 206.146147 75.425251 
L 208.04594 71.329405 
L 209.945733 67.756072 
L 211.75506 64.826046 
L 213.564387 62.33037 
L 215.373714 60.232634 
L 217.18304 58.492933 
L 218.992367 57.073209 
L 220.801694 55.941765 
L 222.611021 55.076722 
L 224.329881 54.492552 
L 226.048742 54.142064 
L 227.677136 54.037446 
L 228.491333 54.177348 
L 229.30553 54.552043 
L 230.210193 55.23778 
L 231.205323 56.310342 
L 232.290919 57.84634 
L 233.466982 59.920121 
L 234.823977 62.807374 
L 236.271438 66.419619 
L 237.990299 71.335119 
L 239.980558 77.723141 
L 242.604082 86.94499 
L 250.112788 113.827876 
L 252.193514 120.189719 
L 253.912374 124.753992 
L 255.450302 128.210226 
L 256.807297 130.713438 
L 257.98336 132.440201 
L 259.068956 133.65416 
L 260.064085 134.438711 
L 260.968749 134.876323 
L 261.782946 135.045223 
L 262.597143 135.002024 
L 263.41134 134.748978 
L 264.316003 134.225962 
L 265.311133 133.364143 
L 266.396729 132.094155 
L 267.572791 130.349864 
L 268.929787 127.893617 
L 270.377248 124.798774 
L 272.096108 120.571348 
L 274.176834 114.807407 
L 276.890824 106.575835 
L 284.037665 84.621891 
L 286.38979 78.308728 
L 288.470516 73.356965 
L 290.370309 69.400398 
L 292.179636 66.140084 
L 293.898496 63.486876 
L 295.617357 61.239147 
L 297.245751 59.452194 
L 298.964611 57.893052 
L 300.683472 56.634436 
L 302.402332 55.6447 
L 304.121193 54.900022 
L 305.840053 54.386179 
L 307.558913 54.099282 
L 309.096841 54.051422 
L 309.911038 54.247248 
L 310.725235 54.666527 
L 311.629899 55.388078 
L 312.625028 56.483059 
L 313.710625 58.023269 
L 314.886687 60.07813 
L 316.243682 62.915608 
L 317.78161 66.681994 
L 319.50047 71.498735 
L 321.581196 78.033028 
L 324.295186 87.369786 
L 331.894359 113.992742 
L 333.975085 120.236336 
L 335.693945 124.731238 
L 337.231873 128.148875 
L 338.588868 130.636466 
L 339.76493 132.362975 
L 340.850526 133.586691 
L 341.845656 134.387704 
L 342.75032 134.845733 
L 343.654983 135.044995 
L 344.46918 135.003498 
L 345.283377 134.754526 
L 346.18804 134.238114 
L 347.18317 133.385129 
L 348.268766 132.125563 
L 349.444829 130.391216 
L 350.711357 128.120681 
L 352.158819 125.058049 
L 353.787213 121.087784 
L 355.777472 115.614903 
L 358.31053 107.954251 
L 366.271568 83.343975 
L 368.533226 77.311749 
L 370.523486 72.606905 
L 372.332812 68.858433 
L 374.051673 65.76861 
L 375.770533 63.122703 
L 377.489394 60.894171 
L 379.208254 59.048724 
L 380.836648 57.618249 
L 382.465042 56.462968 
L 384.183903 55.511175 
L 385.902763 54.807144 
L 387.621624 54.332779 
L 389.340484 54.080506 
L 390.787946 54.060935 
L 391.602143 54.275093 
L 392.506806 54.766901 
L 393.41147 55.518594 
L 394.406599 56.635504 
L 395.492195 58.18605 
L 396.758724 60.410035 
L 398.115719 63.254614 
L 399.653647 67.003477 
L 401.462974 72.03903 
L 403.5437 78.513602 
L 406.25769 87.728597 
L 413.856862 113.973698 
L 415.937588 120.152855 
L 417.656449 124.616164 
L 419.194376 128.023108 
L 420.551371 130.514921 
L 421.727434 132.254889 
L 422.81303 133.498431 
L 423.80816 134.323211 
L 424.712823 134.806828 
L 425.617486 135.034873 
L 426.431683 135.021484 
L 427.24588 134.802188 
L 428.150544 134.319932 
L 429.145674 133.50509 
L 430.23127 132.286681 
L 431.407332 130.595144 
L 432.673861 128.366882 
L 434.121322 125.345638 
L 435.749716 121.411316 
L 437.739976 115.965092 
L 440.273033 108.311789 
L 448.595937 82.569441 
L 450.767129 76.824157 
L 452.757388 72.158153 
L 454.657181 68.280358 
L 456.466508 65.110541 
L 458.185369 62.554583 
L 459.904229 60.413992 
L 461.532623 58.7355 
L 463.161017 57.361269 
L 464.879878 56.206017 
L 466.598738 55.319842 
L 468.317599 54.675803 
L 470.036459 54.256603 
L 471.755319 54.055447 
L 473.021848 54.088424 
L 473.836045 54.347143 
L 474.740709 54.883706 
L 475.735838 55.767806 
L 476.821434 57.070487 
L 477.997497 58.86105 
L 479.264026 61.205144 
L 480.711487 64.372269 
L 482.339881 68.495978 
L 484.239674 73.952448 
L 486.501333 81.165396 
L 489.667655 92.085906 
L 495.186101 111.162348 
L 497.44776 118.139836 
L 499.347553 123.29883 
L 500.975947 127.087497 
L 502.423409 129.894389 
L 503.689937 131.878681 
L 504.866 133.304224 
L 505.861129 134.185572 
L 506.765793 134.722972 
L 507.670456 135.006508 
L 508.484653 135.044069 
L 509.29885 134.876253 
L 510.203514 134.451318 
L 511.108177 133.779572 
L 512.103307 132.762734 
L 513.188903 131.333226 
L 514.455432 129.264217 
L 515.812427 126.601819 
L 517.350354 123.082789 
L 519.159681 118.35871 
L 521.42134 111.770712 
L 524.949527 100.663105 
L 529.291911 87.138533 
L 531.734502 80.246416 
L 533.905695 74.78214 
L 535.895954 70.398013 
L 537.705281 66.947339 
L 539.424141 64.133863 
L 541.143002 61.750133 
L 542.861862 59.764005 
L 544.490256 58.213853 
L 546.11865 56.950711 
L 547.837511 55.895378 
L 549.556371 55.094285 
L 551.365698 54.500563 
L 553.175025 54.148574 
L 554.893885 54.036519 
L 555.708082 54.143155 
L 556.522279 54.465839 
L 557.426943 55.071721 
L 558.422073 56.029965 
L 559.507669 57.410618 
L 560.683731 59.282837 
L 562.040726 61.899578 
L 563.488188 65.187451 
L 565.207048 69.686137 
L 567.197307 75.578263 
L 569.639899 83.571924 
L 573.529951 97.210995 
L 577.51047 110.901897 
L 579.772129 117.919167 
L 581.671922 123.114764 
L 583.300316 126.936225 
L 584.747777 129.772919 
L 586.014306 131.783566 
L 587.190368 133.233629 
L 588.185498 134.135763 
L 589.090162 134.692011 
L 589.994825 134.994331 
L 590.809022 135.048723 
L 591.623219 134.89765 
L 592.527883 134.491199 
L 593.432546 133.837789 
L 594.427676 132.840942 
L 595.513272 131.432837 
L 596.689334 129.548447 
L 598.046329 126.941505 
L 599.584257 123.48033 
L 601.393584 118.817543 
L 603.564776 112.566635 
L 606.821564 102.409551 
L 611.706746 87.234904 
L 614.149338 80.387964 
L 616.32053 74.960077 
L 618.310789 70.60198 
L 620.120116 67.167173 
L 621.838976 64.360621 
L 623.557837 61.976234 
L 625.276697 59.981194 
L 626.905091 58.41535 
L 628.623952 57.066853 
L 630.342812 55.996618 
L 632.152139 55.138092 
L 633.961466 54.530772 
L 635.770793 54.163065 
L 637.489653 54.036955 
L 638.394317 54.142809 
L 639.208514 54.467424 
L 640.113177 55.078453 
L 641.108307 56.046308 
L 642.193903 57.442426 
L 643.369965 59.337319 
L 644.72696 61.987706 
L 646.174422 65.319522 
L 647.802816 69.624335 
L 649.702609 75.280371 
L 652.054734 83.010618 
L 655.763854 96.094236 
L 659.925305 110.563823 
L 662.186964 117.658183 
L 664.086757 122.914563 
L 665.715151 126.783512 
L 667.162612 129.658228 
L 668.429141 131.698716 
L 669.605204 133.173782 
L 670.600333 134.095037 
L 671.504997 134.667275 
L 672.40966 134.984393 
L 673.223857 135.05123 
L 674.038054 134.911918 
L 674.942718 134.517921 
L 675.847381 133.876528 
L 676.842511 132.892639 
L 677.928107 131.498875 
L 679.104169 129.630048 
L 680.461164 127.042239 
L 681.999092 123.60493 
L 683.808419 118.97267 
L 685.979611 112.761796 
L 689.145933 102.956465 
L 694.212048 87.325391 
L 696.654639 80.538477 
L 698.735365 75.370499 
L 700.635158 71.203432 
L 702.444485 67.7409 
L 704.163345 64.900424 
L 705.882206 62.47369 
L 707.601066 60.429698 
L 709.319927 58.731346 
L 711.038787 57.340424 
L 712.757648 56.222322 
L 714.566974 55.309577 
L 716.376301 54.646183 
L 718.185628 54.22255 
L 719.904488 54.045251 
L 720.990084 54.10124 
L 721.804281 54.382472 
L 722.708945 54.9513 
L 723.613608 55.783117 
L 724.608738 56.992139 
L 725.7848 58.801665 
L 727.051329 61.186301 
L 728.498791 64.424225 
L 730.127185 68.654972 
L 732.026978 74.264739 
L 734.288636 81.682097 
L 737.635891 93.534579 
L 742.430607 110.442403 
L 744.692265 117.603203 
L 746.592058 122.901287 
L 748.220453 126.7944 
L 749.667914 129.681458 
L 750.934443 131.726003 
L 752.110505 133.199657 
L 753.105635 134.116413 
L 754.010298 134.682251 
L 754.914962 134.991181 
L 755.729159 135.049462 
L 756.543356 134.900783 
L 757.448019 134.495844 
L 758.352683 133.843381 
L 759.347812 132.847785 
L 760.433408 131.442126 
L 761.699937 129.403637 
L 763.056932 126.778179 
L 764.59486 123.3076 
L 766.404187 118.651827 
L 768.665845 112.165918 
L 772.103566 101.531174 
L 776.44595 88.224485 
L 779.069474 80.942238 
L 781.240666 75.578777 
L 783.14046 71.440587 
L 785.040253 67.83697 
L 786.849579 64.889347 
L 788.658906 62.386684 
L 790.468233 60.290877 
L 792.27756 58.559257 
L 794.086887 57.150009 
L 795.896213 56.026857 
L 797.70554 55.162755 
L 799.514867 54.542406 
L 801.233727 54.176605 
L 802.952588 54.037378 
L 803.857251 54.136442 
L 804.671448 54.462503 
L 805.576112 55.085292 
L 806.571241 56.078744 
L 807.656838 57.517958 
L 808.8329 59.476744 
L 810.099429 62.023185 
L 811.54689 65.444597 
L 813.175284 69.874787 
L 815.075077 75.699633 
L 817.517669 83.968847 
L 821.860053 99.670174 
L 825.207307 111.378472 
L 827.3785 118.219297 
L 829.187826 123.234597 
L 830.725754 126.899593 
L 832.082749 129.618183 
L 833.349278 131.684172 
L 834.52534 133.17345 
L 835.52047 134.100511 
L 836.425133 134.673625 
L 837.329797 134.988116 
L 838.143994 135.050175 
L 838.958191 134.904377 
L 839.862854 134.501845 
L 840.767518 133.851287 
L 841.762647 132.857517 
L 842.848244 131.454248 
L 844.114772 129.419545 
L 845.471767 126.800288 
L 847.009695 123.340564 
L 848.819022 118.702291 
L 851.08068 112.245541 
L 854.608868 101.381122 
L 859.041718 87.903771 
L 861.484309 81.180875 
L 863.655502 75.835984 
L 865.645761 71.525498 
L 867.455088 68.106424 
L 869.173948 65.289264 
L 870.983275 62.751629 
L 872.702136 60.713381 
L 874.511462 58.921103 
L 876.320789 57.450342 
L 878.130116 56.265604 
L 879.939443 55.340522 
L 879.939443 55.340522 
" clip-path="url(#p2a0737bf37)" style="fill: none; stroke: #009afa; stroke-opacity: 0.5; stroke-width: 4"/>
   </g>
   <g id="matplotlib.axis_1">
    <g id="xtick_1">
     <g id="line2d_2">
      <defs>
       <path id="m19a2ee58ab" d="M 0 0 
L 0 -5 
" style="stroke: #000000"/>
      </defs>
      <g>
       <use xlink:href="#m19a2ee58ab" x="65.742388" y="139.105354" style="stroke: #000000"/>
      </g>
     </g>
     <g id="text_1">
      <!-- $0$ -->
      <g transform="translate(58.742388 163.880979) scale(0.28 -0.28)">
       <defs>
        <path id="Cmr10-30" d="M 1600 -141 
Q 816 -141 533 504 
Q 250 1150 250 2041 
Q 250 2597 351 3087 
Q 453 3578 754 3920 
Q 1056 4263 1600 4263 
Q 2022 4263 2290 4056 
Q 2559 3850 2700 3523 
Q 2841 3197 2892 2823 
Q 2944 2450 2944 2041 
Q 2944 1491 2842 1011 
Q 2741 531 2444 195 
Q 2147 -141 1600 -141 
z
M 1600 25 
Q 1956 25 2131 390 
Q 2306 756 2347 1200 
Q 2388 1644 2388 2144 
Q 2388 2625 2347 3031 
Q 2306 3438 2132 3767 
Q 1959 4097 1600 4097 
Q 1238 4097 1063 3765 
Q 888 3434 847 3029 
Q 806 2625 806 2144 
Q 806 1788 823 1472 
Q 841 1156 916 820 
Q 991 484 1158 254 
Q 1325 25 1600 25 
z
" transform="scale(0.015625)"/>
       </defs>
       <use xlink:href="#Cmr10-30" transform="translate(0 0.390625)"/>
      </g>
     </g>
    </g>
    <g id="xtick_2">
     <g id="line2d_3">
      <g>
       <use xlink:href="#m19a2ee58ab" x="246.675067" y="139.105354" style="stroke: #000000"/>
      </g>
     </g>
     <g id="text_2">
      <!-- $2$ -->
      <g transform="translate(239.675067 163.880979) scale(0.28 -0.28)">
       <defs>
        <path id="Cmr10-32" d="M 319 0 
L 319 172 
Q 319 188 331 206 
L 1325 1306 
Q 1550 1550 1690 1715 
Q 1831 1881 1968 2097 
Q 2106 2313 2186 2536 
Q 2266 2759 2266 3009 
Q 2266 3272 2169 3511 
Q 2072 3750 1880 3894 
Q 1688 4038 1416 4038 
Q 1138 4038 916 3870 
Q 694 3703 603 3438 
Q 628 3444 672 3444 
Q 816 3444 917 3347 
Q 1019 3250 1019 3097 
Q 1019 2950 917 2848 
Q 816 2747 672 2747 
Q 522 2747 420 2851 
Q 319 2956 319 3097 
Q 319 3338 409 3548 
Q 500 3759 670 3923 
Q 841 4088 1055 4175 
Q 1269 4263 1509 4263 
Q 1875 4263 2190 4108 
Q 2506 3953 2690 3670 
Q 2875 3388 2875 3009 
Q 2875 2731 2753 2481 
Q 2631 2231 2440 2026 
Q 2250 1822 1953 1562 
Q 1656 1303 1563 1216 
L 838 519 
L 1453 519 
Q 1906 519 2211 526 
Q 2516 534 2534 550 
Q 2609 631 2688 1141 
L 2875 1141 
L 2694 0 
L 319 0 
z
" transform="scale(0.015625)"/>
       </defs>
       <use xlink:href="#Cmr10-32" transform="translate(0 0.390625)"/>
      </g>
     </g>
    </g>
    <g id="xtick_3">
     <g id="line2d_4">
      <g>
       <use xlink:href="#m19a2ee58ab" x="427.607746" y="139.105354" style="stroke: #000000"/>
      </g>
     </g>
     <g id="text_3">
      <!-- $4$ -->
      <g transform="translate(420.607746 163.880979) scale(0.28 -0.28)">
       <defs>
        <path id="Cmr10-34" d="M 178 1056 
L 178 1281 
L 2156 4231 
Q 2178 4263 2222 4263 
L 2316 4263 
Q 2388 4263 2388 4191 
L 2388 1281 
L 3016 1281 
L 3016 1056 
L 2388 1056 
L 2388 428 
Q 2388 297 2575 261 
Q 2763 225 3009 225 
L 3009 0 
L 1247 0 
L 1247 225 
Q 1494 225 1681 261 
Q 1869 297 1869 428 
L 1869 1056 
L 178 1056 
z
M 391 1281 
L 1906 1281 
L 1906 3547 
L 391 1281 
z
" transform="scale(0.015625)"/>
       </defs>
       <use xlink:href="#Cmr10-34" transform="translate(0 0.390625)"/>
      </g>
     </g>
    </g>
    <g id="xtick_4">
     <g id="line2d_5">
      <g>
       <use xlink:href="#m19a2ee58ab" x="608.540425" y="139.105354" style="stroke: #000000"/>
      </g>
     </g>
     <g id="text_4">
      <!-- $6$ -->
      <g transform="translate(601.540425 163.880979) scale(0.28 -0.28)">
       <defs>
        <path id="Cmr10-36" d="M 1600 -141 
Q 1203 -141 937 70 
Q 672 281 526 617 
Q 381 953 325 1322 
Q 269 1691 269 2069 
Q 269 2575 466 3084 
Q 663 3594 1045 3928 
Q 1428 4263 1953 4263 
Q 2172 4263 2361 4180 
Q 2550 4097 2658 3936 
Q 2766 3775 2766 3547 
Q 2766 3416 2677 3327 
Q 2588 3238 2456 3238 
Q 2331 3238 2240 3328 
Q 2150 3419 2150 3547 
Q 2150 3672 2240 3762 
Q 2331 3853 2456 3853 
L 2491 3853 
Q 2409 3969 2261 4023 
Q 2113 4078 1953 4078 
Q 1759 4078 1595 3993 
Q 1431 3909 1300 3765 
Q 1169 3622 1081 3448 
Q 994 3275 945 3053 
Q 897 2831 884 2637 
Q 872 2444 872 2150 
Q 984 2413 1190 2580 
Q 1397 2747 1656 2747 
Q 1941 2747 2175 2631 
Q 2409 2516 2578 2311 
Q 2747 2106 2836 1843 
Q 2925 1581 2925 1313 
Q 2925 938 2758 598 
Q 2591 259 2287 59 
Q 1984 -141 1600 -141 
z
M 1600 63 
Q 1847 63 1997 175 
Q 2147 288 2217 473 
Q 2288 659 2305 848 
Q 2322 1038 2322 1313 
Q 2322 1675 2287 1931 
Q 2253 2188 2100 2383 
Q 1947 2578 1631 2578 
Q 1372 2578 1205 2403 
Q 1038 2228 961 1961 
Q 884 1694 884 1447 
Q 884 1363 891 1319 
Q 891 1309 889 1303 
Q 888 1297 884 1288 
Q 884 1013 940 731 
Q 997 450 1156 256 
Q 1316 63 1600 63 
z
" transform="scale(0.015625)"/>
       </defs>
       <use xlink:href="#Cmr10-36" transform="translate(0 0.390625)"/>
      </g>
     </g>
    </g>
    <g id="xtick_5">
     <g id="line2d_6">
      <g>
       <use xlink:href="#m19a2ee58ab" x="789.473103" y="139.105354" style="stroke: #000000"/>
      </g>
     </g>
     <g id="text_5">
      <!-- $8$ -->
      <g transform="translate(782.473103 163.880979) scale(0.28 -0.28)">
       <defs>
        <path id="Cmr10-38" d="M 269 972 
Q 269 1356 522 1651 
Q 775 1947 1172 2144 
L 934 2297 
Q 716 2441 578 2680 
Q 441 2919 441 3181 
Q 441 3488 602 3734 
Q 763 3981 1030 4122 
Q 1297 4263 1600 4263 
Q 1884 4263 2148 4147 
Q 2413 4031 2583 3815 
Q 2753 3600 2753 3303 
Q 2753 3088 2651 2903 
Q 2550 2719 2373 2572 
Q 2197 2425 1997 2322 
L 2363 2088 
Q 2616 1922 2770 1653 
Q 2925 1384 2925 1088 
Q 2925 741 2739 456 
Q 2553 172 2247 15 
Q 1941 -141 1600 -141 
Q 1269 -141 961 -6 
Q 653 128 461 383 
Q 269 638 269 972 
z
M 616 972 
Q 616 719 755 509 
Q 894 300 1122 181 
Q 1350 63 1600 63 
Q 1972 63 2275 280 
Q 2578 497 2578 856 
Q 2578 978 2529 1098 
Q 2481 1219 2395 1317 
Q 2309 1416 2203 1478 
L 1344 2034 
Q 1144 1928 976 1765 
Q 809 1603 712 1400 
Q 616 1197 616 972 
z
M 1056 2925 
L 1831 2425 
Q 2100 2581 2272 2803 
Q 2444 3025 2444 3303 
Q 2444 3519 2323 3698 
Q 2203 3878 2009 3978 
Q 1816 4078 1594 4078 
Q 1400 4078 1203 4003 
Q 1006 3928 878 3779 
Q 750 3631 750 3431 
Q 750 3131 1056 2925 
z
" transform="scale(0.015625)"/>
       </defs>
       <use xlink:href="#Cmr10-38" transform="translate(0 0.390625)"/>
      </g>
     </g>
    </g>
   </g>
   <g id="matplotlib.axis_2">
    <g id="ytick_1">
     <g id="line2d_7">
      <defs>
       <path id="mc3b9ed7f41" d="M 0 0 
L 5 0 
" style="stroke: #000000"/>
      </defs>
      <g>
       <use xlink:href="#mc3b9ed7f41" x="41.316477" y="135.054457" style="stroke: #000000"/>
      </g>
     </g>
     <g id="text_6">
      <!-- $-1$ -->
      <g transform="translate(1.976477 145.69227) scale(0.28 -0.28)">
       <defs>
        <path id="Cmsy10-a1" d="M 653 1472 
Q 600 1472 565 1512 
Q 531 1553 531 1600 
Q 531 1647 565 1687 
Q 600 1728 653 1728 
L 4325 1728 
Q 4375 1728 4408 1687 
Q 4441 1647 4441 1600 
Q 4441 1553 4408 1512 
Q 4375 1472 4325 1472 
L 653 1472 
z
" transform="scale(0.015625)"/>
        <path id="Cmr10-31" d="M 594 0 
L 594 225 
Q 1394 225 1394 428 
L 1394 3788 
Q 1063 3628 556 3628 
L 556 3853 
Q 1341 3853 1741 4263 
L 1831 4263 
Q 1853 4263 1873 4245 
Q 1894 4228 1894 4206 
L 1894 428 
Q 1894 225 2694 225 
L 2694 0 
L 594 0 
z
" transform="scale(0.015625)"/>
       </defs>
       <use xlink:href="#Cmsy10-a1" transform="translate(0 0.390625)"/>
       <use xlink:href="#Cmr10-31" transform="translate(77.685547 0.390625)"/>
      </g>
     </g>
    </g>
    <g id="ytick_2">
     <g id="line2d_8">
      <g>
       <use xlink:href="#mc3b9ed7f41" x="41.316477" y="94.545486" style="stroke: #000000"/>
      </g>
     </g>
     <g id="text_7">
      <!-- $0$ -->
      <g transform="translate(23.816477 105.183298) scale(0.28 -0.28)">
       <use xlink:href="#Cmr10-30" transform="translate(0 0.390625)"/>
      </g>
     </g>
    </g>
    <g id="ytick_3">
     <g id="line2d_9">
      <g>
       <use xlink:href="#mc3b9ed7f41" x="41.316477" y="54.036514" style="stroke: #000000"/>
      </g>
     </g>
     <g id="text_8">
      <!-- $1$ -->
      <g transform="translate(23.816477 64.674327) scale(0.28 -0.28)">
       <use xlink:href="#Cmr10-31" transform="translate(0 0.390625)"/>
      </g>
     </g>
    </g>
    <g id="ytick_4">
     <g id="line2d_10">
      <g>
       <use xlink:href="#mc3b9ed7f41" x="41.316477" y="13.527543" style="stroke: #000000"/>
      </g>
     </g>
     <g id="text_9">
      <!-- $2$ -->
      <g transform="translate(23.816477 24.165355) scale(0.28 -0.28)">
       <use xlink:href="#Cmr10-32" transform="translate(0 0.390625)"/>
      </g>
     </g>
    </g>
   </g>
   <g id="line2d_11">
    <path d="M 65.742388 56.044273 
L 66.466119 54.889479 
L 67.099383 54.2761 
L 67.642181 54.050075 
L 68.094513 54.074377 
L 68.637311 54.358553 
L 69.180109 54.919005 
L 69.813374 55.916803 
L 70.537104 57.498959 
L 71.351301 59.818672 
L 72.346431 63.378547 
L 73.522494 68.505429 
L 74.969955 75.94686 
L 76.869748 87.025315 
L 81.664464 115.577034 
L 83.111926 122.659652 
L 84.287988 127.419625 
L 85.283118 130.62557 
L 86.187781 132.81917 
L 86.911512 134.049886 
L 87.544776 134.731249 
L 88.087574 135.016192 
L 88.539906 135.041136 
L 88.992238 134.872713 
L 89.535036 134.41656 
L 90.1683 133.538269 
L 90.892031 132.088459 
L 91.706228 129.910307 
L 92.610891 126.850768 
L 93.696487 122.371794 
L 95.053482 115.715326 
L 96.772343 106.022567 
L 103.01452 69.500271 
L 104.371515 63.482283 
L 105.457111 59.615454 
L 106.361775 57.121854 
L 107.175972 55.486952 
L 107.809236 54.631793 
L 108.352034 54.195793 
L 108.894832 54.037188 
L 109.347164 54.117761 
L 109.889962 54.469165 
L 110.43276 55.096085 
L 111.066024 56.169858 
L 111.789755 57.835903 
L 112.694418 60.546193 
L 113.689548 64.274289 
L 114.865611 69.573054 
L 116.313072 77.178342 
L 118.303332 88.933934 
L 122.555249 114.34608 
L 124.093177 122.030247 
L 125.359706 127.240225 
L 126.354836 130.485681 
L 127.259499 132.718027 
L 127.98323 133.981166 
L 128.616494 134.691601 
L 129.159292 135.001769 
L 129.611624 135.047817 
L 130.063956 134.900467 
L 130.606754 134.469416 
L 131.240018 133.61994 
L 131.963749 132.20211 
L 132.777946 130.058258 
L 133.682609 127.034126 
L 134.768205 122.592969 
L 136.034734 116.44825 
L 137.663128 107.38212 
L 140.558051 89.700324 
L 143.000642 75.369657 
L 144.53857 67.588489 
L 145.805099 62.276557 
L 146.890695 58.676002 
L 147.795358 56.42433 
L 148.519089 55.145007 
L 149.152353 54.42005 
L 149.695151 54.097276 
L 150.147483 54.040677 
L 150.599815 54.177488 
L 151.142613 54.595978 
L 151.775877 55.431029 
L 152.499608 56.832838 
L 153.313805 58.959494 
L 154.218468 61.965858 
L 155.304064 66.388013 
L 156.570593 72.51441 
L 158.198987 81.564099 
L 161.09391 99.238995 
L 163.536501 113.586658 
L 165.074429 121.388299 
L 166.340958 126.721865 
L 167.426554 130.343749 
L 168.331217 132.614714 
L 169.054948 133.910204 
L 169.688212 134.649671 
L 170.23101 134.985047 
L 170.773808 135.042409 
L 171.22614 134.877498 
L 171.768938 134.425527 
L 172.402202 133.552035 
L 173.125933 132.107549 
L 173.94013 129.935105 
L 174.844794 126.881456 
L 175.93039 122.408767 
L 177.287385 115.75871 
L 179.006245 106.071377 
L 185.248423 69.540301 
L 186.605418 63.514981 
L 187.691014 59.641262 
L 188.595677 57.141369 
L 189.409874 55.500482 
L 190.043139 54.640519 
L 190.585937 54.200335 
L 191.128735 54.037514 
L 191.581066 54.114571 
L 192.123864 54.461777 
L 192.666662 55.084549 
L 193.299927 56.153587 
L 194.023658 57.814408 
L 194.928321 60.518544 
L 195.923451 64.240485 
L 197.099513 69.532992 
L 198.546975 77.132367 
L 200.537234 88.883524 
L 204.789152 114.301655 
L 206.32708 121.99283 
L 207.593608 127.210144 
L 208.588738 130.462167 
L 209.493402 132.700958 
L 210.217132 133.969494 
L 210.850397 134.684771 
L 211.393195 134.999142 
L 211.845526 135.048707 
L 212.297858 134.904869 
L 212.840656 134.478005 
L 213.473921 133.633336 
L 214.197651 132.220844 
L 215.011848 130.08272 
L 215.916512 127.064507 
L 217.002108 122.629676 
L 218.268637 116.491056 
L 219.897031 107.430391 
L 222.791954 89.750867 
L 225.234545 75.414512 
L 226.772472 67.626507 
L 228.039001 62.307356 
L 229.124597 58.699686 
L 230.029261 56.441579 
L 230.752991 55.156865 
L 231.386256 54.42707 
L 231.929054 54.100095 
L 232.471852 54.051173 
L 232.924184 54.223106 
L 233.466982 54.683441 
L 234.100246 55.56653 
L 234.823977 57.021662 
L 235.638174 59.205519 
L 236.542837 62.270942 
L 237.628433 66.756194 
L 238.985428 73.419063 
L 240.704289 83.117233 
L 246.946466 119.630691 
L 248.303461 125.641338 
L 249.389057 129.50127 
L 250.293721 131.988574 
L 251.107918 133.617489 
L 251.741182 134.467842 
L 252.28398 134.899656 
L 252.826778 135.054045 
L 253.27911 134.969956 
L 253.821908 134.614355 
L 254.364706 133.983289 
L 254.99797 132.904781 
L 255.721701 131.233515 
L 256.626364 128.517077 
L 257.621494 124.782831 
L 258.797557 119.477816 
L 260.245018 111.866626 
L 262.235277 100.106619 
L 266.487195 74.700498 
L 268.025123 67.023351 
L 269.291652 61.820717 
L 270.286782 58.581834 
L 271.191445 56.355937 
L 271.915176 55.098197 
L 272.54844 54.392604 
L 273.091238 54.086639 
L 273.54357 54.044108 
L 273.995902 54.194971 
L 274.5387 54.630207 
L 275.171964 55.484489 
L 275.895695 56.907655 
L 276.709892 59.057232 
L 277.614555 62.087277 
L 278.700151 66.534755 
L 279.96668 72.685561 
L 281.595074 81.757144 
L 284.489997 99.441184 
L 286.932588 113.76614 
L 288.470516 121.540459 
L 289.737045 126.845162 
L 290.822641 130.438597 
L 291.727304 132.68383 
L 292.451035 133.95776 
L 293.084299 134.677878 
L 293.627097 134.99645 
L 294.079429 135.049532 
L 294.531761 134.909208 
L 295.074559 134.486531 
L 295.707823 133.64667 
L 296.431554 132.239519 
L 297.245751 130.107127 
L 298.150414 127.094836 
L 299.23601 122.66634 
L 300.502539 116.533826 
L 302.130933 107.478642 
L 305.025856 89.801418 
L 307.468447 75.459398 
L 309.006375 67.664568 
L 310.272904 62.338206 
L 311.3585 58.723426 
L 312.263163 56.458888 
L 312.986894 55.168785 
L 313.620158 54.434154 
L 314.162956 54.102978 
L 314.705754 54.049836 
L 315.158086 54.218258 
L 315.700884 54.674411 
L 316.334148 55.552702 
L 317.057879 57.002513 
L 317.872076 59.180665 
L 318.77674 62.240203 
L 319.862336 66.719177 
L 321.219331 73.375646 
L 322.938191 83.068405 
L 329.180369 119.5907 
L 330.537364 125.608689 
L 331.62296 129.475517 
L 332.527623 131.969117 
L 333.34182 133.60402 
L 333.975085 134.459179 
L 334.517883 134.895178 
L 335.060681 135.053783 
L 335.513012 134.97321 
L 336.05581 134.621806 
L 336.598608 133.994887 
L 337.231873 132.921113 
L 337.955604 131.255068 
L 338.860267 128.544779 
L 339.855397 124.816683 
L 341.031459 119.517917 
L 342.47892 111.912629 
L 344.46918 100.157038 
L 348.721098 74.744891 
L 350.259026 67.060724 
L 351.525554 61.850747 
L 352.520684 58.605291 
L 353.425348 56.372945 
L 354.149078 55.109806 
L 354.782343 54.399371 
L 355.325141 54.089202 
L 355.777472 54.043154 
L 356.229804 54.190505 
L 356.772602 54.621555 
L 357.405866 55.471031 
L 358.129597 56.888861 
L 358.943794 59.032714 
L 359.848458 62.056845 
L 360.934054 66.498003 
L 362.200582 72.642721 
L 363.828977 81.708852 
L 366.723899 99.390648 
L 369.166491 113.721315 
L 370.704418 121.502483 
L 371.970947 126.814414 
L 373.056543 130.414969 
L 373.961207 132.666641 
L 374.684937 133.945965 
L 375.318202 134.670921 
L 375.861 134.993695 
L 376.313331 135.050294 
L 376.765663 134.913483 
L 377.308461 134.494993 
L 377.941726 133.659943 
L 378.665456 132.258134 
L 379.479653 130.131477 
L 380.384317 127.125114 
L 381.469913 122.702959 
L 382.736442 116.576562 
L 384.364836 107.526873 
L 387.259758 89.851977 
L 389.70235 75.504314 
L 391.240277 67.702672 
L 392.506806 62.369106 
L 393.592402 58.747223 
L 394.497066 56.476258 
L 395.220796 55.180768 
L 395.854061 54.4413 
L 396.396859 54.105925 
L 396.939657 54.048562 
L 397.391988 54.213473 
L 397.934787 54.665444 
L 398.568051 55.538936 
L 399.291782 56.983423 
L 400.105979 59.155867 
L 401.010642 62.209516 
L 402.096238 66.682204 
L 403.453233 73.332262 
L 405.172094 83.019594 
L 411.414271 119.550671 
L 412.771266 125.57599 
L 413.856862 129.44971 
L 414.761526 131.949602 
L 415.575723 133.590489 
L 416.208987 134.450452 
L 416.751785 134.890637 
L 417.294583 135.053457 
L 417.746915 134.976401 
L 418.289713 134.629195 
L 418.832511 134.006422 
L 419.465775 132.937385 
L 420.189506 131.276563 
L 421.094169 128.572427 
L 422.089299 124.850486 
L 423.265362 119.557979 
L 424.712823 111.958605 
L 426.703082 100.207448 
L 430.955 74.789317 
L 432.492928 67.098142 
L 433.759457 61.880828 
L 434.754587 58.628805 
L 435.65925 56.390013 
L 436.382981 55.121477 
L 437.016245 54.4062 
L 437.559043 54.09183 
L 438.011375 54.042265 
L 438.463707 54.186102 
L 439.006505 54.612966 
L 439.639769 55.457635 
L 440.3635 56.870127 
L 441.177697 59.008251 
L 442.08236 62.026465 
L 443.167956 66.461295 
L 444.434485 72.599916 
L 446.062879 81.66058 
L 448.957802 99.340104 
L 451.400393 113.676459 
L 452.938321 121.464464 
L 454.20485 126.783616 
L 455.290446 130.391286 
L 456.195109 132.649392 
L 456.91884 133.934106 
L 457.552104 134.663901 
L 458.094902 134.990876 
L 458.6377 135.039798 
L 459.090032 134.867865 
L 459.63283 134.407531 
L 460.266094 133.524442 
L 460.989825 132.069309 
L 461.804022 129.885452 
L 462.708686 126.82003 
L 463.794282 122.334778 
L 465.151277 115.671908 
L 466.870137 105.973739 
L 473.112315 69.460281 
L 474.46931 63.449634 
L 475.554906 59.589702 
L 476.459569 57.102398 
L 477.273766 55.473483 
L 477.907031 54.623129 
L 478.449829 54.191315 
L 478.992627 54.036927 
L 479.444958 54.121016 
L 479.987756 54.476617 
L 480.530554 55.107683 
L 481.163819 56.186191 
L 481.887549 57.857456 
L 482.792213 60.573895 
L 483.787343 64.30814 
L 484.963405 69.613156 
L 486.410866 77.224346 
L 488.401126 88.984352 
L 492.653044 114.390474 
L 494.190972 122.067621 
L 495.4575 127.270254 
L 496.45263 130.509138 
L 497.357293 132.735035 
L 498.081024 133.992775 
L 498.714289 134.698367 
L 499.257087 135.004333 
L 499.709418 135.046863 
L 500.16175 134.896 
L 500.704548 134.460764 
L 501.337812 133.606482 
L 502.061543 132.183317 
L 502.87574 130.033739 
L 503.780404 127.003695 
L 504.866 122.556217 
L 506.132528 116.405411 
L 507.760923 107.333828 
L 510.655845 89.649788 
L 513.098437 75.324832 
L 514.636364 67.550513 
L 515.902893 62.245809 
L 516.988489 58.652375 
L 517.893153 56.407142 
L 518.616883 55.133211 
L 519.250148 54.413094 
L 519.792946 54.094521 
L 520.245277 54.041439 
L 520.697609 54.181763 
L 521.240407 54.604441 
L 521.873671 55.444301 
L 522.597402 56.851453 
L 523.411599 58.983845 
L 524.316263 61.996136 
L 525.401859 66.424632 
L 526.668387 72.557145 
L 528.296782 81.612329 
L 531.191704 99.289553 
L 533.634296 113.631574 
L 535.172223 121.426403 
L 536.438752 126.752766 
L 537.524348 130.367545 
L 538.429012 132.632083 
L 539.152742 133.922186 
L 539.786007 134.656818 
L 540.328805 134.987993 
L 540.871603 135.041136 
L 541.323934 134.872713 
L 541.866732 134.41656 
L 542.499997 133.538269 
L 543.223728 132.088459 
L 544.037925 129.910307 
L 544.942588 126.850768 
L 546.028184 122.371794 
L 547.385179 115.715326 
L 549.10404 106.022567 
L 555.346217 69.500271 
L 556.703212 63.482283 
L 557.788808 59.615454 
L 558.693472 57.121854 
L 559.507669 55.486952 
L 560.140933 54.631793 
L 560.683731 54.195793 
L 561.226529 54.037188 
L 561.678861 54.117761 
L 562.221659 54.469165 
L 562.764457 55.096085 
L 563.397721 56.169858 
L 564.121452 57.835903 
L 565.026115 60.546193 
L 566.021245 64.274289 
L 567.197307 69.573054 
L 568.644769 77.178342 
L 570.635028 88.933934 
L 574.886946 114.34608 
L 576.424874 122.030247 
L 577.691403 127.240225 
L 578.686533 130.485681 
L 579.591196 132.718027 
L 580.314927 133.981166 
L 580.948191 134.691601 
L 581.490989 135.001769 
L 581.943321 135.047817 
L 582.395653 134.900467 
L 582.938451 134.469416 
L 583.571715 133.61994 
L 584.295446 132.20211 
L 585.109643 130.058258 
L 586.014306 127.034126 
L 587.099902 122.592969 
L 588.366431 116.44825 
L 589.994825 107.38212 
L 592.889748 89.700324 
L 595.332339 75.369657 
L 596.870267 67.588489 
L 598.136796 62.276557 
L 599.222392 58.676002 
L 600.127055 56.42433 
L 600.850786 55.145007 
L 601.48405 54.42005 
L 602.026848 54.097276 
L 602.47918 54.040677 
L 602.931512 54.177488 
L 603.47431 54.595978 
L 604.107574 55.431029 
L 604.831305 56.832838 
L 605.645502 58.959494 
L 606.550165 61.965858 
L 607.635761 66.388013 
L 608.90229 72.51441 
L 610.530684 81.564099 
L 613.425607 99.238995 
L 615.868198 113.586658 
L 617.406126 121.388299 
L 618.672655 126.721865 
L 619.758251 130.343749 
L 620.662914 132.614714 
L 621.386645 133.910204 
L 622.019909 134.649671 
L 622.562707 134.985047 
L 623.105505 135.042409 
L 623.557837 134.877498 
L 624.100635 134.425527 
L 624.733899 133.552035 
L 625.45763 132.107549 
L 626.271827 129.935105 
L 627.17649 126.881456 
L 628.262087 122.408767 
L 629.619082 115.75871 
L 631.337942 106.071377 
L 637.58012 69.540301 
L 638.937115 63.514981 
L 640.022711 59.641262 
L 640.927374 57.141369 
L 641.741571 55.500482 
L 642.374836 54.640519 
L 642.917634 54.200335 
L 643.460432 54.037514 
L 643.912763 54.114571 
L 644.455561 54.461777 
L 644.998359 55.084549 
L 645.631624 56.153587 
L 646.355354 57.814408 
L 647.260018 60.518544 
L 648.255148 64.240485 
L 649.43121 69.532992 
L 650.878671 77.132367 
L 652.868931 88.883524 
L 657.120849 114.301655 
L 658.658777 121.99283 
L 659.925305 127.210144 
L 660.920435 130.462167 
L 661.825098 132.700958 
L 662.548829 133.969494 
L 663.182094 134.684771 
L 663.724892 134.999142 
L 664.177223 135.048707 
L 664.629555 134.904869 
L 665.172353 134.478005 
L 665.805617 133.633336 
L 666.529348 132.220844 
L 667.343545 130.08272 
L 668.248209 127.064507 
L 669.333805 122.629676 
L 670.600333 116.491056 
L 672.228728 107.430391 
L 675.12365 89.750867 
L 677.566242 75.414512 
L 679.104169 67.626507 
L 680.370698 62.307356 
L 681.456294 58.699686 
L 682.360958 56.441579 
L 683.084688 55.156865 
L 683.717953 54.42707 
L 684.260751 54.100095 
L 684.803549 54.051173 
L 685.25588 54.223106 
L 685.798678 54.683441 
L 686.431943 55.56653 
L 687.155673 57.021662 
L 687.969871 59.205519 
L 688.874534 62.270942 
L 689.96013 66.756194 
L 691.317125 73.419063 
L 693.035986 83.117233 
L 699.278163 119.630691 
L 700.635158 125.641338 
L 701.720754 129.50127 
L 702.625418 131.988574 
L 703.439615 133.617489 
L 704.072879 134.467842 
L 704.615677 134.899656 
L 705.158475 135.054045 
L 705.610807 134.969956 
L 706.153605 134.614355 
L 706.696403 133.983289 
L 707.329667 132.904781 
L 708.053398 131.233515 
L 708.958061 128.517077 
L 709.953191 124.782831 
L 711.129253 119.477816 
L 712.576715 111.866626 
L 714.566974 100.106619 
L 718.818892 74.700498 
L 720.35682 67.023351 
L 721.623349 61.820717 
L 722.618479 58.581834 
L 723.523142 56.355937 
L 724.246873 55.098197 
L 724.880137 54.392604 
L 725.422935 54.086639 
L 725.875267 54.044108 
L 726.327598 54.194971 
L 726.870396 54.630207 
L 727.503661 55.484489 
L 728.227392 56.907655 
L 729.041589 59.057232 
L 729.946252 62.087277 
L 731.031848 66.534755 
L 732.298377 72.685561 
L 733.926771 81.757144 
L 736.821694 99.441184 
L 739.264285 113.76614 
L 740.802213 121.540459 
L 742.068741 126.845162 
L 743.154338 130.438597 
L 744.059001 132.68383 
L 744.782732 133.95776 
L 745.415996 134.677878 
L 745.958794 134.99645 
L 746.411126 135.049532 
L 746.863457 134.909208 
L 747.406256 134.486531 
L 748.03952 133.64667 
L 748.763251 132.239519 
L 749.577448 130.107127 
L 750.482111 127.094836 
L 751.567707 122.66634 
L 752.834236 116.533826 
L 754.46263 107.478642 
L 757.357553 89.801418 
L 759.800144 75.459398 
L 761.338072 67.664568 
L 762.604601 62.338206 
L 763.690197 58.723426 
L 764.59486 56.458888 
L 765.318591 55.168785 
L 765.951855 54.434154 
L 766.494653 54.102978 
L 767.037451 54.049836 
L 767.489783 54.218258 
L 768.032581 54.674411 
L 768.665845 55.552702 
L 769.389576 57.002513 
L 770.203773 59.180665 
L 771.108436 62.240203 
L 772.194033 66.719177 
L 773.551028 73.375646 
L 775.269888 83.068405 
L 781.512065 119.5907 
L 782.869061 125.608689 
L 783.954657 129.475517 
L 784.85932 131.969117 
L 785.673517 133.60402 
L 786.306781 134.459179 
L 786.849579 134.895178 
L 787.392378 135.053783 
L 787.844709 134.97321 
L 788.387507 134.621806 
L 788.930305 133.994887 
L 789.56357 132.921113 
L 790.2873 131.255068 
L 791.191964 128.544779 
L 792.187094 124.816683 
L 793.363156 119.517917 
L 794.810617 111.912629 
L 796.800877 100.157038 
L 801.052795 74.744891 
L 802.590723 67.060724 
L 803.857251 61.850747 
L 804.852381 58.605291 
L 805.757044 56.372945 
L 806.480775 55.109806 
L 807.11404 54.399371 
L 807.656838 54.089202 
L 808.109169 54.043154 
L 808.561501 54.190505 
L 809.104299 54.621555 
L 809.737563 55.471031 
L 810.461294 56.888861 
L 811.275491 59.032714 
L 812.180155 62.056845 
L 813.265751 66.498003 
L 814.532279 72.642721 
L 816.160673 81.708852 
L 819.055596 99.390648 
L 821.498187 113.721315 
L 823.036115 121.502483 
L 824.302644 126.814414 
L 825.38824 130.414969 
L 826.292903 132.666641 
L 827.016634 133.945965 
L 827.649899 134.670921 
L 828.192697 134.993695 
L 828.645028 135.050294 
L 829.09736 134.913483 
L 829.640158 134.494993 
L 830.273422 133.659943 
L 830.997153 132.258134 
L 831.81135 130.131477 
L 832.716014 127.125114 
L 833.80161 122.702959 
L 835.068138 116.576562 
L 836.696532 107.526873 
L 839.591455 89.851977 
L 842.034047 75.504314 
L 843.571974 67.702672 
L 844.838503 62.369106 
L 845.924099 58.747223 
L 846.828762 56.476258 
L 847.552493 55.180768 
L 848.185758 54.4413 
L 848.728556 54.105925 
L 849.271354 54.048562 
L 849.723685 54.213473 
L 850.266483 54.665444 
L 850.899748 55.538936 
L 851.623478 56.983423 
L 852.437676 59.155867 
L 853.342339 62.209516 
L 854.427935 66.682204 
L 855.78493 73.332262 
L 857.503791 83.019594 
L 863.745968 119.550671 
L 865.102963 125.57599 
L 866.188559 129.44971 
L 867.093223 131.949602 
L 867.90742 133.590489 
L 868.540684 134.450452 
L 869.083482 134.890637 
L 869.62628 135.053457 
L 870.078612 134.976401 
L 870.62141 134.629195 
L 871.164208 134.006422 
L 871.797472 132.937385 
L 872.521203 131.276563 
L 873.425866 128.572427 
L 874.420996 124.850486 
L 875.597058 119.557979 
L 877.04452 111.958605 
L 879.034779 100.207448 
L 879.939443 94.626488 
L 879.939443 94.626488 
" clip-path="url(#p2a0737bf37)" style="fill: none; stroke: #e36f47; stroke-opacity: 0.5; stroke-width: 4"/>
   </g>
   <g id="patch_3">
    <path d="M 41.316477 139.105354 
L 41.316477 9.476646 
" style="fill: none; stroke: #000000; stroke-width: 2; stroke-linejoin: miter; stroke-linecap: square"/>
   </g>
   <g id="patch_4">
    <path d="M 41.316477 139.105354 
L 904.365354 139.105354 
" style="fill: none; stroke: #000000; stroke-width: 2; stroke-linejoin: miter; stroke-linecap: square"/>
   </g>
   <g id="line2d_12">
    <path d="M 65.742388 26.430037 
L 71.713167 30.79099 
L 77.593479 34.812962 
L 83.654724 38.693405 
L 89.806435 42.373899 
L 96.139078 45.909562 
L 102.652655 49.29651 
L 109.347164 52.531792 
L 116.222606 55.613982 
L 123.369447 58.578307 
L 130.69722 61.383559 
L 138.386859 64.092342 
L 146.347897 66.663801 
L 146.619296 66.747604 
L 146.709762 26.289494 
L 146.800228 26.357885 
L 152.499608 30.531416 
L 158.651319 34.749827 
L 164.622097 38.578247 
L 170.864275 42.318756 
L 177.196918 45.858155 
L 183.710495 49.248635 
L 190.676403 52.613614 
L 197.551845 55.689798 
L 204.698686 58.648354 
L 212.026459 61.448139 
L 219.716098 64.151647 
L 227.586669 66.690253 
L 227.677136 26.241396 
L 227.767602 26.30986 
L 233.466982 30.486295 
L 239.528226 34.647629 
L 245.499005 38.482602 
L 251.650716 42.177004 
L 257.98336 45.72601 
L 264.496936 49.125727 
L 271.191445 52.37322 
L 278.066887 55.467043 
L 285.213728 58.442557 
L 292.541501 61.258396 
L 300.23114 63.977403 
L 308.192178 66.558568 
L 308.734976 66.726453 
L 308.825442 26.255335 
L 308.915909 26.323718 
L 314.705754 30.56344 
L 320.676533 34.659794 
L 326.647311 38.49397 
L 332.799022 42.18769 
L 339.222132 45.784848 
L 345.735709 49.180491 
L 352.520684 52.466325 
L 359.486592 55.592288 
L 366.723899 58.594367 
L 374.232606 61.464766 
L 381.922244 64.166916 
L 389.973749 66.759957 
L 390.335614 66.871161 
L 390.42608 26.398491 
L 390.516547 26.466725 
L 396.306392 30.697565 
L 402.367637 34.845257 
L 408.338416 38.667576 
L 414.580593 42.402106 
L 420.913237 45.935857 
L 427.426813 49.320961 
L 434.392721 52.680546 
L 441.268163 55.751809 
L 448.415004 58.705653 
L 455.833244 61.53411 
L 463.522883 64.230595 
L 471.574387 66.818201 
L 472.388584 67.067253 
L 472.47905 26.593385 
L 472.569517 26.66142 
L 478.359362 30.880164 
L 484.420607 35.015989 
L 490.391385 38.827378 
L 496.633563 42.551227 
L 502.966207 46.074872 
L 509.479783 49.450297 
L 516.445691 52.800273 
L 523.411599 55.901558 
L 530.648906 58.879803 
L 538.067146 61.69441 
L 545.937718 64.438229 
L 553.898756 66.980522 
L 554.893885 67.282814 
L 554.984352 26.836778 
L 555.074818 26.904653 
L 560.774197 31.044668 
L 566.925908 35.22931 
L 572.987153 39.082595 
L 579.410263 42.893041 
L 585.833373 46.441791 
L 592.34695 49.791681 
L 599.222392 53.074803 
L 606.369232 56.232547 
L 613.697006 59.220681 
L 621.386645 62.106136 
L 629.347683 64.84536 
L 637.399187 67.380519 
L 637.58012 67.434964 
L 637.670586 26.986488 
L 637.761052 27.054208 
L 643.460432 31.18508 
L 649.612143 35.360458 
L 655.673387 39.205234 
L 662.096497 43.007249 
L 668.519608 46.548149 
L 675.033184 49.890635 
L 681.908626 53.166502 
L 689.055467 56.31726 
L 696.38324 59.298791 
L 704.072879 62.177865 
L 712.033917 64.911027 
L 720.085421 67.440552 
L 720.35682 67.521981 
L 720.447286 27.073516 
L 720.537753 27.141148 
L 726.237132 31.266699 
L 732.388843 35.436699 
L 738.450088 39.276521 
L 744.873198 43.073639 
L 751.296308 46.609978 
L 757.809885 49.948158 
L 764.685326 53.219806 
L 771.832167 56.366504 
L 779.159941 59.344194 
L 786.849579 62.21956 
L 794.810617 64.949202 
L 802.862122 67.475487 
L 803.043054 67.529762 
L 803.133521 27.064318 
L 803.223987 27.131912 
L 809.013833 31.321388 
L 814.984611 35.369235 
L 821.045856 39.213556 
L 827.288033 42.9116 
L 833.620677 46.410822 
L 840.134253 49.762833 
L 847.100162 53.089602 
L 854.06607 56.169397 
L 861.303377 59.126999 
L 868.812083 61.954758 
L 876.501722 64.616884 
L 879.939443 65.735574 
L 879.939443 65.735574 
" clip-path="url(#p2a0737bf37)" style="fill: none; stroke: #3ea44d; stroke-opacity: 0.5; stroke-width: 4"/>
   </g>
   <g id="line2d_13">
    <path d="M 65.742388 173.8 
L 65.742388 -1 
" clip-path="url(#p2a0737bf37)" style="fill: none; stroke-dasharray: 7.4,3.2; stroke-dashoffset: 0; stroke: #000000; stroke-width: 2"/>
   </g>
   <g id="line2d_14">
    <path d="M 146.709762 173.8 
L 146.709762 -1 
" clip-path="url(#p2a0737bf37)" style="fill: none; stroke-dasharray: 7.4,3.2; stroke-dashoffset: 0; stroke: #000000; stroke-width: 2"/>
   </g>
   <g id="line2d_15">
    <path d="M 227.677136 173.8 
L 227.677136 -1 
" clip-path="url(#p2a0737bf37)" style="fill: none; stroke-dasharray: 7.4,3.2; stroke-dashoffset: 0; stroke: #000000; stroke-width: 2"/>
   </g>
   <g id="line2d_16">
    <path d="M 308.825442 173.8 
L 308.825442 -1 
" clip-path="url(#p2a0737bf37)" style="fill: none; stroke-dasharray: 7.4,3.2; stroke-dashoffset: 0; stroke: #000000; stroke-width: 2"/>
   </g>
   <g id="line2d_17">
    <path d="M 390.42608 173.8 
L 390.42608 -1 
" clip-path="url(#p2a0737bf37)" style="fill: none; stroke-dasharray: 7.4,3.2; stroke-dashoffset: 0; stroke: #000000; stroke-width: 2"/>
   </g>
   <g id="line2d_18">
    <path d="M 472.47905 173.8 
L 472.47905 -1 
" clip-path="url(#p2a0737bf37)" style="fill: none; stroke-dasharray: 7.4,3.2; stroke-dashoffset: 0; stroke: #000000; stroke-width: 2"/>
   </g>
   <g id="line2d_19">
    <path d="M 554.984352 173.8 
L 554.984352 -1 
" clip-path="url(#p2a0737bf37)" style="fill: none; stroke-dasharray: 7.4,3.2; stroke-dashoffset: 0; stroke: #000000; stroke-width: 2"/>
   </g>
   <g id="line2d_20">
    <path d="M 637.670586 173.8 
L 637.670586 -1 
" clip-path="url(#p2a0737bf37)" style="fill: none; stroke-dasharray: 7.4,3.2; stroke-dashoffset: 0; stroke: #000000; stroke-width: 2"/>
   </g>
   <g id="line2d_21">
    <path d="M 720.447286 173.8 
L 720.447286 -1 
" clip-path="url(#p2a0737bf37)" style="fill: none; stroke-dasharray: 7.4,3.2; stroke-dashoffset: 0; stroke: #000000; stroke-width: 2"/>
   </g>
   <g id="line2d_22">
    <path d="M 803.133521 173.8 
L 803.133521 -1 
" clip-path="url(#p2a0737bf37)" style="fill: none; stroke-dasharray: 7.4,3.2; stroke-dashoffset: 0; stroke: #000000; stroke-width: 2"/>
   </g>
   <g id="PathCollection_1">
    <defs>
     <path id="m4c8aaa6765" d="M 0 5 
C 1.326016 5 2.597899 4.473168 3.535534 3.535534 
C 4.473168 2.597899 5 1.326016 5 0 
C 5 -1.326016 4.473168 -2.597899 3.535534 -3.535534 
C 2.597899 -4.473168 1.326016 -5 0 -5 
C -1.326016 -5 -2.597899 -4.473168 -3.535534 -3.535534 
C -4.473168 -2.597899 -5 -1.326016 -5 0 
C -5 1.326016 -4.473168 2.597899 -3.535534 3.535534 
C -2.597899 4.473168 -1.326016 5 0 5 
z
"/>
    </defs>
    <g clip-path="url(#p2a0737bf37)">
     <use xlink:href="#m4c8aaa6765" x="146.709762" y="26.289494"/>
     <use xlink:href="#m4c8aaa6765" x="227.677136" y="26.241396"/>
     <use xlink:href="#m4c8aaa6765" x="308.825442" y="26.255335"/>
     <use xlink:href="#m4c8aaa6765" x="390.42608" y="26.398491"/>
     <use xlink:href="#m4c8aaa6765" x="472.47905" y="26.593385"/>
     <use xlink:href="#m4c8aaa6765" x="554.984352" y="26.836778"/>
     <use xlink:href="#m4c8aaa6765" x="637.670586" y="26.986488"/>
     <use xlink:href="#m4c8aaa6765" x="720.447286" y="27.073516"/>
    </g>
   </g>
   <g id="PathCollection_2">
    <defs>
     <path id="m934840afea" d="M -5 5 
L 5 5 
L 5 -5 
L -5 -5 
z
"/>
    </defs>
    <g clip-path="url(#p2a0737bf37)">
     <use xlink:href="#m934840afea" x="65.742388" y="26.430037" style="fill: #ff0000"/>
    </g>
   </g>
   <g id="PathCollection_3">
    <defs>
     <path id="ma534f150de" d="M -5 5 
L 5 5 
L 5 -5 
L -5 -5 
z
"/>
    </defs>
    <g clip-path="url(#p2a0737bf37)">
     <use xlink:href="#ma534f150de" x="803.133521" y="27.064318"/>
    </g>
   </g>
   <g id="PathCollection_4">
    <g clip-path="url(#p2a0737bf37)">
     <use xlink:href="#m4c8aaa6765" x="146.709762" y="59.210061"/>
     <use xlink:href="#m4c8aaa6765" x="227.677136" y="63.712199"/>
     <use xlink:href="#m4c8aaa6765" x="308.825442" y="68.512546"/>
     <use xlink:href="#m4c8aaa6765" x="390.42608" y="71.674756"/>
     <use xlink:href="#m4c8aaa6765" x="472.47905" y="72.650537"/>
     <use xlink:href="#m4c8aaa6765" x="554.984352" y="71.298085"/>
     <use xlink:href="#m4c8aaa6765" x="637.670586" y="69.10216"/>
     <use xlink:href="#m4c8aaa6765" x="720.447286" y="66.61512"/>
    </g>
   </g>
   <g id="PathCollection_5">
    <g clip-path="url(#p2a0737bf37)">
     <use xlink:href="#m934840afea" x="65.742388" y="56.044273" style="fill: #ff0000"/>
    </g>
   </g>
   <g id="PathCollection_6">
    <g clip-path="url(#p2a0737bf37)">
     <use xlink:href="#ma534f150de" x="803.133521" y="64.689922"/>
    </g>
   </g>
  </g>
 </g>
 <defs>
  <clipPath id="p2a0737bf37">
   <rect x="41.316477" y="9.476646" width="863.048878" height="129.628709"/>
  </clipPath>
 </defs>
</svg>
