<?xml version="1.0" encoding="utf-8" standalone="no"?>
<!DOCTYPE svg PUBLIC "-//W3C//DTD SVG 1.1//EN"
  "http://www.w3.org/Graphics/SVG/1.1/DTD/svg11.dtd">
<svg xmlns:xlink="http://www.w3.org/1999/xlink" width="907.2pt" height="172.8pt" viewBox="0 0 907.2 172.8" xmlns="http://www.w3.org/2000/svg" version="1.1">
 <metadata>
  <rdf:RDF xmlns:dc="http://purl.org/dc/elements/1.1/" xmlns:cc="http://creativecommons.org/ns#" xmlns:rdf="http://www.w3.org/1999/02/22-rdf-syntax-ns#">
   <cc:Work>
    <dc:type rdf:resource="http://purl.org/dc/dcmitype/StillImage"/>
    <dc:date>2024-08-13T15:41:01.427915</dc:date>
    <dc:format>image/svg+xml</dc:format>
    <dc:creator>
     <cc:Agent>
      <dc:title>Matplotlib v3.8.4, https://matplotlib.org/</dc:title>
     </cc:Agent>
    </dc:creator>
   </cc:Work>
  </rdf:RDF>
 </metadata>
 <defs>
  <style type="text/css">*{stroke-linejoin: round; stroke-linecap: butt}</style>
 </defs>
 <g id="figure_1">
  <g id="patch_1">
   <path d="M 0 172.8 
L 907.2 172.8 
L 907.2 0 
L 0 0 
L 0 172.8 
z
" style="fill: none"/>
  </g>
  <g id="axes_1">
   <g id="patch_2">
    <path d="M 41.316477 139.105354 
L 904.365354 139.105354 
L 904.365354 9.602646 
L 41.316477 9.602646 
L 41.316477 139.105354 
z
" style="fill: none"/>
   </g>
   <g id="line2d_1">
    <path d="M 65.742388 52.770215 
L 66.647052 52.888416 
L 67.551715 53.234888 
L 68.546845 53.864734 
L 69.632441 54.830518 
L 70.808503 56.180017 
L 72.165498 58.096304 
L 73.703426 60.686779 
L 75.422287 64.045887 
L 77.412546 68.462955 
L 79.674205 74.052476 
L 82.388195 81.379644 
L 86.187781 92.343534 
L 92.068093 109.307781 
L 94.601151 115.905439 
L 96.59141 120.509346 
L 98.310271 123.954633 
L 99.848198 126.546515 
L 101.205193 128.401765 
L 102.381256 129.654643 
L 103.466852 130.501162 
L 104.461982 131.004535 
L 105.366645 131.229132 
L 106.271308 131.227191 
L 107.175972 130.995772 
L 108.080635 130.533527 
L 109.075765 129.758973 
L 110.161361 128.599678 
L 111.337423 126.983059 
L 112.603952 124.840387 
L 114.051414 121.916908 
L 115.679808 118.088072 
L 117.579601 113.02062 
L 120.022192 105.824647 
L 128.797427 79.361301 
L 130.878153 74.05611 
L 132.868412 69.573529 
L 134.677739 66.032381 
L 136.396599 63.141967 
L 138.024994 60.81338 
L 139.653388 58.861153 
L 141.281782 57.25071 
L 142.910176 55.946941 
L 144.53857 54.913308 
L 146.25743 54.076122 
L 148.066757 53.439405 
L 149.96655 53.007209 
L 151.866343 52.795723 
L 153.404271 52.824268 
L 154.308935 53.099265 
L 155.213598 53.601275 
L 156.208728 54.407549 
L 157.294324 55.579493 
L 158.470386 57.178256 
L 159.827381 59.425269 
L 161.274843 62.264938 
L 162.903237 65.95797 
L 164.80303 70.854369 
L 166.974222 77.092083 
L 169.778679 85.874129 
L 177.920649 111.843284 
L 180.001375 117.52319 
L 181.810702 121.828258 
L 183.34863 124.934154 
L 184.705625 127.201534 
L 185.972153 128.886132 
L 187.057749 129.981249 
L 188.052879 130.692795 
L 188.957543 131.092131 
L 189.862206 131.253125 
L 190.766869 131.174904 
L 191.671533 130.858216 
L 192.576196 130.305445 
L 193.571326 129.429611 
L 194.656922 128.163095 
L 195.832984 126.440237 
L 197.189979 124.027162 
L 198.727907 120.792882 
L 200.446768 116.638773 
L 202.61796 110.759346 
L 205.784282 101.441721 
L 210.850397 86.548304 
L 213.292988 80.058062 
L 215.46418 74.892198 
L 217.454439 70.714211 
L 219.444699 67.084441 
L 221.254026 64.245355 
L 222.972886 61.928865 
L 224.782213 59.854611 
L 226.59154 58.112611 
L 228.491333 56.595981 
L 230.391126 55.358716 
L 232.381385 54.329081 
L 234.371645 53.553915 
L 236.271438 53.051396 
L 238.080765 52.802782 
L 239.43776 52.804223 
L 240.251957 53.036997 
L 241.15662 53.550989 
L 242.061284 54.328439 
L 243.056414 55.479703 
L 244.14201 57.076798 
L 245.408538 59.367904 
L 246.765533 62.299625 
L 248.303461 66.16293 
L 250.112788 71.344909 
L 252.28398 78.284756 
L 255.359836 88.960169 
L 260.69735 107.537662 
L 262.959008 114.540236 
L 264.768335 119.463365 
L 266.396729 123.261004 
L 267.753724 125.90883 
L 269.020253 127.922582 
L 270.196315 129.377788 
L 271.191445 130.288143 
L 272.186575 130.900072 
L 273.091238 131.196281 
L 273.995902 131.245781 
L 274.900565 131.051314 
L 275.805228 130.617297 
L 276.800358 129.870369 
L 277.885954 128.745277 
L 279.062017 127.179053 
L 280.328545 125.115486 
L 281.776007 122.321797 
L 283.494867 118.480809 
L 285.575593 113.22308 
L 288.289583 105.708229 
L 295.345958 85.939588 
L 297.788549 79.915367 
L 300.050207 74.94455 
L 302.130933 70.919593 
L 304.121193 67.553778 
L 306.111452 64.630414 
L 308.011245 62.212853 
L 310.001505 60.026601 
L 312.08223 58.073365 
L 314.162956 56.4235 
L 316.243682 55.058688 
L 318.143475 54.063867 
L 319.952802 53.357197 
L 321.581196 52.9454 
L 323.119124 52.776224 
L 324.114254 52.851175 
L 324.928451 53.177249 
L 325.742648 53.749495 
L 326.647311 54.66756 
L 327.642441 56.009897 
L 328.728037 57.854497 
L 329.994566 60.477555 
L 331.442027 64.043675 
L 333.070421 68.69087 
L 334.970214 74.808348 
L 337.503272 83.778923 
L 344.740579 109.921239 
L 346.730838 116.067516 
L 348.449699 120.684808 
L 349.89716 123.992349 
L 351.254155 126.562734 
L 352.430218 128.350758 
L 353.515814 129.626525 
L 354.510944 130.474681 
L 355.415607 130.9777 
L 356.32027 131.226628 
L 357.134467 131.235923 
L 358.039131 131.012075 
L 358.943794 130.547983 
L 359.938924 129.769548 
L 361.02452 128.615041 
L 362.200582 127.025949 
L 363.557578 124.790413 
L 365.095505 121.792503 
L 366.814366 117.944758 
L 368.895092 112.740479 
L 371.970947 104.370029 
L 377.760793 88.51085 
L 380.384317 82.033331 
L 382.736442 76.827789 
L 384.907634 72.566272 
L 387.078826 68.821926 
L 389.159552 65.685683 
L 391.240277 62.946007 
L 393.41147 60.462434 
L 395.582662 58.319718 
L 397.753854 56.494364 
L 399.744113 55.100853 
L 401.643906 54.038837 
L 403.362767 53.330986 
L 404.900695 52.928438 
L 406.348156 52.773322 
L 407.252819 52.86177 
L 407.97655 53.163081 
L 408.790747 53.749443 
L 409.695411 54.700881 
L 410.69054 56.099814 
L 411.776136 58.027426 
L 413.042665 60.771004 
L 414.490127 64.49866 
L 416.118521 69.346232 
L 418.10878 76.021717 
L 420.82277 85.992362 
L 426.612616 107.489225 
L 428.693342 114.284634 
L 430.502669 119.451636 
L 432.040596 123.191949 
L 433.397592 125.939094 
L 434.66412 128.004218 
L 435.749716 129.376782 
L 436.744846 130.306769 
L 437.64951 130.878457 
L 438.554173 131.190726 
L 439.36837 131.252659 
L 440.182567 131.110905 
L 441.08723 130.72051 
L 442.08236 130.017625 
L 443.167956 128.939356 
L 444.344019 127.427162 
L 445.610547 125.429975 
L 447.058009 122.727475 
L 448.776869 119.01949 
L 450.857595 113.954363 
L 453.571585 106.717616 
L 461.35169 85.69472 
L 463.794282 79.918926 
L 465.965474 75.312496 
L 468.0462 71.380738 
L 470.217392 67.768108 
L 472.298117 64.739409 
L 474.378843 62.090204 
L 476.550035 59.687897 
L 478.721228 57.622509 
L 480.801953 55.948342 
L 482.701747 54.69029 
L 484.511073 53.755211 
L 486.139467 53.16027 
L 487.586929 52.851752 
L 488.943924 52.776332 
L 489.667655 52.934739 
L 490.481852 53.3665 
L 491.296049 54.061511 
L 492.200712 55.134089 
L 493.195842 56.665435 
L 494.371904 58.924681 
L 495.638433 61.862508 
L 497.085894 65.794746 
L 498.804755 71.141737 
L 500.975947 78.700726 
L 504.232735 90.970609 
L 508.303721 106.137774 
L 510.474913 113.396983 
L 512.284239 118.710319 
L 513.822167 122.584004 
L 515.179162 125.451735 
L 516.445691 127.62914 
L 517.531287 129.0961 
L 518.526417 130.109699 
L 519.521547 130.804141 
L 520.42621 131.159347 
L 521.240407 131.256586 
L 522.054604 131.146712 
L 522.959268 130.787571 
L 523.863931 130.186875 
L 524.859061 129.258802 
L 525.944657 127.944586 
L 527.211185 126.041149 
L 528.658647 123.425802 
L 530.287041 119.99541 
L 532.186834 115.461889 
L 534.629425 109.02757 
L 544.490256 82.317276 
L 546.751915 77.150009 
L 548.923107 72.729345 
L 551.003833 68.995918 
L 552.994092 65.864111 
L 555.074818 63.011462 
L 557.065077 60.645873 
L 559.145803 58.513589 
L 561.226529 56.702476 
L 563.216789 55.2622 
L 565.116582 54.162962 
L 566.835442 53.420419 
L 568.463836 52.962938 
L 569.911298 52.78045 
L 570.906427 52.835621 
L 571.630158 53.105536 
L 572.444355 53.655306 
L 573.349019 54.564826 
L 574.344148 55.916509 
L 575.429744 57.791518 
L 576.696273 60.473892 
L 578.053268 63.88739 
L 579.681662 68.627909 
L 581.581455 74.881856 
L 584.114513 84.05443 
L 590.989955 109.411317 
L 592.980214 115.721262 
L 594.699075 120.46391 
L 596.237002 124.052277 
L 597.593998 126.651828 
L 598.77006 128.448864 
L 599.855656 129.718739 
L 600.850786 130.54987 
L 601.755449 131.027836 
L 602.660113 131.24289 
L 603.47431 131.214526 
L 604.288507 130.979957 
L 605.19317 130.483792 
L 606.1883 129.661809 
L 607.273896 128.450605 
L 608.449958 126.792075 
L 609.806953 124.467491 
L 611.344881 121.360513 
L 613.154208 117.16438 
L 615.3254 111.534757 
L 618.582188 102.364953 
L 624.010169 87.049288 
L 626.543226 80.588463 
L 628.714418 75.605242 
L 630.795144 71.362682 
L 632.785404 67.800946 
L 634.775663 64.703034 
L 636.675456 62.147096 
L 638.575249 59.946429 
L 640.565509 57.98332 
L 642.555768 56.338053 
L 644.455561 55.046853 
L 646.264888 54.068555 
L 647.983749 53.376326 
L 649.612143 52.951167 
L 651.15007 52.776738 
L 652.1452 52.849574 
L 652.959397 53.176429 
L 653.773594 53.752111 
L 654.678258 54.676503 
L 655.673387 56.02816 
L 656.758983 57.884991 
L 658.025512 60.524019 
L 659.472974 64.109574 
L 661.101368 68.779047 
L 663.001161 74.922253 
L 665.534218 83.926345 
L 672.771526 110.153974 
L 674.761785 116.312681 
L 676.480645 120.930934 
L 677.928107 124.229197 
L 679.285102 126.78022 
L 680.461164 128.541506 
L 681.54676 129.78319 
L 682.54189 130.591459 
L 683.446554 131.050561 
L 684.351217 131.247946 
L 685.165414 131.204168 
L 685.979611 130.954177 
L 686.884274 130.440236 
L 687.879404 129.597121 
L 688.965 128.360265 
L 690.141063 126.669573 
L 691.498058 124.301163 
L 693.035986 121.134474 
L 694.754846 117.079691 
L 696.926038 111.350996 
L 700.001894 102.515691 
L 705.791739 85.786176 
L 708.324797 79.215269 
L 710.495989 74.180408 
L 712.486249 70.100393 
L 714.476508 66.544269 
L 716.285835 63.748145 
L 718.095162 61.341056 
L 719.904488 59.289078 
L 721.713815 57.557018 
L 723.613608 56.048171 
L 725.513401 54.829857 
L 727.322728 53.926089 
L 729.132055 53.272203 
L 730.850915 52.893337 
L 732.47931 52.770218 
L 733.293507 52.888978 
L 734.107704 53.246919 
L 735.012367 53.919633 
L 735.91703 54.874237 
L 736.91216 56.238656 
L 738.088223 58.255923 
L 739.354751 60.888054 
L 740.802213 64.428996 
L 742.430607 69.009597 
L 744.420866 75.311627 
L 747.04439 84.44506 
L 754.281697 110.136898 
L 756.362423 116.46436 
L 758.081284 121.002376 
L 759.528745 124.252802 
L 760.88574 126.77508 
L 762.061802 128.523034 
L 763.147399 129.761096 
L 764.142528 130.572026 
L 765.047192 131.037765 
L 765.951855 131.244802 
L 766.766052 131.211485 
L 767.580249 130.972892 
L 768.484913 130.47185 
L 769.480042 129.642071 
L 770.565638 128.417559 
L 771.741701 126.734938 
L 773.098696 124.367871 
L 774.636624 121.189863 
L 776.355484 117.102128 
L 778.43621 111.554132 
L 781.331133 103.125277 
L 787.844709 83.966747 
L 790.196834 77.827147 
L 792.27756 72.974464 
L 794.177353 69.063587 
L 795.98668 65.810375 
L 797.70554 63.134297 
L 799.424401 60.837912 
L 801.233727 58.798544 
L 803.043054 57.107964 
L 804.852381 55.728892 
L 806.661708 54.630049 
L 808.471035 53.789551 
L 810.280361 53.197086 
L 811.999222 52.865819 
L 813.627616 52.772716 
L 814.441813 52.921271 
L 815.25601 53.29633 
L 816.160673 53.972836 
L 817.155803 55.023756 
L 818.241399 56.522984 
L 819.417462 58.54184 
L 820.774457 61.347617 
L 822.312385 65.088618 
L 824.031245 69.885642 
L 826.111971 76.398573 
L 828.825961 85.689625 
L 835.701403 109.592302 
L 837.782129 115.878571 
L 839.500989 120.430226 
L 841.038917 123.913346 
L 842.395912 126.469361 
L 843.662441 128.384096 
L 844.748037 129.646257 
L 845.743166 130.487285 
L 846.64783 130.985825 
L 847.552493 131.229803 
L 848.36669 131.232368 
L 849.180887 131.031253 
L 850.085551 130.572738 
L 851.08068 129.789542 
L 852.166277 128.6135 
L 853.342339 126.979155 
L 854.608868 124.827047 
L 856.056329 121.914029 
L 857.684723 118.128161 
L 859.674983 112.901393 
L 862.20804 105.571373 
L 870.62141 80.687656 
L 872.792602 75.191688 
L 874.782861 70.720103 
L 876.592188 67.156084 
L 878.311049 64.213657 
L 879.939443 61.809942 
L 879.939443 61.809942 
" clip-path="url(#p3caabe3b7b)" style="fill: none; stroke: #009afa; stroke-opacity: 0.5; stroke-width: 4"/>
   </g>
   <g id="matplotlib.axis_1">
    <g id="xtick_1">
     <g id="line2d_2">
      <defs>
       <path id="m0cfaf7f0d8" d="M 0 0 
L 0 -5 
" style="stroke: #000000"/>
      </defs>
      <g>
       <use xlink:href="#m0cfaf7f0d8" x="65.742388" y="139.105354" style="stroke: #000000"/>
      </g>
     </g>
     <g id="text_1">
      <!-- $0$ -->
      <g transform="translate(58.742388 163.880979) scale(0.28 -0.28)">
       <defs>
        <path id="Cmr10-30" d="M 1600 -141 
Q 816 -141 533 504 
Q 250 1150 250 2041 
Q 250 2597 351 3087 
Q 453 3578 754 3920 
Q 1056 4263 1600 4263 
Q 2022 4263 2290 4056 
Q 2559 3850 2700 3523 
Q 2841 3197 2892 2823 
Q 2944 2450 2944 2041 
Q 2944 1491 2842 1011 
Q 2741 531 2444 195 
Q 2147 -141 1600 -141 
z
M 1600 25 
Q 1956 25 2131 390 
Q 2306 756 2347 1200 
Q 2388 1644 2388 2144 
Q 2388 2625 2347 3031 
Q 2306 3438 2132 3767 
Q 1959 4097 1600 4097 
Q 1238 4097 1063 3765 
Q 888 3434 847 3029 
Q 806 2625 806 2144 
Q 806 1788 823 1472 
Q 841 1156 916 820 
Q 991 484 1158 254 
Q 1325 25 1600 25 
z
" transform="scale(0.015625)"/>
       </defs>
       <use xlink:href="#Cmr10-30" transform="translate(0 0.390625)"/>
      </g>
     </g>
    </g>
    <g id="xtick_2">
     <g id="line2d_3">
      <g>
       <use xlink:href="#m0cfaf7f0d8" x="246.675067" y="139.105354" style="stroke: #000000"/>
      </g>
     </g>
     <g id="text_2">
      <!-- $2$ -->
      <g transform="translate(239.675067 163.880979) scale(0.28 -0.28)">
       <defs>
        <path id="Cmr10-32" d="M 319 0 
L 319 172 
Q 319 188 331 206 
L 1325 1306 
Q 1550 1550 1690 1715 
Q 1831 1881 1968 2097 
Q 2106 2313 2186 2536 
Q 2266 2759 2266 3009 
Q 2266 3272 2169 3511 
Q 2072 3750 1880 3894 
Q 1688 4038 1416 4038 
Q 1138 4038 916 3870 
Q 694 3703 603 3438 
Q 628 3444 672 3444 
Q 816 3444 917 3347 
Q 1019 3250 1019 3097 
Q 1019 2950 917 2848 
Q 816 2747 672 2747 
Q 522 2747 420 2851 
Q 319 2956 319 3097 
Q 319 3338 409 3548 
Q 500 3759 670 3923 
Q 841 4088 1055 4175 
Q 1269 4263 1509 4263 
Q 1875 4263 2190 4108 
Q 2506 3953 2690 3670 
Q 2875 3388 2875 3009 
Q 2875 2731 2753 2481 
Q 2631 2231 2440 2026 
Q 2250 1822 1953 1562 
Q 1656 1303 1563 1216 
L 838 519 
L 1453 519 
Q 1906 519 2211 526 
Q 2516 534 2534 550 
Q 2609 631 2688 1141 
L 2875 1141 
L 2694 0 
L 319 0 
z
" transform="scale(0.015625)"/>
       </defs>
       <use xlink:href="#Cmr10-32" transform="translate(0 0.390625)"/>
      </g>
     </g>
    </g>
    <g id="xtick_3">
     <g id="line2d_4">
      <g>
       <use xlink:href="#m0cfaf7f0d8" x="427.607746" y="139.105354" style="stroke: #000000"/>
      </g>
     </g>
     <g id="text_3">
      <!-- $4$ -->
      <g transform="translate(420.607746 163.880979) scale(0.28 -0.28)">
       <defs>
        <path id="Cmr10-34" d="M 178 1056 
L 178 1281 
L 2156 4231 
Q 2178 4263 2222 4263 
L 2316 4263 
Q 2388 4263 2388 4191 
L 2388 1281 
L 3016 1281 
L 3016 1056 
L 2388 1056 
L 2388 428 
Q 2388 297 2575 261 
Q 2763 225 3009 225 
L 3009 0 
L 1247 0 
L 1247 225 
Q 1494 225 1681 261 
Q 1869 297 1869 428 
L 1869 1056 
L 178 1056 
z
M 391 1281 
L 1906 1281 
L 1906 3547 
L 391 1281 
z
" transform="scale(0.015625)"/>
       </defs>
       <use xlink:href="#Cmr10-34" transform="translate(0 0.390625)"/>
      </g>
     </g>
    </g>
    <g id="xtick_4">
     <g id="line2d_5">
      <g>
       <use xlink:href="#m0cfaf7f0d8" x="608.540425" y="139.105354" style="stroke: #000000"/>
      </g>
     </g>
     <g id="text_4">
      <!-- $6$ -->
      <g transform="translate(601.540425 163.880979) scale(0.28 -0.28)">
       <defs>
        <path id="Cmr10-36" d="M 1600 -141 
Q 1203 -141 937 70 
Q 672 281 526 617 
Q 381 953 325 1322 
Q 269 1691 269 2069 
Q 269 2575 466 3084 
Q 663 3594 1045 3928 
Q 1428 4263 1953 4263 
Q 2172 4263 2361 4180 
Q 2550 4097 2658 3936 
Q 2766 3775 2766 3547 
Q 2766 3416 2677 3327 
Q 2588 3238 2456 3238 
Q 2331 3238 2240 3328 
Q 2150 3419 2150 3547 
Q 2150 3672 2240 3762 
Q 2331 3853 2456 3853 
L 2491 3853 
Q 2409 3969 2261 4023 
Q 2113 4078 1953 4078 
Q 1759 4078 1595 3993 
Q 1431 3909 1300 3765 
Q 1169 3622 1081 3448 
Q 994 3275 945 3053 
Q 897 2831 884 2637 
Q 872 2444 872 2150 
Q 984 2413 1190 2580 
Q 1397 2747 1656 2747 
Q 1941 2747 2175 2631 
Q 2409 2516 2578 2311 
Q 2747 2106 2836 1843 
Q 2925 1581 2925 1313 
Q 2925 938 2758 598 
Q 2591 259 2287 59 
Q 1984 -141 1600 -141 
z
M 1600 63 
Q 1847 63 1997 175 
Q 2147 288 2217 473 
Q 2288 659 2305 848 
Q 2322 1038 2322 1313 
Q 2322 1675 2287 1931 
Q 2253 2188 2100 2383 
Q 1947 2578 1631 2578 
Q 1372 2578 1205 2403 
Q 1038 2228 961 1961 
Q 884 1694 884 1447 
Q 884 1363 891 1319 
Q 891 1309 889 1303 
Q 888 1297 884 1288 
Q 884 1013 940 731 
Q 997 450 1156 256 
Q 1316 63 1600 63 
z
" transform="scale(0.015625)"/>
       </defs>
       <use xlink:href="#Cmr10-36" transform="translate(0 0.390625)"/>
      </g>
     </g>
    </g>
    <g id="xtick_5">
     <g id="line2d_6">
      <g>
       <use xlink:href="#m0cfaf7f0d8" x="789.473103" y="139.105354" style="stroke: #000000"/>
      </g>
     </g>
     <g id="text_5">
      <!-- $8$ -->
      <g transform="translate(782.473103 163.880979) scale(0.28 -0.28)">
       <defs>
        <path id="Cmr10-38" d="M 269 972 
Q 269 1356 522 1651 
Q 775 1947 1172 2144 
L 934 2297 
Q 716 2441 578 2680 
Q 441 2919 441 3181 
Q 441 3488 602 3734 
Q 763 3981 1030 4122 
Q 1297 4263 1600 4263 
Q 1884 4263 2148 4147 
Q 2413 4031 2583 3815 
Q 2753 3600 2753 3303 
Q 2753 3088 2651 2903 
Q 2550 2719 2373 2572 
Q 2197 2425 1997 2322 
L 2363 2088 
Q 2616 1922 2770 1653 
Q 2925 1384 2925 1088 
Q 2925 741 2739 456 
Q 2553 172 2247 15 
Q 1941 -141 1600 -141 
Q 1269 -141 961 -6 
Q 653 128 461 383 
Q 269 638 269 972 
z
M 616 972 
Q 616 719 755 509 
Q 894 300 1122 181 
Q 1350 63 1600 63 
Q 1972 63 2275 280 
Q 2578 497 2578 856 
Q 2578 978 2529 1098 
Q 2481 1219 2395 1317 
Q 2309 1416 2203 1478 
L 1344 2034 
Q 1144 1928 976 1765 
Q 809 1603 712 1400 
Q 616 1197 616 972 
z
M 1056 2925 
L 1831 2425 
Q 2100 2581 2272 2803 
Q 2444 3025 2444 3303 
Q 2444 3519 2323 3698 
Q 2203 3878 2009 3978 
Q 1816 4078 1594 4078 
Q 1400 4078 1203 4003 
Q 1006 3928 878 3779 
Q 750 3631 750 3431 
Q 750 3131 1056 2925 
z
" transform="scale(0.015625)"/>
       </defs>
       <use xlink:href="#Cmr10-38" transform="translate(0 0.390625)"/>
      </g>
     </g>
    </g>
   </g>
   <g id="matplotlib.axis_2">
    <g id="ytick_1">
     <g id="line2d_7">
      <defs>
       <path id="me208d88654" d="M 0 0 
L 5 0 
" style="stroke: #000000"/>
      </defs>
      <g>
       <use xlink:href="#me208d88654" x="41.316477" y="131.256705" style="stroke: #000000"/>
      </g>
     </g>
     <g id="text_6">
      <!-- $-1$ -->
      <g transform="translate(1.976477 141.894518) scale(0.28 -0.28)">
       <defs>
        <path id="Cmsy10-a1" d="M 653 1472 
Q 600 1472 565 1512 
Q 531 1553 531 1600 
Q 531 1647 565 1687 
Q 600 1728 653 1728 
L 4325 1728 
Q 4375 1728 4408 1687 
Q 4441 1647 4441 1600 
Q 4441 1553 4408 1512 
Q 4375 1472 4325 1472 
L 653 1472 
z
" transform="scale(0.015625)"/>
        <path id="Cmr10-31" d="M 594 0 
L 594 225 
Q 1394 225 1394 428 
L 1394 3788 
Q 1063 3628 556 3628 
L 556 3853 
Q 1341 3853 1741 4263 
L 1831 4263 
Q 1853 4263 1873 4245 
Q 1894 4228 1894 4206 
L 1894 428 
Q 1894 225 2694 225 
L 2694 0 
L 594 0 
z
" transform="scale(0.015625)"/>
       </defs>
       <use xlink:href="#Cmsy10-a1" transform="translate(0 0.390625)"/>
       <use xlink:href="#Cmr10-31" transform="translate(77.685547 0.390625)"/>
      </g>
     </g>
    </g>
    <g id="ytick_2">
     <g id="line2d_8">
      <g>
       <use xlink:href="#me208d88654" x="41.316477" y="92.01346" style="stroke: #000000"/>
      </g>
     </g>
     <g id="text_7">
      <!-- $0$ -->
      <g transform="translate(23.816477 102.651273) scale(0.28 -0.28)">
       <use xlink:href="#Cmr10-30" transform="translate(0 0.390625)"/>
      </g>
     </g>
    </g>
    <g id="ytick_3">
     <g id="line2d_9">
      <g>
       <use xlink:href="#me208d88654" x="41.316477" y="52.770215" style="stroke: #000000"/>
      </g>
     </g>
     <g id="text_8">
      <!-- $1$ -->
      <g transform="translate(23.816477 63.408028) scale(0.28 -0.28)">
       <use xlink:href="#Cmr10-31" transform="translate(0 0.390625)"/>
      </g>
     </g>
    </g>
    <g id="ytick_4">
     <g id="line2d_10">
      <g>
       <use xlink:href="#me208d88654" x="41.316477" y="13.52697" style="stroke: #000000"/>
      </g>
     </g>
     <g id="text_9">
      <!-- $2$ -->
      <g transform="translate(23.816477 24.164783) scale(0.28 -0.28)">
       <use xlink:href="#Cmr10-32" transform="translate(0 0.390625)"/>
      </g>
     </g>
    </g>
   </g>
   <g id="line2d_11">
    <path d="M 65.742388 104.074199 
L 68.818244 85.854556 
L 71.079902 73.090221 
L 72.61783 65.605594 
L 73.884359 60.515882 
L 74.879489 57.333735 
L 75.784152 55.133727 
L 76.507883 53.878716 
L 77.141147 53.162354 
L 77.683945 52.837457 
L 78.226743 52.781887 
L 78.769541 52.996025 
L 79.312339 53.478399 
L 79.945604 54.375664 
L 80.669334 55.831632 
L 81.483531 57.996839 
L 82.478661 61.35322 
L 83.654724 66.22492 
L 85.011719 72.866727 
L 86.821045 82.943861 
L 92.249026 114.047314 
L 93.606021 120.260491 
L 94.782083 124.674738 
L 95.777213 127.593058 
L 96.59141 129.37254 
L 97.315141 130.470173 
L 97.948405 131.045535 
L 98.491203 131.248176 
L 98.943535 131.211004 
L 99.486333 130.919414 
L 100.029131 130.360354 
L 100.662395 129.375294 
L 101.386126 127.822198 
L 102.200323 125.553226 
L 103.195453 122.080183 
L 104.371515 117.08846 
L 105.818977 109.855495 
L 107.71877 99.104738 
L 112.423019 71.934871 
L 113.870481 65.027317 
L 115.046543 60.369428 
L 116.041673 57.219017 
L 116.946336 55.050178 
L 117.670067 53.821278 
L 118.303332 53.12835 
L 118.84613 52.823802 
L 119.388928 52.788674 
L 119.931726 53.023208 
L 120.474524 53.525791 
L 121.107788 54.446212 
L 121.831519 55.927822 
L 122.645716 58.120458 
L 123.640846 61.507728 
L 124.816908 66.411285 
L 126.173903 73.082337 
L 127.98323 83.183936 
L 133.320744 113.801845 
L 134.768205 120.4311 
L 135.944268 124.810783 
L 136.939397 127.696384 
L 137.753594 129.447287 
L 138.477325 130.518532 
L 139.11059 131.07031 
L 139.653388 131.252542 
L 140.105719 131.198334 
L 140.648517 130.886388 
L 141.191315 130.307199 
L 141.82458 129.299126 
L 142.54831 127.720615 
L 143.452974 125.136823 
L 144.448104 121.567072 
L 145.624166 116.476479 
L 147.071627 109.14917 
L 149.061887 97.791335 
L 153.404271 72.659703 
L 154.942199 65.242905 
L 156.118261 60.545323 
L 157.113391 57.356843 
L 158.018055 55.150612 
L 158.741785 53.890384 
L 159.37505 53.169338 
L 159.917848 52.840374 
L 160.460646 52.780715 
L 161.003444 52.990773 
L 161.546242 53.469103 
L 162.179506 54.361733 
L 162.903237 55.812565 
L 163.717434 57.972276 
L 164.712564 61.322464 
L 165.888626 66.187769 
L 167.245621 72.823696 
L 169.054948 82.895889 
L 174.482928 114.006489 
L 175.839923 120.226235 
L 177.015986 124.647375 
L 178.011116 127.572224 
L 178.825313 129.357414 
L 179.549043 130.460319 
L 180.182308 131.040395 
L 180.725106 131.247117 
L 181.177437 131.213352 
L 181.720235 130.925835 
L 182.263033 130.370804 
L 182.896298 129.390351 
L 183.620029 127.842345 
L 184.434226 125.578803 
L 185.429355 122.111851 
L 186.605418 117.126374 
L 188.052879 109.899404 
L 189.952672 99.153235 
L 194.656922 71.977257 
L 196.104383 65.063142 
L 197.280446 60.398619 
L 198.275576 57.241851 
L 199.180239 55.066771 
L 199.90397 53.832645 
L 200.537234 53.135028 
L 201.080032 52.826409 
L 201.62283 52.787193 
L 202.165628 53.017648 
L 202.708426 53.516191 
L 203.341691 54.431983 
L 204.065421 55.90847 
L 204.879618 58.095627 
L 205.874748 61.47673 
L 207.05081 66.373931 
L 208.407806 73.039155 
L 210.217132 83.135893 
L 215.554646 113.760812 
L 217.002108 120.397068 
L 218.17817 124.783677 
L 219.1733 127.675831 
L 219.987497 129.432456 
L 220.711228 130.508982 
L 221.344492 131.065478 
L 221.88729 131.251793 
L 222.339622 131.200992 
L 222.88242 130.893116 
L 223.425218 130.317951 
L 224.058482 129.314478 
L 224.782213 127.741044 
L 225.686876 125.163242 
L 226.682006 121.599493 
L 227.858069 116.51502 
L 229.30553 109.193521 
L 231.295789 97.840107 
L 235.638174 72.702618 
L 237.176101 65.278985 
L 238.352164 60.574813 
L 239.347294 57.380006 
L 240.251957 55.167555 
L 240.975688 53.902113 
L 241.608952 53.176384 
L 242.15175 52.843352 
L 242.694548 52.779605 
L 243.237346 52.985583 
L 243.780144 53.459868 
L 244.413409 54.347861 
L 245.137139 55.793555 
L 245.951336 57.947767 
L 246.946466 61.291756 
L 248.032062 65.745153 
L 249.389057 72.309701 
L 251.107918 81.796654 
L 256.98823 115.295315 
L 258.345225 121.300033 
L 259.430821 125.211125 
L 260.425951 127.997893 
L 261.240148 129.66265 
L 261.963878 130.654483 
L 262.597143 131.135378 
L 263.139941 131.256345 
L 263.592273 131.151044 
L 264.135071 130.778106 
L 264.768335 130.00647 
L 265.492066 128.689942 
L 266.306263 126.674299 
L 267.210926 123.807974 
L 268.296522 119.573379 
L 269.563051 113.686148 
L 271.191445 104.962305 
L 273.905435 88.938957 
L 276.528959 73.916383 
L 278.066887 66.306144 
L 279.333416 61.083699 
L 280.419012 57.52013 
L 281.323675 55.270434 
L 282.047406 53.973747 
L 282.68067 53.219948 
L 283.223468 52.862521 
L 283.766266 52.774248 
L 284.218598 52.906785 
L 284.761396 53.312198 
L 285.39466 54.121157 
L 286.118391 55.479166 
L 286.932588 57.539374 
L 287.837252 60.451802 
L 288.922848 64.735784 
L 290.189376 70.670758 
L 291.81777 79.437684 
L 294.712693 96.560318 
L 297.155284 110.45968 
L 298.693212 118.017555 
L 299.959741 123.18447 
L 301.045337 126.693186 
L 301.95 128.893193 
L 302.673731 130.148205 
L 303.306996 130.864567 
L 303.849794 131.189464 
L 304.392592 131.245034 
L 304.93539 131.030896 
L 305.478188 130.548521 
L 306.111452 129.651256 
L 306.835183 128.195289 
L 307.64938 126.030082 
L 308.64451 122.6737 
L 309.820572 117.802001 
L 311.177567 111.160193 
L 312.986894 101.083059 
L 318.414874 69.979606 
L 319.771869 63.76643 
L 320.947932 59.352182 
L 321.943061 56.433863 
L 322.757259 54.65438 
L 323.480989 53.556748 
L 324.114254 52.981386 
L 324.657052 52.778744 
L 325.109383 52.815917 
L 325.652181 53.107507 
L 326.194979 53.666566 
L 326.828244 54.651626 
L 327.551974 56.204723 
L 328.366172 58.473694 
L 329.361301 61.946737 
L 330.537364 66.938461 
L 331.984825 74.171425 
L 333.884618 84.922183 
L 338.588868 112.09205 
L 340.036329 118.999603 
L 341.212392 123.657492 
L 342.207521 126.807904 
L 343.112185 128.976743 
L 343.835916 130.205643 
L 344.46918 130.89857 
L 345.011978 131.203118 
L 345.554776 131.238246 
L 346.097574 131.003712 
L 346.640372 130.501129 
L 347.273636 129.580709 
L 347.997367 128.099098 
L 348.811564 125.906463 
L 349.806694 122.519192 
L 350.982756 117.615636 
L 352.339751 110.944583 
L 354.149078 100.842985 
L 359.486592 70.225076 
L 360.934054 63.59582 
L 362.110116 59.216138 
L 363.105246 56.330537 
L 363.919443 54.579633 
L 364.643174 53.508388 
L 365.276438 52.956611 
L 365.819236 52.774378 
L 366.271568 52.828587 
L 366.814366 53.140533 
L 367.357164 53.719722 
L 367.990428 54.727794 
L 368.714159 56.306306 
L 369.618822 58.890098 
L 370.613952 62.459849 
L 371.790014 67.550441 
L 373.237476 74.877751 
L 375.227735 86.235586 
L 379.57012 111.367218 
L 381.108047 118.784016 
L 382.28411 123.481598 
L 383.27924 126.670077 
L 384.183903 128.876308 
L 384.907634 130.136536 
L 385.540898 130.857582 
L 386.083696 131.186547 
L 386.626494 131.246205 
L 387.169292 131.036148 
L 387.71209 130.557817 
L 388.345355 129.665188 
L 389.069085 128.214356 
L 389.883282 126.054645 
L 390.878412 122.704457 
L 392.054474 117.839152 
L 393.41147 111.203225 
L 395.220796 101.131032 
L 400.648777 70.020431 
L 402.005772 63.800685 
L 403.181834 59.379546 
L 404.176964 56.454697 
L 404.991161 54.669507 
L 405.714892 53.566602 
L 406.348156 52.986525 
L 406.890954 52.779803 
L 407.343286 52.813568 
L 407.886084 53.101086 
L 408.428882 53.656117 
L 409.062146 54.636569 
L 409.785877 56.184575 
L 410.600074 58.448118 
L 411.595204 61.915069 
L 412.771266 66.900546 
L 414.218728 74.127517 
L 416.118521 84.873685 
L 420.82277 112.049663 
L 422.270232 118.963778 
L 423.446294 123.628301 
L 424.441424 126.78507 
L 425.346087 128.96015 
L 426.069818 130.194276 
L 426.703082 130.891892 
L 427.24588 131.200511 
L 427.788679 131.239728 
L 428.331477 131.009272 
L 428.874275 130.510729 
L 429.507539 129.594937 
L 430.23127 128.11845 
L 431.045467 125.931294 
L 432.040596 122.550191 
L 433.216659 117.65299 
L 434.573654 110.987765 
L 436.382981 100.891028 
L 441.720495 70.266108 
L 443.167956 63.629853 
L 444.344019 59.243243 
L 445.339148 56.351089 
L 446.153345 54.594465 
L 446.877076 53.517939 
L 447.510341 52.961443 
L 448.053139 52.775128 
L 448.50547 52.825929 
L 449.048268 53.133805 
L 449.591066 53.70897 
L 450.224331 54.712443 
L 450.948061 56.285876 
L 451.852725 58.863678 
L 452.847855 62.427427 
L 454.023917 67.5119 
L 455.471378 74.8334 
L 457.461638 86.186813 
L 461.804022 111.324303 
L 463.34195 118.747936 
L 464.518012 123.452108 
L 465.513142 126.646915 
L 466.417805 128.859365 
L 467.141536 130.124808 
L 467.774801 130.850536 
L 468.317599 131.183569 
L 468.860397 131.247315 
L 469.403195 131.041338 
L 469.945993 130.567052 
L 470.579257 129.67906 
L 471.302988 128.233365 
L 472.117185 126.079154 
L 473.112315 122.735165 
L 474.197911 118.281767 
L 475.554906 111.71722 
L 477.273766 102.230267 
L 483.154078 68.731605 
L 484.511073 62.726888 
L 485.596669 58.815796 
L 486.591799 56.029028 
L 487.405996 54.364271 
L 488.129727 53.372438 
L 488.762991 52.891542 
L 489.305789 52.770575 
L 489.758121 52.875876 
L 490.300919 53.248814 
L 490.934183 54.02045 
L 491.657914 55.336979 
L 492.472111 57.352622 
L 493.376775 60.218947 
L 494.462371 64.453542 
L 495.728899 70.340773 
L 497.357293 79.064615 
L 500.071284 95.087964 
L 502.694808 110.110537 
L 504.232735 117.720777 
L 505.499264 122.943222 
L 506.58486 126.50679 
L 507.489524 128.756486 
L 508.213254 130.053173 
L 508.846519 130.806972 
L 509.389317 131.164399 
L 509.932115 131.252672 
L 510.384446 131.120136 
L 510.927244 130.714722 
L 511.560509 129.905763 
L 512.284239 128.547755 
L 513.098437 126.487547 
L 514.0031 123.575119 
L 515.088696 119.291136 
L 516.355225 113.356163 
L 517.983619 104.589236 
L 520.878542 87.466603 
L 523.321133 73.567241 
L 524.859061 66.009366 
L 526.125589 60.84245 
L 527.211185 57.333735 
L 528.115849 55.133727 
L 528.83958 53.878716 
L 529.472844 53.162354 
L 530.015642 52.837457 
L 530.55844 52.781887 
L 531.101238 52.996025 
L 531.644036 53.478399 
L 532.2773 54.375664 
L 533.001031 55.831632 
L 533.815228 57.996839 
L 534.810358 61.35322 
L 535.98642 66.22492 
L 537.343415 72.866727 
L 539.152742 82.943861 
L 544.580723 114.047314 
L 545.937718 120.260491 
L 547.11378 124.674738 
L 548.10891 127.593058 
L 548.923107 129.37254 
L 549.646838 130.470173 
L 550.280102 131.045535 
L 550.8229 131.248176 
L 551.275232 131.211004 
L 551.81803 130.919414 
L 552.360828 130.360354 
L 552.994092 129.375294 
L 553.717823 127.822198 
L 554.53202 125.553226 
L 555.52715 122.080183 
L 556.703212 117.08846 
L 558.150674 109.855495 
L 560.050467 99.104738 
L 564.754716 71.934871 
L 566.202178 65.027317 
L 567.37824 60.369428 
L 568.37337 57.219017 
L 569.278033 55.050178 
L 570.001764 53.821278 
L 570.635028 53.12835 
L 571.177826 52.823802 
L 571.720624 52.788674 
L 572.263422 53.023208 
L 572.806221 53.525791 
L 573.439485 54.446212 
L 574.163216 55.927822 
L 574.977413 58.120458 
L 575.972542 61.507728 
L 577.148605 66.411285 
L 578.5056 73.082337 
L 580.314927 83.183936 
L 585.652441 113.801845 
L 587.099902 120.4311 
L 588.275965 124.810783 
L 589.271094 127.696384 
L 590.085291 129.447287 
L 590.809022 130.518532 
L 591.442286 131.07031 
L 591.985084 131.252542 
L 592.437416 131.198334 
L 592.980214 130.886388 
L 593.523012 130.307199 
L 594.156277 129.299126 
L 594.880007 127.720615 
L 595.784671 125.136823 
L 596.7798 121.567072 
L 597.955863 116.476479 
L 599.403324 109.14917 
L 601.393584 97.791335 
L 605.735968 72.659703 
L 607.273896 65.242905 
L 608.449958 60.545323 
L 609.445088 57.356843 
L 610.349751 55.150612 
L 611.073482 53.890384 
L 611.706746 53.169338 
L 612.249544 52.840374 
L 612.792343 52.780715 
L 613.335141 52.990773 
L 613.877939 53.469103 
L 614.511203 54.361733 
L 615.234934 55.812565 
L 616.049131 57.972276 
L 617.04426 61.322464 
L 618.220323 66.187769 
L 619.577318 72.823696 
L 621.386645 82.895889 
L 626.814625 114.006489 
L 628.17162 120.226235 
L 629.347683 124.647375 
L 630.342812 127.572224 
L 631.157009 129.357414 
L 631.88074 130.460319 
L 632.514005 131.040395 
L 633.056803 131.247117 
L 633.509134 131.213352 
L 634.051932 130.925835 
L 634.59473 130.370804 
L 635.227995 129.390351 
L 635.951725 127.842345 
L 636.765922 125.578803 
L 637.761052 122.111851 
L 638.937115 117.126374 
L 640.384576 109.899404 
L 642.284369 99.153235 
L 646.988619 71.977257 
L 648.43608 65.063142 
L 649.612143 60.398619 
L 650.607272 57.241851 
L 651.511936 55.066771 
L 652.235667 53.832645 
L 652.868931 53.135028 
L 653.411729 52.826409 
L 653.954527 52.787193 
L 654.497325 53.017648 
L 655.040123 53.516191 
L 655.673387 54.431983 
L 656.397118 55.90847 
L 657.211315 58.095627 
L 658.206445 61.47673 
L 659.382507 66.373931 
L 660.739502 73.039155 
L 662.548829 83.135893 
L 667.886343 113.760812 
L 669.333805 120.397068 
L 670.509867 124.783677 
L 671.504997 127.675831 
L 672.319194 129.432456 
L 673.042925 130.508982 
L 673.676189 131.065478 
L 674.218987 131.251793 
L 674.671319 131.200992 
L 675.214117 130.893116 
L 675.756915 130.317951 
L 676.390179 129.314478 
L 677.11391 127.741044 
L 678.018573 125.163242 
L 679.013703 121.599493 
L 680.189765 116.51502 
L 681.637227 109.193521 
L 683.627486 97.840107 
L 687.969871 72.702618 
L 689.507798 65.278985 
L 690.683861 60.574813 
L 691.67899 57.380006 
L 692.583654 55.167555 
L 693.307385 53.902113 
L 693.940649 53.176384 
L 694.483447 52.843352 
L 695.026245 52.779605 
L 695.569043 52.985583 
L 696.111841 53.459868 
L 696.745105 54.347861 
L 697.468836 55.793555 
L 698.283033 57.947767 
L 699.278163 61.291756 
L 700.363759 65.745153 
L 701.720754 72.309701 
L 703.439615 81.796654 
L 709.319927 115.295315 
L 710.676922 121.300033 
L 711.762518 125.211125 
L 712.757648 127.997893 
L 713.571845 129.66265 
L 714.295575 130.654483 
L 714.92884 131.135378 
L 715.471638 131.256345 
L 715.923969 131.151044 
L 716.466767 130.778106 
L 717.100032 130.00647 
L 717.823763 128.689942 
L 718.63796 126.674299 
L 719.542623 123.807974 
L 720.628219 119.573379 
L 721.894748 113.686148 
L 723.523142 104.962305 
L 726.237132 88.938957 
L 728.860656 73.916383 
L 730.398584 66.306144 
L 731.665112 61.083699 
L 732.750709 57.52013 
L 733.655372 55.270434 
L 734.379103 53.973747 
L 735.012367 53.219948 
L 735.555165 52.862521 
L 736.097963 52.774248 
L 736.550295 52.906785 
L 737.093093 53.312198 
L 737.726357 54.121157 
L 738.450088 55.479166 
L 739.264285 57.539374 
L 740.168948 60.451802 
L 741.254544 64.735784 
L 742.521073 70.670758 
L 744.149467 79.437684 
L 747.04439 96.560318 
L 749.486981 110.45968 
L 751.024909 118.017555 
L 752.291438 123.18447 
L 753.377034 126.693186 
L 754.281697 128.893193 
L 755.005428 130.148205 
L 755.638692 130.864567 
L 756.18149 131.189464 
L 756.724288 131.245034 
L 757.267087 131.030896 
L 757.809885 130.548521 
L 758.443149 129.651256 
L 759.16688 128.195289 
L 759.981077 126.030082 
L 760.976206 122.6737 
L 762.152269 117.802001 
L 763.509264 111.160193 
L 765.318591 101.083059 
L 770.746571 69.979606 
L 772.103566 63.76643 
L 773.279629 59.352182 
L 774.274758 56.433863 
L 775.088955 54.65438 
L 775.812686 53.556748 
L 776.44595 52.981386 
L 776.988748 52.778744 
L 777.44108 52.815917 
L 777.983878 53.107507 
L 778.526676 53.666566 
L 779.159941 54.651626 
L 779.883671 56.204723 
L 780.697868 58.473694 
L 781.692998 61.946737 
L 782.869061 66.938461 
L 784.316522 74.171425 
L 786.216315 84.922183 
L 790.920565 112.09205 
L 792.368026 118.999603 
L 793.544089 123.657492 
L 794.539218 126.807904 
L 795.443882 128.976743 
L 796.167612 130.205643 
L 796.800877 130.89857 
L 797.343675 131.203118 
L 797.886473 131.238246 
L 798.429271 131.003712 
L 798.972069 130.501129 
L 799.605333 129.580709 
L 800.329064 128.099098 
L 801.143261 125.906463 
L 802.138391 122.519192 
L 803.314453 117.615636 
L 804.671448 110.944583 
L 806.480775 100.842985 
L 811.818289 70.225076 
L 813.265751 63.59582 
L 814.441813 59.216138 
L 815.436943 56.330537 
L 816.25114 54.579633 
L 816.97487 53.508388 
L 817.608135 52.956611 
L 818.150933 52.774378 
L 818.603265 52.828587 
L 819.146063 53.140533 
L 819.688861 53.719722 
L 820.322125 54.727794 
L 821.045856 56.306306 
L 821.950519 58.890098 
L 822.945649 62.459849 
L 824.121711 67.550441 
L 825.569173 74.877751 
L 827.559432 86.235586 
L 831.901816 111.367218 
L 833.439744 118.784016 
L 834.615807 123.481598 
L 835.610936 126.670077 
L 836.5156 128.876308 
L 837.239331 130.136536 
L 837.872595 130.857582 
L 838.415393 131.186547 
L 838.958191 131.246205 
L 839.500989 131.036148 
L 840.043787 130.557817 
L 840.677051 129.665188 
L 841.400782 128.214356 
L 842.214979 126.054645 
L 843.210109 122.704457 
L 844.386171 117.839152 
L 845.743166 111.203225 
L 847.552493 101.131032 
L 852.980474 70.020431 
L 854.337469 63.800685 
L 855.513531 59.379546 
L 856.508661 56.454697 
L 857.322858 54.669507 
L 858.046589 53.566602 
L 858.679853 52.986525 
L 859.222651 52.779803 
L 859.674983 52.813568 
L 860.217781 53.101086 
L 860.760579 53.656117 
L 861.393843 54.636569 
L 862.117574 56.184575 
L 862.931771 58.448118 
L 863.926901 61.915069 
L 865.102963 66.900546 
L 866.550424 74.127517 
L 868.450218 84.873685 
L 873.154467 112.049663 
L 874.601929 118.963778 
L 875.777991 123.628301 
L 876.773121 126.78507 
L 877.677784 128.96015 
L 878.401515 130.194276 
L 879.034779 130.891892 
L 879.577577 131.200511 
L 879.939443 131.256644 
L 879.939443 131.256644 
" clip-path="url(#p3caabe3b7b)" style="fill: none; stroke: #e36f47; stroke-opacity: 0.5; stroke-width: 4"/>
   </g>
   <g id="patch_3">
    <path d="M 41.316477 139.105354 
L 41.316477 9.602646 
" style="fill: none; stroke: #000000; stroke-width: 2; stroke-linejoin: miter; stroke-linecap: square"/>
   </g>
   <g id="patch_4">
    <path d="M 41.316477 139.105354 
L 904.365354 139.105354 
" style="fill: none; stroke: #000000; stroke-width: 2; stroke-linejoin: miter; stroke-linecap: square"/>
   </g>
   <g id="line2d_12">
    <path d="M 65.742388 27.654538 
L 71.803633 31.835383 
L 77.774411 35.688298 
L 83.926123 39.399968 
L 90.258766 42.965578 
L 96.772343 46.381215 
L 103.466852 49.6439 
L 110.342294 52.752198 
L 117.489134 55.741631 
L 124.816908 58.570644 
L 132.506547 61.302371 
L 140.467585 63.895603 
L 148.790488 66.372982 
L 152.771007 67.479398 
L 152.861473 28.290806 
L 152.95194 28.354675 
L 158.832252 32.370609 
L 164.80303 36.189254 
L 170.954741 39.86793 
L 177.377851 43.45055 
L 183.891428 46.832424 
L 190.766869 50.146897 
L 197.91371 53.334776 
L 205.241484 56.351444 
L 212.931123 59.264443 
L 220.89216 62.029806 
L 228.943665 64.589137 
L 237.266568 67.005417 
L 238.985428 67.477234 
L 239.075895 28.29714 
L 239.166361 28.361021 
L 245.046673 32.376555 
L 251.017451 36.194821 
L 257.169162 39.873114 
L 263.501806 43.406659 
L 270.015383 46.791578 
L 276.709892 50.024923 
L 283.585334 53.105268 
L 290.732174 56.067818 
L 298.059948 58.87139 
L 305.749587 61.578551 
L 313.710625 64.148463 
L 322.033528 66.603562 
L 323.390523 66.982843 
L 323.480989 27.773237 
L 323.571456 27.83756 
L 329.451768 31.886117 
L 335.422546 35.735763 
L 341.574257 39.444393 
L 347.997367 43.056062 
L 354.510944 46.465407 
L 361.205453 49.722074 
L 368.080895 52.824635 
L 375.227735 55.808554 
L 382.555509 58.632346 
L 390.245148 61.359034 
L 398.206186 63.947475 
L 406.438622 66.394627 
L 406.529089 66.420318 
L 406.619555 27.219871 
L 406.710021 27.284777 
L 412.590334 31.368206 
L 418.561112 35.251022 
L 424.712823 38.991563 
L 431.135933 42.634365 
L 437.559043 46.026952 
L 444.163086 49.272159 
L 451.128994 52.447395 
L 458.185369 55.42339 
L 465.603608 58.311013 
L 473.202781 61.032873 
L 481.073352 63.620522 
L 488.762991 65.939765 
L 488.853458 26.758235 
L 488.943924 26.823653 
L 494.73377 30.874881 
L 500.704548 34.789251 
L 506.765793 38.50675 
L 513.188903 42.182825 
L 519.883412 45.745794 
L 526.668387 49.097009 
L 533.724762 52.32496 
L 540.781136 55.310225 
L 548.289843 58.240637 
L 555.889015 60.968175 
L 563.759587 63.561223 
L 570.273163 65.542511 
L 570.363629 26.337792 
L 570.454096 26.403565 
L 576.243941 30.480961 
L 582.305186 34.478255 
L 588.366431 38.215926 
L 594.880007 41.96212 
L 601.303117 45.400889 
L 607.90716 48.690293 
L 614.873068 51.908741 
L 621.929443 54.925264 
L 629.347683 57.852186 
L 636.856389 60.579625 
L 644.817427 63.233981 
L 651.421469 65.264907 
L 651.511936 26.052345 
L 651.602402 26.118374 
L 657.392248 30.213522 
L 663.543959 34.286122 
L 669.69567 38.090186 
L 675.937847 41.694188 
L 682.54189 45.245232 
L 689.145933 48.545553 
L 695.930908 51.693979 
L 702.987283 54.726759 
L 710.495989 57.703688 
L 718.004695 60.443004 
L 725.965733 63.10888 
L 732.47931 65.121687 
L 732.569776 25.941572 
L 732.660242 26.007809 
L 738.450088 30.109737 
L 744.420866 34.073097 
L 750.482111 37.837119 
L 756.905221 41.559198 
L 763.509264 45.119738 
L 770.113307 48.428925 
L 776.988748 51.626327 
L 783.954657 54.626716 
L 791.372896 57.577102 
L 798.972069 60.35831 
L 807.023573 63.06038 
L 813.446683 65.049545 
L 813.53715 25.846053 
L 813.627616 25.91232 
L 819.417462 30.020244 
L 825.478706 34.04747 
L 831.539951 37.813124 
L 838.053528 41.587369 
L 844.476638 45.051885 
L 851.08068 48.365915 
L 857.956122 51.567899 
L 865.012497 54.610157 
L 872.521203 57.596409 
L 879.939443 60.312478 
L 879.939443 60.312478 
" clip-path="url(#p3caabe3b7b)" style="fill: none; stroke: #3ea44d; stroke-opacity: 0.5; stroke-width: 4"/>
   </g>
   <g id="line2d_13">
    <path d="M 65.742388 173.8 
L 65.742388 -1 
" clip-path="url(#p3caabe3b7b)" style="fill: none; stroke-dasharray: 7.4,3.2; stroke-dashoffset: 0; stroke: #000000; stroke-width: 2"/>
   </g>
   <g id="line2d_14">
    <path d="M 152.861473 173.8 
L 152.861473 -1 
" clip-path="url(#p3caabe3b7b)" style="fill: none; stroke-dasharray: 7.4,3.2; stroke-dashoffset: 0; stroke: #000000; stroke-width: 2"/>
   </g>
   <g id="line2d_15">
    <path d="M 239.075895 173.8 
L 239.075895 -1 
" clip-path="url(#p3caabe3b7b)" style="fill: none; stroke-dasharray: 7.4,3.2; stroke-dashoffset: 0; stroke: #000000; stroke-width: 2"/>
   </g>
   <g id="line2d_16">
    <path d="M 323.480989 173.8 
L 323.480989 -1 
" clip-path="url(#p3caabe3b7b)" style="fill: none; stroke-dasharray: 7.4,3.2; stroke-dashoffset: 0; stroke: #000000; stroke-width: 2"/>
   </g>
   <g id="line2d_17">
    <path d="M 406.619555 173.8 
L 406.619555 -1 
" clip-path="url(#p3caabe3b7b)" style="fill: none; stroke-dasharray: 7.4,3.2; stroke-dashoffset: 0; stroke: #000000; stroke-width: 2"/>
   </g>
   <g id="line2d_18">
    <path d="M 488.853458 173.8 
L 488.853458 -1 
" clip-path="url(#p3caabe3b7b)" style="fill: none; stroke-dasharray: 7.4,3.2; stroke-dashoffset: 0; stroke: #000000; stroke-width: 2"/>
   </g>
   <g id="line2d_19">
    <path d="M 570.363629 173.8 
L 570.363629 -1 
" clip-path="url(#p3caabe3b7b)" style="fill: none; stroke-dasharray: 7.4,3.2; stroke-dashoffset: 0; stroke: #000000; stroke-width: 2"/>
   </g>
   <g id="line2d_20">
    <path d="M 651.511936 173.8 
L 651.511936 -1 
" clip-path="url(#p3caabe3b7b)" style="fill: none; stroke-dasharray: 7.4,3.2; stroke-dashoffset: 0; stroke: #000000; stroke-width: 2"/>
   </g>
   <g id="line2d_21">
    <path d="M 732.569776 173.8 
L 732.569776 -1 
" clip-path="url(#p3caabe3b7b)" style="fill: none; stroke-dasharray: 7.4,3.2; stroke-dashoffset: 0; stroke: #000000; stroke-width: 2"/>
   </g>
   <g id="line2d_22">
    <path d="M 813.53715 173.8 
L 813.53715 -1 
" clip-path="url(#p3caabe3b7b)" style="fill: none; stroke-dasharray: 7.4,3.2; stroke-dashoffset: 0; stroke: #000000; stroke-width: 2"/>
   </g>
   <g id="PathCollection_1">
    <defs>
     <path id="mef5f122775" d="M 0 5 
C 1.326016 5 2.597899 4.473168 3.535534 3.535534 
C 4.473168 2.597899 5 1.326016 5 0 
C 5 -1.326016 4.473168 -2.597899 3.535534 -3.535534 
C 2.597899 -4.473168 1.326016 -5 0 -5 
C -1.326016 -5 -2.597899 -4.473168 -3.535534 -3.535534 
C -4.473168 -2.597899 -5 -1.326016 -5 0 
C -5 1.326016 -4.473168 2.597899 -3.535534 3.535534 
C -2.597899 4.473168 -1.326016 5 0 5 
z
"/>
    </defs>
    <g clip-path="url(#p3caabe3b7b)">
     <use xlink:href="#mef5f122775" x="152.861473" y="28.290806"/>
     <use xlink:href="#mef5f122775" x="239.075895" y="28.29714"/>
     <use xlink:href="#mef5f122775" x="323.480989" y="27.773237"/>
     <use xlink:href="#mef5f122775" x="406.619555" y="27.219871"/>
     <use xlink:href="#mef5f122775" x="488.853458" y="26.758235"/>
     <use xlink:href="#mef5f122775" x="570.363629" y="26.337792"/>
     <use xlink:href="#mef5f122775" x="651.511936" y="26.052345"/>
     <use xlink:href="#mef5f122775" x="732.569776" y="25.941572"/>
    </g>
   </g>
   <g id="PathCollection_2">
    <defs>
     <path id="mbd429dacd9" d="M -5 5 
L 5 5 
L 5 -5 
L -5 -5 
z
"/>
    </defs>
    <g clip-path="url(#p3caabe3b7b)">
     <use xlink:href="#mbd429dacd9" x="65.742388" y="27.654538" style="fill: #ff0000"/>
    </g>
   </g>
   <g id="PathCollection_3">
    <defs>
     <path id="mdf894e430e" d="M -5 5 
L 5 5 
L 5 -5 
L -5 -5 
z
"/>
    </defs>
    <g clip-path="url(#p3caabe3b7b)">
     <use xlink:href="#mdf894e430e" x="813.53715" y="25.846053"/>
    </g>
   </g>
   <g id="PathCollection_4">
    <g clip-path="url(#p3caabe3b7b)">
     <use xlink:href="#mef5f122775" x="152.861473" y="75.554397"/>
     <use xlink:href="#mef5f122775" x="239.075895" y="58.174838"/>
     <use xlink:href="#mef5f122775" x="323.480989" y="53.556748"/>
     <use xlink:href="#mef5f122775" x="406.619555" y="52.849494"/>
     <use xlink:href="#mef5f122775" x="488.853458" y="52.852658"/>
     <use xlink:href="#mef5f122775" x="570.363629" y="53.381075"/>
     <use xlink:href="#mef5f122775" x="651.511936" y="55.066771"/>
     <use xlink:href="#mef5f122775" x="732.569776" y="58.050634"/>
    </g>
   </g>
   <g id="PathCollection_5">
    <g clip-path="url(#p3caabe3b7b)">
     <use xlink:href="#mbd429dacd9" x="65.742388" y="104.074199" style="fill: #ff0000"/>
    </g>
   </g>
   <g id="PathCollection_6">
    <g clip-path="url(#p3caabe3b7b)">
     <use xlink:href="#mdf894e430e" x="813.53715" y="62.498248"/>
    </g>
   </g>
  </g>
 </g>
 <defs>
  <clipPath id="p3caabe3b7b">
   <rect x="41.316477" y="9.602646" width="863.048878" height="129.502709"/>
  </clipPath>
 </defs>
</svg>
