<?xml version="1.0" encoding="utf-8" standalone="no"?>
<!DOCTYPE svg PUBLIC "-//W3C//DTD SVG 1.1//EN"
  "http://www.w3.org/Graphics/SVG/1.1/DTD/svg11.dtd">
<svg xmlns:xlink="http://www.w3.org/1999/xlink" width="961.92pt" height="267.84pt" viewBox="0 0 961.92 267.84" xmlns="http://www.w3.org/2000/svg" version="1.1">
 <metadata>
  <rdf:RDF xmlns:dc="http://purl.org/dc/elements/1.1/" xmlns:cc="http://creativecommons.org/ns#" xmlns:rdf="http://www.w3.org/1999/02/22-rdf-syntax-ns#">
   <cc:Work>
    <dc:type rdf:resource="http://purl.org/dc/dcmitype/StillImage"/>
    <dc:date>2024-05-07T19:25:47.991554</dc:date>
    <dc:format>image/svg+xml</dc:format>
    <dc:creator>
     <cc:Agent>
      <dc:title>Matplotlib v3.7.0, https://matplotlib.org/</dc:title>
     </cc:Agent>
    </dc:creator>
   </cc:Work>
  </rdf:RDF>
 </metadata>
 <defs>
  <style type="text/css">*{stroke-linejoin: round; stroke-linecap: butt}</style>
 </defs>
 <g id="figure_1">
  <g id="patch_1">
   <path d="M 0 267.84 
L 961.92 267.84 
L 961.92 0 
L 0 0 
L 0 267.84 
z
" style="fill: none"/>
  </g>
  <g id="axes_1">
   <g id="patch_2">
    <path d="M 40.694965 263.083967 
L 959.085354 263.083967 
L 959.085354 2.834646 
L 40.694965 2.834646 
L 40.694965 263.083967 
z
" style="fill: none"/>
   </g>
   <g id="line2d_1">
    <path d="M 66.687146 53.352663 
L 84.368901 53.352663 
L 102.050657 53.982632 
L 119.732413 54.612601 
L 137.414168 55.24257 
L 155.095924 55.872538 
L 172.77768 56.502507 
L 190.459435 57.132476 
L 208.141191 58.392414 
L 225.822947 59.022383 
L 243.504702 60.28232 
L 261.186458 61.542258 
L 278.868214 63.432164 
L 296.549969 64.692102 
L 314.231725 66.582008 
L 331.913481 69.101884 
L 349.595236 72.251728 
L 367.276992 76.66151 
L 384.958748 81.70126 
L 402.640503 89.260886 
L 420.322259 99.340387 
L 438.004015 113.199701 
L 455.68577 128.948922 
L 473.367526 144.278163 
L 491.049282 156.87754 
L 508.731037 166.957041 
L 526.412793 173.886698 
L 544.094549 179.556417 
L 561.776304 183.33623 
L 579.45806 186.486075 
L 597.139816 189.00595 
L 614.821571 190.895856 
L 632.503327 192.785763 
L 650.185083 194.0457 
L 667.866838 195.305638 
L 685.548594 196.565576 
L 703.23035 197.825513 
L 720.912105 198.455482 
L 738.593861 199.085451 
L 756.275617 199.71542 
L 773.957372 200.345389 
L 791.639128 200.975357 
L 809.320884 201.605326 
L 827.002639 202.235295 
L 844.684395 202.235295 
L 862.366151 202.865264 
L 880.047906 203.495233 
L 897.729662 203.495233 
L 915.411418 204.125202 
L 933.093173 204.125202 
" clip-path="url(#p6021414997)" style="fill: none; stroke: #0173b2; stroke-width: 6"/>
   </g>
   <g id="matplotlib.axis_1">
    <g id="xtick_1"/>
    <g id="xtick_2"/>
    <g id="xtick_3"/>
    <g id="xtick_4"/>
   </g>
   <g id="matplotlib.axis_2">
    <g id="ytick_1">
     <g id="line2d_2">
      <defs>
       <path id="mc4441d0658" d="M 0 0 
L 5 0 
" style="stroke: #000000"/>
      </defs>
      <g>
       <use xlink:href="#mc4441d0658" x="40.694965" y="235.781135" style="stroke: #000000"/>
      </g>
     </g>
     <g id="text_1">
      <!-- $-\frac{\pi}{2}$ -->
      <g transform="translate(0.514965 245.441135) scale(0.28 -0.28)">
       <defs>
        <path id="Cmsy10-a1" d="M 653 1472 
Q 600 1472 565 1512 
Q 531 1553 531 1600 
Q 531 1647 565 1687 
Q 600 1728 653 1728 
L 4325 1728 
Q 4375 1728 4408 1687 
Q 4441 1647 4441 1600 
Q 4441 1553 4408 1512 
Q 4375 1472 4325 1472 
L 653 1472 
z
" transform="scale(0.015625)"/>
        <path id="Cmmi10-bc" d="M 647 109 
Q 647 144 672 213 
Q 850 584 1004 942 
Q 1159 1300 1282 1639 
Q 1406 1978 1509 2363 
L 1100 2363 
Q 866 2363 662 2216 
Q 459 2069 325 1844 
Q 313 1819 288 1819 
L 213 1819 
Q 153 1819 153 1881 
Q 153 1894 166 1919 
Q 375 2275 614 2517 
Q 853 2759 1153 2759 
L 3475 2759 
Q 3541 2759 3587 2715 
Q 3634 2672 3634 2597 
Q 3634 2503 3567 2433 
Q 3500 2363 3406 2363 
L 2591 2363 
Q 2488 1859 2478 1381 
Q 2478 766 2694 269 
Q 2713 231 2713 191 
Q 2713 122 2672 62 
Q 2631 3 2567 -34 
Q 2503 -72 2431 -72 
Q 2263 -72 2200 203 
Q 2138 478 2138 738 
Q 2138 1103 2200 1442 
Q 2263 1781 2400 2363 
L 1703 2363 
Q 1197 313 1094 103 
Q 1003 -72 844 -72 
Q 766 -72 706 -20 
Q 647 31 647 109 
z
" transform="scale(0.015625)"/>
        <path id="Cmr10-32" d="M 319 0 
L 319 172 
Q 319 188 331 206 
L 1325 1306 
Q 1550 1550 1690 1715 
Q 1831 1881 1968 2097 
Q 2106 2313 2186 2536 
Q 2266 2759 2266 3009 
Q 2266 3272 2169 3511 
Q 2072 3750 1880 3894 
Q 1688 4038 1416 4038 
Q 1138 4038 916 3870 
Q 694 3703 603 3438 
Q 628 3444 672 3444 
Q 816 3444 917 3347 
Q 1019 3250 1019 3097 
Q 1019 2950 917 2848 
Q 816 2747 672 2747 
Q 522 2747 420 2851 
Q 319 2956 319 3097 
Q 319 3338 409 3548 
Q 500 3759 670 3923 
Q 841 4088 1055 4175 
Q 1269 4263 1509 4263 
Q 1875 4263 2190 4108 
Q 2506 3953 2690 3670 
Q 2875 3388 2875 3009 
Q 2875 2731 2753 2481 
Q 2631 2231 2440 2026 
Q 2250 1822 1953 1562 
Q 1656 1303 1563 1216 
L 838 519 
L 1453 519 
Q 1906 519 2211 526 
Q 2516 534 2534 550 
Q 2609 631 2688 1141 
L 2875 1141 
L 2694 0 
L 319 0 
z
" transform="scale(0.015625)"/>
       </defs>
       <use xlink:href="#Cmsy10-a1" transform="translate(0 0.535938)"/>
       <use xlink:href="#Cmmi10-bc" transform="translate(77.685547 38.823437) scale(0.7)"/>
       <use xlink:href="#Cmr10-32" transform="translate(79.685547 -39.840625) scale(0.7)"/>
       <path d="M 77.685547 13.035937 
L 77.685547 19.285937 
L 117.573242 19.285937 
L 117.573242 13.035937 
L 77.685547 13.035937 
z
"/>
      </g>
     </g>
    </g>
    <g id="ytick_2">
     <g id="line2d_3">
      <g>
       <use xlink:href="#mc4441d0658" x="40.694965" y="130.838828" style="stroke: #000000"/>
      </g>
     </g>
     <g id="text_2">
      <!-- $0$ -->
      <g transform="translate(23.194965 141.476641) scale(0.28 -0.28)">
       <defs>
        <path id="Cmr10-30" d="M 1600 -141 
Q 816 -141 533 504 
Q 250 1150 250 2041 
Q 250 2597 351 3087 
Q 453 3578 754 3920 
Q 1056 4263 1600 4263 
Q 2022 4263 2290 4056 
Q 2559 3850 2700 3523 
Q 2841 3197 2892 2823 
Q 2944 2450 2944 2041 
Q 2944 1491 2842 1011 
Q 2741 531 2444 195 
Q 2147 -141 1600 -141 
z
M 1600 25 
Q 1956 25 2131 390 
Q 2306 756 2347 1200 
Q 2388 1644 2388 2144 
Q 2388 2625 2347 3031 
Q 2306 3438 2132 3767 
Q 1959 4097 1600 4097 
Q 1238 4097 1063 3765 
Q 888 3434 847 3029 
Q 806 2625 806 2144 
Q 806 1788 823 1472 
Q 841 1156 916 820 
Q 991 484 1158 254 
Q 1325 25 1600 25 
z
" transform="scale(0.015625)"/>
       </defs>
       <use xlink:href="#Cmr10-30" transform="translate(0 0.390625)"/>
      </g>
     </g>
    </g>
    <g id="ytick_3">
     <g id="line2d_4">
      <g>
       <use xlink:href="#mc4441d0658" x="40.694965" y="25.896522" style="stroke: #000000"/>
      </g>
     </g>
     <g id="text_3">
      <!-- $\frac{\pi}{2}$ -->
      <g transform="translate(22.354965 35.556522) scale(0.28 -0.28)">
       <use xlink:href="#Cmmi10-bc" transform="translate(0 38.823437) scale(0.7)"/>
       <use xlink:href="#Cmr10-32" transform="translate(2 -39.840625) scale(0.7)"/>
       <path d="M 0 13.035937 
L 0 19.285937 
L 39.887695 19.285937 
L 39.887695 13.035937 
L 0 13.035937 
z
"/>
      </g>
     </g>
    </g>
   </g>
   <g id="line2d_5">
    <path d="M 66.687146 54.100735 
L 84.368901 54.559633 
L 102.050657 55.055175 
L 119.732413 55.592151 
L 137.414168 56.176254 
L 155.095924 56.814301 
L 172.77768 57.514538 
L 190.459435 58.287041 
L 208.141191 59.144264 
L 225.822947 60.101796 
L 243.504702 61.179436 
L 261.186458 62.402747 
L 278.868214 63.805342 
L 296.549969 65.432367 
L 314.231725 67.345957 
L 331.913481 69.634045 
L 349.595236 72.425134 
L 367.276992 75.913923 
L 384.958748 80.406972 
L 402.640503 86.403474 
L 420.322259 94.71878 
L 438.004015 106.527723 
L 455.68577 122.555945 
L 473.367526 140.507305 
L 491.049282 155.770917 
L 508.731037 166.765367 
L 526.412793 174.467223 
L 544.094549 180.019954 
L 561.776304 184.180816 
L 579.45806 187.409656 
L 597.139816 189.989253 
L 614.821571 192.099839 
L 632.503327 193.860795 
L 650.185083 195.354064 
L 667.866838 196.637688 
L 685.548594 197.753919 
L 703.23035 198.734254 
L 720.912105 199.602663 
L 738.593861 200.377725 
L 756.275617 201.074067 
L 773.957372 201.703373 
L 791.639128 202.275092 
L 809.320884 202.796952 
L 827.002639 203.275339 
L 844.684395 203.715579 
L 862.366151 204.122149 
L 880.047906 204.498845 
L 897.729662 204.848903 
L 915.411418 205.175103 
L 933.093173 205.479846 
" clip-path="url(#p6021414997)" style="fill: none; stroke-dasharray: 22.2,9.6; stroke-dashoffset: 0; stroke: #000000; stroke-width: 6"/>
   </g>
   <g id="patch_3">
    <path d="M 40.694965 263.083967 
L 40.694965 2.834646 
" style="fill: none; stroke: #000000; stroke-width: 2; stroke-linejoin: miter; stroke-linecap: square"/>
   </g>
   <g id="PathCollection_1">
    <defs>
     <path id="m2962ac6df7" d="M -0 7.071068 
L 7.071068 0 
L 0 -7.071068 
L -7.071068 -0 
z
"/>
    </defs>
    <g clip-path="url(#p6021414997)">
     <use xlink:href="#m2962ac6df7" x="66.687146" y="54.112215" style="fill: #de8f05"/>
     <use xlink:href="#m2962ac6df7" x="84.368901" y="54.572979" style="fill: #de8f05"/>
     <use xlink:href="#m2962ac6df7" x="102.050657" y="55.07077" style="fill: #de8f05"/>
     <use xlink:href="#m2962ac6df7" x="119.732413" y="55.610478" style="fill: #de8f05"/>
     <use xlink:href="#m2962ac6df7" x="137.414168" y="56.197924" style="fill: #de8f05"/>
     <use xlink:href="#m2962ac6df7" x="155.095924" y="56.840102" style="fill: #de8f05"/>
     <use xlink:href="#m2962ac6df7" x="172.77768" y="57.545497" style="fill: #de8f05"/>
     <use xlink:href="#m2962ac6df7" x="190.459435" y="58.324512" style="fill: #de8f05"/>
     <use xlink:href="#m2962ac6df7" x="208.141191" y="59.190061" style="fill: #de8f05"/>
     <use xlink:href="#m2962ac6df7" x="225.822947" y="60.158393" style="fill: #de8f05"/>
     <use xlink:href="#m2962ac6df7" x="243.504702" y="61.250275" style="fill: #de8f05"/>
     <use xlink:href="#m2962ac6df7" x="261.186458" y="62.492715" style="fill: #de8f05"/>
     <use xlink:href="#m2962ac6df7" x="278.868214" y="63.921554" style="fill: #de8f05"/>
     <use xlink:href="#m2962ac6df7" x="296.549969" y="65.585484" style="fill: #de8f05"/>
     <use xlink:href="#m2962ac6df7" x="314.231725" y="67.552457" style="fill: #de8f05"/>
     <use xlink:href="#m2962ac6df7" x="331.913481" y="69.920323" style="fill: #de8f05"/>
     <use xlink:href="#m2962ac6df7" x="349.595236" y="72.835102" style="fill: #de8f05"/>
     <use xlink:href="#m2962ac6df7" x="367.276992" y="76.523273" style="fill: #de8f05"/>
     <use xlink:href="#m2962ac6df7" x="384.958748" y="81.348293" style="fill: #de8f05"/>
     <use xlink:href="#m2962ac6df7" x="402.640503" y="87.894311" style="fill: #de8f05"/>
     <use xlink:href="#m2962ac6df7" x="420.322259" y="96.983617" style="fill: #de8f05"/>
     <use xlink:href="#m2962ac6df7" x="438.004015" y="109.19607" style="fill: #de8f05"/>
     <use xlink:href="#m2962ac6df7" x="455.68577" y="123.822185" style="fill: #de8f05"/>
     <use xlink:href="#m2962ac6df7" x="473.367526" y="139.066349" style="fill: #de8f05"/>
     <use xlink:href="#m2962ac6df7" x="491.049282" y="153.093533" style="fill: #de8f05"/>
     <use xlink:href="#m2962ac6df7" x="508.731037" y="164.479078" style="fill: #de8f05"/>
     <use xlink:href="#m2962ac6df7" x="526.412793" y="172.891531" style="fill: #de8f05"/>
     <use xlink:href="#m2962ac6df7" x="544.094549" y="178.968469" style="fill: #de8f05"/>
     <use xlink:href="#m2962ac6df7" x="561.776304" y="183.461552" style="fill: #de8f05"/>
     <use xlink:href="#m2962ac6df7" x="579.45806" y="186.899209" style="fill: #de8f05"/>
     <use xlink:href="#m2962ac6df7" x="597.139816" y="189.613876" style="fill: #de8f05"/>
     <use xlink:href="#m2962ac6df7" x="614.821571" y="191.815027" style="fill: #de8f05"/>
     <use xlink:href="#m2962ac6df7" x="632.503327" y="193.638845" style="fill: #de8f05"/>
     <use xlink:href="#m2962ac6df7" x="650.185083" y="195.177123" style="fill: #de8f05"/>
     <use xlink:href="#m2962ac6df7" x="667.866838" y="196.493863" style="fill: #de8f05"/>
     <use xlink:href="#m2962ac6df7" x="685.548594" y="197.635044" style="fill: #de8f05"/>
     <use xlink:href="#m2962ac6df7" x="703.23035" y="198.634569" style="fill: #de8f05"/>
     <use xlink:href="#m2962ac6df7" x="720.912105" y="199.51801" style="fill: #de8f05"/>
     <use xlink:href="#m2962ac6df7" x="738.593861" y="200.305034" style="fill: #de8f05"/>
     <use xlink:href="#m2962ac6df7" x="756.275617" y="201.011033" style="fill: #de8f05"/>
     <use xlink:href="#m2962ac6df7" x="773.957372" y="201.648233" style="fill: #de8f05"/>
     <use xlink:href="#m2962ac6df7" x="791.639128" y="202.226478" style="fill: #de8f05"/>
     <use xlink:href="#m2962ac6df7" x="809.320884" y="202.753789" style="fill: #de8f05"/>
     <use xlink:href="#m2962ac6df7" x="827.002639" y="203.236771" style="fill: #de8f05"/>
     <use xlink:href="#m2962ac6df7" x="844.684395" y="203.680916" style="fill: #de8f05"/>
     <use xlink:href="#m2962ac6df7" x="862.366151" y="204.090831" style="fill: #de8f05"/>
     <use xlink:href="#m2962ac6df7" x="880.047906" y="204.470412" style="fill: #de8f05"/>
     <use xlink:href="#m2962ac6df7" x="897.729662" y="204.822974" style="fill: #de8f05"/>
     <use xlink:href="#m2962ac6df7" x="915.411418" y="205.15136" style="fill: #de8f05"/>
     <use xlink:href="#m2962ac6df7" x="933.093173" y="205.458023" style="fill: #de8f05"/>
    </g>
   </g>
   <g id="line2d_6">
    <path d="M 66.687146 43.200583 
L 84.368901 54.769019 
L 102.050657 62.880441 
L 119.732413 69.510709 
L 137.414168 75.262356 
L 155.095924 80.416095 
L 172.77768 85.130013 
L 190.459435 89.503708 
L 208.141191 93.60483 
L 225.822947 97.481892 
L 243.504702 101.171154 
L 261.186458 104.700617 
L 278.868214 108.092493 
L 296.549969 111.364799 
L 314.231725 114.532434 
L 331.913481 117.607932 
L 349.595236 120.601995 
L 367.276992 123.523887 
L 384.958748 126.381738 
L 402.640503 129.182764 
L 420.322259 131.933452 
L 438.004015 134.639695 
L 455.68577 137.306916 
L 473.367526 139.94016 
L 491.049282 142.544177 
L 508.731037 145.123494 
L 526.412793 147.682479 
L 544.094549 150.225406 
L 561.776304 152.756507 
L 579.45806 155.280032 
L 597.139816 157.800313 
L 614.821571 160.321828 
L 632.503327 162.849274 
L 650.185083 165.387655 
L 667.866838 167.942383 
L 685.548594 170.519408 
L 703.23035 173.125377 
L 720.912105 175.767842 
L 738.593861 178.455539 
L 756.275617 181.198764 
L 773.957372 184.009907 
L 791.639128 186.904219 
L 809.320884 189.900969 
L 827.002639 193.025248 
L 844.684395 196.310948 
L 862.366151 199.806014 
L 880.047906 203.582487 
L 897.729662 207.758168 
L 915.411418 212.552188 
L 933.093173 218.477073 
" clip-path="url(#p6021414997)" style="fill: none; stroke: #949494; stroke-width: 6"/>
   </g>
   <g id="line2d_7">
    <path d="M 66.687146 78.235288 
L 66.687146 34.539222 
" clip-path="url(#p6021414997)" style="fill: none; stroke: #000000; stroke-width: 2"/>
   </g>
   <g id="line2d_8">
    <path d="M 211.08815 99.50941 
L 211.08815 31.094776 
" clip-path="url(#p6021414997)" style="fill: none; stroke: #000000; stroke-width: 2"/>
   </g>
   <g id="line2d_9">
    <path d="M 355.489155 135.53651 
L 355.489155 10.200193 
" clip-path="url(#p6021414997)" style="fill: none; stroke: #000000; stroke-width: 2"/>
   </g>
   <g id="line2d_10">
    <path d="M 499.89016 200.668947 
L 499.89016 120.136679 
" clip-path="url(#p6021414997)" style="fill: none; stroke: #000000; stroke-width: 2"/>
   </g>
   <g id="line2d_11">
    <path d="M 644.291164 243.943738 
L 644.291164 147.523796 
" clip-path="url(#p6021414997)" style="fill: none; stroke: #000000; stroke-width: 2"/>
   </g>
   <g id="line2d_12">
    <path d="M 788.692169 238.331469 
L 788.692169 166.439138 
" clip-path="url(#p6021414997)" style="fill: none; stroke: #000000; stroke-width: 2"/>
   </g>
   <g id="line2d_13">
    <path d="M 933.093173 255.71842 
L 933.093173 159.134377 
" clip-path="url(#p6021414997)" style="fill: none; stroke: #000000; stroke-width: 2"/>
   </g>
   <g id="PathCollection_2">
    <defs>
     <path id="mec0ce581e4" d="M 8 0 
L -8 -0 
" style="stroke: #000000; stroke-width: 2"/>
    </defs>
    <g clip-path="url(#p6021414997)">
     <use xlink:href="#mec0ce581e4" x="66.687146" y="78.235288" style="stroke: #000000; stroke-width: 2"/>
     <use xlink:href="#mec0ce581e4" x="66.687146" y="34.539222" style="stroke: #000000; stroke-width: 2"/>
    </g>
   </g>
   <g id="PathCollection_3">
    <g clip-path="url(#p6021414997)">
     <use xlink:href="#mec0ce581e4" x="211.08815" y="99.50941" style="stroke: #000000; stroke-width: 2"/>
     <use xlink:href="#mec0ce581e4" x="211.08815" y="31.094776" style="stroke: #000000; stroke-width: 2"/>
    </g>
   </g>
   <g id="PathCollection_4">
    <g clip-path="url(#p6021414997)">
     <use xlink:href="#mec0ce581e4" x="355.489155" y="135.53651" style="stroke: #000000; stroke-width: 2"/>
     <use xlink:href="#mec0ce581e4" x="355.489155" y="10.200193" style="stroke: #000000; stroke-width: 2"/>
    </g>
   </g>
   <g id="PathCollection_5">
    <g clip-path="url(#p6021414997)">
     <use xlink:href="#mec0ce581e4" x="499.89016" y="200.668947" style="stroke: #000000; stroke-width: 2"/>
     <use xlink:href="#mec0ce581e4" x="499.89016" y="120.136679" style="stroke: #000000; stroke-width: 2"/>
    </g>
   </g>
   <g id="PathCollection_6">
    <g clip-path="url(#p6021414997)">
     <use xlink:href="#mec0ce581e4" x="644.291164" y="243.943738" style="stroke: #000000; stroke-width: 2"/>
     <use xlink:href="#mec0ce581e4" x="644.291164" y="147.523796" style="stroke: #000000; stroke-width: 2"/>
    </g>
   </g>
   <g id="PathCollection_7">
    <g clip-path="url(#p6021414997)">
     <use xlink:href="#mec0ce581e4" x="788.692169" y="238.331469" style="stroke: #000000; stroke-width: 2"/>
     <use xlink:href="#mec0ce581e4" x="788.692169" y="166.439138" style="stroke: #000000; stroke-width: 2"/>
    </g>
   </g>
   <g id="PathCollection_8">
    <g clip-path="url(#p6021414997)">
     <use xlink:href="#mec0ce581e4" x="933.093173" y="255.71842" style="stroke: #000000; stroke-width: 2"/>
     <use xlink:href="#mec0ce581e4" x="933.093173" y="159.134377" style="stroke: #000000; stroke-width: 2"/>
    </g>
   </g>
   <g id="PathCollection_9">
    <defs>
     <path id="m890b087cc4" d="M 0 8 
C 2.121625 8 4.156639 7.15707 5.656854 5.656854 
C 7.15707 4.156639 8 2.121625 8 0 
C 8 -2.121625 7.15707 -4.156639 5.656854 -5.656854 
C 4.156639 -7.15707 2.121625 -8 0 -8 
C -2.121625 -8 -4.156639 -7.15707 -5.656854 -5.656854 
C -7.15707 -4.156639 -8 -2.121625 -8 0 
C -8 2.121625 -7.15707 4.156639 -5.656854 5.656854 
C -4.156639 7.15707 -2.121625 8 0 8 
z
" style="stroke: #000000; stroke-width: 2"/>
    </defs>
    <g clip-path="url(#p6021414997)">
     <use xlink:href="#m890b087cc4" x="66.687146" y="56.387255" style="fill: #cc78bc; stroke: #000000; stroke-width: 2"/>
     <use xlink:href="#m890b087cc4" x="211.08815" y="65.302093" style="fill: #cc78bc; stroke: #000000; stroke-width: 2"/>
     <use xlink:href="#m890b087cc4" x="355.489155" y="72.868351" style="fill: #cc78bc; stroke: #000000; stroke-width: 2"/>
     <use xlink:href="#m890b087cc4" x="499.89016" y="160.402813" style="fill: #cc78bc; stroke: #000000; stroke-width: 2"/>
     <use xlink:href="#m890b087cc4" x="644.291164" y="195.733767" style="fill: #cc78bc; stroke: #000000; stroke-width: 2"/>
     <use xlink:href="#m890b087cc4" x="788.692169" y="202.385304" style="fill: #cc78bc; stroke: #000000; stroke-width: 2"/>
     <use xlink:href="#m890b087cc4" x="933.093173" y="207.426398" style="fill: #cc78bc; stroke: #000000; stroke-width: 2"/>
    </g>
   </g>
  </g>
 </g>
 <defs>
  <clipPath id="p6021414997">
   <rect x="40.694965" y="2.834646" width="918.39039" height="260.249321"/>
  </clipPath>
 </defs>
</svg>
