<?xml version="1.0" encoding="utf-8" standalone="no"?>
<!DOCTYPE svg PUBLIC "-//W3C//DTD SVG 1.1//EN"
  "http://www.w3.org/Graphics/SVG/1.1/DTD/svg11.dtd">
<svg xmlns:xlink="http://www.w3.org/1999/xlink" width="907.2pt" height="172.8pt" viewBox="0 0 907.2 172.8" xmlns="http://www.w3.org/2000/svg" version="1.1">
 <metadata>
  <rdf:RDF xmlns:dc="http://purl.org/dc/elements/1.1/" xmlns:cc="http://creativecommons.org/ns#" xmlns:rdf="http://www.w3.org/1999/02/22-rdf-syntax-ns#">
   <cc:Work>
    <dc:type rdf:resource="http://purl.org/dc/dcmitype/StillImage"/>
    <dc:date>2024-07-18T10:43:06.599781</dc:date>
    <dc:format>image/svg+xml</dc:format>
    <dc:creator>
     <cc:Agent>
      <dc:title>Matplotlib v3.8.4, https://matplotlib.org/</dc:title>
     </cc:Agent>
    </dc:creator>
   </cc:Work>
  </rdf:RDF>
 </metadata>
 <defs>
  <style type="text/css">*{stroke-linejoin: round; stroke-linecap: butt}</style>
 </defs>
 <g id="figure_1">
  <g id="patch_1">
   <path d="M 0 172.8 
L 907.2 172.8 
L 907.2 0 
L 0 0 
L 0 172.8 
z
" style="fill: none"/>
  </g>
  <g id="axes_1">
   <g id="patch_2">
    <path d="M 41.316477 139.105354 
L 904.365354 139.105354 
L 904.365354 4.764246 
L 41.316477 4.764246 
L 41.316477 139.105354 
z
" style="fill: none"/>
   </g>
   <g id="line2d_1">
    <path d="M 65.742388 73.427479 
L 66.19472 73.562189 
L 66.647052 73.961829 
L 67.18985 74.779112 
L 67.823114 76.174489 
L 68.637311 78.61152 
L 69.541975 82.064066 
L 70.718037 87.495338 
L 72.346431 96.176379 
L 76.236484 117.28862 
L 77.593479 123.269467 
L 78.679075 127.150767 
L 79.674205 129.90036 
L 80.488402 131.535736 
L 81.212132 132.511577 
L 81.845397 132.99422 
L 82.388195 133.134192 
L 82.930993 133.025693 
L 83.473791 132.674727 
L 84.107055 131.969315 
L 84.830786 130.79173 
L 85.644983 129.025988 
L 86.640113 126.296895 
L 87.816175 122.380378 
L 89.354103 116.391701 
L 91.706228 106.157657 
L 94.963016 92.093679 
L 96.681876 85.666735 
L 98.038872 81.393032 
L 99.214934 78.368922 
L 100.210064 76.349805 
L 101.114727 74.965098 
L 101.928924 74.094748 
L 102.652655 73.622257 
L 103.285919 73.440458 
L 103.828717 73.490353 
L 104.281049 73.78838 
L 104.823847 74.45969 
L 105.457111 75.654778 
L 106.180842 77.525422 
L 107.085505 80.540633 
L 108.171102 84.990958 
L 109.618563 91.957731 
L 115.408409 121.079139 
L 116.674937 125.766052 
L 117.760533 128.929451 
L 118.665197 130.909153 
L 119.479394 132.159748 
L 120.112658 132.779937 
L 120.745923 133.092465 
L 121.288721 133.118484 
L 121.831519 132.925702 
L 122.464783 132.432007 
L 123.188514 131.527593 
L 124.002711 130.101406 
L 124.907374 128.050021 
L 125.99297 125.013844 
L 127.349965 120.48719 
L 129.068826 113.90586 
L 135.944268 86.58898 
L 137.391729 82.144417 
L 138.658258 78.933058 
L 139.743854 76.737773 
L 140.738984 75.203809 
L 141.643647 74.218197 
L 142.457844 73.667903 
L 143.181575 73.446217 
L 143.724373 73.466074 
L 144.176705 73.712631 
L 144.719503 74.301105 
L 145.352767 75.373133 
L 146.076498 77.073232 
L 146.981161 79.840699 
L 148.066757 83.963287 
L 149.423752 90.053606 
L 151.594944 100.982959 
L 154.399401 114.900846 
L 155.937329 121.438563 
L 157.203857 125.890372 
L 158.289454 128.915556 
L 159.194117 130.831487 
L 160.008314 132.066818 
L 160.732045 132.770531 
L 161.365309 133.08233 
L 161.908107 133.126418 
L 162.450905 132.968302 
L 163.08417 132.534886 
L 163.8079 131.723436 
L 164.622097 130.42892 
L 165.526761 128.551687 
L 166.612357 125.75296 
L 167.878886 121.848326 
L 169.50728 116.053339 
L 172.040337 106.059998 
L 175.568524 92.248957 
L 177.377851 86.068568 
L 178.825313 81.852348 
L 180.091841 78.797834 
L 181.177437 76.69914 
L 182.172567 75.220526 
L 183.077231 74.256919 
L 183.891428 73.703476 
L 184.615158 73.461212 
L 185.248423 73.459353 
L 185.700754 73.686402 
L 186.243552 74.239489 
L 186.876817 75.255182 
L 187.600547 76.873731 
L 188.505211 79.519002 
L 189.590807 83.475882 
L 190.947802 89.350892 
L 193.028528 99.5251 
L 196.19485 114.958398 
L 197.732777 121.363849 
L 198.999306 125.74813 
L 200.084902 128.751088 
L 200.989566 130.675161 
L 201.803763 131.938516 
L 202.527493 132.683009 
L 203.160758 133.042031 
L 203.794022 133.130866 
L 204.33682 132.995712 
L 204.970085 132.597746 
L 205.693815 131.837142 
L 206.508012 130.611197 
L 207.412676 128.821482 
L 208.498272 126.138733 
L 209.764801 122.376564 
L 211.393195 116.760841 
L 213.74532 107.713298 
L 217.816305 91.998159 
L 219.625632 85.936667 
L 221.073093 81.796837 
L 222.339622 78.791261 
L 223.425218 76.719583 
L 224.420348 75.253039 
L 225.325011 74.289778 
L 226.139208 73.728133 
L 226.862939 73.472025 
L 227.496203 73.444472 
L 227.948535 73.63744 
L 228.491333 74.146233 
L 229.124597 75.106657 
L 229.848328 76.659013 
L 230.752991 79.220064 
L 231.838587 83.078923 
L 233.195583 88.845054 
L 235.185842 98.450375 
L 238.623563 115.129463 
L 240.161491 121.478973 
L 241.428019 125.823317 
L 242.513615 128.798211 
L 243.418279 130.703785 
L 244.232476 131.954399 
L 244.956207 132.690621 
L 245.589471 133.044658 
L 246.222735 133.13048 
L 246.765533 132.994195 
L 247.398798 132.596445 
L 248.122529 131.837874 
L 248.936726 130.616123 
L 249.841389 128.832903 
L 250.926985 126.159656 
L 252.193514 122.409657 
L 253.821908 116.809156 
L 256.174033 107.778562 
L 260.335484 91.747398 
L 262.144811 85.7234 
L 263.592273 81.619513 
L 264.858801 78.64856 
L 265.944397 76.608112 
L 266.939527 75.17083 
L 267.844191 74.2342 
L 268.658388 73.696159 
L 269.382118 73.460455 
L 270.015383 73.458397 
L 270.467714 73.680485 
L 271.010512 74.222702 
L 271.643777 75.219974 
L 272.367507 76.811558 
L 273.272171 79.417218 
L 274.357767 83.322902 
L 275.714762 89.136735 
L 277.705022 98.788292 
L 281.142742 115.471126 
L 282.68067 121.787957 
L 283.947199 126.089155 
L 285.032795 129.015869 
L 285.937458 130.873943 
L 286.751655 132.076618 
L 287.475386 132.766552 
L 288.108651 133.077612 
L 288.651449 133.129021 
L 289.194247 132.985087 
L 289.827511 132.576174 
L 290.551242 131.802053 
L 291.365439 130.559561 
L 292.270102 128.749821 
L 293.355698 126.040998 
L 294.622227 122.246313 
L 296.250621 116.587577 
L 298.602746 107.482844 
L 302.583265 92.042274 
L 304.392592 85.946516 
L 305.840053 81.78679 
L 307.106582 78.770776 
L 308.192178 76.695683 
L 309.187308 75.23038 
L 310.091971 74.271554 
L 310.906168 73.716211 
L 311.629899 73.467184 
L 312.263163 73.449858 
L 312.715495 73.655652 
L 313.258293 74.18033 
L 313.891557 75.160326 
L 314.615288 76.736837 
L 315.519951 79.331149 
L 316.605547 83.234352 
L 317.962543 89.060932 
L 319.952802 98.755434 
L 323.390523 115.532 
L 324.928451 121.877073 
L 326.194979 126.187648 
L 327.280575 129.110228 
L 328.185239 130.95555 
L 328.999436 132.139364 
L 329.723167 132.806757 
L 330.356431 133.093817 
L 330.899229 133.121658 
L 331.442027 132.951582 
L 332.075291 132.509211 
L 332.799022 131.693442 
L 333.613219 130.400556 
L 334.517883 128.531672 
L 335.603479 125.749646 
L 336.870007 121.870082 
L 338.498402 116.110059 
L 340.940993 106.527635 
L 344.650113 92.052466 
L 346.459439 85.913292 
L 347.906901 81.731775 
L 349.17343 78.707658 
L 350.259026 76.634067 
L 351.254155 75.176822 
L 352.158819 74.230516 
L 352.973016 73.690275 
L 353.696747 73.457359 
L 354.330011 73.46465 
L 354.782343 73.699572 
L 355.325141 74.260098 
L 355.958405 75.282847 
L 356.682136 76.908913 
L 357.586799 79.565132 
L 358.672395 83.54044 
L 360.02939 89.449415 
L 362.110116 99.696777 
L 365.276438 115.243004 
L 366.814366 121.673525 
L 368.080895 126.050826 
L 369.166491 129.023339 
L 370.071154 130.903033 
L 370.885351 132.111125 
L 371.609082 132.794332 
L 372.242346 133.090594 
L 372.785144 133.12284 
L 373.327942 132.95398 
L 373.961207 132.50909 
L 374.684937 131.68548 
L 375.499134 130.377913 
L 376.403798 128.486279 
L 377.489394 125.669617 
L 378.755923 121.742485 
L 380.384317 115.916178 
L 382.917374 105.87403 
L 386.355095 92.353024 
L 388.164422 86.131379 
L 389.611883 81.888068 
L 390.878412 78.816063 
L 391.964008 76.707367 
L 392.959138 75.223358 
L 393.863801 74.257427 
L 394.677998 73.703368 
L 395.401729 73.461155 
L 396.034993 73.459297 
L 396.487325 73.686037 
L 397.030123 74.239178 
L 397.663388 75.256796 
L 398.387118 76.881646 
L 399.291782 79.543113 
L 400.377378 83.533726 
L 401.734373 89.472804 
L 403.724632 99.316518 
L 406.98142 115.398978 
L 408.519348 121.841305 
L 409.785877 126.211132 
L 410.871473 129.163698 
L 411.776136 131.0171 
L 412.590334 132.194259 
L 413.314064 132.844539 
L 413.947329 133.108139 
L 414.490127 133.1098 
L 415.032925 132.908231 
L 415.666189 132.422866 
L 416.38992 131.550532 
L 417.204117 130.185925 
L 418.10878 128.229497 
L 419.194376 125.335341 
L 420.551371 121.012616 
L 422.270232 114.699309 
L 425.165155 103.031725 
L 427.969611 92.037702 
L 429.778938 85.822127 
L 431.226399 81.604456 
L 432.492928 78.569762 
L 433.578524 76.503352 
L 434.573654 75.065626 
L 435.478317 74.147216 
L 436.292514 73.639675 
L 437.016245 73.441252 
L 437.559043 73.474439 
L 438.011375 73.72743 
L 438.554173 74.313138 
L 439.187437 75.369808 
L 439.911168 77.039998 
L 440.815831 79.757907 
L 441.901427 83.813531 
L 443.258423 89.825188 
L 445.339148 100.211373 
L 448.415004 115.440817 
L 449.952932 121.906492 
L 451.21946 126.283895 
L 452.305056 129.23308 
L 453.20972 131.076306 
L 454.023917 132.238595 
L 454.747648 132.871277 
L 455.380912 133.116295 
L 455.92371 133.09984 
L 456.466508 132.87831 
L 457.099772 132.36758 
L 457.823503 131.463938 
L 458.6377 130.061812 
L 459.63283 127.837996 
L 460.718426 124.844619 
L 462.075421 120.411125 
L 463.794282 113.985824 
L 467.232002 100.01258 
L 469.674594 90.599474 
L 471.393454 84.841537 
L 472.750449 81.00167 
L 473.926512 78.260069 
L 475.012108 76.254166 
L 476.007237 74.878916 
L 476.821434 74.090862 
L 477.635632 73.608088 
L 478.359362 73.433914 
L 478.90216 73.503535 
L 479.354492 73.796342 
L 479.89729 74.430112 
L 480.530554 75.54259 
L 481.254285 77.275217 
L 482.158948 80.067428 
L 483.244545 84.203847 
L 484.60154 90.298794 
L 486.772732 101.230064 
L 489.577188 115.155401 
L 491.115116 121.689149 
L 492.381645 126.124295 
L 493.467241 129.120808 
L 494.371904 131.00032 
L 495.186101 132.191957 
L 495.909832 132.847646 
L 496.543096 133.110194 
L 497.085894 133.106734 
L 497.628693 132.896277 
L 498.261957 132.396018 
L 498.985688 131.501142 
L 499.799885 130.104919 
L 500.704548 128.106882 
L 501.790144 125.1561 
L 503.147139 120.756906 
L 504.866 114.34708 
L 508.032322 101.437332 
L 510.655845 91.177077 
L 512.374706 85.31575 
L 513.822167 81.148133 
L 515.088696 78.179719 
L 516.174292 76.185586 
L 517.169422 74.825363 
L 517.983619 74.052445 
L 518.797816 73.587171 
L 519.521547 73.430357 
L 519.973878 73.490655 
L 520.42621 73.768473 
L 520.969008 74.38632 
L 521.602272 75.483158 
L 522.326003 77.201826 
L 523.230667 79.982349 
L 524.316263 84.112658 
L 525.673258 90.210475 
L 527.84445 101.163662 
L 530.648906 115.129508 
L 532.186834 121.682587 
L 533.453363 126.129088 
L 534.538959 129.131098 
L 535.443622 131.011891 
L 536.257819 132.202045 
L 536.98155 132.854347 
L 537.614815 133.112397 
L 538.157613 133.104005 
L 538.700411 132.887689 
L 539.333675 132.379525 
L 540.057406 131.474369 
L 540.871603 130.06527 
L 541.776266 128.05171 
L 542.861862 125.08131 
L 544.218857 120.657398 
L 545.937718 114.218513 
L 549.194506 100.9014 
L 551.727563 91.005786 
L 553.446424 85.155249 
L 554.893885 81.005803 
L 556.069948 78.24758 
L 557.155544 76.233248 
L 558.150674 74.856449 
L 558.964871 74.071601 
L 559.779068 73.596028 
L 560.502798 73.431522 
L 561.045596 73.519605 
L 561.497928 73.832361 
L 562.040726 74.491746 
L 562.673991 75.635906 
L 563.397721 77.406268 
L 564.302385 80.24638 
L 565.387981 84.438599 
L 566.835442 91.03342 
L 569.278033 103.468078 
L 571.720624 115.530173 
L 573.258552 122.027002 
L 574.434615 126.130301 
L 575.520211 129.135217 
L 576.424874 131.016809 
L 577.239071 132.206418 
L 577.962802 132.857266 
L 578.596066 133.113336 
L 579.138864 133.102759 
L 579.681662 132.883843 
L 580.314927 132.372175 
L 581.038657 131.462476 
L 581.852854 130.047711 
L 582.757518 128.027357 
L 583.843114 125.048431 
L 585.200109 120.613859 
L 586.918969 114.162552 
L 590.175758 100.829511 
L 592.708815 90.931717 
L 594.427676 85.085712 
L 595.875137 80.94396 
L 597.051199 78.194543 
L 598.136796 76.190273 
L 599.131925 74.824226 
L 599.946122 74.049185 
L 600.760319 73.58425 
L 601.48405 73.429835 
L 601.936382 73.495245 
L 602.388714 73.780042 
L 602.931512 74.407541 
L 603.564776 75.517086 
L 604.288507 77.251674 
L 605.19317 80.05326 
L 606.278766 84.208914 
L 607.635761 90.335637 
L 609.806953 101.32112 
L 612.61141 115.291811 
L 614.149338 121.828347 
L 615.415866 126.251959 
L 616.410996 129.011271 
L 617.31566 130.92591 
L 618.129857 132.145904 
L 618.853587 132.823855 
L 619.486852 133.103444 
L 620.02965 133.112715 
L 620.572448 132.913229 
L 621.205712 132.423548 
L 621.929443 131.537873 
L 622.74364 130.14845 
L 623.648303 128.153829 
L 624.733899 125.201957 
L 626.090894 120.794698 
L 627.809755 114.366796 
L 630.976077 101.413889 
L 633.599601 91.12279 
L 635.318461 85.249642 
L 636.765922 81.079294 
L 637.941985 78.303826 
L 639.027581 76.27402 
L 640.022711 74.883878 
L 640.836908 74.088987 
L 641.651105 73.604366 
L 642.374836 73.432795 
L 642.917634 73.511406 
L 643.369965 73.815611 
L 643.912763 74.465724 
L 644.546028 75.600385 
L 645.269758 77.361542 
L 646.174422 80.192433 
L 647.260018 84.376576 
L 648.707479 90.964937 
L 651.15007 103.397563 
L 653.592662 115.466552 
L 655.130589 121.971828 
L 656.306652 126.083669 
L 657.392248 129.098029 
L 658.296911 130.98858 
L 659.111108 132.187039 
L 659.834839 132.846319 
L 660.468103 133.110151 
L 661.010901 133.106472 
L 661.553699 132.894643 
L 662.186964 132.391424 
L 662.910695 131.491538 
L 663.724892 130.087871 
L 664.629555 128.079722 
L 665.715151 125.114919 
L 667.072146 120.696564 
L 668.791007 114.262277 
L 671.957328 101.316385 
L 674.490386 91.375393 
L 676.209246 85.471089 
L 677.656708 81.26564 
L 678.923237 78.26503 
L 680.008833 76.245244 
L 681.003962 74.863909 
L 681.818159 74.075889 
L 682.632357 73.5978 
L 683.356087 73.431733 
L 683.898885 73.518365 
L 684.351217 73.830175 
L 684.894015 74.488903 
L 685.527279 75.632772 
L 686.25101 77.403166 
L 687.155673 80.243439 
L 688.24127 84.435435 
L 689.688731 91.028434 
L 692.131322 103.455575 
L 694.573913 115.50801 
L 696.111841 122.000814 
L 697.287904 126.103527 
L 698.3735 129.110484 
L 699.278163 130.995956 
L 700.09236 132.190867 
L 700.816091 132.847888 
L 701.449355 133.110468 
L 701.992153 133.106261 
L 702.534951 132.894404 
L 703.168216 132.391773 
L 703.891946 131.493338 
L 704.706143 130.092223 
L 705.610807 128.087912 
L 706.696403 125.128845 
L 708.053398 120.718833 
L 709.772258 114.295779 
L 712.93858 101.367272 
L 715.562104 91.100662 
L 717.280965 85.241075 
L 718.728426 81.07913 
L 719.904488 78.308031 
L 720.990084 76.28019 
L 721.985214 74.890129 
L 722.799411 74.094151 
L 723.613608 73.607498 
L 724.337339 73.433417 
L 724.880137 73.507525 
L 725.332469 73.806924 
L 725.875267 74.450906 
L 726.508531 75.577942 
L 727.232262 77.329834 
L 728.136925 80.148508 
L 729.222521 84.317517 
L 730.669983 90.886147 
L 733.022108 102.825177 
L 735.555165 115.351505 
L 737.093093 121.862976 
L 738.359622 126.268873 
L 739.445218 129.234195 
L 740.349881 131.084567 
L 741.164078 132.248351 
L 741.797342 132.820594 
L 742.430607 133.101979 
L 742.973405 133.114201 
L 743.516203 132.918937 
L 744.149467 132.43571 
L 744.873198 131.559286 
L 745.687395 130.182396 
L 746.592058 128.203895 
L 747.677655 125.2736 
L 749.03465 120.895082 
L 750.75351 114.502953 
L 753.829366 101.970328 
L 756.452889 91.652788 
L 758.17175 85.723345 
L 759.619211 81.484352 
L 760.88574 78.446168 
L 761.971336 76.388973 
L 762.966466 74.969891 
L 763.871129 74.076887 
L 764.685326 73.598948 
L 765.409057 73.432003 
L 765.951855 73.516138 
L 766.404187 73.82498 
L 766.946985 74.4795 
L 767.580249 75.617614 
L 768.30398 77.380423 
L 769.208643 80.209975 
L 770.294239 84.387884 
L 771.741701 90.961579 
L 774.184292 103.361213 
L 776.626883 115.40215 
L 778.164811 121.899654 
L 779.43134 126.294361 
L 780.426469 129.035076 
L 781.331133 130.936945 
L 782.14533 132.149298 
L 782.869061 132.823733 
L 783.502325 133.102838 
L 784.045123 133.113616 
L 784.587921 132.917377 
L 785.221185 132.4336 
L 785.944916 131.557292 
L 786.759113 130.181422 
L 787.663777 128.205049 
L 788.749373 125.278473 
L 790.106368 120.905928 
L 791.825228 114.522472 
L 794.810617 102.3751 
L 797.524608 91.693522 
L 799.243468 85.764237 
L 800.690929 81.522388 
L 801.957458 78.479441 
L 803.043054 76.416557 
L 804.038184 74.991058 
L 804.942847 74.091327 
L 805.757044 73.606699 
L 806.480775 73.433377 
L 807.023573 73.507414 
L 807.475905 73.806154 
L 808.018703 74.448604 
L 808.651967 75.572868 
L 809.375698 77.320395 
L 810.280361 80.132067 
L 811.365957 84.290966 
L 812.813419 90.844653 
L 815.165544 102.761271 
L 817.698601 115.275146 
L 819.236529 121.788443 
L 820.503058 126.202004 
L 821.588654 129.178365 
L 822.493317 131.040941 
L 823.307514 132.217854 
L 824.031245 132.861251 
L 824.664509 133.113883 
L 825.207307 133.102671 
L 825.750105 132.885232 
L 826.38337 132.377885 
L 827.107101 131.476378 
L 827.921298 130.074631 
L 828.825961 128.072851 
L 829.911557 125.120748 
L 831.268552 120.724206 
L 832.987413 114.32299 
L 836.153734 101.435841 
L 838.777258 91.191131 
L 840.496119 85.334995 
L 841.94358 81.16806 
L 843.210109 78.197634 
L 844.295705 76.200187 
L 845.290835 74.836021 
L 846.105032 74.05953 
L 846.919229 73.590645 
L 847.64296 73.430813 
L 848.095291 73.487613 
L 848.547623 73.761565 
L 849.090421 74.374994 
L 849.723685 75.466768 
L 850.447416 77.17948 
L 851.352079 79.951921 
L 852.437676 84.071199 
L 853.794671 90.153145 
L 855.965863 101.078798 
L 858.770319 115.018397 
L 860.308247 121.569258 
L 861.574776 126.023468 
L 862.660372 129.03991 
L 863.565035 130.9385 
L 864.379232 132.149128 
L 865.102963 132.823032 
L 865.736227 133.102446 
L 866.279025 133.114046 
L 866.821823 132.919125 
L 867.455088 132.437476 
L 868.178819 131.564315 
L 868.993016 130.192789 
L 869.897679 128.222064 
L 870.983275 125.303095 
L 872.34027 120.940724 
L 874.059131 114.569984 
L 877.04452 102.439815 
L 879.75851 91.76378 
L 879.939443 91.100935 
L 879.939443 91.100935 
" clip-path="url(#pb6b7d50e49)" style="fill: none; stroke: #009afa; stroke-opacity: 0.5; stroke-width: 4"/>
   </g>
   <g id="matplotlib.axis_1">
    <g id="xtick_1">
     <g id="line2d_2">
      <defs>
       <path id="m34cda40deb" d="M 0 0 
L 0 -5 
" style="stroke: #000000"/>
      </defs>
      <g>
       <use xlink:href="#m34cda40deb" x="65.742388" y="139.105354" style="stroke: #000000"/>
      </g>
     </g>
     <g id="text_1">
      <!-- $0$ -->
      <g transform="translate(58.742388 163.880979) scale(0.28 -0.28)">
       <defs>
        <path id="Cmr10-30" d="M 1600 -141 
Q 816 -141 533 504 
Q 250 1150 250 2041 
Q 250 2597 351 3087 
Q 453 3578 754 3920 
Q 1056 4263 1600 4263 
Q 2022 4263 2290 4056 
Q 2559 3850 2700 3523 
Q 2841 3197 2892 2823 
Q 2944 2450 2944 2041 
Q 2944 1491 2842 1011 
Q 2741 531 2444 195 
Q 2147 -141 1600 -141 
z
M 1600 25 
Q 1956 25 2131 390 
Q 2306 756 2347 1200 
Q 2388 1644 2388 2144 
Q 2388 2625 2347 3031 
Q 2306 3438 2132 3767 
Q 1959 4097 1600 4097 
Q 1238 4097 1063 3765 
Q 888 3434 847 3029 
Q 806 2625 806 2144 
Q 806 1788 823 1472 
Q 841 1156 916 820 
Q 991 484 1158 254 
Q 1325 25 1600 25 
z
" transform="scale(0.015625)"/>
       </defs>
       <use xlink:href="#Cmr10-30" transform="translate(0 0.390625)"/>
      </g>
     </g>
    </g>
    <g id="xtick_2">
     <g id="line2d_3">
      <g>
       <use xlink:href="#m34cda40deb" x="246.675067" y="139.105354" style="stroke: #000000"/>
      </g>
     </g>
     <g id="text_2">
      <!-- $2$ -->
      <g transform="translate(239.675067 163.880979) scale(0.28 -0.28)">
       <defs>
        <path id="Cmr10-32" d="M 319 0 
L 319 172 
Q 319 188 331 206 
L 1325 1306 
Q 1550 1550 1690 1715 
Q 1831 1881 1968 2097 
Q 2106 2313 2186 2536 
Q 2266 2759 2266 3009 
Q 2266 3272 2169 3511 
Q 2072 3750 1880 3894 
Q 1688 4038 1416 4038 
Q 1138 4038 916 3870 
Q 694 3703 603 3438 
Q 628 3444 672 3444 
Q 816 3444 917 3347 
Q 1019 3250 1019 3097 
Q 1019 2950 917 2848 
Q 816 2747 672 2747 
Q 522 2747 420 2851 
Q 319 2956 319 3097 
Q 319 3338 409 3548 
Q 500 3759 670 3923 
Q 841 4088 1055 4175 
Q 1269 4263 1509 4263 
Q 1875 4263 2190 4108 
Q 2506 3953 2690 3670 
Q 2875 3388 2875 3009 
Q 2875 2731 2753 2481 
Q 2631 2231 2440 2026 
Q 2250 1822 1953 1562 
Q 1656 1303 1563 1216 
L 838 519 
L 1453 519 
Q 1906 519 2211 526 
Q 2516 534 2534 550 
Q 2609 631 2688 1141 
L 2875 1141 
L 2694 0 
L 319 0 
z
" transform="scale(0.015625)"/>
       </defs>
       <use xlink:href="#Cmr10-32" transform="translate(0 0.390625)"/>
      </g>
     </g>
    </g>
    <g id="xtick_3">
     <g id="line2d_4">
      <g>
       <use xlink:href="#m34cda40deb" x="427.607746" y="139.105354" style="stroke: #000000"/>
      </g>
     </g>
     <g id="text_3">
      <!-- $4$ -->
      <g transform="translate(420.607746 163.880979) scale(0.28 -0.28)">
       <defs>
        <path id="Cmr10-34" d="M 178 1056 
L 178 1281 
L 2156 4231 
Q 2178 4263 2222 4263 
L 2316 4263 
Q 2388 4263 2388 4191 
L 2388 1281 
L 3016 1281 
L 3016 1056 
L 2388 1056 
L 2388 428 
Q 2388 297 2575 261 
Q 2763 225 3009 225 
L 3009 0 
L 1247 0 
L 1247 225 
Q 1494 225 1681 261 
Q 1869 297 1869 428 
L 1869 1056 
L 178 1056 
z
M 391 1281 
L 1906 1281 
L 1906 3547 
L 391 1281 
z
" transform="scale(0.015625)"/>
       </defs>
       <use xlink:href="#Cmr10-34" transform="translate(0 0.390625)"/>
      </g>
     </g>
    </g>
    <g id="xtick_4">
     <g id="line2d_5">
      <g>
       <use xlink:href="#m34cda40deb" x="608.540425" y="139.105354" style="stroke: #000000"/>
      </g>
     </g>
     <g id="text_4">
      <!-- $6$ -->
      <g transform="translate(601.540425 163.880979) scale(0.28 -0.28)">
       <defs>
        <path id="Cmr10-36" d="M 1600 -141 
Q 1203 -141 937 70 
Q 672 281 526 617 
Q 381 953 325 1322 
Q 269 1691 269 2069 
Q 269 2575 466 3084 
Q 663 3594 1045 3928 
Q 1428 4263 1953 4263 
Q 2172 4263 2361 4180 
Q 2550 4097 2658 3936 
Q 2766 3775 2766 3547 
Q 2766 3416 2677 3327 
Q 2588 3238 2456 3238 
Q 2331 3238 2240 3328 
Q 2150 3419 2150 3547 
Q 2150 3672 2240 3762 
Q 2331 3853 2456 3853 
L 2491 3853 
Q 2409 3969 2261 4023 
Q 2113 4078 1953 4078 
Q 1759 4078 1595 3993 
Q 1431 3909 1300 3765 
Q 1169 3622 1081 3448 
Q 994 3275 945 3053 
Q 897 2831 884 2637 
Q 872 2444 872 2150 
Q 984 2413 1190 2580 
Q 1397 2747 1656 2747 
Q 1941 2747 2175 2631 
Q 2409 2516 2578 2311 
Q 2747 2106 2836 1843 
Q 2925 1581 2925 1313 
Q 2925 938 2758 598 
Q 2591 259 2287 59 
Q 1984 -141 1600 -141 
z
M 1600 63 
Q 1847 63 1997 175 
Q 2147 288 2217 473 
Q 2288 659 2305 848 
Q 2322 1038 2322 1313 
Q 2322 1675 2287 1931 
Q 2253 2188 2100 2383 
Q 1947 2578 1631 2578 
Q 1372 2578 1205 2403 
Q 1038 2228 961 1961 
Q 884 1694 884 1447 
Q 884 1363 891 1319 
Q 891 1309 889 1303 
Q 888 1297 884 1288 
Q 884 1013 940 731 
Q 997 450 1156 256 
Q 1316 63 1600 63 
z
" transform="scale(0.015625)"/>
       </defs>
       <use xlink:href="#Cmr10-36" transform="translate(0 0.390625)"/>
      </g>
     </g>
    </g>
    <g id="xtick_5">
     <g id="line2d_6">
      <g>
       <use xlink:href="#m34cda40deb" x="789.473103" y="139.105354" style="stroke: #000000"/>
      </g>
     </g>
     <g id="text_5">
      <!-- $8$ -->
      <g transform="translate(782.473103 163.880979) scale(0.28 -0.28)">
       <defs>
        <path id="Cmr10-38" d="M 269 972 
Q 269 1356 522 1651 
Q 775 1947 1172 2144 
L 934 2297 
Q 716 2441 578 2680 
Q 441 2919 441 3181 
Q 441 3488 602 3734 
Q 763 3981 1030 4122 
Q 1297 4263 1600 4263 
Q 1884 4263 2148 4147 
Q 2413 4031 2583 3815 
Q 2753 3600 2753 3303 
Q 2753 3088 2651 2903 
Q 2550 2719 2373 2572 
Q 2197 2425 1997 2322 
L 2363 2088 
Q 2616 1922 2770 1653 
Q 2925 1384 2925 1088 
Q 2925 741 2739 456 
Q 2553 172 2247 15 
Q 1941 -141 1600 -141 
Q 1269 -141 961 -6 
Q 653 128 461 383 
Q 269 638 269 972 
z
M 616 972 
Q 616 719 755 509 
Q 894 300 1122 181 
Q 1350 63 1600 63 
Q 1972 63 2275 280 
Q 2578 497 2578 856 
Q 2578 978 2529 1098 
Q 2481 1219 2395 1317 
Q 2309 1416 2203 1478 
L 1344 2034 
Q 1144 1928 976 1765 
Q 809 1603 712 1400 
Q 616 1197 616 972 
z
M 1056 2925 
L 1831 2425 
Q 2100 2581 2272 2803 
Q 2444 3025 2444 3303 
Q 2444 3519 2323 3698 
Q 2203 3878 2009 3978 
Q 1816 4078 1594 4078 
Q 1400 4078 1203 4003 
Q 1006 3928 878 3779 
Q 750 3631 750 3431 
Q 750 3131 1056 2925 
z
" transform="scale(0.015625)"/>
       </defs>
       <use xlink:href="#Cmr10-38" transform="translate(0 0.390625)"/>
      </g>
     </g>
    </g>
   </g>
   <g id="matplotlib.axis_2">
    <g id="ytick_1">
     <g id="line2d_7">
      <defs>
       <path id="ma277fa38ba" d="M 0 0 
L 5 0 
" style="stroke: #000000"/>
      </defs>
      <g>
       <use xlink:href="#ma277fa38ba" x="41.316477" y="133.134638" style="stroke: #000000"/>
      </g>
     </g>
     <g id="text_6">
      <!-- $-1$ -->
      <g transform="translate(1.976477 143.772451) scale(0.28 -0.28)">
       <defs>
        <path id="Cmsy10-a1" d="M 653 1472 
Q 600 1472 565 1512 
Q 531 1553 531 1600 
Q 531 1647 565 1687 
Q 600 1728 653 1728 
L 4325 1728 
Q 4375 1728 4408 1687 
Q 4441 1647 4441 1600 
Q 4441 1553 4408 1512 
Q 4375 1472 4325 1472 
L 653 1472 
z
" transform="scale(0.015625)"/>
        <path id="Cmr10-31" d="M 594 0 
L 594 225 
Q 1394 225 1394 428 
L 1394 3788 
Q 1063 3628 556 3628 
L 556 3853 
Q 1341 3853 1741 4263 
L 1831 4263 
Q 1853 4263 1873 4245 
Q 1894 4228 1894 4206 
L 1894 428 
Q 1894 225 2694 225 
L 2694 0 
L 594 0 
z
" transform="scale(0.015625)"/>
       </defs>
       <use xlink:href="#Cmsy10-a1" transform="translate(0 0.390625)"/>
       <use xlink:href="#Cmr10-31" transform="translate(77.685547 0.390625)"/>
      </g>
     </g>
    </g>
    <g id="ytick_2">
     <g id="line2d_8">
      <g>
       <use xlink:href="#ma277fa38ba" x="41.316477" y="103.281059" style="stroke: #000000"/>
      </g>
     </g>
     <g id="text_7">
      <!-- $0$ -->
      <g transform="translate(23.816477 113.918871) scale(0.28 -0.28)">
       <use xlink:href="#Cmr10-30" transform="translate(0 0.390625)"/>
      </g>
     </g>
    </g>
    <g id="ytick_3">
     <g id="line2d_9">
      <g>
       <use xlink:href="#ma277fa38ba" x="41.316477" y="73.427479" style="stroke: #000000"/>
      </g>
     </g>
     <g id="text_8">
      <!-- $1$ -->
      <g transform="translate(23.816477 84.065291) scale(0.28 -0.28)">
       <use xlink:href="#Cmr10-31" transform="translate(0 0.390625)"/>
      </g>
     </g>
    </g>
    <g id="ytick_4">
     <g id="line2d_10">
      <g>
       <use xlink:href="#ma277fa38ba" x="41.316477" y="43.573899" style="stroke: #000000"/>
      </g>
     </g>
     <g id="text_9">
      <!-- $2$ -->
      <g transform="translate(23.816477 54.211712) scale(0.28 -0.28)">
       <use xlink:href="#Cmr10-32" transform="translate(0 0.390625)"/>
      </g>
     </g>
    </g>
    <g id="ytick_5">
     <g id="line2d_11">
      <g>
       <use xlink:href="#ma277fa38ba" x="41.316477" y="13.72032" style="stroke: #000000"/>
      </g>
     </g>
     <g id="text_10">
      <!-- $3$ -->
      <g transform="translate(23.816477 24.358132) scale(0.28 -0.28)">
       <defs>
        <path id="Cmr10-33" d="M 609 494 
Q 759 275 1012 169 
Q 1266 63 1556 63 
Q 1928 63 2084 380 
Q 2241 697 2241 1100 
Q 2241 1281 2208 1462 
Q 2175 1644 2097 1800 
Q 2019 1956 1883 2050 
Q 1747 2144 1550 2144 
L 1125 2144 
Q 1069 2144 1069 2203 
L 1069 2259 
Q 1069 2309 1125 2309 
L 1478 2338 
Q 1703 2338 1851 2506 
Q 2000 2675 2069 2917 
Q 2138 3159 2138 3378 
Q 2138 3684 1994 3881 
Q 1850 4078 1556 4078 
Q 1313 4078 1091 3986 
Q 869 3894 738 3706 
Q 750 3709 759 3711 
Q 769 3713 781 3713 
Q 925 3713 1022 3613 
Q 1119 3513 1119 3372 
Q 1119 3234 1022 3134 
Q 925 3034 781 3034 
Q 641 3034 541 3134 
Q 441 3234 441 3372 
Q 441 3647 606 3850 
Q 772 4053 1033 4158 
Q 1294 4263 1556 4263 
Q 1750 4263 1965 4205 
Q 2181 4147 2356 4039 
Q 2531 3931 2642 3762 
Q 2753 3594 2753 3378 
Q 2753 3109 2633 2881 
Q 2513 2653 2303 2487 
Q 2094 2322 1844 2241 
Q 2122 2188 2372 2031 
Q 2622 1875 2773 1631 
Q 2925 1388 2925 1106 
Q 2925 753 2731 467 
Q 2538 181 2222 20 
Q 1906 -141 1556 -141 
Q 1256 -141 954 -26 
Q 653 88 461 316 
Q 269 544 269 863 
Q 269 1022 375 1128 
Q 481 1234 641 1234 
Q 744 1234 830 1186 
Q 916 1138 964 1050 
Q 1013 963 1013 863 
Q 1013 706 903 600 
Q 794 494 641 494 
L 609 494 
z
" transform="scale(0.015625)"/>
       </defs>
       <use xlink:href="#Cmr10-33" transform="translate(0 0.390625)"/>
      </g>
     </g>
    </g>
   </g>
   <g id="line2d_12">
    <path d="M 65.742388 86.694098 
L 67.370782 93.317315 
L 70.084773 105.500336 
L 72.708296 116.941538 
L 74.246224 122.746645 
L 75.512753 126.736295 
L 76.598349 129.463815 
L 77.503012 131.190289 
L 78.31721 132.28962 
L 79.04094 132.89075 
L 79.674205 133.120156 
L 80.217003 133.094614 
L 80.759801 132.864111 
L 81.393065 132.338333 
L 82.116796 131.404981 
L 82.930993 129.945015 
L 83.835656 127.840644 
L 84.921252 124.701115 
L 86.187781 120.302114 
L 87.816175 113.738331 
L 90.349233 102.4104 
L 93.244156 89.720748 
L 94.87255 83.588911 
L 96.139078 79.641344 
L 97.224674 76.955444 
L 98.129338 75.266701 
L 98.943535 74.203064 
L 99.667266 73.63458 
L 100.30053 73.434122 
L 100.843328 73.484545 
L 101.386126 73.739813 
L 102.01939 74.294106 
L 102.743121 75.259228 
L 103.557318 76.753425 
L 104.461982 78.893337 
L 105.547578 82.071131 
L 106.814106 86.507421 
L 108.442501 93.105416 
L 111.066024 104.863886 
L 113.780015 116.741008 
L 115.408409 122.888478 
L 116.674937 126.851873 
L 117.760533 129.553413 
L 118.665197 131.256325 
L 119.479394 132.33336 
L 120.203125 132.914093 
L 120.836389 133.125409 
L 121.379187 133.084316 
L 121.921985 132.838332 
L 122.555249 132.294726 
L 123.27898 131.341506 
L 124.093177 129.860128 
L 124.997841 127.733519 
L 126.083437 124.570037 
L 127.349965 120.147678 
L 128.97836 113.562435 
L 131.601883 101.81063 
L 134.40634 89.553908 
L 135.944268 83.758646 
L 137.210796 79.77948 
L 138.296393 77.062339 
L 139.201056 75.345282 
L 140.015253 74.254864 
L 140.738984 73.66189 
L 141.372248 73.439719 
L 141.915046 73.471482 
L 142.457844 73.708178 
L 143.091109 74.24109 
L 143.814839 75.182393 
L 144.629036 76.650931 
L 145.5337 78.764207 
L 146.619296 81.913332 
L 147.885825 86.321698 
L 149.514219 92.894095 
L 152.047276 104.226713 
L 154.942199 116.90817 
L 156.480127 122.718186 
L 157.746655 126.713068 
L 158.832252 129.445772 
L 159.736915 131.176949 
L 160.551112 132.280734 
L 161.274843 132.885941 
L 161.908107 133.118964 
L 162.450905 133.096532 
L 162.993703 132.869126 
L 163.626968 132.346917 
L 164.350698 131.417543 
L 165.164895 129.961866 
L 166.069559 127.861953 
L 167.155155 124.72723 
L 168.421684 120.33292 
L 169.959611 114.158786 
L 172.402202 103.273124 
L 175.478058 89.75418 
L 177.106452 83.617123 
L 178.372981 79.664274 
L 179.458577 76.973156 
L 180.36324 75.279687 
L 181.177437 74.211583 
L 181.901168 73.639015 
L 182.534432 73.434937 
L 183.077231 73.48225 
L 183.620029 73.734424 
L 184.253293 74.285156 
L 184.977024 75.246312 
L 185.791221 76.736238 
L 186.695884 78.871719 
L 187.78148 82.044748 
L 189.048009 86.476401 
L 190.676403 93.070155 
L 193.299927 104.826422 
L 196.013917 116.707512 
L 197.642311 122.860173 
L 198.90884 126.828831 
L 199.994436 129.535576 
L 200.899099 131.243206 
L 201.713296 132.324703 
L 202.437027 132.909518 
L 203.070292 133.124452 
L 203.61309 133.086469 
L 204.155888 132.843581 
L 204.789152 132.303539 
L 205.512883 131.35429 
L 206.32708 129.87719 
L 207.231743 127.755021 
L 208.317339 124.59632 
L 209.583868 120.178619 
L 211.212262 113.597647 
L 213.74532 102.260415 
L 216.549776 89.955221 
L 218.17817 83.787044 
L 219.444699 79.802633 
L 220.530295 77.0803 
L 221.434958 75.358533 
L 222.249155 74.263658 
L 222.972886 73.666605 
L 223.606151 73.440817 
L 224.148949 73.469469 
L 224.691747 73.703069 
L 225.325011 74.232414 
L 226.048742 75.169743 
L 226.862939 76.633996 
L 227.767602 78.742821 
L 228.853198 81.88715 
L 230.119727 86.290837 
L 231.748121 92.858932 
L 234.281179 104.189216 
L 237.176101 116.874781 
L 238.804496 123.001387 
L 240.071024 126.943665 
L 241.15662 129.624344 
L 242.061284 131.308358 
L 242.875481 132.367526 
L 243.508745 132.881085 
L 244.14201 133.117725 
L 244.684808 133.098404 
L 245.227606 132.874095 
L 245.86087 132.355455 
L 246.584601 131.43006 
L 247.398798 129.978675 
L 248.303461 127.883223 
L 249.389057 124.75331 
L 250.655586 120.3637 
L 252.193514 114.193713 
L 254.636105 103.310639 
L 257.711961 89.787634 
L 259.340355 83.645366 
L 260.606883 79.687241 
L 261.692479 76.99091 
L 262.597143 75.292718 
L 263.41134 74.220147 
L 264.135071 73.643496 
L 264.768335 73.435799 
L 265.311133 73.480003 
L 265.853931 73.729081 
L 266.487195 74.276251 
L 267.210926 75.233439 
L 268.025123 76.719092 
L 268.929787 78.850139 
L 270.015383 82.018397 
L 271.281911 86.445407 
L 272.910306 93.034911 
L 275.533829 104.788956 
L 278.24782 116.673995 
L 279.876214 122.831837 
L 281.142742 126.805753 
L 282.228338 129.517698 
L 283.133002 131.230043 
L 283.947199 132.316001 
L 284.67093 132.904896 
L 285.304194 133.123449 
L 285.846992 133.088576 
L 286.38979 132.848783 
L 287.023054 132.312306 
L 287.746785 131.367029 
L 288.560982 129.894209 
L 289.465646 127.776485 
L 290.551242 124.622569 
L 291.81777 120.209532 
L 293.446165 113.632843 
L 295.979222 102.297909 
L 298.874145 89.620579 
L 300.412073 83.815472 
L 301.678601 79.825822 
L 302.764198 77.098302 
L 303.668861 75.371829 
L 304.483058 74.272498 
L 305.206789 73.671367 
L 305.840053 73.441962 
L 306.382851 73.467503 
L 306.925649 73.698007 
L 307.558913 74.223784 
L 308.282644 75.157137 
L 309.096841 76.617102 
L 310.001505 78.721473 
L 311.087101 81.861002 
L 312.353629 86.260004 
L 313.982024 92.823786 
L 316.515081 104.151717 
L 319.410004 116.84137 
L 321.038398 122.973206 
L 322.304927 126.920773 
L 323.390523 129.606674 
L 324.295186 131.295416 
L 325.109383 132.359053 
L 325.833114 132.927537 
L 326.466378 133.127995 
L 327.009176 133.077572 
L 327.551974 132.822305 
L 328.185239 132.268011 
L 328.90897 131.302889 
L 329.723167 129.808693 
L 330.62783 127.668781 
L 331.713426 124.490986 
L 332.979955 120.054696 
L 334.608349 113.456702 
L 337.231873 101.698232 
L 339.945863 89.821109 
L 341.574257 83.67364 
L 342.840786 79.710245 
L 343.926382 77.008705 
L 344.831045 75.305793 
L 345.645242 74.228758 
L 346.368973 73.648024 
L 347.002237 73.436709 
L 347.545035 73.477802 
L 348.087834 73.723785 
L 348.721098 74.267392 
L 349.444829 75.220611 
L 350.259026 76.701989 
L 351.163689 78.828598 
L 352.249285 81.992081 
L 353.515814 86.414439 
L 355.144208 92.999683 
L 357.767732 104.751488 
L 360.572188 117.008209 
L 362.110116 122.803471 
L 363.376645 126.782637 
L 364.462241 129.499778 
L 365.366904 131.216835 
L 366.181101 132.307253 
L 366.904832 132.900227 
L 367.538096 133.122398 
L 368.080895 133.090636 
L 368.623693 132.853939 
L 369.256957 132.321028 
L 369.980688 131.379724 
L 370.794885 129.911187 
L 371.699548 127.79791 
L 372.785144 124.648785 
L 374.051673 120.24042 
L 375.680067 113.668022 
L 378.213125 102.335404 
L 381.108047 89.653947 
L 382.645975 83.843931 
L 383.912504 79.849049 
L 384.9981 77.116346 
L 385.902763 75.385168 
L 386.71696 74.281383 
L 387.440691 73.676176 
L 388.073956 73.443154 
L 388.616754 73.465585 
L 389.159552 73.692991 
L 389.792816 74.2152 
L 390.516547 75.144575 
L 391.330744 76.600251 
L 392.235407 78.700165 
L 393.321003 81.834888 
L 394.587532 86.229197 
L 396.12546 92.403332 
L 398.568051 103.288993 
L 401.643906 116.807937 
L 403.272301 122.944994 
L 404.538829 126.897843 
L 405.624425 129.588961 
L 406.529089 131.28243 
L 407.343286 132.350535 
L 408.067017 132.923103 
L 408.700281 133.12718 
L 409.243079 133.079867 
L 409.785877 132.827694 
L 410.419141 132.276962 
L 411.142872 131.315806 
L 411.957069 129.82588 
L 412.861733 127.690399 
L 413.947329 124.51737 
L 415.213857 120.085717 
L 416.842251 113.491962 
L 419.465775 101.735695 
L 422.179765 89.854605 
L 423.80816 83.701944 
L 425.074688 79.733286 
L 426.160284 77.026541 
L 427.064948 75.318912 
L 427.879145 74.237414 
L 428.602876 73.6526 
L 429.23614 73.437665 
L 429.778938 73.475648 
L 430.321736 73.718536 
L 430.955 74.258579 
L 431.678731 75.207828 
L 432.492928 76.684928 
L 433.397592 78.807096 
L 434.483188 81.965797 
L 435.749716 86.383499 
L 437.37811 92.964471 
L 439.911168 104.301702 
L 442.715625 116.606896 
L 444.344019 122.775074 
L 445.610547 126.759485 
L 446.696143 129.481818 
L 447.600807 131.203584 
L 448.415004 132.298459 
L 449.138735 132.895512 
L 449.771999 133.1213 
L 450.314797 133.092648 
L 450.857595 132.859048 
L 451.490859 132.329704 
L 452.21459 131.392375 
L 453.028787 129.928122 
L 453.933451 127.819296 
L 455.019047 124.674967 
L 456.285575 120.27128 
L 457.91397 113.703185 
L 460.447027 102.372901 
L 463.34195 89.687337 
L 464.970344 83.560731 
L 466.236873 79.618452 
L 467.322469 76.937773 
L 468.227132 75.253759 
L 469.041329 74.194591 
L 469.674594 73.681032 
L 470.307858 73.444393 
L 470.850656 73.463714 
L 471.393454 73.688022 
L 472.026718 74.206662 
L 472.750449 75.132057 
L 473.564646 76.583442 
L 474.46931 78.678895 
L 475.554906 81.808807 
L 476.821434 86.198417 
L 478.359362 92.368404 
L 480.801953 103.251478 
L 483.877809 116.774483 
L 485.506203 122.916752 
L 486.772732 126.874877 
L 487.858328 129.571208 
L 488.762991 131.269399 
L 489.577188 132.34197 
L 490.300919 132.918621 
L 490.934183 133.126318 
L 491.476981 133.082115 
L 492.019779 132.833036 
L 492.653044 132.285867 
L 493.376775 131.328678 
L 494.190972 129.843025 
L 495.095635 127.711978 
L 496.181231 124.54372 
L 497.44776 120.116711 
L 499.076154 113.527207 
L 501.699678 101.773161 
L 504.413668 89.888123 
L 506.042062 83.73028 
L 507.308591 79.756364 
L 508.394187 77.044419 
L 509.29885 75.332075 
L 510.113047 74.246116 
L 510.836778 73.657221 
L 511.470042 73.438669 
L 512.01284 73.473541 
L 512.555639 73.713334 
L 513.188903 74.249811 
L 513.912634 75.195088 
L 514.726831 76.667908 
L 515.631494 78.785632 
L 516.71709 81.939548 
L 517.983619 86.352585 
L 519.612013 92.929275 
L 522.14507 104.264208 
L 525.039993 116.941538 
L 526.577921 122.746645 
L 527.84445 126.736295 
L 528.930046 129.463815 
L 529.834709 131.190289 
L 530.648906 132.28962 
L 531.372637 132.89075 
L 532.005901 133.120156 
L 532.5487 133.094614 
L 533.091498 132.864111 
L 533.724762 132.338333 
L 534.448493 131.404981 
L 535.26269 129.945015 
L 536.167353 127.840644 
L 537.252949 124.701115 
L 538.519478 120.302114 
L 540.147872 113.738331 
L 542.68093 102.4104 
L 545.575852 89.720748 
L 547.204246 83.588911 
L 548.470775 79.641344 
L 549.556371 76.955444 
L 550.461035 75.266701 
L 551.275232 74.203064 
L 551.998962 73.63458 
L 552.632227 73.434122 
L 553.175025 73.484545 
L 553.717823 73.739813 
L 554.351087 74.294106 
L 555.074818 75.259228 
L 555.889015 76.753425 
L 556.793678 78.893337 
L 557.879275 82.071131 
L 559.145803 86.507421 
L 560.774197 93.105416 
L 563.397721 104.863886 
L 566.111711 116.741008 
L 567.740106 122.888478 
L 569.006634 126.851873 
L 570.09223 129.553413 
L 570.996894 131.256325 
L 571.811091 132.33336 
L 572.534822 132.914093 
L 573.168086 133.125409 
L 573.710884 133.084316 
L 574.253682 132.838332 
L 574.886946 132.294726 
L 575.610677 131.341506 
L 576.424874 129.860128 
L 577.329538 127.733519 
L 578.415134 124.570037 
L 579.681662 120.147678 
L 581.310056 113.562435 
L 583.93358 101.81063 
L 586.738037 89.553908 
L 588.275965 83.758646 
L 589.542493 79.77948 
L 590.628089 77.062339 
L 591.532753 75.345282 
L 592.34695 74.254864 
L 593.070681 73.66189 
L 593.703945 73.439719 
L 594.246743 73.471482 
L 594.789541 73.708178 
L 595.422805 74.24109 
L 596.146536 75.182393 
L 596.960733 76.650931 
L 597.865397 78.764207 
L 598.950993 81.913332 
L 600.217521 86.321698 
L 601.845915 92.894095 
L 604.378973 104.226713 
L 607.273896 116.90817 
L 608.811824 122.718186 
L 610.078352 126.713068 
L 611.163948 129.445772 
L 612.068612 131.176949 
L 612.882809 132.280734 
L 613.60654 132.885941 
L 614.239804 133.118964 
L 614.782602 133.096532 
L 615.3254 132.869126 
L 615.958664 132.346917 
L 616.682395 131.417543 
L 617.496592 129.961866 
L 618.401256 127.861953 
L 619.486852 124.72723 
L 620.75338 120.33292 
L 622.291308 114.158786 
L 624.733899 103.273124 
L 627.809755 89.75418 
L 629.438149 83.617123 
L 630.704678 79.664274 
L 631.790274 76.973156 
L 632.694937 75.279687 
L 633.509134 74.211583 
L 634.232865 73.639015 
L 634.866129 73.434937 
L 635.408927 73.48225 
L 635.951725 73.734424 
L 636.58499 74.285156 
L 637.308721 75.246312 
L 638.122918 76.736238 
L 639.027581 78.871719 
L 640.113177 82.044748 
L 641.379706 86.476401 
L 643.0081 93.070155 
L 645.631624 104.826422 
L 648.345614 116.707512 
L 649.974008 122.860173 
L 651.240537 126.828831 
L 652.326133 129.535576 
L 653.230796 131.243206 
L 654.044993 132.324703 
L 654.768724 132.909518 
L 655.401988 133.124452 
L 655.944786 133.086469 
L 656.487584 132.843581 
L 657.120849 132.303539 
L 657.84458 131.35429 
L 658.658777 129.87719 
L 659.56344 127.755021 
L 660.649036 124.59632 
L 661.915565 120.178619 
L 663.543959 113.597647 
L 666.077016 102.260415 
L 668.881473 89.955221 
L 670.509867 83.787044 
L 671.776396 79.802633 
L 672.861992 77.0803 
L 673.766655 75.358533 
L 674.580852 74.263658 
L 675.304583 73.666605 
L 675.937847 73.440817 
L 676.480645 73.469469 
L 677.023443 73.703069 
L 677.656708 74.232414 
L 678.380439 75.169743 
L 679.194636 76.633996 
L 680.099299 78.742821 
L 681.184895 81.88715 
L 682.451424 86.290837 
L 684.079818 92.858932 
L 686.612875 104.189216 
L 689.507798 116.874781 
L 691.136192 123.001387 
L 692.402721 126.943665 
L 693.488317 129.624344 
L 694.392981 131.308358 
L 695.207178 132.367526 
L 695.840442 132.881085 
L 696.473706 133.117725 
L 697.016504 133.098404 
L 697.559303 132.874095 
L 698.192567 132.355455 
L 698.916298 131.43006 
L 699.730495 129.978675 
L 700.635158 127.883223 
L 701.720754 124.75331 
L 702.987283 120.3637 
L 704.525211 114.193713 
L 706.967802 103.310639 
L 710.043657 89.787634 
L 711.672051 83.645366 
L 712.93858 79.687241 
L 714.024176 76.99091 
L 714.92884 75.292718 
L 715.743037 74.220147 
L 716.466767 73.643496 
L 717.100032 73.435799 
L 717.64283 73.480003 
L 718.185628 73.729081 
L 718.818892 74.276251 
L 719.542623 75.233439 
L 720.35682 76.719092 
L 721.261483 78.850139 
L 722.34708 82.018397 
L 723.613608 86.445407 
L 725.242002 93.034911 
L 727.865526 104.788956 
L 730.579516 116.673995 
L 732.207911 122.831837 
L 733.474439 126.805753 
L 734.560035 129.517698 
L 735.464699 131.230043 
L 736.278896 132.316001 
L 737.002626 132.904896 
L 737.635891 133.123449 
L 738.178689 133.088576 
L 738.721487 132.848783 
L 739.354751 132.312306 
L 740.078482 131.367029 
L 740.892679 129.894209 
L 741.797342 127.776485 
L 742.882939 124.622569 
L 744.149467 120.209532 
L 745.777861 113.632843 
L 748.310919 102.297909 
L 751.205842 89.620579 
L 752.74377 83.815472 
L 754.010298 79.825822 
L 755.095894 77.098302 
L 756.000558 75.371829 
L 756.814755 74.272498 
L 757.538486 73.671367 
L 758.17175 73.441962 
L 758.714548 73.467503 
L 759.257346 73.698007 
L 759.89061 74.223784 
L 760.614341 75.157137 
L 761.428538 76.617102 
L 762.333202 78.721473 
L 763.418798 81.861002 
L 764.685326 86.260004 
L 766.31372 92.823786 
L 768.846778 104.151717 
L 771.741701 116.84137 
L 773.370095 122.973206 
L 774.636624 126.920773 
L 775.72222 129.606674 
L 776.626883 131.295416 
L 777.44108 132.359053 
L 778.164811 132.927537 
L 778.798075 133.127995 
L 779.340873 133.077572 
L 779.883671 132.822305 
L 780.516936 132.268011 
L 781.240666 131.302889 
L 782.054864 129.808693 
L 782.959527 127.668781 
L 784.045123 124.490986 
L 785.311652 120.054696 
L 786.940046 113.456702 
L 789.56357 101.698232 
L 792.27756 89.821109 
L 793.905954 83.67364 
L 795.172483 79.710245 
L 796.258079 77.008705 
L 797.162742 75.305793 
L 797.976939 74.228758 
L 798.70067 73.648024 
L 799.333934 73.436709 
L 799.876732 73.477802 
L 800.41953 73.723785 
L 801.052795 74.267392 
L 801.776525 75.220611 
L 802.590723 76.701989 
L 803.495386 78.828598 
L 804.580982 81.992081 
L 805.847511 86.414439 
L 807.475905 92.999683 
L 810.099429 104.751488 
L 812.903885 117.008209 
L 814.441813 122.803471 
L 815.708342 126.782637 
L 816.793938 129.499778 
L 817.698601 131.216835 
L 818.512798 132.307253 
L 819.236529 132.900227 
L 819.869793 133.122398 
L 820.412591 133.090636 
L 820.955389 132.853939 
L 821.588654 132.321028 
L 822.312385 131.379724 
L 823.126582 129.911187 
L 824.031245 127.79791 
L 825.116841 124.648785 
L 826.38337 120.24042 
L 828.011764 113.668022 
L 830.544821 102.335404 
L 833.439744 89.653947 
L 834.977672 83.843931 
L 836.244201 79.849049 
L 837.329797 77.116346 
L 838.23446 75.385168 
L 839.048657 74.281383 
L 839.772388 73.676176 
L 840.405652 73.443154 
L 840.94845 73.465585 
L 841.491248 73.692991 
L 842.124513 74.2152 
L 842.848244 75.144575 
L 843.662441 76.600251 
L 844.567104 78.700165 
L 845.6527 81.834888 
L 846.919229 86.229197 
L 848.457157 92.403332 
L 850.899748 103.288993 
L 853.975603 116.807937 
L 855.603997 122.944994 
L 856.870526 126.897843 
L 857.956122 129.588961 
L 858.860786 131.28243 
L 859.674983 132.350535 
L 860.398713 132.923103 
L 861.031978 133.12718 
L 861.574776 133.079867 
L 862.117574 132.827694 
L 862.750838 132.276962 
L 863.474569 131.315806 
L 864.288766 129.82588 
L 865.193429 127.690399 
L 866.279025 124.51737 
L 867.545554 120.085717 
L 869.173948 113.491962 
L 871.797472 101.735695 
L 874.511462 89.854605 
L 876.139856 83.701944 
L 877.406385 79.733286 
L 878.491981 77.026541 
L 879.396645 75.318912 
L 879.939443 74.548717 
L 879.939443 74.548717 
" clip-path="url(#pb6b7d50e49)" style="fill: none; stroke: #e36f47; stroke-opacity: 0.5; stroke-width: 4"/>
   </g>
   <g id="patch_3">
    <path d="M 41.316477 139.105354 
L 41.316477 4.764246 
" style="fill: none; stroke: #000000; stroke-width: 2; stroke-linejoin: miter; stroke-linecap: square"/>
   </g>
   <g id="patch_4">
    <path d="M 41.316477 139.105354 
L 904.365354 139.105354 
" style="fill: none; stroke: #000000; stroke-width: 2; stroke-linejoin: miter; stroke-linecap: square"/>
   </g>
   <g id="line2d_13">
    <path d="M 65.742388 13.045782 
L 71.170369 18.303227 
L 76.598349 23.254353 
L 82.116796 27.992372 
L 87.816175 32.591466 
L 93.606021 36.97599 
L 99.486333 41.150757 
L 103.466852 43.826529 
L 103.557318 14.049017 
L 103.647785 14.138249 
L 109.075765 19.332042 
L 114.594212 24.302283 
L 120.203125 29.052562 
L 125.902504 33.586893 
L 131.69235 37.909676 
L 137.572662 42.025655 
L 143.452974 45.882483 
L 143.54344 16.112919 
L 143.633907 16.200087 
L 149.061887 21.27375 
L 154.580334 26.129032 
L 160.189247 30.769438 
L 165.888626 35.198892 
L 171.768938 39.48555 
L 177.739716 43.562086 
L 183.891428 47.489882 
L 184.977024 48.155706 
L 185.06749 18.37774 
L 185.157956 18.462643 
L 190.676403 23.484358 
L 196.285316 28.283832 
L 201.984695 32.865121 
L 207.774541 37.232673 
L 213.654853 41.391278 
L 219.716098 45.403973 
L 225.867809 49.210625 
L 227.31527 50.069294 
L 227.405737 20.298118 
L 227.496203 20.381101 
L 233.01465 25.289232 
L 238.623563 29.980149 
L 244.322942 34.457818 
L 250.112788 38.726582 
L 256.083566 42.851616 
L 262.144811 46.769628 
L 268.386989 50.539254 
L 269.743984 51.324867 
L 269.83445 21.543314 
L 269.924916 21.625052 
L 275.443363 26.459535 
L 281.052276 31.080063 
L 286.751655 35.490542 
L 292.631967 39.758837 
L 298.602746 43.81791 
L 304.754457 47.728879 
L 310.996634 51.434517 
L 311.991764 52.001986 
L 312.08223 22.207694 
L 312.172697 22.288767 
L 317.691144 27.083954 
L 323.300057 31.666925 
L 329.089902 36.108795 
L 334.970214 40.338163 
L 340.940993 44.360217 
L 347.092704 48.235518 
L 353.425348 51.958734 
L 354.058612 52.316916 
L 354.149078 22.541632 
L 354.239545 22.622372 
L 359.757991 27.397807 
L 365.366904 31.961902 
L 371.15675 36.385475 
L 377.037062 40.597423 
L 383.007841 44.60291 
L 389.159552 48.462249 
L 395.492195 52.170129 
L 395.763594 52.323309 
L 395.854061 22.541218 
L 395.944527 22.621957 
L 401.462974 27.397418 
L 407.071887 31.961536 
L 412.861733 36.385132 
L 418.742045 40.597101 
L 424.712823 44.602609 
L 430.864534 48.461967 
L 437.197178 52.169867 
L 437.287644 22.375014 
L 437.37811 22.45592 
L 442.896557 27.24121 
L 448.50547 31.814724 
L 454.295316 36.247426 
L 460.175628 40.468065 
L 466.146406 44.481818 
L 472.298117 48.349122 
L 478.449829 51.962067 
L 478.540295 22.163749 
L 478.630761 22.244866 
L 484.149208 27.042652 
L 489.758121 31.628108 
L 495.547967 36.072385 
L 501.428279 40.304045 
L 507.399057 44.328279 
L 513.550768 48.205681 
L 519.612013 51.776557 
L 519.702479 21.99704 
L 519.792946 22.078324 
L 525.311392 26.88597 
L 530.920305 31.48085 
L 536.710151 35.93426 
L 542.590463 40.174618 
L 548.561242 44.207122 
L 554.712953 48.092492 
L 560.593265 51.567331 
L 560.683731 21.781258 
L 560.774197 21.862758 
L 566.292644 26.683167 
L 571.901557 31.290244 
L 577.600937 35.687884 
L 583.481249 39.943754 
L 589.452027 43.99101 
L 595.603738 47.890595 
L 601.574516 51.430051 
L 601.664983 21.654559 
L 601.755449 21.736186 
L 607.273896 26.564089 
L 612.882809 31.178328 
L 618.582188 35.582804 
L 624.4625 39.84529 
L 630.433279 43.898839 
L 636.58499 47.804486 
L 642.465302 51.297458 
L 642.555768 21.505313 
L 642.646235 21.587089 
L 648.164681 26.423819 
L 653.773594 31.046495 
L 659.472974 35.459025 
L 665.353286 39.729304 
L 671.324064 43.790264 
L 677.475775 47.703052 
L 683.446554 51.254491 
L 683.53702 21.467681 
L 683.627486 21.549495 
L 689.145933 26.388451 
L 694.754846 31.013254 
L 700.454225 35.427814 
L 706.334537 39.700059 
L 712.305316 43.762888 
L 718.457027 47.677476 
L 724.427805 51.230547 
L 724.518272 21.435546 
L 724.608738 21.517392 
L 730.127185 26.358248 
L 735.736098 30.984868 
L 741.435477 35.401162 
L 747.315789 39.675085 
L 753.286568 43.73951 
L 759.438279 47.655636 
L 765.499523 51.262175 
L 765.58999 21.473861 
L 765.680456 21.555668 
L 771.198903 26.394259 
L 776.807816 31.018713 
L 782.507195 35.432939 
L 788.387507 39.704861 
L 794.358286 43.767383 
L 800.509997 47.681676 
L 806.571241 51.286526 
L 806.661708 21.491542 
L 806.752174 21.573331 
L 812.270621 26.410876 
L 817.879534 31.034331 
L 823.578913 35.447603 
L 829.459225 39.718602 
L 835.430004 43.780246 
L 841.581715 47.693692 
L 847.733426 51.349748 
L 847.823892 21.567857 
L 847.914359 21.64957 
L 853.432805 26.482601 
L 859.041718 31.101742 
L 864.741098 35.510897 
L 870.62141 39.77791 
L 876.592188 43.835764 
L 879.939443 45.996099 
L 879.939443 45.996099 
" clip-path="url(#pb6b7d50e49)" style="fill: none; stroke: #3ea44d; stroke-opacity: 0.5; stroke-width: 4"/>
   </g>
   <g id="line2d_14">
    <path d="M 65.742388 173.8 
L 65.742388 -1 
" clip-path="url(#pb6b7d50e49)" style="fill: none; stroke-dasharray: 7.4,3.2; stroke-dashoffset: 0; stroke: #000000; stroke-width: 2"/>
   </g>
   <g id="line2d_15">
    <path d="M 103.557318 173.8 
L 103.557318 -1 
" clip-path="url(#pb6b7d50e49)" style="fill: none; stroke-dasharray: 7.4,3.2; stroke-dashoffset: 0; stroke: #000000; stroke-width: 2"/>
   </g>
   <g id="line2d_16">
    <path d="M 143.54344 173.8 
L 143.54344 -1 
" clip-path="url(#pb6b7d50e49)" style="fill: none; stroke-dasharray: 7.4,3.2; stroke-dashoffset: 0; stroke: #000000; stroke-width: 2"/>
   </g>
   <g id="line2d_17">
    <path d="M 185.06749 173.8 
L 185.06749 -1 
" clip-path="url(#pb6b7d50e49)" style="fill: none; stroke-dasharray: 7.4,3.2; stroke-dashoffset: 0; stroke: #000000; stroke-width: 2"/>
   </g>
   <g id="line2d_18">
    <path d="M 227.405737 173.8 
L 227.405737 -1 
" clip-path="url(#pb6b7d50e49)" style="fill: none; stroke-dasharray: 7.4,3.2; stroke-dashoffset: 0; stroke: #000000; stroke-width: 2"/>
   </g>
   <g id="line2d_19">
    <path d="M 269.83445 173.8 
L 269.83445 -1 
" clip-path="url(#pb6b7d50e49)" style="fill: none; stroke-dasharray: 7.4,3.2; stroke-dashoffset: 0; stroke: #000000; stroke-width: 2"/>
   </g>
   <g id="line2d_20">
    <path d="M 312.08223 173.8 
L 312.08223 -1 
" clip-path="url(#pb6b7d50e49)" style="fill: none; stroke-dasharray: 7.4,3.2; stroke-dashoffset: 0; stroke: #000000; stroke-width: 2"/>
   </g>
   <g id="line2d_21">
    <path d="M 354.149078 173.8 
L 354.149078 -1 
" clip-path="url(#pb6b7d50e49)" style="fill: none; stroke-dasharray: 7.4,3.2; stroke-dashoffset: 0; stroke: #000000; stroke-width: 2"/>
   </g>
   <g id="line2d_22">
    <path d="M 395.854061 173.8 
L 395.854061 -1 
" clip-path="url(#pb6b7d50e49)" style="fill: none; stroke-dasharray: 7.4,3.2; stroke-dashoffset: 0; stroke: #000000; stroke-width: 2"/>
   </g>
   <g id="line2d_23">
    <path d="M 437.287644 173.8 
L 437.287644 -1 
" clip-path="url(#pb6b7d50e49)" style="fill: none; stroke-dasharray: 7.4,3.2; stroke-dashoffset: 0; stroke: #000000; stroke-width: 2"/>
   </g>
   <g id="line2d_24">
    <path d="M 478.540295 173.8 
L 478.540295 -1 
" clip-path="url(#pb6b7d50e49)" style="fill: none; stroke-dasharray: 7.4,3.2; stroke-dashoffset: 0; stroke: #000000; stroke-width: 2"/>
   </g>
   <g id="line2d_25">
    <path d="M 519.702479 173.8 
L 519.702479 -1 
" clip-path="url(#pb6b7d50e49)" style="fill: none; stroke-dasharray: 7.4,3.2; stroke-dashoffset: 0; stroke: #000000; stroke-width: 2"/>
   </g>
   <g id="line2d_26">
    <path d="M 560.683731 173.8 
L 560.683731 -1 
" clip-path="url(#pb6b7d50e49)" style="fill: none; stroke-dasharray: 7.4,3.2; stroke-dashoffset: 0; stroke: #000000; stroke-width: 2"/>
   </g>
   <g id="line2d_27">
    <path d="M 601.664983 173.8 
L 601.664983 -1 
" clip-path="url(#pb6b7d50e49)" style="fill: none; stroke-dasharray: 7.4,3.2; stroke-dashoffset: 0; stroke: #000000; stroke-width: 2"/>
   </g>
   <g id="line2d_28">
    <path d="M 642.555768 173.8 
L 642.555768 -1 
" clip-path="url(#pb6b7d50e49)" style="fill: none; stroke-dasharray: 7.4,3.2; stroke-dashoffset: 0; stroke: #000000; stroke-width: 2"/>
   </g>
   <g id="line2d_29">
    <path d="M 683.53702 173.8 
L 683.53702 -1 
" clip-path="url(#pb6b7d50e49)" style="fill: none; stroke-dasharray: 7.4,3.2; stroke-dashoffset: 0; stroke: #000000; stroke-width: 2"/>
   </g>
   <g id="line2d_30">
    <path d="M 724.518272 173.8 
L 724.518272 -1 
" clip-path="url(#pb6b7d50e49)" style="fill: none; stroke-dasharray: 7.4,3.2; stroke-dashoffset: 0; stroke: #000000; stroke-width: 2"/>
   </g>
   <g id="line2d_31">
    <path d="M 765.58999 173.8 
L 765.58999 -1 
" clip-path="url(#pb6b7d50e49)" style="fill: none; stroke-dasharray: 7.4,3.2; stroke-dashoffset: 0; stroke: #000000; stroke-width: 2"/>
   </g>
   <g id="line2d_32">
    <path d="M 806.661708 173.8 
L 806.661708 -1 
" clip-path="url(#pb6b7d50e49)" style="fill: none; stroke-dasharray: 7.4,3.2; stroke-dashoffset: 0; stroke: #000000; stroke-width: 2"/>
   </g>
   <g id="line2d_33">
    <path d="M 847.823892 173.8 
L 847.823892 -1 
" clip-path="url(#pb6b7d50e49)" style="fill: none; stroke-dasharray: 7.4,3.2; stroke-dashoffset: 0; stroke: #000000; stroke-width: 2"/>
   </g>
   <g id="PathCollection_1">
    <defs>
     <path id="mfd71640c32" d="M 0 5 
C 1.326016 5 2.597899 4.473168 3.535534 3.535534 
C 4.473168 2.597899 5 1.326016 5 0 
C 5 -1.326016 4.473168 -2.597899 3.535534 -3.535534 
C 2.597899 -4.473168 1.326016 -5 0 -5 
C -1.326016 -5 -2.597899 -4.473168 -3.535534 -3.535534 
C -4.473168 -2.597899 -5 -1.326016 -5 0 
C -5 1.326016 -4.473168 2.597899 -3.535534 3.535534 
C -2.597899 4.473168 -1.326016 5 0 5 
z
"/>
    </defs>
    <g clip-path="url(#pb6b7d50e49)">
     <use xlink:href="#mfd71640c32" x="103.557318" y="14.049017"/>
     <use xlink:href="#mfd71640c32" x="143.54344" y="16.112919"/>
     <use xlink:href="#mfd71640c32" x="185.06749" y="18.37774"/>
     <use xlink:href="#mfd71640c32" x="227.405737" y="20.298118"/>
     <use xlink:href="#mfd71640c32" x="269.83445" y="21.543314"/>
     <use xlink:href="#mfd71640c32" x="312.08223" y="22.207694"/>
     <use xlink:href="#mfd71640c32" x="354.149078" y="22.541632"/>
     <use xlink:href="#mfd71640c32" x="395.854061" y="22.541218"/>
     <use xlink:href="#mfd71640c32" x="437.287644" y="22.375014"/>
     <use xlink:href="#mfd71640c32" x="478.540295" y="22.163749"/>
     <use xlink:href="#mfd71640c32" x="519.702479" y="21.99704"/>
     <use xlink:href="#mfd71640c32" x="560.683731" y="21.781258"/>
     <use xlink:href="#mfd71640c32" x="601.664983" y="21.654559"/>
     <use xlink:href="#mfd71640c32" x="642.555768" y="21.505313"/>
     <use xlink:href="#mfd71640c32" x="683.53702" y="21.467681"/>
     <use xlink:href="#mfd71640c32" x="724.518272" y="21.435546"/>
     <use xlink:href="#mfd71640c32" x="765.58999" y="21.473861"/>
     <use xlink:href="#mfd71640c32" x="806.661708" y="21.491542"/>
    </g>
   </g>
   <g id="PathCollection_2">
    <defs>
     <path id="mdb68a007bd" d="M -5 5 
L 5 5 
L 5 -5 
L -5 -5 
z
"/>
    </defs>
    <g clip-path="url(#pb6b7d50e49)">
     <use xlink:href="#mdb68a007bd" x="65.742388" y="13.045782" style="fill: #ff0000"/>
    </g>
   </g>
   <g id="PathCollection_3">
    <defs>
     <path id="m47351cc33f" d="M -5 5 
L 5 5 
L 5 -5 
L -5 -5 
z
"/>
    </defs>
    <g clip-path="url(#pb6b7d50e49)">
     <use xlink:href="#m47351cc33f" x="847.823892" y="21.567857"/>
    </g>
   </g>
   <g id="PathCollection_4">
    <g clip-path="url(#pb6b7d50e49)">
     <use xlink:href="#mfd71640c32" x="103.557318" y="76.753425"/>
     <use xlink:href="#mfd71640c32" x="143.54344" y="74.788467"/>
     <use xlink:href="#mfd71640c32" x="185.06749" y="75.390824"/>
     <use xlink:href="#mfd71640c32" x="227.405737" y="77.840654"/>
     <use xlink:href="#mfd71640c32" x="269.83445" y="81.447258"/>
     <use xlink:href="#mfd71640c32" x="312.08223" y="85.257863"/>
     <use xlink:href="#mfd71640c32" x="354.149078" y="88.873072"/>
     <use xlink:href="#mfd71640c32" x="395.854061" y="91.260122"/>
     <use xlink:href="#mfd71640c32" x="437.287644" y="92.578226"/>
     <use xlink:href="#mfd71640c32" x="478.540295" y="93.140692"/>
     <use xlink:href="#mfd71640c32" x="519.702479" y="93.317315"/>
     <use xlink:href="#mfd71640c32" x="560.683731" y="92.718446"/>
     <use xlink:href="#mfd71640c32" x="601.664983" y="92.124397"/>
     <use xlink:href="#mfd71640c32" x="642.555768" y="91.157189"/>
     <use xlink:href="#mfd71640c32" x="683.53702" y="90.577203"/>
     <use xlink:href="#mfd71640c32" x="724.518272" y="90.003013"/>
     <use xlink:href="#mfd71640c32" x="765.58999" y="89.801792"/>
     <use xlink:href="#mfd71640c32" x="806.661708" y="89.601336"/>
    </g>
   </g>
   <g id="PathCollection_5">
    <g clip-path="url(#pb6b7d50e49)">
     <use xlink:href="#mdb68a007bd" x="65.742388" y="86.694098" style="fill: #ff0000"/>
    </g>
   </g>
   <g id="PathCollection_6">
    <g clip-path="url(#pb6b7d50e49)">
     <use xlink:href="#m47351cc33f" x="847.823892" y="89.768329"/>
    </g>
   </g>
  </g>
 </g>
 <defs>
  <clipPath id="pb6b7d50e49">
   <rect x="41.316477" y="4.764246" width="863.048878" height="134.341109"/>
  </clipPath>
 </defs>
</svg>
