<?xml version="1.0" encoding="utf-8" standalone="no"?>
<!DOCTYPE svg PUBLIC "-//W3C//DTD SVG 1.1//EN"
  "http://www.w3.org/Graphics/SVG/1.1/DTD/svg11.dtd">
<svg xmlns:xlink="http://www.w3.org/1999/xlink" width="979.2pt" height="302.4pt" viewBox="0 0 979.2 302.4" xmlns="http://www.w3.org/2000/svg" version="1.1">
 <metadata>
  <rdf:RDF xmlns:dc="http://purl.org/dc/elements/1.1/" xmlns:cc="http://creativecommons.org/ns#" xmlns:rdf="http://www.w3.org/1999/02/22-rdf-syntax-ns#">
   <cc:Work>
    <dc:type rdf:resource="http://purl.org/dc/dcmitype/StillImage"/>
    <dc:date>2024-07-09T17:14:46.528692</dc:date>
    <dc:format>image/svg+xml</dc:format>
    <dc:creator>
     <cc:Agent>
      <dc:title>Matplotlib v3.8.4, https://matplotlib.org/</dc:title>
     </cc:Agent>
    </dc:creator>
   </cc:Work>
  </rdf:RDF>
 </metadata>
 <defs>
  <style type="text/css">*{stroke-linejoin: round; stroke-linecap: butt}</style>
 </defs>
 <g id="figure_1">
  <g id="patch_1">
   <path d="M 0 302.4 
L 979.2 302.4 
L 979.2 0 
L 0 0 
L 0 302.4 
z
" style="fill: none"/>
  </g>
  <g id="axes_1">
   <g id="patch_2">
    <path d="M 41.316477 268.705354 
L 976.365354 268.705354 
L 976.365354 6.358146 
L 41.316477 6.358146 
L 41.316477 268.705354 
z
" style="fill: none"/>
   </g>
   <g id="line2d_1">
    <path d="M 67.780124 96.539999 
L 68.044761 96.648989 
L 68.353503 97.047646 
L 68.750458 97.977244 
L 69.235625 99.726856 
L 69.85311 102.8762 
L 70.602913 107.987306 
L 71.485035 115.61976 
L 72.587687 127.263825 
L 73.954975 144.242692 
L 75.939749 171.964706 
L 79.291811 218.775336 
L 80.703205 235.27868 
L 81.805857 245.772102 
L 82.732085 252.60205 
L 83.481888 256.649635 
L 84.099373 258.923388 
L 84.58454 260.015765 
L 84.981495 260.447666 
L 85.290238 260.494388 
L 85.59898 260.287881 
L 85.951829 259.742864 
L 86.39289 258.602086 
L 86.922163 256.570699 
L 87.583754 253.046987 
L 88.377663 247.451764 
L 89.303891 239.203868 
L 90.450649 226.791678 
L 91.906149 208.38546 
L 95.037681 164.864425 
L 96.84603 141.723357 
L 98.213319 126.962067 
L 99.360077 116.858778 
L 100.374517 109.75258 
L 101.300744 104.742959 
L 102.13876 101.350779 
L 102.888563 99.158599 
L 103.59426 97.748432 
L 104.211746 96.980523 
L 104.785125 96.615179 
L 105.270291 96.547557 
L 105.534928 96.71836 
L 105.887777 97.28538 
L 106.328837 98.513185 
L 106.85811 100.696816 
L 107.519702 104.415036 
L 108.357717 110.501636 
L 109.416263 119.999457 
L 110.783551 134.495347 
L 112.768325 158.255565 
L 117.796418 219.573482 
L 119.340131 235.285288 
L 120.575101 245.685779 
L 121.589541 252.416357 
L 122.427556 256.55077 
L 123.089147 258.816091 
L 123.61842 259.955871 
L 124.059481 260.432226 
L 124.41233 260.496228 
L 124.721072 260.317696 
L 125.073921 259.843042 
L 125.514982 258.841453 
L 126.044255 257.039947 
L 126.66174 254.116773 
L 127.411543 249.403376 
L 128.293665 242.295436 
L 129.308105 232.206393 
L 130.543075 217.584558 
L 132.263212 194.279173 
L 135.968123 143.429888 
L 137.335411 128.020696 
L 138.482169 117.410583 
L 139.540715 109.651495 
L 140.466943 104.465353 
L 141.304958 101.000325 
L 142.054761 98.813806 
L 142.716353 97.533115 
L 143.289732 96.865699 
L 143.819005 96.577203 
L 144.215959 96.56409 
L 144.480596 96.787966 
L 144.833444 97.438815 
L 145.274505 98.789256 
L 145.847884 101.368086 
L 146.553582 105.677336 
L 147.435703 112.55412 
L 148.582461 123.410111 
L 150.214386 141.297319 
L 157.580101 224.97895 
L 159.079708 238.403771 
L 160.270572 247.263541 
L 161.285012 253.256544 
L 162.123027 256.957706 
L 162.784619 258.994171 
L 163.313892 260.019984 
L 163.754952 260.444916 
L 164.107801 260.494278 
L 164.416544 260.320599 
L 164.813498 259.794569 
L 165.254559 258.80412 
L 165.783832 257.044165 
L 166.401317 254.198741 
L 167.15112 249.604216 
L 167.989136 243.031971 
L 169.003576 233.187884 
L 170.238546 218.809615 
L 171.914577 196.362151 
L 175.840018 142.795251 
L 177.251413 127.130678 
L 178.398171 116.744235 
L 179.41261 109.451076 
L 180.338838 104.339702 
L 181.132748 101.079262 
L 181.882551 98.880324 
L 182.544142 97.583693 
L 183.117521 96.898605 
L 183.646794 96.590222 
L 184.087855 96.561943 
L 184.352491 96.777682 
L 184.70534 97.410649 
L 185.146401 98.727628 
L 185.71978 101.24512 
L 186.425477 105.452217 
L 187.307599 112.163386 
L 188.454357 122.749049 
L 190.086282 140.171032 
L 193.923511 184.502423 
L 196.525769 212.938369 
L 198.334118 230.445309 
L 199.745513 242.118344 
L 200.892271 249.888526 
L 201.818499 254.794867 
L 202.568302 257.737122 
L 203.185787 259.398439 
L 203.71506 260.236738 
L 204.112015 260.493754 
L 204.420757 260.466121 
L 204.773606 260.184876 
L 205.170561 259.544009 
L 205.655728 258.28579 
L 206.229107 256.116631 
L 206.890698 252.691305 
L 207.684607 247.295197 
L 208.610835 239.310249 
L 209.713487 227.67708 
L 211.080775 210.706715 
L 213.374291 178.948521 
L 215.711914 147.629736 
L 217.167414 131.014938 
L 218.358278 119.784213 
L 219.416824 111.768895 
L 220.387158 106.058548 
L 221.26928 102.160694 
L 222.063189 99.622827 
L 222.768886 98.063677 
L 223.430477 97.130136 
L 224.003856 96.686287 
L 224.533129 96.541704 
L 224.841872 96.630308 
L 225.150615 96.999662 
L 225.547569 97.873274 
L 226.076842 99.691175 
L 226.694327 102.666935 
L 227.488237 107.674934 
L 228.45857 115.288929 
L 229.737647 127.213885 
L 231.545996 146.415307 
L 235.736074 194.294866 
L 238.206014 220.948775 
L 239.837939 236.317708 
L 241.117015 246.362385 
L 242.131455 252.697524 
L 242.969471 256.638647 
L 243.631062 258.825908 
L 244.160335 259.942997 
L 244.601395 260.42254 
L 244.954244 260.500439 
L 245.262987 260.340424 
L 245.615835 259.892005 
L 246.056896 258.927721 
L 246.586169 257.172292 
L 247.203654 254.296871 
L 247.953457 249.625335 
L 248.835579 242.544089 
L 249.850019 232.478926 
L 251.129095 217.38759 
L 253.025657 191.944771 
L 256.201294 149.430777 
L 257.656795 133.042665 
L 258.891765 121.533575 
L 259.950311 113.567761 
L 260.920645 107.79223 
L 261.846872 103.566314 
L 262.684888 100.726876 
L 263.478797 98.802369 
L 264.184495 97.637077 
L 264.846086 96.950563 
L 265.463571 96.617889 
L 266.03695 96.548147 
L 266.345692 96.740547 
L 266.698541 97.262845 
L 267.139602 98.347134 
L 267.712981 100.425369 
L 268.418678 103.925372 
L 269.256694 109.274124 
L 270.271134 117.214681 
L 271.55021 129.068056 
L 273.182135 146.406538 
L 275.519757 173.890352 
L 279.621622 222.319698 
L 281.121229 237.300749 
L 282.312093 247.098908 
L 283.282427 253.334184 
L 284.076336 257.086231 
L 284.693821 259.084783 
L 285.223094 260.119954 
L 285.620049 260.470633 
L 285.928792 260.485526 
L 286.237534 260.271688 
L 286.590383 259.744574 
L 287.031444 258.659162 
L 287.560717 256.731198 
L 288.222308 253.372827 
L 288.972111 248.333425 
L 289.854233 240.838806 
L 290.956885 229.389133 
L 292.368279 212.162721 
L 295.27928 172.979819 
L 297.219948 148.676987 
L 298.631342 133.638555 
L 299.866313 122.743603 
L 300.968965 114.880442 
L 301.983404 109.139911 
L 302.909632 105.041521 
L 303.791754 102.042528 
L 304.629769 99.905366 
L 305.423679 98.431338 
L 306.217588 97.419446 
L 306.923285 96.857816 
L 307.628983 96.580088 
L 308.202362 96.579943 
L 308.511104 96.834534 
L 308.908059 97.498882 
L 309.393226 98.806548 
L 309.966605 101.022834 
L 310.672302 104.686886 
L 311.510317 110.278239 
L 312.524757 118.667228 
L 313.715621 130.479767 
L 315.171122 147.243685 
L 317.200002 173.43322 
L 320.949018 222.126648 
L 322.360413 237.378157 
L 323.463065 247.068044 
L 324.389293 253.363361 
L 325.139096 257.07785 
L 325.756581 259.144882 
L 326.241748 260.116115 
L 326.638703 260.47458 
L 326.947445 260.479176 
L 327.256188 260.242786 
L 327.609036 259.677508 
L 328.050097 258.530072 
L 328.57937 256.514325 
L 329.240961 253.03985 
L 330.034871 247.538666 
L 330.961098 239.447026 
L 332.107856 227.324446 
L 333.651569 208.413419 
L 338.238601 150.635318 
L 339.694102 135.920618 
L 340.929072 125.564579 
L 342.07583 117.701975 
L 343.134376 111.846126 
L 344.192922 107.186587 
L 345.207362 103.692261 
L 346.177696 101.106755 
L 347.103923 99.230836 
L 347.986045 97.920548 
L 348.779954 97.112192 
L 349.485652 96.684611 
L 350.147243 96.540443 
L 350.455985 96.639243 
L 350.764728 96.993401 
L 351.161683 97.820416 
L 351.646849 99.387591 
L 352.264335 102.239916 
L 352.970032 106.62423 
L 353.808047 113.287254 
L 354.822487 123.264786 
L 356.057457 137.805222 
L 357.689382 159.961694 
L 362.541051 227.816514 
L 363.776021 241.094391 
L 364.790461 249.694933 
L 365.628477 255.005566 
L 366.334174 258.125843 
L 366.907553 259.71839 
L 367.348614 260.359837 
L 367.701462 260.506621 
L 368.010205 260.368775 
L 368.363053 259.909181 
L 368.804114 258.887285 
L 369.333387 257.018941 
L 369.950872 253.985451 
L 370.700676 249.135992 
L 371.626903 241.543139 
L 372.729555 230.549772 
L 374.229162 213.140839 
L 379.389573 151.215351 
L 380.800968 137.875303 
L 382.12415 127.451722 
L 383.35912 119.470604 
L 384.505878 113.411236 
L 385.652637 108.475798 
L 386.799395 104.49536 
L 387.902047 101.448383 
L 388.916486 99.269112 
L 389.798608 97.860346 
L 390.548411 97.041084 
L 391.210002 96.63369 
L 391.739275 96.54238 
L 392.003912 96.683718 
L 392.312654 97.12278 
L 392.709609 98.115828 
L 393.194776 99.971842 
L 393.812261 103.323548 
L 394.562064 108.807942 
L 395.444186 117.085783 
L 396.502732 129.288944 
L 397.825914 147.275937 
L 399.943006 179.572838 
L 402.457053 217.077378 
L 403.824341 234.21639 
L 404.882887 244.949894 
L 405.765009 251.888977 
L 406.514812 256.22708 
L 407.132297 258.679143 
L 407.66157 259.962676 
L 408.058525 260.429555 
L 408.367267 260.500926 
L 408.67601 260.319697 
L 409.028858 259.807692 
L 409.469919 258.719951 
L 409.999192 256.778774 
L 410.660783 253.424388 
L 411.454693 248.139621 
L 412.425027 240.030682 
L 413.615891 228.057239 
L 415.291922 208.693819 
L 419.481999 159.475248 
L 421.069818 144.066005 
L 422.437107 132.881733 
L 423.716183 124.122857 
L 424.995259 116.839273 
L 426.274335 110.823545 
L 427.509306 106.044873 
L 428.70017 102.301923 
L 429.758716 99.682906 
L 430.640837 98.049592 
L 431.390641 97.09977 
L 432.008126 96.655086 
L 432.537399 96.541619 
L 432.802035 96.688822 
L 433.110778 97.160535 
L 433.507732 98.235432 
L 433.992899 100.249853 
L 434.610384 103.888773 
L 435.360188 109.833524 
L 436.242309 118.772802 
L 437.300855 131.867607 
L 438.71225 152.323437 
L 443.916767 230.73699 
L 445.019419 242.786707 
L 445.945647 250.667339 
L 446.739556 255.635895 
L 447.401147 258.462561 
L 447.93042 259.852447 
L 448.327375 260.387856 
L 448.636118 260.506809 
L 448.94486 260.368968 
L 449.297709 259.90239 
L 449.738769 258.866671 
L 450.268042 256.983788 
L 450.929634 253.702042 
L 451.723543 248.513314 
L 452.693877 240.545344 
L 453.884741 228.788691 
L 455.516666 210.304806 
L 459.839062 160.2592 
L 461.42688 145.000104 
L 462.838275 133.515486 
L 464.161457 124.473081 
L 465.48464 116.917148 
L 466.763716 110.830301 
L 468.042792 105.790601 
L 469.18955 102.113174 
L 470.20399 99.549234 
L 471.042006 97.970626 
L 471.747703 97.066552 
L 472.321082 96.649962 
L 472.806249 96.54035 
L 473.070885 96.67738 
L 473.379628 97.148382 
L 473.776583 98.239458 
L 474.261749 100.298495 
L 474.879235 104.030213 
L 475.629038 110.134271 
L 476.51116 119.310458 
L 477.613812 133.33777 
L 479.069312 155.00714 
L 483.744557 226.999838 
L 484.891315 240.338603 
L 485.861648 249.20419 
L 486.655558 254.621352 
L 487.317149 257.807853 
L 487.890528 259.575935 
L 488.331589 260.308688 
L 488.684437 260.506001 
L 488.99318 260.399136 
L 489.301922 260.035777 
L 489.698877 259.200303 
L 490.184044 257.634405 
L 490.801529 254.817298 
L 491.551333 250.247516 
L 492.433454 243.434357 
L 493.536106 233.097362 
L 494.991607 217.193442 
L 500.901821 150.022638 
L 502.313216 137.609836 
L 503.72461 127.175828 
L 505.003687 119.293962 
L 506.282763 112.723392 
L 507.561839 107.294374 
L 508.752703 103.174052 
L 509.811249 100.264052 
L 510.693371 98.419116 
L 511.443174 97.311018 
L 512.060659 96.75106 
L 512.589932 96.548276 
L 512.898675 96.597179 
L 513.163311 96.887889 
L 513.51616 97.654365 
L 513.957221 99.210498 
L 514.486494 101.929614 
L 515.148085 106.574593 
L 515.941994 113.841472 
L 516.912328 124.933953 
L 518.147298 141.873886 
L 519.955647 170.205078 
L 522.954861 217.136008 
L 524.278043 234.265447 
L 525.336589 245.270948 
L 526.218711 252.291153 
L 526.968514 256.598003 
L 527.585999 258.960213 
L 528.071166 260.059853 
L 528.468121 260.466909 
L 528.776863 260.4806 
L 529.085606 260.233258 
L 529.438454 259.636645 
L 529.879515 258.432765 
L 530.452894 256.137293 
L 531.158592 252.247702 
L 531.996607 246.24761 
L 533.011047 237.259497 
L 534.290123 223.825551 
L 536.186685 201.31818 
L 539.450534 162.536106 
L 541.038353 146.34038 
L 542.405642 134.463288 
L 543.728824 124.831351 
L 544.963794 117.373517 
L 546.198765 111.217792 
L 547.389629 106.360863 
L 548.536387 102.584155 
L 549.550827 99.954451 
L 550.432948 98.230847 
L 551.182751 97.211805 
L 551.800237 96.709608 
L 552.32951 96.54285 
L 552.638252 96.631298 
L 552.946995 97.036727 
L 553.343949 98.028292 
L 553.829116 99.943571 
L 554.402495 103.170602 
L 555.108193 108.498844 
L 555.946208 116.608832 
L 556.960648 128.673803 
L 558.28383 147.285235 
L 560.445028 181.408048 
L 562.78265 217.211532 
L 564.105833 234.225117 
L 565.164379 245.192374 
L 566.0465 252.212295 
L 566.796304 256.535513 
L 567.413789 258.919277 
L 567.898955 260.03775 
L 568.29591 260.46033 
L 568.604653 260.485322 
L 568.913395 260.247999 
L 569.266244 259.661108 
L 569.707305 258.465189 
L 570.280684 256.171257 
L 570.942275 252.544685 
L 571.78029 246.574701 
L 572.79473 237.563123 
L 574.073807 223.999678 
L 575.926262 201.65891 
L 579.410642 159.42492 
L 580.954355 143.539679 
L 582.277537 131.999642 
L 583.512507 123.00144 
L 584.747478 115.603857 
L 585.894236 110.012587 
L 587.040994 105.494437 
L 588.143646 102.045507 
L 589.11398 99.685732 
L 589.996101 98.084222 
L 590.745904 97.148051 
L 591.36339 96.690988 
L 591.892663 96.542039 
L 592.201405 96.634109 
L 592.510148 97.03026 
L 592.907102 97.988348 
L 593.392269 99.830556 
L 593.965648 102.927874 
L 594.671346 108.038516 
L 595.509361 115.821818 
L 596.523801 127.425338 
L 597.802877 144.764219 
L 599.743545 174.514818 
L 602.522228 216.765911 
L 603.889516 234.171887 
L 604.948062 245.052795 
L 605.830184 252.058273 
L 606.579987 256.40445 
L 607.197472 258.826138 
L 607.682639 259.983338 
L 608.079594 260.44149 
L 608.388336 260.495621 
L 608.697079 260.287986 
L 609.049927 259.734758 
L 609.490988 258.579145 
L 610.020261 256.533472 
L 610.681852 253.016101 
L 611.475762 247.494101 
L 612.446095 239.042549 
L 613.63696 226.582354 
L 615.312991 206.404669 
L 619.635386 153.289907 
L 621.090887 138.631117 
L 622.414069 127.477017 
L 623.64904 118.940511 
L 624.795798 112.51911 
L 625.89845 107.557266 
L 626.956995 103.770838 
L 627.971435 100.934121 
L 628.897663 98.963255 
L 629.735678 97.67176 
L 630.441376 96.95171 
L 631.058861 96.609996 
L 631.588134 96.556861 
L 631.85277 96.751141 
L 632.205619 97.344771 
L 632.64668 98.615423 
L 633.175953 100.894833 
L 633.837544 104.853917 
L 634.631453 111.130681 
L 635.557681 120.35657 
L 636.704439 134.190025 
L 638.204046 155.261797 
L 643.364457 230.382054 
L 644.511215 242.720198 
L 645.437443 250.52635 
L 646.231352 255.501196 
L 646.892943 258.365789 
L 647.422216 259.796915 
L 647.819171 260.364511 
L 648.127913 260.506736 
L 648.39255 260.421497 
L 648.701292 260.082655 
L 649.098247 259.273277 
L 649.583414 257.726313 
L 650.200899 254.90223 
L 650.906596 250.569548 
L 651.788718 243.642326 
L 652.847264 233.417077 
L 654.170446 218.361916 
L 656.287538 191.374805 
L 658.933903 158.217352 
L 660.477616 141.573427 
L 661.800798 129.57605 
L 662.991662 120.664286 
L 664.13842 113.701318 
L 665.241072 108.35954 
L 666.299618 104.32761 
L 667.314058 101.341534 
L 668.240286 99.278228 
L 669.078301 97.914045 
L 669.828104 97.084735 
L 670.489696 96.662528 
L 671.063075 96.540065 
L 671.327711 96.634101 
L 671.636454 97.005644 
L 672.033408 97.891269 
L 672.518575 99.582722 
L 673.13606 102.670083 
L 673.841758 107.415081 
L 674.679773 114.608069 
L 675.694213 125.325655 
L 676.973289 141.412951 
L 678.737532 166.760985 
L 682.486549 221.31754 
L 683.809731 236.976221 
L 684.868277 247.018745 
L 685.750399 253.397162 
L 686.456096 257.080548 
L 687.073581 259.222208 
L 687.558748 260.183521 
L 687.911597 260.481918 
L 688.220339 260.466962 
L 688.529082 260.196094 
L 688.926037 259.47592 
L 689.411203 258.038407 
L 689.984583 255.573047 
L 690.69028 251.455428 
L 691.528295 245.131539 
L 692.542735 235.644533 
L 693.821811 221.386341 
L 695.674267 197.903626 
L 698.938117 156.387018 
L 700.437723 140.188246 
L 701.760906 128.204727 
L 702.95177 119.364388 
L 704.054422 112.753654 
L 705.112968 107.700502 
L 706.127407 103.903251 
L 707.097741 101.106356 
L 707.979863 99.185922 
L 708.817878 97.859195 
L 709.567682 97.060882 
L 710.229273 96.657301 
L 710.846758 96.541092 
L 711.111394 96.663499 
L 711.420137 97.060079 
L 711.817092 97.964206 
L 712.302259 99.656888 
L 712.919744 102.711555 
L 713.669547 107.704341 
L 714.551669 115.238557 
L 715.610215 126.371248 
L 716.889291 142.310121 
L 718.69764 167.937627 
L 722.402551 221.051807 
L 723.725733 236.592953 
L 724.784279 246.628554 
L 725.666401 253.058963 
L 726.416204 257.01041 
L 727.033689 259.167588 
L 727.518856 260.151725 
L 727.871704 260.471696 
L 728.180447 260.478499 
L 728.48919 260.231609 
L 728.842038 259.641465 
L 729.283099 258.448781 
L 729.856478 256.16165 
L 730.518069 252.530398 
L 731.311979 246.861863 
L 732.282312 238.193362 
L 733.473177 225.37967 
L 735.105101 205.134243 
L 739.383391 150.853685 
L 740.794786 136.237374 
L 742.073862 125.207753 
L 743.22062 117.146282 
L 744.323272 110.929043 
L 745.381818 106.232379 
L 746.352152 102.886038 
L 747.278379 100.43425 
L 748.160501 98.693952 
L 748.95441 97.57825 
L 749.704214 96.895634 
L 750.365805 96.588878 
L 750.895078 96.56929 
L 751.20382 96.830048 
L 751.556669 97.454069 
L 751.99773 98.712082 
L 752.571109 101.116344 
L 753.2327 104.922357 
L 754.026609 110.854977 
L 754.996943 119.939275 
L 756.143701 132.9099 
L 757.599202 152.053134 
L 760.157354 189.291144 
L 762.362658 220.027083 
L 763.729947 236.121671 
L 764.788493 246.20621 
L 765.670614 252.714549 
L 766.420418 256.755652 
L 767.037903 259.00048 
L 767.52307 260.060422 
L 767.920024 260.462668 
L 768.228767 260.485961 
L 768.537509 260.256905 
L 768.890358 259.688627 
L 769.331419 258.524695 
L 769.860692 256.477832 
L 770.522283 252.959986 
L 771.316192 247.417924 
L 772.24242 239.307558 
L 773.389178 227.199384 
L 774.932891 208.309654 
L 779.740454 147.713304 
L 781.107742 134.010307 
L 782.342712 123.732119 
L 783.48947 115.967864 
L 784.548016 110.224008 
L 785.562456 105.864216 
L 786.576896 102.485751 
L 787.503123 100.14258 
L 788.385245 98.490767 
L 789.179154 97.444747 
L 789.884852 96.848658 
L 790.546443 96.573093 
L 791.03161 96.579167 
L 791.340352 96.858314 
L 791.693201 97.501367 
L 792.134262 98.780156 
L 792.707641 101.206767 
L 793.369232 105.032572 
L 794.163141 110.981383 
L 795.133475 120.076361 
L 796.280233 133.049211 
L 797.735734 152.183854 
L 800.293886 189.388562 
L 802.49919 220.087863 
L 803.866479 236.160134 
L 804.925025 246.229417 
L 805.807146 252.727346 
L 806.55695 256.761747 
L 807.174435 259.002827 
L 807.659602 260.061037 
L 808.056556 260.462689 
L 808.365299 260.486036 
L 808.674041 260.257483 
L 809.02689 259.690323 
L 809.467951 258.528582 
L 809.997224 256.485449 
L 810.658815 252.973801 
L 811.452724 247.441172 
L 812.378952 239.344318 
L 813.52571 227.257403 
L 815.069423 208.40756 
L 819.876986 148.01228 
L 821.244274 134.356338 
L 822.479244 124.101941 
L 823.626002 116.340221 
L 824.684548 110.581582 
L 825.698988 106.192345 
L 826.713428 102.769827 
L 827.639655 100.376747 
L 828.521777 98.670107 
L 829.315687 97.570301 
L 830.06549 96.893965 
L 830.727081 96.588734 
L 831.256354 96.569417 
L 831.565097 96.830398 
L 831.917945 97.454872 
L 832.359006 98.71434 
L 832.932385 101.123025 
L 833.593976 104.939147 
L 834.387886 110.892741 
L 835.358219 120.017202 
L 836.504977 133.054348 
L 837.960478 152.301483 
L 840.562737 190.357156 
L 842.723935 220.490158 
L 844.091223 236.542725 
L 845.149769 246.557587 
L 846.03189 252.986859 
L 846.781694 256.949283 
L 847.399179 259.123932 
L 847.884346 260.126746 
L 848.281301 260.481744 
L 848.590043 260.468365 
L 848.898786 260.202979 
L 849.29574 259.495059 
L 849.780907 258.078671 
L 850.354286 255.645154 
L 851.059984 251.571173 
L 851.897999 245.29895 
L 852.912439 235.862886 
L 854.147409 222.172984 
L 855.999864 198.788146 
L 859.396032 155.818416 
L 860.895639 139.849174 
L 862.218822 128.068586 
L 863.409686 119.387224 
L 864.512338 112.889122 
L 865.570884 107.907532 
L 866.585323 104.14354 
L 867.555657 101.347252 
L 868.481885 99.318804 
L 869.3199 97.972678 
L 870.069704 97.142137 
L 870.775401 96.681129 
L 871.392886 96.540388 
L 871.701629 96.648849 
L 872.010371 97.028548 
L 872.407326 97.910253 
L 872.892493 99.575582 
L 873.509978 102.597629 
L 874.215675 107.228203 
L 875.053691 114.239041 
L 876.06813 124.687056 
L 877.303101 139.81652 
L 878.979132 163.310242 
L 883.213315 223.935539 
L 884.492391 238.531611 
L 885.506831 247.801881 
L 886.388953 253.92965 
L 887.09465 257.427761 
L 887.668029 259.312164 
L 888.153196 260.223654 
L 888.506045 260.491448 
L 888.814787 260.453474 
L 889.12353 260.162984 
L 889.520485 259.422357 
L 890.005651 257.966448 
L 890.57903 255.487791 
L 891.284728 251.364188 
L 892.122743 245.04406 
L 893.137183 235.573555 
L 894.416259 221.356209 
L 896.312821 197.422609 
L 899.532564 156.92525 
L 901.032171 140.950275 
L 902.311247 129.477543 
L 903.546218 120.359237 
L 904.692976 113.529725 
L 905.795628 108.29824 
L 906.854174 104.348742 
L 907.824507 101.526576 
L 908.750735 99.458801 
L 909.632857 98.009373 
L 910.426766 97.121968 
L 911.088357 96.686725 
L 911.705842 96.54048 
L 912.014585 96.648 
L 912.323327 97.030971 
L 912.720282 97.923752 
L 913.205449 99.613375 
L 913.822934 102.683594 
L 914.528631 107.392123 
L 915.366647 114.524272 
L 916.381087 125.152299 
L 917.660163 141.118812 
L 919.3803 165.660669 
L 923.261635 221.89763 
L 924.584817 237.402951 
L 925.643363 247.319855 
L 926.525485 253.598439 
L 927.231182 257.208822 
L 927.848667 259.293885 
L 928.333834 260.2163 
L 928.686683 260.489948 
L 928.995425 260.455862 
L 929.304168 260.168286 
L 929.701123 259.430516 
L 930.186289 257.977076 
L 930.759669 255.501627 
L 931.465366 251.383103 
L 932.303381 245.074985 
L 933.317821 235.629242 
L 934.596897 221.464364 
L 936.493459 197.646656 
L 939.62499 158.371182 
L 941.124597 142.31796 
L 942.447779 130.372788 
L 943.638644 121.482136 
L 944.785402 114.509974 
L 945.888054 109.131004 
L 946.9466 105.034378 
L 947.961039 101.957238 
L 948.931373 99.696854 
L 949.813495 98.173618 
L 949.901707 98.048209 
L 949.901707 98.048209 
" clip-path="url(#p8092fd6336)" style="fill: none; stroke: #009afa; stroke-width: 4"/>
   </g>
   <g id="matplotlib.axis_1">
    <g id="xtick_1">
     <g id="line2d_2">
      <defs>
       <path id="m995ec235e6" d="M 0 0 
L 0 -5 
" style="stroke: #000000"/>
      </defs>
      <g>
       <use xlink:href="#m995ec235e6" x="67.780124" y="268.705354" style="stroke: #000000"/>
      </g>
     </g>
     <g id="text_1">
      <!-- $0$ -->
      <g transform="translate(60.780124 293.480979) scale(0.28 -0.28)">
       <defs>
        <path id="Cmr10-30" d="M 1600 -141 
Q 816 -141 533 504 
Q 250 1150 250 2041 
Q 250 2597 351 3087 
Q 453 3578 754 3920 
Q 1056 4263 1600 4263 
Q 2022 4263 2290 4056 
Q 2559 3850 2700 3523 
Q 2841 3197 2892 2823 
Q 2944 2450 2944 2041 
Q 2944 1491 2842 1011 
Q 2741 531 2444 195 
Q 2147 -141 1600 -141 
z
M 1600 25 
Q 1956 25 2131 390 
Q 2306 756 2347 1200 
Q 2388 1644 2388 2144 
Q 2388 2625 2347 3031 
Q 2306 3438 2132 3767 
Q 1959 4097 1600 4097 
Q 1238 4097 1063 3765 
Q 888 3434 847 3029 
Q 806 2625 806 2144 
Q 806 1788 823 1472 
Q 841 1156 916 820 
Q 991 484 1158 254 
Q 1325 25 1600 25 
z
" transform="scale(0.015625)"/>
       </defs>
       <use xlink:href="#Cmr10-30" transform="translate(0 0.390625)"/>
      </g>
     </g>
    </g>
    <g id="xtick_2">
     <g id="line2d_3">
      <g>
       <use xlink:href="#m995ec235e6" x="288.31052" y="268.705354" style="stroke: #000000"/>
      </g>
     </g>
     <g id="text_2">
      <!-- $5$ -->
      <g transform="translate(281.31052 293.480979) scale(0.28 -0.28)">
       <defs>
        <path id="Cmr10-35" d="M 556 728 
Q 622 541 758 387 
Q 894 234 1080 148 
Q 1266 63 1466 63 
Q 1928 63 2103 422 
Q 2278 781 2278 1294 
Q 2278 1516 2270 1667 
Q 2263 1819 2228 1959 
Q 2169 2184 2020 2353 
Q 1872 2522 1656 2522 
Q 1441 2522 1286 2456 
Q 1131 2391 1034 2303 
Q 938 2216 863 2119 
Q 788 2022 769 2016 
L 697 2016 
Q 681 2016 657 2036 
Q 634 2056 634 2075 
L 634 4213 
Q 634 4228 654 4245 
Q 675 4263 697 4263 
L 716 4263 
Q 1147 4056 1631 4056 
Q 2106 4056 2547 4263 
L 2566 4263 
Q 2588 4263 2606 4247 
Q 2625 4231 2625 4213 
L 2625 4153 
Q 2625 4122 2613 4122 
Q 2394 3831 2064 3668 
Q 1734 3506 1381 3506 
Q 1125 3506 856 3578 
L 856 2369 
Q 1069 2541 1236 2614 
Q 1403 2688 1663 2688 
Q 2016 2688 2295 2484 
Q 2575 2281 2725 1954 
Q 2875 1628 2875 1288 
Q 2875 903 2686 575 
Q 2497 247 2172 53 
Q 1847 -141 1466 -141 
Q 1150 -141 886 21 
Q 622 184 470 459 
Q 319 734 319 1044 
Q 319 1188 412 1278 
Q 506 1369 647 1369 
Q 788 1369 883 1276 
Q 978 1184 978 1044 
Q 978 906 883 811 
Q 788 716 647 716 
Q 625 716 597 720 
Q 569 725 556 728 
z
" transform="scale(0.015625)"/>
       </defs>
       <use xlink:href="#Cmr10-35" transform="translate(0 0.390625)"/>
      </g>
     </g>
    </g>
    <g id="xtick_3">
     <g id="line2d_4">
      <g>
       <use xlink:href="#m995ec235e6" x="508.840916" y="268.705354" style="stroke: #000000"/>
      </g>
     </g>
     <g id="text_3">
      <!-- $10$ -->
      <g transform="translate(494.840916 293.480979) scale(0.28 -0.28)">
       <defs>
        <path id="Cmr10-31" d="M 594 0 
L 594 225 
Q 1394 225 1394 428 
L 1394 3788 
Q 1063 3628 556 3628 
L 556 3853 
Q 1341 3853 1741 4263 
L 1831 4263 
Q 1853 4263 1873 4245 
Q 1894 4228 1894 4206 
L 1894 428 
Q 1894 225 2694 225 
L 2694 0 
L 594 0 
z
" transform="scale(0.015625)"/>
       </defs>
       <use xlink:href="#Cmr10-31" transform="translate(0 0.390625)"/>
       <use xlink:href="#Cmr10-30" transform="translate(50 0.390625)"/>
      </g>
     </g>
    </g>
    <g id="xtick_4">
     <g id="line2d_5">
      <g>
       <use xlink:href="#m995ec235e6" x="729.371311" y="268.705354" style="stroke: #000000"/>
      </g>
     </g>
     <g id="text_4">
      <!-- $15$ -->
      <g transform="translate(715.371311 293.480979) scale(0.28 -0.28)">
       <use xlink:href="#Cmr10-31" transform="translate(0 0.390625)"/>
       <use xlink:href="#Cmr10-35" transform="translate(50 0.390625)"/>
      </g>
     </g>
    </g>
    <g id="xtick_5">
     <g id="line2d_6">
      <g>
       <use xlink:href="#m995ec235e6" x="949.901707" y="268.705354" style="stroke: #000000"/>
      </g>
     </g>
     <g id="text_5">
      <!-- $20$ -->
      <g transform="translate(935.901707 293.480979) scale(0.28 -0.28)">
       <defs>
        <path id="Cmr10-32" d="M 319 0 
L 319 172 
Q 319 188 331 206 
L 1325 1306 
Q 1550 1550 1690 1715 
Q 1831 1881 1968 2097 
Q 2106 2313 2186 2536 
Q 2266 2759 2266 3009 
Q 2266 3272 2169 3511 
Q 2072 3750 1880 3894 
Q 1688 4038 1416 4038 
Q 1138 4038 916 3870 
Q 694 3703 603 3438 
Q 628 3444 672 3444 
Q 816 3444 917 3347 
Q 1019 3250 1019 3097 
Q 1019 2950 917 2848 
Q 816 2747 672 2747 
Q 522 2747 420 2851 
Q 319 2956 319 3097 
Q 319 3338 409 3548 
Q 500 3759 670 3923 
Q 841 4088 1055 4175 
Q 1269 4263 1509 4263 
Q 1875 4263 2190 4108 
Q 2506 3953 2690 3670 
Q 2875 3388 2875 3009 
Q 2875 2731 2753 2481 
Q 2631 2231 2440 2026 
Q 2250 1822 1953 1562 
Q 1656 1303 1563 1216 
L 838 519 
L 1453 519 
Q 1906 519 2211 526 
Q 2516 534 2534 550 
Q 2609 631 2688 1141 
L 2875 1141 
L 2694 0 
L 319 0 
z
" transform="scale(0.015625)"/>
       </defs>
       <use xlink:href="#Cmr10-32" transform="translate(0 0.390625)"/>
       <use xlink:href="#Cmr10-30" transform="translate(50 0.390625)"/>
      </g>
     </g>
    </g>
   </g>
   <g id="matplotlib.axis_2">
    <g id="ytick_1">
     <g id="line2d_7">
      <defs>
       <path id="mcc76ee114f" d="M 0 0 
L 5 0 
" style="stroke: #000000"/>
      </defs>
      <g>
       <use xlink:href="#mcc76ee114f" x="41.316477" y="260.507004" style="stroke: #000000"/>
      </g>
     </g>
     <g id="text_6">
      <!-- $-1$ -->
      <g transform="translate(1.976477 271.144817) scale(0.28 -0.28)">
       <defs>
        <path id="Cmsy10-a1" d="M 653 1472 
Q 600 1472 565 1512 
Q 531 1553 531 1600 
Q 531 1647 565 1687 
Q 600 1728 653 1728 
L 4325 1728 
Q 4375 1728 4408 1687 
Q 4441 1647 4441 1600 
Q 4441 1553 4408 1512 
Q 4375 1472 4325 1472 
L 653 1472 
z
" transform="scale(0.015625)"/>
       </defs>
       <use xlink:href="#Cmsy10-a1" transform="translate(0 0.390625)"/>
       <use xlink:href="#Cmr10-31" transform="translate(77.685547 0.390625)"/>
      </g>
     </g>
    </g>
    <g id="ytick_2">
     <g id="line2d_8">
      <g>
       <use xlink:href="#mcc76ee114f" x="41.316477" y="178.523501" style="stroke: #000000"/>
      </g>
     </g>
     <g id="text_7">
      <!-- $0$ -->
      <g transform="translate(23.816477 189.161314) scale(0.28 -0.28)">
       <use xlink:href="#Cmr10-30" transform="translate(0 0.390625)"/>
      </g>
     </g>
    </g>
    <g id="ytick_3">
     <g id="line2d_9">
      <g>
       <use xlink:href="#mcc76ee114f" x="41.316477" y="96.539999" style="stroke: #000000"/>
      </g>
     </g>
     <g id="text_8">
      <!-- $1$ -->
      <g transform="translate(23.816477 107.177811) scale(0.28 -0.28)">
       <use xlink:href="#Cmr10-31" transform="translate(0 0.390625)"/>
      </g>
     </g>
    </g>
    <g id="ytick_4">
     <g id="line2d_10">
      <g>
       <use xlink:href="#mcc76ee114f" x="41.316477" y="14.556496" style="stroke: #000000"/>
      </g>
     </g>
     <g id="text_9">
      <!-- $2$ -->
      <g transform="translate(23.816477 25.194308) scale(0.28 -0.28)">
       <use xlink:href="#Cmr10-32" transform="translate(0 0.390625)"/>
      </g>
     </g>
    </g>
   </g>
   <g id="line2d_11">
    <path d="M 67.780124 163.232564 
L 69.235625 129.315748 
L 70.161852 112.605762 
L 70.86755 103.518071 
L 71.396823 99.082559 
L 71.837883 97.048804 
L 72.10252 96.573363 
L 72.278944 96.569354 
L 72.455369 96.815832 
L 72.720005 97.653356 
L 73.072854 99.63334 
L 73.513914 103.459636 
L 74.087294 110.560354 
L 74.792991 122.274097 
L 75.719218 141.69867 
L 77.174719 177.729832 
L 79.07128 223.774803 
L 80.041614 242.169347 
L 80.791418 252.452286 
L 81.364797 257.595752 
L 81.805857 259.825157 
L 82.1146 260.46424 
L 82.291024 260.485336 
L 82.467449 260.255922 
L 82.732085 259.443835 
L 83.084934 257.4972 
L 83.525994 253.71111 
L 84.099373 246.659019 
L 84.805071 234.997355 
L 85.731298 215.624208 
L 87.186799 179.626221 
L 89.127467 132.587229 
L 90.0978 114.361368 
L 90.803498 104.728839 
L 91.376877 99.533445 
L 91.817937 97.262202 
L 92.12668 96.593326 
L 92.303104 96.555143 
L 92.479529 96.767491 
L 92.744165 97.554129 
L 93.097014 99.467387 
L 93.538074 103.213219 
L 94.111453 110.216581 
L 94.817151 121.826001 
L 95.743378 141.147447 
L 97.154773 175.978828 
L 99.139546 224.20345 
L 100.10988 242.492784 
L 100.859684 252.673487 
L 101.433063 257.730243 
L 101.874123 259.889849 
L 102.182866 260.479258 
L 102.35929 260.471876 
L 102.535715 260.214025 
L 102.800351 259.35955 
L 103.1532 257.357348 
L 103.59426 253.504279 
L 104.167639 246.371198 
L 104.873337 234.622829 
L 105.799564 215.164125 
L 107.255065 179.111132 
L 109.151626 133.100526 
L 110.12196 114.747979 
L 110.871764 104.505886 
L 111.445143 99.39708 
L 111.886203 97.195584 
L 112.194946 96.576367 
L 112.37137 96.566662 
L 112.547795 96.807453 
L 112.812431 97.636499 
L 113.16528 99.60537 
L 113.60634 103.41827 
L 114.179719 110.50279 
L 114.885417 122.199191 
L 115.811644 141.606653 
L 117.267145 177.626814 
L 119.163706 223.688859 
L 120.13404 242.104358 
L 120.883843 252.407695 
L 121.457223 257.568479 
L 121.898283 259.811833 
L 122.207026 260.460848 
L 122.38345 260.48764 
L 122.559874 260.263914 
L 122.824511 259.460309 
L 123.17736 257.524797 
L 123.61842 253.75212 
L 124.191799 246.716261 
L 124.897497 235.071993 
L 125.823724 215.716049 
L 127.279225 179.729234 
L 129.219892 132.672598 
L 130.190226 114.42555 
L 130.94003 104.285855 
L 131.513409 99.263839 
L 131.954469 97.132176 
L 132.263212 96.562643 
L 132.439636 96.581416 
L 132.660167 96.956999 
L 132.968909 98.136384 
L 133.365864 100.755438 
L 133.851031 105.583362 
L 134.468516 114.143409 
L 135.262425 128.625687 
L 136.320971 152.533257 
L 139.893564 237.16783 
L 140.687473 249.469808 
L 141.304958 256.046629 
L 141.790125 259.192313 
L 142.142974 260.31337 
L 142.363504 260.506998 
L 142.539928 260.380024 
L 142.760459 259.869597 
L 143.069201 258.503341 
L 143.466156 255.649864 
L 143.995429 250.001058 
L 144.65702 240.204097 
L 145.495036 224.067146 
L 146.641794 197.181366 
L 149.552795 126.79926 
L 150.434916 111.401595 
L 151.140614 102.710002 
L 151.669887 98.598534 
L 152.066841 96.950876 
L 152.331478 96.552155 
L 152.507902 96.599406 
L 152.728433 97.010498 
L 153.037175 98.239128 
L 153.43413 100.920023 
L 153.919297 105.819982 
L 154.536782 114.463608 
L 155.330691 129.035391 
L 156.389237 153.022314 
L 159.917724 236.734211 
L 160.711633 249.158026 
L 161.329118 255.843316 
L 161.814285 259.079765 
L 162.167134 260.268586 
L 162.387664 260.504898 
L 162.564088 260.412088 
L 162.784619 259.944215 
L 163.093361 258.636892 
L 163.490316 255.857274 
L 164.019589 250.301769 
L 164.68118 240.609546 
L 165.519196 224.579831 
L 166.665954 197.78275 
L 169.665167 125.530898 
L 170.547289 110.46875 
L 171.20888 102.515448 
L 171.738153 98.485404 
L 172.135107 96.900979 
L 172.399744 96.544903 
L 172.576168 96.620629 
L 172.796699 97.067214 
L 173.105441 98.345042 
L 173.502396 101.087672 
L 174.031669 106.596407 
L 174.69326 116.236054 
L 175.531276 132.211808 
L 176.678034 158.963968 
L 179.677247 231.279903 
L 180.559369 246.405429 
L 181.22096 254.415182 
L 181.750233 258.494099 
L 182.147187 260.116472 
L 182.411824 260.498137 
L 182.588248 260.439496 
L 182.808779 260.014204 
L 183.117521 258.765889 
L 183.514476 256.060287 
L 183.999643 251.131568 
L 184.617128 242.454607 
L 185.411037 227.847183 
L 186.469583 203.828782 
L 189.953963 120.969417 
L 190.747873 108.364173 
L 191.365358 101.516894 
L 191.850525 98.144645 
L 192.203373 96.854305 
L 192.46801 96.540887 
L 192.644434 96.645086 
L 192.864965 97.127146 
L 193.173707 98.454122 
L 193.570662 101.258378 
L 194.099935 106.845018 
L 194.761526 116.572215 
L 195.599542 132.637777 
L 196.7463 159.464594 
L 199.701407 230.805254 
L 200.583528 246.056889 
L 201.24512 254.179202 
L 201.774393 258.355693 
L 202.171347 260.05389 
L 202.435984 260.486716 
L 202.612408 260.462247 
L 202.832939 260.079561 
L 203.141681 258.890324 
L 203.538636 256.258893 
L 204.023803 251.416547 
L 204.641288 242.839757 
L 205.435197 228.339532 
L 206.493743 204.416016 
L 210.066335 119.807227 
L 210.860245 107.525623 
L 211.47773 100.966917 
L 211.962897 97.836377 
L 212.315746 96.726621 
L 212.536276 96.540107 
L 212.7127 96.672775 
L 212.933231 97.190292 
L 213.241973 98.566362 
L 213.638928 101.432134 
L 214.168201 107.096459 
L 214.829792 116.910822 
L 215.667808 133.065557 
L 216.814566 159.965972 
L 219.725567 230.327634 
L 220.607688 245.70451 
L 221.313386 254.376151 
L 221.842659 258.471347 
L 222.239613 260.106364 
L 222.50425 260.496557 
L 222.680674 260.443611 
L 222.901205 260.025419 
L 223.209947 258.786945 
L 223.606902 256.093695 
L 224.092069 251.179352 
L 224.709554 242.519051 
L 225.503463 227.929436 
L 226.562009 203.926755 
L 230.090495 120.240292 
L 230.884405 107.836734 
L 231.50189 101.169496 
L 231.987057 97.948162 
L 232.339905 96.77063 
L 232.560436 96.541431 
L 232.73686 96.639936 
L 232.957391 97.114903 
L 233.266133 98.432053 
L 233.663088 101.223992 
L 234.192361 106.795069 
L 234.853952 116.504787 
L 235.691967 132.552438 
L 236.838726 159.364408 
L 239.793833 230.725856 
L 240.675954 245.998425 
L 241.337546 254.139453 
L 241.866819 258.332184 
L 242.263773 260.04301 
L 242.52841 260.48436 
L 242.704834 260.465586 
L 242.925364 260.090003 
L 243.234107 258.910619 
L 243.631062 256.291565 
L 244.116229 251.46364 
L 244.733714 242.903593 
L 245.527623 228.421315 
L 246.586169 204.513746 
L 250.158761 119.879173 
L 250.952671 107.577195 
L 251.570156 101.000374 
L 252.055323 97.85469 
L 252.408171 96.733633 
L 252.628702 96.540004 
L 252.805126 96.666979 
L 253.025657 97.177406 
L 253.334399 98.543661 
L 253.731354 101.397139 
L 254.260627 107.045945 
L 254.922218 116.842906 
L 255.760233 132.979857 
L 256.906992 159.865637 
L 259.817993 230.247743 
L 260.700114 245.645408 
L 261.405812 254.337001 
L 261.935085 258.448469 
L 262.332039 260.096127 
L 262.596676 260.494848 
L 262.7731 260.447597 
L 262.99363 260.036505 
L 263.302373 258.807874 
L 263.699328 256.126979 
L 264.184495 251.22702 
L 264.80198 242.583395 
L 265.595889 228.011612 
L 266.654435 204.024688 
L 270.182921 120.312792 
L 270.976831 107.888977 
L 271.594316 101.203687 
L 272.079483 97.967238 
L 272.432331 96.778416 
L 272.652862 96.542105 
L 272.829286 96.634915 
L 273.049816 97.102788 
L 273.358559 98.410111 
L 273.755514 101.189729 
L 274.284787 106.745234 
L 274.946378 116.437457 
L 275.784393 132.467171 
L 276.931151 159.264252 
L 279.930365 231.516104 
L 280.812486 246.578253 
L 281.474078 254.531555 
L 282.003351 258.561598 
L 282.400305 260.146024 
L 282.664942 260.5021 
L 282.841366 260.426374 
L 283.061896 259.979788 
L 283.370639 258.70196 
L 283.767594 255.959331 
L 284.296867 250.450595 
L 284.958458 240.810949 
L 285.796473 224.835194 
L 286.943231 198.083034 
L 289.942445 125.7671 
L 290.824566 110.641574 
L 291.486158 102.631821 
L 292.015431 98.552903 
L 292.412385 96.930531 
L 292.677022 96.548865 
L 292.853446 96.607507 
L 293.073976 97.032798 
L 293.382719 98.281114 
L 293.779674 100.986716 
L 294.264841 105.915434 
L 294.882326 114.592396 
L 295.676235 129.19982 
L 296.734781 153.21822 
L 300.219161 236.077586 
L 301.013071 248.68283 
L 301.630556 255.530109 
L 302.115723 258.902358 
L 302.468571 260.192698 
L 302.733208 260.506116 
L 302.909632 260.401917 
L 303.130162 259.919856 
L 303.438905 258.592881 
L 303.83586 255.788625 
L 304.365133 250.201984 
L 305.026724 240.474787 
L 305.864739 224.409226 
L 307.011497 197.582409 
L 309.966605 126.241748 
L 310.848726 110.990114 
L 311.510317 102.867801 
L 312.03959 98.69131 
L 312.436545 96.993112 
L 312.701182 96.560286 
L 312.877606 96.584756 
L 313.098136 96.967441 
L 313.406879 98.156679 
L 313.803834 100.78811 
L 314.289 105.630456 
L 314.906486 114.207246 
L 315.700395 128.707471 
L 316.758941 152.630987 
L 320.331533 237.239776 
L 321.125443 249.52138 
L 321.742928 256.080086 
L 322.228095 259.210625 
L 322.580943 260.320382 
L 322.801474 260.506895 
L 322.977898 260.374228 
L 323.198428 259.856711 
L 323.507171 258.48064 
L 323.904126 255.614869 
L 324.433399 249.950544 
L 325.09499 240.136181 
L 325.933005 223.981445 
L 327.079763 197.081031 
L 329.990765 126.719369 
L 330.872886 111.342493 
L 331.578583 102.670851 
L 332.107856 98.575656 
L 332.504811 96.940639 
L 332.769448 96.550445 
L 332.945872 96.603392 
L 333.166402 97.021584 
L 333.475145 98.260058 
L 333.8721 100.953308 
L 334.357266 105.867651 
L 334.974752 114.527951 
L 335.768661 129.117566 
L 336.827207 153.120247 
L 340.355693 236.806711 
L 341.149603 249.210269 
L 341.767088 255.877507 
L 342.252255 259.098841 
L 342.605103 260.276373 
L 342.825634 260.505572 
L 343.002058 260.407067 
L 343.222588 259.9321 
L 343.531331 258.61495 
L 343.928286 255.82301 
L 344.457559 250.251933 
L 345.11915 240.542216 
L 345.957165 224.494565 
L 347.103923 197.682595 
L 350.059031 126.321146 
L 350.941152 111.048578 
L 351.602743 102.90755 
L 352.132016 98.714819 
L 352.528971 97.003993 
L 352.793608 96.562643 
L 352.970032 96.581416 
L 353.190562 96.956999 
L 353.499305 98.136384 
L 353.89626 100.755438 
L 354.381426 105.583362 
L 354.998912 114.143409 
L 355.792821 128.625687 
L 356.851367 152.533257 
L 360.423959 237.16783 
L 361.217869 249.469808 
L 361.835354 256.046629 
L 362.320521 259.192313 
L 362.673369 260.31337 
L 362.8939 260.506998 
L 363.070324 260.380024 
L 363.290854 259.869597 
L 363.599597 258.503341 
L 363.996552 255.649864 
L 364.525825 250.001058 
L 365.187416 240.204097 
L 366.025431 224.067146 
L 367.172189 197.181366 
L 370.083191 126.79926 
L 370.965312 111.401595 
L 371.671009 102.710002 
L 372.200282 98.598534 
L 372.597237 96.950876 
L 372.861874 96.552155 
L 373.038298 96.599406 
L 373.258828 97.010498 
L 373.567571 98.239128 
L 373.964526 100.920023 
L 374.449692 105.819982 
L 375.067178 114.463608 
L 375.861087 129.035391 
L 376.919633 153.022314 
L 380.448119 236.734211 
L 381.242029 249.158026 
L 381.859514 255.843316 
L 382.344681 259.079765 
L 382.697529 260.268586 
L 382.91806 260.504898 
L 383.094484 260.412088 
L 383.315014 259.944215 
L 383.623757 258.636892 
L 384.020712 255.857274 
L 384.549985 250.301769 
L 385.211576 240.609546 
L 386.049591 224.579831 
L 387.196349 197.78275 
L 390.195563 125.530898 
L 391.077684 110.46875 
L 391.739275 102.515448 
L 392.268548 98.485404 
L 392.665503 96.900979 
L 392.93014 96.544903 
L 393.106564 96.620629 
L 393.327094 97.067214 
L 393.635837 98.345042 
L 394.032792 101.087672 
L 394.562064 106.596407 
L 395.223656 116.236054 
L 396.061671 132.211808 
L 397.208429 158.963968 
L 400.207643 231.279903 
L 401.089764 246.405429 
L 401.751355 254.415182 
L 402.280628 258.494099 
L 402.677583 260.116472 
L 402.94222 260.498137 
L 403.118644 260.439496 
L 403.339174 260.014204 
L 403.647917 258.765889 
L 404.044872 256.060287 
L 404.530038 251.131568 
L 405.147523 242.454607 
L 405.941433 227.847183 
L 406.999979 203.828782 
L 410.484359 120.969417 
L 411.278268 108.364173 
L 411.895754 101.516894 
L 412.38092 98.144645 
L 412.733769 96.854305 
L 412.998406 96.540887 
L 413.17483 96.645086 
L 413.39536 97.127146 
L 413.704103 98.454122 
L 414.101058 101.258378 
L 414.630331 106.845018 
L 415.291922 116.572215 
L 416.129937 132.637777 
L 417.276695 159.464594 
L 420.231803 230.805254 
L 421.113924 246.056889 
L 421.775515 254.179202 
L 422.304788 258.355693 
L 422.701743 260.05389 
L 422.966379 260.486716 
L 423.142804 260.462247 
L 423.363334 260.079561 
L 423.672077 258.890324 
L 424.069031 256.258893 
L 424.554198 251.416547 
L 425.171683 242.839757 
L 425.965593 228.339532 
L 427.024139 204.416016 
L 430.596731 119.807227 
L 431.390641 107.525623 
L 432.008126 100.966917 
L 432.493293 97.836377 
L 432.846141 96.726621 
L 433.066672 96.540107 
L 433.243096 96.672775 
L 433.463626 97.190292 
L 433.772369 98.566362 
L 434.169324 101.432134 
L 434.698597 107.096459 
L 435.360188 116.910822 
L 436.198203 133.065557 
L 437.344961 159.965972 
L 440.255962 230.327634 
L 441.138084 245.70451 
L 441.843781 254.376151 
L 442.373054 258.471347 
L 442.770009 260.106364 
L 443.034645 260.496557 
L 443.21107 260.443611 
L 443.4316 260.025419 
L 443.740343 258.786945 
L 444.137297 256.093695 
L 444.622464 251.179352 
L 445.239949 242.519051 
L 446.033859 227.929436 
L 447.092405 203.926755 
L 450.620891 120.240292 
L 451.4148 107.836734 
L 452.032286 101.169496 
L 452.517452 97.948162 
L 452.870301 96.77063 
L 453.090832 96.541431 
L 453.267256 96.639936 
L 453.487786 97.114903 
L 453.796529 98.432053 
L 454.193483 101.223992 
L 454.722756 106.795069 
L 455.384348 116.504787 
L 456.222363 132.552438 
L 457.369121 159.364408 
L 460.324228 230.725856 
L 461.20635 245.998425 
L 461.867941 254.139453 
L 462.397214 258.332184 
L 462.794169 260.04301 
L 463.058805 260.48436 
L 463.23523 260.465586 
L 463.45576 260.090003 
L 463.764503 258.910619 
L 464.161457 256.291565 
L 464.646624 251.46364 
L 465.264109 242.903593 
L 466.058019 228.421315 
L 467.116565 204.513746 
L 470.689157 119.879173 
L 471.483067 107.577195 
L 472.100552 101.000374 
L 472.585718 97.85469 
L 472.938567 96.733633 
L 473.159098 96.540004 
L 473.335522 96.666979 
L 473.556052 97.177406 
L 473.864795 98.543661 
L 474.261749 101.397139 
L 474.791022 107.045945 
L 475.452614 116.842906 
L 476.290629 132.979857 
L 477.437387 159.865637 
L 480.348388 230.247743 
L 481.23051 245.645408 
L 481.936207 254.337001 
L 482.46548 258.448469 
L 482.862435 260.096127 
L 483.127071 260.494848 
L 483.303496 260.447597 
L 483.524026 260.036505 
L 483.832769 258.807874 
L 484.229723 256.126979 
L 484.71489 251.22702 
L 485.332375 242.583395 
L 486.126285 228.011612 
L 487.184831 204.024688 
L 490.713317 120.312792 
L 491.507226 107.888977 
L 492.124712 101.203687 
L 492.609878 97.967238 
L 492.962727 96.778416 
L 493.183257 96.542105 
L 493.359682 96.634915 
L 493.580212 97.102788 
L 493.888955 98.410111 
L 494.285909 101.189729 
L 494.815182 106.745234 
L 495.476774 116.437457 
L 496.314789 132.467171 
L 497.461547 159.264252 
L 500.46076 231.516104 
L 501.342882 246.578253 
L 502.004473 254.531555 
L 502.533746 258.561598 
L 502.930701 260.146024 
L 503.195337 260.5021 
L 503.371762 260.426374 
L 503.592292 259.979788 
L 503.901035 258.70196 
L 504.297989 255.959331 
L 504.827262 250.450595 
L 505.488854 240.810949 
L 506.326869 224.835194 
L 507.473627 198.083034 
L 510.47284 125.7671 
L 511.354962 110.641574 
L 512.016553 102.631821 
L 512.545826 98.552903 
L 512.942781 96.930531 
L 513.207417 96.548865 
L 513.383842 96.607507 
L 513.604372 97.032798 
L 513.913115 98.281114 
L 514.310069 100.986716 
L 514.795236 105.915434 
L 515.412721 114.592396 
L 516.206631 129.19982 
L 517.265177 153.21822 
L 520.749557 236.077586 
L 521.543466 248.68283 
L 522.160951 255.530109 
L 522.646118 258.902358 
L 522.998967 260.192698 
L 523.263603 260.506116 
L 523.440028 260.401917 
L 523.660558 259.919856 
L 523.969301 258.592881 
L 524.366255 255.788625 
L 524.895528 250.201984 
L 525.55712 240.474787 
L 526.395135 224.409226 
L 527.541893 197.582409 
L 530.497 126.241748 
L 531.379122 110.990114 
L 532.040713 102.867801 
L 532.569986 98.69131 
L 532.966941 96.993112 
L 533.231577 96.560286 
L 533.408002 96.584756 
L 533.628532 96.967441 
L 533.937275 98.156679 
L 534.334229 100.78811 
L 534.819396 105.630456 
L 535.436881 114.207246 
L 536.230791 128.707471 
L 537.289337 152.630987 
L 540.861929 237.239776 
L 541.655838 249.52138 
L 542.273324 256.080086 
L 542.75849 259.210625 
L 543.111339 260.320382 
L 543.331869 260.506895 
L 543.508294 260.374228 
L 543.728824 259.856711 
L 544.037567 258.48064 
L 544.434521 255.614869 
L 544.963794 249.950544 
L 545.625386 240.136181 
L 546.463401 223.981445 
L 547.610159 197.081031 
L 550.52116 126.719369 
L 551.403282 111.342493 
L 552.108979 102.670851 
L 552.638252 98.575656 
L 553.035207 96.940639 
L 553.299843 96.550445 
L 553.476268 96.603392 
L 553.696798 97.021584 
L 554.005541 98.260058 
L 554.402495 100.953308 
L 554.887662 105.867651 
L 555.505147 114.527951 
L 556.299057 129.117566 
L 557.357603 153.120247 
L 560.886089 236.806711 
L 561.679998 249.210269 
L 562.297483 255.877507 
L 562.78265 259.098841 
L 563.135499 260.276373 
L 563.356029 260.505572 
L 563.532454 260.407067 
L 563.752984 259.9321 
L 564.061727 258.61495 
L 564.458681 255.82301 
L 564.987954 250.251933 
L 565.649545 240.542216 
L 566.487561 224.494565 
L 567.634319 197.682595 
L 570.589426 126.321146 
L 571.471548 111.048578 
L 572.133139 102.90755 
L 572.662412 98.714819 
L 573.059367 97.003993 
L 573.324003 96.562643 
L 573.500428 96.581416 
L 573.720958 96.956999 
L 574.0297 98.136384 
L 574.426655 100.755438 
L 574.911822 105.583362 
L 575.529307 114.143409 
L 576.323217 128.625687 
L 577.381762 152.533257 
L 580.954355 237.16783 
L 581.748264 249.469808 
L 582.365749 256.046629 
L 582.850916 259.192313 
L 583.203765 260.31337 
L 583.424295 260.506998 
L 583.60072 260.380024 
L 583.82125 259.869597 
L 584.129993 258.503341 
L 584.526947 255.649864 
L 585.05622 250.001058 
L 585.717811 240.204097 
L 586.555827 224.067146 
L 587.702585 197.181366 
L 590.613586 126.79926 
L 591.495708 111.401595 
L 592.201405 102.710002 
L 592.730678 98.598534 
L 593.127633 96.950876 
L 593.392269 96.552155 
L 593.568694 96.599406 
L 593.789224 97.010498 
L 594.097966 98.239128 
L 594.494921 100.920023 
L 594.980088 105.819982 
L 595.597573 114.463608 
L 596.391483 129.035391 
L 597.450029 153.022314 
L 600.978515 236.734211 
L 601.772424 249.158026 
L 602.389909 255.843316 
L 602.875076 259.079765 
L 603.227925 260.268586 
L 603.448455 260.504898 
L 603.62488 260.412088 
L 603.84541 259.944215 
L 604.154153 258.636892 
L 604.551107 255.857274 
L 605.08038 250.301769 
L 605.741971 240.609546 
L 606.579987 224.579831 
L 607.726745 197.78275 
L 610.725958 125.530898 
L 611.60808 110.46875 
L 612.269671 102.515448 
L 612.798944 98.485404 
L 613.195899 96.900979 
L 613.460535 96.544903 
L 613.63696 96.620629 
L 613.85749 97.067214 
L 614.166232 98.345042 
L 614.563187 101.087672 
L 615.09246 106.596407 
L 615.754051 116.236054 
L 616.592067 132.211808 
L 617.738825 158.963968 
L 620.738038 231.279903 
L 621.62016 246.405429 
L 622.281751 254.415182 
L 622.811024 258.494099 
L 623.207979 260.116472 
L 623.472615 260.498137 
L 623.64904 260.439496 
L 623.86957 260.014204 
L 624.178312 258.765889 
L 624.575267 256.060287 
L 625.060434 251.131568 
L 625.677919 242.454607 
L 626.471829 227.847183 
L 627.530374 203.828782 
L 631.014755 120.969417 
L 631.808664 108.364173 
L 632.426149 101.516894 
L 632.911316 98.144645 
L 633.264165 96.854305 
L 633.528801 96.540887 
L 633.705226 96.645086 
L 633.925756 97.127146 
L 634.234499 98.454122 
L 634.631453 101.258378 
L 635.160726 106.845018 
L 635.822317 116.572215 
L 636.660333 132.637777 
L 637.807091 159.464594 
L 640.762198 230.805254 
L 641.64432 246.056889 
L 642.305911 254.179202 
L 642.835184 258.355693 
L 643.232139 260.05389 
L 643.496775 260.486716 
L 643.673199 260.462247 
L 643.89373 260.079561 
L 644.202472 258.890324 
L 644.599427 256.258893 
L 645.084594 251.416547 
L 645.702079 242.839757 
L 646.495988 228.339532 
L 647.554534 204.416016 
L 651.127127 119.807227 
L 651.921036 107.525623 
L 652.538521 100.966917 
L 653.023688 97.836377 
L 653.376537 96.726621 
L 653.597067 96.540107 
L 653.773492 96.672775 
L 653.994022 97.190292 
L 654.302765 98.566362 
L 654.699719 101.432134 
L 655.228992 107.096459 
L 655.890583 116.910822 
L 656.728599 133.065557 
L 657.875357 159.965972 
L 660.786358 230.327634 
L 661.66848 245.70451 
L 662.374177 254.376151 
L 662.90345 258.471347 
L 663.300405 260.106364 
L 663.565041 260.496557 
L 663.741465 260.443611 
L 663.961996 260.025419 
L 664.270738 258.786945 
L 664.667693 256.093695 
L 665.15286 251.179352 
L 665.770345 242.519051 
L 666.564255 227.929436 
L 667.6228 203.926755 
L 671.151287 120.240292 
L 671.945196 107.836734 
L 672.562681 101.169496 
L 673.047848 97.948162 
L 673.400697 96.77063 
L 673.621227 96.541431 
L 673.797651 96.639936 
L 674.018182 97.114903 
L 674.326924 98.432053 
L 674.723879 101.223992 
L 675.253152 106.795069 
L 675.914743 116.504787 
L 676.752759 132.552438 
L 677.899517 159.364408 
L 680.854624 230.725856 
L 681.736746 245.998425 
L 682.398337 254.139453 
L 682.92761 258.332184 
L 683.324565 260.04301 
L 683.589201 260.48436 
L 683.765625 260.465586 
L 683.986156 260.090003 
L 684.294898 258.910619 
L 684.691853 256.291565 
L 685.17702 251.46364 
L 685.794505 242.903593 
L 686.588414 228.421315 
L 687.64696 204.513746 
L 691.219553 119.879173 
L 692.013462 107.577195 
L 692.630947 101.000374 
L 693.116114 97.85469 
L 693.468963 96.733633 
L 693.689493 96.540004 
L 693.865917 96.666979 
L 694.086448 97.177406 
L 694.39519 98.543661 
L 694.792145 101.397139 
L 695.321418 107.045945 
L 695.983009 116.842906 
L 696.821025 132.979857 
L 697.967783 159.865637 
L 700.878784 230.247743 
L 701.760906 245.645408 
L 702.466603 254.337001 
L 702.995876 258.448469 
L 703.392831 260.096127 
L 703.657467 260.494848 
L 703.833891 260.447597 
L 704.054422 260.036505 
L 704.363164 258.807874 
L 704.760119 256.126979 
L 705.245286 251.22702 
L 705.862771 242.583395 
L 706.65668 228.011612 
L 707.715226 204.024688 
L 711.243713 120.312792 
L 712.037622 107.888977 
L 712.655107 101.203687 
L 713.140274 97.967238 
L 713.493123 96.778416 
L 713.713653 96.542105 
L 713.890077 96.634915 
L 714.110608 97.102788 
L 714.41935 98.410111 
L 714.816305 101.189729 
L 715.345578 106.745234 
L 716.007169 116.437457 
L 716.845185 132.467171 
L 717.991943 159.264252 
L 720.991156 231.516104 
L 721.873278 246.578253 
L 722.534869 254.531555 
L 723.064142 258.561598 
L 723.461097 260.146024 
L 723.725733 260.5021 
L 723.902157 260.426374 
L 724.122688 259.979788 
L 724.43143 258.70196 
L 724.828385 255.959331 
L 725.357658 250.450595 
L 726.019249 240.810949 
L 726.857265 224.835194 
L 728.004023 198.083034 
L 731.003236 125.7671 
L 731.885358 110.641574 
L 732.546949 102.631821 
L 733.076222 98.552903 
L 733.473177 96.930531 
L 733.737813 96.548865 
L 733.914237 96.607507 
L 734.134768 97.032798 
L 734.44351 98.281114 
L 734.840465 100.986716 
L 735.325632 105.915434 
L 735.943117 114.592396 
L 736.737026 129.19982 
L 737.795572 153.21822 
L 741.279953 236.077586 
L 742.073862 248.68283 
L 742.691347 255.530109 
L 743.176514 258.902358 
L 743.529363 260.192698 
L 743.793999 260.506116 
L 743.970423 260.401917 
L 744.190954 259.919856 
L 744.499696 258.592881 
L 744.896651 255.788625 
L 745.425924 250.201984 
L 746.087515 240.474787 
L 746.925531 224.409226 
L 748.072289 197.582409 
L 751.027396 126.241748 
L 751.909518 110.990114 
L 752.571109 102.867801 
L 753.100382 98.69131 
L 753.497336 96.993112 
L 753.761973 96.560286 
L 753.938397 96.584756 
L 754.158928 96.967441 
L 754.46767 98.156679 
L 754.864625 100.78811 
L 755.349792 105.630456 
L 755.967277 114.207246 
L 756.761186 128.707471 
L 757.819732 152.630987 
L 761.392325 237.239776 
L 762.186234 249.52138 
L 762.803719 256.080086 
L 763.288886 259.210625 
L 763.641735 260.320382 
L 763.862265 260.506895 
L 764.038689 260.374228 
L 764.25922 259.856711 
L 764.567962 258.48064 
L 764.964917 255.614869 
L 765.49419 249.950544 
L 766.155781 240.136181 
L 766.993797 223.981445 
L 768.140555 197.081031 
L 771.051556 126.719369 
L 771.933678 111.342493 
L 772.639375 102.670851 
L 773.168648 98.575656 
L 773.565602 96.940639 
L 773.830239 96.550445 
L 774.006663 96.603392 
L 774.227194 97.021584 
L 774.535936 98.260058 
L 774.932891 100.953308 
L 775.418058 105.867651 
L 776.035543 114.527951 
L 776.829452 129.117566 
L 777.887998 153.120247 
L 781.416485 236.806711 
L 782.210394 249.210269 
L 782.827879 255.877507 
L 783.313046 259.098841 
L 783.665895 260.276373 
L 783.886425 260.505572 
L 784.062849 260.407067 
L 784.28338 259.9321 
L 784.592122 258.61495 
L 784.989077 255.82301 
L 785.51835 250.251933 
L 786.179941 240.542216 
L 787.017957 224.494565 
L 788.164715 197.682595 
L 791.119822 126.321146 
L 792.001944 111.048578 
L 792.663535 102.90755 
L 793.192808 98.714819 
L 793.589762 97.003993 
L 793.854399 96.562643 
L 794.030823 96.581416 
L 794.251354 96.956999 
L 794.560096 98.136384 
L 794.957051 100.755438 
L 795.442218 105.583362 
L 796.059703 114.143409 
L 796.853612 128.625687 
L 797.912158 152.533257 
L 801.484751 237.16783 
L 802.27866 249.469808 
L 802.896145 256.046629 
L 803.381312 259.192313 
L 803.734161 260.31337 
L 803.954691 260.506998 
L 804.131115 260.380024 
L 804.351646 259.869597 
L 804.660388 258.503341 
L 805.057343 255.649864 
L 805.586616 250.001058 
L 806.248207 240.204097 
L 807.086223 224.067146 
L 808.232981 197.181366 
L 811.143982 126.79926 
L 812.026103 111.401595 
L 812.731801 102.710002 
L 813.261074 98.598534 
L 813.658028 96.950876 
L 813.922665 96.552155 
L 814.099089 96.599406 
L 814.31962 97.010498 
L 814.628362 98.239128 
L 815.025317 100.920023 
L 815.510484 105.819982 
L 816.127969 114.463608 
L 816.921878 129.035391 
L 817.980424 153.022314 
L 821.50891 236.734211 
L 822.30282 249.158026 
L 822.920305 255.843316 
L 823.405472 259.079765 
L 823.758321 260.268586 
L 823.978851 260.504898 
L 824.155275 260.412088 
L 824.375806 259.944215 
L 824.684548 258.636892 
L 825.081503 255.857274 
L 825.610776 250.301769 
L 826.272367 240.609546 
L 827.110383 224.579831 
L 828.257141 197.78275 
L 831.256354 125.530898 
L 832.138476 110.46875 
L 832.800067 102.515448 
L 833.32934 98.485404 
L 833.726294 96.900979 
L 833.990931 96.544903 
L 834.167355 96.620629 
L 834.387886 97.067214 
L 834.696628 98.345042 
L 835.093583 101.087672 
L 835.622856 106.596407 
L 836.284447 116.236054 
L 837.122463 132.211808 
L 838.269221 158.963968 
L 841.268434 231.279903 
L 842.150556 246.405429 
L 842.812147 254.415182 
L 843.34142 258.494099 
L 843.738374 260.116472 
L 844.003011 260.498137 
L 844.179435 260.439496 
L 844.399966 260.014204 
L 844.708708 258.765889 
L 845.105663 256.060287 
L 845.59083 251.131568 
L 846.208315 242.454607 
L 847.002224 227.847183 
L 848.06077 203.828782 
L 851.54515 120.969417 
L 852.33906 108.364173 
L 852.956545 101.516894 
L 853.441712 98.144645 
L 853.79456 96.854305 
L 854.059197 96.540887 
L 854.235621 96.645086 
L 854.456152 97.127146 
L 854.764894 98.454122 
L 855.161849 101.258378 
L 855.691122 106.845018 
L 856.352713 116.572215 
L 857.190729 132.637777 
L 858.337487 159.464594 
L 861.292594 230.805254 
L 862.174715 246.056889 
L 862.836307 254.179202 
L 863.36558 258.355693 
L 863.762534 260.05389 
L 864.027171 260.486716 
L 864.203595 260.462247 
L 864.424125 260.079561 
L 864.732868 258.890324 
L 865.129823 256.258893 
L 865.61499 251.416547 
L 866.232475 242.839757 
L 867.026384 228.339532 
L 868.08493 204.416016 
L 871.657522 119.807227 
L 872.451432 107.525623 
L 873.068917 100.966916 
L 873.554084 97.836377 
L 873.906933 96.726621 
L 874.127463 96.540107 
L 874.303887 96.672775 
L 874.524418 97.190292 
L 874.83316 98.566362 
L 875.230115 101.432134 
L 875.759388 107.096459 
L 876.420979 116.910822 
L 877.258995 133.065557 
L 878.405753 159.965972 
L 881.316754 230.327634 
L 882.198875 245.70451 
L 882.904573 254.376151 
L 883.433846 258.471347 
L 883.8308 260.106364 
L 884.095437 260.496557 
L 884.271861 260.443611 
L 884.492391 260.025419 
L 884.801134 258.786945 
L 885.198089 256.093695 
L 885.683256 251.179352 
L 886.300741 242.519051 
L 887.09465 227.929436 
L 888.153196 203.926755 
L 891.681682 120.240292 
L 892.475592 107.836734 
L 893.093077 101.169496 
L 893.578244 97.948162 
L 893.931092 96.77063 
L 894.151623 96.541431 
L 894.328047 96.639936 
L 894.548578 97.114903 
L 894.85732 98.432053 
L 895.254275 101.223992 
L 895.783548 106.795069 
L 896.445139 116.504787 
L 897.283154 132.552438 
L 898.429913 159.364408 
L 901.38502 230.725856 
L 902.267141 245.998425 
L 902.928733 254.139453 
L 903.458006 258.332184 
L 903.85496 260.04301 
L 904.119597 260.48436 
L 904.296021 260.465586 
L 904.516551 260.090003 
L 904.825294 258.910619 
L 905.222249 256.291565 
L 905.707416 251.46364 
L 906.324901 242.903593 
L 907.11881 228.421315 
L 908.177356 204.513746 
L 911.749948 119.879173 
L 912.543858 107.577195 
L 913.161343 101.000374 
L 913.64651 97.85469 
L 913.999358 96.733633 
L 914.219889 96.540004 
L 914.396313 96.666979 
L 914.616844 97.177406 
L 914.925586 98.543661 
L 915.322541 101.397139 
L 915.851814 107.045945 
L 916.513405 116.842906 
L 917.35142 132.979857 
L 918.498179 159.865637 
L 921.40918 230.247743 
L 922.291301 245.645408 
L 922.996999 254.337001 
L 923.526272 258.448469 
L 923.923226 260.096127 
L 924.187863 260.494848 
L 924.364287 260.447597 
L 924.584817 260.036505 
L 924.89356 258.807874 
L 925.290515 256.126979 
L 925.775682 251.22702 
L 926.393167 242.583395 
L 927.187076 228.011612 
L 928.245622 204.024688 
L 931.774108 120.312792 
L 932.568018 107.888977 
L 933.185503 101.203687 
L 933.67067 97.967238 
L 934.023518 96.778416 
L 934.244049 96.542105 
L 934.420473 96.634915 
L 934.641003 97.102788 
L 934.949746 98.410111 
L 935.346701 101.189729 
L 935.875974 106.745234 
L 936.537565 116.437457 
L 937.37558 132.467171 
L 938.522338 159.264252 
L 941.521552 231.516104 
L 942.403673 246.578253 
L 943.065265 254.531555 
L 943.594538 258.561598 
L 943.991492 260.146024 
L 944.256129 260.5021 
L 944.432553 260.426374 
L 944.653083 259.979788 
L 944.961826 258.70196 
L 945.358781 255.959331 
L 945.888054 250.450595 
L 946.549645 240.810949 
L 947.38766 224.835194 
L 948.534418 198.083034 
L 949.901707 163.232564 
L 949.901707 163.232564 
" clip-path="url(#p8092fd6336)" style="fill: none; stroke: #e36f47; stroke-width: 4"/>
   </g>
   <g id="patch_3">
    <path d="M 41.316477 268.705354 
L 41.316477 6.358146 
" style="fill: none; stroke: #000000; stroke-width: 2; stroke-linejoin: miter; stroke-linecap: square"/>
   </g>
   <g id="patch_4">
    <path d="M 41.316477 268.705354 
L 976.365354 268.705354 
" style="fill: none; stroke: #000000; stroke-width: 2; stroke-linejoin: miter; stroke-linecap: square"/>
   </g>
   <g id="line2d_12">
    <path d="M 67.780124 32.592867 
L 71.08808 43.162773 
L 74.396036 52.96709 
L 77.703992 62.06127 
L 81.011948 70.49675 
L 84.36401 78.421521 
L 87.62786 85.578992 
L 91.024028 92.483691 
L 94.331984 98.715643 
L 97.684046 104.570473 
L 101.080214 110.064326 
L 104.6087 115.340398 
L 105.182079 116.158601 
L 105.226185 34.282354 
L 105.314398 34.571415 
L 108.490035 44.595934 
L 111.797991 54.296446 
L 115.150053 63.409593 
L 118.413903 71.640507 
L 121.765965 79.481314 
L 125.073921 86.655042 
L 128.425983 93.394548 
L 131.733939 99.560526 
L 135.086001 105.353365 
L 138.482169 110.789152 
L 142.010655 116.009362 
L 144.083641 118.886513 
L 144.127747 37.019648 
L 144.215959 37.303268 
L 147.435703 47.268918 
L 150.699553 56.653918 
L 154.051615 65.594133 
L 157.315465 73.668838 
L 160.667527 81.360858 
L 163.975483 88.398448 
L 167.327545 95.010078 
L 170.635501 101.059042 
L 173.987563 106.741952 
L 177.383731 112.074555 
L 180.912217 117.195701 
L 183.955537 121.294606 
L 183.999643 39.417344 
L 184.087855 39.696131 
L 187.307599 49.492947 
L 190.571449 58.718932 
L 193.923511 67.507652 
L 197.18736 75.445543 
L 200.583528 83.102929 
L 203.847378 89.925562 
L 207.19944 96.425149 
L 210.507396 102.371617 
L 213.859458 107.958233 
L 217.255626 113.200496 
L 220.828219 118.295169 
L 224.356705 122.936899 
L 224.577236 123.214853 
L 224.621342 41.328121 
L 224.709554 41.603049 
L 227.885191 51.137913 
L 231.237253 60.482765 
L 234.501103 68.922955 
L 237.853165 76.963118 
L 241.161121 84.319241 
L 244.513183 91.230096 
L 247.821139 97.552848 
L 251.173201 103.492971 
L 254.525263 108.997319 
L 257.965537 114.226701 
L 261.405812 119.062999 
L 265.02251 123.755368 
L 265.948738 124.896428 
L 265.992844 43.028539 
L 266.081056 43.300131 
L 269.3008 52.842579 
L 272.56465 61.829042 
L 275.916712 70.389623 
L 279.180561 78.121433 
L 282.57673 85.58007 
L 285.840579 92.225564 
L 289.192641 98.556442 
L 292.544703 104.422949 
L 295.940872 109.927817 
L 299.469358 115.214409 
L 303.04195 120.15202 
L 306.570437 124.650645 
L 307.981831 126.351627 
L 308.025937 44.424432 
L 308.114149 44.692976 
L 311.289787 54.012769 
L 314.597743 63.03121 
L 317.949805 71.503637 
L 321.301867 79.354555 
L 324.565717 86.445302 
L 327.961885 93.285658 
L 331.269841 99.459523 
L 334.621903 105.259781 
L 338.018071 110.702415 
L 341.546557 115.929309 
L 345.11915 120.811197 
L 348.647636 125.259019 
L 350.147243 127.044018 
L 350.191349 45.122851 
L 350.279561 45.390033 
L 353.455199 54.66127 
L 356.763155 63.632739 
L 360.115217 72.061021 
L 363.467279 79.871069 
L 366.731129 86.924866 
L 370.127297 93.72962 
L 373.435253 99.871328 
L 376.787315 105.641375 
L 380.183483 111.055642 
L 383.667863 116.192951 
L 387.240455 121.054254 
L 390.857154 125.589576 
L 391.695169 126.588276 
L 391.739275 44.729411 
L 391.827488 44.997621 
L 395.047231 54.420255 
L 398.266975 63.178418 
L 401.574931 71.532981 
L 404.926993 79.381763 
L 408.323161 86.746808 
L 411.587011 93.308864 
L 414.939073 99.560285 
L 418.291135 105.35315 
L 421.687303 110.788886 
L 425.215789 116.009117 
L 428.788382 120.884759 
L 432.316868 125.326912 
L 432.493293 125.539882 
L 432.537399 43.666668 
L 432.625611 43.936966 
L 435.845355 53.434488 
L 439.109204 62.378635 
L 442.461266 70.898891 
L 445.725116 78.594294 
L 449.121284 86.017789 
L 452.385134 92.631994 
L 455.737196 98.933049 
L 459.089258 104.771926 
L 462.485426 110.25088 
L 466.013913 115.512574 
L 469.586505 120.426927 
L 472.762143 124.472756 
L 472.806249 42.569536 
L 472.894461 42.84191 
L 476.070099 52.290554 
L 479.422161 61.550859 
L 482.730117 70.023308 
L 486.038073 77.882089 
L 489.346029 85.17165 
L 492.698091 92.019942 
L 496.006046 98.285484 
L 499.358109 104.17185 
L 502.710171 109.6264 
L 506.150445 114.808469 
L 509.590719 119.601024 
L 512.678144 123.594193 
L 512.72225 41.672282 
L 512.810463 41.946351 
L 515.9861 51.457411 
L 519.294056 60.660939 
L 522.646118 69.30724 
L 525.99818 77.319292 
L 529.26203 84.555557 
L 532.614092 91.449 
L 535.922048 97.755896 
L 539.27411 103.681096 
L 542.626172 109.171653 
L 546.066446 114.387937 
L 549.50672 119.212133 
L 552.373616 122.953823 
L 552.417722 41.045438 
L 552.505934 41.320833 
L 555.681572 50.875421 
L 558.989528 60.121103 
L 562.34159 68.806978 
L 565.649545 76.753859 
L 569.001607 84.219663 
L 572.309563 91.050188 
L 575.617519 97.38597 
L 578.969581 103.338321 
L 582.321643 108.854022 
L 585.761918 114.094188 
L 589.202192 118.940475 
L 591.936769 122.531065 
L 591.980875 40.639826 
L 592.069087 40.916112 
L 595.244725 50.498831 
L 598.596787 59.890567 
L 601.860636 68.373099 
L 605.212698 76.4536 
L 608.520654 83.846628 
L 611.872716 90.792144 
L 615.180672 97.146617 
L 618.532734 103.116539 
L 621.884796 108.648505 
L 625.325071 113.904123 
L 628.765345 118.764692 
L 631.455816 122.309541 
L 631.499922 40.411702 
L 631.588134 40.688415 
L 634.763771 50.287014 
L 638.115833 59.694293 
L 641.423789 68.301215 
L 644.731745 76.284729 
L 648.039701 83.689989 
L 651.391763 90.646982 
L 654.699719 97.011969 
L 658.051781 102.991764 
L 661.403843 108.532886 
L 664.844117 113.797202 
L 668.284392 118.66582 
L 671.063075 122.329385 
L 671.107181 40.459079 
L 671.195393 40.735806 
L 674.415137 50.459228 
L 677.678986 59.616113 
L 681.031048 68.339025 
L 684.294898 76.217464 
L 687.691066 83.817527 
L 690.954916 90.589053 
L 694.306978 97.039978 
L 697.614934 102.941914 
L 700.966996 108.486694 
L 704.363164 113.689682 
L 707.935757 118.746206 
L 710.802652 122.517297 
L 710.846758 40.640892 
L 710.93497 40.917233 
L 714.154714 50.627871 
L 717.418564 59.772705 
L 720.770626 68.484123 
L 724.034476 76.352193 
L 727.430644 83.942231 
L 730.694494 90.70485 
L 734.046556 97.147272 
L 737.354512 103.041436 
L 740.706574 108.578913 
L 744.102742 113.775062 
L 747.675334 118.824924 
L 750.718653 122.814968 
L 750.76276 40.907483 
L 750.850972 41.183158 
L 754.026609 50.747331 
L 757.334565 60.002291 
L 760.686627 68.69688 
L 763.994583 76.651736 
L 767.346645 84.125034 
L 770.654601 90.962412 
L 773.962557 97.304552 
L 777.314619 103.262877 
L 780.666681 108.784112 
L 784.106955 114.029536 
L 787.54723 118.880685 
L 790.855185 123.200692 
L 790.899292 41.335381 
L 790.987504 41.610369 
L 794.207248 51.272058 
L 797.471097 60.370815 
L 800.823159 69.038371 
L 804.087009 76.866798 
L 807.483177 84.418641 
L 810.747027 91.147177 
L 814.099089 97.557167 
L 817.407045 103.421642 
L 820.759107 108.931231 
L 824.155275 114.10118 
L 827.727868 119.125615 
L 831.07993 123.483163 
L 831.124036 41.575746 
L 831.212248 41.850086 
L 834.387886 51.367813 
L 837.695842 60.577831 
L 841.047904 69.230198 
L 844.355859 77.146425 
L 847.707922 84.583435 
L 851.015877 91.38761 
L 854.323833 97.698953 
L 857.675895 103.628344 
L 861.027957 109.122768 
L 864.468232 114.34272 
L 867.908506 119.170311 
L 871.392886 123.689702 
L 871.436992 41.780167 
L 871.525204 42.054087 
L 874.700842 51.557614 
L 878.008798 60.753884 
L 881.36086 69.393339 
L 884.668816 77.297749 
L 888.020878 84.723653 
L 891.328834 91.517673 
L 894.63679 97.819595 
L 897.988852 103.740134 
L 901.340914 109.226358 
L 904.781188 114.438519 
L 908.221462 119.258906 
L 911.705842 123.771549 
L 911.749948 41.855954 
L 911.838161 42.129691 
L 915.013798 51.627968 
L 918.321754 60.819143 
L 921.673816 69.453822 
L 924.981772 77.353852 
L 928.333834 84.775625 
L 931.64179 91.56588 
L 934.949746 97.864311 
L 938.301808 103.781564 
L 941.65387 109.264749 
L 945.094144 114.474026 
L 948.534418 119.291745 
L 949.901707 121.104137 
L 949.901707 121.104137 
" clip-path="url(#p8092fd6336)" style="fill: none; stroke: #3ea44d; stroke-width: 4"/>
   </g>
   <g id="PathCollection_1">
    <defs>
     <path id="m2c6e4bcc7d" d="M 0 4 
C 1.060812 4 2.078319 3.578535 2.828427 2.828427 
C 3.578535 2.078319 4 1.060812 4 0 
C 4 -1.060812 3.578535 -2.078319 2.828427 -2.828427 
C 2.078319 -3.578535 1.060812 -4 0 -4 
C -1.060812 -4 -2.078319 -3.578535 -2.828427 -2.828427 
C -3.578535 -2.078319 -4 -1.060812 -4 0 
C -4 1.060812 -3.578535 2.078319 -2.828427 2.828427 
C -2.078319 3.578535 -1.060812 4 0 4 
z
" style="stroke: #000000; stroke-width: 2"/>
    </defs>
    <g clip-path="url(#p8092fd6336)">
     <use xlink:href="#m2c6e4bcc7d" x="67.780124" y="32.592867" style="stroke: #000000; stroke-width: 2"/>
     <use xlink:href="#m2c6e4bcc7d" x="105.226185" y="34.282354" style="stroke: #000000; stroke-width: 2"/>
     <use xlink:href="#m2c6e4bcc7d" x="144.127747" y="37.019648" style="stroke: #000000; stroke-width: 2"/>
     <use xlink:href="#m2c6e4bcc7d" x="183.999643" y="39.417344" style="stroke: #000000; stroke-width: 2"/>
     <use xlink:href="#m2c6e4bcc7d" x="224.621342" y="41.328121" style="stroke: #000000; stroke-width: 2"/>
     <use xlink:href="#m2c6e4bcc7d" x="265.992844" y="43.028539" style="stroke: #000000; stroke-width: 2"/>
     <use xlink:href="#m2c6e4bcc7d" x="308.025937" y="44.424432" style="stroke: #000000; stroke-width: 2"/>
     <use xlink:href="#m2c6e4bcc7d" x="350.191349" y="45.122851" style="stroke: #000000; stroke-width: 2"/>
     <use xlink:href="#m2c6e4bcc7d" x="391.739275" y="44.729411" style="stroke: #000000; stroke-width: 2"/>
     <use xlink:href="#m2c6e4bcc7d" x="432.537399" y="43.666668" style="stroke: #000000; stroke-width: 2"/>
     <use xlink:href="#m2c6e4bcc7d" x="472.806249" y="42.569536" style="stroke: #000000; stroke-width: 2"/>
     <use xlink:href="#m2c6e4bcc7d" x="512.72225" y="41.672282" style="stroke: #000000; stroke-width: 2"/>
     <use xlink:href="#m2c6e4bcc7d" x="552.417722" y="41.045438" style="stroke: #000000; stroke-width: 2"/>
     <use xlink:href="#m2c6e4bcc7d" x="591.980875" y="40.639826" style="stroke: #000000; stroke-width: 2"/>
     <use xlink:href="#m2c6e4bcc7d" x="631.499922" y="40.411702" style="stroke: #000000; stroke-width: 2"/>
     <use xlink:href="#m2c6e4bcc7d" x="671.107181" y="40.459079" style="stroke: #000000; stroke-width: 2"/>
     <use xlink:href="#m2c6e4bcc7d" x="710.846758" y="40.640892" style="stroke: #000000; stroke-width: 2"/>
     <use xlink:href="#m2c6e4bcc7d" x="750.76276" y="40.907483" style="stroke: #000000; stroke-width: 2"/>
     <use xlink:href="#m2c6e4bcc7d" x="790.899292" y="41.335381" style="stroke: #000000; stroke-width: 2"/>
     <use xlink:href="#m2c6e4bcc7d" x="831.124036" y="41.575746" style="stroke: #000000; stroke-width: 2"/>
     <use xlink:href="#m2c6e4bcc7d" x="871.436992" y="41.780167" style="stroke: #000000; stroke-width: 2"/>
     <use xlink:href="#m2c6e4bcc7d" x="911.749948" y="41.855954" style="stroke: #000000; stroke-width: 2"/>
    </g>
   </g>
   <g id="PathCollection_2">
    <g clip-path="url(#p8092fd6336)">
     <use xlink:href="#m2c6e4bcc7d" x="67.780124" y="163.232564" style="stroke: #000000; stroke-width: 2"/>
     <use xlink:href="#m2c6e4bcc7d" x="105.226185" y="227.682442" style="stroke: #000000; stroke-width: 2"/>
     <use xlink:href="#m2c6e4bcc7d" x="144.127747" y="248.274984" style="stroke: #000000; stroke-width: 2"/>
     <use xlink:href="#m2c6e4bcc7d" x="183.999643" y="251.131568" style="stroke: #000000; stroke-width: 2"/>
     <use xlink:href="#m2c6e4bcc7d" x="224.621342" y="243.911087" style="stroke: #000000; stroke-width: 2"/>
     <use xlink:href="#m2c6e4bcc7d" x="265.992844" y="219.518574" style="stroke: #000000; stroke-width: 2"/>
     <use xlink:href="#m2c6e4bcc7d" x="308.025937" y="171.701342" style="stroke: #000000; stroke-width: 2"/>
     <use xlink:href="#m2c6e4bcc7d" x="350.191349" y="123.745289" style="stroke: #000000; stroke-width: 2"/>
     <use xlink:href="#m2c6e4bcc7d" x="391.739275" y="102.515448" style="stroke: #000000; stroke-width: 2"/>
     <use xlink:href="#m2c6e4bcc7d" x="432.537399" y="97.643357" style="stroke: #000000; stroke-width: 2"/>
     <use xlink:href="#m2c6e4bcc7d" x="472.806249" y="97.037408" style="stroke: #000000; stroke-width: 2"/>
     <use xlink:href="#m2c6e4bcc7d" x="512.72225" y="97.677303" style="stroke: #000000; stroke-width: 2"/>
     <use xlink:href="#m2c6e4bcc7d" x="552.417722" y="100.020377" style="stroke: #000000; stroke-width: 2"/>
     <use xlink:href="#m2c6e4bcc7d" x="591.980875" y="105.045865" style="stroke: #000000; stroke-width: 2"/>
     <use xlink:href="#m2c6e4bcc7d" x="631.499922" y="112.789997" style="stroke: #000000; stroke-width: 2"/>
     <use xlink:href="#m2c6e4bcc7d" x="671.107181" y="121.042831" style="stroke: #000000; stroke-width: 2"/>
     <use xlink:href="#m2c6e4bcc7d" x="710.846758" y="127.926246" style="stroke: #000000; stroke-width: 2"/>
     <use xlink:href="#m2c6e4bcc7d" x="750.76276" y="131.65299" style="stroke: #000000; stroke-width: 2"/>
     <use xlink:href="#m2c6e4bcc7d" x="790.899292" y="130.811448" style="stroke: #000000; stroke-width: 2"/>
     <use xlink:href="#m2c6e4bcc7d" x="831.124036" y="128.169792" style="stroke: #000000; stroke-width: 2"/>
     <use xlink:href="#m2c6e4bcc7d" x="871.436992" y="123.898764" style="stroke: #000000; stroke-width: 2"/>
     <use xlink:href="#m2c6e4bcc7d" x="911.749948" y="119.879173" style="stroke: #000000; stroke-width: 2"/>
    </g>
   </g>
   <g id="line2d_13">
    <path d="M 67.780124 303.4 
L 67.780124 -1 
" clip-path="url(#p8092fd6336)" style="fill: none; stroke-dasharray: 7.4,3.2; stroke-dashoffset: 0; stroke: #000000; stroke-width: 2"/>
   </g>
   <g id="line2d_14">
    <path d="M 105.226185 303.4 
L 105.226185 -1 
" clip-path="url(#p8092fd6336)" style="fill: none; stroke-dasharray: 7.4,3.2; stroke-dashoffset: 0; stroke: #000000; stroke-width: 2"/>
   </g>
   <g id="line2d_15">
    <path d="M 144.127747 303.4 
L 144.127747 -1 
" clip-path="url(#p8092fd6336)" style="fill: none; stroke-dasharray: 7.4,3.2; stroke-dashoffset: 0; stroke: #000000; stroke-width: 2"/>
   </g>
   <g id="line2d_16">
    <path d="M 183.999643 303.4 
L 183.999643 -1 
" clip-path="url(#p8092fd6336)" style="fill: none; stroke-dasharray: 7.4,3.2; stroke-dashoffset: 0; stroke: #000000; stroke-width: 2"/>
   </g>
   <g id="line2d_17">
    <path d="M 224.621342 303.4 
L 224.621342 -1 
" clip-path="url(#p8092fd6336)" style="fill: none; stroke-dasharray: 7.4,3.2; stroke-dashoffset: 0; stroke: #000000; stroke-width: 2"/>
   </g>
   <g id="line2d_18">
    <path d="M 265.992844 303.4 
L 265.992844 -1 
" clip-path="url(#p8092fd6336)" style="fill: none; stroke-dasharray: 7.4,3.2; stroke-dashoffset: 0; stroke: #000000; stroke-width: 2"/>
   </g>
   <g id="line2d_19">
    <path d="M 308.025937 303.4 
L 308.025937 -1 
" clip-path="url(#p8092fd6336)" style="fill: none; stroke-dasharray: 7.4,3.2; stroke-dashoffset: 0; stroke: #000000; stroke-width: 2"/>
   </g>
   <g id="line2d_20">
    <path d="M 350.191349 303.4 
L 350.191349 -1 
" clip-path="url(#p8092fd6336)" style="fill: none; stroke-dasharray: 7.4,3.2; stroke-dashoffset: 0; stroke: #000000; stroke-width: 2"/>
   </g>
   <g id="line2d_21">
    <path d="M 391.739275 303.4 
L 391.739275 -1 
" clip-path="url(#p8092fd6336)" style="fill: none; stroke-dasharray: 7.4,3.2; stroke-dashoffset: 0; stroke: #000000; stroke-width: 2"/>
   </g>
   <g id="line2d_22">
    <path d="M 432.537399 303.4 
L 432.537399 -1 
" clip-path="url(#p8092fd6336)" style="fill: none; stroke-dasharray: 7.4,3.2; stroke-dashoffset: 0; stroke: #000000; stroke-width: 2"/>
   </g>
   <g id="line2d_23">
    <path d="M 472.806249 303.4 
L 472.806249 -1 
" clip-path="url(#p8092fd6336)" style="fill: none; stroke-dasharray: 7.4,3.2; stroke-dashoffset: 0; stroke: #000000; stroke-width: 2"/>
   </g>
   <g id="line2d_24">
    <path d="M 512.72225 303.4 
L 512.72225 -1 
" clip-path="url(#p8092fd6336)" style="fill: none; stroke-dasharray: 7.4,3.2; stroke-dashoffset: 0; stroke: #000000; stroke-width: 2"/>
   </g>
   <g id="line2d_25">
    <path d="M 552.417722 303.4 
L 552.417722 -1 
" clip-path="url(#p8092fd6336)" style="fill: none; stroke-dasharray: 7.4,3.2; stroke-dashoffset: 0; stroke: #000000; stroke-width: 2"/>
   </g>
   <g id="line2d_26">
    <path d="M 591.980875 303.4 
L 591.980875 -1 
" clip-path="url(#p8092fd6336)" style="fill: none; stroke-dasharray: 7.4,3.2; stroke-dashoffset: 0; stroke: #000000; stroke-width: 2"/>
   </g>
   <g id="line2d_27">
    <path d="M 631.499922 303.4 
L 631.499922 -1 
" clip-path="url(#p8092fd6336)" style="fill: none; stroke-dasharray: 7.4,3.2; stroke-dashoffset: 0; stroke: #000000; stroke-width: 2"/>
   </g>
   <g id="line2d_28">
    <path d="M 671.107181 303.4 
L 671.107181 -1 
" clip-path="url(#p8092fd6336)" style="fill: none; stroke-dasharray: 7.4,3.2; stroke-dashoffset: 0; stroke: #000000; stroke-width: 2"/>
   </g>
   <g id="line2d_29">
    <path d="M 710.846758 303.4 
L 710.846758 -1 
" clip-path="url(#p8092fd6336)" style="fill: none; stroke-dasharray: 7.4,3.2; stroke-dashoffset: 0; stroke: #000000; stroke-width: 2"/>
   </g>
   <g id="line2d_30">
    <path d="M 750.76276 303.4 
L 750.76276 -1 
" clip-path="url(#p8092fd6336)" style="fill: none; stroke-dasharray: 7.4,3.2; stroke-dashoffset: 0; stroke: #000000; stroke-width: 2"/>
   </g>
   <g id="line2d_31">
    <path d="M 790.899292 303.4 
L 790.899292 -1 
" clip-path="url(#p8092fd6336)" style="fill: none; stroke-dasharray: 7.4,3.2; stroke-dashoffset: 0; stroke: #000000; stroke-width: 2"/>
   </g>
   <g id="line2d_32">
    <path d="M 831.124036 303.4 
L 831.124036 -1 
" clip-path="url(#p8092fd6336)" style="fill: none; stroke-dasharray: 7.4,3.2; stroke-dashoffset: 0; stroke: #000000; stroke-width: 2"/>
   </g>
   <g id="line2d_33">
    <path d="M 871.436992 303.4 
L 871.436992 -1 
" clip-path="url(#p8092fd6336)" style="fill: none; stroke-dasharray: 7.4,3.2; stroke-dashoffset: 0; stroke: #000000; stroke-width: 2"/>
   </g>
   <g id="line2d_34">
    <path d="M 911.749948 303.4 
L 911.749948 -1 
" clip-path="url(#p8092fd6336)" style="fill: none; stroke-dasharray: 7.4,3.2; stroke-dashoffset: 0; stroke: #000000; stroke-width: 2"/>
   </g>
  </g>
 </g>
 <defs>
  <clipPath id="p8092fd6336">
   <rect x="41.316477" y="6.358146" width="935.048878" height="262.347209"/>
  </clipPath>
 </defs>
</svg>
