<?xml version="1.0" encoding="utf-8" standalone="no"?>
<!DOCTYPE svg PUBLIC "-//W3C//DTD SVG 1.1//EN"
  "http://www.w3.org/Graphics/SVG/1.1/DTD/svg11.dtd">
<svg xmlns:xlink="http://www.w3.org/1999/xlink" width="959.04pt" height="267.84pt" viewBox="0 0 959.04 267.84" xmlns="http://www.w3.org/2000/svg" version="1.1">
 <metadata>
  <rdf:RDF xmlns:dc="http://purl.org/dc/elements/1.1/" xmlns:cc="http://creativecommons.org/ns#" xmlns:rdf="http://www.w3.org/1999/02/22-rdf-syntax-ns#">
   <cc:Work>
    <dc:type rdf:resource="http://purl.org/dc/dcmitype/StillImage"/>
    <dc:date>2024-04-27T16:44:24.992556</dc:date>
    <dc:format>image/svg+xml</dc:format>
    <dc:creator>
     <cc:Agent>
      <dc:title>Matplotlib v3.7.0, https://matplotlib.org/</dc:title>
     </cc:Agent>
    </dc:creator>
   </cc:Work>
  </rdf:RDF>
 </metadata>
 <defs>
  <style type="text/css">*{stroke-linejoin: round; stroke-linecap: butt}</style>
 </defs>
 <g id="figure_1">
  <g id="patch_1">
   <path d="M 0 267.84 
L 959.04 267.84 
L 959.04 0 
L 0 0 
L 0 267.84 
z
" style="fill: none"/>
  </g>
  <g id="axes_1">
   <g id="patch_2">
    <path d="M 56.418899 234.145354 
L 956.205354 234.145354 
L 956.205354 7.797755 
L 56.418899 7.797755 
L 56.418899 234.145354 
z
" style="fill: none"/>
   </g>
   <g id="line2d_1">
    <path d="M 81.884553 14.203819 
L 99.208127 14.203819 
L 116.531702 21.69744 
L 133.855276 21.69744 
L 151.178851 21.69744 
L 168.502425 21.69744 
L 185.826 21.69744 
L 203.149574 21.69744 
L 220.473148 29.191061 
L 237.796723 21.69744 
L 255.120297 29.191061 
L 272.443872 29.191061 
L 289.767446 36.684682 
L 307.091021 29.191061 
L 324.414595 36.684682 
L 341.738169 44.178303 
L 359.061744 51.671924 
L 376.385318 66.659167 
L 393.708893 74.152788 
L 411.032467 104.127272 
L 428.356042 134.101756 
L 445.679616 179.063482 
L 463.00319 201.544345 
L 480.326765 196.548598 
L 497.650339 164.07624 
L 514.973914 134.101756 
L 532.297488 96.633651 
L 549.621063 81.646409 
L 566.944637 59.165545 
L 584.268211 51.671924 
L 601.591786 44.178303 
L 618.91536 36.684682 
L 636.238935 36.684682 
L 653.562509 29.191061 
L 670.886084 29.191061 
L 688.209658 29.191061 
L 705.533232 29.191061 
L 722.856807 21.69744 
L 740.180381 21.69744 
L 757.503956 21.69744 
L 774.82753 21.69744 
L 792.151105 21.69744 
L 809.474679 21.69744 
L 826.798253 21.69744 
L 844.121828 14.203819 
L 861.445402 21.69744 
L 878.768977 21.69744 
L 896.092551 14.203819 
L 913.416125 21.69744 
L 930.7397 14.203819 
" clip-path="url(#pe4385422f0)" style="fill: none; stroke: #0173b2; stroke-width: 6"/>
   </g>
   <g id="matplotlib.axis_1">
    <g id="xtick_1">
     <g id="line2d_2">
      <defs>
       <path id="m60e4dd5088" d="M 0 0 
L 0 -5 
" style="stroke: #000000"/>
      </defs>
      <g>
       <use xlink:href="#m60e4dd5088" x="262.266272" y="234.145354" style="stroke: #000000"/>
      </g>
     </g>
     <g id="text_1">
      <!-- $0.9$ -->
      <g transform="translate(244.346272 258.920979) scale(0.28 -0.28)">
       <defs>
        <path id="Cmr10-30" d="M 1600 -141 
Q 816 -141 533 504 
Q 250 1150 250 2041 
Q 250 2597 351 3087 
Q 453 3578 754 3920 
Q 1056 4263 1600 4263 
Q 2022 4263 2290 4056 
Q 2559 3850 2700 3523 
Q 2841 3197 2892 2823 
Q 2944 2450 2944 2041 
Q 2944 1491 2842 1011 
Q 2741 531 2444 195 
Q 2147 -141 1600 -141 
z
M 1600 25 
Q 1956 25 2131 390 
Q 2306 756 2347 1200 
Q 2388 1644 2388 2144 
Q 2388 2625 2347 3031 
Q 2306 3438 2132 3767 
Q 1959 4097 1600 4097 
Q 1238 4097 1063 3765 
Q 888 3434 847 3029 
Q 806 2625 806 2144 
Q 806 1788 823 1472 
Q 841 1156 916 820 
Q 991 484 1158 254 
Q 1325 25 1600 25 
z
" transform="scale(0.015625)"/>
        <path id="Cmmi10-3a" d="M 538 353 
Q 538 497 644 600 
Q 750 703 891 703 
Q 978 703 1062 656 
Q 1147 609 1194 525 
Q 1241 441 1241 353 
Q 1241 213 1137 106 
Q 1034 0 891 0 
Q 750 0 644 106 
Q 538 213 538 353 
z
" transform="scale(0.015625)"/>
        <path id="Cmr10-39" d="M 722 269 
Q 897 63 1331 63 
Q 1575 63 1786 228 
Q 1997 394 2113 634 
Q 2247 906 2284 1214 
Q 2322 1522 2322 1978 
Q 2213 1719 2008 1553 
Q 1803 1388 1538 1388 
Q 1166 1388 873 1589 
Q 581 1791 425 2120 
Q 269 2450 269 2822 
Q 269 3206 444 3539 
Q 619 3872 928 4067 
Q 1238 4263 1631 4263 
Q 2019 4263 2280 4052 
Q 2541 3841 2678 3508 
Q 2816 3175 2870 2803 
Q 2925 2431 2925 2069 
Q 2925 1575 2744 1061 
Q 2563 547 2202 203 
Q 1841 -141 1331 -141 
Q 953 -141 690 37 
Q 428 216 428 575 
Q 428 706 517 795 
Q 606 884 738 884 
Q 866 884 955 795 
Q 1044 706 1044 575 
Q 1044 450 953 359 
Q 863 269 738 269 
L 722 269 
z
M 1563 1556 
Q 1825 1556 1992 1732 
Q 2159 1909 2234 2171 
Q 2309 2434 2309 2694 
L 2309 2816 
L 2309 2841 
Q 2309 3322 2168 3700 
Q 2028 4078 1631 4078 
Q 1378 4078 1220 3967 
Q 1063 3856 988 3672 
Q 913 3488 892 3278 
Q 872 3069 872 2822 
Q 872 2459 906 2203 
Q 941 1947 1094 1751 
Q 1247 1556 1563 1556 
z
" transform="scale(0.015625)"/>
       </defs>
       <use xlink:href="#Cmr10-30" transform="translate(0 0.390625)"/>
       <use xlink:href="#Cmmi10-3a" transform="translate(50 0.390625)"/>
       <use xlink:href="#Cmr10-39" transform="translate(77.685547 0.390625)"/>
      </g>
     </g>
    </g>
    <g id="xtick_2">
     <g id="line2d_3">
      <g>
       <use xlink:href="#m60e4dd5088" x="470.943162" y="234.145354" style="stroke: #000000"/>
      </g>
     </g>
     <g id="text_2">
      <!-- $1.0$ -->
      <g transform="translate(453.023162 258.920979) scale(0.28 -0.28)">
       <defs>
        <path id="Cmr10-31" d="M 594 0 
L 594 225 
Q 1394 225 1394 428 
L 1394 3788 
Q 1063 3628 556 3628 
L 556 3853 
Q 1341 3853 1741 4263 
L 1831 4263 
Q 1853 4263 1873 4245 
Q 1894 4228 1894 4206 
L 1894 428 
Q 1894 225 2694 225 
L 2694 0 
L 594 0 
z
" transform="scale(0.015625)"/>
       </defs>
       <use xlink:href="#Cmr10-31" transform="translate(0 0.390625)"/>
       <use xlink:href="#Cmmi10-3a" transform="translate(50 0.390625)"/>
       <use xlink:href="#Cmr10-30" transform="translate(77.685547 0.390625)"/>
      </g>
     </g>
    </g>
    <g id="xtick_3">
     <g id="line2d_4">
      <g>
       <use xlink:href="#m60e4dd5088" x="679.620052" y="234.145354" style="stroke: #000000"/>
      </g>
     </g>
     <g id="text_3">
      <!-- $1.1$ -->
      <g transform="translate(661.700052 258.920979) scale(0.28 -0.28)">
       <use xlink:href="#Cmr10-31" transform="translate(0 0.390625)"/>
       <use xlink:href="#Cmmi10-3a" transform="translate(50 0.390625)"/>
       <use xlink:href="#Cmr10-31" transform="translate(77.685547 0.390625)"/>
      </g>
     </g>
    </g>
    <g id="xtick_4">
     <g id="line2d_5">
      <g>
       <use xlink:href="#m60e4dd5088" x="888.296943" y="234.145354" style="stroke: #000000"/>
      </g>
     </g>
     <g id="text_4">
      <!-- $1.2$ -->
      <g transform="translate(870.376943 258.920979) scale(0.28 -0.28)">
       <defs>
        <path id="Cmr10-32" d="M 319 0 
L 319 172 
Q 319 188 331 206 
L 1325 1306 
Q 1550 1550 1690 1715 
Q 1831 1881 1968 2097 
Q 2106 2313 2186 2536 
Q 2266 2759 2266 3009 
Q 2266 3272 2169 3511 
Q 2072 3750 1880 3894 
Q 1688 4038 1416 4038 
Q 1138 4038 916 3870 
Q 694 3703 603 3438 
Q 628 3444 672 3444 
Q 816 3444 917 3347 
Q 1019 3250 1019 3097 
Q 1019 2950 917 2848 
Q 816 2747 672 2747 
Q 522 2747 420 2851 
Q 319 2956 319 3097 
Q 319 3338 409 3548 
Q 500 3759 670 3923 
Q 841 4088 1055 4175 
Q 1269 4263 1509 4263 
Q 1875 4263 2190 4108 
Q 2506 3953 2690 3670 
Q 2875 3388 2875 3009 
Q 2875 2731 2753 2481 
Q 2631 2231 2440 2026 
Q 2250 1822 1953 1562 
Q 1656 1303 1563 1216 
L 838 519 
L 1453 519 
Q 1906 519 2211 526 
Q 2516 534 2534 550 
Q 2609 631 2688 1141 
L 2875 1141 
L 2694 0 
L 319 0 
z
" transform="scale(0.015625)"/>
       </defs>
       <use xlink:href="#Cmr10-31" transform="translate(0 0.390625)"/>
       <use xlink:href="#Cmmi10-3a" transform="translate(50 0.390625)"/>
       <use xlink:href="#Cmr10-32" transform="translate(77.685547 0.390625)"/>
      </g>
     </g>
    </g>
   </g>
   <g id="matplotlib.axis_2">
    <g id="ytick_1">
     <g id="line2d_6">
      <defs>
       <path id="m31a9d980d6" d="M 0 0 
L 5 0 
" style="stroke: #000000"/>
      </defs>
      <g>
       <use xlink:href="#m31a9d980d6" x="56.418899" y="212.122963" style="stroke: #000000"/>
      </g>
     </g>
     <g id="text_5">
      <!-- $-30$ -->
      <g transform="translate(3.078899 222.760775) scale(0.28 -0.28)">
       <defs>
        <path id="Cmsy10-a1" d="M 653 1472 
Q 600 1472 565 1512 
Q 531 1553 531 1600 
Q 531 1647 565 1687 
Q 600 1728 653 1728 
L 4325 1728 
Q 4375 1728 4408 1687 
Q 4441 1647 4441 1600 
Q 4441 1553 4408 1512 
Q 4375 1472 4325 1472 
L 653 1472 
z
" transform="scale(0.015625)"/>
        <path id="Cmr10-33" d="M 609 494 
Q 759 275 1012 169 
Q 1266 63 1556 63 
Q 1928 63 2084 380 
Q 2241 697 2241 1100 
Q 2241 1281 2208 1462 
Q 2175 1644 2097 1800 
Q 2019 1956 1883 2050 
Q 1747 2144 1550 2144 
L 1125 2144 
Q 1069 2144 1069 2203 
L 1069 2259 
Q 1069 2309 1125 2309 
L 1478 2338 
Q 1703 2338 1851 2506 
Q 2000 2675 2069 2917 
Q 2138 3159 2138 3378 
Q 2138 3684 1994 3881 
Q 1850 4078 1556 4078 
Q 1313 4078 1091 3986 
Q 869 3894 738 3706 
Q 750 3709 759 3711 
Q 769 3713 781 3713 
Q 925 3713 1022 3613 
Q 1119 3513 1119 3372 
Q 1119 3234 1022 3134 
Q 925 3034 781 3034 
Q 641 3034 541 3134 
Q 441 3234 441 3372 
Q 441 3647 606 3850 
Q 772 4053 1033 4158 
Q 1294 4263 1556 4263 
Q 1750 4263 1965 4205 
Q 2181 4147 2356 4039 
Q 2531 3931 2642 3762 
Q 2753 3594 2753 3378 
Q 2753 3109 2633 2881 
Q 2513 2653 2303 2487 
Q 2094 2322 1844 2241 
Q 2122 2188 2372 2031 
Q 2622 1875 2773 1631 
Q 2925 1388 2925 1106 
Q 2925 753 2731 467 
Q 2538 181 2222 20 
Q 1906 -141 1556 -141 
Q 1256 -141 954 -26 
Q 653 88 461 316 
Q 269 544 269 863 
Q 269 1022 375 1128 
Q 481 1234 641 1234 
Q 744 1234 830 1186 
Q 916 1138 964 1050 
Q 1013 963 1013 863 
Q 1013 706 903 600 
Q 794 494 641 494 
L 609 494 
z
" transform="scale(0.015625)"/>
       </defs>
       <use xlink:href="#Cmsy10-a1" transform="translate(0 0.390625)"/>
       <use xlink:href="#Cmr10-33" transform="translate(77.685547 0.390625)"/>
       <use xlink:href="#Cmr10-30" transform="translate(127.685547 0.390625)"/>
      </g>
     </g>
    </g>
    <g id="ytick_2">
     <g id="line2d_7">
      <g>
       <use xlink:href="#m31a9d980d6" x="56.418899" y="146.149915" style="stroke: #000000"/>
      </g>
     </g>
     <g id="text_6">
      <!-- $-20$ -->
      <g transform="translate(3.078899 156.787727) scale(0.28 -0.28)">
       <use xlink:href="#Cmsy10-a1" transform="translate(0 0.390625)"/>
       <use xlink:href="#Cmr10-32" transform="translate(77.685547 0.390625)"/>
       <use xlink:href="#Cmr10-30" transform="translate(127.685547 0.390625)"/>
      </g>
     </g>
    </g>
    <g id="ytick_3">
     <g id="line2d_8">
      <g>
       <use xlink:href="#m31a9d980d6" x="56.418899" y="80.176867" style="stroke: #000000"/>
      </g>
     </g>
     <g id="text_7">
      <!-- $-10$ -->
      <g transform="translate(3.078899 90.814679) scale(0.28 -0.28)">
       <use xlink:href="#Cmsy10-a1" transform="translate(0 0.390625)"/>
       <use xlink:href="#Cmr10-31" transform="translate(77.685547 0.390625)"/>
       <use xlink:href="#Cmr10-30" transform="translate(127.685547 0.390625)"/>
      </g>
     </g>
    </g>
    <g id="ytick_4">
     <g id="line2d_9">
      <g>
       <use xlink:href="#m31a9d980d6" x="56.418899" y="14.203819" style="stroke: #000000"/>
      </g>
     </g>
     <g id="text_8">
      <!-- $0$ -->
      <g transform="translate(38.918899 24.841632) scale(0.28 -0.28)">
       <use xlink:href="#Cmr10-30" transform="translate(0 0.390625)"/>
      </g>
     </g>
    </g>
   </g>
   <g id="line2d_10">
    <path d="M 81.884553 19.684712 
L 99.208127 19.684712 
L 116.531702 20.125158 
L 133.855276 20.623764 
L 151.178851 21.191623 
L 168.502425 21.842676 
L 185.826 22.594648 
L 203.149574 23.470376 
L 220.473148 24.499718 
L 237.796723 25.722354 
L 255.120297 27.192002 
L 272.443872 28.982915 
L 289.767446 31.200188 
L 307.091021 33.99664 
L 324.414595 37.601405 
L 341.738169 42.370114 
L 359.061744 48.87577 
L 376.385318 58.075451 
L 393.708893 71.598513 
L 411.032467 92.070185 
L 428.356042 122.32316 
L 445.679616 159.473702 
L 463.00319 188.184741 
L 480.326765 195.536583 
L 497.650339 181.060337 
L 514.973914 149.637446 
L 532.297488 114.271836 
L 549.621063 86.490373 
L 566.944637 67.650053 
L 584.268211 55.095515 
L 601.591786 46.495401 
L 618.91536 40.386999 
L 636.238935 35.898546 
L 653.562509 32.501989 
L 670.886084 29.866736 
L 688.209658 27.778419 
L 705.533232 26.093398 
L 722.856807 24.712546 
L 740.180381 23.565654 
L 757.503956 22.601836 
L 774.82753 21.783456 
L 792.151105 21.082173 
L 809.474679 20.476298 
L 826.798253 19.948997 
L 844.121828 19.487027 
L 861.445402 19.079857 
L 878.768977 18.719014 
L 896.092551 18.397623 
L 913.416125 18.110049 
L 930.7397 17.851641 
" clip-path="url(#pe4385422f0)" style="fill: none; stroke: #de8f05; stroke-width: 6"/>
   </g>
   <g id="patch_3">
    <path d="M 56.418899 234.145354 
L 56.418899 7.797755 
" style="fill: none; stroke: #000000; stroke-width: 2; stroke-linejoin: miter; stroke-linecap: square"/>
   </g>
   <g id="patch_4">
    <path d="M 56.418899 234.145354 
L 956.205354 234.145354 
" style="fill: none; stroke: #000000; stroke-width: 2; stroke-linejoin: miter; stroke-linecap: square"/>
   </g>
   <g id="line2d_11">
    <path d="M 81.884553 19.791369 
L 99.208127 19.791369 
L 116.531702 19.923837 
L 133.855276 20.768295 
L 151.178851 21.008951 
L 168.502425 21.824995 
L 185.826 22.679001 
L 203.149574 23.415139 
L 220.473148 24.353431 
L 237.796723 25.581484 
L 255.120297 27.127084 
L 272.443872 28.718292 
L 289.767446 30.804755 
L 307.091021 33.669752 
L 324.414595 31.314351 
L 341.738169 41.550525 
L 359.061744 47.49631 
L 376.385318 55.730934 
L 393.708893 73.022663 
L 411.032467 85.470044 
L 428.356042 113.215032 
L 445.679616 154.617387 
L 463.00319 204.98275 
L 480.326765 222.606396 
L 497.650339 195.798907 
L 514.973914 145.032489 
L 532.297488 105.868535 
L 549.621063 80.428465 
L 566.944637 68.526856 
L 584.268211 52.606052 
L 601.591786 44.888437 
L 618.91536 39.30586 
L 636.238935 35.186081 
L 653.562509 31.997085 
L 670.886084 29.518551 
L 688.209658 22.751909 
L 705.533232 25.867407 
L 722.856807 24.602169 
L 740.180381 23.414591 
L 757.503956 22.497566 
L 774.82753 21.844564 
L 792.151105 20.863642 
L 809.474679 20.507146 
L 826.798253 19.857655 
L 844.121828 19.39573 
L 861.445402 19.204103 
L 878.768977 18.573627 
L 896.092551 18.332433 
L 913.416125 18.14752 
L 930.7397 17.961371 
" clip-path="url(#pe4385422f0)" style="fill: none; stroke: #029e73; stroke-width: 6"/>
   </g>
   <g id="line2d_12">
    <path d="M 81.884553 19.662511 
L 99.208127 19.662511 
L 116.531702 20.098404 
L 133.855276 20.591278 
L 151.178851 21.151849 
L 168.502425 21.79353 
L 185.826 22.5333 
L 203.149574 23.392921 
L 220.473148 24.400674 
L 237.796723 25.593873 
L 255.120297 27.022601 
L 272.443872 28.755379 
L 289.767446 30.887993 
L 307.091021 33.557654 
L 324.414595 36.966403 
L 341.738169 41.42114 
L 359.061744 47.40445 
L 376.385318 55.703745 
L 393.708893 67.649648 
L 411.032467 85.533569 
L 428.356042 113.116253 
L 445.679616 154.673861 
L 463.00319 204.863124 
L 480.326765 227.73929 
L 497.650339 195.767927 
L 514.973914 144.98527 
L 532.297488 105.81913 
L 549.621063 80.254812 
L 566.944637 63.698205 
L 584.268211 52.611597 
L 601.591786 44.888716 
L 618.91536 39.30971 
L 636.238935 35.150783 
L 653.562509 31.966592 
L 670.886084 29.472819 
L 688.209658 27.481638 
L 705.533232 25.865122 
L 722.856807 24.533748 
L 740.180381 23.423353 
L 757.503956 22.486967 
L 774.82753 21.689554 
L 792.151105 21.004539 
L 809.474679 20.411459 
L 826.798253 19.894342 
L 844.121828 19.440572 
L 861.445402 19.040069 
L 878.768977 18.684699 
L 896.092551 18.367837 
L 913.416125 18.084041 
L 930.7397 17.828808 
" clip-path="url(#pe4385422f0)" style="fill: none; stroke: #029e73; stroke-width: 6"/>
   </g>
   <g id="line2d_13">
    <path d="M 99.208127 151.812968 
L 116.531702 110.691012 
L 133.855276 93.07234 
L 151.178851 82.620963 
L 168.502425 75.508705 
L 185.826 70.27693 
L 203.149574 66.229908 
L 220.473148 62.987589 
L 237.796723 60.322348 
L 255.120297 58.088419 
L 272.443872 56.18758 
L 289.767446 54.550946 
L 307.091021 53.128634 
L 324.414595 51.883561 
L 341.738169 50.787561 
L 359.061744 49.818862 
L 376.385318 48.960389 
L 393.708893 48.198599 
L 411.032467 47.52266 
L 428.356042 46.923863 
L 445.679616 46.395193 
L 463.00319 45.931017 
L 480.326765 45.526849 
L 497.650339 45.179184 
L 514.973914 44.885371 
L 532.297488 44.643533 
L 549.621063 44.452507 
L 566.944637 44.311826 
L 584.268211 44.221718 
L 601.591786 44.183133 
L 618.91536 44.197808 
L 636.238935 44.268359 
L 653.562509 44.39843 
L 670.886084 44.592889 
L 688.209658 44.858117 
L 705.533232 45.202408 
L 722.856807 45.636535 
L 740.180381 46.174573 
L 757.503956 46.835096 
L 774.82753 47.642998 
L 792.151105 48.632321 
L 809.474679 49.850836 
L 826.798253 51.367812 
L 844.121828 53.28797 
L 861.445402 55.778414 
L 878.768977 59.125815 
L 896.092551 63.874485 
L 913.416125 71.229762 
L 930.7397 84.68167 
" clip-path="url(#pe4385422f0)" style="fill: none; stroke: #949494; stroke-width: 6"/>
   </g>
   <g id="PathCollection_1">
    <defs>
     <path id="m86c4c3ccf2" d="M 0 8 
C 2.121625 8 4.156639 7.15707 5.656854 5.656854 
C 7.15707 4.156639 8 2.121625 8 0 
C 8 -2.121625 7.15707 -4.156639 5.656854 -5.656854 
C 4.156639 -7.15707 2.121625 -8 0 -8 
C -2.121625 -8 -4.156639 -7.15707 -5.656854 -5.656854 
C -7.15707 -4.156639 -8 -2.121625 -8 0 
C -8 2.121625 -7.15707 4.156639 -5.656854 5.656854 
C -4.156639 7.15707 -2.121625 8 0 8 
z
" style="stroke: #000000; stroke-width: 2"/>
    </defs>
    <g clip-path="url(#pe4385422f0)">
     <use xlink:href="#m86c4c3ccf2" x="81.884553" y="27.188799" style="fill: #cc78bc; stroke: #000000; stroke-width: 2"/>
     <use xlink:href="#m86c4c3ccf2" x="223.360411" y="27.188799" style="fill: #cc78bc; stroke: #000000; stroke-width: 2"/>
     <use xlink:href="#m86c4c3ccf2" x="364.836269" y="25.224515" style="fill: #cc78bc; stroke: #000000; stroke-width: 2"/>
     <use xlink:href="#m86c4c3ccf2" x="506.312126" y="141.702856" style="fill: #cc78bc; stroke: #000000; stroke-width: 2"/>
     <use xlink:href="#m86c4c3ccf2" x="647.787984" y="65.66541" style="fill: #cc78bc; stroke: #000000; stroke-width: 2"/>
     <use xlink:href="#m86c4c3ccf2" x="789.263842" y="23.892169" style="fill: #cc78bc; stroke: #000000; stroke-width: 2"/>
     <use xlink:href="#m86c4c3ccf2" x="930.7397" y="21.546467" style="fill: #cc78bc; stroke: #000000; stroke-width: 2"/>
    </g>
   </g>
  </g>
 </g>
 <defs>
  <clipPath id="pe4385422f0">
   <rect x="56.418899" y="7.797755" width="899.786456" height="226.347599"/>
  </clipPath>
 </defs>
</svg>
