<?xml version="1.0" encoding="utf-8" standalone="no"?>
<!DOCTYPE svg PUBLIC "-//W3C//DTD SVG 1.1//EN"
  "http://www.w3.org/Graphics/SVG/1.1/DTD/svg11.dtd">
<svg xmlns:xlink="http://www.w3.org/1999/xlink" width="417.6pt" height="273.6pt" viewBox="0 0 417.6 273.6" xmlns="http://www.w3.org/2000/svg" version="1.1">
 <metadata>
  <rdf:RDF xmlns:dc="http://purl.org/dc/elements/1.1/" xmlns:cc="http://creativecommons.org/ns#" xmlns:rdf="http://www.w3.org/1999/02/22-rdf-syntax-ns#">
   <cc:Work>
    <dc:type rdf:resource="http://purl.org/dc/dcmitype/StillImage"/>
    <dc:date>2024-07-09T17:19:55.157668</dc:date>
    <dc:format>image/svg+xml</dc:format>
    <dc:creator>
     <cc:Agent>
      <dc:title>Matplotlib v3.8.4, https://matplotlib.org/</dc:title>
     </cc:Agent>
    </dc:creator>
   </cc:Work>
  </rdf:RDF>
 </metadata>
 <defs>
  <style type="text/css">*{stroke-linejoin: round; stroke-linecap: butt}</style>
 </defs>
 <g id="figure_1">
  <g id="patch_1">
   <path d="M 0 273.6 
L 417.6 273.6 
L 417.6 0 
L 0 0 
L 0 273.6 
z
" style="fill: none"/>
  </g>
  <g id="axes_1">
   <g id="patch_2">
    <path d="M 10.58576 239.905354 
L 406.82299 239.905354 
L 406.82299 2.834646 
L 10.58576 2.834646 
L 10.58576 239.905354 
z
" style="fill: none"/>
   </g>
   <g id="line2d_1">
    <path d="M 10.509561 220.933402 
L 11.652553 225.261976 
L 12.643146 228.225438 
L 13.55754 230.28391 
L 14.319534 231.490492 
L 15.00533 232.175846 
L 15.614925 232.464988 
L 16.148322 232.471136 
L 16.681718 232.248033 
L 17.291314 231.714749 
L 17.977109 230.765091 
L 18.739103 229.284758 
L 19.577298 227.155177 
L 20.567891 223.991174 
L 21.710883 219.522722 
L 23.006274 213.493896 
L 24.530263 205.261704 
L 26.35905 194.08568 
L 28.949832 176.712404 
L 33.978997 142.707457 
L 36.112582 129.902523 
L 37.941369 120.200334 
L 39.693957 112.135443 
L 41.217946 106.121463 
L 42.665736 101.245006 
L 44.037327 97.330397 
L 45.485116 93.884649 
L 46.856707 91.207105 
L 48.152098 89.145273 
L 49.447489 87.492198 
L 50.66668 86.274127 
L 51.885872 85.359706 
L 53.028864 84.765347 
L 54.171856 84.42114 
L 55.238648 84.331608 
L 55.772044 84.497765 
L 56.305441 84.90576 
L 56.915036 85.662863 
L 57.600832 86.876609 
L 58.439026 88.86529 
L 59.353419 91.643267 
L 60.420212 95.645469 
L 61.639403 101.153411 
L 63.010994 108.429654 
L 64.611183 118.173281 
L 66.592369 131.735323 
L 69.33555 152.273632 
L 74.364714 190.159982 
L 76.345901 203.298083 
L 77.946089 212.530055 
L 79.31768 219.237217 
L 80.536871 224.141077 
L 81.603664 227.54799 
L 82.518057 229.778197 
L 83.356252 231.245831 
L 84.042047 232.029597 
L 84.651643 232.408782 
L 85.185039 232.495183 
L 85.718435 232.35323 
L 86.251831 231.984344 
L 86.861427 231.287902 
L 87.547222 230.159336 
L 88.385416 228.295922 
L 89.29981 225.677013 
L 90.366603 221.888845 
L 91.585794 216.663496 
L 92.957384 209.764331 
L 94.633773 200.097976 
L 96.767358 186.354612 
L 104.844501 132.761725 
L 106.673289 122.728169 
L 108.349677 114.660193 
L 109.949866 108.010719 
L 111.473855 102.615803 
L 112.921645 98.293057 
L 114.293235 94.863792 
L 115.664826 92.01887 
L 117.036416 89.700596 
L 118.331807 87.941029 
L 119.627198 86.558385 
L 120.846389 85.572348 
L 122.065581 84.875058 
L 123.208573 84.477102 
L 124.275365 84.330569 
L 124.884961 84.410503 
L 125.418357 84.731598 
L 126.027953 85.389642 
L 126.713748 86.493288 
L 127.475743 88.157956 
L 128.390137 90.742665 
L 129.38073 94.23211 
L 130.523722 99.09363 
L 131.819113 105.596394 
L 133.343102 114.442731 
L 135.171889 126.475523 
L 137.534073 143.66222 
L 144.773022 197.492464 
L 146.52561 208.346566 
L 148.049599 216.430455 
L 149.34499 222.141189 
L 150.487982 226.202449 
L 151.478575 228.933679 
L 152.316769 230.650767 
L 153.078764 231.728984 
L 153.68836 232.256907 
L 154.221756 232.473836 
L 154.755152 232.462346 
L 155.288549 232.223425 
L 155.898144 231.674232 
L 156.583939 230.709088 
L 157.345934 229.2142 
L 158.184128 227.071288 
L 159.174721 223.894277 
L 160.317713 219.413536 
L 161.613104 213.37318 
L 163.137094 205.130117 
L 164.965881 193.947728 
L 167.632862 176.063118 
L 172.433429 143.672269 
L 174.643213 130.40945 
L 176.5482 120.345739 
L 178.224588 112.659706 
L 179.748577 106.637064 
L 181.196367 101.74153 
L 182.644157 97.603508 
L 184.015748 94.324605 
L 185.387338 91.605442 
L 186.758928 89.388503 
L 188.054319 87.706238 
L 189.34971 86.385666 
L 190.568902 85.448476 
L 191.788093 84.794578 
L 192.931085 84.435904 
L 193.997878 84.327866 
L 194.531274 84.459326 
L 195.06467 84.833356 
L 195.674266 85.552546 
L 196.360061 86.725768 
L 197.122056 88.469165 
L 198.03645 91.150391 
L 199.103242 95.051003 
L 200.322434 100.460586 
L 201.694024 107.649464 
L 203.294213 117.323985 
L 205.1992 130.301953 
L 207.789981 149.649017 
L 213.352542 191.645848 
L 215.257529 204.173709 
L 216.857718 213.300884 
L 218.229308 219.891469 
L 219.4485 224.673977 
L 220.515292 227.963745 
L 221.429686 230.087288 
L 222.191681 231.352741 
L 222.877476 232.094263 
L 223.487072 232.435515 
L 224.020468 232.488726 
L 224.553864 232.313837 
L 225.08726 231.912489 
L 225.696856 231.17984 
L 226.382651 230.012042 
L 227.220846 228.103472 
L 228.135239 225.439615 
L 229.202032 221.605933 
L 230.421223 216.339312 
L 231.869013 208.996568 
L 233.545401 199.266861 
L 235.678986 185.515293 
L 243.222734 135.628006 
L 245.12772 125.036772 
L 246.880308 116.483426 
L 248.556696 109.427201 
L 250.080686 103.947894 
L 251.528476 99.525209 
L 252.976265 95.805328 
L 254.424055 92.721478 
L 255.795646 90.322942 
L 257.091037 88.473624 
L 258.386428 86.990638 
L 259.681819 85.844949 
L 260.90101 85.059807 
L 262.044002 84.578157 
L 263.110795 84.354746 
L 263.948989 84.373145 
L 264.482385 84.646188 
L 265.091981 85.256406 
L 265.777776 86.315431 
L 266.539771 87.94317 
L 267.377965 90.264176 
L 268.368558 93.692654 
L 269.51155 98.51797 
L 270.806941 105.022277 
L 272.33093 113.922733 
L 274.083518 125.548244 
L 276.369502 142.332728 
L 283.76085 197.942839 
L 285.513438 208.832461 
L 286.961228 216.529804 
L 288.256619 222.259118 
L 289.399611 226.317474 
L 290.390204 229.033053 
L 291.228398 230.728915 
L 291.990393 231.782393 
L 292.599988 232.287518 
L 293.133385 232.482837 
L 293.666781 232.448523 
L 294.200177 232.18602 
L 294.809773 231.60933 
L 295.495568 230.613384 
L 296.257563 229.085409 
L 297.171956 226.686023 
L 298.162549 223.422617 
L 299.305541 218.856896 
L 300.600932 212.743689 
L 302.124922 204.45094 
L 304.029908 192.77712 
L 306.849289 173.929969 
L 311.116459 145.462444 
L 313.326243 132.241197 
L 315.155031 122.538846 
L 316.831419 114.74529 
L 318.431608 108.313455 
L 320.031796 102.835631 
L 321.555786 98.444724 
L 323.003576 94.953066 
L 324.451366 92.056171 
L 325.822956 89.8001 
L 327.194546 87.968634 
L 328.489937 86.595993 
L 329.785328 85.548878 
L 331.00452 84.8536 
L 332.147512 84.460292 
L 333.214304 84.328137 
L 333.747701 84.425297 
L 334.281097 84.77137 
L 334.890693 85.468586 
L 335.576488 86.630462 
L 336.338482 88.378107 
L 337.252876 91.088043 
L 338.243469 94.743635 
L 339.386461 99.83382 
L 340.681852 106.63656 
L 342.205841 115.875754 
L 344.034629 128.404385 
L 346.473012 146.788768 
L 352.568969 193.438678 
L 354.397756 205.427925 
L 355.921746 214.064337 
L 357.217136 220.252199 
L 358.360128 224.733587 
L 359.350722 227.824731 
L 360.265115 229.997411 
L 361.02711 231.296606 
L 361.712905 232.063586 
L 362.322501 232.424132 
L 362.855897 232.49203 
L 363.389293 232.330104 
L 363.92269 231.940402 
L 364.532285 231.219777 
L 365.21808 230.064613 
L 366.056275 228.17144 
L 366.970668 225.525765 
L 368.037461 221.716919 
L 369.256652 216.486358 
L 370.704442 209.199866 
L 372.38083 199.555102 
L 374.590615 185.434382 
L 381.905764 137.479955 
L 383.88695 126.481735 
L 385.715737 117.584413 
L 387.315926 110.834692 
L 388.916115 105.037887 
L 390.440104 100.35124 
L 391.887894 96.591049 
L 393.335684 93.440171 
L 394.707274 90.957017 
L 396.078865 88.910155 
L 397.450455 87.261031 
L 398.745846 86.043716 
L 399.203043 85.6906 
L 399.203043 85.6906 
" clip-path="url(#p3724fb15a3)" style="fill: none; stroke: #009afa; stroke-width: 4"/>
   </g>
   <g id="matplotlib.axis_1">
    <g id="xtick_1">
     <g id="line2d_2">
      <defs>
       <path id="m575e6d288b" d="M 0 0 
L 0 -5 
" style="stroke: #000000"/>
      </defs>
      <g>
       <use xlink:href="#m575e6d288b" x="18.205707" y="239.905354" style="stroke: #000000"/>
      </g>
     </g>
     <g id="text_1">
      <!-- $15$ -->
      <g transform="translate(4.205707 264.680979) scale(0.28 -0.28)">
       <defs>
        <path id="Cmr10-31" d="M 594 0 
L 594 225 
Q 1394 225 1394 428 
L 1394 3788 
Q 1063 3628 556 3628 
L 556 3853 
Q 1341 3853 1741 4263 
L 1831 4263 
Q 1853 4263 1873 4245 
Q 1894 4228 1894 4206 
L 1894 428 
Q 1894 225 2694 225 
L 2694 0 
L 594 0 
z
" transform="scale(0.015625)"/>
        <path id="Cmr10-35" d="M 556 728 
Q 622 541 758 387 
Q 894 234 1080 148 
Q 1266 63 1466 63 
Q 1928 63 2103 422 
Q 2278 781 2278 1294 
Q 2278 1516 2270 1667 
Q 2263 1819 2228 1959 
Q 2169 2184 2020 2353 
Q 1872 2522 1656 2522 
Q 1441 2522 1286 2456 
Q 1131 2391 1034 2303 
Q 938 2216 863 2119 
Q 788 2022 769 2016 
L 697 2016 
Q 681 2016 657 2036 
Q 634 2056 634 2075 
L 634 4213 
Q 634 4228 654 4245 
Q 675 4263 697 4263 
L 716 4263 
Q 1147 4056 1631 4056 
Q 2106 4056 2547 4263 
L 2566 4263 
Q 2588 4263 2606 4247 
Q 2625 4231 2625 4213 
L 2625 4153 
Q 2625 4122 2613 4122 
Q 2394 3831 2064 3668 
Q 1734 3506 1381 3506 
Q 1125 3506 856 3578 
L 856 2369 
Q 1069 2541 1236 2614 
Q 1403 2688 1663 2688 
Q 2016 2688 2295 2484 
Q 2575 2281 2725 1954 
Q 2875 1628 2875 1288 
Q 2875 903 2686 575 
Q 2497 247 2172 53 
Q 1847 -141 1466 -141 
Q 1150 -141 886 21 
Q 622 184 470 459 
Q 319 734 319 1044 
Q 319 1188 412 1278 
Q 506 1369 647 1369 
Q 788 1369 883 1276 
Q 978 1184 978 1044 
Q 978 906 883 811 
Q 788 716 647 716 
Q 625 716 597 720 
Q 569 725 556 728 
z
" transform="scale(0.015625)"/>
       </defs>
       <use xlink:href="#Cmr10-31" transform="translate(0 0.390625)"/>
       <use xlink:href="#Cmr10-35" transform="translate(50 0.390625)"/>
      </g>
     </g>
    </g>
    <g id="xtick_2">
     <g id="line2d_3">
      <g>
       <use xlink:href="#m575e6d288b" x="94.405174" y="239.905354" style="stroke: #000000"/>
      </g>
     </g>
     <g id="text_2">
      <!-- $16$ -->
      <g transform="translate(80.405174 264.680979) scale(0.28 -0.28)">
       <defs>
        <path id="Cmr10-36" d="M 1600 -141 
Q 1203 -141 937 70 
Q 672 281 526 617 
Q 381 953 325 1322 
Q 269 1691 269 2069 
Q 269 2575 466 3084 
Q 663 3594 1045 3928 
Q 1428 4263 1953 4263 
Q 2172 4263 2361 4180 
Q 2550 4097 2658 3936 
Q 2766 3775 2766 3547 
Q 2766 3416 2677 3327 
Q 2588 3238 2456 3238 
Q 2331 3238 2240 3328 
Q 2150 3419 2150 3547 
Q 2150 3672 2240 3762 
Q 2331 3853 2456 3853 
L 2491 3853 
Q 2409 3969 2261 4023 
Q 2113 4078 1953 4078 
Q 1759 4078 1595 3993 
Q 1431 3909 1300 3765 
Q 1169 3622 1081 3448 
Q 994 3275 945 3053 
Q 897 2831 884 2637 
Q 872 2444 872 2150 
Q 984 2413 1190 2580 
Q 1397 2747 1656 2747 
Q 1941 2747 2175 2631 
Q 2409 2516 2578 2311 
Q 2747 2106 2836 1843 
Q 2925 1581 2925 1313 
Q 2925 938 2758 598 
Q 2591 259 2287 59 
Q 1984 -141 1600 -141 
z
M 1600 63 
Q 1847 63 1997 175 
Q 2147 288 2217 473 
Q 2288 659 2305 848 
Q 2322 1038 2322 1313 
Q 2322 1675 2287 1931 
Q 2253 2188 2100 2383 
Q 1947 2578 1631 2578 
Q 1372 2578 1205 2403 
Q 1038 2228 961 1961 
Q 884 1694 884 1447 
Q 884 1363 891 1319 
Q 891 1309 889 1303 
Q 888 1297 884 1288 
Q 884 1013 940 731 
Q 997 450 1156 256 
Q 1316 63 1600 63 
z
" transform="scale(0.015625)"/>
       </defs>
       <use xlink:href="#Cmr10-31" transform="translate(0 0.390625)"/>
       <use xlink:href="#Cmr10-36" transform="translate(50 0.390625)"/>
      </g>
     </g>
    </g>
    <g id="xtick_3">
     <g id="line2d_4">
      <g>
       <use xlink:href="#m575e6d288b" x="170.604641" y="239.905354" style="stroke: #000000"/>
      </g>
     </g>
     <g id="text_3">
      <!-- $17$ -->
      <g transform="translate(156.604641 264.680979) scale(0.28 -0.28)">
       <defs>
        <path id="Cmr10-37" d="M 1113 166 
Q 1113 522 1175 862 
Q 1238 1203 1358 1536 
Q 1478 1869 1648 2189 
Q 1819 2509 2022 2791 
L 2606 3603 
L 1875 3603 
Q 738 3603 703 3572 
Q 619 3469 544 2981 
L 359 2981 
L 569 4325 
L 756 4325 
L 756 4306 
Q 756 4191 1147 4156 
Q 1538 4122 1913 4122 
L 3103 4122 
L 3103 3956 
Q 3103 3950 3101 3947 
Q 3100 3944 3097 3938 
L 2216 2700 
Q 1891 2219 1809 1631 
Q 1728 1044 1728 166 
Q 1728 41 1637 -50 
Q 1547 -141 1422 -141 
Q 1294 -141 1203 -50 
Q 1113 41 1113 166 
z
" transform="scale(0.015625)"/>
       </defs>
       <use xlink:href="#Cmr10-31" transform="translate(0 0.421875)"/>
       <use xlink:href="#Cmr10-37" transform="translate(50 0.421875)"/>
      </g>
     </g>
    </g>
    <g id="xtick_4">
     <g id="line2d_5">
      <g>
       <use xlink:href="#m575e6d288b" x="246.804109" y="239.905354" style="stroke: #000000"/>
      </g>
     </g>
     <g id="text_4">
      <!-- $18$ -->
      <g transform="translate(232.804109 264.680979) scale(0.28 -0.28)">
       <defs>
        <path id="Cmr10-38" d="M 269 972 
Q 269 1356 522 1651 
Q 775 1947 1172 2144 
L 934 2297 
Q 716 2441 578 2680 
Q 441 2919 441 3181 
Q 441 3488 602 3734 
Q 763 3981 1030 4122 
Q 1297 4263 1600 4263 
Q 1884 4263 2148 4147 
Q 2413 4031 2583 3815 
Q 2753 3600 2753 3303 
Q 2753 3088 2651 2903 
Q 2550 2719 2373 2572 
Q 2197 2425 1997 2322 
L 2363 2088 
Q 2616 1922 2770 1653 
Q 2925 1384 2925 1088 
Q 2925 741 2739 456 
Q 2553 172 2247 15 
Q 1941 -141 1600 -141 
Q 1269 -141 961 -6 
Q 653 128 461 383 
Q 269 638 269 972 
z
M 616 972 
Q 616 719 755 509 
Q 894 300 1122 181 
Q 1350 63 1600 63 
Q 1972 63 2275 280 
Q 2578 497 2578 856 
Q 2578 978 2529 1098 
Q 2481 1219 2395 1317 
Q 2309 1416 2203 1478 
L 1344 2034 
Q 1144 1928 976 1765 
Q 809 1603 712 1400 
Q 616 1197 616 972 
z
M 1056 2925 
L 1831 2425 
Q 2100 2581 2272 2803 
Q 2444 3025 2444 3303 
Q 2444 3519 2323 3698 
Q 2203 3878 2009 3978 
Q 1816 4078 1594 4078 
Q 1400 4078 1203 4003 
Q 1006 3928 878 3779 
Q 750 3631 750 3431 
Q 750 3131 1056 2925 
z
" transform="scale(0.015625)"/>
       </defs>
       <use xlink:href="#Cmr10-31" transform="translate(0 0.390625)"/>
       <use xlink:href="#Cmr10-38" transform="translate(50 0.390625)"/>
      </g>
     </g>
    </g>
    <g id="xtick_5">
     <g id="line2d_6">
      <g>
       <use xlink:href="#m575e6d288b" x="323.003576" y="239.905354" style="stroke: #000000"/>
      </g>
     </g>
     <g id="text_5">
      <!-- $19$ -->
      <g transform="translate(309.003576 264.680979) scale(0.28 -0.28)">
       <defs>
        <path id="Cmr10-39" d="M 722 269 
Q 897 63 1331 63 
Q 1575 63 1786 228 
Q 1997 394 2113 634 
Q 2247 906 2284 1214 
Q 2322 1522 2322 1978 
Q 2213 1719 2008 1553 
Q 1803 1388 1538 1388 
Q 1166 1388 873 1589 
Q 581 1791 425 2120 
Q 269 2450 269 2822 
Q 269 3206 444 3539 
Q 619 3872 928 4067 
Q 1238 4263 1631 4263 
Q 2019 4263 2280 4052 
Q 2541 3841 2678 3508 
Q 2816 3175 2870 2803 
Q 2925 2431 2925 2069 
Q 2925 1575 2744 1061 
Q 2563 547 2202 203 
Q 1841 -141 1331 -141 
Q 953 -141 690 37 
Q 428 216 428 575 
Q 428 706 517 795 
Q 606 884 738 884 
Q 866 884 955 795 
Q 1044 706 1044 575 
Q 1044 450 953 359 
Q 863 269 738 269 
L 722 269 
z
M 1563 1556 
Q 1825 1556 1992 1732 
Q 2159 1909 2234 2171 
Q 2309 2434 2309 2694 
L 2309 2816 
L 2309 2841 
Q 2309 3322 2168 3700 
Q 2028 4078 1631 4078 
Q 1378 4078 1220 3967 
Q 1063 3856 988 3672 
Q 913 3488 892 3278 
Q 872 3069 872 2822 
Q 872 2459 906 2203 
Q 941 1947 1094 1751 
Q 1247 1556 1563 1556 
z
" transform="scale(0.015625)"/>
       </defs>
       <use xlink:href="#Cmr10-31" transform="translate(0 0.390625)"/>
       <use xlink:href="#Cmr10-39" transform="translate(50 0.390625)"/>
      </g>
     </g>
    </g>
    <g id="xtick_6">
     <g id="line2d_7">
      <g>
       <use xlink:href="#m575e6d288b" x="399.203043" y="239.905354" style="stroke: #000000"/>
      </g>
     </g>
     <g id="text_6">
      <!-- $20$ -->
      <g transform="translate(385.203043 264.680979) scale(0.28 -0.28)">
       <defs>
        <path id="Cmr10-32" d="M 319 0 
L 319 172 
Q 319 188 331 206 
L 1325 1306 
Q 1550 1550 1690 1715 
Q 1831 1881 1968 2097 
Q 2106 2313 2186 2536 
Q 2266 2759 2266 3009 
Q 2266 3272 2169 3511 
Q 2072 3750 1880 3894 
Q 1688 4038 1416 4038 
Q 1138 4038 916 3870 
Q 694 3703 603 3438 
Q 628 3444 672 3444 
Q 816 3444 917 3347 
Q 1019 3250 1019 3097 
Q 1019 2950 917 2848 
Q 816 2747 672 2747 
Q 522 2747 420 2851 
Q 319 2956 319 3097 
Q 319 3338 409 3548 
Q 500 3759 670 3923 
Q 841 4088 1055 4175 
Q 1269 4263 1509 4263 
Q 1875 4263 2190 4108 
Q 2506 3953 2690 3670 
Q 2875 3388 2875 3009 
Q 2875 2731 2753 2481 
Q 2631 2231 2440 2026 
Q 2250 1822 1953 1562 
Q 1656 1303 1563 1216 
L 838 519 
L 1453 519 
Q 1906 519 2211 526 
Q 2516 534 2534 550 
Q 2609 631 2688 1141 
L 2875 1141 
L 2694 0 
L 319 0 
z
" transform="scale(0.015625)"/>
        <path id="Cmr10-30" d="M 1600 -141 
Q 816 -141 533 504 
Q 250 1150 250 2041 
Q 250 2597 351 3087 
Q 453 3578 754 3920 
Q 1056 4263 1600 4263 
Q 2022 4263 2290 4056 
Q 2559 3850 2700 3523 
Q 2841 3197 2892 2823 
Q 2944 2450 2944 2041 
Q 2944 1491 2842 1011 
Q 2741 531 2444 195 
Q 2147 -141 1600 -141 
z
M 1600 25 
Q 1956 25 2131 390 
Q 2306 756 2347 1200 
Q 2388 1644 2388 2144 
Q 2388 2625 2347 3031 
Q 2306 3438 2132 3767 
Q 1959 4097 1600 4097 
Q 1238 4097 1063 3765 
Q 888 3434 847 3029 
Q 806 2625 806 2144 
Q 806 1788 823 1472 
Q 841 1156 916 820 
Q 991 484 1158 254 
Q 1325 25 1600 25 
z
" transform="scale(0.015625)"/>
       </defs>
       <use xlink:href="#Cmr10-32" transform="translate(0 0.390625)"/>
       <use xlink:href="#Cmr10-30" transform="translate(50 0.390625)"/>
      </g>
     </g>
    </g>
   </g>
   <g id="matplotlib.axis_2">
    <g id="ytick_1"/>
    <g id="ytick_2"/>
    <g id="ytick_3"/>
    <g id="ytick_4"/>
   </g>
   <g id="line2d_8">
    <path d="M 10.509561 227.688059 
L 11.195356 223.894598 
L 12.03355 217.890773 
L 13.024143 209.038667 
L 14.243335 195.940276 
L 15.843524 176.087319 
L 20.64409 114.768903 
L 21.863282 102.699491 
L 22.853875 94.868605 
L 23.692069 89.832592 
L 24.377864 86.885204 
L 24.98746 85.192431 
L 25.444657 84.509133 
L 25.825654 84.327731 
L 26.130452 84.437326 
L 26.511449 84.892168 
L 26.968646 85.901065 
L 27.502042 87.70748 
L 28.111638 90.580649 
L 28.873633 95.332325 
L 29.788026 102.613189 
L 30.854819 113.027112 
L 32.226409 128.844243 
L 34.283795 155.647584 
L 37.179374 193.144173 
L 38.550965 208.189204 
L 39.693957 218.418841 
L 40.608351 224.769201 
L 41.370345 228.675576 
L 41.979941 230.838298 
L 42.513337 232.00552 
L 42.894335 232.418106 
L 43.199132 232.493781 
L 43.50393 232.343031 
L 43.884928 231.836952 
L 44.342124 230.767192 
L 44.875521 228.891159 
L 45.561316 225.513432 
L 46.323311 220.546756 
L 47.237704 213.032039 
L 48.380696 201.558281 
L 49.828486 184.442855 
L 52.19067 153.268514 
L 54.552853 123.024328 
L 55.924443 108.086297 
L 57.067435 97.972007 
L 57.981829 91.727567 
L 58.743824 87.916466 
L 59.353419 85.833248 
L 59.886816 84.737159 
L 60.267813 84.375891 
L 60.572611 84.341387 
L 60.877409 84.533276 
L 61.258406 85.090542 
L 61.715603 86.221056 
L 62.248999 88.166518 
L 62.934794 91.630218 
L 63.696789 96.68658 
L 64.611183 104.298487 
L 65.754175 115.873925 
L 67.201965 133.080338 
L 69.640347 165.319032 
L 71.926331 194.452788 
L 73.297922 209.282308 
L 74.364714 218.690647 
L 75.279108 224.974882 
L 76.041103 228.821756 
L 76.650698 230.934814 
L 77.184095 232.057591 
L 77.565092 232.438107 
L 77.86989 232.488051 
L 78.174688 232.311587 
L 78.555685 231.77351 
L 79.012882 230.665766 
L 79.546278 228.746317 
L 80.232073 225.314816 
L 80.994068 220.292027 
L 81.908462 212.716477 
L 83.051454 201.179032 
L 84.499244 184.006536 
L 86.937627 151.783689 
L 89.223611 122.61608 
L 90.595201 107.745692 
L 91.661993 98.296748 
L 92.576387 91.972808 
L 93.338382 88.090215 
L 93.947977 85.947349 
L 94.481374 84.797899 
L 94.862371 84.398139 
L 95.167169 84.332757 
L 95.471967 84.493793 
L 95.852964 85.012674 
L 96.310161 86.097632 
L 96.843557 87.991041 
L 97.529352 91.390293 
L 98.291347 96.379438 
L 99.205741 103.918524 
L 100.348733 115.417811 
L 101.796523 132.556147 
L 104.158706 163.741812 
L 106.52089 193.963736 
L 107.89248 208.874781 
L 109.035472 218.960074 
L 109.949866 225.177934 
L 110.71186 228.965156 
L 111.321456 231.028466 
L 111.854852 232.106754 
L 112.23585 232.455186 
L 112.540647 232.479396 
L 112.845445 232.277226 
L 113.226443 231.707171 
L 113.683639 230.561487 
L 114.217036 228.598698 
L 114.902831 225.113559 
L 115.664826 220.034855 
L 116.579219 212.39877 
L 117.722211 200.798095 
L 119.170001 183.569207 
L 121.684584 150.301544 
L 123.894368 122.209246 
L 125.265958 107.407087 
L 126.332751 98.025892 
L 127.247145 91.768178 
L 128.009139 87.945146 
L 128.618735 85.851978 
L 129.152131 84.746992 
L 129.533129 84.379307 
L 129.837927 84.339657 
L 130.142724 84.526404 
L 130.523722 85.077275 
L 130.980919 86.2002 
L 131.514315 88.136994 
L 132.20011 91.589966 
L 132.962105 96.635145 
L 133.876498 104.234946 
L 135.01949 115.797737 
L 136.46728 132.992872 
L 138.905663 165.226335 
L 141.191647 194.37142 
L 142.563238 209.214587 
L 143.63003 218.636476 
L 144.544424 224.933956 
L 145.306418 228.792742 
L 145.916014 230.91574 
L 146.44941 232.047409 
L 146.830408 232.434341 
L 147.135206 232.489431 
L 147.440003 232.318109 
L 147.821001 231.78643 
L 148.278198 230.68628 
L 148.811594 228.775508 
L 149.497389 225.354751 
L 150.259384 220.343169 
L 151.173777 212.779761 
L 152.316769 201.255017 
L 153.764559 184.093881 
L 156.202942 151.876418 
L 158.488926 122.697617 
L 159.860517 107.813653 
L 160.927309 98.351204 
L 161.841703 92.014049 
L 162.603697 88.119562 
L 163.213293 85.966766 
L 163.746689 84.80843 
L 164.127687 84.402257 
L 164.432485 84.331728 
L 164.737282 84.487621 
L 165.11828 85.000101 
L 165.575477 86.077461 
L 166.108873 87.962183 
L 166.794668 91.350676 
L 167.556663 96.32859 
L 168.471056 103.855497 
L 169.614048 115.342029 
L 171.061838 132.468924 
L 173.424022 163.648952 
L 175.786205 193.88203 
L 177.157796 208.80658 
L 178.300788 218.90638 
L 179.215181 225.137534 
L 179.977176 228.936699 
L 180.586772 231.009965 
L 181.120168 232.097154 
L 181.501165 232.452004 
L 181.805963 232.481361 
L 182.110761 232.284331 
L 182.491758 231.720671 
L 182.948955 230.582571 
L 183.482351 228.628444 
L 184.168147 225.154022 
L 184.930141 220.086485 
L 185.844535 212.462483 
L 186.987527 200.874417 
L 188.435317 183.656753 
L 190.8737 151.412878 
L 193.159684 122.290499 
L 194.531274 107.474647 
L 195.598067 98.079873 
L 196.51246 91.808894 
L 197.274455 87.973938 
L 197.884051 85.870823 
L 198.417447 84.756941 
L 198.798444 84.38284 
L 199.103242 84.338043 
L 199.40804 84.519648 
L 199.789037 85.064123 
L 200.246234 86.179458 
L 200.77963 88.107581 
L 201.465426 91.54982 
L 202.22742 96.583808 
L 203.141814 104.17149 
L 204.284806 115.721617 
L 205.732596 132.905446 
L 208.170979 165.133626 
L 210.456963 194.289997 
L 211.828553 209.146786 
L 212.895346 218.58221 
L 213.809739 224.892925 
L 214.571734 228.763617 
L 215.18133 230.896551 
L 215.714726 232.037111 
L 216.095723 232.430457 
L 216.400521 232.490694 
L 216.705319 232.324515 
L 217.086316 231.799234 
L 217.543513 230.706679 
L 218.076909 228.804587 
L 218.762705 225.39458 
L 219.524699 220.394213 
L 220.439093 212.84296 
L 221.582085 201.330935 
L 223.029875 184.181186 
L 225.392058 152.989932 
L 227.754242 122.779211 
L 229.125832 107.881695 
L 230.268824 97.810923 
L 231.183218 91.606368 
L 231.945212 87.831094 
L 232.554808 85.777744 
L 233.088204 84.708359 
L 233.469202 84.366345 
L 233.774 84.347282 
L 234.078798 84.554593 
L 234.459795 85.13104 
L 234.916992 86.284307 
L 235.450388 88.255755 
L 236.136183 91.751605 
L 236.898178 96.841468 
L 237.812571 104.489624 
L 238.955563 116.10289 
L 240.403353 133.342975 
L 242.917936 166.615584 
L 245.12772 194.696547 
L 246.499311 209.484989 
L 247.566103 218.85259 
L 248.480497 225.097029 
L 249.242492 228.90813 
L 249.852087 230.991349 
L 250.385484 232.087437 
L 250.766481 232.448705 
L 251.071279 232.483209 
L 251.376077 232.29132 
L 251.757074 231.734054 
L 252.214271 230.603541 
L 252.747667 228.658079 
L 253.433462 225.194379 
L 254.195457 220.138017 
L 255.10985 212.526109 
L 256.252842 200.950671 
L 257.700632 183.744259 
L 260.139015 151.505564 
L 262.424999 122.371809 
L 263.79659 107.542288 
L 264.863382 98.133949 
L 265.777776 91.849715 
L 266.539771 88.00284 
L 267.149366 85.889783 
L 267.682763 84.767006 
L 268.06376 84.386489 
L 268.368558 84.336546 
L 268.673356 84.513009 
L 269.054353 85.051087 
L 269.51155 86.15883 
L 270.044946 88.07828 
L 270.730741 91.50978 
L 271.492736 96.532569 
L 272.40713 104.10812 
L 273.550122 115.645564 
L 274.997911 132.81806 
L 277.436294 165.040908 
L 279.722278 194.208516 
L 281.093869 209.078905 
L 282.160661 218.527848 
L 283.075055 224.851788 
L 283.83705 228.734381 
L 284.446645 230.877248 
L 284.980042 232.026697 
L 285.361039 232.426457 
L 285.665837 232.49184 
L 285.970635 232.330804 
L 286.351632 231.811922 
L 286.808829 230.726965 
L 287.342225 228.833556 
L 288.02802 225.434303 
L 288.790015 220.445159 
L 289.704409 212.906072 
L 290.847401 201.406785 
L 292.29519 184.26845 
L 294.657374 153.082784 
L 297.019557 122.86086 
L 298.391148 107.949816 
L 299.53414 97.864522 
L 300.448533 91.646662 
L 301.210528 87.85944 
L 301.820124 85.796131 
L 302.35352 84.717843 
L 302.734517 84.36941 
L 303.039315 84.3452 
L 303.344113 84.547371 
L 303.725111 85.117425 
L 304.182307 86.263109 
L 304.715704 88.225898 
L 305.401499 91.711037 
L 306.163493 96.789741 
L 307.077887 104.425826 
L 308.220879 116.026502 
L 309.668669 133.255389 
L 312.183251 166.523053 
L 314.393036 194.615351 
L 315.764626 209.41751 
L 316.831419 218.798704 
L 317.745812 225.056419 
L 318.507807 228.87945 
L 319.117403 230.972618 
L 319.650799 232.077605 
L 320.031796 232.445289 
L 320.336594 232.48494 
L 320.641392 232.298193 
L 321.02239 231.747322 
L 321.479586 230.624397 
L 322.012983 228.687602 
L 322.698778 225.23463 
L 323.460773 220.189451 
L 324.375166 212.589651 
L 325.518158 201.026859 
L 326.965948 183.831725 
L 329.404331 151.598262 
L 331.690315 122.453176 
L 333.061905 107.610009 
L 334.128698 98.18812 
L 335.043092 91.890641 
L 335.805086 88.031854 
L 336.414682 85.908857 
L 336.948078 84.777187 
L 337.329076 84.390256 
L 337.633873 84.335166 
L 337.938671 84.506487 
L 338.319669 85.038167 
L 338.776865 86.138317 
L 339.310262 88.049089 
L 339.996057 91.469845 
L 340.758052 96.481428 
L 341.672445 104.044835 
L 342.815437 115.569579 
L 344.263227 132.730715 
L 346.70161 164.948178 
L 348.987594 194.126979 
L 350.359184 209.010943 
L 351.425977 218.473392 
L 352.340371 224.810547 
L 353.102365 228.705034 
L 353.711961 230.85783 
L 354.245357 232.016167 
L 354.626355 232.42234 
L 354.931152 232.492869 
L 355.23595 232.336976 
L 355.616948 231.824495 
L 356.074144 230.747136 
L 356.607541 228.862413 
L 357.293336 225.473921 
L 358.055331 220.496006 
L 358.969724 212.969099 
L 360.112716 201.482567 
L 361.560506 184.355673 
L 363.92269 153.175645 
L 366.284873 122.942566 
L 367.656463 108.018017 
L 368.799455 97.918217 
L 369.713849 91.687062 
L 370.475844 87.887897 
L 371.085439 85.814632 
L 371.618836 84.727443 
L 371.999833 84.372592 
L 372.304631 84.343235 
L 372.609429 84.540265 
L 372.990426 85.103926 
L 373.447623 86.242025 
L 373.981019 88.196153 
L 374.666814 91.670575 
L 375.428809 96.738112 
L 376.343203 104.362114 
L 377.486195 115.95018 
L 378.933985 133.167844 
L 381.372368 165.411719 
L 383.658352 194.534098 
L 385.029942 209.349949 
L 386.096734 218.744723 
L 387.011128 225.015703 
L 387.773123 228.850659 
L 388.382719 230.953773 
L 388.916115 232.067656 
L 389.297112 232.441757 
L 389.60191 232.486554 
L 389.906708 232.304948 
L 390.287705 231.760474 
L 390.744902 230.645138 
L 391.278298 228.717015 
L 391.964093 225.274776 
L 392.726088 220.240788 
L 393.640482 212.653107 
L 394.783474 201.102979 
L 396.231264 183.919151 
L 398.669647 151.69097 
L 399.203043 144.594605 
L 399.203043 144.594605 
" clip-path="url(#p3724fb15a3)" style="fill: none; stroke: #e36f47; stroke-width: 4"/>
   </g>
   <g id="patch_3">
    <path d="M 10.58576 239.905354 
L 406.82299 239.905354 
" style="fill: none; stroke: #000000; stroke-width: 2; stroke-linejoin: miter; stroke-linecap: square"/>
   </g>
   <g id="line2d_9">
    <path d="M 10.509561 67.917685 
L 15.386327 73.541557 
L 20.263093 78.81582 
L 25.063659 83.687426 
L 30.016625 88.401468 
L 35.045789 92.883852 
L 40.074954 97.07932 
L 45.256518 101.121027 
L 50.590481 105.003649 
L 55.086249 108.071143 
L 55.162449 34.05524 
L 55.238648 34.179766 
L 59.658217 41.1976 
L 64.306385 48.150676 
L 68.954552 54.691406 
L 73.52652 60.746341 
L 78.098488 66.447805 
L 82.746656 71.903278 
L 87.471023 77.116712 
L 92.423988 82.245269 
L 97.453153 87.121677 
L 102.558517 91.752869 
L 107.587682 96.020752 
L 112.769246 100.132166 
L 118.027009 104.027345 
L 123.513371 107.814568 
L 124.427764 108.419704 
L 124.503964 34.441911 
L 124.580163 34.566166 
L 128.999732 41.562061 
L 133.6479 48.49352 
L 138.219868 54.910269 
L 142.791836 60.952427 
L 147.440003 66.733841 
L 152.088171 72.172373 
L 156.812538 77.369488 
L 161.841703 82.558057 
L 166.794668 87.343345 
L 171.823833 91.89349 
L 176.852998 96.152369 
L 182.034562 100.255144 
L 187.368524 104.196447 
L 192.778686 107.921306 
L 193.921678 108.67496 
L 193.997878 34.659118 
L 194.074077 34.783041 
L 198.493646 41.766795 
L 203.141814 48.686106 
L 207.789981 55.195076 
L 212.361949 61.220608 
L 217.010117 66.986167 
L 221.658284 72.40973 
L 226.458851 77.673344 
L 231.259417 82.615136 
L 236.364782 87.538906 
L 241.317747 92.009975 
L 246.346912 96.261378 
L 251.452276 100.298906 
L 256.938638 104.345633 
L 262.3488 108.060272 
L 263.567991 108.861599 
L 263.644191 34.843843 
L 263.72039 34.967575 
L 268.139959 41.940908 
L 272.788127 48.849894 
L 277.436294 55.349143 
L 282.008262 61.36568 
L 286.65643 67.122631 
L 291.304597 72.538099 
L 296.105164 77.793858 
L 300.90573 82.728276 
L 306.011095 87.644694 
L 310.96406 92.10909 
L 315.993225 96.354146 
L 321.098589 100.38565 
L 326.584951 104.426335 
L 331.995113 108.135428 
L 333.214304 108.93556 
L 333.290504 34.912328 
L 333.366703 35.035973 
L 337.786272 42.005447 
L 342.43444 48.910616 
L 347.082607 55.406247 
L 351.654575 61.419451 
L 356.302743 67.173206 
L 360.95091 72.585675 
L 365.751477 77.838526 
L 370.552043 82.770214 
L 375.581208 87.613023 
L 380.686572 92.212278 
L 385.715737 96.450748 
L 390.897301 100.533831 
L 396.155064 104.402174 
L 399.203043 106.525146 
L 399.203043 106.525146 
" clip-path="url(#p3724fb15a3)" style="fill: none; stroke: #3ea44d; stroke-width: 4"/>
   </g>
   <g id="PathCollection_1">
    <defs>
     <path id="m32c6a80703" d="M 0 4 
C 1.060812 4 2.078319 3.578535 2.828427 2.828427 
C 3.578535 2.078319 4 1.060812 4 0 
C 4 -1.060812 3.578535 -2.078319 2.828427 -2.828427 
C 2.078319 -3.578535 1.060812 -4 0 -4 
C -1.060812 -4 -2.078319 -3.578535 -2.828427 -2.828427 
C -3.578535 -2.078319 -4 -1.060812 -4 0 
C -4 1.060812 -3.578535 2.078319 -2.828427 2.828427 
C -2.078319 3.578535 -1.060812 4 0 4 
z
" style="stroke: #000000; stroke-width: 2"/>
    </defs>
    <g clip-path="url(#p3724fb15a3)">
     <use xlink:href="#m32c6a80703" x="-1" y="33.859043" style="stroke: #000000; stroke-width: 2"/>
     <use xlink:href="#m32c6a80703" x="55.162449" y="34.05524" style="stroke: #000000; stroke-width: 2"/>
     <use xlink:href="#m32c6a80703" x="124.503964" y="34.441911" style="stroke: #000000; stroke-width: 2"/>
     <use xlink:href="#m32c6a80703" x="193.997878" y="34.659118" style="stroke: #000000; stroke-width: 2"/>
     <use xlink:href="#m32c6a80703" x="263.644191" y="34.843843" style="stroke: #000000; stroke-width: 2"/>
     <use xlink:href="#m32c6a80703" x="333.290504" y="34.912328" style="stroke: #000000; stroke-width: 2"/>
    </g>
   </g>
   <g id="PathCollection_2">
    <g clip-path="url(#p3724fb15a3)">
     <use xlink:href="#m32c6a80703" x="-1" y="113.314955" style="stroke: #000000; stroke-width: 2"/>
     <use xlink:href="#m32c6a80703" x="55.162449" y="116.057644" style="stroke: #000000; stroke-width: 2"/>
     <use xlink:href="#m32c6a80703" x="124.503964" y="115.297183" style="stroke: #000000; stroke-width: 2"/>
     <use xlink:href="#m32c6a80703" x="193.997878" y="112.910043" style="stroke: #000000; stroke-width: 2"/>
     <use xlink:href="#m32c6a80703" x="263.644191" y="109.050518" style="stroke: #000000; stroke-width: 2"/>
     <use xlink:href="#m32c6a80703" x="333.290504" y="105.418205" style="stroke: #000000; stroke-width: 2"/>
    </g>
   </g>
   <g id="line2d_10">
    <path clip-path="url(#p3724fb15a3)" style="fill: none; stroke-dasharray: 7.4,3.2; stroke-dashoffset: 0; stroke: #000000; stroke-width: 2"/>
   </g>
   <g id="line2d_11">
    <path clip-path="url(#p3724fb15a3)" style="fill: none; stroke-dasharray: 7.4,3.2; stroke-dashoffset: 0; stroke: #000000; stroke-width: 2"/>
   </g>
   <g id="line2d_12">
    <path clip-path="url(#p3724fb15a3)" style="fill: none; stroke-dasharray: 7.4,3.2; stroke-dashoffset: 0; stroke: #000000; stroke-width: 2"/>
   </g>
   <g id="line2d_13">
    <path clip-path="url(#p3724fb15a3)" style="fill: none; stroke-dasharray: 7.4,3.2; stroke-dashoffset: 0; stroke: #000000; stroke-width: 2"/>
   </g>
   <g id="line2d_14">
    <path clip-path="url(#p3724fb15a3)" style="fill: none; stroke-dasharray: 7.4,3.2; stroke-dashoffset: 0; stroke: #000000; stroke-width: 2"/>
   </g>
   <g id="line2d_15">
    <path clip-path="url(#p3724fb15a3)" style="fill: none; stroke-dasharray: 7.4,3.2; stroke-dashoffset: 0; stroke: #000000; stroke-width: 2"/>
   </g>
   <g id="line2d_16">
    <path clip-path="url(#p3724fb15a3)" style="fill: none; stroke-dasharray: 7.4,3.2; stroke-dashoffset: 0; stroke: #000000; stroke-width: 2"/>
   </g>
   <g id="line2d_17">
    <path clip-path="url(#p3724fb15a3)" style="fill: none; stroke-dasharray: 7.4,3.2; stroke-dashoffset: 0; stroke: #000000; stroke-width: 2"/>
   </g>
   <g id="line2d_18">
    <path clip-path="url(#p3724fb15a3)" style="fill: none; stroke-dasharray: 7.4,3.2; stroke-dashoffset: 0; stroke: #000000; stroke-width: 2"/>
   </g>
   <g id="line2d_19">
    <path clip-path="url(#p3724fb15a3)" style="fill: none; stroke-dasharray: 7.4,3.2; stroke-dashoffset: 0; stroke: #000000; stroke-width: 2"/>
   </g>
   <g id="line2d_20">
    <path clip-path="url(#p3724fb15a3)" style="fill: none; stroke-dasharray: 7.4,3.2; stroke-dashoffset: 0; stroke: #000000; stroke-width: 2"/>
   </g>
   <g id="line2d_21">
    <path clip-path="url(#p3724fb15a3)" style="fill: none; stroke-dasharray: 7.4,3.2; stroke-dashoffset: 0; stroke: #000000; stroke-width: 2"/>
   </g>
   <g id="line2d_22">
    <path clip-path="url(#p3724fb15a3)" style="fill: none; stroke-dasharray: 7.4,3.2; stroke-dashoffset: 0; stroke: #000000; stroke-width: 2"/>
   </g>
   <g id="line2d_23">
    <path clip-path="url(#p3724fb15a3)" style="fill: none; stroke-dasharray: 7.4,3.2; stroke-dashoffset: 0; stroke: #000000; stroke-width: 2"/>
   </g>
   <g id="line2d_24">
    <path clip-path="url(#p3724fb15a3)" style="fill: none; stroke-dasharray: 7.4,3.2; stroke-dashoffset: 0; stroke: #000000; stroke-width: 2"/>
   </g>
   <g id="line2d_25">
    <path clip-path="url(#p3724fb15a3)" style="fill: none; stroke-dasharray: 7.4,3.2; stroke-dashoffset: 0; stroke: #000000; stroke-width: 2"/>
   </g>
   <g id="line2d_26">
    <path clip-path="url(#p3724fb15a3)" style="fill: none; stroke-dasharray: 7.4,3.2; stroke-dashoffset: 0; stroke: #000000; stroke-width: 2"/>
   </g>
   <g id="line2d_27">
    <path d="M 55.162449 274.6 
L 55.162449 -1 
" clip-path="url(#p3724fb15a3)" style="fill: none; stroke-dasharray: 7.4,3.2; stroke-dashoffset: 0; stroke: #000000; stroke-width: 2"/>
   </g>
   <g id="line2d_28">
    <path d="M 124.503964 274.6 
L 124.503964 -1 
" clip-path="url(#p3724fb15a3)" style="fill: none; stroke-dasharray: 7.4,3.2; stroke-dashoffset: 0; stroke: #000000; stroke-width: 2"/>
   </g>
   <g id="line2d_29">
    <path d="M 193.997878 274.6 
L 193.997878 -1 
" clip-path="url(#p3724fb15a3)" style="fill: none; stroke-dasharray: 7.4,3.2; stroke-dashoffset: 0; stroke: #000000; stroke-width: 2"/>
   </g>
   <g id="line2d_30">
    <path d="M 263.644191 274.6 
L 263.644191 -1 
" clip-path="url(#p3724fb15a3)" style="fill: none; stroke-dasharray: 7.4,3.2; stroke-dashoffset: 0; stroke: #000000; stroke-width: 2"/>
   </g>
   <g id="line2d_31">
    <path d="M 333.290504 274.6 
L 333.290504 -1 
" clip-path="url(#p3724fb15a3)" style="fill: none; stroke-dasharray: 7.4,3.2; stroke-dashoffset: 0; stroke: #000000; stroke-width: 2"/>
   </g>
  </g>
 </g>
 <defs>
  <clipPath id="p3724fb15a3">
   <rect x="10.58576" y="2.834646" width="396.237229" height="237.070709"/>
  </clipPath>
 </defs>
</svg>
