<?xml version="1.0" encoding="utf-8" standalone="no"?>
<!DOCTYPE svg PUBLIC "-//W3C//DTD SVG 1.1//EN"
  "http://www.w3.org/Graphics/SVG/1.1/DTD/svg11.dtd">
<svg xmlns:xlink="http://www.w3.org/1999/xlink" width="959.04pt" height="267.84pt" viewBox="0 0 959.04 267.84" xmlns="http://www.w3.org/2000/svg" version="1.1">
 <metadata>
  <rdf:RDF xmlns:dc="http://purl.org/dc/elements/1.1/" xmlns:cc="http://creativecommons.org/ns#" xmlns:rdf="http://www.w3.org/1999/02/22-rdf-syntax-ns#">
   <cc:Work>
    <dc:type rdf:resource="http://purl.org/dc/dcmitype/StillImage"/>
    <dc:date>2024-04-27T16:44:24.574090</dc:date>
    <dc:format>image/svg+xml</dc:format>
    <dc:creator>
     <cc:Agent>
      <dc:title>Matplotlib v3.7.0, https://matplotlib.org/</dc:title>
     </cc:Agent>
    </dc:creator>
   </cc:Work>
  </rdf:RDF>
 </metadata>
 <defs>
  <style type="text/css">*{stroke-linejoin: round; stroke-linecap: butt}</style>
 </defs>
 <g id="figure_1">
  <g id="patch_1">
   <path d="M 0 267.84 
L 959.04 267.84 
L 959.04 0 
L 0 0 
L 0 267.84 
z
" style="fill: none"/>
  </g>
  <g id="axes_1">
   <g id="patch_2">
    <path d="M 40.694965 263.083967 
L 956.205354 263.083967 
L 956.205354 2.834646 
L 40.694965 2.834646 
L 40.694965 263.083967 
z
" style="fill: none"/>
   </g>
   <g id="line2d_1">
    <path d="M 66.605636 53.352663 
L 84.231943 53.352663 
L 101.85825 53.982632 
L 119.484557 54.612601 
L 137.110864 55.24257 
L 154.737172 55.872538 
L 172.363479 56.502507 
L 189.989786 57.132476 
L 207.616093 58.392414 
L 225.2424 59.022383 
L 242.868707 60.28232 
L 260.495014 61.542258 
L 278.121321 63.432164 
L 295.747628 64.692102 
L 313.373935 66.582008 
L 331.000242 69.101884 
L 348.626549 72.251728 
L 366.252856 76.66151 
L 383.879164 81.70126 
L 401.505471 89.260886 
L 419.131778 99.340387 
L 436.758085 113.199701 
L 454.384392 128.948922 
L 472.010699 144.278163 
L 489.637006 156.87754 
L 507.263313 166.957041 
L 524.88962 173.886698 
L 542.515927 179.556417 
L 560.142234 183.33623 
L 577.768541 186.486075 
L 595.394848 189.00595 
L 613.021156 190.895856 
L 630.647463 192.785763 
L 648.27377 194.0457 
L 665.900077 195.305638 
L 683.526384 196.565576 
L 701.152691 197.825513 
L 718.778998 198.455482 
L 736.405305 199.085451 
L 754.031612 199.71542 
L 771.657919 200.345389 
L 789.284226 200.975357 
L 806.910533 201.605326 
L 824.53684 202.235295 
L 842.163148 202.235295 
L 859.789455 202.865264 
L 877.415762 203.495233 
L 895.042069 203.495233 
L 912.668376 204.125202 
L 930.294683 204.125202 
" clip-path="url(#p1ad3de99c9)" style="fill: none; stroke: #0173b2; stroke-width: 6"/>
   </g>
   <g id="matplotlib.axis_1">
    <g id="xtick_1"/>
    <g id="xtick_2"/>
    <g id="xtick_3"/>
    <g id="xtick_4"/>
   </g>
   <g id="matplotlib.axis_2">
    <g id="ytick_1">
     <g id="line2d_2">
      <defs>
       <path id="m2a9d091fdd" d="M 0 0 
L 5 0 
" style="stroke: #000000"/>
      </defs>
      <g>
       <use xlink:href="#m2a9d091fdd" x="40.694965" y="235.781135" style="stroke: #000000"/>
      </g>
     </g>
     <g id="text_1">
      <!-- $-\frac{\pi}{2}$ -->
      <g transform="translate(0.514965 245.441135) scale(0.28 -0.28)">
       <defs>
        <path id="Cmsy10-a1" d="M 653 1472 
Q 600 1472 565 1512 
Q 531 1553 531 1600 
Q 531 1647 565 1687 
Q 600 1728 653 1728 
L 4325 1728 
Q 4375 1728 4408 1687 
Q 4441 1647 4441 1600 
Q 4441 1553 4408 1512 
Q 4375 1472 4325 1472 
L 653 1472 
z
" transform="scale(0.015625)"/>
        <path id="Cmmi10-bc" d="M 647 109 
Q 647 144 672 213 
Q 850 584 1004 942 
Q 1159 1300 1282 1639 
Q 1406 1978 1509 2363 
L 1100 2363 
Q 866 2363 662 2216 
Q 459 2069 325 1844 
Q 313 1819 288 1819 
L 213 1819 
Q 153 1819 153 1881 
Q 153 1894 166 1919 
Q 375 2275 614 2517 
Q 853 2759 1153 2759 
L 3475 2759 
Q 3541 2759 3587 2715 
Q 3634 2672 3634 2597 
Q 3634 2503 3567 2433 
Q 3500 2363 3406 2363 
L 2591 2363 
Q 2488 1859 2478 1381 
Q 2478 766 2694 269 
Q 2713 231 2713 191 
Q 2713 122 2672 62 
Q 2631 3 2567 -34 
Q 2503 -72 2431 -72 
Q 2263 -72 2200 203 
Q 2138 478 2138 738 
Q 2138 1103 2200 1442 
Q 2263 1781 2400 2363 
L 1703 2363 
Q 1197 313 1094 103 
Q 1003 -72 844 -72 
Q 766 -72 706 -20 
Q 647 31 647 109 
z
" transform="scale(0.015625)"/>
        <path id="Cmr10-32" d="M 319 0 
L 319 172 
Q 319 188 331 206 
L 1325 1306 
Q 1550 1550 1690 1715 
Q 1831 1881 1968 2097 
Q 2106 2313 2186 2536 
Q 2266 2759 2266 3009 
Q 2266 3272 2169 3511 
Q 2072 3750 1880 3894 
Q 1688 4038 1416 4038 
Q 1138 4038 916 3870 
Q 694 3703 603 3438 
Q 628 3444 672 3444 
Q 816 3444 917 3347 
Q 1019 3250 1019 3097 
Q 1019 2950 917 2848 
Q 816 2747 672 2747 
Q 522 2747 420 2851 
Q 319 2956 319 3097 
Q 319 3338 409 3548 
Q 500 3759 670 3923 
Q 841 4088 1055 4175 
Q 1269 4263 1509 4263 
Q 1875 4263 2190 4108 
Q 2506 3953 2690 3670 
Q 2875 3388 2875 3009 
Q 2875 2731 2753 2481 
Q 2631 2231 2440 2026 
Q 2250 1822 1953 1562 
Q 1656 1303 1563 1216 
L 838 519 
L 1453 519 
Q 1906 519 2211 526 
Q 2516 534 2534 550 
Q 2609 631 2688 1141 
L 2875 1141 
L 2694 0 
L 319 0 
z
" transform="scale(0.015625)"/>
       </defs>
       <use xlink:href="#Cmsy10-a1" transform="translate(0 0.535938)"/>
       <use xlink:href="#Cmmi10-bc" transform="translate(77.685547 38.823437) scale(0.7)"/>
       <use xlink:href="#Cmr10-32" transform="translate(79.685547 -39.840625) scale(0.7)"/>
       <path d="M 77.685547 13.035937 
L 77.685547 19.285937 
L 117.573242 19.285937 
L 117.573242 13.035937 
L 77.685547 13.035937 
z
"/>
      </g>
     </g>
    </g>
    <g id="ytick_2">
     <g id="line2d_3">
      <g>
       <use xlink:href="#m2a9d091fdd" x="40.694965" y="130.838828" style="stroke: #000000"/>
      </g>
     </g>
     <g id="text_2">
      <!-- $0$ -->
      <g transform="translate(23.194965 141.476641) scale(0.28 -0.28)">
       <defs>
        <path id="Cmr10-30" d="M 1600 -141 
Q 816 -141 533 504 
Q 250 1150 250 2041 
Q 250 2597 351 3087 
Q 453 3578 754 3920 
Q 1056 4263 1600 4263 
Q 2022 4263 2290 4056 
Q 2559 3850 2700 3523 
Q 2841 3197 2892 2823 
Q 2944 2450 2944 2041 
Q 2944 1491 2842 1011 
Q 2741 531 2444 195 
Q 2147 -141 1600 -141 
z
M 1600 25 
Q 1956 25 2131 390 
Q 2306 756 2347 1200 
Q 2388 1644 2388 2144 
Q 2388 2625 2347 3031 
Q 2306 3438 2132 3767 
Q 1959 4097 1600 4097 
Q 1238 4097 1063 3765 
Q 888 3434 847 3029 
Q 806 2625 806 2144 
Q 806 1788 823 1472 
Q 841 1156 916 820 
Q 991 484 1158 254 
Q 1325 25 1600 25 
z
" transform="scale(0.015625)"/>
       </defs>
       <use xlink:href="#Cmr10-30" transform="translate(0 0.390625)"/>
      </g>
     </g>
    </g>
    <g id="ytick_3">
     <g id="line2d_4">
      <g>
       <use xlink:href="#m2a9d091fdd" x="40.694965" y="25.896522" style="stroke: #000000"/>
      </g>
     </g>
     <g id="text_3">
      <!-- $\frac{\pi}{2}$ -->
      <g transform="translate(22.354965 35.556522) scale(0.28 -0.28)">
       <use xlink:href="#Cmmi10-bc" transform="translate(0 38.823437) scale(0.7)"/>
       <use xlink:href="#Cmr10-32" transform="translate(2 -39.840625) scale(0.7)"/>
       <path d="M 0 13.035937 
L 0 19.285937 
L 39.887695 19.285937 
L 39.887695 13.035937 
L 0 13.035937 
z
"/>
      </g>
     </g>
    </g>
   </g>
   <g id="line2d_5">
    <path d="M 66.605636 54.112215 
L 84.231943 54.572979 
L 101.85825 55.07077 
L 119.484557 55.610478 
L 137.110864 56.197924 
L 154.737172 56.840102 
L 172.363479 57.545497 
L 189.989786 58.324512 
L 207.616093 59.190061 
L 225.2424 60.158393 
L 242.868707 61.250275 
L 260.495014 62.492715 
L 278.121321 63.921554 
L 295.747628 65.585484 
L 313.373935 67.552457 
L 331.000242 69.920323 
L 348.626549 72.835102 
L 366.252856 76.523273 
L 383.879164 81.348293 
L 401.505471 87.894311 
L 419.131778 96.983617 
L 436.758085 109.19607 
L 454.384392 123.822185 
L 472.010699 139.066349 
L 489.637006 153.093533 
L 507.263313 164.479078 
L 524.88962 172.891531 
L 542.515927 178.968469 
L 560.142234 183.461552 
L 577.768541 186.899209 
L 595.394848 189.613876 
L 613.021156 191.815027 
L 630.647463 193.638845 
L 648.27377 195.177123 
L 665.900077 196.493863 
L 683.526384 197.635044 
L 701.152691 198.634569 
L 718.778998 199.51801 
L 736.405305 200.305034 
L 754.031612 201.011033 
L 771.657919 201.648233 
L 789.284226 202.226478 
L 806.910533 202.753789 
L 824.53684 203.236771 
L 842.163148 203.680916 
L 859.789455 204.090831 
L 877.415762 204.470412 
L 895.042069 204.822974 
L 912.668376 205.15136 
L 930.294683 205.458023 
" clip-path="url(#p1ad3de99c9)" style="fill: none; stroke: #de8f05; stroke-width: 6"/>
   </g>
   <g id="patch_3">
    <path d="M 40.694965 263.083967 
L 40.694965 2.834646 
" style="fill: none; stroke: #000000; stroke-width: 2; stroke-linejoin: miter; stroke-linecap: square"/>
   </g>
   <g id="line2d_6">
    <path d="M 66.605636 54.295256 
L 84.231943 54.764986 
L 101.85825 55.245853 
L 119.484557 55.797711 
L 137.110864 56.369801 
L 154.737172 57.010493 
L 172.363479 57.722979 
L 189.989786 58.49735 
L 207.616093 59.350601 
L 225.2424 60.307091 
L 242.868707 61.393515 
L 260.495014 62.613709 
L 278.121321 64.009305 
L 295.747628 65.645754 
L 313.373935 67.084191 
L 331.000242 69.383156 
L 348.626549 72.181967 
L 366.252856 75.673042 
L 383.879164 80.617786 
L 401.505471 86.608948 
L 419.131778 94.932558 
L 436.758085 106.736754 
L 454.384392 122.775032 
L 472.010699 140.294883 
L 489.637006 155.5611 
L 507.263313 166.559519 
L 524.88962 174.265528 
L 542.515927 179.832858 
L 560.142234 184.399652 
L 577.768541 187.628026 
L 595.394848 190.2076 
L 613.021156 192.317862 
L 630.647463 194.081785 
L 648.27377 195.577617 
L 665.900077 196.865086 
L 683.526384 197.583701 
L 701.152691 198.564228 
L 718.778998 199.43839 
L 736.405305 200.212715 
L 754.031612 200.909948 
L 771.657919 201.552285 
L 789.284226 202.112159 
L 806.910533 202.642063 
L 824.53684 203.117366 
L 842.163148 203.553836 
L 859.789455 203.974197 
L 877.415762 204.341555 
L 895.042069 204.688636 
L 912.668376 205.020173 
L 930.294683 205.33606 
" clip-path="url(#p1ad3de99c9)" style="fill: none; stroke: #029e73; stroke-width: 6"/>
   </g>
   <g id="line2d_7">
    <path d="M 66.605636 54.100735 
L 84.231943 54.559633 
L 101.85825 55.055175 
L 119.484557 55.592151 
L 137.110864 56.176254 
L 154.737172 56.814301 
L 172.363479 57.514538 
L 189.989786 58.287041 
L 207.616093 59.144264 
L 225.2424 60.101796 
L 242.868707 61.179436 
L 260.495014 62.402747 
L 278.121321 63.805342 
L 295.747628 65.432367 
L 313.373935 67.345957 
L 331.000242 69.634045 
L 348.626549 72.425134 
L 366.252856 75.913923 
L 383.879164 80.406972 
L 401.505471 86.403474 
L 419.131778 94.71878 
L 436.758085 106.527723 
L 454.384392 122.555945 
L 472.010699 140.507305 
L 489.637006 155.770917 
L 507.263313 166.765367 
L 524.88962 174.467223 
L 542.515927 180.019954 
L 560.142234 184.180816 
L 577.768541 187.409656 
L 595.394848 189.989253 
L 613.021156 192.099839 
L 630.647463 193.860795 
L 648.27377 195.354064 
L 665.900077 196.637688 
L 683.526384 197.753919 
L 701.152691 198.734254 
L 718.778998 199.602663 
L 736.405305 200.377725 
L 754.031612 201.074067 
L 771.657919 201.703373 
L 789.284226 202.275092 
L 806.910533 202.796952 
L 824.53684 203.275339 
L 842.163148 203.715579 
L 859.789455 204.122149 
L 877.415762 204.498845 
L 895.042069 204.848903 
L 912.668376 205.175103 
L 930.294683 205.479846 
" clip-path="url(#p1ad3de99c9)" style="fill: none; stroke: #029e73; stroke-width: 6"/>
   </g>
   <g id="line2d_8">
    <path d="M 66.605636 43.200583 
L 84.231943 54.769019 
L 101.85825 62.880441 
L 119.484557 69.510709 
L 137.110864 75.262356 
L 154.737172 80.416095 
L 172.363479 85.130013 
L 189.989786 89.503708 
L 207.616093 93.60483 
L 225.2424 97.481892 
L 242.868707 101.171154 
L 260.495014 104.700617 
L 278.121321 108.092493 
L 295.747628 111.364799 
L 313.373935 114.532434 
L 331.000242 117.607932 
L 348.626549 120.601995 
L 366.252856 123.523887 
L 383.879164 126.381738 
L 401.505471 129.182764 
L 419.131778 131.933452 
L 436.758085 134.639695 
L 454.384392 137.306916 
L 472.010699 139.94016 
L 489.637006 142.544177 
L 507.263313 145.123494 
L 524.88962 147.682479 
L 542.515927 150.225406 
L 560.142234 152.756507 
L 577.768541 155.280032 
L 595.394848 157.800313 
L 613.021156 160.321828 
L 630.647463 162.849274 
L 648.27377 165.387655 
L 665.900077 167.942383 
L 683.526384 170.519408 
L 701.152691 173.125377 
L 718.778998 175.767842 
L 736.405305 178.455539 
L 754.031612 181.198764 
L 771.657919 184.009907 
L 789.284226 186.904219 
L 806.910533 189.900969 
L 824.53684 193.025248 
L 842.163148 196.310948 
L 859.789455 199.806014 
L 877.415762 203.582487 
L 895.042069 207.758168 
L 912.668376 212.552188 
L 930.294683 218.477073 
" clip-path="url(#p1ad3de99c9)" style="fill: none; stroke: #949494; stroke-width: 6"/>
   </g>
   <g id="line2d_9">
    <path d="M 66.605636 78.235288 
L 66.605636 34.539222 
" clip-path="url(#p1ad3de99c9)" style="fill: none; stroke: #000000; stroke-width: 2"/>
   </g>
   <g id="line2d_10">
    <path d="M 210.553811 99.50941 
L 210.553811 31.094776 
" clip-path="url(#p1ad3de99c9)" style="fill: none; stroke: #000000; stroke-width: 2"/>
   </g>
   <g id="line2d_11">
    <path d="M 354.501985 135.53651 
L 354.501985 10.200193 
" clip-path="url(#p1ad3de99c9)" style="fill: none; stroke: #000000; stroke-width: 2"/>
   </g>
   <g id="line2d_12">
    <path d="M 498.45016 200.668947 
L 498.45016 120.136679 
" clip-path="url(#p1ad3de99c9)" style="fill: none; stroke: #000000; stroke-width: 2"/>
   </g>
   <g id="line2d_13">
    <path d="M 642.398334 243.943738 
L 642.398334 147.523796 
" clip-path="url(#p1ad3de99c9)" style="fill: none; stroke: #000000; stroke-width: 2"/>
   </g>
   <g id="line2d_14">
    <path d="M 786.346508 238.331469 
L 786.346508 166.439138 
" clip-path="url(#p1ad3de99c9)" style="fill: none; stroke: #000000; stroke-width: 2"/>
   </g>
   <g id="line2d_15">
    <path d="M 930.294683 255.71842 
L 930.294683 159.134377 
" clip-path="url(#p1ad3de99c9)" style="fill: none; stroke: #000000; stroke-width: 2"/>
   </g>
   <g id="PathCollection_1">
    <defs>
     <path id="mb27a5c7802" d="M 8 0 
L -8 -0 
" style="stroke: #000000; stroke-width: 2"/>
    </defs>
    <g clip-path="url(#p1ad3de99c9)">
     <use xlink:href="#mb27a5c7802" x="66.605636" y="78.235288" style="stroke: #000000; stroke-width: 2"/>
     <use xlink:href="#mb27a5c7802" x="66.605636" y="34.539222" style="stroke: #000000; stroke-width: 2"/>
    </g>
   </g>
   <g id="PathCollection_2">
    <g clip-path="url(#p1ad3de99c9)">
     <use xlink:href="#mb27a5c7802" x="210.553811" y="99.50941" style="stroke: #000000; stroke-width: 2"/>
     <use xlink:href="#mb27a5c7802" x="210.553811" y="31.094776" style="stroke: #000000; stroke-width: 2"/>
    </g>
   </g>
   <g id="PathCollection_3">
    <g clip-path="url(#p1ad3de99c9)">
     <use xlink:href="#mb27a5c7802" x="354.501985" y="135.53651" style="stroke: #000000; stroke-width: 2"/>
     <use xlink:href="#mb27a5c7802" x="354.501985" y="10.200193" style="stroke: #000000; stroke-width: 2"/>
    </g>
   </g>
   <g id="PathCollection_4">
    <g clip-path="url(#p1ad3de99c9)">
     <use xlink:href="#mb27a5c7802" x="498.45016" y="200.668947" style="stroke: #000000; stroke-width: 2"/>
     <use xlink:href="#mb27a5c7802" x="498.45016" y="120.136679" style="stroke: #000000; stroke-width: 2"/>
    </g>
   </g>
   <g id="PathCollection_5">
    <g clip-path="url(#p1ad3de99c9)">
     <use xlink:href="#mb27a5c7802" x="642.398334" y="243.943738" style="stroke: #000000; stroke-width: 2"/>
     <use xlink:href="#mb27a5c7802" x="642.398334" y="147.523796" style="stroke: #000000; stroke-width: 2"/>
    </g>
   </g>
   <g id="PathCollection_6">
    <g clip-path="url(#p1ad3de99c9)">
     <use xlink:href="#mb27a5c7802" x="786.346508" y="238.331469" style="stroke: #000000; stroke-width: 2"/>
     <use xlink:href="#mb27a5c7802" x="786.346508" y="166.439138" style="stroke: #000000; stroke-width: 2"/>
    </g>
   </g>
   <g id="PathCollection_7">
    <g clip-path="url(#p1ad3de99c9)">
     <use xlink:href="#mb27a5c7802" x="930.294683" y="255.71842" style="stroke: #000000; stroke-width: 2"/>
     <use xlink:href="#mb27a5c7802" x="930.294683" y="159.134377" style="stroke: #000000; stroke-width: 2"/>
    </g>
   </g>
   <g id="PathCollection_8">
    <defs>
     <path id="mf60fdfd1da" d="M 0 8 
C 2.121625 8 4.156639 7.15707 5.656854 5.656854 
C 7.15707 4.156639 8 2.121625 8 0 
C 8 -2.121625 7.15707 -4.156639 5.656854 -5.656854 
C 4.156639 -7.15707 2.121625 -8 0 -8 
C -2.121625 -8 -4.156639 -7.15707 -5.656854 -5.656854 
C -7.15707 -4.156639 -8 -2.121625 -8 0 
C -8 2.121625 -7.15707 4.156639 -5.656854 5.656854 
C -4.156639 7.15707 -2.121625 8 0 8 
z
" style="stroke: #000000; stroke-width: 2"/>
    </defs>
    <g clip-path="url(#p1ad3de99c9)">
     <use xlink:href="#mf60fdfd1da" x="66.605636" y="56.387255" style="fill: #cc78bc; stroke: #000000; stroke-width: 2"/>
     <use xlink:href="#mf60fdfd1da" x="210.553811" y="65.302093" style="fill: #cc78bc; stroke: #000000; stroke-width: 2"/>
     <use xlink:href="#mf60fdfd1da" x="354.501985" y="72.868351" style="fill: #cc78bc; stroke: #000000; stroke-width: 2"/>
     <use xlink:href="#mf60fdfd1da" x="498.45016" y="160.402813" style="fill: #cc78bc; stroke: #000000; stroke-width: 2"/>
     <use xlink:href="#mf60fdfd1da" x="642.398334" y="195.733767" style="fill: #cc78bc; stroke: #000000; stroke-width: 2"/>
     <use xlink:href="#mf60fdfd1da" x="786.346508" y="202.385304" style="fill: #cc78bc; stroke: #000000; stroke-width: 2"/>
     <use xlink:href="#mf60fdfd1da" x="930.294683" y="207.426398" style="fill: #cc78bc; stroke: #000000; stroke-width: 2"/>
    </g>
   </g>
  </g>
 </g>
 <defs>
  <clipPath id="p1ad3de99c9">
   <rect x="40.694965" y="2.834646" width="915.51039" height="260.249321"/>
  </clipPath>
 </defs>
</svg>
