<?xml version="1.0" encoding="utf-8" standalone="no"?>
<!DOCTYPE svg PUBLIC "-//W3C//DTD SVG 1.1//EN"
  "http://www.w3.org/Graphics/SVG/1.1/DTD/svg11.dtd">
<svg xmlns:xlink="http://www.w3.org/1999/xlink" width="907.2pt" height="172.8pt" viewBox="0 0 907.2 172.8" xmlns="http://www.w3.org/2000/svg" version="1.1">
 <metadata>
  <rdf:RDF xmlns:dc="http://purl.org/dc/elements/1.1/" xmlns:cc="http://creativecommons.org/ns#" xmlns:rdf="http://www.w3.org/1999/02/22-rdf-syntax-ns#">
   <cc:Work>
    <dc:type rdf:resource="http://purl.org/dc/dcmitype/StillImage"/>
    <dc:date>2024-08-16T15:10:39.068298</dc:date>
    <dc:format>image/svg+xml</dc:format>
    <dc:creator>
     <cc:Agent>
      <dc:title>Matplotlib v3.8.4, https://matplotlib.org/</dc:title>
     </cc:Agent>
    </dc:creator>
   </cc:Work>
  </rdf:RDF>
 </metadata>
 <defs>
  <style type="text/css">*{stroke-linejoin: round; stroke-linecap: butt}</style>
 </defs>
 <g id="figure_1">
  <g id="patch_1">
   <path d="M 0 172.8 
L 907.2 172.8 
L 907.2 0 
L 0 0 
L 0 172.8 
z
" style="fill: none"/>
  </g>
  <g id="axes_1">
   <g id="patch_2">
    <path d="M 41.316477 139.105354 
L 904.365354 139.105354 
L 904.365354 9.602646 
L 41.316477 9.602646 
L 41.316477 139.105354 
z
" style="fill: none"/>
   </g>
   <g id="line2d_1">
    <path d="M 65.742388 52.770215 
L 66.466119 52.871951 
L 67.280316 53.227405 
L 68.094513 53.833565 
L 68.999177 54.793811 
L 69.994306 56.186913 
L 71.079902 58.090593 
L 72.346431 60.785484 
L 73.793893 64.434702 
L 75.422287 69.173064 
L 77.412546 75.700116 
L 80.03607 85.139891 
L 86.549646 108.921305 
L 88.630372 115.507345 
L 90.349233 120.249758 
L 91.88716 123.855626 
L 93.244156 126.482054 
L 94.420218 128.309416 
L 95.505814 129.612302 
L 96.500944 130.476008 
L 97.405607 130.98486 
L 98.310271 131.231012 
L 99.124468 131.230067 
L 99.938665 131.021743 
L 100.843328 130.55259 
L 101.838458 129.756731 
L 102.924054 128.569139 
L 104.100116 126.927868 
L 105.366645 124.78007 
L 106.904573 121.696522 
L 108.623433 117.720832 
L 110.704159 112.318242 
L 113.599082 104.09949 
L 120.384057 84.608036 
L 122.917115 78.181279 
L 124.997841 73.473937 
L 127.078566 69.328408 
L 128.97836 66.035983 
L 130.878153 63.193997 
L 132.777946 60.768082 
L 134.587273 58.807958 
L 136.396599 57.155335 
L 138.296393 55.719487 
L 140.196186 54.567822 
L 142.005512 53.726374 
L 143.724373 53.161602 
L 145.352767 52.850129 
L 146.890695 52.780155 
L 147.704892 52.970877 
L 148.519089 53.401172 
L 149.423752 54.154264 
L 150.418882 55.307304 
L 151.504478 56.937825 
L 152.68054 59.119643 
L 154.037536 62.135733 
L 155.575463 66.13547 
L 157.38479 71.517458 
L 159.555982 78.726819 
L 162.722304 90.109364 
L 167.426554 106.956874 
L 169.688212 114.196319 
L 171.497539 119.280538 
L 173.035467 122.993819 
L 174.392462 125.746278 
L 175.658991 127.836604 
L 176.744587 129.242414 
L 177.739716 130.209 
L 178.64438 130.816448 
L 179.549043 131.164377 
L 180.36324 131.256348 
L 181.177437 131.140898 
L 182.082101 130.773361 
L 182.986764 130.160033 
L 183.981894 129.21091 
L 185.06749 127.862238 
L 186.243552 126.054273 
L 187.600547 123.55535 
L 189.138475 120.246474 
L 190.947802 115.805097 
L 193.118994 109.872555 
L 196.375782 100.254611 
L 201.532364 85.094773 
L 203.974955 78.62722 
L 206.146147 73.490648 
L 208.04594 69.52278 
L 209.945733 66.061097 
L 211.845526 63.092639 
L 213.654853 60.694976 
L 215.373714 58.772733 
L 217.18304 57.087391 
L 218.992367 55.712026 
L 220.801694 54.615936 
L 222.611021 53.777921 
L 224.420348 53.188417 
L 226.139208 52.86107 
L 227.767602 52.774818 
L 228.581799 52.935803 
L 229.395996 53.323795 
L 230.30066 54.015195 
L 231.295789 55.08303 
L 232.381385 56.601218 
L 233.557448 58.640844 
L 234.914443 61.47066 
L 236.452371 65.238354 
L 238.171231 70.063488 
L 240.251957 76.606496 
L 243.056414 86.247433 
L 249.660456 109.255645 
L 251.831648 115.843396 
L 253.550509 120.403822 
L 255.088437 123.893987 
L 256.445432 126.455424 
L 257.711961 128.374488 
L 258.797557 129.639856 
L 259.792686 130.483303 
L 260.69735 130.983701 
L 261.602013 131.229203 
L 262.41621 131.23287 
L 263.230407 131.032631 
L 264.135071 130.574844 
L 265.1302 129.792158 
L 266.215796 128.616542 
L 267.391859 126.982271 
L 268.658388 124.830284 
L 270.105849 121.917179 
L 271.734243 118.131604 
L 273.724503 112.904869 
L 276.25756 105.575667 
L 284.580463 80.929397 
L 286.932588 74.974803 
L 288.922848 70.526357 
L 290.732174 66.984618 
L 292.451035 64.063238 
L 294.169895 61.556601 
L 295.888756 59.437359 
L 297.607616 57.672712 
L 299.326477 56.226594 
L 301.045337 55.064435 
L 302.764198 54.157157 
L 304.573524 53.454399 
L 306.382851 52.997316 
L 308.101712 52.789671 
L 309.36824 52.823542 
L 310.182437 53.085945 
L 311.087101 53.629276 
L 311.991764 54.430488 
L 312.986894 55.599576 
L 314.162956 57.353221 
L 315.429485 59.666614 
L 316.876946 62.809157 
L 318.505341 66.915093 
L 320.405134 72.357809 
L 322.666792 79.551084 
L 326.014047 91.039971 
L 330.808763 107.425363 
L 333.070421 114.365829 
L 334.970214 119.501496 
L 336.598608 123.275162 
L 338.04607 126.072944 
L 339.312599 128.053043 
L 340.488661 129.478551 
L 341.483791 130.363329 
L 342.388454 130.907061 
L 343.293118 131.20041 
L 344.197781 131.243182 
L 345.102444 131.037008 
L 346.007108 130.585295 
L 347.002237 129.810945 
L 348.087834 128.645134 
L 349.263896 127.0211 
L 350.530425 124.877546 
L 351.977886 121.968286 
L 353.60628 118.177808 
L 355.506073 113.180746 
L 357.948665 106.095577 
L 366.904832 79.459777 
L 369.076024 74.018512 
L 370.975817 69.806196 
L 372.785144 66.298426 
L 374.504005 63.420388 
L 376.222865 60.966561 
L 377.941726 58.908703 
L 379.660586 57.2122 
L 381.379446 55.838726 
L 383.098307 54.751913 
L 384.817167 53.920772 
L 386.626494 53.296809 
L 388.435821 52.914699 
L 390.154681 52.772622 
L 391.149811 52.859854 
L 391.964008 53.161184 
L 392.868672 53.739249 
L 393.863801 54.66197 
L 394.949397 55.998036 
L 396.12546 57.814969 
L 397.482455 60.359162 
L 398.929916 63.559424 
L 400.648777 67.94063 
L 402.639036 73.679665 
L 405.081627 81.463269 
L 409.062146 95.042226 
L 412.861733 107.737086 
L 415.123391 114.566688 
L 417.023184 119.624771 
L 418.651578 123.345949 
L 420.09904 126.10878 
L 421.365568 128.06744 
L 422.541631 129.480382 
L 423.536761 130.35969 
L 424.53189 130.942875 
L 425.436554 131.213382 
L 426.341217 131.236088 
L 427.24588 131.012318 
L 428.150544 130.545131 
L 429.145674 129.755749 
L 430.23127 128.57541 
L 431.407332 126.936726 
L 432.673861 124.778088 
L 434.121322 121.851244 
L 435.749716 118.039852 
L 437.739976 112.763799 
L 440.273033 105.349627 
L 448.595937 80.411614 
L 450.767129 74.845844 
L 452.757388 70.325633 
L 454.657181 66.569002 
L 456.466508 63.498227 
L 458.185369 61.022132 
L 459.904229 58.948425 
L 461.532623 57.322378 
L 463.161017 55.991086 
L 464.879878 54.87193 
L 466.598738 54.013444 
L 468.408065 53.362818 
L 470.217392 52.952992 
L 472.026718 52.777192 
L 473.112315 52.838032 
L 473.926512 53.111772 
L 474.831175 53.656591 
L 475.826305 54.539741 
L 476.911901 55.829526 
L 478.087963 57.592714 
L 479.354492 59.89224 
L 480.801953 62.990511 
L 482.430348 67.015196 
L 484.330141 72.330245 
L 486.591799 79.343383 
L 489.848587 90.249651 
L 495.095635 107.825961 
L 497.357293 114.615606 
L 499.257087 119.64695 
L 500.885481 123.351158 
L 502.332942 126.10387 
L 503.599471 128.0576 
L 504.775533 129.469095 
L 505.770663 130.349456 
L 506.765793 130.935577 
L 507.670456 131.210254 
L 508.57512 131.238378 
L 509.479783 131.021079 
L 510.384446 130.561206 
L 511.379576 129.78063 
L 512.465172 128.610298 
L 513.641235 126.982674 
L 514.907763 124.83537 
L 516.355225 121.920768 
L 517.983619 118.120824 
L 519.883412 113.108427 
L 522.326003 106.001658 
L 531.101238 79.82412 
L 533.27243 74.343436 
L 535.172223 70.095397 
L 536.98155 66.55461 
L 538.700411 63.647203 
L 540.328805 61.286877 
L 542.047665 59.184468 
L 543.766526 57.447898 
L 545.39492 56.104995 
L 547.11378 54.969984 
L 548.832641 54.093263 
L 550.641967 53.421189 
L 552.451294 52.987454 
L 554.260621 52.785436 
L 555.52715 52.832299 
L 556.341347 53.098767 
L 557.24601 53.635785 
L 558.24114 54.510962 
L 559.326736 55.793143 
L 560.502798 57.549673 
L 561.769327 59.844237 
L 563.216789 62.939847 
L 564.845183 66.965562 
L 566.744976 72.286826 
L 569.006634 79.313212 
L 572.263422 90.245037 
L 577.51047 107.858806 
L 579.772129 114.656817 
L 581.671922 119.690075 
L 583.300316 123.392132 
L 584.747777 126.140192 
L 586.014306 128.088015 
L 587.190368 129.49277 
L 588.185498 130.366716 
L 589.180628 130.94597 
L 590.085291 131.214177 
L 590.989955 131.235776 
L 591.894618 131.012053 
L 592.799282 130.546003 
L 593.794411 129.759075 
L 594.880007 128.5826 
L 596.05607 126.949375 
L 597.322599 124.797701 
L 598.77006 121.880455 
L 600.398454 118.081324 
L 602.388714 112.824374 
L 604.921771 105.44192 
L 613.063742 81.161135 
L 615.3254 75.36896 
L 617.31566 70.855505 
L 619.215453 67.093556 
L 620.934313 64.149736 
L 622.74364 61.507091 
L 624.4625 59.399868 
L 626.181361 57.650681 
L 627.900221 56.221236 
L 629.619082 55.074972 
L 631.428408 54.139897 
L 633.237735 53.456185 
L 635.047062 53.007611 
L 636.856389 52.790596 
L 638.213384 52.831863 
L 639.027581 53.099687 
L 639.932244 53.64106 
L 640.927374 54.524798 
L 642.01297 55.821095 
L 643.189033 57.598691 
L 644.455561 59.92251 
L 645.903023 63.059254 
L 647.531417 67.139512 
L 649.43121 72.532054 
L 651.692868 79.646966 
L 655.040123 91.006783 
L 659.925305 107.531295 
L 662.186964 114.403988 
L 664.086757 119.496129 
L 665.715151 123.24419 
L 667.162612 126.029085 
L 668.429141 128.005816 
L 669.605204 129.434793 
L 670.600333 130.327263 
L 671.595463 130.923472 
L 672.500127 131.205919 
L 673.40479 131.240797 
L 674.309453 131.029584 
L 675.214117 130.575477 
L 676.209246 129.80125 
L 677.294843 128.638379 
L 678.470905 127.020281 
L 679.737434 124.885512 
L 681.184895 121.988719 
L 682.813289 118.214705 
L 684.713082 113.241625 
L 687.24614 105.927808 
L 695.749976 80.798524 
L 697.921168 75.326112 
L 699.911427 70.875557 
L 701.81122 67.165644 
L 703.620547 64.118419 
L 705.429874 61.524967 
L 707.148735 59.450725 
L 708.867595 57.721034 
L 710.586455 56.298625 
L 712.305316 55.148796 
L 714.114643 54.20127 
L 715.923969 53.49958 
L 717.733296 53.03129 
L 719.542623 52.796659 
L 720.899618 52.815916 
L 721.713815 53.064572 
L 722.618479 53.589769 
L 723.523142 54.370464 
L 724.518272 55.514962 
L 725.694334 57.237929 
L 726.960863 59.517669 
L 728.408324 62.622712 
L 730.036718 66.68969 
L 731.936511 72.093671 
L 734.19817 79.252815 
L 737.454958 90.401276 
L 742.430607 107.413669 
L 744.692265 114.350726 
L 746.592058 119.483268 
L 748.220453 123.254738 
L 749.667914 126.051589 
L 750.934443 128.032251 
L 752.110505 129.459859 
L 753.105635 130.347971 
L 754.100765 130.937284 
L 755.005428 131.211632 
L 755.910091 131.237118 
L 756.814755 131.015642 
L 757.719418 130.550839 
L 758.714548 129.764858 
L 759.800144 128.590023 
L 760.976206 126.960215 
L 762.242735 124.815817 
L 763.690197 121.912529 
L 765.318591 118.138538 
L 767.30885 112.925765 
L 769.841908 105.621625 
L 777.893412 81.903732 
L 780.15507 76.159144 
L 782.14533 71.666239 
L 784.045123 67.903674 
L 785.85445 64.798794 
L 787.663777 62.141359 
L 789.473103 59.899278 
L 791.191964 58.118168 
L 792.910824 56.640419 
L 794.720151 55.375739 
L 796.529478 54.377893 
L 798.338805 53.624454 
L 800.148131 53.104935 
L 801.957458 52.821533 
L 803.495386 52.796881 
L 804.309583 53.015663 
L 805.214246 53.513437 
L 806.11891 54.273014 
L 807.11404 55.401778 
L 808.199636 56.96993 
L 809.466164 59.220897 
L 810.823159 62.101665 
L 812.361087 65.898252 
L 814.170414 70.992913 
L 816.341606 77.823905 
L 819.326995 88.044585 
L 825.207307 108.32049 
L 827.3785 114.94757 
L 829.187826 119.806164 
L 830.725754 123.356644 
L 832.173216 126.148197 
L 833.439744 128.117086 
L 834.52534 129.434472 
L 835.52047 130.332566 
L 836.5156 130.929524 
L 837.420263 131.209115 
L 838.324927 131.238495 
L 839.22959 131.01987 
L 840.134253 130.557197 
L 841.129383 129.773208 
L 842.214979 128.600342 
L 843.391042 126.973538 
L 844.65757 124.833429 
L 846.105032 121.938018 
L 847.733426 118.176102 
L 849.723685 112.985093 
L 852.256743 105.714846 
L 860.308247 82.119583 
L 862.569906 76.399458 
L 864.560165 71.920821 
L 866.550424 67.999176 
L 868.359751 64.914688 
L 870.078612 62.391104 
L 871.887938 60.132351 
L 873.697265 58.24301 
L 875.506592 56.682579 
L 877.315919 55.413823 
L 879.125246 54.406848 
L 879.939443 54.033478 
L 879.939443 54.033478 
" clip-path="url(#p0f27e71d3f)" style="fill: none; stroke: #2477d0; stroke-width: 4"/>
   </g>
   <g id="matplotlib.axis_1">
    <g id="xtick_1">
     <g id="line2d_2">
      <defs>
       <path id="mcbbfc341b9" d="M 0 0 
L 0 -5 
" style="stroke: #000000"/>
      </defs>
      <g>
       <use xlink:href="#mcbbfc341b9" x="65.742388" y="139.105354" style="stroke: #000000"/>
      </g>
     </g>
     <g id="text_1">
      <!-- $0$ -->
      <g transform="translate(58.742388 163.880979) scale(0.28 -0.28)">
       <defs>
        <path id="Cmr10-30" d="M 1600 -141 
Q 816 -141 533 504 
Q 250 1150 250 2041 
Q 250 2597 351 3087 
Q 453 3578 754 3920 
Q 1056 4263 1600 4263 
Q 2022 4263 2290 4056 
Q 2559 3850 2700 3523 
Q 2841 3197 2892 2823 
Q 2944 2450 2944 2041 
Q 2944 1491 2842 1011 
Q 2741 531 2444 195 
Q 2147 -141 1600 -141 
z
M 1600 25 
Q 1956 25 2131 390 
Q 2306 756 2347 1200 
Q 2388 1644 2388 2144 
Q 2388 2625 2347 3031 
Q 2306 3438 2132 3767 
Q 1959 4097 1600 4097 
Q 1238 4097 1063 3765 
Q 888 3434 847 3029 
Q 806 2625 806 2144 
Q 806 1788 823 1472 
Q 841 1156 916 820 
Q 991 484 1158 254 
Q 1325 25 1600 25 
z
" transform="scale(0.015625)"/>
       </defs>
       <use xlink:href="#Cmr10-30" transform="translate(0 0.390625)"/>
      </g>
     </g>
    </g>
    <g id="xtick_2">
     <g id="line2d_3">
      <g>
       <use xlink:href="#mcbbfc341b9" x="246.675067" y="139.105354" style="stroke: #000000"/>
      </g>
     </g>
     <g id="text_2">
      <!-- $2$ -->
      <g transform="translate(239.675067 163.880979) scale(0.28 -0.28)">
       <defs>
        <path id="Cmr10-32" d="M 319 0 
L 319 172 
Q 319 188 331 206 
L 1325 1306 
Q 1550 1550 1690 1715 
Q 1831 1881 1968 2097 
Q 2106 2313 2186 2536 
Q 2266 2759 2266 3009 
Q 2266 3272 2169 3511 
Q 2072 3750 1880 3894 
Q 1688 4038 1416 4038 
Q 1138 4038 916 3870 
Q 694 3703 603 3438 
Q 628 3444 672 3444 
Q 816 3444 917 3347 
Q 1019 3250 1019 3097 
Q 1019 2950 917 2848 
Q 816 2747 672 2747 
Q 522 2747 420 2851 
Q 319 2956 319 3097 
Q 319 3338 409 3548 
Q 500 3759 670 3923 
Q 841 4088 1055 4175 
Q 1269 4263 1509 4263 
Q 1875 4263 2190 4108 
Q 2506 3953 2690 3670 
Q 2875 3388 2875 3009 
Q 2875 2731 2753 2481 
Q 2631 2231 2440 2026 
Q 2250 1822 1953 1562 
Q 1656 1303 1563 1216 
L 838 519 
L 1453 519 
Q 1906 519 2211 526 
Q 2516 534 2534 550 
Q 2609 631 2688 1141 
L 2875 1141 
L 2694 0 
L 319 0 
z
" transform="scale(0.015625)"/>
       </defs>
       <use xlink:href="#Cmr10-32" transform="translate(0 0.390625)"/>
      </g>
     </g>
    </g>
    <g id="xtick_3">
     <g id="line2d_4">
      <g>
       <use xlink:href="#mcbbfc341b9" x="427.607746" y="139.105354" style="stroke: #000000"/>
      </g>
     </g>
     <g id="text_3">
      <!-- $4$ -->
      <g transform="translate(420.607746 163.880979) scale(0.28 -0.28)">
       <defs>
        <path id="Cmr10-34" d="M 178 1056 
L 178 1281 
L 2156 4231 
Q 2178 4263 2222 4263 
L 2316 4263 
Q 2388 4263 2388 4191 
L 2388 1281 
L 3016 1281 
L 3016 1056 
L 2388 1056 
L 2388 428 
Q 2388 297 2575 261 
Q 2763 225 3009 225 
L 3009 0 
L 1247 0 
L 1247 225 
Q 1494 225 1681 261 
Q 1869 297 1869 428 
L 1869 1056 
L 178 1056 
z
M 391 1281 
L 1906 1281 
L 1906 3547 
L 391 1281 
z
" transform="scale(0.015625)"/>
       </defs>
       <use xlink:href="#Cmr10-34" transform="translate(0 0.390625)"/>
      </g>
     </g>
    </g>
    <g id="xtick_4">
     <g id="line2d_5">
      <g>
       <use xlink:href="#mcbbfc341b9" x="608.540425" y="139.105354" style="stroke: #000000"/>
      </g>
     </g>
     <g id="text_4">
      <!-- $6$ -->
      <g transform="translate(601.540425 163.880979) scale(0.28 -0.28)">
       <defs>
        <path id="Cmr10-36" d="M 1600 -141 
Q 1203 -141 937 70 
Q 672 281 526 617 
Q 381 953 325 1322 
Q 269 1691 269 2069 
Q 269 2575 466 3084 
Q 663 3594 1045 3928 
Q 1428 4263 1953 4263 
Q 2172 4263 2361 4180 
Q 2550 4097 2658 3936 
Q 2766 3775 2766 3547 
Q 2766 3416 2677 3327 
Q 2588 3238 2456 3238 
Q 2331 3238 2240 3328 
Q 2150 3419 2150 3547 
Q 2150 3672 2240 3762 
Q 2331 3853 2456 3853 
L 2491 3853 
Q 2409 3969 2261 4023 
Q 2113 4078 1953 4078 
Q 1759 4078 1595 3993 
Q 1431 3909 1300 3765 
Q 1169 3622 1081 3448 
Q 994 3275 945 3053 
Q 897 2831 884 2637 
Q 872 2444 872 2150 
Q 984 2413 1190 2580 
Q 1397 2747 1656 2747 
Q 1941 2747 2175 2631 
Q 2409 2516 2578 2311 
Q 2747 2106 2836 1843 
Q 2925 1581 2925 1313 
Q 2925 938 2758 598 
Q 2591 259 2287 59 
Q 1984 -141 1600 -141 
z
M 1600 63 
Q 1847 63 1997 175 
Q 2147 288 2217 473 
Q 2288 659 2305 848 
Q 2322 1038 2322 1313 
Q 2322 1675 2287 1931 
Q 2253 2188 2100 2383 
Q 1947 2578 1631 2578 
Q 1372 2578 1205 2403 
Q 1038 2228 961 1961 
Q 884 1694 884 1447 
Q 884 1363 891 1319 
Q 891 1309 889 1303 
Q 888 1297 884 1288 
Q 884 1013 940 731 
Q 997 450 1156 256 
Q 1316 63 1600 63 
z
" transform="scale(0.015625)"/>
       </defs>
       <use xlink:href="#Cmr10-36" transform="translate(0 0.390625)"/>
      </g>
     </g>
    </g>
    <g id="xtick_5">
     <g id="line2d_6">
      <g>
       <use xlink:href="#mcbbfc341b9" x="789.473103" y="139.105354" style="stroke: #000000"/>
      </g>
     </g>
     <g id="text_5">
      <!-- $8$ -->
      <g transform="translate(782.473103 163.880979) scale(0.28 -0.28)">
       <defs>
        <path id="Cmr10-38" d="M 269 972 
Q 269 1356 522 1651 
Q 775 1947 1172 2144 
L 934 2297 
Q 716 2441 578 2680 
Q 441 2919 441 3181 
Q 441 3488 602 3734 
Q 763 3981 1030 4122 
Q 1297 4263 1600 4263 
Q 1884 4263 2148 4147 
Q 2413 4031 2583 3815 
Q 2753 3600 2753 3303 
Q 2753 3088 2651 2903 
Q 2550 2719 2373 2572 
Q 2197 2425 1997 2322 
L 2363 2088 
Q 2616 1922 2770 1653 
Q 2925 1384 2925 1088 
Q 2925 741 2739 456 
Q 2553 172 2247 15 
Q 1941 -141 1600 -141 
Q 1269 -141 961 -6 
Q 653 128 461 383 
Q 269 638 269 972 
z
M 616 972 
Q 616 719 755 509 
Q 894 300 1122 181 
Q 1350 63 1600 63 
Q 1972 63 2275 280 
Q 2578 497 2578 856 
Q 2578 978 2529 1098 
Q 2481 1219 2395 1317 
Q 2309 1416 2203 1478 
L 1344 2034 
Q 1144 1928 976 1765 
Q 809 1603 712 1400 
Q 616 1197 616 972 
z
M 1056 2925 
L 1831 2425 
Q 2100 2581 2272 2803 
Q 2444 3025 2444 3303 
Q 2444 3519 2323 3698 
Q 2203 3878 2009 3978 
Q 1816 4078 1594 4078 
Q 1400 4078 1203 4003 
Q 1006 3928 878 3779 
Q 750 3631 750 3431 
Q 750 3131 1056 2925 
z
" transform="scale(0.015625)"/>
       </defs>
       <use xlink:href="#Cmr10-38" transform="translate(0 0.390625)"/>
      </g>
     </g>
    </g>
   </g>
   <g id="matplotlib.axis_2">
    <g id="ytick_1">
     <g id="line2d_7">
      <defs>
       <path id="m94fec63f0b" d="M 0 0 
L 5 0 
" style="stroke: #000000"/>
      </defs>
      <g>
       <use xlink:href="#m94fec63f0b" x="41.316477" y="131.256705" style="stroke: #000000"/>
      </g>
     </g>
     <g id="text_6">
      <!-- $-1$ -->
      <g transform="translate(1.976477 141.894518) scale(0.28 -0.28)">
       <defs>
        <path id="Cmsy10-a1" d="M 653 1472 
Q 600 1472 565 1512 
Q 531 1553 531 1600 
Q 531 1647 565 1687 
Q 600 1728 653 1728 
L 4325 1728 
Q 4375 1728 4408 1687 
Q 4441 1647 4441 1600 
Q 4441 1553 4408 1512 
Q 4375 1472 4325 1472 
L 653 1472 
z
" transform="scale(0.015625)"/>
        <path id="Cmr10-31" d="M 594 0 
L 594 225 
Q 1394 225 1394 428 
L 1394 3788 
Q 1063 3628 556 3628 
L 556 3853 
Q 1341 3853 1741 4263 
L 1831 4263 
Q 1853 4263 1873 4245 
Q 1894 4228 1894 4206 
L 1894 428 
Q 1894 225 2694 225 
L 2694 0 
L 594 0 
z
" transform="scale(0.015625)"/>
       </defs>
       <use xlink:href="#Cmsy10-a1" transform="translate(0 0.390625)"/>
       <use xlink:href="#Cmr10-31" transform="translate(77.685547 0.390625)"/>
      </g>
     </g>
    </g>
    <g id="ytick_2">
     <g id="line2d_8">
      <g>
       <use xlink:href="#m94fec63f0b" x="41.316477" y="92.01346" style="stroke: #000000"/>
      </g>
     </g>
     <g id="text_7">
      <!-- $0$ -->
      <g transform="translate(23.816477 102.651273) scale(0.28 -0.28)">
       <use xlink:href="#Cmr10-30" transform="translate(0 0.390625)"/>
      </g>
     </g>
    </g>
    <g id="ytick_3">
     <g id="line2d_9">
      <g>
       <use xlink:href="#m94fec63f0b" x="41.316477" y="52.770215" style="stroke: #000000"/>
      </g>
     </g>
     <g id="text_8">
      <!-- $1$ -->
      <g transform="translate(23.816477 63.408028) scale(0.28 -0.28)">
       <use xlink:href="#Cmr10-31" transform="translate(0 0.390625)"/>
      </g>
     </g>
    </g>
    <g id="ytick_4">
     <g id="line2d_10">
      <g>
       <use xlink:href="#m94fec63f0b" x="41.316477" y="13.52697" style="stroke: #000000"/>
      </g>
     </g>
     <g id="text_9">
      <!-- $2$ -->
      <g transform="translate(23.816477 24.164783) scale(0.28 -0.28)">
       <use xlink:href="#Cmr10-32" transform="translate(0 0.390625)"/>
      </g>
     </g>
    </g>
   </g>
   <g id="line2d_11">
    <path d="M 65.742388 54.71524 
L 66.466119 53.596529 
L 67.099383 53.002315 
L 67.642181 52.783352 
L 68.094513 52.806895 
L 68.637311 53.082191 
L 69.180109 53.625132 
L 69.813374 54.591754 
L 70.537104 56.124474 
L 71.351301 58.371706 
L 72.346431 61.820351 
L 73.522494 66.78704 
L 74.969955 73.99596 
L 76.869748 84.728262 
L 81.664464 112.387866 
L 83.111926 119.249183 
L 84.287988 123.860428 
L 85.283118 126.966201 
L 86.187781 129.091261 
L 86.911512 130.283522 
L 87.544776 130.943595 
L 88.087574 131.219636 
L 88.630372 131.226142 
L 89.17317 130.96307 
L 89.715968 130.432228 
L 90.349233 129.479451 
L 91.072963 127.962039 
L 91.88716 125.731149 
L 92.88229 122.30086 
L 94.058353 117.353028 
L 95.415348 110.641476 
L 97.224674 100.506297 
L 102.471722 70.389412 
L 103.919184 63.732218 
L 105.095246 59.32487 
L 106.090376 56.413085 
L 106.904573 54.639313 
L 107.628303 53.546954 
L 108.261568 52.976307 
L 108.804366 52.777747 
L 109.256698 52.818327 
L 109.799496 53.113989 
L 110.342294 53.677076 
L 110.975558 54.666742 
L 111.699289 56.224926 
L 112.513486 58.499324 
L 113.508616 61.978453 
L 114.684678 66.976415 
L 116.132139 74.215362 
L 118.031933 84.970691 
L 122.736182 112.134405 
L 124.183644 119.035386 
L 125.359706 123.686633 
L 126.354836 126.830683 
L 127.259499 128.993278 
L 127.98323 130.216949 
L 128.616494 130.905187 
L 129.159292 131.205664 
L 129.70209 131.236703 
L 130.244888 130.998091 
L 130.787686 130.491469 
L 131.420951 129.566421 
L 132.144681 128.079689 
L 132.958879 125.881578 
L 133.954008 122.488146 
L 135.130071 117.578241 
L 136.487066 110.901371 
L 138.296393 100.794928 
L 143.633907 70.184078 
L 145.081368 63.561833 
L 146.25743 59.189084 
L 147.25256 56.310041 
L 148.066757 54.564861 
L 148.790488 53.498899 
L 149.423752 52.951841 
L 149.96655 52.773691 
L 150.418882 52.831306 
L 150.96168 53.147322 
L 151.504478 53.730534 
L 152.137742 54.743205 
L 152.861473 56.326792 
L 153.766137 58.916569 
L 154.761266 62.492317 
L 155.937329 67.589021 
L 157.38479 74.922129 
L 159.37505 86.284367 
L 163.717434 111.410103 
L 165.255362 118.820053 
L 166.431424 123.511038 
L 167.426554 126.693186 
L 168.331217 128.893193 
L 169.054948 130.148205 
L 169.688212 130.864567 
L 170.23101 131.189464 
L 170.773808 131.245034 
L 171.316606 131.030896 
L 171.859404 130.548521 
L 172.492669 129.651256 
L 173.2164 128.195289 
L 174.030597 126.030082 
L 175.025726 122.6737 
L 176.201789 117.802001 
L 177.558784 111.160193 
L 179.368111 101.083059 
L 184.796091 69.979606 
L 186.153086 63.76643 
L 187.329148 59.352182 
L 188.324278 56.433863 
L 189.138475 54.65438 
L 189.862206 53.556748 
L 190.49547 52.981386 
L 191.038268 52.778744 
L 191.4906 52.815917 
L 192.033398 53.107507 
L 192.576196 53.666566 
L 193.209461 54.651626 
L 193.933191 56.204723 
L 194.747388 58.473694 
L 195.742518 61.946737 
L 196.91858 66.938461 
L 198.366042 74.171425 
L 200.265835 84.922183 
L 204.970085 112.09205 
L 206.417546 118.999603 
L 207.593608 123.657492 
L 208.588738 126.807904 
L 209.493402 128.976743 
L 210.217132 130.205643 
L 210.850397 130.89857 
L 211.393195 131.203118 
L 211.935993 131.238246 
L 212.478791 131.003712 
L 213.021589 130.501129 
L 213.654853 129.580709 
L 214.378584 128.099098 
L 215.192781 125.906463 
L 216.187911 122.519192 
L 217.363973 117.615636 
L 218.720968 110.944583 
L 220.530295 100.842985 
L 225.867809 70.225076 
L 227.31527 63.59582 
L 228.491333 59.216138 
L 229.486463 56.330537 
L 230.30066 54.579633 
L 231.02439 53.508388 
L 231.657655 52.956611 
L 232.200453 52.774378 
L 232.652784 52.828587 
L 233.195583 53.140533 
L 233.738381 53.719722 
L 234.371645 54.727794 
L 235.095376 56.306306 
L 236.000039 58.890098 
L 236.995169 62.459849 
L 238.171231 67.550441 
L 239.618693 74.877751 
L 241.608952 86.235586 
L 245.951336 111.367218 
L 247.489264 118.784016 
L 248.665327 123.481598 
L 249.660456 126.670077 
L 250.56512 128.876308 
L 251.28885 130.136536 
L 251.922115 130.857582 
L 252.464913 131.186547 
L 253.007711 131.246205 
L 253.550509 131.036148 
L 254.093307 130.557817 
L 254.726571 129.665188 
L 255.450302 128.214356 
L 256.264499 126.054645 
L 257.259629 122.704457 
L 258.435691 117.839152 
L 259.792686 111.203225 
L 261.602013 101.131032 
L 267.029993 70.020431 
L 268.386989 63.800685 
L 269.563051 59.379546 
L 270.558181 56.454697 
L 271.372378 54.669507 
L 272.096108 53.566602 
L 272.729373 52.986525 
L 273.272171 52.779803 
L 273.724503 52.813568 
L 274.267301 53.101086 
L 274.810099 53.656117 
L 275.443363 54.636569 
L 276.167094 56.184575 
L 276.981291 58.448118 
L 277.976421 61.915069 
L 279.152483 66.900546 
L 280.599944 74.127517 
L 282.499737 84.873685 
L 287.203987 112.049663 
L 288.651449 118.963778 
L 289.827511 123.628301 
L 290.822641 126.78507 
L 291.727304 128.96015 
L 292.451035 130.194276 
L 293.084299 130.891892 
L 293.627097 131.200511 
L 294.169895 131.239728 
L 294.712693 131.009272 
L 295.255491 130.510729 
L 295.888756 129.594937 
L 296.612486 128.11845 
L 297.426683 125.931294 
L 298.421813 122.550191 
L 299.597876 117.65299 
L 300.954871 110.987765 
L 302.764198 100.891028 
L 308.101712 70.266108 
L 309.549173 63.629853 
L 310.725235 59.243243 
L 311.720365 56.351089 
L 312.534562 54.594465 
L 313.258293 53.517939 
L 313.891557 52.961443 
L 314.434355 52.775128 
L 314.886687 52.825929 
L 315.429485 53.133805 
L 315.972283 53.70897 
L 316.605547 54.712443 
L 317.329278 56.285876 
L 318.233942 58.863678 
L 319.229071 62.427427 
L 320.405134 67.5119 
L 321.852595 74.8334 
L 323.842855 86.186813 
L 328.185239 111.324303 
L 329.723167 118.747936 
L 330.899229 123.452108 
L 331.894359 126.646915 
L 332.799022 128.859365 
L 333.522753 130.124808 
L 334.156017 130.850536 
L 334.698815 131.183569 
L 335.241613 131.247315 
L 335.784411 131.041338 
L 336.327209 130.567052 
L 336.960474 129.67906 
L 337.684205 128.233365 
L 338.498402 126.079154 
L 339.493531 122.735165 
L 340.579127 118.281767 
L 341.936122 111.71722 
L 343.654983 102.230267 
L 349.535295 68.731605 
L 350.89229 62.726888 
L 351.977886 58.815796 
L 352.973016 56.029028 
L 353.787213 54.364271 
L 354.510944 53.372438 
L 355.144208 52.891542 
L 355.687006 52.770575 
L 356.139338 52.875876 
L 356.682136 53.248814 
L 357.3154 54.02045 
L 358.039131 55.336979 
L 358.853328 57.352622 
L 359.757991 60.218947 
L 360.843587 64.453542 
L 362.110116 70.340773 
L 363.73851 79.064615 
L 366.4525 95.087964 
L 369.076024 110.110537 
L 370.613952 117.720777 
L 371.880481 122.943222 
L 372.966077 126.50679 
L 373.87074 128.756486 
L 374.594471 130.053173 
L 375.227735 130.806972 
L 375.770533 131.164399 
L 376.313331 131.252672 
L 376.765663 131.120136 
L 377.308461 130.714722 
L 377.941726 129.905763 
L 378.665456 128.547755 
L 379.479653 126.487547 
L 380.384317 123.575119 
L 381.469913 119.291136 
L 382.736442 113.356163 
L 384.364836 104.589236 
L 387.259758 87.466603 
L 389.70235 73.567241 
L 391.240277 66.009366 
L 392.506806 60.84245 
L 393.592402 57.333735 
L 394.497066 55.133727 
L 395.220796 53.878716 
L 395.854061 53.162354 
L 396.396859 52.837457 
L 396.939657 52.781887 
L 397.482455 52.996025 
L 398.025253 53.478399 
L 398.658517 54.375664 
L 399.382248 55.831632 
L 400.196445 57.996839 
L 401.191575 61.35322 
L 402.367637 66.22492 
L 403.724632 72.866727 
L 405.533959 82.943861 
L 410.961939 114.047314 
L 412.318934 120.260491 
L 413.494997 124.674738 
L 414.490127 127.593058 
L 415.304324 129.37254 
L 416.028054 130.470173 
L 416.661319 131.045535 
L 417.204117 131.248176 
L 417.656449 131.211004 
L 418.199247 130.919414 
L 418.742045 130.360354 
L 419.375309 129.375294 
L 420.09904 127.822198 
L 420.913237 125.553226 
L 421.908366 122.080183 
L 423.084429 117.08846 
L 424.53189 109.855495 
L 426.431683 99.104738 
L 431.135933 71.934871 
L 432.583395 65.027317 
L 433.759457 60.369428 
L 434.754587 57.219017 
L 435.65925 55.050178 
L 436.382981 53.821278 
L 437.016245 53.12835 
L 437.559043 52.823802 
L 438.101841 52.788674 
L 438.644639 53.023208 
L 439.187437 53.525791 
L 439.820702 54.446212 
L 440.544432 55.927822 
L 441.358629 58.120458 
L 442.353759 61.507728 
L 443.529822 66.411285 
L 444.886817 73.082337 
L 446.696143 83.183936 
L 452.033657 113.801845 
L 453.481119 120.4311 
L 454.657181 124.810783 
L 455.652311 127.696384 
L 456.466508 129.447287 
L 457.190239 130.518532 
L 457.823503 131.07031 
L 458.366301 131.252542 
L 458.818633 131.198334 
L 459.361431 130.886388 
L 459.904229 130.307199 
L 460.537493 129.299126 
L 461.261224 127.720615 
L 462.165887 125.136823 
L 463.161017 121.567072 
L 464.33708 116.476479 
L 465.784541 109.14917 
L 467.774801 97.791335 
L 472.117185 72.659703 
L 473.655113 65.242905 
L 474.831175 60.545323 
L 475.826305 57.356843 
L 476.730968 55.150612 
L 477.454699 53.890384 
L 478.087963 53.169338 
L 478.630761 52.840374 
L 479.173559 52.780715 
L 479.716357 52.990773 
L 480.259155 53.469103 
L 480.89242 54.361733 
L 481.61615 55.812565 
L 482.430348 57.972276 
L 483.425477 61.322464 
L 484.60154 66.187769 
L 485.958535 72.823696 
L 487.767862 82.895889 
L 493.195842 114.006489 
L 494.552837 120.226235 
L 495.728899 124.647375 
L 496.724029 127.572224 
L 497.538226 129.357414 
L 498.261957 130.460319 
L 498.895221 131.040395 
L 499.438019 131.247117 
L 499.890351 131.213352 
L 500.433149 130.925835 
L 500.975947 130.370804 
L 501.609211 129.390351 
L 502.332942 127.842345 
L 503.147139 125.578803 
L 504.142269 122.111851 
L 505.318331 117.126374 
L 506.765793 109.899404 
L 508.665586 99.153235 
L 513.369836 71.977257 
L 514.817297 65.063142 
L 515.993359 60.398619 
L 516.988489 57.241851 
L 517.893153 55.066771 
L 518.616883 53.832645 
L 519.250148 53.135028 
L 519.792946 52.826409 
L 520.335744 52.787193 
L 520.878542 53.017648 
L 521.42134 53.516191 
L 522.054604 54.431983 
L 522.778335 55.90847 
L 523.592532 58.095627 
L 524.587662 61.47673 
L 525.763724 66.373931 
L 527.120719 73.039155 
L 528.930046 83.135893 
L 534.26756 113.760812 
L 535.715021 120.397068 
L 536.891084 124.783677 
L 537.886214 127.675831 
L 538.700411 129.432456 
L 539.424141 130.508982 
L 540.057406 131.065478 
L 540.600204 131.251793 
L 541.052535 131.200992 
L 541.595333 130.893116 
L 542.138131 130.317951 
L 542.771396 129.314478 
L 543.495127 127.741044 
L 544.39979 125.163242 
L 545.39492 121.599493 
L 546.570982 116.51502 
L 548.018444 109.193521 
L 550.008703 97.840107 
L 554.351087 72.702618 
L 555.889015 65.278985 
L 557.065077 60.574813 
L 558.060207 57.380006 
L 558.964871 55.167555 
L 559.688601 53.902113 
L 560.321866 53.176384 
L 560.864664 52.843352 
L 561.407462 52.779605 
L 561.95026 52.985583 
L 562.493058 53.459868 
L 563.126322 54.347861 
L 563.850053 55.793555 
L 564.66425 57.947767 
L 565.65938 61.291756 
L 566.744976 65.745153 
L 568.101971 72.309701 
L 569.820831 81.796654 
L 575.701143 115.295315 
L 577.058138 121.300033 
L 578.143735 125.211125 
L 579.138864 127.997893 
L 579.953061 129.66265 
L 580.676792 130.654483 
L 581.310056 131.135378 
L 581.852854 131.256345 
L 582.305186 131.151044 
L 582.847984 130.778106 
L 583.481249 130.00647 
L 584.204979 128.689942 
L 585.019176 126.674299 
L 585.92384 123.807974 
L 587.009436 119.573379 
L 588.275965 113.686148 
L 589.904359 104.962305 
L 592.618349 88.938957 
L 595.241873 73.916383 
L 596.7798 66.306144 
L 598.046329 61.083699 
L 599.131925 57.52013 
L 600.036589 55.270434 
L 600.760319 53.973747 
L 601.393584 53.219948 
L 601.936382 52.862521 
L 602.47918 52.774248 
L 602.931512 52.906785 
L 603.47431 53.312198 
L 604.107574 54.121157 
L 604.831305 55.479166 
L 605.645502 57.539374 
L 606.550165 60.451802 
L 607.635761 64.735784 
L 608.90229 70.670758 
L 610.530684 79.437684 
L 613.425607 96.560318 
L 615.868198 110.45968 
L 617.406126 118.017555 
L 618.672655 123.18447 
L 619.758251 126.693186 
L 620.662914 128.893193 
L 621.386645 130.148205 
L 622.019909 130.864567 
L 622.562707 131.189464 
L 623.105505 131.245034 
L 623.648303 131.030896 
L 624.191101 130.548521 
L 624.824366 129.651256 
L 625.548096 128.195289 
L 626.362293 126.030082 
L 627.357423 122.6737 
L 628.533486 117.802001 
L 629.890481 111.160193 
L 631.699807 101.083059 
L 637.127788 69.979606 
L 638.484783 63.76643 
L 639.660845 59.352182 
L 640.655975 56.433863 
L 641.470172 54.65438 
L 642.193903 53.556748 
L 642.827167 52.981386 
L 643.369965 52.778744 
L 643.822297 52.815917 
L 644.365095 53.107507 
L 644.907893 53.666566 
L 645.541157 54.651626 
L 646.264888 56.204723 
L 647.079085 58.473694 
L 648.074215 61.946737 
L 649.250277 66.938461 
L 650.697739 74.171425 
L 652.597532 84.922183 
L 657.301782 112.09205 
L 658.749243 118.999603 
L 659.925305 123.657492 
L 660.920435 126.807904 
L 661.825098 128.976743 
L 662.548829 130.205643 
L 663.182094 130.89857 
L 663.724892 131.203118 
L 664.26769 131.238246 
L 664.810488 131.003712 
L 665.353286 130.501129 
L 665.98655 129.580709 
L 666.710281 128.099098 
L 667.524478 125.906463 
L 668.519608 122.519192 
L 669.69567 117.615636 
L 671.052665 110.944583 
L 672.861992 100.842985 
L 678.199506 70.225076 
L 679.646967 63.59582 
L 680.82303 59.216138 
L 681.818159 56.330537 
L 682.632357 54.579633 
L 683.356087 53.508388 
L 683.989352 52.956611 
L 684.53215 52.774378 
L 684.984481 52.828587 
L 685.527279 53.140533 
L 686.070077 53.719722 
L 686.703342 54.727794 
L 687.427073 56.306306 
L 688.331736 58.890098 
L 689.326866 62.459849 
L 690.502928 67.550441 
L 691.950389 74.877751 
L 693.940649 86.235586 
L 698.283033 111.367218 
L 699.820961 118.784016 
L 700.997023 123.481598 
L 701.992153 126.670077 
L 702.896817 128.876308 
L 703.620547 130.136536 
L 704.253812 130.857582 
L 704.79661 131.186547 
L 705.339408 131.246205 
L 705.882206 131.036148 
L 706.425004 130.557817 
L 707.058268 129.665188 
L 707.781999 128.214356 
L 708.596196 126.054645 
L 709.591326 122.704457 
L 710.767388 117.839152 
L 712.124383 111.203225 
L 713.93371 101.131032 
L 719.36169 70.020431 
L 720.718685 63.800685 
L 721.894748 59.379546 
L 722.889878 56.454697 
L 723.704075 54.669507 
L 724.427805 53.566602 
L 725.06107 52.986525 
L 725.603868 52.779803 
L 726.056199 52.813568 
L 726.598997 53.101086 
L 727.141796 53.656117 
L 727.77506 54.636569 
L 728.498791 56.184575 
L 729.312988 58.448118 
L 730.308117 61.915069 
L 731.48418 66.900546 
L 732.931641 74.127517 
L 734.831434 84.873685 
L 739.535684 112.049663 
L 740.983145 118.963778 
L 742.159208 123.628301 
L 743.154338 126.78507 
L 744.059001 128.96015 
L 744.782732 130.194276 
L 745.415996 130.891892 
L 745.958794 131.200511 
L 746.501592 131.239728 
L 747.04439 131.009272 
L 747.587188 130.510729 
L 748.220453 129.594937 
L 748.944183 128.11845 
L 749.75838 125.931294 
L 750.75351 122.550191 
L 751.929572 117.65299 
L 753.286568 110.987765 
L 755.095894 100.891028 
L 760.433408 70.266108 
L 761.88087 63.629853 
L 763.056932 59.243243 
L 764.052062 56.351089 
L 764.866259 54.594465 
L 765.58999 53.517939 
L 766.223254 52.961443 
L 766.766052 52.775128 
L 767.218384 52.825929 
L 767.761182 53.133805 
L 768.30398 53.70897 
L 768.937244 54.712443 
L 769.660975 56.285876 
L 770.565638 58.863678 
L 771.560768 62.427427 
L 772.736831 67.5119 
L 774.184292 74.8334 
L 776.174551 86.186813 
L 780.516936 111.324303 
L 782.054864 118.747936 
L 783.230926 123.452108 
L 784.226056 126.646915 
L 785.130719 128.859365 
L 785.85445 130.124808 
L 786.487714 130.850536 
L 787.030512 131.183569 
L 787.57331 131.247315 
L 788.116108 131.041338 
L 788.658906 130.567052 
L 789.292171 129.67906 
L 790.015901 128.233365 
L 790.830098 126.079154 
L 791.825228 122.735165 
L 792.910824 118.281767 
L 794.267819 111.71722 
L 795.98668 102.230267 
L 801.866992 68.731605 
L 803.223987 62.726888 
L 804.309583 58.815796 
L 805.304713 56.029028 
L 806.11891 54.364271 
L 806.84264 53.372438 
L 807.475905 52.891542 
L 808.018703 52.770575 
L 808.471035 52.875876 
L 809.013833 53.248814 
L 809.647097 54.02045 
L 810.370828 55.336979 
L 811.185025 57.352622 
L 812.089688 60.218947 
L 813.175284 64.453542 
L 814.441813 70.340773 
L 816.070207 79.064615 
L 818.784197 95.087964 
L 821.407721 110.110537 
L 822.945649 117.720777 
L 824.212178 122.943222 
L 825.297774 126.50679 
L 826.202437 128.756486 
L 826.926168 130.053173 
L 827.559432 130.806972 
L 828.10223 131.164399 
L 828.645028 131.252672 
L 829.09736 131.120136 
L 829.640158 130.714722 
L 830.273422 129.905763 
L 830.997153 128.547755 
L 831.81135 126.487547 
L 832.716014 123.575119 
L 833.80161 119.291136 
L 835.068138 113.356163 
L 836.696532 104.589236 
L 839.591455 87.466603 
L 842.034047 73.567241 
L 843.571974 66.009366 
L 844.838503 60.84245 
L 845.924099 57.333735 
L 846.828762 55.133727 
L 847.552493 53.878716 
L 848.185758 53.162354 
L 848.728556 52.837457 
L 849.271354 52.781887 
L 849.814152 52.996025 
L 850.35695 53.478399 
L 850.990214 54.375664 
L 851.713945 55.831632 
L 852.528142 57.996839 
L 853.523272 61.35322 
L 854.699334 66.22492 
L 856.056329 72.866727 
L 857.865656 82.943861 
L 863.293636 114.047314 
L 864.650631 120.260491 
L 865.826694 124.674738 
L 866.821823 127.593058 
L 867.636021 129.37254 
L 868.359751 130.470173 
L 868.993016 131.045535 
L 869.535814 131.248176 
L 869.988145 131.211004 
L 870.530943 130.919414 
L 871.073741 130.360354 
L 871.707006 129.375294 
L 872.430737 127.822198 
L 873.244934 125.553226 
L 874.240063 122.080183 
L 875.416126 117.08846 
L 876.863587 109.855495 
L 878.76338 99.104738 
L 879.939443 92.091932 
L 879.939443 92.091932 
" clip-path="url(#p0f27e71d3f)" style="fill: none; stroke: #ffa231; stroke-width: 4"/>
   </g>
   <g id="patch_3">
    <path d="M 41.316477 139.105354 
L 41.316477 9.602646 
" style="fill: none; stroke: #000000; stroke-width: 2; stroke-linejoin: miter; stroke-linecap: square"/>
   </g>
   <g id="patch_4">
    <path d="M 41.316477 139.105354 
L 904.365354 139.105354 
" style="fill: none; stroke: #000000; stroke-width: 2; stroke-linejoin: miter; stroke-linecap: square"/>
   </g>
   <g id="line2d_12">
    <path d="M 65.742388 26.026318 
L 71.713167 30.251011 
L 77.683945 34.205331 
L 83.74519 37.960758 
L 90.1683 41.674333 
L 96.772343 45.226762 
L 103.376386 48.528392 
L 110.161361 51.67806 
L 117.217735 54.712039 
L 124.635975 57.655691 
L 132.235148 60.430547 
L 140.286652 63.126456 
L 146.619296 65.084139 
L 146.709762 25.890167 
L 146.800228 25.95642 
L 152.590074 30.061575 
L 158.651319 34.086152 
L 164.712564 37.849263 
L 171.22614 41.621011 
L 177.64925 45.083224 
L 184.253293 48.395015 
L 191.128735 51.594883 
L 198.094643 54.597616 
L 205.422416 57.515805 
L 213.202522 60.365382 
L 221.073093 63.008753 
L 227.586669 65.028581 
L 227.677136 25.843572 
L 227.767602 25.909896 
L 233.557448 30.01792 
L 239.528226 33.987147 
L 245.589471 37.756759 
L 252.012581 41.484373 
L 258.616624 45.050175 
L 265.220667 48.364279 
L 272.096108 51.566416 
L 279.062017 54.57126 
L 286.480256 57.526025 
L 294.079429 60.311365 
L 302.130933 63.017434 
L 308.734976 65.06365 
L 308.825442 25.857075 
L 308.915909 25.923321 
L 314.705754 30.030571 
L 320.766999 34.057113 
L 326.828244 37.822148 
L 333.251354 41.545224 
L 339.76493 45.059698 
L 346.368973 48.373186 
L 353.334881 51.615185 
L 360.300789 54.616385 
L 367.809496 57.602134 
L 375.318202 60.349543 
L 383.27924 63.023324 
L 390.335614 65.203836 
L 390.42608 25.995758 
L 390.516547 26.061861 
L 396.306392 30.160505 
L 402.367637 34.1786 
L 408.428882 37.935747 
L 414.851992 41.65102 
L 421.456035 45.205126 
L 428.150544 48.551902 
L 434.935519 51.699867 
L 441.901427 54.694778 
L 449.410134 57.674267 
L 456.91884 60.41592 
L 464.879878 63.084093 
L 472.388584 65.393801 
L 472.47905 26.184562 
L 472.569517 26.250472 
L 478.359362 30.337399 
L 484.420607 34.343998 
L 490.481852 38.090402 
L 496.995428 41.845332 
L 503.418538 45.29212 
L 510.022581 48.589214 
L 516.988489 51.815157 
L 523.954397 54.801505 
L 531.463103 57.772471 
L 538.97181 60.506286 
L 546.932847 63.166826 
L 554.893885 65.602627 
L 554.984352 26.420351 
L 555.074818 26.486105 
L 560.864664 30.558312 
L 566.835442 34.492949 
L 572.896687 38.229698 
L 579.319797 41.92481 
L 585.92384 45.459543 
L 592.527883 48.744753 
L 599.403324 51.918983 
L 606.459699 54.934788 
L 613.968405 57.895172 
L 621.567577 60.650611 
L 629.347683 63.241332 
L 637.489653 65.723687 
L 637.58012 65.750023 
L 637.670586 26.565383 
L 637.761052 26.630986 
L 643.550898 30.694195 
L 649.521676 34.620127 
L 655.582921 38.348617 
L 662.006031 42.035565 
L 668.70054 45.609055 
L 675.485516 48.970174 
L 682.451424 52.167721 
L 689.598265 55.201759 
L 697.106971 58.140822 
L 704.706143 60.876422 
L 712.576715 63.477135 
L 720.35682 65.83432 
L 720.447286 26.649692 
L 720.537753 26.715211 
L 726.327598 30.773185 
L 732.298377 34.69406 
L 738.359622 38.417746 
L 744.782732 42.099945 
L 751.477241 45.668832 
L 758.262216 49.025621 
L 765.228124 52.21905 
L 772.374965 55.249179 
L 779.883671 58.184456 
L 787.482844 60.916532 
L 795.353415 63.513895 
L 803.043054 65.841858 
L 803.133521 26.640781 
L 803.223987 26.706263 
L 809.013833 30.764837 
L 815.075077 34.743705 
L 821.136322 38.46412 
L 827.649899 42.193038 
L 834.073009 45.615945 
L 840.677051 48.89016 
L 847.64296 52.093772 
L 854.699334 55.096368 
L 862.117574 58.009795 
L 869.62628 60.724642 
L 877.587318 63.36676 
L 879.939443 64.103731 
L 879.939443 64.103731 
" clip-path="url(#p0f27e71d3f)" style="fill: none; stroke: #4eba88; stroke-width: 4"/>
   </g>
   <g id="line2d_13">
    <path d="M 65.742388 173.8 
L 65.742388 -1 
" clip-path="url(#p0f27e71d3f)" style="fill: none; stroke-dasharray: 7.4,3.2; stroke-dashoffset: 0; stroke: #000000; stroke-width: 2"/>
   </g>
   <g id="line2d_14">
    <path d="M 146.709762 173.8 
L 146.709762 -1 
" clip-path="url(#p0f27e71d3f)" style="fill: none; stroke-dasharray: 7.4,3.2; stroke-dashoffset: 0; stroke: #000000; stroke-width: 2"/>
   </g>
   <g id="line2d_15">
    <path d="M 227.677136 173.8 
L 227.677136 -1 
" clip-path="url(#p0f27e71d3f)" style="fill: none; stroke-dasharray: 7.4,3.2; stroke-dashoffset: 0; stroke: #000000; stroke-width: 2"/>
   </g>
   <g id="line2d_16">
    <path d="M 308.825442 173.8 
L 308.825442 -1 
" clip-path="url(#p0f27e71d3f)" style="fill: none; stroke-dasharray: 7.4,3.2; stroke-dashoffset: 0; stroke: #000000; stroke-width: 2"/>
   </g>
   <g id="line2d_17">
    <path d="M 390.42608 173.8 
L 390.42608 -1 
" clip-path="url(#p0f27e71d3f)" style="fill: none; stroke-dasharray: 7.4,3.2; stroke-dashoffset: 0; stroke: #000000; stroke-width: 2"/>
   </g>
   <g id="line2d_18">
    <path d="M 472.47905 173.8 
L 472.47905 -1 
" clip-path="url(#p0f27e71d3f)" style="fill: none; stroke-dasharray: 7.4,3.2; stroke-dashoffset: 0; stroke: #000000; stroke-width: 2"/>
   </g>
   <g id="line2d_19">
    <path d="M 554.984352 173.8 
L 554.984352 -1 
" clip-path="url(#p0f27e71d3f)" style="fill: none; stroke-dasharray: 7.4,3.2; stroke-dashoffset: 0; stroke: #000000; stroke-width: 2"/>
   </g>
   <g id="line2d_20">
    <path d="M 637.670586 173.8 
L 637.670586 -1 
" clip-path="url(#p0f27e71d3f)" style="fill: none; stroke-dasharray: 7.4,3.2; stroke-dashoffset: 0; stroke: #000000; stroke-width: 2"/>
   </g>
   <g id="line2d_21">
    <path d="M 720.447286 173.8 
L 720.447286 -1 
" clip-path="url(#p0f27e71d3f)" style="fill: none; stroke-dasharray: 7.4,3.2; stroke-dashoffset: 0; stroke: #000000; stroke-width: 2"/>
   </g>
   <g id="line2d_22">
    <path d="M 803.133521 173.8 
L 803.133521 -1 
" clip-path="url(#p0f27e71d3f)" style="fill: none; stroke-dasharray: 7.4,3.2; stroke-dashoffset: 0; stroke: #000000; stroke-width: 2"/>
   </g>
   <g id="PathCollection_1">
    <defs>
     <path id="m669363a9cc" d="M 0 5 
C 1.326016 5 2.597899 4.473168 3.535534 3.535534 
C 4.473168 2.597899 5 1.326016 5 0 
C 5 -1.326016 4.473168 -2.597899 3.535534 -3.535534 
C 2.597899 -4.473168 1.326016 -5 0 -5 
C -1.326016 -5 -2.597899 -4.473168 -3.535534 -3.535534 
C -4.473168 -2.597899 -5 -1.326016 -5 0 
C -5 1.326016 -4.473168 2.597899 -3.535534 3.535534 
C -2.597899 4.473168 -1.326016 5 0 5 
z
"/>
    </defs>
    <g clip-path="url(#p0f27e71d3f)">
     <use xlink:href="#m669363a9cc" x="146.709762" y="25.890167"/>
     <use xlink:href="#m669363a9cc" x="227.677136" y="25.843572"/>
     <use xlink:href="#m669363a9cc" x="308.825442" y="25.857075"/>
     <use xlink:href="#m669363a9cc" x="390.42608" y="25.995758"/>
     <use xlink:href="#m669363a9cc" x="472.47905" y="26.184562"/>
     <use xlink:href="#m669363a9cc" x="554.984352" y="26.420351"/>
     <use xlink:href="#m669363a9cc" x="637.670586" y="26.565383"/>
     <use xlink:href="#m669363a9cc" x="720.447286" y="26.649692"/>
    </g>
   </g>
   <g id="PathCollection_2">
    <defs>
     <path id="m321be4a108" d="M -5 5 
L 5 5 
L 5 -5 
L -5 -5 
z
"/>
    </defs>
    <g clip-path="url(#p0f27e71d3f)">
     <use xlink:href="#m321be4a108" x="65.742388" y="26.026318" style="fill: #ff0000"/>
    </g>
   </g>
   <g id="PathCollection_3">
    <defs>
     <path id="maac964fa22" d="M -5 5 
L 5 5 
L 5 -5 
L -5 -5 
z
"/>
    </defs>
    <g clip-path="url(#p0f27e71d3f)">
     <use xlink:href="#maac964fa22" x="803.133521" y="26.640781"/>
    </g>
   </g>
   <g id="PathCollection_4">
    <g clip-path="url(#p0f27e71d3f)">
     <use xlink:href="#m669363a9cc" x="146.709762" y="57.782112"/>
     <use xlink:href="#m669363a9cc" x="227.677136" y="62.143577"/>
     <use xlink:href="#m669363a9cc" x="308.825442" y="66.793935"/>
     <use xlink:href="#m669363a9cc" x="390.42608" y="69.85734"/>
     <use xlink:href="#m669363a9cc" x="472.47905" y="70.802632"/>
     <use xlink:href="#m669363a9cc" x="554.984352" y="69.492438"/>
     <use xlink:href="#m669363a9cc" x="637.670586" y="67.365126"/>
     <use xlink:href="#m669363a9cc" x="720.447286" y="64.955795"/>
    </g>
   </g>
   <g id="PathCollection_5">
    <g clip-path="url(#p0f27e71d3f)">
     <use xlink:href="#m321be4a108" x="65.742388" y="54.71524" style="fill: #ff0000"/>
    </g>
   </g>
   <g id="PathCollection_6">
    <g clip-path="url(#p0f27e71d3f)">
     <use xlink:href="#maac964fa22" x="803.133521" y="63.090751"/>
    </g>
   </g>
  </g>
 </g>
 <defs>
  <clipPath id="p0f27e71d3f">
   <rect x="41.316477" y="9.602646" width="863.048878" height="129.502709"/>
  </clipPath>
 </defs>
</svg>
