<?xml version="1.0" encoding="utf-8" standalone="no"?>
<!DOCTYPE svg PUBLIC "-//W3C//DTD SVG 1.1//EN"
  "http://www.w3.org/Graphics/SVG/1.1/DTD/svg11.dtd">
<svg xmlns:xlink="http://www.w3.org/1999/xlink" width="979.2pt" height="273.6pt" viewBox="0 0 979.2 273.6" xmlns="http://www.w3.org/2000/svg" version="1.1">
 <metadata>
  <rdf:RDF xmlns:dc="http://purl.org/dc/elements/1.1/" xmlns:cc="http://creativecommons.org/ns#" xmlns:rdf="http://www.w3.org/1999/02/22-rdf-syntax-ns#">
   <cc:Work>
    <dc:type rdf:resource="http://purl.org/dc/dcmitype/StillImage"/>
    <dc:date>2024-06-27T17:35:18.606742</dc:date>
    <dc:format>image/svg+xml</dc:format>
    <dc:creator>
     <cc:Agent>
      <dc:title>Matplotlib v3.8.4, https://matplotlib.org/</dc:title>
     </cc:Agent>
    </dc:creator>
   </cc:Work>
  </rdf:RDF>
 </metadata>
 <defs>
  <style type="text/css">*{stroke-linejoin: round; stroke-linecap: butt}</style>
 </defs>
 <g id="figure_1">
  <g id="patch_1">
   <path d="M 0 273.6 
L 979.2 273.6 
L 979.2 0 
L 0 0 
L 0 273.6 
z
" style="fill: none"/>
  </g>
  <g id="axes_1">
   <g id="patch_2">
    <path d="M 56.418899 239.905354 
L 976.365354 239.905354 
L 976.365354 7.672231 
L 56.418899 7.672231 
L 56.418899 239.905354 
z
" style="fill: none"/>
   </g>
   <g id="line2d_1">
    <path d="M 82.455119 14.244866 
L 100.166834 14.244866 
L 117.878548 21.933322 
L 135.590263 21.933322 
L 153.301977 21.933322 
L 171.013692 21.933322 
L 188.725407 21.933322 
L 206.437121 21.933322 
L 224.148836 29.621779 
L 241.86055 21.933322 
L 259.572265 29.621779 
L 277.28398 29.621779 
L 294.995694 29.621779 
L 312.707409 37.310235 
L 330.419123 37.310235 
L 348.130838 44.998691 
L 365.842552 52.687147 
L 383.554267 68.06406 
L 401.265982 75.752516 
L 418.977696 106.506341 
L 436.689411 137.260166 
L 454.401125 183.390904 
L 472.11284 206.456272 
L 489.824555 201.330635 
L 507.536269 168.013991 
L 525.247984 137.260166 
L 542.959698 98.817885 
L 560.671413 83.440972 
L 578.383128 60.375604 
L 596.094842 52.687147 
L 613.806557 44.998691 
L 631.518271 37.310235 
L 649.229986 37.310235 
L 666.9417 29.621779 
L 684.653415 29.621779 
L 702.36513 29.621779 
L 720.076844 29.621779 
L 737.788559 21.933322 
L 755.500273 21.933322 
L 773.211988 21.933322 
L 790.923703 21.933322 
L 808.635417 21.933322 
L 826.347132 21.933322 
L 844.058846 21.933322 
L 861.770561 14.244866 
L 879.482276 21.933322 
L 897.19399 21.933322 
L 914.905705 14.244866 
L 932.617419 21.933322 
L 950.329134 14.244866 
" clip-path="url(#p19a168a1f9)" style="fill: none; stroke: #0173b2; stroke-width: 4"/>
   </g>
   <g id="matplotlib.axis_1">
    <g id="xtick_1">
     <g id="line2d_2">
      <defs>
       <path id="mf373cc1f53" d="M 0 0 
L 0 -5 
" style="stroke: #000000"/>
      </defs>
      <g>
       <use xlink:href="#mf373cc1f53" x="266.878347" y="239.905354" style="stroke: #000000"/>
      </g>
     </g>
     <g id="text_1">
      <!-- $0.9$ -->
      <g transform="translate(248.958347 264.680979) scale(0.28 -0.28)">
       <defs>
        <path id="Cmr10-30" d="M 1600 -141 
Q 816 -141 533 504 
Q 250 1150 250 2041 
Q 250 2597 351 3087 
Q 453 3578 754 3920 
Q 1056 4263 1600 4263 
Q 2022 4263 2290 4056 
Q 2559 3850 2700 3523 
Q 2841 3197 2892 2823 
Q 2944 2450 2944 2041 
Q 2944 1491 2842 1011 
Q 2741 531 2444 195 
Q 2147 -141 1600 -141 
z
M 1600 25 
Q 1956 25 2131 390 
Q 2306 756 2347 1200 
Q 2388 1644 2388 2144 
Q 2388 2625 2347 3031 
Q 2306 3438 2132 3767 
Q 1959 4097 1600 4097 
Q 1238 4097 1063 3765 
Q 888 3434 847 3029 
Q 806 2625 806 2144 
Q 806 1788 823 1472 
Q 841 1156 916 820 
Q 991 484 1158 254 
Q 1325 25 1600 25 
z
" transform="scale(0.015625)"/>
        <path id="Cmmi10-3a" d="M 538 353 
Q 538 497 644 600 
Q 750 703 891 703 
Q 978 703 1062 656 
Q 1147 609 1194 525 
Q 1241 441 1241 353 
Q 1241 213 1137 106 
Q 1034 0 891 0 
Q 750 0 644 106 
Q 538 213 538 353 
z
" transform="scale(0.015625)"/>
        <path id="Cmr10-39" d="M 722 269 
Q 897 63 1331 63 
Q 1575 63 1786 228 
Q 1997 394 2113 634 
Q 2247 906 2284 1214 
Q 2322 1522 2322 1978 
Q 2213 1719 2008 1553 
Q 1803 1388 1538 1388 
Q 1166 1388 873 1589 
Q 581 1791 425 2120 
Q 269 2450 269 2822 
Q 269 3206 444 3539 
Q 619 3872 928 4067 
Q 1238 4263 1631 4263 
Q 2019 4263 2280 4052 
Q 2541 3841 2678 3508 
Q 2816 3175 2870 2803 
Q 2925 2431 2925 2069 
Q 2925 1575 2744 1061 
Q 2563 547 2202 203 
Q 1841 -141 1331 -141 
Q 953 -141 690 37 
Q 428 216 428 575 
Q 428 706 517 795 
Q 606 884 738 884 
Q 866 884 955 795 
Q 1044 706 1044 575 
Q 1044 450 953 359 
Q 863 269 738 269 
L 722 269 
z
M 1563 1556 
Q 1825 1556 1992 1732 
Q 2159 1909 2234 2171 
Q 2309 2434 2309 2694 
L 2309 2816 
L 2309 2841 
Q 2309 3322 2168 3700 
Q 2028 4078 1631 4078 
Q 1378 4078 1220 3967 
Q 1063 3856 988 3672 
Q 913 3488 892 3278 
Q 872 3069 872 2822 
Q 872 2459 906 2203 
Q 941 1947 1094 1751 
Q 1247 1556 1563 1556 
z
" transform="scale(0.015625)"/>
       </defs>
       <use xlink:href="#Cmr10-30" transform="translate(0 0.390625)"/>
       <use xlink:href="#Cmmi10-3a" transform="translate(50 0.390625)"/>
       <use xlink:href="#Cmr10-39" transform="translate(77.685547 0.390625)"/>
      </g>
     </g>
    </g>
    <g id="xtick_2">
     <g id="line2d_3">
      <g>
       <use xlink:href="#mf373cc1f53" x="480.230709" y="239.905354" style="stroke: #000000"/>
      </g>
     </g>
     <g id="text_2">
      <!-- $1.0$ -->
      <g transform="translate(462.310709 264.680979) scale(0.28 -0.28)">
       <defs>
        <path id="Cmr10-31" d="M 594 0 
L 594 225 
Q 1394 225 1394 428 
L 1394 3788 
Q 1063 3628 556 3628 
L 556 3853 
Q 1341 3853 1741 4263 
L 1831 4263 
Q 1853 4263 1873 4245 
Q 1894 4228 1894 4206 
L 1894 428 
Q 1894 225 2694 225 
L 2694 0 
L 594 0 
z
" transform="scale(0.015625)"/>
       </defs>
       <use xlink:href="#Cmr10-31" transform="translate(0 0.390625)"/>
       <use xlink:href="#Cmmi10-3a" transform="translate(50 0.390625)"/>
       <use xlink:href="#Cmr10-30" transform="translate(77.685547 0.390625)"/>
      </g>
     </g>
    </g>
    <g id="xtick_3">
     <g id="line2d_4">
      <g>
       <use xlink:href="#mf373cc1f53" x="693.583071" y="239.905354" style="stroke: #000000"/>
      </g>
     </g>
     <g id="text_3">
      <!-- $1.1$ -->
      <g transform="translate(675.663071 264.680979) scale(0.28 -0.28)">
       <use xlink:href="#Cmr10-31" transform="translate(0 0.390625)"/>
       <use xlink:href="#Cmmi10-3a" transform="translate(50 0.390625)"/>
       <use xlink:href="#Cmr10-31" transform="translate(77.685547 0.390625)"/>
      </g>
     </g>
    </g>
    <g id="xtick_4">
     <g id="line2d_5">
      <g>
       <use xlink:href="#mf373cc1f53" x="906.935433" y="239.905354" style="stroke: #000000"/>
      </g>
     </g>
     <g id="text_4">
      <!-- $1.2$ -->
      <g transform="translate(889.015433 264.680979) scale(0.28 -0.28)">
       <defs>
        <path id="Cmr10-32" d="M 319 0 
L 319 172 
Q 319 188 331 206 
L 1325 1306 
Q 1550 1550 1690 1715 
Q 1831 1881 1968 2097 
Q 2106 2313 2186 2536 
Q 2266 2759 2266 3009 
Q 2266 3272 2169 3511 
Q 2072 3750 1880 3894 
Q 1688 4038 1416 4038 
Q 1138 4038 916 3870 
Q 694 3703 603 3438 
Q 628 3444 672 3444 
Q 816 3444 917 3347 
Q 1019 3250 1019 3097 
Q 1019 2950 917 2848 
Q 816 2747 672 2747 
Q 522 2747 420 2851 
Q 319 2956 319 3097 
Q 319 3338 409 3548 
Q 500 3759 670 3923 
Q 841 4088 1055 4175 
Q 1269 4263 1509 4263 
Q 1875 4263 2190 4108 
Q 2506 3953 2690 3670 
Q 2875 3388 2875 3009 
Q 2875 2731 2753 2481 
Q 2631 2231 2440 2026 
Q 2250 1822 1953 1562 
Q 1656 1303 1563 1216 
L 838 519 
L 1453 519 
Q 1906 519 2211 526 
Q 2516 534 2534 550 
Q 2609 631 2688 1141 
L 2875 1141 
L 2694 0 
L 319 0 
z
" transform="scale(0.015625)"/>
       </defs>
       <use xlink:href="#Cmr10-31" transform="translate(0 0.390625)"/>
       <use xlink:href="#Cmmi10-3a" transform="translate(50 0.390625)"/>
       <use xlink:href="#Cmr10-32" transform="translate(77.685547 0.390625)"/>
      </g>
     </g>
    </g>
   </g>
   <g id="matplotlib.axis_2">
    <g id="ytick_1">
     <g id="line2d_6">
      <defs>
       <path id="m3318785732" d="M 0 0 
L 5 0 
" style="stroke: #000000"/>
      </defs>
      <g>
       <use xlink:href="#m3318785732" x="56.418899" y="217.309935" style="stroke: #000000"/>
      </g>
     </g>
     <g id="text_5">
      <!-- $-30$ -->
      <g transform="translate(3.078899 227.947748) scale(0.28 -0.28)">
       <defs>
        <path id="Cmsy10-a1" d="M 653 1472 
Q 600 1472 565 1512 
Q 531 1553 531 1600 
Q 531 1647 565 1687 
Q 600 1728 653 1728 
L 4325 1728 
Q 4375 1728 4408 1687 
Q 4441 1647 4441 1600 
Q 4441 1553 4408 1512 
Q 4375 1472 4325 1472 
L 653 1472 
z
" transform="scale(0.015625)"/>
        <path id="Cmr10-33" d="M 609 494 
Q 759 275 1012 169 
Q 1266 63 1556 63 
Q 1928 63 2084 380 
Q 2241 697 2241 1100 
Q 2241 1281 2208 1462 
Q 2175 1644 2097 1800 
Q 2019 1956 1883 2050 
Q 1747 2144 1550 2144 
L 1125 2144 
Q 1069 2144 1069 2203 
L 1069 2259 
Q 1069 2309 1125 2309 
L 1478 2338 
Q 1703 2338 1851 2506 
Q 2000 2675 2069 2917 
Q 2138 3159 2138 3378 
Q 2138 3684 1994 3881 
Q 1850 4078 1556 4078 
Q 1313 4078 1091 3986 
Q 869 3894 738 3706 
Q 750 3709 759 3711 
Q 769 3713 781 3713 
Q 925 3713 1022 3613 
Q 1119 3513 1119 3372 
Q 1119 3234 1022 3134 
Q 925 3034 781 3034 
Q 641 3034 541 3134 
Q 441 3234 441 3372 
Q 441 3647 606 3850 
Q 772 4053 1033 4158 
Q 1294 4263 1556 4263 
Q 1750 4263 1965 4205 
Q 2181 4147 2356 4039 
Q 2531 3931 2642 3762 
Q 2753 3594 2753 3378 
Q 2753 3109 2633 2881 
Q 2513 2653 2303 2487 
Q 2094 2322 1844 2241 
Q 2122 2188 2372 2031 
Q 2622 1875 2773 1631 
Q 2925 1388 2925 1106 
Q 2925 753 2731 467 
Q 2538 181 2222 20 
Q 1906 -141 1556 -141 
Q 1256 -141 954 -26 
Q 653 88 461 316 
Q 269 544 269 863 
Q 269 1022 375 1128 
Q 481 1234 641 1234 
Q 744 1234 830 1186 
Q 916 1138 964 1050 
Q 1013 963 1013 863 
Q 1013 706 903 600 
Q 794 494 641 494 
L 609 494 
z
" transform="scale(0.015625)"/>
       </defs>
       <use xlink:href="#Cmsy10-a1" transform="translate(0 0.390625)"/>
       <use xlink:href="#Cmr10-33" transform="translate(77.685547 0.390625)"/>
       <use xlink:href="#Cmr10-30" transform="translate(127.685547 0.390625)"/>
      </g>
     </g>
    </g>
    <g id="ytick_2">
     <g id="line2d_7">
      <g>
       <use xlink:href="#m3318785732" x="56.418899" y="149.621579" style="stroke: #000000"/>
      </g>
     </g>
     <g id="text_6">
      <!-- $-20$ -->
      <g transform="translate(3.078899 160.259391) scale(0.28 -0.28)">
       <use xlink:href="#Cmsy10-a1" transform="translate(0 0.390625)"/>
       <use xlink:href="#Cmr10-32" transform="translate(77.685547 0.390625)"/>
       <use xlink:href="#Cmr10-30" transform="translate(127.685547 0.390625)"/>
      </g>
     </g>
    </g>
    <g id="ytick_3">
     <g id="line2d_8">
      <g>
       <use xlink:href="#m3318785732" x="56.418899" y="81.933222" style="stroke: #000000"/>
      </g>
     </g>
     <g id="text_7">
      <!-- $-10$ -->
      <g transform="translate(3.078899 92.571035) scale(0.28 -0.28)">
       <use xlink:href="#Cmsy10-a1" transform="translate(0 0.390625)"/>
       <use xlink:href="#Cmr10-31" transform="translate(77.685547 0.390625)"/>
       <use xlink:href="#Cmr10-30" transform="translate(127.685547 0.390625)"/>
      </g>
     </g>
    </g>
    <g id="ytick_4">
     <g id="line2d_9">
      <g>
       <use xlink:href="#m3318785732" x="56.418899" y="14.244866" style="stroke: #000000"/>
      </g>
     </g>
     <g id="text_8">
      <!-- $0$ -->
      <g transform="translate(38.918899 24.882679) scale(0.28 -0.28)">
       <use xlink:href="#Cmr10-30" transform="translate(0 0.390625)"/>
      </g>
     </g>
    </g>
   </g>
   <g id="line2d_10">
    <path d="M 82.455119 19.841716 
L 100.166834 19.841716 
L 117.878548 20.289947 
L 135.590263 20.796007 
L 153.301977 21.371969 
L 171.013692 22.030669 
L 188.725407 22.789965 
L 206.437121 23.672276 
L 224.148836 24.706361 
L 241.86055 25.930661 
L 259.572265 27.396617 
L 277.28398 29.174507 
L 294.995694 31.362628 
L 312.707409 34.101738 
L 330.419123 37.599133 
L 348.130838 42.169729 
L 365.842552 48.308626 
L 383.554267 56.823716 
L 401.265982 69.080218 
L 418.977696 87.429107 
L 436.689411 115.728935 
L 454.401125 158.36705 
L 472.11284 209.86148 
L 489.824555 233.332719 
L 507.536269 200.5297 
L 525.247984 148.42654 
L 542.959698 108.242122 
L 560.671413 82.013157 
L 578.383128 65.026086 
L 596.094842 53.651234 
L 613.806557 45.727571 
L 631.518271 40.003499 
L 649.229986 35.73646 
L 666.9417 32.469464 
L 684.653415 29.91086 
L 702.36513 27.867911 
L 720.076844 26.209371 
L 737.788559 24.843383 
L 755.500273 23.704098 
L 773.211988 22.743379 
L 790.923703 21.925246 
L 808.635417 21.222393 
L 826.347132 20.613916 
L 844.058846 20.083339 
L 861.770561 19.617778 
L 879.482276 19.206856 
L 897.19399 18.842251 
L 914.905705 18.517158 
L 932.617419 18.225972 
L 950.329134 17.964113 
" clip-path="url(#p19a168a1f9)" style="fill: none; stroke-dasharray: 14.8,6.4; stroke-dashoffset: 0; stroke: #000000; stroke-width: 4"/>
   </g>
   <g id="patch_3">
    <path d="M 56.418899 239.905354 
L 56.418899 7.672231 
" style="fill: none; stroke: #000000; stroke-width: 2; stroke-linejoin: miter; stroke-linecap: square"/>
   </g>
   <g id="patch_4">
    <path d="M 56.418899 239.905354 
L 976.365354 239.905354 
" style="fill: none; stroke: #000000; stroke-width: 2; stroke-linejoin: miter; stroke-linecap: square"/>
   </g>
   <g id="PathCollection_1">
    <defs>
     <path id="mf607a9ac66" d="M -0 7.071068 
L 7.071068 0 
L 0 -7.071068 
L -7.071068 -0 
z
" style="stroke: #000000; stroke-width: 2"/>
    </defs>
    <g clip-path="url(#p19a168a1f9)">
     <use xlink:href="#mf607a9ac66" x="82.455119" y="19.868263" style="fill: #de8f05; stroke: #000000; stroke-width: 2"/>
     <use xlink:href="#mf607a9ac66" x="100.166834" y="19.868263" style="fill: #de8f05; stroke: #000000; stroke-width: 2"/>
     <use xlink:href="#mf607a9ac66" x="117.878548" y="20.32016" style="fill: #de8f05; stroke: #000000; stroke-width: 2"/>
     <use xlink:href="#mf607a9ac66" x="135.590263" y="20.83173" style="fill: #de8f05; stroke: #000000; stroke-width: 2"/>
     <use xlink:href="#mf607a9ac66" x="153.301977" y="21.414354" style="fill: #de8f05; stroke: #000000; stroke-width: 2"/>
     <use xlink:href="#mf607a9ac66" x="171.013692" y="22.082335" style="fill: #de8f05; stroke: #000000; stroke-width: 2"/>
     <use xlink:href="#mf607a9ac66" x="188.725407" y="22.853858" style="fill: #de8f05; stroke: #000000; stroke-width: 2"/>
     <use xlink:href="#mf607a9ac66" x="206.437121" y="23.752355" style="fill: #de8f05; stroke: #000000; stroke-width: 2"/>
     <use xlink:href="#mf607a9ac66" x="224.148836" y="24.80846" style="fill: #de8f05; stroke: #000000; stroke-width: 2"/>
     <use xlink:href="#mf607a9ac66" x="241.86055" y="26.062884" style="fill: #de8f05; stroke: #000000; stroke-width: 2"/>
     <use xlink:href="#mf607a9ac66" x="259.572265" y="27.570744" style="fill: #de8f05; stroke: #000000; stroke-width: 2"/>
     <use xlink:href="#mf607a9ac66" x="277.28398" y="29.408221" style="fill: #de8f05; stroke: #000000; stroke-width: 2"/>
     <use xlink:href="#mf607a9ac66" x="294.995694" y="31.683143" style="fill: #de8f05; stroke: #000000; stroke-width: 2"/>
     <use xlink:href="#mf607a9ac66" x="312.707409" y="34.552303" style="fill: #de8f05; stroke: #000000; stroke-width: 2"/>
     <use xlink:href="#mf607a9ac66" x="330.419123" y="38.250792" style="fill: #de8f05; stroke: #000000; stroke-width: 2"/>
     <use xlink:href="#mf607a9ac66" x="348.130838" y="43.143489" style="fill: #de8f05; stroke: #000000; stroke-width: 2"/>
     <use xlink:href="#mf607a9ac66" x="365.842552" y="49.818292" style="fill: #de8f05; stroke: #000000; stroke-width: 2"/>
     <use xlink:href="#mf607a9ac66" x="383.554267" y="59.257166" style="fill: #de8f05; stroke: #000000; stroke-width: 2"/>
     <use xlink:href="#mf607a9ac66" x="401.265982" y="73.13183" style="fill: #de8f05; stroke: #000000; stroke-width: 2"/>
     <use xlink:href="#mf607a9ac66" x="418.977696" y="94.135769" style="fill: #de8f05; stroke: #000000; stroke-width: 2"/>
     <use xlink:href="#mf607a9ac66" x="436.689411" y="125.175325" style="fill: #de8f05; stroke: #000000; stroke-width: 2"/>
     <use xlink:href="#mf607a9ac66" x="454.401125" y="163.291786" style="fill: #de8f05; stroke: #000000; stroke-width: 2"/>
     <use xlink:href="#mf607a9ac66" x="472.11284" y="192.749316" style="fill: #de8f05; stroke: #000000; stroke-width: 2"/>
     <use xlink:href="#mf607a9ac66" x="489.824555" y="200.292307" style="fill: #de8f05; stroke: #000000; stroke-width: 2"/>
     <use xlink:href="#mf607a9ac66" x="507.536269" y="185.439677" style="fill: #de8f05; stroke: #000000; stroke-width: 2"/>
     <use xlink:href="#mf607a9ac66" x="525.247984" y="153.199787" style="fill: #de8f05; stroke: #000000; stroke-width: 2"/>
     <use xlink:href="#mf607a9ac66" x="542.959698" y="116.914665" style="fill: #de8f05; stroke: #000000; stroke-width: 2"/>
     <use xlink:href="#mf607a9ac66" x="560.671413" y="88.410881" style="fill: #de8f05; stroke: #000000; stroke-width: 2"/>
     <use xlink:href="#mf607a9ac66" x="578.383128" y="69.080709" style="fill: #de8f05; stroke: #000000; stroke-width: 2"/>
     <use xlink:href="#mf607a9ac66" x="596.094842" y="56.199752" style="fill: #de8f05; stroke: #000000; stroke-width: 2"/>
     <use xlink:href="#mf607a9ac66" x="613.806557" y="47.376034" style="fill: #de8f05; stroke: #000000; stroke-width: 2"/>
     <use xlink:href="#mf607a9ac66" x="631.518271" y="41.108813" style="fill: #de8f05; stroke: #000000; stroke-width: 2"/>
     <use xlink:href="#mf607a9ac66" x="649.229986" y="36.503659" style="fill: #de8f05; stroke: #000000; stroke-width: 2"/>
     <use xlink:href="#mf607a9ac66" x="666.9417" y="33.01879" style="fill: #de8f05; stroke: #000000; stroke-width: 2"/>
     <use xlink:href="#mf607a9ac66" x="684.653415" y="30.315021" style="fill: #de8f05; stroke: #000000; stroke-width: 2"/>
     <use xlink:href="#mf607a9ac66" x="702.36513" y="28.172408" style="fill: #de8f05; stroke: #000000; stroke-width: 2"/>
     <use xlink:href="#mf607a9ac66" x="720.076844" y="26.443576" style="fill: #de8f05; stroke: #000000; stroke-width: 2"/>
     <use xlink:href="#mf607a9ac66" x="737.788559" y="25.026822" style="fill: #de8f05; stroke: #000000; stroke-width: 2"/>
     <use xlink:href="#mf607a9ac66" x="755.500273" y="23.85011" style="fill: #de8f05; stroke: #000000; stroke-width: 2"/>
     <use xlink:href="#mf607a9ac66" x="773.211988" y="22.861232" style="fill: #de8f05; stroke: #000000; stroke-width: 2"/>
     <use xlink:href="#mf607a9ac66" x="790.923703" y="22.021574" style="fill: #de8f05; stroke: #000000; stroke-width: 2"/>
     <use xlink:href="#mf607a9ac66" x="808.635417" y="21.302058" style="fill: #de8f05; stroke: #000000; stroke-width: 2"/>
     <use xlink:href="#mf607a9ac66" x="826.347132" y="20.680431" style="fill: #de8f05; stroke: #000000; stroke-width: 2"/>
     <use xlink:href="#mf607a9ac66" x="844.058846" y="20.139419" style="fill: #de8f05; stroke: #000000; stroke-width: 2"/>
     <use xlink:href="#mf607a9ac66" x="861.770561" y="19.665438" style="fill: #de8f05; stroke: #000000; stroke-width: 2"/>
     <use xlink:href="#mf607a9ac66" x="879.482276" y="19.247681" style="fill: #de8f05; stroke: #000000; stroke-width: 2"/>
     <use xlink:href="#mf607a9ac66" x="897.19399" y="18.877457" style="fill: #de8f05; stroke: #000000; stroke-width: 2"/>
     <use xlink:href="#mf607a9ac66" x="914.905705" y="18.547709" style="fill: #de8f05; stroke: #000000; stroke-width: 2"/>
     <use xlink:href="#mf607a9ac66" x="932.617419" y="18.252658" style="fill: #de8f05; stroke: #000000; stroke-width: 2"/>
     <use xlink:href="#mf607a9ac66" x="950.329134" y="17.987531" style="fill: #de8f05; stroke: #000000; stroke-width: 2"/>
    </g>
   </g>
   <g id="line2d_11">
    <path d="M 100.166834 155.431873 
L 117.878548 113.24074 
L 135.590263 95.16398 
L 153.301977 84.440866 
L 171.013692 77.143687 
L 188.725407 71.775886 
L 206.437121 67.623641 
L 224.148836 64.29702 
L 241.86055 61.562483 
L 259.572265 59.270472 
L 277.28398 57.32021 
L 294.995694 55.641024 
L 312.707409 54.181732 
L 330.419123 52.904286 
L 348.130838 51.77979 
L 365.842552 50.785905 
L 383.554267 49.905112 
L 401.265982 49.123515 
L 418.977696 48.430002 
L 436.689411 47.815636 
L 454.401125 47.273221 
L 472.11284 46.796976 
L 489.824555 46.3823 
L 507.536269 46.025595 
L 525.247984 45.724143 
L 542.959698 45.476016 
L 560.671413 45.280024 
L 578.383128 45.135686 
L 596.094842 45.043234 
L 613.806557 45.003646 
L 631.518271 45.018702 
L 649.229986 45.091088 
L 666.9417 45.224541 
L 684.653415 45.424056 
L 702.36513 45.69618 
L 720.076844 46.049422 
L 737.788559 46.494837 
L 755.500273 47.046864 
L 773.211988 47.724561 
L 790.923703 48.553468 
L 808.635417 49.568513 
L 826.347132 50.81871 
L 844.058846 52.375128 
L 861.770561 54.34521 
L 879.482276 56.900406 
L 897.19399 60.334841 
L 914.905705 65.206976 
L 932.617419 72.753492 
L 950.329134 86.555151 
" clip-path="url(#p19a168a1f9)" style="fill: none; stroke: #949494; stroke-width: 4"/>
   </g>
   <g id="PathCollection_2">
    <defs>
     <path id="m512a3a3cb5" d="M 0 8 
C 2.121625 8 4.156639 7.15707 5.656854 5.656854 
C 7.15707 4.156639 8 2.121625 8 0 
C 8 -2.121625 7.15707 -4.156639 5.656854 -5.656854 
C 4.156639 -7.15707 2.121625 -8 0 -8 
C -2.121625 -8 -4.156639 -7.15707 -5.656854 -5.656854 
C -7.15707 -4.156639 -8 -2.121625 -8 0 
C -8 2.121625 -7.15707 4.156639 -5.656854 5.656854 
C -4.156639 7.15707 -2.121625 8 0 8 
z
" style="stroke: #000000; stroke-width: 2"/>
    </defs>
    <g clip-path="url(#p19a168a1f9)">
     <use xlink:href="#m512a3a3cb5" x="82.455119" y="27.567458" style="fill: #cc78bc; stroke: #000000; stroke-width: 2"/>
     <use xlink:href="#m512a3a3cb5" x="227.100788" y="27.567458" style="fill: #cc78bc; stroke: #000000; stroke-width: 2"/>
     <use xlink:href="#m512a3a3cb5" x="371.746457" y="25.552101" style="fill: #cc78bc; stroke: #000000; stroke-width: 2"/>
     <use xlink:href="#m512a3a3cb5" x="516.392126" y="145.058896" style="fill: #cc78bc; stroke: #000000; stroke-width: 2"/>
     <use xlink:href="#m512a3a3cb5" x="661.037796" y="67.044465" style="fill: #cc78bc; stroke: #000000; stroke-width: 2"/>
     <use xlink:href="#m512a3a3cb5" x="805.683465" y="24.185115" style="fill: #cc78bc; stroke: #000000; stroke-width: 2"/>
     <use xlink:href="#m512a3a3cb5" x="950.329134" y="21.778424" style="fill: #cc78bc; stroke: #000000; stroke-width: 2"/>
    </g>
   </g>
  </g>
 </g>
 <defs>
  <clipPath id="p19a168a1f9">
   <rect x="56.418899" y="7.672231" width="919.946456" height="232.233124"/>
  </clipPath>
 </defs>
</svg>
