<?xml version="1.0" encoding="utf-8" standalone="no"?>
<!DOCTYPE svg PUBLIC "-//W3C//DTD SVG 1.1//EN"
  "http://www.w3.org/Graphics/SVG/1.1/DTD/svg11.dtd">
<svg xmlns:xlink="http://www.w3.org/1999/xlink" width="990.72pt" height="184.32pt" viewBox="0 0 990.72 184.32" xmlns="http://www.w3.org/2000/svg" version="1.1">
 <metadata>
  <rdf:RDF xmlns:dc="http://purl.org/dc/elements/1.1/" xmlns:cc="http://creativecommons.org/ns#" xmlns:rdf="http://www.w3.org/1999/02/22-rdf-syntax-ns#">
   <cc:Work>
    <dc:type rdf:resource="http://purl.org/dc/dcmitype/StillImage"/>
    <dc:date>2024-04-27T16:44:25.837351</dc:date>
    <dc:format>image/svg+xml</dc:format>
    <dc:creator>
     <cc:Agent>
      <dc:title>Matplotlib v3.7.0, https://matplotlib.org/</dc:title>
     </cc:Agent>
    </dc:creator>
   </cc:Work>
  </rdf:RDF>
 </metadata>
 <defs>
  <style type="text/css">*{stroke-linejoin: round; stroke-linecap: butt}</style>
 </defs>
 <g id="figure_1">
  <g id="patch_1">
   <path d="M 0 184.32 
L 990.72 184.32 
L 990.72 0 
L 0 0 
L 0 184.32 
z
" style="fill: none"/>
  </g>
  <g id="axes_1">
   <g id="patch_2">
    <path d="M 41.316477 150.625354 
L 987.885354 150.625354 
L 987.885354 2.834646 
L 41.316477 2.834646 
L 41.316477 150.625354 
z
" style="fill: none"/>
   </g>
   <g id="line2d_1">
    <path d="M 68.106162 70.398174 
L 69.869816 85.02866 
L 73.531073 115.660904 
L 75.026831 126.153827 
L 76.277016 133.432472 
L 77.348603 138.444733 
L 78.286242 141.84716 
L 79.112258 144.067131 
L 79.826649 145.398081 
L 80.429417 146.099234 
L 80.965211 146.402438 
L 81.43403 146.424328 
L 81.90285 146.222765 
L 82.416319 145.750356 
L 83.019087 144.867645 
L 83.711154 143.429566 
L 84.514844 141.211142 
L 85.452483 137.915795 
L 86.524071 133.285653 
L 87.796581 126.731626 
L 89.359312 117.436213 
L 91.725734 101.833463 
L 95.186069 79.19777 
L 96.927398 69.283148 
L 98.378506 62.24295 
L 99.628692 57.217576 
L 100.744928 53.608135 
L 101.727217 51.140454 
L 102.597882 49.513206 
L 103.379247 48.498425 
L 104.071314 47.946279 
L 104.696407 47.721558 
L 105.165226 47.759004 
L 105.500098 48.040137 
L 105.924268 48.725791 
L 106.437737 50.026383 
L 107.062829 52.259703 
L 107.844195 55.958258 
L 108.804159 61.683366 
L 110.032019 70.480426 
L 111.817998 85.081723 
L 115.50158 115.447183 
L 117.019662 125.966591 
L 118.292172 133.296256 
L 119.386084 138.3639 
L 120.346048 141.815062 
L 121.172063 144.020518 
L 121.886455 145.354599 
L 122.511548 146.087789 
L 123.047341 146.396905 
L 123.516161 146.428439 
L 123.98498 146.239839 
L 124.498449 145.784386 
L 125.101217 144.92374 
L 125.793284 143.511856 
L 126.596975 141.322846 
L 127.512289 138.145601 
L 128.583876 133.569007 
L 129.834062 127.201177 
L 131.396793 118.004589 
L 133.740891 102.694484 
L 137.290524 79.651498 
L 139.054178 69.672544 
L 140.527611 62.556414 
L 141.800121 57.458792 
L 142.916358 53.846916 
L 143.920971 51.307089 
L 144.813961 49.620389 
L 145.595326 48.582866 
L 146.287393 48.00046 
L 146.934811 47.735851 
L 147.44828 47.740485 
L 147.783151 47.988816 
L 148.184996 48.585365 
L 148.67614 49.738087 
L 149.278908 51.750935 
L 150.015624 55.027146 
L 150.930939 60.184512 
L 152.091825 68.111378 
L 153.699206 80.788784 
L 158.409726 118.854964 
L 159.838509 128.190653 
L 161.06637 134.816561 
L 162.115632 139.344037 
L 163.053271 142.461076 
L 163.856962 144.421078 
L 164.549029 145.57999 
L 165.151797 146.192041 
L 165.665266 146.423839 
L 166.134085 146.405007 
L 166.625229 146.151882 
L 167.161023 145.606915 
L 167.786116 144.622556 
L 168.500507 143.048574 
L 169.326523 140.651862 
L 170.286486 137.130407 
L 171.402723 132.12692 
L 172.742207 125.021198 
L 174.461212 114.593492 
L 181.270257 71.874421 
L 182.297195 67.69342 
L 185.422658 56.487767 
L 186.583545 53.437973 
L 187.632807 51.17725 
L 188.592771 49.622422 
L 189.463436 48.617372 
L 190.244802 48.033532 
L 190.981518 47.750834 
L 191.606611 47.728592 
L 191.963807 47.948736 
L 192.387977 48.497109 
L 192.901446 49.565073 
L 193.526538 51.437397 
L 194.263255 54.403037 
L 195.133919 58.878206 
L 196.183182 65.498331 
L 197.500342 75.34655 
L 199.33097 90.896644 
L 202.947578 121.876449 
L 204.309387 131.470546 
L 205.403299 137.686799 
L 206.318613 141.684983 
L 207.077654 144.099911 
L 207.725071 145.491957 
L 208.260865 146.175613 
L 208.70736 146.423855 
L 209.109205 146.401565 
L 209.51105 146.151808 
L 209.97987 145.581754 
L 210.537988 144.528734 
L 211.20773 142.761807 
L 212.011421 139.982991 
L 212.993709 135.741384 
L 214.22157 129.390294 
L 215.828951 119.812006 
L 218.0391 105.18426 
L 222.347775 76.385233 
L 223.910506 67.694068 
L 225.24999 61.429064 
L 226.455526 56.800019 
L 227.549438 53.439165 
L 228.531727 51.09596 
L 229.424716 49.508954 
L 230.228407 48.512391 
L 230.942799 47.961353 
L 231.590216 47.727489 
L 232.103685 47.753691 
L 232.460881 48.042368 
L 232.885051 48.709412 
L 233.39852 49.972068 
L 234.023612 52.150326 
L 234.782653 55.677721 
L 235.697968 61.091186 
L 236.814205 69.152009 
L 238.242988 81.233576 
L 241.055905 107.478753 
L 242.931183 123.774868 
L 244.203693 132.986824 
L 245.208306 138.769908 
L 246.056646 142.460469 
L 246.771038 144.654406 
L 247.351481 145.800668 
L 247.842625 146.321099 
L 248.24447 146.442192 
L 248.601666 146.322796 
L 249.003511 145.938275 
L 249.494656 145.119336 
L 250.075099 143.679287 
L 250.78949 141.254325 
L 251.660155 137.430772 
L 252.731743 131.635265 
L 254.138201 122.696277 
L 256.504623 105.969603 
L 260.009607 81.507813 
L 261.929534 69.587265 
L 263.335993 62.174459 
L 264.519204 57.063995 
L 265.568467 53.465707 
L 266.506106 51.002511 
L 267.332121 49.412422 
L 268.068837 48.440567 
L 268.716255 47.923136 
L 269.319023 47.715211 
L 269.743193 47.76594 
L 270.078064 48.066074 
L 270.502234 48.789235 
L 271.015703 50.152899 
L 271.640795 52.487105 
L 272.399836 56.226135 
L 273.337475 62.039035 
L 274.498362 70.720511 
L 276.083418 84.410217 
L 280.726964 125.613185 
L 281.954824 134.07094 
L 282.959437 139.54786 
L 283.785453 142.925305 
L 284.47752 144.907952 
L 285.057963 145.950221 
L 285.526782 146.371235 
L 285.906303 146.435487 
L 286.263499 146.270948 
L 286.665344 145.828003 
L 287.156488 144.923423 
L 287.736931 143.356983 
L 288.451323 140.731241 
L 289.299663 136.703188 
L 290.348926 130.552225 
L 291.68841 121.274042 
L 293.943208 103.811101 
L 296.644502 83.390026 
L 298.341182 72.233194 
L 299.814614 63.945003 
L 301.109449 57.869557 
L 302.203361 53.744581 
L 303.118675 51.096109 
L 303.922366 49.401567 
L 304.614433 48.414788 
L 305.217201 47.903693 
L 305.775319 47.710425 
L 306.15484 47.778567 
L 306.489711 48.119297 
L 306.913881 48.925404 
L 307.42735 50.423341 
L 308.074767 53.050987 
L 308.878458 57.311175 
L 309.905396 64.066459 
L 311.24488 74.479117 
L 313.499679 94.056675 
L 316.200972 116.996428 
L 317.719054 128.038388 
L 318.92459 135.285876 
L 319.929203 140.077101 
L 320.777543 143.134534 
L 321.491935 144.958162 
L 322.094703 145.941135 
L 322.585847 146.357948 
L 322.987692 146.440019 
L 323.389537 146.28862 
L 323.813707 145.876521 
L 324.327176 145.034733 
L 324.929944 143.577199 
L 325.644336 141.216694 
L 326.492676 137.578568 
L 327.497289 132.224338 
L 328.747474 124.258244 
L 330.444154 111.855394 
L 335.110025 76.961199 
L 336.650431 67.500217 
L 337.989916 60.573954 
L 339.173127 55.567542 
L 340.17774 52.219077 
L 341.048405 50.045565 
L 341.785121 48.759856 
L 342.432539 48.051304 
L 342.990657 47.749989 
L 343.459476 47.729382 
L 343.772023 47.970356 
L 344.151543 48.586099 
L 344.642688 49.872849 
L 345.245455 52.13546 
L 346.004497 55.912095 
L 346.986785 62.038624 
L 348.303945 71.81093 
L 350.558743 90.532891 
L 353.37166 113.395389 
L 355.001366 124.854968 
L 356.318525 132.645627 
L 357.457087 138.117438 
L 358.417051 141.721815 
L 359.243066 144.034204 
L 359.957458 145.42092 
L 360.560226 146.137653 
L 361.05137 146.410978 
L 361.497865 146.416123 
L 361.944359 146.189549 
L 362.435504 145.67398 
L 363.015947 144.708947 
L 363.685689 143.126514 
L 364.467055 140.668044 
L 365.382369 136.998886 
L 366.453956 131.72441 
L 367.748791 124.162527 
L 369.445471 112.826614 
L 375.47315 71.317228 
L 376.991232 62.972357 
L 378.241418 57.25689 
L 379.29068 53.426345 
L 380.205995 50.875289 
L 381.009685 49.260209 
L 381.701752 48.333482 
L 382.30452 47.866337 
L 382.862638 47.705341 
L 383.19751 47.78444 
L 383.532381 48.125481 
L 383.956551 48.917777 
L 384.492344 50.449029 
L 385.162086 53.104339 
L 386.010426 57.466574 
L 387.104339 64.370546 
L 388.622421 75.518231 
L 394.605451 120.942462 
L 396.078883 129.778172 
L 397.329068 135.994323 
L 398.400656 140.258767 
L 399.31597 143.057616 
L 400.097336 144.799023 
L 400.767078 145.801 
L 401.347521 146.296081 
L 401.838666 146.441789 
L 402.307485 146.346657 
L 402.798629 146.002208 
L 403.356748 145.309033 
L 403.98184 144.157075 
L 404.718557 142.302684 
L 405.566897 139.528974 
L 406.549185 135.520354 
L 407.710072 129.797726 
L 409.11653 121.683536 
L 411.014133 109.311489 
L 416.863214 70.263092 
L 418.314322 62.492027 
L 419.519858 57.18718 
L 420.56912 53.521508 
L 421.484435 51.069979 
L 422.31045 49.448706 
L 423.047166 48.461096 
L 423.694584 47.934957 
L 424.297352 47.718806 
L 424.743846 47.761518 
L 425.078717 48.048759 
L 425.502887 48.73845 
L 426.038681 50.091376 
L 426.708423 52.46083 
L 427.534439 56.273767 
L 428.583701 62.254528 
L 429.967835 71.531606 
L 432.222633 88.392477 
L 435.660643 113.900575 
L 437.401973 125.137739 
L 438.808431 132.828423 
L 439.991642 138.124091 
L 440.996255 141.668978 
L 441.86692 143.978301 
L 442.603637 145.351545 
L 443.228729 146.086715 
L 443.764523 146.397799 
L 444.233342 146.426888 
L 444.702162 146.229018 
L 445.215631 145.753121 
L 445.796074 144.892342 
L 446.465816 143.481685 
L 447.247182 141.28914 
L 448.162496 138.012185 
L 449.234084 133.288814 
L 450.506594 126.609187 
L 452.09165 117.02297 
L 454.368773 101.741402 
L 458.320252 75.164219 
L 459.882983 66.259557 
L 461.177818 60.099997 
L 462.31638 55.71033 
L 463.343318 52.599996 
L 464.258632 50.498001 
L 465.084647 49.124784 
L 465.821364 48.300292 
L 466.491106 47.861857 
L 467.116198 47.706088 
L 467.518044 47.793375 
L 467.897564 48.159735 
L 468.344059 48.931008 
L 468.902177 50.373928 
L 469.594244 52.828866 
L 470.442584 56.709186 
L 471.514172 62.73064 
L 472.898306 71.87686 
L 474.974506 87.271595 
L 478.992959 117.203016 
L 480.622665 127.573721 
L 481.939824 134.61333 
L 483.056061 139.434606 
L 483.9937 142.571361 
L 484.797391 144.546045 
L 485.489458 145.694861 
L 486.069901 146.254996 
L 486.561045 146.438062 
L 487.00754 146.372301 
L 487.476359 146.065958 
L 488.012153 145.421047 
L 488.637246 144.278782 
L 489.351637 142.476352 
L 490.199977 139.685283 
L 491.182266 135.646996 
L 492.365477 129.785746 
L 493.816585 121.407838 
L 495.758837 108.789534 
L 501.451645 70.96199 
L 502.858104 63.579838 
L 504.085964 58.269439 
L 505.179876 54.473121 
L 506.162165 51.814722 
L 507.055154 49.997151 
L 507.858845 48.829213 
L 508.595561 48.129598 
L 509.265303 47.786345 
L 509.890396 47.710369 
L 510.225267 47.877338 
L 510.627112 48.357843 
L 511.118256 49.336933 
L 511.721024 51.084094 
L 512.457741 53.955669 
L 513.373055 58.501463 
L 514.489292 65.245012 
L 515.9404 75.46304 
L 518.239848 93.47416 
L 521.387636 117.835863 
L 522.972692 128.384823 
L 524.222877 135.320073 
L 525.27214 139.981723 
L 526.16513 143.010451 
L 526.924171 144.85626 
L 527.549263 145.85305 
L 528.085057 146.323384 
L 528.531552 146.442551 
L 528.955722 146.326408 
L 529.402217 145.964656 
L 529.915686 145.249589 
L 530.540778 143.958519 
L 531.277495 141.869574 
L 532.125835 138.756052 
L 533.152773 134.083431 
L 534.402958 127.290091 
L 536.054988 116.979059 
L 538.800931 98.19311 
L 542.104992 75.956919 
L 543.690049 66.77162 
L 544.984884 60.509759 
L 546.123445 56.033519 
L 547.150383 52.847319 
L 548.065697 50.679179 
L 548.891713 49.248509 
L 549.650754 48.355514 
L 550.320496 47.887862 
L 550.945588 47.709862 
L 551.369758 47.77975 
L 551.726954 48.105548 
L 552.173449 48.85565 
L 552.709243 50.227677 
L 553.378985 52.60669 
L 554.205 56.443001 
L 555.209613 62.24512 
L 556.482123 70.993256 
L 558.245778 84.809194 
L 562.956297 122.444337 
L 564.362756 131.557065 
L 565.501317 137.579978 
L 566.461281 141.544551 
L 567.264972 144.00014 
L 567.934714 145.410639 
L 568.492832 146.131386 
L 568.961652 146.412803 
L 569.385822 146.411753 
L 569.809992 146.169137 
L 570.278811 145.623555 
L 570.83693 144.602728 
L 571.506672 142.864313 
L 572.288038 140.168622 
L 573.225677 136.069435 
L 574.364238 130.004872 
L 575.815346 120.96511 
L 578.137119 104.87738 
L 581.932324 78.735607 
L 583.718303 67.946548 
L 585.080112 61.011591 
L 586.240999 56.208202 
L 587.267937 52.868279 
L 588.183251 50.613726 
L 588.986941 49.181827 
L 589.701333 48.32305 
L 590.34875 47.86714 
L 590.951518 47.705992 
L 591.331039 47.79073 
L 591.688235 48.142835 
L 592.134729 48.94323 
L 592.670523 50.397478 
L 593.340265 52.905753 
L 594.166281 56.928916 
L 595.193219 63.123388 
L 596.510378 72.536576 
L 598.45263 88.225636 
L 602.247836 119.072301 
L 603.743593 129.302931 
L 604.949129 136.110464 
L 605.953742 140.594923 
L 606.802082 143.44095 
L 607.516474 145.123817 
L 608.119242 146.017078 
L 608.610386 146.381563 
L 609.034556 146.431994 
L 609.436401 146.254195 
L 609.882896 145.801448 
L 610.41869 144.909495 
L 611.043782 143.401894 
L 611.780499 141.00932 
L 612.651163 137.38539 
L 613.700426 132.005108 
L 615.017586 123.988563 
L 616.892864 111.028233 
L 621.558734 78.292383 
L 623.344713 67.541291 
L 624.728846 60.484305 
L 625.867408 55.766295 
L 626.872021 52.505385 
L 627.742686 50.376965 
L 628.524052 49.009381 
L 629.216119 48.21241 
L 629.841211 47.813342 
L 630.421655 47.703864 
L 630.734201 47.833836 
L 631.091397 48.243864 
L 631.537891 49.127068 
L 632.09601 50.767796 
L 632.788077 53.547483 
L 633.658742 58.053756 
L 634.752654 64.998256 
L 636.203762 75.77417 
L 638.771107 96.85745 
L 641.338451 117.259757 
L 642.901183 127.971645 
L 644.151368 135.099488 
L 645.200631 139.879424 
L 646.09362 142.977838 
L 646.852662 144.859478 
L 647.477754 145.868252 
L 647.991223 146.323334 
L 648.437718 146.442406 
L 648.861888 146.316549 
L 649.308383 145.933558 
L 649.821852 145.179173 
L 650.42462 143.874453 
L 651.139011 141.763841 
L 651.987351 138.510602 
L 652.991964 133.710602 
L 654.219825 126.668802 
L 655.827206 116.037419 
L 662.502303 70.315452 
L 663.99806 62.249165 
L 665.203596 56.896525 
L 666.230534 53.287281 
L 667.145848 50.840369 
L 667.949539 49.285453 
L 668.66393 48.356832 
L 669.289023 47.880807 
L 669.869466 47.707635 
L 670.248987 47.784524 
L 670.606182 48.141939 
L 671.030352 48.915848 
L 671.566146 50.396125 
L 672.235888 52.9572 
L 673.061904 57.054452 
L 674.111166 63.466801 
L 675.4953 73.410757 
L 677.772423 91.642761 
L 680.808588 115.577544 
L 682.438293 126.673924 
L 683.733128 134.063413 
L 684.82704 139.1065 
L 685.764679 142.445773 
L 686.546045 144.482711 
L 687.215787 145.664497 
L 687.773906 146.241422 
L 688.242725 146.435611 
L 688.666895 146.381759 
L 689.11339 146.089944 
L 689.626859 145.458712 
L 690.207302 144.370644 
L 690.899369 142.568982 
L 691.70306 139.82088 
L 692.663023 135.685669 
L 693.801585 129.72774 
L 695.230368 120.975763 
L 697.351218 106.415323 
L 701.548269 77.461125 
L 703.289598 67.059114 
L 704.651407 60.187965 
L 705.789969 55.533271 
L 706.772257 52.39633 
L 707.642922 50.301451 
L 708.424288 48.961046 
L 709.116355 48.185198 
L 709.741448 47.802221 
L 710.299566 47.704056 
L 710.612112 47.834963 
L 710.969308 48.243117 
L 711.415803 49.118579 
L 711.973921 50.739416 
L 712.665988 53.475666 
L 713.536653 57.893259 
L 714.630565 64.668068 
L 716.126323 75.46313 
L 718.961564 97.967643 
L 721.417285 116.655525 
L 723.024667 127.262655 
L 724.319501 134.419727 
L 725.413413 139.302318 
L 726.351052 142.537605 
L 727.154743 144.561681 
L 727.824485 145.69694 
L 728.382604 146.250397 
L 728.851423 146.436088 
L 729.297918 146.374978 
L 729.744413 146.082164 
L 730.257882 145.46122 
L 730.860649 144.350464 
L 731.552716 142.5809 
L 732.378732 139.810069 
L 733.338695 135.759137 
L 734.499582 129.819128 
L 735.95069 121.129981 
L 738.02689 107.181868 
L 742.826709 74.558587 
L 744.43409 65.314842 
L 745.7066 59.204725 
L 746.800512 54.977221 
L 747.782801 52.024134 
L 748.653465 50.067877 
L 749.434831 48.827233 
L 750.126898 48.118626 
L 750.751991 47.779065 
L 751.310109 47.71061 
L 751.64498 47.891934 
L 752.024501 48.377895 
L 752.49332 49.364318 
L 753.096088 51.208089 
L 753.832804 54.242133 
L 754.748119 59.022881 
L 755.909005 66.350023 
L 757.494061 77.897386 
L 763.722663 124.811619 
L 765.106797 132.840034 
L 766.245359 138.223937 
L 767.227647 141.858193 
L 768.053662 144.127814 
L 768.745729 145.447683 
L 769.326172 146.13372 
L 769.817317 146.409773 
L 770.263811 146.417152 
L 770.710306 146.192695 
L 771.20145 145.679771 
L 771.781894 144.719403 
L 772.451636 143.1468 
L 773.233002 140.710419 
L 774.148316 137.089805 
L 775.242228 131.798359 
L 776.581712 124.145155 
L 778.390016 112.396902 
L 784.841865 69.296339 
L 786.270648 61.741414 
L 787.476184 56.49814 
L 788.525447 52.876061 
L 789.418436 50.529654 
L 790.199802 49.052674 
L 790.869544 48.218488 
L 791.449987 47.815325 
L 791.985781 47.70357 
L 792.276003 47.828734 
L 792.610874 48.239651 
L 793.035044 49.155921 
L 793.570838 50.913194 
L 794.218255 53.861348 
L 795.021946 58.631345 
L 796.048883 66.195267 
L 797.433017 78.21947 
L 802.433758 123.250774 
L 803.683944 131.779163 
L 804.733206 137.515936 
L 805.648521 141.378814 
L 806.452211 143.869316 
L 807.144278 145.337778 
L 807.724721 146.093552 
L 808.215865 146.400765 
L 808.66236 146.421982 
L 809.108855 146.204051 
L 809.599999 145.696955 
L 810.180442 144.751159 
L 810.872509 143.159053 
L 811.6762 140.720775 
L 812.636164 137.054771 
L 813.774725 131.770914 
L 815.136534 124.331943 
L 816.855539 113.612131 
L 819.601482 94.837495 
L 822.459048 75.790911 
L 824.111079 66.247276 
L 825.450563 59.747805 
L 826.589125 55.251329 
L 827.593738 52.132466 
L 828.464403 50.095941 
L 829.245768 48.800834 
L 829.915511 48.090052 
L 830.495954 47.768333 
L 831.031747 47.713685 
L 831.344294 47.902637 
L 831.70149 48.400958 
L 832.147984 49.431195 
L 832.706103 51.319677 
L 833.39817 54.510531 
L 834.24651 59.544077 
L 835.318097 67.332435 
L 836.79153 79.826124 
L 841.524374 121.17465 
L 842.841534 130.174003 
L 843.957771 136.352694 
L 844.917734 140.510812 
L 845.766074 143.267958 
L 846.502791 144.961488 
L 847.127883 145.893193 
L 847.663677 146.329359 
L 848.132496 146.442377 
L 848.578991 146.32221 
L 849.070135 145.939791 
L 849.628254 145.196521 
L 850.275671 143.938341 
L 851.034712 141.947705 
L 851.927702 138.938397 
L 852.976965 134.558796 
L 854.204825 128.413211 
L 855.700583 119.704167 
L 857.687484 106.700241 
L 862.598926 74.023492 
L 864.161658 65.395554 
L 865.478818 59.305479 
L 866.617379 55.026155 
L 867.621992 52.052855 
L 868.514982 50.056548 
L 869.296348 48.811824 
L 869.988415 48.098682 
L 870.591183 47.771779 
L 871.126976 47.712495 
L 871.439523 47.889758 
L 871.819043 48.399352 
L 872.287863 49.457035 
L 872.868306 51.384158 
L 873.582697 54.61345 
L 874.453362 59.66579 
L 875.547274 67.417537 
L 877.065356 79.938651 
L 881.84285 120.512187 
L 883.204659 129.636992 
L 884.343221 135.859097 
L 885.347834 140.186532 
L 886.218499 143.023064 
L 886.97754 144.797366 
L 887.624957 145.799451 
L 888.183076 146.290463 
L 888.67422 146.44171 
L 889.120715 146.355219 
L 889.611859 146.018724 
L 890.169978 145.336898 
L 890.817395 144.159336 
L 891.576436 142.271557 
L 892.447101 139.468858 
L 893.451714 135.451751 
L 894.634925 129.757746 
L 896.063708 121.716726 
L 897.916661 109.913929 
L 903.654119 72.426192 
L 905.172201 64.43817 
L 906.467036 58.750139 
L 907.605598 54.689115 
L 908.610211 51.868085 
L 909.5032 49.970481 
L 910.306891 48.755134 
L 910.998958 48.08052 
L 911.62405 47.763287 
L 912.159844 47.716248 
L 912.494715 47.920529 
L 912.874236 48.443237 
L 913.343055 49.498987 
L 913.923498 51.397879 
L 914.63789 54.557661 
L 915.508555 59.482601 
L 916.602467 67.026224 
L 918.098224 79.024961 
L 923.188265 121.146029 
L 924.550074 129.964615 
L 925.71096 136.100633 
L 926.715573 140.292377 
L 927.586238 143.053709 
L 928.345279 144.792342 
L 929.015021 145.809719 
L 929.57314 146.290652 
L 930.064284 146.441409 
L 930.533103 146.350849 
L 931.024247 146.014541 
L 931.582366 145.338799 
L 932.229783 144.174411 
L 932.988824 142.308142 
L 933.859489 139.535486 
L 934.864102 135.557623 
L 936.047313 129.914737 
L 937.476097 121.943911 
L 939.351375 110.104236 
L 945.044183 73.271071 
L 946.58459 65.187646 
L 947.901749 59.386977 
L 949.08496 55.136446 
L 950.134223 52.160389 
L 951.049537 50.183574 
L 951.875552 48.896646 
L 952.589944 48.16192 
L 953.237361 47.795367 
L 953.817805 47.705578 
L 954.152676 47.861028 
L 954.532196 48.321502 
L 955.001016 49.291327 
L 955.581459 51.07222 
L 956.273526 53.967168 
L 957.121866 58.52617 
L 958.193453 65.59435 
L 959.622236 76.64235 
L 961.095669 89.071844 
L 961.095669 89.071844 
" clip-path="url(#p7b6f612e46)" style="fill: none; stroke: #009afa; stroke-width: 6"/>
   </g>
   <g id="matplotlib.axis_1">
    <g id="xtick_1">
     <g id="line2d_2">
      <defs>
       <path id="m803b1979a6" d="M 0 0 
L 0 -5 
" style="stroke: #000000"/>
      </defs>
      <g>
       <use xlink:href="#m803b1979a6" x="68.106162" y="150.625354" style="stroke: #000000"/>
      </g>
     </g>
     <g id="text_1">
      <!-- $0$ -->
      <g transform="translate(61.106162 175.400979) scale(0.28 -0.28)">
       <defs>
        <path id="Cmr10-30" d="M 1600 -141 
Q 816 -141 533 504 
Q 250 1150 250 2041 
Q 250 2597 351 3087 
Q 453 3578 754 3920 
Q 1056 4263 1600 4263 
Q 2022 4263 2290 4056 
Q 2559 3850 2700 3523 
Q 2841 3197 2892 2823 
Q 2944 2450 2944 2041 
Q 2944 1491 2842 1011 
Q 2741 531 2444 195 
Q 2147 -141 1600 -141 
z
M 1600 25 
Q 1956 25 2131 390 
Q 2306 756 2347 1200 
Q 2388 1644 2388 2144 
Q 2388 2625 2347 3031 
Q 2306 3438 2132 3767 
Q 1959 4097 1600 4097 
Q 1238 4097 1063 3765 
Q 888 3434 847 3029 
Q 806 2625 806 2144 
Q 806 1788 823 1472 
Q 841 1156 916 820 
Q 991 484 1158 254 
Q 1325 25 1600 25 
z
" transform="scale(0.015625)"/>
       </defs>
       <use xlink:href="#Cmr10-30" transform="translate(0 0.390625)"/>
      </g>
     </g>
    </g>
    <g id="xtick_2">
     <g id="line2d_3">
      <g>
       <use xlink:href="#m803b1979a6" x="291.353539" y="150.625354" style="stroke: #000000"/>
      </g>
     </g>
     <g id="text_2">
      <!-- $5$ -->
      <g transform="translate(284.353539 175.400979) scale(0.28 -0.28)">
       <defs>
        <path id="Cmr10-35" d="M 556 728 
Q 622 541 758 387 
Q 894 234 1080 148 
Q 1266 63 1466 63 
Q 1928 63 2103 422 
Q 2278 781 2278 1294 
Q 2278 1516 2270 1667 
Q 2263 1819 2228 1959 
Q 2169 2184 2020 2353 
Q 1872 2522 1656 2522 
Q 1441 2522 1286 2456 
Q 1131 2391 1034 2303 
Q 938 2216 863 2119 
Q 788 2022 769 2016 
L 697 2016 
Q 681 2016 657 2036 
Q 634 2056 634 2075 
L 634 4213 
Q 634 4228 654 4245 
Q 675 4263 697 4263 
L 716 4263 
Q 1147 4056 1631 4056 
Q 2106 4056 2547 4263 
L 2566 4263 
Q 2588 4263 2606 4247 
Q 2625 4231 2625 4213 
L 2625 4153 
Q 2625 4122 2613 4122 
Q 2394 3831 2064 3668 
Q 1734 3506 1381 3506 
Q 1125 3506 856 3578 
L 856 2369 
Q 1069 2541 1236 2614 
Q 1403 2688 1663 2688 
Q 2016 2688 2295 2484 
Q 2575 2281 2725 1954 
Q 2875 1628 2875 1288 
Q 2875 903 2686 575 
Q 2497 247 2172 53 
Q 1847 -141 1466 -141 
Q 1150 -141 886 21 
Q 622 184 470 459 
Q 319 734 319 1044 
Q 319 1188 412 1278 
Q 506 1369 647 1369 
Q 788 1369 883 1276 
Q 978 1184 978 1044 
Q 978 906 883 811 
Q 788 716 647 716 
Q 625 716 597 720 
Q 569 725 556 728 
z
" transform="scale(0.015625)"/>
       </defs>
       <use xlink:href="#Cmr10-35" transform="translate(0 0.390625)"/>
      </g>
     </g>
    </g>
    <g id="xtick_3">
     <g id="line2d_4">
      <g>
       <use xlink:href="#m803b1979a6" x="514.600916" y="150.625354" style="stroke: #000000"/>
      </g>
     </g>
     <g id="text_3">
      <!-- $10$ -->
      <g transform="translate(500.600916 175.400979) scale(0.28 -0.28)">
       <defs>
        <path id="Cmr10-31" d="M 594 0 
L 594 225 
Q 1394 225 1394 428 
L 1394 3788 
Q 1063 3628 556 3628 
L 556 3853 
Q 1341 3853 1741 4263 
L 1831 4263 
Q 1853 4263 1873 4245 
Q 1894 4228 1894 4206 
L 1894 428 
Q 1894 225 2694 225 
L 2694 0 
L 594 0 
z
" transform="scale(0.015625)"/>
       </defs>
       <use xlink:href="#Cmr10-31" transform="translate(0 0.390625)"/>
       <use xlink:href="#Cmr10-30" transform="translate(50 0.390625)"/>
      </g>
     </g>
    </g>
    <g id="xtick_4">
     <g id="line2d_5">
      <g>
       <use xlink:href="#m803b1979a6" x="737.848292" y="150.625354" style="stroke: #000000"/>
      </g>
     </g>
     <g id="text_4">
      <!-- $15$ -->
      <g transform="translate(723.848292 175.400979) scale(0.28 -0.28)">
       <use xlink:href="#Cmr10-31" transform="translate(0 0.390625)"/>
       <use xlink:href="#Cmr10-35" transform="translate(50 0.390625)"/>
      </g>
     </g>
    </g>
    <g id="xtick_5">
     <g id="line2d_6">
      <g>
       <use xlink:href="#m803b1979a6" x="961.095669" y="150.625354" style="stroke: #000000"/>
      </g>
     </g>
     <g id="text_5">
      <!-- $20$ -->
      <g transform="translate(947.095669 175.400979) scale(0.28 -0.28)">
       <defs>
        <path id="Cmr10-32" d="M 319 0 
L 319 172 
Q 319 188 331 206 
L 1325 1306 
Q 1550 1550 1690 1715 
Q 1831 1881 1968 2097 
Q 2106 2313 2186 2536 
Q 2266 2759 2266 3009 
Q 2266 3272 2169 3511 
Q 2072 3750 1880 3894 
Q 1688 4038 1416 4038 
Q 1138 4038 916 3870 
Q 694 3703 603 3438 
Q 628 3444 672 3444 
Q 816 3444 917 3347 
Q 1019 3250 1019 3097 
Q 1019 2950 917 2848 
Q 816 2747 672 2747 
Q 522 2747 420 2851 
Q 319 2956 319 3097 
Q 319 3338 409 3548 
Q 500 3759 670 3923 
Q 841 4088 1055 4175 
Q 1269 4263 1509 4263 
Q 1875 4263 2190 4108 
Q 2506 3953 2690 3670 
Q 2875 3388 2875 3009 
Q 2875 2731 2753 2481 
Q 2631 2231 2440 2026 
Q 2250 1822 1953 1562 
Q 1656 1303 1563 1216 
L 838 519 
L 1453 519 
Q 1906 519 2211 526 
Q 2516 534 2534 550 
Q 2609 631 2688 1141 
L 2875 1141 
L 2694 0 
L 319 0 
z
" transform="scale(0.015625)"/>
       </defs>
       <use xlink:href="#Cmr10-32" transform="translate(0 0.390625)"/>
       <use xlink:href="#Cmr10-30" transform="translate(50 0.390625)"/>
      </g>
     </g>
    </g>
   </g>
   <g id="matplotlib.axis_2">
    <g id="ytick_1">
     <g id="line2d_7">
      <defs>
       <path id="mdce2f18624" d="M 0 0 
L 5 0 
" style="stroke: #000000"/>
      </defs>
      <g>
       <use xlink:href="#mdce2f18624" x="41.316477" y="146.442598" style="stroke: #000000"/>
      </g>
     </g>
     <g id="text_6">
      <!-- $-1$ -->
      <g transform="translate(1.976477 157.080411) scale(0.28 -0.28)">
       <defs>
        <path id="Cmsy10-a1" d="M 653 1472 
Q 600 1472 565 1512 
Q 531 1553 531 1600 
Q 531 1647 565 1687 
Q 600 1728 653 1728 
L 4325 1728 
Q 4375 1728 4408 1687 
Q 4441 1647 4441 1600 
Q 4441 1553 4408 1512 
Q 4375 1472 4325 1472 
L 653 1472 
z
" transform="scale(0.015625)"/>
       </defs>
       <use xlink:href="#Cmsy10-a1" transform="translate(0 0.390625)"/>
       <use xlink:href="#Cmr10-31" transform="translate(77.685547 0.390625)"/>
      </g>
     </g>
    </g>
    <g id="ytick_2">
     <g id="line2d_8">
      <g>
       <use xlink:href="#mdce2f18624" x="41.316477" y="97.072794" style="stroke: #000000"/>
      </g>
     </g>
     <g id="text_7">
      <!-- $0$ -->
      <g transform="translate(23.816477 107.710606) scale(0.28 -0.28)">
       <use xlink:href="#Cmr10-30" transform="translate(0 0.390625)"/>
      </g>
     </g>
    </g>
    <g id="ytick_3">
     <g id="line2d_9">
      <g>
       <use xlink:href="#mdce2f18624" x="41.316477" y="47.702989" style="stroke: #000000"/>
      </g>
     </g>
     <g id="text_8">
      <!-- $1$ -->
      <g transform="translate(23.816477 58.340801) scale(0.28 -0.28)">
       <use xlink:href="#Cmr10-31" transform="translate(0 0.390625)"/>
      </g>
     </g>
    </g>
   </g>
   <g id="line2d_10">
    <path d="M 68.106162 47.702989 
L 68.530332 47.809371 
L 68.999151 48.173906 
L 69.534945 48.905545 
L 70.160038 50.177167 
L 70.874429 52.166783 
L 71.722769 55.239564 
L 72.705058 59.69334 
L 73.865944 66.059652 
L 75.272403 75.088832 
L 77.19233 88.997522 
L 81.724252 122.337446 
L 83.197685 131.273607 
L 84.40322 137.285523 
L 85.407834 141.236288 
L 86.256174 143.745563 
L 86.970565 145.236637 
L 87.573333 146.037597 
L 88.086802 146.384078 
L 88.533297 146.432305 
L 88.979792 146.244842 
L 89.470936 145.767511 
L 90.029054 144.883831 
L 90.676472 143.412553 
L 91.435513 141.096764 
L 92.328502 137.598011 
L 93.35544 132.623549 
L 94.583301 125.511426 
L 96.123708 115.174904 
L 98.44548 97.863769 
L 101.593268 74.659371 
L 103.156 64.774427 
L 104.406185 58.196458 
L 105.455448 53.787307 
L 106.348438 50.928593 
L 107.107479 49.189142 
L 107.732571 48.25166 
L 108.268365 47.811416 
L 108.737185 47.703963 
L 109.161355 47.830696 
L 109.630174 48.217614 
L 110.165968 48.974544 
L 110.79106 50.27506 
L 111.527777 52.368695 
L 112.376117 55.496875 
L 113.358405 60.009202 
L 114.519292 66.435219 
L 115.948075 75.674 
L 117.912652 89.978358 
L 122.199001 121.573898 
L 123.694759 130.755521 
L 124.900295 136.867436 
L 125.927233 140.990981 
L 126.797897 143.622888 
L 127.534614 145.191942 
L 128.159706 146.033622 
L 128.673175 146.382558 
L 129.11967 146.432929 
L 129.566165 146.247606 
L 130.034984 145.800335 
L 130.593103 144.933699 
L 131.24052 143.481716 
L 131.999561 141.187653 
L 132.870226 137.80946 
L 133.897164 132.880826 
L 135.125024 125.814893 
L 136.643107 115.678842 
L 138.897905 98.918052 
L 142.201966 74.535086 
L 143.764698 64.668983 
L 145.014883 58.110574 
L 146.064146 53.720348 
L 146.957135 50.879149 
L 147.716177 49.155342 
L 148.341269 48.231102 
L 148.877063 47.802366 
L 149.323558 47.703778 
L 149.747728 47.828476 
L 150.216547 48.213156 
L 150.752341 48.967559 
L 151.377433 50.265188 
L 152.11415 52.35554 
L 152.96249 55.480155 
L 153.944778 59.988718 
L 155.105665 66.410901 
L 156.534448 75.646049 
L 158.499025 89.947661 
L 162.807699 121.694987 
L 164.303457 130.857443 
L 165.508992 136.949892 
L 166.53593 141.054568 
L 167.406595 143.669201 
L 168.143311 145.222971 
L 168.746079 146.029628 
L 169.259548 146.381019 
L 169.706043 146.433533 
L 170.152538 146.25035 
L 170.621357 145.805312 
L 171.179476 144.9413 
L 171.826893 143.492288 
L 172.585934 141.20157 
L 173.456599 137.826976 
L 174.483537 132.902174 
L 175.711398 125.840109 
L 177.22948 115.707571 
L 179.484278 98.949049 
L 182.788339 74.562689 
L 184.351071 64.692393 
L 185.601256 58.129632 
L 186.650519 53.735198 
L 187.543509 50.890104 
L 188.30255 49.16282 
L 188.927642 48.235637 
L 189.463436 47.804343 
L 189.909931 47.703613 
L 190.334101 47.826275 
L 190.80292 48.208718 
L 191.338714 48.960592 
L 191.963807 50.255334 
L 192.700523 52.342403 
L 193.548863 55.463451 
L 194.531151 59.968248 
L 195.692038 66.386595 
L 197.120821 75.618107 
L 199.085398 89.916968 
L 203.394072 121.668095 
L 204.88983 130.834817 
L 206.095366 136.931596 
L 207.122303 141.040468 
L 207.992968 143.658942 
L 208.729685 145.216109 
L 209.332452 146.025614 
L 209.845921 146.37946 
L 210.292416 146.434118 
L 210.738911 146.253076 
L 211.20773 145.810271 
L 211.765849 144.948882 
L 212.413266 143.502842 
L 213.172307 141.21547 
L 214.042972 137.844476 
L 215.06991 132.923508 
L 216.297771 125.865313 
L 217.815853 115.736293 
L 220.070651 98.980047 
L 223.374712 74.590301 
L 224.937444 64.715815 
L 226.187629 58.148706 
L 227.236892 53.750065 
L 228.129882 50.901078 
L 228.888923 49.170317 
L 229.514015 48.240191 
L 230.049809 47.80634 
L 230.496304 47.703466 
L 230.920474 47.824094 
L 231.389293 48.204299 
L 231.925087 48.953645 
L 232.55018 50.245498 
L 233.286896 52.329283 
L 234.135236 55.446764 
L 235.117525 59.947792 
L 236.278411 66.362301 
L 237.707194 75.590174 
L 239.671771 89.886277 
L 243.980445 121.641194 
L 245.476203 130.812177 
L 246.681739 136.913285 
L 247.708677 141.026351 
L 248.579341 143.648664 
L 249.316058 145.209228 
L 249.918826 146.021581 
L 250.432295 146.377882 
L 250.878789 146.434683 
L 251.325284 146.255781 
L 251.794104 145.81521 
L 252.352222 144.956445 
L 252.999639 143.513377 
L 253.75868 141.229353 
L 254.629345 137.86196 
L 255.656283 132.944827 
L 256.861819 126.028862 
L 258.357576 116.080375 
L 260.567725 99.692749 
L 263.98341 74.466116 
L 265.546142 64.610515 
L 266.796327 58.062995 
L 267.84559 53.683298 
L 268.738579 50.851839 
L 269.497621 49.136729 
L 270.122713 48.21985 
L 270.658507 47.797509 
L 271.105002 47.704278 
L 271.529172 47.834062 
L 271.997991 48.224336 
L 272.533785 48.985058 
L 273.158878 50.289904 
L 273.895594 52.38846 
L 274.743934 55.521985 
L 275.726222 60.039957 
L 276.887109 66.471719 
L 278.315892 75.715941 
L 280.280469 90.024408 
L 284.566818 121.614283 
L 286.062576 130.789525 
L 287.268112 136.894957 
L 288.29505 141.012216 
L 289.165714 143.638367 
L 289.902431 145.202328 
L 290.505199 146.017529 
L 291.018668 146.376285 
L 291.465162 146.435229 
L 291.911657 146.258468 
L 292.380477 145.82013 
L 292.938595 144.963989 
L 293.586013 143.523894 
L 294.345054 141.243218 
L 295.215718 137.879428 
L 296.242656 132.966133 
L 297.448192 126.05398 
L 298.94395 116.109 
L 301.154099 99.723725 
L 304.569783 74.493697 
L 306.132515 64.633893 
L 307.3827 58.082015 
L 308.431963 53.698105 
L 309.324953 50.862749 
L 310.083994 49.14416 
L 310.709086 48.224336 
L 311.24488 47.799437 
L 311.691375 47.704063 
L 312.115545 47.831813 
L 312.584364 48.21985 
L 313.120158 48.978044 
L 313.745251 50.280003 
L 314.481967 52.375279 
L 315.330307 55.505241 
L 316.312595 60.01945 
L 317.473482 66.447383 
L 318.902265 75.687978 
L 320.866842 89.993707 
L 325.153192 121.587362 
L 326.648949 130.766859 
L 327.854485 136.876614 
L 328.881423 140.998064 
L 329.752088 143.628052 
L 330.488804 145.195409 
L 331.091572 146.013458 
L 331.605041 146.374668 
L 332.051536 146.435755 
L 332.49803 146.261135 
L 332.96685 145.825031 
L 333.524968 144.971515 
L 334.172386 143.534392 
L 334.931427 141.257066 
L 335.802091 137.89688 
L 336.829029 132.987424 
L 338.034565 126.079088 
L 339.530323 116.137618 
L 341.740472 99.7547 
L 345.178481 74.369652 
L 346.741213 64.528794 
L 347.991398 57.996546 
L 349.040661 53.631608 
L 349.93365 50.813798 
L 350.692691 49.11087 
L 351.317784 48.204299 
L 351.853578 47.790913 
L 352.300073 47.705181 
L 352.724243 47.842087 
L 353.193062 48.240191 
L 353.728856 49.009755 
L 354.353948 50.3247 
L 355.090665 52.434733 
L 355.939005 55.580721 
L 356.943618 60.225172 
L 358.126829 66.825949 
L 359.577937 76.276959 
L 361.609488 91.146794 
L 365.650266 120.965535 
L 367.168348 130.368061 
L 368.396208 136.655271 
L 369.423146 140.826886 
L 370.293811 143.502842 
L 371.030528 145.110901 
L 371.65562 145.986522 
L 372.169089 146.363683 
L 372.615584 146.4387 
L 373.039754 146.291622 
L 373.508573 145.882337 
L 374.044367 145.100146 
L 374.66946 143.770786 
L 375.406176 141.644376 
L 376.254516 138.480611 
L 377.259129 133.817007 
L 378.44234 127.196907 
L 379.893448 117.727857 
L 381.924999 102.844786 
L 385.921128 73.343094 
L 387.43921 63.915186 
L 388.66707 57.601833 
L 389.694008 53.405223 
L 390.564673 50.706341 
L 391.301389 49.077964 
L 391.926482 48.184652 
L 392.439951 47.792773 
L 392.886446 47.704899 
L 393.310616 47.83977 
L 393.779435 48.235637 
L 394.315229 49.002675 
L 394.940322 50.314735 
L 395.677038 52.42149 
L 396.525378 55.563919 
L 397.529991 60.204535 
L 398.713202 66.801438 
L 400.16431 76.24883 
L 402.173537 90.946672 
L 406.258964 121.087594 
L 407.777046 130.470995 
L 409.004906 136.738539 
L 410.031844 140.89137 
L 410.902509 143.550105 
L 411.639225 145.142912 
L 412.264318 146.005257 
L 412.777787 146.371376 
L 413.224282 146.436749 
L 413.670776 146.26641 
L 414.139596 145.834774 
L 414.697714 144.986509 
L 415.345132 143.555334 
L 416.104173 141.284709 
L 416.974838 137.931736 
L 418.001776 133.029965 
L 419.207311 126.129267 
L 420.703069 116.19483 
L 422.890893 99.986975 
L 426.351227 74.424761 
L 427.913959 64.575472 
L 429.164144 58.034494 
L 430.213407 53.661119 
L 431.106397 50.835509 
L 431.865438 49.125618 
L 432.49053 48.213156 
L 433.026324 47.794653 
L 433.472819 47.704636 
L 433.896989 47.837473 
L 434.365808 48.231102 
L 434.901602 48.995614 
L 435.526695 50.304789 
L 436.263411 52.408265 
L 437.111751 55.547133 
L 438.116364 60.183911 
L 439.299575 66.77694 
L 440.750683 76.220708 
L 442.75991 90.915893 
L 446.845337 121.060486 
L 448.363419 130.448144 
L 449.591279 136.720062 
L 450.618217 140.87707 
L 451.488882 143.539634 
L 452.225598 145.135832 
L 452.850691 146.001128 
L 453.36416 146.3697 
L 453.810655 146.437217 
L 454.25715 146.269019 
L 454.725969 145.839617 
L 455.284088 144.993977 
L 455.931505 143.565777 
L 456.690546 141.298505 
L 457.561211 137.949139 
L 458.588149 133.051213 
L 459.793685 126.15434 
L 461.289442 116.223425 
L 463.477266 100.017941 
L 466.959925 74.300816 
L 468.522657 64.470519 
L 469.772842 57.949198 
L 470.822105 53.594815 
L 471.715094 50.786762 
L 472.451811 49.133021 
L 473.076903 48.217614 
L 473.612697 47.796552 
L 474.059192 47.704392 
L 474.483362 47.835194 
L 474.952181 48.226587 
L 475.487975 48.988572 
L 476.113068 50.294861 
L 476.849784 52.395057 
L 477.698124 55.530364 
L 478.680413 60.050215 
L 479.841299 66.483892 
L 481.270082 75.729926 
L 483.234659 90.03976 
L 487.521009 121.627739 
L 489.016766 130.800853 
L 490.222302 136.904123 
L 491.24924 141.019285 
L 492.119905 143.643518 
L 492.856621 145.20578 
L 493.459389 146.019558 
L 493.972858 146.377086 
L 494.419353 146.434958 
L 494.865847 146.257127 
L 495.334667 145.817672 
L 495.892785 144.960219 
L 496.540203 143.518637 
L 497.299244 141.236288 
L 498.169909 137.870696 
L 499.196847 132.955482 
L 500.402382 126.041423 
L 501.89814 116.094688 
L 504.108289 99.708237 
L 507.523974 74.479905 
L 509.086705 64.622202 
L 510.336891 58.072503 
L 511.386153 53.690699 
L 512.279143 50.857292 
L 513.038184 49.140442 
L 513.663277 48.222091 
L 514.19907 47.798471 
L 514.645565 47.704168 
L 515.069735 47.832935 
L 515.538555 48.222091 
L 516.074348 48.981548 
L 516.699441 50.284951 
L 517.436157 52.381867 
L 518.284497 55.513611 
L 519.266786 60.029701 
L 520.427672 66.459549 
L 521.856455 75.701959 
L 523.821032 90.009057 
L 528.107382 121.600823 
L 529.603139 130.778194 
L 530.808675 136.885787 
L 531.835613 141.005142 
L 532.706278 143.633212 
L 533.442994 145.198871 
L 534.045762 146.015496 
L 534.559231 146.375479 
L 535.005726 146.435494 
L 535.452221 146.259804 
L 535.92104 145.822583 
L 536.479158 144.967754 
L 537.126576 143.529145 
L 537.885617 141.250144 
L 538.756282 137.888156 
L 539.78322 132.97678 
L 540.988755 126.066535 
L 542.484513 116.12331 
L 544.694662 99.739212 
L 548.132672 74.35588 
L 549.695403 64.517133 
L 550.945588 57.987069 
L 551.994851 53.62424 
L 552.887841 50.808382 
L 553.646882 49.107195 
L 554.271974 48.202097 
L 554.807768 47.78999 
L 555.254263 47.70533 
L 555.678433 47.843253 
L 556.147252 48.242475 
L 556.683046 49.013303 
L 557.308139 50.329689 
L 558.044855 52.441361 
L 558.893195 55.589128 
L 559.897808 60.235497 
L 561.081019 66.838209 
L 562.532127 76.291027 
L 564.563678 91.162192 
L 568.604456 120.979107 
L 570.122538 130.379511 
L 571.350399 136.664538 
L 572.377337 140.834068 
L 573.248001 143.508111 
L 573.984718 145.114477 
L 574.60981 145.988623 
L 575.123279 146.364557 
L 575.569774 146.438503 
L 575.993944 146.290408 
L 576.462764 145.880005 
L 576.998557 145.096551 
L 577.62365 143.765751 
L 578.360366 141.637703 
L 579.208706 138.472163 
L 580.21332 133.806647 
L 581.396531 127.184617 
L 582.847639 117.713768 
L 584.87919 102.829382 
L 588.875318 73.329494 
L 590.3934 63.903696 
L 591.621261 57.592518 
L 592.648198 53.397989 
L 593.518863 50.701016 
L 594.25558 49.074331 
L 594.880672 48.182493 
L 595.394141 47.791841 
L 595.840636 47.705038 
L 596.264806 47.840926 
L 596.733625 48.237912 
L 597.269419 49.006213 
L 597.894512 50.319715 
L 598.631228 52.428109 
L 599.479568 55.572317 
L 600.484181 60.214852 
L 601.667392 66.813692 
L 603.1185 76.262893 
L 605.150052 91.131396 
L 609.190829 120.951961 
L 610.708911 130.356607 
L 611.936772 136.645999 
L 612.96371 140.8197 
L 613.834375 143.497567 
L 614.571091 145.107321 
L 615.196184 145.984417 
L 615.709652 146.362804 
L 616.156147 146.438893 
L 616.580317 146.292832 
L 617.049137 145.884665 
L 617.58493 145.103736 
L 618.210023 143.775817 
L 618.946739 141.651043 
L 619.795079 138.489055 
L 620.799693 133.827365 
L 621.982904 127.209193 
L 623.434012 117.741943 
L 625.465563 102.860189 
L 629.461691 73.356696 
L 630.979773 63.926679 
L 632.207634 57.611151 
L 633.234572 53.412461 
L 634.105236 50.711671 
L 634.841953 49.081601 
L 635.467045 48.186816 
L 635.980514 47.793711 
L 636.427009 47.704765 
L 636.851179 47.838619 
L 637.319999 48.233367 
L 637.855792 48.999142 
L 638.480885 50.30976 
L 639.217601 52.414875 
L 640.065941 55.555524 
L 641.070554 60.194221 
L 642.253766 66.789187 
L 643.704874 76.234768 
L 645.7141 90.931282 
L 649.799527 121.074041 
L 651.317609 130.459571 
L 652.54547 136.729302 
L 653.572408 140.884222 
L 654.443072 143.544872 
L 655.179789 145.139374 
L 655.804881 146.003195 
L 656.31835 146.37054 
L 656.764845 146.436985 
L 657.21134 146.267717 
L 657.680159 145.837198 
L 658.238278 144.990245 
L 658.885695 143.560558 
L 659.644736 141.291609 
L 660.515401 137.940439 
L 661.542339 133.040591 
L 662.747875 126.141805 
L 664.243632 116.209128 
L 666.431456 100.002458 
L 669.891791 74.438543 
L 671.454522 64.58715 
L 672.704708 58.04399 
L 673.75397 53.668508 
L 674.64696 50.840948 
L 675.406001 49.129317 
L 676.031094 48.215383 
L 676.566887 47.7956 
L 677.013382 47.704512 
L 677.437552 47.836331 
L 677.906372 48.228842 
L 678.442165 48.99209 
L 679.067258 50.299822 
L 679.803974 52.401659 
L 680.652314 55.538746 
L 681.656928 60.173605 
L 682.840139 66.764695 
L 684.291247 76.206651 
L 686.300473 90.900504 
L 690.3859 121.046929 
L 691.903982 130.436714 
L 693.131843 136.710818 
L 694.158781 140.869914 
L 695.029445 143.534392 
L 695.766162 145.132285 
L 696.391254 145.999056 
L 696.904723 146.368855 
L 697.351218 146.437443 
L 697.797713 146.270316 
L 698.266532 145.842031 
L 698.802326 145.038392 
L 699.449744 143.628052 
L 700.18646 141.455897 
L 701.057125 138.148118 
L 702.061738 133.410263 
L 703.267274 126.578812 
L 704.740706 116.86479 
L 706.861556 101.224559 
L 710.545138 74.012322 
L 712.085545 64.354209 
L 713.33573 57.854792 
L 714.362668 53.602165 
L 715.255658 50.79216 
L 716.014699 49.096198 
L 716.639792 48.195519 
L 717.175585 47.787251 
L 717.62208 47.705805 
L 718.04625 47.84678 
L 718.515069 48.249357 
L 719.050863 49.023973 
L 719.675956 50.344685 
L 720.412672 52.461272 
L 721.261012 55.614374 
L 722.265625 60.266492 
L 723.448837 66.875006 
L 724.899944 76.333243 
L 726.931496 91.20839 
L 730.949948 120.870469 
L 732.468031 130.287817 
L 733.695891 136.590288 
L 734.722829 140.776491 
L 735.593494 143.465824 
L 736.33021 145.085739 
L 736.955303 145.971681 
L 737.468772 146.357428 
L 737.915267 146.439945 
L 738.339437 146.299988 
L 738.808256 145.898529 
L 739.34405 145.125176 
L 739.969142 143.805905 
L 740.705859 141.690957 
L 741.554199 138.539633 
L 742.558812 133.889431 
L 743.742023 127.28285 
L 745.193131 117.826418 
L 747.224682 102.952597 
L 751.243135 73.288709 
L 752.761217 63.869247 
L 753.989078 57.564598 
L 755.016016 53.376313 
L 755.88668 50.685069 
L 756.623397 49.063462 
L 757.248489 48.176046 
L 757.761958 47.789072 
L 758.208453 47.705484 
L 758.632623 47.844424 
L 759.101443 48.244764 
L 759.637236 49.016855 
L 760.262329 50.334683 
L 760.999045 52.447993 
L 761.847385 55.597539 
L 762.851999 60.245825 
L 764.03521 66.850471 
L 765.486318 76.305097 
L 767.517869 91.177591 
L 771.536321 120.843286 
L 773.054404 130.26486 
L 774.282264 136.571686 
L 775.309202 140.762053 
L 776.179867 143.455207 
L 776.916583 145.078507 
L 777.541676 145.967397 
L 778.055145 146.355597 
L 778.50164 146.440257 
L 778.92581 146.302334 
L 779.394629 145.903112 
L 779.930423 145.132285 
L 780.555516 143.815898 
L 781.292232 141.704226 
L 782.140572 138.55646 
L 783.145185 133.91009 
L 784.328396 127.307379 
L 785.779504 117.85456 
L 787.811055 102.983395 
L 791.851833 73.16648 
L 793.369915 63.766076 
L 794.597776 57.481049 
L 795.624713 53.311519 
L 796.495378 50.637476 
L 797.232095 49.03111 
L 797.857187 48.156964 
L 798.370656 47.78103 
L 798.817151 47.707084 
L 799.241321 47.855179 
L 799.71014 48.265582 
L 800.245934 49.049036 
L 800.871027 50.379837 
L 801.607743 52.507884 
L 802.456083 55.673424 
L 803.460696 60.33894 
L 804.643907 66.96097 
L 806.095015 76.431819 
L 808.126567 91.316205 
L 812.122695 120.816093 
L 813.640777 130.241891 
L 814.868637 136.553069 
L 815.895575 140.747598 
L 816.76624 143.444571 
L 817.502956 145.071256 
L 818.128049 145.963094 
L 818.641518 146.353746 
L 819.088013 146.44055 
L 819.512183 146.304661 
L 819.981002 145.907676 
L 820.516796 145.139374 
L 821.141889 143.825872 
L 821.878605 141.717478 
L 822.726945 138.57327 
L 823.731558 133.930736 
L 824.914769 127.331895 
L 826.365877 117.882694 
L 828.397428 103.014191 
L 832.438206 73.193626 
L 833.956288 63.78898 
L 835.184149 57.499588 
L 836.211087 53.325887 
L 837.081751 50.64802 
L 837.818468 49.038266 
L 838.44356 48.16117 
L 838.957029 47.782783 
L 839.403524 47.706694 
L 839.827694 47.852755 
L 840.296514 48.260922 
L 840.832307 49.041851 
L 841.4574 50.36977 
L 842.194116 52.494544 
L 843.042456 55.656532 
L 844.047069 60.318223 
L 845.230281 66.936394 
L 846.681389 76.403644 
L 848.71294 91.285398 
L 852.709068 120.788892 
L 854.22715 130.218908 
L 855.45501 136.534436 
L 856.481948 140.733126 
L 857.352613 143.433917 
L 858.089329 145.063986 
L 858.714422 145.958771 
L 859.227891 146.351876 
L 859.674386 146.440822 
L 860.098556 146.306968 
L 860.567375 145.91222 
L 861.103169 145.146445 
L 861.728262 143.835828 
L 862.464978 141.730712 
L 863.313318 138.590064 
L 864.317931 133.951366 
L 865.501142 127.3564 
L 866.95225 117.910819 
L 868.961477 103.214305 
L 873.046904 73.071546 
L 874.564986 63.686016 
L 875.792846 57.416285 
L 876.819784 53.261365 
L 877.690449 50.600715 
L 878.427165 49.006213 
L 879.052258 48.142393 
L 879.565727 47.775047 
L 880.012222 47.708602 
L 880.458717 47.87787 
L 880.927536 48.308389 
L 881.485655 49.155342 
L 882.133072 50.585029 
L 882.892113 52.853978 
L 883.762778 56.205148 
L 884.789716 61.104997 
L 885.995252 68.003782 
L 887.491009 77.936459 
L 889.678833 94.143129 
L 893.139168 119.707044 
L 894.701899 129.558437 
L 895.952085 136.101597 
L 897.001347 140.47708 
L 897.894337 143.30464 
L 898.653378 145.01627 
L 899.27847 145.930205 
L 899.814264 146.349987 
L 900.260759 146.441076 
L 900.684929 146.309256 
L 901.153748 145.916745 
L 901.689542 145.153497 
L 902.314635 143.845765 
L 903.051351 141.743929 
L 903.899691 138.606841 
L 904.904304 133.971982 
L 906.087515 127.380892 
L 907.538623 117.938937 
L 909.54785 103.245083 
L 913.633277 73.098658 
L 915.151359 63.708874 
L 916.37922 57.434769 
L 917.406157 53.275673 
L 918.276822 50.611195 
L 919.013539 49.013303 
L 919.638631 48.146532 
L 920.1521 47.776732 
L 920.598595 47.708144 
L 921.04509 47.875272 
L 921.513909 48.303556 
L 922.049703 49.107195 
L 922.69712 50.517535 
L 923.433837 52.689691 
L 924.304501 55.997469 
L 925.309115 60.735324 
L 926.51465 67.566775 
L 927.988083 77.280797 
L 930.108933 92.921028 
L 933.792515 120.133265 
L 935.332922 129.791379 
L 936.583107 136.290795 
L 937.610045 140.543423 
L 938.503035 143.353427 
L 939.262076 145.049389 
L 939.887168 145.950068 
L 940.422962 146.358336 
L 940.869457 146.439782 
L 941.293627 146.298807 
L 941.762446 145.896231 
L 942.29824 145.121614 
L 942.923333 143.800902 
L 943.660049 141.684316 
L 944.508389 138.531214 
L 945.513002 133.879095 
L 946.696213 127.270581 
L 948.147321 117.812344 
L 950.178872 102.937197 
L 954.197325 73.275118 
L 955.715407 63.857771 
L 956.943268 57.555299 
L 957.970206 53.369097 
L 958.840871 50.679763 
L 959.577587 49.059848 
L 960.20268 48.173906 
L 960.716149 47.788159 
L 961.095669 47.702989 
L 961.095669 47.702989 
" clip-path="url(#p7b6f612e46)" style="fill: none; stroke: #e36f47; stroke-width: 6"/>
   </g>
   <g id="patch_3">
    <path d="M 41.316477 150.625354 
L 41.316477 2.834646 
" style="fill: none; stroke: #000000; stroke-width: 2; stroke-linejoin: miter; stroke-linecap: square"/>
   </g>
   <g id="patch_4">
    <path d="M 41.316477 150.625354 
L 987.885354 150.625354 
" style="fill: none; stroke: #000000; stroke-width: 2; stroke-linejoin: miter; stroke-linecap: square"/>
   </g>
   <g id="line2d_11">
    <path d="M 68.106162 23.018086 
L 71.544172 28.506292 
L 75.026831 33.651218 
L 78.554139 38.468726 
L 82.126097 42.974421 
L 85.765029 47.208554 
L 89.470936 51.180183 
L 93.243817 54.898786 
L 97.105996 58.393512 
L 101.057475 61.669527 
L 104.919654 64.603199 
L 104.941979 15.255622 
L 105.031278 15.419092 
L 108.446963 21.43265 
L 111.884973 27.038352 
L 115.367632 32.293426 
L 118.89494 37.214072 
L 122.466898 41.816229 
L 126.083506 46.115538 
L 129.767087 50.15077 
L 133.517643 53.931219 
L 137.357498 57.486333 
L 141.286652 60.821062 
L 145.305105 63.941206 
L 147.247357 65.351533 
L 147.269682 16.008913 
L 147.358981 16.170879 
L 150.774666 22.129069 
L 154.212675 27.683159 
L 157.695334 32.88985 
L 161.222643 37.765191 
L 164.794601 42.324977 
L 168.411208 46.584702 
L 172.09479 50.582782 
L 175.845346 54.328423 
L 180.265644 58.709603 
L 181.225608 60.381511 
L 183.368783 64.217041 
L 184.574318 65.800164 
L 186.583545 68.038523 
L 188.190926 69.438528 
L 189.775982 70.532298 
L 191.361039 71.360931 
L 191.428013 71.390508 
L 191.450338 22.04148 
L 191.539637 22.154276 
L 192.700523 23.429374 
L 193.839085 24.361132 
L 194.999971 25.027849 
L 196.227831 25.472987 
L 197.58964 25.725318 
L 199.397944 25.815217 
L 202.791304 25.95034 
L 204.175438 26.261728 
L 205.403299 26.768067 
L 206.564185 27.489805 
L 207.725071 28.475724 
L 208.952932 29.82128 
L 210.270091 31.609186 
L 211.743524 34.00221 
L 213.484854 37.278695 
L 215.873601 42.297711 
L 221.075265 53.346313 
L 223.12914 57.112796 
L 224.937444 59.977243 
L 226.589475 62.191908 
L 228.174531 63.952047 
L 229.692613 65.313709 
L 231.188371 66.364369 
L 231.858113 66.747701 
L 231.880438 17.390191 
L 231.969737 17.513817 
L 233.130623 18.915478 
L 234.269184 19.946838 
L 235.407746 20.680275 
L 236.590957 21.175995 
L 237.885792 21.472562 
L 239.493173 21.599224 
L 243.757198 21.815312 
L 245.052033 22.182227 
L 246.212919 22.740262 
L 247.351481 23.537344 
L 248.512367 24.6308 
L 249.717903 26.079217 
L 251.035062 28.02143 
L 252.53082 30.646315 
L 254.316799 34.261552 
L 256.839494 39.929764 
L 261.416066 50.244582 
L 263.514591 54.379554 
L 265.322895 57.466834 
L 266.974925 59.863438 
L 268.537657 61.751676 
L 269.497621 62.732893 
L 269.519945 13.402795 
L 269.609244 13.608231 
L 270.881754 16.242527 
L 272.109615 18.288863 
L 273.292826 19.836722 
L 274.431388 20.970697 
L 275.569949 21.796117 
L 276.730836 22.365163 
L 277.981021 22.727588 
L 279.454454 22.912021 
L 281.932499 22.950063 
L 283.941726 23.081943 
L 285.303535 23.393234 
L 286.509071 23.897424 
L 287.647632 24.614662 
L 288.808519 25.616439 
L 290.014054 26.962391 
L 291.308889 28.755257 
L 292.759997 31.165177 
L 294.456677 34.439592 
L 296.711476 39.318705 
L 302.560557 52.198681 
L 304.569783 55.960369 
L 305.909268 58.16324 
L 305.931592 8.871278 
L 306.020891 9.182873 
L 307.561298 14.136279 
L 308.990082 18.017422 
L 310.35189 21.092568 
L 311.624401 23.441622 
L 312.852261 25.259408 
L 314.035472 26.627957 
L 315.196359 27.641282 
L 316.357245 28.367498 
L 317.562781 28.863674 
L 318.902265 29.169659 
L 320.554296 29.303663 
L 325.153192 29.541037 
L 326.470351 29.915432 
L 327.675887 30.486777 
L 328.859098 31.296776 
L 330.064634 32.398658 
L 331.337144 33.872912 
L 332.721278 35.827109 
L 334.306334 38.464728 
L 336.293236 42.23559 
L 339.976817 49.831208 
L 342.856709 55.512062 
L 343.303203 56.330181 
L 343.325528 7.017402 
L 343.414827 7.3734 
L 345.290105 14.378689 
L 346.96446 19.802021 
L 348.482542 23.997628 
L 349.911326 27.317078 
L 351.25081 29.891345 
L 352.545645 31.911231 
L 353.773505 33.431115 
L 354.979041 34.581597 
L 356.184577 35.429676 
L 357.412438 36.024115 
L 358.729597 36.412479 
L 360.247679 36.620483 
L 362.480153 36.673108 
L 365.136797 36.7843 
L 366.632554 37.076381 
L 367.927389 37.552353 
L 369.177574 38.252906 
L 370.42776 39.217087 
L 371.722594 40.505195 
L 373.129053 42.230323 
L 374.714109 44.540951 
L 376.656361 47.788193 
L 379.871124 53.676302 
L 382.929613 59.157761 
L 382.951937 9.853582 
L 383.041236 10.201555 
L 385.095112 17.738468 
L 386.836442 23.32104 
L 388.421498 27.687244 
L 389.894931 31.118893 
L 391.279065 33.801648 
L 392.596224 35.889381 
L 393.868734 37.502957 
L 395.096595 38.714638 
L 396.324455 39.621219 
L 397.574641 40.269908 
L 398.8918 40.702285 
L 400.387558 40.951853 
L 402.374459 41.037169 
L 405.924093 41.16506 
L 407.442175 41.472189 
L 408.781659 41.971769 
L 410.054169 42.686406 
L 411.326679 43.658183 
L 412.666163 44.966349 
L 414.139596 46.729176 
L 415.836276 49.125844 
L 418.001776 52.601431 
L 424.498274 63.400446 
L 424.520599 14.08045 
L 424.609898 14.408456 
L 426.485176 20.861913 
L 428.159531 25.856627 
L 429.699938 29.771679 
L 431.128721 32.818487 
L 432.49053 35.215013 
L 433.785365 37.059029 
L 435.03555 38.46644 
L 436.263411 39.524056 
L 437.491272 40.295541 
L 438.763782 40.835334 
L 440.147915 41.178334 
L 441.799946 41.347725 
L 447.738326 41.727955 
L 449.100135 42.182498 
L 450.372645 42.840686 
L 451.645155 43.750894 
L 452.98464 44.992429 
L 454.435747 46.656533 
L 456.065453 48.87837 
L 458.097004 52.049119 
L 462.115457 58.859325 
L 464.883725 63.29652 
L 466.959925 66.218061 
L 467.205497 66.535167 
L 467.227822 17.212521 
L 467.317121 17.509673 
L 468.969152 22.59816 
L 470.487234 26.574852 
L 471.893692 29.662899 
L 473.233177 32.08887 
L 474.505687 33.953993 
L 475.733547 35.377364 
L 476.939083 36.447747 
L 478.144619 37.229892 
L 479.394804 37.778962 
L 480.756613 38.129856 
L 482.363994 38.303895 
L 485.400159 38.344273 
L 487.342411 38.501511 
L 488.793519 38.841797 
L 490.088354 39.375138 
L 491.338539 40.134351 
L 492.611049 41.175686 
L 493.950533 42.570568 
L 495.423966 44.442184 
L 497.120646 46.976778 
L 499.30847 50.677315 
L 506.005892 62.282535 
L 507.992793 65.131148 
L 509.778772 67.3159 
L 509.801097 67.340852 
L 509.823422 18.031147 
L 509.912721 18.294519 
L 511.386153 22.279474 
L 512.770287 25.411488 
L 514.087447 27.863348 
L 515.337632 29.74182 
L 516.543168 31.170676 
L 517.726379 32.241658 
L 518.90959 33.021387 
L 520.13745 33.566279 
L 521.476935 33.911842 
L 523.061991 34.079908 
L 528.732474 34.455321 
L 530.027309 34.902982 
L 531.25517 35.564253 
L 532.48303 36.486015 
L 533.75554 37.731604 
L 535.117349 39.389538 
L 536.635432 41.602984 
L 538.443735 44.653325 
L 541.01108 49.468126 
L 545.587651 58.067479 
L 547.708502 61.543353 
L 549.561455 64.164283 
L 551.079537 65.994481 
L 551.101862 16.659065 
L 551.191161 16.913733 
L 552.619944 20.63621 
L 553.981753 23.580611 
L 555.254263 25.825483 
L 556.482123 27.558757 
L 557.665335 28.860086 
L 558.848546 29.835872 
L 560.031757 30.526413 
L 561.259617 30.98892 
L 562.643751 31.266933 
L 564.407405 31.376325 
L 568.381209 31.544487 
L 569.765342 31.876961 
L 571.015528 32.407013 
L 572.221063 33.165791 
L 573.426599 34.192703 
L 574.699109 35.578212 
L 576.083243 37.428104 
L 577.645975 39.9037 
L 579.565902 43.388449 
L 582.669041 49.562936 
L 586.084726 56.208659 
L 588.205576 59.856252 
L 590.058529 62.612379 
L 591.040817 63.894569 
L 591.063142 14.582815 
L 591.152441 14.856559 
L 592.625874 18.996186 
L 594.010007 22.24615 
L 595.327167 24.787222 
L 596.577352 26.731276 
L 597.782888 28.207485 
L 598.966099 29.311555 
L 600.14931 30.113023 
L 601.354846 30.662748 
L 602.672006 31.013645 
L 604.212413 31.185253 
L 607.203927 31.227138 
L 609.034556 31.389117 
L 610.41869 31.733178 
L 611.64655 32.264936 
L 612.852086 33.034379 
L 614.057622 34.073239 
L 615.330132 35.472168 
L 616.714266 37.336861 
L 618.299322 39.866705 
L 620.241574 43.416435 
L 623.500986 49.930979 
L 626.738073 56.220474 
L 628.858923 59.86296 
L 630.377005 62.147044 
L 630.39933 12.819184 
L 630.488629 13.120973 
L 632.05136 17.99388 
L 633.502468 21.822914 
L 634.864277 24.818224 
L 636.159112 27.152881 
L 637.409298 28.962241 
L 638.614833 30.326241 
L 639.798044 31.336992 
L 640.981256 32.06156 
L 642.209116 32.556398 
L 643.570925 32.861282 
L 645.24528 32.995024 
L 649.933475 33.231341 
L 651.295284 33.611252 
L 652.523145 34.183224 
L 653.728681 34.99232 
L 654.956541 36.089503 
L 656.251376 37.551008 
L 657.680159 39.510557 
L 659.33219 42.173225 
L 661.430715 46.009733 
L 668.686255 59.65562 
L 669.98109 61.685568 
L 670.003415 12.392562 
L 670.092713 12.709916 
L 671.744744 18.153485 
L 673.262826 22.421495 
L 674.691609 25.794661 
L 676.031094 28.407595 
L 677.303604 30.423644 
L 678.531464 31.968779 
L 679.737 33.136998 
L 680.920211 33.98344 
L 682.148072 34.589366 
L 683.442907 34.979883 
L 684.938664 35.192515 
L 687.104164 35.248847 
L 689.827782 35.358866 
L 691.323539 35.652393 
L 692.618374 36.133417 
L 693.846234 36.828772 
L 695.074095 37.783783 
L 696.346605 39.05951 
L 697.730739 40.771359 
L 699.29347 43.07278 
L 701.191073 46.287327 
L 704.137938 51.785632 
L 707.843845 58.59379 
L 709.98702 62.062862 
L 710.254917 62.462384 
L 710.277241 13.142985 
L 710.36654 13.461281 
L 712.06322 19.074316 
L 713.603627 23.430323 
L 715.03241 26.834762 
L 716.394219 29.52491 
L 717.689054 31.605737 
L 718.93924 33.203868 
L 720.144775 34.395264 
L 721.350311 35.2793 
L 722.578172 35.904797 
L 723.873007 36.314561 
L 725.346439 36.543143 
L 727.400315 36.613133 
L 730.481129 36.728446 
L 731.976886 37.025474 
L 733.271721 37.507306 
L 734.521906 38.214776 
L 735.772092 39.186739 
L 737.066927 40.483258 
L 738.473385 42.217263 
L 740.080766 44.572063 
L 742.045343 47.872214 
L 745.416378 54.062219 
L 748.586491 59.698327 
L 750.707341 63.025972 
L 751.22081 63.760316 
L 751.243135 14.455713 
L 751.332434 14.764609 
L 752.984464 20.060142 
L 754.502547 24.207612 
L 755.93133 27.481908 
L 757.270814 30.015237 
L 758.543324 31.967223 
L 759.771185 33.460846 
L 760.976721 34.587828 
L 762.182256 35.415034 
L 763.410117 35.991282 
L 764.727276 36.363999 
L 766.267683 36.560983 
L 768.65643 36.60585 
L 771.067502 36.720158 
L 772.563259 37.016751 
L 773.858094 37.497988 
L 775.10828 38.204627 
L 776.358465 39.175617 
L 777.6533 40.471182 
L 779.059758 42.204401 
L 780.644814 44.523543 
L 782.721015 47.995236 
L 783.524706 49.065922 
L 785.556257 51.162589 
L 787.208287 52.709717 
L 789.775632 55.011521 
L 791.963456 56.966807 
L 791.985781 7.606607 
L 792.07508 7.78536 
L 795.446116 14.278367 
L 798.839476 20.337577 
L 802.277485 26.024435 
L 805.73782 31.322723 
L 809.242803 36.286717 
L 812.792437 40.93211 
L 816.409044 45.300209 
L 820.070301 49.376163 
L 823.798532 53.197089 
L 827.616063 56.792565 
L 830.920124 59.665685 
L 830.942448 10.319378 
L 831.031747 10.492711 
L 834.425108 16.82897 
L 837.840792 22.738694 
L 841.278802 28.247605 
L 844.761461 33.411942 
L 848.28877 38.247625 
L 851.860728 42.770319 
L 855.49966 47.020427 
L 859.205566 51.00704 
L 862.978447 54.739672 
L 866.840627 58.247583 
L 870.792105 61.535958 
L 871.015353 61.713198 
L 871.037677 12.362492 
L 871.126976 12.531744 
L 874.520336 18.718778 
L 877.936021 24.489323 
L 881.396356 29.902089 
L 884.901339 34.973338 
L 888.450973 39.719102 
L 892.045255 44.155129 
L 895.706512 48.321233 
L 899.434744 52.226667 
L 903.229949 55.881076 
L 907.114453 59.313289 
L 911.088257 62.528678 
L 912.04822 63.26345 
L 912.070545 13.93248 
L 912.159844 14.098594 
L 915.553204 20.170961 
L 918.991214 25.870167 
L 922.451548 31.179959 
L 925.956532 36.154732 
L 929.506165 40.810211 
L 933.122773 45.187795 
L 936.78403 49.272599 
L 940.512261 53.101821 
L 944.329791 56.705104 
L 948.23662 60.087154 
L 952.232748 63.253559 
L 953.75083 64.384085 
L 953.773155 15.03533 
L 953.862454 15.199241 
L 957.278139 21.22899 
L 960.716149 26.849785 
L 961.095669 27.444151 
L 961.095669 27.444151 
" clip-path="url(#p7b6f612e46)" style="fill: none; stroke: #3ea44e; stroke-width: 6"/>
   </g>
  </g>
 </g>
 <defs>
  <clipPath id="p7b6f612e46">
   <rect x="41.316477" y="2.834646" width="946.568878" height="147.790709"/>
  </clipPath>
 </defs>
</svg>
