<?xml version="1.0" encoding="utf-8" standalone="no"?>
<!DOCTYPE svg PUBLIC "-//W3C//DTD SVG 1.1//EN"
  "http://www.w3.org/Graphics/SVG/1.1/DTD/svg11.dtd">
<svg xmlns:xlink="http://www.w3.org/1999/xlink" width="990.72pt" height="184.32pt" viewBox="0 0 990.72 184.32" xmlns="http://www.w3.org/2000/svg" version="1.1">
 <metadata>
  <rdf:RDF xmlns:dc="http://purl.org/dc/elements/1.1/" xmlns:cc="http://creativecommons.org/ns#" xmlns:rdf="http://www.w3.org/1999/02/22-rdf-syntax-ns#">
   <cc:Work>
    <dc:type rdf:resource="http://purl.org/dc/dcmitype/StillImage"/>
    <dc:date>2024-06-27T17:35:19.681822</dc:date>
    <dc:format>image/svg+xml</dc:format>
    <dc:creator>
     <cc:Agent>
      <dc:title>Matplotlib v3.8.4, https://matplotlib.org/</dc:title>
     </cc:Agent>
    </dc:creator>
   </cc:Work>
  </rdf:RDF>
 </metadata>
 <defs>
  <style type="text/css">*{stroke-linejoin: round; stroke-linecap: butt}</style>
 </defs>
 <g id="figure_1">
  <g id="patch_1">
   <path d="M 0 184.32 
L 990.72 184.32 
L 990.72 0 
L 0 0 
L 0 184.32 
z
" style="fill: none"/>
  </g>
  <g id="axes_1">
   <g id="patch_2">
    <path d="M 41.316477 150.625354 
L 987.885354 150.625354 
L 987.885354 2.834646 
L 41.316477 2.834646 
L 41.316477 150.625354 
z
" style="fill: none"/>
   </g>
   <g id="line2d_1">
    <path d="M 68.106162 69.980415 
L 69.847491 84.538069 
L 73.553398 115.76868 
L 75.026831 126.156007 
L 76.277016 133.468954 
L 77.348603 138.495506 
L 78.286242 141.89985 
L 79.112258 144.113247 
L 79.826649 145.433138 
L 80.429417 146.1212 
L 80.942886 146.404215 
L 81.411706 146.422723 
L 81.880525 146.216079 
L 82.393994 145.736363 
L 82.996762 144.842935 
L 83.688829 143.390147 
L 84.492519 141.151915 
L 85.430158 137.830256 
L 86.501746 133.166572 
L 87.774256 126.568011 
L 89.336987 117.211286 
L 91.70341 101.507513 
L 95.141419 78.871903 
L 96.905074 68.768341 
L 98.356181 61.696734 
L 99.606367 56.65396 
L 100.722604 53.036486 
L 101.704892 50.567506 
L 102.575557 48.943591 
L 103.334598 47.958009 
L 104.026665 47.403457 
L 104.651758 47.178646 
L 105.120577 47.219104 
L 105.455448 47.5059 
L 105.879618 48.201786 
L 106.393087 49.519407 
L 107.01818 51.778909 
L 107.799546 55.517807 
L 108.737185 61.153873 
L 109.965045 70.010024 
L 111.751024 84.719202 
L 115.434606 115.311191 
L 116.952688 125.90186 
L 118.225198 133.275243 
L 119.31911 138.367339 
L 120.279074 141.829815 
L 121.105089 144.038362 
L 121.819481 145.370612 
L 122.444573 146.098862 
L 122.980367 146.401377 
L 123.449187 146.425474 
L 123.918006 146.228014 
L 124.431475 145.76139 
L 125.034243 144.885982 
L 125.72631 143.455089 
L 126.53 141.241197 
L 127.445315 138.031405 
L 128.516902 133.410589 
L 129.767087 126.985287 
L 131.329819 117.716641 
L 133.718566 102.009459 
L 137.201225 79.277702 
L 138.964879 69.241072 
L 140.415987 62.185141 
L 141.688497 57.03964 
L 142.827059 53.326962 
L 143.831672 50.774408 
L 144.724662 49.080267 
L 145.506027 48.039174 
L 146.220419 47.44233 
L 146.845512 47.192284 
L 147.358981 47.20112 
L 147.693852 47.456334 
L 148.095697 48.063745 
L 148.609166 49.297423 
L 149.234259 51.447805 
L 149.9933 54.928452 
L 150.930939 60.362627 
L 152.11415 68.634197 
L 153.788505 82.080252 
L 158.05253 116.965854 
L 159.525963 126.911223 
L 160.753823 133.80043 
L 161.847735 138.734695 
L 162.785374 142.011423 
L 163.61139 144.152682 
L 164.325781 145.437992 
L 164.950874 146.132893 
L 165.486668 146.411722 
L 165.955487 146.418161 
L 166.424307 146.2053 
L 166.9601 145.696932 
L 167.562868 144.792596 
L 168.254935 143.329774 
L 169.058626 141.079616 
L 169.996265 137.742082 
L 171.067852 133.06246 
L 172.340362 126.464029 
L 173.947743 116.880104 
L 176.492763 100.16273 
L 179.662876 79.674625 
L 181.337231 70.232905 
L 182.766015 63.408678 
L 184.038525 58.358675 
L 185.199411 54.604026 
L 186.270998 51.847835 
L 187.253287 49.901582 
L 188.146276 48.59737 
L 188.949967 47.78871 
L 189.686683 47.340756 
L 190.37875 47.167348 
L 190.825245 47.231729 
L 191.204766 47.554355 
L 191.65126 48.257495 
L 192.187054 49.544941 
L 192.834471 51.712698 
L 193.615837 55.156555 
L 194.553476 60.361539 
L 195.692038 68.021133 
L 197.143146 79.411337 
L 199.554217 100.42524 
L 201.965289 120.758394 
L 203.371748 130.800066 
L 204.487984 137.263139 
L 205.403299 141.370534 
L 206.184664 143.944943 
L 206.854407 145.437879 
L 207.3902 146.150568 
L 207.836695 146.417989 
L 208.23854 146.407834 
L 208.640386 146.164347 
L 209.109205 145.593113 
L 209.667324 144.525022 
L 210.337066 142.719004 
L 211.140756 139.862087 
L 212.123045 135.479217 
L 213.350905 128.893931 
L 214.980611 118.82924 
L 217.637255 100.795156 
L 221.320837 75.903097 
L 222.883568 66.964111 
L 224.223053 60.555704 
L 225.406264 55.942078 
L 226.477851 52.624416 
L 227.437815 50.339518 
L 228.30848 48.814045 
L 229.089845 47.874549 
L 229.781912 47.371107 
L 230.407005 47.17349 
L 230.8535 47.219699 
L 231.210695 47.525193 
L 231.634865 48.215884 
L 232.148334 49.50913 
L 232.773427 51.721458 
L 233.532468 55.27665 
L 234.447782 60.692855 
L 235.586344 68.873968 
L 237.059777 81.218556 
L 242.640961 129.763764 
L 243.757198 136.737627 
L 244.672512 141.165757 
L 245.453878 143.921888 
L 246.101295 145.451069 
L 246.614764 146.166319 
L 247.038934 146.423572 
L 247.418455 146.399452 
L 247.797976 146.138202 
L 248.24447 145.533508 
L 248.780264 144.397246 
L 249.427681 142.456935 
L 250.209047 139.354032 
L 251.169011 134.546706 
L 252.352222 127.410375 
L 254.048902 115.645085 
L 259.585437 76.340626 
L 261.304442 66.109743 
L 262.621601 59.515197 
L 263.737838 54.982689 
L 264.720127 51.855281 
L 265.590791 49.76419 
L 266.372157 48.422374 
L 267.064224 47.643244 
L 267.689317 47.258402 
L 268.247435 47.16238 
L 268.559982 47.303251 
L 268.917177 47.731297 
L 269.363672 48.649025 
L 269.921791 50.357671 
L 270.613857 53.268206 
L 271.462197 57.890734 
L 272.51146 64.946245 
L 273.873269 75.75588 
L 276.061093 95.224692 
L 278.807036 119.223295 
L 280.235819 129.813819 
L 281.374381 136.7034 
L 282.31202 141.118951 
L 283.093386 143.82919 
L 283.740803 145.364426 
L 284.276597 146.131868 
L 284.723092 146.418246 
L 285.102612 146.408397 
L 285.482133 146.166747 
L 285.928627 145.588821 
L 286.464421 144.484666 
L 287.089514 142.650294 
L 287.848555 139.678308 
L 288.741544 135.235343 
L 289.835457 128.612773 
L 291.26424 118.519255 
L 294.23343 95.445121 
L 296.376605 79.741645 
L 298.006311 69.364784 
L 299.435094 61.634318 
L 300.662954 56.135178 
L 301.689892 52.472861 
L 302.582882 50.0543 
L 303.364248 48.542659 
L 304.03399 47.69326 
L 304.614433 47.281868 
L 305.150227 47.160552 
L 305.440448 47.2666 
L 305.775319 47.646939 
L 306.199489 48.503392 
L 306.735283 50.139724 
L 307.405025 52.967929 
L 308.23104 57.483657 
L 309.280303 64.522669 
L 310.731411 75.92299 
L 313.633627 100.943031 
L 315.799126 118.51501 
L 317.272559 128.750565 
L 318.478095 135.663572 
L 319.482708 140.235039 
L 320.353373 143.229634 
L 321.090089 145.016947 
L 321.692857 145.951111 
L 322.184001 146.353749 
L 322.608171 146.440061 
L 323.010017 146.297882 
L 323.456512 145.885208 
L 323.96998 145.082377 
L 324.572748 143.700339 
L 325.28714 141.468342 
L 326.13548 138.028578 
L 327.140093 132.951575 
L 328.367954 125.500689 
L 329.975335 114.250488 
L 335.735117 72.612246 
L 337.253199 63.916849 
L 338.548034 57.721493 
L 339.641946 53.494402 
L 340.579585 50.697856 
L 341.383276 48.945732 
L 342.075343 47.918716 
L 342.678111 47.381466 
L 343.213904 47.174563 
L 343.61575 47.222616 
L 343.928296 47.518829 
L 344.330141 48.240446 
L 344.84361 49.680054 
L 345.491028 52.236111 
L 346.317043 56.521223 
L 347.343981 63.113411 
L 348.772764 73.866892 
L 351.764279 98.570914 
L 353.952103 115.615363 
L 355.514835 126.170565 
L 356.80967 133.51265 
L 357.925906 138.644364 
L 358.88587 142.079317 
L 359.711886 144.263971 
L 360.403952 145.523376 
L 360.984396 146.168912 
L 361.47554 146.418926 
L 361.922035 146.40947 
L 362.368529 146.174628 
L 362.881998 145.627369 
L 363.462441 144.655776 
L 364.132184 143.079094 
L 364.913549 140.644652 
L 365.828864 137.025437 
L 366.900451 131.835182 
L 368.195286 124.402705 
L 369.891966 113.256177 
L 376.433114 68.842123 
L 377.884222 61.112413 
L 379.067433 55.929851 
L 380.094371 52.377773 
L 380.987361 50.043109 
L 381.768726 48.577598 
L 382.460793 47.719311 
L 383.063561 47.295766 
L 383.62168 47.161025 
L 383.934226 47.251557 
L 384.269097 47.59735 
L 384.693267 48.384088 
L 385.229061 49.891669 
L 385.898803 52.496155 
L 386.724818 56.644737 
L 387.796406 63.235805 
L 389.292163 73.981158 
L 392.730173 100.970004 
L 394.895672 116.847483 
L 396.480728 126.934796 
L 397.797888 133.983546 
L 398.93645 138.929891 
L 399.896413 142.18628 
L 400.722429 144.274098 
L 401.43682 145.525008 
L 402.039588 146.170388 
L 402.553057 146.420276 
L 403.021877 146.406221 
L 403.490696 146.161017 
L 404.004165 145.628634 
L 404.606933 144.655832 
L 405.299 143.085519 
L 406.10269 140.675613 
L 407.040329 137.11413 
L 408.134242 132.033045 
L 409.451401 124.788452 
L 411.125756 114.244339 
L 413.938673 94.853626 
L 416.885539 75.03801 
L 418.515245 65.543918 
L 419.810079 59.24261 
L 420.948641 54.77102 
L 421.953254 51.699245 
L 422.823919 49.699311 
L 423.605285 48.413323 
L 424.319676 47.641812 
L 424.967094 47.259852 
L 425.547537 47.161659 
L 425.860083 47.28826 
L 426.239604 47.71374 
L 426.708423 48.625796 
L 427.288866 50.297645 
L 428.003258 53.085008 
L 428.896248 57.529044 
L 430.034809 64.408266 
L 431.597541 75.356089 
L 434.879277 100.458279 
L 437.245699 117.561763 
L 438.853081 127.636769 
L 440.17024 134.568121 
L 441.286477 139.325623 
L 442.246441 142.503046 
L 443.072456 144.512111 
L 443.764523 145.656568 
L 444.344966 146.228197 
L 444.83611 146.431788 
L 445.30493 146.385539 
L 445.773749 146.104613 
L 446.309543 145.498249 
L 446.912311 144.457629 
L 447.626702 142.745729 
L 448.452718 140.147156 
L 449.412682 136.350939 
L 450.551243 130.884463 
L 451.935377 123.073038 
L 453.743681 111.488801 
L 460.418777 67.405163 
L 461.735937 60.849064 
L 462.896823 56.12638 
L 463.923761 52.80665 
L 464.8614 50.473825 
L 465.70974 48.919285 
L 466.468781 47.956931 
L 467.160848 47.414825 
L 467.808265 47.182413 
L 468.29941 47.209523 
L 468.656605 47.493916 
L 469.080775 48.145114 
L 469.616569 49.421785 
L 470.263986 51.579631 
L 471.067677 55.081635 
L 472.07229 60.53398 
L 473.322476 68.603869 
L 475.108455 81.739366 
L 480.377093 121.463405 
L 481.850525 130.506931 
L 483.078386 136.733364 
L 484.105324 140.862632 
L 484.975989 143.513293 
L 485.712705 145.108744 
L 486.337798 145.980425 
L 486.851267 146.359333 
L 487.297761 146.43991 
L 487.744256 146.289008 
L 488.213076 145.88301 
L 488.748869 145.112644 
L 489.396287 143.756316 
L 490.155328 141.597095 
L 491.025993 138.413205 
L 492.075255 133.674849 
L 493.347765 126.817953 
L 494.977471 116.71918 
L 497.567141 99.048092 
L 501.0498 75.494776 
L 502.612531 66.451325 
L 503.907366 60.179708 
L 505.045928 55.688826 
L 506.072866 52.481781 
L 507.010505 50.241349 
L 507.858845 48.760804 
L 508.617886 47.856508 
L 509.309953 47.361651 
L 509.935045 47.171766 
L 510.38154 47.224715 
L 510.738736 47.531817 
L 511.162906 48.210286 
L 511.6987 49.523899 
L 512.346117 51.735525 
L 513.149808 55.324115 
L 514.154421 60.923063 
L 515.404606 69.246256 
L 517.145936 82.504895 
L 522.3476 123.149684 
L 523.754058 131.944395 
L 524.89262 137.757393 
L 525.852583 141.594185 
L 526.678599 144.039716 
L 527.370665 145.44476 
L 527.951109 146.156841 
L 528.419928 146.417304 
L 528.844098 146.410024 
L 529.268268 146.172962 
L 529.759412 145.614598 
L 530.317531 144.617767 
L 530.987273 142.930105 
L 531.768639 140.320826 
L 532.706278 136.359719 
L 533.822515 130.625682 
L 535.251298 122.031219 
L 537.349823 107.866877 
L 542.32824 73.926881 
L 543.868647 65.115629 
L 545.141157 59.058526 
L 546.257394 54.772408 
L 547.262007 51.757839 
L 548.154996 49.738518 
L 548.958687 48.434906 
L 549.673078 47.667982 
L 550.320496 47.2768 
L 550.923264 47.160552 
L 551.258135 47.278275 
L 551.637655 47.689592 
L 552.08415 48.532229 
L 552.642269 50.094697 
L 553.334335 52.746115 
L 554.182675 56.942761 
L 555.254263 63.480014 
L 556.638397 73.459092 
L 558.714597 90.300412 
L 562.197256 118.503402 
L 563.715338 128.938115 
L 564.920874 135.801099 
L 565.925487 140.346559 
L 566.773827 143.253498 
L 567.488219 144.993742 
L 568.090987 145.939248 
L 568.582131 146.34909 
L 569.006301 146.440757 
L 569.408147 146.303617 
L 569.854641 145.897569 
L 570.36811 145.105541 
L 570.970878 143.743631 
L 571.68527 141.551992 
L 572.53361 138.19308 
L 573.560548 133.153564 
L 574.833058 125.701451 
L 576.552063 114.187495 
L 582.669041 72.086939 
L 584.187123 63.564598 
L 585.437308 57.754146 
L 586.508896 53.774312 
L 587.446535 51.077256 
L 588.294875 49.263508 
L 589.053916 48.129328 
L 589.723658 47.49685 
L 590.326426 47.209753 
L 590.839895 47.181012 
L 591.174766 47.404127 
L 591.576611 47.983844 
L 592.067755 49.125764 
L 592.670523 51.128238 
L 593.429564 54.48661 
L 594.367203 59.732158 
L 595.572739 67.874358 
L 597.202445 80.554386 
L 602.627356 123.979069 
L 603.989165 132.532359 
L 605.105402 138.218102 
L 606.043041 141.925817 
L 606.846732 144.256299 
L 607.516474 145.568847 
L 608.074592 146.212751 
L 608.543412 146.43332 
L 608.945257 146.388785 
L 609.369427 146.108578 
L 609.860571 145.487767 
L 610.441014 144.351803 
L 611.110757 142.517311 
L 611.914447 139.615869 
L 612.852086 135.351053 
L 613.990648 129.079914 
L 615.46408 119.610922 
L 617.785853 103.043087 
L 621.02294 80.254721 
L 622.898218 68.615415 
L 624.327001 61.048052 
L 625.487888 56.008669 
L 626.514826 52.489046 
L 627.407815 50.167172 
L 628.211506 48.658662 
L 628.925897 47.765587 
L 629.55099 47.315558 
L 630.131433 47.162377 
L 630.488629 47.25422 
L 630.845825 47.6271 
L 631.269995 48.418906 
L 631.805788 49.921375 
L 632.47553 52.512786 
L 633.301546 56.654332 
L 634.328484 62.985947 
L 635.712617 73.030043 
L 637.945091 91.148629 
L 641.025905 115.862659 
L 642.633286 126.979961 
L 643.905796 134.339263 
L 644.977384 139.32869 
L 645.892698 142.606216 
L 646.674064 144.632169 
L 647.321481 145.748007 
L 647.857275 146.276222 
L 648.303769 146.439818 
L 648.72794 146.361574 
L 649.174434 146.03393 
L 649.687903 145.34898 
L 650.290671 144.131925 
L 650.982738 142.202283 
L 651.808753 139.194207 
L 652.791042 134.706263 
L 653.974253 128.17361 
L 655.492335 118.425832 
L 658.01503 100.492776 
L 661.051195 79.328853 
L 662.904148 67.938917 
L 664.310606 60.589377 
L 665.471493 55.636935 
L 666.476106 52.263744 
L 667.369095 49.997329 
L 668.150461 48.572499 
L 668.864853 47.711183 
L 669.489946 47.288728 
L 670.070389 47.160605 
L 670.382935 47.263906 
L 670.740131 47.647854 
L 671.186626 48.503483 
L 671.744744 50.114836 
L 672.436811 52.861884 
L 673.307476 57.323038 
L 674.423713 64.344142 
L 675.91947 75.337819 
L 678.777036 98.420861 
L 681.210433 117.181742 
L 682.795489 127.726529 
L 684.067999 134.787566 
L 685.139587 139.569287 
L 686.054901 142.713198 
L 686.836267 144.66296 
L 687.483684 145.744592 
L 688.041803 146.279439 
L 688.510622 146.440931 
L 688.934792 146.359837 
L 689.381287 146.041835 
L 689.894756 145.383585 
L 690.497524 144.218226 
L 691.211915 142.304396 
L 692.037931 139.407671 
L 693.020219 135.086453 
L 694.181105 128.914437 
L 695.632213 119.93158 
L 697.842362 104.66048 
L 701.771516 77.486032 
L 703.535171 66.853613 
L 704.89698 59.932136 
L 706.035541 55.237825 
L 707.040154 51.993924 
L 707.910819 49.873272 
L 708.692185 48.504958 
L 709.406577 47.680854 
L 710.031669 47.27917 
L 710.612112 47.160551 
L 710.924659 47.269371 
L 711.281854 47.652969 
L 711.728349 48.498743 
L 712.286468 50.084428 
L 712.978535 52.781024 
L 713.849199 57.155259 
L 714.965436 64.038223 
L 716.461194 74.825274 
L 719.184812 96.485347 
L 721.729832 116.01828 
L 723.359538 126.882192 
L 724.676697 134.237867 
L 725.770609 139.171658 
L 726.708248 142.447885 
L 727.511939 144.503883 
L 728.181681 145.662912 
L 728.739799 146.234043 
L 729.230944 146.436065 
L 729.677438 146.374525 
L 730.123933 146.07992 
L 730.637402 145.45528 
L 731.24017 144.338173 
L 731.932237 142.559008 
L 732.758252 139.774271 
L 733.718216 135.704168 
L 734.879102 129.735537 
L 736.307885 121.14069 
L 738.339437 107.425656 
L 743.183905 74.313142 
L 744.791286 65.015273 
L 746.063796 58.877392 
L 747.180033 54.539107 
L 748.162321 51.568645 
L 749.032986 49.595116 
L 749.814352 48.336357 
L 750.506419 47.609673 
L 751.131511 47.252122 
L 751.711954 47.164173 
L 752.024501 47.309193 
L 752.404021 47.759112 
L 752.872841 48.705532 
L 753.453284 50.427294 
L 754.167676 53.291978 
L 755.060665 57.86002 
L 756.199227 64.947394 
L 757.739634 76.097239 
L 760.798123 100.364742 
L 763.164545 118.19052 
L 764.727276 128.348914 
L 765.999787 135.242093 
L 767.071374 139.894605 
L 767.986688 142.937217 
L 768.768054 144.807706 
L 769.415471 145.829279 
L 769.951265 146.304508 
L 770.420085 146.442476 
L 770.844255 146.343322 
L 771.313074 145.98708 
L 771.848868 145.266051 
L 772.47396 144.010093 
L 773.188352 142.046378 
L 774.036692 139.02361 
L 775.041305 134.560641 
L 776.246841 128.123191 
L 777.787248 118.58786 
L 780.15367 102.353171 
L 783.993525 76.119983 
L 785.71253 65.926789 
L 787.052014 59.233466 
L 788.190576 54.601554 
L 789.172864 51.469901 
L 790.043529 49.397544 
L 790.780245 48.170782 
L 791.427663 47.49183 
L 791.985781 47.203491 
L 792.454601 47.19135 
L 792.767147 47.442615 
L 793.146668 48.079412 
L 793.615487 49.346752 
L 794.19593 51.606376 
L 794.932647 55.472025 
L 795.825636 61.439018 
L 796.986522 70.819366 
L 798.705527 86.712699 
L 801.830991 115.644602 
L 803.237449 126.552264 
L 804.42066 134.076645 
L 805.425273 139.117995 
L 806.295938 142.429625 
L 807.054979 144.503052 
L 807.702397 145.676239 
L 808.23819 146.239287 
L 808.70701 146.435781 
L 809.13118 146.381224 
L 809.577674 146.091958 
L 810.091143 145.474932 
L 810.693911 144.379124 
L 811.408303 142.589338 
L 812.256643 139.82408 
L 813.261256 135.739527 
L 814.444467 129.952967 
L 815.895575 121.67661 
L 817.770853 109.5815 
L 823.97713 68.407204 
L 825.383589 61.13269 
L 826.589125 56.005126 
L 827.638387 52.461018 
L 828.553702 50.100609 
L 829.357392 48.599734 
L 830.049459 47.735537 
L 830.674552 47.291647 
L 831.23267 47.160671 
L 831.545216 47.266958 
L 831.880087 47.641261 
L 832.304257 48.48895 
L 832.840051 50.126674 
L 833.487469 52.88851 
L 834.291159 57.376282 
L 835.295772 64.356698 
L 836.635257 75.385327 
L 839.269576 99.447386 
L 841.345776 117.295374 
L 842.752235 127.541728 
L 843.913121 134.485918 
L 844.917734 139.257617 
L 845.810724 142.488573 
L 846.569765 144.476154 
L 847.239507 145.65337 
L 847.797625 146.227868 
L 848.28877 146.434081 
L 848.735264 146.383864 
L 849.204084 146.093716 
L 849.739878 145.47322 
L 850.36497 144.37479 
L 851.101687 142.587739 
L 851.950027 139.911773 
L 852.95464 135.9576 
L 854.115526 130.440532 
L 855.49966 122.72925 
L 857.240989 111.684942 
L 863.893761 68.060303 
L 865.30022 61.012748 
L 866.505756 56.041993 
L 867.577343 52.523931 
L 868.514982 50.167597 
L 869.340997 48.656628 
L 870.055389 47.774763 
L 870.702806 47.311337 
L 871.283249 47.161895 
L 871.61812 47.247793 
L 871.952992 47.587479 
L 872.377162 48.373474 
L 872.890631 49.831925 
L 873.538048 52.406661 
L 874.319414 56.492819 
L 875.301702 62.91187 
L 876.574212 72.82039 
L 878.695062 91.433698 
L 881.41868 114.841681 
L 882.914438 125.776389 
L 884.142298 133.212584 
L 885.191561 138.313828 
L 886.1292 141.836247 
L 886.932891 144.061286 
L 887.624957 145.38913 
L 888.227725 146.107249 
L 888.741194 146.402344 
L 889.210014 146.422289 
L 889.678833 146.209161 
L 890.192302 145.714752 
L 890.79507 144.796575 
L 891.487137 143.309178 
L 892.290828 141.028203 
L 893.228467 137.661 
L 894.322379 132.848887 
L 895.594889 126.192981 
L 897.15762 116.761475 
L 899.479393 101.200103 
L 902.984377 77.852928 
L 904.703382 67.94206 
L 906.10984 61.063746 
L 907.337701 56.1158 
L 908.409288 52.664291 
L 909.369252 50.282104 
L 910.217592 48.740254 
L 910.954308 47.827599 
L 911.601726 47.347885 
L 912.204494 47.166683 
L 912.606339 47.24077 
L 912.963535 47.5931 
L 913.387705 48.36349 
L 913.923498 49.856204 
L 914.570916 52.379954 
L 915.352282 56.365765 
L 916.33457 62.609985 
L 917.584755 72.06408 
L 919.616307 89.411491 
L 922.518522 113.951638 
L 924.036605 124.938915 
L 925.28679 132.494282 
L 926.380702 137.833787 
L 927.340666 141.477824 
L 928.166681 143.814944 
L 928.903397 145.272992 
L 929.52849 146.050779 
L 930.064284 146.38609 
L 930.533103 146.432579 
L 931.001923 146.252576 
L 931.515392 145.800616 
L 932.095835 144.976441 
L 932.787902 143.571982 
L 933.591592 141.387234 
L 934.506907 138.210832 
L 935.556169 133.732121 
L 936.806355 127.356852 
L 938.324437 118.384577 
L 940.534586 103.818845 
L 944.396765 78.311575 
L 946.11577 68.497178 
L 947.544553 61.550441 
L 948.794739 56.521761 
L 949.888651 52.986356 
L 950.870939 50.522828 
L 951.741604 48.907211 
L 952.500645 47.931435 
L 953.192712 47.38777 
L 953.817805 47.174304 
L 954.264299 47.223738 
L 954.59917 47.517789 
L 955.02334 48.223889 
L 955.536809 49.555223 
L 956.161902 51.83315 
L 956.943268 55.596753 
L 957.903232 61.412437 
L 959.131092 70.334169 
L 960.917071 85.111314 
L 961.095669 86.64586 
L 961.095669 86.64586 
" clip-path="url(#p07c783d325)" style="fill: none; stroke: #009afa; stroke-width: 4"/>
   </g>
   <g id="matplotlib.axis_1">
    <g id="xtick_1">
     <g id="line2d_2">
      <defs>
       <path id="m297dde0db1" d="M 0 0 
L 0 -5 
" style="stroke: #000000"/>
      </defs>
      <g>
       <use xlink:href="#m297dde0db1" x="68.106162" y="150.625354" style="stroke: #000000"/>
      </g>
     </g>
     <g id="text_1">
      <!-- $0$ -->
      <g transform="translate(61.106162 175.400979) scale(0.28 -0.28)">
       <defs>
        <path id="Cmr10-30" d="M 1600 -141 
Q 816 -141 533 504 
Q 250 1150 250 2041 
Q 250 2597 351 3087 
Q 453 3578 754 3920 
Q 1056 4263 1600 4263 
Q 2022 4263 2290 4056 
Q 2559 3850 2700 3523 
Q 2841 3197 2892 2823 
Q 2944 2450 2944 2041 
Q 2944 1491 2842 1011 
Q 2741 531 2444 195 
Q 2147 -141 1600 -141 
z
M 1600 25 
Q 1956 25 2131 390 
Q 2306 756 2347 1200 
Q 2388 1644 2388 2144 
Q 2388 2625 2347 3031 
Q 2306 3438 2132 3767 
Q 1959 4097 1600 4097 
Q 1238 4097 1063 3765 
Q 888 3434 847 3029 
Q 806 2625 806 2144 
Q 806 1788 823 1472 
Q 841 1156 916 820 
Q 991 484 1158 254 
Q 1325 25 1600 25 
z
" transform="scale(0.015625)"/>
       </defs>
       <use xlink:href="#Cmr10-30" transform="translate(0 0.390625)"/>
      </g>
     </g>
    </g>
    <g id="xtick_2">
     <g id="line2d_3">
      <g>
       <use xlink:href="#m297dde0db1" x="291.353539" y="150.625354" style="stroke: #000000"/>
      </g>
     </g>
     <g id="text_2">
      <!-- $5$ -->
      <g transform="translate(284.353539 175.400979) scale(0.28 -0.28)">
       <defs>
        <path id="Cmr10-35" d="M 556 728 
Q 622 541 758 387 
Q 894 234 1080 148 
Q 1266 63 1466 63 
Q 1928 63 2103 422 
Q 2278 781 2278 1294 
Q 2278 1516 2270 1667 
Q 2263 1819 2228 1959 
Q 2169 2184 2020 2353 
Q 1872 2522 1656 2522 
Q 1441 2522 1286 2456 
Q 1131 2391 1034 2303 
Q 938 2216 863 2119 
Q 788 2022 769 2016 
L 697 2016 
Q 681 2016 657 2036 
Q 634 2056 634 2075 
L 634 4213 
Q 634 4228 654 4245 
Q 675 4263 697 4263 
L 716 4263 
Q 1147 4056 1631 4056 
Q 2106 4056 2547 4263 
L 2566 4263 
Q 2588 4263 2606 4247 
Q 2625 4231 2625 4213 
L 2625 4153 
Q 2625 4122 2613 4122 
Q 2394 3831 2064 3668 
Q 1734 3506 1381 3506 
Q 1125 3506 856 3578 
L 856 2369 
Q 1069 2541 1236 2614 
Q 1403 2688 1663 2688 
Q 2016 2688 2295 2484 
Q 2575 2281 2725 1954 
Q 2875 1628 2875 1288 
Q 2875 903 2686 575 
Q 2497 247 2172 53 
Q 1847 -141 1466 -141 
Q 1150 -141 886 21 
Q 622 184 470 459 
Q 319 734 319 1044 
Q 319 1188 412 1278 
Q 506 1369 647 1369 
Q 788 1369 883 1276 
Q 978 1184 978 1044 
Q 978 906 883 811 
Q 788 716 647 716 
Q 625 716 597 720 
Q 569 725 556 728 
z
" transform="scale(0.015625)"/>
       </defs>
       <use xlink:href="#Cmr10-35" transform="translate(0 0.390625)"/>
      </g>
     </g>
    </g>
    <g id="xtick_3">
     <g id="line2d_4">
      <g>
       <use xlink:href="#m297dde0db1" x="514.600916" y="150.625354" style="stroke: #000000"/>
      </g>
     </g>
     <g id="text_3">
      <!-- $10$ -->
      <g transform="translate(500.600916 175.400979) scale(0.28 -0.28)">
       <defs>
        <path id="Cmr10-31" d="M 594 0 
L 594 225 
Q 1394 225 1394 428 
L 1394 3788 
Q 1063 3628 556 3628 
L 556 3853 
Q 1341 3853 1741 4263 
L 1831 4263 
Q 1853 4263 1873 4245 
Q 1894 4228 1894 4206 
L 1894 428 
Q 1894 225 2694 225 
L 2694 0 
L 594 0 
z
" transform="scale(0.015625)"/>
       </defs>
       <use xlink:href="#Cmr10-31" transform="translate(0 0.390625)"/>
       <use xlink:href="#Cmr10-30" transform="translate(50 0.390625)"/>
      </g>
     </g>
    </g>
    <g id="xtick_4">
     <g id="line2d_5">
      <g>
       <use xlink:href="#m297dde0db1" x="737.848292" y="150.625354" style="stroke: #000000"/>
      </g>
     </g>
     <g id="text_4">
      <!-- $15$ -->
      <g transform="translate(723.848292 175.400979) scale(0.28 -0.28)">
       <use xlink:href="#Cmr10-31" transform="translate(0 0.390625)"/>
       <use xlink:href="#Cmr10-35" transform="translate(50 0.390625)"/>
      </g>
     </g>
    </g>
    <g id="xtick_5">
     <g id="line2d_6">
      <g>
       <use xlink:href="#m297dde0db1" x="961.095669" y="150.625354" style="stroke: #000000"/>
      </g>
     </g>
     <g id="text_5">
      <!-- $20$ -->
      <g transform="translate(947.095669 175.400979) scale(0.28 -0.28)">
       <defs>
        <path id="Cmr10-32" d="M 319 0 
L 319 172 
Q 319 188 331 206 
L 1325 1306 
Q 1550 1550 1690 1715 
Q 1831 1881 1968 2097 
Q 2106 2313 2186 2536 
Q 2266 2759 2266 3009 
Q 2266 3272 2169 3511 
Q 2072 3750 1880 3894 
Q 1688 4038 1416 4038 
Q 1138 4038 916 3870 
Q 694 3703 603 3438 
Q 628 3444 672 3444 
Q 816 3444 917 3347 
Q 1019 3250 1019 3097 
Q 1019 2950 917 2848 
Q 816 2747 672 2747 
Q 522 2747 420 2851 
Q 319 2956 319 3097 
Q 319 3338 409 3548 
Q 500 3759 670 3923 
Q 841 4088 1055 4175 
Q 1269 4263 1509 4263 
Q 1875 4263 2190 4108 
Q 2506 3953 2690 3670 
Q 2875 3388 2875 3009 
Q 2875 2731 2753 2481 
Q 2631 2231 2440 2026 
Q 2250 1822 1953 1562 
Q 1656 1303 1563 1216 
L 838 519 
L 1453 519 
Q 1906 519 2211 526 
Q 2516 534 2534 550 
Q 2609 631 2688 1141 
L 2875 1141 
L 2694 0 
L 319 0 
z
" transform="scale(0.015625)"/>
       </defs>
       <use xlink:href="#Cmr10-32" transform="translate(0 0.390625)"/>
       <use xlink:href="#Cmr10-30" transform="translate(50 0.390625)"/>
      </g>
     </g>
    </g>
   </g>
   <g id="matplotlib.axis_2">
    <g id="ytick_1">
     <g id="line2d_7">
      <defs>
       <path id="mabceb5b823" d="M 0 0 
L 5 0 
" style="stroke: #000000"/>
      </defs>
      <g>
       <use xlink:href="#mabceb5b823" x="41.316477" y="146.442598" style="stroke: #000000"/>
      </g>
     </g>
     <g id="text_6">
      <!-- $-1$ -->
      <g transform="translate(1.976477 157.080411) scale(0.28 -0.28)">
       <defs>
        <path id="Cmsy10-a1" d="M 653 1472 
Q 600 1472 565 1512 
Q 531 1553 531 1600 
Q 531 1647 565 1687 
Q 600 1728 653 1728 
L 4325 1728 
Q 4375 1728 4408 1687 
Q 4441 1647 4441 1600 
Q 4441 1553 4408 1512 
Q 4375 1472 4325 1472 
L 653 1472 
z
" transform="scale(0.015625)"/>
       </defs>
       <use xlink:href="#Cmsy10-a1" transform="translate(0 0.390625)"/>
       <use xlink:href="#Cmr10-31" transform="translate(77.685547 0.390625)"/>
      </g>
     </g>
    </g>
    <g id="ytick_2">
     <g id="line2d_8">
      <g>
       <use xlink:href="#mabceb5b823" x="41.316477" y="96.801575" style="stroke: #000000"/>
      </g>
     </g>
     <g id="text_7">
      <!-- $0$ -->
      <g transform="translate(23.816477 107.439387) scale(0.28 -0.28)">
       <use xlink:href="#Cmr10-30" transform="translate(0 0.390625)"/>
      </g>
     </g>
    </g>
    <g id="ytick_3">
     <g id="line2d_9">
      <g>
       <use xlink:href="#mabceb5b823" x="41.316477" y="47.160551" style="stroke: #000000"/>
      </g>
     </g>
     <g id="text_8">
      <!-- $1$ -->
      <g transform="translate(23.816477 57.798364) scale(0.28 -0.28)">
       <use xlink:href="#Cmr10-31" transform="translate(0 0.390625)"/>
      </g>
     </g>
    </g>
   </g>
   <g id="line2d_10">
    <path d="M 68.106162 47.160551 
L 68.530332 47.267518 
L 68.999151 47.634056 
L 69.534945 48.369714 
L 70.160038 49.648321 
L 70.874429 51.648868 
L 71.722769 54.73853 
L 72.705058 59.216773 
L 73.865944 65.618059 
L 75.272403 74.696842 
L 77.19233 88.68194 
L 81.724252 122.205021 
L 83.197685 131.190274 
L 84.40322 137.235217 
L 85.407834 141.207686 
L 86.256174 143.730746 
L 86.970565 145.230012 
L 87.573333 146.035372 
L 88.086802 146.383756 
L 88.533297 146.432249 
L 88.979792 146.243756 
L 89.448611 145.791782 
L 90.00673 144.917747 
L 90.654147 143.454802 
L 91.413188 141.144773 
L 92.283853 137.744404 
L 93.310791 132.784843 
L 94.538651 125.676207 
L 96.056734 115.480943 
L 98.311532 98.625801 
L 101.615593 74.112307 
L 103.178325 64.196225 
L 104.42851 57.606164 
L 105.477773 53.196053 
L 106.370762 50.343162 
L 107.129803 48.613383 
L 107.754896 47.687026 
L 108.29069 47.258507 
L 108.737185 47.161531 
L 109.161355 47.28896 
L 109.630174 47.678003 
L 110.165968 48.439092 
L 110.79106 49.746753 
L 111.527777 51.851889 
L 112.376117 54.997254 
L 113.358405 59.53437 
L 114.519292 65.995689 
L 115.948075 75.285224 
L 117.912652 89.668165 
L 122.199001 121.437279 
L 123.694759 130.669342 
L 124.900295 136.814834 
L 125.927233 140.961032 
L 126.797897 143.607398 
L 127.534614 145.185072 
L 128.137382 146.009046 
L 128.650851 146.373475 
L 129.097345 146.435975 
L 129.521515 146.275817 
L 129.990335 145.850797 
L 130.526128 145.049084 
L 131.151221 143.695045 
L 131.887937 141.537219 
L 132.758602 138.240461 
L 133.763215 133.507122 
L 134.946427 126.806212 
L 136.419859 117.087333 
L 138.49606 101.737082 
L 142.31359 73.38033 
L 143.853997 63.705179 
L 145.081857 57.311357 
L 146.108795 53.047857 
L 146.97946 50.293901 
L 147.738501 48.579867 
L 148.363594 47.666835 
L 148.899388 47.249891 
L 149.345882 47.162611 
L 149.770052 47.299247 
L 150.238872 47.698413 
L 150.774666 48.470935 
L 151.399758 49.791653 
L 152.136475 51.91163 
L 152.984815 55.073111 
L 153.989428 59.74115 
L 155.172639 66.376241 
L 156.623747 75.877353 
L 158.655298 90.827538 
L 162.696075 120.811926 
L 164.214158 130.268237 
L 165.442018 136.59218 
L 166.468956 140.78881 
L 167.339621 143.481388 
L 168.076337 145.099986 
L 168.70143 145.9819 
L 169.214899 146.362366 
L 169.661394 146.438872 
L 170.085564 146.292009 
L 170.554383 145.8816 
L 171.090177 145.096381 
L 171.71527 143.761167 
L 172.451986 141.62472 
L 173.300326 138.445362 
L 174.304939 133.758061 
L 175.48815 127.103532 
L 176.939258 117.584273 
L 178.970809 102.620764 
L 182.966937 72.95519 
L 184.485019 63.473368 
L 185.71288 57.123145 
L 186.739818 52.901389 
L 187.610483 50.185762 
L 188.347199 48.546737 
L 188.972292 47.647036 
L 189.485761 47.251772 
L 189.932255 47.162337 
L 190.356425 47.296927 
L 190.825245 47.693843 
L 191.361039 48.463825 
L 191.986131 49.781643 
L 192.722848 51.898323 
L 193.571188 55.056225 
L 194.575801 59.720406 
L 195.759012 66.351602 
L 197.21012 75.849073 
L 199.219346 90.626324 
L 203.304773 120.934676 
L 204.822855 130.371767 
L 206.050716 136.675941 
L 207.077654 140.853687 
L 207.948319 143.528953 
L 208.685035 145.132215 
L 209.310128 146.000781 
L 209.823597 146.370145 
L 210.270091 146.436954 
L 210.694261 146.280887 
L 211.163081 145.860362 
L 211.698875 145.063722 
L 212.323967 143.715473 
L 213.060684 141.564222 
L 213.909024 138.368801 
L 214.913637 133.664204 
L 216.096848 126.992238 
L 217.547956 117.456726 
L 219.601832 102.310898 
L 223.55331 72.98255 
L 225.071393 63.49649 
L 226.299253 57.141896 
L 227.326191 52.915958 
L 228.196856 50.196493 
L 228.933572 48.554066 
L 229.558665 47.651402 
L 230.072134 47.253671 
L 230.518629 47.162082 
L 230.942799 47.294626 
L 231.411618 47.689293 
L 231.947412 48.456735 
L 232.572504 49.771651 
L 233.309221 51.885034 
L 234.157561 55.039356 
L 235.162174 59.699676 
L 236.345385 66.326975 
L 237.796493 75.820801 
L 239.805719 90.595377 
L 243.891146 120.907415 
L 245.409229 130.348783 
L 246.637089 136.657355 
L 247.664027 140.8393 
L 248.534692 143.518415 
L 249.271408 145.125086 
L 249.896501 145.996619 
L 250.40997 146.36845 
L 250.856465 146.437415 
L 251.280635 146.283393 
L 251.749454 145.865115 
L 252.285248 145.071013 
L 252.91034 143.72566 
L 253.647057 141.577697 
L 254.495397 138.385843 
L 255.50001 133.685087 
L 256.683221 127.016991 
L 258.134329 117.485084 
L 260.16588 102.512337 
L 264.139684 73.00992 
L 265.657766 63.519626 
L 266.885626 57.160662 
L 267.912564 52.930544 
L 268.783229 50.207242 
L 269.519945 48.561414 
L 270.145038 47.655787 
L 270.680832 47.245277 
L 271.127326 47.163383 
L 271.551496 47.305133 
L 272.020316 47.709921 
L 272.55611 48.488792 
L 273.181202 49.81676 
L 273.917919 51.944974 
L 274.766259 55.115398 
L 275.770872 59.793073 
L 276.954083 66.437892 
L 278.405191 75.948089 
L 280.436742 90.904954 
L 284.455195 120.729985 
L 285.973277 130.199069 
L 287.201138 136.536163 
L 288.228075 140.745363 
L 289.09874 143.449471 
L 289.835457 145.078285 
L 290.460549 145.969094 
L 290.974018 146.35696 
L 291.420513 146.439931 
L 291.844683 146.299204 
L 292.313502 145.89554 
L 292.849296 145.117938 
L 293.474389 143.79142 
L 294.211105 141.664853 
L 295.059445 138.496217 
L 296.064058 133.820468 
L 297.247269 127.177594 
L 298.698377 117.669212 
L 300.729929 102.71368 
L 304.748381 72.886829 
L 306.266464 63.415621 
L 307.494324 57.076337 
L 308.521262 52.865043 
L 309.391927 50.159014 
L 310.128643 48.528498 
L 310.753736 47.636207 
L 311.267205 47.247108 
L 311.713699 47.16306 
L 312.13787 47.302764 
L 312.606689 47.705303 
L 313.142483 48.481635 
L 313.767575 49.806703 
L 314.504292 51.931623 
L 315.352632 55.098471 
L 316.357245 59.772293 
L 317.540456 66.413223 
L 318.991564 75.919789 
L 321.023115 90.873986 
L 325.041568 120.702653 
L 326.55965 130.175986 
L 327.787511 136.517459 
L 328.814449 140.730846 
L 329.685113 143.438795 
L 330.42183 145.071013 
L 331.046922 145.964786 
L 331.560391 146.355119 
L 332.006886 146.440244 
L 332.431056 146.301563 
L 332.899876 145.900148 
L 333.435669 145.125086 
L 334.060762 143.801468 
L 334.797478 141.678195 
L 335.645818 138.513136 
L 336.650431 133.841242 
L 337.833643 127.202257 
L 339.284751 117.697508 
L 341.316302 102.744647 
L 345.357079 72.76393 
L 346.875161 63.311883 
L 348.103022 56.992328 
L 349.12996 52.799892 
L 350.000625 50.111159 
L 350.737341 48.495969 
L 351.362434 47.61702 
L 351.875903 47.239021 
L 352.322397 47.164669 
L 352.746567 47.313578 
L 353.215387 47.726236 
L 353.751181 48.513993 
L 354.376273 49.852105 
L 355.11299 51.991843 
L 355.96133 55.174773 
L 356.965943 59.86592 
L 358.149154 66.524329 
L 359.600262 76.047206 
L 361.631813 91.013362 
L 365.627941 120.675311 
L 367.146023 130.15289 
L 368.373884 136.49874 
L 369.400822 140.716312 
L 370.271486 143.428101 
L 371.008203 145.063722 
L 371.633295 145.96046 
L 372.146764 146.353258 
L 372.593259 146.440538 
L 373.017429 146.303903 
L 373.486249 145.904737 
L 374.022042 145.132215 
L 374.647135 143.811497 
L 375.383851 141.69152 
L 376.232191 138.530039 
L 377.236805 133.862 
L 378.420016 127.226908 
L 379.871124 117.725797 
L 381.902675 102.775612 
L 385.943452 72.791224 
L 387.461534 63.334913 
L 388.689395 57.010969 
L 389.716333 52.81434 
L 390.586998 50.121761 
L 391.323714 48.503164 
L 391.948807 47.62125 
L 392.462276 47.240784 
L 392.90877 47.164277 
L 393.33294 47.311141 
L 393.80176 47.72155 
L 394.337554 48.506769 
L 394.962646 49.841983 
L 395.699363 51.978429 
L 396.547703 55.157788 
L 397.552316 59.845088 
L 398.735527 66.499617 
L 400.186635 76.018877 
L 402.218186 90.982386 
L 406.214314 120.64796 
L 407.732396 130.129781 
L 408.960257 136.480005 
L 409.987195 140.70176 
L 410.85786 143.417388 
L 411.594576 145.056412 
L 412.219669 145.956113 
L 412.733137 146.351378 
L 413.179632 146.440813 
L 413.603802 146.306223 
L 414.072622 145.909306 
L 414.608415 145.139325 
L 415.233508 143.821507 
L 415.970224 141.704827 
L 416.818564 138.546925 
L 417.823178 133.882744 
L 419.006389 127.251548 
L 420.457497 117.754077 
L 422.466723 102.976825 
L 426.55215 72.668474 
L 428.070232 63.231383 
L 429.298093 56.927208 
L 430.325031 52.749463 
L 431.195696 50.074197 
L 431.932412 48.470935 
L 432.557505 47.602369 
L 433.070974 47.233005 
L 433.517468 47.166195 
L 433.941638 47.322263 
L 434.410458 47.742788 
L 434.946251 48.539428 
L 435.571344 49.887676 
L 436.30806 52.038928 
L 437.156401 55.234349 
L 438.161014 59.938945 
L 439.344225 66.610912 
L 440.795333 76.146424 
L 442.849209 91.292252 
L 446.800687 120.620599 
L 448.318769 130.106659 
L 449.54663 136.461254 
L 450.573568 140.687192 
L 451.444233 143.406657 
L 452.180949 145.049084 
L 452.806042 145.951748 
L 453.319511 146.349478 
L 453.766005 146.441067 
L 454.190175 146.308524 
L 454.658995 145.913856 
L 455.194789 145.146415 
L 455.819881 143.831499 
L 456.556598 141.718116 
L 457.404938 138.563794 
L 458.409551 133.903473 
L 459.592762 127.276175 
L 461.04387 117.782348 
L 463.053096 103.007772 
L 467.138523 72.695735 
L 468.656605 63.254366 
L 469.884466 56.945794 
L 470.911404 52.76385 
L 471.782069 50.084734 
L 472.518785 48.478064 
L 473.143878 47.606531 
L 473.657347 47.2347 
L 474.103841 47.165735 
L 474.528011 47.319757 
L 474.996831 47.738034 
L 475.532625 48.532137 
L 476.157717 49.87749 
L 476.894434 52.025453 
L 477.742774 55.217307 
L 478.747387 59.918063 
L 479.930598 66.586159 
L 481.381706 76.118066 
L 483.413257 91.090813 
L 487.38706 120.593229 
L 488.905142 130.083524 
L 490.133003 136.442487 
L 491.159941 140.672605 
L 492.030606 143.395907 
L 492.767322 145.041736 
L 493.392415 145.947363 
L 493.928208 146.357873 
L 494.374703 146.439767 
L 494.798873 146.298017 
L 495.267693 145.893229 
L 495.803486 145.114357 
L 496.428579 143.78639 
L 497.165295 141.658175 
L 498.013635 138.487752 
L 499.018249 133.810076 
L 500.20146 127.165258 
L 501.652568 117.65506 
L 503.684119 102.698195 
L 507.702572 72.873164 
L 509.220654 63.404081 
L 510.448514 57.066987 
L 511.475452 52.857786 
L 512.346117 50.153679 
L 513.082833 48.524865 
L 513.707926 47.634056 
L 514.221395 47.24619 
L 514.66789 47.163219 
L 515.09206 47.303946 
L 515.560879 47.707609 
L 516.096673 48.485211 
L 516.721766 49.811729 
L 517.458482 51.938296 
L 518.306822 55.106932 
L 519.311435 59.782681 
L 520.494646 66.425556 
L 521.945754 75.933938 
L 523.977305 90.88947 
L 527.995758 120.71632 
L 529.51384 130.187529 
L 530.741701 136.526813 
L 531.768639 140.738107 
L 532.639304 143.444135 
L 533.37602 145.074651 
L 534.001113 145.966943 
L 534.514582 146.356042 
L 534.961076 146.44009 
L 535.385246 146.300386 
L 535.854066 145.897847 
L 536.38986 145.121515 
L 537.014952 143.796446 
L 537.751669 141.671527 
L 538.600009 138.504679 
L 539.604622 133.830857 
L 540.787833 127.189927 
L 542.238941 117.683361 
L 544.270492 102.729164 
L 548.288945 72.900497 
L 549.807027 63.427164 
L 551.034887 57.08569 
L 552.061825 52.872303 
L 552.93249 50.164355 
L 553.669206 48.532137 
L 554.294299 47.638363 
L 554.807768 47.248031 
L 555.254263 47.162905 
L 555.678433 47.301586 
L 556.147252 47.703001 
L 556.683046 48.478064 
L 557.308139 49.801682 
L 558.044855 51.924954 
L 558.893195 55.090014 
L 559.897808 59.761908 
L 561.081019 66.400893 
L 562.532127 75.905641 
L 564.563678 90.858503 
L 568.604456 120.83922 
L 570.122538 130.291267 
L 571.350399 136.610821 
L 572.377337 140.803257 
L 573.248001 143.49199 
L 573.984718 145.107181 
L 574.60981 145.986129 
L 575.123279 146.364129 
L 575.569774 146.438481 
L 575.993944 146.289572 
L 576.462764 145.876914 
L 576.998557 145.089157 
L 577.62365 143.751045 
L 578.360366 141.611307 
L 579.208706 138.428377 
L 580.21332 133.73723 
L 581.396531 127.078821 
L 582.847639 117.555943 
L 584.87919 102.589788 
L 588.875318 72.927838 
L 590.3934 63.450259 
L 591.621261 57.10441 
L 592.648198 52.886838 
L 593.518863 50.175049 
L 594.25558 48.539428 
L 594.880672 47.64269 
L 595.394141 47.249891 
L 595.840636 47.162611 
L 596.264806 47.299247 
L 596.733625 47.698413 
L 597.269419 48.470935 
L 597.894512 49.791653 
L 598.631228 51.91163 
L 599.479568 55.073111 
L 600.484181 59.74115 
L 601.667392 66.376241 
L 603.1185 75.877353 
L 605.150052 90.827538 
L 609.190829 120.811926 
L 610.708911 130.268237 
L 611.936772 136.59218 
L 612.96371 140.78881 
L 613.834375 143.481388 
L 614.571091 145.099986 
L 615.196184 145.9819 
L 615.709652 146.362366 
L 616.156147 146.438872 
L 616.580317 146.292009 
L 617.049137 145.8816 
L 617.58493 145.096381 
L 618.210023 143.761167 
L 618.946739 141.62472 
L 619.795079 138.445362 
L 620.799693 133.758061 
L 621.982904 127.103532 
L 623.434012 117.584273 
L 625.465563 102.620764 
L 629.461691 72.95519 
L 630.979773 63.473368 
L 632.207634 57.123145 
L 633.234572 52.901389 
L 634.105236 50.185762 
L 634.841953 48.546737 
L 635.467045 47.647036 
L 635.980514 47.251772 
L 636.427009 47.162337 
L 636.851179 47.296927 
L 637.319999 47.693843 
L 637.855792 48.463825 
L 638.480885 49.781643 
L 639.217601 51.898323 
L 640.065941 55.056225 
L 641.070554 59.720406 
L 642.253766 66.351602 
L 643.704874 75.849073 
L 645.7141 90.626324 
L 649.799527 120.934676 
L 651.317609 130.371767 
L 652.54547 136.675941 
L 653.572408 140.853687 
L 654.443072 143.528953 
L 655.179789 145.132215 
L 655.804881 146.000781 
L 656.31835 146.370145 
L 656.764845 146.436954 
L 657.189015 146.280887 
L 657.657835 145.860362 
L 658.193628 145.063722 
L 658.818721 143.715473 
L 659.555437 141.564222 
L 660.403777 138.368801 
L 661.408391 133.664204 
L 662.591602 126.992238 
L 664.04271 117.456726 
L 666.096585 102.310898 
L 670.048064 72.98255 
L 671.566146 63.49649 
L 672.794007 57.141896 
L 673.820945 52.915958 
L 674.691609 50.196493 
L 675.428326 48.554066 
L 676.053418 47.651402 
L 676.566887 47.253671 
L 677.013382 47.162082 
L 677.437552 47.294626 
L 677.906372 47.689293 
L 678.442165 48.456735 
L 679.067258 49.771651 
L 679.803974 51.885034 
L 680.652314 55.039356 
L 681.656928 59.699676 
L 682.840139 66.326975 
L 684.291247 75.820801 
L 686.300473 90.595377 
L 690.3859 120.907415 
L 691.903982 130.348783 
L 693.131843 136.657355 
L 694.158781 140.8393 
L 695.029445 143.518415 
L 695.766162 145.125086 
L 696.391254 145.996619 
L 696.904723 146.36845 
L 697.351218 146.437415 
L 697.775388 146.283393 
L 698.244208 145.865115 
L 698.780001 145.071013 
L 699.405094 143.72566 
L 700.14181 141.577697 
L 700.99015 138.385843 
L 701.994764 133.685087 
L 703.177975 127.016991 
L 704.629083 117.485084 
L 706.660634 102.512337 
L 710.634437 73.00992 
L 712.152519 63.519626 
L 713.38038 57.160662 
L 714.407318 52.930544 
L 715.277983 50.207242 
L 716.014699 48.561414 
L 716.639792 47.655787 
L 717.175585 47.245277 
L 717.62208 47.163383 
L 718.04625 47.305133 
L 718.515069 47.709921 
L 719.050863 48.488792 
L 719.675956 49.81676 
L 720.412672 51.944974 
L 721.261012 55.115398 
L 722.265625 59.793073 
L 723.448837 66.437892 
L 724.899944 75.948089 
L 726.931496 90.904954 
L 730.949948 120.729985 
L 732.468031 130.199069 
L 733.695891 136.536163 
L 734.722829 140.745363 
L 735.593494 143.449471 
L 736.33021 145.078285 
L 736.955303 145.969094 
L 737.468772 146.35696 
L 737.915267 146.439931 
L 738.339437 146.299204 
L 738.808256 145.89554 
L 739.34405 145.117938 
L 739.969142 143.79142 
L 740.705859 141.664853 
L 741.554199 138.496217 
L 742.558812 133.820468 
L 743.742023 127.177594 
L 745.193131 117.669212 
L 747.224682 102.71368 
L 751.243135 72.886829 
L 752.761217 63.415621 
L 753.989078 57.076337 
L 755.016016 52.865043 
L 755.88668 50.159014 
L 756.623397 48.528498 
L 757.248489 47.636207 
L 757.761958 47.247108 
L 758.208453 47.16306 
L 758.632623 47.302764 
L 759.101443 47.705303 
L 759.637236 48.481635 
L 760.262329 49.806703 
L 760.999045 51.931623 
L 761.847385 55.098471 
L 762.851999 59.772293 
L 764.03521 66.413223 
L 765.486318 75.919789 
L 767.517869 90.873986 
L 771.536321 120.702653 
L 773.054404 130.175986 
L 774.282264 136.517459 
L 775.309202 140.730846 
L 776.179867 143.438795 
L 776.916583 145.071013 
L 777.541676 145.964786 
L 778.055145 146.355119 
L 778.50164 146.440244 
L 778.92581 146.301563 
L 779.394629 145.900148 
L 779.930423 145.125086 
L 780.555516 143.801468 
L 781.292232 141.678195 
L 782.140572 138.513136 
L 783.145185 133.841242 
L 784.328396 127.202257 
L 785.779504 117.697508 
L 787.811055 102.744647 
L 791.851833 72.76393 
L 793.369915 63.311883 
L 794.597776 56.992328 
L 795.624713 52.799892 
L 796.495378 50.111159 
L 797.232095 48.495969 
L 797.857187 47.61702 
L 798.370656 47.239021 
L 798.817151 47.164669 
L 799.241321 47.313578 
L 799.71014 47.726236 
L 800.245934 48.513993 
L 800.871027 49.852105 
L 801.607743 51.991843 
L 802.456083 55.174773 
L 803.460696 59.86592 
L 804.643907 66.524329 
L 806.095015 76.047206 
L 808.126567 91.013362 
L 812.122695 120.675311 
L 813.640777 130.15289 
L 814.868637 136.49874 
L 815.895575 140.716312 
L 816.76624 143.428101 
L 817.502956 145.063722 
L 818.128049 145.96046 
L 818.641518 146.353258 
L 819.088013 146.440538 
L 819.512183 146.303903 
L 819.981002 145.904737 
L 820.516796 145.132215 
L 821.141889 143.811497 
L 821.878605 141.69152 
L 822.726945 138.530039 
L 823.731558 133.862 
L 824.914769 127.226908 
L 826.365877 117.725797 
L 828.397428 102.775612 
L 832.438206 72.791224 
L 833.956288 63.334913 
L 835.184149 57.010969 
L 836.211087 52.81434 
L 837.081751 50.121761 
L 837.818468 48.503164 
L 838.44356 47.62125 
L 838.957029 47.240784 
L 839.403524 47.164277 
L 839.827694 47.311141 
L 840.296514 47.72155 
L 840.832307 48.506769 
L 841.4574 49.841983 
L 842.194116 51.978429 
L 843.042456 55.157788 
L 844.047069 59.845088 
L 845.230281 66.499617 
L 846.681389 76.018877 
L 848.71294 90.982386 
L 852.709068 120.64796 
L 854.22715 130.129781 
L 855.45501 136.480005 
L 856.481948 140.70176 
L 857.352613 143.417388 
L 858.089329 145.056412 
L 858.714422 145.956113 
L 859.227891 146.351378 
L 859.674386 146.440813 
L 860.098556 146.306223 
L 860.567375 145.909306 
L 861.103169 145.139325 
L 861.728262 143.821507 
L 862.464978 141.704827 
L 863.313318 138.546925 
L 864.317931 133.882744 
L 865.501142 127.251548 
L 866.95225 117.754077 
L 868.961477 102.976825 
L 873.046904 72.668474 
L 874.564986 63.231383 
L 875.792846 56.927208 
L 876.819784 52.749463 
L 877.690449 50.074197 
L 878.427165 48.470935 
L 879.052258 47.602369 
L 879.565727 47.233005 
L 880.012222 47.166195 
L 880.436392 47.322263 
L 880.905211 47.742788 
L 881.441005 48.539428 
L 882.066098 49.887676 
L 882.802814 52.038928 
L 883.651154 55.234349 
L 884.655767 59.938945 
L 885.838978 66.610912 
L 887.290086 76.146424 
L 889.343962 91.292252 
L 893.295441 120.620599 
L 894.813523 130.106659 
L 896.041384 136.461254 
L 897.068321 140.687192 
L 897.938986 143.406657 
L 898.675703 145.049084 
L 899.300795 145.951748 
L 899.814264 146.349478 
L 900.260759 146.441067 
L 900.684929 146.308524 
L 901.153748 145.913856 
L 901.689542 145.146415 
L 902.314635 143.831499 
L 903.051351 141.718116 
L 903.899691 138.563794 
L 904.904304 133.903473 
L 906.087515 127.276175 
L 907.538623 117.782348 
L 909.54785 103.007772 
L 913.633277 72.695735 
L 915.151359 63.254366 
L 916.37922 56.945794 
L 917.406157 52.76385 
L 918.276822 50.084734 
L 919.013539 48.478064 
L 919.638631 47.606531 
L 920.1521 47.2347 
L 920.598595 47.165735 
L 921.022765 47.319757 
L 921.491584 47.738034 
L 922.027378 48.532137 
L 922.652471 49.87749 
L 923.389187 52.025453 
L 924.237527 55.217307 
L 925.24214 59.918063 
L 926.425351 66.586159 
L 927.876459 76.118066 
L 929.908011 91.090813 
L 933.881814 120.593229 
L 935.399896 130.083524 
L 936.627757 136.442487 
L 937.654695 140.672605 
L 938.525359 143.395907 
L 939.262076 145.041736 
L 939.887168 145.947363 
L 940.422962 146.357873 
L 940.869457 146.439767 
L 941.293627 146.298017 
L 941.762446 145.893229 
L 942.29824 145.114357 
L 942.923333 143.78639 
L 943.660049 141.658175 
L 944.508389 138.487752 
L 945.513002 133.810076 
L 946.696213 127.165258 
L 948.147321 117.65506 
L 950.178872 102.698195 
L 954.197325 72.873164 
L 955.715407 63.404081 
L 956.943268 57.066987 
L 957.970206 52.857786 
L 958.840871 50.153679 
L 959.577587 48.524865 
L 960.20268 47.634056 
L 960.716149 47.24619 
L 961.095669 47.160551 
L 961.095669 47.160551 
" clip-path="url(#p07c783d325)" style="fill: none; stroke: #e36f47; stroke-width: 4"/>
   </g>
   <g id="patch_3">
    <path d="M 41.316477 150.625354 
L 41.316477 2.834646 
" style="fill: none; stroke: #000000; stroke-width: 2; stroke-linejoin: miter; stroke-linecap: square"/>
   </g>
   <g id="patch_4">
    <path d="M 41.316477 150.625354 
L 987.885354 150.625354 
" style="fill: none; stroke: #000000; stroke-width: 2; stroke-linejoin: miter; stroke-linecap: square"/>
   </g>
   <g id="line2d_11">
    <path d="M 68.106162 22.34004 
L 71.63347 28.009859 
L 75.138454 33.215937 
L 78.598789 37.969146 
L 82.260046 42.612022 
L 85.832004 46.78835 
L 89.470936 50.712249 
L 93.221492 54.434491 
L 97.016697 57.895184 
L 100.901202 61.144792 
L 104.875005 64.188433 
L 104.89733 14.574186 
L 104.986629 14.738896 
L 108.335339 20.682781 
L 111.706375 26.23157 
L 115.122059 31.441446 
L 118.671693 36.448434 
L 122.221326 41.071836 
L 125.793284 45.366864 
L 129.432216 49.4022 
L 133.272071 53.31749 
L 137.089601 56.889431 
L 140.974106 60.223083 
L 144.947909 63.345334 
L 147.158058 64.965046 
L 147.180383 15.358712 
L 147.269682 15.521891 
L 150.618392 21.409062 
L 153.989428 26.904907 
L 157.405113 32.065053 
L 160.977071 37.054224 
L 164.593678 41.714041 
L 168.254935 46.061442 
L 171.871543 50.018903 
L 175.599774 53.775552 
L 179.372655 57.270244 
L 179.908448 57.875882 
L 182.096273 61.490625 
L 183.926901 64.121092 
L 185.645906 66.222252 
L 187.230962 67.835816 
L 188.771369 69.112261 
L 190.289451 70.104742 
L 190.535023 70.242068 
L 190.557348 20.623676 
L 190.646647 20.761885 
L 191.785209 22.322645 
L 192.901446 23.514077 
L 193.995358 24.390012 
L 195.08927 25.013681 
L 196.250156 25.443592 
L 197.544991 25.700633 
L 199.197022 25.805236 
L 203.126175 25.977974 
L 204.42101 26.29733 
L 205.648871 26.828231 
L 206.787432 27.560226 
L 207.970644 28.592933 
L 209.265478 30.053477 
L 210.649612 31.994812 
L 212.212344 34.615984 
L 214.109946 38.29344 
L 216.76659 43.979377 
L 220.829692 52.616376 
L 222.928218 56.543488 
L 224.803496 59.580875 
L 226.433202 61.82074 
L 228.018258 63.63538 
L 229.603314 65.101569 
L 230.607928 65.859784 
L 230.630252 16.251166 
L 230.719551 16.410444 
L 231.880438 18.251705 
L 233.018999 19.673283 
L 234.157561 20.75167 
L 235.363097 21.564244 
L 236.501658 22.069447 
L 237.729519 22.384798 
L 239.3369 22.543744 
L 244.159043 22.825202 
L 245.409229 23.222703 
L 246.54779 23.808852 
L 247.641702 24.607317 
L 248.780264 25.704533 
L 249.963475 27.142176 
L 251.280635 29.094053 
L 252.731743 31.636269 
L 254.584696 35.368784 
L 257.129716 41.041467 
L 261.460715 50.67812 
L 263.55924 54.775345 
L 265.322895 57.766471 
L 266.930276 60.096376 
L 268.202786 61.666489 
L 268.22511 12.078269 
L 268.314409 12.322215 
L 269.609244 15.539397 
L 270.85943 18.109989 
L 272.154264 20.24877 
L 273.315151 21.750322 
L 274.520687 22.932962 
L 275.636923 23.727118 
L 276.775485 24.280716 
L 277.981021 24.635689 
L 279.454454 24.829967 
L 281.664603 24.871648 
L 283.919401 24.983636 
L 285.28121 25.263302 
L 286.464421 25.715729 
L 287.647632 26.410885 
L 288.853168 27.399553 
L 290.014054 28.63712 
L 291.286565 30.319142 
L 292.648374 32.474078 
L 294.23343 35.385209 
L 296.287306 39.632801 
L 303.364248 54.658546 
L 305.150227 57.779804 
L 305.172551 8.218565 
L 305.26185 8.547487 
L 306.824582 13.877828 
L 308.27569 18.109898 
L 309.749123 21.704715 
L 311.021633 24.258816 
L 312.249493 26.270331 
L 313.477354 27.864714 
L 314.615915 29.006718 
L 315.732152 29.843984 
L 316.870714 30.447043 
L 318.07625 30.854005 
L 319.594332 31.106877 
L 321.536584 31.178534 
L 324.639723 31.297331 
L 326.046181 31.584739 
L 327.274042 32.04952 
L 328.501902 32.757356 
L 329.662789 33.678225 
L 330.935299 34.98405 
L 332.230133 36.627868 
L 333.681241 38.819293 
L 335.489545 41.982813 
L 338.101539 47.091333 
L 342.76741 56.262021 
L 343.392502 57.381453 
L 343.414827 7.820907 
L 343.504126 8.174886 
L 345.334754 14.978912 
L 346.986785 20.318482 
L 348.549517 24.62704 
L 350.022949 28.025606 
L 351.362434 30.571577 
L 352.634944 32.536451 
L 353.818155 33.996802 
L 355.001366 35.131555 
L 356.296201 36.042278 
L 357.546386 36.63649 
L 358.818896 37.006316 
L 360.381628 37.217667 
L 362.74805 37.267923 
L 365.270745 37.380012 
L 366.833477 37.690352 
L 368.217611 38.218595 
L 369.445471 38.929743 
L 370.673332 39.895893 
L 371.968166 41.197569 
L 373.486249 43.083659 
L 375.138279 45.528005 
L 377.192155 48.994483 
L 383.644004 60.492908 
L 383.666329 10.908361 
L 383.755628 11.251294 
L 385.653231 18.098668 
L 387.43921 23.688543 
L 389.068916 28.007963 
L 390.475374 31.133289 
L 391.792534 33.565906 
L 393.042719 35.455995 
L 394.359878 37.036939 
L 395.677038 38.233868 
L 396.949548 39.066826 
L 398.155084 39.604594 
L 399.628516 39.991063 
L 401.191248 40.163693 
L 403.803242 40.19987 
L 406.035716 40.326136 
L 407.509149 40.623162 
L 408.870958 41.130523 
L 410.232767 41.909103 
L 411.572251 42.966232 
L 412.97871 44.395139 
L 414.407493 46.164043 
L 416.126498 48.659779 
L 418.269672 52.173965 
L 424.810821 63.157186 
L 425.502887 64.170188 
L 425.525212 14.581619 
L 425.614511 14.902191 
L 427.333516 20.661644 
L 428.940897 25.302984 
L 430.36968 28.806832 
L 431.753814 31.648201 
L 433.182597 34.035573 
L 434.410458 35.674211 
L 435.682968 36.999728 
L 436.843854 37.912003 
L 438.071715 38.603936 
L 439.344225 39.072115 
L 440.884632 39.371042 
L 442.804559 39.47826 
L 446.823012 39.638751 
L 448.251795 39.957297 
L 449.613604 40.499743 
L 450.975413 41.32099 
L 452.314897 42.425624 
L 453.743681 43.93382 
L 455.194789 45.793674 
L 457.070067 48.611208 
L 459.414164 52.574328 
L 464.839075 61.865186 
L 466.937601 64.942784 
L 468.076162 66.420141 
L 468.098487 16.842657 
L 468.187786 17.131523 
L 469.705868 21.666428 
L 471.134651 25.296748 
L 472.49646 28.188514 
L 473.835945 30.516236 
L 475.108455 32.282785 
L 476.269341 33.548294 
L 477.452552 34.529334 
L 478.747387 35.29032 
L 480.019897 35.768322 
L 481.359381 36.04456 
L 483.033736 36.166771 
L 487.587983 36.372053 
L 488.949792 36.715855 
L 490.177653 37.239994 
L 491.494812 38.068637 
L 492.811972 39.198223 
L 494.151456 40.661648 
L 495.624888 42.619911 
L 497.276919 45.188932 
L 499.487068 49.070395 
L 506.028216 60.825768 
L 508.082092 63.88485 
L 509.845746 66.122876 
L 510.113643 66.429915 
L 510.135968 16.823948 
L 510.225267 17.087679 
L 511.631725 20.905905 
L 513.015859 24.051062 
L 514.399993 26.615222 
L 515.672503 28.495591 
L 516.922688 29.930925 
L 518.06125 30.920137 
L 519.199811 31.640761 
L 520.383023 32.145588 
L 521.811806 32.488981 
L 523.396862 32.632042 
L 528.598526 32.943598 
L 529.915686 33.364708 
L 531.098897 33.966231 
L 532.393731 34.902532 
L 533.621592 36.078513 
L 534.916427 37.622051 
L 536.456834 39.840697 
L 538.309787 42.973526 
L 540.676209 47.462367 
L 545.922522 57.530123 
L 547.954074 60.893687 
L 549.717728 63.421282 
L 550.923264 64.922188 
L 550.945588 15.345052 
L 551.034887 15.610022 
L 552.441346 19.428771 
L 553.82548 22.561079 
L 555.209613 25.103126 
L 556.437474 26.898906 
L 557.620685 28.25167 
L 558.87087 29.321208 
L 560.009432 30.012317 
L 561.214968 30.494721 
L 562.599102 30.798981 
L 564.228807 30.923809 
L 568.850028 31.162326 
L 570.144863 31.525466 
L 571.395048 32.109939 
L 572.578259 32.912532 
L 573.895419 34.114886 
L 575.279553 35.738721 
L 576.752985 37.851522 
L 578.405016 40.631419 
L 580.59284 44.793526 
L 587.178638 57.661682 
L 589.098565 60.791552 
L 590.683622 63.029166 
L 590.705946 13.419456 
L 590.795245 13.70581 
L 592.246353 17.998524 
L 593.742111 21.704777 
L 595.036945 24.344223 
L 596.264806 26.388322 
L 597.559641 28.092866 
L 598.720527 29.263005 
L 599.970712 30.186781 
L 601.109274 30.765864 
L 602.337135 31.157322 
L 603.810567 31.385975 
L 605.819794 31.450132 
L 608.744334 31.564145 
L 610.217767 31.865935 
L 611.423303 32.324244 
L 612.651163 33.033862 
L 613.81205 33.954309 
L 615.017586 35.181554 
L 616.446369 36.992267 
L 617.919802 39.230969 
L 619.817404 42.572015 
L 622.3401 47.509156 
L 626.849697 56.337644 
L 629.037521 60.068956 
L 630.198407 61.822554 
L 630.220732 12.249622 
L 630.310031 12.558764 
L 631.850438 17.489042 
L 633.279221 21.388923 
L 634.68568 24.599431 
L 636.025164 27.104307 
L 637.319999 29.044812 
L 638.592509 30.526411 
L 639.73107 31.530618 
L 640.891957 32.277686 
L 642.186791 32.829591 
L 643.503951 33.14633 
L 645.066683 33.296416 
L 650.491594 33.637562 
L 651.853403 34.095676 
L 653.170562 34.808823 
L 654.465397 35.80572 
L 655.715582 37.062942 
L 657.032742 38.696201 
L 658.550824 40.941182 
L 660.493076 44.276725 
L 663.14972 49.346891 
L 667.39142 57.407905 
L 669.489946 60.905386 
L 670.070389 61.787288 
L 670.092713 12.200074 
L 670.182012 12.519011 
L 671.789394 17.851201 
L 673.285151 22.099175 
L 674.669285 25.418256 
L 675.964119 28.003468 
L 677.214305 30.049472 
L 678.553789 31.783041 
L 679.848624 33.049823 
L 681.031835 33.8942 
L 682.304345 34.516721 
L 683.621504 34.903043 
L 685.094937 35.10376 
L 687.282761 35.156579 
L 689.939405 35.265889 
L 691.502137 35.577817 
L 692.886271 36.113864 
L 694.114131 36.839054 
L 695.319667 37.806761 
L 696.659151 39.188375 
L 698.132584 41.070335 
L 699.71764 43.473697 
L 701.704542 46.91328 
L 705.254175 53.596081 
L 708.223365 58.961739 
L 710.36654 62.371777 
L 710.612112 62.730797 
L 710.634437 13.167074 
L 710.723736 13.483374 
L 712.331117 18.766972 
L 713.849199 23.03807 
L 715.233333 26.323341 
L 716.572817 28.963952 
L 717.845327 31.006632 
L 719.028538 32.528894 
L 720.21175 33.715644 
L 721.506584 34.672674 
L 722.75677 35.301411 
L 724.006955 35.691952 
L 725.592011 35.92787 
L 727.80216 35.987066 
L 730.548103 36.097358 
L 731.999211 36.376292 
L 733.338695 36.865467 
L 734.588881 37.569162 
L 735.772092 38.478724 
L 737.044602 39.735445 
L 738.384086 41.362807 
L 739.879843 43.517914 
L 741.777446 46.666373 
L 744.501064 51.661974 
L 748.541842 59.012536 
L 750.751991 62.535222 
L 751.64498 63.810388 
L 751.667305 14.226086 
L 751.756604 14.532401 
L 753.319336 19.501254 
L 754.770443 23.446715 
L 756.266201 26.84348 
L 757.561036 29.254099 
L 758.788896 31.113779 
L 760.106056 32.681067 
L 761.356241 33.797384 
L 762.494803 34.537303 
L 763.678014 35.065088 
L 765.062148 35.427586 
L 766.714178 35.60293 
L 769.906616 35.647448 
L 771.714919 35.824614 
L 773.166027 36.202026 
L 774.393888 36.745806 
L 775.688723 37.583876 
L 776.916583 38.65072 
L 778.233743 40.09336 
L 779.751825 42.12096 
L 781.515479 44.89967 
L 783.16751 47.473245 
L 786.873416 51.411746 
L 790.668622 55.119348 
L 792.298328 56.616928 
L 792.320652 7.017402 
L 792.409951 7.197305 
L 795.714012 13.603986 
L 799.062723 19.630074 
L 802.456083 25.291482 
L 805.871768 30.570788 
L 809.399077 35.613768 
L 812.90406 40.244368 
L 816.453694 44.576992 
L 820.092626 48.674361 
L 823.753883 52.472489 
L 827.616063 56.154526 
L 831.23267 59.324795 
L 831.254995 9.707898 
L 831.344294 9.882327 
L 834.67068 16.137515 
L 838.041715 22.017628 
L 841.435075 27.503896 
L 844.873085 32.651887 
L 848.467368 37.625456 
L 852.06165 42.213451 
L 855.655933 46.445756 
L 859.294865 50.396535 
L 863.023096 54.12286 
L 866.818302 57.609008 
L 870.702806 60.882561 
L 871.327899 61.383169 
L 871.350224 11.766753 
L 871.439523 11.937067 
L 874.765909 18.044384 
L 878.136944 23.785494 
L 881.530304 29.142068 
L 884.990638 34.199698 
L 888.540272 38.995428 
L 892.179204 43.530616 
L 895.773487 47.660812 
L 899.434744 51.538952 
L 903.252274 55.256974 
L 907.203752 58.784113 
L 911.132906 61.994287 
L 912.316117 62.906908 
L 912.338442 13.282964 
L 912.427741 13.450203 
L 915.776452 19.487429 
L 919.147487 25.123353 
L 922.563172 30.415065 
L 926.09048 35.469907 
L 929.595464 40.111392 
L 933.145098 44.4542 
L 936.78403 48.561208 
L 940.445287 52.368258 
L 944.329791 56.079379 
L 948.169646 59.443222 
L 952.0988 62.597777 
L 954.018727 64.040974 
L 954.041052 14.436353 
L 954.130351 14.601385 
L 957.479062 20.55523 
L 960.850097 26.113316 
L 961.095669 26.501778 
L 961.095669 26.501778 
" clip-path="url(#p07c783d325)" style="fill: none; stroke: #3ea44d; stroke-width: 4"/>
   </g>
  </g>
 </g>
 <defs>
  <clipPath id="p07c783d325">
   <rect x="41.316477" y="2.834646" width="946.568878" height="147.790709"/>
  </clipPath>
 </defs>
</svg>
