<?xml version="1.0" encoding="utf-8" standalone="no"?>
<!DOCTYPE svg PUBLIC "-//W3C//DTD SVG 1.1//EN"
  "http://www.w3.org/Graphics/SVG/1.1/DTD/svg11.dtd">
<svg xmlns:xlink="http://www.w3.org/1999/xlink" width="956.16pt" height="282.24pt" viewBox="0 0 956.16 282.24" xmlns="http://www.w3.org/2000/svg" version="1.1">
 <metadata>
  <rdf:RDF xmlns:dc="http://purl.org/dc/elements/1.1/" xmlns:cc="http://creativecommons.org/ns#" xmlns:rdf="http://www.w3.org/1999/02/22-rdf-syntax-ns#">
   <cc:Work>
    <dc:type rdf:resource="http://purl.org/dc/dcmitype/StillImage"/>
    <dc:date>2024-07-16T17:23:40.251866</dc:date>
    <dc:format>image/svg+xml</dc:format>
    <dc:creator>
     <cc:Agent>
      <dc:title>Matplotlib v3.8.4, https://matplotlib.org/</dc:title>
     </cc:Agent>
    </dc:creator>
   </cc:Work>
  </rdf:RDF>
 </metadata>
 <defs>
  <style type="text/css">*{stroke-linejoin: round; stroke-linecap: butt}</style>
 </defs>
 <g id="figure_1">
  <g id="patch_1">
   <path d="M 0 282.24 
L 956.16 282.24 
L 956.16 0 
L 0 0 
L 0 282.24 
z
" style="fill: none"/>
  </g>
  <g id="axes_1">
   <g id="patch_2">
    <path d="M 34.667068 248.545354 
L 953.325354 248.545354 
L 953.325354 2.834646 
L 34.667068 2.834646 
L 34.667068 248.545354 
z
" style="fill: none"/>
   </g>
   <g id="line2d_1">
    <path d="M 60.66683 219.046978 
L 100.533133 218.804455 
L 105.733086 218.799074 
L 107.466403 219.045154 
L 109.199721 221.46756 
L 110.933039 225.566855 
L 112.666356 230.135527 
L 114.399674 234.319899 
L 116.132991 237.65905 
L 117.866309 239.96832 
L 119.599626 241.242034 
L 121.332944 241.5897 
L 123.066261 241.216226 
L 124.799579 240.316704 
L 126.532896 239.054814 
L 129.999531 235.990793 
L 133.466166 232.880604 
L 136.932801 230.057234 
L 140.399436 227.714052 
L 143.866071 225.83855 
L 147.332706 224.363928 
L 150.799342 223.246598 
L 154.265977 222.388618 
L 157.732612 221.746143 
L 162.932564 221.063524 
L 169.865834 220.476376 
L 178.532422 219.954488 
L 188.932327 219.598781 
L 204.532185 219.330913 
L 244.398488 218.960665 
L 279.064838 218.799074 
L 280.798156 219.045154 
L 282.531473 221.46756 
L 284.264791 225.566855 
L 285.998108 230.135527 
L 287.731426 234.319899 
L 289.464743 237.65905 
L 291.198061 239.96832 
L 292.931378 241.242034 
L 294.664696 241.5897 
L 296.398013 241.216226 
L 298.131331 240.316704 
L 299.864648 239.054814 
L 303.331283 235.990793 
L 306.797919 232.880604 
L 310.264554 230.057234 
L 313.731189 227.714052 
L 317.197824 225.83855 
L 320.664459 224.363928 
L 324.131094 223.246598 
L 327.597729 222.388618 
L 331.064364 221.746143 
L 336.264316 221.063524 
L 343.197587 220.476376 
L 351.864174 219.954488 
L 362.264079 219.598781 
L 377.863937 219.330913 
L 417.73024 218.960665 
L 452.39659 218.799074 
L 454.129908 219.045154 
L 455.863225 221.46756 
L 457.596543 225.566855 
L 459.32986 230.135527 
L 461.063178 234.319899 
L 462.796496 237.65905 
L 464.529813 239.96832 
L 466.263131 241.242034 
L 467.996448 241.5897 
L 469.729766 241.216226 
L 471.463083 240.316704 
L 473.196401 239.054814 
L 476.663036 235.990793 
L 480.129671 232.880604 
L 483.596306 230.057234 
L 487.062941 227.714052 
L 490.529576 225.83855 
L 493.996211 224.363928 
L 497.462846 223.246598 
L 500.929481 222.388618 
L 504.396116 221.746143 
L 509.596069 221.063524 
L 516.529339 220.476376 
L 525.195926 219.954488 
L 535.595831 219.598781 
L 551.195689 219.330913 
L 591.061992 218.960665 
L 625.728343 218.799074 
L 627.46166 219.045154 
L 629.194978 221.46756 
L 630.928295 225.566855 
L 632.661613 230.135527 
L 634.39493 234.319899 
L 636.128248 237.65905 
L 637.861565 239.96832 
L 639.594883 241.242034 
L 641.3282 241.5897 
L 643.061518 241.216226 
L 644.794835 240.316704 
L 646.528153 239.054814 
L 649.994788 235.990793 
L 653.461423 232.880604 
L 656.928058 230.057234 
L 660.394693 227.714052 
L 663.861328 225.83855 
L 667.327963 224.363928 
L 670.794598 223.246598 
L 674.261233 222.388618 
L 677.727868 221.746143 
L 682.927821 221.063524 
L 689.861091 220.476376 
L 698.527679 219.954488 
L 708.927584 219.598781 
L 724.527441 219.330913 
L 764.393744 218.960665 
L 799.060095 218.799074 
L 800.793412 219.045154 
L 802.52673 221.46756 
L 804.260047 225.566855 
L 805.993365 230.135527 
L 807.726682 234.319899 
L 809.46 237.65905 
L 811.193318 239.96832 
L 812.926635 241.242034 
L 814.659953 241.5897 
L 816.39327 241.216226 
L 818.126588 240.316704 
L 819.859905 239.054814 
L 823.32654 235.990793 
L 826.793175 232.880604 
L 830.25981 230.057234 
L 833.726445 227.714052 
L 837.19308 225.83855 
L 840.659715 224.363928 
L 844.12635 223.246598 
L 847.592985 222.388618 
L 851.059621 221.746143 
L 856.259573 221.063524 
L 863.192843 220.476376 
L 871.859431 219.954488 
L 882.259336 219.598781 
L 897.859194 219.330913 
L 927.325591 219.046907 
L 927.325591 219.046907 
" clip-path="url(#p88c80f46c6)" style="fill: none; stroke: #009afa; stroke-width: 4"/>
   </g>
   <g id="matplotlib.axis_1">
    <g id="xtick_1">
     <g id="line2d_2">
      <defs>
       <path id="mb9ee78771c" d="M 0 0 
L 0 -5 
" style="stroke: #000000"/>
      </defs>
      <g>
       <use xlink:href="#mb9ee78771c" x="60.66683" y="248.545354" style="stroke: #000000"/>
      </g>
     </g>
     <g id="text_1">
      <!-- $0.0$ -->
      <g transform="translate(42.74683 273.320979) scale(0.28 -0.28)">
       <defs>
        <path id="Cmr10-30" d="M 1600 -141 
Q 816 -141 533 504 
Q 250 1150 250 2041 
Q 250 2597 351 3087 
Q 453 3578 754 3920 
Q 1056 4263 1600 4263 
Q 2022 4263 2290 4056 
Q 2559 3850 2700 3523 
Q 2841 3197 2892 2823 
Q 2944 2450 2944 2041 
Q 2944 1491 2842 1011 
Q 2741 531 2444 195 
Q 2147 -141 1600 -141 
z
M 1600 25 
Q 1956 25 2131 390 
Q 2306 756 2347 1200 
Q 2388 1644 2388 2144 
Q 2388 2625 2347 3031 
Q 2306 3438 2132 3767 
Q 1959 4097 1600 4097 
Q 1238 4097 1063 3765 
Q 888 3434 847 3029 
Q 806 2625 806 2144 
Q 806 1788 823 1472 
Q 841 1156 916 820 
Q 991 484 1158 254 
Q 1325 25 1600 25 
z
" transform="scale(0.015625)"/>
        <path id="Cmmi10-3a" d="M 538 353 
Q 538 497 644 600 
Q 750 703 891 703 
Q 978 703 1062 656 
Q 1147 609 1194 525 
Q 1241 441 1241 353 
Q 1241 213 1137 106 
Q 1034 0 891 0 
Q 750 0 644 106 
Q 538 213 538 353 
z
" transform="scale(0.015625)"/>
       </defs>
       <use xlink:href="#Cmr10-30" transform="translate(0 0.390625)"/>
       <use xlink:href="#Cmmi10-3a" transform="translate(50 0.390625)"/>
       <use xlink:href="#Cmr10-30" transform="translate(77.685547 0.390625)"/>
      </g>
     </g>
    </g>
    <g id="xtick_2">
     <g id="line2d_3">
      <g>
       <use xlink:href="#mb9ee78771c" x="277.331521" y="248.545354" style="stroke: #000000"/>
      </g>
     </g>
     <g id="text_2">
      <!-- $0.5$ -->
      <g transform="translate(259.411521 273.320979) scale(0.28 -0.28)">
       <defs>
        <path id="Cmr10-35" d="M 556 728 
Q 622 541 758 387 
Q 894 234 1080 148 
Q 1266 63 1466 63 
Q 1928 63 2103 422 
Q 2278 781 2278 1294 
Q 2278 1516 2270 1667 
Q 2263 1819 2228 1959 
Q 2169 2184 2020 2353 
Q 1872 2522 1656 2522 
Q 1441 2522 1286 2456 
Q 1131 2391 1034 2303 
Q 938 2216 863 2119 
Q 788 2022 769 2016 
L 697 2016 
Q 681 2016 657 2036 
Q 634 2056 634 2075 
L 634 4213 
Q 634 4228 654 4245 
Q 675 4263 697 4263 
L 716 4263 
Q 1147 4056 1631 4056 
Q 2106 4056 2547 4263 
L 2566 4263 
Q 2588 4263 2606 4247 
Q 2625 4231 2625 4213 
L 2625 4153 
Q 2625 4122 2613 4122 
Q 2394 3831 2064 3668 
Q 1734 3506 1381 3506 
Q 1125 3506 856 3578 
L 856 2369 
Q 1069 2541 1236 2614 
Q 1403 2688 1663 2688 
Q 2016 2688 2295 2484 
Q 2575 2281 2725 1954 
Q 2875 1628 2875 1288 
Q 2875 903 2686 575 
Q 2497 247 2172 53 
Q 1847 -141 1466 -141 
Q 1150 -141 886 21 
Q 622 184 470 459 
Q 319 734 319 1044 
Q 319 1188 412 1278 
Q 506 1369 647 1369 
Q 788 1369 883 1276 
Q 978 1184 978 1044 
Q 978 906 883 811 
Q 788 716 647 716 
Q 625 716 597 720 
Q 569 725 556 728 
z
" transform="scale(0.015625)"/>
       </defs>
       <use xlink:href="#Cmr10-30" transform="translate(0 0.390625)"/>
       <use xlink:href="#Cmmi10-3a" transform="translate(50 0.390625)"/>
       <use xlink:href="#Cmr10-35" transform="translate(77.685547 0.390625)"/>
      </g>
     </g>
    </g>
    <g id="xtick_3">
     <g id="line2d_4">
      <g>
       <use xlink:href="#mb9ee78771c" x="493.996211" y="248.545354" style="stroke: #000000"/>
      </g>
     </g>
     <g id="text_3">
      <!-- $1.0$ -->
      <g transform="translate(476.076211 273.320979) scale(0.28 -0.28)">
       <defs>
        <path id="Cmr10-31" d="M 594 0 
L 594 225 
Q 1394 225 1394 428 
L 1394 3788 
Q 1063 3628 556 3628 
L 556 3853 
Q 1341 3853 1741 4263 
L 1831 4263 
Q 1853 4263 1873 4245 
Q 1894 4228 1894 4206 
L 1894 428 
Q 1894 225 2694 225 
L 2694 0 
L 594 0 
z
" transform="scale(0.015625)"/>
       </defs>
       <use xlink:href="#Cmr10-31" transform="translate(0 0.390625)"/>
       <use xlink:href="#Cmmi10-3a" transform="translate(50 0.390625)"/>
       <use xlink:href="#Cmr10-30" transform="translate(77.685547 0.390625)"/>
      </g>
     </g>
    </g>
    <g id="xtick_4">
     <g id="line2d_5">
      <g>
       <use xlink:href="#mb9ee78771c" x="710.660901" y="248.545354" style="stroke: #000000"/>
      </g>
     </g>
     <g id="text_4">
      <!-- $1.5$ -->
      <g transform="translate(692.740901 273.320979) scale(0.28 -0.28)">
       <use xlink:href="#Cmr10-31" transform="translate(0 0.390625)"/>
       <use xlink:href="#Cmmi10-3a" transform="translate(50 0.390625)"/>
       <use xlink:href="#Cmr10-35" transform="translate(77.685547 0.390625)"/>
      </g>
     </g>
    </g>
    <g id="xtick_5">
     <g id="line2d_6">
      <g>
       <use xlink:href="#mb9ee78771c" x="927.325591" y="248.545354" style="stroke: #000000"/>
      </g>
     </g>
     <g id="text_5">
      <!-- $2.0$ -->
      <g transform="translate(909.405591 273.320979) scale(0.28 -0.28)">
       <defs>
        <path id="Cmr10-32" d="M 319 0 
L 319 172 
Q 319 188 331 206 
L 1325 1306 
Q 1550 1550 1690 1715 
Q 1831 1881 1968 2097 
Q 2106 2313 2186 2536 
Q 2266 2759 2266 3009 
Q 2266 3272 2169 3511 
Q 2072 3750 1880 3894 
Q 1688 4038 1416 4038 
Q 1138 4038 916 3870 
Q 694 3703 603 3438 
Q 628 3444 672 3444 
Q 816 3444 917 3347 
Q 1019 3250 1019 3097 
Q 1019 2950 917 2848 
Q 816 2747 672 2747 
Q 522 2747 420 2851 
Q 319 2956 319 3097 
Q 319 3338 409 3548 
Q 500 3759 670 3923 
Q 841 4088 1055 4175 
Q 1269 4263 1509 4263 
Q 1875 4263 2190 4108 
Q 2506 3953 2690 3670 
Q 2875 3388 2875 3009 
Q 2875 2731 2753 2481 
Q 2631 2231 2440 2026 
Q 2250 1822 1953 1562 
Q 1656 1303 1563 1216 
L 838 519 
L 1453 519 
Q 1906 519 2211 526 
Q 2516 534 2534 550 
Q 2609 631 2688 1141 
L 2875 1141 
L 2694 0 
L 319 0 
z
" transform="scale(0.015625)"/>
       </defs>
       <use xlink:href="#Cmr10-32" transform="translate(0 0.390625)"/>
       <use xlink:href="#Cmmi10-3a" transform="translate(50 0.390625)"/>
       <use xlink:href="#Cmr10-30" transform="translate(77.685547 0.390625)"/>
      </g>
     </g>
    </g>
   </g>
   <g id="matplotlib.axis_2">
    <g id="ytick_1">
     <g id="line2d_7">
      <defs>
       <path id="m8f909296e4" d="M 0 0 
L 5 0 
" style="stroke: #000000"/>
      </defs>
      <g>
       <use xlink:href="#m8f909296e4" x="34.667068" y="230.1951" style="stroke: #000000"/>
      </g>
     </g>
     <g id="text_6">
      <!-- $0$ -->
      <g transform="translate(17.167068 240.832913) scale(0.28 -0.28)">
       <use xlink:href="#Cmr10-30" transform="translate(0 0.390625)"/>
      </g>
     </g>
    </g>
    <g id="ytick_2">
     <g id="line2d_8">
      <g>
       <use xlink:href="#m8f909296e4" x="34.667068" y="173.214214" style="stroke: #000000"/>
      </g>
     </g>
     <g id="text_7">
      <!-- $5$ -->
      <g transform="translate(17.167068 183.852027) scale(0.28 -0.28)">
       <use xlink:href="#Cmr10-35" transform="translate(0 0.390625)"/>
      </g>
     </g>
    </g>
    <g id="ytick_3">
     <g id="line2d_9">
      <g>
       <use xlink:href="#m8f909296e4" x="34.667068" y="116.233328" style="stroke: #000000"/>
      </g>
     </g>
     <g id="text_8">
      <!-- $10$ -->
      <g transform="translate(3.167068 126.871141) scale(0.28 -0.28)">
       <use xlink:href="#Cmr10-31" transform="translate(0 0.390625)"/>
       <use xlink:href="#Cmr10-30" transform="translate(50 0.390625)"/>
      </g>
     </g>
    </g>
    <g id="ytick_4">
     <g id="line2d_10">
      <g>
       <use xlink:href="#m8f909296e4" x="34.667068" y="59.252442" style="stroke: #000000"/>
      </g>
     </g>
     <g id="text_9">
      <!-- $15$ -->
      <g transform="translate(3.167068 69.890255) scale(0.28 -0.28)">
       <use xlink:href="#Cmr10-31" transform="translate(0 0.390625)"/>
       <use xlink:href="#Cmr10-35" transform="translate(50 0.390625)"/>
      </g>
     </g>
    </g>
   </g>
   <g id="line2d_11">
    <path d="M 60.66683 218.798923 
L 64.133465 218.888786 
L 67.6001 219.156955 
L 71.066736 219.599203 
L 74.533371 220.208554 
L 79.733323 221.414195 
L 84.933276 222.930904 
L 90.133228 224.70495 
L 97.066498 227.360987 
L 117.866309 235.685251 
L 123.066261 237.459297 
L 128.266214 238.976006 
L 133.466166 240.181647 
L 136.932801 240.790998 
L 140.399436 241.233246 
L 143.866071 241.501415 
L 147.332706 241.591278 
L 150.799342 241.501415 
L 154.265977 241.233246 
L 157.732612 240.790998 
L 161.199247 240.181647 
L 166.399199 238.976006 
L 171.599152 237.459297 
L 176.799104 235.685251 
L 183.732374 233.029214 
L 204.532185 224.70495 
L 209.732137 222.930904 
L 214.93209 221.414195 
L 220.132042 220.208554 
L 223.598677 219.599203 
L 227.065313 219.156955 
L 230.531948 218.888786 
L 233.998583 218.798923 
L 237.465218 218.888786 
L 240.931853 219.156955 
L 244.398488 219.599203 
L 247.865123 220.208554 
L 253.065075 221.414195 
L 258.265028 222.930904 
L 263.46498 224.70495 
L 270.398251 227.360987 
L 291.198061 235.685251 
L 296.398013 237.459297 
L 301.597966 238.976006 
L 306.797919 240.181647 
L 310.264554 240.790998 
L 313.731189 241.233246 
L 317.197824 241.501415 
L 320.664459 241.591278 
L 324.131094 241.501415 
L 327.597729 241.233246 
L 331.064364 240.790998 
L 334.530999 240.181647 
L 339.730951 238.976006 
L 344.930904 237.459297 
L 350.130857 235.685251 
L 357.064127 233.029214 
L 377.863937 224.70495 
L 383.06389 222.930904 
L 388.263842 221.414195 
L 393.463795 220.208554 
L 396.93043 219.599203 
L 400.397065 219.156955 
L 403.8637 218.888786 
L 407.330335 218.798923 
L 410.79697 218.888786 
L 414.263605 219.156955 
L 417.73024 219.599203 
L 421.196875 220.208554 
L 426.396828 221.414195 
L 431.59678 222.930904 
L 436.796733 224.70495 
L 443.730003 227.360987 
L 464.529813 235.685251 
L 469.729766 237.459297 
L 474.929718 238.976006 
L 480.129671 240.181647 
L 483.596306 240.790998 
L 487.062941 241.233246 
L 490.529576 241.501415 
L 493.996211 241.591278 
L 497.462846 241.501415 
L 500.929481 241.233246 
L 504.396116 240.790998 
L 507.862751 240.181647 
L 513.062704 238.976006 
L 518.262656 237.459297 
L 523.462609 235.685251 
L 530.395879 233.029214 
L 551.195689 224.70495 
L 556.395642 222.930904 
L 561.595594 221.414195 
L 566.795547 220.208554 
L 570.262182 219.599203 
L 573.728817 219.156955 
L 577.195452 218.888786 
L 580.662087 218.798923 
L 584.128722 218.888786 
L 587.595357 219.156955 
L 591.061992 219.599203 
L 594.528627 220.208554 
L 599.72858 221.414195 
L 604.928532 222.930904 
L 610.128485 224.70495 
L 617.061755 227.360987 
L 637.861565 235.685251 
L 643.061518 237.459297 
L 648.26147 238.976006 
L 653.461423 240.181647 
L 656.928058 240.790998 
L 660.394693 241.233246 
L 663.861328 241.501415 
L 667.327963 241.591278 
L 670.794598 241.501415 
L 674.261233 241.233246 
L 677.727868 240.790998 
L 681.194503 240.181647 
L 686.394456 238.976006 
L 691.594408 237.459297 
L 696.794361 235.685251 
L 703.727631 233.029214 
L 724.527441 224.70495 
L 729.727394 222.930904 
L 734.927347 221.414195 
L 740.127299 220.208554 
L 743.593934 219.599203 
L 747.060569 219.156955 
L 750.527204 218.888786 
L 753.993839 218.798923 
L 757.460474 218.888786 
L 760.927109 219.156955 
L 764.393744 219.599203 
L 767.860379 220.208554 
L 773.060332 221.414195 
L 778.260285 222.930904 
L 783.460237 224.70495 
L 790.393507 227.360987 
L 811.193318 235.685251 
L 816.39327 237.459297 
L 821.593223 238.976006 
L 826.793175 240.181647 
L 830.25981 240.790998 
L 833.726445 241.233246 
L 837.19308 241.501415 
L 840.659715 241.591278 
L 844.12635 241.501415 
L 847.592985 241.233246 
L 851.059621 240.790998 
L 854.526256 240.181647 
L 859.726208 238.976006 
L 864.926161 237.459297 
L 870.126113 235.685251 
L 877.059383 233.029214 
L 897.859194 224.70495 
L 903.059146 222.930904 
L 908.259099 221.414195 
L 913.459051 220.208554 
L 916.925686 219.599203 
L 920.392321 219.156955 
L 923.858956 218.888786 
L 927.325591 218.798923 
L 927.325591 218.798923 
" clip-path="url(#p88c80f46c6)" style="fill: none; stroke: #e36f47; stroke-width: 4"/>
   </g>
   <g id="patch_3">
    <path d="M 34.667068 248.545354 
L 34.667068 2.834646 
" style="fill: none; stroke: #000000; stroke-width: 2; stroke-linejoin: miter; stroke-linecap: square"/>
   </g>
   <g id="patch_4">
    <path d="M 34.667068 248.545354 
L 953.325354 248.545354 
" style="fill: none; stroke: #000000; stroke-width: 2; stroke-linejoin: miter; stroke-linecap: square"/>
   </g>
   <g id="line2d_12">
    <path d="M 60.66683 229.726724 
L 78.000006 229.99348 
L 105.733086 230.142737 
L 107.466403 9.788722 
L 109.199721 27.60766 
L 110.933039 44.125732 
L 112.666356 59.187702 
L 114.399674 72.941831 
L 116.132991 85.586476 
L 117.866309 97.277481 
L 119.599626 108.114988 
L 121.332944 117.997147 
L 123.066261 127.02123 
L 124.799579 135.317382 
L 126.532896 142.98785 
L 128.266214 150.098339 
L 129.999531 156.582023 
L 131.732849 162.502724 
L 133.466166 167.945829 
L 135.199484 172.978424 
L 136.932801 177.643615 
L 138.666119 181.89756 
L 140.399436 185.782132 
L 142.132754 189.353354 
L 143.866071 192.655239 
L 145.599389 195.716071 
L 147.332706 198.507084 
L 149.066024 201.055752 
L 152.532659 205.565197 
L 154.265977 207.573409 
L 157.732612 211.076774 
L 161.199247 214.035421 
L 164.665882 216.554449 
L 168.132517 218.660185 
L 171.599152 220.457204 
L 175.065787 221.965288 
L 178.532422 223.238888 
L 181.999057 224.323247 
L 187.19901 225.63113 
L 192.398962 226.652436 
L 197.598915 227.444831 
L 204.532185 228.230461 
L 211.465455 228.792724 
L 220.132042 229.275001 
L 232.265265 229.68547 
L 247.865123 229.956246 
L 272.131568 230.121707 
L 279.064838 230.142737 
L 280.798156 9.788722 
L 282.531473 27.60766 
L 284.264791 44.125732 
L 285.998108 59.187702 
L 287.731426 72.941831 
L 289.464743 85.586476 
L 291.198061 97.277481 
L 292.931378 108.114988 
L 294.664696 117.997147 
L 296.398013 127.02123 
L 298.131331 135.317382 
L 299.864648 142.98785 
L 301.597966 150.098339 
L 303.331283 156.582023 
L 305.064601 162.502724 
L 306.797919 167.945829 
L 308.531236 172.978424 
L 310.264554 177.643615 
L 311.997871 181.89756 
L 313.731189 185.782132 
L 315.464506 189.353354 
L 317.197824 192.655239 
L 318.931141 195.716071 
L 320.664459 198.507084 
L 322.397776 201.055752 
L 325.864411 205.565197 
L 327.597729 207.573409 
L 331.064364 211.076774 
L 334.530999 214.035421 
L 337.997634 216.554449 
L 341.464269 218.660185 
L 344.930904 220.457204 
L 348.397539 221.965288 
L 351.864174 223.238888 
L 355.330809 224.323247 
L 360.530762 225.63113 
L 365.730714 226.652436 
L 370.930667 227.444831 
L 377.863937 228.230461 
L 384.797207 228.792724 
L 393.463795 229.275001 
L 405.597017 229.68547 
L 421.196875 229.956246 
L 445.46332 230.121707 
L 452.39659 230.142737 
L 454.129908 9.788722 
L 455.863225 27.60766 
L 457.596543 44.125732 
L 459.32986 59.187702 
L 461.063178 72.941831 
L 462.796496 85.586476 
L 464.529813 97.277481 
L 466.263131 108.114988 
L 467.996448 117.997147 
L 469.729766 127.02123 
L 471.463083 135.317382 
L 473.196401 142.98785 
L 474.929718 150.098339 
L 476.663036 156.582023 
L 478.396353 162.502724 
L 480.129671 167.945829 
L 481.862988 172.978424 
L 483.596306 177.643615 
L 485.329623 181.89756 
L 487.062941 185.782132 
L 488.796258 189.353354 
L 490.529576 192.655239 
L 492.262893 195.716071 
L 493.996211 198.507084 
L 495.729528 201.055752 
L 499.196164 205.565197 
L 500.929481 207.573409 
L 504.396116 211.076774 
L 507.862751 214.035421 
L 511.329386 216.554449 
L 514.796021 218.660185 
L 518.262656 220.457204 
L 521.729291 221.965288 
L 525.195926 223.238888 
L 528.662561 224.323247 
L 533.862514 225.63113 
L 539.062467 226.652436 
L 544.262419 227.444831 
L 551.195689 228.230461 
L 558.128959 228.792724 
L 566.795547 229.275001 
L 578.92877 229.68547 
L 594.528627 229.956246 
L 618.795073 230.121707 
L 625.728343 230.142737 
L 627.46166 9.788722 
L 629.194978 27.60766 
L 630.928295 44.125732 
L 632.661613 59.187702 
L 634.39493 72.941831 
L 636.128248 85.586476 
L 637.861565 97.277481 
L 639.594883 108.114988 
L 641.3282 117.997147 
L 643.061518 127.02123 
L 644.794835 135.317382 
L 646.528153 142.98785 
L 648.26147 150.098339 
L 649.994788 156.582023 
L 651.728105 162.502724 
L 653.461423 167.945829 
L 655.194741 172.978424 
L 656.928058 177.643615 
L 658.661376 181.89756 
L 660.394693 185.782132 
L 662.128011 189.353354 
L 663.861328 192.655239 
L 665.594646 195.716071 
L 667.327963 198.507084 
L 669.061281 201.055752 
L 672.527916 205.565197 
L 674.261233 207.573409 
L 677.727868 211.076774 
L 681.194503 214.035421 
L 684.661138 216.554449 
L 688.127773 218.660185 
L 691.594408 220.457204 
L 695.061044 221.965288 
L 698.527679 223.238888 
L 701.994314 224.323247 
L 707.194266 225.63113 
L 712.394219 226.652436 
L 717.594171 227.444831 
L 724.527441 228.230461 
L 731.460711 228.792724 
L 740.127299 229.275001 
L 752.260522 229.68547 
L 767.860379 229.956246 
L 792.126825 230.121707 
L 799.060095 230.142737 
L 800.793412 9.788722 
L 802.52673 27.60766 
L 804.260047 44.125732 
L 805.993365 59.187702 
L 807.726682 72.941831 
L 809.46 85.586476 
L 811.193318 97.277481 
L 812.926635 108.114988 
L 814.659953 117.997147 
L 816.39327 127.02123 
L 818.126588 135.317382 
L 819.859905 142.98785 
L 821.593223 150.098339 
L 823.32654 156.582023 
L 825.059858 162.502724 
L 826.793175 167.945829 
L 828.526493 172.978424 
L 830.25981 177.643615 
L 831.993128 181.89756 
L 833.726445 185.782132 
L 835.459763 189.353354 
L 837.19308 192.655239 
L 838.926398 195.716071 
L 840.659715 198.507084 
L 842.393033 201.055752 
L 845.859668 205.565197 
L 847.592985 207.573409 
L 851.059621 211.076774 
L 854.526256 214.035421 
L 857.992891 216.554449 
L 861.459526 218.660185 
L 864.926161 220.457204 
L 868.392796 221.965288 
L 871.859431 223.238888 
L 875.326066 224.323247 
L 880.526018 225.63113 
L 885.725971 226.652436 
L 890.925924 227.444831 
L 897.859194 228.230461 
L 904.792464 228.792724 
L 913.459051 229.275001 
L 925.592274 229.68547 
L 927.325591 229.725992 
L 927.325591 229.725992 
" clip-path="url(#p88c80f46c6)" style="fill: none; stroke: #3ea44d; stroke-width: 4"/>
   </g>
  </g>
 </g>
 <defs>
  <clipPath id="p88c80f46c6">
   <rect x="34.667068" y="2.834646" width="918.658287" height="245.710709"/>
  </clipPath>
 </defs>
</svg>
