<?xml version="1.0" encoding="utf-8" standalone="no"?>
<!DOCTYPE svg PUBLIC "-//W3C//DTD SVG 1.1//EN"
  "http://www.w3.org/Graphics/SVG/1.1/DTD/svg11.dtd">
<svg xmlns:xlink="http://www.w3.org/1999/xlink" width="466.56pt" height="141.12pt" viewBox="0 0 466.56 141.12" xmlns="http://www.w3.org/2000/svg" version="1.1">
 <metadata>
  <rdf:RDF xmlns:dc="http://purl.org/dc/elements/1.1/" xmlns:cc="http://creativecommons.org/ns#" xmlns:rdf="http://www.w3.org/1999/02/22-rdf-syntax-ns#">
   <cc:Work>
    <dc:type rdf:resource="http://purl.org/dc/dcmitype/StillImage"/>
    <dc:date>2024-04-27T16:44:28.200716</dc:date>
    <dc:format>image/svg+xml</dc:format>
    <dc:creator>
     <cc:Agent>
      <dc:title>Matplotlib v3.7.0, https://matplotlib.org/</dc:title>
     </cc:Agent>
    </dc:creator>
   </cc:Work>
  </rdf:RDF>
 </metadata>
 <defs>
  <style type="text/css">*{stroke-linejoin: round; stroke-linecap: butt}</style>
 </defs>
 <g id="figure_1">
  <g id="patch_1">
   <path d="M 0 141.12 
L 466.56 141.12 
L 466.56 0 
L 0 0 
L 0 141.12 
z
" style="fill: none"/>
  </g>
  <g id="axes_1">
   <g id="patch_2">
    <path d="M 64.170808 124.800543 
L 463.725354 124.800543 
L 463.725354 10.559296 
L 64.170808 10.559296 
L 64.170808 124.800543 
z
" style="fill: none"/>
   </g>
   <g id="line2d_1">
    <path d="M 75.478955 13.79254 
L 77.175177 13.903491 
L 78.8714 14.231887 
L 80.567622 14.773741 
L 82.452313 15.620388 
L 84.337004 16.717206 
L 86.410165 18.202415 
L 88.483325 19.96721 
L 90.744955 22.194738 
L 93.195053 24.941338 
L 95.833621 28.256481 
L 98.660658 32.179227 
L 101.864633 37.030577 
L 105.445546 42.878322 
L 109.780336 50.417036 
L 115.622879 61.069456 
L 127.119496 82.107397 
L 131.642755 89.870366 
L 135.412137 95.924064 
L 138.804582 100.969718 
L 141.820088 105.083797 
L 144.647124 108.587737 
L 147.285692 111.52371 
L 149.735791 113.941902 
L 152.185889 116.047954 
L 154.447519 117.703535 
L 156.709149 119.07305 
L 158.782309 120.07083 
L 160.855469 120.817525 
L 162.740161 121.275594 
L 164.624852 121.52166 
L 166.509543 121.554847 
L 168.394234 121.375114 
L 170.278926 120.983261 
L 172.163617 120.380945 
L 174.236777 119.47833 
L 176.309938 118.328638 
L 178.571567 116.799452 
L 180.833197 114.992254 
L 183.283295 112.73332 
L 185.733394 110.176734 
L 188.371962 107.111308 
L 191.198999 103.495554 
L 194.402974 99.025317 
L 197.983887 93.62465 
L 202.130208 86.940386 
L 207.218874 78.291648 
L 224.558034 48.437379 
L 228.704355 41.936207 
L 232.285268 36.710365 
L 235.677712 32.152658 
L 238.693218 28.4618 
L 241.520255 25.336868 
L 244.158823 22.731705 
L 246.797391 20.441823 
L 249.247489 18.608046 
L 251.697588 17.063576 
L 253.959217 15.899468 
L 256.220847 14.989464 
L 258.482476 14.335121 
L 260.555637 13.960126 
L 262.628797 13.799411 
L 264.513488 13.862948 
L 266.209711 14.147113 
L 267.905933 14.645615 
L 269.790624 15.445301 
L 271.675315 16.496623 
L 273.560006 17.791214 
L 275.633167 19.485044 
L 277.894796 21.639451 
L 280.344895 24.312328 
L 282.983463 27.554929 
L 285.8105 31.40832 
L 288.826006 35.899567 
L 292.21845 41.35033 
L 296.364771 48.463187 
L 301.641906 57.9952 
L 316.154029 84.47045 
L 320.488819 91.779196 
L 324.258201 97.69626 
L 327.462176 102.335959 
L 330.477682 106.328563 
L 333.304719 109.707997 
L 335.943287 112.519401 
L 338.393386 114.81547 
L 340.655015 116.653324 
L 342.916645 118.210737 
L 344.989805 119.384852 
L 347.062966 120.310984 
L 349.136126 120.984946 
L 351.020817 121.376233 
L 352.905508 121.55515 
L 354.7902 121.521085 
L 356.674891 121.27426 
L 358.559582 120.815747 
L 360.632743 120.069204 
L 362.705903 119.072619 
L 364.779063 117.830993 
L 367.040693 116.204379 
L 369.302322 114.303317 
L 371.752421 111.947373 
L 374.390989 109.084036 
L 377.218026 105.666886 
L 380.233532 101.659075 
L 383.625976 96.754816 
L 387.395358 90.891956 
L 391.918617 83.413608 
L 398.138099 72.648237 
L 409.257777 53.360155 
L 413.969505 45.678949 
L 417.927357 39.644255 
L 421.50827 34.594483 
L 424.712245 30.457783 
L 427.727751 26.928932 
L 430.554788 23.96652 
L 433.193356 21.520916 
L 435.643455 19.537692 
L 438.093553 17.840129 
L 440.355183 16.532329 
L 442.616812 15.477144 
L 444.878442 14.676895 
L 446.951602 14.168154 
L 449.024763 13.874273 
L 451.097923 13.79505 
L 452.417207 13.887336 
L 452.417207 13.887336 
" clip-path="url(#p2de1f664e9)" style="fill: none; stroke: #800080; stroke-width: 6"/>
   </g>
   <g id="matplotlib.axis_1">
    <g id="xtick_1"/>
    <g id="xtick_2"/>
    <g id="xtick_3"/>
    <g id="xtick_4"/>
    <g id="xtick_5"/>
   </g>
   <g id="matplotlib.axis_2">
    <g id="ytick_1">
     <g id="line2d_2">
      <defs>
       <path id="m5d99f64318" d="M 0 0 
L 5 0 
" style="stroke: #000000"/>
      </defs>
      <g>
       <use xlink:href="#m5d99f64318" x="64.170808" y="121.567471" style="stroke: #000000"/>
      </g>
     </g>
     <g id="text_1">
      <!-- $-1.0$ -->
      <g transform="translate(2.990808 132.205283) scale(0.28 -0.28)">
       <defs>
        <path id="Cmsy10-a1" d="M 653 1472 
Q 600 1472 565 1512 
Q 531 1553 531 1600 
Q 531 1647 565 1687 
Q 600 1728 653 1728 
L 4325 1728 
Q 4375 1728 4408 1687 
Q 4441 1647 4441 1600 
Q 4441 1553 4408 1512 
Q 4375 1472 4325 1472 
L 653 1472 
z
" transform="scale(0.015625)"/>
        <path id="Cmr10-31" d="M 594 0 
L 594 225 
Q 1394 225 1394 428 
L 1394 3788 
Q 1063 3628 556 3628 
L 556 3853 
Q 1341 3853 1741 4263 
L 1831 4263 
Q 1853 4263 1873 4245 
Q 1894 4228 1894 4206 
L 1894 428 
Q 1894 225 2694 225 
L 2694 0 
L 594 0 
z
" transform="scale(0.015625)"/>
        <path id="Cmmi10-3a" d="M 538 353 
Q 538 497 644 600 
Q 750 703 891 703 
Q 978 703 1062 656 
Q 1147 609 1194 525 
Q 1241 441 1241 353 
Q 1241 213 1137 106 
Q 1034 0 891 0 
Q 750 0 644 106 
Q 538 213 538 353 
z
" transform="scale(0.015625)"/>
        <path id="Cmr10-30" d="M 1600 -141 
Q 816 -141 533 504 
Q 250 1150 250 2041 
Q 250 2597 351 3087 
Q 453 3578 754 3920 
Q 1056 4263 1600 4263 
Q 2022 4263 2290 4056 
Q 2559 3850 2700 3523 
Q 2841 3197 2892 2823 
Q 2944 2450 2944 2041 
Q 2944 1491 2842 1011 
Q 2741 531 2444 195 
Q 2147 -141 1600 -141 
z
M 1600 25 
Q 1956 25 2131 390 
Q 2306 756 2347 1200 
Q 2388 1644 2388 2144 
Q 2388 2625 2347 3031 
Q 2306 3438 2132 3767 
Q 1959 4097 1600 4097 
Q 1238 4097 1063 3765 
Q 888 3434 847 3029 
Q 806 2625 806 2144 
Q 806 1788 823 1472 
Q 841 1156 916 820 
Q 991 484 1158 254 
Q 1325 25 1600 25 
z
" transform="scale(0.015625)"/>
       </defs>
       <use xlink:href="#Cmsy10-a1" transform="translate(0 0.390625)"/>
       <use xlink:href="#Cmr10-31" transform="translate(77.685547 0.390625)"/>
       <use xlink:href="#Cmmi10-3a" transform="translate(127.685547 0.390625)"/>
       <use xlink:href="#Cmr10-30" transform="translate(155.371094 0.390625)"/>
      </g>
     </g>
    </g>
    <g id="ytick_2">
     <g id="line2d_3">
      <g>
       <use xlink:href="#m5d99f64318" x="64.170808" y="94.623737" style="stroke: #000000"/>
      </g>
     </g>
     <g id="text_2">
      <!-- $-0.5$ -->
      <g transform="translate(2.990808 105.26155) scale(0.28 -0.28)">
       <defs>
        <path id="Cmr10-35" d="M 556 728 
Q 622 541 758 387 
Q 894 234 1080 148 
Q 1266 63 1466 63 
Q 1928 63 2103 422 
Q 2278 781 2278 1294 
Q 2278 1516 2270 1667 
Q 2263 1819 2228 1959 
Q 2169 2184 2020 2353 
Q 1872 2522 1656 2522 
Q 1441 2522 1286 2456 
Q 1131 2391 1034 2303 
Q 938 2216 863 2119 
Q 788 2022 769 2016 
L 697 2016 
Q 681 2016 657 2036 
Q 634 2056 634 2075 
L 634 4213 
Q 634 4228 654 4245 
Q 675 4263 697 4263 
L 716 4263 
Q 1147 4056 1631 4056 
Q 2106 4056 2547 4263 
L 2566 4263 
Q 2588 4263 2606 4247 
Q 2625 4231 2625 4213 
L 2625 4153 
Q 2625 4122 2613 4122 
Q 2394 3831 2064 3668 
Q 1734 3506 1381 3506 
Q 1125 3506 856 3578 
L 856 2369 
Q 1069 2541 1236 2614 
Q 1403 2688 1663 2688 
Q 2016 2688 2295 2484 
Q 2575 2281 2725 1954 
Q 2875 1628 2875 1288 
Q 2875 903 2686 575 
Q 2497 247 2172 53 
Q 1847 -141 1466 -141 
Q 1150 -141 886 21 
Q 622 184 470 459 
Q 319 734 319 1044 
Q 319 1188 412 1278 
Q 506 1369 647 1369 
Q 788 1369 883 1276 
Q 978 1184 978 1044 
Q 978 906 883 811 
Q 788 716 647 716 
Q 625 716 597 720 
Q 569 725 556 728 
z
" transform="scale(0.015625)"/>
       </defs>
       <use xlink:href="#Cmsy10-a1" transform="translate(0 0.390625)"/>
       <use xlink:href="#Cmr10-30" transform="translate(77.685547 0.390625)"/>
       <use xlink:href="#Cmmi10-3a" transform="translate(127.685547 0.390625)"/>
       <use xlink:href="#Cmr10-35" transform="translate(155.371094 0.390625)"/>
      </g>
     </g>
    </g>
    <g id="ytick_3">
     <g id="line2d_4">
      <g>
       <use xlink:href="#m5d99f64318" x="64.170808" y="67.680004" style="stroke: #000000"/>
      </g>
     </g>
     <g id="text_3">
      <!-- $0.0$ -->
      <g transform="translate(24.830808 78.317817) scale(0.28 -0.28)">
       <use xlink:href="#Cmr10-30" transform="translate(0 0.390625)"/>
       <use xlink:href="#Cmmi10-3a" transform="translate(50 0.390625)"/>
       <use xlink:href="#Cmr10-30" transform="translate(77.685547 0.390625)"/>
      </g>
     </g>
    </g>
    <g id="ytick_4">
     <g id="line2d_5">
      <g>
       <use xlink:href="#m5d99f64318" x="64.170808" y="40.736271" style="stroke: #000000"/>
      </g>
     </g>
     <g id="text_4">
      <!-- $0.5$ -->
      <g transform="translate(24.830808 51.374083) scale(0.28 -0.28)">
       <use xlink:href="#Cmr10-30" transform="translate(0 0.390625)"/>
       <use xlink:href="#Cmmi10-3a" transform="translate(50 0.390625)"/>
       <use xlink:href="#Cmr10-35" transform="translate(77.685547 0.390625)"/>
      </g>
     </g>
    </g>
    <g id="ytick_5">
     <g id="line2d_6">
      <g>
       <use xlink:href="#m5d99f64318" x="64.170808" y="13.792537" style="stroke: #000000"/>
      </g>
     </g>
     <g id="text_5">
      <!-- $1.0$ -->
      <g transform="translate(24.830808 24.43035) scale(0.28 -0.28)">
       <use xlink:href="#Cmr10-31" transform="translate(0 0.390625)"/>
       <use xlink:href="#Cmmi10-3a" transform="translate(50 0.390625)"/>
       <use xlink:href="#Cmr10-30" transform="translate(77.685547 0.390625)"/>
      </g>
     </g>
    </g>
   </g>
   <g id="line2d_7">
    <path d="M 75.478955 13.794063 
L 75.855894 13.923459 
L 76.232832 14.256188 
L 76.798239 15.119895 
L 77.363647 16.396588 
L 78.117523 18.690315 
L 79.059869 22.404237 
L 80.190683 27.905848 
L 81.698436 36.589076 
L 83.771597 50.048027 
L 88.294856 79.819735 
L 90.179547 90.654776 
L 91.875769 99.115752 
L 93.383522 105.494645 
L 94.702806 110.163015 
L 96.02209 113.981542 
L 97.152905 116.594818 
L 98.28372 118.622968 
L 99.226065 119.886852 
L 100.168411 120.783544 
L 101.110756 121.333733 
L 101.864633 121.539008 
L 102.618509 121.54792 
L 103.560855 121.30067 
L 104.503201 120.787667 
L 105.445546 120.031689 
L 106.576361 118.835417 
L 107.895645 117.088972 
L 109.403398 114.701096 
L 111.288089 111.246849 
L 113.549719 106.603073 
L 116.942163 99.060026 
L 124.669397 81.73305 
L 128.43878 73.926923 
L 132.208162 66.644311 
L 136.354483 59.125955 
L 140.877742 51.372446 
L 144.647124 45.302098 
L 147.66263 40.855846 
L 150.489667 37.097084 
L 153.316704 33.722188 
L 155.955272 30.90474 
L 158.59384 28.389681 
L 161.420877 26.006955 
L 164.247914 23.920991 
L 167.07495 22.105464 
L 170.090456 20.438482 
L 173.105962 19.021473 
L 176.309938 17.759859 
L 179.702382 16.666107 
L 183.283295 15.74791 
L 187.052678 15.008664 
L 191.198999 14.426341 
L 195.722258 14.024619 
L 200.622455 13.818991 
L 203.449492 13.822698 
L 203.82643 14.037505 
L 204.391837 14.732798 
L 204.957245 15.852017 
L 205.711121 17.953969 
L 206.653467 21.458911 
L 207.784282 26.756116 
L 209.103565 34.112544 
L 210.988257 46.060991 
L 216.8308 84.132818 
L 218.527022 93.457465 
L 220.034775 100.673252 
L 221.542528 106.798697 
L 222.861812 111.243538 
L 223.992626 114.379513 
L 225.123441 116.910184 
L 226.254256 118.85942 
L 227.196602 120.06087 
L 228.138947 120.898475 
L 228.892824 121.320598 
L 229.6467 121.534401 
L 230.400577 121.551355 
L 231.154453 121.383096 
L 232.096799 120.930156 
L 233.039144 120.228938 
L 234.169959 119.091498 
L 235.489243 117.404494 
L 236.996996 115.072989 
L 238.693218 112.033513 
L 240.954848 107.473235 
L 244.158823 100.41581 
L 253.016872 80.595051 
L 256.786254 72.865507 
L 260.555637 65.650822 
L 264.890427 57.858868 
L 269.413686 50.177165 
L 272.994599 44.48307 
L 275.821636 40.37607 
L 278.648673 36.664682 
L 281.47571 33.335745 
L 284.114278 30.558966 
L 286.752845 28.081962 
L 289.579882 25.736898 
L 292.406919 23.685349 
L 295.233956 21.901081 
L 298.249462 20.26414 
L 301.264968 18.873993 
L 304.468943 17.637721 
L 307.861387 16.567553 
L 311.442301 15.671029 
L 315.211683 14.951467 
L 319.358004 14.387612 
L 323.881263 14.002822 
L 328.78146 13.812404 
L 331.231559 13.813977 
L 331.608497 14.011567 
L 332.173905 14.68223 
L 332.739312 15.778371 
L 333.493188 17.852145 
L 334.435534 21.326271 
L 335.566349 26.593173 
L 336.885633 33.923428 
L 338.770324 45.850647 
L 344.612867 83.947054 
L 346.497558 94.256404 
L 348.005311 101.361428 
L 349.513064 107.371368 
L 350.832348 111.714915 
L 351.963163 114.765849 
L 353.093978 117.214377 
L 354.036323 118.812339 
L 354.978669 120.026404 
L 355.921014 120.875942 
L 356.86336 121.381812 
L 357.617237 121.553747 
L 358.371113 121.531241 
L 359.313459 121.247445 
L 360.255804 120.700925 
L 361.386619 119.730319 
L 362.517434 118.452809 
L 363.836718 116.624562 
L 365.344471 114.159464 
L 367.229162 110.631292 
L 369.679261 105.519698 
L 373.448643 97.055487 
L 379.856593 82.680257 
L 383.625976 74.811088 
L 387.395358 67.470857 
L 391.541679 59.904508 
L 396.064938 52.107822 
L 400.02279 45.693008 
L 403.038296 41.209801 
L 405.865333 37.416408 
L 408.69237 34.007802 
L 411.330937 31.160461 
L 413.969505 28.617392 
L 416.796542 26.206917 
L 419.623579 24.095578 
L 422.450616 22.25699 
L 425.466122 20.567835 
L 428.481628 19.130993 
L 431.685603 17.850662 
L 435.078047 16.739486 
L 438.658961 15.805276 
L 442.428343 15.051484 
L 446.574664 14.455515 
L 451.097923 14.041282 
L 452.417207 13.960988 
L 452.417207 13.960988 
" clip-path="url(#p2de1f664e9)" style="fill: none; stroke: #2baad5; stroke-width: 6"/>
   </g>
   <g id="patch_3">
    <path d="M 64.170808 124.800543 
L 64.170808 10.559296 
" style="fill: none; stroke: #000000; stroke-width: 2; stroke-linejoin: miter; stroke-linecap: square"/>
   </g>
  </g>
 </g>
 <defs>
  <clipPath id="p2de1f664e9">
   <rect x="64.170808" y="10.559296" width="399.554547" height="114.241247"/>
  </clipPath>
 </defs>
</svg>
