<?xml version="1.0" encoding="utf-8" standalone="no"?>
<!DOCTYPE svg PUBLIC "-//W3C//DTD SVG 1.1//EN"
  "http://www.w3.org/Graphics/SVG/1.1/DTD/svg11.dtd">
<svg xmlns:xlink="http://www.w3.org/1999/xlink" width="466.56pt" height="302.4pt" viewBox="0 0 466.56 302.4" xmlns="http://www.w3.org/2000/svg" version="1.1">
 <metadata>
  <rdf:RDF xmlns:dc="http://purl.org/dc/elements/1.1/" xmlns:cc="http://creativecommons.org/ns#" xmlns:rdf="http://www.w3.org/1999/02/22-rdf-syntax-ns#">
   <cc:Work>
    <dc:type rdf:resource="http://purl.org/dc/dcmitype/StillImage"/>
    <dc:date>2024-07-16T17:23:39.931053</dc:date>
    <dc:format>image/svg+xml</dc:format>
    <dc:creator>
     <cc:Agent>
      <dc:title>Matplotlib v3.8.4, https://matplotlib.org/</dc:title>
     </cc:Agent>
    </dc:creator>
   </cc:Work>
  </rdf:RDF>
 </metadata>
 <defs>
  <style type="text/css">*{stroke-linejoin: round; stroke-linecap: butt}</style>
 </defs>
 <g id="figure_1">
  <g id="patch_1">
   <path d="M 0 302.4 
L 466.56 302.4 
L 466.56 0 
L 0 0 
L 0 302.4 
z
" style="fill: none"/>
  </g>
  <g id="axes_1">
   <g id="patch_2">
    <path d="M 42.756477 268.705354 
L 459.792653 268.705354 
L 459.792653 7.044608 
L 42.756477 7.044608 
L 42.756477 268.705354 
z
" style="fill: none"/>
   </g>
   <g id="line2d_1">
    <path d="M 54.559387 14.450101 
L 58.533431 16.473459 
L 62.507475 23.410689 
L 66.481519 33.527483 
L 70.455563 45.089532 
L 74.429607 57.518736 
L 78.403651 69.369837 
L 82.377695 80.642835 
L 86.351739 91.04868 
L 90.325783 100.587371 
L 94.299827 109.547959 
L 98.273871 117.641394 
L 102.247915 125.156726 
L 106.221959 132.093956 
L 110.196003 138.453084 
L 114.170047 144.234108 
L 118.144091 149.726082 
L 122.118135 154.929004 
L 126.092179 159.553824 
L 130.066223 163.889593 
L 134.040267 168.225362 
L 138.014311 171.983028 
L 141.988355 175.451643 
L 145.962399 178.920258 
L 149.936443 182.388872 
L 153.910487 185.568436 
L 157.884531 188.169897 
L 161.858575 191.06041 
L 165.832619 193.661871 
L 169.806663 196.263332 
L 173.780707 198.575742 
L 177.754751 200.599101 
L 181.728795 202.911511 
L 185.702839 204.934869 
L 189.676883 206.958228 
L 193.650927 208.692535 
L 197.624971 210.715894 
L 201.599015 212.450202 
L 205.573059 214.184509 
L 209.547103 215.629765 
L 213.521147 217.075021 
L 217.495191 218.809329 
L 221.469235 219.965534 
L 225.443279 221.699841 
L 229.417323 222.856046 
L 233.391367 224.301303 
L 237.365411 225.457507 
L 241.339455 226.613712 
L 245.313499 227.769917 
L 249.287543 228.926122 
L 253.261587 230.082327 
L 257.235631 231.238532 
L 261.209675 232.394737 
L 265.183719 233.261891 
L 269.157763 234.418096 
L 273.131807 235.28525 
L 277.105851 236.152403 
L 281.079895 237.019557 
L 285.053939 237.886711 
L 289.027983 238.753865 
L 293.002027 239.621018 
L 296.976071 240.199121 
L 300.950115 241.355326 
L 304.924159 241.933428 
L 308.898203 242.800582 
L 312.872247 243.378684 
L 316.846291 243.956787 
L 320.820335 244.823941 
L 324.794379 245.691094 
L 328.768423 246.269197 
L 332.742467 246.847299 
L 336.716511 247.714453 
L 340.690555 248.292556 
L 344.664598 248.870658 
L 348.638642 249.448761 
L 352.612686 249.737812 
L 356.58673 250.315914 
L 360.560774 251.183068 
L 364.534818 251.761171 
L 368.508862 252.050222 
L 372.482906 252.628324 
L 376.45695 253.206427 
L 380.430994 253.784529 
L 384.405038 254.362632 
L 388.379082 254.651683 
L 392.353126 255.229785 
L 396.32717 255.807888 
L 400.301214 256.096939 
L 404.275258 256.38599 
L 408.249302 257.253144 
L 412.223346 257.253144 
L 416.19739 257.831247 
L 420.171434 258.409349 
L 424.145478 258.6984 
L 428.119522 258.987452 
L 432.093566 259.565554 
L 436.06761 259.854605 
L 440.041654 260.432708 
L 444.015698 261.01081 
L 447.989742 261.299862 
" clip-path="url(#p4a70342812)" style="fill: none; stroke: #dc143c; stroke-width: 4"/>
   </g>
   <g id="matplotlib.axis_1">
    <g id="xtick_1">
     <g id="line2d_2">
      <defs>
       <path id="m1575dfe072" d="M 0 0 
L 0 -5 
" style="stroke: #000000"/>
      </defs>
      <g>
       <use xlink:href="#m1575dfe072" x="53.77095" y="268.705354" style="stroke: #000000"/>
      </g>
     </g>
     <g id="text_1">
      <!-- $0$ -->
      <g transform="translate(46.77095 293.480979) scale(0.28 -0.28)">
       <defs>
        <path id="Cmr10-30" d="M 1600 -141 
Q 816 -141 533 504 
Q 250 1150 250 2041 
Q 250 2597 351 3087 
Q 453 3578 754 3920 
Q 1056 4263 1600 4263 
Q 2022 4263 2290 4056 
Q 2559 3850 2700 3523 
Q 2841 3197 2892 2823 
Q 2944 2450 2944 2041 
Q 2944 1491 2842 1011 
Q 2741 531 2444 195 
Q 2147 -141 1600 -141 
z
M 1600 25 
Q 1956 25 2131 390 
Q 2306 756 2347 1200 
Q 2388 1644 2388 2144 
Q 2388 2625 2347 3031 
Q 2306 3438 2132 3767 
Q 1959 4097 1600 4097 
Q 1238 4097 1063 3765 
Q 888 3434 847 3029 
Q 806 2625 806 2144 
Q 806 1788 823 1472 
Q 841 1156 916 820 
Q 991 484 1158 254 
Q 1325 25 1600 25 
z
" transform="scale(0.015625)"/>
       </defs>
       <use xlink:href="#Cmr10-30" transform="translate(0 0.390625)"/>
      </g>
     </g>
    </g>
    <g id="xtick_2">
     <g id="line2d_3">
      <g>
       <use xlink:href="#m1575dfe072" x="132.614708" y="268.705354" style="stroke: #000000"/>
      </g>
     </g>
     <g id="text_2">
      <!-- $10$ -->
      <g transform="translate(118.614708 293.480979) scale(0.28 -0.28)">
       <defs>
        <path id="Cmr10-31" d="M 594 0 
L 594 225 
Q 1394 225 1394 428 
L 1394 3788 
Q 1063 3628 556 3628 
L 556 3853 
Q 1341 3853 1741 4263 
L 1831 4263 
Q 1853 4263 1873 4245 
Q 1894 4228 1894 4206 
L 1894 428 
Q 1894 225 2694 225 
L 2694 0 
L 594 0 
z
" transform="scale(0.015625)"/>
       </defs>
       <use xlink:href="#Cmr10-31" transform="translate(0 0.390625)"/>
       <use xlink:href="#Cmr10-30" transform="translate(50 0.390625)"/>
      </g>
     </g>
    </g>
    <g id="xtick_3">
     <g id="line2d_4">
      <g>
       <use xlink:href="#m1575dfe072" x="211.458467" y="268.705354" style="stroke: #000000"/>
      </g>
     </g>
     <g id="text_3">
      <!-- $20$ -->
      <g transform="translate(197.458467 293.480979) scale(0.28 -0.28)">
       <defs>
        <path id="Cmr10-32" d="M 319 0 
L 319 172 
Q 319 188 331 206 
L 1325 1306 
Q 1550 1550 1690 1715 
Q 1831 1881 1968 2097 
Q 2106 2313 2186 2536 
Q 2266 2759 2266 3009 
Q 2266 3272 2169 3511 
Q 2072 3750 1880 3894 
Q 1688 4038 1416 4038 
Q 1138 4038 916 3870 
Q 694 3703 603 3438 
Q 628 3444 672 3444 
Q 816 3444 917 3347 
Q 1019 3250 1019 3097 
Q 1019 2950 917 2848 
Q 816 2747 672 2747 
Q 522 2747 420 2851 
Q 319 2956 319 3097 
Q 319 3338 409 3548 
Q 500 3759 670 3923 
Q 841 4088 1055 4175 
Q 1269 4263 1509 4263 
Q 1875 4263 2190 4108 
Q 2506 3953 2690 3670 
Q 2875 3388 2875 3009 
Q 2875 2731 2753 2481 
Q 2631 2231 2440 2026 
Q 2250 1822 1953 1562 
Q 1656 1303 1563 1216 
L 838 519 
L 1453 519 
Q 1906 519 2211 526 
Q 2516 534 2534 550 
Q 2609 631 2688 1141 
L 2875 1141 
L 2694 0 
L 319 0 
z
" transform="scale(0.015625)"/>
       </defs>
       <use xlink:href="#Cmr10-32" transform="translate(0 0.390625)"/>
       <use xlink:href="#Cmr10-30" transform="translate(50 0.390625)"/>
      </g>
     </g>
    </g>
    <g id="xtick_4">
     <g id="line2d_5">
      <g>
       <use xlink:href="#m1575dfe072" x="290.302225" y="268.705354" style="stroke: #000000"/>
      </g>
     </g>
     <g id="text_4">
      <!-- $30$ -->
      <g transform="translate(276.302225 293.480979) scale(0.28 -0.28)">
       <defs>
        <path id="Cmr10-33" d="M 609 494 
Q 759 275 1012 169 
Q 1266 63 1556 63 
Q 1928 63 2084 380 
Q 2241 697 2241 1100 
Q 2241 1281 2208 1462 
Q 2175 1644 2097 1800 
Q 2019 1956 1883 2050 
Q 1747 2144 1550 2144 
L 1125 2144 
Q 1069 2144 1069 2203 
L 1069 2259 
Q 1069 2309 1125 2309 
L 1478 2338 
Q 1703 2338 1851 2506 
Q 2000 2675 2069 2917 
Q 2138 3159 2138 3378 
Q 2138 3684 1994 3881 
Q 1850 4078 1556 4078 
Q 1313 4078 1091 3986 
Q 869 3894 738 3706 
Q 750 3709 759 3711 
Q 769 3713 781 3713 
Q 925 3713 1022 3613 
Q 1119 3513 1119 3372 
Q 1119 3234 1022 3134 
Q 925 3034 781 3034 
Q 641 3034 541 3134 
Q 441 3234 441 3372 
Q 441 3647 606 3850 
Q 772 4053 1033 4158 
Q 1294 4263 1556 4263 
Q 1750 4263 1965 4205 
Q 2181 4147 2356 4039 
Q 2531 3931 2642 3762 
Q 2753 3594 2753 3378 
Q 2753 3109 2633 2881 
Q 2513 2653 2303 2487 
Q 2094 2322 1844 2241 
Q 2122 2188 2372 2031 
Q 2622 1875 2773 1631 
Q 2925 1388 2925 1106 
Q 2925 753 2731 467 
Q 2538 181 2222 20 
Q 1906 -141 1556 -141 
Q 1256 -141 954 -26 
Q 653 88 461 316 
Q 269 544 269 863 
Q 269 1022 375 1128 
Q 481 1234 641 1234 
Q 744 1234 830 1186 
Q 916 1138 964 1050 
Q 1013 963 1013 863 
Q 1013 706 903 600 
Q 794 494 641 494 
L 609 494 
z
" transform="scale(0.015625)"/>
       </defs>
       <use xlink:href="#Cmr10-33" transform="translate(0 0.390625)"/>
       <use xlink:href="#Cmr10-30" transform="translate(50 0.390625)"/>
      </g>
     </g>
    </g>
    <g id="xtick_5">
     <g id="line2d_6">
      <g>
       <use xlink:href="#m1575dfe072" x="369.145984" y="268.705354" style="stroke: #000000"/>
      </g>
     </g>
     <g id="text_5">
      <!-- $40$ -->
      <g transform="translate(355.145984 293.480979) scale(0.28 -0.28)">
       <defs>
        <path id="Cmr10-34" d="M 178 1056 
L 178 1281 
L 2156 4231 
Q 2178 4263 2222 4263 
L 2316 4263 
Q 2388 4263 2388 4191 
L 2388 1281 
L 3016 1281 
L 3016 1056 
L 2388 1056 
L 2388 428 
Q 2388 297 2575 261 
Q 2763 225 3009 225 
L 3009 0 
L 1247 0 
L 1247 225 
Q 1494 225 1681 261 
Q 1869 297 1869 428 
L 1869 1056 
L 178 1056 
z
M 391 1281 
L 1906 1281 
L 1906 3547 
L 391 1281 
z
" transform="scale(0.015625)"/>
       </defs>
       <use xlink:href="#Cmr10-34" transform="translate(0 0.390625)"/>
       <use xlink:href="#Cmr10-30" transform="translate(50 0.390625)"/>
      </g>
     </g>
    </g>
    <g id="xtick_6">
     <g id="line2d_7">
      <g>
       <use xlink:href="#m1575dfe072" x="447.989742" y="268.705354" style="stroke: #000000"/>
      </g>
     </g>
     <g id="text_6">
      <!-- $50$ -->
      <g transform="translate(433.989742 293.480979) scale(0.28 -0.28)">
       <defs>
        <path id="Cmr10-35" d="M 556 728 
Q 622 541 758 387 
Q 894 234 1080 148 
Q 1266 63 1466 63 
Q 1928 63 2103 422 
Q 2278 781 2278 1294 
Q 2278 1516 2270 1667 
Q 2263 1819 2228 1959 
Q 2169 2184 2020 2353 
Q 1872 2522 1656 2522 
Q 1441 2522 1286 2456 
Q 1131 2391 1034 2303 
Q 938 2216 863 2119 
Q 788 2022 769 2016 
L 697 2016 
Q 681 2016 657 2036 
Q 634 2056 634 2075 
L 634 4213 
Q 634 4228 654 4245 
Q 675 4263 697 4263 
L 716 4263 
Q 1147 4056 1631 4056 
Q 2106 4056 2547 4263 
L 2566 4263 
Q 2588 4263 2606 4247 
Q 2625 4231 2625 4213 
L 2625 4153 
Q 2625 4122 2613 4122 
Q 2394 3831 2064 3668 
Q 1734 3506 1381 3506 
Q 1125 3506 856 3578 
L 856 2369 
Q 1069 2541 1236 2614 
Q 1403 2688 1663 2688 
Q 2016 2688 2295 2484 
Q 2575 2281 2725 1954 
Q 2875 1628 2875 1288 
Q 2875 903 2686 575 
Q 2497 247 2172 53 
Q 1847 -141 1466 -141 
Q 1150 -141 886 21 
Q 622 184 470 459 
Q 319 734 319 1044 
Q 319 1188 412 1278 
Q 506 1369 647 1369 
Q 788 1369 883 1276 
Q 978 1184 978 1044 
Q 978 906 883 811 
Q 788 716 647 716 
Q 625 716 597 720 
Q 569 725 556 728 
z
" transform="scale(0.015625)"/>
       </defs>
       <use xlink:href="#Cmr10-35" transform="translate(0 0.390625)"/>
       <use xlink:href="#Cmr10-30" transform="translate(50 0.390625)"/>
      </g>
     </g>
    </g>
   </g>
   <g id="matplotlib.axis_2">
    <g id="ytick_1">
     <g id="line2d_8">
      <defs>
       <path id="m2e8ce58699" d="M 0 0 
L 5 0 
" style="stroke: #000000"/>
      </defs>
      <g>
       <use xlink:href="#m2e8ce58699" x="42.756477" y="245.691094" style="stroke: #000000"/>
      </g>
     </g>
     <g id="text_7">
      <!-- $0.2$ -->
      <g transform="translate(3.416477 256.328907) scale(0.28 -0.28)">
       <defs>
        <path id="Cmmi10-3a" d="M 538 353 
Q 538 497 644 600 
Q 750 703 891 703 
Q 978 703 1062 656 
Q 1147 609 1194 525 
Q 1241 441 1241 353 
Q 1241 213 1137 106 
Q 1034 0 891 0 
Q 750 0 644 106 
Q 538 213 538 353 
z
" transform="scale(0.015625)"/>
       </defs>
       <use xlink:href="#Cmr10-30" transform="translate(0 0.390625)"/>
       <use xlink:href="#Cmmi10-3a" transform="translate(50 0.390625)"/>
       <use xlink:href="#Cmr10-32" transform="translate(77.685547 0.390625)"/>
      </g>
     </g>
    </g>
    <g id="ytick_2">
     <g id="line2d_9">
      <g>
       <use xlink:href="#m2e8ce58699" x="42.756477" y="187.880846" style="stroke: #000000"/>
      </g>
     </g>
     <g id="text_8">
      <!-- $0.4$ -->
      <g transform="translate(3.416477 198.518659) scale(0.28 -0.28)">
       <use xlink:href="#Cmr10-30" transform="translate(0 0.390625)"/>
       <use xlink:href="#Cmmi10-3a" transform="translate(50 0.390625)"/>
       <use xlink:href="#Cmr10-34" transform="translate(77.685547 0.390625)"/>
      </g>
     </g>
    </g>
    <g id="ytick_3">
     <g id="line2d_10">
      <g>
       <use xlink:href="#m2e8ce58699" x="42.756477" y="130.070598" style="stroke: #000000"/>
      </g>
     </g>
     <g id="text_9">
      <!-- $0.6$ -->
      <g transform="translate(3.416477 140.70841) scale(0.28 -0.28)">
       <defs>
        <path id="Cmr10-36" d="M 1600 -141 
Q 1203 -141 937 70 
Q 672 281 526 617 
Q 381 953 325 1322 
Q 269 1691 269 2069 
Q 269 2575 466 3084 
Q 663 3594 1045 3928 
Q 1428 4263 1953 4263 
Q 2172 4263 2361 4180 
Q 2550 4097 2658 3936 
Q 2766 3775 2766 3547 
Q 2766 3416 2677 3327 
Q 2588 3238 2456 3238 
Q 2331 3238 2240 3328 
Q 2150 3419 2150 3547 
Q 2150 3672 2240 3762 
Q 2331 3853 2456 3853 
L 2491 3853 
Q 2409 3969 2261 4023 
Q 2113 4078 1953 4078 
Q 1759 4078 1595 3993 
Q 1431 3909 1300 3765 
Q 1169 3622 1081 3448 
Q 994 3275 945 3053 
Q 897 2831 884 2637 
Q 872 2444 872 2150 
Q 984 2413 1190 2580 
Q 1397 2747 1656 2747 
Q 1941 2747 2175 2631 
Q 2409 2516 2578 2311 
Q 2747 2106 2836 1843 
Q 2925 1581 2925 1313 
Q 2925 938 2758 598 
Q 2591 259 2287 59 
Q 1984 -141 1600 -141 
z
M 1600 63 
Q 1847 63 1997 175 
Q 2147 288 2217 473 
Q 2288 659 2305 848 
Q 2322 1038 2322 1313 
Q 2322 1675 2287 1931 
Q 2253 2188 2100 2383 
Q 1947 2578 1631 2578 
Q 1372 2578 1205 2403 
Q 1038 2228 961 1961 
Q 884 1694 884 1447 
Q 884 1363 891 1319 
Q 891 1309 889 1303 
Q 888 1297 884 1288 
Q 884 1013 940 731 
Q 997 450 1156 256 
Q 1316 63 1600 63 
z
" transform="scale(0.015625)"/>
       </defs>
       <use xlink:href="#Cmr10-30" transform="translate(0 0.390625)"/>
       <use xlink:href="#Cmmi10-3a" transform="translate(50 0.390625)"/>
       <use xlink:href="#Cmr10-36" transform="translate(77.685547 0.390625)"/>
      </g>
     </g>
    </g>
    <g id="ytick_4">
     <g id="line2d_11">
      <g>
       <use xlink:href="#m2e8ce58699" x="42.756477" y="72.260349" style="stroke: #000000"/>
      </g>
     </g>
     <g id="text_10">
      <!-- $0.8$ -->
      <g transform="translate(3.416477 82.898162) scale(0.28 -0.28)">
       <defs>
        <path id="Cmr10-38" d="M 269 972 
Q 269 1356 522 1651 
Q 775 1947 1172 2144 
L 934 2297 
Q 716 2441 578 2680 
Q 441 2919 441 3181 
Q 441 3488 602 3734 
Q 763 3981 1030 4122 
Q 1297 4263 1600 4263 
Q 1884 4263 2148 4147 
Q 2413 4031 2583 3815 
Q 2753 3600 2753 3303 
Q 2753 3088 2651 2903 
Q 2550 2719 2373 2572 
Q 2197 2425 1997 2322 
L 2363 2088 
Q 2616 1922 2770 1653 
Q 2925 1384 2925 1088 
Q 2925 741 2739 456 
Q 2553 172 2247 15 
Q 1941 -141 1600 -141 
Q 1269 -141 961 -6 
Q 653 128 461 383 
Q 269 638 269 972 
z
M 616 972 
Q 616 719 755 509 
Q 894 300 1122 181 
Q 1350 63 1600 63 
Q 1972 63 2275 280 
Q 2578 497 2578 856 
Q 2578 978 2529 1098 
Q 2481 1219 2395 1317 
Q 2309 1416 2203 1478 
L 1344 2034 
Q 1144 1928 976 1765 
Q 809 1603 712 1400 
Q 616 1197 616 972 
z
M 1056 2925 
L 1831 2425 
Q 2100 2581 2272 2803 
Q 2444 3025 2444 3303 
Q 2444 3519 2323 3698 
Q 2203 3878 2009 3978 
Q 1816 4078 1594 4078 
Q 1400 4078 1203 4003 
Q 1006 3928 878 3779 
Q 750 3631 750 3431 
Q 750 3131 1056 2925 
z
" transform="scale(0.015625)"/>
       </defs>
       <use xlink:href="#Cmr10-30" transform="translate(0 0.390625)"/>
       <use xlink:href="#Cmmi10-3a" transform="translate(50 0.390625)"/>
       <use xlink:href="#Cmr10-38" transform="translate(77.685547 0.390625)"/>
      </g>
     </g>
    </g>
    <g id="ytick_5">
     <g id="line2d_12">
      <g>
       <use xlink:href="#m2e8ce58699" x="42.756477" y="14.450101" style="stroke: #000000"/>
      </g>
     </g>
     <g id="text_11">
      <!-- $1.0$ -->
      <g transform="translate(3.416477 25.087913) scale(0.28 -0.28)">
       <use xlink:href="#Cmr10-31" transform="translate(0 0.390625)"/>
       <use xlink:href="#Cmmi10-3a" transform="translate(50 0.390625)"/>
       <use xlink:href="#Cmr10-30" transform="translate(77.685547 0.390625)"/>
      </g>
     </g>
    </g>
   </g>
   <g id="line2d_13">
    <path d="M 62.507475 249.957975 
L 66.481519 132.252852 
L 70.455563 98.721204 
L 74.429607 90.976493 
L 78.403651 92.707961 
L 82.377695 98.160388 
L 86.351739 105.008933 
L 90.325783 112.237451 
L 94.299827 119.385486 
L 98.273871 126.246404 
L 102.247915 132.735204 
L 106.221959 138.826704 
L 110.196003 144.525207 
L 114.170047 149.849097 
L 118.144091 154.822847 
L 122.118135 159.472845 
L 126.092179 163.825244 
L 130.066223 167.904892 
L 134.040267 171.734852 
L 138.014311 175.336249 
L 141.988355 178.728278 
L 145.962399 181.928304 
L 149.936443 184.952001 
L 153.910487 187.813504 
L 157.884531 190.525561 
L 161.858575 193.099674 
L 165.832619 195.546235 
L 169.806663 197.874647 
L 173.780707 200.093425 
L 177.754751 202.210302 
L 181.728795 204.232305 
L 185.702839 206.165834 
L 189.676883 208.016729 
L 193.650927 209.790329 
L 197.624971 211.49152 
L 201.599015 213.124785 
L 205.573059 214.694242 
L 209.547103 216.203682 
L 213.521147 217.656597 
L 217.495191 219.056214 
L 221.469235 220.405513 
L 225.443279 221.707257 
L 229.417323 222.964006 
L 233.391367 224.178137 
L 237.365411 225.351863 
L 241.339455 226.487241 
L 245.313499 227.586191 
L 249.287543 228.650504 
L 253.261587 229.681854 
L 257.235631 230.681807 
L 261.209675 231.651831 
L 265.183719 232.593301 
L 269.157763 233.507508 
L 273.131807 234.395666 
L 277.105851 235.258914 
L 281.079895 236.098329 
L 285.053939 236.914922 
L 289.027983 237.709647 
L 293.002027 238.483406 
L 296.976071 239.237051 
L 300.950115 239.971386 
L 304.924159 240.687174 
L 308.898203 241.385136 
L 312.872247 242.065957 
L 316.846291 242.730285 
L 320.820335 243.378736 
L 324.794379 244.011895 
L 328.768423 244.630318 
L 332.742467 245.234535 
L 336.716511 245.825048 
L 340.690555 246.402337 
L 344.664598 246.966859 
L 348.638642 247.51905 
L 352.612686 248.059325 
L 356.58673 248.588081 
L 360.560774 249.105698 
L 364.534818 249.612538 
L 368.508862 250.108947 
L 372.482906 250.595256 
L 376.45695 251.071784 
L 380.430994 251.538833 
L 384.405038 251.996696 
L 388.379082 252.44565 
L 392.353126 252.885965 
L 396.32717 253.317897 
L 400.301214 253.741692 
L 404.275258 254.157587 
L 408.249302 254.565811 
L 412.223346 254.966581 
L 416.19739 255.360108 
L 420.171434 255.746594 
L 424.145478 256.126234 
L 428.119522 256.499215 
L 432.093566 256.865719 
L 436.06761 257.225918 
L 440.041654 257.579981 
L 444.015698 257.928069 
L 447.989742 258.270339 
" clip-path="url(#p4a70342812)" style="fill: none; stroke: #6ca6cd; stroke-width: 4"/>
   </g>
   <g id="patch_3">
    <path d="M 42.756477 268.705354 
L 42.756477 7.044608 
" style="fill: none; stroke: #000000; stroke-width: 2; stroke-linejoin: miter; stroke-linecap: square"/>
   </g>
   <g id="patch_4">
    <path d="M 42.756477 268.705354 
L 459.792653 268.705354 
" style="fill: none; stroke: #000000; stroke-width: 2; stroke-linejoin: miter; stroke-linecap: square"/>
   </g>
  </g>
 </g>
 <defs>
  <clipPath id="p4a70342812">
   <rect x="42.756477" y="7.044608" width="417.036176" height="261.660746"/>
  </clipPath>
 </defs>
</svg>
