<?xml version="1.0" encoding="utf-8" standalone="no"?>
<!DOCTYPE svg PUBLIC "-//W3C//DTD SVG 1.1//EN"
  "http://www.w3.org/Graphics/SVG/1.1/DTD/svg11.dtd">
<svg xmlns:xlink="http://www.w3.org/1999/xlink" width="469.44pt" height="144pt" viewBox="0 0 469.44 144" xmlns="http://www.w3.org/2000/svg" version="1.1">
 <metadata>
  <rdf:RDF xmlns:dc="http://purl.org/dc/elements/1.1/" xmlns:cc="http://creativecommons.org/ns#" xmlns:rdf="http://www.w3.org/1999/02/22-rdf-syntax-ns#">
   <cc:Work>
    <dc:type rdf:resource="http://purl.org/dc/dcmitype/StillImage"/>
    <dc:date>2024-06-27T17:35:21.151754</dc:date>
    <dc:format>image/svg+xml</dc:format>
    <dc:creator>
     <cc:Agent>
      <dc:title>Matplotlib v3.8.4, https://matplotlib.org/</dc:title>
     </cc:Agent>
    </dc:creator>
   </cc:Work>
  </rdf:RDF>
 </metadata>
 <defs>
  <style type="text/css">*{stroke-linejoin: round; stroke-linecap: butt}</style>
 </defs>
 <g id="figure_1">
  <g id="patch_1">
   <path d="M 0 144 
L 469.44 144 
L 469.44 0 
L 0 0 
L 0 144 
z
" style="fill: none"/>
  </g>
  <g id="axes_1">
   <g id="patch_2">
    <path d="M 64.170808 127.743355 
L 466.605354 127.743355 
L 466.605354 10.496535 
L 64.170808 10.496535 
L 64.170808 127.743355 
z
" style="fill: none"/>
   </g>
   <g id="line2d_1">
    <path d="M 75.560465 13.816052 
L 77.268913 13.952084 
L 78.977362 14.310912 
L 80.68581 14.88837 
L 82.584087 15.780401 
L 84.482363 16.928447 
L 86.570467 18.47638 
L 88.65857 20.310138 
L 90.936502 22.619456 
L 93.404261 25.461656 
L 96.061847 28.886937 
L 98.909262 32.934746 
L 102.136331 37.934973 
L 105.743056 43.955726 
L 110.109091 51.70938 
L 116.183575 63.011008 
L 127.193576 83.54663 
L 131.749439 91.536045 
L 135.545992 97.773423 
L 138.962889 102.978018 
L 142.00013 107.226696 
L 144.847545 110.849934 
L 147.505131 113.890352 
L 149.97289 116.39889 
L 152.440649 118.588326 
L 154.718581 120.314248 
L 156.806685 121.639314 
L 158.894788 122.712342 
L 160.982892 123.528479 
L 162.881168 124.044373 
L 164.779444 124.342984 
L 166.677721 124.423235 
L 168.575997 124.2849 
L 170.474273 123.92862 
L 172.372549 123.355906 
L 174.460653 122.478819 
L 176.548757 121.347163 
L 178.63686 119.966617 
L 180.914792 118.184887 
L 183.192723 116.125896 
L 185.660482 113.596794 
L 188.318069 110.545944 
L 191.165483 106.928397 
L 194.202725 102.709459 
L 197.619622 97.573615 
L 201.606002 91.149405 
L 206.351692 83.048728 
L 213.754969 69.893322 
L 222.107385 55.161054 
L 226.853075 47.235073 
L 230.839455 40.993939 
L 234.44618 35.759869 
L 237.673249 31.462389 
L 240.710491 27.787348 
L 243.557905 24.693605 
L 246.215492 22.131339 
L 248.683251 20.045581 
L 251.15101 18.251641 
L 253.428941 16.86078 
L 255.706873 15.728575 
L 257.984804 14.857669 
L 260.072908 14.28999 
L 262.161012 13.942942 
L 264.249115 13.815586 
L 265.957564 13.905963 
L 267.666012 14.219479 
L 269.374461 14.752541 
L 271.272737 15.5965 
L 273.171013 16.697997 
L 275.069289 18.048351 
L 277.157393 19.809576 
L 279.435325 22.044205 
L 281.713256 24.58613 
L 284.181015 27.661444 
L 287.028429 31.587885 
L 290.065671 36.171068 
L 293.482568 41.740837 
L 297.468948 48.678583 
L 302.594294 58.074962 
L 318.539814 87.653036 
L 322.716021 94.758245 
L 326.322746 100.473843 
L 329.549815 105.191245 
L 332.587057 109.242257 
L 335.434471 112.662981 
L 338.092058 115.500847 
L 340.559817 117.810868 
L 342.837749 119.652436 
L 345.11568 121.204736 
L 347.203784 122.366429 
L 349.291887 123.272796 
L 351.190164 123.87173 
L 353.08844 124.254019 
L 354.986716 124.418261 
L 356.884992 124.363902 
L 358.783268 124.091249 
L 360.681544 123.601478 
L 362.579821 122.896642 
L 364.667924 121.876443 
L 366.756028 120.604697 
L 369.03396 118.937985 
L 371.311891 116.989502 
L 373.77965 114.574253 
L 376.437237 111.638292 
L 379.284651 108.133915 
L 382.321893 104.023229 
L 385.548962 99.282157 
L 389.345514 93.287549 
L 393.71155 85.958915 
L 399.596206 75.613275 
L 411.935001 53.812466 
L 416.490864 46.269701 
L 420.477244 40.095182 
L 423.894141 35.193479 
L 427.12121 30.945353 
L 430.158452 27.321001 
L 433.005866 24.27799 
L 435.663453 21.76544 
L 438.131212 19.727534 
L 440.598971 17.982739 
L 442.876902 16.638112 
L 445.154834 15.55272 
L 447.432765 14.728953 
L 449.520869 14.204567 
L 451.608973 13.9007 
L 453.697076 13.817007 
L 455.215697 13.933828 
L 455.215697 13.933828 
" clip-path="url(#p3b1a108df9)" style="fill: none; stroke: #800080; stroke-width: 4"/>
   </g>
   <g id="matplotlib.axis_1">
    <g id="xtick_1"/>
    <g id="xtick_2"/>
    <g id="xtick_3"/>
    <g id="xtick_4"/>
    <g id="xtick_5"/>
   </g>
   <g id="matplotlib.axis_2">
    <g id="ytick_1">
     <g id="line2d_2">
      <defs>
       <path id="meaf2a37a2a" d="M 0 0 
L 5 0 
" style="stroke: #000000"/>
      </defs>
      <g>
       <use xlink:href="#meaf2a37a2a" x="64.170808" y="124.425168" style="stroke: #000000"/>
      </g>
     </g>
     <g id="text_1">
      <!-- $-1.0$ -->
      <g transform="translate(2.990808 135.06298) scale(0.28 -0.28)">
       <defs>
        <path id="Cmsy10-a1" d="M 653 1472 
Q 600 1472 565 1512 
Q 531 1553 531 1600 
Q 531 1647 565 1687 
Q 600 1728 653 1728 
L 4325 1728 
Q 4375 1728 4408 1687 
Q 4441 1647 4441 1600 
Q 4441 1553 4408 1512 
Q 4375 1472 4325 1472 
L 653 1472 
z
" transform="scale(0.015625)"/>
        <path id="Cmr10-31" d="M 594 0 
L 594 225 
Q 1394 225 1394 428 
L 1394 3788 
Q 1063 3628 556 3628 
L 556 3853 
Q 1341 3853 1741 4263 
L 1831 4263 
Q 1853 4263 1873 4245 
Q 1894 4228 1894 4206 
L 1894 428 
Q 1894 225 2694 225 
L 2694 0 
L 594 0 
z
" transform="scale(0.015625)"/>
        <path id="Cmmi10-3a" d="M 538 353 
Q 538 497 644 600 
Q 750 703 891 703 
Q 978 703 1062 656 
Q 1147 609 1194 525 
Q 1241 441 1241 353 
Q 1241 213 1137 106 
Q 1034 0 891 0 
Q 750 0 644 106 
Q 538 213 538 353 
z
" transform="scale(0.015625)"/>
        <path id="Cmr10-30" d="M 1600 -141 
Q 816 -141 533 504 
Q 250 1150 250 2041 
Q 250 2597 351 3087 
Q 453 3578 754 3920 
Q 1056 4263 1600 4263 
Q 2022 4263 2290 4056 
Q 2559 3850 2700 3523 
Q 2841 3197 2892 2823 
Q 2944 2450 2944 2041 
Q 2944 1491 2842 1011 
Q 2741 531 2444 195 
Q 2147 -141 1600 -141 
z
M 1600 25 
Q 1956 25 2131 390 
Q 2306 756 2347 1200 
Q 2388 1644 2388 2144 
Q 2388 2625 2347 3031 
Q 2306 3438 2132 3767 
Q 1959 4097 1600 4097 
Q 1238 4097 1063 3765 
Q 888 3434 847 3029 
Q 806 2625 806 2144 
Q 806 1788 823 1472 
Q 841 1156 916 820 
Q 991 484 1158 254 
Q 1325 25 1600 25 
z
" transform="scale(0.015625)"/>
       </defs>
       <use xlink:href="#Cmsy10-a1" transform="translate(0 0.390625)"/>
       <use xlink:href="#Cmr10-31" transform="translate(77.685547 0.390625)"/>
       <use xlink:href="#Cmmi10-3a" transform="translate(127.685547 0.390625)"/>
       <use xlink:href="#Cmr10-30" transform="translate(155.371094 0.390625)"/>
      </g>
     </g>
    </g>
    <g id="ytick_2">
     <g id="line2d_3">
      <g>
       <use xlink:href="#meaf2a37a2a" x="64.170808" y="96.772585" style="stroke: #000000"/>
      </g>
     </g>
     <g id="text_2">
      <!-- $-0.5$ -->
      <g transform="translate(2.990808 107.410398) scale(0.28 -0.28)">
       <defs>
        <path id="Cmr10-35" d="M 556 728 
Q 622 541 758 387 
Q 894 234 1080 148 
Q 1266 63 1466 63 
Q 1928 63 2103 422 
Q 2278 781 2278 1294 
Q 2278 1516 2270 1667 
Q 2263 1819 2228 1959 
Q 2169 2184 2020 2353 
Q 1872 2522 1656 2522 
Q 1441 2522 1286 2456 
Q 1131 2391 1034 2303 
Q 938 2216 863 2119 
Q 788 2022 769 2016 
L 697 2016 
Q 681 2016 657 2036 
Q 634 2056 634 2075 
L 634 4213 
Q 634 4228 654 4245 
Q 675 4263 697 4263 
L 716 4263 
Q 1147 4056 1631 4056 
Q 2106 4056 2547 4263 
L 2566 4263 
Q 2588 4263 2606 4247 
Q 2625 4231 2625 4213 
L 2625 4153 
Q 2625 4122 2613 4122 
Q 2394 3831 2064 3668 
Q 1734 3506 1381 3506 
Q 1125 3506 856 3578 
L 856 2369 
Q 1069 2541 1236 2614 
Q 1403 2688 1663 2688 
Q 2016 2688 2295 2484 
Q 2575 2281 2725 1954 
Q 2875 1628 2875 1288 
Q 2875 903 2686 575 
Q 2497 247 2172 53 
Q 1847 -141 1466 -141 
Q 1150 -141 886 21 
Q 622 184 470 459 
Q 319 734 319 1044 
Q 319 1188 412 1278 
Q 506 1369 647 1369 
Q 788 1369 883 1276 
Q 978 1184 978 1044 
Q 978 906 883 811 
Q 788 716 647 716 
Q 625 716 597 720 
Q 569 725 556 728 
z
" transform="scale(0.015625)"/>
       </defs>
       <use xlink:href="#Cmsy10-a1" transform="translate(0 0.390625)"/>
       <use xlink:href="#Cmr10-30" transform="translate(77.685547 0.390625)"/>
       <use xlink:href="#Cmmi10-3a" transform="translate(127.685547 0.390625)"/>
       <use xlink:href="#Cmr10-35" transform="translate(155.371094 0.390625)"/>
      </g>
     </g>
    </g>
    <g id="ytick_3">
     <g id="line2d_4">
      <g>
       <use xlink:href="#meaf2a37a2a" x="64.170808" y="69.120003" style="stroke: #000000"/>
      </g>
     </g>
     <g id="text_3">
      <!-- $0.0$ -->
      <g transform="translate(24.830808 79.757816) scale(0.28 -0.28)">
       <use xlink:href="#Cmr10-30" transform="translate(0 0.390625)"/>
       <use xlink:href="#Cmmi10-3a" transform="translate(50 0.390625)"/>
       <use xlink:href="#Cmr10-30" transform="translate(77.685547 0.390625)"/>
      </g>
     </g>
    </g>
    <g id="ytick_4">
     <g id="line2d_5">
      <g>
       <use xlink:href="#meaf2a37a2a" x="64.170808" y="41.467421" style="stroke: #000000"/>
      </g>
     </g>
     <g id="text_4">
      <!-- $0.5$ -->
      <g transform="translate(24.830808 52.105233) scale(0.28 -0.28)">
       <use xlink:href="#Cmr10-30" transform="translate(0 0.390625)"/>
       <use xlink:href="#Cmmi10-3a" transform="translate(50 0.390625)"/>
       <use xlink:href="#Cmr10-35" transform="translate(77.685547 0.390625)"/>
      </g>
     </g>
    </g>
    <g id="ytick_5">
     <g id="line2d_6">
      <g>
       <use xlink:href="#meaf2a37a2a" x="64.170808" y="13.814839" style="stroke: #000000"/>
      </g>
     </g>
     <g id="text_5">
      <!-- $1.0$ -->
      <g transform="translate(24.830808 24.452651) scale(0.28 -0.28)">
       <use xlink:href="#Cmr10-31" transform="translate(0 0.390625)"/>
       <use xlink:href="#Cmmi10-3a" transform="translate(50 0.390625)"/>
       <use xlink:href="#Cmr10-30" transform="translate(77.685547 0.390625)"/>
      </g>
     </g>
    </g>
   </g>
   <g id="line2d_7">
    <path d="M 75.560465 13.814861 
L 75.94012 13.925134 
L 76.319775 14.244878 
L 76.889258 15.100298 
L 77.458741 16.381627 
L 78.218051 18.700507 
L 79.167189 22.473888 
L 80.306155 28.082974 
L 81.634948 35.780861 
L 83.533225 48.161409 
L 88.848398 83.668952 
L 90.746674 94.530848 
L 92.265295 102.077926 
L 93.783916 108.51288 
L 95.112709 113.205276 
L 96.251675 116.533718 
L 97.390641 119.237413 
L 98.529606 121.339641 
L 99.478744 122.653183 
L 100.427882 123.589005 
L 101.377021 124.168284 
L 102.136331 124.389959 
L 102.895642 124.409477 
L 103.654952 124.23878 
L 104.60409 123.776227 
L 105.553228 123.058662 
L 106.692194 121.893559 
L 108.020987 120.164458 
L 109.539608 117.773788 
L 111.248057 114.656268 
L 113.525988 109.977799 
L 116.56323 103.173436 
L 126.054611 81.574051 
L 129.661335 74.076257 
L 133.457888 66.694818 
L 137.823923 58.717537 
L 142.379786 50.852491 
L 145.98651 45.031636 
L 148.833925 40.842867 
L 151.681339 37.059203 
L 154.338926 33.881487 
L 156.996512 31.030675 
L 159.654099 28.487588 
L 162.501513 26.079922 
L 165.348927 23.973571 
L 168.196342 22.14161 
L 171.233583 20.460881 
L 174.270825 19.033515 
L 177.497895 17.764109 
L 180.914792 16.66522 
L 184.521517 15.744588 
L 188.318069 15.005623 
L 192.494276 14.426489 
L 197.050139 14.031169 
L 201.985657 13.835376 
L 204.453416 13.834793 
L 204.833071 14.033046 
L 205.402554 14.714862 
L 205.972037 15.833758 
L 206.731348 17.95466 
L 207.680486 21.512054 
L 208.819451 26.909519 
L 210.148245 34.425701 
L 212.046521 46.661076 
L 217.931177 85.766107 
L 219.639626 95.364979 
L 221.158246 102.799426 
L 222.676867 109.116175 
L 224.005661 113.704453 
L 225.144626 116.945213 
L 226.283592 119.564011 
L 227.422558 121.5851 
L 228.371696 122.834427 
L 229.320834 123.709457 
L 230.080144 124.154327 
L 230.839455 124.384781 
L 231.598765 124.412577 
L 232.358076 124.249654 
L 233.307214 123.796106 
L 234.256352 123.086759 
L 235.395318 121.930496 
L 236.724111 120.210342 
L 238.242732 117.828175 
L 239.95118 114.718173 
L 242.039284 110.453799 
L 245.076526 103.68347 
L 255.13739 80.829381 
L 258.744114 73.379719 
L 262.540667 66.041668 
L 266.906702 58.101351 
L 271.462565 50.272738 
L 275.069289 44.497777 
L 277.916704 40.359541 
L 280.764118 36.624343 
L 283.421705 33.490344 
L 286.079291 30.680947 
L 288.736878 28.176556 
L 291.584292 25.807144 
L 294.431706 23.735721 
L 297.279121 21.935465 
L 300.316362 20.285191 
L 303.353604 18.885044 
L 306.580674 17.64131 
L 309.997571 16.566305 
L 313.604296 15.667617 
L 317.400848 14.948583 
L 321.577055 14.388148 
L 326.132918 14.009971 
L 331.068436 13.829582 
L 333.346368 13.891665 
L 333.726023 14.176624 
L 334.295506 14.982389 
L 334.864989 16.217319 
L 335.624299 18.479737 
L 336.573437 22.191661 
L 337.712403 27.740736 
L 339.041196 35.387383 
L 340.939472 47.72758 
L 346.444473 84.433166 
L 348.342749 95.196773 
L 349.86137 102.654126 
L 351.379991 108.994864 
L 352.708785 113.604242 
L 353.84775 116.862754 
L 354.986716 119.498727 
L 356.125682 121.53622 
L 357.07482 122.798521 
L 358.023958 123.685829 
L 358.783268 124.139988 
L 359.542579 124.379243 
L 360.301889 124.415339 
L 361.0612 124.260211 
L 362.010338 123.815694 
L 362.959476 123.114591 
L 364.098442 121.967199 
L 365.427235 120.256026 
L 366.945856 117.882401 
L 368.654304 114.779956 
L 370.742408 110.522151 
L 373.77965 103.756929 
L 383.840514 80.897726 
L 387.447238 73.443644 
L 391.243791 66.101641 
L 395.609826 58.157958 
L 400.165689 50.325957 
L 403.772413 44.546671 
L 406.619828 40.403777 
L 409.467242 36.664124 
L 412.124828 33.526112 
L 414.782415 30.712917 
L 417.440002 28.20498 
L 420.287416 25.832064 
L 423.13483 23.757444 
L 425.982244 21.954285 
L 429.019486 20.301224 
L 432.056728 18.898587 
L 435.283798 17.652504 
L 438.700695 16.575314 
L 442.307419 15.674619 
L 446.103972 14.953762 
L 450.280179 14.391617 
L 454.836042 14.011872 
L 455.215697 13.989959 
L 455.215697 13.989959 
" clip-path="url(#p3b1a108df9)" style="fill: none; stroke: #2baad5; stroke-width: 4"/>
   </g>
   <g id="patch_3">
    <path d="M 64.170808 127.743355 
L 64.170808 10.496535 
" style="fill: none; stroke: #000000; stroke-width: 2; stroke-linejoin: miter; stroke-linecap: square"/>
   </g>
  </g>
 </g>
 <defs>
  <clipPath id="p3b1a108df9">
   <rect x="64.170808" y="10.496535" width="402.434547" height="117.24682"/>
  </clipPath>
 </defs>
</svg>
