<?xml version="1.0" encoding="utf-8" standalone="no"?>
<!DOCTYPE svg PUBLIC "-//W3C//DTD SVG 1.1//EN"
  "http://www.w3.org/Graphics/SVG/1.1/DTD/svg11.dtd">
<svg xmlns:xlink="http://www.w3.org/1999/xlink" width="469.44pt" height="144pt" viewBox="0 0 469.44 144" xmlns="http://www.w3.org/2000/svg" version="1.1">
 <metadata>
  <rdf:RDF xmlns:dc="http://purl.org/dc/elements/1.1/" xmlns:cc="http://creativecommons.org/ns#" xmlns:rdf="http://www.w3.org/1999/02/22-rdf-syntax-ns#">
   <cc:Work>
    <dc:type rdf:resource="http://purl.org/dc/dcmitype/StillImage"/>
    <dc:date>2024-05-07T19:32:59.780674</dc:date>
    <dc:format>image/svg+xml</dc:format>
    <dc:creator>
     <cc:Agent>
      <dc:title>Matplotlib v3.7.0, https://matplotlib.org/</dc:title>
     </cc:Agent>
    </dc:creator>
   </cc:Work>
  </rdf:RDF>
 </metadata>
 <defs>
  <style type="text/css">*{stroke-linejoin: round; stroke-linecap: butt}</style>
 </defs>
 <g id="figure_1">
  <g id="patch_1">
   <path d="M 0 144 
L 469.44 144 
L 469.44 0 
L 0 0 
L 0 144 
z
" style="fill: none"/>
  </g>
  <g id="axes_1">
   <g id="patch_2">
    <path d="M 64.170808 127.743409 
L 466.605354 127.743409 
L 466.605354 10.496545 
L 64.170808 10.496545 
L 64.170808 127.743409 
z
" style="fill: none"/>
   </g>
   <g id="line2d_1">
    <path d="M 75.560465 13.816218 
L 77.268913 13.95378 
L 78.977362 14.314113 
L 80.68581 14.893045 
L 82.584087 15.78667 
L 84.482363 16.936261 
L 86.570467 18.485825 
L 88.65857 20.321136 
L 90.936502 22.632053 
L 93.404261 25.475861 
L 96.061847 28.90272 
L 98.909262 32.952034 
L 102.136331 37.953722 
L 105.743056 43.97579 
L 110.109091 51.730582 
L 116.183575 63.032964 
L 127.193576 83.567611 
L 131.749439 91.555812 
L 135.545992 97.791851 
L 138.962889 102.995008 
L 142.00013 107.242238 
L 144.847545 110.863985 
L 147.505131 113.902907 
L 149.97289 116.409976 
L 152.440649 118.597872 
L 154.718581 120.32232 
L 156.806685 121.645996 
L 158.894788 122.717604 
L 160.982892 123.532297 
L 162.881168 124.046864 
L 164.779444 124.344138 
L 166.677721 124.423048 
L 168.575997 124.283374 
L 170.474273 123.925761 
L 172.372549 123.351727 
L 174.460653 122.473207 
L 176.548757 121.340147 
L 178.63686 119.958231 
L 180.914792 118.175056 
L 183.192723 116.114678 
L 185.660482 113.58415 
L 188.318069 110.531865 
L 191.165483 106.912906 
L 194.202725 102.692625 
L 197.619622 97.555482 
L 201.606002 91.130064 
L 206.351692 83.028402 
L 213.754969 69.872476 
L 222.107385 55.14108 
L 226.853075 47.216234 
L 230.839455 40.976374 
L 234.44618 35.743682 
L 237.673249 31.447597 
L 240.710491 27.77399 
L 243.557905 24.681684 
L 246.215492 22.120828 
L 248.683251 20.036427 
L 251.15101 18.243882 
L 253.428941 16.854334 
L 255.706873 15.723459 
L 257.984804 14.853892 
L 260.072908 14.287444 
L 262.161012 13.941625 
L 264.249115 13.81549 
L 265.957564 13.907348 
L 267.666012 14.222374 
L 269.374461 14.756916 
L 271.272737 15.60248 
L 273.171013 16.70553 
L 275.069289 18.057381 
L 277.157393 19.82018 
L 279.435325 22.056433 
L 281.713256 24.599873 
L 284.181015 27.6767 
L 287.028429 31.604709 
L 290.065671 36.189345 
L 293.482568 41.760467 
L 297.468948 48.699406 
L 302.594294 58.096708 
L 318.539814 87.673458 
L 322.716021 94.777367 
L 326.322746 100.491566 
L 329.549815 105.207516 
L 332.587057 109.257003 
L 335.434471 112.676172 
L 338.092058 115.512489 
L 340.559817 117.820995 
L 342.837749 119.661108 
L 345.11568 121.211907 
L 347.203784 122.37219 
L 349.291887 123.277121 
L 351.190164 123.874732 
L 353.08844 124.255687 
L 354.986716 124.418589 
L 356.884992 124.36289 
L 358.783268 124.088901 
L 360.681544 123.597804 
L 362.579821 122.891657 
L 364.667924 121.87004 
L 366.756028 120.596909 
L 369.03396 118.928731 
L 371.311891 116.978836 
L 373.77965 114.56213 
L 376.437237 111.624696 
L 379.284651 108.118865 
L 382.321893 104.006783 
L 385.548962 99.264419 
L 389.345514 93.268564 
L 393.71155 85.93888 
L 399.596206 75.592502 
L 411.935001 53.79265 
L 416.490864 46.251036 
L 420.477244 40.077832 
L 423.894141 35.177462 
L 427.12121 30.930748 
L 430.158452 27.307845 
L 433.005866 24.266283 
L 435.663453 21.755151 
L 438.131212 19.718609 
L 440.598971 17.975214 
L 442.876902 16.631904 
L 445.154834 15.547844 
L 447.432765 14.725418 
L 449.520869 14.202263 
L 451.608973 13.899623 
L 453.697076 13.817226 
L 455.215697 13.93541 
L 455.215697 13.93541 
" clip-path="url(#p689df3e15f)" style="fill: none; stroke: #800080; stroke-width: 6"/>
   </g>
   <g id="matplotlib.axis_1">
    <g id="xtick_1"/>
    <g id="xtick_2"/>
    <g id="xtick_3"/>
    <g id="xtick_4"/>
    <g id="xtick_5"/>
   </g>
   <g id="matplotlib.axis_2">
    <g id="ytick_1">
     <g id="line2d_2">
      <defs>
       <path id="mb1fa340852" d="M 0 0 
L 5 0 
" style="stroke: #000000"/>
      </defs>
      <g>
       <use xlink:href="#mb1fa340852" x="64.170808" y="124.425163" style="stroke: #000000"/>
      </g>
     </g>
     <g id="text_1">
      <!-- $-1.0$ -->
      <g transform="translate(2.990808 135.062976) scale(0.28 -0.28)">
       <defs>
        <path id="Cmsy10-a1" d="M 653 1472 
Q 600 1472 565 1512 
Q 531 1553 531 1600 
Q 531 1647 565 1687 
Q 600 1728 653 1728 
L 4325 1728 
Q 4375 1728 4408 1687 
Q 4441 1647 4441 1600 
Q 4441 1553 4408 1512 
Q 4375 1472 4325 1472 
L 653 1472 
z
" transform="scale(0.015625)"/>
        <path id="Cmr10-31" d="M 594 0 
L 594 225 
Q 1394 225 1394 428 
L 1394 3788 
Q 1063 3628 556 3628 
L 556 3853 
Q 1341 3853 1741 4263 
L 1831 4263 
Q 1853 4263 1873 4245 
Q 1894 4228 1894 4206 
L 1894 428 
Q 1894 225 2694 225 
L 2694 0 
L 594 0 
z
" transform="scale(0.015625)"/>
        <path id="Cmmi10-3a" d="M 538 353 
Q 538 497 644 600 
Q 750 703 891 703 
Q 978 703 1062 656 
Q 1147 609 1194 525 
Q 1241 441 1241 353 
Q 1241 213 1137 106 
Q 1034 0 891 0 
Q 750 0 644 106 
Q 538 213 538 353 
z
" transform="scale(0.015625)"/>
        <path id="Cmr10-30" d="M 1600 -141 
Q 816 -141 533 504 
Q 250 1150 250 2041 
Q 250 2597 351 3087 
Q 453 3578 754 3920 
Q 1056 4263 1600 4263 
Q 2022 4263 2290 4056 
Q 2559 3850 2700 3523 
Q 2841 3197 2892 2823 
Q 2944 2450 2944 2041 
Q 2944 1491 2842 1011 
Q 2741 531 2444 195 
Q 2147 -141 1600 -141 
z
M 1600 25 
Q 1956 25 2131 390 
Q 2306 756 2347 1200 
Q 2388 1644 2388 2144 
Q 2388 2625 2347 3031 
Q 2306 3438 2132 3767 
Q 1959 4097 1600 4097 
Q 1238 4097 1063 3765 
Q 888 3434 847 3029 
Q 806 2625 806 2144 
Q 806 1788 823 1472 
Q 841 1156 916 820 
Q 991 484 1158 254 
Q 1325 25 1600 25 
z
" transform="scale(0.015625)"/>
       </defs>
       <use xlink:href="#Cmsy10-a1" transform="translate(0 0.390625)"/>
       <use xlink:href="#Cmr10-31" transform="translate(77.685547 0.390625)"/>
       <use xlink:href="#Cmmi10-3a" transform="translate(127.685547 0.390625)"/>
       <use xlink:href="#Cmr10-30" transform="translate(155.371094 0.390625)"/>
      </g>
     </g>
    </g>
    <g id="ytick_2">
     <g id="line2d_3">
      <g>
       <use xlink:href="#mb1fa340852" x="64.170808" y="96.772582" style="stroke: #000000"/>
      </g>
     </g>
     <g id="text_2">
      <!-- $-0.5$ -->
      <g transform="translate(2.990808 107.410395) scale(0.28 -0.28)">
       <defs>
        <path id="Cmr10-35" d="M 556 728 
Q 622 541 758 387 
Q 894 234 1080 148 
Q 1266 63 1466 63 
Q 1928 63 2103 422 
Q 2278 781 2278 1294 
Q 2278 1516 2270 1667 
Q 2263 1819 2228 1959 
Q 2169 2184 2020 2353 
Q 1872 2522 1656 2522 
Q 1441 2522 1286 2456 
Q 1131 2391 1034 2303 
Q 938 2216 863 2119 
Q 788 2022 769 2016 
L 697 2016 
Q 681 2016 657 2036 
Q 634 2056 634 2075 
L 634 4213 
Q 634 4228 654 4245 
Q 675 4263 697 4263 
L 716 4263 
Q 1147 4056 1631 4056 
Q 2106 4056 2547 4263 
L 2566 4263 
Q 2588 4263 2606 4247 
Q 2625 4231 2625 4213 
L 2625 4153 
Q 2625 4122 2613 4122 
Q 2394 3831 2064 3668 
Q 1734 3506 1381 3506 
Q 1125 3506 856 3578 
L 856 2369 
Q 1069 2541 1236 2614 
Q 1403 2688 1663 2688 
Q 2016 2688 2295 2484 
Q 2575 2281 2725 1954 
Q 2875 1628 2875 1288 
Q 2875 903 2686 575 
Q 2497 247 2172 53 
Q 1847 -141 1466 -141 
Q 1150 -141 886 21 
Q 622 184 470 459 
Q 319 734 319 1044 
Q 319 1188 412 1278 
Q 506 1369 647 1369 
Q 788 1369 883 1276 
Q 978 1184 978 1044 
Q 978 906 883 811 
Q 788 716 647 716 
Q 625 716 597 720 
Q 569 725 556 728 
z
" transform="scale(0.015625)"/>
       </defs>
       <use xlink:href="#Cmsy10-a1" transform="translate(0 0.390625)"/>
       <use xlink:href="#Cmr10-30" transform="translate(77.685547 0.390625)"/>
       <use xlink:href="#Cmmi10-3a" transform="translate(127.685547 0.390625)"/>
       <use xlink:href="#Cmr10-35" transform="translate(155.371094 0.390625)"/>
      </g>
     </g>
    </g>
    <g id="ytick_3">
     <g id="line2d_4">
      <g>
       <use xlink:href="#mb1fa340852" x="64.170808" y="69.120001" style="stroke: #000000"/>
      </g>
     </g>
     <g id="text_3">
      <!-- $0.0$ -->
      <g transform="translate(24.830808 79.757814) scale(0.28 -0.28)">
       <use xlink:href="#Cmr10-30" transform="translate(0 0.390625)"/>
       <use xlink:href="#Cmmi10-3a" transform="translate(50 0.390625)"/>
       <use xlink:href="#Cmr10-30" transform="translate(77.685547 0.390625)"/>
      </g>
     </g>
    </g>
    <g id="ytick_4">
     <g id="line2d_5">
      <g>
       <use xlink:href="#mb1fa340852" x="64.170808" y="41.46742" style="stroke: #000000"/>
      </g>
     </g>
     <g id="text_4">
      <!-- $0.5$ -->
      <g transform="translate(24.830808 52.105233) scale(0.28 -0.28)">
       <use xlink:href="#Cmr10-30" transform="translate(0 0.390625)"/>
       <use xlink:href="#Cmmi10-3a" transform="translate(50 0.390625)"/>
       <use xlink:href="#Cmr10-35" transform="translate(77.685547 0.390625)"/>
      </g>
     </g>
    </g>
    <g id="ytick_5">
     <g id="line2d_6">
      <g>
       <use xlink:href="#mb1fa340852" x="64.170808" y="13.814839" style="stroke: #000000"/>
      </g>
     </g>
     <g id="text_5">
      <!-- $1.0$ -->
      <g transform="translate(24.830808 24.452652) scale(0.28 -0.28)">
       <use xlink:href="#Cmr10-31" transform="translate(0 0.390625)"/>
       <use xlink:href="#Cmmi10-3a" transform="translate(50 0.390625)"/>
       <use xlink:href="#Cmr10-30" transform="translate(77.685547 0.390625)"/>
      </g>
     </g>
    </g>
   </g>
   <g id="line2d_7">
    <path d="M 75.560465 13.834598 
L 75.94012 14.032404 
L 76.509603 14.713583 
L 77.079086 15.83188 
L 77.838396 17.952051 
L 78.787534 21.508646 
L 79.9265 26.905323 
L 81.255293 34.420823 
L 83.153569 46.655643 
L 89.038226 85.761296 
L 90.746674 95.360746 
L 92.265295 102.79577 
L 93.783916 109.113123 
L 95.112709 113.701932 
L 96.251675 116.943138 
L 97.390641 119.562369 
L 98.529606 121.583871 
L 99.478744 122.833524 
L 100.427882 123.708863 
L 101.187193 124.153966 
L 101.946503 124.384642 
L 102.705814 124.412647 
L 103.465124 124.249919 
L 104.414262 123.796598 
L 105.363401 123.087459 
L 106.502366 121.931419 
L 107.83116 120.21149 
L 109.34978 117.829539 
L 111.058229 114.719727 
L 113.146333 110.455518 
L 116.183575 103.685318 
L 126.244438 80.8311 
L 129.851163 73.381327 
L 133.647715 66.043177 
L 138.013751 58.102776 
L 142.569613 50.274077 
L 146.176338 44.499007 
L 149.023752 40.360654 
L 151.871167 36.625344 
L 154.528753 33.491244 
L 157.18634 30.681752 
L 159.843926 28.177272 
L 162.691341 25.807771 
L 165.538755 23.736268 
L 168.386169 21.935939 
L 171.423411 20.285595 
L 174.460653 18.885386 
L 177.687722 17.641592 
L 181.104619 16.566532 
L 184.711344 15.667794 
L 188.507896 14.948713 
L 192.684104 14.388236 
L 197.239967 14.010019 
L 202.175485 13.829595 
L 204.453416 13.891282 
L 204.833071 14.175801 
L 205.402554 14.980939 
L 205.972037 16.215282 
L 206.731348 18.476985 
L 207.680486 22.18813 
L 208.819451 27.736442 
L 210.148245 35.382437 
L 212.046521 47.722117 
L 217.551522 84.428284 
L 219.449798 95.192526 
L 220.968419 102.650454 
L 222.48704 108.991797 
L 223.815833 113.601706 
L 224.954799 116.860665 
L 226.093764 119.497071 
L 227.23273 121.534978 
L 228.181868 122.797606 
L 229.131006 123.685224 
L 229.890317 124.139618 
L 230.649627 124.379094 
L 231.408938 124.4154 
L 232.168248 124.260469 
L 233.117386 123.816179 
L 234.066524 123.115285 
L 235.20549 121.968117 
L 236.534283 120.257171 
L 238.052904 117.883761 
L 239.761353 114.781508 
L 241.849457 110.523868 
L 244.886698 103.758776 
L 254.947562 80.899446 
L 258.554287 73.445253 
L 262.350839 66.103151 
L 266.716874 58.159383 
L 271.272737 50.327298 
L 274.879462 44.547903 
L 277.726876 40.404892 
L 280.57429 36.665127 
L 283.231877 33.527014 
L 285.889464 30.713723 
L 288.54705 28.205697 
L 291.394464 25.832693 
L 294.241879 23.757992 
L 297.089293 21.95476 
L 300.126535 20.301629 
L 303.163777 18.898929 
L 306.390846 17.652787 
L 309.807743 16.575542 
L 313.414468 15.674796 
L 317.21102 14.953893 
L 321.387228 14.391705 
L 325.943091 14.011921 
L 330.878609 13.830088 
L 333.15654 13.876829 
L 333.536195 14.143872 
L 334.105678 14.924049 
L 334.675161 16.135049 
L 335.434471 18.368317 
L 336.38361 22.048469 
L 337.522575 27.566454 
L 338.851369 35.186464 
L 340.749645 47.505496 
L 346.444473 85.378616 
L 348.342749 96.017734 
L 349.86137 103.362359 
L 351.379991 109.585272 
L 352.708785 114.091158 
L 353.84775 117.262685 
L 354.986716 119.814564 
L 355.935854 121.485637 
L 356.884992 122.761263 
L 357.83413 123.661183 
L 358.593441 124.124888 
L 359.352751 124.373186 
L 360.112062 124.417814 
L 360.871372 124.270699 
L 361.82051 123.835469 
L 362.769648 123.142845 
L 363.908614 122.004581 
L 365.237407 120.302651 
L 366.756028 117.937821 
L 368.464477 114.843166 
L 370.55258 110.592138 
L 373.589822 103.832203 
L 383.840514 80.562723 
L 387.447238 73.130309 
L 391.243791 65.807619 
L 395.609826 57.880389 
L 400.165689 50.065078 
L 403.582586 44.596848 
L 406.43 40.44918 
L 409.277414 36.704958 
L 411.935001 33.56283 
L 414.592587 30.745739 
L 417.250174 28.234163 
L 420.097588 25.857651 
L 422.945003 23.779749 
L 425.792417 21.973612 
L 428.829659 20.31769 
L 431.866901 18.912497 
L 435.09397 17.664004 
L 438.510867 16.584571 
L 442.117592 15.681816 
L 445.914144 14.959088 
L 450.090352 14.395187 
L 454.646215 14.013832 
L 455.215697 13.981305 
L 455.215697 13.981305 
" clip-path="url(#p689df3e15f)" style="fill: none; stroke: #2baad5; stroke-width: 6"/>
   </g>
   <g id="patch_3">
    <path d="M 64.170808 127.743409 
L 64.170808 10.496545 
" style="fill: none; stroke: #000000; stroke-width: 2; stroke-linejoin: miter; stroke-linecap: square"/>
   </g>
  </g>
 </g>
 <defs>
  <clipPath id="p689df3e15f">
   <rect x="64.170808" y="10.496545" width="402.434547" height="117.246863"/>
  </clipPath>
 </defs>
</svg>
