<?xml version="1.0" encoding="utf-8" standalone="no"?>
<!DOCTYPE svg PUBLIC "-//W3C//DTD SVG 1.1//EN"
  "http://www.w3.org/Graphics/SVG/1.1/DTD/svg11.dtd">
<svg xmlns:xlink="http://www.w3.org/1999/xlink" width="469.44pt" height="144pt" viewBox="0 0 469.44 144" xmlns="http://www.w3.org/2000/svg" version="1.1">
 <metadata>
  <rdf:RDF xmlns:dc="http://purl.org/dc/elements/1.1/" xmlns:cc="http://creativecommons.org/ns#" xmlns:rdf="http://www.w3.org/1999/02/22-rdf-syntax-ns#">
   <cc:Work>
    <dc:type rdf:resource="http://purl.org/dc/dcmitype/StillImage"/>
    <dc:date>2024-07-16T17:23:39.458119</dc:date>
    <dc:format>image/svg+xml</dc:format>
    <dc:creator>
     <cc:Agent>
      <dc:title>Matplotlib v3.8.4, https://matplotlib.org/</dc:title>
     </cc:Agent>
    </dc:creator>
   </cc:Work>
  </rdf:RDF>
 </metadata>
 <defs>
  <style type="text/css">*{stroke-linejoin: round; stroke-linecap: butt}</style>
 </defs>
 <g id="figure_1">
  <g id="patch_1">
   <path d="M 0 144 
L 469.44 144 
L 469.44 0 
L 0 0 
L 0 144 
z
" style="fill: none"/>
  </g>
  <g id="axes_1">
   <g id="patch_2">
    <path d="M 64.170808 127.743332 
L 466.605354 127.743332 
L 466.605354 10.496573 
L 64.170808 10.496573 
L 64.170808 127.743332 
z
" style="fill: none"/>
   </g>
   <g id="line2d_1">
    <path d="M 75.560465 13.814918 
L 77.268913 13.933852 
L 78.977362 14.275966 
L 80.68581 14.837092 
L 82.584087 15.711484 
L 84.482363 16.842374 
L 86.570467 18.372051 
L 88.65857 20.188084 
L 90.936502 22.478573 
L 93.404261 25.301817 
L 96.061847 28.707927 
L 98.909262 32.737381 
L 102.136331 37.719956 
L 105.743056 43.726246 
L 109.919263 51.124347 
L 115.803919 62.054537 
L 127.383404 83.677047 
L 131.939267 91.663264 
L 135.735819 97.89336 
L 139.152716 103.087929 
L 142.189958 107.325373 
L 145.037372 110.936654 
L 147.694959 113.965147 
L 150.162718 116.462351 
L 152.630477 118.640517 
L 154.908408 120.356405 
L 156.996512 121.672702 
L 159.084616 122.737474 
L 161.17272 123.545918 
L 163.070996 124.055308 
L 164.969272 124.347855 
L 166.867548 124.422434 
L 168.765824 124.278759 
L 170.664101 123.917399 
L 172.562377 123.339796 
L 174.65048 122.457466 
L 176.738584 121.320634 
L 178.826688 119.934924 
L 181.104619 118.147553 
L 183.382551 116.082868 
L 185.85031 113.547644 
L 188.507896 110.490273 
L 191.355311 106.86602 
L 194.392553 102.640483 
L 197.80945 97.498066 
L 201.79583 91.067985 
L 206.54152 82.962907 
L 213.944797 69.80634 
L 222.297212 55.079907 
L 227.042903 47.159622 
L 231.029283 40.924271 
L 234.636007 35.696177 
L 237.863077 31.404648 
L 240.900319 27.735579 
L 243.747733 24.647729 
L 246.405319 22.091178 
L 248.873078 20.010863 
L 251.340837 18.222614 
L 253.618769 16.836886 
L 255.8967 15.709905 
L 258.174632 14.844094 
L 260.262735 14.280966 
L 262.350839 13.938353 
L 264.438943 13.815276 
L 266.147392 13.910802 
L 267.85584 14.229632 
L 269.564289 14.767964 
L 271.462565 15.617677 
L 273.360841 16.724674 
L 275.259117 18.080166 
L 277.347221 19.846593 
L 279.625152 22.086271 
L 281.903084 24.632232 
L 284.370843 27.711677 
L 287.028429 31.368256 
L 290.065671 35.931449 
L 293.482568 41.483181 
L 297.468948 48.407145 
L 302.594294 57.796752 
L 318.919469 88.081024 
L 323.095676 95.161587 
L 326.702401 100.847551 
L 329.929471 105.532771 
L 332.966712 109.54917 
L 335.814127 112.934546 
L 338.471713 115.737536 
L 340.939472 118.014021 
L 343.217404 119.824101 
L 345.495335 121.344675 
L 347.583439 122.477318 
L 349.671543 123.354807 
L 351.569819 123.927732 
L 353.468095 124.2843 
L 355.366371 124.423146 
L 357.264647 124.343734 
L 359.162924 124.04638 
L 361.0612 123.532267 
L 362.959476 122.803454 
L 365.04758 121.757325 
L 367.135683 120.460159 
L 369.413615 118.766356 
L 371.691546 116.791562 
L 374.159305 114.348883 
L 376.816892 111.384864 
L 379.664306 107.852454 
L 382.701548 103.714598 
L 386.118445 98.657244 
L 389.914997 92.618422 
L 394.47086 84.924842 
L 400.735171 73.865241 
L 411.555346 54.736948 
L 416.301036 46.83638 
L 420.287416 40.62324 
L 423.894141 35.418827 
L 427.12121 31.151441 
L 430.158452 27.507016 
L 433.005866 24.443948 
L 435.663453 21.911767 
L 438.131212 19.854787 
L 440.598971 18.090523 
L 442.876902 16.727416 
L 445.154834 15.623332 
L 447.432765 14.780517 
L 449.520869 14.238566 
L 451.608973 13.917072 
L 453.697076 13.815009 
L 455.215697 13.912067 
L 455.215697 13.912067 
" clip-path="url(#p1d1e689e2e)" style="fill: none; stroke: #800080; stroke-width: 4"/>
   </g>
   <g id="matplotlib.axis_1">
    <g id="xtick_1"/>
    <g id="xtick_2"/>
    <g id="xtick_3"/>
    <g id="xtick_4"/>
    <g id="xtick_5"/>
   </g>
   <g id="matplotlib.axis_2">
    <g id="ytick_1">
     <g id="line2d_2">
      <defs>
       <path id="m75e303fc80" d="M 0 0 
L 5 0 
" style="stroke: #000000"/>
      </defs>
      <g>
       <use xlink:href="#m75e303fc80" x="64.170808" y="124.425171" style="stroke: #000000"/>
      </g>
     </g>
     <g id="text_1">
      <!-- $-1.0$ -->
      <g transform="translate(2.990808 135.062983) scale(0.28 -0.28)">
       <defs>
        <path id="Cmsy10-a1" d="M 653 1472 
Q 600 1472 565 1512 
Q 531 1553 531 1600 
Q 531 1647 565 1687 
Q 600 1728 653 1728 
L 4325 1728 
Q 4375 1728 4408 1687 
Q 4441 1647 4441 1600 
Q 4441 1553 4408 1512 
Q 4375 1472 4325 1472 
L 653 1472 
z
" transform="scale(0.015625)"/>
        <path id="Cmr10-31" d="M 594 0 
L 594 225 
Q 1394 225 1394 428 
L 1394 3788 
Q 1063 3628 556 3628 
L 556 3853 
Q 1341 3853 1741 4263 
L 1831 4263 
Q 1853 4263 1873 4245 
Q 1894 4228 1894 4206 
L 1894 428 
Q 1894 225 2694 225 
L 2694 0 
L 594 0 
z
" transform="scale(0.015625)"/>
        <path id="Cmmi10-3a" d="M 538 353 
Q 538 497 644 600 
Q 750 703 891 703 
Q 978 703 1062 656 
Q 1147 609 1194 525 
Q 1241 441 1241 353 
Q 1241 213 1137 106 
Q 1034 0 891 0 
Q 750 0 644 106 
Q 538 213 538 353 
z
" transform="scale(0.015625)"/>
        <path id="Cmr10-30" d="M 1600 -141 
Q 816 -141 533 504 
Q 250 1150 250 2041 
Q 250 2597 351 3087 
Q 453 3578 754 3920 
Q 1056 4263 1600 4263 
Q 2022 4263 2290 4056 
Q 2559 3850 2700 3523 
Q 2841 3197 2892 2823 
Q 2944 2450 2944 2041 
Q 2944 1491 2842 1011 
Q 2741 531 2444 195 
Q 2147 -141 1600 -141 
z
M 1600 25 
Q 1956 25 2131 390 
Q 2306 756 2347 1200 
Q 2388 1644 2388 2144 
Q 2388 2625 2347 3031 
Q 2306 3438 2132 3767 
Q 1959 4097 1600 4097 
Q 1238 4097 1063 3765 
Q 888 3434 847 3029 
Q 806 2625 806 2144 
Q 806 1788 823 1472 
Q 841 1156 916 820 
Q 991 484 1158 254 
Q 1325 25 1600 25 
z
" transform="scale(0.015625)"/>
       </defs>
       <use xlink:href="#Cmsy10-a1" transform="translate(0 0.390625)"/>
       <use xlink:href="#Cmr10-31" transform="translate(77.685547 0.390625)"/>
       <use xlink:href="#Cmmi10-3a" transform="translate(127.685547 0.390625)"/>
       <use xlink:href="#Cmr10-30" transform="translate(155.371094 0.390625)"/>
      </g>
     </g>
    </g>
    <g id="ytick_2">
     <g id="line2d_3">
      <g>
       <use xlink:href="#m75e303fc80" x="64.170808" y="96.772587" style="stroke: #000000"/>
      </g>
     </g>
     <g id="text_2">
      <!-- $-0.5$ -->
      <g transform="translate(2.990808 107.410399) scale(0.28 -0.28)">
       <defs>
        <path id="Cmr10-35" d="M 556 728 
Q 622 541 758 387 
Q 894 234 1080 148 
Q 1266 63 1466 63 
Q 1928 63 2103 422 
Q 2278 781 2278 1294 
Q 2278 1516 2270 1667 
Q 2263 1819 2228 1959 
Q 2169 2184 2020 2353 
Q 1872 2522 1656 2522 
Q 1441 2522 1286 2456 
Q 1131 2391 1034 2303 
Q 938 2216 863 2119 
Q 788 2022 769 2016 
L 697 2016 
Q 681 2016 657 2036 
Q 634 2056 634 2075 
L 634 4213 
Q 634 4228 654 4245 
Q 675 4263 697 4263 
L 716 4263 
Q 1147 4056 1631 4056 
Q 2106 4056 2547 4263 
L 2566 4263 
Q 2588 4263 2606 4247 
Q 2625 4231 2625 4213 
L 2625 4153 
Q 2625 4122 2613 4122 
Q 2394 3831 2064 3668 
Q 1734 3506 1381 3506 
Q 1125 3506 856 3578 
L 856 2369 
Q 1069 2541 1236 2614 
Q 1403 2688 1663 2688 
Q 2016 2688 2295 2484 
Q 2575 2281 2725 1954 
Q 2875 1628 2875 1288 
Q 2875 903 2686 575 
Q 2497 247 2172 53 
Q 1847 -141 1466 -141 
Q 1150 -141 886 21 
Q 622 184 470 459 
Q 319 734 319 1044 
Q 319 1188 412 1278 
Q 506 1369 647 1369 
Q 788 1369 883 1276 
Q 978 1184 978 1044 
Q 978 906 883 811 
Q 788 716 647 716 
Q 625 716 597 720 
Q 569 725 556 728 
z
" transform="scale(0.015625)"/>
       </defs>
       <use xlink:href="#Cmsy10-a1" transform="translate(0 0.390625)"/>
       <use xlink:href="#Cmr10-30" transform="translate(77.685547 0.390625)"/>
       <use xlink:href="#Cmmi10-3a" transform="translate(127.685547 0.390625)"/>
       <use xlink:href="#Cmr10-35" transform="translate(155.371094 0.390625)"/>
      </g>
     </g>
    </g>
    <g id="ytick_3">
     <g id="line2d_4">
      <g>
       <use xlink:href="#m75e303fc80" x="64.170808" y="69.120003" style="stroke: #000000"/>
      </g>
     </g>
     <g id="text_3">
      <!-- $0.0$ -->
      <g transform="translate(24.830808 79.757815) scale(0.28 -0.28)">
       <use xlink:href="#Cmr10-30" transform="translate(0 0.390625)"/>
       <use xlink:href="#Cmmi10-3a" transform="translate(50 0.390625)"/>
       <use xlink:href="#Cmr10-30" transform="translate(77.685547 0.390625)"/>
      </g>
     </g>
    </g>
    <g id="ytick_4">
     <g id="line2d_5">
      <g>
       <use xlink:href="#m75e303fc80" x="64.170808" y="41.467419" style="stroke: #000000"/>
      </g>
     </g>
     <g id="text_4">
      <!-- $0.5$ -->
      <g transform="translate(24.830808 52.105231) scale(0.28 -0.28)">
       <use xlink:href="#Cmr10-30" transform="translate(0 0.390625)"/>
       <use xlink:href="#Cmmi10-3a" transform="translate(50 0.390625)"/>
       <use xlink:href="#Cmr10-35" transform="translate(77.685547 0.390625)"/>
      </g>
     </g>
    </g>
    <g id="ytick_5">
     <g id="line2d_6">
      <g>
       <use xlink:href="#m75e303fc80" x="64.170808" y="13.814835" style="stroke: #000000"/>
      </g>
     </g>
     <g id="text_5">
      <!-- $1.0$ -->
      <g transform="translate(24.830808 24.452647) scale(0.28 -0.28)">
       <use xlink:href="#Cmr10-31" transform="translate(0 0.390625)"/>
       <use xlink:href="#Cmmi10-3a" transform="translate(50 0.390625)"/>
       <use xlink:href="#Cmr10-30" transform="translate(77.685547 0.390625)"/>
      </g>
     </g>
    </g>
   </g>
   <g id="line2d_7">
    <path d="M 75.560465 13.820357 
L 75.94012 13.979112 
L 76.319775 14.35169 
L 76.889258 15.288129 
L 77.648569 17.199901 
L 78.407879 19.804794 
L 79.357017 23.90896 
L 80.495983 29.866824 
L 82.014604 39.131475 
L 84.102707 53.242694 
L 88.278915 81.521642 
L 90.177191 92.776208 
L 91.695812 100.642194 
L 93.214433 107.393802 
L 94.543226 112.326767 
L 95.87202 116.371668 
L 97.010985 119.140924 
L 98.149951 121.288092 
L 99.099089 122.627076 
L 100.048227 123.578884 
L 100.997365 124.166351 
L 101.756676 124.390157 
L 102.515986 124.408965 
L 103.275297 124.236028 
L 104.224435 123.768897 
L 105.173573 123.046304 
L 106.312539 121.87512 
L 107.641332 120.142095 
L 108.970125 118.07796 
L 110.868401 114.654562 
L 113.146333 110.000299 
L 116.183575 103.23716 
L 127.952887 76.754222 
L 131.179956 70.268698 
L 134.976509 63.128212 
L 140.671337 52.938244 
L 144.088234 47.224821 
L 146.935648 42.854661 
L 149.593235 39.133203 
L 152.440649 35.531817 
L 155.098236 32.517506 
L 157.94565 29.642102 
L 160.793064 27.106259 
L 163.640479 24.882583 
L 166.677721 22.824538 
L 169.714962 21.057385 
L 172.752204 19.551107 
L 175.789446 18.278029 
L 179.206343 17.09324 
L 182.62324 16.137225 
L 186.419793 15.309278 
L 190.596 14.642963 
L 194.962035 14.178121 
L 199.707726 13.898546 
L 204.453416 13.819786 
L 204.833071 13.975918 
L 205.212727 14.346038 
L 205.78221 15.278834 
L 206.54152 17.186268 
L 207.30083 19.787419 
L 208.249969 23.887423 
L 209.388934 29.841047 
L 210.907555 39.102237 
L 212.995659 53.211296 
L 217.171867 81.492832 
L 219.070143 92.750872 
L 220.588764 100.620423 
L 222.107385 107.375276 
L 223.436178 112.311504 
L 224.764971 116.359262 
L 225.903937 119.13109 
L 227.042903 121.280749 
L 227.992041 122.62163 
L 228.941179 123.575231 
L 229.890317 124.164378 
L 230.649627 124.389437 
L 231.408938 124.409439 
L 232.168248 124.237616 
L 233.117386 123.771772 
L 234.066524 123.050348 
L 235.20549 121.880436 
L 236.534283 120.148594 
L 237.863077 118.085564 
L 239.761353 114.663346 
L 242.039284 110.01007 
L 245.076526 103.247522 
L 256.845838 76.763685 
L 260.072908 70.277564 
L 263.86946 63.136548 
L 269.564289 52.94614 
L 272.981186 47.232118 
L 275.8286 42.861341 
L 278.486187 39.139244 
L 281.333601 35.537231 
L 283.991187 32.522367 
L 286.838602 29.646401 
L 289.686016 27.110039 
L 292.53343 24.885888 
L 295.570672 22.827382 
L 298.607914 21.059833 
L 301.645156 19.553189 
L 304.682398 18.279777 
L 308.099295 17.094661 
L 311.516192 16.138354 
L 315.312744 15.310134 
L 319.488952 14.643565 
L 323.854987 14.178494 
L 328.600677 13.898713 
L 333.346368 13.819245 
L 333.726023 13.972754 
L 334.105678 14.340413 
L 334.675161 15.269567 
L 335.434471 17.172661 
L 336.193782 19.770071 
L 337.14292 23.865909 
L 338.281886 29.815288 
L 339.800507 39.072998 
L 341.88861 53.17991 
L 346.064818 81.464016 
L 347.963094 92.725527 
L 349.481715 100.598649 
L 351.000336 107.356737 
L 352.329129 112.296235 
L 353.657923 116.346846 
L 354.796888 119.121244 
L 355.935854 121.273394 
L 356.884992 122.616173 
L 357.83413 123.571568 
L 358.783268 124.162396 
L 359.542579 124.38871 
L 360.301889 124.409907 
L 361.0612 124.239197 
L 362.010338 123.774641 
L 362.959476 123.054386 
L 364.098442 121.885746 
L 365.427235 120.15509 
L 366.756028 118.093164 
L 368.654304 114.672127 
L 370.932236 110.019841 
L 373.969478 103.257887 
L 385.73879 76.773148 
L 389.155687 69.917907 
L 393.521722 61.760097 
L 399.026723 51.97227 
L 402.253792 46.632581 
L 405.291034 42.038989 
L 408.328276 37.900484 
L 411.17569 34.428427 
L 413.833277 31.529002 
L 416.680691 28.768674 
L 419.528105 26.338951 
L 422.37552 24.212276 
L 425.412762 22.247833 
L 428.450003 20.564724 
L 431.487245 19.133519 
L 434.714315 17.858768 
L 438.131212 16.753151 
L 441.737937 15.823528 
L 445.534489 15.073083 
L 449.710696 14.479152 
L 454.266559 14.065702 
L 455.215697 14.006564 
L 455.215697 14.006564 
" clip-path="url(#p1d1e689e2e)" style="fill: none; stroke: #2baad5; stroke-width: 4"/>
   </g>
   <g id="patch_3">
    <path d="M 64.170808 127.743332 
L 64.170808 10.496573 
" style="fill: none; stroke: #000000; stroke-width: 2; stroke-linejoin: miter; stroke-linecap: square"/>
   </g>
  </g>
 </g>
 <defs>
  <clipPath id="p1d1e689e2e">
   <rect x="64.170808" y="10.496573" width="402.434547" height="117.24676"/>
  </clipPath>
 </defs>
</svg>
