<?xml version="1.0" encoding="utf-8" standalone="no"?>
<!DOCTYPE svg PUBLIC "-//W3C//DTD SVG 1.1//EN"
  "http://www.w3.org/Graphics/SVG/1.1/DTD/svg11.dtd">
<svg xmlns:xlink="http://www.w3.org/1999/xlink" width="956.16pt" height="282.24pt" viewBox="0 0 956.16 282.24" xmlns="http://www.w3.org/2000/svg" version="1.1">
 <metadata>
  <rdf:RDF xmlns:dc="http://purl.org/dc/elements/1.1/" xmlns:cc="http://creativecommons.org/ns#" xmlns:rdf="http://www.w3.org/1999/02/22-rdf-syntax-ns#">
   <cc:Work>
    <dc:type rdf:resource="http://purl.org/dc/dcmitype/StillImage"/>
    <dc:date>2024-06-27T17:35:21.867313</dc:date>
    <dc:format>image/svg+xml</dc:format>
    <dc:creator>
     <cc:Agent>
      <dc:title>Matplotlib v3.8.4, https://matplotlib.org/</dc:title>
     </cc:Agent>
    </dc:creator>
   </cc:Work>
  </rdf:RDF>
 </metadata>
 <defs>
  <style type="text/css">*{stroke-linejoin: round; stroke-linecap: butt}</style>
 </defs>
 <g id="figure_1">
  <g id="patch_1">
   <path d="M 0 282.24 
L 956.16 282.24 
L 956.16 0 
L 0 0 
L 0 282.24 
z
" style="fill: none"/>
  </g>
  <g id="axes_1">
   <g id="patch_2">
    <path d="M 34.667068 248.545354 
L 953.325354 248.545354 
L 953.325354 11.445746 
L 34.667068 11.445746 
L 34.667068 248.545354 
z
" style="fill: none"/>
   </g>
   <g id="line2d_1">
    <path d="M 60.66683 220.399683 
L 98.799816 220.134265 
L 109.199721 220.208029 
L 110.933039 222.013689 
L 112.666356 225.435078 
L 116.132991 233.497156 
L 117.866309 236.867194 
L 119.599626 239.380526 
L 121.332944 240.980543 
L 123.066261 241.734374 
L 124.799579 241.774574 
L 126.532896 241.257104 
L 128.266214 240.334833 
L 129.999531 239.143158 
L 133.466166 236.37475 
L 136.932801 233.567452 
L 140.399436 231.034273 
L 143.866071 228.89296 
L 147.332706 227.156162 
L 150.799342 225.778419 
L 154.265977 224.699622 
L 157.732612 223.869275 
L 161.199247 223.240679 
L 166.399199 222.570334 
L 173.332469 221.95867 
L 181.999057 221.409546 
L 192.398962 221.014214 
L 207.99882 220.700284 
L 240.931853 220.333509 
L 275.598203 220.126319 
L 282.531473 220.221864 
L 284.264791 222.068816 
L 285.998108 225.512143 
L 289.464743 233.570606 
L 291.198061 236.92538 
L 292.931378 239.420729 
L 294.664696 241.003138 
L 296.398013 241.741532 
L 298.131331 241.769272 
L 299.864648 241.242457 
L 301.597966 240.313707 
L 303.331283 239.117987 
L 306.797919 236.346856 
L 310.264554 233.54117 
L 313.731189 231.011507 
L 317.197824 228.8742 
L 320.664459 227.141156 
L 324.131094 225.766554 
L 327.597729 224.690421 
L 331.064364 223.862349 
L 334.530999 223.235659 
L 339.730951 222.567544 
L 346.664222 221.957703 
L 355.330809 221.40897 
L 365.730714 221.014162 
L 381.330572 220.700602 
L 414.263605 220.33385 
L 448.929955 220.126379 
L 455.863225 220.207984 
L 457.596543 222.013501 
L 459.32986 225.434814 
L 462.796496 233.496903 
L 464.529813 236.866994 
L 466.263131 239.380387 
L 467.996448 240.980465 
L 469.729766 241.734349 
L 471.463083 241.774591 
L 473.196401 241.257154 
L 474.929718 240.334905 
L 476.663036 239.143244 
L 480.129671 236.374845 
L 483.596306 233.567543 
L 487.062941 231.034351 
L 490.529576 228.893025 
L 493.996211 227.156213 
L 497.462846 225.778459 
L 500.929481 224.699654 
L 504.396116 223.869299 
L 507.862751 223.240696 
L 513.062704 222.570344 
L 519.995974 221.958673 
L 528.662561 221.409548 
L 539.062467 221.014215 
L 554.662324 220.700283 
L 587.595357 220.333508 
L 622.261708 220.126318 
L 629.194978 220.22191 
L 630.928295 222.068996 
L 632.661613 225.512394 
L 636.128248 233.570845 
L 637.861565 236.925569 
L 639.594883 239.420859 
L 641.3282 241.003211 
L 643.061518 241.741555 
L 644.794835 241.769255 
L 646.528153 241.242409 
L 648.26147 240.313638 
L 649.994788 239.117905 
L 653.461423 236.346766 
L 656.928058 233.541085 
L 660.394693 231.011433 
L 663.861328 228.874139 
L 667.327963 227.141107 
L 670.794598 225.766515 
L 674.261233 224.690391 
L 677.727868 223.862327 
L 681.194503 223.235643 
L 686.394456 222.567535 
L 693.327726 221.9577 
L 701.994314 221.408968 
L 712.394219 221.014162 
L 727.994076 220.700603 
L 760.927109 220.333851 
L 795.59346 220.126379 
L 802.52673 220.207939 
L 804.260047 222.013318 
L 805.993365 225.434557 
L 809.46 233.496657 
L 811.193318 236.866799 
L 812.926635 239.380252 
L 814.659953 240.980389 
L 816.39327 241.734324 
L 818.126588 241.774609 
L 819.859905 241.257203 
L 821.593223 240.334975 
L 823.32654 239.143328 
L 826.793175 236.374939 
L 830.25981 233.56763 
L 833.726445 231.034427 
L 837.19308 228.893087 
L 840.659715 227.156263 
L 844.12635 225.778499 
L 847.592985 224.699685 
L 851.059621 223.869322 
L 854.526256 223.240713 
L 859.726208 222.570354 
L 866.659478 221.958677 
L 875.326066 221.40955 
L 885.725971 221.014215 
L 901.325829 220.700282 
L 927.325591 220.399309 
L 927.325591 220.399309 
" clip-path="url(#p6f44563efd)" style="fill: none; stroke: #009afa; stroke-width: 4"/>
   </g>
   <g id="matplotlib.axis_1">
    <g id="xtick_1">
     <g id="line2d_2">
      <defs>
       <path id="m5d51f91f46" d="M 0 0 
L 0 -5 
" style="stroke: #000000"/>
      </defs>
      <g>
       <use xlink:href="#m5d51f91f46" x="60.66683" y="248.545354" style="stroke: #000000"/>
      </g>
     </g>
     <g id="text_1">
      <!-- $0.0$ -->
      <g transform="translate(42.74683 273.320979) scale(0.28 -0.28)">
       <defs>
        <path id="Cmr10-30" d="M 1600 -141 
Q 816 -141 533 504 
Q 250 1150 250 2041 
Q 250 2597 351 3087 
Q 453 3578 754 3920 
Q 1056 4263 1600 4263 
Q 2022 4263 2290 4056 
Q 2559 3850 2700 3523 
Q 2841 3197 2892 2823 
Q 2944 2450 2944 2041 
Q 2944 1491 2842 1011 
Q 2741 531 2444 195 
Q 2147 -141 1600 -141 
z
M 1600 25 
Q 1956 25 2131 390 
Q 2306 756 2347 1200 
Q 2388 1644 2388 2144 
Q 2388 2625 2347 3031 
Q 2306 3438 2132 3767 
Q 1959 4097 1600 4097 
Q 1238 4097 1063 3765 
Q 888 3434 847 3029 
Q 806 2625 806 2144 
Q 806 1788 823 1472 
Q 841 1156 916 820 
Q 991 484 1158 254 
Q 1325 25 1600 25 
z
" transform="scale(0.015625)"/>
        <path id="Cmmi10-3a" d="M 538 353 
Q 538 497 644 600 
Q 750 703 891 703 
Q 978 703 1062 656 
Q 1147 609 1194 525 
Q 1241 441 1241 353 
Q 1241 213 1137 106 
Q 1034 0 891 0 
Q 750 0 644 106 
Q 538 213 538 353 
z
" transform="scale(0.015625)"/>
       </defs>
       <use xlink:href="#Cmr10-30" transform="translate(0 0.390625)"/>
       <use xlink:href="#Cmmi10-3a" transform="translate(50 0.390625)"/>
       <use xlink:href="#Cmr10-30" transform="translate(77.685547 0.390625)"/>
      </g>
     </g>
    </g>
    <g id="xtick_2">
     <g id="line2d_3">
      <g>
       <use xlink:href="#m5d51f91f46" x="277.331521" y="248.545354" style="stroke: #000000"/>
      </g>
     </g>
     <g id="text_2">
      <!-- $0.5$ -->
      <g transform="translate(259.411521 273.320979) scale(0.28 -0.28)">
       <defs>
        <path id="Cmr10-35" d="M 556 728 
Q 622 541 758 387 
Q 894 234 1080 148 
Q 1266 63 1466 63 
Q 1928 63 2103 422 
Q 2278 781 2278 1294 
Q 2278 1516 2270 1667 
Q 2263 1819 2228 1959 
Q 2169 2184 2020 2353 
Q 1872 2522 1656 2522 
Q 1441 2522 1286 2456 
Q 1131 2391 1034 2303 
Q 938 2216 863 2119 
Q 788 2022 769 2016 
L 697 2016 
Q 681 2016 657 2036 
Q 634 2056 634 2075 
L 634 4213 
Q 634 4228 654 4245 
Q 675 4263 697 4263 
L 716 4263 
Q 1147 4056 1631 4056 
Q 2106 4056 2547 4263 
L 2566 4263 
Q 2588 4263 2606 4247 
Q 2625 4231 2625 4213 
L 2625 4153 
Q 2625 4122 2613 4122 
Q 2394 3831 2064 3668 
Q 1734 3506 1381 3506 
Q 1125 3506 856 3578 
L 856 2369 
Q 1069 2541 1236 2614 
Q 1403 2688 1663 2688 
Q 2016 2688 2295 2484 
Q 2575 2281 2725 1954 
Q 2875 1628 2875 1288 
Q 2875 903 2686 575 
Q 2497 247 2172 53 
Q 1847 -141 1466 -141 
Q 1150 -141 886 21 
Q 622 184 470 459 
Q 319 734 319 1044 
Q 319 1188 412 1278 
Q 506 1369 647 1369 
Q 788 1369 883 1276 
Q 978 1184 978 1044 
Q 978 906 883 811 
Q 788 716 647 716 
Q 625 716 597 720 
Q 569 725 556 728 
z
" transform="scale(0.015625)"/>
       </defs>
       <use xlink:href="#Cmr10-30" transform="translate(0 0.390625)"/>
       <use xlink:href="#Cmmi10-3a" transform="translate(50 0.390625)"/>
       <use xlink:href="#Cmr10-35" transform="translate(77.685547 0.390625)"/>
      </g>
     </g>
    </g>
    <g id="xtick_3">
     <g id="line2d_4">
      <g>
       <use xlink:href="#m5d51f91f46" x="493.996211" y="248.545354" style="stroke: #000000"/>
      </g>
     </g>
     <g id="text_3">
      <!-- $1.0$ -->
      <g transform="translate(476.076211 273.320979) scale(0.28 -0.28)">
       <defs>
        <path id="Cmr10-31" d="M 594 0 
L 594 225 
Q 1394 225 1394 428 
L 1394 3788 
Q 1063 3628 556 3628 
L 556 3853 
Q 1341 3853 1741 4263 
L 1831 4263 
Q 1853 4263 1873 4245 
Q 1894 4228 1894 4206 
L 1894 428 
Q 1894 225 2694 225 
L 2694 0 
L 594 0 
z
" transform="scale(0.015625)"/>
       </defs>
       <use xlink:href="#Cmr10-31" transform="translate(0 0.390625)"/>
       <use xlink:href="#Cmmi10-3a" transform="translate(50 0.390625)"/>
       <use xlink:href="#Cmr10-30" transform="translate(77.685547 0.390625)"/>
      </g>
     </g>
    </g>
    <g id="xtick_4">
     <g id="line2d_5">
      <g>
       <use xlink:href="#m5d51f91f46" x="710.660901" y="248.545354" style="stroke: #000000"/>
      </g>
     </g>
     <g id="text_4">
      <!-- $1.5$ -->
      <g transform="translate(692.740901 273.320979) scale(0.28 -0.28)">
       <use xlink:href="#Cmr10-31" transform="translate(0 0.390625)"/>
       <use xlink:href="#Cmmi10-3a" transform="translate(50 0.390625)"/>
       <use xlink:href="#Cmr10-35" transform="translate(77.685547 0.390625)"/>
      </g>
     </g>
    </g>
    <g id="xtick_5">
     <g id="line2d_6">
      <g>
       <use xlink:href="#m5d51f91f46" x="927.325591" y="248.545354" style="stroke: #000000"/>
      </g>
     </g>
     <g id="text_5">
      <!-- $2.0$ -->
      <g transform="translate(909.405591 273.320979) scale(0.28 -0.28)">
       <defs>
        <path id="Cmr10-32" d="M 319 0 
L 319 172 
Q 319 188 331 206 
L 1325 1306 
Q 1550 1550 1690 1715 
Q 1831 1881 1968 2097 
Q 2106 2313 2186 2536 
Q 2266 2759 2266 3009 
Q 2266 3272 2169 3511 
Q 2072 3750 1880 3894 
Q 1688 4038 1416 4038 
Q 1138 4038 916 3870 
Q 694 3703 603 3438 
Q 628 3444 672 3444 
Q 816 3444 917 3347 
Q 1019 3250 1019 3097 
Q 1019 2950 917 2848 
Q 816 2747 672 2747 
Q 522 2747 420 2851 
Q 319 2956 319 3097 
Q 319 3338 409 3548 
Q 500 3759 670 3923 
Q 841 4088 1055 4175 
Q 1269 4263 1509 4263 
Q 1875 4263 2190 4108 
Q 2506 3953 2690 3670 
Q 2875 3388 2875 3009 
Q 2875 2731 2753 2481 
Q 2631 2231 2440 2026 
Q 2250 1822 1953 1562 
Q 1656 1303 1563 1216 
L 838 519 
L 1453 519 
Q 1906 519 2211 526 
Q 2516 534 2534 550 
Q 2609 631 2688 1141 
L 2875 1141 
L 2694 0 
L 319 0 
z
" transform="scale(0.015625)"/>
       </defs>
       <use xlink:href="#Cmr10-32" transform="translate(0 0.390625)"/>
       <use xlink:href="#Cmmi10-3a" transform="translate(50 0.390625)"/>
       <use xlink:href="#Cmr10-30" transform="translate(77.685547 0.390625)"/>
      </g>
     </g>
    </g>
   </g>
   <g id="matplotlib.axis_2">
    <g id="ytick_1">
     <g id="line2d_7">
      <defs>
       <path id="ma32f58166a" d="M 0 0 
L 5 0 
" style="stroke: #000000"/>
      </defs>
      <g>
       <use xlink:href="#ma32f58166a" x="34.667068" y="230.977789" style="stroke: #000000"/>
      </g>
     </g>
     <g id="text_6">
      <!-- $0$ -->
      <g transform="translate(17.167068 241.615602) scale(0.28 -0.28)">
       <use xlink:href="#Cmr10-30" transform="translate(0 0.390625)"/>
      </g>
     </g>
    </g>
    <g id="ytick_2">
     <g id="line2d_8">
      <g>
       <use xlink:href="#ma32f58166a" x="34.667068" y="176.691797" style="stroke: #000000"/>
      </g>
     </g>
     <g id="text_7">
      <!-- $5$ -->
      <g transform="translate(17.167068 187.329609) scale(0.28 -0.28)">
       <use xlink:href="#Cmr10-35" transform="translate(0 0.390625)"/>
      </g>
     </g>
    </g>
    <g id="ytick_3">
     <g id="line2d_9">
      <g>
       <use xlink:href="#ma32f58166a" x="34.667068" y="122.405804" style="stroke: #000000"/>
      </g>
     </g>
     <g id="text_8">
      <!-- $10$ -->
      <g transform="translate(3.167068 133.043616) scale(0.28 -0.28)">
       <use xlink:href="#Cmr10-31" transform="translate(0 0.390625)"/>
       <use xlink:href="#Cmr10-30" transform="translate(50 0.390625)"/>
      </g>
     </g>
    </g>
    <g id="ytick_4">
     <g id="line2d_10">
      <g>
       <use xlink:href="#ma32f58166a" x="34.667068" y="68.119811" style="stroke: #000000"/>
      </g>
     </g>
     <g id="text_9">
      <!-- $15$ -->
      <g transform="translate(3.167068 78.757623) scale(0.28 -0.28)">
       <use xlink:href="#Cmr10-31" transform="translate(0 0.390625)"/>
       <use xlink:href="#Cmr10-35" transform="translate(50 0.390625)"/>
      </g>
     </g>
    </g>
    <g id="ytick_5">
     <g id="line2d_11">
      <g>
       <use xlink:href="#ma32f58166a" x="34.667068" y="13.833818" style="stroke: #000000"/>
      </g>
     </g>
     <g id="text_10">
      <!-- $20$ -->
      <g transform="translate(3.167068 24.47163) scale(0.28 -0.28)">
       <use xlink:href="#Cmr10-32" transform="translate(0 0.390625)"/>
       <use xlink:href="#Cmr10-30" transform="translate(50 0.390625)"/>
      </g>
     </g>
    </g>
   </g>
   <g id="line2d_12">
    <path d="M 60.66683 220.120591 
L 64.133465 220.206203 
L 67.6001 220.46169 
L 71.066736 220.883022 
L 74.533371 221.463554 
L 79.733323 222.612174 
L 84.933276 224.057151 
L 90.133228 225.747294 
L 97.066498 228.277714 
L 117.866309 236.208285 
L 123.066261 237.898428 
L 128.266214 239.343405 
L 133.466166 240.492025 
L 136.932801 241.072557 
L 140.399436 241.493889 
L 143.866071 241.749376 
L 147.332706 241.834988 
L 150.799342 241.749376 
L 154.265977 241.493889 
L 157.732612 241.072557 
L 161.199247 240.492025 
L 166.399199 239.343405 
L 171.599152 237.898428 
L 176.799104 236.208285 
L 183.732374 233.677865 
L 204.532185 225.747294 
L 209.732137 224.057151 
L 214.93209 222.612174 
L 220.132042 221.463554 
L 223.598677 220.883022 
L 227.065313 220.46169 
L 230.531948 220.206203 
L 233.998583 220.120591 
L 237.465218 220.206203 
L 240.931853 220.46169 
L 244.398488 220.883022 
L 247.865123 221.463554 
L 253.065075 222.612174 
L 258.265028 224.057151 
L 263.46498 225.747294 
L 270.398251 228.277714 
L 291.198061 236.208285 
L 296.398013 237.898428 
L 301.597966 239.343405 
L 306.797919 240.492025 
L 310.264554 241.072557 
L 313.731189 241.493889 
L 317.197824 241.749376 
L 320.664459 241.834988 
L 324.131094 241.749376 
L 327.597729 241.493889 
L 331.064364 241.072557 
L 334.530999 240.492025 
L 339.730951 239.343405 
L 344.930904 237.898428 
L 350.130857 236.208285 
L 357.064127 233.677865 
L 377.863937 225.747294 
L 383.06389 224.057151 
L 388.263842 222.612174 
L 393.463795 221.463554 
L 396.93043 220.883022 
L 400.397065 220.46169 
L 403.8637 220.206203 
L 407.330335 220.120591 
L 410.79697 220.206203 
L 414.263605 220.46169 
L 417.73024 220.883022 
L 421.196875 221.463554 
L 426.396828 222.612174 
L 431.59678 224.057151 
L 436.796733 225.747294 
L 443.730003 228.277714 
L 464.529813 236.208285 
L 469.729766 237.898428 
L 474.929718 239.343405 
L 480.129671 240.492025 
L 483.596306 241.072557 
L 487.062941 241.493889 
L 490.529576 241.749376 
L 493.996211 241.834988 
L 497.462846 241.749376 
L 500.929481 241.493889 
L 504.396116 241.072557 
L 507.862751 240.492025 
L 513.062704 239.343405 
L 518.262656 237.898428 
L 523.462609 236.208285 
L 530.395879 233.677865 
L 551.195689 225.747294 
L 556.395642 224.057151 
L 561.595594 222.612174 
L 566.795547 221.463554 
L 570.262182 220.883022 
L 573.728817 220.46169 
L 577.195452 220.206203 
L 580.662087 220.120591 
L 584.128722 220.206203 
L 587.595357 220.46169 
L 591.061992 220.883022 
L 594.528627 221.463554 
L 599.72858 222.612174 
L 604.928532 224.057151 
L 610.128485 225.747294 
L 617.061755 228.277714 
L 637.861565 236.208285 
L 643.061518 237.898428 
L 648.26147 239.343405 
L 653.461423 240.492025 
L 656.928058 241.072557 
L 660.394693 241.493889 
L 663.861328 241.749376 
L 667.327963 241.834988 
L 670.794598 241.749376 
L 674.261233 241.493889 
L 677.727868 241.072557 
L 681.194503 240.492025 
L 686.394456 239.343405 
L 691.594408 237.898428 
L 696.794361 236.208285 
L 703.727631 233.677865 
L 724.527441 225.747294 
L 729.727394 224.057151 
L 734.927347 222.612174 
L 740.127299 221.463554 
L 743.593934 220.883022 
L 747.060569 220.46169 
L 750.527204 220.206203 
L 753.993839 220.120591 
L 757.460474 220.206203 
L 760.927109 220.46169 
L 764.393744 220.883022 
L 767.860379 221.463554 
L 773.060332 222.612174 
L 778.260285 224.057151 
L 783.460237 225.747294 
L 790.393507 228.277714 
L 811.193318 236.208285 
L 816.39327 237.898428 
L 821.593223 239.343405 
L 826.793175 240.492025 
L 830.25981 241.072557 
L 833.726445 241.493889 
L 837.19308 241.749376 
L 840.659715 241.834988 
L 844.12635 241.749376 
L 847.592985 241.493889 
L 851.059621 241.072557 
L 854.526256 240.492025 
L 859.726208 239.343405 
L 864.926161 237.898428 
L 870.126113 236.208285 
L 877.059383 233.677865 
L 897.859194 225.747294 
L 903.059146 224.057151 
L 908.259099 222.612174 
L 913.459051 221.463554 
L 916.925686 220.883022 
L 920.392321 220.46169 
L 923.858956 220.206203 
L 927.325591 220.120591 
L 927.325591 220.120591 
" clip-path="url(#p6f44563efd)" style="fill: none; stroke: #e36f47; stroke-width: 4"/>
   </g>
   <g id="patch_3">
    <path d="M 34.667068 248.545354 
L 34.667068 11.445746 
" style="fill: none; stroke: #000000; stroke-width: 2; stroke-linejoin: miter; stroke-linecap: square"/>
   </g>
   <g id="patch_4">
    <path d="M 34.667068 248.545354 
L 953.325354 248.545354 
" style="fill: none; stroke: #000000; stroke-width: 2; stroke-linejoin: miter; stroke-linecap: square"/>
   </g>
   <g id="line2d_13">
    <path d="M 60.66683 230.308122 
L 74.533371 230.624655 
L 95.333181 230.84256 
L 107.466403 230.900545 
L 109.199721 18.158385 
L 110.933039 34.520718 
L 112.666356 49.625056 
L 114.399674 63.568116 
L 116.132991 76.439182 
L 117.866309 88.320674 
L 119.599626 99.288673 
L 121.332944 109.413412 
L 123.066261 118.759724 
L 124.799579 127.387458 
L 126.532896 135.351861 
L 128.266214 142.703931 
L 129.999531 149.490747 
L 131.732849 155.755768 
L 133.466166 161.539111 
L 135.199484 166.87781 
L 136.932801 171.80605 
L 138.666119 176.35539 
L 140.399436 180.55496 
L 142.132754 184.431651 
L 143.866071 188.010288 
L 145.599389 191.313792 
L 147.332706 194.36334 
L 149.066024 197.178472 
L 152.532659 202.176174 
L 155.999294 206.434917 
L 159.465929 210.063746 
L 162.932564 213.155748 
L 166.399199 215.790445 
L 169.865834 218.035668 
L 173.332469 219.949098 
L 176.799104 221.579676 
L 180.265739 222.969022 
L 183.732374 224.152795 
L 187.19901 225.161704 
L 192.398962 226.402692 
L 197.598915 227.37889 
L 202.798867 228.146795 
L 209.732137 228.922065 
L 216.665407 229.485028 
L 225.331995 229.977164 
L 237.465218 230.406232 
L 253.065075 230.699561 
L 275.598203 230.879437 
L 280.798156 230.900423 
L 282.531473 18.493747 
L 284.264791 34.830296 
L 285.998108 49.910832 
L 287.731426 63.831921 
L 289.464743 76.682705 
L 291.198061 88.545474 
L 292.931378 99.496189 
L 294.664696 109.604974 
L 296.398013 118.936558 
L 298.131331 127.550696 
L 299.864648 135.502548 
L 301.597966 142.843033 
L 303.331283 149.619155 
L 305.064601 155.874303 
L 306.797919 161.648533 
L 308.531236 166.978819 
L 310.264554 171.899293 
L 311.997871 176.441464 
L 313.731189 180.634416 
L 315.464506 184.504999 
L 317.197824 188.077996 
L 318.931141 191.376295 
L 320.664459 194.421037 
L 322.397776 197.231731 
L 325.864411 202.221552 
L 329.331046 206.473575 
L 332.797681 210.096682 
L 336.264316 213.183819 
L 339.730951 215.81438 
L 343.197587 218.056081 
L 346.664222 219.966503 
L 350.130857 221.59451 
L 353.597492 222.981663 
L 357.064127 224.163579 
L 360.530762 225.170914 
L 365.730714 226.409938 
L 370.930667 227.38459 
L 376.130619 228.151278 
L 383.06389 228.925321 
L 389.99716 229.487392 
L 398.663747 229.978749 
L 410.79697 230.407136 
L 426.396828 230.700002 
L 448.929955 230.879594 
L 454.129908 230.900546 
L 455.863225 18.157233 
L 457.596543 34.519655 
L 459.32986 49.624074 
L 461.063178 63.56721 
L 462.796496 76.438346 
L 464.529813 88.319902 
L 466.263131 99.28796 
L 467.996448 109.412754 
L 469.729766 118.759117 
L 471.463083 127.386898 
L 473.196401 135.351343 
L 474.929718 142.703453 
L 476.663036 149.490306 
L 478.396353 155.755361 
L 480.129671 161.538735 
L 481.862988 166.877463 
L 483.596306 171.80573 
L 485.329623 176.355094 
L 487.062941 180.554687 
L 488.796258 184.431399 
L 490.529576 188.010055 
L 492.262893 191.313578 
L 493.996211 194.363141 
L 495.729528 197.178289 
L 499.196164 202.176019 
L 502.662799 206.434784 
L 506.129434 210.063632 
L 509.596069 213.155651 
L 513.062704 215.790363 
L 516.529339 218.035598 
L 519.995974 219.949038 
L 523.462609 221.579625 
L 526.929244 222.968978 
L 530.395879 224.152758 
L 533.862514 225.161673 
L 539.062467 226.402667 
L 544.262419 227.37887 
L 549.462372 228.146779 
L 556.395642 228.922054 
L 563.328912 229.48502 
L 571.995499 229.977159 
L 584.128722 230.406228 
L 599.72858 230.69956 
L 622.261708 230.879437 
L 627.46166 230.900423 
L 629.194978 18.494837 
L 630.928295 34.831303 
L 632.661613 49.911761 
L 634.39493 63.832778 
L 636.128248 76.683497 
L 637.861565 88.546204 
L 639.594883 99.496864 
L 641.3282 109.605596 
L 643.061518 118.937133 
L 644.794835 127.551227 
L 646.528153 135.503038 
L 648.26147 142.843485 
L 649.994788 149.619572 
L 651.728105 155.874688 
L 653.461423 161.648888 
L 655.194741 166.979147 
L 656.928058 171.899596 
L 658.661376 176.441744 
L 660.394693 180.634674 
L 662.128011 184.505237 
L 663.861328 188.078216 
L 665.594646 191.376498 
L 667.327963 194.421224 
L 669.061281 197.231905 
L 672.527916 202.2217 
L 675.994551 206.473701 
L 679.461186 210.096789 
L 682.927821 213.18391 
L 686.394456 215.814458 
L 689.861091 218.056148 
L 693.327726 219.96656 
L 696.794361 221.594558 
L 700.260996 222.981704 
L 703.727631 224.163614 
L 707.194266 225.170944 
L 712.394219 226.409961 
L 717.594171 227.384608 
L 722.794124 228.151293 
L 729.727394 228.925332 
L 736.660664 229.4874 
L 745.327252 229.978754 
L 757.460474 230.407139 
L 773.060332 230.700003 
L 795.59346 230.879594 
L 800.793412 230.900546 
L 802.52673 18.156112 
L 804.260047 34.51862 
L 805.993365 49.623119 
L 807.726682 63.566328 
L 809.46 76.437532 
L 811.193318 88.31915 
L 812.926635 99.287266 
L 814.659953 109.412114 
L 816.39327 118.758526 
L 818.126588 127.386352 
L 819.859905 135.350839 
L 821.593223 142.702988 
L 823.32654 149.489877 
L 825.059858 155.754964 
L 826.793175 161.538369 
L 828.526493 166.877125 
L 830.25981 171.805418 
L 831.993128 176.354806 
L 833.726445 180.554421 
L 835.459763 184.431154 
L 837.19308 188.009829 
L 838.926398 191.313369 
L 840.659715 194.362948 
L 842.393033 197.178111 
L 845.859668 202.175867 
L 849.326303 206.434655 
L 852.792938 210.063522 
L 856.259573 213.155557 
L 859.726208 215.790283 
L 863.192843 218.03553 
L 866.659478 219.94898 
L 870.126113 221.579576 
L 873.592748 222.968936 
L 877.059383 224.152722 
L 880.526018 225.161642 
L 885.725971 226.402642 
L 890.925924 227.378851 
L 896.125876 228.146764 
L 903.059146 228.922043 
L 909.992416 229.485012 
L 918.659004 229.977151 
L 927.325591 230.307041 
L 927.325591 230.307041 
" clip-path="url(#p6f44563efd)" style="fill: none; stroke: #3ea44d; stroke-width: 4"/>
   </g>
  </g>
 </g>
 <defs>
  <clipPath id="p6f44563efd">
   <rect x="34.667068" y="11.445746" width="918.658287" height="237.099609"/>
  </clipPath>
 </defs>
</svg>
