<?xml version="1.0" encoding="utf-8" standalone="no"?>
<!DOCTYPE svg PUBLIC "-//W3C//DTD SVG 1.1//EN"
  "http://www.w3.org/Graphics/SVG/1.1/DTD/svg11.dtd">
<svg xmlns:xlink="http://www.w3.org/1999/xlink" width="961.92pt" height="282.24pt" viewBox="0 0 961.92 282.24" xmlns="http://www.w3.org/2000/svg" version="1.1">
 <metadata>
  <rdf:RDF xmlns:dc="http://purl.org/dc/elements/1.1/" xmlns:cc="http://creativecommons.org/ns#" xmlns:rdf="http://www.w3.org/1999/02/22-rdf-syntax-ns#">
   <cc:Work>
    <dc:type rdf:resource="http://purl.org/dc/dcmitype/StillImage"/>
    <dc:date>2024-04-27T16:44:29.425826</dc:date>
    <dc:format>image/svg+xml</dc:format>
    <dc:creator>
     <cc:Agent>
      <dc:title>Matplotlib v3.7.0, https://matplotlib.org/</dc:title>
     </cc:Agent>
    </dc:creator>
   </cc:Work>
  </rdf:RDF>
 </metadata>
 <defs>
  <style type="text/css">*{stroke-linejoin: round; stroke-linecap: butt}</style>
 </defs>
 <g id="figure_1">
  <g id="patch_1">
   <path d="M 0 282.24 
L 961.92 282.24 
L 961.92 0 
L 0 0 
L 0 282.24 
z
" style="fill: none"/>
  </g>
  <g id="axes_1">
   <g id="patch_2">
    <path d="M 34.667068 248.545354 
L 959.085354 248.545354 
L 959.085354 11.445746 
L 34.667068 11.445746 
L 34.667068 248.545354 
z
" style="fill: none"/>
   </g>
   <g id="line2d_1">
    <path d="M 60.829849 220.399683 
L 99.201929 220.134265 
L 109.667042 220.208029 
L 111.411227 222.013689 
L 113.155413 225.435078 
L 116.643784 233.497156 
L 118.387969 236.867194 
L 120.132154 239.380526 
L 121.87634 240.980543 
L 123.620525 241.734374 
L 125.364711 241.774574 
L 127.108896 241.257104 
L 128.853082 240.334833 
L 130.597267 239.143158 
L 134.085638 236.37475 
L 137.574009 233.567452 
L 141.06238 231.034273 
L 144.550751 228.89296 
L 148.039122 227.156162 
L 151.527492 225.778419 
L 155.015863 224.699622 
L 158.504234 223.869275 
L 161.992605 223.240679 
L 167.225161 222.570334 
L 174.201903 221.95867 
L 182.922831 221.409546 
L 193.387943 221.014214 
L 209.085612 220.700284 
L 242.225136 220.333509 
L 277.108845 220.126319 
L 284.085586 220.221864 
L 285.829772 222.068816 
L 287.573957 225.512143 
L 291.062328 233.570606 
L 292.806514 236.92538 
L 294.550699 239.420729 
L 296.294885 241.003138 
L 298.03907 241.741532 
L 299.783255 241.769272 
L 301.527441 241.242457 
L 303.271626 240.313707 
L 305.015812 239.117987 
L 308.504183 236.346856 
L 311.992554 233.54117 
L 315.480924 231.011507 
L 318.969295 228.8742 
L 322.457666 227.141156 
L 325.946037 225.766554 
L 329.434408 224.690421 
L 332.922779 223.862349 
L 336.41115 223.235659 
L 341.643706 222.567544 
L 348.620448 221.957703 
L 357.341375 221.40897 
L 367.806488 221.014162 
L 383.504157 220.700602 
L 416.64368 220.33385 
L 451.527389 220.126379 
L 458.504131 220.207984 
L 460.248317 222.013501 
L 461.992502 225.434814 
L 465.480873 233.496903 
L 467.225058 236.866994 
L 468.969244 239.380387 
L 470.713429 240.980465 
L 472.457615 241.734349 
L 474.2018 241.774591 
L 475.945986 241.257154 
L 477.690171 240.334905 
L 479.434356 239.143244 
L 482.922727 236.374845 
L 486.411098 233.567543 
L 489.899469 231.034351 
L 493.38784 228.893025 
L 496.876211 227.156213 
L 500.364582 225.778459 
L 503.852953 224.699654 
L 507.341324 223.869299 
L 510.829695 223.240696 
L 516.062251 222.570344 
L 523.038993 221.958673 
L 531.75992 221.409548 
L 542.225033 221.014215 
L 557.922702 220.700283 
L 591.062225 220.333508 
L 625.945934 220.126318 
L 632.922676 220.22191 
L 634.666861 222.068996 
L 636.411047 225.512394 
L 639.899418 233.570845 
L 641.643603 236.925569 
L 643.387788 239.420859 
L 645.131974 241.003211 
L 646.876159 241.741555 
L 648.620345 241.769255 
L 650.36453 241.242409 
L 652.108716 240.313638 
L 653.852901 239.117905 
L 657.341272 236.346766 
L 660.829643 233.541085 
L 664.318014 231.011433 
L 667.806385 228.874139 
L 671.294756 227.141107 
L 674.783127 225.766515 
L 678.271497 224.690391 
L 681.759868 223.862327 
L 685.248239 223.235643 
L 690.480796 222.567535 
L 697.457537 221.9577 
L 706.178465 221.408968 
L 716.643577 221.014162 
L 732.341246 220.700603 
L 765.48077 220.333851 
L 800.364479 220.126379 
L 807.34122 220.207939 
L 809.085406 222.013318 
L 810.829591 225.434557 
L 814.317962 233.496657 
L 816.062148 236.866799 
L 817.806333 239.380252 
L 819.550519 240.980389 
L 821.294704 241.734324 
L 823.038889 241.774609 
L 824.783075 241.257203 
L 826.52726 240.334975 
L 828.271446 239.143328 
L 831.759817 236.374939 
L 835.248188 233.56763 
L 838.736559 231.034427 
L 842.224929 228.893087 
L 845.7133 227.156263 
L 849.201671 225.778499 
L 852.690042 224.699685 
L 856.178413 223.869322 
L 859.666784 223.240713 
L 864.89934 222.570354 
L 871.876082 221.958677 
L 880.597009 221.40955 
L 891.062122 221.014215 
L 906.759791 220.700282 
L 932.922573 220.399309 
L 932.922573 220.399309 
" clip-path="url(#p998997903b)" style="fill: none; stroke: #009afa; stroke-width: 6"/>
   </g>
   <g id="matplotlib.axis_1">
    <g id="xtick_1">
     <g id="line2d_2">
      <defs>
       <path id="m32a928fc0e" d="M 0 0 
L 0 -5 
" style="stroke: #000000"/>
      </defs>
      <g>
       <use xlink:href="#m32a928fc0e" x="60.829849" y="248.545354" style="stroke: #000000"/>
      </g>
     </g>
     <g id="text_1">
      <!-- $0.0$ -->
      <g transform="translate(42.909849 273.320979) scale(0.28 -0.28)">
       <defs>
        <path id="Cmr10-30" d="M 1600 -141 
Q 816 -141 533 504 
Q 250 1150 250 2041 
Q 250 2597 351 3087 
Q 453 3578 754 3920 
Q 1056 4263 1600 4263 
Q 2022 4263 2290 4056 
Q 2559 3850 2700 3523 
Q 2841 3197 2892 2823 
Q 2944 2450 2944 2041 
Q 2944 1491 2842 1011 
Q 2741 531 2444 195 
Q 2147 -141 1600 -141 
z
M 1600 25 
Q 1956 25 2131 390 
Q 2306 756 2347 1200 
Q 2388 1644 2388 2144 
Q 2388 2625 2347 3031 
Q 2306 3438 2132 3767 
Q 1959 4097 1600 4097 
Q 1238 4097 1063 3765 
Q 888 3434 847 3029 
Q 806 2625 806 2144 
Q 806 1788 823 1472 
Q 841 1156 916 820 
Q 991 484 1158 254 
Q 1325 25 1600 25 
z
" transform="scale(0.015625)"/>
        <path id="Cmmi10-3a" d="M 538 353 
Q 538 497 644 600 
Q 750 703 891 703 
Q 978 703 1062 656 
Q 1147 609 1194 525 
Q 1241 441 1241 353 
Q 1241 213 1137 106 
Q 1034 0 891 0 
Q 750 0 644 106 
Q 538 213 538 353 
z
" transform="scale(0.015625)"/>
       </defs>
       <use xlink:href="#Cmr10-30" transform="translate(0 0.390625)"/>
       <use xlink:href="#Cmmi10-3a" transform="translate(50 0.390625)"/>
       <use xlink:href="#Cmr10-30" transform="translate(77.685547 0.390625)"/>
      </g>
     </g>
    </g>
    <g id="xtick_2">
     <g id="line2d_3">
      <g>
       <use xlink:href="#m32a928fc0e" x="278.85303" y="248.545354" style="stroke: #000000"/>
      </g>
     </g>
     <g id="text_2">
      <!-- $0.5$ -->
      <g transform="translate(260.93303 273.320979) scale(0.28 -0.28)">
       <defs>
        <path id="Cmr10-35" d="M 556 728 
Q 622 541 758 387 
Q 894 234 1080 148 
Q 1266 63 1466 63 
Q 1928 63 2103 422 
Q 2278 781 2278 1294 
Q 2278 1516 2270 1667 
Q 2263 1819 2228 1959 
Q 2169 2184 2020 2353 
Q 1872 2522 1656 2522 
Q 1441 2522 1286 2456 
Q 1131 2391 1034 2303 
Q 938 2216 863 2119 
Q 788 2022 769 2016 
L 697 2016 
Q 681 2016 657 2036 
Q 634 2056 634 2075 
L 634 4213 
Q 634 4228 654 4245 
Q 675 4263 697 4263 
L 716 4263 
Q 1147 4056 1631 4056 
Q 2106 4056 2547 4263 
L 2566 4263 
Q 2588 4263 2606 4247 
Q 2625 4231 2625 4213 
L 2625 4153 
Q 2625 4122 2613 4122 
Q 2394 3831 2064 3668 
Q 1734 3506 1381 3506 
Q 1125 3506 856 3578 
L 856 2369 
Q 1069 2541 1236 2614 
Q 1403 2688 1663 2688 
Q 2016 2688 2295 2484 
Q 2575 2281 2725 1954 
Q 2875 1628 2875 1288 
Q 2875 903 2686 575 
Q 2497 247 2172 53 
Q 1847 -141 1466 -141 
Q 1150 -141 886 21 
Q 622 184 470 459 
Q 319 734 319 1044 
Q 319 1188 412 1278 
Q 506 1369 647 1369 
Q 788 1369 883 1276 
Q 978 1184 978 1044 
Q 978 906 883 811 
Q 788 716 647 716 
Q 625 716 597 720 
Q 569 725 556 728 
z
" transform="scale(0.015625)"/>
       </defs>
       <use xlink:href="#Cmr10-30" transform="translate(0 0.390625)"/>
       <use xlink:href="#Cmmi10-3a" transform="translate(50 0.390625)"/>
       <use xlink:href="#Cmr10-35" transform="translate(77.685547 0.390625)"/>
      </g>
     </g>
    </g>
    <g id="xtick_3">
     <g id="line2d_4">
      <g>
       <use xlink:href="#m32a928fc0e" x="496.876211" y="248.545354" style="stroke: #000000"/>
      </g>
     </g>
     <g id="text_3">
      <!-- $1.0$ -->
      <g transform="translate(478.956211 273.320979) scale(0.28 -0.28)">
       <defs>
        <path id="Cmr10-31" d="M 594 0 
L 594 225 
Q 1394 225 1394 428 
L 1394 3788 
Q 1063 3628 556 3628 
L 556 3853 
Q 1341 3853 1741 4263 
L 1831 4263 
Q 1853 4263 1873 4245 
Q 1894 4228 1894 4206 
L 1894 428 
Q 1894 225 2694 225 
L 2694 0 
L 594 0 
z
" transform="scale(0.015625)"/>
       </defs>
       <use xlink:href="#Cmr10-31" transform="translate(0 0.390625)"/>
       <use xlink:href="#Cmmi10-3a" transform="translate(50 0.390625)"/>
       <use xlink:href="#Cmr10-30" transform="translate(77.685547 0.390625)"/>
      </g>
     </g>
    </g>
    <g id="xtick_4">
     <g id="line2d_5">
      <g>
       <use xlink:href="#m32a928fc0e" x="714.899392" y="248.545354" style="stroke: #000000"/>
      </g>
     </g>
     <g id="text_4">
      <!-- $1.5$ -->
      <g transform="translate(696.979392 273.320979) scale(0.28 -0.28)">
       <use xlink:href="#Cmr10-31" transform="translate(0 0.390625)"/>
       <use xlink:href="#Cmmi10-3a" transform="translate(50 0.390625)"/>
       <use xlink:href="#Cmr10-35" transform="translate(77.685547 0.390625)"/>
      </g>
     </g>
    </g>
    <g id="xtick_5">
     <g id="line2d_6">
      <g>
       <use xlink:href="#m32a928fc0e" x="932.922573" y="248.545354" style="stroke: #000000"/>
      </g>
     </g>
     <g id="text_5">
      <!-- $2.0$ -->
      <g transform="translate(915.002573 273.320979) scale(0.28 -0.28)">
       <defs>
        <path id="Cmr10-32" d="M 319 0 
L 319 172 
Q 319 188 331 206 
L 1325 1306 
Q 1550 1550 1690 1715 
Q 1831 1881 1968 2097 
Q 2106 2313 2186 2536 
Q 2266 2759 2266 3009 
Q 2266 3272 2169 3511 
Q 2072 3750 1880 3894 
Q 1688 4038 1416 4038 
Q 1138 4038 916 3870 
Q 694 3703 603 3438 
Q 628 3444 672 3444 
Q 816 3444 917 3347 
Q 1019 3250 1019 3097 
Q 1019 2950 917 2848 
Q 816 2747 672 2747 
Q 522 2747 420 2851 
Q 319 2956 319 3097 
Q 319 3338 409 3548 
Q 500 3759 670 3923 
Q 841 4088 1055 4175 
Q 1269 4263 1509 4263 
Q 1875 4263 2190 4108 
Q 2506 3953 2690 3670 
Q 2875 3388 2875 3009 
Q 2875 2731 2753 2481 
Q 2631 2231 2440 2026 
Q 2250 1822 1953 1562 
Q 1656 1303 1563 1216 
L 838 519 
L 1453 519 
Q 1906 519 2211 526 
Q 2516 534 2534 550 
Q 2609 631 2688 1141 
L 2875 1141 
L 2694 0 
L 319 0 
z
" transform="scale(0.015625)"/>
       </defs>
       <use xlink:href="#Cmr10-32" transform="translate(0 0.390625)"/>
       <use xlink:href="#Cmmi10-3a" transform="translate(50 0.390625)"/>
       <use xlink:href="#Cmr10-30" transform="translate(77.685547 0.390625)"/>
      </g>
     </g>
    </g>
   </g>
   <g id="matplotlib.axis_2">
    <g id="ytick_1">
     <g id="line2d_7">
      <defs>
       <path id="m8e75b2ade5" d="M 0 0 
L 5 0 
" style="stroke: #000000"/>
      </defs>
      <g>
       <use xlink:href="#m8e75b2ade5" x="34.667068" y="230.977789" style="stroke: #000000"/>
      </g>
     </g>
     <g id="text_6">
      <!-- $0$ -->
      <g transform="translate(17.167068 241.615602) scale(0.28 -0.28)">
       <use xlink:href="#Cmr10-30" transform="translate(0 0.390625)"/>
      </g>
     </g>
    </g>
    <g id="ytick_2">
     <g id="line2d_8">
      <g>
       <use xlink:href="#m8e75b2ade5" x="34.667068" y="176.691797" style="stroke: #000000"/>
      </g>
     </g>
     <g id="text_7">
      <!-- $5$ -->
      <g transform="translate(17.167068 187.329609) scale(0.28 -0.28)">
       <use xlink:href="#Cmr10-35" transform="translate(0 0.390625)"/>
      </g>
     </g>
    </g>
    <g id="ytick_3">
     <g id="line2d_9">
      <g>
       <use xlink:href="#m8e75b2ade5" x="34.667068" y="122.405804" style="stroke: #000000"/>
      </g>
     </g>
     <g id="text_8">
      <!-- $10$ -->
      <g transform="translate(3.167068 133.043616) scale(0.28 -0.28)">
       <use xlink:href="#Cmr10-31" transform="translate(0 0.390625)"/>
       <use xlink:href="#Cmr10-30" transform="translate(50 0.390625)"/>
      </g>
     </g>
    </g>
    <g id="ytick_4">
     <g id="line2d_10">
      <g>
       <use xlink:href="#m8e75b2ade5" x="34.667068" y="68.119811" style="stroke: #000000"/>
      </g>
     </g>
     <g id="text_9">
      <!-- $15$ -->
      <g transform="translate(3.167068 78.757623) scale(0.28 -0.28)">
       <use xlink:href="#Cmr10-31" transform="translate(0 0.390625)"/>
       <use xlink:href="#Cmr10-35" transform="translate(50 0.390625)"/>
      </g>
     </g>
    </g>
    <g id="ytick_5">
     <g id="line2d_11">
      <g>
       <use xlink:href="#m8e75b2ade5" x="34.667068" y="13.833818" style="stroke: #000000"/>
      </g>
     </g>
     <g id="text_10">
      <!-- $20$ -->
      <g transform="translate(3.167068 24.47163) scale(0.28 -0.28)">
       <use xlink:href="#Cmr10-32" transform="translate(0 0.390625)"/>
       <use xlink:href="#Cmr10-30" transform="translate(50 0.390625)"/>
      </g>
     </g>
    </g>
   </g>
   <g id="line2d_12">
    <path d="M 60.829849 220.120591 
L 64.31822 220.206203 
L 67.806591 220.46169 
L 71.294962 220.883022 
L 74.783333 221.463554 
L 80.015889 222.612174 
L 85.248446 224.057151 
L 90.481002 225.747294 
L 97.457744 228.277714 
L 118.387969 236.208285 
L 123.620525 237.898428 
L 128.853082 239.343405 
L 134.085638 240.492025 
L 137.574009 241.072557 
L 141.06238 241.493889 
L 144.550751 241.749376 
L 148.039122 241.834988 
L 151.527492 241.749376 
L 155.015863 241.493889 
L 158.504234 241.072557 
L 161.992605 240.492025 
L 167.225161 239.343405 
L 172.457718 237.898428 
L 177.690274 236.208285 
L 184.667016 233.677865 
L 205.597241 225.747294 
L 210.829798 224.057151 
L 216.062354 222.612174 
L 221.29491 221.463554 
L 224.783281 220.883022 
L 228.271652 220.46169 
L 231.760023 220.206203 
L 235.248394 220.120591 
L 238.736765 220.206203 
L 242.225136 220.46169 
L 245.713507 220.883022 
L 249.201877 221.463554 
L 254.434434 222.612174 
L 259.66699 224.057151 
L 264.899547 225.747294 
L 271.876288 228.277714 
L 292.806514 236.208285 
L 298.03907 237.898428 
L 303.271626 239.343405 
L 308.504183 240.492025 
L 311.992554 241.072557 
L 315.480924 241.493889 
L 318.969295 241.749376 
L 322.457666 241.834988 
L 325.946037 241.749376 
L 329.434408 241.493889 
L 332.922779 241.072557 
L 336.41115 240.492025 
L 341.643706 239.343405 
L 346.876263 237.898428 
L 352.108819 236.208285 
L 359.085561 233.677865 
L 380.015786 225.747294 
L 385.248342 224.057151 
L 390.480899 222.612174 
L 395.713455 221.463554 
L 399.201826 220.883022 
L 402.690197 220.46169 
L 406.178568 220.206203 
L 409.666939 220.120591 
L 413.155309 220.206203 
L 416.64368 220.46169 
L 420.132051 220.883022 
L 423.620422 221.463554 
L 428.852979 222.612174 
L 434.085535 224.057151 
L 439.318091 225.747294 
L 446.294833 228.277714 
L 467.225058 236.208285 
L 472.457615 237.898428 
L 477.690171 239.343405 
L 482.922727 240.492025 
L 486.411098 241.072557 
L 489.899469 241.493889 
L 493.38784 241.749376 
L 496.876211 241.834988 
L 500.364582 241.749376 
L 503.852953 241.493889 
L 507.341324 241.072557 
L 510.829695 240.492025 
L 516.062251 239.343405 
L 521.294807 237.898428 
L 526.527364 236.208285 
L 533.504105 233.677865 
L 554.434331 225.747294 
L 559.666887 224.057151 
L 564.899443 222.612174 
L 570.132 221.463554 
L 573.620371 220.883022 
L 577.108741 220.46169 
L 580.597112 220.206203 
L 584.085483 220.120591 
L 587.573854 220.206203 
L 591.062225 220.46169 
L 594.550596 220.883022 
L 598.038967 221.463554 
L 603.271523 222.612174 
L 608.50408 224.057151 
L 613.736636 225.747294 
L 620.713378 228.277714 
L 641.643603 236.208285 
L 646.876159 237.898428 
L 652.108716 239.343405 
L 657.341272 240.492025 
L 660.829643 241.072557 
L 664.318014 241.493889 
L 667.806385 241.749376 
L 671.294756 241.834988 
L 674.783127 241.749376 
L 678.271497 241.493889 
L 681.759868 241.072557 
L 685.248239 240.492025 
L 690.480796 239.343405 
L 695.713352 237.898428 
L 700.945908 236.208285 
L 707.92265 233.677865 
L 728.852875 225.747294 
L 734.085432 224.057151 
L 739.317988 222.612174 
L 744.550544 221.463554 
L 748.038915 220.883022 
L 751.527286 220.46169 
L 755.015657 220.206203 
L 758.504028 220.120591 
L 761.992399 220.206203 
L 765.48077 220.46169 
L 768.969141 220.883022 
L 772.457512 221.463554 
L 777.690068 222.612174 
L 782.922624 224.057151 
L 788.155181 225.747294 
L 795.131922 228.277714 
L 816.062148 236.208285 
L 821.294704 237.898428 
L 826.52726 239.343405 
L 831.759817 240.492025 
L 835.248188 241.072557 
L 838.736559 241.493889 
L 842.224929 241.749376 
L 845.7133 241.834988 
L 849.201671 241.749376 
L 852.690042 241.493889 
L 856.178413 241.072557 
L 859.666784 240.492025 
L 864.89934 239.343405 
L 870.131897 237.898428 
L 875.364453 236.208285 
L 882.341195 233.677865 
L 903.27142 225.747294 
L 908.503976 224.057151 
L 913.736533 222.612174 
L 918.969089 221.463554 
L 922.45746 220.883022 
L 925.945831 220.46169 
L 929.434202 220.206203 
L 932.922573 220.120591 
L 932.922573 220.120591 
" clip-path="url(#p998997903b)" style="fill: none; stroke: #e36f47; stroke-width: 6"/>
   </g>
   <g id="patch_3">
    <path d="M 34.667068 248.545354 
L 34.667068 11.445746 
" style="fill: none; stroke: #000000; stroke-width: 2; stroke-linejoin: miter; stroke-linecap: square"/>
   </g>
   <g id="patch_4">
    <path d="M 34.667068 248.545354 
L 959.085354 248.545354 
" style="fill: none; stroke: #000000; stroke-width: 2; stroke-linejoin: miter; stroke-linecap: square"/>
   </g>
   <g id="line2d_13">
    <path d="M 60.829849 230.308122 
L 74.783333 230.624655 
L 95.713558 230.84256 
L 107.922856 230.900545 
L 109.667042 18.158385 
L 111.411227 34.520718 
L 113.155413 49.625056 
L 114.899598 63.568116 
L 116.643784 76.439182 
L 118.387969 88.320674 
L 120.132154 99.288673 
L 121.87634 109.413412 
L 123.620525 118.759724 
L 125.364711 127.387458 
L 127.108896 135.351861 
L 128.853082 142.703931 
L 130.597267 149.490747 
L 132.341453 155.755768 
L 134.085638 161.539111 
L 135.829823 166.87781 
L 137.574009 171.80605 
L 139.318194 176.35539 
L 141.06238 180.55496 
L 142.806565 184.431651 
L 144.550751 188.010288 
L 146.294936 191.313792 
L 148.039122 194.36334 
L 149.783307 197.178472 
L 151.527492 199.77721 
L 155.015863 204.390694 
L 158.504234 208.321909 
L 161.992605 211.671586 
L 165.480976 214.525765 
L 168.969347 216.957915 
L 172.457718 219.03061 
L 175.946089 220.796987 
L 179.43446 222.302149 
L 182.922831 223.584576 
L 186.411201 224.677371 
L 191.643758 226.021645 
L 196.876314 227.079148 
L 202.10887 227.911009 
L 209.085612 228.75085 
L 216.062354 229.3607 
L 224.783281 229.893823 
L 235.248394 230.307064 
L 249.201877 230.624096 
L 270.132103 230.842346 
L 282.341401 230.900423 
L 284.085586 18.493747 
L 285.829772 34.830296 
L 287.573957 49.910832 
L 289.318143 63.831921 
L 291.062328 76.682705 
L 292.806514 88.545474 
L 294.550699 99.496189 
L 296.294885 109.604974 
L 298.03907 118.936558 
L 299.783255 127.550696 
L 301.527441 135.502548 
L 303.271626 142.843033 
L 305.015812 149.619155 
L 306.759997 155.874303 
L 308.504183 161.648533 
L 310.248368 166.978819 
L 311.992554 171.899293 
L 313.736739 176.441464 
L 315.480924 180.634416 
L 317.22511 184.504999 
L 318.969295 188.077996 
L 320.713481 191.376295 
L 322.457666 194.421037 
L 324.201852 197.231731 
L 325.946037 199.826372 
L 329.434408 204.432577 
L 332.922779 208.357591 
L 336.41115 211.701991 
L 339.899521 214.551685 
L 343.387892 216.980019 
L 346.876263 219.04946 
L 350.364633 220.813056 
L 353.853004 222.315842 
L 357.341375 223.59625 
L 360.829746 224.687337 
L 366.062302 226.029495 
L 371.294859 227.085323 
L 376.527415 227.915867 
L 383.504157 228.754377 
L 390.480899 229.363261 
L 399.201826 229.89554 
L 409.666939 230.308126 
L 423.620422 230.624657 
L 444.550648 230.842561 
L 456.759946 230.900546 
L 458.504131 18.157233 
L 460.248317 34.519655 
L 461.992502 49.624074 
L 463.736687 63.56721 
L 465.480873 76.438346 
L 467.225058 88.319902 
L 468.969244 99.28796 
L 470.713429 109.412754 
L 472.457615 118.759117 
L 474.2018 127.386898 
L 475.945986 135.351343 
L 477.690171 142.703453 
L 479.434356 149.490306 
L 481.178542 155.755361 
L 482.922727 161.538735 
L 484.666913 166.877463 
L 486.411098 171.80573 
L 488.155284 176.355094 
L 489.899469 180.554687 
L 491.643655 184.431399 
L 493.38784 188.010055 
L 495.132025 191.313578 
L 496.876211 194.363141 
L 498.620396 197.178289 
L 500.364582 199.777041 
L 503.852953 204.39055 
L 507.341324 208.321787 
L 510.829695 211.671482 
L 514.318065 214.525676 
L 517.806436 216.957839 
L 521.294807 219.030546 
L 524.783178 220.796932 
L 528.271549 222.302102 
L 531.75992 223.584536 
L 535.248291 224.677337 
L 540.480847 226.021618 
L 545.713403 227.079127 
L 550.94596 227.910993 
L 557.922702 228.750838 
L 564.899443 229.360691 
L 573.620371 229.893817 
L 584.085483 230.30706 
L 598.038967 230.624094 
L 618.969192 230.842345 
L 631.17849 230.900423 
L 632.922676 18.494837 
L 634.666861 34.831303 
L 636.411047 49.911761 
L 638.155232 63.832778 
L 639.899418 76.683497 
L 641.643603 88.546204 
L 643.387788 99.496864 
L 645.131974 109.605596 
L 646.876159 118.937133 
L 648.620345 127.551227 
L 650.36453 135.503038 
L 652.108716 142.843485 
L 653.852901 149.619572 
L 655.597087 155.874688 
L 657.341272 161.648888 
L 659.085457 166.979147 
L 660.829643 171.899596 
L 662.573828 176.441744 
L 664.318014 180.634674 
L 666.062199 184.505237 
L 667.806385 188.078216 
L 669.55057 191.376498 
L 671.294756 194.421224 
L 673.038941 197.231905 
L 674.783127 199.826532 
L 678.271497 204.432714 
L 681.759868 208.357707 
L 685.248239 211.70209 
L 688.73661 214.551769 
L 692.224981 216.980091 
L 695.713352 219.049522 
L 699.201723 220.813108 
L 702.690094 222.315886 
L 706.178465 223.596288 
L 709.666835 224.68737 
L 714.899392 226.02952 
L 720.131948 227.085343 
L 725.364504 227.915882 
L 732.341246 228.754389 
L 739.317988 229.363269 
L 748.038915 229.895545 
L 758.504028 230.308129 
L 772.457512 230.624658 
L 793.387737 230.842562 
L 805.597035 230.900546 
L 807.34122 18.156112 
L 809.085406 34.51862 
L 810.829591 49.623119 
L 812.573777 63.566328 
L 814.317962 76.437532 
L 816.062148 88.31915 
L 817.806333 99.287266 
L 819.550519 109.412114 
L 821.294704 118.758526 
L 823.038889 127.386352 
L 824.783075 135.350839 
L 826.52726 142.702988 
L 828.271446 149.489877 
L 830.015631 155.754964 
L 831.759817 161.538369 
L 833.504002 166.877125 
L 835.248188 171.805418 
L 836.992373 176.354806 
L 838.736559 180.554421 
L 840.480744 184.431154 
L 842.224929 188.009829 
L 843.969115 191.313369 
L 845.7133 194.362948 
L 847.457486 197.178111 
L 849.201671 199.776877 
L 852.690042 204.39041 
L 856.178413 208.321667 
L 859.666784 211.67138 
L 863.155155 214.525589 
L 866.643526 216.957765 
L 870.131897 219.030483 
L 873.620267 220.796878 
L 877.108638 222.302056 
L 880.597009 223.584497 
L 884.08538 224.677304 
L 889.317936 226.021592 
L 894.550493 227.079106 
L 899.783049 227.910976 
L 906.759791 228.750826 
L 913.736533 229.360682 
L 922.45746 229.89381 
L 932.922573 230.307041 
L 932.922573 230.307041 
" clip-path="url(#p998997903b)" style="fill: none; stroke: #3ea44e; stroke-width: 6"/>
   </g>
  </g>
 </g>
 <defs>
  <clipPath id="p998997903b">
   <rect x="34.667068" y="11.445746" width="924.418287" height="237.099609"/>
  </clipPath>
 </defs>
</svg>
