<?xml version="1.0" encoding="utf-8" standalone="no"?>
<!DOCTYPE svg PUBLIC "-//W3C//DTD SVG 1.1//EN"
  "http://www.w3.org/Graphics/SVG/1.1/DTD/svg11.dtd">
<svg xmlns:xlink="http://www.w3.org/1999/xlink" width="1002.24pt" height="357.12pt" viewBox="0 0 1002.24 357.12" xmlns="http://www.w3.org/2000/svg" version="1.1">
 <metadata>
  <rdf:RDF xmlns:dc="http://purl.org/dc/elements/1.1/" xmlns:cc="http://creativecommons.org/ns#" xmlns:rdf="http://www.w3.org/1999/02/22-rdf-syntax-ns#">
   <cc:Work>
    <dc:type rdf:resource="http://purl.org/dc/dcmitype/StillImage"/>
    <dc:date>2024-07-16T17:23:40.600919</dc:date>
    <dc:format>image/svg+xml</dc:format>
    <dc:creator>
     <cc:Agent>
      <dc:title>Matplotlib v3.8.4, https://matplotlib.org/</dc:title>
     </cc:Agent>
    </dc:creator>
   </cc:Work>
  </rdf:RDF>
 </metadata>
 <defs>
  <style type="text/css">*{stroke-linejoin: round; stroke-linecap: butt}</style>
 </defs>
 <g id="figure_1">
  <g id="patch_1">
   <path d="M 0 357.12 
L 1002.24 357.12 
L 1002.24 0 
L 0 0 
L 0 357.12 
z
" style="fill: none"/>
  </g>
  <g id="axes_1">
   <g id="patch_2">
    <path d="M 21.004646 323.425354 
L 999.405354 323.425354 
L 999.405354 2.834646 
L 21.004646 2.834646 
L 21.004646 323.425354 
z
" style="fill: none"/>
   </g>
   <g id="line2d_1">
    <path d="M 48.695232 250.171199 
L 53.064191 254.713546 
L 57.494685 259.002043 
L 62.048248 263.099421 
L 66.663345 266.954057 
L 71.401512 270.62191 
L 76.262749 274.102709 
L 81.247054 277.397282 
L 86.354429 280.507466 
L 91.646408 283.469006 
L 97.12299 286.277141 
L 102.784177 288.928826 
L 108.691502 291.447635 
L 114.844965 293.826541 
L 121.244567 296.060769 
L 127.951843 298.16594 
L 135.028326 300.151771 
L 140.135701 301.449585 
L 140.197235 268.34536 
L 140.25877 268.393436 
L 145.058471 271.999086 
L 149.981242 275.416325 
L 155.027082 278.646509 
L 160.195992 281.691964 
L 165.549505 284.587769 
L 171.087622 287.329767 
L 176.810343 289.915475 
L 182.779203 292.368061 
L 188.994201 294.681153 
L 195.516873 296.870157 
L 202.347217 298.926817 
L 209.54677 300.861191 
L 217.177064 302.678691 
L 225.238102 304.369068 
L 233.852951 305.946816 
L 243.083146 307.409265 
L 253.051757 308.760784 
L 263.881853 310.001036 
L 269.604574 310.573388 
L 269.666109 277.457531 
L 269.727643 277.496499 
L 274.835018 280.59878 
L 280.126997 283.552796 
L 285.603579 286.353795 
L 291.264766 288.998742 
L 297.172091 291.511151 
L 303.325555 293.884013 
L 309.725157 296.112564 
L 316.432432 298.212387 
L 323.508915 300.193172 
L 330.954606 302.045439 
L 338.892574 303.788279 
L 347.322819 305.408841 
L 356.368411 306.917684 
L 366.090883 308.310245 
L 376.613306 309.589006 
L 388.058748 310.752814 
L 400.673348 311.808057 
L 414.703245 312.753615 
L 429.040815 313.521059 
L 429.10235 280.418798 
L 429.163885 280.454807 
L 434.455863 283.420687 
L 439.932446 286.232936 
L 445.593632 288.888506 
L 451.500957 291.411005 
L 457.654421 293.793397 
L 464.054023 296.030898 
L 470.761298 298.139155 
L 477.837782 300.127895 
L 485.283473 301.987602 
L 493.159906 303.724727 
L 501.590151 305.353425 
L 510.574208 306.860263 
L 520.235146 308.253028 
L 530.696034 309.533874 
L 542.079941 310.701297 
L 554.633007 311.761406 
L 568.539835 312.709009 
L 584.169632 313.547241 
L 599.614826 314.190695 
L 599.67636 281.066249 
L 599.737895 281.101611 
L 605.029874 284.014191 
L 610.506456 286.775901 
L 616.229177 289.410797 
L 622.136502 291.88549 
L 628.289966 294.222731 
L 634.751103 296.437845 
L 641.519913 298.522008 
L 648.65793 300.485123 
L 656.165156 302.31825 
L 664.164659 304.040482 
L 672.656438 305.639565 
L 681.763565 307.126189 
L 691.547572 308.496227 
L 702.193064 309.759141 
L 713.82311 310.910704 
L 726.622314 311.950188 
L 740.836815 312.877491 
L 756.897355 313.69724 
L 772.89636 314.326558 
L 772.957895 281.211042 
L 773.019429 281.246259 
L 778.372943 284.179201 
L 783.91106 286.956365 
L 789.633781 289.575239 
L 795.602641 292.059289 
L 801.817639 294.402058 
L 808.278776 296.599306 
L 815.047586 298.666652 
L 822.185603 300.613917 
L 829.754364 302.446242 
L 837.753866 304.152855 
L 846.307181 305.748148 
L 855.475841 307.229055 
L 865.321383 308.59182 
L 876.02841 309.846126 
L 887.71999 310.988162 
L 900.580729 312.017531 
L 914.918299 312.937967 
L 931.101909 313.749222 
L 946.670171 314.352032 
L 946.731706 281.220871 
L 946.793241 281.256079 
L 952.146754 284.188203 
L 957.684871 286.964591 
L 963.407592 289.582729 
L 969.376452 292.066075 
L 971.714768 292.975129 
L 971.714768 292.975129 
" clip-path="url(#pe99bcd32a8)" style="fill: none; stroke: #780004; stroke-width: 4"/>
   </g>
   <g id="matplotlib.axis_1">
    <g id="xtick_1">
     <g id="line2d_2">
      <defs>
       <path id="m50294cbe0a" d="M 0 0 
L 0 -5 
" style="stroke: #000000"/>
      </defs>
      <g>
       <use xlink:href="#m50294cbe0a" x="48.695232" y="323.425354" style="stroke: #000000"/>
      </g>
     </g>
     <g id="text_1">
      <!-- $0$ -->
      <g transform="translate(41.695232 348.200979) scale(0.28 -0.28)">
       <defs>
        <path id="Cmr10-30" d="M 1600 -141 
Q 816 -141 533 504 
Q 250 1150 250 2041 
Q 250 2597 351 3087 
Q 453 3578 754 3920 
Q 1056 4263 1600 4263 
Q 2022 4263 2290 4056 
Q 2559 3850 2700 3523 
Q 2841 3197 2892 2823 
Q 2944 2450 2944 2041 
Q 2944 1491 2842 1011 
Q 2741 531 2444 195 
Q 2147 -141 1600 -141 
z
M 1600 25 
Q 1956 25 2131 390 
Q 2306 756 2347 1200 
Q 2388 1644 2388 2144 
Q 2388 2625 2347 3031 
Q 2306 3438 2132 3767 
Q 1959 4097 1600 4097 
Q 1238 4097 1063 3765 
Q 888 3434 847 3029 
Q 806 2625 806 2144 
Q 806 1788 823 1472 
Q 841 1156 916 820 
Q 991 484 1158 254 
Q 1325 25 1600 25 
z
" transform="scale(0.015625)"/>
       </defs>
       <use xlink:href="#Cmr10-30" transform="translate(0 0.390625)"/>
      </g>
     </g>
    </g>
    <g id="xtick_2">
     <g id="line2d_3">
      <g>
       <use xlink:href="#m50294cbe0a" x="356.368411" y="323.425354" style="stroke: #000000"/>
      </g>
     </g>
     <g id="text_2">
      <!-- $5$ -->
      <g transform="translate(349.368411 348.200979) scale(0.28 -0.28)">
       <defs>
        <path id="Cmr10-35" d="M 556 728 
Q 622 541 758 387 
Q 894 234 1080 148 
Q 1266 63 1466 63 
Q 1928 63 2103 422 
Q 2278 781 2278 1294 
Q 2278 1516 2270 1667 
Q 2263 1819 2228 1959 
Q 2169 2184 2020 2353 
Q 1872 2522 1656 2522 
Q 1441 2522 1286 2456 
Q 1131 2391 1034 2303 
Q 938 2216 863 2119 
Q 788 2022 769 2016 
L 697 2016 
Q 681 2016 657 2036 
Q 634 2056 634 2075 
L 634 4213 
Q 634 4228 654 4245 
Q 675 4263 697 4263 
L 716 4263 
Q 1147 4056 1631 4056 
Q 2106 4056 2547 4263 
L 2566 4263 
Q 2588 4263 2606 4247 
Q 2625 4231 2625 4213 
L 2625 4153 
Q 2625 4122 2613 4122 
Q 2394 3831 2064 3668 
Q 1734 3506 1381 3506 
Q 1125 3506 856 3578 
L 856 2369 
Q 1069 2541 1236 2614 
Q 1403 2688 1663 2688 
Q 2016 2688 2295 2484 
Q 2575 2281 2725 1954 
Q 2875 1628 2875 1288 
Q 2875 903 2686 575 
Q 2497 247 2172 53 
Q 1847 -141 1466 -141 
Q 1150 -141 886 21 
Q 622 184 470 459 
Q 319 734 319 1044 
Q 319 1188 412 1278 
Q 506 1369 647 1369 
Q 788 1369 883 1276 
Q 978 1184 978 1044 
Q 978 906 883 811 
Q 788 716 647 716 
Q 625 716 597 720 
Q 569 725 556 728 
z
" transform="scale(0.015625)"/>
       </defs>
       <use xlink:href="#Cmr10-35" transform="translate(0 0.390625)"/>
      </g>
     </g>
    </g>
    <g id="xtick_3">
     <g id="line2d_4">
      <g>
       <use xlink:href="#m50294cbe0a" x="664.041589" y="323.425354" style="stroke: #000000"/>
      </g>
     </g>
     <g id="text_3">
      <!-- $10$ -->
      <g transform="translate(650.041589 348.200979) scale(0.28 -0.28)">
       <defs>
        <path id="Cmr10-31" d="M 594 0 
L 594 225 
Q 1394 225 1394 428 
L 1394 3788 
Q 1063 3628 556 3628 
L 556 3853 
Q 1341 3853 1741 4263 
L 1831 4263 
Q 1853 4263 1873 4245 
Q 1894 4228 1894 4206 
L 1894 428 
Q 1894 225 2694 225 
L 2694 0 
L 594 0 
z
" transform="scale(0.015625)"/>
       </defs>
       <use xlink:href="#Cmr10-31" transform="translate(0 0.390625)"/>
       <use xlink:href="#Cmr10-30" transform="translate(50 0.390625)"/>
      </g>
     </g>
    </g>
    <g id="xtick_4">
     <g id="line2d_5">
      <g>
       <use xlink:href="#m50294cbe0a" x="971.714768" y="323.425354" style="stroke: #000000"/>
      </g>
     </g>
     <g id="text_4">
      <!-- $15$ -->
      <g transform="translate(957.714768 348.200979) scale(0.28 -0.28)">
       <use xlink:href="#Cmr10-31" transform="translate(0 0.390625)"/>
       <use xlink:href="#Cmr10-35" transform="translate(50 0.390625)"/>
      </g>
     </g>
    </g>
   </g>
   <g id="matplotlib.axis_2">
    <g id="ytick_1">
     <g id="line2d_6">
      <defs>
       <path id="m5286bf1b55" d="M 0 0 
L 5 0 
" style="stroke: #000000"/>
      </defs>
      <g>
       <use xlink:href="#m5286bf1b55" x="21.004646" y="316.445973" style="stroke: #000000"/>
      </g>
     </g>
     <g id="text_5">
      <!-- $0$ -->
      <g transform="translate(3.504646 327.083786) scale(0.28 -0.28)">
       <use xlink:href="#Cmr10-30" transform="translate(0 0.390625)"/>
      </g>
     </g>
    </g>
    <g id="ytick_2">
     <g id="line2d_7">
      <g>
       <use xlink:href="#m5286bf1b55" x="21.004646" y="250.171199" style="stroke: #000000"/>
      </g>
     </g>
     <g id="text_6">
      <!-- $1$ -->
      <g transform="translate(3.504646 260.809011) scale(0.28 -0.28)">
       <use xlink:href="#Cmr10-31" transform="translate(0 0.390625)"/>
      </g>
     </g>
    </g>
    <g id="ytick_3">
     <g id="line2d_8">
      <g>
       <use xlink:href="#m5286bf1b55" x="21.004646" y="183.896424" style="stroke: #000000"/>
      </g>
     </g>
     <g id="text_7">
      <!-- $2$ -->
      <g transform="translate(3.504646 194.534237) scale(0.28 -0.28)">
       <defs>
        <path id="Cmr10-32" d="M 319 0 
L 319 172 
Q 319 188 331 206 
L 1325 1306 
Q 1550 1550 1690 1715 
Q 1831 1881 1968 2097 
Q 2106 2313 2186 2536 
Q 2266 2759 2266 3009 
Q 2266 3272 2169 3511 
Q 2072 3750 1880 3894 
Q 1688 4038 1416 4038 
Q 1138 4038 916 3870 
Q 694 3703 603 3438 
Q 628 3444 672 3444 
Q 816 3444 917 3347 
Q 1019 3250 1019 3097 
Q 1019 2950 917 2848 
Q 816 2747 672 2747 
Q 522 2747 420 2851 
Q 319 2956 319 3097 
Q 319 3338 409 3548 
Q 500 3759 670 3923 
Q 841 4088 1055 4175 
Q 1269 4263 1509 4263 
Q 1875 4263 2190 4108 
Q 2506 3953 2690 3670 
Q 2875 3388 2875 3009 
Q 2875 2731 2753 2481 
Q 2631 2231 2440 2026 
Q 2250 1822 1953 1562 
Q 1656 1303 1563 1216 
L 838 519 
L 1453 519 
Q 1906 519 2211 526 
Q 2516 534 2534 550 
Q 2609 631 2688 1141 
L 2875 1141 
L 2694 0 
L 319 0 
z
" transform="scale(0.015625)"/>
       </defs>
       <use xlink:href="#Cmr10-32" transform="translate(0 0.390625)"/>
      </g>
     </g>
    </g>
    <g id="ytick_4">
     <g id="line2d_9">
      <g>
       <use xlink:href="#m5286bf1b55" x="21.004646" y="117.62165" style="stroke: #000000"/>
      </g>
     </g>
     <g id="text_8">
      <!-- $3$ -->
      <g transform="translate(3.504646 128.259462) scale(0.28 -0.28)">
       <defs>
        <path id="Cmr10-33" d="M 609 494 
Q 759 275 1012 169 
Q 1266 63 1556 63 
Q 1928 63 2084 380 
Q 2241 697 2241 1100 
Q 2241 1281 2208 1462 
Q 2175 1644 2097 1800 
Q 2019 1956 1883 2050 
Q 1747 2144 1550 2144 
L 1125 2144 
Q 1069 2144 1069 2203 
L 1069 2259 
Q 1069 2309 1125 2309 
L 1478 2338 
Q 1703 2338 1851 2506 
Q 2000 2675 2069 2917 
Q 2138 3159 2138 3378 
Q 2138 3684 1994 3881 
Q 1850 4078 1556 4078 
Q 1313 4078 1091 3986 
Q 869 3894 738 3706 
Q 750 3709 759 3711 
Q 769 3713 781 3713 
Q 925 3713 1022 3613 
Q 1119 3513 1119 3372 
Q 1119 3234 1022 3134 
Q 925 3034 781 3034 
Q 641 3034 541 3134 
Q 441 3234 441 3372 
Q 441 3647 606 3850 
Q 772 4053 1033 4158 
Q 1294 4263 1556 4263 
Q 1750 4263 1965 4205 
Q 2181 4147 2356 4039 
Q 2531 3931 2642 3762 
Q 2753 3594 2753 3378 
Q 2753 3109 2633 2881 
Q 2513 2653 2303 2487 
Q 2094 2322 1844 2241 
Q 2122 2188 2372 2031 
Q 2622 1875 2773 1631 
Q 2925 1388 2925 1106 
Q 2925 753 2731 467 
Q 2538 181 2222 20 
Q 1906 -141 1556 -141 
Q 1256 -141 954 -26 
Q 653 88 461 316 
Q 269 544 269 863 
Q 269 1022 375 1128 
Q 481 1234 641 1234 
Q 744 1234 830 1186 
Q 916 1138 964 1050 
Q 1013 963 1013 863 
Q 1013 706 903 600 
Q 794 494 641 494 
L 609 494 
z
" transform="scale(0.015625)"/>
       </defs>
       <use xlink:href="#Cmr10-33" transform="translate(0 0.390625)"/>
      </g>
     </g>
    </g>
    <g id="ytick_5">
     <g id="line2d_10">
      <g>
       <use xlink:href="#m5286bf1b55" x="21.004646" y="51.346875" style="stroke: #000000"/>
      </g>
     </g>
     <g id="text_9">
      <!-- $4$ -->
      <g transform="translate(3.504646 61.984688) scale(0.28 -0.28)">
       <defs>
        <path id="Cmr10-34" d="M 178 1056 
L 178 1281 
L 2156 4231 
Q 2178 4263 2222 4263 
L 2316 4263 
Q 2388 4263 2388 4191 
L 2388 1281 
L 3016 1281 
L 3016 1056 
L 2388 1056 
L 2388 428 
Q 2388 297 2575 261 
Q 2763 225 3009 225 
L 3009 0 
L 1247 0 
L 1247 225 
Q 1494 225 1681 261 
Q 1869 297 1869 428 
L 1869 1056 
L 178 1056 
z
M 391 1281 
L 1906 1281 
L 1906 3547 
L 391 1281 
z
" transform="scale(0.015625)"/>
       </defs>
       <use xlink:href="#Cmr10-34" transform="translate(0 0.390625)"/>
      </g>
     </g>
    </g>
   </g>
   <g id="line2d_11">
    <path d="M 48.695232 250.171199 
L 53.064191 254.713546 
L 57.494685 259.002043 
L 62.048248 263.099421 
L 66.663345 266.954057 
L 71.401512 270.62191 
L 76.262749 274.102709 
L 81.247054 277.397282 
L 86.354429 280.507466 
L 91.646408 283.469006 
L 97.12299 286.277141 
L 102.784177 288.928826 
L 108.691502 291.447635 
L 114.844965 293.826541 
L 121.244567 296.060769 
L 127.951843 298.16594 
L 135.028326 300.151771 
L 140.135701 301.449585 
L 140.197235 241.849988 
L 140.25877 241.924547 
L 144.50466 246.893138 
L 148.812084 251.595339 
L 153.181043 256.040079 
L 157.673072 260.292604 
L 162.226635 264.297929 
L 166.903267 268.11432 
L 171.641434 271.696186 
L 176.50267 275.095383 
L 181.54851 278.350834 
L 186.71742 281.420112 
L 192.070933 284.338568 
L 197.60905 287.102015 
L 203.331771 289.707949 
L 209.300631 292.179719 
L 215.515629 294.510904 
L 221.976766 296.697292 
L 222.038301 237.095089 
L 222.099835 237.1744 
L 226.284191 242.385675 
L 230.53008 247.323521 
L 234.837505 251.996626 
L 239.267999 256.473865 
L 243.760027 260.695851 
L 248.31359 264.672413 
L 252.990223 268.461399 
L 257.789924 272.061949 
L 262.712695 275.474355 
L 267.758535 278.69997 
L 272.927444 281.741118 
L 278.280958 284.632827 
L 283.819075 287.370947 
L 289.541796 289.952998 
L 295.510656 292.402115 
L 299.571942 293.937775 
L 299.633476 234.339902 
L 299.695011 234.421967 
L 303.879366 239.814186 
L 308.125256 244.923482 
L 312.432681 249.758844 
L 316.80164 254.329453 
L 321.232134 258.644632 
L 325.785697 262.767504 
L 330.400794 266.646123 
L 335.138961 270.336797 
L 340.000197 273.839254 
L 344.984503 277.154325 
L 350.091878 280.28386 
L 355.383856 283.263827 
L 360.860439 286.089434 
L 366.521625 288.757617 
L 372.367416 291.266932 
L 374.767267 292.230012 
L 374.828801 232.622766 
L 374.890336 232.706547 
L 379.074691 238.211537 
L 383.320581 243.427687 
L 387.628006 248.364174 
L 391.996965 253.030372 
L 396.427458 257.435797 
L 400.919487 261.590064 
L 405.534585 265.553761 
L 410.211217 269.278246 
L 415.010918 272.817504 
L 419.933689 276.17182 
L 424.979529 279.342525 
L 430.209974 282.366 
L 435.625021 285.236867 
L 441.224673 287.951507 
L 447.008929 290.507952 
L 448.793434 291.249352 
L 448.854968 231.679616 
L 448.916503 231.76434 
L 453.100858 237.331271 
L 457.285213 242.532234 
L 461.531103 247.460308 
L 465.838528 252.124166 
L 470.269021 256.592544 
L 474.76105 260.806176 
L 479.314613 264.774868 
L 483.991245 268.556356 
L 488.790947 272.14978 
L 493.713718 275.555434 
L 498.759558 278.774666 
L 503.928467 281.809796 
L 509.28198 284.695783 
L 514.820098 287.428484 
L 520.542819 290.005425 
L 522.01965 290.632444 
L 522.081185 231.011118 
L 522.142719 231.09651 
L 526.26554 236.627565 
L 530.449895 241.87479 
L 534.695785 246.846698 
L 539.00321 251.552039 
L 543.372169 255.999747 
L 547.864197 260.255111 
L 552.41776 264.26311 
L 557.094392 268.08205 
L 561.832559 271.666307 
L 566.693796 275.067774 
L 571.739636 278.325398 
L 576.908545 281.396725 
L 582.262058 284.31713 
L 587.800176 287.082422 
L 593.522897 289.690096 
L 594.876659 290.272298 
L 594.938193 230.703181 
L 594.999728 230.788881 
L 599.122549 236.339872 
L 603.306904 241.606009 
L 607.552794 246.595838 
L 611.860218 251.318139 
L 616.229177 255.781877 
L 620.721206 260.052579 
L 625.274769 264.075024 
L 629.951401 267.907729 
L 634.689568 271.504905 
L 639.550804 274.918632 
L 644.53511 278.149721 
L 649.704019 281.235202 
L 655.057533 284.169066 
L 660.59565 286.947101 
L 666.318371 289.566793 
L 667.425994 290.04629 
L 667.487529 230.439139 
L 667.549064 230.525103 
L 671.671884 236.093187 
L 675.856239 241.375541 
L 680.102129 246.380736 
L 684.409554 251.117579 
L 688.778513 255.595064 
L 693.270541 259.878917 
L 697.824104 263.91375 
L 702.500737 267.758257 
L 707.238904 271.366511 
L 712.10014 274.79075 
L 717.084445 278.031789 
L 722.253355 281.126772 
L 727.545334 284.037278 
L 733.021916 286.797022 
L 738.744637 289.430041 
L 739.852261 289.911978 
L 739.913795 230.338235 
L 739.97533 230.424299 
L 744.098151 235.998917 
L 748.282506 241.287468 
L 752.528396 246.298535 
L 756.83582 251.040935 
L 761.204779 255.523673 
L 765.696808 259.812552 
L 770.250371 263.852118 
L 774.927003 267.701136 
L 779.66517 271.313623 
L 784.526406 274.74188 
L 789.510712 277.986721 
L 794.679621 281.085335 
L 799.9716 283.999256 
L 805.448182 286.762237 
L 811.170904 289.398346 
L 812.093923 289.801033 
L 812.155458 230.209461 
L 812.216992 230.295655 
L 816.339813 235.878609 
L 820.524168 241.175069 
L 824.770058 246.19363 
L 829.077483 250.943122 
L 833.446442 255.432564 
L 837.876935 259.671111 
L 842.430498 263.720765 
L 847.045596 267.530505 
L 851.783763 271.155638 
L 856.644999 274.595895 
L 861.629305 277.852095 
L 866.798214 280.961556 
L 872.090193 283.885676 
L 877.566776 286.65833 
L 883.227962 289.27651 
L 884.335585 289.761186 
L 884.39712 230.194502 
L 884.458655 230.280711 
L 888.581475 235.864633 
L 892.765831 241.162012 
L 897.01172 246.181444 
L 901.319145 250.93176 
L 905.688104 255.42198 
L 910.118598 259.661263 
L 914.672161 263.71162 
L 919.287259 267.52202 
L 924.025426 271.147782 
L 928.886662 274.588636 
L 933.870967 277.845401 
L 939.039877 280.9554 
L 944.331855 283.880028 
L 949.808438 286.653163 
L 955.469624 289.271797 
L 956.515713 289.729854 
L 956.577248 230.133751 
L 956.638782 230.22002 
L 960.761603 235.807876 
L 964.945958 241.108986 
L 969.191848 246.131953 
L 971.714768 248.956528 
L 971.714768 248.956528 
" clip-path="url(#pe99bcd32a8)" style="fill: none; stroke: #d21f01; stroke-width: 4"/>
   </g>
   <g id="patch_3">
    <path d="M 21.004646 323.425354 
L 21.004646 2.834646 
" style="fill: none; stroke: #000000; stroke-width: 2; stroke-linejoin: miter; stroke-linecap: square"/>
   </g>
   <g id="patch_4">
    <path d="M 21.004646 323.425354 
L 999.405354 323.425354 
" style="fill: none; stroke: #000000; stroke-width: 2; stroke-linejoin: miter; stroke-linecap: square"/>
   </g>
   <g id="line2d_12">
    <path d="M 48.695232 250.171199 
L 53.064191 254.713546 
L 57.494685 259.002043 
L 62.048248 263.099421 
L 66.663345 266.954057 
L 71.401512 270.62191 
L 76.262749 274.102709 
L 81.247054 277.397282 
L 86.354429 280.507466 
L 91.646408 283.469006 
L 97.12299 286.277141 
L 102.784177 288.928826 
L 108.691502 291.447635 
L 114.844965 293.826541 
L 121.244567 296.060769 
L 127.951843 298.16594 
L 135.028326 300.151771 
L 140.135701 301.449585 
L 140.197235 235.226145 
L 140.25877 235.307325 
L 144.443125 240.641341 
L 148.689015 245.695487 
L 152.996439 250.478657 
L 157.365399 254.999932 
L 161.795892 259.268534 
L 166.349455 263.346904 
L 170.964553 267.183657 
L 175.70272 270.834495 
L 180.563956 274.299146 
L 185.548262 277.578435 
L 190.655636 280.67419 
L 195.947615 283.621991 
L 201.424198 286.417099 
L 207.085384 289.056482 
L 212.992709 291.563606 
L 216.19251 292.824424 
L 216.254045 226.617169 
L 216.31558 226.706953 
L 220.4384 232.522472 
L 224.622755 238.039564 
L 228.868645 243.267179 
L 233.114535 248.146252 
L 237.483494 252.827386 
L 241.913988 257.246912 
L 246.406016 261.414477 
L 251.021114 265.390861 
L 255.697746 269.127268 
L 260.497448 272.677854 
L 265.420219 276.042907 
L 270.466059 279.223761 
L 275.696503 282.256914 
L 281.111551 285.13697 
L 285.849718 287.457285 
L 285.911253 221.233015 
L 285.972787 221.32818 
L 290.034073 227.403271 
L 294.156894 233.173666 
L 298.341249 238.647948 
L 302.587139 243.835 
L 306.894563 248.743951 
L 311.263523 253.384119 
L 315.694016 257.76497 
L 320.186045 261.896064 
L 324.801142 265.83765 
L 329.477775 269.541359 
L 334.277476 273.060874 
L 339.200247 276.396479 
L 344.307622 279.586375 
L 349.538066 282.589979 
L 352.060986 283.950004 
L 352.122521 217.742861 
L 352.184055 217.841515 
L 356.245341 224.139296 
L 360.368162 230.121212 
L 364.490983 235.715471 
L 368.675338 241.022656 
L 372.921228 246.051379 
L 377.228652 250.810488 
L 381.597611 255.30902 
L 386.028105 259.55615 
L 390.581668 263.614004 
L 395.196766 267.431458 
L 399.934933 271.063931 
L 404.796169 274.511154 
L 409.780474 277.773948 
L 414.949384 280.889704 
L 416.241611 281.6286 
L 416.303146 215.437792 
L 416.36468 215.538749 
L 420.425966 221.983606 
L 424.487252 228.016836 
L 428.610073 233.747469 
L 432.794428 239.184029 
L 437.040318 244.335339 
L 441.347743 249.210464 
L 445.716702 253.818658 
L 450.147195 258.169322 
L 454.639224 262.27195 
L 459.254322 266.186376 
L 463.992489 269.911122 
L 468.79219 273.402891 
L 473.714961 276.712201 
L 478.822336 279.87695 
L 479.068474 280.022934 
L 479.130009 213.802079 
L 479.191544 213.904672 
L 483.25283 220.453896 
L 487.314115 226.584827 
L 491.436936 232.40826 
L 495.621291 237.93286 
L 499.867181 243.16759 
L 504.113071 248.053303 
L 508.48203 252.740807 
L 512.912524 257.166348 
L 517.404552 261.339584 
L 522.01965 265.32138 
L 526.696282 269.062872 
L 531.495984 272.61829 
L 536.418755 275.987922 
L 541.095387 278.948796 
L 541.156922 212.767713 
L 541.218456 212.87134 
L 545.279742 219.486562 
L 549.341028 225.679276 
L 553.463849 231.561393 
L 557.648204 237.141665 
L 561.832559 242.355093 
L 566.078449 247.294978 
L 570.385874 251.970013 
L 574.816368 256.4491 
L 579.308396 260.67283 
L 583.861959 264.651034 
L 588.538591 268.441584 
L 593.338293 272.043621 
L 598.261064 275.457436 
L 602.506954 278.190278 
L 602.568488 212.00535 
L 602.630023 212.109739 
L 606.629774 218.675883 
L 610.69106 224.920374 
L 614.813881 230.851672 
L 618.936701 236.398593 
L 623.121057 241.66087 
L 627.366946 246.647041 
L 631.674371 251.36588 
L 636.04333 255.826347 
L 640.535359 260.093918 
L 645.088922 264.113415 
L 649.765554 267.94331 
L 654.503721 271.537849 
L 659.364957 274.949074 
L 663.487778 277.638272 
L 663.549312 211.421951 
L 663.610847 211.526922 
L 667.610598 218.129744 
L 671.671884 224.409117 
L 675.794705 230.373547 
L 679.917525 235.951453 
L 684.101881 241.243125 
L 688.347771 246.257148 
L 692.655195 251.002346 
L 697.024154 255.487729 
L 701.516183 259.779139 
L 706.069746 263.821088 
L 710.684843 267.623579 
L 715.42301 271.241813 
L 720.284247 274.675525 
L 724.222463 277.265084 
L 724.283998 211.056412 
L 724.345532 211.161748 
L 728.345284 217.787552 
L 732.40657 224.08878 
L 736.52939 230.073969 
L 740.652211 235.671289 
L 744.836566 240.981379 
L 749.082456 246.012854 
L 753.389881 250.774568 
L 757.75884 255.275562 
L 762.189333 259.525016 
L 766.742897 263.585091 
L 771.357994 267.404634 
L 776.096161 271.039095 
L 780.957397 274.488205 
L 784.772545 277.010585 
L 784.834079 210.821645 
L 784.895614 210.927216 
L 788.895365 217.567779 
L 792.956651 223.883044 
L 797.079472 229.881566 
L 801.202293 235.491355 
L 805.386648 240.813273 
L 809.632538 245.855956 
L 813.939962 250.628278 
L 818.308921 255.139298 
L 822.739415 259.398218 
L 827.292978 263.467338 
L 831.908076 267.295389 
L 836.646243 270.937946 
L 841.507479 274.394739 
L 845.138022 276.80399 
L 845.199557 210.582883 
L 845.261092 210.688693 
L 849.260843 217.344267 
L 853.322129 223.673807 
L 857.44495 229.685889 
L 861.56777 235.308359 
L 865.752125 240.642307 
L 869.998015 245.696389 
L 874.30544 250.479498 
L 878.674399 255.000715 
L 883.104893 259.269262 
L 887.658456 263.34758 
L 892.273553 267.184285 
L 897.01172 270.835076 
L 901.872957 274.299683 
L 905.441966 276.674629 
L 905.5035 210.459287 
L 905.565035 210.56522 
L 909.564786 217.228565 
L 913.626072 223.565495 
L 917.748893 229.584595 
L 921.871713 235.21363 
L 926.056068 240.553805 
L 930.301958 245.613788 
L 934.609383 250.402482 
L 938.978342 254.928977 
L 943.408836 259.202508 
L 947.962399 263.285587 
L 952.577497 267.126772 
L 957.315663 270.781825 
L 962.1769 274.250477 
L 965.684374 276.588358 
L 965.745909 210.384522 
L 965.807443 210.490531 
L 969.807195 217.158576 
L 971.714768 220.189266 
L 971.714768 220.189266 
" clip-path="url(#pe99bcd32a8)" style="fill: none; stroke: #f76008; stroke-width: 4"/>
   </g>
   <g id="line2d_13">
    <path d="M 48.695232 250.171199 
L 53.064191 254.713546 
L 57.494685 259.002043 
L 62.048248 263.099421 
L 66.663345 266.954057 
L 71.401512 270.62191 
L 76.262749 274.102709 
L 81.247054 277.397282 
L 86.354429 280.507466 
L 91.646408 283.469006 
L 97.12299 286.277141 
L 102.784177 288.928826 
L 108.691502 291.447635 
L 114.844965 293.826541 
L 121.244567 296.060769 
L 127.951843 298.16594 
L 135.028326 300.151771 
L 140.135701 301.449585 
L 140.197235 228.602302 
L 140.25877 228.690102 
L 144.38159 234.377104 
L 148.565946 239.772272 
L 152.811835 244.884363 
L 157.11926 249.72237 
L 161.488219 254.295479 
L 165.918713 258.613018 
L 170.472276 262.738145 
L 175.087374 266.618885 
L 179.825541 270.311578 
L 184.686777 273.81595 
L 189.671082 277.132835 
L 194.778457 280.264081 
L 200.070436 283.245678 
L 205.547018 286.07283 
L 211.208205 288.742473 
L 211.269739 215.925745 
L 211.331274 216.026215 
L 215.39256 222.439938 
L 219.453846 228.444022 
L 223.576667 234.146971 
L 227.761022 239.557268 
L 232.006912 244.683693 
L 236.314336 249.535267 
L 240.683295 254.1212 
L 245.113789 258.450846 
L 249.605818 262.533655 
L 254.220915 266.429171 
L 258.959082 270.135924 
L 263.820318 273.653639 
L 268.804624 276.983152 
L 273.911999 280.126321 
L 274.342741 280.37967 
L 274.404276 207.579188 
L 274.46581 207.688 
L 278.465562 214.532415 
L 282.526848 221.041546 
L 286.588134 227.134944 
L 290.710954 232.922727 
L 294.895309 238.413506 
L 299.141199 243.61619 
L 303.448624 248.539933 
L 307.817583 253.194085 
L 312.248077 257.588137 
L 316.740105 261.731679 
L 321.355203 265.685144 
L 326.031835 269.400014 
L 330.831537 272.930134 
L 333.046784 274.468841 
L 333.108318 201.611638 
L 333.169853 201.726415 
L 337.169604 208.946008 
L 341.169356 215.711253 
L 345.230642 222.145093 
L 349.291927 228.168008 
L 353.414748 233.888844 
L 357.599103 239.316111 
L 361.844993 244.458615 
L 366.152418 249.325405 
L 370.521377 253.925722 
L 374.951871 258.268948 
L 379.443899 262.364562 
L 384.058997 266.272296 
L 388.797164 269.990675 
L 389.043302 270.176125 
L 389.104837 197.325597 
L 389.166371 197.444658 
L 393.104588 204.822144 
L 397.104339 211.846915 
L 401.104091 218.429599 
L 405.165377 224.68982 
L 409.288197 230.636059 
L 413.411018 236.196953 
L 417.595373 241.472486 
L 421.841263 246.471217 
L 426.148688 251.201943 
L 430.517647 255.673645 
L 435.009675 259.951967 
L 439.563238 263.981589 
L 443.193782 266.987443 
L 443.255316 194.200068 
L 443.316851 194.322253 
L 447.255068 201.893313 
L 451.254819 209.102402 
L 455.25457 215.857806 
L 459.315856 222.282285 
L 463.377142 228.296438 
L 467.499963 234.008951 
L 471.684318 239.428322 
L 475.930208 244.563344 
L 480.237632 249.423054 
L 484.606592 254.016678 
L 489.037085 258.353586 
L 493.529114 262.443241 
L 495.928965 264.508808 
L 495.990499 191.712602 
L 496.052034 191.837273 
L 499.99025 199.56239 
L 503.990002 206.91817 
L 507.989753 213.811033 
L 512.051039 220.366238 
L 516.112325 226.502767 
L 520.235146 232.331519 
L 524.419501 237.861163 
L 528.665391 243.100673 
L 532.911281 247.990848 
L 537.28024 252.682633 
L 541.710734 257.112215 
L 546.202762 261.289262 
L 547.618059 262.543389 
L 547.679593 189.696958 
L 547.741128 189.823643 
L 551.679345 197.673595 
L 555.617561 205.036888 
L 559.617313 212.048145 
L 563.617064 218.618165 
L 567.67835 224.866342 
L 571.80117 230.801142 
L 575.923991 236.351338 
L 580.108346 241.616721 
L 584.354236 246.605836 
L 588.661661 251.327461 
L 593.03062 255.79056 
L 597.522648 260.060651 
L 598.630272 261.066507 
L 598.691806 188.28662 
L 598.753341 188.414715 
L 602.691558 196.352013 
L 606.629774 203.797238 
L 610.629526 210.886509 
L 614.629277 217.529634 
L 618.690563 223.847335 
L 622.813383 229.848171 
L 626.936204 235.460124 
L 631.120559 240.784095 
L 635.366449 245.828724 
L 639.673874 250.602887 
L 644.042833 255.115647 
L 648.473327 259.37621 
L 648.965604 259.830947 
L 649.027138 187.032431 
L 649.088673 187.16178 
L 653.02689 195.176753 
L 656.965106 202.694839 
L 660.964858 209.853486 
L 664.964609 216.561622 
L 669.025895 222.941149 
L 673.087181 228.913221 
L 677.210001 234.585764 
L 681.394357 239.967215 
L 685.640247 245.066308 
L 689.947671 249.892014 
L 694.31663 254.453497 
L 698.747124 258.760058 
L 698.808659 258.817715 
L 698.870193 185.98785 
L 698.931728 186.118243 
L 702.869945 194.197911 
L 706.808161 201.776679 
L 710.807913 208.993109 
L 714.807664 215.75539 
L 718.86895 222.186411 
L 722.930236 228.206687 
L 727.053056 233.925017 
L 731.237412 239.349905 
L 735.483302 244.490156 
L 739.790726 249.354814 
L 744.159685 253.953115 
L 748.282506 258.002952 
L 748.34404 185.163927 
L 748.405575 185.295143 
L 752.343792 193.425839 
L 756.282008 201.052472 
L 760.28176 208.314478 
L 764.281511 215.119467 
L 768.342797 221.591104 
L 772.404083 227.649402 
L 776.526904 233.403846 
L 780.711259 238.862996 
L 784.957149 244.035711 
L 789.264573 248.931092 
L 793.633532 253.558434 
L 797.44868 257.339052 
L 797.510214 184.500252 
L 797.571749 184.632131 
L 801.509966 192.803931 
L 805.448182 200.469119 
L 809.447934 207.767837 
L 813.447685 214.607227 
L 817.508971 221.11158 
L 821.570257 227.200505 
L 825.693078 232.98404 
L 829.877433 238.470788 
L 834.123323 243.669652 
L 838.430747 248.589781 
L 842.799706 253.240516 
L 846.368715 256.802147 
L 846.43025 183.9793 
L 846.491784 184.1117 
L 850.430001 192.315763 
L 854.368218 200.011216 
L 858.367969 207.33875 
L 862.36772 214.205145 
L 866.429006 220.735178 
L 870.490292 226.848144 
L 874.613113 232.654513 
L 878.797468 238.162924 
L 883.043358 243.382315 
L 887.350783 248.32187 
L 891.719742 252.990967 
L 895.104147 256.386752 
L 895.165681 183.615557 
L 895.227216 183.748321 
L 899.165433 191.974912 
L 903.103649 199.691495 
L 907.103401 207.039151 
L 911.103152 213.9244 
L 915.164438 220.472364 
L 919.225724 226.602115 
L 923.348545 232.424428 
L 927.5329 237.947965 
L 931.77879 243.181688 
L 936.024679 248.066461 
L 940.393639 252.753063 
L 943.59344 255.980455 
L 943.654974 183.182369 
L 943.716509 183.315566 
L 947.654726 191.568986 
L 951.592942 199.310735 
L 955.592694 206.682352 
L 959.592445 213.590055 
L 963.653731 220.159374 
L 967.715017 226.309116 
L 971.714768 231.981657 
L 971.714768 231.981657 
" clip-path="url(#pe99bcd32a8)" style="fill: none; stroke: #ffa514; stroke-width: 4"/>
   </g>
   <g id="line2d_14">
    <path d="M 48.695232 250.171199 
L 53.064191 254.713546 
L 57.494685 259.002043 
L 62.048248 263.099421 
L 66.663345 266.954057 
L 71.401512 270.62191 
L 76.262749 274.102709 
L 81.247054 277.397282 
L 86.354429 280.507466 
L 91.646408 283.469006 
L 97.12299 286.277141 
L 102.784177 288.928826 
L 108.691502 291.447635 
L 114.844965 293.826541 
L 121.244567 296.060769 
L 127.951843 298.16594 
L 135.028326 300.151771 
L 140.135701 301.449585 
L 140.197235 221.97846 
L 140.25877 222.07288 
L 144.320056 228.100408 
L 148.442876 233.825624 
L 152.627232 239.257047 
L 156.873121 244.403489 
L 161.180546 249.274006 
L 165.549505 253.877846 
L 169.979999 258.224397 
L 174.472027 262.323148 
L 179.087125 266.233875 
L 183.825292 269.955101 
L 188.624993 273.44357 
L 193.547764 276.749752 
L 198.655139 279.91151 
L 203.885583 282.88862 
L 206.777711 284.429326 
L 206.839246 204.947799 
L 206.90078 205.059241 
L 210.900532 212.069091 
L 214.900283 218.637793 
L 218.961569 224.884717 
L 223.08439 230.818326 
L 227.20721 236.367408 
L 231.391565 241.631735 
L 235.637455 246.619849 
L 239.94488 251.340526 
L 244.313839 255.80273 
L 248.805867 260.071964 
L 253.35943 264.093027 
L 258.036063 267.924414 
L 262.77423 271.520354 
L 264.312595 272.629571 
L 264.37413 193.169554 
L 264.435665 193.292769 
L 268.373881 200.927652 
L 272.373633 208.197513 
L 276.373384 215.009863 
L 280.43467 221.4885 
L 284.495956 227.553352 
L 288.618777 233.31402 
L 292.803132 238.779075 
L 297.049022 243.957385 
L 301.356446 248.858062 
L 305.725405 253.490409 
L 310.155899 257.863876 
L 314.647928 261.988007 
L 316.678571 263.755791 
L 316.740105 184.336226 
L 316.80164 184.468269 
L 320.739856 192.650227 
L 324.678073 200.324945 
L 328.677824 207.632735 
L 332.677576 214.480628 
L 336.738862 220.993067 
L 340.800148 227.089562 
L 344.922968 232.880286 
L 349.107324 238.373854 
L 353.353213 243.579182 
L 357.660638 248.505427 
L 362.029597 253.161944 
L 365.475537 256.608447 
L 365.537071 177.183677 
L 365.598606 177.32287 
L 369.536823 185.947807 
L 373.475039 194.03804 
L 377.413256 201.62672 
L 381.413007 208.852587 
L 385.412759 215.623712 
L 389.474045 222.063143 
L 393.535331 228.091292 
L 397.658151 233.8171 
L 401.842506 239.249083 
L 406.088396 244.396056 
L 410.395821 249.267075 
L 411.44191 250.399464 
L 411.503444 170.964738 
L 411.564979 171.110146 
L 415.441661 179.983847 
L 419.379878 188.443817 
L 423.318094 196.37931 
L 427.256311 203.822843 
L 431.256062 210.910502 
L 435.255814 217.552117 
L 439.3171 223.868382 
L 443.43992 229.867854 
L 447.562741 235.478532 
L 451.747096 240.801293 
L 454.823828 244.490528 
L 454.885362 165.033008 
L 454.946897 165.184346 
L 458.823579 174.419855 
L 462.700261 183.091477 
L 466.638478 191.358789 
L 470.576695 199.113569 
L 474.576446 206.497595 
L 478.576197 213.416925 
L 482.637483 219.997301 
L 486.698769 226.157395 
L 490.82159 232.008528 
L 495.005945 237.559405 
L 495.805895 238.578294 
L 495.86743 159.131437 
L 495.928965 159.288672 
L 499.805647 168.884151 
L 503.682329 177.893764 
L 507.620545 186.483308 
L 511.558762 194.540343 
L 515.496979 202.097883 
L 519.49673 209.294098 
L 523.496481 216.037438 
L 527.557767 222.450444 
L 531.619053 228.453857 
L 534.511181 232.493804 
L 534.572716 153.063255 
L 534.63425 153.226556 
L 538.510932 163.192167 
L 542.387615 172.549312 
L 546.264297 181.335142 
L 550.202513 189.711338 
L 554.14073 197.568252 
L 558.078947 204.938076 
L 562.078698 211.955551 
L 566.078449 218.531398 
L 570.139735 224.785118 
L 571.062755 226.14977 
L 571.124289 146.729928 
L 571.185824 146.899559 
L 575.062506 157.251474 
L 578.939188 166.971337 
L 582.81587 176.097739 
L 586.692552 184.666915 
L 590.630769 192.836558 
L 594.568986 200.499723 
L 598.568737 207.796515 
L 602.568488 214.634101 
L 605.583685 219.50263 
L 605.64522 140.075857 
L 605.706755 140.252139 
L 609.521902 150.844404 
L 613.398584 160.95546 
L 617.275266 170.449171 
L 621.151948 179.363229 
L 625.090165 187.861673 
L 629.028382 195.833257 
L 632.966598 203.310642 
L 636.96635 210.430536 
L 638.258577 212.633646 
L 638.320112 133.252739 
L 638.381646 133.435841 
L 642.196794 144.437882 
L 646.073476 154.940098 
L 649.950158 164.801086 
L 653.82684 174.059996 
L 657.703522 182.753589 
L 661.641739 191.041848 
L 665.579955 198.816277 
L 669.148964 205.444717 
L 669.210499 126.08014 
L 669.272033 126.27041 
L 673.087181 137.703216 
L 676.902328 148.448715 
L 680.77901 158.706044 
L 684.655692 168.337096 
L 688.532374 177.380109 
L 692.470591 186.001498 
L 696.408808 194.088403 
L 698.377916 197.941861 
L 698.439451 118.568259 
L 698.500985 118.766038 
L 702.316133 130.649985 
L 706.13128 141.819504 
L 710.007962 152.481589 
L 713.884644 162.492685 
L 717.761326 171.892538 
L 721.638008 180.718469 
L 725.576225 189.132895 
L 726.068502 190.147337 
L 726.130037 110.751219 
L 726.191572 110.956811 
L 730.006719 123.310226 
L 733.821866 134.92099 
L 737.637014 145.833748 
L 741.513696 156.250737 
L 745.390378 166.031702 
L 749.26706 175.215475 
L 752.405326 182.237643 
L 752.466861 102.904999 
L 752.528396 103.118433 
L 756.343543 115.943069 
L 760.15869 127.996724 
L 763.973838 139.325749 
L 767.788985 149.973706 
L 771.665667 160.137924 
L 775.542349 169.681551 
L 777.388388 174.019095 
L 777.449923 94.705862 
L 777.511458 94.927491 
L 781.326605 108.244543 
L 785.141753 120.761012 
L 788.9569 132.525027 
L 792.772047 143.581823 
L 796.648729 154.136308 
L 800.525412 164.046372 
L 801.140758 165.562773 
L 801.202293 86.26231 
L 801.263827 86.492379 
L 805.078975 100.316525 
L 808.894122 113.309604 
L 812.709269 125.521576 
L 816.524417 136.999399 
L 820.339564 147.787209 
L 823.723969 156.812958 
L 823.785504 77.48533 
L 823.847038 77.724172 
L 827.662186 92.075437 
L 831.477333 105.563946 
L 835.292481 118.241565 
L 839.107628 130.157042 
L 842.922776 141.356194 
L 845.261092 147.884777 
L 845.322626 68.544454 
L 845.384161 68.792232 
L 849.199308 83.68046 
L 853.014456 97.67365 
L 856.829603 110.825611 
L 860.644751 123.186913 
L 864.459898 134.80509 
L 865.875195 138.935153 
L 865.936729 59.659046 
L 865.998264 59.915704 
L 869.813411 75.337563 
L 873.628559 89.832305 
L 877.443706 103.455664 
L 881.258854 116.260027 
L 885.074001 128.294628 
L 885.504744 129.607089 
L 885.566278 50.304218 
L 885.627813 50.570227 
L 889.44296 66.553909 
L 893.258108 81.576698 
L 897.073255 95.696361 
L 900.888402 108.967191 
L 904.334342 120.266664 
L 904.395877 41.002478 
L 904.457411 41.277784 
L 908.211024 57.561346 
L 912.026172 73.124742 
L 915.841319 87.752512 
L 919.656466 101.500903 
L 922.302456 110.547642 
L 922.36399 31.233461 
L 922.425525 31.518531 
L 926.179138 48.379614 
L 929.932751 64.242912 
L 933.747898 79.404632 
L 937.563045 93.654873 
L 939.593688 100.886993 
L 939.655223 21.603273 
L 939.716758 21.897968 
L 943.47037 39.328365 
L 947.223983 55.727287 
L 951.039131 71.400942 
L 954.854278 86.132342 
L 956.20804 91.143912 
L 956.269575 11.907968 
L 956.331109 12.212353 
L 960.084722 30.215913 
L 963.838335 47.154081 
L 967.591948 63.089903 
L 971.407095 78.320938 
L 971.714768 79.508592 
L 971.714768 79.508592 
" clip-path="url(#pe99bcd32a8)" style="fill: none; stroke: #ffd120; stroke-width: 4"/>
   </g>
  </g>
 </g>
 <defs>
  <clipPath id="pe99bcd32a8">
   <rect x="21.004646" y="2.834646" width="978.400709" height="320.590709"/>
  </clipPath>
 </defs>
</svg>
