<?xml version="1.0" encoding="utf-8" standalone="no"?>
<!DOCTYPE svg PUBLIC "-//W3C//DTD SVG 1.1//EN"
  "http://www.w3.org/Graphics/SVG/1.1/DTD/svg11.dtd">
<svg xmlns:xlink="http://www.w3.org/1999/xlink" width="990.72pt" height="184.32pt" viewBox="0 0 990.72 184.32" xmlns="http://www.w3.org/2000/svg" version="1.1">
 <metadata>
  <rdf:RDF xmlns:dc="http://purl.org/dc/elements/1.1/" xmlns:cc="http://creativecommons.org/ns#" xmlns:rdf="http://www.w3.org/1999/02/22-rdf-syntax-ns#">
   <cc:Work>
    <dc:type rdf:resource="http://purl.org/dc/dcmitype/StillImage"/>
    <dc:date>2024-08-16T13:36:28.628688</dc:date>
    <dc:format>image/svg+xml</dc:format>
    <dc:creator>
     <cc:Agent>
      <dc:title>Matplotlib v3.8.4, https://matplotlib.org/</dc:title>
     </cc:Agent>
    </dc:creator>
   </cc:Work>
  </rdf:RDF>
 </metadata>
 <defs>
  <style type="text/css">*{stroke-linejoin: round; stroke-linecap: butt}</style>
 </defs>
 <g id="figure_1">
  <g id="patch_1">
   <path d="M 0 184.32 
L 990.72 184.32 
L 990.72 0 
L 0 0 
L 0 184.32 
z
" style="fill: none"/>
  </g>
  <g id="axes_1">
   <g id="patch_2">
    <path d="M 41.316477 150.625354 
L 987.885354 150.625354 
L 987.885354 2.834646 
L 41.316477 2.834646 
L 41.316477 150.625354 
z
" style="fill: none"/>
   </g>
   <g id="line2d_1">
    <path d="M 68.106162 69.980415 
L 69.695683 86.677352 
L 72.55325 116.614763 
L 73.874874 127.985137 
L 74.946462 135.384664 
L 75.857311 140.234097 
L 76.643142 143.305051 
L 77.303954 145.079731 
L 77.857607 146.001734 
L 78.321962 146.382959 
L 78.714877 146.430726 
L 79.089933 146.245362 
L 79.518568 145.762638 
L 80.036502 144.803115 
L 80.643735 143.170299 
L 81.358126 140.576825 
L 82.215396 136.561816 
L 83.215544 130.746228 
L 84.44787 122.169677 
L 86.12669 108.751997 
L 90.41304 73.827994 
L 91.823963 64.482906 
L 93.002709 58.076502 
L 94.020717 53.691413 
L 94.913707 50.76412 
L 95.681678 48.943591 
L 96.34249 47.890172 
L 96.914003 47.355481 
L 97.414078 47.167545 
L 97.735554 47.230824 
L 98.02131 47.561923 
L 98.396366 48.394453 
L 98.860721 50.018741 
L 99.450094 52.952618 
L 100.200205 57.92641 
L 101.146774 65.809672 
L 102.486258 79.042459 
L 106.647589 121.44923 
L 107.862055 130.984413 
L 108.880063 137.328848 
L 109.755193 141.476359 
L 110.505304 144.038362 
L 111.130396 145.468022 
L 111.64833 146.169785 
L 112.076965 146.423188 
L 112.452021 146.404843 
L 112.844936 146.148671 
L 113.291431 145.568136 
L 113.827225 144.473528 
L 114.470177 142.60341 
L 115.220288 139.686 
L 116.113278 135.246694 
L 117.167005 128.804717 
L 118.48863 119.246068 
L 120.488926 102.9119 
L 123.59653 77.664544 
L 125.132472 67.055794 
L 126.382657 59.89412 
L 127.454245 54.966822 
L 128.382954 51.658204 
L 129.204504 49.492318 
L 129.918896 48.188685 
L 130.526128 47.498594 
L 131.061922 47.201846 
L 131.490557 47.192405 
L 131.758454 47.432103 
L 132.09779 48.063745 
L 132.544285 49.428177 
L 133.097938 51.902783 
L 133.79447 56.116459 
L 134.68746 63.017316 
L 135.884066 74.189543 
L 138.259418 99.108303 
L 140.134696 117.614094 
L 141.43846 128.397651 
L 142.510048 135.540179 
L 143.438757 140.327686 
L 144.224588 143.312806 
L 144.90326 145.092745 
L 145.474773 146.017577 
L 145.939127 146.385442 
L 146.332043 146.430721 
L 146.707098 146.249028 
L 147.135733 145.775813 
L 147.653667 144.83229 
L 148.2609 143.220108 
L 148.975292 140.648734 
L 149.814702 136.747801 
L 150.81485 130.978747 
L 152.047176 122.481232 
L 153.743856 109.090731 
L 157.976626 75.088042 
L 159.35183 66.140786 
L 160.548436 59.762107 
L 161.620023 55.196 
L 162.584452 52.000265 
L 163.459582 49.825938 
L 164.245412 48.438989 
L 164.924084 47.654679 
L 165.531317 47.266074 
L 166.084971 47.161553 
L 166.370727 47.299915 
L 166.692204 47.729063 
L 167.102979 48.684786 
L 167.620913 50.510571 
L 168.263865 53.675358 
L 169.049696 58.763771 
L 170.014124 66.575574 
L 171.26431 78.669906 
L 173.425344 102.199072 
L 175.407781 122.809141 
L 176.586527 132.894565 
L 177.533096 139.206451 
L 178.301067 142.949988 
L 178.92616 145.014383 
L 179.444094 146.037458 
L 179.837009 146.396672 
L 180.158485 146.42585 
L 180.479962 146.220861 
L 180.855017 145.693161 
L 181.319372 144.625588 
L 181.908745 142.649408 
L 182.623136 139.410087 
L 183.516126 134.250532 
L 184.677012 126.125019 
L 186.355832 112.611651 
L 191.67805 68.63314 
L 192.874656 61.239948 
L 193.928384 56.019779 
L 194.874952 52.384889 
L 195.714363 49.984637 
L 196.464474 48.475655 
L 197.107426 47.643605 
L 197.66108 47.256985 
L 198.161154 47.164347 
L 198.429051 47.321732 
L 198.750527 47.808709 
L 199.161302 48.886881 
L 199.679236 50.936815 
L 200.322188 54.471163 
L 201.125879 60.258778 
L 202.126027 69.222569 
L 203.483371 83.611195 
L 207.555403 128.185183 
L 208.591271 136.490393 
L 209.412822 141.439958 
L 210.091494 144.29517 
L 210.645147 145.749996 
L 211.073782 146.325732 
L 211.395258 146.441979 
L 211.681015 146.320363 
L 212.020351 145.905365 
L 212.431126 145.020305 
L 212.94906 143.332503 
L 213.592012 140.413576 
L 214.395703 135.634745 
L 215.413711 128.129748 
L 216.860354 115.645085 
L 221.46818 74.930038 
L 222.932683 64.315514 
L 224.057849 57.672737 
L 225.004418 53.316899 
L 225.825969 50.49355 
L 226.55822 48.719983 
L 227.183313 47.743358 
L 227.719106 47.285467 
L 228.183461 47.16056 
L 228.433498 47.269497 
L 228.737114 47.696448 
L 229.13003 48.705667 
L 229.630104 50.685348 
L 230.255197 54.150069 
L 231.041027 59.851649 
L 232.041176 68.838243 
L 233.469959 83.915943 
L 237.274094 125.085266 
L 238.399261 134.451197 
L 239.29225 140.17905 
L 240.024502 143.566171 
L 240.613875 145.364426 
L 241.078229 146.174989 
L 241.435425 146.42916 
L 241.739042 146.391966 
L 242.060518 146.100172 
L 242.453433 145.395326 
L 242.935648 144.019466 
L 243.525021 141.607027 
L 244.239412 137.687566 
L 245.132402 131.455068 
L 246.293288 121.647162 
L 248.257865 102.762459 
L 250.615357 80.661538 
L 252.07986 68.972599 
L 253.347905 60.551141 
L 254.401633 54.924677 
L 255.276763 51.355483 
L 256.026874 49.163483 
L 256.651966 47.957498 
L 257.18776 47.36355 
L 257.634255 47.168136 
L 257.937871 47.236543 
L 258.205768 47.580685 
L 258.562964 48.448202 
L 259.027319 50.220443 
L 259.634551 53.516528 
L 260.420382 59.156451 
L 261.43839 68.207607 
L 262.992192 84.277038 
L 266.296253 118.849771 
L 267.600018 130.002259 
L 268.635886 137.101451 
L 269.493156 141.576256 
L 270.207547 144.237865 
L 270.79692 145.661324 
L 271.261275 146.276087 
L 271.63633 146.44207 
L 271.957807 146.348289 
L 272.315002 145.989099 
L 272.743637 145.206821 
L 273.261571 143.759831 
L 273.886664 141.308136 
L 274.636775 137.411679 
L 275.547624 131.432785 
L 276.708511 122.21015 
L 278.405191 106.719092 
L 281.548514 77.920567 
L 282.995157 66.819343 
L 284.209623 59.105156 
L 285.227631 53.957964 
L 286.084901 50.697856 
L 286.799292 48.788087 
L 287.406525 47.747885 
L 287.906599 47.284618 
L 288.335234 47.160556 
L 288.567411 47.265768 
L 288.853168 47.682055 
L 289.228224 48.678102 
L 289.710438 50.643756 
L 290.35339 54.306264 
L 291.192801 60.538535 
L 292.300108 70.532952 
L 294.300404 90.988798 
L 296.675756 114.637808 
L 298.104539 126.721193 
L 299.247566 134.632162 
L 300.211995 139.865511 
L 301.015685 143.113612 
L 301.694357 145.020053 
L 302.248011 145.988225 
L 302.694505 146.377771 
L 303.069561 146.432985 
L 303.426757 146.254427 
L 303.837532 145.771431 
L 304.319746 144.829376 
L 304.909119 143.139361 
L 305.605651 140.407188 
L 306.427202 136.228526 
L 307.42735 129.900556 
L 308.677535 120.44719 
L 310.499234 104.770141 
L 313.928313 75.181601 
L 315.410676 64.392615 
L 316.571562 57.470428 
L 317.518131 53.071818 
L 318.321822 50.296072 
L 319.036213 48.577598 
L 319.643446 47.657664 
L 320.16138 47.249444 
L 320.607875 47.167486 
L 320.857912 47.338881 
L 321.179388 47.882392 
L 321.590163 49.069706 
L 322.125957 51.365704 
L 322.804629 55.315001 
L 323.715478 62.059148 
L 324.983524 73.306127 
L 327.84109 101.314795 
L 329.752088 118.660035 
L 331.127291 129.225271 
L 332.252458 136.255531 
L 333.199027 140.854787 
L 333.984858 143.671315 
L 334.64567 145.296109 
L 335.199324 146.1174 
L 335.645818 146.415174 
L 336.020874 146.412136 
L 336.395929 146.177922 
L 336.824564 145.628634 
L 337.342498 144.569014 
L 337.967591 142.726874 
L 338.699842 139.818514 
L 339.574972 135.357199 
L 340.6287 128.733246 
L 341.950324 118.889977 
L 343.897041 102.500227 
L 347.39756 72.967608 
L 348.754904 63.457581 
L 349.862211 57.186475 
L 350.80878 53.03019 
L 351.63033 50.347431 
L 352.362582 48.66594 
L 352.987675 47.737593 
L 353.541328 47.285794 
L 354.023542 47.160603 
L 354.291439 47.272328 
L 354.595056 47.680754 
L 354.987971 48.625796 
L 355.505905 50.525818 
L 356.166717 53.895407 
L 356.988268 59.298221 
L 358.113434 68.314402 
L 359.774395 83.613775 
L 363.489231 118.161068 
L 364.918014 129.152472 
L 366.061041 136.307695 
L 367.00761 140.913023 
L 367.793441 143.727891 
L 368.454253 145.341986 
L 368.990046 146.128013 
L 369.418681 146.413943 
L 369.793737 146.412468 
L 370.168793 146.176162 
L 370.597428 145.620289 
L 371.115362 144.54755 
L 371.740454 142.684083 
L 372.472706 139.747326 
L 373.347835 135.255482 
L 374.401563 128.612971 
L 375.741047 118.646605 
L 377.723484 102.006764 
L 381.152564 73.173622 
L 382.492048 63.918742 
L 383.599355 57.733157 
L 384.563783 53.526961 
L 385.421053 50.716896 
L 386.171165 48.95351 
L 386.849837 47.890677 
L 387.43921 47.356235 
L 387.957144 47.168127 
L 388.29648 47.23131 
L 388.600096 47.574661 
L 388.975152 48.370569 
L 389.457366 49.952705 
L 390.082459 52.839676 
L 390.868289 57.613214 
L 391.886297 65.290394 
L 393.297221 77.829017 
L 398.655158 127.264157 
L 399.816044 135.167405 
L 400.780473 140.302343 
L 401.584163 143.455533 
L 402.244976 145.223509 
L 402.780769 146.08878 
L 403.209404 146.407845 
L 403.5666 146.418904 
L 403.923796 146.198769 
L 404.334571 145.66224 
L 404.834645 144.607041 
L 405.441878 142.751518 
L 406.17413 139.723255 
L 407.049259 135.076511 
L 408.120847 128.097049 
L 409.51391 117.446221 
L 411.746384 98.424337 
L 414.63967 74.117048 
L 415.997014 64.602579 
L 417.104321 58.301811 
L 418.08661 53.915983 
L 418.961739 50.967128 
L 419.72971 49.101401 
L 420.408382 47.988086 
L 421.015615 47.396293 
L 421.533549 47.177507 
L 421.908605 47.213886 
L 422.194361 47.505364 
L 422.569417 48.25514 
L 423.051631 49.789709 
L 423.658864 52.54992 
L 424.408975 57.064232 
L 425.355544 64.183313 
L 426.641449 75.694769 
L 428.909642 98.460584 
L 431.142116 120.047172 
L 432.463741 130.789399 
L 433.517468 137.656095 
L 434.374738 141.897782 
L 435.08913 144.409176 
L 435.678503 145.739811 
L 436.142857 146.302998 
L 436.517913 146.442595 
L 436.857249 146.326261 
L 437.232305 145.931566 
L 437.678799 145.10322 
L 438.232453 143.550745 
L 438.893265 140.975502 
L 439.696956 136.875065 
L 440.679244 130.625682 
L 441.965149 120.881481 
L 444.019025 103.32748 
L 447.412385 74.479149 
L 448.805449 64.536412 
L 449.912756 58.122845 
L 450.877184 53.749448 
L 451.734454 50.824637 
L 452.502425 48.955566 
L 453.163237 47.891118 
L 453.734751 47.356646 
L 454.234825 47.168362 
L 454.574161 47.235925 
L 454.859917 47.56718 
L 455.234973 48.382349 
L 455.717187 50.021821 
L 456.32442 52.941968 
L 457.092391 57.816397 
L 458.07468 65.603051 
L 459.396304 78.009305 
L 464.664942 129.494095 
L 465.73653 136.909088 
L 466.611659 141.520707 
L 467.326051 144.206491 
L 467.915424 145.645619 
L 468.379779 146.269608 
L 468.754834 146.44167 
L 469.07631 146.352871 
L 469.433506 146.000006 
L 469.862141 145.228268 
L 470.380075 143.802196 
L 471.023028 141.315828 
L 471.790999 137.389017 
L 472.737567 131.308255 
L 473.952033 121.958347 
L 475.88089 105.123116 
L 479.042073 77.676699 
L 480.613735 65.920001 
L 481.774621 58.799177 
L 482.75691 54.069372 
L 483.61418 50.967001 
L 484.364291 49.030281 
L 485.025103 47.904078 
L 485.578757 47.360015 
L 486.060971 47.168762 
L 486.382447 47.22834 
L 486.668204 47.560561 
L 487.043259 48.395353 
L 487.525474 50.085357 
L 488.132707 53.100399 
L 488.900678 58.123015 
L 489.900826 66.268647 
L 491.27603 79.46369 
L 495.973154 126.081638 
L 497.134041 134.728737 
L 498.06275 140.111947 
L 498.830721 143.383606 
L 499.473673 145.236409 
L 499.991607 146.117028 
L 500.402382 146.419779 
L 500.741718 146.404373 
L 501.081054 146.149306 
L 501.49183 145.522819 
L 501.991904 144.299556 
L 502.599137 142.158795 
L 503.331388 138.682387 
L 504.206518 133.382439 
L 505.313825 125.218466 
L 506.867626 111.942173 
L 511.189696 74.23621 
L 512.654198 63.724842 
L 513.779365 57.166039 
L 514.708074 52.965901 
L 515.511765 50.267069 
L 516.226156 48.590774 
L 516.833389 47.6826 
L 517.351323 47.266684 
L 517.815678 47.162423 
L 518.065715 47.302943 
L 518.369331 47.762752 
L 518.762247 48.801025 
L 519.280181 50.868105 
L 519.940993 54.519646 
L 520.780403 60.513225 
L 521.88771 70.141601 
L 523.56653 86.884652 
L 526.709853 118.319919 
L 528.067197 129.591748 
L 529.138785 136.773125 
L 530.031774 141.362529 
L 530.764026 144.074384 
L 531.371258 145.559748 
L 531.853473 146.229951 
L 532.246388 146.437629 
L 532.585724 146.371363 
L 532.94292 146.056258 
L 533.371555 145.34898 
L 533.889489 144.024385 
L 534.514582 141.76523 
L 535.264693 138.160679 
L 536.175542 132.613833 
L 537.318569 124.172524 
L 538.943809 110.311228 
L 543.051561 74.611727 
L 544.516064 64.038032 
L 545.641231 57.411881 
L 546.5878 53.078338 
L 547.40935 50.293371 
L 548.123742 48.60605 
L 548.730974 47.690857 
L 549.248908 47.27004 
L 549.713263 47.16176 
L 549.9633 47.296729 
L 550.266916 47.749957 
L 550.659832 48.779073 
L 551.177766 50.831262 
L 551.838578 54.455692 
L 552.677988 60.39522 
L 553.803155 70.077083 
L 555.535555 87.133373 
L 558.625298 117.500913 
L 560.018362 128.932684 
L 561.125669 136.298833 
L 562.036518 140.982253 
L 562.804489 143.857769 
L 563.429582 145.427161 
L 563.947516 146.184943 
L 564.358291 146.430495 
L 564.697627 146.394839 
L 565.054823 146.124456 
L 565.483458 145.487053 
L 566.001392 144.268835 
L 566.626484 142.166158 
L 567.376595 138.781396 
L 568.269585 133.643977 
L 569.376892 125.874612 
L 570.877114 113.604743 
L 576.199332 68.617995 
L 577.449517 60.448498 
L 578.467525 55.156574 
L 579.342655 51.686457 
L 580.110626 49.473835 
L 580.771438 48.176662 
L 581.360811 47.473054 
L 581.860885 47.194766 
L 582.253801 47.196246 
L 582.521697 47.451927 
L 582.878893 48.157897 
L 583.343248 49.653434 
L 583.932621 52.390699 
L 584.682732 57.030815 
L 585.665021 64.639572 
L 587.004505 76.885309 
L 592.112405 125.358877 
L 593.309011 133.899455 
L 594.291299 139.435808 
L 595.112849 142.903296 
L 595.791522 144.905272 
L 596.345175 145.934771 
L 596.79167 146.360871 
L 597.166725 146.437273 
L 597.523921 146.270722 
L 597.916837 145.819111 
L 598.399051 144.885264 
L 598.970564 143.249801 
L 599.667096 140.515367 
L 600.488646 136.322286 
L 601.488795 129.983948 
L 602.774699 120.279215 
L 604.739276 103.505474 
L 608.132637 74.591364 
L 609.56142 64.312974 
L 610.686586 57.744307 
L 611.651015 53.36699 
L 612.490425 50.530633 
L 613.222677 48.78305 
L 613.865629 47.78409 
L 614.419283 47.305565 
L 614.901497 47.161519 
L 615.187254 47.260477 
L 615.49087 47.658572 
L 615.883785 48.597468 
L 616.38386 50.427294 
L 617.026812 53.703222 
L 617.848362 59.149447 
L 618.93781 68.028584 
L 620.545191 83.235655 
L 624.367186 120.045276 
L 625.70667 130.547926 
L 626.778257 137.317091 
L 627.671247 141.638526 
L 628.403498 144.193253 
L 629.010731 145.596057 
L 629.510805 146.248776 
L 629.903721 146.438685 
L 630.243057 146.373107 
L 630.618112 146.053747 
L 631.064607 145.338803 
L 631.600401 144.010093 
L 632.243353 141.762598 
L 633.011324 138.204226 
L 633.940033 132.766399 
L 635.10092 124.538909 
L 636.690441 111.532653 
L 641.762621 68.933438 
L 643.048526 60.470289 
L 644.102254 54.927009 
L 644.995243 51.347391 
L 645.745355 49.180562 
L 646.388307 47.946267 
L 646.924101 47.356553 
L 647.370595 47.166207 
L 647.656352 47.23747 
L 647.924249 47.592743 
L 648.281445 48.500887 
L 648.745799 50.384364 
L 649.335172 53.824327 
L 650.085284 59.67343 
L 651.067572 69.280361 
L 652.549935 86.284319 
L 655.246763 117.316825 
L 656.461229 128.697992 
L 657.461377 136.132028 
L 658.318647 140.94053 
L 659.033038 143.799858 
L 659.640271 145.406822 
L 660.140345 146.170763 
L 660.551121 146.428783 
L 660.890457 146.397191 
L 661.247652 146.131398 
L 661.676287 145.507951 
L 662.194221 144.331043 
L 662.837174 142.264059 
L 663.605145 138.988766 
L 664.533854 133.990449 
L 665.67688 126.529548 
L 667.105664 115.642422 
L 669.284558 97.094562 
L 672.017106 74.194151 
L 673.428029 64.205205 
L 674.571056 57.592514 
L 675.553344 53.140971 
L 676.392754 50.300385 
L 677.107146 48.599734 
L 677.714379 47.672779 
L 678.232313 47.254035 
L 678.660948 47.163557 
L 678.910985 47.320538 
L 679.214601 47.82431 
L 679.607517 48.966316 
L 680.107591 51.170021 
L 680.750543 55.121392 
L 681.554234 61.562521 
L 682.643681 72.298871 
L 684.501099 93.295583 
L 686.662134 116.941632 
L 687.930179 128.416881 
L 688.966047 135.873978 
L 689.841176 140.665886 
L 690.591288 143.627706 
L 691.21638 145.28396 
L 691.734314 146.103813 
L 692.162949 146.411513 
L 692.520145 146.417316 
L 692.895201 146.184468 
L 693.323835 145.62746 
L 693.841769 144.555845 
L 694.466862 142.710625 
L 695.216973 139.753566 
L 696.109963 135.27123 
L 697.18155 128.679411 
L 698.485315 119.188679 
L 700.289154 104.252672 
L 703.914691 73.948493 
L 705.307755 64.322235 
L 706.468641 57.761144 
L 707.468789 53.32179 
L 708.326059 50.462632 
L 709.058311 48.724842 
L 709.683403 47.753515 
L 710.219197 47.290991 
L 710.683552 47.160646 
L 710.933589 47.262535 
L 711.219345 47.651706 
L 711.594401 48.587958 
L 712.076615 50.463157 
L 712.683848 53.806386 
L 713.451819 59.396203 
L 714.451967 68.470519 
L 715.91647 84.031886 
L 719.041933 117.618573 
L 720.309978 128.654862 
L 721.345846 135.859297 
L 722.238836 140.611783 
L 723.006807 143.574006 
L 723.649759 145.24815 
L 724.185553 146.087836 
L 724.614188 146.402344 
L 724.989243 146.422289 
L 725.364299 146.209161 
L 725.792934 145.687163 
L 726.310868 144.672552 
L 726.935961 142.911222 
L 727.668212 140.141516 
L 728.543342 135.90299 
L 729.579209 129.71074 
L 730.847255 120.674798 
L 732.579654 106.553714 
L 736.490948 74.21228 
L 737.901872 64.624263 
L 739.080618 58.058877 
L 740.098626 53.585258 
L 740.973756 50.673998 
L 741.723867 48.877604 
L 742.384679 47.827599 
L 742.938333 47.325742 
L 743.420547 47.163273 
L 743.706303 47.24077 
L 743.99206 47.5931 
L 744.367116 48.466154 
L 744.83147 50.159075 
L 745.438703 53.312028 
L 746.188814 58.491312 
L 747.153243 66.824328 
L 748.546307 81.039573 
L 752.225423 119.507247 
L 753.475609 129.83539 
L 754.511477 136.641175 
L 755.386606 141.029178 
L 756.136717 143.761576 
L 756.77967 145.342501 
L 757.315464 146.127755 
L 757.744099 146.412602 
L 758.119154 146.415625 
L 758.49421 146.192965 
L 758.940704 145.639644 
L 759.458638 144.615321 
L 760.083731 142.850333 
L 760.815982 140.08036 
L 761.691112 135.838667 
L 762.72698 129.635827 
L 763.995025 120.596309 
L 765.781004 106.088772 
L 769.49584 75.628782 
L 770.942483 65.750753 
L 772.156949 58.907712 
L 773.192817 54.25907 
L 774.103666 51.127414 
L 774.889497 49.157916 
L 775.568169 48.001467 
L 776.157542 47.400211 
L 776.675476 47.174304 
L 777.032672 47.223738 
L 777.318429 47.545797 
L 777.675624 48.319431 
L 778.139979 49.9103 
L 778.729352 52.809864 
L 779.461603 57.620777 
L 780.408172 65.45455 
L 781.694077 78.103582 
L 786.051866 122.450033 
L 787.230612 131.564245 
L 788.23076 137.694994 
L 789.08803 141.683092 
L 789.820282 144.136283 
L 790.445374 145.531571 
L 790.963308 146.203435 
L 791.391943 146.431429 
L 791.766999 146.390537 
L 792.159914 146.110625 
L 792.624269 145.472572 
L 793.177922 144.286521 
L 793.820875 142.34643 
L 794.588846 139.271191 
L 795.499695 134.626947 
L 796.589142 127.816176 
L 797.964346 117.680274 
L 800.1611 99.541134 
L 802.857928 77.711718 
L 804.376011 67.189825 
L 805.626196 59.990002 
L 806.697783 55.032868 
L 807.644352 51.646699 
L 808.465903 49.479771 
L 809.180294 48.17795 
L 809.787527 47.491324 
L 810.323321 47.198988 
L 810.751956 47.197723 
L 811.037712 47.472582 
L 811.394908 48.181509 
L 811.841403 49.611264 
L 812.412916 52.258006 
L 813.127308 56.714099 
L 814.038157 63.924961 
L 815.270483 75.630183 
L 820.306943 125.584363 
L 821.43211 133.641122 
L 822.396539 139.056369 
L 823.235949 142.580248 
L 823.950341 144.687076 
L 824.539714 145.805679 
L 825.021928 146.306845 
L 825.432703 146.442583 
L 825.807759 146.335177 
L 826.218534 145.967311 
L 826.700748 145.206835 
L 827.272262 143.855551 
L 827.950934 141.636284 
L 828.754624 138.186496 
L 829.701193 133.07255 
L 830.84422 125.596221 
L 832.344442 114.185913 
L 838.041715 69.284231 
L 839.34548 61.500465 
L 840.470646 56.059173 
L 841.452935 52.349806 
L 842.310205 49.929242 
L 843.060316 48.437011 
L 843.703269 47.617174 
L 844.256922 47.243625 
L 844.739136 47.167885 
L 845.007033 47.343007 
L 845.328509 47.853681 
L 845.739285 48.963611 
L 846.257218 51.049941 
L 846.918031 54.719101 
L 847.757441 60.771652 
L 848.846888 70.408818 
L 850.561428 87.891586 
L 853.347555 116.08937 
L 854.687039 127.338915 
L 855.794346 134.870914 
L 856.740915 139.875745 
L 857.544606 143.031363 
L 858.241138 144.938096 
L 858.812651 145.926255 
L 859.294865 146.357871 
L 859.687781 146.439444 
L 860.062836 146.293135 
L 860.491471 145.860665 
L 860.991545 145.003614 
L 861.580918 143.516148 
L 862.27745 141.113606 
L 863.099001 137.429711 
L 864.081289 131.928135 
L 865.277895 123.874226 
L 866.903136 111.275772 
L 871.6717 73.344568 
L 873.082623 64.331831 
L 874.279229 58.05144 
L 875.315097 53.733706 
L 876.225946 50.832553 
L 877.011777 49.010679 
L 877.708309 47.919094 
L 878.297682 47.372751 
L 878.815616 47.171246 
L 879.172812 47.229344 
L 879.458568 47.548299 
L 879.833624 48.347804 
L 880.297979 49.906243 
L 880.887352 52.72127 
L 881.637463 57.497859 
L 882.584032 65.083944 
L 883.905656 77.688568 
L 888.459903 122.736365 
L 889.656509 131.704824 
L 890.674517 137.764947 
L 891.549646 141.727067 
L 892.299757 144.174084 
L 892.92485 145.536366 
L 893.442784 146.199003 
L 893.871419 146.42936 
L 894.246475 146.396242 
L 894.63939 146.128541 
L 895.085885 145.537992 
L 895.621678 144.433316 
L 896.264631 142.551152 
L 897.014742 139.618783 
L 897.907732 135.165943 
L 898.979319 128.611117 
L 900.336663 118.823937 
L 902.479838 101.485545 
L 905.373124 78.402708 
L 906.926926 67.780454 
L 908.194971 60.546523 
L 909.302278 55.445257 
L 910.266706 51.985752 
L 911.106117 49.736573 
L 911.856228 48.326532 
L 912.49918 47.561754 
L 913.052834 47.224365 
L 913.517188 47.174761 
L 913.785085 47.369431 
L 914.124421 47.935557 
L 914.553056 49.138633 
L 915.106709 51.446402 
L 915.785382 55.318163 
L 916.642651 61.599638 
L 917.767818 71.622107 
L 919.625236 90.524505 
L 922.107747 115.340896 
L 923.465091 126.745768 
L 924.590258 134.44038 
L 925.554687 139.59013 
L 926.376237 142.862416 
L 927.072769 144.814489 
L 927.662142 145.87275 
L 928.144356 146.334194 
L 928.555131 146.441534 
L 928.930187 146.311368 
L 929.340962 145.920937 
L 929.823177 145.135662 
L 930.39469 143.755809 
L 931.073362 141.502976 
L 931.877052 138.016567 
L 932.841481 132.766124 
L 934.020227 125.017529 
L 935.591889 113.060549 
L 940.878387 71.602938 
L 942.253591 63.162701 
L 943.414477 57.328917 
L 944.450345 53.212896 
L 945.343334 50.519196 
L 946.129165 48.807892 
L 946.807837 47.821306 
L 947.39721 47.326959 
L 947.915144 47.163623 
L 948.23662 47.251957 
L 948.540237 47.625637 
L 948.933152 48.52142 
L 949.433226 50.297341 
L 950.058319 53.434437 
L 950.84415 58.638461 
L 951.826438 66.724607 
L 953.255221 80.552931 
L 957.166515 119.405979 
L 958.43456 129.418273 
L 959.506148 136.227155 
L 960.416997 140.699056 
L 961.095669 143.209383 
L 961.095669 143.209383 
" clip-path="url(#pc259a1d46e)" style="fill: none; stroke: #2477d0; stroke-width: 4"/>
   </g>
   <g id="matplotlib.axis_1">
    <g id="xtick_1">
     <g id="line2d_2">
      <defs>
       <path id="mf9bdc7fbba" d="M 0 0 
L 0 -5 
" style="stroke: #000000"/>
      </defs>
      <g>
       <use xlink:href="#mf9bdc7fbba" x="68.106162" y="150.625354" style="stroke: #000000"/>
      </g>
     </g>
     <g id="text_1">
      <!-- $0$ -->
      <g transform="translate(61.106162 175.400979) scale(0.28 -0.28)">
       <defs>
        <path id="Cmr10-30" d="M 1600 -141 
Q 816 -141 533 504 
Q 250 1150 250 2041 
Q 250 2597 351 3087 
Q 453 3578 754 3920 
Q 1056 4263 1600 4263 
Q 2022 4263 2290 4056 
Q 2559 3850 2700 3523 
Q 2841 3197 2892 2823 
Q 2944 2450 2944 2041 
Q 2944 1491 2842 1011 
Q 2741 531 2444 195 
Q 2147 -141 1600 -141 
z
M 1600 25 
Q 1956 25 2131 390 
Q 2306 756 2347 1200 
Q 2388 1644 2388 2144 
Q 2388 2625 2347 3031 
Q 2306 3438 2132 3767 
Q 1959 4097 1600 4097 
Q 1238 4097 1063 3765 
Q 888 3434 847 3029 
Q 806 2625 806 2144 
Q 806 1788 823 1472 
Q 841 1156 916 820 
Q 991 484 1158 254 
Q 1325 25 1600 25 
z
" transform="scale(0.015625)"/>
       </defs>
       <use xlink:href="#Cmr10-30" transform="translate(0 0.390625)"/>
      </g>
     </g>
    </g>
    <g id="xtick_2">
     <g id="line2d_3">
      <g>
       <use xlink:href="#mf9bdc7fbba" x="246.704063" y="150.625354" style="stroke: #000000"/>
      </g>
     </g>
     <g id="text_2">
      <!-- $5$ -->
      <g transform="translate(239.704063 175.400979) scale(0.28 -0.28)">
       <defs>
        <path id="Cmr10-35" d="M 556 728 
Q 622 541 758 387 
Q 894 234 1080 148 
Q 1266 63 1466 63 
Q 1928 63 2103 422 
Q 2278 781 2278 1294 
Q 2278 1516 2270 1667 
Q 2263 1819 2228 1959 
Q 2169 2184 2020 2353 
Q 1872 2522 1656 2522 
Q 1441 2522 1286 2456 
Q 1131 2391 1034 2303 
Q 938 2216 863 2119 
Q 788 2022 769 2016 
L 697 2016 
Q 681 2016 657 2036 
Q 634 2056 634 2075 
L 634 4213 
Q 634 4228 654 4245 
Q 675 4263 697 4263 
L 716 4263 
Q 1147 4056 1631 4056 
Q 2106 4056 2547 4263 
L 2566 4263 
Q 2588 4263 2606 4247 
Q 2625 4231 2625 4213 
L 2625 4153 
Q 2625 4122 2613 4122 
Q 2394 3831 2064 3668 
Q 1734 3506 1381 3506 
Q 1125 3506 856 3578 
L 856 2369 
Q 1069 2541 1236 2614 
Q 1403 2688 1663 2688 
Q 2016 2688 2295 2484 
Q 2575 2281 2725 1954 
Q 2875 1628 2875 1288 
Q 2875 903 2686 575 
Q 2497 247 2172 53 
Q 1847 -141 1466 -141 
Q 1150 -141 886 21 
Q 622 184 470 459 
Q 319 734 319 1044 
Q 319 1188 412 1278 
Q 506 1369 647 1369 
Q 788 1369 883 1276 
Q 978 1184 978 1044 
Q 978 906 883 811 
Q 788 716 647 716 
Q 625 716 597 720 
Q 569 725 556 728 
z
" transform="scale(0.015625)"/>
       </defs>
       <use xlink:href="#Cmr10-35" transform="translate(0 0.390625)"/>
      </g>
     </g>
    </g>
    <g id="xtick_3">
     <g id="line2d_4">
      <g>
       <use xlink:href="#mf9bdc7fbba" x="425.301965" y="150.625354" style="stroke: #000000"/>
      </g>
     </g>
     <g id="text_3">
      <!-- $10$ -->
      <g transform="translate(411.301965 175.400979) scale(0.28 -0.28)">
       <defs>
        <path id="Cmr10-31" d="M 594 0 
L 594 225 
Q 1394 225 1394 428 
L 1394 3788 
Q 1063 3628 556 3628 
L 556 3853 
Q 1341 3853 1741 4263 
L 1831 4263 
Q 1853 4263 1873 4245 
Q 1894 4228 1894 4206 
L 1894 428 
Q 1894 225 2694 225 
L 2694 0 
L 594 0 
z
" transform="scale(0.015625)"/>
       </defs>
       <use xlink:href="#Cmr10-31" transform="translate(0 0.390625)"/>
       <use xlink:href="#Cmr10-30" transform="translate(50 0.390625)"/>
      </g>
     </g>
    </g>
    <g id="xtick_4">
     <g id="line2d_5">
      <g>
       <use xlink:href="#mf9bdc7fbba" x="603.899866" y="150.625354" style="stroke: #000000"/>
      </g>
     </g>
     <g id="text_4">
      <!-- $15$ -->
      <g transform="translate(589.899866 175.400979) scale(0.28 -0.28)">
       <use xlink:href="#Cmr10-31" transform="translate(0 0.390625)"/>
       <use xlink:href="#Cmr10-35" transform="translate(50 0.390625)"/>
      </g>
     </g>
    </g>
    <g id="xtick_5">
     <g id="line2d_6">
      <g>
       <use xlink:href="#mf9bdc7fbba" x="782.497768" y="150.625354" style="stroke: #000000"/>
      </g>
     </g>
     <g id="text_5">
      <!-- $20$ -->
      <g transform="translate(768.497768 175.400979) scale(0.28 -0.28)">
       <defs>
        <path id="Cmr10-32" d="M 319 0 
L 319 172 
Q 319 188 331 206 
L 1325 1306 
Q 1550 1550 1690 1715 
Q 1831 1881 1968 2097 
Q 2106 2313 2186 2536 
Q 2266 2759 2266 3009 
Q 2266 3272 2169 3511 
Q 2072 3750 1880 3894 
Q 1688 4038 1416 4038 
Q 1138 4038 916 3870 
Q 694 3703 603 3438 
Q 628 3444 672 3444 
Q 816 3444 917 3347 
Q 1019 3250 1019 3097 
Q 1019 2950 917 2848 
Q 816 2747 672 2747 
Q 522 2747 420 2851 
Q 319 2956 319 3097 
Q 319 3338 409 3548 
Q 500 3759 670 3923 
Q 841 4088 1055 4175 
Q 1269 4263 1509 4263 
Q 1875 4263 2190 4108 
Q 2506 3953 2690 3670 
Q 2875 3388 2875 3009 
Q 2875 2731 2753 2481 
Q 2631 2231 2440 2026 
Q 2250 1822 1953 1562 
Q 1656 1303 1563 1216 
L 838 519 
L 1453 519 
Q 1906 519 2211 526 
Q 2516 534 2534 550 
Q 2609 631 2688 1141 
L 2875 1141 
L 2694 0 
L 319 0 
z
" transform="scale(0.015625)"/>
       </defs>
       <use xlink:href="#Cmr10-32" transform="translate(0 0.390625)"/>
       <use xlink:href="#Cmr10-30" transform="translate(50 0.390625)"/>
      </g>
     </g>
    </g>
    <g id="xtick_6">
     <g id="line2d_7">
      <g>
       <use xlink:href="#mf9bdc7fbba" x="961.095669" y="150.625354" style="stroke: #000000"/>
      </g>
     </g>
     <g id="text_6">
      <!-- $25$ -->
      <g transform="translate(947.095669 175.400979) scale(0.28 -0.28)">
       <use xlink:href="#Cmr10-32" transform="translate(0 0.390625)"/>
       <use xlink:href="#Cmr10-35" transform="translate(50 0.390625)"/>
      </g>
     </g>
    </g>
   </g>
   <g id="matplotlib.axis_2">
    <g id="ytick_1">
     <g id="line2d_8">
      <defs>
       <path id="mac4529e594" d="M 0 0 
L 5 0 
" style="stroke: #000000"/>
      </defs>
      <g>
       <use xlink:href="#mac4529e594" x="41.316477" y="146.442598" style="stroke: #000000"/>
      </g>
     </g>
     <g id="text_7">
      <!-- $-1$ -->
      <g transform="translate(1.976477 157.080411) scale(0.28 -0.28)">
       <defs>
        <path id="Cmsy10-a1" d="M 653 1472 
Q 600 1472 565 1512 
Q 531 1553 531 1600 
Q 531 1647 565 1687 
Q 600 1728 653 1728 
L 4325 1728 
Q 4375 1728 4408 1687 
Q 4441 1647 4441 1600 
Q 4441 1553 4408 1512 
Q 4375 1472 4325 1472 
L 653 1472 
z
" transform="scale(0.015625)"/>
       </defs>
       <use xlink:href="#Cmsy10-a1" transform="translate(0 0.390625)"/>
       <use xlink:href="#Cmr10-31" transform="translate(77.685547 0.390625)"/>
      </g>
     </g>
    </g>
    <g id="ytick_2">
     <g id="line2d_9">
      <g>
       <use xlink:href="#mac4529e594" x="41.316477" y="96.801575" style="stroke: #000000"/>
      </g>
     </g>
     <g id="text_8">
      <!-- $0$ -->
      <g transform="translate(23.816477 107.439387) scale(0.28 -0.28)">
       <use xlink:href="#Cmr10-30" transform="translate(0 0.390625)"/>
      </g>
     </g>
    </g>
    <g id="ytick_3">
     <g id="line2d_10">
      <g>
       <use xlink:href="#mac4529e594" x="41.316477" y="47.160551" style="stroke: #000000"/>
      </g>
     </g>
     <g id="text_9">
      <!-- $1$ -->
      <g transform="translate(23.816477 57.798364) scale(0.28 -0.28)">
       <use xlink:href="#Cmr10-31" transform="translate(0 0.390625)"/>
      </g>
     </g>
    </g>
   </g>
   <g id="line2d_11">
    <path d="M 68.106162 47.160551 
L 68.445498 47.267518 
L 68.820554 47.634056 
L 69.267048 48.407635 
L 69.802842 49.811729 
L 70.445794 52.160997 
L 71.213765 55.867566 
L 72.124615 61.425469 
L 73.231922 69.638828 
L 74.678565 82.175303 
L 79.947203 129.547807 
L 81.05451 136.731605 
L 81.965359 141.284099 
L 82.71547 144.003346 
L 83.340563 145.512946 
L 83.840637 146.208884 
L 84.251412 146.434916 
L 84.590748 146.385265 
L 84.947944 146.102166 
L 85.376579 145.451905 
L 85.894513 144.22052 
L 86.519606 142.102144 
L 87.251857 138.781595 
L 88.126987 133.716384 
L 89.180714 126.231594 
L 90.520199 115.003132 
L 92.681233 94.681275 
L 95.092305 72.600362 
L 96.431789 62.300576 
L 97.485517 55.788328 
L 98.360646 51.661837 
L 99.092898 49.197406 
L 99.682271 47.905112 
L 100.164485 47.319757 
L 100.557401 47.160965 
L 100.896737 47.254629 
L 101.271792 47.606531 
L 101.718287 48.362881 
L 102.254081 49.746753 
L 102.897033 52.072692 
L 103.665004 55.753216 
L 104.575853 61.283538 
L 105.68316 69.469361 
L 107.111944 81.818053 
L 112.469881 129.909592 
L 113.559328 136.916124 
L 114.470177 141.421669 
L 115.220288 144.098984 
L 115.845381 145.572065 
L 116.345455 146.238139 
L 116.738371 146.437187 
L 117.077707 146.378323 
L 117.452762 146.064727 
L 117.881397 145.388942 
L 118.399331 144.127311 
L 119.024424 141.973702 
L 119.774535 138.521589 
L 120.667524 133.275261 
L 121.739112 125.561922 
L 123.114316 113.910002 
L 125.471808 91.633355 
L 127.650702 71.882086 
L 128.972327 61.832649 
L 130.026054 55.422895 
L 130.883324 51.462821 
L 131.597716 49.109918 
L 132.187089 47.852259 
L 132.669303 47.295774 
L 133.044359 47.16059 
L 133.383695 47.263464 
L 133.758751 47.625499 
L 134.205245 48.393779 
L 134.741039 49.791653 
L 135.383991 52.133747 
L 136.151962 55.832309 
L 137.062812 61.381735 
L 138.170119 69.586636 
L 139.616762 82.115704 
L 144.90326 129.629773 
L 146.010567 136.796366 
L 146.921416 141.332449 
L 147.671527 144.037031 
L 148.29662 145.533856 
L 148.796694 146.219345 
L 149.189609 146.43378 
L 149.528945 146.388223 
L 149.886141 146.10942 
L 150.314776 145.464267 
L 150.83271 144.238938 
L 151.457803 142.127618 
L 152.190054 138.814855 
L 153.065184 133.758061 
L 154.118911 126.281807 
L 155.458396 115.061154 
L 157.60157 94.915012 
L 160.030502 72.654847 
L 161.369986 62.345455 
L 162.423714 55.823505 
L 163.298843 51.687828 
L 164.031095 49.21513 
L 164.620468 47.915914 
L 165.102682 47.324788 
L 165.495598 47.161259 
L 165.834934 47.250829 
L 166.209989 47.598227 
L 166.656484 48.349273 
L 167.192278 49.726918 
L 167.83523 52.045672 
L 168.603201 55.718169 
L 169.51405 61.239986 
L 170.621357 69.417309 
L 172.050141 81.758594 
L 177.425937 129.990852 
L 178.515385 136.980332 
L 179.408374 141.394296 
L 180.158485 144.080005 
L 180.783578 145.560395 
L 181.283652 146.232444 
L 181.676567 146.436227 
L 182.015903 146.381457 
L 182.373099 146.092989 
L 182.801734 145.436344 
L 183.319668 144.197393 
L 183.944761 142.070201 
L 184.677012 138.739928 
L 185.552142 133.664204 
L 186.60587 126.168763 
L 187.945354 114.930564 
L 190.106388 94.603372 
L 192.51746 72.532311 
L 193.856944 62.244554 
L 194.910672 55.744449 
L 195.785802 51.629447 
L 196.518053 49.175358 
L 197.107426 47.891718 
L 197.58964 47.313578 
L 197.982556 47.160708 
L 198.321892 47.259488 
L 198.696947 47.61702 
L 199.143442 48.379999 
L 199.679236 49.771651 
L 200.322188 52.106567 
L 201.090159 55.797116 
L 202.001009 61.338057 
L 203.108316 69.534487 
L 204.554959 82.056127 
L 209.859316 129.71158 
L 210.966623 136.860934 
L 211.877473 141.380583 
L 212.627584 144.070488 
L 213.252676 145.554531 
L 213.752751 146.229567 
L 214.145666 146.435717 
L 214.485002 146.382995 
L 214.842198 146.096674 
L 215.270833 145.442583 
L 215.788767 144.206658 
L 216.413859 142.082992 
L 217.146111 138.756607 
L 218.02124 133.685087 
L 219.074968 126.193904 
L 220.414452 114.959597 
L 222.575487 94.634533 
L 224.986559 72.559524 
L 226.326043 62.266952 
L 227.37977 55.761988 
L 228.2549 51.64239 
L 228.987152 49.184163 
L 229.576525 47.897061 
L 230.058739 47.316035 
L 230.451654 47.160796 
L 230.79099 47.25753 
L 231.166046 47.61281 
L 231.612541 48.373138 
L 232.148334 49.761678 
L 232.791287 52.093004 
L 233.559258 55.779544 
L 234.470107 61.316239 
L 235.577414 69.508429 
L 237.024057 82.026347 
L 242.328415 129.688223 
L 243.435722 136.842506 
L 244.346571 141.366852 
L 245.096682 144.060953 
L 245.721775 145.548648 
L 246.221849 146.226671 
L 246.614764 146.435188 
L 246.9541 146.384513 
L 247.311296 146.10034 
L 247.739931 145.448802 
L 248.257865 144.215904 
L 248.882958 142.095765 
L 249.615209 138.77327 
L 250.490339 133.705955 
L 251.544067 126.219034 
L 252.883551 114.988622 
L 255.044585 94.665694 
L 257.455657 72.586747 
L 258.795141 62.289365 
L 259.848869 55.779544 
L 260.723999 51.65535 
L 261.45625 49.192987 
L 262.045623 47.902423 
L 262.527837 47.318511 
L 262.920753 47.160904 
L 263.260089 47.255591 
L 263.635144 47.608619 
L 264.081639 48.366295 
L 264.617433 49.751723 
L 265.260385 52.079458 
L 266.028356 55.761988 
L 266.939206 61.294435 
L 268.046513 69.482381 
L 269.475296 81.832922 
L 274.833233 129.92121 
L 275.92268 136.925308 
L 276.833529 141.428502 
L 277.583641 144.103717 
L 278.208733 145.57497 
L 278.708807 146.23955 
L 279.101723 146.437415 
L 279.441059 146.377527 
L 279.816114 146.062804 
L 280.244749 145.385744 
L 280.762683 144.122601 
L 281.387776 141.967233 
L 282.137887 138.513136 
L 283.030877 133.26468 
L 284.102464 125.54921 
L 285.477668 113.895362 
L 287.83516 91.617845 
L 290.014054 71.8686 
L 291.335679 61.821582 
L 292.389407 55.414282 
L 293.246676 51.456473 
L 293.961068 49.105593 
L 294.550441 47.849667 
L 295.032656 47.294626 
L 295.407711 47.160573 
L 295.747047 47.26447 
L 296.122103 47.627631 
L 296.568597 48.397236 
L 297.104391 49.796665 
L 297.747344 52.140553 
L 298.515315 55.841117 
L 299.426164 61.392664 
L 300.533471 69.59968 
L 301.980114 82.130601 
L 307.266612 129.641469 
L 308.373919 136.805602 
L 309.284768 141.339338 
L 310.034879 144.041825 
L 310.659972 145.536824 
L 311.160046 146.22082 
L 311.552961 146.434071 
L 311.892297 146.387491 
L 312.249493 146.107614 
L 312.678128 145.461183 
L 313.196062 144.234341 
L 313.821155 142.121256 
L 314.553406 138.806546 
L 315.428536 133.747647 
L 316.482263 126.269258 
L 317.821748 115.046651 
L 319.964923 94.899428 
L 322.393854 72.641222 
L 323.733338 62.33423 
L 324.787066 55.814705 
L 325.662196 51.681324 
L 326.394447 49.210692 
L 326.98382 47.913206 
L 327.466034 47.323523 
L 327.85895 47.161178 
L 328.198286 47.251772 
L 328.573341 47.600295 
L 329.019836 48.352668 
L 329.55563 49.731869 
L 330.198582 52.05242 
L 330.966553 55.726925 
L 331.877403 61.250869 
L 332.98471 69.430318 
L 334.413493 81.773457 
L 339.78929 130.002448 
L 340.878737 136.989489 
L 341.771726 141.401146 
L 342.521837 144.084757 
L 343.14693 145.563319 
L 343.647004 146.233875 
L 344.03992 146.436474 
L 344.379256 146.380681 
L 344.736451 146.091139 
L 345.165086 145.433217 
L 345.68302 144.192754 
L 346.308113 142.063799 
L 347.040364 138.731582 
L 347.915494 133.653758 
L 348.969222 126.156188 
L 350.308706 114.916045 
L 352.469741 94.587793 
L 354.880812 72.518708 
L 356.220297 62.23336 
L 357.274024 55.735685 
L 358.149154 51.622983 
L 358.881405 49.170962 
L 359.470778 47.889053 
L 359.952993 47.312357 
L 360.345908 47.160671 
L 360.685244 47.260475 
L 361.0603 47.619133 
L 361.506794 48.383437 
L 362.042588 49.776645 
L 362.685541 52.113356 
L 363.453512 55.805908 
L 364.364361 61.348971 
L 365.471668 69.54752 
L 366.918311 82.071019 
L 372.204809 129.594664 
L 373.312116 136.768635 
L 374.222965 141.311754 
L 374.973076 144.022623 
L 375.598169 145.524924 
L 376.098243 146.214891 
L 376.509018 146.435975 
L 376.848354 146.382228 
L 377.20555 146.094834 
L 377.634185 145.439466 
L 378.152119 144.202028 
L 378.777211 142.076599 
L 379.509463 138.748269 
L 380.384593 133.674648 
L 381.43832 126.181335 
L 382.777804 114.945081 
L 384.938839 94.618952 
L 387.349911 72.545916 
L 388.689395 62.255751 
L 389.743123 55.753216 
L 390.618252 51.635916 
L 391.350504 49.179758 
L 391.939877 47.894387 
L 392.422091 47.314804 
L 392.815007 47.16075 
L 393.154343 47.258507 
L 393.529398 47.614913 
L 393.975893 48.376566 
L 394.511687 49.766662 
L 395.154639 52.099783 
L 395.92261 55.788328 
L 396.833459 61.327146 
L 397.940766 69.521456 
L 399.387409 82.041236 
L 404.691767 129.699903 
L 405.799074 136.851722 
L 406.709923 141.37372 
L 407.460034 144.065723 
L 408.085127 145.551592 
L 408.585201 146.228121 
L 408.978117 146.435455 
L 409.317453 146.383756 
L 409.674648 146.09851 
L 410.103283 145.445695 
L 410.621217 144.211284 
L 411.24631 142.08938 
L 411.978561 138.764941 
L 412.853691 133.695523 
L 413.907419 126.206471 
L 415.246903 114.97411 
L 417.407938 94.650113 
L 419.819009 72.573135 
L 421.158493 62.278157 
L 422.212221 55.770764 
L 423.087351 51.648868 
L 423.819602 49.188573 
L 424.408975 47.89974 
L 424.89119 47.317271 
L 425.284105 47.160848 
L 425.623441 47.256558 
L 425.998497 47.610712 
L 426.444991 48.369714 
L 426.980785 49.756698 
L 427.623738 52.086229 
L 428.391709 55.770764 
L 429.302558 61.305335 
L 430.409865 69.495403 
L 431.856508 82.011459 
L 437.160865 129.676539 
L 438.268172 136.833286 
L 439.179022 141.35998 
L 439.929133 144.056178 
L 440.554226 145.545699 
L 441.0543 146.225215 
L 441.447215 146.434916 
L 441.786551 146.385265 
L 442.143747 146.102166 
L 442.572382 145.451905 
L 443.090316 144.22052 
L 443.715408 142.102144 
L 444.44766 138.781595 
L 445.32279 133.716384 
L 446.376517 126.231594 
L 447.716001 115.003132 
L 449.877036 94.681275 
L 452.288108 72.600362 
L 453.627592 62.300576 
L 454.68132 55.788328 
L 455.556449 51.661837 
L 456.288701 49.197406 
L 456.878074 47.905112 
L 457.360288 47.319757 
L 457.753204 47.160965 
L 458.09254 47.254629 
L 458.467595 47.606531 
L 458.91409 48.362881 
L 459.449884 49.746753 
L 460.092836 52.072692 
L 460.860807 55.753216 
L 461.771656 61.283538 
L 462.878963 69.469361 
L 464.307746 81.818053 
L 469.665684 129.909592 
L 470.755131 136.916124 
L 471.66598 141.421669 
L 472.416091 144.098984 
L 473.041184 145.572065 
L 473.541258 146.238139 
L 473.934173 146.437187 
L 474.273509 146.378323 
L 474.648565 146.064727 
L 475.0772 145.388942 
L 475.595134 144.127311 
L 476.220227 141.973702 
L 476.970338 138.521589 
L 477.863327 133.275261 
L 478.934915 125.561922 
L 480.310118 113.910002 
L 482.667611 91.633355 
L 484.846505 71.882086 
L 486.16813 61.832649 
L 487.221857 55.422895 
L 488.079127 51.462821 
L 488.793519 49.109918 
L 489.382892 47.852259 
L 489.865106 47.295774 
L 490.240162 47.16059 
L 490.579498 47.263464 
L 490.954553 47.625499 
L 491.401048 48.393779 
L 491.936842 49.791653 
L 492.579794 52.133747 
L 493.347765 55.832309 
L 494.258615 61.381735 
L 495.365922 69.586636 
L 496.812565 82.115704 
L 502.099062 129.629773 
L 503.206369 136.796366 
L 504.117219 141.332449 
L 504.86733 144.037031 
L 505.492423 145.533856 
L 505.992497 146.219345 
L 506.385412 146.43378 
L 506.724748 146.388223 
L 507.081944 146.10942 
L 507.510579 145.464267 
L 508.028513 144.238938 
L 508.653605 142.127618 
L 509.385857 138.814855 
L 510.260987 133.758061 
L 511.314714 126.281807 
L 512.654198 115.061154 
L 514.797373 94.915012 
L 517.226305 72.654847 
L 518.565789 62.345455 
L 519.619517 55.823505 
L 520.494646 51.687828 
L 521.226898 49.21513 
L 521.816271 47.915914 
L 522.298485 47.324788 
L 522.6914 47.161259 
L 523.030736 47.250829 
L 523.405792 47.598227 
L 523.852287 48.349273 
L 524.388081 49.726918 
L 525.031033 52.045672 
L 525.799004 55.718169 
L 526.709853 61.239986 
L 527.81716 69.417309 
L 529.245943 81.758594 
L 534.62174 129.990852 
L 535.711187 136.980332 
L 536.604177 141.394296 
L 537.354288 144.080005 
L 537.979381 145.560395 
L 538.479455 146.232444 
L 538.87237 146.436227 
L 539.211706 146.381457 
L 539.568902 146.092989 
L 539.997537 145.436344 
L 540.515471 144.197393 
L 541.140564 142.070201 
L 541.872815 138.739928 
L 542.747945 133.664204 
L 543.801672 126.168763 
L 545.141157 114.930564 
L 547.302191 94.603372 
L 549.713263 72.532311 
L 551.052747 62.244554 
L 552.106475 55.744449 
L 552.981605 51.629447 
L 553.713856 49.175358 
L 554.303229 47.891718 
L 554.785443 47.313578 
L 555.178359 47.160708 
L 555.517695 47.259488 
L 555.89275 47.61702 
L 556.339245 48.379999 
L 556.875039 49.771651 
L 557.517991 52.106567 
L 558.285962 55.797116 
L 559.196812 61.338057 
L 560.304119 69.534487 
L 561.750762 82.056127 
L 567.055119 129.71158 
L 568.162426 136.860934 
L 569.073275 141.380583 
L 569.823387 144.070488 
L 570.448479 145.554531 
L 570.948553 146.229567 
L 571.341469 146.435717 
L 571.680805 146.382995 
L 572.038001 146.096674 
L 572.466636 145.442583 
L 572.98457 144.206658 
L 573.609662 142.082992 
L 574.341914 138.756607 
L 575.217043 133.685087 
L 576.270771 126.193904 
L 577.610255 114.959597 
L 579.77129 94.634533 
L 582.182361 72.559524 
L 583.521846 62.266952 
L 584.575573 55.761988 
L 585.450703 51.64239 
L 586.182954 49.184163 
L 586.772327 47.897061 
L 587.254542 47.316035 
L 587.647457 47.160796 
L 587.986793 47.25753 
L 588.361849 47.61281 
L 588.808344 48.373138 
L 589.344137 49.761678 
L 589.98709 52.093004 
L 590.755061 55.779544 
L 591.66591 61.316239 
L 592.773217 69.508429 
L 594.21986 82.026347 
L 599.524218 129.688223 
L 600.631525 136.842506 
L 601.542374 141.366852 
L 602.292485 144.060953 
L 602.917578 145.548648 
L 603.417652 146.226671 
L 603.810567 146.435188 
L 604.149903 146.384513 
L 604.507099 146.10034 
L 604.935734 145.448802 
L 605.453668 144.215904 
L 606.078761 142.095765 
L 606.811012 138.77327 
L 607.686142 133.705955 
L 608.739869 126.219034 
L 610.079354 114.988622 
L 612.240388 94.665694 
L 614.65146 72.586747 
L 615.990944 62.289365 
L 617.044672 55.779544 
L 617.919802 51.65535 
L 618.652053 49.192987 
L 619.241426 47.902423 
L 619.72364 47.318511 
L 620.116556 47.160904 
L 620.455892 47.255591 
L 620.830947 47.608619 
L 621.277442 48.366295 
L 621.813236 49.751723 
L 622.456188 52.079458 
L 623.224159 55.761988 
L 624.135008 61.294435 
L 625.242315 69.482381 
L 626.671099 81.832922 
L 632.029036 129.92121 
L 633.118483 136.925308 
L 634.029332 141.428502 
L 634.779443 144.103717 
L 635.404536 145.57497 
L 635.90461 146.23955 
L 636.297526 146.437415 
L 636.636862 146.377527 
L 637.011917 146.062804 
L 637.440552 145.385744 
L 637.958486 144.122601 
L 638.583579 141.967233 
L 639.33369 138.513136 
L 640.226679 133.26468 
L 641.298267 125.54921 
L 642.673471 113.895362 
L 645.030963 91.617845 
L 647.209857 71.8686 
L 648.531482 61.821582 
L 649.585209 55.414282 
L 650.442479 51.456473 
L 651.156871 49.105593 
L 651.746244 47.849667 
L 652.228458 47.294626 
L 652.603514 47.160573 
L 652.94285 47.26447 
L 653.317906 47.627631 
L 653.7644 48.397236 
L 654.300194 49.796665 
L 654.943146 52.140553 
L 655.711117 55.841117 
L 656.621967 61.392664 
L 657.729274 69.59968 
L 659.175917 82.130601 
L 664.462415 129.641469 
L 665.569722 136.805602 
L 666.480571 141.339338 
L 667.230682 144.041825 
L 667.855775 145.536824 
L 668.355849 146.22082 
L 668.748764 146.434071 
L 669.0881 146.387491 
L 669.445296 146.107614 
L 669.873931 145.461183 
L 670.391865 144.234341 
L 671.016958 142.121256 
L 671.749209 138.806546 
L 672.624339 133.747647 
L 673.678066 126.269258 
L 675.017551 115.046651 
L 677.160725 94.899428 
L 679.589657 72.641222 
L 680.929141 62.33423 
L 681.982869 55.814705 
L 682.857998 51.681324 
L 683.59025 49.210692 
L 684.179623 47.913206 
L 684.661837 47.323523 
L 685.054753 47.161178 
L 685.394089 47.251772 
L 685.769144 47.600295 
L 686.215639 48.352668 
L 686.751433 49.731869 
L 687.394385 52.05242 
L 688.162356 55.726925 
L 689.073205 61.250869 
L 690.180512 69.430318 
L 691.609296 81.773457 
L 696.985092 130.002448 
L 698.07454 136.989489 
L 698.967529 141.401146 
L 699.71764 144.084757 
L 700.342733 145.563319 
L 700.842807 146.233875 
L 701.235723 146.436474 
L 701.575059 146.380681 
L 701.932254 146.091139 
L 702.360889 145.433217 
L 702.878823 144.192754 
L 703.503916 142.063799 
L 704.236167 138.731582 
L 705.111297 133.653758 
L 706.165025 126.156188 
L 707.504509 114.916045 
L 709.665543 94.587793 
L 712.076615 72.518708 
L 713.416099 62.23336 
L 714.469827 55.735685 
L 715.344957 51.622983 
L 716.077208 49.170962 
L 716.666581 47.889053 
L 717.148796 47.312357 
L 717.541711 47.160671 
L 717.881047 47.260475 
L 718.256103 47.619133 
L 718.702597 48.383437 
L 719.238391 49.776645 
L 719.881343 52.113356 
L 720.649314 55.805908 
L 721.560164 61.348971 
L 722.667471 69.54752 
L 724.114114 82.071019 
L 729.400612 129.594664 
L 730.507919 136.768635 
L 731.418768 141.311754 
L 732.168879 144.022623 
L 732.793972 145.524924 
L 733.294046 146.214891 
L 733.704821 146.435975 
L 734.044157 146.382228 
L 734.401353 146.094834 
L 734.829988 145.439466 
L 735.347922 144.202028 
L 735.973014 142.076599 
L 736.705266 138.748269 
L 737.580395 133.674648 
L 738.634123 126.181335 
L 739.973607 114.945081 
L 742.134642 94.618952 
L 744.545714 72.545916 
L 745.885198 62.255751 
L 746.938926 55.753216 
L 747.814055 51.635916 
L 748.546307 49.179758 
L 749.13568 47.894387 
L 749.617894 47.314804 
L 750.010809 47.16075 
L 750.350145 47.258507 
L 750.725201 47.614913 
L 751.171696 48.376566 
L 751.707489 49.766662 
L 752.350442 52.099783 
L 753.118413 55.788328 
L 754.029262 61.327146 
L 755.136569 69.521456 
L 756.583212 82.041236 
L 761.88757 129.699903 
L 762.994877 136.851722 
L 763.905726 141.37372 
L 764.655837 144.065723 
L 765.28093 145.551592 
L 765.781004 146.228121 
L 766.173919 146.435455 
L 766.513256 146.383756 
L 766.870451 146.09851 
L 767.299086 145.445695 
L 767.81702 144.211284 
L 768.442113 142.08938 
L 769.174364 138.764941 
L 770.049494 133.695523 
L 771.103222 126.206471 
L 772.442706 114.97411 
L 774.60374 94.650113 
L 777.014812 72.573135 
L 778.354296 62.278157 
L 779.408024 55.770764 
L 780.283154 51.648868 
L 781.015405 49.188573 
L 781.604778 47.89974 
L 782.086993 47.317271 
L 782.479908 47.160848 
L 782.819244 47.256558 
L 783.194299 47.610712 
L 783.640794 48.369714 
L 784.176588 49.756698 
L 784.81954 52.086229 
L 785.587511 55.770764 
L 786.498361 61.305335 
L 787.605668 69.495403 
L 789.052311 82.011459 
L 794.356668 129.676539 
L 795.463975 136.833286 
L 796.374825 141.35998 
L 797.124936 144.056178 
L 797.750028 145.545699 
L 798.250103 146.225215 
L 798.643018 146.434916 
L 798.982354 146.385265 
L 799.33955 146.102166 
L 799.768185 145.451905 
L 800.286119 144.22052 
L 800.911211 142.102144 
L 801.643463 138.781595 
L 802.518592 133.716384 
L 803.57232 126.231594 
L 804.911804 115.003132 
L 807.072839 94.681275 
L 809.483911 72.600362 
L 810.823395 62.300576 
L 811.877122 55.788328 
L 812.752252 51.661837 
L 813.484504 49.197406 
L 814.073877 47.905112 
L 814.556091 47.319757 
L 814.949006 47.160965 
L 815.288342 47.254629 
L 815.663398 47.606531 
L 816.109893 48.362881 
L 816.645686 49.746753 
L 817.288639 52.072692 
L 818.05661 55.753216 
L 818.967459 61.283538 
L 820.074766 69.469361 
L 821.503549 81.818053 
L 826.861486 129.909592 
L 827.950934 136.916124 
L 828.861783 141.421669 
L 829.611894 144.098984 
L 830.236987 145.572065 
L 830.737061 146.238139 
L 831.129976 146.437187 
L 831.469312 146.378323 
L 831.844368 146.064727 
L 832.273003 145.388942 
L 832.790937 144.127311 
L 833.416029 141.973702 
L 834.166141 138.521589 
L 835.05913 133.275261 
L 836.130717 125.561922 
L 837.505921 113.910002 
L 839.863414 91.633355 
L 842.042308 71.882086 
L 843.363932 61.832649 
L 844.41766 55.422895 
L 845.27493 51.462821 
L 845.989322 49.109918 
L 846.578695 47.852259 
L 847.060909 47.295774 
L 847.435965 47.16059 
L 847.775301 47.263464 
L 848.150356 47.625499 
L 848.596851 48.393779 
L 849.132645 49.791653 
L 849.775597 52.133747 
L 850.543568 55.832309 
L 851.454417 61.381735 
L 852.561724 69.586636 
L 854.008367 82.115704 
L 859.294865 129.629773 
L 860.402172 136.796366 
L 861.313022 141.332449 
L 862.063133 144.037031 
L 862.688225 145.533856 
L 863.1883 146.219345 
L 863.581215 146.43378 
L 863.920551 146.388223 
L 864.277747 146.10942 
L 864.706382 145.464267 
L 865.224316 144.238938 
L 865.849408 142.127618 
L 866.58166 138.814855 
L 867.456789 133.758061 
L 868.510517 126.281807 
L 869.850001 115.061154 
L 871.993176 94.915012 
L 874.422108 72.654847 
L 875.761592 62.345455 
L 876.815319 55.823505 
L 877.690449 51.687828 
L 878.422701 49.21513 
L 879.012074 47.915914 
L 879.494288 47.324788 
L 879.887203 47.161259 
L 880.226539 47.250829 
L 880.601595 47.598227 
L 881.04809 48.349273 
L 881.583883 49.726918 
L 882.226836 52.045672 
L 882.994807 55.718169 
L 883.905656 61.239986 
L 885.012963 69.417309 
L 886.441746 81.758594 
L 891.817543 129.990852 
L 892.90699 136.980332 
L 893.79998 141.394296 
L 894.550091 144.080005 
L 895.175184 145.560395 
L 895.675258 146.232444 
L 896.068173 146.436227 
L 896.407509 146.381457 
L 896.764705 146.092989 
L 897.19334 145.436344 
L 897.711274 144.197393 
L 898.336367 142.070201 
L 899.068618 138.739928 
L 899.943748 133.664204 
L 900.997475 126.168763 
L 902.33696 114.930564 
L 904.497994 94.603372 
L 906.909066 72.532311 
L 908.24855 62.244554 
L 909.302278 55.744449 
L 910.177407 51.629447 
L 910.909659 49.175358 
L 911.499032 47.891718 
L 911.981246 47.313578 
L 912.374162 47.160708 
L 912.713498 47.259488 
L 913.088553 47.61702 
L 913.535048 48.379999 
L 914.070842 49.771651 
L 914.713794 52.106567 
L 915.481765 55.797116 
L 916.392614 61.338057 
L 917.499921 69.534487 
L 918.946564 82.056127 
L 924.250922 129.71158 
L 925.358229 136.860934 
L 926.269078 141.380583 
L 927.01919 144.070488 
L 927.644282 145.554531 
L 928.144356 146.229567 
L 928.537272 146.435717 
L 928.876608 146.382995 
L 929.233803 146.096674 
L 929.662438 145.442583 
L 930.180372 144.206658 
L 930.805465 142.082992 
L 931.537716 138.756607 
L 932.412846 133.685087 
L 933.466574 126.193904 
L 934.806058 114.959597 
L 936.967093 94.634533 
L 939.378164 72.559524 
L 940.717649 62.266952 
L 941.771376 55.761988 
L 942.646506 51.64239 
L 943.378757 49.184163 
L 943.96813 47.897061 
L 944.450345 47.316035 
L 944.84326 47.160796 
L 945.182596 47.25753 
L 945.557652 47.61281 
L 946.004146 48.373138 
L 946.53994 49.761678 
L 947.182893 52.093004 
L 947.950864 55.779544 
L 948.861713 61.316239 
L 949.96902 69.508429 
L 951.415663 82.026347 
L 956.720021 129.688223 
L 957.827328 136.842506 
L 958.738177 141.366852 
L 959.488288 144.060953 
L 960.113381 145.548648 
L 960.613455 146.226671 
L 961.00637 146.435188 
L 961.095669 146.442598 
L 961.095669 146.442598 
" clip-path="url(#pc259a1d46e)" style="fill: none; stroke: #ffa231; stroke-width: 4"/>
   </g>
   <g id="patch_3">
    <path d="M 41.316477 150.625354 
L 41.316477 2.834646 
" style="fill: none; stroke: #000000; stroke-width: 2; stroke-linejoin: miter; stroke-linecap: square"/>
   </g>
   <g id="patch_4">
    <path d="M 41.316477 150.625354 
L 987.885354 150.625354 
" style="fill: none; stroke: #000000; stroke-width: 2; stroke-linejoin: miter; stroke-linecap: square"/>
   </g>
   <g id="line2d_12">
    <path d="M 68.106162 22.34004 
L 71.178046 28.490755 
L 74.19635 34.039191 
L 77.286094 39.252466 
L 80.340118 43.979796 
L 83.429862 48.367412 
L 86.626764 52.52388 
L 89.859386 56.364224 
L 93.181307 59.963851 
L 96.503228 63.24313 
L 97.521236 64.188433 
L 97.539096 14.574186 
L 97.646255 14.82122 
L 100.59312 21.328602 
L 103.593565 27.424103 
L 106.701168 33.218617 
L 109.719473 38.383005 
L 112.791357 43.208639 
L 115.881101 47.660326 
L 119.060143 51.854916 
L 122.239186 55.691454 
L 125.489668 59.275916 
L 128.811589 62.616368 
L 131.347679 64.965046 
L 131.365539 15.358712 
L 131.472697 15.603424 
L 134.437423 22.086165 
L 137.420007 28.086026 
L 140.527611 33.825285 
L 143.545916 38.940393 
L 146.617799 43.719991 
L 149.707543 48.129195 
L 152.904446 52.306102 
L 156.119208 56.144954 
L 157.60157 57.992948 
L 159.566147 62.00073 
L 161.244968 64.899165 
L 162.673751 66.941802 
L 164.013235 68.500212 
L 165.388439 69.755435 
L 166.049251 70.242068 
L 166.067111 20.623676 
L 166.17427 20.83074 
L 167.192278 22.534309 
L 168.156706 23.754394 
L 169.121135 24.63283 
L 170.103423 25.230983 
L 171.103572 25.587983 
L 172.282318 25.773107 
L 174.354054 25.8133 
L 175.943575 25.943383 
L 177.015162 26.239787 
L 177.979591 26.723794 
L 178.94402 27.462089 
L 179.926308 28.504456 
L 180.944316 29.914617 
L 182.051623 31.824071 
L 183.301808 34.41489 
L 184.83775 38.111041 
L 187.266682 44.615437 
L 190.481444 53.101452 
L 192.303143 57.272351 
L 193.928384 60.421917 
L 195.392886 62.759091 
L 196.714511 64.462295 
L 197.982556 65.750437 
L 198.107574 65.859784 
L 198.125434 16.251166 
L 198.232593 16.48968 
L 199.268461 18.498252 
L 200.232889 19.93349 
L 201.250897 21.041591 
L 202.161747 21.727049 
L 203.126175 22.189478 
L 204.251342 22.465757 
L 205.608686 22.558867 
L 208.394814 22.696416 
L 209.448541 22.994829 
L 210.37725 23.468648 
L 211.305959 24.185085 
L 212.323967 25.284805 
L 213.306256 26.676646 
L 214.467142 28.738236 
L 215.717327 31.427164 
L 217.23541 35.226236 
L 219.646481 41.962006 
L 222.950542 51.092805 
L 224.790101 55.495225 
L 226.308183 58.58619 
L 227.772686 61.061651 
L 228.183461 61.666489 
L 228.201321 12.078269 
L 228.30848 12.443695 
L 229.487226 16.036087 
L 230.594533 18.750663 
L 231.612541 20.719403 
L 232.630549 22.23105 
L 233.666417 23.348773 
L 234.612985 24.050111 
L 235.684573 24.540355 
L 236.881179 24.799534 
L 238.381401 24.87108 
L 240.774613 24.986415 
L 241.86406 25.269688 
L 242.828489 25.737644 
L 243.864357 26.521732 
L 244.846645 27.571953 
L 245.846793 28.963149 
L 247.043399 31.055332 
L 248.311444 33.737331 
L 249.883106 37.595598 
L 252.329897 44.254178 
L 255.419641 52.50703 
L 257.18776 56.620229 
L 257.741414 57.779804 
L 257.759273 8.218565 
L 257.866432 8.711402 
L 259.295215 14.712058 
L 260.59898 19.273044 
L 261.884885 22.930617 
L 263.010052 25.481435 
L 264.04592 27.330198 
L 265.046068 28.703348 
L 266.099795 29.757846 
L 267.099944 30.437219 
L 268.082232 30.854005 
L 269.296698 31.106877 
L 270.8505 31.178534 
L 273.33301 31.297331 
L 274.458177 31.584739 
L 275.440466 32.04952 
L 276.458474 32.78791 
L 277.476482 33.822218 
L 278.49449 35.166211 
L 279.655376 37.069452 
L 280.977001 39.674598 
L 282.691541 43.592027 
L 286.013461 51.906523 
L 288.335234 57.381453 
L 288.353094 7.820907 
L 288.460253 8.35151 
L 290.103353 15.898515 
L 291.621436 21.814761 
L 292.90734 25.989953 
L 294.103946 29.189665 
L 295.229113 31.624706 
L 296.300701 33.458831 
L 297.318709 34.800264 
L 298.318857 35.779415 
L 299.390444 36.502306 
L 300.515611 36.961417 
L 301.712217 37.196417 
L 303.444617 37.267836 
L 305.837829 37.380012 
L 307.105874 37.697046 
L 308.177461 38.20776 
L 309.231189 38.975995 
L 310.356355 40.120402 
L 311.445803 41.555375 
L 312.642409 43.486109 
L 314.142631 46.35695 
L 316.071488 50.556613 
L 320.536436 60.492908 
L 320.554296 10.908361 
L 320.661454 11.422598 
L 322.358134 18.991549 
L 323.840497 24.637329 
L 325.144262 28.803614 
L 326.394447 32.095616 
L 327.573193 34.593771 
L 328.644781 36.389486 
L 329.680648 37.73023 
L 330.716516 38.723412 
L 331.823823 39.449518 
L 332.91327 39.885302 
L 334.109876 40.121729 
L 335.877996 40.197952 
L 338.342647 40.309226 
L 339.539253 40.592777 
L 340.57512 41.049877 
L 341.628848 41.761528 
L 342.736155 42.808349 
L 343.843462 44.171211 
L 345.040068 45.986071 
L 346.504571 48.6253 
L 348.397708 52.518168 
L 353.416309 63.056851 
L 354.023542 64.170188 
L 354.041402 14.581619 
L 354.148561 15.062279 
L 355.684503 21.418296 
L 357.059707 26.234489 
L 358.417051 30.155813 
L 359.577937 32.871554 
L 360.756683 35.063049 
L 361.810411 36.575283 
L 362.810559 37.658816 
L 363.846427 38.463868 
L 364.971594 39.026276 
L 366.09676 39.332869 
L 367.436245 39.467366 
L 371.436838 39.714706 
L 372.526285 40.082928 
L 373.526433 40.63863 
L 374.562301 41.467187 
L 375.723187 42.72669 
L 376.848354 44.280022 
L 378.187838 46.523689 
L 379.79522 49.668658 
L 382.384889 55.293683 
L 385.385334 61.654928 
L 387.189173 64.973233 
L 388.082162 66.420141 
L 388.100022 16.842657 
L 388.207181 17.275518 
L 389.582385 22.334504 
L 390.83257 26.156442 
L 391.993456 29.059845 
L 393.172202 31.404506 
L 394.20807 33.002669 
L 395.208218 34.175769 
L 396.279806 35.07416 
L 397.369253 35.665362 
L 398.547999 36.015505 
L 399.833904 36.158697 
L 404.013095 36.45094 
L 405.102542 36.863263 
L 406.10269 37.475034 
L 407.174278 38.417151 
L 408.299445 39.746719 
L 409.478191 41.508463 
L 410.835535 43.965048 
L 412.460776 47.377435 
L 415.300482 53.934173 
L 417.961591 59.844208 
L 419.72971 63.259673 
L 421.301372 65.834068 
L 421.712147 66.429915 
L 421.730007 16.823948 
L 421.837166 17.219402 
L 423.105211 21.453721 
L 424.301817 24.722877 
L 425.391264 27.118541 
L 426.427132 28.917413 
L 427.42728 30.252323 
L 428.498867 31.29061 
L 429.570455 31.981499 
L 430.695621 32.403396 
L 431.892227 32.602996 
L 433.910384 32.650662 
L 435.714222 32.768854 
L 436.857249 33.059954 
L 437.875257 33.543809 
L 438.821826 34.224339 
L 439.821974 35.215926 
L 440.857842 36.550193 
L 442.054448 38.474454 
L 443.447512 41.182194 
L 445.126332 44.957907 
L 451.788034 60.511446 
L 453.359695 63.3621 
L 454.359843 64.922188 
L 454.377703 15.345052 
L 454.484862 15.741943 
L 455.752907 19.975389 
L 456.967373 23.272621 
L 458.05682 25.63529 
L 459.110548 27.424386 
L 460.092836 28.693309 
L 461.110844 29.650204 
L 462.110992 30.282241 
L 463.111141 30.666079 
L 464.379186 30.887302 
L 466.254464 30.934592 
L 468.129742 31.047373 
L 469.308488 31.347636 
L 470.308636 31.828762 
L 471.255205 32.51742 
L 472.219634 33.482374 
L 473.3448 34.960624 
L 474.487827 36.844034 
L 475.809451 39.458355 
L 477.523991 43.389904 
L 480.828052 51.690735 
L 483.185545 57.270496 
L 484.900085 60.791552 
L 486.16813 63.029166 
L 486.185989 13.419456 
L 486.293148 13.848955 
L 487.596913 18.597569 
L 488.900678 22.4835 
L 490.043704 25.214328 
L 491.097432 27.206724 
L 492.09758 28.671858 
L 493.115588 29.782349 
L 494.133596 30.554954 
L 495.098025 31.026693 
L 496.276771 31.33345 
L 497.616255 31.443551 
L 500.920316 31.61907 
L 501.991904 31.941991 
L 502.956332 32.445493 
L 504.01006 33.272843 
L 505.045928 34.39836 
L 506.099655 35.871692 
L 507.260542 37.865084 
L 508.742904 40.905658 
L 510.564603 45.192876 
L 516.118998 58.571469 
L 517.762098 61.79061 
L 517.779958 61.822554 
L 517.797818 12.249622 
L 517.904977 12.712885 
L 519.29804 18.205754 
L 520.548226 22.315128 
L 521.709112 25.450258 
L 522.923578 28.065004 
L 524.013025 29.87458 
L 525.084612 31.208812 
L 526.13834 32.141128 
L 527.156348 32.736712 
L 528.174356 33.089586 
L 529.406682 33.27924 
L 531.496277 33.3199 
L 533.228677 33.451659 
L 534.353843 33.752817 
L 535.389711 34.260839 
L 536.35414 34.974862 
L 537.443587 36.093205 
L 538.568754 37.608477 
L 539.72964 39.543282 
L 541.212003 42.496259 
L 543.069421 46.745605 
L 548.552377 59.583724 
L 549.677543 61.787288 
L 549.695403 12.200074 
L 549.802562 12.678242 
L 551.249205 18.596527 
L 552.588689 23.178068 
L 553.803155 26.592547 
L 554.999761 29.297412 
L 556.089208 31.227891 
L 557.178655 32.696856 
L 558.268102 33.755741 
L 559.32183 34.445319 
L 560.464857 34.88835 
L 561.625743 35.097177 
L 563.411722 35.156564 
L 565.572757 35.265889 
L 566.822942 35.577817 
L 567.930249 36.113864 
L 568.948257 36.870174 
L 570.019844 37.971693 
L 571.162871 39.503351 
L 572.377337 41.515668 
L 573.895419 44.512714 
L 575.806416 48.813715 
L 580.699999 60.005082 
L 582.110922 62.730797 
L 582.128782 13.167074 
L 582.235941 13.64102 
L 583.700444 19.571868 
L 585.093507 24.270277 
L 586.307973 27.619417 
L 587.43314 30.12974 
L 588.540447 32.078355 
L 589.647754 33.556016 
L 590.647902 34.531291 
L 591.68377 35.227706 
L 592.701778 35.654154 
L 593.844804 35.8996 
L 595.362887 35.985662 
L 598.184733 36.117013 
L 599.417059 36.447607 
L 600.524366 37.006828 
L 601.560234 37.80136 
L 602.667541 38.973154 
L 603.828427 40.565167 
L 605.060753 42.642335 
L 606.507396 45.510977 
L 608.525552 50.032749 
L 612.9012 59.94697 
L 614.65146 63.310716 
L 614.937217 63.810388 
L 614.955076 14.226086 
L 615.062235 14.685252 
L 616.473159 20.214729 
L 617.759063 24.4257 
L 618.991389 27.729046 
L 620.116556 30.149455 
L 621.277442 32.093829 
L 622.27759 33.360038 
L 623.331318 34.331589 
L 624.420765 34.999078 
L 625.528072 35.393634 
L 626.742538 35.585531 
L 628.760694 35.629879 
L 630.582393 35.74758 
L 631.725419 36.032147 
L 632.850586 36.564349 
L 633.832875 37.277658 
L 634.868742 38.312185 
L 635.92247 39.671796 
L 637.083356 41.517393 
L 638.583579 44.379332 
L 640.315978 47.695305 
L 643.530741 51.931954 
L 646.799082 55.864682 
L 647.459894 56.616928 
L 647.477754 7.017402 
L 647.584913 7.287187 
L 650.531778 14.392577 
L 653.496503 20.97233 
L 656.514808 27.131403 
L 659.533113 32.7902 
L 662.551417 37.989366 
L 665.587581 42.793355 
L 668.677325 47.279527 
L 671.856368 51.506631 
L 675.03541 55.372896 
L 678.268032 58.966152 
L 678.607368 59.324795 
L 678.625228 9.707898 
L 678.732387 9.969525 
L 681.661393 16.822017 
L 684.697557 23.35503 
L 687.769441 29.421921 
L 690.787745 34.894718 
L 693.859629 40.008455 
L 696.931513 44.699834 
L 700.039117 49.051554 
L 703.307458 53.236667 
L 706.54008 57.015192 
L 709.808422 60.502454 
L 710.683552 61.383169 
L 710.701411 11.766753 
L 710.80857 12.022203 
L 713.755435 18.751774 
L 716.75588 25.055393 
L 719.845624 31.01475 
L 722.863928 36.35817 
L 725.953672 41.378839 
L 729.025556 45.957022 
L 732.151019 50.226976 
L 735.365781 54.245205 
L 738.634123 57.975213 
L 741.920324 61.39608 
L 743.474126 62.906908 
L 743.491986 13.282964 
L 743.599145 13.533822 
L 746.54601 20.143425 
L 749.564315 26.369902 
L 752.654058 32.22013 
L 755.672363 37.465626 
L 758.744247 42.367027 
L 761.816131 46.863582 
L 764.941594 51.057416 
L 768.174216 55.024932 
L 771.442558 58.686621 
L 774.746619 62.062169 
L 776.836214 64.040974 
L 776.854074 14.436353 
L 776.961233 14.683841 
L 779.925958 21.239999 
L 782.890683 27.273016 
L 785.962567 33.016218 
L 789.052311 38.314452 
L 792.106335 43.118834 
L 795.196078 47.577972 
L 798.375121 51.779599 
L 801.572024 55.643224 
L 804.822505 59.23189 
L 808.162286 62.593401 
L 810.591218 64.847711 
L 810.609077 15.231794 
L 810.716236 15.476847 
L 813.663101 21.93219 
L 816.681406 28.01336 
L 819.75329 33.695471 
L 822.789454 38.8502 
L 825.861338 43.63724 
L 828.951082 48.053327 
L 832.130124 52.21437 
L 835.327027 56.040684 
L 838.577509 59.594698 
L 841.917289 62.923746 
L 844.667697 65.44057 
L 844.685557 15.83369 
L 844.792716 16.076973 
L 847.757441 22.521906 
L 850.740026 28.486778 
L 853.847629 34.192564 
L 856.865934 39.27784 
L 859.937818 44.029564 
L 863.027561 48.413054 
L 866.224464 52.5656 
L 869.439226 56.382064 
L 872.725427 59.943175 
L 876.136647 63.308308 
L 878.958494 65.858637 
L 878.976354 16.246815 
L 879.083513 16.488838 
L 882.048238 22.900892 
L 885.030823 28.835345 
L 888.138426 34.512001 
L 891.156731 39.571334 
L 894.228615 44.29881 
L 897.318359 48.65994 
L 900.515261 52.791297 
L 903.730023 56.588289 
L 907.016225 60.131239 
L 910.427444 63.479198 
L 913.410029 66.155115 
L 913.427889 16.535897 
L 913.535048 16.777018 
L 916.499773 23.166071 
L 919.482358 29.079249 
L 922.589962 34.73551 
L 925.626126 39.805286 
L 928.69801 44.513448 
L 931.805613 48.880733 
L 935.073955 53.080819 
L 938.306577 56.872862 
L 941.574918 60.3726 
L 944.932559 63.648685 
L 947.986583 66.372032 
L 948.004443 16.756546 
L 948.111602 16.997023 
L 951.076327 23.368506 
L 954.058912 29.265418 
L 957.166515 34.906142 
L 960.20268 39.96198 
L 961.095669 41.368724 
L 961.095669 41.368724 
" clip-path="url(#pc259a1d46e)" style="fill: none; stroke: #4eba88; stroke-width: 4"/>
   </g>
  </g>
 </g>
 <defs>
  <clipPath id="pc259a1d46e">
   <rect x="41.316477" y="2.834646" width="946.568878" height="147.790709"/>
  </clipPath>
 </defs>
</svg>
