<?xml version="1.0" encoding="utf-8" standalone="no"?>
<!DOCTYPE svg PUBLIC "-//W3C//DTD SVG 1.1//EN"
  "http://www.w3.org/Graphics/SVG/1.1/DTD/svg11.dtd">
<svg xmlns:xlink="http://www.w3.org/1999/xlink" width="999.36pt" height="357.12pt" viewBox="0 0 999.36 357.12" xmlns="http://www.w3.org/2000/svg" version="1.1">
 <metadata>
  <rdf:RDF xmlns:dc="http://purl.org/dc/elements/1.1/" xmlns:cc="http://creativecommons.org/ns#" xmlns:rdf="http://www.w3.org/1999/02/22-rdf-syntax-ns#">
   <cc:Work>
    <dc:type rdf:resource="http://purl.org/dc/dcmitype/StillImage"/>
    <dc:date>2024-04-27T16:44:29.917627</dc:date>
    <dc:format>image/svg+xml</dc:format>
    <dc:creator>
     <cc:Agent>
      <dc:title>Matplotlib v3.7.0, https://matplotlib.org/</dc:title>
     </cc:Agent>
    </dc:creator>
   </cc:Work>
  </rdf:RDF>
 </metadata>
 <defs>
  <style type="text/css">*{stroke-linejoin: round; stroke-linecap: butt}</style>
 </defs>
 <g id="figure_1">
  <g id="patch_1">
   <path d="M 0 357.12 
L 999.36 357.12 
L 999.36 0 
L 0 0 
L 0 357.12 
z
" style="fill: none"/>
  </g>
  <g id="axes_1">
   <g id="patch_2">
    <path d="M 21.004646 323.425354 
L 996.525354 323.425354 
L 996.525354 2.834646 
L 21.004646 2.834646 
L 21.004646 323.425354 
z
" style="fill: none"/>
   </g>
   <g id="line2d_1">
    <path d="M 48.613722 250.171199 
L 52.969821 254.713546 
L 57.387273 259.002043 
L 61.927433 263.099421 
L 66.528945 266.954057 
L 71.253165 270.62191 
L 76.100092 274.102709 
L 81.069726 277.397282 
L 86.162067 280.507466 
L 91.438468 283.469006 
L 96.89893 286.277141 
L 102.543452 288.928826 
L 108.433388 291.447635 
L 114.568739 293.826541 
L 120.949503 296.060769 
L 127.637035 298.16594 
L 134.692688 300.151771 
L 139.785029 301.449585 
L 139.846382 268.34536 
L 139.907736 268.393436 
L 144.693309 271.999086 
L 149.601589 275.416325 
L 154.632577 278.646509 
L 159.786271 281.691964 
L 165.124026 284.587769 
L 170.645841 287.329767 
L 176.351717 289.915475 
L 182.303007 292.368061 
L 188.499711 294.681153 
L 195.003182 296.870157 
L 201.813421 298.926817 
L 208.991781 300.861191 
L 216.599615 302.678691 
L 224.636924 304.369068 
L 233.226415 305.946816 
L 242.42944 307.409265 
L 252.368708 308.760784 
L 263.166925 310.001036 
L 268.872801 310.573388 
L 268.934154 277.457531 
L 268.995508 277.496499 
L 274.087848 280.59878 
L 279.36425 283.552796 
L 284.824712 286.353795 
L 290.469234 288.998742 
L 296.35917 291.511151 
L 302.494521 293.884013 
L 308.875285 296.112564 
L 315.562817 298.212387 
L 322.61847 300.193172 
L 330.042244 302.045439 
L 337.956846 303.788279 
L 346.362276 305.408841 
L 355.381241 306.917684 
L 365.075094 308.310245 
L 375.566543 309.589006 
L 386.978295 310.752814 
L 399.555763 311.808057 
L 413.544362 312.753615 
L 427.839729 313.521059 
L 427.901082 280.418798 
L 427.962436 280.454807 
L 433.238837 283.420687 
L 438.699299 286.232936 
L 444.343821 288.888506 
L 450.233757 291.411005 
L 456.369108 293.793397 
L 462.749872 296.030898 
L 469.437404 298.139155 
L 476.493057 300.127895 
L 483.916831 301.987602 
L 491.770079 303.724727 
L 500.175509 305.353425 
L 509.133121 306.860263 
L 518.765621 308.253028 
L 529.195717 309.533874 
L 540.546115 310.701297 
L 553.06223 311.761406 
L 566.928121 312.709009 
L 582.511911 313.547241 
L 597.911641 314.190695 
L 597.972994 281.066249 
L 598.034348 281.101611 
L 603.310749 284.014191 
L 608.771211 286.775901 
L 614.477087 289.410797 
L 620.367023 291.88549 
L 626.502374 294.222731 
L 632.944491 296.437845 
L 639.693377 298.522008 
L 646.810383 300.485123 
L 654.295511 302.31825 
L 662.271466 304.040482 
L 670.73825 305.639565 
L 679.818568 307.126189 
L 689.573775 308.496227 
L 700.187932 309.759141 
L 711.783744 310.910704 
L 724.545272 311.950188 
L 738.717932 312.877491 
L 754.731196 313.69724 
L 770.683107 314.326558 
L 770.744461 281.211042 
L 770.805814 281.246259 
L 776.143569 284.179201 
L 781.665384 286.956365 
L 787.37126 289.575239 
L 793.32255 292.059289 
L 799.519254 294.402058 
L 805.961372 296.599306 
L 812.771611 298.684423 
L 819.888617 300.629741 
L 827.435098 302.460234 
L 835.411054 304.165142 
L 843.939191 305.758841 
L 853.080863 307.238267 
L 862.897423 308.59967 
L 873.572933 309.852722 
L 885.230099 310.993617 
L 898.052981 312.021957 
L 912.348347 312.941473 
L 928.484319 313.751917 
L 943.945402 314.352032 
L 944.006755 281.220871 
L 944.068109 281.256079 
L 949.405863 284.188203 
L 954.927679 286.964591 
L 960.633555 289.582729 
L 966.584845 292.066075 
L 968.916278 292.975129 
L 968.916278 292.975129 
" clip-path="url(#pc82699564f)" style="fill: none; stroke: #780004; stroke-width: 6"/>
   </g>
   <g id="matplotlib.axis_1">
    <g id="xtick_1">
     <g id="line2d_2">
      <defs>
       <path id="me0e42de291" d="M 0 0 
L 0 -5 
" style="stroke: #000000"/>
      </defs>
      <g>
       <use xlink:href="#me0e42de291" x="48.613722" y="323.425354" style="stroke: #000000"/>
      </g>
     </g>
     <g id="text_1">
      <!-- $0$ -->
      <g transform="translate(41.613722 348.200979) scale(0.28 -0.28)">
       <defs>
        <path id="Cmr10-30" d="M 1600 -141 
Q 816 -141 533 504 
Q 250 1150 250 2041 
Q 250 2597 351 3087 
Q 453 3578 754 3920 
Q 1056 4263 1600 4263 
Q 2022 4263 2290 4056 
Q 2559 3850 2700 3523 
Q 2841 3197 2892 2823 
Q 2944 2450 2944 2041 
Q 2944 1491 2842 1011 
Q 2741 531 2444 195 
Q 2147 -141 1600 -141 
z
M 1600 25 
Q 1956 25 2131 390 
Q 2306 756 2347 1200 
Q 2388 1644 2388 2144 
Q 2388 2625 2347 3031 
Q 2306 3438 2132 3767 
Q 1959 4097 1600 4097 
Q 1238 4097 1063 3765 
Q 888 3434 847 3029 
Q 806 2625 806 2144 
Q 806 1788 823 1472 
Q 841 1156 916 820 
Q 991 484 1158 254 
Q 1325 25 1600 25 
z
" transform="scale(0.015625)"/>
       </defs>
       <use xlink:href="#Cmr10-30" transform="translate(0 0.390625)"/>
      </g>
     </g>
    </g>
    <g id="xtick_2">
     <g id="line2d_3">
      <g>
       <use xlink:href="#me0e42de291" x="355.381241" y="323.425354" style="stroke: #000000"/>
      </g>
     </g>
     <g id="text_2">
      <!-- $5$ -->
      <g transform="translate(348.381241 348.200979) scale(0.28 -0.28)">
       <defs>
        <path id="Cmr10-35" d="M 556 728 
Q 622 541 758 387 
Q 894 234 1080 148 
Q 1266 63 1466 63 
Q 1928 63 2103 422 
Q 2278 781 2278 1294 
Q 2278 1516 2270 1667 
Q 2263 1819 2228 1959 
Q 2169 2184 2020 2353 
Q 1872 2522 1656 2522 
Q 1441 2522 1286 2456 
Q 1131 2391 1034 2303 
Q 938 2216 863 2119 
Q 788 2022 769 2016 
L 697 2016 
Q 681 2016 657 2036 
Q 634 2056 634 2075 
L 634 4213 
Q 634 4228 654 4245 
Q 675 4263 697 4263 
L 716 4263 
Q 1147 4056 1631 4056 
Q 2106 4056 2547 4263 
L 2566 4263 
Q 2588 4263 2606 4247 
Q 2625 4231 2625 4213 
L 2625 4153 
Q 2625 4122 2613 4122 
Q 2394 3831 2064 3668 
Q 1734 3506 1381 3506 
Q 1125 3506 856 3578 
L 856 2369 
Q 1069 2541 1236 2614 
Q 1403 2688 1663 2688 
Q 2016 2688 2295 2484 
Q 2575 2281 2725 1954 
Q 2875 1628 2875 1288 
Q 2875 903 2686 575 
Q 2497 247 2172 53 
Q 1847 -141 1466 -141 
Q 1150 -141 886 21 
Q 622 184 470 459 
Q 319 734 319 1044 
Q 319 1188 412 1278 
Q 506 1369 647 1369 
Q 788 1369 883 1276 
Q 978 1184 978 1044 
Q 978 906 883 811 
Q 788 716 647 716 
Q 625 716 597 720 
Q 569 725 556 728 
z
" transform="scale(0.015625)"/>
       </defs>
       <use xlink:href="#Cmr10-35" transform="translate(0 0.390625)"/>
      </g>
     </g>
    </g>
    <g id="xtick_3">
     <g id="line2d_4">
      <g>
       <use xlink:href="#me0e42de291" x="662.148759" y="323.425354" style="stroke: #000000"/>
      </g>
     </g>
     <g id="text_3">
      <!-- $10$ -->
      <g transform="translate(648.148759 348.200979) scale(0.28 -0.28)">
       <defs>
        <path id="Cmr10-31" d="M 594 0 
L 594 225 
Q 1394 225 1394 428 
L 1394 3788 
Q 1063 3628 556 3628 
L 556 3853 
Q 1341 3853 1741 4263 
L 1831 4263 
Q 1853 4263 1873 4245 
Q 1894 4228 1894 4206 
L 1894 428 
Q 1894 225 2694 225 
L 2694 0 
L 594 0 
z
" transform="scale(0.015625)"/>
       </defs>
       <use xlink:href="#Cmr10-31" transform="translate(0 0.390625)"/>
       <use xlink:href="#Cmr10-30" transform="translate(50 0.390625)"/>
      </g>
     </g>
    </g>
    <g id="xtick_4">
     <g id="line2d_5">
      <g>
       <use xlink:href="#me0e42de291" x="968.916278" y="323.425354" style="stroke: #000000"/>
      </g>
     </g>
     <g id="text_4">
      <!-- $15$ -->
      <g transform="translate(954.916278 348.200979) scale(0.28 -0.28)">
       <use xlink:href="#Cmr10-31" transform="translate(0 0.390625)"/>
       <use xlink:href="#Cmr10-35" transform="translate(50 0.390625)"/>
      </g>
     </g>
    </g>
   </g>
   <g id="matplotlib.axis_2">
    <g id="ytick_1">
     <g id="line2d_6">
      <defs>
       <path id="me9fd05c235" d="M 0 0 
L 5 0 
" style="stroke: #000000"/>
      </defs>
      <g>
       <use xlink:href="#me9fd05c235" x="21.004646" y="316.445973" style="stroke: #000000"/>
      </g>
     </g>
     <g id="text_5">
      <!-- $0$ -->
      <g transform="translate(3.504646 327.083786) scale(0.28 -0.28)">
       <use xlink:href="#Cmr10-30" transform="translate(0 0.390625)"/>
      </g>
     </g>
    </g>
    <g id="ytick_2">
     <g id="line2d_7">
      <g>
       <use xlink:href="#me9fd05c235" x="21.004646" y="250.171199" style="stroke: #000000"/>
      </g>
     </g>
     <g id="text_6">
      <!-- $1$ -->
      <g transform="translate(3.504646 260.809011) scale(0.28 -0.28)">
       <use xlink:href="#Cmr10-31" transform="translate(0 0.390625)"/>
      </g>
     </g>
    </g>
    <g id="ytick_3">
     <g id="line2d_8">
      <g>
       <use xlink:href="#me9fd05c235" x="21.004646" y="183.896424" style="stroke: #000000"/>
      </g>
     </g>
     <g id="text_7">
      <!-- $2$ -->
      <g transform="translate(3.504646 194.534237) scale(0.28 -0.28)">
       <defs>
        <path id="Cmr10-32" d="M 319 0 
L 319 172 
Q 319 188 331 206 
L 1325 1306 
Q 1550 1550 1690 1715 
Q 1831 1881 1968 2097 
Q 2106 2313 2186 2536 
Q 2266 2759 2266 3009 
Q 2266 3272 2169 3511 
Q 2072 3750 1880 3894 
Q 1688 4038 1416 4038 
Q 1138 4038 916 3870 
Q 694 3703 603 3438 
Q 628 3444 672 3444 
Q 816 3444 917 3347 
Q 1019 3250 1019 3097 
Q 1019 2950 917 2848 
Q 816 2747 672 2747 
Q 522 2747 420 2851 
Q 319 2956 319 3097 
Q 319 3338 409 3548 
Q 500 3759 670 3923 
Q 841 4088 1055 4175 
Q 1269 4263 1509 4263 
Q 1875 4263 2190 4108 
Q 2506 3953 2690 3670 
Q 2875 3388 2875 3009 
Q 2875 2731 2753 2481 
Q 2631 2231 2440 2026 
Q 2250 1822 1953 1562 
Q 1656 1303 1563 1216 
L 838 519 
L 1453 519 
Q 1906 519 2211 526 
Q 2516 534 2534 550 
Q 2609 631 2688 1141 
L 2875 1141 
L 2694 0 
L 319 0 
z
" transform="scale(0.015625)"/>
       </defs>
       <use xlink:href="#Cmr10-32" transform="translate(0 0.390625)"/>
      </g>
     </g>
    </g>
    <g id="ytick_4">
     <g id="line2d_9">
      <g>
       <use xlink:href="#me9fd05c235" x="21.004646" y="117.62165" style="stroke: #000000"/>
      </g>
     </g>
     <g id="text_8">
      <!-- $3$ -->
      <g transform="translate(3.504646 128.259462) scale(0.28 -0.28)">
       <defs>
        <path id="Cmr10-33" d="M 609 494 
Q 759 275 1012 169 
Q 1266 63 1556 63 
Q 1928 63 2084 380 
Q 2241 697 2241 1100 
Q 2241 1281 2208 1462 
Q 2175 1644 2097 1800 
Q 2019 1956 1883 2050 
Q 1747 2144 1550 2144 
L 1125 2144 
Q 1069 2144 1069 2203 
L 1069 2259 
Q 1069 2309 1125 2309 
L 1478 2338 
Q 1703 2338 1851 2506 
Q 2000 2675 2069 2917 
Q 2138 3159 2138 3378 
Q 2138 3684 1994 3881 
Q 1850 4078 1556 4078 
Q 1313 4078 1091 3986 
Q 869 3894 738 3706 
Q 750 3709 759 3711 
Q 769 3713 781 3713 
Q 925 3713 1022 3613 
Q 1119 3513 1119 3372 
Q 1119 3234 1022 3134 
Q 925 3034 781 3034 
Q 641 3034 541 3134 
Q 441 3234 441 3372 
Q 441 3647 606 3850 
Q 772 4053 1033 4158 
Q 1294 4263 1556 4263 
Q 1750 4263 1965 4205 
Q 2181 4147 2356 4039 
Q 2531 3931 2642 3762 
Q 2753 3594 2753 3378 
Q 2753 3109 2633 2881 
Q 2513 2653 2303 2487 
Q 2094 2322 1844 2241 
Q 2122 2188 2372 2031 
Q 2622 1875 2773 1631 
Q 2925 1388 2925 1106 
Q 2925 753 2731 467 
Q 2538 181 2222 20 
Q 1906 -141 1556 -141 
Q 1256 -141 954 -26 
Q 653 88 461 316 
Q 269 544 269 863 
Q 269 1022 375 1128 
Q 481 1234 641 1234 
Q 744 1234 830 1186 
Q 916 1138 964 1050 
Q 1013 963 1013 863 
Q 1013 706 903 600 
Q 794 494 641 494 
L 609 494 
z
" transform="scale(0.015625)"/>
       </defs>
       <use xlink:href="#Cmr10-33" transform="translate(0 0.390625)"/>
      </g>
     </g>
    </g>
    <g id="ytick_5">
     <g id="line2d_10">
      <g>
       <use xlink:href="#me9fd05c235" x="21.004646" y="51.346875" style="stroke: #000000"/>
      </g>
     </g>
     <g id="text_9">
      <!-- $4$ -->
      <g transform="translate(3.504646 61.984688) scale(0.28 -0.28)">
       <defs>
        <path id="Cmr10-34" d="M 178 1056 
L 178 1281 
L 2156 4231 
Q 2178 4263 2222 4263 
L 2316 4263 
Q 2388 4263 2388 4191 
L 2388 1281 
L 3016 1281 
L 3016 1056 
L 2388 1056 
L 2388 428 
Q 2388 297 2575 261 
Q 2763 225 3009 225 
L 3009 0 
L 1247 0 
L 1247 225 
Q 1494 225 1681 261 
Q 1869 297 1869 428 
L 1869 1056 
L 178 1056 
z
M 391 1281 
L 1906 1281 
L 1906 3547 
L 391 1281 
z
" transform="scale(0.015625)"/>
       </defs>
       <use xlink:href="#Cmr10-34" transform="translate(0 0.390625)"/>
      </g>
     </g>
    </g>
   </g>
   <g id="line2d_11">
    <path d="M 48.613722 250.171199 
L 52.969821 254.713546 
L 57.387273 259.002043 
L 61.927433 263.099421 
L 66.528945 266.954057 
L 71.253165 270.62191 
L 76.100092 274.102709 
L 81.069726 277.397282 
L 86.162067 280.507466 
L 91.438468 283.469006 
L 96.89893 286.277141 
L 102.543452 288.928826 
L 108.433388 291.447635 
L 114.568739 293.826541 
L 120.949503 296.060769 
L 127.637035 298.16594 
L 134.692688 300.151771 
L 139.785029 301.449585 
L 139.846382 241.849988 
L 139.907736 241.924547 
L 144.141128 246.893138 
L 148.435873 251.595339 
L 152.791972 256.040079 
L 157.270777 260.292604 
L 161.810937 264.297929 
L 166.473803 268.11432 
L 171.259376 271.740914 
L 176.106303 275.136713 
L 181.13729 278.38891 
L 186.290985 281.45512 
L 191.628739 284.37066 
L 197.150555 287.131344 
L 202.856431 289.734673 
L 208.80772 292.203973 
L 215.004424 294.532828 
L 221.385189 296.697292 
L 221.446542 237.095089 
L 221.507896 237.1744 
L 225.679934 242.385675 
L 229.913326 247.323521 
L 234.208071 251.996626 
L 238.625523 256.473865 
L 243.104329 260.695851 
L 247.644488 264.672413 
L 252.307355 268.461399 
L 257.092928 272.061949 
L 262.001208 275.474355 
L 267.032195 278.69997 
L 272.18589 281.741118 
L 277.523645 284.632827 
L 283.04546 287.370947 
L 288.751336 289.952998 
L 294.702626 292.402115 
L 298.751957 293.937775 
L 298.81331 234.339902 
L 298.874664 234.421967 
L 303.046702 239.814186 
L 307.280094 244.923482 
L 311.574839 249.758844 
L 315.930938 254.329453 
L 320.34839 258.644632 
L 324.888549 262.767504 
L 329.490062 266.646123 
L 334.214282 270.336797 
L 339.061209 273.839254 
L 344.030843 277.154325 
L 349.123183 280.28386 
L 354.399585 283.263827 
L 359.860047 286.089434 
L 365.504569 288.757617 
L 371.333152 291.266932 
L 373.725938 292.230012 
L 373.787292 232.622766 
L 373.848645 232.706547 
L 378.020684 238.211537 
L 382.254075 243.427687 
L 386.548821 248.364174 
L 390.904919 253.030372 
L 395.322372 257.435797 
L 399.801177 261.590064 
L 404.40269 265.553761 
L 409.065557 269.278246 
L 413.85113 272.817504 
L 418.75941 276.17182 
L 423.790397 279.342525 
L 429.005445 282.366 
L 434.404554 285.236867 
L 439.987722 287.951507 
L 445.754952 290.507952 
L 447.534203 291.249352 
L 447.595557 231.679616 
L 447.65691 231.76434 
L 451.828949 237.331271 
L 456.000987 242.532234 
L 460.234379 247.460308 
L 464.529124 252.124166 
L 468.946576 256.592544 
L 473.425382 260.806176 
L 477.965541 264.774868 
L 482.628407 268.556356 
L 487.413981 272.14978 
L 492.322261 275.555434 
L 497.353248 278.774666 
L 502.506943 281.809796 
L 507.844697 284.695783 
L 513.366513 287.428484 
L 519.072389 290.005425 
L 520.544873 290.632444 
L 520.606226 231.011118 
L 520.66758 231.09651 
L 524.839618 236.707344 
L 529.011656 241.949323 
L 533.245048 246.916262 
L 537.539793 251.616901 
L 541.895892 256.060163 
L 546.374698 260.311273 
L 550.914857 264.315266 
L 555.577723 268.130389 
L 560.363297 271.755777 
L 565.210223 275.150448 
L 570.241211 278.401563 
L 575.394905 281.466754 
L 580.73266 284.381324 
L 586.254475 287.14109 
L 591.960351 289.743554 
L 593.187421 290.272298 
L 593.248775 230.703181 
L 593.310128 230.788881 
L 597.482166 236.419938 
L 601.654205 241.680812 
L 605.887596 246.665653 
L 610.182342 251.383234 
L 614.53844 255.842511 
L 619.017246 260.108944 
L 623.557405 264.127369 
L 628.220272 267.956243 
L 632.944491 271.549824 
L 637.791418 274.960139 
L 642.822406 278.226237 
L 647.9761 281.305554 
L 653.313855 284.233555 
L 658.83567 287.00604 
L 664.541546 289.620497 
L 665.523202 290.04629 
L 665.584555 230.439139 
L 665.645909 230.525103 
L 669.756594 236.093187 
L 673.928632 241.375541 
L 678.162024 246.380736 
L 682.456769 251.117579 
L 686.812868 255.595064 
L 691.291673 259.878917 
L 695.831833 263.91375 
L 700.494699 267.758257 
L 705.218919 271.366511 
L 710.065846 274.79075 
L 715.035479 278.031789 
L 720.189174 281.126772 
L 725.465575 284.037278 
L 730.926037 286.797022 
L 736.631913 289.430041 
L 737.736276 289.911978 
L 737.797629 230.338235 
L 737.858983 230.424299 
L 741.969668 235.998917 
L 746.141706 241.287468 
L 750.375098 246.298535 
L 754.669843 251.040935 
L 759.025942 255.523673 
L 763.504747 259.812552 
L 768.044907 263.852118 
L 772.707773 267.701136 
L 777.431993 271.313623 
L 782.278919 274.74188 
L 787.248553 277.986721 
L 792.402248 281.085335 
L 797.678649 283.999256 
L 803.139111 286.762237 
L 808.844987 289.398346 
L 809.765289 289.801033 
L 809.826643 230.209461 
L 809.887996 230.295655 
L 813.998681 235.878609 
L 818.170719 241.175069 
L 822.404111 246.19363 
L 826.698856 250.943122 
L 831.054955 255.432564 
L 835.533761 259.727857 
L 840.07392 263.773464 
L 844.736786 267.628238 
L 849.461006 271.246128 
L 854.307933 274.679512 
L 859.277567 277.929206 
L 864.431261 281.032453 
L 869.707662 283.950732 
L 875.168124 286.717846 
L 880.874 289.357897 
L 881.794302 289.761186 
L 881.855656 230.194502 
L 881.917009 230.280711 
L 886.027694 235.864633 
L 890.199732 241.162012 
L 894.433124 246.181444 
L 898.727869 250.93176 
L 903.083968 255.42198 
L 907.562774 259.718019 
L 912.102933 263.764328 
L 916.7658 267.61977 
L 921.490019 271.238287 
L 926.336946 274.672267 
L 931.30658 277.922525 
L 936.460274 281.02631 
L 941.736676 283.945095 
L 947.197137 286.712689 
L 952.903013 289.353198 
L 953.761962 289.729854 
L 953.823316 230.133751 
L 953.884669 230.22002 
L 957.995354 235.807876 
L 962.167392 241.108986 
L 966.400784 246.131953 
L 968.916278 248.956528 
L 968.916278 248.956528 
" clip-path="url(#pc82699564f)" style="fill: none; stroke: #d21f01; stroke-width: 6"/>
   </g>
   <g id="patch_3">
    <path d="M 21.004646 323.425354 
L 21.004646 2.834646 
" style="fill: none; stroke: #000000; stroke-width: 2; stroke-linejoin: miter; stroke-linecap: square"/>
   </g>
   <g id="patch_4">
    <path d="M 21.004646 323.425354 
L 996.525354 323.425354 
" style="fill: none; stroke: #000000; stroke-width: 2; stroke-linejoin: miter; stroke-linecap: square"/>
   </g>
   <g id="line2d_12">
    <path d="M 48.613722 250.171199 
L 52.969821 254.713546 
L 57.387273 259.002043 
L 61.927433 263.099421 
L 66.528945 266.954057 
L 71.253165 270.62191 
L 76.100092 274.102709 
L 81.069726 277.397282 
L 86.162067 280.507466 
L 91.438468 283.469006 
L 96.89893 286.277141 
L 102.543452 288.928826 
L 108.433388 291.447635 
L 114.568739 293.826541 
L 120.949503 296.060769 
L 127.637035 298.16594 
L 134.692688 300.151771 
L 139.785029 301.449585 
L 139.846382 235.226145 
L 139.907736 235.307325 
L 144.079774 240.641341 
L 148.313166 245.695487 
L 152.607911 250.478657 
L 156.96401 254.999932 
L 161.381462 259.268534 
L 165.921621 263.346904 
L 170.523134 267.183657 
L 175.247354 270.834495 
L 180.094281 274.299146 
L 185.063915 277.578435 
L 190.156255 280.67419 
L 195.432657 283.621991 
L 200.893118 286.417099 
L 206.537641 289.056482 
L 212.427577 291.563606 
L 215.617959 292.824424 
L 215.679313 226.617169 
L 215.740666 226.706953 
L 219.851351 232.522472 
L 224.023389 238.039564 
L 228.256781 243.267179 
L 232.551526 248.214518 
L 236.907625 252.890973 
L 241.325077 257.306082 
L 245.803883 261.469481 
L 250.405396 265.441891 
L 255.068262 269.174563 
L 259.853836 272.7216 
L 264.762116 276.08329 
L 269.793103 279.260965 
L 275.008151 282.291086 
L 280.407259 285.168264 
L 285.070126 287.457285 
L 285.131479 221.233015 
L 285.192833 221.32818 
L 289.242164 227.403271 
L 293.352849 233.173666 
L 297.524887 238.647948 
L 301.758279 243.835 
L 306.053024 248.743951 
L 310.409123 253.384119 
L 314.826575 257.76497 
L 319.305381 261.896064 
L 323.906893 265.83765 
L 328.56976 269.541359 
L 333.355333 273.060874 
L 338.263613 276.396479 
L 343.355954 279.586375 
L 348.571002 282.589979 
L 351.086496 283.950004 
L 351.147849 217.742861 
L 351.209203 217.841515 
L 355.258534 224.139296 
L 359.369219 230.121212 
L 363.479903 235.715471 
L 367.651942 241.022656 
L 371.885333 246.051379 
L 376.180079 250.810488 
L 380.536177 255.30902 
L 385.014983 259.613011 
L 389.555142 263.66681 
L 394.156655 267.480448 
L 398.880875 271.10929 
L 403.727802 274.553068 
L 408.697435 277.812601 
L 413.85113 280.925243 
L 415.0782 281.6286 
L 415.139553 215.437792 
L 415.200907 215.538749 
L 419.250238 221.983606 
L 423.299569 228.016836 
L 427.410254 233.747469 
L 431.582292 239.184029 
L 435.815684 244.335339 
L 440.110429 249.210464 
L 444.466528 253.818658 
L 448.88398 258.169322 
L 453.362786 262.27195 
L 457.964299 266.186376 
L 462.688519 269.911122 
L 467.474092 273.402891 
L 472.382372 276.712201 
L 477.474713 279.87695 
L 477.720127 280.022934 
L 477.781481 213.802079 
L 477.842834 213.904672 
L 481.892165 220.453896 
L 485.941497 226.584827 
L 490.052181 232.40826 
L 494.22422 237.93286 
L 498.457611 243.16759 
L 502.752357 248.121661 
L 507.108455 252.80448 
L 511.525908 257.225598 
L 516.004713 261.394663 
L 520.606226 265.372479 
L 525.269092 269.110231 
L 530.054666 272.662096 
L 534.962946 276.02836 
L 539.564459 278.948796 
L 539.625812 212.767713 
L 539.687166 212.87134 
L 543.736497 219.486562 
L 547.785828 225.679276 
L 551.896513 231.561393 
L 556.068551 237.141665 
L 560.24059 242.355093 
L 564.473981 247.294978 
L 568.768727 251.970013 
L 573.186179 256.4491 
L 577.664985 260.67283 
L 582.205144 264.651034 
L 586.86801 268.441584 
L 591.653583 272.043621 
L 596.561864 275.457436 
L 600.795256 278.190278 
L 600.856609 212.00535 
L 600.917963 212.109739 
L 604.967294 218.773604 
L 609.016625 225.011854 
L 613.12731 230.937223 
L 617.299348 236.558528 
L 621.471386 241.810291 
L 625.704778 246.7865 
L 629.999523 251.495911 
L 634.355622 255.947465 
L 638.834428 260.20651 
L 643.374587 264.217975 
L 648.037453 268.040218 
L 652.761673 271.627576 
L 657.6086 275.031985 
L 661.596578 277.638272 
L 661.657931 211.421951 
L 661.719285 211.526922 
L 665.707262 218.129744 
L 669.756594 224.409117 
L 673.867278 230.373547 
L 677.977963 235.951453 
L 682.150001 241.243125 
L 686.383393 246.257148 
L 690.678138 251.002346 
L 695.034237 255.487729 
L 699.513043 259.779139 
L 704.053202 263.821088 
L 708.716069 267.672377 
L 713.440288 271.286995 
L 718.287215 274.717274 
L 722.152486 277.265084 
L 722.213839 211.056412 
L 722.275193 211.161748 
L 726.263171 217.787552 
L 730.312502 224.08878 
L 734.423187 230.073969 
L 738.533871 235.671289 
L 742.70591 240.981379 
L 746.939301 246.012854 
L 751.234047 250.774568 
L 755.590145 255.275562 
L 760.007598 259.525016 
L 764.547757 263.585091 
L 769.14927 267.404634 
L 773.873489 271.039095 
L 778.720416 274.488205 
L 782.524333 277.010585 
L 782.585687 210.821645 
L 782.64704 210.927216 
L 786.635018 217.567779 
L 790.684349 223.883044 
L 794.795034 229.881566 
L 798.905719 235.491355 
L 803.077757 240.813273 
L 807.311149 245.855956 
L 811.605894 250.628278 
L 815.961993 255.139298 
L 820.379445 259.398218 
L 824.919605 263.467338 
L 829.521117 267.295389 
L 834.245337 270.937946 
L 839.092264 274.394739 
L 842.712121 276.80399 
L 842.773474 210.582883 
L 842.834828 210.688693 
L 846.822805 217.344267 
L 850.872137 223.673807 
L 854.982821 229.685889 
L 859.093506 235.308359 
L 863.265544 240.642307 
L 867.498936 245.696389 
L 871.793681 250.479498 
L 876.14978 255.000715 
L 880.567232 259.269262 
L 885.107392 263.34758 
L 889.708904 267.184285 
L 894.433124 270.835076 
L 899.280051 274.299683 
L 902.838554 276.674629 
L 902.899908 210.459287 
L 902.961261 210.56522 
L 906.949239 217.228565 
L 910.99857 223.565495 
L 915.109255 229.584595 
L 919.21994 235.21363 
L 923.391978 240.553805 
L 927.62537 245.613788 
L 931.920115 250.402482 
L 936.276214 254.928977 
L 940.693666 259.202508 
L 945.233825 263.285587 
L 949.835338 267.126772 
L 954.559558 270.781825 
L 959.406485 274.250477 
L 962.903634 276.588358 
L 962.964988 210.384522 
L 963.026341 210.490531 
L 967.014319 217.158576 
L 968.916278 220.189266 
L 968.916278 220.189266 
" clip-path="url(#pc82699564f)" style="fill: none; stroke: #f76008; stroke-width: 6"/>
   </g>
   <g id="line2d_13">
    <path d="M 48.613722 250.171199 
L 52.969821 254.713546 
L 57.387273 259.002043 
L 61.927433 263.099421 
L 66.528945 266.954057 
L 71.253165 270.62191 
L 76.100092 274.102709 
L 81.069726 277.397282 
L 86.162067 280.507466 
L 91.438468 283.469006 
L 96.89893 286.277141 
L 102.543452 288.928826 
L 108.433388 291.447635 
L 114.568739 293.826541 
L 120.949503 296.060769 
L 127.637035 298.16594 
L 134.692688 300.151771 
L 139.785029 301.449585 
L 139.846382 228.602302 
L 139.907736 228.690102 
L 144.018421 234.377104 
L 148.190459 239.772272 
L 152.423851 244.884363 
L 156.718596 249.72237 
L 161.074695 254.295479 
L 165.492147 258.613018 
L 170.032306 262.738145 
L 174.633819 266.618885 
L 179.358039 270.311578 
L 184.204965 273.81595 
L 189.174599 277.132835 
L 194.26694 280.264081 
L 199.543341 283.245678 
L 205.003803 286.07283 
L 210.648326 288.742473 
L 210.709679 215.925745 
L 210.771033 216.026215 
L 214.820364 222.439938 
L 218.931049 228.53198 
L 223.041733 234.229229 
L 227.213772 239.634119 
L 231.447163 244.75542 
L 235.741909 249.602144 
L 240.098007 254.183494 
L 244.51546 258.508813 
L 249.055619 262.641372 
L 253.657132 266.529105 
L 258.381351 270.228451 
L 263.228278 273.739138 
L 268.197912 277.061999 
L 273.290253 280.198887 
L 273.59702 280.37967 
L 273.658374 207.579188 
L 273.719727 207.688 
L 277.707705 214.532415 
L 281.757036 221.041546 
L 285.806368 227.134944 
L 289.917052 232.922727 
L 294.089091 238.413506 
L 298.322482 243.61619 
L 302.617228 248.539933 
L 306.973326 253.194085 
L 311.390779 257.588137 
L 315.869584 261.731679 
L 320.471097 265.685144 
L 325.133963 269.400014 
L 329.919537 272.930134 
L 332.128263 274.468841 
L 332.189616 201.611638 
L 332.25097 201.726415 
L 336.238948 208.946008 
L 340.226925 215.711253 
L 344.276257 222.145093 
L 348.325588 228.168008 
L 352.436273 233.888844 
L 356.608311 239.316111 
L 360.841703 244.458615 
L 365.136448 249.325405 
L 369.492547 253.925722 
L 373.909999 258.268948 
L 378.388805 262.364562 
L 382.990317 266.272296 
L 387.714537 269.990675 
L 387.959951 270.176125 
L 388.021305 197.325597 
L 388.082658 197.444658 
L 392.070636 204.933712 
L 396.058614 211.951462 
L 400.107945 218.625436 
L 404.157276 224.873149 
L 408.267961 230.807507 
L 412.439999 236.43734 
L 416.612037 241.697069 
L 420.845429 246.680827 
L 425.140174 251.397382 
L 429.496273 255.855689 
L 433.975079 260.121195 
L 438.515238 264.138746 
L 441.951034 266.987443 
L 442.012388 194.200068 
L 442.073741 194.322253 
L 446.000366 201.893313 
L 449.988343 209.102402 
L 453.976321 215.857806 
L 458.025652 222.282285 
L 462.074984 228.296438 
L 466.185668 234.008951 
L 470.357707 239.428322 
L 474.591098 244.563344 
L 478.885844 249.423054 
L 483.241942 254.016678 
L 487.659395 258.353586 
L 492.138201 262.443241 
L 494.530987 264.508808 
L 494.592341 191.712602 
L 494.653694 191.837273 
L 498.580318 199.56239 
L 502.568296 206.91817 
L 506.556274 213.811033 
L 510.605605 220.366238 
L 514.654936 226.502767 
L 518.765621 232.331519 
L 522.937659 237.861163 
L 527.171051 243.100673 
L 531.465796 248.059269 
L 535.821895 252.746364 
L 540.239347 257.171519 
L 544.718153 261.344391 
L 546.06793 262.543389 
L 546.129284 189.696958 
L 546.190637 189.823643 
L 550.117261 197.673595 
L 554.105239 205.148242 
L 558.093217 212.15249 
L 562.142548 218.813625 
L 566.191879 225.049319 
L 570.302564 230.97226 
L 574.474602 236.591262 
L 578.646641 241.840873 
L 582.880032 246.815042 
L 587.174778 251.522524 
L 591.530876 255.972254 
L 596.009682 260.229554 
L 596.929985 261.066507 
L 596.991338 188.28662 
L 597.052692 188.414715 
L 600.979316 196.352013 
L 604.90594 203.797238 
L 608.893918 210.886509 
L 612.881896 217.529634 
L 616.931227 223.847335 
L 621.041912 229.848171 
L 625.152596 235.460124 
L 629.324635 240.784095 
L 633.558027 245.828724 
L 637.852772 250.602887 
L 642.208871 255.115647 
L 646.626323 259.37621 
L 647.117151 259.830947 
L 647.178504 187.032431 
L 647.239858 187.16178 
L 651.166482 195.176753 
L 655.093106 202.694839 
L 659.081084 209.853486 
L 663.069062 216.561622 
L 667.118393 222.941149 
L 671.229078 229.00071 
L 675.339763 234.667583 
L 679.511801 240.043656 
L 683.745193 245.137652 
L 688.039938 249.958535 
L 692.396037 254.515458 
L 696.813489 258.817715 
L 696.874842 185.98785 
L 696.936196 186.118243 
L 700.86282 194.197911 
L 704.789444 201.776679 
L 708.777422 208.993109 
L 712.7654 215.75539 
L 716.814731 222.186411 
L 720.864062 228.206687 
L 724.974747 233.925017 
L 729.146785 239.349905 
L 733.380177 244.490156 
L 737.674922 249.354814 
L 742.031021 253.953115 
L 746.141706 258.002952 
L 746.203059 185.163927 
L 746.264413 185.295143 
L 750.191037 193.425839 
L 754.117661 201.052472 
L 758.105639 208.314478 
L 762.093617 215.119467 
L 766.142948 221.591104 
L 770.192279 227.649402 
L 774.302964 233.403846 
L 778.475002 238.862996 
L 782.708394 244.035711 
L 787.003139 248.931092 
L 791.359238 253.558434 
L 795.163155 257.339052 
L 795.224509 184.500252 
L 795.285862 184.632131 
L 799.212486 192.803931 
L 803.139111 200.469119 
L 807.127088 207.767837 
L 811.115066 214.607227 
L 815.164397 221.11158 
L 819.213729 227.200505 
L 823.324413 232.98404 
L 827.496452 238.470788 
L 831.729843 243.669652 
L 836.024589 248.589781 
L 840.380687 253.240516 
L 843.939191 256.802147 
L 844.000544 183.9793 
L 844.061898 184.1117 
L 847.988522 192.315763 
L 851.915146 200.011216 
L 855.903124 207.33875 
L 859.891102 214.205145 
L 863.940433 220.735178 
L 867.989764 226.848144 
L 872.100449 232.654513 
L 876.272487 238.162924 
L 880.505879 243.382315 
L 884.800624 248.32187 
L 889.156723 252.990967 
L 892.531166 256.386752 
L 892.592519 183.615557 
L 892.653873 183.748321 
L 896.580497 191.974912 
L 900.507121 199.691495 
L 904.495099 207.039151 
L 908.483077 213.9244 
L 912.532408 220.472364 
L 916.581739 226.602115 
L 920.692424 232.424428 
L 924.864462 237.947965 
L 929.097854 243.181688 
L 933.392599 248.134806 
L 937.748698 252.816724 
L 940.877726 255.980455 
L 940.93908 183.182369 
L 941.000433 183.315566 
L 944.927058 191.568986 
L 948.853682 199.310735 
L 952.84166 206.682352 
L 956.829637 213.590055 
L 960.878969 220.159374 
L 964.9283 226.309116 
L 968.916278 231.981657 
L 968.916278 231.981657 
" clip-path="url(#pc82699564f)" style="fill: none; stroke: #ffa514; stroke-width: 6"/>
   </g>
   <g id="line2d_14">
    <path d="M 48.613722 250.171199 
L 52.969821 254.713546 
L 57.387273 259.002043 
L 61.927433 263.099421 
L 66.528945 266.954057 
L 71.253165 270.62191 
L 76.100092 274.102709 
L 81.069726 277.397282 
L 86.162067 280.507466 
L 91.438468 283.469006 
L 96.89893 286.277141 
L 102.543452 288.928826 
L 108.433388 291.447635 
L 114.568739 293.826541 
L 120.949503 296.060769 
L 127.637035 298.16594 
L 134.692688 300.151771 
L 139.785029 301.449585 
L 139.846382 221.97846 
L 139.907736 222.07288 
L 143.957067 228.100408 
L 148.067752 233.825624 
L 152.23979 239.257047 
L 156.473182 244.403489 
L 160.767927 249.274006 
L 165.124026 253.877846 
L 169.541478 258.224397 
L 174.020284 262.323148 
L 178.621797 266.233875 
L 183.346016 269.955101 
L 188.13159 273.44357 
L 193.101224 276.789428 
L 198.193564 279.948026 
L 203.408612 282.922161 
L 206.230873 284.429326 
L 206.292227 204.947799 
L 206.35358 205.059241 
L 210.341558 212.069091 
L 214.390889 218.735552 
L 218.440221 224.976232 
L 222.550905 230.90391 
L 226.722944 236.527405 
L 230.894982 241.781214 
L 235.128374 246.759361 
L 239.423119 251.470607 
L 243.779218 255.923896 
L 248.258023 260.1846 
L 252.798183 264.197628 
L 257.461049 268.02136 
L 262.185269 271.610115 
L 263.596399 272.629571 
L 263.657753 193.169554 
L 263.719106 193.292769 
L 267.645731 200.927652 
L 271.633708 208.197513 
L 275.621686 215.009863 
L 279.671017 221.4885 
L 283.720348 227.553352 
L 287.831033 233.31402 
L 292.003071 238.779075 
L 296.236463 243.957385 
L 300.531208 248.858062 
L 304.887307 253.490409 
L 309.30476 257.863876 
L 313.783565 261.988007 
L 315.808231 263.755791 
L 315.869584 184.336226 
L 315.930938 184.468269 
L 319.857562 192.650227 
L 323.784186 200.324945 
L 327.772164 207.632735 
L 331.760142 214.480628 
L 335.809473 220.993067 
L 339.858804 227.089562 
L 343.969489 232.880286 
L 348.141527 238.373854 
L 352.374919 243.579182 
L 356.669664 248.505427 
L 361.025763 253.161944 
L 364.461559 256.608447 
L 364.522913 177.183677 
L 364.584266 177.32287 
L 368.510891 185.947807 
L 372.437515 194.03804 
L 376.364139 201.62672 
L 380.352117 208.852587 
L 384.340095 215.623712 
L 388.389426 222.063143 
L 392.438757 228.091292 
L 396.549442 233.8171 
L 400.72148 239.249083 
L 404.954872 244.396056 
L 409.249617 249.267075 
L 410.292627 250.399464 
L 410.35398 170.964738 
L 410.415334 171.110146 
L 414.280604 179.983847 
L 418.207229 188.443817 
L 422.133853 196.37931 
L 426.060477 203.822843 
L 430.048455 210.910502 
L 434.036433 217.552117 
L 438.085764 223.868382 
L 442.196448 229.867854 
L 446.307133 235.478532 
L 450.479171 240.801293 
L 453.546847 244.490528 
L 453.6082 165.033008 
L 453.669554 165.184346 
L 457.534824 174.419855 
L 461.400095 183.091477 
L 465.326719 191.358789 
L 469.253344 199.113569 
L 473.241321 206.497595 
L 477.229299 213.416925 
L 481.27863 219.997301 
L 485.327962 226.157395 
L 489.438646 232.008528 
L 493.610685 237.559405 
L 494.40828 238.578294 
L 494.469634 159.131437 
L 494.530987 159.288672 
L 498.396258 168.884151 
L 502.261529 177.893764 
L 506.188153 186.483308 
L 510.114777 194.540343 
L 514.041401 202.097883 
L 518.029379 209.294098 
L 522.017357 216.037438 
L 526.066688 222.450444 
L 530.177373 228.541805 
L 532.999634 232.493804 
L 533.060987 153.063255 
L 533.122341 153.226556 
L 536.987612 163.192167 
L 540.852882 172.549312 
L 544.718153 181.335142 
L 548.644777 189.711338 
L 552.571402 197.568252 
L 556.559379 205.049528 
L 560.547357 212.059989 
L 564.596688 218.727032 
L 568.64602 224.968256 
L 569.443615 226.14977 
L 569.504969 146.729928 
L 569.566322 146.899559 
L 573.431593 157.251474 
L 577.296864 166.971337 
L 581.162134 176.097739 
L 585.088759 184.798628 
L 589.015383 192.960105 
L 592.942007 200.615612 
L 596.929985 207.90511 
L 600.917963 214.735862 
L 603.862931 219.50263 
L 603.924284 140.075857 
L 603.985638 140.252139 
L 607.850908 151.009923 
L 611.716179 161.110873 
L 615.58145 170.595095 
L 619.446721 179.500243 
L 623.373345 187.990193 
L 627.299969 195.953809 
L 631.226593 203.423721 
L 635.214571 210.536498 
L 636.441641 212.633646 
L 636.502995 133.252739 
L 636.564348 133.435841 
L 640.368265 144.437882 
L 644.233536 154.940098 
L 648.098807 164.801086 
L 651.964078 174.059996 
L 655.829348 182.753589 
L 659.755973 191.041848 
L 663.682597 198.816277 
L 667.2411 205.444717 
L 667.302454 126.08014 
L 667.363807 126.27041 
L 671.167724 137.703216 
L 675.032995 148.616628 
L 678.898266 158.863705 
L 682.763536 168.485131 
L 686.628807 177.519106 
L 690.555431 186.131877 
L 694.482056 194.210699 
L 696.384014 197.941861 
L 696.445368 118.568259 
L 696.506721 118.766038 
L 700.310639 130.649985 
L 704.114556 141.819504 
L 707.979826 152.481589 
L 711.845097 162.492685 
L 715.710368 171.892538 
L 719.575639 180.718469 
L 723.502263 189.132895 
L 723.993091 190.147337 
L 724.054444 110.751219 
L 724.115798 110.956811 
L 727.919715 123.310226 
L 731.723632 134.92099 
L 735.52755 145.833748 
L 739.39282 156.250737 
L 743.258091 166.031702 
L 747.123362 175.215475 
L 750.252391 182.237643 
L 750.313744 102.904999 
L 750.375098 103.118433 
L 754.179015 115.943069 
L 757.982932 127.996724 
L 761.786849 139.325749 
L 765.65212 150.140095 
L 769.517391 160.294154 
L 773.382661 169.828242 
L 775.161913 174.019095 
L 775.223267 94.705862 
L 775.28462 94.927491 
L 779.088537 108.244543 
L 782.892454 120.761012 
L 786.696372 132.525027 
L 790.500289 143.581823 
L 794.36556 154.136308 
L 798.23083 164.046372 
L 798.844365 165.562773 
L 798.905719 86.26231 
L 798.967072 86.492379 
L 802.77099 100.316525 
L 806.574907 113.309604 
L 810.378824 125.521576 
L 814.182741 136.999399 
L 818.048012 147.955784 
L 821.361101 156.812958 
L 821.422455 77.48533 
L 821.483808 77.724172 
L 825.287726 92.075437 
L 829.091643 105.563946 
L 832.89556 118.241565 
L 836.699477 130.157042 
L 840.503394 141.356194 
L 842.834828 147.884777 
L 842.896181 68.544454 
L 842.957535 68.792232 
L 846.761452 83.68046 
L 850.565369 97.67365 
L 854.369286 110.825611 
L 858.173204 123.186913 
L 861.977121 134.80509 
L 863.388251 138.935153 
L 863.449605 59.659046 
L 863.510958 59.915704 
L 867.314876 75.337563 
L 871.118793 89.832305 
L 874.92271 103.455664 
L 878.726627 116.260027 
L 882.530544 128.294628 
L 882.960019 129.607089 
L 883.021373 50.304218 
L 883.082726 50.570227 
L 886.886643 66.553909 
L 890.69056 81.576698 
L 894.494478 95.696361 
L 898.298395 108.967191 
L 901.734191 120.266664 
L 901.795545 41.002478 
L 901.856898 41.277784 
L 905.660815 57.820101 
L 909.464733 73.367942 
L 913.26865 87.981091 
L 917.072567 101.71574 
L 919.649414 110.547642 
L 919.710768 31.233461 
L 919.772121 31.518531 
L 923.514685 48.379614 
L 927.318602 64.494989 
L 931.122519 79.641555 
L 934.926437 93.877553 
L 936.889749 100.886993 
L 936.951102 21.603273 
L 937.012456 21.897968 
L 940.755019 39.328365 
L 944.558937 55.987876 
L 948.362854 71.645864 
L 952.166771 86.36254 
L 953.455195 91.143912 
L 953.516548 11.907968 
L 953.577902 12.212353 
L 957.320465 30.215913 
L 961.063029 47.154081 
L 964.866946 63.343132 
L 968.670864 78.558944 
L 968.916278 79.508592 
L 968.916278 79.508592 
" clip-path="url(#pc82699564f)" style="fill: none; stroke: #ffd120; stroke-width: 6"/>
   </g>
  </g>
 </g>
 <defs>
  <clipPath id="pc82699564f">
   <rect x="21.004646" y="2.834646" width="975.520709" height="320.590709"/>
  </clipPath>
 </defs>
</svg>
