<?xml version="1.0" encoding="utf-8" standalone="no"?>
<!DOCTYPE svg PUBLIC "-//W3C//DTD SVG 1.1//EN"
  "http://www.w3.org/Graphics/SVG/1.1/DTD/svg11.dtd">
<svg xmlns:xlink="http://www.w3.org/1999/xlink" width="720pt" height="172.8pt" viewBox="0 0 720 172.8" xmlns="http://www.w3.org/2000/svg" version="1.1">
 <metadata>
  <rdf:RDF xmlns:dc="http://purl.org/dc/elements/1.1/" xmlns:cc="http://creativecommons.org/ns#" xmlns:rdf="http://www.w3.org/1999/02/22-rdf-syntax-ns#">
   <cc:Work>
    <dc:type rdf:resource="http://purl.org/dc/dcmitype/StillImage"/>
    <dc:date>2024-07-16T17:23:51.757912</dc:date>
    <dc:format>image/svg+xml</dc:format>
    <dc:creator>
     <cc:Agent>
      <dc:title>Matplotlib v3.8.4, https://matplotlib.org/</dc:title>
     </cc:Agent>
    </dc:creator>
   </cc:Work>
  </rdf:RDF>
 </metadata>
 <defs>
  <style type="text/css">*{stroke-linejoin: round; stroke-linecap: butt}</style>
 </defs>
 <g id="figure_1">
  <g id="patch_1">
   <path d="M 0 172.8 
L 720 172.8 
L 720 0 
L 0 0 
L 0 172.8 
z
" style="fill: none"/>
  </g>
  <g id="axes_1">
   <g id="patch_2">
    <path d="M 64.170808 157.17109 
L 717.165354 157.17109 
L 717.165354 8.279073 
L 64.170808 8.279073 
L 64.170808 157.17109 
z
" style="fill: none"/>
   </g>
   <g id="line2d_1">
    <path d="M 82.651786 42.009076 
L 82.959802 42.119459 
L 83.29862 42.499759 
L 83.699041 43.305771 
L 84.191867 44.835691 
L 84.777098 47.426614 
L 85.485535 51.670725 
L 86.317179 58.126567 
L 87.302832 67.628004 
L 88.565698 82.162261 
L 90.660209 109.387039 
L 92.723918 135.6213 
L 93.617166 144.246569 
L 94.325603 149.129051 
L 94.880032 151.59455 
L 95.311255 152.653783 
L 95.619272 152.944974 
L 95.865685 152.898937 
L 96.142899 152.552865 
L 96.481717 151.712474 
L 96.91294 149.995064 
L 97.467369 146.76729 
L 98.145005 141.381609 
L 98.976649 132.882749 
L 100.085508 119.045722 
L 102.056812 90.992093 
L 103.812505 67.368003 
L 104.890562 55.69191 
L 105.722206 48.865413 
L 106.399842 44.948679 
L 106.954271 42.936824 
L 107.354692 42.18148 
L 107.662709 42.009161 
L 107.909122 42.132117 
L 108.186336 42.552937 
L 108.555956 43.591424 
L 108.987179 45.518623 
L 109.510806 48.943362 
L 110.126839 54.543086 
L 110.866078 63.426375 
L 111.85173 78.250676 
L 115.547926 136.870934 
L 116.348768 145.053014 
L 116.995602 149.638502 
L 117.51923 151.929224 
L 117.919651 152.800812 
L 118.196866 152.956151 
L 118.412477 152.825291 
L 118.689692 152.337446 
L 119.059312 151.139211 
L 119.521336 148.793281 
L 120.106567 144.554915 
L 120.845806 137.396639 
L 121.800657 125.732516 
L 123.217532 105.2623 
L 125.743265 68.648666 
L 126.821322 56.364907 
L 127.652966 49.212337 
L 128.330602 45.117282 
L 128.885031 43.008533 
L 129.285453 42.206173 
L 129.593469 42.009269 
L 129.839882 42.119224 
L 130.117097 42.531913 
L 130.486716 43.568958 
L 130.917939 45.505588 
L 131.441567 48.955324 
L 132.057599 54.607525 
L 132.796838 63.607573 
L 133.751689 78.196467 
L 137.417083 137.441289 
L 138.217925 145.624524 
L 138.833958 149.924623 
L 139.326784 152.030257 
L 139.696403 152.813908 
L 139.942816 152.957062 
L 140.158428 152.835286 
L 140.435643 152.344241 
L 140.805262 151.11699 
L 141.267287 148.698552 
L 141.852518 144.319695 
L 142.591757 136.928477 
L 143.546607 124.924411 
L 145.025085 103.069364 
L 147.304406 69.673335 
L 148.382463 57.132029 
L 149.214107 49.782892 
L 149.891743 45.518261 
L 150.446172 43.255485 
L 150.877395 42.283054 
L 151.185411 42.018567 
L 151.431824 42.069148 
L 151.709039 42.409265 
L 152.047857 43.241204 
L 152.47908 44.984261 
L 153.002707 48.177478 
L 153.61874 53.507679 
L 154.327177 61.721907 
L 155.251226 75.3194 
L 156.883713 103.472379 
L 158.423794 128.432689 
L 159.378645 140.476664 
L 160.117884 147.22769 
L 160.703115 150.771364 
L 161.165139 152.39008 
L 161.503957 152.907979 
L 161.75037 152.930487 
L 161.996783 152.658168 
L 162.3048 151.910516 
L 162.705221 150.282032 
L 163.228848 147.090177 
L 163.875683 141.630784 
L 164.707327 132.518397 
L 165.816185 117.686615 
L 169.820397 61.693387 
L 170.744446 52.747733 
L 171.514487 47.253051 
L 172.161321 44.117585 
L 172.654147 42.66399 
L 173.054568 42.089504 
L 173.331783 42.015921 
L 173.578196 42.177588 
L 173.886212 42.68755 
L 174.255832 43.76638 
L 174.717856 45.864967 
L 175.272286 49.540055 
L 175.91912 55.463563 
L 176.719962 65.096862 
L 177.798019 81.130491 
L 181.093794 132.101829 
L 182.017842 142.175821 
L 182.757082 147.971306 
L 183.342313 151.009871 
L 183.804337 152.416708 
L 184.143155 152.893031 
L 184.389568 152.948083 
L 184.635981 152.762002 
L 184.943997 152.197921 
L 185.344418 150.932718 
L 185.868046 148.421135 
L 186.51488 144.097153 
L 187.315723 137.140697 
L 188.39378 125.64526 
L 190.211076 103.391705 
L 192.397992 77.340989 
L 193.69166 64.52467 
L 194.769717 55.941789 
L 195.724568 50.051518 
L 196.556212 46.219523 
L 197.264649 43.889314 
L 197.84988 42.631901 
L 198.311904 42.106144 
L 198.650722 42.011596 
L 198.958739 42.159155 
L 199.297557 42.596686 
L 199.697978 43.50606 
L 200.190804 45.227131 
L 200.776035 48.124136 
L 201.515274 53.006748 
L 202.439323 60.717242 
L 203.70219 73.320015 
L 206.197122 101.108821 
L 208.199228 122.150209 
L 209.554499 134.158682 
L 210.663358 142.093838 
L 211.587407 147.180335 
L 212.357448 150.251655 
L 212.97348 151.896567 
L 213.466306 152.672374 
L 213.866727 152.940707 
L 214.205545 152.910535 
L 214.544363 152.642433 
L 214.944784 152.017183 
L 215.437611 150.788358 
L 216.022841 148.674449 
L 216.700477 145.354185 
L 217.50132 140.268306 
L 218.45617 132.678069 
L 219.595831 121.738088 
L 221.135912 104.585872 
L 224.862909 62.145462 
L 225.940966 52.786431 
L 226.77261 47.318207 
L 227.450246 44.201724 
L 227.973874 42.698953 
L 228.374295 42.114488 
L 228.682311 42.01408 
L 228.928724 42.162513 
L 229.236741 42.648155 
L 229.60636 43.695769 
L 230.068385 45.762644 
L 230.622814 49.405384 
L 231.269648 55.250543 
L 232.07049 64.626251 
L 233.179349 80.473205 
L 236.721537 133.084212 
L 237.645585 142.729424 
L 238.384825 148.293566 
L 238.970055 151.199103 
L 239.43208 152.515582 
L 239.770898 152.925018 
L 240.017311 152.92722 
L 240.263724 152.682065 
L 240.57174 152.03173 
L 240.972161 150.626653 
L 241.495789 147.869981 
L 242.142623 143.119946 
L 242.943466 135.410377 
L 243.959919 123.2781 
L 245.500001 101.8374 
L 247.902528 68.573642 
L 249.011387 56.319568 
L 249.873832 49.095955 
L 250.551468 45.097307 
L 251.105898 43.020805 
L 251.506319 42.219301 
L 251.814335 42.010317 
L 252.060748 42.101994 
L 252.337963 42.484082 
L 252.676781 43.359999 
L 253.108003 45.145767 
L 253.631631 48.368608 
L 254.247664 53.694441 
L 254.986903 62.226836 
L 255.941753 76.13661 
L 257.820653 107.778649 
L 259.237528 129.62251 
L 260.161577 140.760481 
L 260.900816 147.269968 
L 261.486047 150.722843 
L 261.948071 152.334981 
L 262.286889 152.883578 
L 262.533302 152.946309 
L 262.748914 152.770826 
L 263.026128 152.233382 
L 263.395748 150.982932 
L 263.888574 148.403701 
L 264.504606 143.814542 
L 265.274647 136.196371 
L 266.260299 124.016585 
L 267.800381 101.768568 
L 270.0489 69.675896 
L 271.126957 57.346944 
L 271.989402 49.815081 
L 272.69784 45.433292 
L 273.252269 43.225167 
L 273.683492 42.276174 
L 273.991508 42.018293 
L 274.237921 42.067727 
L 274.515136 42.399217 
L 274.853954 43.209296 
L 275.285177 44.905404 
L 275.808804 48.011484 
L 276.424837 53.19468 
L 277.133275 61.177003 
L 278.057323 74.380921 
L 279.628207 100.745232 
L 281.291495 127.347668 
L 282.277147 139.703226 
L 283.047187 146.761588 
L 283.66322 150.543901 
L 284.156046 152.314409 
L 284.494864 152.875646 
L 284.741277 152.94929 
L 284.956888 152.78495 
L 285.234103 152.264544 
L 285.603723 151.042626 
L 286.096549 148.514194 
L 286.712581 144.013558 
L 287.482622 136.55188 
L 288.468274 124.651982 
L 290.039157 102.538495 
L 292.287676 71.331923 
L 293.427337 58.593027 
L 294.320584 50.899523 
L 295.059823 46.269792 
L 295.675856 43.680763 
L 296.168682 42.46058 
L 296.538301 42.05029 
L 296.815516 42.031942 
L 297.09273 42.267443 
L 297.431548 42.910702 
L 297.83197 44.196594 
L 298.324796 46.602928 
L 298.910027 50.695191 
L 299.587662 57.10591 
L 300.450108 67.574781 
L 301.682173 85.574891 
L 304.423518 126.24131 
L 305.470774 138.187412 
L 306.302418 145.328932 
L 306.980054 149.443938 
L 307.534483 151.634958 
L 307.996507 152.654106 
L 308.335325 152.943966 
L 308.61254 152.900324 
L 308.889755 152.610892 
L 309.259374 151.855962 
L 309.721399 150.348963 
L 310.30663 147.610702 
L 311.045869 142.9832 
L 312.000719 135.433936 
L 313.294388 123.252985 
L 318.345855 73.807975 
L 319.701127 63.551909 
L 320.933192 55.837771 
L 322.072852 50.049117 
L 323.089306 45.949196 
L 323.890148 43.55026 
L 324.475379 42.434227 
L 324.906602 42.047611 
L 325.214618 42.028068 
L 325.522635 42.236728 
L 325.892254 42.79895 
L 326.323477 43.890526 
L 326.877906 45.97447 
L 327.52474 49.329976 
L 328.325583 54.749052 
L 329.311235 63.087056 
L 330.5433 75.54758 
L 332.453001 97.464227 
L 334.978735 126.01393 
L 336.2108 137.528364 
L 337.196452 144.786133 
L 337.966493 148.981697 
L 338.613327 151.389013 
L 339.106153 152.494551 
L 339.506574 152.912199 
L 339.814591 152.934838 
L 340.122607 152.695379 
L 340.492227 152.060865 
L 340.954251 150.736665 
L 341.50868 148.379202 
L 342.186316 144.395731 
L 342.987159 138.222415 
L 343.942009 129.022872 
L 345.174074 114.823182 
L 347.422593 85.669924 
L 349.116683 65.079144 
L 350.19474 54.455502 
L 351.026384 48.220888 
L 351.70402 44.644394 
L 352.227647 42.89391 
L 352.628069 42.180389 
L 352.936085 42.009118 
L 353.182498 42.112059 
L 353.459713 42.486882 
L 353.829332 43.424035 
L 354.260555 45.17501 
L 354.784183 48.302001 
L 355.400215 53.4291 
L 356.139454 61.564549 
L 357.125106 75.154759 
L 358.973204 104.601904 
L 360.544087 127.9751 
L 361.529739 139.605562 
L 362.330582 146.611668 
L 362.977416 150.443591 
L 363.470242 152.201717 
L 363.839862 152.847336 
L 364.117076 152.952081 
L 364.363489 152.773719 
L 364.671506 152.195614 
L 365.071927 150.866155 
L 365.564753 148.365564 
L 366.180786 143.982604 
L 366.950826 136.74797 
L 367.936478 125.164598 
L 369.353353 105.567009 
L 372.063897 67.787019 
L 373.141954 55.975272 
L 373.973598 49.057349 
L 374.651234 45.07506 
L 375.205663 43.012371 
L 375.606084 42.217795 
L 375.9141 42.010391 
L 376.160514 42.099757 
L 376.437728 42.474129 
L 376.807348 43.431276 
L 377.238571 45.227973 
L 377.762198 48.435433 
L 378.378231 53.699697 
L 379.11747 62.097578 
L 380.07232 75.758423 
L 381.889617 105.866798 
L 383.368095 128.56728 
L 384.322945 140.105147 
L 385.092986 146.933649 
L 385.709019 150.598302 
L 386.201845 152.320648 
L 386.540663 152.872563 
L 386.787076 152.951266 
L 387.002687 152.799226 
L 387.279902 152.304915 
L 387.649521 151.13448 
L 388.111546 148.880989 
L 388.696777 144.847415 
L 389.436016 138.072906 
L 390.390866 127.063947 
L 391.77694 108.15634 
L 394.61069 69.068538 
L 395.719548 57.080434 
L 396.581994 49.947968 
L 397.290431 45.723998 
L 397.875662 43.413945 
L 398.337687 42.36435 
L 398.676505 42.035262 
L 398.953719 42.047225 
L 399.230934 42.316824 
L 399.569752 43.005341 
L 400.000975 44.475417 
L 400.493801 47.011282 
L 401.079032 51.2586 
L 401.787469 58.179515 
L 402.680717 69.335033 
L 404.005187 89.063727 
L 406.407714 124.916257 
L 407.454969 137.235882 
L 408.317415 144.922279 
L 409.025852 149.361779 
L 409.580282 151.60678 
L 410.042306 152.650368 
L 410.381124 152.944756 
L 410.627537 152.913899 
L 410.904752 152.638545 
L 411.274371 151.887377 
L 411.736396 150.360153 
L 412.321627 147.555887 
L 413.060866 142.781893 
L 413.984915 135.225984 
L 415.247781 122.896891 
L 420.237645 72.114792 
L 421.531314 62.136338 
L 422.670974 54.968067 
L 423.71823 49.717036 
L 424.67308 45.988508 
L 425.473922 43.665326 
L 426.089955 42.497953 
L 426.521178 42.080193 
L 426.859996 42.015961 
L 427.168012 42.174272 
L 427.537632 42.647872 
L 427.968854 43.597966 
L 428.492482 45.32126 
L 429.139316 48.275029 
L 429.909357 52.884837 
L 430.864208 60.047812 
L 432.065471 70.909773 
L 433.697958 87.921299 
L 437.640566 129.800816 
L 438.84183 139.852551 
L 439.79668 146.089919 
L 440.566721 149.764058 
L 441.182754 151.734548 
L 441.67558 152.650805 
L 442.045199 152.938663 
L 442.353215 152.911567 
L 442.661232 152.638827 
L 443.030851 151.985038 
L 443.492876 150.666145 
L 444.047305 148.353312 
L 444.724941 144.470889 
L 445.525783 138.463603 
L 446.480634 129.493476 
L 447.681897 115.948492 
L 449.6224 91.099331 
L 451.624506 66.349085 
L 452.733365 55.2111 
L 453.59581 48.592129 
L 454.273446 44.900671 
L 454.827875 42.968887 
L 455.259098 42.180144 
L 455.567115 42.00913 
L 455.813528 42.110558 
L 456.090742 42.480211 
L 456.460362 43.401273 
L 456.922386 45.264977 
L 457.446014 48.380858 
L 458.062047 53.452947 
L 458.832087 61.838248 
L 459.817739 75.261645 
L 461.665837 104.251404 
L 463.267522 127.770447 
L 464.283976 139.611743 
L 465.084818 146.53463 
L 465.731652 150.353423 
L 466.224478 152.134605 
L 466.594098 152.815677 
L 466.871313 152.956702 
L 467.117726 152.81716 
L 467.39494 152.36502 
L 467.76456 151.284232 
L 468.226584 149.188063 
L 468.811815 145.406782 
L 469.551054 138.99414 
L 470.475103 128.810374 
L 471.73797 112.119312 
L 475.341761 62.91173 
L 476.327413 53.078722 
L 477.097454 47.380977 
L 477.744288 44.120143 
L 478.237114 42.6295 
L 478.606733 42.091266 
L 478.883948 42.017128 
L 479.130361 42.189533 
L 479.438377 42.722382 
L 479.838799 43.949672 
L 480.300823 46.138864 
L 480.855252 49.904798 
L 481.502087 55.903639 
L 482.302929 65.586796 
L 483.380986 81.631305 
L 486.67676 132.563724 
L 487.570008 142.324171 
L 488.309247 148.145463 
L 488.894478 151.163405 
L 489.356502 152.516969 
L 489.69532 152.92864 
L 489.941733 152.921244 
L 490.188146 152.658596 
L 490.496162 151.977565 
L 490.896584 150.52268 
L 491.420211 147.694833 
L 492.067046 142.869 
L 492.89869 134.790376 
L 493.976747 121.907352 
L 495.824844 96.603607 
L 497.765347 71.077033 
L 498.905007 58.825409 
L 499.829056 51.101758 
L 500.599097 46.399475 
L 501.21513 43.842093 
L 501.738757 42.529456 
L 502.139178 42.064623 
L 502.416393 42.019566 
L 502.693608 42.205219 
L 503.032426 42.754375 
L 503.432847 43.879627 
L 503.925673 46.010391 
L 504.510904 49.65543 
L 505.18854 55.376729 
L 506.050985 64.724305 
L 507.252249 80.443486 
L 510.640428 126.127837 
L 511.718485 137.164156 
L 512.611732 144.193646 
L 513.381773 148.597602 
L 514.028607 151.099881 
L 514.552235 152.342219 
L 514.983458 152.858013 
L 515.322276 152.954808 
L 515.630292 152.816931 
L 515.999912 152.380257 
L 516.461936 151.441957 
L 517.047167 149.677148 
L 517.755605 146.774742 
L 518.648852 142.106374 
L 519.788512 134.877881 
L 521.328594 123.571115 
L 523.823526 103.366262 
L 528.382167 66.374983 
L 529.922248 55.768797 
L 531.061909 49.37499 
L 531.985957 45.378227 
L 532.694395 43.211167 
L 533.187221 42.306464 
L 533.556841 42.022195 
L 533.834055 42.055978 
L 534.142072 42.35798 
L 534.511691 43.102386 
L 534.973716 44.629983 
L 535.528145 47.329923 
L 536.205781 51.851455 
L 537.037425 59.056611 
L 538.08468 70.277518 
L 539.532357 88.448847 
L 542.704925 128.876317 
L 543.813783 139.865205 
L 544.676229 146.362219 
L 545.384666 150.125953 
L 545.939096 151.997336 
L 546.370318 152.773032 
L 546.678335 152.955966 
L 546.924748 152.878056 
L 547.232764 152.500111 
L 547.602384 151.636963 
L 548.064408 149.937951 
L 548.649639 146.824985 
L 549.358077 141.698174 
L 550.220522 133.647097 
L 551.298579 121.28683 
L 552.869462 100.377004 
L 555.395196 66.877019 
L 556.473253 55.490667 
L 557.304897 48.793951 
L 557.982533 44.935886 
L 558.536962 42.945656 
L 558.937383 42.191352 
L 559.2454 42.009169 
L 559.491813 42.114406 
L 559.769027 42.499958 
L 560.138647 43.455618 
L 560.600671 45.371516 
L 561.155101 48.767468 
L 561.801935 54.28954 
L 562.571976 62.9734 
L 563.588429 77.269785 
L 567.623443 137.199316 
L 568.455087 145.117245 
L 569.132723 149.622004 
L 569.65635 151.818142 
L 570.056772 152.72118 
L 570.364788 152.955636 
L 570.611201 152.856511 
L 570.888416 152.443628 
L 571.258035 151.405659 
L 571.72006 149.349391 
L 572.305291 145.600872 
L 573.013728 139.509884 
L 573.906975 129.781301 
L 575.13904 113.667933 
L 578.896839 62.701485 
L 579.882491 53.037341 
L 580.652532 47.431792 
L 581.299366 44.20172 
L 581.792192 42.697307 
L 582.192614 42.098395 
L 582.469828 42.013855 
L 582.716241 42.166461 
L 583.024258 42.660855 
L 583.424679 43.816482 
L 583.886703 45.894352 
L 584.441133 49.487464 
L 585.087967 55.230616 
L 585.888809 64.522799 
L 586.966866 79.965369 
L 590.509054 132.935438 
L 591.433102 142.557598 
L 592.172342 148.108897 
L 592.757573 151.036585 
L 593.219597 152.406978 
L 593.589217 152.904967 
L 593.83563 152.944614 
L 594.082043 152.753987 
L 594.390059 152.198327 
L 594.79048 150.964845 
L 595.314108 148.523612 
L 595.960942 144.317352 
L 596.761784 137.525108 
L 597.80904 126.571626 
L 599.410725 107.148994 
L 602.059665 75.172317 
L 603.322531 62.634701 
L 604.369787 54.319025 
L 605.263034 48.888158 
L 606.033075 45.471636 
L 606.679909 43.49841 
L 607.234338 42.451314 
L 607.665561 42.059171 
L 608.004379 42.026137 
L 608.312395 42.22006 
L 608.682015 42.751417 
L 609.113238 43.803839 
L 609.636866 45.724481 
L 610.2837 49.047523 
L 611.084542 54.468925 
L 612.100996 62.999558 
L 613.579474 77.494177 
L 617.830099 120.201491 
L 619.277776 132.034943 
L 620.479039 140.125333 
L 621.495493 145.573794 
L 622.357939 149.094581 
L 623.097178 151.246392 
L 623.682409 152.349755 
L 624.175235 152.848999 
L 624.575656 152.955523 
L 624.945275 152.809683 
L 625.345697 152.381559 
L 625.807721 151.53183 
L 626.36215 150.00045 
L 627.008985 147.499601 
L 627.748224 143.697743 
L 628.610669 138.012621 
L 629.596322 129.955908 
L 630.797585 118.163773 
L 632.39927 100.018497 
L 635.571838 63.630646 
L 636.680696 53.652739 
L 637.543142 47.749712 
L 638.220778 44.474561 
L 638.775207 42.783752 
L 639.175628 42.150483 
L 639.483645 42.009276 
L 639.760859 42.143928 
L 640.068876 42.590664 
L 640.438495 43.554359 
L 640.90052 45.448846 
L 641.454949 48.784014 
L 642.101783 54.150962 
L 642.902625 62.819024 
L 643.980683 77.205208 
L 648.231307 136.918476 
L 649.093753 144.81978 
L 649.80219 149.414275 
L 650.35662 151.716475 
L 650.787843 152.693323 
L 651.095859 152.949986 
L 651.342272 152.890594 
L 651.619487 152.544098 
L 651.958305 151.723053 
L 652.389527 150.059166 
L 652.943957 146.941031 
L 653.621593 141.736708 
L 654.453237 133.500464 
L 655.531294 120.417068 
L 657.256185 96.300276 
L 659.319894 68.196869 
L 660.428753 56.043643 
L 661.260397 49.115578 
L 661.938033 45.11499 
L 662.492462 43.035573 
L 662.923685 42.191373 
L 663.231701 42.009132 
L 663.478114 42.11674 
L 663.755329 42.507028 
L 664.124948 43.471926 
L 664.586973 45.402925 
L 665.141402 48.819762 
L 665.788236 54.370217 
L 666.558277 63.102802 
L 667.574731 77.499702 
L 671.548141 136.90807 
L 672.379785 144.913657 
L 673.057421 149.484902 
L 673.581049 151.733436 
L 674.012271 152.724578 
L 674.320288 152.955743 
L 674.566701 152.856904 
L 674.843915 152.448229 
L 675.213535 151.423626 
L 675.675559 149.399058 
L 676.26079 145.719123 
L 677.000029 139.467015 
L 677.924078 129.558115 
L 679.217747 112.97668 
L 682.790736 65.82518 
L 683.837991 55.43737 
L 684.700437 48.937073 
L 685.408874 45.149005 
L 685.994105 43.127769 
L 686.45613 42.251829 
L 686.794948 42.015074 
L 687.072162 42.078565 
L 687.380179 42.425003 
L 687.749798 43.23515 
L 688.211823 44.880171 
L 688.73545 47.636647 
L 689.351483 52.123709 
L 690.121524 59.531962 
L 691.107176 71.386028 
L 692.801265 95.017252 
L 694.77257 121.653692 
L 695.943032 134.550318 
L 696.86708 142.486069 
L 697.667923 147.578167 
L 698.345559 150.556207 
L 698.684377 151.591814 
L 698.684377 151.591814 
" clip-path="url(#pe327a12999)" style="fill: none; stroke: #009afa; stroke-width: 4"/>
   </g>
   <g id="matplotlib.axis_1">
    <g id="xtick_1"/>
    <g id="xtick_2"/>
    <g id="xtick_3"/>
    <g id="xtick_4"/>
    <g id="xtick_5"/>
   </g>
   <g id="matplotlib.axis_2">
    <g id="ytick_1">
     <g id="line2d_2">
      <defs>
       <path id="mbdf85f5586" d="M 0 0 
L 5 0 
" style="stroke: #000000"/>
      </defs>
      <g>
       <use xlink:href="#mbdf85f5586" x="64.170808" y="152.957165" style="stroke: #000000"/>
      </g>
     </g>
     <g id="text_1">
      <!-- $-1.0$ -->
      <g transform="translate(2.990808 163.594978) scale(0.28 -0.28)">
       <defs>
        <path id="Cmsy10-a1" d="M 653 1472 
Q 600 1472 565 1512 
Q 531 1553 531 1600 
Q 531 1647 565 1687 
Q 600 1728 653 1728 
L 4325 1728 
Q 4375 1728 4408 1687 
Q 4441 1647 4441 1600 
Q 4441 1553 4408 1512 
Q 4375 1472 4325 1472 
L 653 1472 
z
" transform="scale(0.015625)"/>
        <path id="Cmr10-31" d="M 594 0 
L 594 225 
Q 1394 225 1394 428 
L 1394 3788 
Q 1063 3628 556 3628 
L 556 3853 
Q 1341 3853 1741 4263 
L 1831 4263 
Q 1853 4263 1873 4245 
Q 1894 4228 1894 4206 
L 1894 428 
Q 1894 225 2694 225 
L 2694 0 
L 594 0 
z
" transform="scale(0.015625)"/>
        <path id="Cmmi10-3a" d="M 538 353 
Q 538 497 644 600 
Q 750 703 891 703 
Q 978 703 1062 656 
Q 1147 609 1194 525 
Q 1241 441 1241 353 
Q 1241 213 1137 106 
Q 1034 0 891 0 
Q 750 0 644 106 
Q 538 213 538 353 
z
" transform="scale(0.015625)"/>
        <path id="Cmr10-30" d="M 1600 -141 
Q 816 -141 533 504 
Q 250 1150 250 2041 
Q 250 2597 351 3087 
Q 453 3578 754 3920 
Q 1056 4263 1600 4263 
Q 2022 4263 2290 4056 
Q 2559 3850 2700 3523 
Q 2841 3197 2892 2823 
Q 2944 2450 2944 2041 
Q 2944 1491 2842 1011 
Q 2741 531 2444 195 
Q 2147 -141 1600 -141 
z
M 1600 25 
Q 1956 25 2131 390 
Q 2306 756 2347 1200 
Q 2388 1644 2388 2144 
Q 2388 2625 2347 3031 
Q 2306 3438 2132 3767 
Q 1959 4097 1600 4097 
Q 1238 4097 1063 3765 
Q 888 3434 847 3029 
Q 806 2625 806 2144 
Q 806 1788 823 1472 
Q 841 1156 916 820 
Q 991 484 1158 254 
Q 1325 25 1600 25 
z
" transform="scale(0.015625)"/>
       </defs>
       <use xlink:href="#Cmsy10-a1" transform="translate(0 0.390625)"/>
       <use xlink:href="#Cmr10-31" transform="translate(77.685547 0.390625)"/>
       <use xlink:href="#Cmmi10-3a" transform="translate(127.685547 0.390625)"/>
       <use xlink:href="#Cmr10-30" transform="translate(155.371094 0.390625)"/>
      </g>
     </g>
    </g>
    <g id="ytick_2">
     <g id="line2d_3">
      <g>
       <use xlink:href="#mbdf85f5586" x="64.170808" y="125.220143" style="stroke: #000000"/>
      </g>
     </g>
     <g id="text_2">
      <!-- $-0.5$ -->
      <g transform="translate(2.990808 135.857955) scale(0.28 -0.28)">
       <defs>
        <path id="Cmr10-35" d="M 556 728 
Q 622 541 758 387 
Q 894 234 1080 148 
Q 1266 63 1466 63 
Q 1928 63 2103 422 
Q 2278 781 2278 1294 
Q 2278 1516 2270 1667 
Q 2263 1819 2228 1959 
Q 2169 2184 2020 2353 
Q 1872 2522 1656 2522 
Q 1441 2522 1286 2456 
Q 1131 2391 1034 2303 
Q 938 2216 863 2119 
Q 788 2022 769 2016 
L 697 2016 
Q 681 2016 657 2036 
Q 634 2056 634 2075 
L 634 4213 
Q 634 4228 654 4245 
Q 675 4263 697 4263 
L 716 4263 
Q 1147 4056 1631 4056 
Q 2106 4056 2547 4263 
L 2566 4263 
Q 2588 4263 2606 4247 
Q 2625 4231 2625 4213 
L 2625 4153 
Q 2625 4122 2613 4122 
Q 2394 3831 2064 3668 
Q 1734 3506 1381 3506 
Q 1125 3506 856 3578 
L 856 2369 
Q 1069 2541 1236 2614 
Q 1403 2688 1663 2688 
Q 2016 2688 2295 2484 
Q 2575 2281 2725 1954 
Q 2875 1628 2875 1288 
Q 2875 903 2686 575 
Q 2497 247 2172 53 
Q 1847 -141 1466 -141 
Q 1150 -141 886 21 
Q 622 184 470 459 
Q 319 734 319 1044 
Q 319 1188 412 1278 
Q 506 1369 647 1369 
Q 788 1369 883 1276 
Q 978 1184 978 1044 
Q 978 906 883 811 
Q 788 716 647 716 
Q 625 716 597 720 
Q 569 725 556 728 
z
" transform="scale(0.015625)"/>
       </defs>
       <use xlink:href="#Cmsy10-a1" transform="translate(0 0.390625)"/>
       <use xlink:href="#Cmr10-30" transform="translate(77.685547 0.390625)"/>
       <use xlink:href="#Cmmi10-3a" transform="translate(127.685547 0.390625)"/>
       <use xlink:href="#Cmr10-35" transform="translate(155.371094 0.390625)"/>
      </g>
     </g>
    </g>
    <g id="ytick_3">
     <g id="line2d_4">
      <g>
       <use xlink:href="#mbdf85f5586" x="64.170808" y="97.483121" style="stroke: #000000"/>
      </g>
     </g>
     <g id="text_3">
      <!-- $0.0$ -->
      <g transform="translate(24.830808 108.120933) scale(0.28 -0.28)">
       <use xlink:href="#Cmr10-30" transform="translate(0 0.390625)"/>
       <use xlink:href="#Cmmi10-3a" transform="translate(50 0.390625)"/>
       <use xlink:href="#Cmr10-30" transform="translate(77.685547 0.390625)"/>
      </g>
     </g>
    </g>
    <g id="ytick_4">
     <g id="line2d_5">
      <g>
       <use xlink:href="#mbdf85f5586" x="64.170808" y="69.746098" style="stroke: #000000"/>
      </g>
     </g>
     <g id="text_4">
      <!-- $0.5$ -->
      <g transform="translate(24.830808 80.383911) scale(0.28 -0.28)">
       <use xlink:href="#Cmr10-30" transform="translate(0 0.390625)"/>
       <use xlink:href="#Cmmi10-3a" transform="translate(50 0.390625)"/>
       <use xlink:href="#Cmr10-35" transform="translate(77.685547 0.390625)"/>
      </g>
     </g>
    </g>
    <g id="ytick_5">
     <g id="line2d_6">
      <g>
       <use xlink:href="#mbdf85f5586" x="64.170808" y="42.009076" style="stroke: #000000"/>
      </g>
     </g>
     <g id="text_5">
      <!-- $1.0$ -->
      <g transform="translate(24.830808 52.646888) scale(0.28 -0.28)">
       <use xlink:href="#Cmr10-31" transform="translate(0 0.390625)"/>
       <use xlink:href="#Cmmi10-3a" transform="translate(50 0.390625)"/>
       <use xlink:href="#Cmr10-30" transform="translate(77.685547 0.390625)"/>
      </g>
     </g>
    </g>
    <g id="ytick_6">
     <g id="line2d_7">
      <g>
       <use xlink:href="#mbdf85f5586" x="64.170808" y="14.272054" style="stroke: #000000"/>
      </g>
     </g>
     <g id="text_6">
      <!-- $1.5$ -->
      <g transform="translate(24.830808 24.909866) scale(0.28 -0.28)">
       <use xlink:href="#Cmr10-31" transform="translate(0 0.390625)"/>
       <use xlink:href="#Cmmi10-3a" transform="translate(50 0.390625)"/>
       <use xlink:href="#Cmr10-35" transform="translate(77.685547 0.390625)"/>
      </g>
     </g>
    </g>
   </g>
   <g id="line2d_8">
    <path d="M 82.651786 42.009076 
L 82.867397 42.129757 
L 83.11381 42.562504 
L 83.452628 43.666274 
L 83.883851 45.904658 
L 84.43828 50.092896 
L 85.115916 57.044282 
L 85.978362 68.34956 
L 87.210427 87.773884 
L 89.890168 130.790859 
L 90.814217 141.844863 
L 91.522655 147.97038 
L 92.077084 151.126604 
L 92.508307 152.519736 
L 92.816323 152.929792 
L 93.031935 152.924044 
L 93.247546 152.677078 
L 93.555562 151.90818 
L 93.955984 150.187957 
L 94.44881 146.989732 
L 95.064842 141.422814 
L 95.834883 132.303699 
L 96.851337 117.417463 
L 100.855549 55.527525 
L 101.625589 48.214599 
L 102.241622 44.31004 
L 102.703646 42.612699 
L 103.042464 42.062723 
L 103.258076 42.022489 
L 103.473687 42.22356 
L 103.750902 42.835122 
L 104.120521 44.26063 
L 104.582546 46.995861 
L 105.167777 51.897524 
L 105.907016 60.148394 
L 106.861866 73.548509 
L 108.401948 98.877189 
L 110.250046 128.375263 
L 111.235698 140.667573 
L 111.974937 147.376768 
L 112.560168 150.897992 
L 113.022192 152.474964 
L 113.330209 152.917749 
L 113.54582 152.934993 
L 113.761431 152.710969 
L 114.038646 152.070114 
L 114.408266 150.606266 
L 114.901092 147.603086 
L 115.517124 142.259907 
L 116.287165 133.377932 
L 117.272817 119.194201 
L 119.059312 89.49426 
L 120.599393 65.442827 
L 121.554244 53.757058 
L 122.293483 47.214749 
L 122.878714 43.839637 
L 123.309937 42.446505 
L 123.617953 42.036449 
L 123.833564 42.042197 
L 124.049176 42.289163 
L 124.357192 43.058061 
L 124.757613 44.778284 
L 125.250439 47.976509 
L 125.866472 53.543427 
L 126.636513 62.662542 
L 127.652966 77.548778 
L 131.657178 139.438716 
L 132.427219 146.751642 
L 133.043251 150.656201 
L 133.505276 152.353542 
L 133.844094 152.903518 
L 134.059705 152.943752 
L 134.275317 152.742681 
L 134.552531 152.131119 
L 134.922151 150.705611 
L 135.384175 147.97038 
L 135.969406 143.068717 
L 136.708645 134.817847 
L 137.663496 121.417732 
L 139.203577 96.089052 
L 141.051675 66.590978 
L 142.037327 54.298668 
L 142.776566 47.589473 
L 143.361797 44.068249 
L 143.823822 42.491277 
L 144.131838 42.048492 
L 144.34745 42.031248 
L 144.563061 42.255272 
L 144.840276 42.896127 
L 145.209895 44.359975 
L 145.702721 47.363155 
L 146.318754 52.706334 
L 147.088795 61.588309 
L 148.074447 75.77204 
L 149.860941 105.471981 
L 151.401023 129.523414 
L 152.355873 141.209183 
L 153.095112 147.751492 
L 153.680343 151.126604 
L 154.111566 152.519736 
L 154.419582 152.929792 
L 154.635194 152.924044 
L 154.850805 152.677078 
L 155.158821 151.90818 
L 155.559243 150.187957 
L 156.052069 146.989732 
L 156.668101 141.422814 
L 157.438142 132.303699 
L 158.454596 117.417463 
L 162.458808 55.527525 
L 163.228848 48.214599 
L 163.844881 44.31004 
L 164.306905 42.612699 
L 164.645723 42.062723 
L 164.861335 42.022489 
L 165.076946 42.22356 
L 165.354161 42.835122 
L 165.72378 44.26063 
L 166.185805 46.995861 
L 166.771036 51.897524 
L 167.510275 60.148394 
L 168.465125 73.548509 
L 170.005207 98.877189 
L 171.853305 128.375263 
L 172.838957 140.667573 
L 173.578196 147.376768 
L 174.163427 150.897992 
L 174.625451 152.474964 
L 174.933468 152.917749 
L 175.149079 152.934993 
L 175.36469 152.710969 
L 175.641905 152.070114 
L 176.011525 150.606266 
L 176.504351 147.603086 
L 177.120383 142.259907 
L 177.890424 133.377932 
L 178.876076 119.194201 
L 180.662571 89.49426 
L 182.202652 65.442827 
L 183.157503 53.757058 
L 183.896742 47.214749 
L 184.481973 43.839637 
L 184.913196 42.446505 
L 185.221212 42.036449 
L 185.436823 42.042197 
L 185.652435 42.289163 
L 185.960451 43.058061 
L 186.360872 44.778284 
L 186.853698 47.976509 
L 187.469731 53.543427 
L 188.239772 62.662542 
L 189.256225 77.548778 
L 193.260437 139.438716 
L 194.030478 146.751642 
L 194.646511 150.656201 
L 195.108535 152.353542 
L 195.447353 152.903518 
L 195.662964 152.943752 
L 195.878576 152.742681 
L 196.15579 152.131119 
L 196.52541 150.705611 
L 196.987434 147.97038 
L 197.572665 143.068717 
L 198.311904 134.817847 
L 199.266755 121.417732 
L 200.806836 96.089052 
L 202.654934 66.590978 
L 203.640586 54.298668 
L 204.379826 47.589473 
L 204.965056 44.068249 
L 205.427081 42.491277 
L 205.735097 42.048492 
L 205.950709 42.031248 
L 206.16632 42.255272 
L 206.443535 42.896127 
L 206.813154 44.359975 
L 207.30598 47.363155 
L 207.922013 52.706334 
L 208.692054 61.588309 
L 209.677706 75.77204 
L 211.4642 105.471981 
L 213.004282 129.523414 
L 213.959132 141.209183 
L 214.698371 147.751492 
L 215.283602 151.126604 
L 215.714825 152.519736 
L 216.022841 152.929792 
L 216.238453 152.924044 
L 216.454064 152.677078 
L 216.762081 151.90818 
L 217.162502 150.187957 
L 217.655328 146.989732 
L 218.27136 141.422814 
L 219.041401 132.303699 
L 220.057855 117.417463 
L 224.062067 55.527525 
L 224.832108 48.214599 
L 225.44814 44.31004 
L 225.910165 42.612699 
L 226.248982 42.062723 
L 226.464594 42.022489 
L 226.680205 42.22356 
L 226.95742 42.835122 
L 227.32704 44.26063 
L 227.789064 46.995861 
L 228.374295 51.897524 
L 229.113534 60.148394 
L 230.068385 73.548509 
L 231.608466 98.877189 
L 233.456564 128.375263 
L 234.442216 140.667573 
L 235.181455 147.376768 
L 235.766686 150.897992 
L 236.22871 152.474964 
L 236.536727 152.917749 
L 236.752338 152.934993 
L 236.96795 152.710969 
L 237.245164 152.070114 
L 237.614784 150.606266 
L 238.10761 147.603086 
L 238.723642 142.259907 
L 239.493683 133.377932 
L 240.479335 119.194201 
L 242.26583 89.49426 
L 243.805911 65.442827 
L 244.760762 53.757058 
L 245.500001 47.214749 
L 246.085232 43.839637 
L 246.516455 42.446505 
L 246.824471 42.036449 
L 247.040082 42.042197 
L 247.255694 42.289163 
L 247.56371 43.058061 
L 247.964131 44.778284 
L 248.456957 47.976509 
L 249.07299 53.543427 
L 249.843031 62.662542 
L 250.859485 77.548778 
L 254.863696 139.438716 
L 255.633737 146.751642 
L 256.24977 150.656201 
L 256.711794 152.353542 
L 257.050612 152.903518 
L 257.266223 152.943752 
L 257.481835 152.742681 
L 257.75905 152.131119 
L 258.128669 150.705611 
L 258.590694 147.97038 
L 259.175924 143.068717 
L 259.915164 134.817847 
L 260.870014 121.417732 
L 262.410096 96.089052 
L 264.258193 66.590978 
L 265.243846 54.298668 
L 265.983085 47.589473 
L 266.568316 44.068249 
L 267.03034 42.491277 
L 267.338356 42.048492 
L 267.553968 42.031248 
L 267.769579 42.255272 
L 268.046794 42.896127 
L 268.416413 44.359975 
L 268.909239 47.363155 
L 269.525272 52.706334 
L 270.295313 61.588309 
L 271.280965 75.77204 
L 273.067459 105.471981 
L 274.607541 129.523414 
L 275.562391 141.209183 
L 276.301631 147.751492 
L 276.886861 151.126604 
L 277.318084 152.519736 
L 277.626101 152.929792 
L 277.841712 152.924044 
L 278.057323 152.677078 
L 278.36534 151.90818 
L 278.765761 150.187957 
L 279.258587 146.989732 
L 279.87462 141.422814 
L 280.64466 132.303699 
L 281.661114 117.417463 
L 285.665326 55.527525 
L 286.435367 48.214599 
L 287.051399 44.31004 
L 287.513424 42.612699 
L 287.852242 42.062723 
L 288.067853 42.022489 
L 288.283464 42.22356 
L 288.560679 42.835122 
L 288.930299 44.26063 
L 289.392323 46.995861 
L 289.977554 51.897524 
L 290.716793 60.148394 
L 291.671644 73.548509 
L 293.211725 98.877189 
L 295.059823 128.375263 
L 296.045475 140.667573 
L 296.784714 147.376768 
L 297.369945 150.897992 
L 297.83197 152.474964 
L 298.139986 152.917749 
L 298.355597 152.934993 
L 298.571209 152.710969 
L 298.848423 152.070114 
L 299.218043 150.606266 
L 299.710869 147.603086 
L 300.326902 142.259907 
L 301.096942 133.377932 
L 302.082594 119.194201 
L 303.869089 89.49426 
L 305.40917 65.442827 
L 306.364021 53.757058 
L 307.10326 47.214749 
L 307.688491 43.839637 
L 308.119714 42.446505 
L 308.42773 42.036449 
L 308.643342 42.042197 
L 308.858953 42.289163 
L 309.166969 43.058061 
L 309.56739 44.778284 
L 310.060217 47.976509 
L 310.676249 53.543427 
L 311.44629 62.662542 
L 312.462744 77.548778 
L 316.466955 139.438716 
L 317.236996 146.751642 
L 317.853029 150.656201 
L 318.315053 152.353542 
L 318.653871 152.903518 
L 318.869483 152.943752 
L 319.085094 152.742681 
L 319.362309 152.131119 
L 319.731928 150.705611 
L 320.193953 147.97038 
L 320.779184 143.068717 
L 321.518423 134.817847 
L 322.473273 121.417732 
L 324.013355 96.089052 
L 325.861452 66.590978 
L 326.847105 54.298668 
L 327.586344 47.589473 
L 328.171575 44.068249 
L 328.633599 42.491277 
L 328.941615 42.048492 
L 329.157227 42.031248 
L 329.372838 42.255272 
L 329.650053 42.896127 
L 330.019672 44.359975 
L 330.512499 47.363155 
L 331.128531 52.706334 
L 331.898572 61.588309 
L 332.884224 75.77204 
L 334.670719 105.471981 
L 336.2108 129.523414 
L 337.165651 141.209183 
L 337.90489 147.751492 
L 338.490121 151.126604 
L 338.921343 152.519736 
L 339.22936 152.929792 
L 339.444971 152.924044 
L 339.660583 152.677078 
L 339.968599 151.90818 
L 340.36902 150.187957 
L 340.861846 146.989732 
L 341.477879 141.422814 
L 342.247919 132.303699 
L 343.264373 117.417463 
L 347.268585 55.527525 
L 348.038626 48.214599 
L 348.654658 44.31004 
L 349.116683 42.612699 
L 349.455501 42.062723 
L 349.671112 42.022489 
L 349.886724 42.22356 
L 350.163938 42.835122 
L 350.533558 44.26063 
L 350.995582 46.995861 
L 351.580813 51.897524 
L 352.320052 60.148394 
L 353.274903 73.548509 
L 354.814984 98.877189 
L 356.663082 128.375263 
L 357.648734 140.667573 
L 358.387973 147.376768 
L 358.973204 150.897992 
L 359.435229 152.474964 
L 359.743245 152.917749 
L 359.958856 152.934993 
L 360.174468 152.710969 
L 360.451682 152.070114 
L 360.821302 150.606266 
L 361.314128 147.603086 
L 361.930161 142.259907 
L 362.700201 133.377932 
L 363.685854 119.194201 
L 365.472348 89.49426 
L 367.01243 65.442827 
L 367.96728 53.757058 
L 368.706519 47.214749 
L 369.29175 43.839637 
L 369.722973 42.446505 
L 370.030989 42.036449 
L 370.246601 42.042197 
L 370.462212 42.289163 
L 370.770228 43.058061 
L 371.17065 44.778284 
L 371.663476 47.976509 
L 372.279508 53.543427 
L 373.049549 62.662542 
L 374.066003 77.548778 
L 378.070215 139.438716 
L 378.840255 146.751642 
L 379.456288 150.656201 
L 379.918312 152.353542 
L 380.25713 152.903518 
L 380.472742 152.943752 
L 380.688353 152.742681 
L 380.965568 152.131119 
L 381.335187 150.705611 
L 381.797212 147.97038 
L 382.382443 143.068717 
L 383.121682 134.817847 
L 384.076532 121.417732 
L 385.616614 96.089052 
L 387.464712 66.590978 
L 388.450364 54.298668 
L 389.189603 47.589473 
L 389.774834 44.068249 
L 390.236858 42.491277 
L 390.544875 42.048492 
L 390.760486 42.031248 
L 390.976097 42.255272 
L 391.253312 42.896127 
L 391.622932 44.359975 
L 392.115758 47.363155 
L 392.73179 52.706334 
L 393.501831 61.588309 
L 394.487483 75.77204 
L 396.273978 105.471981 
L 397.814059 129.523414 
L 398.76891 141.209183 
L 399.508149 147.751492 
L 400.09338 151.126604 
L 400.524603 152.519736 
L 400.832619 152.929792 
L 401.04823 152.924044 
L 401.263842 152.677078 
L 401.571858 151.90818 
L 401.972279 150.187957 
L 402.465105 146.989732 
L 403.081138 141.422814 
L 403.851179 132.303699 
L 404.867632 117.417463 
L 408.871844 55.527525 
L 409.641885 48.214599 
L 410.257917 44.31004 
L 410.719942 42.612699 
L 411.05876 42.062723 
L 411.274371 42.022489 
L 411.489983 42.22356 
L 411.767197 42.835122 
L 412.136817 44.26063 
L 412.598841 46.995861 
L 413.184072 51.897524 
L 413.923311 60.148394 
L 414.878162 73.548509 
L 416.418243 98.877189 
L 418.266341 128.375263 
L 419.251993 140.667573 
L 419.991232 147.376768 
L 420.576463 150.897992 
L 421.038488 152.474964 
L 421.346504 152.917749 
L 421.562115 152.934993 
L 421.777727 152.710969 
L 422.054942 152.070114 
L 422.424561 150.606266 
L 422.917387 147.603086 
L 423.53342 142.259907 
L 424.303461 133.377932 
L 425.289113 119.194201 
L 427.075607 89.49426 
L 428.615689 65.442827 
L 429.570539 53.757058 
L 430.309778 47.214749 
L 430.895009 43.839637 
L 431.326232 42.446505 
L 431.634248 42.036449 
L 431.84986 42.042197 
L 432.065471 42.289163 
L 432.373487 43.058061 
L 432.773909 44.778284 
L 433.266735 47.976509 
L 433.882767 53.543427 
L 434.652808 62.662542 
L 435.669262 77.548778 
L 439.673474 139.438716 
L 440.443514 146.751642 
L 441.059547 150.656201 
L 441.521571 152.353542 
L 441.860389 152.903518 
L 442.076001 152.943752 
L 442.291612 152.742681 
L 442.568827 152.131119 
L 442.938446 150.705611 
L 443.400471 147.97038 
L 443.985702 143.068717 
L 444.724941 134.817847 
L 445.679791 121.417732 
L 447.219873 96.089052 
L 449.067971 66.590978 
L 450.053623 54.298668 
L 450.792862 47.589473 
L 451.378093 44.068249 
L 451.840117 42.491277 
L 452.148134 42.048492 
L 452.363745 42.031248 
L 452.579356 42.255272 
L 452.856571 42.896127 
L 453.226191 44.359975 
L 453.719017 47.363155 
L 454.335049 52.706334 
L 455.10509 61.588309 
L 456.090742 75.77204 
L 457.877237 105.471981 
L 459.417318 129.523414 
L 460.372169 141.209183 
L 461.111408 147.751492 
L 461.696639 151.126604 
L 462.127862 152.519736 
L 462.435878 152.929792 
L 462.651489 152.924044 
L 462.867101 152.677078 
L 463.175117 151.90818 
L 463.575538 150.187957 
L 464.068364 146.989732 
L 464.684397 141.422814 
L 465.454438 132.303699 
L 466.470891 117.417463 
L 470.475103 55.527525 
L 471.245144 48.214599 
L 471.861177 44.31004 
L 472.323201 42.612699 
L 472.662019 42.062723 
L 472.87763 42.022489 
L 473.093242 42.22356 
L 473.370456 42.835122 
L 473.740076 44.26063 
L 474.2021 46.995861 
L 474.787331 51.897524 
L 475.52657 60.148394 
L 476.481421 73.548509 
L 478.021502 98.877189 
L 479.8696 128.375263 
L 480.855252 140.667573 
L 481.594491 147.376768 
L 482.179722 150.897992 
L 482.641747 152.474964 
L 482.949763 152.917749 
L 483.165375 152.934993 
L 483.380986 152.710969 
L 483.658201 152.070114 
L 484.02782 150.606266 
L 484.520646 147.603086 
L 485.136679 142.259907 
L 485.90672 133.377932 
L 486.892372 119.194201 
L 488.678866 89.49426 
L 490.218948 65.442827 
L 491.173798 53.757058 
L 491.913037 47.214749 
L 492.498268 43.839637 
L 492.929491 42.446505 
L 493.237507 42.036449 
L 493.453119 42.042197 
L 493.66873 42.289163 
L 493.976747 43.058061 
L 494.377168 44.778284 
L 494.869994 47.976509 
L 495.486026 53.543427 
L 496.256067 62.662542 
L 497.272521 77.548778 
L 501.276733 139.438716 
L 502.046774 146.751642 
L 502.662806 150.656201 
L 503.124831 152.353542 
L 503.463648 152.903518 
L 503.67926 152.943752 
L 503.894871 152.742681 
L 504.172086 152.131119 
L 504.541706 150.705611 
L 505.00373 147.97038 
L 505.588961 143.068717 
L 506.3282 134.817847 
L 507.283051 121.417732 
L 508.823132 96.089052 
L 510.67123 66.590978 
L 511.656882 54.298668 
L 512.396121 47.589473 
L 512.981352 44.068249 
L 513.443376 42.491277 
L 513.751393 42.048492 
L 513.967004 42.031248 
L 514.182616 42.255272 
L 514.45983 42.896127 
L 514.82945 44.359975 
L 515.322276 47.363155 
L 515.938308 52.706334 
L 516.708349 61.588309 
L 517.694001 75.77204 
L 519.480496 105.471981 
L 521.020577 129.523414 
L 521.975428 141.209183 
L 522.714667 147.751492 
L 523.299898 151.126604 
L 523.731121 152.519736 
L 524.039137 152.929792 
L 524.254748 152.924044 
L 524.47036 152.677078 
L 524.778376 151.90818 
L 525.178797 150.187957 
L 525.671623 146.989732 
L 526.287656 141.422814 
L 527.057697 132.303699 
L 528.07415 117.417463 
L 532.078362 55.527525 
L 532.848403 48.214599 
L 533.464436 44.31004 
L 533.92646 42.612699 
L 534.265278 42.062723 
L 534.480889 42.022489 
L 534.696501 42.22356 
L 534.973716 42.835122 
L 535.343335 44.26063 
L 535.80536 46.995861 
L 536.39059 51.897524 
L 537.12983 60.148394 
L 538.08468 73.548509 
L 539.624762 98.877189 
L 541.472859 128.375263 
L 542.458511 140.667573 
L 543.197751 147.376768 
L 543.782982 150.897992 
L 544.245006 152.474964 
L 544.553022 152.917749 
L 544.768634 152.934993 
L 544.984245 152.710969 
L 545.26146 152.070114 
L 545.631079 150.606266 
L 546.123905 147.603086 
L 546.739938 142.259907 
L 547.509979 133.377932 
L 548.495631 119.194201 
L 550.282125 89.49426 
L 551.822207 65.442827 
L 552.777057 53.757058 
L 553.516297 47.214749 
L 554.101527 43.839637 
L 554.53275 42.446505 
L 554.840767 42.036449 
L 555.056378 42.042197 
L 555.271989 42.289163 
L 555.580006 43.058061 
L 555.980427 44.778284 
L 556.473253 47.976509 
L 557.089286 53.543427 
L 557.859326 62.662542 
L 558.87578 77.548778 
L 562.879992 139.438716 
L 563.650033 146.751642 
L 564.266065 150.656201 
L 564.72809 152.353542 
L 565.066908 152.903518 
L 565.282519 152.943752 
L 565.49813 152.742681 
L 565.775345 152.131119 
L 566.144965 150.705611 
L 566.606989 147.97038 
L 567.19222 143.068717 
L 567.931459 134.817847 
L 568.88631 121.417732 
L 570.426391 96.089052 
L 572.274489 66.590978 
L 573.260141 54.298668 
L 573.99938 47.589473 
L 574.584611 44.068249 
L 575.046636 42.491277 
L 575.354652 42.048492 
L 575.570263 42.031248 
L 575.785875 42.255272 
L 576.063089 42.896127 
L 576.432709 44.359975 
L 576.925535 47.363155 
L 577.541568 52.706334 
L 578.311608 61.588309 
L 579.29726 75.77204 
L 581.083755 105.471981 
L 582.623836 129.523414 
L 583.578687 141.209183 
L 584.317926 147.751492 
L 584.903157 151.126604 
L 585.33438 152.519736 
L 585.642396 152.929792 
L 585.858008 152.924044 
L 586.073619 152.677078 
L 586.381635 151.90818 
L 586.782056 150.187957 
L 587.274883 146.989732 
L 587.890915 141.422814 
L 588.660956 132.303699 
L 589.67741 117.417463 
L 593.681621 55.527525 
L 594.451662 48.214599 
L 595.067695 44.31004 
L 595.529719 42.612699 
L 595.868537 42.062723 
L 596.084149 42.022489 
L 596.29976 42.22356 
L 596.576975 42.835122 
L 596.946594 44.26063 
L 597.408619 46.995861 
L 597.99385 51.897524 
L 598.733089 60.148394 
L 599.687939 73.548509 
L 601.228021 98.877189 
L 603.076118 128.375263 
L 604.061771 140.667573 
L 604.80101 147.376768 
L 605.386241 150.897992 
L 605.848265 152.474964 
L 606.156281 152.917749 
L 606.371893 152.934993 
L 606.587504 152.710969 
L 606.864719 152.070114 
L 607.234338 150.606266 
L 607.727165 147.603086 
L 608.343197 142.259907 
L 609.113238 133.377932 
L 610.09889 119.194201 
L 611.885385 89.49426 
L 613.425466 65.442827 
L 614.380317 53.757058 
L 615.119556 47.214749 
L 615.704787 43.839637 
L 616.136009 42.446505 
L 616.444026 42.036449 
L 616.659637 42.042197 
L 616.875249 42.289163 
L 617.183265 43.058061 
L 617.583686 44.778284 
L 618.076512 47.976509 
L 618.692545 53.543427 
L 619.462585 62.662542 
L 620.479039 77.548778 
L 624.483251 139.438716 
L 625.253292 146.751642 
L 625.869324 150.656201 
L 626.331349 152.353542 
L 626.670167 152.903518 
L 626.885778 152.943752 
L 627.10139 152.742681 
L 627.378604 152.131119 
L 627.748224 150.705611 
L 628.210248 147.97038 
L 628.795479 143.068717 
L 629.534718 134.817847 
L 630.489569 121.417732 
L 632.02965 96.089052 
L 633.877748 66.590978 
L 634.8634 54.298668 
L 635.602639 47.589473 
L 636.18787 44.068249 
L 636.649895 42.491277 
L 636.957911 42.048492 
L 637.173522 42.031248 
L 637.389134 42.255272 
L 637.666348 42.896127 
L 638.035968 44.359975 
L 638.528794 47.363155 
L 639.144827 52.706334 
L 639.914867 61.588309 
L 640.90052 75.77204 
L 642.687014 105.471981 
L 644.227096 129.523414 
L 645.181946 141.209183 
L 645.921185 147.751492 
L 646.506416 151.126604 
L 646.937639 152.519736 
L 647.245655 152.929792 
L 647.461267 152.924044 
L 647.676878 152.677078 
L 647.984894 151.90818 
L 648.385316 150.187957 
L 648.878142 146.989732 
L 649.494174 141.422814 
L 650.264215 132.303699 
L 651.280669 117.417463 
L 655.284881 55.527525 
L 656.054921 48.214599 
L 656.670954 44.31004 
L 657.132978 42.612699 
L 657.471796 42.062723 
L 657.687408 42.022489 
L 657.903019 42.22356 
L 658.180234 42.835122 
L 658.549853 44.26063 
L 659.011878 46.995861 
L 659.597109 51.897524 
L 660.336348 60.148394 
L 661.291198 73.548509 
L 662.83128 98.877189 
L 664.679378 128.375263 
L 665.66503 140.667573 
L 666.404269 147.376768 
L 666.9895 150.897992 
L 667.451524 152.474964 
L 667.759541 152.917749 
L 667.975152 152.934993 
L 668.190763 152.710969 
L 668.467978 152.070114 
L 668.837598 150.606266 
L 669.330424 147.603086 
L 669.946456 142.259907 
L 670.716497 133.377932 
L 671.702149 119.194201 
L 673.488644 89.49426 
L 675.028725 65.442827 
L 675.983576 53.757058 
L 676.722815 47.214749 
L 677.308046 43.839637 
L 677.739269 42.446505 
L 678.047285 42.036449 
L 678.262896 42.042197 
L 678.478508 42.289163 
L 678.786524 43.058061 
L 679.186945 44.778284 
L 679.679771 47.976509 
L 680.295804 53.543427 
L 681.065844 62.662542 
L 682.082298 77.548778 
L 686.08651 139.438716 
L 686.856551 146.751642 
L 687.472583 150.656201 
L 687.934608 152.353542 
L 688.273426 152.903518 
L 688.489037 152.943752 
L 688.704649 152.742681 
L 688.981863 152.131119 
L 689.351483 150.705611 
L 689.813507 147.97038 
L 690.398738 143.068717 
L 691.137977 134.817847 
L 692.092828 121.417732 
L 693.632909 96.089052 
L 695.481007 66.590978 
L 696.466659 54.298668 
L 697.205898 47.589473 
L 697.791129 44.068249 
L 698.253154 42.491277 
L 698.56117 42.048492 
L 698.684377 42.009076 
L 698.684377 42.009076 
" clip-path="url(#pe327a12999)" style="fill: none; stroke: #e36f47; stroke-width: 4"/>
   </g>
   <g id="patch_3">
    <path d="M 64.170808 157.17109 
L 64.170808 8.279073 
" style="fill: none; stroke: #000000; stroke-width: 2; stroke-linejoin: miter; stroke-linecap: square"/>
   </g>
   <g id="line2d_9">
    <path d="M 82.651786 42.009076 
L 86.009163 44.885673 
L 86.840807 45.345951 
L 87.333633 45.383694 
L 87.734054 45.181097 
L 88.103674 44.732328 
L 88.534897 43.80661 
L 89.027723 42.139247 
L 89.643755 39.162499 
L 91.953878 26.947438 
L 92.446704 25.787955 
L 92.877927 25.280357 
L 93.247546 25.145918 
L 93.647967 25.230279 
L 94.202397 25.601949 
L 95.157247 26.561431 
L 103.165671 35.184154 
L 105.290983 37.172914 
L 105.968619 37.542991 
L 106.430644 37.555218 
L 106.800263 37.337476 
L 107.169883 36.846908 
L 107.601105 35.852262 
L 108.093932 34.096414 
L 108.740766 30.86767 
L 110.71207 20.342228 
L 111.235698 18.904633 
L 111.666921 18.275469 
L 112.03654 18.068631 
L 112.40616 18.09779 
L 112.898986 18.390834 
L 113.669026 19.165153 
L 115.855942 21.834395 
L 120.137369 26.913285 
L 124.449597 31.684285 
L 127.252545 34.5195 
L 128.022586 35.022699 
L 128.48461 35.090875 
L 128.85423 34.930836 
L 129.223849 34.509758 
L 129.624271 33.688546 
L 130.086295 32.205265 
L 130.671526 29.518681 
L 131.780385 23.06674 
L 132.612029 18.867302 
L 133.19726 16.964582 
L 133.659284 16.136183 
L 134.059705 15.832568 
L 134.429325 15.8191 
L 134.860548 16.03504 
L 135.507382 16.639895 
L 136.862654 18.293806 
L 141.729311 24.303751 
L 146.010738 29.217071 
L 148.906091 32.260638 
L 149.676131 32.79398 
L 150.138156 32.881334 
L 150.507775 32.73746 
L 150.877395 32.33331 
L 151.277816 31.531137 
L 151.739841 30.07015 
L 152.325072 27.410679 
L 153.403129 21.177512 
L 154.265574 16.819869 
L 154.850805 14.928748 
L 155.31283 14.109846 
L 155.713251 13.815312 
L 156.08287 13.811075 
L 156.514093 14.038741 
L 157.160927 14.66261 
L 158.547001 16.398715 
L 163.352055 22.477981 
L 167.60268 27.478919 
L 170.652041 30.775982 
L 171.452884 31.359628 
L 171.914908 31.462748 
L 172.284528 31.33326 
L 172.654147 30.945146 
L 173.054568 30.161884 
L 173.516593 28.723557 
L 174.101824 26.090813 
L 175.149079 20.065878 
L 176.042326 15.53158 
L 176.627557 13.637021 
L 177.089582 12.816236 
L 177.490003 12.5219 
L 177.859622 12.519655 
L 178.290845 12.751703 
L 178.937679 13.38528 
L 180.292951 15.10711 
L 185.128807 21.320855 
L 189.379432 26.398969 
L 193.445247 30.92077 
L 194.646511 32.015525 
L 195.231742 32.284185 
L 195.632163 32.247512 
L 196.001782 31.97629 
L 196.371402 31.410746 
L 196.802625 30.30899 
L 197.326252 28.28809 
L 198.03469 24.553245 
L 199.574771 16.219919 
L 200.129201 14.428706 
L 200.591225 13.591674 
L 200.991646 13.284967 
L 201.361266 13.272988 
L 201.792489 13.495611 
L 202.439323 14.118042 
L 203.794595 15.822162 
L 208.661252 22.019544 
L 212.911877 27.051072 
L 217.224105 31.812829 
L 221.597936 36.313852 
L 225.047719 39.585127 
L 225.910165 40.146777 
L 226.402991 40.233261 
L 226.803412 40.073103 
L 227.173031 39.665959 
L 227.573453 38.869654 
L 228.035477 37.421177 
L 228.620708 34.768881 
L 229.60636 29.001527 
L 230.561211 23.904337 
L 231.146442 21.861676 
L 231.639268 20.885486 
L 232.039689 20.528807 
L 232.409308 20.471581 
L 232.840531 20.642443 
L 233.456564 21.157973 
L 234.688629 22.55427 
L 240.048113 28.789389 
L 244.391142 33.465639 
L 248.549362 37.626396 
L 249.750626 38.595514 
L 250.335857 38.80781 
L 250.736278 38.735491 
L 251.105898 38.43377 
L 251.506319 37.7754 
L 251.937542 36.606721 
L 252.461169 34.505289 
L 253.200408 30.491165 
L 254.648085 22.477643 
L 255.233316 20.484493 
L 255.69534 19.588087 
L 256.095762 19.232456 
L 256.465381 19.177796 
L 256.896604 19.353486 
L 257.512636 19.878538 
L 258.744702 21.298328 
L 264.104185 27.637926 
L 268.416413 32.359992 
L 271.527378 35.489135 
L 272.32822 36.027571 
L 272.821046 36.11132 
L 273.190666 35.957569 
L 273.560285 35.546389 
L 273.960707 34.739297 
L 274.422731 33.274283 
L 275.007962 30.607009 
L 276.055217 24.510241 
L 276.948465 19.902281 
L 277.533696 17.956954 
L 277.99572 17.096895 
L 278.396141 16.769852 
L 278.765761 16.738697 
L 279.196984 16.938493 
L 279.843818 17.526056 
L 281.168288 19.117893 
L 286.158152 25.209214 
L 290.439578 30.06179 
L 293.766154 33.537034 
L 294.597798 34.140205 
L 295.090625 34.255196 
L 295.460244 34.130677 
L 295.829864 33.754017 
L 296.230285 32.989367 
L 296.692309 31.57638 
L 297.27754 28.969613 
L 298.263192 23.288543 
L 299.218043 18.289927 
L 299.803274 16.310949 
L 300.265298 15.4267 
L 300.665719 15.084409 
L 301.035339 15.044931 
L 301.466562 15.241638 
L 302.082594 15.801437 
L 303.31466 17.298505 
L 308.61254 23.897515 
L 312.893966 28.838162 
L 317.236996 33.510441 
L 319.454714 35.654354 
L 320.163151 36.062301 
L 320.625175 36.082815 
L 320.994795 35.870692 
L 321.364415 35.384841 
L 321.795637 34.394809 
L 322.288463 32.643867 
L 322.935298 29.423267 
L 324.8758 19.060802 
L 325.399428 17.596351 
L 325.830651 16.948786 
L 326.20027 16.730903 
L 326.56989 16.753783 
L 327.031914 17.020414 
L 327.740352 17.721305 
L 329.496045 19.883863 
L 333.900678 25.237348 
L 338.182104 30.088037 
L 342.525134 34.675883 
L 346.960569 39.039126 
L 349.979128 41.75355 
L 350.749169 42.194784 
L 351.241995 42.237852 
L 351.611615 42.056903 
L 351.981234 41.621517 
L 352.381656 40.791086 
L 352.874482 39.180779 
L 353.490514 36.269536 
L 355.86224 23.924527 
L 356.355066 22.838892 
L 356.786289 22.388146 
L 357.155908 22.294872 
L 357.587131 22.432785 
L 358.172362 22.88529 
L 359.281221 24.088079 
L 365.410745 31.026531 
L 369.784576 35.581449 
L 373.234359 38.890823 
L 374.096804 39.456355 
L 374.58963 39.540949 
L 374.95925 39.398276 
L 375.32887 39.007725 
L 375.729291 38.232209 
L 376.191315 36.80957 
L 376.776546 34.18748 
L 377.731397 28.630206 
L 378.717049 23.329296 
L 379.30228 21.265652 
L 379.795106 20.27304 
L 380.195527 19.906205 
L 380.565147 19.842734 
L 380.996369 20.009911 
L 381.612402 20.525375 
L 382.813666 21.89357 
L 388.296356 28.321222 
L 392.639385 33.029338 
L 395.904358 36.28635 
L 396.736002 36.849322 
L 397.228828 36.938425 
L 397.598448 36.793032 
L 397.968067 36.394154 
L 398.368488 35.604155 
L 398.830513 34.161179 
L 399.415744 31.517977 
L 400.432198 25.605907 
L 401.356247 20.765759 
L 401.941477 18.776485 
L 402.403502 17.883642 
L 402.803923 17.532477 
L 403.173543 17.483339 
L 403.604765 17.667083 
L 404.220798 18.205945 
L 405.452863 19.657193 
L 410.781545 26.0977 
L 415.093773 30.923912 
L 419.436803 35.453008 
L 421.346504 37.211468 
L 422.02414 37.558968 
L 422.455363 37.553046 
L 422.824982 37.323656 
L 423.194602 36.818351 
L 423.625825 35.803539 
L 424.118651 34.02368 
L 424.765485 30.770239 
L 426.705988 20.390793 
L 427.229615 18.933857 
L 427.660838 18.290698 
L 428.061259 18.067953 
L 428.461681 18.118346 
L 428.954507 18.433672 
L 429.755349 19.259063 
L 432.435091 22.536174 
L 436.685716 27.533207 
L 440.997944 32.262367 
L 445.402577 36.762951 
L 449.868813 41.009326 
L 452.671761 43.427244 
L 453.411 43.805932 
L 453.873025 43.817412 
L 454.242644 43.615606 
L 454.612264 43.156079 
L 455.043487 42.212939 
L 455.536313 40.522935 
L 456.152345 37.524232 
L 458.400864 25.616135 
L 458.893691 24.4193 
L 459.324913 23.885888 
L 459.694533 23.736331 
L 460.094954 23.811591 
L 460.618582 24.154816 
L 461.511829 25.050147 
L 470.813921 35.173207 
L 475.126149 39.378472 
L 476.573826 40.574864 
L 477.189858 40.835211 
L 477.621081 40.793285 
L 477.990701 40.528663 
L 478.36032 39.984135 
L 478.791543 38.919834 
L 479.315171 36.946031 
L 479.992807 33.407355 
L 481.7485 23.7934 
L 482.302929 22.090969 
L 482.764953 21.316769 
L 483.165375 21.044358 
L 483.534994 21.044709 
L 483.997019 21.282007 
L 484.705456 21.93624 
L 486.430347 23.944629 
L 490.896584 29.086244 
L 495.239613 33.742286 
L 498.935809 37.409179 
L 499.859858 38.082949 
L 500.383486 38.223548 
L 500.783907 38.104822 
L 501.153526 37.744351 
L 501.553947 37.006588 
L 502.015972 35.631079 
L 502.570401 33.220598 
L 503.432847 28.299386 
L 504.541706 22.223398 
L 505.126936 20.12266 
L 505.619763 19.100673 
L 506.020184 18.715593 
L 506.389803 18.64091 
L 506.821026 18.801557 
L 507.406257 19.286278 
L 508.515116 20.552008 
L 514.521433 27.685748 
L 518.833662 32.404596 
L 523.238295 36.895365 
L 527.365713 40.800068 
L 528.505373 41.646633 
L 529.059803 41.816619 
L 529.460224 41.727908 
L 529.829843 41.412187 
L 530.230265 40.73981 
L 530.692289 39.452999 
L 531.246718 37.142514 
L 532.047561 32.651725 
L 533.341229 25.44032 
L 533.92646 23.360414 
L 534.419286 22.354082 
L 534.819707 21.97575 
L 535.189327 21.901303 
L 535.62055 22.055259 
L 536.236582 22.551271 
L 537.437846 23.880843 
L 542.982139 30.206627 
L 547.355971 34.817742 
L 551.791405 39.171155 
L 555.949625 42.953845 
L 557.058484 43.734116 
L 557.612913 43.883146 
L 558.013334 43.778395 
L 558.382954 43.447074 
L 558.783375 42.756991 
L 559.2454 41.449118 
L 559.799829 39.113716 
L 560.600671 34.591501 
L 561.89434 27.347299 
L 562.479571 25.256988 
L 562.972397 24.241663 
L 563.372818 23.855188 
L 563.742438 23.772385 
L 564.17366 23.915628 
L 564.789693 24.394972 
L 565.960155 25.654805 
L 571.658456 31.991256 
L 576.032288 36.480053 
L 579.543673 39.804623 
L 580.406119 40.378483 
L 580.929747 40.480526 
L 581.330168 40.32431 
L 581.699788 39.922447 
L 582.100209 39.1334 
L 582.562233 37.694316 
L 583.147464 35.052581 
L 584.102315 29.474946 
L 585.087967 24.172792 
L 585.673198 22.113345 
L 586.166024 21.123751 
L 586.566445 20.757932 
L 586.936065 20.693978 
L 587.367287 20.858954 
L 587.98332 21.368919 
L 589.184584 22.722462 
L 594.667274 29.079692 
L 599.010303 33.73618 
L 603.076118 37.782785 
L 604.184977 38.646429 
L 604.739406 38.828373 
L 605.139828 38.741505 
L 605.509447 38.421675 
L 605.909868 37.738969 
L 606.371893 36.435378 
L 606.926322 34.10617 
L 607.727165 29.616383 
L 608.990031 22.650383 
L 609.575262 20.596948 
L 610.068088 19.61271 
L 610.46851 19.252189 
L 610.838129 19.19407 
L 611.269352 19.366939 
L 611.885385 19.889723 
L 613.086648 21.270705 
L 618.538536 27.716574 
L 622.850765 32.433337 
L 627.255398 36.922123 
L 631.721634 41.157435 
L 635.664243 44.613565 
L 636.649895 45.248552 
L 637.173522 45.358053 
L 637.573944 45.228839 
L 637.943563 44.870151 
L 638.343984 44.145598 
L 638.806009 42.794049 
L 639.360438 40.407766 
L 640.192082 35.646945 
L 641.424147 28.744397 
L 642.009378 26.633452 
L 642.502204 25.601202 
L 642.902625 25.20194 
L 643.272245 25.108271 
L 643.703468 25.239918 
L 644.3195 25.70429 
L 645.489962 26.93849 
L 651.249867 33.225709 
L 655.6545 37.659816 
L 659.874323 41.604579 
L 661.106389 42.528957 
L 661.69162 42.71296 
L 662.092041 42.625449 
L 662.46166 42.313191 
L 662.862081 41.646974 
L 663.324106 40.369319 
L 663.878535 38.069405 
L 664.648576 33.770072 
L 666.003848 26.197445 
L 666.589079 24.139798 
L 667.081905 23.150798 
L 667.482326 22.782995 
L 667.851945 22.714788 
L 668.283168 22.872024 
L 668.899201 23.366958 
L 670.100464 24.684684 
L 675.613956 30.908391 
L 679.987787 35.471407 
L 683.591578 38.941421 
L 684.484825 39.546911 
L 684.977651 39.650439 
L 685.378073 39.509334 
L 685.747692 39.124286 
L 686.148113 38.356157 
L 686.610138 36.943014 
L 687.195369 34.331815 
L 688.119418 28.966611 
L 689.135871 23.463843 
L 689.721102 21.38587 
L 690.213928 20.381781 
L 690.61435 20.007199 
L 690.983969 19.93814 
L 691.415192 20.100607 
L 692.031225 20.611971 
L 693.232488 21.976712 
L 698.684377 28.362551 
L 698.684377 28.362551 
" clip-path="url(#pe327a12999)" style="fill: none; stroke: #3ea44d; stroke-width: 4"/>
   </g>
   <g id="line2d_10">
    <path d="M 82.651786 14.272054 
L 698.684377 14.272054 
L 698.684377 14.272054 
" clip-path="url(#pe327a12999)" style="fill: none; stroke: #c371d2; stroke-width: 4"/>
   </g>
  </g>
 </g>
 <defs>
  <clipPath id="pe327a12999">
   <rect x="64.170808" y="8.279073" width="652.994547" height="148.892017"/>
  </clipPath>
 </defs>
</svg>
