<?xml version="1.0" encoding="utf-8" standalone="no"?>
<!DOCTYPE svg PUBLIC "-//W3C//DTD SVG 1.1//EN"
  "http://www.w3.org/Graphics/SVG/1.1/DTD/svg11.dtd">
<svg xmlns:xlink="http://www.w3.org/1999/xlink" width="576pt" height="273.6pt" viewBox="0 0 576 273.6" xmlns="http://www.w3.org/2000/svg" version="1.1">
 <metadata>
  <rdf:RDF xmlns:dc="http://purl.org/dc/elements/1.1/" xmlns:cc="http://creativecommons.org/ns#" xmlns:rdf="http://www.w3.org/1999/02/22-rdf-syntax-ns#">
   <cc:Work>
    <dc:type rdf:resource="http://purl.org/dc/dcmitype/StillImage"/>
    <dc:date>2024-07-16T17:23:49.972497</dc:date>
    <dc:format>image/svg+xml</dc:format>
    <dc:creator>
     <cc:Agent>
      <dc:title>Matplotlib v3.8.4, https://matplotlib.org/</dc:title>
     </cc:Agent>
    </dc:creator>
   </cc:Work>
  </rdf:RDF>
 </metadata>
 <defs>
  <style type="text/css">*{stroke-linejoin: round; stroke-linecap: butt}</style>
 </defs>
 <g id="figure_1">
  <g id="patch_1">
   <path d="M 0 273.6 
L 576 273.6 
L 576 0 
L 0 0 
L 0 273.6 
z
" style="fill: none"/>
  </g>
  <g id="axes_1">
   <g id="patch_2">
    <path d="M 42.756477 239.905354 
L 571.633106 239.905354 
L 571.633106 6.036488 
L 42.756477 6.036488 
L 42.756477 239.905354 
z
" style="fill: none"/>
   </g>
   <g id="line2d_1">
    <path d="M 57.724683 12.655418 
L 62.764483 12.655418 
L 67.804284 13.174233 
L 72.844084 13.952456 
L 77.883884 17.065345 
L 82.923684 22.77231 
L 87.963484 28.479274 
L 93.003284 34.705054 
L 98.043084 40.412018 
L 103.082885 45.600167 
L 108.122685 50.788317 
L 113.162485 55.457651 
L 118.202285 59.867578 
L 123.242085 64.018098 
L 128.281885 67.90921 
L 133.321686 71.281507 
L 138.361486 74.394397 
L 143.401286 77.507287 
L 148.441086 80.360769 
L 153.480886 82.954844 
L 158.520686 85.548918 
L 163.560487 87.883586 
L 168.600287 89.958845 
L 173.640087 92.034105 
L 178.679887 93.849958 
L 183.719687 95.66581 
L 188.759487 97.481662 
L 193.799288 98.7787 
L 198.839088 100.335144 
L 203.878888 101.891589 
L 208.918688 103.188627 
L 213.958488 104.226257 
L 218.998288 105.523294 
L 224.038089 106.820331 
L 229.077889 107.857961 
L 234.117689 108.895591 
L 239.157489 109.673813 
L 244.197289 110.452036 
L 249.237089 111.489666 
L 254.276889 112.267888 
L 259.31669 113.046111 
L 264.35649 113.824333 
L 269.39629 114.602555 
L 274.43609 115.12137 
L 279.47589 115.899593 
L 284.51569 116.418408 
L 289.555491 116.937223 
L 294.595291 117.715445 
L 299.635091 118.23426 
L 304.674891 118.753075 
L 309.714691 119.27189 
L 314.754491 119.790705 
L 319.794292 120.050112 
L 324.834092 120.568927 
L 329.873892 120.828335 
L 334.913692 121.34715 
L 339.953492 121.865965 
L 344.993292 122.125372 
L 350.033093 122.644187 
L 355.072893 122.903595 
L 360.112693 123.163002 
L 365.152493 123.42241 
L 370.192293 123.681817 
L 375.232093 124.200632 
L 380.271894 124.460039 
L 385.311694 124.719447 
L 390.351494 124.978854 
L 395.391294 125.238262 
L 400.431094 125.497669 
L 405.470894 126.016484 
L 410.510694 126.016484 
L 415.550495 126.275892 
L 420.590295 126.535299 
L 425.630095 126.794707 
L 430.669895 127.054114 
L 435.709695 127.054114 
L 440.749495 127.054114 
L 445.789296 127.313522 
L 450.829096 127.832337 
L 455.868896 127.832337 
L 460.908696 128.091744 
L 465.948496 128.091744 
L 470.988296 128.351152 
L 476.028097 128.351152 
L 481.067897 128.610559 
L 486.107697 128.610559 
L 491.147497 128.869967 
L 496.187297 129.129374 
L 501.227097 129.129374 
L 506.266898 129.129374 
L 511.306698 129.648189 
L 516.346498 129.648189 
L 521.386298 129.648189 
L 526.426098 129.648189 
L 531.465898 129.907596 
L 536.505699 129.907596 
L 541.545499 130.167004 
L 546.585299 130.167004 
L 551.625099 130.167004 
L 556.664899 130.426411 
" clip-path="url(#p4b8bdc1d46)" style="fill: none; stroke: #7cfc00; stroke-width: 4"/>
   </g>
   <g id="matplotlib.axis_1">
    <g id="xtick_1">
     <g id="line2d_2">
      <defs>
       <path id="m4556b8ae22" d="M 0 0 
L 0 -5 
" style="stroke: #000000"/>
      </defs>
      <g>
       <use xlink:href="#m4556b8ae22" x="52.684883" y="239.905354" style="stroke: #000000"/>
      </g>
     </g>
     <g id="text_1">
      <!-- $0$ -->
      <g transform="translate(45.684883 264.680979) scale(0.28 -0.28)">
       <defs>
        <path id="Cmr10-30" d="M 1600 -141 
Q 816 -141 533 504 
Q 250 1150 250 2041 
Q 250 2597 351 3087 
Q 453 3578 754 3920 
Q 1056 4263 1600 4263 
Q 2022 4263 2290 4056 
Q 2559 3850 2700 3523 
Q 2841 3197 2892 2823 
Q 2944 2450 2944 2041 
Q 2944 1491 2842 1011 
Q 2741 531 2444 195 
Q 2147 -141 1600 -141 
z
M 1600 25 
Q 1956 25 2131 390 
Q 2306 756 2347 1200 
Q 2388 1644 2388 2144 
Q 2388 2625 2347 3031 
Q 2306 3438 2132 3767 
Q 1959 4097 1600 4097 
Q 1238 4097 1063 3765 
Q 888 3434 847 3029 
Q 806 2625 806 2144 
Q 806 1788 823 1472 
Q 841 1156 916 820 
Q 991 484 1158 254 
Q 1325 25 1600 25 
z
" transform="scale(0.015625)"/>
       </defs>
       <use xlink:href="#Cmr10-30" transform="translate(0 0.390625)"/>
      </g>
     </g>
    </g>
    <g id="xtick_2">
     <g id="line2d_3">
      <g>
       <use xlink:href="#m4556b8ae22" x="153.480886" y="239.905354" style="stroke: #000000"/>
      </g>
     </g>
     <g id="text_2">
      <!-- $10$ -->
      <g transform="translate(139.480886 264.680979) scale(0.28 -0.28)">
       <defs>
        <path id="Cmr10-31" d="M 594 0 
L 594 225 
Q 1394 225 1394 428 
L 1394 3788 
Q 1063 3628 556 3628 
L 556 3853 
Q 1341 3853 1741 4263 
L 1831 4263 
Q 1853 4263 1873 4245 
Q 1894 4228 1894 4206 
L 1894 428 
Q 1894 225 2694 225 
L 2694 0 
L 594 0 
z
" transform="scale(0.015625)"/>
       </defs>
       <use xlink:href="#Cmr10-31" transform="translate(0 0.390625)"/>
       <use xlink:href="#Cmr10-30" transform="translate(50 0.390625)"/>
      </g>
     </g>
    </g>
    <g id="xtick_3">
     <g id="line2d_4">
      <g>
       <use xlink:href="#m4556b8ae22" x="254.276889" y="239.905354" style="stroke: #000000"/>
      </g>
     </g>
     <g id="text_3">
      <!-- $20$ -->
      <g transform="translate(240.276889 264.680979) scale(0.28 -0.28)">
       <defs>
        <path id="Cmr10-32" d="M 319 0 
L 319 172 
Q 319 188 331 206 
L 1325 1306 
Q 1550 1550 1690 1715 
Q 1831 1881 1968 2097 
Q 2106 2313 2186 2536 
Q 2266 2759 2266 3009 
Q 2266 3272 2169 3511 
Q 2072 3750 1880 3894 
Q 1688 4038 1416 4038 
Q 1138 4038 916 3870 
Q 694 3703 603 3438 
Q 628 3444 672 3444 
Q 816 3444 917 3347 
Q 1019 3250 1019 3097 
Q 1019 2950 917 2848 
Q 816 2747 672 2747 
Q 522 2747 420 2851 
Q 319 2956 319 3097 
Q 319 3338 409 3548 
Q 500 3759 670 3923 
Q 841 4088 1055 4175 
Q 1269 4263 1509 4263 
Q 1875 4263 2190 4108 
Q 2506 3953 2690 3670 
Q 2875 3388 2875 3009 
Q 2875 2731 2753 2481 
Q 2631 2231 2440 2026 
Q 2250 1822 1953 1562 
Q 1656 1303 1563 1216 
L 838 519 
L 1453 519 
Q 1906 519 2211 526 
Q 2516 534 2534 550 
Q 2609 631 2688 1141 
L 2875 1141 
L 2694 0 
L 319 0 
z
" transform="scale(0.015625)"/>
       </defs>
       <use xlink:href="#Cmr10-32" transform="translate(0 0.390625)"/>
       <use xlink:href="#Cmr10-30" transform="translate(50 0.390625)"/>
      </g>
     </g>
    </g>
    <g id="xtick_4">
     <g id="line2d_5">
      <g>
       <use xlink:href="#m4556b8ae22" x="355.072893" y="239.905354" style="stroke: #000000"/>
      </g>
     </g>
     <g id="text_4">
      <!-- $30$ -->
      <g transform="translate(341.072893 264.680979) scale(0.28 -0.28)">
       <defs>
        <path id="Cmr10-33" d="M 609 494 
Q 759 275 1012 169 
Q 1266 63 1556 63 
Q 1928 63 2084 380 
Q 2241 697 2241 1100 
Q 2241 1281 2208 1462 
Q 2175 1644 2097 1800 
Q 2019 1956 1883 2050 
Q 1747 2144 1550 2144 
L 1125 2144 
Q 1069 2144 1069 2203 
L 1069 2259 
Q 1069 2309 1125 2309 
L 1478 2338 
Q 1703 2338 1851 2506 
Q 2000 2675 2069 2917 
Q 2138 3159 2138 3378 
Q 2138 3684 1994 3881 
Q 1850 4078 1556 4078 
Q 1313 4078 1091 3986 
Q 869 3894 738 3706 
Q 750 3709 759 3711 
Q 769 3713 781 3713 
Q 925 3713 1022 3613 
Q 1119 3513 1119 3372 
Q 1119 3234 1022 3134 
Q 925 3034 781 3034 
Q 641 3034 541 3134 
Q 441 3234 441 3372 
Q 441 3647 606 3850 
Q 772 4053 1033 4158 
Q 1294 4263 1556 4263 
Q 1750 4263 1965 4205 
Q 2181 4147 2356 4039 
Q 2531 3931 2642 3762 
Q 2753 3594 2753 3378 
Q 2753 3109 2633 2881 
Q 2513 2653 2303 2487 
Q 2094 2322 1844 2241 
Q 2122 2188 2372 2031 
Q 2622 1875 2773 1631 
Q 2925 1388 2925 1106 
Q 2925 753 2731 467 
Q 2538 181 2222 20 
Q 1906 -141 1556 -141 
Q 1256 -141 954 -26 
Q 653 88 461 316 
Q 269 544 269 863 
Q 269 1022 375 1128 
Q 481 1234 641 1234 
Q 744 1234 830 1186 
Q 916 1138 964 1050 
Q 1013 963 1013 863 
Q 1013 706 903 600 
Q 794 494 641 494 
L 609 494 
z
" transform="scale(0.015625)"/>
       </defs>
       <use xlink:href="#Cmr10-33" transform="translate(0 0.390625)"/>
       <use xlink:href="#Cmr10-30" transform="translate(50 0.390625)"/>
      </g>
     </g>
    </g>
    <g id="xtick_5">
     <g id="line2d_6">
      <g>
       <use xlink:href="#m4556b8ae22" x="455.868896" y="239.905354" style="stroke: #000000"/>
      </g>
     </g>
     <g id="text_5">
      <!-- $40$ -->
      <g transform="translate(441.868896 264.680979) scale(0.28 -0.28)">
       <defs>
        <path id="Cmr10-34" d="M 178 1056 
L 178 1281 
L 2156 4231 
Q 2178 4263 2222 4263 
L 2316 4263 
Q 2388 4263 2388 4191 
L 2388 1281 
L 3016 1281 
L 3016 1056 
L 2388 1056 
L 2388 428 
Q 2388 297 2575 261 
Q 2763 225 3009 225 
L 3009 0 
L 1247 0 
L 1247 225 
Q 1494 225 1681 261 
Q 1869 297 1869 428 
L 1869 1056 
L 178 1056 
z
M 391 1281 
L 1906 1281 
L 1906 3547 
L 391 1281 
z
" transform="scale(0.015625)"/>
       </defs>
       <use xlink:href="#Cmr10-34" transform="translate(0 0.390625)"/>
       <use xlink:href="#Cmr10-30" transform="translate(50 0.390625)"/>
      </g>
     </g>
    </g>
    <g id="xtick_6">
     <g id="line2d_7">
      <g>
       <use xlink:href="#m4556b8ae22" x="556.664899" y="239.905354" style="stroke: #000000"/>
      </g>
     </g>
     <g id="text_6">
      <!-- $50$ -->
      <g transform="translate(542.664899 264.680979) scale(0.28 -0.28)">
       <defs>
        <path id="Cmr10-35" d="M 556 728 
Q 622 541 758 387 
Q 894 234 1080 148 
Q 1266 63 1466 63 
Q 1928 63 2103 422 
Q 2278 781 2278 1294 
Q 2278 1516 2270 1667 
Q 2263 1819 2228 1959 
Q 2169 2184 2020 2353 
Q 1872 2522 1656 2522 
Q 1441 2522 1286 2456 
Q 1131 2391 1034 2303 
Q 938 2216 863 2119 
Q 788 2022 769 2016 
L 697 2016 
Q 681 2016 657 2036 
Q 634 2056 634 2075 
L 634 4213 
Q 634 4228 654 4245 
Q 675 4263 697 4263 
L 716 4263 
Q 1147 4056 1631 4056 
Q 2106 4056 2547 4263 
L 2566 4263 
Q 2588 4263 2606 4247 
Q 2625 4231 2625 4213 
L 2625 4153 
Q 2625 4122 2613 4122 
Q 2394 3831 2064 3668 
Q 1734 3506 1381 3506 
Q 1125 3506 856 3578 
L 856 2369 
Q 1069 2541 1236 2614 
Q 1403 2688 1663 2688 
Q 2016 2688 2295 2484 
Q 2575 2281 2725 1954 
Q 2875 1628 2875 1288 
Q 2875 903 2686 575 
Q 2497 247 2172 53 
Q 1847 -141 1466 -141 
Q 1150 -141 886 21 
Q 622 184 470 459 
Q 319 734 319 1044 
Q 319 1188 412 1278 
Q 506 1369 647 1369 
Q 788 1369 883 1276 
Q 978 1184 978 1044 
Q 978 906 883 811 
Q 788 716 647 716 
Q 625 716 597 720 
Q 569 725 556 728 
z
" transform="scale(0.015625)"/>
       </defs>
       <use xlink:href="#Cmr10-35" transform="translate(0 0.390625)"/>
       <use xlink:href="#Cmr10-30" transform="translate(50 0.390625)"/>
      </g>
     </g>
    </g>
   </g>
   <g id="matplotlib.axis_2">
    <g id="ytick_1">
     <g id="line2d_8">
      <defs>
       <path id="ma1a1188f95" d="M 0 0 
L 5 0 
" style="stroke: #000000"/>
      </defs>
      <g>
       <use xlink:href="#ma1a1188f95" x="42.756477" y="221.99725" style="stroke: #000000"/>
      </g>
     </g>
     <g id="text_7">
      <!-- $0.2$ -->
      <g transform="translate(3.416477 232.635062) scale(0.28 -0.28)">
       <defs>
        <path id="Cmmi10-3a" d="M 538 353 
Q 538 497 644 600 
Q 750 703 891 703 
Q 978 703 1062 656 
Q 1147 609 1194 525 
Q 1241 441 1241 353 
Q 1241 213 1137 106 
Q 1034 0 891 0 
Q 750 0 644 106 
Q 538 213 538 353 
z
" transform="scale(0.015625)"/>
       </defs>
       <use xlink:href="#Cmr10-30" transform="translate(0 0.390625)"/>
       <use xlink:href="#Cmmi10-3a" transform="translate(50 0.390625)"/>
       <use xlink:href="#Cmr10-32" transform="translate(77.685547 0.390625)"/>
      </g>
     </g>
    </g>
    <g id="ytick_2">
     <g id="line2d_9">
      <g>
       <use xlink:href="#ma1a1188f95" x="42.756477" y="170.115755" style="stroke: #000000"/>
      </g>
     </g>
     <g id="text_8">
      <!-- $0.4$ -->
      <g transform="translate(3.416477 180.753567) scale(0.28 -0.28)">
       <use xlink:href="#Cmr10-30" transform="translate(0 0.390625)"/>
       <use xlink:href="#Cmmi10-3a" transform="translate(50 0.390625)"/>
       <use xlink:href="#Cmr10-34" transform="translate(77.685547 0.390625)"/>
      </g>
     </g>
    </g>
    <g id="ytick_3">
     <g id="line2d_10">
      <g>
       <use xlink:href="#ma1a1188f95" x="42.756477" y="118.23426" style="stroke: #000000"/>
      </g>
     </g>
     <g id="text_9">
      <!-- $0.6$ -->
      <g transform="translate(3.416477 128.872073) scale(0.28 -0.28)">
       <defs>
        <path id="Cmr10-36" d="M 1600 -141 
Q 1203 -141 937 70 
Q 672 281 526 617 
Q 381 953 325 1322 
Q 269 1691 269 2069 
Q 269 2575 466 3084 
Q 663 3594 1045 3928 
Q 1428 4263 1953 4263 
Q 2172 4263 2361 4180 
Q 2550 4097 2658 3936 
Q 2766 3775 2766 3547 
Q 2766 3416 2677 3327 
Q 2588 3238 2456 3238 
Q 2331 3238 2240 3328 
Q 2150 3419 2150 3547 
Q 2150 3672 2240 3762 
Q 2331 3853 2456 3853 
L 2491 3853 
Q 2409 3969 2261 4023 
Q 2113 4078 1953 4078 
Q 1759 4078 1595 3993 
Q 1431 3909 1300 3765 
Q 1169 3622 1081 3448 
Q 994 3275 945 3053 
Q 897 2831 884 2637 
Q 872 2444 872 2150 
Q 984 2413 1190 2580 
Q 1397 2747 1656 2747 
Q 1941 2747 2175 2631 
Q 2409 2516 2578 2311 
Q 2747 2106 2836 1843 
Q 2925 1581 2925 1313 
Q 2925 938 2758 598 
Q 2591 259 2287 59 
Q 1984 -141 1600 -141 
z
M 1600 63 
Q 1847 63 1997 175 
Q 2147 288 2217 473 
Q 2288 659 2305 848 
Q 2322 1038 2322 1313 
Q 2322 1675 2287 1931 
Q 2253 2188 2100 2383 
Q 1947 2578 1631 2578 
Q 1372 2578 1205 2403 
Q 1038 2228 961 1961 
Q 884 1694 884 1447 
Q 884 1363 891 1319 
Q 891 1309 889 1303 
Q 888 1297 884 1288 
Q 884 1013 940 731 
Q 997 450 1156 256 
Q 1316 63 1600 63 
z
" transform="scale(0.015625)"/>
       </defs>
       <use xlink:href="#Cmr10-30" transform="translate(0 0.390625)"/>
       <use xlink:href="#Cmmi10-3a" transform="translate(50 0.390625)"/>
       <use xlink:href="#Cmr10-36" transform="translate(77.685547 0.390625)"/>
      </g>
     </g>
    </g>
    <g id="ytick_4">
     <g id="line2d_11">
      <g>
       <use xlink:href="#ma1a1188f95" x="42.756477" y="66.352765" style="stroke: #000000"/>
      </g>
     </g>
     <g id="text_10">
      <!-- $0.8$ -->
      <g transform="translate(3.416477 76.990578) scale(0.28 -0.28)">
       <defs>
        <path id="Cmr10-38" d="M 269 972 
Q 269 1356 522 1651 
Q 775 1947 1172 2144 
L 934 2297 
Q 716 2441 578 2680 
Q 441 2919 441 3181 
Q 441 3488 602 3734 
Q 763 3981 1030 4122 
Q 1297 4263 1600 4263 
Q 1884 4263 2148 4147 
Q 2413 4031 2583 3815 
Q 2753 3600 2753 3303 
Q 2753 3088 2651 2903 
Q 2550 2719 2373 2572 
Q 2197 2425 1997 2322 
L 2363 2088 
Q 2616 1922 2770 1653 
Q 2925 1384 2925 1088 
Q 2925 741 2739 456 
Q 2553 172 2247 15 
Q 1941 -141 1600 -141 
Q 1269 -141 961 -6 
Q 653 128 461 383 
Q 269 638 269 972 
z
M 616 972 
Q 616 719 755 509 
Q 894 300 1122 181 
Q 1350 63 1600 63 
Q 1972 63 2275 280 
Q 2578 497 2578 856 
Q 2578 978 2529 1098 
Q 2481 1219 2395 1317 
Q 2309 1416 2203 1478 
L 1344 2034 
Q 1144 1928 976 1765 
Q 809 1603 712 1400 
Q 616 1197 616 972 
z
M 1056 2925 
L 1831 2425 
Q 2100 2581 2272 2803 
Q 2444 3025 2444 3303 
Q 2444 3519 2323 3698 
Q 2203 3878 2009 3978 
Q 1816 4078 1594 4078 
Q 1400 4078 1203 4003 
Q 1006 3928 878 3779 
Q 750 3631 750 3431 
Q 750 3131 1056 2925 
z
" transform="scale(0.015625)"/>
       </defs>
       <use xlink:href="#Cmr10-30" transform="translate(0 0.390625)"/>
       <use xlink:href="#Cmmi10-3a" transform="translate(50 0.390625)"/>
       <use xlink:href="#Cmr10-38" transform="translate(77.685547 0.390625)"/>
      </g>
     </g>
    </g>
    <g id="ytick_5">
     <g id="line2d_12">
      <g>
       <use xlink:href="#ma1a1188f95" x="42.756477" y="14.471271" style="stroke: #000000"/>
      </g>
     </g>
     <g id="text_11">
      <!-- $1.0$ -->
      <g transform="translate(3.416477 25.109083) scale(0.28 -0.28)">
       <use xlink:href="#Cmr10-31" transform="translate(0 0.390625)"/>
       <use xlink:href="#Cmmi10-3a" transform="translate(50 0.390625)"/>
       <use xlink:href="#Cmr10-30" transform="translate(77.685547 0.390625)"/>
      </g>
     </g>
    </g>
   </g>
   <g id="line2d_13">
    <path d="M 57.724683 15.5089 
L 62.764483 20.437642 
L 67.804284 28.479274 
L 72.844084 38.596166 
L 77.883884 48.972465 
L 82.923684 59.348764 
L 87.963484 68.94684 
L 93.003284 78.285509 
L 98.043084 86.845956 
L 103.082885 94.62818 
L 108.122685 101.891589 
L 113.162485 108.376776 
L 118.202285 114.343148 
L 123.242085 119.790705 
L 128.281885 125.238262 
L 133.321686 129.907596 
L 138.361486 134.576931 
L 143.401286 138.468043 
L 148.441086 142.359155 
L 153.480886 145.99086 
L 158.520686 149.622564 
L 163.560487 152.735454 
L 168.600287 155.588936 
L 173.640087 158.442419 
L 178.679887 161.295901 
L 183.719687 163.889975 
L 188.759487 166.224643 
L 193.799288 168.299903 
L 198.839088 170.63457 
L 203.878888 172.70983 
L 208.918688 174.785089 
L 213.958488 176.600942 
L 218.998288 178.416794 
L 224.038089 179.973239 
L 229.077889 181.789091 
L 234.117689 183.345536 
L 239.157489 184.901981 
L 244.197289 186.199018 
L 249.237089 187.755463 
L 254.276889 189.0525 
L 259.31669 190.349538 
L 264.35649 191.646575 
L 269.39629 192.684205 
L 274.43609 193.981242 
L 279.47589 195.018872 
L 284.51569 196.056502 
L 289.555491 197.094132 
L 294.595291 198.131762 
L 299.635091 199.169392 
L 304.674891 199.947614 
L 309.714691 200.985244 
L 314.754491 202.022874 
L 319.794292 202.801097 
L 324.834092 203.838726 
L 329.873892 204.357541 
L 334.913692 205.135764 
L 339.953492 205.913986 
L 344.993292 206.692209 
L 350.033093 207.470431 
L 355.072893 208.248653 
L 360.112693 209.026876 
L 365.152493 209.545691 
L 370.192293 210.323913 
L 375.232093 210.842728 
L 380.271894 211.620951 
L 385.311694 212.139766 
L 390.351494 212.917988 
L 395.391294 213.436803 
L 400.431094 213.955618 
L 405.470894 214.215025 
L 410.510694 214.73384 
L 415.550495 215.512063 
L 420.590295 216.030878 
L 425.630095 216.549693 
L 430.669895 217.068508 
L 435.709695 217.327915 
L 440.749495 218.106138 
L 445.789296 218.365545 
L 450.829096 218.88436 
L 455.868896 219.403175 
L 460.908696 219.92199 
L 465.948496 220.181397 
L 470.988296 220.700212 
L 476.028097 220.95962 
L 481.067897 221.219027 
L 486.107697 221.737842 
L 491.147497 221.99725 
L 496.187297 222.516065 
L 501.227097 222.775472 
L 506.266898 223.294287 
L 511.306698 223.813102 
L 516.346498 224.072509 
L 521.386298 224.331917 
L 526.426098 224.591324 
L 531.465898 225.110139 
L 536.505699 225.369547 
L 541.545499 225.628954 
L 546.585299 226.147769 
L 551.625099 226.407177 
L 556.664899 226.666584 
" clip-path="url(#p4b8bdc1d46)" style="fill: none; stroke: #ff82ab; stroke-width: 4"/>
   </g>
   <g id="patch_3">
    <path d="M 42.756477 239.905354 
L 42.756477 6.036488 
" style="fill: none; stroke: #000000; stroke-width: 2; stroke-linejoin: miter; stroke-linecap: square"/>
   </g>
   <g id="patch_4">
    <path d="M 42.756477 239.905354 
L 571.633106 239.905354 
" style="fill: none; stroke: #000000; stroke-width: 2; stroke-linejoin: miter; stroke-linecap: square"/>
   </g>
   <g id="line2d_14">
    <path d="M 67.804284 133.637838 
L 72.844084 94.071185 
L 77.883884 83.724613 
L 82.923684 83.886585 
L 87.963484 88.178129 
L 93.003284 94.071185 
L 98.043084 100.470336 
L 103.082885 106.878655 
L 108.122685 113.069873 
L 113.162485 118.946812 
L 118.202285 124.475829 
L 123.242085 129.654848 
L 128.281885 134.49717 
L 133.321686 139.023075 
L 138.361486 143.255413 
L 143.401286 147.217305 
L 148.441086 150.930972 
L 153.480886 154.417188 
L 158.520686 157.695065 
L 163.560487 160.782025 
L 168.600287 163.693862 
L 173.640087 166.444852 
L 178.679887 169.047882 
L 183.719687 171.514585 
L 188.759487 173.855462 
L 193.799288 176.080002 
L 198.839088 178.196793 
L 203.878888 180.213616 
L 208.918688 182.137533 
L 213.958488 183.974965 
L 218.998288 185.731758 
L 224.038089 187.413248 
L 229.077889 189.02431 
L 234.117689 190.569407 
L 239.157489 192.052633 
L 244.197289 193.477747 
L 249.237089 194.84821 
L 254.276889 196.16721 
L 259.31669 197.437692 
L 264.35649 198.662375 
L 269.39629 199.843781 
L 274.43609 200.984243 
L 279.47589 202.085932 
L 284.51569 203.150863 
L 289.555491 204.180914 
L 294.595291 205.177835 
L 299.635091 206.143258 
L 304.674891 207.078709 
L 309.714691 207.985615 
L 314.754491 208.865314 
L 319.794292 209.719059 
L 324.834092 210.548025 
L 329.873892 211.353318 
L 334.913692 212.135976 
L 339.953492 212.896979 
L 344.993292 213.637247 
L 350.033093 214.357651 
L 355.072893 215.05901 
L 360.112693 215.742099 
L 365.152493 216.407651 
L 370.192293 217.05636 
L 375.232093 217.688882 
L 380.271894 218.30584 
L 385.311694 218.907824 
L 390.351494 219.495393 
L 395.391294 220.069081 
L 400.431094 220.629393 
L 405.470894 221.17681 
L 410.510694 221.711789 
L 415.550495 222.234767 
L 420.590295 222.746159 
L 425.630095 223.246361 
L 430.669895 223.735751 
L 435.709695 224.21469 
L 440.749495 224.683522 
L 445.789296 225.142577 
L 450.829096 225.592169 
L 455.868896 226.032599 
L 460.908696 226.464157 
L 465.948496 226.887118 
L 470.988296 227.301746 
L 476.028097 227.708295 
L 481.067897 228.107009 
L 486.107697 228.49812 
L 491.147497 228.881853 
L 496.187297 229.258423 
L 501.227097 229.628036 
L 506.266898 229.990891 
L 511.306698 230.347179 
L 516.346498 230.697084 
L 521.386298 231.040782 
L 526.426098 231.378444 
L 531.465898 231.710233 
L 536.505699 232.036308 
L 541.545499 232.35682 
L 546.585299 232.671917 
L 551.625099 232.981739 
L 556.664899 233.286424 
" clip-path="url(#p4b8bdc1d46)" style="fill: none; stroke: #6ca6cd; stroke-width: 4"/>
   </g>
  </g>
 </g>
 <defs>
  <clipPath id="p4b8bdc1d46">
   <rect x="42.756477" y="6.036488" width="528.876629" height="233.868866"/>
  </clipPath>
 </defs>
</svg>
