<?xml version="1.0" encoding="utf-8" standalone="no"?>
<!DOCTYPE svg PUBLIC "-//W3C//DTD SVG 1.1//EN"
  "http://www.w3.org/Graphics/SVG/1.1/DTD/svg11.dtd">
<svg xmlns:xlink="http://www.w3.org/1999/xlink" width="1008pt" height="201.6pt" viewBox="0 0 1008 201.6" xmlns="http://www.w3.org/2000/svg" version="1.1">
 <metadata>
  <rdf:RDF xmlns:dc="http://purl.org/dc/elements/1.1/" xmlns:cc="http://creativecommons.org/ns#" xmlns:rdf="http://www.w3.org/1999/02/22-rdf-syntax-ns#">
   <cc:Work>
    <dc:type rdf:resource="http://purl.org/dc/dcmitype/StillImage"/>
    <dc:date>2024-06-27T17:37:13.794269</dc:date>
    <dc:format>image/svg+xml</dc:format>
    <dc:creator>
     <cc:Agent>
      <dc:title>Matplotlib v3.8.4, https://matplotlib.org/</dc:title>
     </cc:Agent>
    </dc:creator>
   </cc:Work>
  </rdf:RDF>
 </metadata>
 <defs>
  <style type="text/css">*{stroke-linejoin: round; stroke-linecap: butt}</style>
 </defs>
 <g id="figure_1">
  <g id="patch_1">
   <path d="M 0 201.6 
L 1008 201.6 
L 1008 0 
L 0 0 
L 0 201.6 
z
" style="fill: none"/>
  </g>
  <g id="axes_1">
   <g id="patch_2">
    <path d="M 64.170808 167.905354 
L 1002.232662 167.905354 
L 1002.232662 5.60633 
L 64.170808 5.60633 
L 64.170808 167.905354 
z
" style="fill: none"/>
   </g>
   <g id="line2d_1">
    <path d="M 90.719728 52.276437 
L 92.489656 49.052187 
L 94.259584 46.603636 
L 95.144548 45.67299 
L 96.029512 44.93735 
L 96.914476 44.394871 
L 97.79944 44.042761 
L 98.684404 43.877362 
L 99.569368 43.960861 
L 100.454332 44.552437 
L 101.339296 45.641881 
L 102.22426 47.18458 
L 103.109224 49.134609 
L 103.994188 51.445881 
L 105.764116 56.972817 
L 107.534044 63.427545 
L 110.188936 74.227145 
L 114.613757 93.628429 
L 120.808505 121.218897 
L 123.463397 131.88496 
L 125.233325 138.260505 
L 127.003253 143.96578 
L 128.773181 148.960555 
L 130.543109 153.221695 
L 132.313037 156.737158 
L 134.082965 159.50191 
L 134.967929 160.60243 
L 135.852893 161.515242 
L 136.737857 162.240663 
L 137.622821 162.779123 
L 138.507785 163.131148 
L 139.392749 163.297365 
L 140.277713 163.278503 
L 141.162677 163.075404 
L 142.047641 162.689048 
L 142.932605 162.120566 
L 143.817569 161.371277 
L 144.702533 160.442715 
L 146.472461 158.055194 
L 148.242389 154.975986 
L 150.012317 151.229005 
L 151.782245 146.845453 
L 153.552173 141.865122 
L 155.322101 136.337568 
L 157.976993 127.154946 
L 160.631885 117.129445 
L 165.941669 95.815573 
L 169.481525 81.850731 
L 172.136417 72.153802 
L 173.906345 66.260271 
L 175.676273 60.933315 
L 177.446201 56.2514 
L 179.21613 52.276437 
L 180.986058 49.052187 
L 182.755986 46.603636 
L 183.64095 45.67299 
L 184.525914 44.93735 
L 185.410878 44.394871 
L 186.295842 44.042761 
L 187.180806 43.877362 
L 188.06577 43.960861 
L 188.950734 44.552437 
L 189.835698 45.641881 
L 190.720662 47.18458 
L 191.605626 49.134609 
L 192.49059 51.445881 
L 194.260518 56.972817 
L 196.030446 63.427545 
L 198.685338 74.227145 
L 203.110158 93.628429 
L 209.304906 121.218897 
L 211.959798 131.88496 
L 213.729726 138.260505 
L 215.499654 143.96578 
L 217.269582 148.960555 
L 219.03951 153.221695 
L 220.809438 156.737158 
L 222.579366 159.50191 
L 223.46433 160.60243 
L 224.349294 161.515242 
L 225.234258 162.240663 
L 226.119222 162.779123 
L 227.004186 163.131148 
L 227.88915 163.297365 
L 228.774114 163.278503 
L 229.659078 163.075404 
L 230.544042 162.689048 
L 231.429006 162.120566 
L 232.31397 161.371277 
L 233.198934 160.442715 
L 234.968862 158.055194 
L 236.73879 154.975986 
L 238.508718 151.229005 
L 240.278646 146.845453 
L 242.048574 141.865122 
L 243.818502 136.337568 
L 246.473395 127.154946 
L 249.128287 117.129445 
L 254.438071 95.815573 
L 257.977927 81.850731 
L 260.632819 72.153802 
L 262.402747 66.260271 
L 264.172675 60.933315 
L 265.942603 56.2514 
L 267.712531 52.276437 
L 269.482459 49.052187 
L 271.252387 46.603636 
L 272.137351 45.67299 
L 273.022315 44.93735 
L 273.907279 44.394871 
L 274.792243 44.042761 
L 275.677207 43.877362 
L 276.562171 43.960861 
L 277.447135 44.552437 
L 278.332099 45.641881 
L 279.217063 47.18458 
L 280.102027 49.134609 
L 280.986991 51.445881 
L 282.756919 56.972817 
L 284.526847 63.427545 
L 287.181739 74.227145 
L 291.606559 93.628429 
L 297.801307 121.218897 
L 300.456199 131.88496 
L 302.226127 138.260505 
L 303.996055 143.96578 
L 305.765983 148.960555 
L 307.535911 153.221695 
L 309.305839 156.737158 
L 311.075767 159.50191 
L 311.960731 160.60243 
L 312.845696 161.515242 
L 313.73066 162.240663 
L 314.615624 162.779123 
L 315.500588 163.131148 
L 316.385552 163.297365 
L 317.270516 163.278503 
L 318.15548 163.075404 
L 319.040444 162.689048 
L 319.925408 162.120566 
L 320.810372 161.371277 
L 321.695336 160.442715 
L 323.465264 158.055194 
L 325.235192 154.975986 
L 327.00512 151.229005 
L 328.775048 146.845453 
L 330.544976 141.865122 
L 332.314904 136.337568 
L 334.969796 127.154946 
L 337.624688 117.129445 
L 342.934472 95.815573 
L 346.474328 81.850731 
L 349.12922 72.153802 
L 350.899148 66.260271 
L 352.669076 60.933315 
L 354.439004 56.2514 
L 356.208932 52.276437 
L 357.97886 49.052187 
L 359.748788 46.603636 
L 360.633752 45.67299 
L 361.518716 44.93735 
L 362.40368 44.394871 
L 363.288644 44.042761 
L 364.173608 43.877362 
L 365.058572 43.960861 
L 365.943536 44.552437 
L 366.8285 45.641881 
L 367.713464 47.18458 
L 368.598428 49.134609 
L 369.483392 51.445881 
L 371.25332 56.972817 
L 373.023248 63.427545 
L 375.67814 74.227145 
L 380.102961 93.628429 
L 386.297709 121.218897 
L 388.952601 131.88496 
L 390.722529 138.260505 
L 392.492457 143.96578 
L 394.262385 148.960555 
L 396.032313 153.221695 
L 397.802241 156.737158 
L 399.572169 159.50191 
L 400.457133 160.60243 
L 401.342097 161.515242 
L 402.227061 162.240663 
L 403.112025 162.779123 
L 403.996989 163.131148 
L 404.881953 163.297365 
L 405.766917 163.278503 
L 406.651881 163.075404 
L 407.536845 162.689048 
L 408.421809 162.120566 
L 409.306773 161.371277 
L 410.191737 160.442715 
L 411.961665 158.055194 
L 413.731593 154.975986 
L 415.501521 151.229005 
L 417.271449 146.845453 
L 419.041377 141.865122 
L 420.811305 136.337568 
L 423.466197 127.154946 
L 426.121089 117.129445 
L 431.430873 95.815573 
L 434.970729 81.850731 
L 437.625621 72.153802 
L 439.395549 66.260271 
L 441.165477 60.933315 
L 442.935405 56.2514 
L 444.705333 52.276437 
L 446.475262 49.052187 
L 448.24519 46.603636 
L 449.130154 45.67299 
L 450.015118 44.93735 
L 450.900082 44.394871 
L 451.785046 44.042761 
L 452.67001 43.877362 
L 453.554974 43.960861 
L 454.439938 44.552437 
L 455.324902 45.641881 
L 456.209866 47.18458 
L 457.09483 49.134609 
L 457.979794 51.445881 
L 459.749722 56.972817 
L 461.51965 63.427545 
L 464.174542 74.227145 
L 468.599362 93.628429 
L 474.79411 121.218897 
L 477.449002 131.88496 
L 479.21893 138.260505 
L 480.988858 143.96578 
L 482.758786 148.960555 
L 484.528714 153.221695 
L 486.298642 156.737158 
L 488.06857 159.50191 
L 488.953534 160.60243 
L 489.838498 161.515242 
L 490.723462 162.240663 
L 491.608426 162.779123 
L 492.49339 163.131148 
L 493.378354 163.297365 
L 494.263318 163.278503 
L 495.148282 163.075404 
L 496.033246 162.689048 
L 496.91821 162.120566 
L 497.803174 161.371277 
L 498.688138 160.442715 
L 500.458066 158.055194 
L 502.227994 154.975986 
L 503.997922 151.229005 
L 505.76785 146.845453 
L 507.537778 141.865122 
L 509.307706 136.337568 
L 511.962598 127.154946 
L 514.617491 117.129445 
L 519.927275 95.815573 
L 523.467131 81.850731 
L 526.122023 72.153802 
L 527.891951 66.260271 
L 529.661879 60.933315 
L 531.431807 56.2514 
L 533.201735 52.276437 
L 534.971663 49.052187 
L 536.741591 46.603636 
L 537.626555 45.67299 
L 538.511519 44.93735 
L 539.396483 44.394871 
L 540.281447 44.042761 
L 541.166411 43.877362 
L 542.051375 43.960861 
L 542.936339 44.552437 
L 543.821303 45.641881 
L 544.706267 47.18458 
L 545.591231 49.134609 
L 546.476195 51.445881 
L 548.246123 56.972817 
L 550.016051 63.427545 
L 552.670943 74.227145 
L 557.095763 93.628429 
L 563.290511 121.218897 
L 565.945403 131.88496 
L 567.715331 138.260505 
L 569.485259 143.96578 
L 571.255187 148.960555 
L 573.025115 153.221695 
L 574.795043 156.737158 
L 576.564971 159.50191 
L 577.449935 160.60243 
L 578.334899 161.515242 
L 579.219863 162.240663 
L 580.104828 162.779123 
L 580.989792 163.131148 
L 581.874756 163.297365 
L 582.75972 163.278503 
L 583.644684 163.075404 
L 584.529648 162.689048 
L 585.414612 162.120566 
L 586.299576 161.371277 
L 587.18454 160.442715 
L 588.954468 158.055194 
L 590.724396 154.975986 
L 592.494324 151.229005 
L 594.264252 146.845453 
L 596.03418 141.865122 
L 597.804108 136.337568 
L 600.459 127.154946 
L 603.113892 117.129445 
L 608.423676 95.815573 
L 611.963532 81.850731 
L 614.618424 72.153802 
L 616.388352 66.260271 
L 618.15828 60.933315 
L 619.928208 56.2514 
L 621.698136 52.276437 
L 623.468064 49.052187 
L 625.237992 46.603636 
L 626.122956 45.67299 
L 627.00792 44.93735 
L 627.892884 44.394871 
L 628.777848 44.042761 
L 629.662812 43.877362 
L 630.547776 43.960861 
L 631.43274 44.552437 
L 632.317704 45.641881 
L 633.202668 47.18458 
L 634.087632 49.134609 
L 634.972596 51.445881 
L 636.742524 56.972817 
L 638.512452 63.427545 
L 641.167344 74.227145 
L 645.592164 93.628429 
L 651.786913 121.218897 
L 654.441805 131.88496 
L 656.211733 138.260505 
L 657.981661 143.96578 
L 659.751589 148.960555 
L 661.521517 153.221695 
L 663.291445 156.737158 
L 665.061373 159.50191 
L 665.946337 160.60243 
L 666.831301 161.515242 
L 667.716265 162.240663 
L 668.601229 162.779123 
L 669.486193 163.131148 
L 670.371157 163.297365 
L 671.256121 163.278503 
L 672.141085 163.075404 
L 673.026049 162.689048 
L 673.911013 162.120566 
L 674.795977 161.371277 
L 675.680941 160.442715 
L 677.450869 158.055194 
L 679.220797 154.975986 
L 680.990725 151.229005 
L 682.760653 146.845453 
L 684.530581 141.865122 
L 686.300509 136.337568 
L 688.955401 127.154946 
L 691.610293 117.129445 
L 696.920077 95.815573 
L 700.459933 81.850731 
L 703.114825 72.153802 
L 704.884753 66.260271 
L 706.654681 60.933315 
L 708.424609 56.2514 
L 710.194537 52.276437 
L 711.964465 49.052187 
L 713.734394 46.603636 
L 714.619358 45.67299 
L 715.504322 44.93735 
L 716.389286 44.394871 
L 717.27425 44.042761 
L 718.159214 43.877362 
L 719.044178 43.960861 
L 719.929142 44.552437 
L 720.814106 45.641881 
L 721.69907 47.18458 
L 722.584034 49.134609 
L 723.468998 51.445881 
L 725.238926 56.972817 
L 727.008854 63.427545 
L 729.663746 74.227145 
L 734.088566 93.628429 
L 740.283314 121.218897 
L 742.938206 131.88496 
L 744.708134 138.260505 
L 746.478062 143.96578 
L 748.24799 148.960555 
L 750.017918 153.221695 
L 751.787846 156.737158 
L 753.557774 159.50191 
L 754.442738 160.60243 
L 755.327702 161.515242 
L 756.212666 162.240663 
L 757.09763 162.779123 
L 757.982594 163.131148 
L 758.867558 163.297365 
L 759.752522 163.278503 
L 760.637486 163.075404 
L 761.52245 162.689048 
L 762.407414 162.120566 
L 763.292378 161.371277 
L 764.177342 160.442715 
L 765.94727 158.055194 
L 767.717198 154.975986 
L 769.487126 151.229005 
L 771.257054 146.845453 
L 773.026982 141.865122 
L 774.79691 136.337568 
L 777.451802 127.154946 
L 780.106695 117.129445 
L 785.416479 95.815573 
L 788.956335 81.850731 
L 791.611227 72.153802 
L 793.381155 66.260271 
L 795.151083 60.933315 
L 796.921011 56.2514 
L 798.690939 52.276437 
L 800.460867 49.052187 
L 802.230795 46.603636 
L 803.115759 45.67299 
L 804.000723 44.93735 
L 804.885687 44.394871 
L 805.770651 44.042761 
L 806.655615 43.877362 
L 807.540579 43.960861 
L 808.425543 44.552437 
L 809.310507 45.641881 
L 810.195471 47.18458 
L 811.080435 49.134609 
L 811.965399 51.445881 
L 813.735327 56.972817 
L 815.505255 63.427545 
L 818.160147 74.227145 
L 822.584967 93.628429 
L 828.779715 121.218897 
L 831.434607 131.88496 
L 833.204535 138.260505 
L 834.974463 143.96578 
L 836.744391 148.960555 
L 838.514319 153.221695 
L 840.284247 156.737158 
L 842.054175 159.50191 
L 842.939139 160.60243 
L 843.824103 161.515242 
L 844.709067 162.240663 
L 845.594031 162.779123 
L 846.478995 163.131148 
L 847.36396 163.297365 
L 848.248924 163.278503 
L 849.133888 163.075404 
L 850.018852 162.689048 
L 850.903816 162.120566 
L 851.78878 161.371277 
L 852.673744 160.442715 
L 854.443672 158.055194 
L 856.2136 154.975986 
L 857.983528 151.229005 
L 859.753456 146.845453 
L 861.523384 141.865122 
L 863.293312 136.337568 
L 865.948204 127.154946 
L 868.603096 117.129445 
L 873.91288 95.815573 
L 877.452736 81.850731 
L 880.107628 72.153802 
L 881.877556 66.260271 
L 883.647484 60.933315 
L 885.417412 56.2514 
L 887.18734 52.276437 
L 888.957268 49.052187 
L 890.727196 46.603636 
L 891.61216 45.67299 
L 892.497124 44.93735 
L 893.382088 44.394871 
L 894.267052 44.042761 
L 895.152016 43.877362 
L 896.03698 43.960861 
L 896.921944 44.552437 
L 897.806908 45.641881 
L 898.691872 47.18458 
L 899.576836 49.134609 
L 900.4618 51.445881 
L 902.231728 56.972817 
L 904.001656 63.427545 
L 906.656548 74.227145 
L 911.081368 93.628429 
L 917.276117 121.218897 
L 919.931009 131.88496 
L 921.700937 138.260505 
L 923.470865 143.96578 
L 925.240793 148.960555 
L 927.010721 153.221695 
L 928.780649 156.737158 
L 930.550577 159.50191 
L 931.435541 160.60243 
L 932.320505 161.515242 
L 933.205469 162.240663 
L 934.090433 162.779123 
L 934.975397 163.131148 
L 935.860361 163.297365 
L 936.745325 163.278503 
L 937.630289 163.075404 
L 938.515253 162.689048 
L 939.400217 162.120566 
L 940.285181 161.371277 
L 941.170145 160.442715 
L 942.940073 158.055194 
L 944.710001 154.975986 
L 946.479929 151.229005 
L 948.249857 146.845453 
L 950.019785 141.865122 
L 951.789713 136.337568 
L 954.444605 127.154946 
L 957.099497 117.129445 
L 962.409281 95.815573 
L 965.949137 81.850731 
L 968.604029 72.153802 
L 970.373957 66.260271 
L 972.143885 60.933315 
L 973.913813 56.2514 
L 975.683741 52.276441 
L 975.683741 52.276441 
" clip-path="url(#p8ab88aca74)" style="fill: none; stroke: #009afa; stroke-width: 4"/>
   </g>
   <g id="matplotlib.axis_1">
    <g id="xtick_1">
     <g id="line2d_2">
      <defs>
       <path id="m38792e44c1" d="M 0 0 
L 0 -5 
" style="stroke: #000000"/>
      </defs>
      <g>
       <use xlink:href="#m38792e44c1" x="90.719728" y="167.905354" style="stroke: #000000"/>
      </g>
     </g>
     <g id="text_1">
      <!-- $0.0$ -->
      <g transform="translate(72.799728 192.680979) scale(0.28 -0.28)">
       <defs>
        <path id="Cmr10-30" d="M 1600 -141 
Q 816 -141 533 504 
Q 250 1150 250 2041 
Q 250 2597 351 3087 
Q 453 3578 754 3920 
Q 1056 4263 1600 4263 
Q 2022 4263 2290 4056 
Q 2559 3850 2700 3523 
Q 2841 3197 2892 2823 
Q 2944 2450 2944 2041 
Q 2944 1491 2842 1011 
Q 2741 531 2444 195 
Q 2147 -141 1600 -141 
z
M 1600 25 
Q 1956 25 2131 390 
Q 2306 756 2347 1200 
Q 2388 1644 2388 2144 
Q 2388 2625 2347 3031 
Q 2306 3438 2132 3767 
Q 1959 4097 1600 4097 
Q 1238 4097 1063 3765 
Q 888 3434 847 3029 
Q 806 2625 806 2144 
Q 806 1788 823 1472 
Q 841 1156 916 820 
Q 991 484 1158 254 
Q 1325 25 1600 25 
z
" transform="scale(0.015625)"/>
        <path id="Cmmi10-3a" d="M 538 353 
Q 538 497 644 600 
Q 750 703 891 703 
Q 978 703 1062 656 
Q 1147 609 1194 525 
Q 1241 441 1241 353 
Q 1241 213 1137 106 
Q 1034 0 891 0 
Q 750 0 644 106 
Q 538 213 538 353 
z
" transform="scale(0.015625)"/>
       </defs>
       <use xlink:href="#Cmr10-30" transform="translate(0 0.390625)"/>
       <use xlink:href="#Cmmi10-3a" transform="translate(50 0.390625)"/>
       <use xlink:href="#Cmr10-30" transform="translate(77.685547 0.390625)"/>
      </g>
     </g>
    </g>
    <g id="xtick_2">
     <g id="line2d_3">
      <g>
       <use xlink:href="#m38792e44c1" x="311.960731" y="167.905354" style="stroke: #000000"/>
      </g>
     </g>
     <g id="text_2">
      <!-- $2.5$ -->
      <g transform="translate(294.040731 192.680979) scale(0.28 -0.28)">
       <defs>
        <path id="Cmr10-32" d="M 319 0 
L 319 172 
Q 319 188 331 206 
L 1325 1306 
Q 1550 1550 1690 1715 
Q 1831 1881 1968 2097 
Q 2106 2313 2186 2536 
Q 2266 2759 2266 3009 
Q 2266 3272 2169 3511 
Q 2072 3750 1880 3894 
Q 1688 4038 1416 4038 
Q 1138 4038 916 3870 
Q 694 3703 603 3438 
Q 628 3444 672 3444 
Q 816 3444 917 3347 
Q 1019 3250 1019 3097 
Q 1019 2950 917 2848 
Q 816 2747 672 2747 
Q 522 2747 420 2851 
Q 319 2956 319 3097 
Q 319 3338 409 3548 
Q 500 3759 670 3923 
Q 841 4088 1055 4175 
Q 1269 4263 1509 4263 
Q 1875 4263 2190 4108 
Q 2506 3953 2690 3670 
Q 2875 3388 2875 3009 
Q 2875 2731 2753 2481 
Q 2631 2231 2440 2026 
Q 2250 1822 1953 1562 
Q 1656 1303 1563 1216 
L 838 519 
L 1453 519 
Q 1906 519 2211 526 
Q 2516 534 2534 550 
Q 2609 631 2688 1141 
L 2875 1141 
L 2694 0 
L 319 0 
z
" transform="scale(0.015625)"/>
        <path id="Cmr10-35" d="M 556 728 
Q 622 541 758 387 
Q 894 234 1080 148 
Q 1266 63 1466 63 
Q 1928 63 2103 422 
Q 2278 781 2278 1294 
Q 2278 1516 2270 1667 
Q 2263 1819 2228 1959 
Q 2169 2184 2020 2353 
Q 1872 2522 1656 2522 
Q 1441 2522 1286 2456 
Q 1131 2391 1034 2303 
Q 938 2216 863 2119 
Q 788 2022 769 2016 
L 697 2016 
Q 681 2016 657 2036 
Q 634 2056 634 2075 
L 634 4213 
Q 634 4228 654 4245 
Q 675 4263 697 4263 
L 716 4263 
Q 1147 4056 1631 4056 
Q 2106 4056 2547 4263 
L 2566 4263 
Q 2588 4263 2606 4247 
Q 2625 4231 2625 4213 
L 2625 4153 
Q 2625 4122 2613 4122 
Q 2394 3831 2064 3668 
Q 1734 3506 1381 3506 
Q 1125 3506 856 3578 
L 856 2369 
Q 1069 2541 1236 2614 
Q 1403 2688 1663 2688 
Q 2016 2688 2295 2484 
Q 2575 2281 2725 1954 
Q 2875 1628 2875 1288 
Q 2875 903 2686 575 
Q 2497 247 2172 53 
Q 1847 -141 1466 -141 
Q 1150 -141 886 21 
Q 622 184 470 459 
Q 319 734 319 1044 
Q 319 1188 412 1278 
Q 506 1369 647 1369 
Q 788 1369 883 1276 
Q 978 1184 978 1044 
Q 978 906 883 811 
Q 788 716 647 716 
Q 625 716 597 720 
Q 569 725 556 728 
z
" transform="scale(0.015625)"/>
       </defs>
       <use xlink:href="#Cmr10-32" transform="translate(0 0.390625)"/>
       <use xlink:href="#Cmmi10-3a" transform="translate(50 0.390625)"/>
       <use xlink:href="#Cmr10-35" transform="translate(77.685547 0.390625)"/>
      </g>
     </g>
    </g>
    <g id="xtick_3">
     <g id="line2d_4">
      <g>
       <use xlink:href="#m38792e44c1" x="533.201735" y="167.905354" style="stroke: #000000"/>
      </g>
     </g>
     <g id="text_3">
      <!-- $5.0$ -->
      <g transform="translate(515.281735 192.680979) scale(0.28 -0.28)">
       <use xlink:href="#Cmr10-35" transform="translate(0 0.390625)"/>
       <use xlink:href="#Cmmi10-3a" transform="translate(50 0.390625)"/>
       <use xlink:href="#Cmr10-30" transform="translate(77.685547 0.390625)"/>
      </g>
     </g>
    </g>
    <g id="xtick_4">
     <g id="line2d_5">
      <g>
       <use xlink:href="#m38792e44c1" x="754.442738" y="167.905354" style="stroke: #000000"/>
      </g>
     </g>
     <g id="text_4">
      <!-- $7.5$ -->
      <g transform="translate(736.522738 192.680979) scale(0.28 -0.28)">
       <defs>
        <path id="Cmr10-37" d="M 1113 166 
Q 1113 522 1175 862 
Q 1238 1203 1358 1536 
Q 1478 1869 1648 2189 
Q 1819 2509 2022 2791 
L 2606 3603 
L 1875 3603 
Q 738 3603 703 3572 
Q 619 3469 544 2981 
L 359 2981 
L 569 4325 
L 756 4325 
L 756 4306 
Q 756 4191 1147 4156 
Q 1538 4122 1913 4122 
L 3103 4122 
L 3103 3956 
Q 3103 3950 3101 3947 
Q 3100 3944 3097 3938 
L 2216 2700 
Q 1891 2219 1809 1631 
Q 1728 1044 1728 166 
Q 1728 41 1637 -50 
Q 1547 -141 1422 -141 
Q 1294 -141 1203 -50 
Q 1113 41 1113 166 
z
" transform="scale(0.015625)"/>
       </defs>
       <use xlink:href="#Cmr10-37" transform="translate(0 0.421875)"/>
       <use xlink:href="#Cmmi10-3a" transform="translate(50 0.421875)"/>
       <use xlink:href="#Cmr10-35" transform="translate(77.685547 0.421875)"/>
      </g>
     </g>
    </g>
    <g id="xtick_5">
     <g id="line2d_6">
      <g>
       <use xlink:href="#m38792e44c1" x="975.683741" y="167.905354" style="stroke: #000000"/>
      </g>
     </g>
     <g id="text_5">
      <!-- $10.0$ -->
      <g transform="translate(950.763741 192.680979) scale(0.28 -0.28)">
       <defs>
        <path id="Cmr10-31" d="M 594 0 
L 594 225 
Q 1394 225 1394 428 
L 1394 3788 
Q 1063 3628 556 3628 
L 556 3853 
Q 1341 3853 1741 4263 
L 1831 4263 
Q 1853 4263 1873 4245 
Q 1894 4228 1894 4206 
L 1894 428 
Q 1894 225 2694 225 
L 2694 0 
L 594 0 
z
" transform="scale(0.015625)"/>
       </defs>
       <use xlink:href="#Cmr10-31" transform="translate(0 0.390625)"/>
       <use xlink:href="#Cmr10-30" transform="translate(50 0.390625)"/>
       <use xlink:href="#Cmmi10-3a" transform="translate(100 0.390625)"/>
       <use xlink:href="#Cmr10-30" transform="translate(127.685547 0.390625)"/>
      </g>
     </g>
    </g>
   </g>
   <g id="matplotlib.axis_2">
    <g id="ytick_1">
     <g id="line2d_7">
      <defs>
       <path id="mf71b0be4a9" d="M 0 0 
L 5 0 
" style="stroke: #000000"/>
      </defs>
      <g>
       <use xlink:href="#mf71b0be4a9" x="64.170808" y="163.311986" style="stroke: #000000"/>
      </g>
     </g>
     <g id="text_6">
      <!-- $-1.0$ -->
      <g transform="translate(2.990808 173.949798) scale(0.28 -0.28)">
       <defs>
        <path id="Cmsy10-a1" d="M 653 1472 
Q 600 1472 565 1512 
Q 531 1553 531 1600 
Q 531 1647 565 1687 
Q 600 1728 653 1728 
L 4325 1728 
Q 4375 1728 4408 1687 
Q 4441 1647 4441 1600 
Q 4441 1553 4408 1512 
Q 4375 1472 4325 1472 
L 653 1472 
z
" transform="scale(0.015625)"/>
       </defs>
       <use xlink:href="#Cmsy10-a1" transform="translate(0 0.390625)"/>
       <use xlink:href="#Cmr10-31" transform="translate(77.685547 0.390625)"/>
       <use xlink:href="#Cmmi10-3a" transform="translate(127.685547 0.390625)"/>
       <use xlink:href="#Cmr10-30" transform="translate(155.371094 0.390625)"/>
      </g>
     </g>
    </g>
    <g id="ytick_2">
     <g id="line2d_8">
      <g>
       <use xlink:href="#mf71b0be4a9" x="64.170808" y="133.449616" style="stroke: #000000"/>
      </g>
     </g>
     <g id="text_7">
      <!-- $-0.5$ -->
      <g transform="translate(2.990808 144.087429) scale(0.28 -0.28)">
       <use xlink:href="#Cmsy10-a1" transform="translate(0 0.390625)"/>
       <use xlink:href="#Cmr10-30" transform="translate(77.685547 0.390625)"/>
       <use xlink:href="#Cmmi10-3a" transform="translate(127.685547 0.390625)"/>
       <use xlink:href="#Cmr10-35" transform="translate(155.371094 0.390625)"/>
      </g>
     </g>
    </g>
    <g id="ytick_3">
     <g id="line2d_9">
      <g>
       <use xlink:href="#mf71b0be4a9" x="64.170808" y="103.587247" style="stroke: #000000"/>
      </g>
     </g>
     <g id="text_8">
      <!-- $0.0$ -->
      <g transform="translate(24.830808 114.22506) scale(0.28 -0.28)">
       <use xlink:href="#Cmr10-30" transform="translate(0 0.390625)"/>
       <use xlink:href="#Cmmi10-3a" transform="translate(50 0.390625)"/>
       <use xlink:href="#Cmr10-30" transform="translate(77.685547 0.390625)"/>
      </g>
     </g>
    </g>
    <g id="ytick_4">
     <g id="line2d_10">
      <g>
       <use xlink:href="#mf71b0be4a9" x="64.170808" y="73.724878" style="stroke: #000000"/>
      </g>
     </g>
     <g id="text_9">
      <!-- $0.5$ -->
      <g transform="translate(24.830808 84.36269) scale(0.28 -0.28)">
       <use xlink:href="#Cmr10-30" transform="translate(0 0.390625)"/>
       <use xlink:href="#Cmmi10-3a" transform="translate(50 0.390625)"/>
       <use xlink:href="#Cmr10-35" transform="translate(77.685547 0.390625)"/>
      </g>
     </g>
    </g>
    <g id="ytick_5">
     <g id="line2d_11">
      <g>
       <use xlink:href="#mf71b0be4a9" x="64.170808" y="43.862509" style="stroke: #000000"/>
      </g>
     </g>
     <g id="text_10">
      <!-- $1.0$ -->
      <g transform="translate(24.830808 54.500321) scale(0.28 -0.28)">
       <use xlink:href="#Cmr10-31" transform="translate(0 0.390625)"/>
       <use xlink:href="#Cmmi10-3a" transform="translate(50 0.390625)"/>
       <use xlink:href="#Cmr10-30" transform="translate(77.685547 0.390625)"/>
      </g>
     </g>
    </g>
    <g id="ytick_6">
     <g id="line2d_12">
      <g>
       <use xlink:href="#mf71b0be4a9" x="64.170808" y="14.000139" style="stroke: #000000"/>
      </g>
     </g>
     <g id="text_11">
      <!-- $1.5$ -->
      <g transform="translate(24.830808 24.637952) scale(0.28 -0.28)">
       <use xlink:href="#Cmr10-31" transform="translate(0 0.390625)"/>
       <use xlink:href="#Cmmi10-3a" transform="translate(50 0.390625)"/>
       <use xlink:href="#Cmr10-35" transform="translate(77.685547 0.390625)"/>
      </g>
     </g>
    </g>
   </g>
   <g id="line2d_13">
    <path d="M 90.719728 63.902943 
L 93.37462 65.233655 
L 96.029512 66.826976 
L 98.684404 68.630836 
L 99.569368 10.199698 
L 103.109224 17.458052 
L 110.188936 32.183681 
L 113.728793 38.968075 
L 116.383685 43.606924 
L 119.038577 47.796695 
L 121.693469 51.507414 
L 124.348361 54.72957 
L 127.003253 57.469192 
L 128.773181 59.035602 
L 130.543109 60.401919 
L 132.313037 61.576108 
L 134.082965 62.566843 
L 135.852893 63.383296 
L 138.507785 64.302121 
L 141.162677 64.883749 
L 143.817569 65.163317 
L 146.472461 65.178339 
L 149.127353 64.969704 
L 152.667209 64.422744 
L 157.976993 63.281624 
L 163.286777 62.190105 
L 165.941669 61.826435 
L 168.596561 61.667524 
L 171.251453 61.765865 
L 173.906345 62.160313 
L 176.561237 62.872202 
L 179.21613 63.902943 
L 181.871022 65.233655 
L 184.525914 66.826976 
L 187.180806 68.630836 
L 188.06577 10.199698 
L 191.605626 17.458052 
L 198.685338 32.183681 
L 202.225194 38.968075 
L 204.880086 43.606924 
L 207.534978 47.796695 
L 210.18987 51.507414 
L 212.844762 54.72957 
L 215.499654 57.469192 
L 217.269582 59.035602 
L 219.03951 60.401919 
L 220.809438 61.576108 
L 222.579366 62.566843 
L 224.349294 63.383296 
L 227.004186 64.302121 
L 229.659078 64.883749 
L 232.31397 65.163317 
L 234.968862 65.178339 
L 237.623754 64.969704 
L 241.16361 64.422744 
L 246.473395 63.281624 
L 251.783179 62.190105 
L 254.438071 61.826435 
L 257.092963 61.667524 
L 259.747855 61.765865 
L 262.402747 62.160313 
L 265.057639 62.872202 
L 267.712531 63.902943 
L 270.367423 65.233655 
L 273.022315 66.826976 
L 275.677207 68.630836 
L 276.562171 10.199698 
L 280.102027 17.458052 
L 287.181739 32.183681 
L 290.721595 38.968075 
L 293.376487 43.606924 
L 296.031379 47.796695 
L 298.686271 51.507414 
L 301.341163 54.72957 
L 303.996055 57.469192 
L 305.765983 59.035602 
L 307.535911 60.401919 
L 309.305839 61.576108 
L 311.075767 62.566843 
L 312.845696 63.383296 
L 315.500588 64.302121 
L 318.15548 64.883749 
L 320.810372 65.163317 
L 323.465264 65.178339 
L 326.120156 64.969704 
L 329.660012 64.422744 
L 334.969796 63.281624 
L 340.27958 62.190105 
L 342.934472 61.826435 
L 345.589364 61.667524 
L 348.244256 61.765865 
L 350.899148 62.160313 
L 353.55404 62.872202 
L 356.208932 63.902943 
L 358.863824 65.233655 
L 361.518716 66.826976 
L 364.173608 68.630836 
L 365.058572 10.199698 
L 368.598428 17.458052 
L 375.67814 32.183681 
L 379.217996 38.968075 
L 381.872889 43.606924 
L 384.527781 47.796695 
L 387.182673 51.507414 
L 389.837565 54.72957 
L 392.492457 57.469192 
L 394.262385 59.035602 
L 396.032313 60.401919 
L 397.802241 61.576108 
L 399.572169 62.566843 
L 401.342097 63.383296 
L 403.996989 64.302121 
L 406.651881 64.883749 
L 409.306773 65.163317 
L 411.961665 65.178339 
L 414.616557 64.969704 
L 418.156413 64.422744 
L 423.466197 63.281624 
L 428.775981 62.190105 
L 431.430873 61.826435 
L 434.085765 61.667524 
L 436.740657 61.765865 
L 439.395549 62.160313 
L 442.050441 62.872202 
L 444.705333 63.902943 
L 447.360226 65.233655 
L 450.015118 66.826976 
L 452.67001 68.630836 
L 453.554974 10.199698 
L 457.09483 17.458052 
L 464.174542 32.183681 
L 467.714398 38.968075 
L 470.36929 43.606924 
L 473.024182 47.796695 
L 475.679074 51.507414 
L 478.333966 54.72957 
L 480.988858 57.469192 
L 482.758786 59.035602 
L 484.528714 60.401919 
L 486.298642 61.576108 
L 488.06857 62.566843 
L 489.838498 63.383296 
L 492.49339 64.302121 
L 495.148282 64.883749 
L 497.803174 65.163317 
L 500.458066 65.178339 
L 503.112958 64.969704 
L 506.652814 64.422744 
L 511.962598 63.281624 
L 517.272383 62.190105 
L 519.927275 61.826435 
L 522.582167 61.667524 
L 525.237059 61.765865 
L 527.891951 62.160313 
L 530.546843 62.872202 
L 533.201735 63.902943 
L 535.856627 65.233655 
L 538.511519 66.826976 
L 541.166411 68.630836 
L 542.051375 10.199698 
L 545.591231 17.458052 
L 552.670943 32.183681 
L 556.210799 38.968075 
L 558.865691 43.606924 
L 561.520583 47.796695 
L 564.175475 51.507414 
L 566.830367 54.72957 
L 569.485259 57.469192 
L 571.255187 59.035602 
L 573.025115 60.401919 
L 574.795043 61.576108 
L 576.564971 62.566843 
L 578.334899 63.383296 
L 580.989792 64.302121 
L 583.644684 64.883749 
L 586.299576 65.163317 
L 588.954468 65.178339 
L 591.60936 64.969704 
L 595.149216 64.422744 
L 600.459 63.281624 
L 605.768784 62.190105 
L 608.423676 61.826435 
L 611.078568 61.667524 
L 613.73346 61.765865 
L 616.388352 62.160313 
L 619.043244 62.872202 
L 621.698136 63.902943 
L 624.353028 65.233655 
L 627.00792 66.826976 
L 629.662812 68.630836 
L 630.547776 10.199698 
L 634.087632 17.458052 
L 641.167344 32.183681 
L 644.7072 38.968075 
L 647.362093 43.606924 
L 650.016985 47.796695 
L 652.671877 51.507414 
L 655.326769 54.72957 
L 657.981661 57.469192 
L 659.751589 59.035602 
L 661.521517 60.401919 
L 663.291445 61.576108 
L 665.061373 62.566843 
L 666.831301 63.383296 
L 669.486193 64.302121 
L 672.141085 64.883749 
L 674.795977 65.163317 
L 677.450869 65.178339 
L 680.105761 64.969704 
L 683.645617 64.422744 
L 688.955401 63.281624 
L 694.265185 62.190105 
L 696.920077 61.826435 
L 699.574969 61.667524 
L 702.229861 61.765865 
L 704.884753 62.160313 
L 707.539645 62.872202 
L 710.194537 63.902943 
L 712.849429 65.233655 
L 715.504322 66.826976 
L 718.159214 68.630836 
L 719.044178 10.199698 
L 722.584034 17.458052 
L 729.663746 32.183681 
L 733.203602 38.968075 
L 735.858494 43.606924 
L 738.513386 47.796695 
L 741.168278 51.507414 
L 743.82317 54.72957 
L 746.478062 57.469192 
L 748.24799 59.035602 
L 750.017918 60.401919 
L 751.787846 61.576108 
L 753.557774 62.566843 
L 755.327702 63.383296 
L 757.982594 64.302121 
L 760.637486 64.883749 
L 763.292378 65.163317 
L 765.94727 65.178339 
L 768.602162 64.969704 
L 772.142018 64.422744 
L 777.451802 63.281624 
L 782.761587 62.190105 
L 785.416479 61.826435 
L 788.071371 61.667524 
L 790.726263 61.765865 
L 793.381155 62.160313 
L 796.036047 62.872202 
L 798.690939 63.902943 
L 801.345831 65.233655 
L 804.000723 66.826976 
L 806.655615 68.630836 
L 807.540579 10.199698 
L 811.080435 17.458052 
L 818.160147 32.183681 
L 821.700003 38.968075 
L 824.354895 43.606924 
L 827.009787 47.796695 
L 829.664679 51.507414 
L 832.319571 54.72957 
L 834.974463 57.469192 
L 836.744391 59.035602 
L 838.514319 60.401919 
L 840.284247 61.576108 
L 842.054175 62.566843 
L 843.824103 63.383296 
L 846.478995 64.302121 
L 849.133888 64.883749 
L 851.78878 65.163317 
L 854.443672 65.178339 
L 857.098564 64.969704 
L 860.63842 64.422744 
L 865.948204 63.281624 
L 871.257988 62.190105 
L 873.91288 61.826435 
L 876.567772 61.667524 
L 879.222664 61.765865 
L 881.877556 62.160313 
L 884.532448 62.872202 
L 887.18734 63.902943 
L 889.842232 65.233655 
L 892.497124 66.826976 
L 895.152016 68.630836 
L 896.03698 10.199698 
L 899.576836 17.458052 
L 906.656548 32.183681 
L 910.196404 38.968075 
L 912.851296 43.606924 
L 915.506189 47.796695 
L 918.161081 51.507414 
L 920.815973 54.72957 
L 923.470865 57.469192 
L 925.240793 59.035602 
L 927.010721 60.401919 
L 928.780649 61.576108 
L 930.550577 62.566843 
L 932.320505 63.383296 
L 934.975397 64.302121 
L 937.630289 64.883749 
L 940.285181 65.163317 
L 942.940073 65.178339 
L 945.594965 64.969704 
L 949.134821 64.422744 
L 954.444605 63.281624 
L 959.754389 62.190105 
L 962.409281 61.826435 
L 965.064173 61.667524 
L 967.719065 61.765865 
L 970.373957 62.160313 
L 973.028849 62.872202 
L 975.683741 63.902958 
L 975.683741 63.902958 
" clip-path="url(#p8ab88aca74)" style="fill: none; stroke: #3ea44d; stroke-width: 4"/>
   </g>
   <g id="patch_3">
    <path d="M 64.170808 167.905354 
L 64.170808 5.60633 
" style="fill: none; stroke: #000000; stroke-width: 2; stroke-linejoin: miter; stroke-linecap: square"/>
   </g>
   <g id="patch_4">
    <path d="M 64.170808 167.905354 
L 1002.232662 167.905354 
" style="fill: none; stroke: #000000; stroke-width: 2; stroke-linejoin: miter; stroke-linecap: square"/>
   </g>
   <g id="line2d_14">
    <path d="M 90.719728 43.862509 
L 91.604692 43.980362 
L 92.489656 44.333456 
L 93.37462 44.920398 
L 94.259584 45.738871 
L 95.144548 46.785645 
L 96.029512 48.05659 
L 97.79944 51.25006 
L 99.569368 55.268919 
L 101.339296 60.049786 
L 103.109224 65.517266 
L 104.879152 71.585132 
L 107.534044 81.601104 
L 111.0739 96.101752 
L 118.153613 125.57339 
L 120.808505 135.589362 
L 122.578433 141.657228 
L 124.348361 147.124708 
L 126.118289 151.905576 
L 127.888217 155.924434 
L 129.658145 159.117905 
L 130.543109 160.388849 
L 131.428073 161.435623 
L 132.313037 162.254096 
L 133.198001 162.841038 
L 134.082965 163.194133 
L 134.967929 163.311986 
L 135.852893 163.194133 
L 136.737857 162.841038 
L 137.622821 162.254096 
L 138.507785 161.435623 
L 139.392749 160.388849 
L 140.277713 159.117905 
L 142.047641 155.924435 
L 143.817569 151.905576 
L 145.587497 147.124708 
L 147.357425 141.657228 
L 149.127353 135.589362 
L 151.782245 125.57339 
L 155.322101 111.072742 
L 162.401813 81.601105 
L 165.056705 71.585132 
L 166.826633 65.517266 
L 168.596561 60.049786 
L 170.366489 55.268919 
L 172.136417 51.25006 
L 173.906345 48.05659 
L 174.791309 46.785645 
L 175.676273 45.738871 
L 176.561237 44.920398 
L 177.446201 44.333456 
L 178.331165 43.980362 
L 179.21613 43.862509 
L 180.101094 43.980362 
L 180.986058 44.333456 
L 181.871022 44.920398 
L 182.755986 45.738871 
L 183.64095 46.785645 
L 184.525914 48.05659 
L 186.295842 51.25006 
L 188.06577 55.268919 
L 189.835698 60.049786 
L 191.605626 65.517266 
L 193.375554 71.585132 
L 196.030446 81.601104 
L 199.570302 96.101752 
L 206.650014 125.57339 
L 209.304906 135.589362 
L 211.074834 141.657228 
L 212.844762 147.124708 
L 214.61469 151.905576 
L 216.384618 155.924434 
L 218.154546 159.117905 
L 219.03951 160.388849 
L 219.924474 161.435623 
L 220.809438 162.254096 
L 221.694402 162.841038 
L 222.579366 163.194133 
L 223.46433 163.311986 
L 224.349294 163.194133 
L 225.234258 162.841038 
L 226.119222 162.254096 
L 227.004186 161.435623 
L 227.88915 160.388849 
L 228.774114 159.117905 
L 230.544042 155.924435 
L 232.31397 151.905576 
L 234.083898 147.124708 
L 235.853826 141.657228 
L 237.623754 135.589362 
L 240.278646 125.57339 
L 243.818502 111.072742 
L 250.898215 81.601105 
L 253.553107 71.585132 
L 255.323035 65.517266 
L 257.092963 60.049786 
L 258.862891 55.268919 
L 260.632819 51.25006 
L 262.402747 48.05659 
L 263.287711 46.785645 
L 264.172675 45.738871 
L 265.057639 44.920398 
L 265.942603 44.333456 
L 266.827567 43.980362 
L 267.712531 43.862509 
L 268.597495 43.980362 
L 269.482459 44.333456 
L 270.367423 44.920398 
L 271.252387 45.738871 
L 272.137351 46.785645 
L 273.022315 48.05659 
L 274.792243 51.25006 
L 276.562171 55.268919 
L 278.332099 60.049786 
L 280.102027 65.517266 
L 281.871955 71.585132 
L 284.526847 81.601104 
L 288.066703 96.101752 
L 295.146415 125.57339 
L 297.801307 135.589362 
L 299.571235 141.657228 
L 301.341163 147.124708 
L 303.111091 151.905576 
L 304.881019 155.924434 
L 306.650947 159.117905 
L 307.535911 160.388849 
L 308.420875 161.435623 
L 309.305839 162.254096 
L 310.190803 162.841038 
L 311.075767 163.194133 
L 311.960731 163.311986 
L 312.845696 163.194133 
L 313.73066 162.841038 
L 314.615624 162.254096 
L 315.500588 161.435623 
L 316.385552 160.388849 
L 317.270516 159.117905 
L 319.040444 155.924435 
L 320.810372 151.905576 
L 322.5803 147.124708 
L 324.350228 141.657228 
L 326.120156 135.589362 
L 328.775048 125.57339 
L 332.314904 111.072742 
L 339.394616 81.601105 
L 342.049508 71.585132 
L 343.819436 65.517266 
L 345.589364 60.049786 
L 347.359292 55.268919 
L 349.12922 51.25006 
L 350.899148 48.05659 
L 351.784112 46.785645 
L 352.669076 45.738871 
L 353.55404 44.920398 
L 354.439004 44.333456 
L 355.323968 43.980362 
L 356.208932 43.862509 
L 357.093896 43.980362 
L 357.97886 44.333456 
L 358.863824 44.920398 
L 359.748788 45.738871 
L 360.633752 46.785645 
L 361.518716 48.05659 
L 363.288644 51.25006 
L 365.058572 55.268919 
L 366.8285 60.049786 
L 368.598428 65.517266 
L 370.368356 71.585132 
L 373.023248 81.601104 
L 376.563104 96.101752 
L 383.642817 125.57339 
L 386.297709 135.589362 
L 388.067637 141.657228 
L 389.837565 147.124708 
L 391.607493 151.905576 
L 393.377421 155.924434 
L 395.147349 159.117905 
L 396.032313 160.388849 
L 396.917277 161.435623 
L 397.802241 162.254096 
L 398.687205 162.841038 
L 399.572169 163.194133 
L 400.457133 163.311986 
L 401.342097 163.194133 
L 402.227061 162.841038 
L 403.112025 162.254096 
L 403.996989 161.435623 
L 404.881953 160.388849 
L 405.766917 159.117905 
L 407.536845 155.924435 
L 409.306773 151.905576 
L 411.076701 147.124708 
L 412.846629 141.657228 
L 414.616557 135.589362 
L 417.271449 125.57339 
L 420.811305 111.072742 
L 427.891017 81.601105 
L 430.545909 71.585132 
L 432.315837 65.517266 
L 434.085765 60.049786 
L 435.855693 55.268919 
L 437.625621 51.25006 
L 439.395549 48.05659 
L 440.280513 46.785645 
L 441.165477 45.738871 
L 442.050441 44.920398 
L 442.935405 44.333456 
L 443.820369 43.980362 
L 444.705333 43.862509 
L 445.590297 43.980362 
L 446.475262 44.333456 
L 447.360226 44.920398 
L 448.24519 45.738871 
L 449.130154 46.785645 
L 450.015118 48.05659 
L 451.785046 51.25006 
L 453.554974 55.268919 
L 455.324902 60.049786 
L 457.09483 65.517266 
L 458.864758 71.585132 
L 461.51965 81.601104 
L 465.059506 96.101752 
L 472.139218 125.57339 
L 474.79411 135.589362 
L 476.564038 141.657228 
L 478.333966 147.124708 
L 480.103894 151.905576 
L 481.873822 155.924434 
L 483.64375 159.117905 
L 484.528714 160.388849 
L 485.413678 161.435623 
L 486.298642 162.254096 
L 487.183606 162.841038 
L 488.06857 163.194133 
L 488.953534 163.311986 
L 489.838498 163.194133 
L 490.723462 162.841038 
L 491.608426 162.254096 
L 492.49339 161.435623 
L 493.378354 160.388849 
L 494.263318 159.117905 
L 496.033246 155.924435 
L 497.803174 151.905576 
L 499.573102 147.124708 
L 501.34303 141.657228 
L 503.112958 135.589362 
L 505.76785 125.57339 
L 509.307706 111.072742 
L 516.387419 81.601105 
L 519.042311 71.585132 
L 520.812239 65.517266 
L 522.582167 60.049786 
L 524.352095 55.268919 
L 526.122023 51.25006 
L 527.891951 48.05659 
L 528.776915 46.785645 
L 529.661879 45.738871 
L 530.546843 44.920398 
L 531.431807 44.333456 
L 532.316771 43.980362 
L 533.201735 43.862509 
L 534.086699 43.980362 
L 534.971663 44.333456 
L 535.856627 44.920398 
L 536.741591 45.738871 
L 537.626555 46.785645 
L 538.511519 48.05659 
L 540.281447 51.25006 
L 542.051375 55.268919 
L 543.821303 60.049786 
L 545.591231 65.517266 
L 547.361159 71.585132 
L 550.016051 81.601104 
L 553.555907 96.101752 
L 560.635619 125.57339 
L 563.290511 135.589362 
L 565.060439 141.657228 
L 566.830367 147.124708 
L 568.600295 151.905576 
L 570.370223 155.924434 
L 572.140151 159.117905 
L 573.025115 160.388849 
L 573.910079 161.435623 
L 574.795043 162.254096 
L 575.680007 162.841038 
L 576.564971 163.194133 
L 577.449935 163.311986 
L 578.334899 163.194133 
L 579.219863 162.841038 
L 580.104828 162.254096 
L 580.989792 161.435623 
L 581.874756 160.388849 
L 582.75972 159.117905 
L 584.529648 155.924435 
L 586.299576 151.905576 
L 588.069504 147.124708 
L 589.839432 141.657228 
L 591.60936 135.589362 
L 594.264252 125.57339 
L 597.804108 111.072742 
L 604.88382 81.601105 
L 607.538712 71.585132 
L 609.30864 65.517266 
L 611.078568 60.049786 
L 612.848496 55.268919 
L 614.618424 51.25006 
L 616.388352 48.05659 
L 617.273316 46.785645 
L 618.15828 45.738871 
L 619.043244 44.920398 
L 619.928208 44.333456 
L 620.813172 43.980362 
L 621.698136 43.862509 
L 622.5831 43.980362 
L 623.468064 44.333456 
L 624.353028 44.920398 
L 625.237992 45.738871 
L 626.122956 46.785645 
L 627.00792 48.05659 
L 628.777848 51.25006 
L 630.547776 55.268919 
L 632.317704 60.049786 
L 634.087632 65.517266 
L 635.85756 71.585132 
L 638.512452 81.601104 
L 642.052308 96.101752 
L 649.132021 125.57339 
L 651.786913 135.589362 
L 653.556841 141.657228 
L 655.326769 147.124708 
L 657.096697 151.905576 
L 658.866625 155.924434 
L 660.636553 159.117905 
L 661.521517 160.388849 
L 662.406481 161.435623 
L 663.291445 162.254096 
L 664.176409 162.841038 
L 665.061373 163.194133 
L 665.946337 163.311986 
L 666.831301 163.194133 
L 667.716265 162.841038 
L 668.601229 162.254096 
L 669.486193 161.435623 
L 670.371157 160.388849 
L 671.256121 159.117905 
L 673.026049 155.924435 
L 674.795977 151.905576 
L 676.565905 147.124708 
L 678.335833 141.657228 
L 680.105761 135.589362 
L 682.760653 125.57339 
L 686.300509 111.072742 
L 693.380221 81.601105 
L 696.035113 71.585132 
L 697.805041 65.517266 
L 699.574969 60.049786 
L 701.344897 55.268919 
L 703.114825 51.25006 
L 704.884753 48.05659 
L 705.769717 46.785645 
L 706.654681 45.738871 
L 707.539645 44.920398 
L 708.424609 44.333456 
L 709.309573 43.980362 
L 710.194537 43.862509 
L 711.079501 43.980362 
L 711.964465 44.333456 
L 712.849429 44.920398 
L 713.734394 45.738871 
L 714.619358 46.785645 
L 715.504322 48.05659 
L 717.27425 51.25006 
L 719.044178 55.268919 
L 720.814106 60.049786 
L 722.584034 65.517266 
L 724.353962 71.585132 
L 727.008854 81.601104 
L 730.54871 96.101752 
L 737.628422 125.57339 
L 740.283314 135.589362 
L 742.053242 141.657228 
L 743.82317 147.124708 
L 745.593098 151.905576 
L 747.363026 155.924434 
L 749.132954 159.117905 
L 750.017918 160.388849 
L 750.902882 161.435623 
L 751.787846 162.254096 
L 752.67281 162.841038 
L 753.557774 163.194133 
L 754.442738 163.311986 
L 755.327702 163.194133 
L 756.212666 162.841038 
L 757.09763 162.254096 
L 757.982594 161.435623 
L 758.867558 160.388849 
L 759.752522 159.117905 
L 761.52245 155.924435 
L 763.292378 151.905576 
L 765.062306 147.124708 
L 766.832234 141.657228 
L 768.602162 135.589362 
L 771.257054 125.57339 
L 774.79691 111.072742 
L 781.876623 81.601105 
L 784.531515 71.585132 
L 786.301443 65.517266 
L 788.071371 60.049786 
L 789.841299 55.268919 
L 791.611227 51.25006 
L 793.381155 48.05659 
L 794.266119 46.785645 
L 795.151083 45.738871 
L 796.036047 44.920398 
L 796.921011 44.333456 
L 797.805975 43.980362 
L 798.690939 43.862509 
L 799.575903 43.980362 
L 800.460867 44.333456 
L 801.345831 44.920398 
L 802.230795 45.738871 
L 803.115759 46.785645 
L 804.000723 48.05659 
L 805.770651 51.25006 
L 807.540579 55.268919 
L 809.310507 60.049786 
L 811.080435 65.517266 
L 812.850363 71.585132 
L 815.505255 81.601104 
L 819.045111 96.101752 
L 826.124823 125.57339 
L 828.779715 135.589362 
L 830.549643 141.657228 
L 832.319571 147.124708 
L 834.089499 151.905576 
L 835.859427 155.924434 
L 837.629355 159.117905 
L 838.514319 160.388849 
L 839.399283 161.435623 
L 840.284247 162.254096 
L 841.169211 162.841038 
L 842.054175 163.194133 
L 842.939139 163.311986 
L 843.824103 163.194133 
L 844.709067 162.841038 
L 845.594031 162.254096 
L 846.478995 161.435623 
L 847.36396 160.388849 
L 848.248924 159.117905 
L 850.018852 155.924435 
L 851.78878 151.905576 
L 853.558708 147.124708 
L 855.328636 141.657228 
L 857.098564 135.589362 
L 859.753456 125.57339 
L 863.293312 111.072742 
L 870.373024 81.601105 
L 873.027916 71.585132 
L 874.797844 65.517266 
L 876.567772 60.049786 
L 878.3377 55.268919 
L 880.107628 51.25006 
L 881.877556 48.05659 
L 882.76252 46.785645 
L 883.647484 45.738871 
L 884.532448 44.920398 
L 885.417412 44.333456 
L 886.302376 43.980362 
L 887.18734 43.862509 
L 888.072304 43.980362 
L 888.957268 44.333456 
L 889.842232 44.920398 
L 890.727196 45.738871 
L 891.61216 46.785645 
L 892.497124 48.05659 
L 894.267052 51.25006 
L 896.03698 55.268919 
L 897.806908 60.049786 
L 899.576836 65.517266 
L 901.346764 71.585132 
L 904.001656 81.601104 
L 907.541512 96.101752 
L 914.621225 125.57339 
L 917.276117 135.589362 
L 919.046045 141.657228 
L 920.815973 147.124708 
L 922.585901 151.905576 
L 924.355829 155.924434 
L 926.125757 159.117905 
L 927.010721 160.388849 
L 927.895685 161.435623 
L 928.780649 162.254096 
L 929.665613 162.841038 
L 930.550577 163.194133 
L 931.435541 163.311986 
L 932.320505 163.194133 
L 933.205469 162.841038 
L 934.090433 162.254096 
L 934.975397 161.435623 
L 935.860361 160.388849 
L 936.745325 159.117905 
L 938.515253 155.924435 
L 940.285181 151.905576 
L 942.055109 147.124708 
L 943.825037 141.657228 
L 945.594965 135.589362 
L 948.249857 125.57339 
L 951.789713 111.072742 
L 958.869425 81.601105 
L 961.524317 71.585132 
L 963.294245 65.517266 
L 965.064173 60.049786 
L 966.834101 55.268919 
L 968.604029 51.25006 
L 970.373957 48.05659 
L 971.258921 46.785645 
L 972.143885 45.738871 
L 973.028849 44.920398 
L 973.913813 44.333456 
L 974.798777 43.980362 
L 975.683741 43.862509 
L 975.683741 43.862509 
" clip-path="url(#p8ab88aca74)" style="fill: none; stroke: #e36f47; stroke-width: 4"/>
   </g>
   <g id="line2d_15">
    <path d="M 90.719728 163.311986 
L 91.604692 163.194133 
L 92.489656 162.841038 
L 93.37462 162.254096 
L 94.259584 161.435623 
L 95.144548 160.388849 
L 96.029512 159.117905 
L 97.79944 155.924435 
L 99.569368 151.905576 
L 101.339296 147.124708 
L 103.109224 141.657228 
L 104.879152 135.589362 
L 107.534044 125.57339 
L 111.0739 111.072742 
L 118.153613 81.601105 
L 120.808505 71.585132 
L 122.578433 65.517266 
L 124.348361 60.049786 
L 126.118289 55.268919 
L 127.888217 51.25006 
L 129.658145 48.05659 
L 130.543109 46.785645 
L 131.428073 45.738871 
L 132.313037 44.920398 
L 133.198001 44.333456 
L 134.082965 43.980362 
L 134.967929 43.862509 
L 135.852893 43.980362 
L 136.737857 44.333456 
L 137.622821 44.920398 
L 138.507785 45.738871 
L 139.392749 46.785645 
L 140.277713 48.05659 
L 142.047641 51.25006 
L 143.817569 55.268919 
L 145.587497 60.049786 
L 147.357425 65.517266 
L 149.127353 71.585132 
L 151.782245 81.601104 
L 155.322101 96.101752 
L 162.401813 125.57339 
L 165.056705 135.589362 
L 166.826633 141.657228 
L 168.596561 147.124708 
L 170.366489 151.905576 
L 172.136417 155.924434 
L 173.906345 159.117905 
L 174.791309 160.388849 
L 175.676273 161.435623 
L 176.561237 162.254096 
L 177.446201 162.841038 
L 178.331165 163.194133 
L 179.21613 163.311986 
L 180.101094 163.194133 
L 180.986058 162.841038 
L 181.871022 162.254096 
L 182.755986 161.435623 
L 183.64095 160.388849 
L 184.525914 159.117905 
L 186.295842 155.924435 
L 188.06577 151.905576 
L 189.835698 147.124708 
L 191.605626 141.657228 
L 193.375554 135.589362 
L 196.030446 125.57339 
L 199.570302 111.072742 
L 206.650014 81.601105 
L 209.304906 71.585132 
L 211.074834 65.517266 
L 212.844762 60.049786 
L 214.61469 55.268919 
L 216.384618 51.25006 
L 218.154546 48.05659 
L 219.03951 46.785645 
L 219.924474 45.738871 
L 220.809438 44.920398 
L 221.694402 44.333456 
L 222.579366 43.980362 
L 223.46433 43.862509 
L 224.349294 43.980362 
L 225.234258 44.333456 
L 226.119222 44.920398 
L 227.004186 45.738871 
L 227.88915 46.785645 
L 228.774114 48.05659 
L 230.544042 51.25006 
L 232.31397 55.268919 
L 234.083898 60.049786 
L 235.853826 65.517266 
L 237.623754 71.585132 
L 240.278646 81.601104 
L 243.818502 96.101752 
L 250.898215 125.57339 
L 253.553107 135.589362 
L 255.323035 141.657228 
L 257.092963 147.124708 
L 258.862891 151.905576 
L 260.632819 155.924434 
L 262.402747 159.117905 
L 263.287711 160.388849 
L 264.172675 161.435623 
L 265.057639 162.254096 
L 265.942603 162.841038 
L 266.827567 163.194133 
L 267.712531 163.311986 
L 268.597495 163.194133 
L 269.482459 162.841038 
L 270.367423 162.254096 
L 271.252387 161.435623 
L 272.137351 160.388849 
L 273.022315 159.117905 
L 274.792243 155.924435 
L 276.562171 151.905576 
L 278.332099 147.124708 
L 280.102027 141.657228 
L 281.871955 135.589362 
L 284.526847 125.57339 
L 288.066703 111.072742 
L 295.146415 81.601105 
L 297.801307 71.585132 
L 299.571235 65.517266 
L 301.341163 60.049786 
L 303.111091 55.268919 
L 304.881019 51.25006 
L 306.650947 48.05659 
L 307.535911 46.785645 
L 308.420875 45.738871 
L 309.305839 44.920398 
L 310.190803 44.333456 
L 311.075767 43.980362 
L 311.960731 43.862509 
L 312.845696 43.980362 
L 313.73066 44.333456 
L 314.615624 44.920398 
L 315.500588 45.738871 
L 316.385552 46.785645 
L 317.270516 48.05659 
L 319.040444 51.25006 
L 320.810372 55.268919 
L 322.5803 60.049786 
L 324.350228 65.517266 
L 326.120156 71.585132 
L 328.775048 81.601104 
L 332.314904 96.101752 
L 339.394616 125.57339 
L 342.049508 135.589362 
L 343.819436 141.657228 
L 345.589364 147.124708 
L 347.359292 151.905576 
L 349.12922 155.924434 
L 350.899148 159.117905 
L 351.784112 160.388849 
L 352.669076 161.435623 
L 353.55404 162.254096 
L 354.439004 162.841038 
L 355.323968 163.194133 
L 356.208932 163.311986 
L 357.093896 163.194133 
L 357.97886 162.841038 
L 358.863824 162.254096 
L 359.748788 161.435623 
L 360.633752 160.388849 
L 361.518716 159.117905 
L 363.288644 155.924435 
L 365.058572 151.905576 
L 366.8285 147.124708 
L 368.598428 141.657228 
L 370.368356 135.589362 
L 373.023248 125.57339 
L 376.563104 111.072742 
L 383.642817 81.601105 
L 386.297709 71.585132 
L 388.067637 65.517266 
L 389.837565 60.049786 
L 391.607493 55.268919 
L 393.377421 51.25006 
L 395.147349 48.05659 
L 396.032313 46.785645 
L 396.917277 45.738871 
L 397.802241 44.920398 
L 398.687205 44.333456 
L 399.572169 43.980362 
L 400.457133 43.862509 
L 401.342097 43.980362 
L 402.227061 44.333456 
L 403.112025 44.920398 
L 403.996989 45.738871 
L 404.881953 46.785645 
L 405.766917 48.05659 
L 407.536845 51.25006 
L 409.306773 55.268919 
L 411.076701 60.049786 
L 412.846629 65.517266 
L 414.616557 71.585132 
L 417.271449 81.601104 
L 420.811305 96.101752 
L 427.891017 125.57339 
L 430.545909 135.589362 
L 432.315837 141.657228 
L 434.085765 147.124708 
L 435.855693 151.905576 
L 437.625621 155.924434 
L 439.395549 159.117905 
L 440.280513 160.388849 
L 441.165477 161.435623 
L 442.050441 162.254096 
L 442.935405 162.841038 
L 443.820369 163.194133 
L 444.705333 163.311986 
L 445.590297 163.194133 
L 446.475262 162.841038 
L 447.360226 162.254096 
L 448.24519 161.435623 
L 449.130154 160.388849 
L 450.015118 159.117905 
L 451.785046 155.924435 
L 453.554974 151.905576 
L 455.324902 147.124708 
L 457.09483 141.657228 
L 458.864758 135.589362 
L 461.51965 125.57339 
L 465.059506 111.072742 
L 472.139218 81.601105 
L 474.79411 71.585132 
L 476.564038 65.517266 
L 478.333966 60.049786 
L 480.103894 55.268919 
L 481.873822 51.25006 
L 483.64375 48.05659 
L 484.528714 46.785645 
L 485.413678 45.738871 
L 486.298642 44.920398 
L 487.183606 44.333456 
L 488.06857 43.980362 
L 488.953534 43.862509 
L 489.838498 43.980362 
L 490.723462 44.333456 
L 491.608426 44.920398 
L 492.49339 45.738871 
L 493.378354 46.785645 
L 494.263318 48.05659 
L 496.033246 51.25006 
L 497.803174 55.268919 
L 499.573102 60.049786 
L 501.34303 65.517266 
L 503.112958 71.585132 
L 505.76785 81.601104 
L 509.307706 96.101752 
L 516.387419 125.57339 
L 519.042311 135.589362 
L 520.812239 141.657228 
L 522.582167 147.124708 
L 524.352095 151.905576 
L 526.122023 155.924434 
L 527.891951 159.117905 
L 528.776915 160.388849 
L 529.661879 161.435623 
L 530.546843 162.254096 
L 531.431807 162.841038 
L 532.316771 163.194133 
L 533.201735 163.311986 
L 534.086699 163.194133 
L 534.971663 162.841038 
L 535.856627 162.254096 
L 536.741591 161.435623 
L 537.626555 160.388849 
L 538.511519 159.117905 
L 540.281447 155.924435 
L 542.051375 151.905576 
L 543.821303 147.124708 
L 545.591231 141.657228 
L 547.361159 135.589362 
L 550.016051 125.57339 
L 553.555907 111.072742 
L 560.635619 81.601105 
L 563.290511 71.585132 
L 565.060439 65.517266 
L 566.830367 60.049786 
L 568.600295 55.268919 
L 570.370223 51.25006 
L 572.140151 48.05659 
L 573.025115 46.785645 
L 573.910079 45.738871 
L 574.795043 44.920398 
L 575.680007 44.333456 
L 576.564971 43.980362 
L 577.449935 43.862509 
L 578.334899 43.980362 
L 579.219863 44.333456 
L 580.104828 44.920398 
L 580.989792 45.738871 
L 581.874756 46.785645 
L 582.75972 48.05659 
L 584.529648 51.25006 
L 586.299576 55.268919 
L 588.069504 60.049786 
L 589.839432 65.517266 
L 591.60936 71.585132 
L 594.264252 81.601104 
L 597.804108 96.101752 
L 604.88382 125.57339 
L 607.538712 135.589362 
L 609.30864 141.657228 
L 611.078568 147.124708 
L 612.848496 151.905576 
L 614.618424 155.924434 
L 616.388352 159.117905 
L 617.273316 160.388849 
L 618.15828 161.435623 
L 619.043244 162.254096 
L 619.928208 162.841038 
L 620.813172 163.194133 
L 621.698136 163.311986 
L 622.5831 163.194133 
L 623.468064 162.841038 
L 624.353028 162.254096 
L 625.237992 161.435623 
L 626.122956 160.388849 
L 627.00792 159.117905 
L 628.777848 155.924435 
L 630.547776 151.905576 
L 632.317704 147.124708 
L 634.087632 141.657228 
L 635.85756 135.589362 
L 638.512452 125.57339 
L 642.052308 111.072742 
L 649.132021 81.601105 
L 651.786913 71.585132 
L 653.556841 65.517266 
L 655.326769 60.049786 
L 657.096697 55.268919 
L 658.866625 51.25006 
L 660.636553 48.05659 
L 661.521517 46.785645 
L 662.406481 45.738871 
L 663.291445 44.920398 
L 664.176409 44.333456 
L 665.061373 43.980362 
L 665.946337 43.862509 
L 666.831301 43.980362 
L 667.716265 44.333456 
L 668.601229 44.920398 
L 669.486193 45.738871 
L 670.371157 46.785645 
L 671.256121 48.05659 
L 673.026049 51.25006 
L 674.795977 55.268919 
L 676.565905 60.049786 
L 678.335833 65.517266 
L 680.105761 71.585132 
L 682.760653 81.601104 
L 686.300509 96.101752 
L 693.380221 125.57339 
L 696.035113 135.589362 
L 697.805041 141.657228 
L 699.574969 147.124708 
L 701.344897 151.905576 
L 703.114825 155.924434 
L 704.884753 159.117905 
L 705.769717 160.388849 
L 706.654681 161.435623 
L 707.539645 162.254096 
L 708.424609 162.841038 
L 709.309573 163.194133 
L 710.194537 163.311986 
L 711.079501 163.194133 
L 711.964465 162.841038 
L 712.849429 162.254096 
L 713.734394 161.435623 
L 714.619358 160.388849 
L 715.504322 159.117905 
L 717.27425 155.924435 
L 719.044178 151.905576 
L 720.814106 147.124708 
L 722.584034 141.657228 
L 724.353962 135.589362 
L 727.008854 125.57339 
L 730.54871 111.072742 
L 737.628422 81.601105 
L 740.283314 71.585132 
L 742.053242 65.517266 
L 743.82317 60.049786 
L 745.593098 55.268919 
L 747.363026 51.25006 
L 749.132954 48.05659 
L 750.017918 46.785645 
L 750.902882 45.738871 
L 751.787846 44.920398 
L 752.67281 44.333456 
L 753.557774 43.980362 
L 754.442738 43.862509 
L 755.327702 43.980362 
L 756.212666 44.333456 
L 757.09763 44.920398 
L 757.982594 45.738871 
L 758.867558 46.785645 
L 759.752522 48.05659 
L 761.52245 51.25006 
L 763.292378 55.268919 
L 765.062306 60.049786 
L 766.832234 65.517266 
L 768.602162 71.585132 
L 771.257054 81.601104 
L 774.79691 96.101752 
L 781.876623 125.57339 
L 784.531515 135.589362 
L 786.301443 141.657228 
L 788.071371 147.124708 
L 789.841299 151.905576 
L 791.611227 155.924434 
L 793.381155 159.117905 
L 794.266119 160.388849 
L 795.151083 161.435623 
L 796.036047 162.254096 
L 796.921011 162.841038 
L 797.805975 163.194133 
L 798.690939 163.311986 
L 799.575903 163.194133 
L 800.460867 162.841038 
L 801.345831 162.254096 
L 802.230795 161.435623 
L 803.115759 160.388849 
L 804.000723 159.117905 
L 805.770651 155.924435 
L 807.540579 151.905576 
L 809.310507 147.124708 
L 811.080435 141.657228 
L 812.850363 135.589362 
L 815.505255 125.57339 
L 819.045111 111.072742 
L 826.124823 81.601105 
L 828.779715 71.585132 
L 830.549643 65.517266 
L 832.319571 60.049786 
L 834.089499 55.268919 
L 835.859427 51.25006 
L 837.629355 48.05659 
L 838.514319 46.785645 
L 839.399283 45.738871 
L 840.284247 44.920398 
L 841.169211 44.333456 
L 842.054175 43.980362 
L 842.939139 43.862509 
L 843.824103 43.980362 
L 844.709067 44.333456 
L 845.594031 44.920398 
L 846.478995 45.738871 
L 847.36396 46.785645 
L 848.248924 48.05659 
L 850.018852 51.25006 
L 851.78878 55.268919 
L 853.558708 60.049786 
L 855.328636 65.517266 
L 857.098564 71.585132 
L 859.753456 81.601104 
L 863.293312 96.101752 
L 870.373024 125.57339 
L 873.027916 135.589362 
L 874.797844 141.657228 
L 876.567772 147.124708 
L 878.3377 151.905576 
L 880.107628 155.924434 
L 881.877556 159.117905 
L 882.76252 160.388849 
L 883.647484 161.435623 
L 884.532448 162.254096 
L 885.417412 162.841038 
L 886.302376 163.194133 
L 887.18734 163.311986 
L 888.072304 163.194133 
L 888.957268 162.841038 
L 889.842232 162.254096 
L 890.727196 161.435623 
L 891.61216 160.388849 
L 892.497124 159.117905 
L 894.267052 155.924435 
L 896.03698 151.905576 
L 897.806908 147.124708 
L 899.576836 141.657228 
L 901.346764 135.589362 
L 904.001656 125.57339 
L 907.541512 111.072742 
L 914.621225 81.601105 
L 917.276117 71.585132 
L 919.046045 65.517266 
L 920.815973 60.049786 
L 922.585901 55.268919 
L 924.355829 51.25006 
L 926.125757 48.05659 
L 927.010721 46.785645 
L 927.895685 45.738871 
L 928.780649 44.920398 
L 929.665613 44.333456 
L 930.550577 43.980362 
L 931.435541 43.862509 
L 932.320505 43.980362 
L 933.205469 44.333456 
L 934.090433 44.920398 
L 934.975397 45.738871 
L 935.860361 46.785645 
L 936.745325 48.05659 
L 938.515253 51.25006 
L 940.285181 55.268919 
L 942.055109 60.049786 
L 943.825037 65.517266 
L 945.594965 71.585132 
L 948.249857 81.601104 
L 951.789713 96.101752 
L 958.869425 125.57339 
L 961.524317 135.589362 
L 963.294245 141.657228 
L 965.064173 147.124708 
L 966.834101 151.905576 
L 968.604029 155.924434 
L 970.373957 159.117905 
L 971.258921 160.388849 
L 972.143885 161.435623 
L 973.028849 162.254096 
L 973.913813 162.841038 
L 974.798777 163.194133 
L 975.683741 163.311986 
L 975.683741 163.311986 
" clip-path="url(#p8ab88aca74)" style="fill: none; stroke-dasharray: 14.8,6.4; stroke-dashoffset: 0; stroke: #e36f47; stroke-width: 4"/>
   </g>
  </g>
 </g>
 <defs>
  <clipPath id="p8ab88aca74">
   <rect x="64.170808" y="5.60633" width="938.061854" height="162.299025"/>
  </clipPath>
 </defs>
</svg>
