<?xml version="1.0" encoding="utf-8" standalone="no"?>
<!DOCTYPE svg PUBLIC "-//W3C//DTD SVG 1.1//EN"
  "http://www.w3.org/Graphics/SVG/1.1/DTD/svg11.dtd">
<svg xmlns:xlink="http://www.w3.org/1999/xlink" width="979.2pt" height="336.96pt" viewBox="0 0 979.2 336.96" xmlns="http://www.w3.org/2000/svg" version="1.1">
 <metadata>
  <rdf:RDF xmlns:dc="http://purl.org/dc/elements/1.1/" xmlns:cc="http://creativecommons.org/ns#" xmlns:rdf="http://www.w3.org/1999/02/22-rdf-syntax-ns#">
   <cc:Work>
    <dc:type rdf:resource="http://purl.org/dc/dcmitype/StillImage"/>
    <dc:date>2024-06-25T15:57:05.478544</dc:date>
    <dc:format>image/svg+xml</dc:format>
    <dc:creator>
     <cc:Agent>
      <dc:title>Matplotlib v3.8.4, https://matplotlib.org/</dc:title>
     </cc:Agent>
    </dc:creator>
   </cc:Work>
  </rdf:RDF>
 </metadata>
 <defs>
  <style type="text/css">*{stroke-linejoin: round; stroke-linecap: butt}</style>
 </defs>
 <g id="figure_1">
  <g id="patch_1">
   <path d="M 0 336.96 
L 979.2 336.96 
L 979.2 0 
L 0 0 
L 0 336.96 
z
" style="fill: none"/>
  </g>
  <g id="axes_1">
   <g id="patch_2">
    <path d="M 64.170808 303.265354 
L 976.365354 303.265354 
L 976.365354 2.834646 
L 64.170808 2.834646 
L 64.170808 303.265354 
z
" style="fill: none"/>
   </g>
   <g id="line2d_1">
    <path d="M 89.987635 255.438223 
L 93.429878 248.377384 
L 97.158975 240.242736 
L 101.46178 230.30248 
L 106.338292 218.431201 
L 112.075364 203.824726 
L 119.533559 184.171951 
L 136.171069 140.130519 
L 141.908142 125.655062 
L 146.784654 113.903488 
L 151.374312 103.419313 
L 155.390262 94.776792 
L 159.11936 87.246405 
L 162.561603 80.754072 
L 166.003847 74.731679 
L 169.159237 69.645923 
L 172.314627 64.994089 
L 175.183163 61.154586 
L 178.051699 57.696228 
L 180.633382 54.916528 
L 183.215065 52.457397 
L 185.796747 50.322891 
L 188.091576 48.700585 
L 190.386405 47.338729 
L 192.681234 46.23815 
L 194.976064 45.392998 
L 197.270893 44.783417 
L 199.278868 44.486391 
L 200.99999 44.450783 
L 202.721112 44.638705 
L 204.442233 45.049052 
L 206.163355 45.679258 
L 207.884477 46.526421 
L 209.892452 47.784645 
L 211.900428 49.328036 
L 213.908403 51.150311 
L 216.203232 53.565609 
L 218.498061 56.325189 
L 220.79289 59.417192 
L 223.374573 63.277291 
L 225.956256 67.523051 
L 228.824792 72.668411 
L 231.980182 78.815014 
L 235.422425 86.055978 
L 239.151523 94.469663 
L 243.167474 104.112814 
L 247.757132 115.758111 
L 252.920497 129.488939 
L 259.51813 147.697321 
L 280.171592 205.175983 
L 285.621811 219.41515 
L 290.211469 230.810868 
L 294.514273 240.897295 
L 298.243371 249.105269 
L 301.685614 256.195742 
L 305.127858 262.781227 
L 308.283248 268.34473 
L 311.151784 272.988279 
L 314.02032 277.219749 
L 316.602003 280.662834 
L 319.183686 283.749165 
L 321.765368 286.469424 
L 324.060197 288.573398 
L 326.355027 290.376485 
L 328.649856 291.874285 
L 330.657831 292.931519 
L 332.665806 293.750183 
L 334.673782 294.328716 
L 336.681757 294.666007 
L 338.689733 294.761405 
L 340.697708 294.614726 
L 342.705683 294.226263 
L 344.713659 293.596789 
L 346.721634 292.72756 
L 348.72961 291.620321 
L 350.737585 290.277307 
L 353.032414 288.457241 
L 355.327243 286.337633 
L 357.622072 283.92414 
L 360.203755 280.865758 
L 362.785438 277.45403 
L 365.653974 273.262987 
L 368.52251 268.667755 
L 371.6779 263.169325 
L 374.83329 257.233317 
L 378.275534 250.29415 
L 382.004631 242.278279 
L 386.020582 233.129382 
L 390.61024 222.111055 
L 396.060459 208.401457 
L 402.944946 190.410917 
L 424.458968 133.674146 
L 429.909187 120.180162 
L 434.785699 108.705528 
L 439.088503 99.145252 
L 443.104454 90.765815 
L 446.833552 83.502215 
L 450.275795 77.273522 
L 453.431185 71.989229 
L 456.586575 67.130898 
L 459.455111 63.097639 
L 462.323648 59.44059 
L 464.90533 56.478503 
L 467.487013 53.834198 
L 470.068696 51.512303 
L 472.363525 49.722025 
L 474.658354 48.191286 
L 476.953183 46.921386 
L 479.248012 45.912519 
L 481.542841 45.149926 
L 483.550816 44.684156 
L 485.558792 44.452273 
L 487.279913 44.484071 
L 489.001035 44.739599 
L 490.722157 45.21681 
L 492.443279 45.913038 
L 494.164401 46.825276 
L 496.172376 48.15809 
L 498.180351 49.774496 
L 500.188327 51.668063 
L 502.483156 54.162551 
L 504.777985 56.998699 
L 507.359668 60.582735 
L 509.94135 64.565643 
L 512.809887 69.435287 
L 515.678423 74.745352 
L 518.833813 81.059979 
L 522.276056 88.467884 
L 526.005154 97.042477 
L 530.021105 106.835048 
L 534.610763 118.620155 
L 540.060982 133.252153 
L 547.519176 153.988182 
L 563.582979 198.85184 
L 569.320052 214.113112 
L 574.196564 226.479493 
L 578.499368 236.815331 
L 582.515319 245.895804 
L 586.244416 253.779563 
L 589.68666 260.545144 
L 592.84205 266.284074 
L 595.99744 271.554123 
L 598.865976 275.918521 
L 601.734512 279.860058 
L 604.316195 283.033821 
L 606.897878 285.843676 
L 609.192707 288.028903 
L 611.487536 289.914563 
L 613.782365 291.496068 
L 615.79034 292.627314 
L 617.798316 293.520569 
L 619.806291 294.174132 
L 621.814266 294.586751 
L 623.822242 294.75763 
L 625.830217 294.686438 
L 627.838193 294.37332 
L 629.846168 293.818898 
L 631.854144 293.024276 
L 633.862119 291.991049 
L 635.870094 290.721297 
L 638.164923 288.983847 
L 640.459752 286.945453 
L 642.754581 284.611549 
L 645.336264 281.64049 
L 647.917947 278.31345 
L 650.49963 274.641761 
L 653.368166 270.173163 
L 656.523556 264.806684 
L 659.678946 258.994286 
L 663.121189 252.17974 
L 666.850286 244.286034 
L 670.866237 235.252892 
L 675.455895 224.345773 
L 680.619261 211.468837 
L 686.930041 195.09755 
L 697.830479 166.062174 
L 707.009795 141.880716 
L 713.033721 126.623443 
L 718.197086 114.150346 
L 722.786745 103.652299 
L 726.802695 94.996013 
L 730.531793 87.451603 
L 733.974036 80.945366 
L 737.41628 74.908238 
L 740.57167 69.808326 
L 743.72706 65.14179 
L 746.595596 61.288509 
L 749.464132 57.816038 
L 752.045815 55.023396 
L 754.627498 52.551137 
L 757.20918 50.403356 
L 759.504009 48.76916 
L 761.798838 47.39536 
L 764.093667 46.282829 
L 766.388496 45.426577 
L 768.683325 44.805227 
L 770.691301 44.495639 
L 772.412423 44.446566 
L 774.133544 44.62084 
L 775.854666 45.017683 
L 777.575788 45.634551 
L 779.29691 46.468564 
L 781.304885 47.711708 
L 783.312861 49.240333 
L 785.320836 51.048185 
L 787.615665 53.447454 
L 789.910494 56.191529 
L 792.205323 59.268587 
L 794.787006 63.112584 
L 797.368689 67.343039 
L 800.237225 72.472375 
L 803.392615 78.602604 
L 806.834858 85.827263 
L 810.563956 94.225187 
L 814.579906 103.853645 
L 819.169565 115.485112 
L 824.33293 129.204213 
L 830.930563 147.403529 
L 851.870878 205.661511 
L 857.321097 219.877808 
L 861.910756 231.249411 
L 866.21356 241.309462 
L 869.942657 249.491819 
L 873.384901 256.556528 
L 876.827144 263.114355 
L 879.982534 268.650964 
L 882.851071 273.268884 
L 885.719607 277.473694 
L 888.30129 280.891982 
L 890.882972 283.952825 
L 893.464655 286.646978 
L 895.759484 288.727291 
L 898.054313 290.506342 
L 900.349142 291.979788 
L 902.357118 293.015495 
L 904.365093 293.812474 
L 906.373068 294.369203 
L 908.381044 294.684611 
L 910.389019 294.75809 
L 912.396995 294.589499 
L 914.40497 294.179174 
L 916.412945 293.527932 
L 918.420921 292.637073 
L 920.428896 291.508386 
L 922.436872 290.14415 
L 924.731701 288.300165 
L 927.02653 286.157056 
L 929.321359 283.720545 
L 931.903042 280.636923 
L 934.484724 277.200735 
L 937.353261 272.983531 
L 940.221797 268.363315 
L 943.377187 262.838889 
L 946.81943 256.316137 
L 950.261674 249.314145 
L 950.548528 248.710329 
L 950.548528 248.710329 
" clip-path="url(#pef1342032f)" style="fill: none; stroke: #009afa; stroke-width: 6"/>
   </g>
   <g id="matplotlib.axis_1">
    <g id="xtick_1">
     <g id="line2d_2">
      <defs>
       <path id="m3469e082e9" d="M 0 0 
L 0 -5 
" style="stroke: #000000"/>
      </defs>
      <g>
       <use xlink:href="#m3469e082e9" x="89.987635" y="303.265354" style="stroke: #000000"/>
      </g>
     </g>
     <g id="text_1">
      <!-- $0$ -->
      <g transform="translate(82.987635 328.040979) scale(0.28 -0.28)">
       <defs>
        <path id="Cmr10-30" d="M 1600 -141 
Q 816 -141 533 504 
Q 250 1150 250 2041 
Q 250 2597 351 3087 
Q 453 3578 754 3920 
Q 1056 4263 1600 4263 
Q 2022 4263 2290 4056 
Q 2559 3850 2700 3523 
Q 2841 3197 2892 2823 
Q 2944 2450 2944 2041 
Q 2944 1491 2842 1011 
Q 2741 531 2444 195 
Q 2147 -141 1600 -141 
z
M 1600 25 
Q 1956 25 2131 390 
Q 2306 756 2347 1200 
Q 2388 1644 2388 2144 
Q 2388 2625 2347 3031 
Q 2306 3438 2132 3767 
Q 1959 4097 1600 4097 
Q 1238 4097 1063 3765 
Q 888 3434 847 3029 
Q 806 2625 806 2144 
Q 806 1788 823 1472 
Q 841 1156 916 820 
Q 991 484 1158 254 
Q 1325 25 1600 25 
z
" transform="scale(0.015625)"/>
       </defs>
       <use xlink:href="#Cmr10-30" transform="translate(0 0.390625)"/>
      </g>
     </g>
    </g>
    <g id="xtick_2">
     <g id="line2d_3">
      <g>
       <use xlink:href="#m3469e082e9" x="376.841266" y="303.265354" style="stroke: #000000"/>
      </g>
     </g>
     <g id="text_2">
      <!-- $1$ -->
      <g transform="translate(369.841266 328.040979) scale(0.28 -0.28)">
       <defs>
        <path id="Cmr10-31" d="M 594 0 
L 594 225 
Q 1394 225 1394 428 
L 1394 3788 
Q 1063 3628 556 3628 
L 556 3853 
Q 1341 3853 1741 4263 
L 1831 4263 
Q 1853 4263 1873 4245 
Q 1894 4228 1894 4206 
L 1894 428 
Q 1894 225 2694 225 
L 2694 0 
L 594 0 
z
" transform="scale(0.015625)"/>
       </defs>
       <use xlink:href="#Cmr10-31" transform="translate(0 0.390625)"/>
      </g>
     </g>
    </g>
    <g id="xtick_3">
     <g id="line2d_4">
      <g>
       <use xlink:href="#m3469e082e9" x="663.694897" y="303.265354" style="stroke: #000000"/>
      </g>
     </g>
     <g id="text_3">
      <!-- $2$ -->
      <g transform="translate(656.694897 328.040979) scale(0.28 -0.28)">
       <defs>
        <path id="Cmr10-32" d="M 319 0 
L 319 172 
Q 319 188 331 206 
L 1325 1306 
Q 1550 1550 1690 1715 
Q 1831 1881 1968 2097 
Q 2106 2313 2186 2536 
Q 2266 2759 2266 3009 
Q 2266 3272 2169 3511 
Q 2072 3750 1880 3894 
Q 1688 4038 1416 4038 
Q 1138 4038 916 3870 
Q 694 3703 603 3438 
Q 628 3444 672 3444 
Q 816 3444 917 3347 
Q 1019 3250 1019 3097 
Q 1019 2950 917 2848 
Q 816 2747 672 2747 
Q 522 2747 420 2851 
Q 319 2956 319 3097 
Q 319 3338 409 3548 
Q 500 3759 670 3923 
Q 841 4088 1055 4175 
Q 1269 4263 1509 4263 
Q 1875 4263 2190 4108 
Q 2506 3953 2690 3670 
Q 2875 3388 2875 3009 
Q 2875 2731 2753 2481 
Q 2631 2231 2440 2026 
Q 2250 1822 1953 1562 
Q 1656 1303 1563 1216 
L 838 519 
L 1453 519 
Q 1906 519 2211 526 
Q 2516 534 2534 550 
Q 2609 631 2688 1141 
L 2875 1141 
L 2694 0 
L 319 0 
z
" transform="scale(0.015625)"/>
       </defs>
       <use xlink:href="#Cmr10-32" transform="translate(0 0.390625)"/>
      </g>
     </g>
    </g>
    <g id="xtick_4">
     <g id="line2d_5">
      <g>
       <use xlink:href="#m3469e082e9" x="950.548528" y="303.265354" style="stroke: #000000"/>
      </g>
     </g>
     <g id="text_4">
      <!-- $3$ -->
      <g transform="translate(943.548528 328.040979) scale(0.28 -0.28)">
       <defs>
        <path id="Cmr10-33" d="M 609 494 
Q 759 275 1012 169 
Q 1266 63 1556 63 
Q 1928 63 2084 380 
Q 2241 697 2241 1100 
Q 2241 1281 2208 1462 
Q 2175 1644 2097 1800 
Q 2019 1956 1883 2050 
Q 1747 2144 1550 2144 
L 1125 2144 
Q 1069 2144 1069 2203 
L 1069 2259 
Q 1069 2309 1125 2309 
L 1478 2338 
Q 1703 2338 1851 2506 
Q 2000 2675 2069 2917 
Q 2138 3159 2138 3378 
Q 2138 3684 1994 3881 
Q 1850 4078 1556 4078 
Q 1313 4078 1091 3986 
Q 869 3894 738 3706 
Q 750 3709 759 3711 
Q 769 3713 781 3713 
Q 925 3713 1022 3613 
Q 1119 3513 1119 3372 
Q 1119 3234 1022 3134 
Q 925 3034 781 3034 
Q 641 3034 541 3134 
Q 441 3234 441 3372 
Q 441 3647 606 3850 
Q 772 4053 1033 4158 
Q 1294 4263 1556 4263 
Q 1750 4263 1965 4205 
Q 2181 4147 2356 4039 
Q 2531 3931 2642 3762 
Q 2753 3594 2753 3378 
Q 2753 3109 2633 2881 
Q 2513 2653 2303 2487 
Q 2094 2322 1844 2241 
Q 2122 2188 2372 2031 
Q 2622 1875 2773 1631 
Q 2925 1388 2925 1106 
Q 2925 753 2731 467 
Q 2538 181 2222 20 
Q 1906 -141 1556 -141 
Q 1256 -141 954 -26 
Q 653 88 461 316 
Q 269 544 269 863 
Q 269 1022 375 1128 
Q 481 1234 641 1234 
Q 744 1234 830 1186 
Q 916 1138 964 1050 
Q 1013 963 1013 863 
Q 1013 706 903 600 
Q 794 494 641 494 
L 609 494 
z
" transform="scale(0.015625)"/>
       </defs>
       <use xlink:href="#Cmr10-33" transform="translate(0 0.390625)"/>
      </g>
     </g>
    </g>
   </g>
   <g id="matplotlib.axis_2">
    <g id="ytick_1">
     <g id="line2d_6">
      <defs>
       <path id="ma6f75b8e1f" d="M 0 0 
L 5 0 
" style="stroke: #000000"/>
      </defs>
      <g>
       <use xlink:href="#ma6f75b8e1f" x="64.170808" y="294.762763" style="stroke: #000000"/>
      </g>
     </g>
     <g id="text_5">
      <!-- $-1.0$ -->
      <g transform="translate(2.990808 305.400576) scale(0.28 -0.28)">
       <defs>
        <path id="Cmsy10-a1" d="M 653 1472 
Q 600 1472 565 1512 
Q 531 1553 531 1600 
Q 531 1647 565 1687 
Q 600 1728 653 1728 
L 4325 1728 
Q 4375 1728 4408 1687 
Q 4441 1647 4441 1600 
Q 4441 1553 4408 1512 
Q 4375 1472 4325 1472 
L 653 1472 
z
" transform="scale(0.015625)"/>
        <path id="Cmmi10-3a" d="M 538 353 
Q 538 497 644 600 
Q 750 703 891 703 
Q 978 703 1062 656 
Q 1147 609 1194 525 
Q 1241 441 1241 353 
Q 1241 213 1137 106 
Q 1034 0 891 0 
Q 750 0 644 106 
Q 538 213 538 353 
z
" transform="scale(0.015625)"/>
       </defs>
       <use xlink:href="#Cmsy10-a1" transform="translate(0 0.390625)"/>
       <use xlink:href="#Cmr10-31" transform="translate(77.685547 0.390625)"/>
       <use xlink:href="#Cmmi10-3a" transform="translate(127.685547 0.390625)"/>
       <use xlink:href="#Cmr10-30" transform="translate(155.371094 0.390625)"/>
      </g>
     </g>
    </g>
    <g id="ytick_2">
     <g id="line2d_7">
      <g>
       <use xlink:href="#ma6f75b8e1f" x="64.170808" y="232.181555" style="stroke: #000000"/>
      </g>
     </g>
     <g id="text_6">
      <!-- $-0.5$ -->
      <g transform="translate(2.990808 242.819368) scale(0.28 -0.28)">
       <defs>
        <path id="Cmr10-35" d="M 556 728 
Q 622 541 758 387 
Q 894 234 1080 148 
Q 1266 63 1466 63 
Q 1928 63 2103 422 
Q 2278 781 2278 1294 
Q 2278 1516 2270 1667 
Q 2263 1819 2228 1959 
Q 2169 2184 2020 2353 
Q 1872 2522 1656 2522 
Q 1441 2522 1286 2456 
Q 1131 2391 1034 2303 
Q 938 2216 863 2119 
Q 788 2022 769 2016 
L 697 2016 
Q 681 2016 657 2036 
Q 634 2056 634 2075 
L 634 4213 
Q 634 4228 654 4245 
Q 675 4263 697 4263 
L 716 4263 
Q 1147 4056 1631 4056 
Q 2106 4056 2547 4263 
L 2566 4263 
Q 2588 4263 2606 4247 
Q 2625 4231 2625 4213 
L 2625 4153 
Q 2625 4122 2613 4122 
Q 2394 3831 2064 3668 
Q 1734 3506 1381 3506 
Q 1125 3506 856 3578 
L 856 2369 
Q 1069 2541 1236 2614 
Q 1403 2688 1663 2688 
Q 2016 2688 2295 2484 
Q 2575 2281 2725 1954 
Q 2875 1628 2875 1288 
Q 2875 903 2686 575 
Q 2497 247 2172 53 
Q 1847 -141 1466 -141 
Q 1150 -141 886 21 
Q 622 184 470 459 
Q 319 734 319 1044 
Q 319 1188 412 1278 
Q 506 1369 647 1369 
Q 788 1369 883 1276 
Q 978 1184 978 1044 
Q 978 906 883 811 
Q 788 716 647 716 
Q 625 716 597 720 
Q 569 725 556 728 
z
" transform="scale(0.015625)"/>
       </defs>
       <use xlink:href="#Cmsy10-a1" transform="translate(0 0.390625)"/>
       <use xlink:href="#Cmr10-30" transform="translate(77.685547 0.390625)"/>
       <use xlink:href="#Cmmi10-3a" transform="translate(127.685547 0.390625)"/>
       <use xlink:href="#Cmr10-35" transform="translate(155.371094 0.390625)"/>
      </g>
     </g>
    </g>
    <g id="ytick_3">
     <g id="line2d_8">
      <g>
       <use xlink:href="#ma6f75b8e1f" x="64.170808" y="169.600347" style="stroke: #000000"/>
      </g>
     </g>
     <g id="text_7">
      <!-- $0.0$ -->
      <g transform="translate(24.830808 180.238159) scale(0.28 -0.28)">
       <use xlink:href="#Cmr10-30" transform="translate(0 0.390625)"/>
       <use xlink:href="#Cmmi10-3a" transform="translate(50 0.390625)"/>
       <use xlink:href="#Cmr10-30" transform="translate(77.685547 0.390625)"/>
      </g>
     </g>
    </g>
    <g id="ytick_4">
     <g id="line2d_9">
      <g>
       <use xlink:href="#ma6f75b8e1f" x="64.170808" y="107.019138" style="stroke: #000000"/>
      </g>
     </g>
     <g id="text_8">
      <!-- $0.5$ -->
      <g transform="translate(24.830808 117.656951) scale(0.28 -0.28)">
       <use xlink:href="#Cmr10-30" transform="translate(0 0.390625)"/>
       <use xlink:href="#Cmmi10-3a" transform="translate(50 0.390625)"/>
       <use xlink:href="#Cmr10-35" transform="translate(77.685547 0.390625)"/>
      </g>
     </g>
    </g>
    <g id="ytick_5">
     <g id="line2d_10">
      <g>
       <use xlink:href="#ma6f75b8e1f" x="64.170808" y="44.43793" style="stroke: #000000"/>
      </g>
     </g>
     <g id="text_9">
      <!-- $1.0$ -->
      <g transform="translate(24.830808 55.075742) scale(0.28 -0.28)">
       <use xlink:href="#Cmr10-31" transform="translate(0 0.390625)"/>
       <use xlink:href="#Cmmi10-3a" transform="translate(50 0.390625)"/>
       <use xlink:href="#Cmr10-30" transform="translate(77.685547 0.390625)"/>
      </g>
     </g>
    </g>
   </g>
   <g id="line2d_11">
    <path d="M 89.987635 52.81771 
L 115.517608 57.901847 
L 141.621288 62.871455 
L 168.298676 67.721914 
L 191.820674 71.80145 
L 192.681234 71.8486 
L 193.254942 71.67996 
L 193.541795 71.451033 
L 193.828649 71.059513 
L 194.115503 70.437625 
L 194.402356 69.504953 
L 194.976064 66.358792 
L 195.549771 61.021916 
L 196.123478 53.350388 
L 198.131453 21.986356 
L 198.705161 16.659238 
L 199.278868 13.537515 
L 199.852575 12.021954 
L 200.426282 11.451289 
L 200.99999 11.338673 
L 201.860551 11.474559 
L 206.737062 12.799014 
L 228.824792 18.722586 
L 251.486229 24.567521 
L 274.434519 30.255733 
L 297.956517 35.854699 
L 321.765368 41.29288 
L 346.147927 46.633001 
L 371.104193 51.868688 
L 396.347312 56.937809 
L 422.164139 61.896457 
L 448.554673 66.739796 
L 475.518915 71.463524 
L 478.387451 71.85473 
L 478.961158 71.714579 
L 479.248012 71.51186 
L 479.534865 71.157966 
L 479.821719 70.587566 
L 480.108573 69.721925 
L 480.68228 66.755344 
L 481.255987 61.63401 
L 481.829695 54.153018 
L 484.124524 19.495986 
L 484.698231 15.128596 
L 485.271938 12.754013 
L 485.845645 11.702632 
L 486.419353 11.367918 
L 486.99306 11.354721 
L 488.427328 11.684289 
L 517.686398 19.536603 
L 540.347835 25.350004 
L 563.296126 31.007527 
L 586.818123 36.576285 
L 610.626975 41.985126 
L 635.009533 47.296436 
L 659.965799 52.503875 
L 685.495773 57.601675 
L 711.599453 62.584637 
L 738.276841 67.44813 
L 763.233107 71.787366 
L 764.380521 71.827155 
L 764.954228 71.557265 
L 765.241082 71.234591 
L 765.527936 70.708087 
L 765.814789 69.901217 
L 766.388496 67.099525 
L 766.962204 62.189938 
L 767.535911 54.914491 
L 769.83074 20.02578 
L 770.404447 15.448629 
L 770.978155 12.914811 
L 771.551862 11.766443 
L 772.125569 11.383243 
L 772.699276 11.349911 
L 773.846691 11.59339 
L 818.595857 23.44865 
L 841.544148 29.180744 
L 864.779292 34.755481 
L 888.588143 40.238357 
L 912.970702 45.622367 
L 937.640114 50.841705 
L 950.548528 53.484587 
L 950.548528 53.484587 
" clip-path="url(#pef1342032f)" style="fill: none; stroke: #3ea44d; stroke-width: 6"/>
   </g>
   <g id="patch_3">
    <path d="M 64.170808 303.265354 
L 64.170808 2.834646 
" style="fill: none; stroke: #000000; stroke-width: 2; stroke-linejoin: miter; stroke-linecap: square"/>
   </g>
   <g id="patch_4">
    <path d="M 64.170808 303.265354 
L 976.365354 303.265354 
" style="fill: none; stroke: #000000; stroke-width: 2; stroke-linejoin: miter; stroke-linecap: square"/>
   </g>
  </g>
 </g>
 <defs>
  <clipPath id="pef1342032f">
   <rect x="64.170808" y="2.834646" width="912.194547" height="300.430709"/>
  </clipPath>
 </defs>
</svg>
