<?xml version="1.0" encoding="utf-8" standalone="no"?>
<!DOCTYPE svg PUBLIC "-//W3C//DTD SVG 1.1//EN"
  "http://www.w3.org/Graphics/SVG/1.1/DTD/svg11.dtd">
<svg xmlns:xlink="http://www.w3.org/1999/xlink" width="244.8pt" height="244.8pt" viewBox="0 0 244.8 244.8" xmlns="http://www.w3.org/2000/svg" version="1.1">
 <metadata>
  <rdf:RDF xmlns:dc="http://purl.org/dc/elements/1.1/" xmlns:cc="http://creativecommons.org/ns#" xmlns:rdf="http://www.w3.org/1999/02/22-rdf-syntax-ns#">
   <cc:Work>
    <dc:type rdf:resource="http://purl.org/dc/dcmitype/StillImage"/>
    <dc:date>2024-07-16T17:23:52.520489</dc:date>
    <dc:format>image/svg+xml</dc:format>
    <dc:creator>
     <cc:Agent>
      <dc:title>Matplotlib v3.8.4, https://matplotlib.org/</dc:title>
     </cc:Agent>
    </dc:creator>
   </cc:Work>
  </rdf:RDF>
 </metadata>
 <defs>
  <style type="text/css">*{stroke-linejoin: round; stroke-linecap: butt}</style>
 </defs>
 <g id="figure_1">
  <g id="patch_1">
   <path d="M 0 244.8 
L 244.8 244.8 
L 244.8 0 
L 0 0 
L 0 244.8 
z
" style="fill: none"/>
  </g>
  <g id="axes_1">
   <g id="patch_2">
    <path d="M 2.834646 241.965354 
L 241.965354 241.965354 
L 241.965354 2.834646 
L 2.834646 2.834646 
L 2.834646 241.965354 
z
" style="fill: none"/>
   </g>
   <g id="line2d_1">
    <path d="M 9.602496 235.197504 
L 47.201664 197.598336 
L 84.800832 159.999168 
L 122.4 122.4 
L 159.999168 84.800832 
L 197.598336 47.201664 
L 235.197504 9.602496 
" clip-path="url(#p346d0282fc)" style="fill: none; stroke-dasharray: 14.8,6.4; stroke-dashoffset: 0; stroke: #000000; stroke-width: 4"/>
   </g>
   <g id="matplotlib.axis_1"/>
   <g id="matplotlib.axis_2"/>
   <g id="PathCollection_1">
    <defs>
     <path id="mbaeafbdbe7" d="M 0 8 
C 2.121625 8 4.156639 7.15707 5.656854 5.656854 
C 7.15707 4.156639 8 2.121625 8 0 
C 8 -2.121625 7.15707 -4.156639 5.656854 -5.656854 
C 4.156639 -7.15707 2.121625 -8 0 -8 
C -2.121625 -8 -4.156639 -7.15707 -5.656854 -5.656854 
C -7.15707 -4.156639 -8 -2.121625 -8 0 
C -8 2.121625 -7.15707 4.156639 -5.656854 5.656854 
C -4.156639 7.15707 -2.121625 8 0 8 
z
"/>
    </defs>
    <g clip-path="url(#p346d0282fc)">
     <use xlink:href="#mbaeafbdbe7" x="202.348283" y="58.210832" style="fill: #40e0d0; fill-opacity: 0.8"/>
    </g>
   </g>
   <g id="PathCollection_2">
    <defs>
     <path id="m8879fa9582" d="M 0 8 
C 2.121625 8 4.156639 7.15707 5.656854 5.656854 
C 7.15707 4.156639 8 2.121625 8 0 
C 8 -2.121625 7.15707 -4.156639 5.656854 -5.656854 
C 4.156639 -7.15707 2.121625 -8 0 -8 
C -2.121625 -8 -4.156639 -7.15707 -5.656854 -5.656854 
C -7.15707 -4.156639 -8 -2.121625 -8 0 
C -8 2.121625 -7.15707 4.156639 -5.656854 5.656854 
C -4.156639 7.15707 -2.121625 8 0 8 
z
"/>
    </defs>
    <g clip-path="url(#p346d0282fc)">
     <use xlink:href="#m8879fa9582" x="186.589168" y="69.926698" style="fill: #3ed8cd; fill-opacity: 0.8"/>
    </g>
   </g>
   <g id="PathCollection_3">
    <defs>
     <path id="mce522c7905" d="M 0 8 
C 2.121625 8 4.156639 7.15707 5.656854 5.656854 
C 7.15707 4.156639 8 2.121625 8 0 
C 8 -2.121625 7.15707 -4.156639 5.656854 -5.656854 
C 4.156639 -7.15707 2.121625 -8 0 -8 
C -2.121625 -8 -4.156639 -7.15707 -5.656854 -5.656854 
C -7.15707 -4.156639 -8 -2.121625 -8 0 
C -8 2.121625 -7.15707 4.156639 -5.656854 5.656854 
C -4.156639 7.15707 -2.121625 8 0 8 
z
"/>
    </defs>
    <g clip-path="url(#p346d0282fc)">
     <use xlink:href="#mce522c7905" x="174.873302" y="82.735156" style="fill: #3bcfca; fill-opacity: 0.8"/>
    </g>
   </g>
   <g id="PathCollection_4">
    <defs>
     <path id="m02b52d004f" d="M 0 8 
C 2.121625 8 4.156639 7.15707 5.656854 5.656854 
C 7.15707 4.156639 8 2.121625 8 0 
C 8 -2.121625 7.15707 -4.156639 5.656854 -5.656854 
C 4.156639 -7.15707 2.121625 -8 0 -8 
C -2.121625 -8 -4.156639 -7.15707 -5.656854 -5.656854 
C -7.15707 -4.156639 -8 -2.121625 -8 0 
C -8 2.121625 -7.15707 4.156639 -5.656854 5.656854 
C -4.156639 7.15707 -2.121625 8 0 8 
z
"/>
    </defs>
    <g clip-path="url(#p346d0282fc)">
     <use xlink:href="#m02b52d004f" x="162.064844" y="107.190582" style="fill: #39c7c7; fill-opacity: 0.8"/>
    </g>
   </g>
   <g id="PathCollection_5">
    <defs>
     <path id="m9fc89ebe66" d="M 0 8 
C 2.121625 8 4.156639 7.15707 5.656854 5.656854 
C 7.15707 4.156639 8 2.121625 8 0 
C 8 -2.121625 7.15707 -4.156639 5.656854 -5.656854 
C 4.156639 -7.15707 2.121625 -8 0 -8 
C -2.121625 -8 -4.156639 -7.15707 -5.656854 -5.656854 
C -7.15707 -4.156639 -8 -2.121625 -8 0 
C -8 2.121625 -7.15707 4.156639 -5.656854 5.656854 
C -4.156639 7.15707 -2.121625 8 0 8 
z
"/>
    </defs>
    <g clip-path="url(#p346d0282fc)">
     <use xlink:href="#m9fc89ebe66" x="137.609418" y="176.248107" style="fill: #37bfc4; fill-opacity: 0.8"/>
    </g>
   </g>
   <g id="PathCollection_6">
    <defs>
     <path id="macfed876a9" d="M 0 8 
C 2.121625 8 4.156639 7.15707 5.656854 5.656854 
C 7.15707 4.156639 8 2.121625 8 0 
C 8 -2.121625 7.15707 -4.156639 5.656854 -5.656854 
C 4.156639 -7.15707 2.121625 -8 0 -8 
C -2.121625 -8 -4.156639 -7.15707 -5.656854 -5.656854 
C -7.15707 -4.156639 -8 -2.121625 -8 0 
C -8 2.121625 -7.15707 4.156639 -5.656854 5.656854 
C -4.156639 7.15707 -2.121625 8 0 8 
z
"/>
    </defs>
    <g clip-path="url(#p346d0282fc)">
     <use xlink:href="#macfed876a9" x="68.551893" y="18.772599" style="fill: #34b7c1; fill-opacity: 0.8"/>
    </g>
   </g>
   <g id="PathCollection_7">
    <defs>
     <path id="mcd2164dfcd" d="M 0 8 
C 2.121625 8 4.156639 7.15707 5.656854 5.656854 
C 7.15707 4.156639 8 2.121625 8 0 
C 8 -2.121625 7.15707 -4.156639 5.656854 -5.656854 
C 4.156639 -7.15707 2.121625 -8 0 -8 
C -2.121625 -8 -4.156639 -7.15707 -5.656854 -5.656854 
C -7.15707 -4.156639 -8 -2.121625 -8 0 
C -8 2.121625 -7.15707 4.156639 -5.656854 5.656854 
C -4.156639 7.15707 -2.121625 8 0 8 
z
"/>
    </defs>
    <g clip-path="url(#p346d0282fc)">
     <use xlink:href="#mcd2164dfcd" x="226.027401" y="47.04961" style="fill: #32aebe; fill-opacity: 0.8"/>
    </g>
   </g>
   <g id="PathCollection_8">
    <defs>
     <path id="m9f65923191" d="M 0 8 
C 2.121625 8 4.156639 7.15707 5.656854 5.656854 
C 7.15707 4.156639 8 2.121625 8 0 
C 8 -2.121625 7.15707 -4.156639 5.656854 -5.656854 
C 4.156639 -7.15707 2.121625 -8 0 -8 
C -2.121625 -8 -4.156639 -7.15707 -5.656854 -5.656854 
C -7.15707 -4.156639 -8 -2.121625 -8 0 
C -8 2.121625 -7.15707 4.156639 -5.656854 5.656854 
C -4.156639 7.15707 -2.121625 8 0 8 
z
"/>
    </defs>
    <g clip-path="url(#p346d0282fc)">
     <use xlink:href="#m9f65923191" x="197.75039" y="64.384881" style="fill: #2fa6bb; fill-opacity: 0.8"/>
    </g>
   </g>
   <g id="PathCollection_9">
    <defs>
     <path id="m478405f124" d="M 0 8 
C 2.121625 8 4.156639 7.15707 5.656854 5.656854 
C 7.15707 4.156639 8 2.121625 8 0 
C 8 -2.121625 7.15707 -4.156639 5.656854 -5.656854 
C 4.156639 -7.15707 2.121625 -8 0 -8 
C -2.121625 -8 -4.156639 -7.15707 -5.656854 -5.656854 
C -7.15707 -4.156639 -8 -2.121625 -8 0 
C -8 2.121625 -7.15707 4.156639 -5.656854 5.656854 
C -4.156639 7.15707 -2.121625 8 0 8 
z
"/>
    </defs>
    <g clip-path="url(#p346d0282fc)">
     <use xlink:href="#m478405f124" x="180.415119" y="81.990165" style="fill: #2d9eb8; fill-opacity: 0.8"/>
    </g>
   </g>
   <g id="PathCollection_10">
    <defs>
     <path id="m5f61c46f66" d="M 0 8 
C 2.121625 8 4.156639 7.15707 5.656854 5.656854 
C 7.15707 4.156639 8 2.121625 8 0 
C 8 -2.121625 7.15707 -4.156639 5.656854 -5.656854 
C 4.156639 -7.15707 2.121625 -8 0 -8 
C -2.121625 -8 -4.156639 -7.15707 -5.656854 -5.656854 
C -7.15707 -4.156639 -8 -2.121625 -8 0 
C -8 2.121625 -7.15707 4.156639 -5.656854 5.656854 
C -4.156639 7.15707 -2.121625 8 0 8 
z
"/>
    </defs>
    <g clip-path="url(#p346d0282fc)">
     <use xlink:href="#m5f61c46f66" x="162.809835" y="116.212451" style="fill: #2b95b5; fill-opacity: 0.8"/>
    </g>
   </g>
   <g id="PathCollection_11">
    <defs>
     <path id="m2f3bb0aa97" d="M 0 8 
C 2.121625 8 4.156639 7.15707 5.656854 5.656854 
C 7.15707 4.156639 8 2.121625 8 0 
C 8 -2.121625 7.15707 -4.156639 5.656854 -5.656854 
C 4.156639 -7.15707 2.121625 -8 0 -8 
C -2.121625 -8 -4.156639 -7.15707 -5.656854 -5.656854 
C -7.15707 -4.156639 -8 -2.121625 -8 0 
C -8 2.121625 -7.15707 4.156639 -5.656854 5.656854 
C -4.156639 7.15707 -2.121625 8 0 8 
z
"/>
    </defs>
    <g clip-path="url(#p346d0282fc)">
     <use xlink:href="#m2f3bb0aa97" x="128.587549" y="203.25924" style="fill: #288db2; fill-opacity: 0.8"/>
    </g>
   </g>
   <g id="PathCollection_12">
    <defs>
     <path id="m55466ca7e5" d="M 0 8 
C 2.121625 8 4.156639 7.15707 5.656854 5.656854 
C 7.15707 4.156639 8 2.121625 8 0 
C 8 -2.121625 7.15707 -4.156639 5.656854 -5.656854 
C 4.156639 -7.15707 2.121625 -8 0 -8 
C -2.121625 -8 -4.156639 -7.15707 -5.656854 -5.656854 
C -7.15707 -4.156639 -8 -2.121625 -8 0 
C -8 2.121625 -7.15707 4.156639 -5.656854 5.656854 
C -4.156639 7.15707 -2.121625 8 0 8 
z
"/>
    </defs>
    <g clip-path="url(#p346d0282fc)">
     <use xlink:href="#m55466ca7e5" x="41.54076" y="30.037029" style="fill: #2685af; fill-opacity: 0.8"/>
    </g>
   </g>
   <g id="PathCollection_13">
    <defs>
     <path id="mdc29a4322f" d="M 0 8 
C 2.121625 8 4.156639 7.15707 5.656854 5.656854 
C 7.15707 4.156639 8 2.121625 8 0 
C 8 -2.121625 7.15707 -4.156639 5.656854 -5.656854 
C 4.156639 -7.15707 2.121625 -8 0 -8 
C -2.121625 -8 -4.156639 -7.15707 -5.656854 -5.656854 
C -7.15707 -4.156639 -8 -2.121625 -8 0 
C -8 2.121625 -7.15707 4.156639 -5.656854 5.656854 
C -4.156639 7.15707 -2.121625 8 0 8 
z
"/>
    </defs>
    <g clip-path="url(#p346d0282fc)">
     <use xlink:href="#mdc29a4322f" x="214.762971" y="55.879905" style="fill: #247cac; fill-opacity: 0.8"/>
    </g>
   </g>
   <g id="PathCollection_14">
    <defs>
     <path id="mf228c74b12" d="M 0 8 
C 2.121625 8 4.156639 7.15707 5.656854 5.656854 
C 7.15707 4.156639 8 2.121625 8 0 
C 8 -2.121625 7.15707 -4.156639 5.656854 -5.656854 
C 4.156639 -7.15707 2.121625 -8 0 -8 
C -2.121625 -8 -4.156639 -7.15707 -5.656854 -5.656854 
C -7.15707 -4.156639 -8 -2.121625 -8 0 
C -8 2.121625 -7.15707 4.156639 -5.656854 5.656854 
C -4.156639 7.15707 -2.121625 8 0 8 
z
"/>
    </defs>
    <g clip-path="url(#p346d0282fc)">
     <use xlink:href="#mf228c74b12" x="188.920095" y="76.366625" style="fill: #2174a9; fill-opacity: 0.8"/>
    </g>
   </g>
   <g id="PathCollection_15">
    <defs>
     <path id="m063fe02e8f" d="M 0 8 
C 2.121625 8 4.156639 7.15707 5.656854 5.656854 
C 7.15707 4.156639 8 2.121625 8 0 
C 8 -2.121625 7.15707 -4.156639 5.656854 -5.656854 
C 4.156639 -7.15707 2.121625 -8 0 -8 
C -2.121625 -8 -4.156639 -7.15707 -5.656854 -5.656854 
C -7.15707 -4.156639 -8 -2.121625 -8 0 
C -8 2.121625 -7.15707 4.156639 -5.656854 5.656854 
C -4.156639 7.15707 -2.121625 8 0 8 
z
"/>
    </defs>
    <g clip-path="url(#p346d0282fc)">
     <use xlink:href="#m063fe02e8f" x="168.433375" y="110.238432" style="fill: #1f6ca7; fill-opacity: 0.8"/>
    </g>
   </g>
   <g id="PathCollection_16">
    <defs>
     <path id="m443c9a8abd" d="M 0 8 
C 2.121625 8 4.156639 7.15707 5.656854 5.656854 
C 7.15707 4.156639 8 2.121625 8 0 
C 8 -2.121625 7.15707 -4.156639 5.656854 -5.656854 
C 4.156639 -7.15707 2.121625 -8 0 -8 
C -2.121625 -8 -4.156639 -7.15707 -5.656854 -5.656854 
C -7.15707 -4.156639 -8 -2.121625 -8 0 
C -8 2.121625 -7.15707 4.156639 -5.656854 5.656854 
C -4.156639 7.15707 -2.121625 8 0 8 
z
"/>
    </defs>
    <g clip-path="url(#p346d0282fc)">
     <use xlink:href="#m443c9a8abd" x="134.561568" y="197.471205" style="fill: #1c64a4; fill-opacity: 0.8"/>
    </g>
   </g>
   <g id="PathCollection_17">
    <defs>
     <path id="maaa8075b25" d="M 0 8 
C 2.121625 8 4.156639 7.15707 5.656854 5.656854 
C 7.15707 4.156639 8 2.121625 8 0 
C 8 -2.121625 7.15707 -4.156639 5.656854 -5.656854 
C 4.156639 -7.15707 2.121625 -8 0 -8 
C -2.121625 -8 -4.156639 -7.15707 -5.656854 -5.656854 
C -7.15707 -4.156639 -8 -2.121625 -8 0 
C -8 2.121625 -7.15707 4.156639 -5.656854 5.656854 
C -4.156639 7.15707 -2.121625 8 0 8 
z
"/>
    </defs>
    <g clip-path="url(#p346d0282fc)">
     <use xlink:href="#maaa8075b25" x="47.328795" y="29.690166" style="fill: #1a5ba1; fill-opacity: 0.8"/>
    </g>
   </g>
   <g id="PathCollection_18">
    <defs>
     <path id="m00662cf0ac" d="M 0 8 
C 2.121625 8 4.156639 7.15707 5.656854 5.656854 
C 7.15707 4.156639 8 2.121625 8 0 
C 8 -2.121625 7.15707 -4.156639 5.656854 -5.656854 
C 4.156639 -7.15707 2.121625 -8 0 -8 
C -2.121625 -8 -4.156639 -7.15707 -5.656854 -5.656854 
C -7.15707 -4.156639 -8 -2.121625 -8 0 
C -8 2.121625 -7.15707 4.156639 -5.656854 5.656854 
C -4.156639 7.15707 -2.121625 8 0 8 
z
"/>
    </defs>
    <g clip-path="url(#p346d0282fc)">
     <use xlink:href="#m00662cf0ac" x="215.109834" y="57.430323" style="fill: #18539e; fill-opacity: 0.8"/>
    </g>
   </g>
   <g id="PathCollection_19">
    <defs>
     <path id="m327474bfa3" d="M 0 8 
C 2.121625 8 4.156639 7.15707 5.656854 5.656854 
C 7.15707 4.156639 8 2.121625 8 0 
C 8 -2.121625 7.15707 -4.156639 5.656854 -5.656854 
C 4.156639 -7.15707 2.121625 -8 0 -8 
C -2.121625 -8 -4.156639 -7.15707 -5.656854 -5.656854 
C -7.15707 -4.156639 -8 -2.121625 -8 0 
C -8 2.121625 -7.15707 4.156639 -5.656854 5.656854 
C -4.156639 7.15707 -2.121625 8 0 8 
z
"/>
    </defs>
    <g clip-path="url(#p346d0282fc)">
     <use xlink:href="#m327474bfa3" x="187.369677" y="81.490785" style="fill: #154b9b; fill-opacity: 0.8"/>
    </g>
   </g>
   <g id="PathCollection_20">
    <defs>
     <path id="m1f6b21c254" d="M 0 8 
C 2.121625 8 4.156639 7.15707 5.656854 5.656854 
C 7.15707 4.156639 8 2.121625 8 0 
C 8 -2.121625 7.15707 -4.156639 5.656854 -5.656854 
C 4.156639 -7.15707 2.121625 -8 0 -8 
C -2.121625 -8 -4.156639 -7.15707 -5.656854 -5.656854 
C -7.15707 -4.156639 -8 -2.121625 -8 0 
C -8 2.121625 -7.15707 4.156639 -5.656854 5.656854 
C -4.156639 7.15707 -2.121625 8 0 8 
z
"/>
    </defs>
    <g clip-path="url(#p346d0282fc)">
     <use xlink:href="#m1f6b21c254" x="163.309215" y="128.070922" style="fill: #134298; fill-opacity: 0.8"/>
    </g>
   </g>
   <g id="PathCollection_21">
    <defs>
     <path id="m37d67ec73e" d="M 0 8 
C 2.121625 8 4.156639 7.15707 5.656854 5.656854 
C 7.15707 4.156639 8 2.121625 8 0 
C 8 -2.121625 7.15707 -4.156639 5.656854 -5.656854 
C 4.156639 -7.15707 2.121625 -8 0 -8 
C -2.121625 -8 -4.156639 -7.15707 -5.656854 -5.656854 
C -7.15707 -4.156639 -8 -2.121625 -8 0 
C -8 2.121625 -7.15707 4.156639 -5.656854 5.656854 
C -4.156639 7.15707 -2.121625 8 0 8 
z
"/>
    </defs>
    <g clip-path="url(#p346d0282fc)">
     <use xlink:href="#m37d67ec73e" x="116.729078" y="228.539163" style="fill: #113a95; fill-opacity: 0.8"/>
    </g>
   </g>
   <g id="PathCollection_22">
    <defs>
     <path id="m846810c3df" d="M 0 8 
C 2.121625 8 4.156639 7.15707 5.656854 5.656854 
C 7.15707 4.156639 8 2.121625 8 0 
C 8 -2.121625 7.15707 -4.156639 5.656854 -5.656854 
C 4.156639 -7.15707 2.121625 -8 0 -8 
C -2.121625 -8 -4.156639 -7.15707 -5.656854 -5.656854 
C -7.15707 -4.156639 -8 -2.121625 -8 0 
C -8 2.121625 -7.15707 4.156639 -5.656854 5.656854 
C -4.156639 7.15707 -2.121625 8 0 8 
z
"/>
    </defs>
    <g clip-path="url(#p346d0282fc)">
     <use xlink:href="#m846810c3df" x="16.260837" y="40.445141" style="fill: #0e3292; fill-opacity: 0.8"/>
    </g>
   </g>
   <g id="PathCollection_23">
    <defs>
     <path id="m1ac80eef36" d="M 0 8 
C 2.121625 8 4.156639 7.15707 5.656854 5.656854 
C 7.15707 4.156639 8 2.121625 8 0 
C 8 -2.121625 7.15707 -4.156639 5.656854 -5.656854 
C 4.156639 -7.15707 2.121625 -8 0 -8 
C -2.121625 -8 -4.156639 -7.15707 -5.656854 -5.656854 
C -7.15707 -4.156639 -8 -2.121625 -8 0 
C -8 2.121625 -7.15707 4.156639 -5.656854 5.656854 
C -4.156639 7.15707 -2.121625 8 0 8 
z
"/>
    </defs>
    <g clip-path="url(#p346d0282fc)">
     <use xlink:href="#m1ac80eef36" x="204.354859" y="65.804893" style="fill: #0c298f; fill-opacity: 0.8"/>
    </g>
   </g>
   <g id="PathCollection_24">
    <defs>
     <path id="m4aa5aa6b93" d="M 0 8 
C 2.121625 8 4.156639 7.15707 5.656854 5.656854 
C 7.15707 4.156639 8 2.121625 8 0 
C 8 -2.121625 7.15707 -4.156639 5.656854 -5.656854 
C 4.156639 -7.15707 2.121625 -8 0 -8 
C -2.121625 -8 -4.156639 -7.15707 -5.656854 -5.656854 
C -7.15707 -4.156639 -8 -2.121625 -8 0 
C -8 2.121625 -7.15707 4.156639 -5.656854 5.656854 
C -4.156639 7.15707 -2.121625 8 0 8 
z
"/>
    </defs>
    <g clip-path="url(#p346d0282fc)">
     <use xlink:href="#m4aa5aa6b93" x="178.995107" y="95.229695" style="fill: #09218c; fill-opacity: 0.8"/>
    </g>
   </g>
   <g id="PathCollection_25">
    <defs>
     <path id="mf6c13b4032" d="M 0 8 
C 2.121625 8 4.156639 7.15707 5.656854 5.656854 
C 7.15707 4.156639 8 2.121625 8 0 
C 8 -2.121625 7.15707 -4.156639 5.656854 -5.656854 
C 4.156639 -7.15707 2.121625 -8 0 -8 
C -2.121625 -8 -4.156639 -7.15707 -5.656854 -5.656854 
C -7.15707 -4.156639 -8 -2.121625 -8 0 
C -8 2.121625 -7.15707 4.156639 -5.656854 5.656854 
C -4.156639 7.15707 -2.121625 8 0 8 
z
"/>
    </defs>
    <g clip-path="url(#p346d0282fc)">
     <use xlink:href="#mf6c13b4032" x="149.570305" y="168.928139" style="fill: #071989; fill-opacity: 0.8"/>
    </g>
   </g>
   <g id="PathCollection_26">
    <defs>
     <path id="m38a4622ec6" d="M 0 8 
C 2.121625 8 4.156639 7.15707 5.656854 5.656854 
C 7.15707 4.156639 8 2.121625 8 0 
C 8 -2.121625 7.15707 -4.156639 5.656854 -5.656854 
C 4.156639 -7.15707 2.121625 -8 0 -8 
C -2.121625 -8 -4.156639 -7.15707 -5.656854 -5.656854 
C -7.15707 -4.156639 -8 -2.121625 -8 0 
C -8 2.121625 -7.15707 4.156639 -5.656854 5.656854 
C -4.156639 7.15707 -2.121625 8 0 8 
z
"/>
    </defs>
    <g clip-path="url(#p346d0282fc)">
     <use xlink:href="#m38a4622ec6" x="75.871861" y="20.268846" style="fill: #051186; fill-opacity: 0.8"/>
    </g>
   </g>
   <g id="PathCollection_27">
    <defs>
     <path id="m63f5035929" d="M 0 8 
C 2.121625 8 4.156639 7.15707 5.656854 5.656854 
C 7.15707 4.156639 8 2.121625 8 0 
C 8 -2.121625 7.15707 -4.156639 5.656854 -5.656854 
C 4.156639 -7.15707 2.121625 -8 0 -8 
C -2.121625 -8 -4.156639 -7.15707 -5.656854 -5.656854 
C -7.15707 -4.156639 -8 -2.121625 -8 0 
C -8 2.121625 -7.15707 4.156639 -5.656854 5.656854 
C -4.156639 7.15707 -2.121625 8 0 8 
z
"/>
    </defs>
    <g clip-path="url(#p346d0282fc)">
     <use xlink:href="#m63f5035929" x="224.531154" y="53.611643" style="fill: #020883; fill-opacity: 0.8"/>
    </g>
   </g>
   <g id="PathCollection_28">
    <defs>
     <path id="m05d61b6932" d="M 0 8 
C 2.121625 8 4.156639 7.15707 5.656854 5.656854 
C 7.15707 4.156639 8 2.121625 8 0 
C 8 -2.121625 7.15707 -4.156639 5.656854 -5.656854 
C 4.156639 -7.15707 2.121625 -8 0 -8 
C -2.121625 -8 -4.156639 -7.15707 -5.656854 -5.656854 
C -7.15707 -4.156639 -8 -2.121625 -8 0 
C -8 2.121625 -7.15707 4.156639 -5.656854 5.656854 
C -4.156639 7.15707 -2.121625 8 0 8 
z
"/>
    </defs>
    <g clip-path="url(#p346d0282fc)">
     <use xlink:href="#m05d61b6932" x="191.188357" y="79.090731" style="fill: #000080; fill-opacity: 0.8"/>
    </g>
   </g>
   <g id="patch_3">
    <path d="M 2.834646 241.965354 
L 2.834646 2.834646 
" style="fill: none; stroke: #000000; stroke-width: 2; stroke-linejoin: miter; stroke-linecap: square"/>
   </g>
   <g id="patch_4">
    <path d="M 2.834646 241.965354 
L 241.965354 241.965354 
" style="fill: none; stroke: #000000; stroke-width: 2; stroke-linejoin: miter; stroke-linecap: square"/>
   </g>
  </g>
 </g>
 <defs>
  <clipPath id="p346d0282fc">
   <rect x="2.834646" y="2.834646" width="239.130709" height="239.130709"/>
  </clipPath>
 </defs>
</svg>
