<?xml version="1.0" encoding="utf-8" standalone="no"?>
<!DOCTYPE svg PUBLIC "-//W3C//DTD SVG 1.1//EN"
  "http://www.w3.org/Graphics/SVG/1.1/DTD/svg11.dtd">
<svg xmlns:xlink="http://www.w3.org/1999/xlink" width="835.2pt" height="100.8pt" viewBox="0 0 835.2 100.8" xmlns="http://www.w3.org/2000/svg" version="1.1">
 <metadata>
  <rdf:RDF xmlns:dc="http://purl.org/dc/elements/1.1/" xmlns:cc="http://creativecommons.org/ns#" xmlns:rdf="http://www.w3.org/1999/02/22-rdf-syntax-ns#">
   <cc:Work>
    <dc:type rdf:resource="http://purl.org/dc/dcmitype/StillImage"/>
    <dc:date>2024-07-16T17:24:05.331966</dc:date>
    <dc:format>image/svg+xml</dc:format>
    <dc:creator>
     <cc:Agent>
      <dc:title>Matplotlib v3.8.4, https://matplotlib.org/</dc:title>
     </cc:Agent>
    </dc:creator>
   </cc:Work>
  </rdf:RDF>
 </metadata>
 <defs>
  <style type="text/css">*{stroke-linejoin: round; stroke-linecap: butt}</style>
 </defs>
 <g id="figure_1">
  <g id="patch_1">
   <path d="M 0 100.8 
L 835.2 100.8 
L 835.2 0 
L 0 0 
L 0 100.8 
z
" style="fill: none"/>
  </g>
  <g id="axes_1">
   <g id="patch_2">
    <path d="M 41.316477 83.602034 
L 832.365354 83.602034 
L 832.365354 11.437966 
L 41.316477 11.437966 
L 41.316477 83.602034 
z
" style="fill: none"/>
   </g>
   <g id="line2d_1">
    <path d="M 63.704653 13.480346 
L 65.197198 13.631415 
L 66.689743 14.083282 
L 68.182288 14.831935 
L 69.674833 15.87073 
L 71.167378 17.190446 
L 72.659923 18.77937 
L 74.152468 20.623397 
L 75.645013 22.70616 
L 78.630103 27.511994 
L 81.615193 33.026621 
L 84.600283 39.054683 
L 96.540644 63.918729 
L 99.525734 69.217693 
L 101.018279 71.589671 
L 102.510824 73.748005 
L 104.003369 75.673537 
L 105.495914 77.349177 
L 106.988459 78.760051 
L 108.481004 79.893635 
L 109.973549 80.739869 
L 111.466094 81.291242 
L 112.958639 81.542858 
L 114.451184 81.492485 
L 115.943729 81.14057 
L 117.436274 80.490236 
L 118.928819 79.547256 
L 120.421364 78.32 
L 121.91391 76.819361 
L 123.406455 75.058658 
L 124.899 73.053521 
L 126.391545 70.821746 
L 129.376635 65.759358 
L 132.361725 60.050832 
L 136.83936 50.723414 
L 142.80954 38.023238 
L 145.79463 32.06632 
L 148.77972 26.656855 
L 151.764811 21.986478 
L 153.257356 19.981341 
L 154.749901 18.220639 
L 156.242446 16.72 
L 157.734991 15.492744 
L 159.227536 14.549764 
L 160.720081 13.89943 
L 162.212626 13.547515 
L 163.705171 13.497142 
L 165.197716 13.748759 
L 166.690261 14.300131 
L 168.182806 15.146365 
L 169.675351 16.27995 
L 171.167896 17.690824 
L 172.660441 19.366464 
L 174.152986 21.291996 
L 175.645531 23.45033 
L 178.630622 28.386877 
L 181.615712 34.001224 
L 184.600802 40.09448 
L 195.048617 62.013381 
L 198.033707 67.528007 
L 201.018797 72.333841 
L 202.511342 74.416604 
L 204.003887 76.260631 
L 205.496432 77.849554 
L 206.988978 79.16927 
L 208.481523 80.208065 
L 209.974068 80.956719 
L 211.466613 81.408585 
L 212.959158 81.559654 
L 214.451703 81.408585 
L 215.944248 80.956718 
L 217.436793 80.208065 
L 218.929338 79.16927 
L 220.421883 77.849554 
L 221.914428 76.26063 
L 223.406973 74.416603 
L 224.899518 72.33384 
L 227.884608 67.528006 
L 230.869698 62.013379 
L 233.854788 55.985317 
L 245.795149 31.121271 
L 248.780239 25.822307 
L 250.272784 23.450329 
L 251.765329 21.291995 
L 253.257874 19.366463 
L 254.750419 17.690823 
L 256.242964 16.279949 
L 257.735509 15.146365 
L 259.228054 14.300131 
L 260.720599 13.748758 
L 262.213144 13.497142 
L 263.705689 13.547515 
L 265.198235 13.89943 
L 266.69078 14.549764 
L 268.183325 15.492744 
L 269.67587 16.72 
L 271.168415 18.220639 
L 272.66096 19.981342 
L 274.153505 21.986479 
L 275.64605 24.218254 
L 278.63114 29.280642 
L 281.61623 34.989168 
L 286.093865 44.316586 
L 292.064045 57.016762 
L 295.049136 62.97368 
L 298.034226 68.383145 
L 301.019316 73.053522 
L 302.511861 75.058659 
L 304.004406 76.819361 
L 305.496951 78.32 
L 306.989496 79.547256 
L 308.482041 80.490236 
L 309.974586 81.14057 
L 311.467131 81.492485 
L 312.959676 81.542858 
L 314.452221 81.291241 
L 315.944766 80.739869 
L 317.437311 79.893635 
L 318.929856 78.76005 
L 320.422401 77.349176 
L 321.914947 75.673536 
L 323.407492 73.748004 
L 324.900037 71.58967 
L 327.885127 66.653123 
L 330.870217 61.038776 
L 333.855307 54.94552 
L 344.303122 33.026619 
L 347.288212 27.511993 
L 350.273303 22.706159 
L 351.765848 20.623396 
L 353.258393 18.779369 
L 354.750938 17.190446 
L 356.243483 15.87073 
L 357.736028 14.831935 
L 359.228573 14.083281 
L 360.721118 13.631415 
L 362.213663 13.480346 
L 363.706208 13.631415 
L 365.198753 14.083282 
L 366.691298 14.831935 
L 368.183843 15.87073 
L 369.676388 17.190446 
L 371.168933 18.77937 
L 372.661478 20.623397 
L 374.154023 22.70616 
L 377.139113 27.511994 
L 380.124204 33.026621 
L 383.109294 39.054683 
L 395.049654 63.918729 
L 398.034744 69.217693 
L 399.527289 71.589671 
L 401.019834 73.748005 
L 402.512379 75.673537 
L 404.004924 77.349177 
L 405.497469 78.760051 
L 406.990014 79.893635 
L 408.48256 80.739869 
L 409.975105 81.291242 
L 411.46765 81.542858 
L 412.960195 81.492485 
L 414.45274 81.14057 
L 415.945285 80.490236 
L 417.43783 79.547256 
L 418.930375 78.32 
L 420.42292 76.819361 
L 421.915465 75.058658 
L 423.40801 73.053521 
L 424.900555 70.821746 
L 427.885645 65.759358 
L 430.870735 60.050832 
L 435.34837 50.723414 
L 441.318551 38.023238 
L 444.303641 32.06632 
L 447.288731 26.656855 
L 450.273821 21.986478 
L 451.766366 19.981341 
L 453.258911 18.220639 
L 454.751456 16.72 
L 456.244001 15.492744 
L 457.736546 14.549764 
L 459.229091 13.89943 
L 460.721636 13.547515 
L 462.214181 13.497142 
L 463.706726 13.748759 
L 465.199272 14.300131 
L 466.691817 15.146365 
L 468.184362 16.27995 
L 469.676907 17.690824 
L 471.169452 19.366464 
L 472.661997 21.291996 
L 474.154542 23.45033 
L 477.139632 28.386877 
L 480.124722 34.001224 
L 483.109812 40.09448 
L 493.557628 62.013381 
L 496.542718 67.528007 
L 499.527808 72.333841 
L 501.020353 74.416604 
L 502.512898 76.260631 
L 504.005443 77.849554 
L 505.497988 79.16927 
L 506.990533 80.208065 
L 508.483078 80.956719 
L 509.975623 81.408585 
L 511.468168 81.559654 
L 512.960713 81.408585 
L 514.453258 80.956718 
L 515.945803 80.208065 
L 517.438348 79.16927 
L 518.930893 77.849554 
L 520.423438 76.26063 
L 521.915983 74.416603 
L 523.408529 72.33384 
L 526.393619 67.528006 
L 529.378709 62.013379 
L 532.363799 55.985317 
L 544.304159 31.121271 
L 547.289249 25.822307 
L 548.781794 23.450329 
L 550.274339 21.291995 
L 551.766885 19.366463 
L 553.25943 17.690823 
L 554.751975 16.279949 
L 556.24452 15.146365 
L 557.737065 14.300131 
L 559.22961 13.748758 
L 560.722155 13.497142 
L 562.2147 13.547515 
L 563.707245 13.89943 
L 565.19979 14.549764 
L 566.692335 15.492744 
L 568.18488 16.72 
L 569.677425 18.220639 
L 571.16997 19.981342 
L 572.662515 21.986479 
L 574.15506 24.218254 
L 577.14015 29.280642 
L 580.125241 34.989168 
L 584.602876 44.316586 
L 590.573056 57.016762 
L 593.558146 62.97368 
L 596.543236 68.383145 
L 599.528326 73.053522 
L 601.020871 75.058659 
L 602.513416 76.819361 
L 604.005961 78.32 
L 605.498506 79.547256 
L 606.991051 80.490236 
L 608.483597 81.14057 
L 609.976142 81.492485 
L 611.468687 81.542858 
L 612.961232 81.291241 
L 614.453777 80.739869 
L 615.946322 79.893635 
L 617.438867 78.76005 
L 618.931412 77.349176 
L 620.423957 75.673536 
L 621.916502 73.748004 
L 623.409047 71.58967 
L 626.394137 66.653123 
L 629.379227 61.038776 
L 632.364317 54.94552 
L 642.812133 33.026619 
L 645.797223 27.511993 
L 648.782313 22.706159 
L 650.274858 20.623396 
L 651.767403 18.779369 
L 653.259948 17.190446 
L 654.752493 15.87073 
L 656.245038 14.831935 
L 657.737583 14.083281 
L 659.230128 13.631415 
L 660.722673 13.480346 
L 662.215218 13.631415 
L 663.707763 14.083282 
L 665.200308 14.831935 
L 666.692854 15.87073 
L 668.185399 17.190446 
L 669.677944 18.77937 
L 671.170489 20.623397 
L 672.663034 22.70616 
L 675.648124 27.511994 
L 678.633214 33.026621 
L 681.618304 39.054683 
L 693.558664 63.918729 
L 696.543755 69.217693 
L 698.0363 71.589671 
L 699.528845 73.748005 
L 701.02139 75.673537 
L 702.513935 77.349177 
L 704.00648 78.760051 
L 705.499025 79.893635 
L 706.99157 80.739869 
L 708.484115 81.291242 
L 709.97666 81.542858 
L 711.469205 81.492485 
L 712.96175 81.14057 
L 714.454295 80.490236 
L 715.94684 79.547256 
L 717.439385 78.32 
L 718.93193 76.819361 
L 720.424475 75.058658 
L 721.91702 73.053521 
L 723.409566 70.821746 
L 726.394656 65.759358 
L 729.379746 60.050832 
L 733.857381 50.723414 
L 739.827561 38.023238 
L 742.812651 32.06632 
L 745.797741 26.656855 
L 748.782831 21.986478 
L 750.275376 19.981341 
L 751.767922 18.220639 
L 753.260467 16.72 
L 754.753012 15.492744 
L 756.245557 14.549764 
L 757.738102 13.89943 
L 759.230647 13.547515 
L 760.723192 13.497142 
L 762.215737 13.748759 
L 763.708282 14.300131 
L 765.200827 15.146365 
L 766.693372 16.27995 
L 768.185917 17.690824 
L 769.678462 19.366464 
L 771.171007 21.291996 
L 772.663552 23.45033 
L 775.648642 28.386877 
L 778.633732 34.001224 
L 781.618823 40.09448 
L 792.066638 62.013381 
L 795.051728 67.528007 
L 798.036818 72.333841 
L 799.529363 74.416604 
L 801.021908 76.260631 
L 802.514453 77.849554 
L 804.006998 79.16927 
L 805.499543 80.208065 
L 806.992088 80.956719 
L 808.484633 81.408585 
L 809.977179 81.559654 
L 809.977179 81.559654 
" clip-path="url(#p11df161d84)" style="fill: none; stroke: #e36f47; stroke-opacity: 0.33; stroke-width: 4"/>
   </g>
   <g id="matplotlib.axis_1">
    <g id="xtick_1"/>
    <g id="xtick_2"/>
    <g id="xtick_3"/>
    <g id="xtick_4"/>
    <g id="xtick_5"/>
    <g id="xtick_6"/>
   </g>
   <g id="matplotlib.axis_2">
    <g id="ytick_1">
     <g id="line2d_2">
      <defs>
       <path id="ma72039c20e" d="M 0 0 
L 5 0 
" style="stroke: #000000"/>
      </defs>
      <g>
       <use xlink:href="#ma72039c20e" x="41.316477" y="81.559654" style="stroke: #000000"/>
      </g>
     </g>
     <g id="text_1">
      <!-- $-1$ -->
      <g transform="translate(1.976477 92.197467) scale(0.28 -0.28)">
       <defs>
        <path id="Cmsy10-a1" d="M 653 1472 
Q 600 1472 565 1512 
Q 531 1553 531 1600 
Q 531 1647 565 1687 
Q 600 1728 653 1728 
L 4325 1728 
Q 4375 1728 4408 1687 
Q 4441 1647 4441 1600 
Q 4441 1553 4408 1512 
Q 4375 1472 4325 1472 
L 653 1472 
z
" transform="scale(0.015625)"/>
        <path id="Cmr10-31" d="M 594 0 
L 594 225 
Q 1394 225 1394 428 
L 1394 3788 
Q 1063 3628 556 3628 
L 556 3853 
Q 1341 3853 1741 4263 
L 1831 4263 
Q 1853 4263 1873 4245 
Q 1894 4228 1894 4206 
L 1894 428 
Q 1894 225 2694 225 
L 2694 0 
L 594 0 
z
" transform="scale(0.015625)"/>
       </defs>
       <use xlink:href="#Cmsy10-a1" transform="translate(0 0.390625)"/>
       <use xlink:href="#Cmr10-31" transform="translate(77.685547 0.390625)"/>
      </g>
     </g>
    </g>
    <g id="ytick_2">
     <g id="line2d_3">
      <g>
       <use xlink:href="#ma72039c20e" x="41.316477" y="47.52" style="stroke: #000000"/>
      </g>
     </g>
     <g id="text_2">
      <!-- $0$ -->
      <g transform="translate(23.816477 58.157813) scale(0.28 -0.28)">
       <defs>
        <path id="Cmr10-30" d="M 1600 -141 
Q 816 -141 533 504 
Q 250 1150 250 2041 
Q 250 2597 351 3087 
Q 453 3578 754 3920 
Q 1056 4263 1600 4263 
Q 2022 4263 2290 4056 
Q 2559 3850 2700 3523 
Q 2841 3197 2892 2823 
Q 2944 2450 2944 2041 
Q 2944 1491 2842 1011 
Q 2741 531 2444 195 
Q 2147 -141 1600 -141 
z
M 1600 25 
Q 1956 25 2131 390 
Q 2306 756 2347 1200 
Q 2388 1644 2388 2144 
Q 2388 2625 2347 3031 
Q 2306 3438 2132 3767 
Q 1959 4097 1600 4097 
Q 1238 4097 1063 3765 
Q 888 3434 847 3029 
Q 806 2625 806 2144 
Q 806 1788 823 1472 
Q 841 1156 916 820 
Q 991 484 1158 254 
Q 1325 25 1600 25 
z
" transform="scale(0.015625)"/>
       </defs>
       <use xlink:href="#Cmr10-30" transform="translate(0 0.390625)"/>
      </g>
     </g>
    </g>
    <g id="ytick_3">
     <g id="line2d_4">
      <g>
       <use xlink:href="#ma72039c20e" x="41.316477" y="13.480346" style="stroke: #000000"/>
      </g>
     </g>
     <g id="text_3">
      <!-- $1$ -->
      <g transform="translate(23.816477 24.118158) scale(0.28 -0.28)">
       <use xlink:href="#Cmr10-31" transform="translate(0 0.390625)"/>
      </g>
     </g>
    </g>
   </g>
   <g id="line2d_5">
    <path d="M 63.704653 13.480346 
L 65.197198 13.631416 
L 66.689743 14.083284 
L 68.182288 14.831938 
L 69.674833 15.870734 
L 71.167378 17.190451 
L 72.659923 18.779375 
L 74.152468 20.623403 
L 75.645013 22.706168 
L 78.630103 27.512002 
L 81.615193 33.02663 
L 84.600283 39.054693 
L 96.540644 63.918738 
L 99.525734 69.217701 
L 101.018279 71.589678 
L 102.510824 73.748012 
L 104.003369 75.673543 
L 105.495914 77.349182 
L 106.988459 78.760055 
L 108.481004 79.893639 
L 109.973549 80.739872 
L 111.466094 81.291243 
L 112.958639 81.542858 
L 114.451184 81.492484 
L 115.943729 81.140568 
L 117.436274 80.490233 
L 118.928819 79.547252 
L 120.421364 78.319995 
L 121.91391 76.819355 
L 123.406455 75.058652 
L 124.899 73.053514 
L 126.391545 70.821739 
L 129.376635 65.759349 
L 132.361725 60.050822 
L 136.83936 50.723403 
L 142.80954 38.023228 
L 145.79463 32.06631 
L 148.77972 26.656847 
L 151.764811 21.986471 
L 153.257356 19.981334 
L 154.749901 18.220633 
L 156.242446 16.719995 
L 157.734991 15.49274 
L 159.227536 14.549761 
L 160.720081 13.899429 
L 162.212626 13.547514 
L 163.705171 13.497143 
L 165.197716 13.74876 
L 166.690261 14.300133 
L 168.182806 15.146368 
L 169.675351 16.279954 
L 171.167896 17.690829 
L 172.660441 19.36647 
L 174.152986 21.292003 
L 175.645531 23.450338 
L 178.630622 28.386886 
L 181.615712 34.001234 
L 184.600802 40.094491 
L 195.048617 62.01339 
L 198.033707 67.528016 
L 201.018797 72.333848 
L 202.511342 74.41661 
L 204.003887 76.260637 
L 205.496432 77.849559 
L 206.988978 79.169274 
L 208.481523 80.208068 
L 209.974068 80.956721 
L 211.466613 81.408586 
L 212.959158 81.559654 
L 214.451703 81.408584 
L 215.944248 80.956716 
L 217.436793 80.208062 
L 218.929338 79.169266 
L 220.421883 77.849549 
L 221.914428 76.260625 
L 223.406973 74.416596 
L 224.899518 72.333832 
L 227.884608 67.527998 
L 230.869698 62.01337 
L 233.854788 55.985307 
L 245.795149 31.121261 
L 248.780239 25.822299 
L 250.272784 23.450321 
L 251.765329 21.291988 
L 253.257874 19.366457 
L 254.750419 17.690818 
L 256.242964 16.279945 
L 257.735509 15.146361 
L 259.228054 14.300128 
L 260.720599 13.748757 
L 262.213144 13.497142 
L 263.705689 13.547516 
L 265.198235 13.899432 
L 266.69078 14.549767 
L 268.183325 15.492748 
L 269.67587 16.720005 
L 271.168415 18.220645 
L 272.66096 19.981348 
L 274.153505 21.986486 
L 275.64605 24.218262 
L 278.63114 29.280651 
L 281.61623 34.989178 
L 286.093865 44.316597 
L 292.064045 57.016772 
L 295.049136 62.97369 
L 298.034226 68.383153 
L 301.019316 73.053529 
L 302.511861 75.058666 
L 304.004406 76.819367 
L 305.496951 78.320005 
L 306.989496 79.54726 
L 308.482041 80.490239 
L 309.974586 81.140571 
L 311.467131 81.492486 
L 312.959676 81.542857 
L 314.452221 81.29124 
L 315.944766 80.739867 
L 317.437311 79.893631 
L 318.929856 78.760046 
L 320.422401 77.349171 
L 321.914947 75.67353 
L 323.407492 73.747997 
L 324.900037 71.589662 
L 327.885127 66.653114 
L 330.870217 61.038766 
L 333.855307 54.945509 
L 344.303122 33.02661 
L 347.288212 27.511984 
L 350.273303 22.706152 
L 351.765848 20.623389 
L 353.258393 18.779363 
L 354.750938 17.190441 
L 356.243483 15.870726 
L 357.736028 14.831932 
L 359.228573 14.083279 
L 360.721118 13.631414 
L 362.213663 13.480346 
L 363.706208 13.631416 
L 365.198753 14.083284 
L 366.691298 14.831938 
L 368.183843 15.870734 
L 369.676388 17.190451 
L 371.168933 18.779376 
L 372.661478 20.623404 
L 374.154023 22.706168 
L 377.139113 27.512003 
L 380.124204 33.026631 
L 383.109294 39.054694 
L 395.049654 63.918739 
L 398.034744 69.217701 
L 399.527289 71.589679 
L 401.019834 73.748012 
L 402.512379 75.673543 
L 404.004924 77.349182 
L 405.497469 78.760055 
L 406.990014 79.893639 
L 408.48256 80.739872 
L 409.975105 81.291243 
L 411.46765 81.542858 
L 412.960195 81.492484 
L 414.45274 81.140568 
L 415.945285 80.490233 
L 417.43783 79.547252 
L 418.930375 78.319995 
L 420.42292 76.819355 
L 421.915465 75.058652 
L 423.40801 73.053514 
L 424.900555 70.821738 
L 427.885645 65.759349 
L 430.870735 60.050822 
L 435.34837 50.723403 
L 441.318551 38.023228 
L 444.303641 32.06631 
L 447.288731 26.656846 
L 450.273821 21.986471 
L 451.766366 19.981334 
L 453.258911 18.220633 
L 454.751456 16.719995 
L 456.244001 15.49274 
L 457.736546 14.549761 
L 459.229091 13.899428 
L 460.721636 13.547514 
L 462.214181 13.497143 
L 463.706726 13.74876 
L 465.199272 14.300133 
L 466.691817 15.146369 
L 468.184362 16.279954 
L 469.676907 17.690829 
L 471.169452 19.36647 
L 472.661997 21.292003 
L 474.154542 23.450338 
L 477.139632 28.386886 
L 480.124722 34.001234 
L 483.109812 40.094491 
L 493.557628 62.013391 
L 496.542718 67.528016 
L 499.527808 72.333848 
L 501.020353 74.416611 
L 502.512898 76.260637 
L 504.005443 77.849559 
L 505.497988 79.169275 
L 506.990533 80.208068 
L 508.483078 80.956721 
L 509.975623 81.408586 
L 511.468168 81.559654 
L 512.960713 81.408584 
L 514.453258 80.956716 
L 515.945803 80.208062 
L 517.438348 79.169266 
L 518.930893 77.849549 
L 520.423438 76.260624 
L 521.915983 74.416596 
L 523.408529 72.333832 
L 526.393619 67.527997 
L 529.378709 62.013369 
L 532.363799 55.985306 
L 544.304159 31.121261 
L 547.289249 25.822299 
L 548.781794 23.450321 
L 550.274339 21.291988 
L 551.766885 19.366456 
L 553.25943 17.690818 
L 554.751975 16.279945 
L 556.24452 15.146361 
L 557.737065 14.300128 
L 559.22961 13.748757 
L 560.722155 13.497142 
L 562.2147 13.547516 
L 563.707245 13.899432 
L 565.19979 14.549767 
L 566.692335 15.492748 
L 568.18488 16.720005 
L 569.677425 18.220645 
L 571.16997 19.981348 
L 572.662515 21.986486 
L 574.15506 24.218262 
L 577.14015 29.280651 
L 580.125241 34.989179 
L 584.602876 44.316597 
L 590.573056 57.016772 
L 593.558146 62.97369 
L 596.543236 68.383154 
L 599.528326 73.053529 
L 601.020871 75.058666 
L 602.513416 76.819367 
L 604.005961 78.320005 
L 605.498506 79.54726 
L 606.991051 80.490239 
L 608.483597 81.140572 
L 609.976142 81.492486 
L 611.468687 81.542857 
L 612.961232 81.29124 
L 614.453777 80.739867 
L 615.946322 79.893631 
L 617.438867 78.760045 
L 618.931412 77.349171 
L 620.423957 75.67353 
L 621.916502 73.747997 
L 623.409047 71.589662 
L 626.394137 66.653114 
L 629.379227 61.038766 
L 632.364317 54.945509 
L 642.812133 33.026609 
L 645.797223 27.511984 
L 648.782313 22.706152 
L 650.274858 20.623389 
L 651.767403 18.779363 
L 653.259948 17.19044 
L 654.752493 15.870725 
L 656.245038 14.831932 
L 657.737583 14.083279 
L 659.230128 13.631414 
L 660.722673 13.480346 
L 662.215218 13.631416 
L 663.707763 14.083284 
L 665.200308 14.831938 
L 666.692854 15.870734 
L 668.185399 17.190451 
L 669.677944 18.779376 
L 671.170489 20.623404 
L 672.663034 22.706168 
L 675.648124 27.512003 
L 678.633214 33.026631 
L 681.618304 39.054694 
L 693.558664 63.918739 
L 696.543755 69.217702 
L 698.0363 71.589679 
L 699.528845 73.748012 
L 701.02139 75.673544 
L 702.513935 77.349182 
L 704.00648 78.760055 
L 705.499025 79.893639 
L 706.99157 80.739872 
L 708.484115 81.291243 
L 709.97666 81.542858 
L 711.469205 81.492484 
L 712.96175 81.140568 
L 714.454295 80.490233 
L 715.94684 79.547252 
L 717.439385 78.319995 
L 718.93193 76.819355 
L 720.424475 75.058652 
L 721.91702 73.053514 
L 723.409566 70.821738 
L 726.394656 65.759349 
L 729.379746 60.050821 
L 733.857381 50.723402 
L 739.827561 38.023228 
L 742.812651 32.06631 
L 745.797741 26.656846 
L 748.782831 21.986471 
L 750.275376 19.981334 
L 751.767922 18.220633 
L 753.260467 16.719995 
L 754.753012 15.49274 
L 756.245557 14.549761 
L 757.738102 13.899428 
L 759.230647 13.547514 
L 760.723192 13.497143 
L 762.215737 13.74876 
L 763.708282 14.300133 
L 765.200827 15.146369 
L 766.693372 16.279955 
L 768.185917 17.690829 
L 769.678462 19.36647 
L 771.171007 21.292003 
L 772.663552 23.450338 
L 775.648642 28.386886 
L 778.633732 34.001234 
L 781.618823 40.094491 
L 792.066638 62.013391 
L 795.051728 67.528017 
L 798.036818 72.333848 
L 799.529363 74.416611 
L 801.021908 76.260637 
L 802.514453 77.84956 
L 804.006998 79.169275 
L 805.499543 80.208068 
L 806.992088 80.956721 
L 808.484633 81.408586 
L 809.977179 81.559654 
L 809.977179 81.559654 
" clip-path="url(#p11df161d84)" style="fill: none; stroke: #e36f47; stroke-opacity: 0.66; stroke-width: 4"/>
   </g>
   <g id="patch_3">
    <path d="M 41.316477 83.602034 
L 41.316477 11.437966 
" style="fill: none; stroke: #000000; stroke-width: 2; stroke-linejoin: miter; stroke-linecap: square"/>
   </g>
   <g id="line2d_6">
    <path d="M 63.704653 13.480346 
L 65.197198 13.631434 
L 66.689743 14.083319 
L 68.182288 14.83199 
L 69.674833 15.870803 
L 71.167378 17.190536 
L 72.659923 18.779476 
L 74.152468 20.623519 
L 75.645013 22.706296 
L 78.630103 27.512154 
L 81.615193 33.0268 
L 84.600283 39.054875 
L 96.540644 63.918903 
L 99.525734 69.217846 
L 101.018279 71.589811 
L 102.510824 73.748132 
L 104.003369 75.673649 
L 105.495914 77.349273 
L 106.988459 78.760129 
L 108.481004 79.893697 
L 109.973549 80.739913 
L 111.466094 81.291266 
L 112.958639 81.542864 
L 114.451184 81.492472 
L 115.943729 81.140538 
L 117.436274 80.490186 
L 118.928819 79.547188 
L 120.421364 78.319915 
L 121.91391 76.819259 
L 123.406455 75.058541 
L 124.899 73.053389 
L 126.391545 70.821601 
L 129.376635 65.75919 
L 132.361725 60.050647 
L 136.83936 50.723215 
L 142.80954 38.023047 
L 145.79463 32.066142 
L 148.77972 26.656698 
L 151.764811 21.986346 
L 153.257356 19.981223 
L 154.749901 18.220537 
L 156.242446 16.719915 
L 157.734991 15.492676 
L 159.227536 14.549714 
L 160.720081 13.899399 
L 162.212626 13.547503 
L 163.705171 13.497148 
L 165.197716 13.748784 
L 166.690261 14.300175 
L 168.182806 15.146427 
L 169.675351 16.280029 
L 171.167896 17.69092 
L 172.660441 19.366576 
L 174.152986 21.292123 
L 175.645531 23.450471 
L 178.630622 28.387042 
L 181.615712 34.001407 
L 184.600802 40.094675 
L 195.048617 62.013562 
L 198.033707 67.528169 
L 201.018797 72.333978 
L 202.511342 74.416727 
L 204.003887 76.260738 
L 205.496432 77.849645 
L 206.988978 79.169344 
L 208.481523 80.208121 
L 209.974068 80.956756 
L 211.466613 81.408604 
L 212.959158 81.559654 
L 214.451703 81.408566 
L 215.944248 80.956681 
L 217.436793 80.208009 
L 218.929338 79.169196 
L 220.421883 77.849463 
L 221.914428 76.260523 
L 223.406973 74.41648 
L 224.899518 72.333702 
L 227.884608 67.527844 
L 230.869698 62.013198 
L 233.854788 55.985123 
L 245.795149 31.121095 
L 248.780239 25.822152 
L 250.272784 23.450187 
L 251.765329 21.291867 
L 253.257874 19.36635 
L 254.750419 17.690726 
L 256.242964 16.27987 
L 257.735509 15.146303 
L 259.228054 14.300087 
L 260.720599 13.748733 
L 262.213144 13.497136 
L 263.705689 13.547528 
L 265.198235 13.899462 
L 266.69078 14.549814 
L 268.183325 15.492812 
L 269.67587 16.720086 
L 271.168415 18.220742 
L 272.66096 19.98146 
L 274.153505 21.986612 
L 275.64605 24.2184 
L 278.63114 29.280812 
L 281.61623 34.989355 
L 286.093865 44.316787 
L 292.064045 57.016955 
L 295.049136 62.97386 
L 298.034226 68.383304 
L 301.019316 73.053655 
L 302.511861 75.058778 
L 304.004406 76.819464 
L 305.496951 78.320086 
L 306.989496 79.547325 
L 308.482041 80.490286 
L 309.974586 81.140601 
L 311.467131 81.492498 
L 312.959676 81.542851 
L 314.452221 81.291216 
L 315.944766 80.739825 
L 317.437311 79.893572 
L 318.929856 78.75997 
L 320.422401 77.349079 
L 321.914947 75.673423 
L 323.407492 73.747875 
L 324.900037 71.589527 
L 327.885127 66.652956 
L 330.870217 61.038591 
L 333.855307 54.945323 
L 344.303122 33.026436 
L 347.288212 27.511829 
L 350.273303 22.706021 
L 351.765848 20.623272 
L 353.258393 18.77926 
L 354.750938 17.190354 
L 356.243483 15.870655 
L 357.736028 14.831878 
L 359.228573 14.083243 
L 360.721118 13.631396 
L 362.213663 13.480346 
L 363.706208 13.631434 
L 365.198753 14.08332 
L 366.691298 14.831992 
L 368.183843 15.870805 
L 369.676388 17.190538 
L 371.168933 18.779478 
L 372.661478 20.623521 
L 374.154023 22.706299 
L 377.139113 27.512158 
L 380.124204 33.026804 
L 383.109294 39.054879 
L 395.049654 63.918907 
L 398.034744 69.217849 
L 399.527289 71.589814 
L 401.019834 73.748134 
L 402.512379 75.673651 
L 404.004924 77.349275 
L 405.497469 78.760131 
L 406.990014 79.893698 
L 408.48256 80.739914 
L 409.975105 81.291267 
L 411.46765 81.542864 
L 412.960195 81.492472 
L 414.45274 81.140538 
L 415.945285 80.490185 
L 417.43783 79.547187 
L 418.930375 78.319913 
L 420.42292 76.819257 
L 421.915465 75.058539 
L 423.40801 73.053387 
L 424.900555 70.821598 
L 427.885645 65.759186 
L 430.870735 60.050643 
L 435.34837 50.723211 
L 441.318551 38.023043 
L 444.303641 32.066138 
L 447.288731 26.656694 
L 450.273821 21.986343 
L 451.766366 19.981221 
L 453.258911 18.220535 
L 454.751456 16.719913 
L 456.244001 15.492675 
L 457.736546 14.549713 
L 459.229091 13.899398 
L 460.721636 13.547502 
L 462.214181 13.497149 
L 463.706726 13.748784 
L 465.199272 14.300175 
L 466.691817 15.146428 
L 468.184362 16.280031 
L 469.676907 17.690922 
L 471.169452 19.366578 
L 472.661997 21.292126 
L 474.154542 23.450474 
L 477.139632 28.387046 
L 480.124722 34.001411 
L 483.109812 40.094679 
L 493.557628 62.013565 
L 496.542718 67.528173 
L 499.527808 72.333981 
L 501.020353 74.416729 
L 502.512898 76.260741 
L 504.005443 77.849647 
L 505.497988 79.169346 
L 506.990533 80.208122 
L 508.483078 80.956757 
L 509.975623 81.408604 
L 511.468168 81.559654 
L 512.960713 81.408566 
L 514.453258 80.95668 
L 515.945803 80.208008 
L 517.438348 79.169195 
L 518.930893 77.849461 
L 520.423438 76.260521 
L 521.915983 74.416478 
L 523.408529 72.333699 
L 526.393619 67.52784 
L 529.378709 62.013194 
L 532.363799 55.985119 
L 544.304159 31.121091 
L 547.289249 25.822149 
L 548.781794 23.450184 
L 550.274339 21.291864 
L 551.766885 19.366347 
L 553.25943 17.690724 
L 554.751975 16.279868 
L 556.24452 15.146301 
L 557.737065 14.300086 
L 559.22961 13.748733 
L 560.722155 13.497136 
L 562.2147 13.547528 
L 563.707245 13.899463 
L 565.19979 14.549815 
L 566.692335 15.492814 
L 568.18488 16.720088 
L 569.677425 18.220744 
L 571.16997 19.981462 
L 572.662515 21.986615 
L 574.15506 24.218404 
L 577.14015 29.280815 
L 580.125241 34.989359 
L 584.602876 44.316791 
L 590.573056 57.016959 
L 593.558146 62.973864 
L 596.543236 68.383307 
L 599.528326 73.053658 
L 601.020871 75.05878 
L 602.513416 76.819466 
L 604.005961 78.320088 
L 605.498506 79.547326 
L 606.991051 80.490287 
L 608.483597 81.140602 
L 609.976142 81.492498 
L 611.468687 81.542851 
L 612.961232 81.291216 
L 614.453777 80.739824 
L 615.946322 79.893571 
L 617.438867 78.759968 
L 618.931412 77.349077 
L 620.423957 75.673421 
L 621.916502 73.747873 
L 623.409047 71.589524 
L 626.394137 66.652953 
L 629.379227 61.038587 
L 632.364317 54.945318 
L 642.812133 33.026433 
L 645.797223 27.511826 
L 648.782313 22.706018 
L 650.274858 20.623269 
L 651.767403 18.779258 
L 653.259948 17.190352 
L 654.752493 15.870653 
L 656.245038 14.831877 
L 657.737583 14.083243 
L 659.230128 13.631395 
L 660.722673 13.480346 
L 662.215218 13.631434 
L 663.707763 14.08332 
L 665.200308 14.831993 
L 666.692854 15.870806 
L 668.185399 17.19054 
L 669.677944 18.779481 
L 671.170489 20.623524 
L 672.663034 22.706302 
L 675.648124 27.512161 
L 678.633214 33.026808 
L 681.618304 39.054883 
L 693.558664 63.918911 
L 696.543755 69.217853 
L 698.0363 71.589817 
L 699.528845 73.748137 
L 701.02139 75.673654 
L 702.513935 77.349277 
L 704.00648 78.760133 
L 705.499025 79.893699 
L 706.99157 80.739915 
L 708.484115 81.291268 
L 709.97666 81.542864 
L 711.469205 81.492472 
L 712.96175 81.140537 
L 714.454295 80.490184 
L 715.94684 79.547186 
L 717.439385 78.319911 
L 718.93193 76.819255 
L 720.424475 75.058536 
L 721.91702 73.053384 
L 723.409566 70.821595 
L 726.394656 65.759183 
L 729.379746 60.050639 
L 733.857381 50.723207 
L 739.827561 38.023039 
L 742.812651 32.066134 
L 745.797741 26.656691 
L 748.782831 21.98634 
L 750.275376 19.981218 
L 751.767922 18.220533 
L 753.260467 16.719911 
L 754.753012 15.492673 
L 756.245557 14.549712 
L 757.738102 13.899398 
L 759.230647 13.547502 
L 760.723192 13.497149 
L 762.215737 13.748785 
L 763.708282 14.300176 
L 765.200827 15.14643 
L 766.693372 16.280033 
L 768.185917 17.690924 
L 769.678462 19.366581 
L 771.171007 21.292129 
L 772.663552 23.450477 
L 775.648642 28.387049 
L 778.633732 34.001415 
L 781.618823 40.094684 
L 792.066638 62.013569 
L 795.051728 67.528176 
L 798.036818 72.333983 
L 799.529363 74.416732 
L 801.021908 76.260743 
L 802.514453 77.849649 
L 804.006998 79.169347 
L 805.499543 80.208124 
L 806.992088 80.956758 
L 808.484633 81.408605 
L 809.977179 81.559654 
L 809.977179 81.559654 
" clip-path="url(#p11df161d84)" style="fill: none; stroke: #e36f47; stroke-opacity: 0.99; stroke-width: 4"/>
   </g>
  </g>
 </g>
 <defs>
  <clipPath id="p11df161d84">
   <rect x="41.316477" y="11.437966" width="791.048878" height="72.164067"/>
  </clipPath>
 </defs>
</svg>
