<?xml version="1.0" encoding="utf-8" standalone="no"?>
<!DOCTYPE svg PUBLIC "-//W3C//DTD SVG 1.1//EN"
  "http://www.w3.org/Graphics/SVG/1.1/DTD/svg11.dtd">
<svg xmlns:xlink="http://www.w3.org/1999/xlink" width="835.2pt" height="115.2pt" viewBox="0 0 835.2 115.2" xmlns="http://www.w3.org/2000/svg" version="1.1">
 <metadata>
  <rdf:RDF xmlns:dc="http://purl.org/dc/elements/1.1/" xmlns:cc="http://creativecommons.org/ns#" xmlns:rdf="http://www.w3.org/1999/02/22-rdf-syntax-ns#">
   <cc:Work>
    <dc:type rdf:resource="http://purl.org/dc/dcmitype/StillImage"/>
    <dc:date>2024-07-16T17:24:05.588635</dc:date>
    <dc:format>image/svg+xml</dc:format>
    <dc:creator>
     <cc:Agent>
      <dc:title>Matplotlib v3.8.4, https://matplotlib.org/</dc:title>
     </cc:Agent>
    </dc:creator>
   </cc:Work>
  </rdf:RDF>
 </metadata>
 <defs>
  <style type="text/css">*{stroke-linejoin: round; stroke-linecap: butt}</style>
 </defs>
 <g id="figure_1">
  <g id="patch_1">
   <path d="M 0 115.2 
L 835.2 115.2 
L 835.2 0 
L 0 0 
L 0 115.2 
z
" style="fill: none"/>
  </g>
  <g id="axes_1">
   <g id="patch_2">
    <path d="M 42.418977 81.505354 
L 832.365354 81.505354 
L 832.365354 2.834646 
L 42.418977 2.834646 
L 42.418977 81.505354 
z
" style="fill: none"/>
   </g>
   <g id="line2d_1">
    <path d="M 64.77595 23.197728 
L 72.228274 28.016889 
L 79.680598 32.600902 
L 87.132923 36.961241 
L 96.075712 41.913727 
L 105.018501 46.577663 
L 113.96129 50.96986 
L 122.904079 55.106152 
L 131.846869 59.001448 
L 140.789658 62.669789 
L 149.732447 66.124399 
L 160.165701 69.901217 
L 170.598955 73.422576 
L 181.032209 76.705754 
L 186.994068 78.481165 
L 188.484533 8.532943 
L 195.936858 14.067663 
L 203.389182 19.332319 
L 210.841506 24.340091 
L 218.293831 29.103511 
L 225.746155 33.634502 
L 233.198479 37.944407 
L 242.141268 42.839611 
L 251.084058 47.449601 
L 260.026847 51.790996 
L 268.969636 55.879445 
L 277.912425 59.729686 
L 286.855214 63.355597 
L 295.798004 66.77025 
L 306.231258 70.503383 
L 316.664512 73.984012 
L 322.626371 75.866195 
L 324.116836 5.398492 
L 331.56916 11.086155 
L 339.021485 16.496293 
L 346.473809 21.642446 
L 353.926133 26.537496 
L 361.378457 31.193695 
L 368.830782 35.622697 
L 377.773571 40.653172 
L 386.71636 45.390553 
L 395.659149 49.851915 
L 404.601939 54.053343 
L 413.544728 58.009979 
L 422.487517 61.736087 
L 431.430306 65.245098 
L 441.86356 69.081391 
L 452.296814 72.658202 
L 462.730068 75.993082 
L 473.163322 79.102394 
L 474.653787 8.585312 
L 482.106111 14.117476 
L 489.558436 19.379702 
L 497.01076 24.385161 
L 504.463084 29.146382 
L 511.915409 33.675282 
L 519.367733 37.983197 
L 528.310522 42.87614 
L 537.253311 47.484002 
L 546.196101 51.823393 
L 555.13889 55.909955 
L 564.081679 59.758418 
L 573.024468 63.382655 
L 581.967257 66.795731 
L 592.400511 70.527141 
L 602.833765 74.006163 
L 608.795625 75.887477 
L 610.28609 5.65577 
L 617.738414 11.330879 
L 625.190738 16.729076 
L 632.643063 21.86387 
L 640.095387 26.748116 
L 647.547711 31.394038 
L 655.000036 35.813265 
L 663.942825 40.832636 
L 672.885614 45.55956 
L 681.828403 50.011076 
L 690.771192 54.20323 
L 699.713981 58.151134 
L 708.656771 61.869017 
L 717.59956 65.370283 
L 728.032814 69.198109 
L 738.466068 72.767025 
L 748.899322 76.094544 
L 759.332576 79.196994 
L 760.823041 9.147632 
L 768.275365 14.652359 
L 775.72769 19.888486 
L 783.180014 24.869119 
L 790.632338 29.606725 
L 798.084662 34.113163 
L 805.536987 38.399712 
L 810.008381 40.870576 
L 810.008381 40.870576 
" clip-path="url(#pa5a769a651)" style="fill: none; stroke: #3ea44d; stroke-opacity: 0.33; stroke-width: 4"/>
   </g>
   <g id="matplotlib.axis_1">
    <g id="xtick_1">
     <g id="line2d_2">
      <defs>
       <path id="m2564db9199" d="M 0 0 
L 0 -5 
" style="stroke: #000000"/>
      </defs>
      <g>
       <use xlink:href="#m2564db9199" x="64.77595" y="81.505354" style="stroke: #000000"/>
      </g>
     </g>
     <g id="text_1">
      <!-- $0$ -->
      <g transform="translate(57.77595 106.280979) scale(0.28 -0.28)">
       <defs>
        <path id="Cmr10-30" d="M 1600 -141 
Q 816 -141 533 504 
Q 250 1150 250 2041 
Q 250 2597 351 3087 
Q 453 3578 754 3920 
Q 1056 4263 1600 4263 
Q 2022 4263 2290 4056 
Q 2559 3850 2700 3523 
Q 2841 3197 2892 2823 
Q 2944 2450 2944 2041 
Q 2944 1491 2842 1011 
Q 2741 531 2444 195 
Q 2147 -141 1600 -141 
z
M 1600 25 
Q 1956 25 2131 390 
Q 2306 756 2347 1200 
Q 2388 1644 2388 2144 
Q 2388 2625 2347 3031 
Q 2306 3438 2132 3767 
Q 1959 4097 1600 4097 
Q 1238 4097 1063 3765 
Q 888 3434 847 3029 
Q 806 2625 806 2144 
Q 806 1788 823 1472 
Q 841 1156 916 820 
Q 991 484 1158 254 
Q 1325 25 1600 25 
z
" transform="scale(0.015625)"/>
       </defs>
       <use xlink:href="#Cmr10-30" transform="translate(0 0.390625)"/>
      </g>
     </g>
    </g>
    <g id="xtick_2">
     <g id="line2d_3">
      <g>
       <use xlink:href="#m2564db9199" x="213.822436" y="81.505354" style="stroke: #000000"/>
      </g>
     </g>
     <g id="text_2">
      <!-- $1$ -->
      <g transform="translate(206.822436 106.280979) scale(0.28 -0.28)">
       <defs>
        <path id="Cmr10-31" d="M 594 0 
L 594 225 
Q 1394 225 1394 428 
L 1394 3788 
Q 1063 3628 556 3628 
L 556 3853 
Q 1341 3853 1741 4263 
L 1831 4263 
Q 1853 4263 1873 4245 
Q 1894 4228 1894 4206 
L 1894 428 
Q 1894 225 2694 225 
L 2694 0 
L 594 0 
z
" transform="scale(0.015625)"/>
       </defs>
       <use xlink:href="#Cmr10-31" transform="translate(0 0.390625)"/>
      </g>
     </g>
    </g>
    <g id="xtick_3">
     <g id="line2d_4">
      <g>
       <use xlink:href="#m2564db9199" x="362.868922" y="81.505354" style="stroke: #000000"/>
      </g>
     </g>
     <g id="text_3">
      <!-- $2$ -->
      <g transform="translate(355.868922 106.280979) scale(0.28 -0.28)">
       <defs>
        <path id="Cmr10-32" d="M 319 0 
L 319 172 
Q 319 188 331 206 
L 1325 1306 
Q 1550 1550 1690 1715 
Q 1831 1881 1968 2097 
Q 2106 2313 2186 2536 
Q 2266 2759 2266 3009 
Q 2266 3272 2169 3511 
Q 2072 3750 1880 3894 
Q 1688 4038 1416 4038 
Q 1138 4038 916 3870 
Q 694 3703 603 3438 
Q 628 3444 672 3444 
Q 816 3444 917 3347 
Q 1019 3250 1019 3097 
Q 1019 2950 917 2848 
Q 816 2747 672 2747 
Q 522 2747 420 2851 
Q 319 2956 319 3097 
Q 319 3338 409 3548 
Q 500 3759 670 3923 
Q 841 4088 1055 4175 
Q 1269 4263 1509 4263 
Q 1875 4263 2190 4108 
Q 2506 3953 2690 3670 
Q 2875 3388 2875 3009 
Q 2875 2731 2753 2481 
Q 2631 2231 2440 2026 
Q 2250 1822 1953 1562 
Q 1656 1303 1563 1216 
L 838 519 
L 1453 519 
Q 1906 519 2211 526 
Q 2516 534 2534 550 
Q 2609 631 2688 1141 
L 2875 1141 
L 2694 0 
L 319 0 
z
" transform="scale(0.015625)"/>
       </defs>
       <use xlink:href="#Cmr10-32" transform="translate(0 0.390625)"/>
      </g>
     </g>
    </g>
    <g id="xtick_4">
     <g id="line2d_5">
      <g>
       <use xlink:href="#m2564db9199" x="511.915409" y="81.505354" style="stroke: #000000"/>
      </g>
     </g>
     <g id="text_4">
      <!-- $3$ -->
      <g transform="translate(504.915409 106.280979) scale(0.28 -0.28)">
       <defs>
        <path id="Cmr10-33" d="M 609 494 
Q 759 275 1012 169 
Q 1266 63 1556 63 
Q 1928 63 2084 380 
Q 2241 697 2241 1100 
Q 2241 1281 2208 1462 
Q 2175 1644 2097 1800 
Q 2019 1956 1883 2050 
Q 1747 2144 1550 2144 
L 1125 2144 
Q 1069 2144 1069 2203 
L 1069 2259 
Q 1069 2309 1125 2309 
L 1478 2338 
Q 1703 2338 1851 2506 
Q 2000 2675 2069 2917 
Q 2138 3159 2138 3378 
Q 2138 3684 1994 3881 
Q 1850 4078 1556 4078 
Q 1313 4078 1091 3986 
Q 869 3894 738 3706 
Q 750 3709 759 3711 
Q 769 3713 781 3713 
Q 925 3713 1022 3613 
Q 1119 3513 1119 3372 
Q 1119 3234 1022 3134 
Q 925 3034 781 3034 
Q 641 3034 541 3134 
Q 441 3234 441 3372 
Q 441 3647 606 3850 
Q 772 4053 1033 4158 
Q 1294 4263 1556 4263 
Q 1750 4263 1965 4205 
Q 2181 4147 2356 4039 
Q 2531 3931 2642 3762 
Q 2753 3594 2753 3378 
Q 2753 3109 2633 2881 
Q 2513 2653 2303 2487 
Q 2094 2322 1844 2241 
Q 2122 2188 2372 2031 
Q 2622 1875 2773 1631 
Q 2925 1388 2925 1106 
Q 2925 753 2731 467 
Q 2538 181 2222 20 
Q 1906 -141 1556 -141 
Q 1256 -141 954 -26 
Q 653 88 461 316 
Q 269 544 269 863 
Q 269 1022 375 1128 
Q 481 1234 641 1234 
Q 744 1234 830 1186 
Q 916 1138 964 1050 
Q 1013 963 1013 863 
Q 1013 706 903 600 
Q 794 494 641 494 
L 609 494 
z
" transform="scale(0.015625)"/>
       </defs>
       <use xlink:href="#Cmr10-33" transform="translate(0 0.390625)"/>
      </g>
     </g>
    </g>
    <g id="xtick_5">
     <g id="line2d_6">
      <g>
       <use xlink:href="#m2564db9199" x="660.961895" y="81.505354" style="stroke: #000000"/>
      </g>
     </g>
     <g id="text_5">
      <!-- $4$ -->
      <g transform="translate(653.961895 106.280979) scale(0.28 -0.28)">
       <defs>
        <path id="Cmr10-34" d="M 178 1056 
L 178 1281 
L 2156 4231 
Q 2178 4263 2222 4263 
L 2316 4263 
Q 2388 4263 2388 4191 
L 2388 1281 
L 3016 1281 
L 3016 1056 
L 2388 1056 
L 2388 428 
Q 2388 297 2575 261 
Q 2763 225 3009 225 
L 3009 0 
L 1247 0 
L 1247 225 
Q 1494 225 1681 261 
Q 1869 297 1869 428 
L 1869 1056 
L 178 1056 
z
M 391 1281 
L 1906 1281 
L 1906 3547 
L 391 1281 
z
" transform="scale(0.015625)"/>
       </defs>
       <use xlink:href="#Cmr10-34" transform="translate(0 0.390625)"/>
      </g>
     </g>
    </g>
    <g id="xtick_6">
     <g id="line2d_7">
      <g>
       <use xlink:href="#m2564db9199" x="810.008381" y="81.505354" style="stroke: #000000"/>
      </g>
     </g>
     <g id="text_6">
      <!-- $5$ -->
      <g transform="translate(803.008381 106.280979) scale(0.28 -0.28)">
       <defs>
        <path id="Cmr10-35" d="M 556 728 
Q 622 541 758 387 
Q 894 234 1080 148 
Q 1266 63 1466 63 
Q 1928 63 2103 422 
Q 2278 781 2278 1294 
Q 2278 1516 2270 1667 
Q 2263 1819 2228 1959 
Q 2169 2184 2020 2353 
Q 1872 2522 1656 2522 
Q 1441 2522 1286 2456 
Q 1131 2391 1034 2303 
Q 938 2216 863 2119 
Q 788 2022 769 2016 
L 697 2016 
Q 681 2016 657 2036 
Q 634 2056 634 2075 
L 634 4213 
Q 634 4228 654 4245 
Q 675 4263 697 4263 
L 716 4263 
Q 1147 4056 1631 4056 
Q 2106 4056 2547 4263 
L 2566 4263 
Q 2588 4263 2606 4247 
Q 2625 4231 2625 4213 
L 2625 4153 
Q 2625 4122 2613 4122 
Q 2394 3831 2064 3668 
Q 1734 3506 1381 3506 
Q 1125 3506 856 3578 
L 856 2369 
Q 1069 2541 1236 2614 
Q 1403 2688 1663 2688 
Q 2016 2688 2295 2484 
Q 2575 2281 2725 1954 
Q 2875 1628 2875 1288 
Q 2875 903 2686 575 
Q 2497 247 2172 53 
Q 1847 -141 1466 -141 
Q 1150 -141 886 21 
Q 622 184 470 459 
Q 319 734 319 1044 
Q 319 1188 412 1278 
Q 506 1369 647 1369 
Q 788 1369 883 1276 
Q 978 1184 978 1044 
Q 978 906 883 811 
Q 788 716 647 716 
Q 625 716 597 720 
Q 569 725 556 728 
z
" transform="scale(0.015625)"/>
       </defs>
       <use xlink:href="#Cmr10-35" transform="translate(0 0.390625)"/>
      </g>
     </g>
    </g>
   </g>
   <g id="matplotlib.axis_2">
    <g id="ytick_1">
     <g id="line2d_8">
      <defs>
       <path id="m0aa21400c3" d="M 0 0 
L 5 0 
" style="stroke: #000000"/>
      </defs>
      <g>
       <use xlink:href="#m0aa21400c3" x="42.418977" y="50.900165" style="stroke: #000000"/>
      </g>
     </g>
     <g id="text_7">
      <!-- $1.0$ -->
      <g transform="translate(3.078977 61.537977) scale(0.28 -0.28)">
       <defs>
        <path id="Cmmi10-3a" d="M 538 353 
Q 538 497 644 600 
Q 750 703 891 703 
Q 978 703 1062 656 
Q 1147 609 1194 525 
Q 1241 441 1241 353 
Q 1241 213 1137 106 
Q 1034 0 891 0 
Q 750 0 644 106 
Q 538 213 538 353 
z
" transform="scale(0.015625)"/>
       </defs>
       <use xlink:href="#Cmr10-31" transform="translate(0 0.390625)"/>
       <use xlink:href="#Cmmi10-3a" transform="translate(50 0.390625)"/>
       <use xlink:href="#Cmr10-30" transform="translate(77.685547 0.390625)"/>
      </g>
     </g>
    </g>
    <g id="ytick_2">
     <g id="line2d_9">
      <g>
       <use xlink:href="#m0aa21400c3" x="42.418977" y="15.36904" style="stroke: #000000"/>
      </g>
     </g>
     <g id="text_8">
      <!-- $1.5$ -->
      <g transform="translate(3.078977 26.006852) scale(0.28 -0.28)">
       <use xlink:href="#Cmr10-31" transform="translate(0 0.390625)"/>
       <use xlink:href="#Cmmi10-3a" transform="translate(50 0.390625)"/>
       <use xlink:href="#Cmr10-35" transform="translate(77.685547 0.390625)"/>
      </g>
     </g>
    </g>
   </g>
   <g id="line2d_10">
    <path d="M 64.77595 21.459816 
L 72.228274 26.361625 
L 79.680598 31.024358 
L 87.132923 35.459675 
L 96.075712 40.497447 
L 105.018501 45.241828 
L 113.96129 49.709904 
L 122.904079 53.917767 
L 131.846869 57.880571 
L 140.789658 61.612588 
L 149.732447 65.127259 
L 160.165701 68.969852 
L 170.598955 72.55265 
L 181.032209 75.893216 
L 188.484533 78.140147 
L 189.974998 8.07998 
L 197.427323 13.634362 
L 204.879647 18.917842 
L 212.331971 23.94363 
L 219.784295 28.724295 
L 227.23662 33.271794 
L 234.688944 37.597498 
L 243.631733 42.510766 
L 252.574522 47.137895 
L 261.517312 51.495547 
L 270.460101 55.599417 
L 279.40289 59.464284 
L 288.345679 63.104069 
L 297.288468 66.531878 
L 307.721722 70.279506 
L 318.154976 73.773759 
L 325.607301 76.124062 
L 327.097766 5.930586 
L 334.55009 11.589801 
L 342.002414 16.972999 
L 349.454739 22.093643 
L 356.907063 26.964538 
L 364.359387 31.597865 
L 371.811712 36.005211 
L 380.754501 41.011212 
L 389.69729 45.725672 
L 398.640079 50.165569 
L 407.582868 54.346895 
L 416.525657 58.284707 
L 425.468447 61.993188 
L 434.411236 65.485694 
L 444.84449 69.304053 
L 455.277744 72.864256 
L 465.710998 76.183755 
L 476.144252 79.278825 
L 477.634717 9.257471 
L 485.087041 14.754424 
L 492.539365 19.983275 
L 499.99169 24.957099 
L 507.444014 29.688334 
L 514.896338 34.188814 
L 523.839128 39.300599 
L 532.781917 44.114682 
L 541.724706 48.648401 
L 550.667495 52.918084 
L 559.610284 56.939107 
L 568.553074 60.725954 
L 577.495863 64.292261 
L 587.929117 68.191308 
L 598.362371 71.826742 
L 608.795625 75.216387 
L 610.28609 75.681541 
L 611.776555 5.222636 
L 619.228879 10.916379 
L 626.681203 16.332423 
L 634.133527 21.484309 
L 641.585852 26.384923 
L 649.038176 31.04652 
L 656.4905 35.480757 
L 665.43329 40.517301 
L 674.376079 45.260525 
L 683.318868 49.727512 
L 692.261657 53.93435 
L 701.204446 57.896188 
L 710.147236 61.627296 
L 719.090025 65.14111 
L 729.523279 68.982767 
L 739.956533 72.564691 
L 750.389787 75.904444 
L 760.823041 79.018398 
L 762.313506 8.516629 
L 769.76583 14.049715 
L 777.218154 19.312936 
L 784.670479 24.319454 
L 792.122803 29.08179 
L 799.575127 33.611852 
L 807.027452 37.92097 
L 810.008381 39.585185 
L 810.008381 39.585185 
" clip-path="url(#pa5a769a651)" style="fill: none; stroke: #3ea44d; stroke-opacity: 0.66; stroke-width: 4"/>
   </g>
   <g id="patch_3">
    <path d="M 42.418977 81.505354 
L 42.418977 2.834646 
" style="fill: none; stroke: #000000; stroke-width: 2; stroke-linejoin: miter; stroke-linecap: square"/>
   </g>
   <g id="patch_4">
    <path d="M 42.418977 81.505354 
L 832.365354 81.505354 
" style="fill: none; stroke: #000000; stroke-width: 2; stroke-linejoin: miter; stroke-linecap: square"/>
   </g>
   <g id="line2d_11">
    <path d="M 64.77595 21.283632 
L 72.228274 26.193818 
L 79.680598 30.864531 
L 87.132923 35.307449 
L 96.075712 40.353865 
L 105.018501 45.1064 
L 113.96129 49.582168 
L 122.904079 53.797286 
L 131.846869 57.766933 
L 140.789658 61.505405 
L 149.732447 65.026165 
L 160.165701 68.875426 
L 170.598955 72.464451 
L 181.032209 75.810836 
L 188.484533 78.061686 
L 189.974998 7.920451 
L 197.427323 13.482371 
L 204.879647 18.773031 
L 212.331971 23.805661 
L 219.784295 28.592846 
L 227.23662 33.146555 
L 234.688944 37.478177 
L 243.631733 42.39818 
L 252.574522 47.031663 
L 261.517312 51.395311 
L 270.460101 55.504839 
L 279.40289 59.375046 
L 288.345679 63.019869 
L 297.288468 66.452432 
L 307.721722 70.205268 
L 318.154976 73.704388 
L 325.607301 76.057971 
L 327.097766 5.748694 
L 334.55009 11.416532 
L 342.002414 16.807945 
L 349.454739 21.936414 
L 356.907063 26.814763 
L 364.359387 31.455192 
L 371.811712 35.869303 
L 380.754501 40.882999 
L 389.69729 45.60472 
L 398.640079 50.051467 
L 407.582868 54.239255 
L 416.525657 58.183164 
L 425.468447 61.897397 
L 434.411236 65.395328 
L 444.84449 69.219631 
L 455.277744 72.785387 
L 465.710998 76.110074 
L 476.144252 79.20999 
L 477.634717 9.099354 
L 485.087041 14.603778 
L 492.539365 19.839746 
L 499.99169 24.820351 
L 507.444014 29.558049 
L 514.896338 34.064685 
L 523.839128 39.183475 
L 532.781917 44.004169 
L 541.724706 48.544126 
L 550.667495 52.819695 
L 559.610284 56.846273 
L 568.553074 60.63836 
L 577.495863 64.209612 
L 587.929117 68.114078 
L 598.362371 71.754576 
L 608.795625 75.148952 
L 610.28609 75.614756 
L 611.776555 5.061175 
L 619.228879 10.762544 
L 626.681203 16.185852 
L 634.133527 21.344661 
L 641.585852 26.251871 
L 649.038176 30.919752 
L 656.4905 35.359976 
L 665.43329 40.403334 
L 674.376079 45.152989 
L 683.318868 49.626043 
L 692.261657 53.838606 
L 701.204446 57.805847 
L 710.147236 61.542053 
L 719.090025 65.060678 
L 729.523279 68.907605 
L 739.956533 72.494456 
L 750.389787 75.838812 
L 760.823041 78.957067 
L 762.313506 8.342137 
L 769.76583 13.88349 
L 777.218154 19.154587 
L 784.670479 24.168609 
L 792.122803 28.938092 
L 799.575127 33.474964 
L 807.027452 37.790569 
L 810.008381 39.457291 
L 810.008381 39.457291 
" clip-path="url(#pa5a769a651)" style="fill: none; stroke: #3ea44d; stroke-opacity: 0.99; stroke-width: 4"/>
   </g>
  </g>
 </g>
 <defs>
  <clipPath id="pa5a769a651">
   <rect x="42.418977" y="2.834646" width="789.946378" height="78.670709"/>
  </clipPath>
 </defs>
</svg>
