<?xml version="1.0" encoding="utf-8" standalone="no"?>
<!DOCTYPE svg PUBLIC "-//W3C//DTD SVG 1.1//EN"
  "http://www.w3.org/Graphics/SVG/1.1/DTD/svg11.dtd">
<svg xmlns:xlink="http://www.w3.org/1999/xlink" width="213.12pt" height="86.4pt" viewBox="0 0 213.12 86.4" xmlns="http://www.w3.org/2000/svg" version="1.1">
 <metadata>
  <rdf:RDF xmlns:dc="http://purl.org/dc/elements/1.1/" xmlns:cc="http://creativecommons.org/ns#" xmlns:rdf="http://www.w3.org/1999/02/22-rdf-syntax-ns#">
   <cc:Work>
    <dc:type rdf:resource="http://purl.org/dc/dcmitype/StillImage"/>
    <dc:date>2024-06-27T17:35:31.227199</dc:date>
    <dc:format>image/svg+xml</dc:format>
    <dc:creator>
     <cc:Agent>
      <dc:title>Matplotlib v3.8.4, https://matplotlib.org/</dc:title>
     </cc:Agent>
    </dc:creator>
   </cc:Work>
  </rdf:RDF>
 </metadata>
 <defs>
  <style type="text/css">*{stroke-linejoin: round; stroke-linecap: butt}</style>
 </defs>
 <g id="figure_1">
  <g id="patch_1">
   <path d="M 0 86.4 
L 213.12 86.4 
L 213.12 0 
L 0 0 
L 0 86.4 
z
" style="fill: none"/>
  </g>
  <g id="axes_1">
   <g id="patch_2">
    <path d="M 21.004646 68.91179 
L 210.285354 68.91179 
L 210.285354 11.940107 
L 21.004646 11.940107 
L 21.004646 68.91179 
z
" style="fill: none"/>
   </g>
   <g id="line2d_1">
    <path d="M 26.361647 67.298813 
L 53.146653 67.194798 
L 54.218053 66.950391 
L 54.93232 66.573389 
L 55.527542 66.019923 
L 56.122765 65.13271 
L 56.717987 63.773969 
L 57.313209 61.787927 
L 57.908432 59.020795 
L 58.563176 54.932686 
L 59.336965 48.629446 
L 60.408366 37.7623 
L 62.074988 20.698596 
L 62.729733 16.140114 
L 63.205911 14.186719 
L 63.503522 13.630447 
L 63.741611 13.569514 
L 63.9797 13.851696 
L 64.277311 14.6781 
L 64.693966 16.671433 
L 65.229667 20.491495 
L 66.003456 27.829865 
L 68.50339 52.96605 
L 69.336701 58.557362 
L 70.050968 61.923415 
L 70.705712 64.026505 
L 71.360457 65.400936 
L 72.015201 66.250131 
L 72.669946 66.746783 
L 73.443735 67.055926 
L 74.515135 67.229206 
L 76.657936 67.295102 
L 97.55024 67.299003 
L 112.549844 67.194413 
L 113.621244 66.948856 
L 114.335511 66.570261 
L 114.930733 66.014665 
L 115.525956 65.124354 
L 116.121178 63.761358 
L 116.7164 61.76983 
L 117.311623 58.996106 
L 117.966367 54.899962 
L 118.740156 48.587521 
L 119.811556 37.712428 
L 121.478179 20.660365 
L 122.132924 16.115585 
L 122.609102 14.174417 
L 122.906713 13.626328 
L 123.144802 13.572045 
L 123.382891 13.860832 
L 123.680502 14.695239 
L 124.097157 16.69889 
L 124.632858 20.529913 
L 125.406647 27.878131 
L 127.90658 53.002242 
L 128.68037 58.246147 
L 129.394636 61.707389 
L 130.049381 63.881215 
L 130.704126 65.308678 
L 131.35887 66.194757 
L 132.013615 66.715353 
L 132.787404 67.040961 
L 133.858804 67.22455 
L 135.88256 67.294167 
L 152.489264 67.299194 
L 171.953035 67.194019 
L 173.024435 66.947295 
L 173.738702 66.56709 
L 174.333924 66.009344 
L 174.929146 65.115907 
L 175.524369 63.748626 
L 176.119591 61.751582 
L 176.774336 58.645017 
L 177.488603 53.996947 
L 178.321914 46.876136 
L 179.512359 34.410546 
L 180.88137 20.622392 
L 181.536115 16.091412 
L 182.012293 14.162515 
L 182.309904 13.62262 
L 182.547993 13.574988 
L 182.786082 13.870375 
L 183.083693 14.712765 
L 183.500348 16.726688 
L 184.036049 20.568589 
L 184.809838 27.926511 
L 187.309771 53.038252 
L 188.083561 58.272593 
L 188.797827 61.725829 
L 189.452572 63.893696 
L 190.107317 65.316686 
L 190.762061 66.199651 
L 191.416806 66.718222 
L 192.190595 67.042437 
L 193.261995 67.225152 
L 195.285751 67.29439 
L 204.928353 67.299384 
L 204.928353 67.299384 
" clip-path="url(#pe3a1ed641e)" style="fill: none; stroke: #f61067; stroke-width: 4"/>
   </g>
   <g id="matplotlib.axis_1">
    <g id="xtick_1"/>
    <g id="xtick_2"/>
    <g id="xtick_3"/>
    <g id="xtick_4"/>
   </g>
   <g id="matplotlib.axis_2">
    <g id="ytick_1">
     <g id="line2d_2">
      <defs>
       <path id="m7fdb0ee553" d="M 0 0 
L 5 0 
" style="stroke: #000000"/>
      </defs>
      <g>
       <use xlink:href="#m7fdb0ee553" x="21.004646" y="67.279201" style="stroke: #000000"/>
      </g>
     </g>
     <g id="text_1">
      <!-- $0$ -->
      <g transform="translate(3.504646 77.917014) scale(0.28 -0.28)">
       <defs>
        <path id="Cmr10-30" d="M 1600 -141 
Q 816 -141 533 504 
Q 250 1150 250 2041 
Q 250 2597 351 3087 
Q 453 3578 754 3920 
Q 1056 4263 1600 4263 
Q 2022 4263 2290 4056 
Q 2559 3850 2700 3523 
Q 2841 3197 2892 2823 
Q 2944 2450 2944 2041 
Q 2944 1491 2842 1011 
Q 2741 531 2444 195 
Q 2147 -141 1600 -141 
z
M 1600 25 
Q 1956 25 2131 390 
Q 2306 756 2347 1200 
Q 2388 1644 2388 2144 
Q 2388 2625 2347 3031 
Q 2306 3438 2132 3767 
Q 1959 4097 1600 4097 
Q 1238 4097 1063 3765 
Q 888 3434 847 3029 
Q 806 2625 806 2144 
Q 806 1788 823 1472 
Q 841 1156 916 820 
Q 991 484 1158 254 
Q 1325 25 1600 25 
z
" transform="scale(0.015625)"/>
       </defs>
       <use xlink:href="#Cmr10-30" transform="translate(0 0.390625)"/>
      </g>
     </g>
    </g>
    <g id="ytick_2">
     <g id="line2d_3">
      <g>
       <use xlink:href="#m7fdb0ee553" x="21.004646" y="40.335219" style="stroke: #000000"/>
      </g>
     </g>
     <g id="text_2">
      <!-- $4$ -->
      <g transform="translate(3.504646 50.973031) scale(0.28 -0.28)">
       <defs>
        <path id="Cmr10-34" d="M 178 1056 
L 178 1281 
L 2156 4231 
Q 2178 4263 2222 4263 
L 2316 4263 
Q 2388 4263 2388 4191 
L 2388 1281 
L 3016 1281 
L 3016 1056 
L 2388 1056 
L 2388 428 
Q 2388 297 2575 261 
Q 2763 225 3009 225 
L 3009 0 
L 1247 0 
L 1247 225 
Q 1494 225 1681 261 
Q 1869 297 1869 428 
L 1869 1056 
L 178 1056 
z
M 391 1281 
L 1906 1281 
L 1906 3547 
L 391 1281 
z
" transform="scale(0.015625)"/>
       </defs>
       <use xlink:href="#Cmr10-34" transform="translate(0 0.390625)"/>
      </g>
     </g>
    </g>
    <g id="ytick_3">
     <g id="line2d_4">
      <g>
       <use xlink:href="#m7fdb0ee553" x="21.004646" y="13.391236" style="stroke: #000000"/>
      </g>
     </g>
     <g id="text_3">
      <!-- $8$ -->
      <g transform="translate(3.504646 24.029049) scale(0.28 -0.28)">
       <defs>
        <path id="Cmr10-38" d="M 269 972 
Q 269 1356 522 1651 
Q 775 1947 1172 2144 
L 934 2297 
Q 716 2441 578 2680 
Q 441 2919 441 3181 
Q 441 3488 602 3734 
Q 763 3981 1030 4122 
Q 1297 4263 1600 4263 
Q 1884 4263 2148 4147 
Q 2413 4031 2583 3815 
Q 2753 3600 2753 3303 
Q 2753 3088 2651 2903 
Q 2550 2719 2373 2572 
Q 2197 2425 1997 2322 
L 2363 2088 
Q 2616 1922 2770 1653 
Q 2925 1384 2925 1088 
Q 2925 741 2739 456 
Q 2553 172 2247 15 
Q 1941 -141 1600 -141 
Q 1269 -141 961 -6 
Q 653 128 461 383 
Q 269 638 269 972 
z
M 616 972 
Q 616 719 755 509 
Q 894 300 1122 181 
Q 1350 63 1600 63 
Q 1972 63 2275 280 
Q 2578 497 2578 856 
Q 2578 978 2529 1098 
Q 2481 1219 2395 1317 
Q 2309 1416 2203 1478 
L 1344 2034 
Q 1144 1928 976 1765 
Q 809 1603 712 1400 
Q 616 1197 616 972 
z
M 1056 2925 
L 1831 2425 
Q 2100 2581 2272 2803 
Q 2444 3025 2444 3303 
Q 2444 3519 2323 3698 
Q 2203 3878 2009 3978 
Q 1816 4078 1594 4078 
Q 1400 4078 1203 4003 
Q 1006 3928 878 3779 
Q 750 3631 750 3431 
Q 750 3131 1056 2925 
z
" transform="scale(0.015625)"/>
       </defs>
       <use xlink:href="#Cmr10-38" transform="translate(0 0.390625)"/>
      </g>
     </g>
    </g>
   </g>
   <g id="patch_3">
    <path d="M 21.004646 68.91179 
L 21.004646 11.940107 
" style="fill: none; stroke: #000000; stroke-width: 2; stroke-linejoin: miter; stroke-linecap: square"/>
   </g>
  </g>
 </g>
 <defs>
  <clipPath id="pe3a1ed641e">
   <rect x="21.004646" y="11.940107" width="189.280709" height="56.971683"/>
  </clipPath>
 </defs>
</svg>
