<?xml version="1.0" encoding="utf-8" standalone="no"?>
<!DOCTYPE svg PUBLIC "-//W3C//DTD SVG 1.1//EN"
  "http://www.w3.org/Graphics/SVG/1.1/DTD/svg11.dtd">
<svg xmlns:xlink="http://www.w3.org/1999/xlink" width="979.2pt" height="279.36pt" viewBox="0 0 979.2 279.36" xmlns="http://www.w3.org/2000/svg" version="1.1">
 <metadata>
  <rdf:RDF xmlns:dc="http://purl.org/dc/elements/1.1/" xmlns:cc="http://creativecommons.org/ns#" xmlns:rdf="http://www.w3.org/1999/02/22-rdf-syntax-ns#">
   <cc:Work>
    <dc:type rdf:resource="http://purl.org/dc/dcmitype/StillImage"/>
    <dc:date>2024-08-16T13:36:42.292446</dc:date>
    <dc:format>image/svg+xml</dc:format>
    <dc:creator>
     <cc:Agent>
      <dc:title>Matplotlib v3.8.4, https://matplotlib.org/</dc:title>
     </cc:Agent>
    </dc:creator>
   </cc:Work>
  </rdf:RDF>
 </metadata>
 <defs>
  <style type="text/css">*{stroke-linejoin: round; stroke-linecap: butt}</style>
 </defs>
 <g id="figure_1">
  <g id="patch_1">
   <path d="M 0 279.36 
L 979.2 279.36 
L 979.2 0 
L 0 0 
L 0 279.36 
z
" style="fill: none"/>
  </g>
  <g id="axes_1">
   <g id="patch_2">
    <path d="M 63.788308 245.665354 
L 976.365354 245.665354 
L 976.365354 7.346198 
L 63.788308 7.346198 
L 63.788308 245.665354 
z
" style="fill: none"/>
   </g>
   <g id="line2d_1">
    <path d="M 106.834395 14.09108 
L 115.443612 26.06596 
L 124.05283 32.764073 
L 132.662047 37.897621 
L 141.271265 42.173679 
L 149.880482 45.885077 
L 158.489699 49.187711 
L 167.098917 52.17674 
L 175.708134 54.915574 
L 184.317352 57.449156 
L 192.926569 59.810846 
L 201.535787 62.026312 
L 210.145004 64.115898 
L 218.754221 66.096123 
L 227.363439 67.980699 
L 235.972656 69.78122 
L 244.581874 71.507671 
L 253.191091 73.168791 
L 261.800308 74.77236 
L 270.409526 76.325418 
L 279.018743 77.834444 
L 287.627961 79.305504 
L 296.237178 80.744387 
L 304.846396 82.156721 
L 313.455613 83.548092 
L 322.06483 84.924159 
L 330.674048 86.290777 
L 339.283265 87.654139 
L 347.892483 89.020934 
L 356.5017 90.398543 
L 365.110917 91.795273 
L 373.720135 93.220663 
L 382.329352 94.685871 
L 390.93857 96.204194 
L 399.547787 97.79175 
L 408.157005 99.468417 
L 416.766222 101.259124 
L 425.375439 103.195655 
L 433.984657 105.319195 
L 442.593874 107.683948 
L 451.203092 110.362279 
L 459.812309 113.451859 
L 468.421527 117.085074 
L 477.030744 121.439484 
L 485.639961 126.743249 
L 494.249179 133.256162 
L 502.858396 141.182085 
L 511.467614 150.463025 
L 520.076831 160.538597 
L 528.686048 170.421478 
L 537.295266 179.225682 
L 545.904483 186.577907 
L 554.513701 192.541795 
L 563.122918 197.359998 
L 571.732136 201.288943 
L 580.341353 204.540941 
L 588.95057 207.277324 
L 597.559788 209.61717 
L 606.169005 211.647948 
L 614.778223 213.434312 
L 623.38744 215.024592 
L 631.996658 216.455384 
L 640.605875 217.754784 
L 649.215092 218.944645 
L 657.82431 220.042183 
L 666.433527 221.061122 
L 675.042745 222.012526 
L 683.651962 222.905406 
L 692.261179 223.747172 
L 700.870397 224.543973 
L 709.479614 225.300951 
L 718.088832 226.022443 
L 726.698049 226.71213 
L 735.307267 227.373159 
L 743.916484 228.008238 
L 752.525701 228.619708 
L 761.134919 229.209608 
L 769.744136 229.77972 
L 778.353354 230.331609 
L 786.962571 230.866659 
L 795.571789 231.386096 
L 804.181006 231.89101 
L 812.790223 232.382378 
L 821.399441 232.861075 
L 830.008658 233.327889 
L 838.617876 233.783533 
L 847.227093 234.228651 
L 855.83631 234.66383 
L 864.445528 235.089604 
L 873.054745 235.506462 
L 881.663963 235.914852 
L 890.27318 236.315186 
L 898.882398 236.707843 
L 907.491615 237.093173 
L 916.100832 237.471499 
L 924.71005 237.843123 
L 933.319267 238.208323 
L 941.928485 238.567358 
L 950.537702 238.920473 
" clip-path="url(#p0029029dcb)" style="fill: none; stroke: #377eb8; stroke-width: 4"/>
   </g>
   <g id="matplotlib.axis_1">
    <g id="xtick_1">
     <g id="line2d_2">
      <defs>
       <path id="m4170b8facb" d="M 0 0 
L 0 -5 
" style="stroke: #000000"/>
      </defs>
      <g>
       <use xlink:href="#m4170b8facb" x="175.708134" y="245.665354" style="stroke: #000000"/>
      </g>
     </g>
     <g id="text_1">
      <!-- $0.6$ -->
      <g transform="translate(157.788134 270.440979) scale(0.28 -0.28)">
       <defs>
        <path id="Cmr10-30" d="M 1600 -141 
Q 816 -141 533 504 
Q 250 1150 250 2041 
Q 250 2597 351 3087 
Q 453 3578 754 3920 
Q 1056 4263 1600 4263 
Q 2022 4263 2290 4056 
Q 2559 3850 2700 3523 
Q 2841 3197 2892 2823 
Q 2944 2450 2944 2041 
Q 2944 1491 2842 1011 
Q 2741 531 2444 195 
Q 2147 -141 1600 -141 
z
M 1600 25 
Q 1956 25 2131 390 
Q 2306 756 2347 1200 
Q 2388 1644 2388 2144 
Q 2388 2625 2347 3031 
Q 2306 3438 2132 3767 
Q 1959 4097 1600 4097 
Q 1238 4097 1063 3765 
Q 888 3434 847 3029 
Q 806 2625 806 2144 
Q 806 1788 823 1472 
Q 841 1156 916 820 
Q 991 484 1158 254 
Q 1325 25 1600 25 
z
" transform="scale(0.015625)"/>
        <path id="Cmmi10-3a" d="M 538 353 
Q 538 497 644 600 
Q 750 703 891 703 
Q 978 703 1062 656 
Q 1147 609 1194 525 
Q 1241 441 1241 353 
Q 1241 213 1137 106 
Q 1034 0 891 0 
Q 750 0 644 106 
Q 538 213 538 353 
z
" transform="scale(0.015625)"/>
        <path id="Cmr10-36" d="M 1600 -141 
Q 1203 -141 937 70 
Q 672 281 526 617 
Q 381 953 325 1322 
Q 269 1691 269 2069 
Q 269 2575 466 3084 
Q 663 3594 1045 3928 
Q 1428 4263 1953 4263 
Q 2172 4263 2361 4180 
Q 2550 4097 2658 3936 
Q 2766 3775 2766 3547 
Q 2766 3416 2677 3327 
Q 2588 3238 2456 3238 
Q 2331 3238 2240 3328 
Q 2150 3419 2150 3547 
Q 2150 3672 2240 3762 
Q 2331 3853 2456 3853 
L 2491 3853 
Q 2409 3969 2261 4023 
Q 2113 4078 1953 4078 
Q 1759 4078 1595 3993 
Q 1431 3909 1300 3765 
Q 1169 3622 1081 3448 
Q 994 3275 945 3053 
Q 897 2831 884 2637 
Q 872 2444 872 2150 
Q 984 2413 1190 2580 
Q 1397 2747 1656 2747 
Q 1941 2747 2175 2631 
Q 2409 2516 2578 2311 
Q 2747 2106 2836 1843 
Q 2925 1581 2925 1313 
Q 2925 938 2758 598 
Q 2591 259 2287 59 
Q 1984 -141 1600 -141 
z
M 1600 63 
Q 1847 63 1997 175 
Q 2147 288 2217 473 
Q 2288 659 2305 848 
Q 2322 1038 2322 1313 
Q 2322 1675 2287 1931 
Q 2253 2188 2100 2383 
Q 1947 2578 1631 2578 
Q 1372 2578 1205 2403 
Q 1038 2228 961 1961 
Q 884 1694 884 1447 
Q 884 1363 891 1319 
Q 891 1309 889 1303 
Q 888 1297 884 1288 
Q 884 1013 940 731 
Q 997 450 1156 256 
Q 1316 63 1600 63 
z
" transform="scale(0.015625)"/>
       </defs>
       <use xlink:href="#Cmr10-30" transform="translate(0 0.390625)"/>
       <use xlink:href="#Cmmi10-3a" transform="translate(50 0.390625)"/>
       <use xlink:href="#Cmr10-36" transform="translate(77.685547 0.390625)"/>
      </g>
     </g>
    </g>
    <g id="xtick_2">
     <g id="line2d_3">
      <g>
       <use xlink:href="#m4170b8facb" x="347.892483" y="245.665354" style="stroke: #000000"/>
      </g>
     </g>
     <g id="text_2">
      <!-- $0.8$ -->
      <g transform="translate(329.972483 270.440979) scale(0.28 -0.28)">
       <defs>
        <path id="Cmr10-38" d="M 269 972 
Q 269 1356 522 1651 
Q 775 1947 1172 2144 
L 934 2297 
Q 716 2441 578 2680 
Q 441 2919 441 3181 
Q 441 3488 602 3734 
Q 763 3981 1030 4122 
Q 1297 4263 1600 4263 
Q 1884 4263 2148 4147 
Q 2413 4031 2583 3815 
Q 2753 3600 2753 3303 
Q 2753 3088 2651 2903 
Q 2550 2719 2373 2572 
Q 2197 2425 1997 2322 
L 2363 2088 
Q 2616 1922 2770 1653 
Q 2925 1384 2925 1088 
Q 2925 741 2739 456 
Q 2553 172 2247 15 
Q 1941 -141 1600 -141 
Q 1269 -141 961 -6 
Q 653 128 461 383 
Q 269 638 269 972 
z
M 616 972 
Q 616 719 755 509 
Q 894 300 1122 181 
Q 1350 63 1600 63 
Q 1972 63 2275 280 
Q 2578 497 2578 856 
Q 2578 978 2529 1098 
Q 2481 1219 2395 1317 
Q 2309 1416 2203 1478 
L 1344 2034 
Q 1144 1928 976 1765 
Q 809 1603 712 1400 
Q 616 1197 616 972 
z
M 1056 2925 
L 1831 2425 
Q 2100 2581 2272 2803 
Q 2444 3025 2444 3303 
Q 2444 3519 2323 3698 
Q 2203 3878 2009 3978 
Q 1816 4078 1594 4078 
Q 1400 4078 1203 4003 
Q 1006 3928 878 3779 
Q 750 3631 750 3431 
Q 750 3131 1056 2925 
z
" transform="scale(0.015625)"/>
       </defs>
       <use xlink:href="#Cmr10-30" transform="translate(0 0.390625)"/>
       <use xlink:href="#Cmmi10-3a" transform="translate(50 0.390625)"/>
       <use xlink:href="#Cmr10-38" transform="translate(77.685547 0.390625)"/>
      </g>
     </g>
    </g>
    <g id="xtick_3">
     <g id="line2d_4">
      <g>
       <use xlink:href="#m4170b8facb" x="520.076831" y="245.665354" style="stroke: #000000"/>
      </g>
     </g>
     <g id="text_3">
      <!-- $1.0$ -->
      <g transform="translate(502.156831 270.440979) scale(0.28 -0.28)">
       <defs>
        <path id="Cmr10-31" d="M 594 0 
L 594 225 
Q 1394 225 1394 428 
L 1394 3788 
Q 1063 3628 556 3628 
L 556 3853 
Q 1341 3853 1741 4263 
L 1831 4263 
Q 1853 4263 1873 4245 
Q 1894 4228 1894 4206 
L 1894 428 
Q 1894 225 2694 225 
L 2694 0 
L 594 0 
z
" transform="scale(0.015625)"/>
       </defs>
       <use xlink:href="#Cmr10-31" transform="translate(0 0.390625)"/>
       <use xlink:href="#Cmmi10-3a" transform="translate(50 0.390625)"/>
       <use xlink:href="#Cmr10-30" transform="translate(77.685547 0.390625)"/>
      </g>
     </g>
    </g>
    <g id="xtick_4">
     <g id="line2d_5">
      <g>
       <use xlink:href="#m4170b8facb" x="692.261179" y="245.665354" style="stroke: #000000"/>
      </g>
     </g>
     <g id="text_4">
      <!-- $1.2$ -->
      <g transform="translate(674.341179 270.440979) scale(0.28 -0.28)">
       <defs>
        <path id="Cmr10-32" d="M 319 0 
L 319 172 
Q 319 188 331 206 
L 1325 1306 
Q 1550 1550 1690 1715 
Q 1831 1881 1968 2097 
Q 2106 2313 2186 2536 
Q 2266 2759 2266 3009 
Q 2266 3272 2169 3511 
Q 2072 3750 1880 3894 
Q 1688 4038 1416 4038 
Q 1138 4038 916 3870 
Q 694 3703 603 3438 
Q 628 3444 672 3444 
Q 816 3444 917 3347 
Q 1019 3250 1019 3097 
Q 1019 2950 917 2848 
Q 816 2747 672 2747 
Q 522 2747 420 2851 
Q 319 2956 319 3097 
Q 319 3338 409 3548 
Q 500 3759 670 3923 
Q 841 4088 1055 4175 
Q 1269 4263 1509 4263 
Q 1875 4263 2190 4108 
Q 2506 3953 2690 3670 
Q 2875 3388 2875 3009 
Q 2875 2731 2753 2481 
Q 2631 2231 2440 2026 
Q 2250 1822 1953 1562 
Q 1656 1303 1563 1216 
L 838 519 
L 1453 519 
Q 1906 519 2211 526 
Q 2516 534 2534 550 
Q 2609 631 2688 1141 
L 2875 1141 
L 2694 0 
L 319 0 
z
" transform="scale(0.015625)"/>
       </defs>
       <use xlink:href="#Cmr10-31" transform="translate(0 0.390625)"/>
       <use xlink:href="#Cmmi10-3a" transform="translate(50 0.390625)"/>
       <use xlink:href="#Cmr10-32" transform="translate(77.685547 0.390625)"/>
      </g>
     </g>
    </g>
    <g id="xtick_5">
     <g id="line2d_6">
      <g>
       <use xlink:href="#m4170b8facb" x="864.445528" y="245.665354" style="stroke: #000000"/>
      </g>
     </g>
     <g id="text_5">
      <!-- $1.4$ -->
      <g transform="translate(846.525528 270.440979) scale(0.28 -0.28)">
       <defs>
        <path id="Cmr10-34" d="M 178 1056 
L 178 1281 
L 2156 4231 
Q 2178 4263 2222 4263 
L 2316 4263 
Q 2388 4263 2388 4191 
L 2388 1281 
L 3016 1281 
L 3016 1056 
L 2388 1056 
L 2388 428 
Q 2388 297 2575 261 
Q 2763 225 3009 225 
L 3009 0 
L 1247 0 
L 1247 225 
Q 1494 225 1681 261 
Q 1869 297 1869 428 
L 1869 1056 
L 178 1056 
z
M 391 1281 
L 1906 1281 
L 1906 3547 
L 391 1281 
z
" transform="scale(0.015625)"/>
       </defs>
       <use xlink:href="#Cmr10-31" transform="translate(0 0.390625)"/>
       <use xlink:href="#Cmmi10-3a" transform="translate(50 0.390625)"/>
       <use xlink:href="#Cmr10-34" transform="translate(77.685547 0.390625)"/>
      </g>
     </g>
    </g>
   </g>
   <g id="matplotlib.axis_2">
    <g id="ytick_1">
     <g id="line2d_7">
      <defs>
       <path id="m9d009eee36" d="M 0 0 
L 5 0 
" style="stroke: #000000"/>
      </defs>
      <g>
       <use xlink:href="#m9d009eee36" x="63.788308" y="209.280387" style="stroke: #000000"/>
      </g>
     </g>
     <g id="text_6">
      <!-- $-0.5$ -->
      <g transform="translate(2.608308 219.9182) scale(0.28 -0.28)">
       <defs>
        <path id="Cmsy10-a1" d="M 653 1472 
Q 600 1472 565 1512 
Q 531 1553 531 1600 
Q 531 1647 565 1687 
Q 600 1728 653 1728 
L 4325 1728 
Q 4375 1728 4408 1687 
Q 4441 1647 4441 1600 
Q 4441 1553 4408 1512 
Q 4375 1472 4325 1472 
L 653 1472 
z
" transform="scale(0.015625)"/>
        <path id="Cmr10-35" d="M 556 728 
Q 622 541 758 387 
Q 894 234 1080 148 
Q 1266 63 1466 63 
Q 1928 63 2103 422 
Q 2278 781 2278 1294 
Q 2278 1516 2270 1667 
Q 2263 1819 2228 1959 
Q 2169 2184 2020 2353 
Q 1872 2522 1656 2522 
Q 1441 2522 1286 2456 
Q 1131 2391 1034 2303 
Q 938 2216 863 2119 
Q 788 2022 769 2016 
L 697 2016 
Q 681 2016 657 2036 
Q 634 2056 634 2075 
L 634 4213 
Q 634 4228 654 4245 
Q 675 4263 697 4263 
L 716 4263 
Q 1147 4056 1631 4056 
Q 2106 4056 2547 4263 
L 2566 4263 
Q 2588 4263 2606 4247 
Q 2625 4231 2625 4213 
L 2625 4153 
Q 2625 4122 2613 4122 
Q 2394 3831 2064 3668 
Q 1734 3506 1381 3506 
Q 1125 3506 856 3578 
L 856 2369 
Q 1069 2541 1236 2614 
Q 1403 2688 1663 2688 
Q 2016 2688 2295 2484 
Q 2575 2281 2725 1954 
Q 2875 1628 2875 1288 
Q 2875 903 2686 575 
Q 2497 247 2172 53 
Q 1847 -141 1466 -141 
Q 1150 -141 886 21 
Q 622 184 470 459 
Q 319 734 319 1044 
Q 319 1188 412 1278 
Q 506 1369 647 1369 
Q 788 1369 883 1276 
Q 978 1184 978 1044 
Q 978 906 883 811 
Q 788 716 647 716 
Q 625 716 597 720 
Q 569 725 556 728 
z
" transform="scale(0.015625)"/>
       </defs>
       <use xlink:href="#Cmsy10-a1" transform="translate(0 0.390625)"/>
       <use xlink:href="#Cmr10-30" transform="translate(77.685547 0.390625)"/>
       <use xlink:href="#Cmmi10-3a" transform="translate(127.685547 0.390625)"/>
       <use xlink:href="#Cmr10-35" transform="translate(155.371094 0.390625)"/>
      </g>
     </g>
    </g>
    <g id="ytick_2">
     <g id="line2d_8">
      <g>
       <use xlink:href="#m9d009eee36" x="63.788308" y="160.538597" style="stroke: #000000"/>
      </g>
     </g>
     <g id="text_7">
      <!-- $0.0$ -->
      <g transform="translate(24.448308 171.176409) scale(0.28 -0.28)">
       <use xlink:href="#Cmr10-30" transform="translate(0 0.390625)"/>
       <use xlink:href="#Cmmi10-3a" transform="translate(50 0.390625)"/>
       <use xlink:href="#Cmr10-30" transform="translate(77.685547 0.390625)"/>
      </g>
     </g>
    </g>
    <g id="ytick_3">
     <g id="line2d_9">
      <g>
       <use xlink:href="#m9d009eee36" x="63.788308" y="111.796806" style="stroke: #000000"/>
      </g>
     </g>
     <g id="text_8">
      <!-- $0.5$ -->
      <g transform="translate(24.448308 122.434618) scale(0.28 -0.28)">
       <use xlink:href="#Cmr10-30" transform="translate(0 0.390625)"/>
       <use xlink:href="#Cmmi10-3a" transform="translate(50 0.390625)"/>
       <use xlink:href="#Cmr10-35" transform="translate(77.685547 0.390625)"/>
      </g>
     </g>
    </g>
    <g id="ytick_4">
     <g id="line2d_10">
      <g>
       <use xlink:href="#m9d009eee36" x="63.788308" y="63.055015" style="stroke: #000000"/>
      </g>
     </g>
     <g id="text_9">
      <!-- $1.0$ -->
      <g transform="translate(24.448308 73.692828) scale(0.28 -0.28)">
       <use xlink:href="#Cmr10-31" transform="translate(0 0.390625)"/>
       <use xlink:href="#Cmmi10-3a" transform="translate(50 0.390625)"/>
       <use xlink:href="#Cmr10-30" transform="translate(77.685547 0.390625)"/>
      </g>
     </g>
    </g>
    <g id="ytick_5">
     <g id="line2d_11">
      <g>
       <use xlink:href="#m9d009eee36" x="63.788308" y="14.313224" style="stroke: #000000"/>
      </g>
     </g>
     <g id="text_10">
      <!-- $1.5$ -->
      <g transform="translate(24.448308 24.951037) scale(0.28 -0.28)">
       <use xlink:href="#Cmr10-31" transform="translate(0 0.390625)"/>
       <use xlink:href="#Cmmi10-3a" transform="translate(50 0.390625)"/>
       <use xlink:href="#Cmr10-35" transform="translate(77.685547 0.390625)"/>
      </g>
     </g>
    </g>
   </g>
   <g id="line2d_12">
    <path d="M 89.61596 96.296855 
L 98.225177 96.377219 
L 106.834395 96.460866 
L 115.443612 96.548001 
L 124.05283 96.638845 
L 132.662047 96.73364 
L 141.271265 96.83265 
L 149.880482 96.93616 
L 158.489699 97.044485 
L 167.098917 97.157967 
L 175.708134 97.276983 
L 184.317352 97.401946 
L 192.926569 97.533312 
L 201.535787 97.671585 
L 210.145004 97.817322 
L 218.754221 97.971142 
L 227.363439 98.133734 
L 235.972656 98.305868 
L 244.581874 98.488405 
L 253.191091 98.682314 
L 261.800308 98.888685 
L 270.409526 99.108754 
L 279.018743 99.343923 
L 287.627961 99.595793 
L 296.237178 99.866195 
L 304.846396 100.157239 
L 313.455613 100.471361 
L 322.06483 100.811397 
L 330.674048 101.180661 
L 339.283265 101.583049 
L 347.892483 102.023175 
L 356.5017 102.506538 
L 365.110917 103.039745 
L 373.720135 103.630794 
L 382.329352 104.289457 
L 390.93857 105.027785 
L 399.547787 105.860791 
L 408.157005 106.807389 
L 416.766222 107.891692 
L 425.375439 109.144823 
L 433.984657 110.607484 
L 442.593874 112.333613 
L 451.203092 114.39556 
L 459.812309 116.891316 
L 468.421527 119.953994 
L 477.030744 123.76238 
L 485.639961 128.546363 
L 494.249179 134.567694 
L 502.858396 142.031397 
L 511.467614 150.87761 
L 520.076831 160.538597 
L 528.686048 170.015181 
L 537.295266 178.41073 
L 545.904483 185.346938 
L 554.513701 190.887358 
L 563.122918 195.276739 
L 571.732136 198.773951 
L 580.341353 201.59339 
L 588.95057 203.897984 
L 597.559788 205.807981 
L 606.169005 207.411689 
L 614.778223 208.774358 
L 623.38744 209.944735 
L 631.996658 210.959711 
L 640.605875 211.847577 
L 649.215092 212.630317 
L 657.82431 213.325226 
L 666.433527 213.946071 
L 675.042745 214.503929 
L 683.651962 215.007805 
L 692.261179 215.465084 
L 700.870397 215.88188 
L 709.479614 216.263292 
L 718.088832 216.613606 
L 726.698049 216.936446 
L 735.307267 217.2349 
L 743.916484 217.511612 
L 752.525701 217.768862 
L 761.134919 218.00862 
L 769.744136 218.232604 
L 778.353354 218.442312 
L 786.962571 218.639062 
L 795.571789 218.824013 
L 804.181006 218.998192 
L 812.790223 219.16251 
L 821.399441 219.317778 
L 830.008658 219.464721 
L 838.617876 219.603989 
L 847.227093 219.736167 
L 855.83631 219.861781 
L 864.445528 219.981306 
L 873.054745 220.095175 
L 881.663963 220.203777 
L 890.27318 220.30747 
L 898.882398 220.406578 
L 907.491615 220.501399 
L 916.100832 220.592203 
L 924.71005 220.67924 
L 933.319267 220.76274 
L 941.928485 220.842913 
L 950.537702 220.919955 
" clip-path="url(#p0029029dcb)" style="fill: none; stroke: #4daf4a; stroke-width: 4"/>
   </g>
   <g id="patch_3">
    <path d="M 63.788308 245.665354 
L 63.788308 7.346198 
" style="fill: none; stroke: #000000; stroke-width: 2; stroke-linejoin: miter; stroke-linecap: square"/>
   </g>
   <g id="patch_4">
    <path d="M 63.788308 245.665354 
L 976.365354 245.665354 
" style="fill: none; stroke: #000000; stroke-width: 2; stroke-linejoin: miter; stroke-linecap: square"/>
   </g>
   <g id="line2d_13">
    <path d="M 89.61596 141.560946 
L 98.225177 139.991009 
L 106.834395 138.481556 
L 115.443612 137.029433 
L 124.05283 135.63178 
L 132.662047 134.286005 
L 141.271265 132.98976 
L 149.880482 131.740921 
L 158.489699 130.537572 
L 167.098917 129.377992 
L 175.708134 128.260638 
L 184.317352 127.184142 
L 192.926569 126.1473 
L 201.535787 125.149069 
L 210.145004 124.188562 
L 218.754221 123.265048 
L 227.363439 122.377952 
L 235.972656 121.526861 
L 244.581874 120.711527 
L 253.191091 119.931877 
L 261.800308 119.188025 
L 270.409526 118.480289 
L 279.018743 117.809209 
L 287.627961 117.175573 
L 296.237178 116.580453 
L 304.846396 116.025242 
L 313.455613 115.511707 
L 322.06483 115.042055 
L 330.674048 114.619011 
L 339.283265 114.245926 
L 347.892483 113.926907 
L 356.5017 113.666987 
L 365.110917 113.472346 
L 373.720135 113.350603 
L 382.329352 113.311193 
L 390.93857 113.365887 
L 399.547787 113.529474 
L 408.157005 113.820718 
L 416.766222 114.26366 
L 425.375439 114.889463 
L 433.984657 115.739 
L 442.593874 116.866558 
L 451.203092 118.345071 
L 459.812309 120.273426 
L 468.421527 122.786045 
L 477.030744 126.063543 
L 485.639961 130.338189 
L 494.249179 135.874427 
L 502.858396 142.87929 
L 511.467614 151.292021 
L 520.076831 160.538597 
L 528.686048 169.609049 
L 537.295266 177.597041 
L 545.904483 184.119999 
L 554.513701 189.241908 
L 563.122918 193.209925 
L 571.732136 196.285525 
L 580.341353 198.685246 
L 588.95057 200.573608 
L 597.559788 202.071978 
L 606.169005 203.269429 
L 614.778223 204.23172 
L 623.38744 205.007919 
L 631.996658 205.635109 
L 640.605875 206.141676 
L 649.215092 206.549636 
L 657.82431 206.876263 
L 666.433527 207.135271 
L 675.042745 207.33766 
L 683.651962 207.492336 
L 692.261179 207.606578 
L 700.870397 207.686383 
L 709.479614 207.736726 
L 718.088832 207.761769 
L 726.698049 207.765008 
L 735.307267 207.749403 
L 743.916484 207.717472 
L 752.525701 207.671367 
L 761.134919 207.612936 
L 769.744136 207.543773 
L 778.353354 207.465257 
L 786.962571 207.378588 
L 795.571789 207.284813 
L 804.181006 207.184844 
L 812.790223 207.079484 
L 821.399441 206.969439 
L 830.008658 206.855331 
L 838.617876 206.73771 
L 847.227093 206.617061 
L 855.83631 206.493817 
L 864.445528 206.368361 
L 873.054745 206.241036 
L 881.663963 206.112145 
L 890.27318 205.981961 
L 898.882398 205.850725 
L 907.491615 205.718656 
L 916.100832 205.585948 
L 924.71005 205.452776 
L 933.319267 205.319294 
L 941.928485 205.185644 
L 950.537702 205.051952 
" clip-path="url(#p0029029dcb)" style="fill: none; stroke: #984ea3; stroke-width: 4"/>
   </g>
  </g>
 </g>
 <defs>
  <clipPath id="p0029029dcb">
   <rect x="63.788308" y="7.346198" width="912.577047" height="238.319157"/>
  </clipPath>
 </defs>
</svg>
