<?xml version="1.0" encoding="utf-8" standalone="no"?>
<!DOCTYPE svg PUBLIC "-//W3C//DTD SVG 1.1//EN"
  "http://www.w3.org/Graphics/SVG/1.1/DTD/svg11.dtd">
<svg xmlns:xlink="http://www.w3.org/1999/xlink" width="624.96pt" height="100.8pt" viewBox="0 0 624.96 100.8" xmlns="http://www.w3.org/2000/svg" version="1.1">
 <metadata>
  <rdf:RDF xmlns:dc="http://purl.org/dc/elements/1.1/" xmlns:cc="http://creativecommons.org/ns#" xmlns:rdf="http://www.w3.org/1999/02/22-rdf-syntax-ns#">
   <cc:Work>
    <dc:type rdf:resource="http://purl.org/dc/dcmitype/StillImage"/>
    <dc:date>2024-08-20T09:31:53.625314</dc:date>
    <dc:format>image/svg+xml</dc:format>
    <dc:creator>
     <cc:Agent>
      <dc:title>Matplotlib v3.8.4, https://matplotlib.org/</dc:title>
     </cc:Agent>
    </dc:creator>
   </cc:Work>
  </rdf:RDF>
 </metadata>
 <defs>
  <style type="text/css">*{stroke-linejoin: round; stroke-linecap: butt}</style>
 </defs>
 <g id="figure_1">
  <g id="patch_1">
   <path d="M 0 100.8 
L 624.96 100.8 
L 624.96 0 
L 0 0 
L 0 100.8 
z
" style="fill: none"/>
  </g>
  <g id="axes_1">
   <g id="patch_2">
    <path d="M 21.004646 67.105354 
L 621.666992 67.105354 
L 621.666992 11.632379 
L 21.004646 11.632379 
L 21.004646 67.105354 
z
" style="fill: none"/>
   </g>
   <g id="line2d_1">
    <path d="M 38.004523 65.529932 
L 40.101175 65.423794 
L 40.611171 65.176117 
L 40.979502 64.751616 
L 41.3195 64.012623 
L 41.68783 62.599763 
L 42.056161 60.241353 
L 42.481158 55.919336 
L 42.962821 48.56726 
L 43.671149 33.823465 
L 44.521143 17.244837 
L 44.889474 13.71993 
L 45.087806 13.202369 
L 45.172805 13.29334 
L 45.314471 13.859629 
L 45.541136 15.798208 
L 45.909467 21.277845 
L 46.589462 35.662153 
L 47.439456 52.314677 
L 47.977785 58.984701 
L 48.459448 62.441562 
L 48.884445 64.08383 
L 49.309442 64.911153 
L 49.734439 65.288023 
L 50.301102 65.46992 
L 51.406094 65.527606 
L 60.161031 65.483951 
L 60.812693 65.296275 
L 61.209357 64.965041 
L 61.577687 64.335274 
L 61.917685 63.284169 
L 62.286015 61.360646 
L 62.682679 58.003717 
L 63.136009 52.101246 
L 63.731005 40.950375 
L 65.005996 15.964252 
L 65.31766 13.514195 
L 65.487659 13.205519 
L 65.600992 13.417295 
L 65.799324 14.576604 
L 66.082655 17.837599 
L 66.535985 26.05181 
L 68.037641 55.372746 
L 68.547637 60.569509 
L 69.000967 63.177189 
L 69.425964 64.46472 
L 69.850961 65.089302 
L 70.304291 65.374475 
L 70.955953 65.50112 
L 72.769273 65.530229 
L 87.13417 65.426373 
L 87.644166 65.183061 
L 88.012497 64.765247 
L 88.352495 64.036707 
L 88.720825 62.641476 
L 89.089156 60.308308 
L 89.514153 56.023856 
L 89.995816 48.717702 
L 90.704144 34.011362 
L 91.554138 17.360328 
L 91.922469 13.764368 
L 92.120801 13.203983 
L 92.2058 13.276432 
L 92.347466 13.812363 
L 92.574131 15.705652 
L 92.942462 21.127374 
L 93.622457 35.475605 
L 94.500784 52.621719 
L 95.039113 59.171115 
L 95.520776 62.544072 
L 95.945773 64.137938 
L 96.37077 64.937046 
L 96.795767 65.299366 
L 97.36243 65.473356 
L 98.524088 65.528537 
L 112.293989 65.502676 
L 113.058984 65.333671 
L 113.483981 65.01746 
L 113.852311 64.436619 
L 114.192309 63.458496 
L 114.560639 61.651873 
L 114.957303 58.466238 
L 115.410633 52.79678 
L 115.977296 42.50158 
L 117.365619 15.523874 
L 117.677284 13.375244 
L 117.818949 13.21214 
L 117.932282 13.457569 
L 118.130614 14.673566 
L 118.442278 18.429918 
L 118.923941 27.495748 
L 120.255599 53.990291 
L 120.793928 59.985578 
L 121.247258 62.856345 
L 121.672255 64.300629 
L 122.097252 65.013627 
L 122.550582 65.344923 
L 123.173911 65.492236 
L 124.675567 65.530316 
L 137.000478 65.437866 
L 137.538808 65.196247 
L 137.907138 64.791552 
L 138.247136 64.083584 
L 138.615466 62.723152 
L 138.983797 60.44 
L 139.408794 56.230328 
L 139.890457 49.016273 
L 140.598786 34.387109 
L 141.477113 17.201903 
L 141.845443 13.704312 
L 142.043775 13.203169 
L 142.128775 13.301233 
L 142.298773 14.055755 
L 142.553772 16.508776 
L 142.950435 22.928184 
L 144.877088 58.466982 
L 145.358751 62.154635 
L 145.783748 63.931881 
L 146.208745 64.838776 
L 146.633742 65.257104 
L 147.172072 65.456572 
L 148.163731 65.52629 
L 156.720336 65.530902 
L 160.063646 65.425555 
L 160.573642 65.179452 
L 160.941973 64.75736 
L 161.28197 64.022131 
L 161.650301 62.615614 
L 162.018632 60.266279 
L 162.443628 55.957753 
L 162.925292 48.622142 
L 163.63362 33.891695 
L 164.483614 17.286927 
L 164.851944 13.736491 
L 165.050276 13.203562 
L 165.135276 13.28789 
L 165.276941 13.843297 
L 165.503606 15.765654 
L 165.871937 21.22458 
L 166.551932 35.596084 
L 167.401926 52.269135 
L 167.940256 58.957343 
L 168.421919 62.42693 
L 168.846916 64.076569 
L 169.271913 64.908205 
L 169.69691 65.287306 
L 170.235239 65.465802 
L 171.283565 65.527779 
L 181.313493 65.516004 
L 182.220153 65.366586 
L 182.673483 65.067621 
L 183.041814 64.534314 
L 183.381811 63.627897 
L 183.750142 61.937546 
L 184.146806 58.924885 
L 184.600136 53.495764 
L 185.138465 44.050637 
L 186.668454 14.87033 
L 186.951786 13.281021 
L 187.065118 13.220597 
L 187.093451 13.25778 
L 187.235117 13.754889 
L 187.461782 15.590105 
L 187.801779 20.438907 
L 188.425108 33.334392 
L 189.388435 52.459006 
L 189.926764 59.072873 
L 190.408427 62.490564 
L 190.833424 64.110191 
L 191.258421 64.924295 
L 191.683418 65.294339 
L 192.250081 65.47252 
L 193.383406 65.529053 
L 202.818338 65.485208 
L 203.47 65.297853 
L 203.866664 64.967119 
L 204.234995 64.338205 
L 204.574992 63.288363 
L 204.943323 61.366853 
L 205.339987 58.012852 
L 205.793317 52.114323 
L 206.388312 40.967796 
L 207.663303 15.974211 
L 207.974968 13.518432 
L 208.144966 13.206395 
L 208.258299 13.415929 
L 208.428298 14.346576 
L 208.711629 17.425169 
L 209.164959 25.448039 
L 210.723281 55.727479 
L 211.233278 60.77678 
L 211.686608 63.290121 
L 212.111605 64.522406 
L 212.536602 65.11629 
L 213.018265 65.39537 
L 213.726593 65.510083 
L 216.021576 65.531474 
L 223.529856 65.421402 
L 224.039852 65.165905 
L 224.408183 64.729461 
L 224.74818 63.971847 
L 225.116511 62.527679 
L 225.484842 60.124588 
L 225.909839 55.736371 
L 226.419835 47.786137 
L 227.18483 31.595536 
L 227.921491 17.434953 
L 228.289822 13.794282 
L 228.516487 13.206196 
L 228.629819 13.412406 
L 228.799818 14.33822 
L 229.083149 17.40965 
L 229.508146 24.843708 
L 231.151468 56.41344 
L 231.661464 61.171523 
L 232.114794 63.501928 
L 232.539791 64.628553 
L 232.964788 65.164424 
L 233.446451 65.412874 
L 234.211446 65.516076 
L 237.158091 65.531677 
L 243.334713 65.421354 
L 243.84471 65.165378 
L 244.21304 64.728205 
L 244.553038 63.969455 
L 244.921369 62.523382 
L 245.289699 60.117577 
L 245.714696 55.725349 
L 246.224693 47.770009 
L 246.989687 31.575977 
L 247.726348 17.422795 
L 248.094679 13.789602 
L 248.321344 13.206697 
L 248.434677 13.415513 
L 248.604675 14.345118 
L 248.888007 17.422165 
L 249.313004 24.861954 
L 250.956325 56.424295 
L 251.466322 61.177797 
L 251.919652 63.505358 
L 252.344649 64.630357 
L 252.769646 65.165341 
L 253.251309 65.413328 
L 254.016303 65.516309 
L 256.962949 65.531871 
L 262.77124 65.424107 
L 263.281237 65.173199 
L 263.649567 64.743757 
L 263.989565 63.997052 
L 264.357896 62.571212 
L 264.726226 60.194254 
L 265.151223 55.844711 
L 265.661219 47.94387 
L 266.426214 31.786877 
L 267.191208 17.163615 
L 267.559539 13.690831 
L 267.757871 13.20458 
L 267.84287 13.309073 
L 268.012869 14.076168 
L 268.267867 16.546367 
L 268.664531 22.985455 
L 270.591184 58.497107 
L 271.072847 62.171986 
L 271.497844 63.94169 
L 271.922841 64.844106 
L 272.347838 65.260084 
L 272.886168 65.458287 
L 273.877827 65.527495 
L 281.244441 65.51669 
L 282.151101 65.364979 
L 282.604431 65.062025 
L 282.972762 64.522367 
L 283.312759 63.606322 
L 283.68109 61.900276 
L 284.077754 58.864109 
L 284.531084 53.402027 
L 285.069413 43.920201 
L 286.599402 14.81277 
L 286.882734 13.2695 
L 286.967733 13.207159 
L 286.996066 13.228222 
L 287.109399 13.520851 
L 287.30773 14.816093 
L 287.619395 18.679222 
L 288.129391 28.456308 
L 289.376049 53.407463 
L 289.914378 59.642575 
L 290.367708 62.665563 
L 290.792705 64.202337 
L 291.217702 64.968383 
L 291.671032 65.327796 
L 292.266028 65.486034 
L 293.569352 65.531299 
L 300.850966 65.442283 
L 301.389296 65.207018 
L 301.757627 64.811829 
L 302.097624 64.118816 
L 302.465955 62.783776 
L 302.834285 60.537274 
L 303.259282 56.382698 
L 303.740946 49.237077 
L 304.420941 35.300867 
L 305.327601 17.374088 
L 305.695932 13.770891 
L 305.894263 13.206137 
L 305.979263 13.276695 
L 306.120928 13.809523 
L 306.347594 15.698179 
L 306.715924 21.113963 
L 307.395919 35.458455 
L 308.274246 52.610634 
L 308.812576 59.165182 
L 309.294239 62.541703 
L 309.719236 64.137617 
L 310.144233 64.937916 
L 310.56923 65.300848 
L 311.135892 65.475169 
L 312.269218 65.530285 
L 319.324167 65.470149 
L 319.919163 65.265488 
L 320.315826 64.894659 
L 320.655824 64.268646 
L 320.995822 63.168539 
L 321.364152 61.167308 
L 321.760816 57.697913 
L 322.214146 51.645119 
L 322.809142 40.331289 
L 324.027466 16.293561 
L 324.367464 13.513814 
L 324.537463 13.208139 
L 324.650795 13.421916 
L 324.849127 14.5846 
L 325.132458 17.849811 
L 325.585788 26.068382 
L 327.087444 55.3839 
L 327.597441 60.577002 
L 328.050771 63.182328 
L 328.475768 64.468474 
L 328.900765 65.092284 
L 329.354095 65.377058 
L 330.005757 65.503503 
L 331.819077 65.532557 
L 337.712368 65.426419 
L 338.222364 65.17856 
L 338.590695 64.753781 
L 338.930693 64.014353 
L 339.299023 62.600762 
L 339.667354 60.241305 
L 340.092351 55.917734 
L 340.574014 48.563764 
L 341.282342 33.818442 
L 342.132336 17.24284 
L 342.500667 13.720875 
L 342.698999 13.205082 
L 342.783998 13.296818 
L 342.925664 13.864359 
L 343.152329 15.804801 
L 343.52066 21.286815 
L 344.200655 35.672581 
L 345.050649 52.322735 
L 345.588978 58.990668 
L 346.070641 62.446068 
L 346.495638 64.087489 
L 346.920635 64.914318 
L 347.345632 65.290933 
L 347.912295 65.472691 
L 349.017287 65.530326 
L 355.335575 65.467999 
L 355.93057 65.256291 
L 356.327234 64.874168 
L 356.667232 64.231066 
L 357.007229 63.104256 
L 357.37556 61.060936 
L 357.772224 57.531075 
L 358.225554 51.398328 
L 358.820549 39.999932 
L 360.010541 16.452597 
L 360.350538 13.568034 
L 360.520537 13.205361 
L 360.54887 13.217962 
L 360.662203 13.476979 
L 360.860535 14.715818 
L 361.172199 18.503025 
L 361.653862 27.597379 
L 362.98552 54.058029 
L 363.523849 60.026174 
L 363.977179 62.879903 
L 364.402176 64.313917 
L 364.827173 65.021064 
L 365.280503 65.349279 
L 365.903832 65.495039 
L 367.405488 65.532651 
L 373.327112 65.431376 
L 373.837108 65.192634 
L 374.205439 64.781838 
L 374.545436 64.064292 
L 374.913767 62.687639 
L 375.282098 60.381143 
L 375.707095 56.136509 
L 376.188758 48.87928 
L 376.897086 34.213593 
L 377.74708 17.487056 
L 378.115411 13.815884 
L 378.342076 13.206651 
L 378.455408 13.402217 
L 378.625407 14.312547 
L 378.908738 17.361017 
L 379.333735 24.771618 
L 380.977057 56.3714 
L 381.487053 61.148203 
L 381.940383 63.490234 
L 382.36538 64.623516 
L 382.790377 65.163013 
L 383.27204 65.413364 
L 384.037035 65.517467 
L 386.955347 65.53323 
L 391.488648 65.425667 
L 391.998644 65.175156 
L 392.366975 64.746323 
L 392.706972 64.000567 
L 393.075303 62.576323 
L 393.443634 60.201643 
L 393.868631 55.855478 
L 394.378627 47.958959 
L 395.143622 31.80494 
L 395.908616 17.175106 
L 396.276947 13.695924 
L 396.475279 13.205836 
L 396.560278 13.308673 
L 396.730277 14.072532 
L 396.985275 16.538311 
L 397.381939 22.972342 
L 399.308592 58.49102 
L 399.790255 62.169185 
L 400.215252 63.940828 
L 400.640249 64.844395 
L 401.065246 65.260976 
L 401.603575 65.459504 
L 402.595235 65.528843 
L 409.423519 65.509951 
L 410.216847 65.35143 
L 410.641843 65.05571 
L 411.010174 64.508655 
L 411.350172 63.581414 
L 411.718502 61.857147 
L 412.115166 58.793757 
L 412.568496 53.293621 
L 413.106826 43.769683 
L 414.608482 15.005873 
L 414.891813 13.314893 
L 415.005145 13.212056 
L 415.033479 13.238636 
L 415.175144 13.683371 
L 415.401809 15.439953 
L 415.741807 20.193292 
L 416.336802 32.380863 
L 417.328462 52.239246 
L 417.866791 58.940106 
L 418.348455 62.41856 
L 418.773452 64.073342 
L 419.198449 64.907988 
L 419.623446 65.288648 
L 420.161775 65.467972 
L 421.210101 65.53028 
L 428.406716 65.491753 
L 429.086711 65.304294 
L 429.511708 64.944148 
L 429.851705 64.358121 
L 430.191703 63.32089 
L 430.560034 61.419482 
L 430.956697 58.094762 
L 431.410027 52.23573 
L 431.97669 41.7331 
L 433.308347 15.742526 
L 433.620012 13.442799 
L 433.761677 13.206614 
L 433.79001 13.222061 
L 433.903343 13.492384 
L 434.101675 14.750213 
L 434.413339 18.563027 
L 434.923335 28.29277 
L 436.198326 53.709886 
L 436.736656 59.822121 
L 437.189986 62.766737 
L 437.614983 64.255728 
L 438.03998 64.994288 
L 438.49331 65.339092 
L 439.088306 65.490059 
L 440.448296 65.533069 
L 447.616578 65.442064 
L 448.154907 65.202865 
L 448.523238 64.801788 
L 448.863235 64.099506 
L 449.231566 62.748719 
L 449.599897 60.479474 
L 450.024894 56.290677 
L 450.506557 49.102493 
L 451.186552 35.129594 
L 452.093212 17.269173 
L 452.461543 13.731549 
L 452.659875 13.206335 
L 452.744874 13.293999 
L 452.88654 13.85487 
L 453.113205 15.785374 
L 453.481535 21.254706 
L 454.16153 35.632654 
L 455.011524 52.295409 
L 455.549854 58.974487 
L 456.031517 62.437681 
L 456.456514 64.083616 
L 456.881511 64.913085 
L 457.306508 65.291065 
L 457.844837 65.468966 
L 458.893163 65.530705 
L 466.259777 65.493927 
L 466.939772 65.313212 
L 467.364769 64.964493 
L 467.7331 64.330607 
L 468.073097 63.273391 
L 468.441428 61.340145 
L 468.838092 57.969084 
L 469.291422 52.04761 
L 469.886417 40.87586 
L 471.161408 15.925974 
L 471.473073 13.503524 
L 471.643071 13.211046 
L 471.756404 13.433623 
L 471.954736 14.611143 
L 472.238067 17.894885 
L 472.691397 26.132599 
L 474.16472 55.052952 
L 474.674716 60.383131 
L 475.128046 63.077172 
L 475.553043 64.415725 
L 475.97804 65.068876 
L 476.43137 65.368847 
L 477.083032 65.50297 
L 478.811353 65.534065 
L 485.611304 65.426882 
L 486.121301 65.176858 
L 486.489631 64.748767 
L 486.829629 64.004171 
L 487.19796 62.581878 
L 487.56629 60.209984 
L 487.991287 55.86795 
L 488.501283 47.976728 
L 489.266278 31.826373 
L 490.031272 17.188521 
L 490.399603 13.701514 
L 490.597935 13.206727 
L 490.682934 13.307536 
L 490.852933 14.067428 
L 491.107931 16.527788 
L 491.504595 22.955612 
L 493.431248 58.482855 
L 493.912911 62.165049 
L 494.337908 63.939071 
L 494.762905 64.844051 
L 495.187902 65.261374 
L 495.726232 65.4603 
L 496.717891 65.5298 
L 503.914506 65.51569 
L 504.7645 65.362502 
L 505.21783 65.052138 
L 505.586161 64.500714 
L 505.926158 63.56687 
L 506.294489 61.831874 
L 506.691153 58.752483 
L 507.144483 53.230037 
L 507.711145 43.100735 
L 509.156135 15.239599 
L 509.467799 13.305672 
L 509.581132 13.215746 
L 509.609465 13.245555 
L 509.751131 13.706253 
L 509.977796 15.486836 
L 510.317793 20.269394 
L 510.912789 32.479691 
L 511.904449 52.308098 
L 512.442778 58.982443 
L 512.924441 62.442325 
L 513.349438 64.086341 
L 513.774435 64.914687 
L 514.199432 65.292086 
L 514.737761 65.46968 
L 515.786087 65.531295 
L 523.124368 65.495481 
L 523.804363 65.318459 
L 524.22936 64.976022 
L 524.597691 64.352335 
L 524.937688 63.310255 
L 525.306019 61.401111 
L 525.702683 58.065115 
L 526.156013 52.190857 
L 526.722675 41.671887 
L 528.054332 15.710941 
L 528.365997 13.433562 
L 528.507662 13.208218 
L 528.535996 13.225841 
L 528.649328 13.504809 
L 528.84766 14.777148 
L 529.159324 18.609494 
L 529.669321 28.357665 
L 530.944312 53.753231 
L 531.482641 59.848058 
L 531.935971 62.781636 
L 532.360968 64.263925 
L 532.785965 64.998643 
L 533.239295 65.341413 
L 533.834291 65.491371 
L 535.194281 65.534046 
L 542.390896 65.440018 
L 542.929225 65.194152 
L 543.297556 64.783121 
L 543.637554 64.065207 
L 544.005884 62.687932 
L 544.374215 60.380543 
L 544.799212 56.134574 
L 545.280875 48.8757 
L 545.989203 34.208637 
L 546.839197 17.484616 
L 547.207528 13.815966 
L 547.434193 13.208482 
L 547.547526 13.404928 
L 547.717524 14.316539 
L 548.000856 17.366909 
L 548.425853 24.779453 
L 550.069174 56.376754 
L 550.57917 61.152009 
L 551.0325 63.493077 
L 551.457497 64.625808 
L 551.882494 65.165005 
L 552.364158 65.415198 
L 553.129152 65.519226 
L 556.047464 65.534976 
L 561.34576 65.429608 
L 561.855756 65.183462 
L 562.224087 64.761304 
L 562.564084 64.025972 
L 562.932415 62.619281 
L 563.300746 60.269698 
L 563.725742 55.960802 
L 564.207406 48.62474 
L 564.915734 33.893927 
L 565.765728 17.289875 
L 566.134059 13.740137 
L 566.33239 13.20763 
L 566.41739 13.29214 
L 566.559055 13.847845 
L 566.78572 15.770646 
L 567.154051 21.23014 
L 567.834046 35.601995 
L 568.68404 52.274484 
L 569.22237 58.962195 
L 569.704033 62.431433 
L 570.12903 64.08087 
L 570.554027 64.912387 
L 570.979024 65.291427 
L 571.517353 65.469891 
L 572.565679 65.531854 
L 579.875626 65.494976 
L 580.555621 65.313823 
L 580.980618 64.96436 
L 581.348949 64.329267 
L 581.688947 63.270263 
L 582.057277 61.334173 
L 582.453941 57.958981 
L 582.907271 52.031958 
L 583.502267 40.854121 
L 584.748925 16.247159 
L 585.088922 13.500489 
L 585.258921 13.212741 
L 585.372253 13.438472 
L 585.570585 14.621306 
L 585.853917 17.911681 
L 586.307247 26.156237 
L 587.780569 55.068345 
L 588.290566 60.392691 
L 588.743896 63.082936 
L 589.168893 64.419237 
L 589.59389 65.071122 
L 590.04722 65.370436 
L 590.698882 65.504226 
L 592.427203 65.53523 
L 599.142154 65.430354 
L 599.652151 65.184919 
L 600.020481 64.763852 
L 600.360479 64.030224 
L 600.72881 62.626407 
L 601.09714 60.280939 
L 601.522137 55.978165 
L 602.003801 48.649585 
L 602.712129 33.924868 
L 603.562123 17.309004 
L 603.930453 13.747686 
L 604.128785 13.2082 
L 604.213785 13.289692 
L 604.35545 13.840451 
L 604.582115 15.755874 
L 604.667115 16.778599 
L 604.667115 16.778599 
" clip-path="url(#paca95a029d)" style="fill: none; stroke: #f61067; stroke-width: 4"/>
   </g>
   <g id="matplotlib.axis_1">
    <g id="xtick_1">
     <g id="line2d_2">
      <defs>
       <path id="m9ff2523cd2" d="M 0 0 
L 0 -5 
" style="stroke: #000000"/>
      </defs>
      <g>
       <use xlink:href="#m9ff2523cd2" x="38.004523" y="67.105354" style="stroke: #000000"/>
      </g>
     </g>
     <g id="text_1">
      <!-- $0$ -->
      <g transform="translate(31.004523 91.880979) scale(0.28 -0.28)">
       <defs>
        <path id="Cmr10-30" d="M 1600 -141 
Q 816 -141 533 504 
Q 250 1150 250 2041 
Q 250 2597 351 3087 
Q 453 3578 754 3920 
Q 1056 4263 1600 4263 
Q 2022 4263 2290 4056 
Q 2559 3850 2700 3523 
Q 2841 3197 2892 2823 
Q 2944 2450 2944 2041 
Q 2944 1491 2842 1011 
Q 2741 531 2444 195 
Q 2147 -141 1600 -141 
z
M 1600 25 
Q 1956 25 2131 390 
Q 2306 756 2347 1200 
Q 2388 1644 2388 2144 
Q 2388 2625 2347 3031 
Q 2306 3438 2132 3767 
Q 1959 4097 1600 4097 
Q 1238 4097 1063 3765 
Q 888 3434 847 3029 
Q 806 2625 806 2144 
Q 806 1788 823 1472 
Q 841 1156 916 820 
Q 991 484 1158 254 
Q 1325 25 1600 25 
z
" transform="scale(0.015625)"/>
       </defs>
       <use xlink:href="#Cmr10-30" transform="translate(0 0.390625)"/>
      </g>
     </g>
    </g>
    <g id="xtick_2">
     <g id="line2d_3">
      <g>
       <use xlink:href="#m9ff2523cd2" x="179.670171" y="67.105354" style="stroke: #000000"/>
      </g>
     </g>
     <g id="text_2">
      <!-- $5$ -->
      <g transform="translate(172.670171 91.880979) scale(0.28 -0.28)">
       <defs>
        <path id="Cmr10-35" d="M 556 728 
Q 622 541 758 387 
Q 894 234 1080 148 
Q 1266 63 1466 63 
Q 1928 63 2103 422 
Q 2278 781 2278 1294 
Q 2278 1516 2270 1667 
Q 2263 1819 2228 1959 
Q 2169 2184 2020 2353 
Q 1872 2522 1656 2522 
Q 1441 2522 1286 2456 
Q 1131 2391 1034 2303 
Q 938 2216 863 2119 
Q 788 2022 769 2016 
L 697 2016 
Q 681 2016 657 2036 
Q 634 2056 634 2075 
L 634 4213 
Q 634 4228 654 4245 
Q 675 4263 697 4263 
L 716 4263 
Q 1147 4056 1631 4056 
Q 2106 4056 2547 4263 
L 2566 4263 
Q 2588 4263 2606 4247 
Q 2625 4231 2625 4213 
L 2625 4153 
Q 2625 4122 2613 4122 
Q 2394 3831 2064 3668 
Q 1734 3506 1381 3506 
Q 1125 3506 856 3578 
L 856 2369 
Q 1069 2541 1236 2614 
Q 1403 2688 1663 2688 
Q 2016 2688 2295 2484 
Q 2575 2281 2725 1954 
Q 2875 1628 2875 1288 
Q 2875 903 2686 575 
Q 2497 247 2172 53 
Q 1847 -141 1466 -141 
Q 1150 -141 886 21 
Q 622 184 470 459 
Q 319 734 319 1044 
Q 319 1188 412 1278 
Q 506 1369 647 1369 
Q 788 1369 883 1276 
Q 978 1184 978 1044 
Q 978 906 883 811 
Q 788 716 647 716 
Q 625 716 597 720 
Q 569 725 556 728 
z
" transform="scale(0.015625)"/>
       </defs>
       <use xlink:href="#Cmr10-35" transform="translate(0 0.390625)"/>
      </g>
     </g>
    </g>
    <g id="xtick_3">
     <g id="line2d_4">
      <g>
       <use xlink:href="#m9ff2523cd2" x="321.335819" y="67.105354" style="stroke: #000000"/>
      </g>
     </g>
     <g id="text_3">
      <!-- $10$ -->
      <g transform="translate(307.335819 91.880979) scale(0.28 -0.28)">
       <defs>
        <path id="Cmr10-31" d="M 594 0 
L 594 225 
Q 1394 225 1394 428 
L 1394 3788 
Q 1063 3628 556 3628 
L 556 3853 
Q 1341 3853 1741 4263 
L 1831 4263 
Q 1853 4263 1873 4245 
Q 1894 4228 1894 4206 
L 1894 428 
Q 1894 225 2694 225 
L 2694 0 
L 594 0 
z
" transform="scale(0.015625)"/>
       </defs>
       <use xlink:href="#Cmr10-31" transform="translate(0 0.390625)"/>
       <use xlink:href="#Cmr10-30" transform="translate(50 0.390625)"/>
      </g>
     </g>
    </g>
    <g id="xtick_4">
     <g id="line2d_5">
      <g>
       <use xlink:href="#m9ff2523cd2" x="463.001467" y="67.105354" style="stroke: #000000"/>
      </g>
     </g>
     <g id="text_4">
      <!-- $15$ -->
      <g transform="translate(449.001467 91.880979) scale(0.28 -0.28)">
       <use xlink:href="#Cmr10-31" transform="translate(0 0.390625)"/>
       <use xlink:href="#Cmr10-35" transform="translate(50 0.390625)"/>
      </g>
     </g>
    </g>
    <g id="xtick_5">
     <g id="line2d_6">
      <g>
       <use xlink:href="#m9ff2523cd2" x="604.667115" y="67.105354" style="stroke: #000000"/>
      </g>
     </g>
     <g id="text_5">
      <!-- $20$ -->
      <g transform="translate(590.667115 91.880979) scale(0.28 -0.28)">
       <defs>
        <path id="Cmr10-32" d="M 319 0 
L 319 172 
Q 319 188 331 206 
L 1325 1306 
Q 1550 1550 1690 1715 
Q 1831 1881 1968 2097 
Q 2106 2313 2186 2536 
Q 2266 2759 2266 3009 
Q 2266 3272 2169 3511 
Q 2072 3750 1880 3894 
Q 1688 4038 1416 4038 
Q 1138 4038 916 3870 
Q 694 3703 603 3438 
Q 628 3444 672 3444 
Q 816 3444 917 3347 
Q 1019 3250 1019 3097 
Q 1019 2950 917 2848 
Q 816 2747 672 2747 
Q 522 2747 420 2851 
Q 319 2956 319 3097 
Q 319 3338 409 3548 
Q 500 3759 670 3923 
Q 841 4088 1055 4175 
Q 1269 4263 1509 4263 
Q 1875 4263 2190 4108 
Q 2506 3953 2690 3670 
Q 2875 3388 2875 3009 
Q 2875 2731 2753 2481 
Q 2631 2231 2440 2026 
Q 2250 1822 1953 1562 
Q 1656 1303 1563 1216 
L 838 519 
L 1453 519 
Q 1906 519 2211 526 
Q 2516 534 2534 550 
Q 2609 631 2688 1141 
L 2875 1141 
L 2694 0 
L 319 0 
z
" transform="scale(0.015625)"/>
       </defs>
       <use xlink:href="#Cmr10-32" transform="translate(0 0.390625)"/>
       <use xlink:href="#Cmr10-30" transform="translate(50 0.390625)"/>
      </g>
     </g>
    </g>
   </g>
   <g id="matplotlib.axis_2">
    <g id="ytick_1">
     <g id="line2d_7">
      <defs>
       <path id="m870d2e3e30" d="M 0 0 
L 5 0 
" style="stroke: #000000"/>
      </defs>
      <g>
       <use xlink:href="#m870d2e3e30" x="21.004646" y="65.529932" style="stroke: #000000"/>
      </g>
     </g>
     <g id="text_6">
      <!-- $0$ -->
      <g transform="translate(3.504646 76.167744) scale(0.28 -0.28)">
       <use xlink:href="#Cmr10-30" transform="translate(0 0.390625)"/>
      </g>
     </g>
    </g>
    <g id="ytick_2">
     <g id="line2d_8">
      <g>
       <use xlink:href="#m870d2e3e30" x="21.004646" y="39.296676" style="stroke: #000000"/>
      </g>
     </g>
     <g id="text_7">
      <!-- $4$ -->
      <g transform="translate(3.504646 49.934488) scale(0.28 -0.28)">
       <defs>
        <path id="Cmr10-34" d="M 178 1056 
L 178 1281 
L 2156 4231 
Q 2178 4263 2222 4263 
L 2316 4263 
Q 2388 4263 2388 4191 
L 2388 1281 
L 3016 1281 
L 3016 1056 
L 2388 1056 
L 2388 428 
Q 2388 297 2575 261 
Q 2763 225 3009 225 
L 3009 0 
L 1247 0 
L 1247 225 
Q 1494 225 1681 261 
Q 1869 297 1869 428 
L 1869 1056 
L 178 1056 
z
M 391 1281 
L 1906 1281 
L 1906 3547 
L 391 1281 
z
" transform="scale(0.015625)"/>
       </defs>
       <use xlink:href="#Cmr10-34" transform="translate(0 0.390625)"/>
      </g>
     </g>
    </g>
    <g id="ytick_3">
     <g id="line2d_9">
      <g>
       <use xlink:href="#m870d2e3e30" x="21.004646" y="13.06342" style="stroke: #000000"/>
      </g>
     </g>
     <g id="text_8">
      <!-- $8$ -->
      <g transform="translate(3.504646 23.701233) scale(0.28 -0.28)">
       <defs>
        <path id="Cmr10-38" d="M 269 972 
Q 269 1356 522 1651 
Q 775 1947 1172 2144 
L 934 2297 
Q 716 2441 578 2680 
Q 441 2919 441 3181 
Q 441 3488 602 3734 
Q 763 3981 1030 4122 
Q 1297 4263 1600 4263 
Q 1884 4263 2148 4147 
Q 2413 4031 2583 3815 
Q 2753 3600 2753 3303 
Q 2753 3088 2651 2903 
Q 2550 2719 2373 2572 
Q 2197 2425 1997 2322 
L 2363 2088 
Q 2616 1922 2770 1653 
Q 2925 1384 2925 1088 
Q 2925 741 2739 456 
Q 2553 172 2247 15 
Q 1941 -141 1600 -141 
Q 1269 -141 961 -6 
Q 653 128 461 383 
Q 269 638 269 972 
z
M 616 972 
Q 616 719 755 509 
Q 894 300 1122 181 
Q 1350 63 1600 63 
Q 1972 63 2275 280 
Q 2578 497 2578 856 
Q 2578 978 2529 1098 
Q 2481 1219 2395 1317 
Q 2309 1416 2203 1478 
L 1344 2034 
Q 1144 1928 976 1765 
Q 809 1603 712 1400 
Q 616 1197 616 972 
z
M 1056 2925 
L 1831 2425 
Q 2100 2581 2272 2803 
Q 2444 3025 2444 3303 
Q 2444 3519 2323 3698 
Q 2203 3878 2009 3978 
Q 1816 4078 1594 4078 
Q 1400 4078 1203 4003 
Q 1006 3928 878 3779 
Q 750 3631 750 3431 
Q 750 3131 1056 2925 
z
" transform="scale(0.015625)"/>
       </defs>
       <use xlink:href="#Cmr10-38" transform="translate(0 0.390625)"/>
      </g>
     </g>
    </g>
   </g>
   <g id="patch_3">
    <path d="M 21.004646 67.105354 
L 21.004646 11.632379 
" style="fill: none; stroke: #000000; stroke-width: 2; stroke-linejoin: miter; stroke-linecap: square"/>
   </g>
   <g id="patch_4">
    <path d="M 21.004646 67.105354 
L 621.666992 67.105354 
" style="fill: none; stroke: #000000; stroke-width: 2; stroke-linejoin: miter; stroke-linecap: square"/>
   </g>
  </g>
 </g>
 <defs>
  <clipPath id="paca95a029d">
   <rect x="21.004646" y="11.632379" width="600.662347" height="55.472975"/>
  </clipPath>
 </defs>
</svg>
