<?xml version="1.0" encoding="utf-8" standalone="no"?>
<!DOCTYPE svg PUBLIC "-//W3C//DTD SVG 1.1//EN"
  "http://www.w3.org/Graphics/SVG/1.1/DTD/svg11.dtd">
<svg xmlns:xlink="http://www.w3.org/1999/xlink" width="239.04pt" height="112.32pt" viewBox="0 0 239.04 112.32" xmlns="http://www.w3.org/2000/svg" version="1.1">
 <metadata>
  <rdf:RDF xmlns:dc="http://purl.org/dc/elements/1.1/" xmlns:cc="http://creativecommons.org/ns#" xmlns:rdf="http://www.w3.org/1999/02/22-rdf-syntax-ns#">
   <cc:Work>
    <dc:type rdf:resource="http://purl.org/dc/dcmitype/StillImage"/>
    <dc:date>2024-08-16T15:11:11.928119</dc:date>
    <dc:format>image/svg+xml</dc:format>
    <dc:creator>
     <cc:Agent>
      <dc:title>Matplotlib v3.8.4, https://matplotlib.org/</dc:title>
     </cc:Agent>
    </dc:creator>
   </cc:Work>
  </rdf:RDF>
 </metadata>
 <defs>
  <style type="text/css">*{stroke-linejoin: round; stroke-linecap: butt}</style>
 </defs>
 <g id="figure_1">
  <g id="patch_1">
   <path d="M 0 112.32 
L 239.04 112.32 
L 239.04 0 
L 0 0 
L 0 112.32 
z
" style="fill: none"/>
  </g>
  <g id="axes_1">
   <g id="patch_2">
    <path d="M 41.316477 78.625354 
L 234.338449 78.625354 
L 234.338449 2.834646 
L 41.316477 2.834646 
L 41.316477 78.625354 
z
" style="fill: none"/>
   </g>
   <g id="line2d_1">
    <path d="M 46.779363 66.559836 
L 48.418229 62.400276 
L 50.421287 56.681104 
L 53.395525 47.422742 
L 57.94793 33.285497 
L 60.133084 27.258844 
L 61.893347 23.024769 
L 63.410816 19.914613 
L 64.806887 17.547222 
L 66.020861 15.90058 
L 67.113438 14.759932 
L 68.145317 13.986253 
L 69.116497 13.526757 
L 69.966279 13.336921 
L 70.694664 13.394076 
L 71.423048 13.675046 
L 72.212132 14.225593 
L 73.061914 15.094726 
L 74.033094 16.421874 
L 75.125671 18.312511 
L 76.400345 21.001325 
L 77.857114 24.62879 
L 79.617377 29.650932 
L 81.923929 36.965146 
L 89.08638 60.17193 
L 90.968041 65.268779 
L 92.546208 68.936225 
L 93.942279 71.640478 
L 95.156253 73.536817 
L 96.24883 74.856742 
L 97.22001 75.708703 
L 98.130491 76.224929 
L 98.980273 76.455967 
L 99.769357 76.452054 
L 100.55844 76.237791 
L 101.408223 75.773525 
L 102.318704 75.011584 
L 103.289883 73.905158 
L 104.382461 72.312663 
L 105.596435 70.137076 
L 106.992506 67.153192 
L 108.570673 63.239931 
L 110.513033 57.795538 
L 113.183777 49.579186 
L 118.707362 32.437811 
L 120.831817 26.666633 
L 122.592081 22.515767 
L 124.109549 19.487865 
L 125.444921 17.291632 
L 126.658896 15.700482 
L 127.751473 14.61123 
L 128.783351 13.886776 
L 129.754531 13.470395 
L 130.604313 13.33007 
L 131.332698 13.440102 
L 132.061083 13.772879 
L 132.850167 14.377826 
L 133.760648 15.379723 
L 134.731827 16.788716 
L 135.885103 18.88534 
L 137.159777 21.684965 
L 138.677245 25.585591 
L 140.498207 30.912698 
L 142.986855 38.938138 
L 148.874632 58.171668 
L 150.87769 63.834391 
L 152.516556 67.848177 
L 153.973326 70.854 
L 155.247999 72.99776 
L 156.401275 74.515331 
L 157.433154 75.515719 
L 158.343635 76.108772 
L 159.193417 76.412448 
L 160.043199 76.472484 
L 160.832283 76.309645 
L 161.682065 75.900195 
L 162.592546 75.19584 
L 163.563726 74.148927 
L 164.656303 72.620233 
L 165.870277 70.510586 
L 167.20565 67.731577 
L 168.783817 63.904077 
L 170.665477 58.716035 
L 173.154125 51.146757 
L 179.588191 31.258092 
L 181.591249 25.93371 
L 183.290814 22.018756 
L 184.747584 19.181421 
L 186.082956 17.043727 
L 187.29693 15.508354 
L 188.389508 14.470654 
L 189.421386 13.795471 
L 190.392566 13.422712 
L 191.181649 13.332231 
L 191.910034 13.476308 
L 192.638419 13.842327 
L 193.427502 14.48213 
L 194.337983 15.522441 
L 195.369862 17.071434 
L 196.523138 19.232786 
L 197.85851 22.243178 
L 199.436677 26.398418 
L 201.379036 32.199738 
L 204.171178 41.336616 
L 208.905679 56.84869 
L 211.030135 62.995524 
L 212.7297 67.267885 
L 214.186469 70.371293 
L 215.461143 72.608866 
L 216.614419 74.216836 
L 217.646297 75.30158 
L 218.617477 76.005937 
L 219.467259 76.364749 
L 220.317041 76.480288 
L 221.106125 76.36894 
L 221.955907 76.014476 
L 222.805689 75.419579 
L 223.776869 74.451545 
L 224.808748 73.097455 
L 225.962023 71.207114 
L 227.297396 68.55818 
L 228.814864 65.014894 
L 228.875563 64.862567 
L 228.875563 64.862567 
" clip-path="url(#pa18bf0cfc2)" style="fill: none; stroke: #2477d0; stroke-width: 4"/>
   </g>
   <g id="matplotlib.axis_1">
    <g id="xtick_1">
     <g id="line2d_2">
      <defs>
       <path id="m10a0919be5" d="M 0 0 
L 0 -5 
" style="stroke: #000000"/>
      </defs>
      <g>
       <use xlink:href="#m10a0919be5" x="46.779363" y="78.625354" style="stroke: #000000"/>
      </g>
     </g>
     <g id="text_1">
      <!-- $0$ -->
      <g transform="translate(39.779363 103.400979) scale(0.28 -0.28)">
       <defs>
        <path id="Cmr10-30" d="M 1600 -141 
Q 816 -141 533 504 
Q 250 1150 250 2041 
Q 250 2597 351 3087 
Q 453 3578 754 3920 
Q 1056 4263 1600 4263 
Q 2022 4263 2290 4056 
Q 2559 3850 2700 3523 
Q 2841 3197 2892 2823 
Q 2944 2450 2944 2041 
Q 2944 1491 2842 1011 
Q 2741 531 2444 195 
Q 2147 -141 1600 -141 
z
M 1600 25 
Q 1956 25 2131 390 
Q 2306 756 2347 1200 
Q 2388 1644 2388 2144 
Q 2388 2625 2347 3031 
Q 2306 3438 2132 3767 
Q 1959 4097 1600 4097 
Q 1238 4097 1063 3765 
Q 888 3434 847 3029 
Q 806 2625 806 2144 
Q 806 1788 823 1472 
Q 841 1156 916 820 
Q 991 484 1158 254 
Q 1325 25 1600 25 
z
" transform="scale(0.015625)"/>
       </defs>
       <use xlink:href="#Cmr10-30" transform="translate(0 0.390625)"/>
      </g>
     </g>
    </g>
    <g id="xtick_2">
     <g id="line2d_3">
      <g>
       <use xlink:href="#m10a0919be5" x="107.478096" y="78.625354" style="stroke: #000000"/>
      </g>
     </g>
     <g id="text_2">
      <!-- $1$ -->
      <g transform="translate(100.478096 103.400979) scale(0.28 -0.28)">
       <defs>
        <path id="Cmr10-31" d="M 594 0 
L 594 225 
Q 1394 225 1394 428 
L 1394 3788 
Q 1063 3628 556 3628 
L 556 3853 
Q 1341 3853 1741 4263 
L 1831 4263 
Q 1853 4263 1873 4245 
Q 1894 4228 1894 4206 
L 1894 428 
Q 1894 225 2694 225 
L 2694 0 
L 594 0 
z
" transform="scale(0.015625)"/>
       </defs>
       <use xlink:href="#Cmr10-31" transform="translate(0 0.390625)"/>
      </g>
     </g>
    </g>
    <g id="xtick_3">
     <g id="line2d_4">
      <g>
       <use xlink:href="#m10a0919be5" x="168.176829" y="78.625354" style="stroke: #000000"/>
      </g>
     </g>
     <g id="text_3">
      <!-- $2$ -->
      <g transform="translate(161.176829 103.400979) scale(0.28 -0.28)">
       <defs>
        <path id="Cmr10-32" d="M 319 0 
L 319 172 
Q 319 188 331 206 
L 1325 1306 
Q 1550 1550 1690 1715 
Q 1831 1881 1968 2097 
Q 2106 2313 2186 2536 
Q 2266 2759 2266 3009 
Q 2266 3272 2169 3511 
Q 2072 3750 1880 3894 
Q 1688 4038 1416 4038 
Q 1138 4038 916 3870 
Q 694 3703 603 3438 
Q 628 3444 672 3444 
Q 816 3444 917 3347 
Q 1019 3250 1019 3097 
Q 1019 2950 917 2848 
Q 816 2747 672 2747 
Q 522 2747 420 2851 
Q 319 2956 319 3097 
Q 319 3338 409 3548 
Q 500 3759 670 3923 
Q 841 4088 1055 4175 
Q 1269 4263 1509 4263 
Q 1875 4263 2190 4108 
Q 2506 3953 2690 3670 
Q 2875 3388 2875 3009 
Q 2875 2731 2753 2481 
Q 2631 2231 2440 2026 
Q 2250 1822 1953 1562 
Q 1656 1303 1563 1216 
L 838 519 
L 1453 519 
Q 1906 519 2211 526 
Q 2516 534 2534 550 
Q 2609 631 2688 1141 
L 2875 1141 
L 2694 0 
L 319 0 
z
" transform="scale(0.015625)"/>
       </defs>
       <use xlink:href="#Cmr10-32" transform="translate(0 0.390625)"/>
      </g>
     </g>
    </g>
    <g id="xtick_4">
     <g id="line2d_5">
      <g>
       <use xlink:href="#m10a0919be5" x="228.875563" y="78.625354" style="stroke: #000000"/>
      </g>
     </g>
     <g id="text_4">
      <!-- $3$ -->
      <g transform="translate(221.875563 103.400979) scale(0.28 -0.28)">
       <defs>
        <path id="Cmr10-33" d="M 609 494 
Q 759 275 1012 169 
Q 1266 63 1556 63 
Q 1928 63 2084 380 
Q 2241 697 2241 1100 
Q 2241 1281 2208 1462 
Q 2175 1644 2097 1800 
Q 2019 1956 1883 2050 
Q 1747 2144 1550 2144 
L 1125 2144 
Q 1069 2144 1069 2203 
L 1069 2259 
Q 1069 2309 1125 2309 
L 1478 2338 
Q 1703 2338 1851 2506 
Q 2000 2675 2069 2917 
Q 2138 3159 2138 3378 
Q 2138 3684 1994 3881 
Q 1850 4078 1556 4078 
Q 1313 4078 1091 3986 
Q 869 3894 738 3706 
Q 750 3709 759 3711 
Q 769 3713 781 3713 
Q 925 3713 1022 3613 
Q 1119 3513 1119 3372 
Q 1119 3234 1022 3134 
Q 925 3034 781 3034 
Q 641 3034 541 3134 
Q 441 3234 441 3372 
Q 441 3647 606 3850 
Q 772 4053 1033 4158 
Q 1294 4263 1556 4263 
Q 1750 4263 1965 4205 
Q 2181 4147 2356 4039 
Q 2531 3931 2642 3762 
Q 2753 3594 2753 3378 
Q 2753 3109 2633 2881 
Q 2513 2653 2303 2487 
Q 2094 2322 1844 2241 
Q 2122 2188 2372 2031 
Q 2622 1875 2773 1631 
Q 2925 1388 2925 1106 
Q 2925 753 2731 467 
Q 2538 181 2222 20 
Q 1906 -141 1556 -141 
Q 1256 -141 954 -26 
Q 653 88 461 316 
Q 269 544 269 863 
Q 269 1022 375 1128 
Q 481 1234 641 1234 
Q 744 1234 830 1186 
Q 916 1138 964 1050 
Q 1013 963 1013 863 
Q 1013 706 903 600 
Q 794 494 641 494 
L 609 494 
z
" transform="scale(0.015625)"/>
       </defs>
       <use xlink:href="#Cmr10-33" transform="translate(0 0.390625)"/>
      </g>
     </g>
    </g>
   </g>
   <g id="matplotlib.axis_2">
    <g id="ytick_1">
     <g id="line2d_6">
      <defs>
       <path id="m7b540997ad" d="M 0 0 
L 5 0 
" style="stroke: #000000"/>
      </defs>
      <g>
       <use xlink:href="#m7b540997ad" x="41.316477" y="76.480376" style="stroke: #000000"/>
      </g>
     </g>
     <g id="text_5">
      <!-- $-1$ -->
      <g transform="translate(1.976477 87.118188) scale(0.28 -0.28)">
       <defs>
        <path id="Cmsy10-a1" d="M 653 1472 
Q 600 1472 565 1512 
Q 531 1553 531 1600 
Q 531 1647 565 1687 
Q 600 1728 653 1728 
L 4325 1728 
Q 4375 1728 4408 1687 
Q 4441 1647 4441 1600 
Q 4441 1553 4408 1512 
Q 4375 1472 4325 1472 
L 653 1472 
z
" transform="scale(0.015625)"/>
       </defs>
       <use xlink:href="#Cmsy10-a1" transform="translate(0 0.390625)"/>
       <use xlink:href="#Cmr10-31" transform="translate(77.685547 0.390625)"/>
      </g>
     </g>
    </g>
    <g id="ytick_2">
     <g id="line2d_7">
      <g>
       <use xlink:href="#m7b540997ad" x="41.316477" y="44.905214" style="stroke: #000000"/>
      </g>
     </g>
     <g id="text_6">
      <!-- $0$ -->
      <g transform="translate(23.816477 55.543027) scale(0.28 -0.28)">
       <use xlink:href="#Cmr10-30" transform="translate(0 0.390625)"/>
      </g>
     </g>
    </g>
    <g id="ytick_3">
     <g id="line2d_8">
      <g>
       <use xlink:href="#m7b540997ad" x="41.316477" y="13.330052" style="stroke: #000000"/>
      </g>
     </g>
     <g id="text_7">
      <!-- $1$ -->
      <g transform="translate(23.816477 23.967865) scale(0.28 -0.28)">
       <use xlink:href="#Cmr10-31" transform="translate(0 0.390625)"/>
      </g>
     </g>
    </g>
   </g>
   <g id="line2d_9">
    <path d="M 46.779363 15.444049 
L 57.644436 17.966873 
L 68.388112 20.241642 
L 68.630907 20.202495 
L 68.813003 19.889086 
L 68.995099 18.860105 
L 69.237894 15.578429 
L 69.844881 5.86692 
L 70.087676 5.059604 
L 70.330471 4.985857 
L 71.36235 5.308805 
L 80.831352 8.280659 
L 90.603848 11.114069 
L 100.801235 13.837232 
L 111.362815 16.426526 
L 122.409984 18.904259 
L 129.026146 20.236976 
L 129.208243 20.070809 
L 129.390339 19.393629 
L 129.572435 17.668168 
L 129.936627 10.963648 
L 130.30082 5.936084 
L 130.543615 5.071804 
L 130.78641 4.984035 
L 131.696891 5.26555 
L 141.165893 8.24065 
L 150.938389 11.077155 
L 161.075078 13.787734 
L 171.636657 16.381154 
L 182.683827 18.862834 
L 189.482085 20.239628 
L 189.664181 20.09014 
L 189.846277 19.457721 
L 190.028373 17.808413 
L 190.392566 11.185341 
L 190.756758 6.016819 
L 190.999553 5.087901 
L 191.242348 4.982822 
L 192.031432 5.222247 
L 201.439735 8.182236 
L 211.212231 11.02326 
L 221.34892 13.738157 
L 228.875563 15.612284 
L 228.875563 15.612284 
" clip-path="url(#pa18bf0cfc2)" style="fill: none; stroke: #4eba88; stroke-width: 4"/>
   </g>
   <g id="patch_3">
    <path d="M 41.316477 78.625354 
L 41.316477 2.834646 
" style="fill: none; stroke: #000000; stroke-width: 2; stroke-linejoin: miter; stroke-linecap: square"/>
   </g>
   <g id="patch_4">
    <path d="M 41.316477 78.625354 
L 234.338449 78.625354 
" style="fill: none; stroke: #000000; stroke-width: 2; stroke-linejoin: miter; stroke-linecap: square"/>
   </g>
  </g>
 </g>
 <defs>
  <clipPath id="pa18bf0cfc2">
   <rect x="41.316477" y="2.834646" width="193.021972" height="75.790709"/>
  </clipPath>
 </defs>
</svg>
