<?xml version="1.0" encoding="utf-8" standalone="no"?>
<!DOCTYPE svg PUBLIC "-//W3C//DTD SVG 1.1//EN"
  "http://www.w3.org/Graphics/SVG/1.1/DTD/svg11.dtd">
<svg xmlns:xlink="http://www.w3.org/1999/xlink" width="996.48pt" height="325.44pt" viewBox="0 0 996.48 325.44" xmlns="http://www.w3.org/2000/svg" version="1.1">
 <metadata>
  <rdf:RDF xmlns:dc="http://purl.org/dc/elements/1.1/" xmlns:cc="http://creativecommons.org/ns#" xmlns:rdf="http://www.w3.org/1999/02/22-rdf-syntax-ns#">
   <cc:Work>
    <dc:type rdf:resource="http://purl.org/dc/dcmitype/StillImage"/>
    <dc:date>2024-08-16T15:10:59.430703</dc:date>
    <dc:format>image/svg+xml</dc:format>
    <dc:creator>
     <cc:Agent>
      <dc:title>Matplotlib v3.8.4, https://matplotlib.org/</dc:title>
     </cc:Agent>
    </dc:creator>
   </cc:Work>
  </rdf:RDF>
 </metadata>
 <defs>
  <style type="text/css">*{stroke-linejoin: round; stroke-linecap: butt}</style>
 </defs>
 <g id="figure_1">
  <g id="patch_1">
   <path d="M 0 325.44 
L 996.48 325.44 
L 996.48 0 
L 0 0 
L 0 325.44 
z
" style="fill: none"/>
  </g>
  <g id="axes_1">
   <g id="patch_2">
    <path d="M 42.418977 291.745354 
L 993.645354 291.745354 
L 993.645354 2.834646 
L 42.418977 2.834646 
L 42.418977 291.745354 
z
" style="fill: none"/>
   </g>
   <g id="line2d_1">
    <path d="M 69.340478 282.922444 
L 83.99774 282.8117 
L 93.569829 282.500977 
L 102.842791 281.977744 
L 112.714008 281.192863 
L 123.482608 280.104402 
L 135.44772 278.663296 
L 148.908471 276.81368 
L 164.463116 274.444949 
L 182.111655 271.527581 
L 202.751473 267.885226 
L 229.373847 262.948019 
L 339.153746 242.343078 
L 385.817682 233.980568 
L 462.693524 220.467029 
L 648.751011 188.022563 
L 966.723853 132.840562 
L 966.723853 132.840562 
" clip-path="url(#pcacee28abb)" style="fill: none; stroke: #ff6347; stroke-width: 4"/>
   </g>
   <g id="matplotlib.axis_1">
    <g id="xtick_1">
     <g id="line2d_2">
      <defs>
       <path id="m75b250a7a5" d="M 0 0 
L 0 -5 
" style="stroke: #000000"/>
      </defs>
      <g>
       <use xlink:href="#m75b250a7a5" x="69.340478" y="291.745354" style="stroke: #000000"/>
      </g>
     </g>
     <g id="text_1">
      <!-- $0$ -->
      <g transform="translate(62.340478 316.520979) scale(0.28 -0.28)">
       <defs>
        <path id="Cmr10-30" d="M 1600 -141 
Q 816 -141 533 504 
Q 250 1150 250 2041 
Q 250 2597 351 3087 
Q 453 3578 754 3920 
Q 1056 4263 1600 4263 
Q 2022 4263 2290 4056 
Q 2559 3850 2700 3523 
Q 2841 3197 2892 2823 
Q 2944 2450 2944 2041 
Q 2944 1491 2842 1011 
Q 2741 531 2444 195 
Q 2147 -141 1600 -141 
z
M 1600 25 
Q 1956 25 2131 390 
Q 2306 756 2347 1200 
Q 2388 1644 2388 2144 
Q 2388 2625 2347 3031 
Q 2306 3438 2132 3767 
Q 1959 4097 1600 4097 
Q 1238 4097 1063 3765 
Q 888 3434 847 3029 
Q 806 2625 806 2144 
Q 806 1788 823 1472 
Q 841 1156 916 820 
Q 991 484 1158 254 
Q 1325 25 1600 25 
z
" transform="scale(0.015625)"/>
       </defs>
       <use xlink:href="#Cmr10-30" transform="translate(0 0.390625)"/>
      </g>
     </g>
    </g>
    <g id="xtick_2">
     <g id="line2d_3">
      <g>
       <use xlink:href="#m75b250a7a5" x="368.46827" y="291.745354" style="stroke: #000000"/>
      </g>
     </g>
     <g id="text_2">
      <!-- $10$ -->
      <g transform="translate(354.46827 316.520979) scale(0.28 -0.28)">
       <defs>
        <path id="Cmr10-31" d="M 594 0 
L 594 225 
Q 1394 225 1394 428 
L 1394 3788 
Q 1063 3628 556 3628 
L 556 3853 
Q 1341 3853 1741 4263 
L 1831 4263 
Q 1853 4263 1873 4245 
Q 1894 4228 1894 4206 
L 1894 428 
Q 1894 225 2694 225 
L 2694 0 
L 594 0 
z
" transform="scale(0.015625)"/>
       </defs>
       <use xlink:href="#Cmr10-31" transform="translate(0 0.390625)"/>
       <use xlink:href="#Cmr10-30" transform="translate(50 0.390625)"/>
      </g>
     </g>
    </g>
    <g id="xtick_3">
     <g id="line2d_4">
      <g>
       <use xlink:href="#m75b250a7a5" x="667.596061" y="291.745354" style="stroke: #000000"/>
      </g>
     </g>
     <g id="text_3">
      <!-- $20$ -->
      <g transform="translate(653.596061 316.520979) scale(0.28 -0.28)">
       <defs>
        <path id="Cmr10-32" d="M 319 0 
L 319 172 
Q 319 188 331 206 
L 1325 1306 
Q 1550 1550 1690 1715 
Q 1831 1881 1968 2097 
Q 2106 2313 2186 2536 
Q 2266 2759 2266 3009 
Q 2266 3272 2169 3511 
Q 2072 3750 1880 3894 
Q 1688 4038 1416 4038 
Q 1138 4038 916 3870 
Q 694 3703 603 3438 
Q 628 3444 672 3444 
Q 816 3444 917 3347 
Q 1019 3250 1019 3097 
Q 1019 2950 917 2848 
Q 816 2747 672 2747 
Q 522 2747 420 2851 
Q 319 2956 319 3097 
Q 319 3338 409 3548 
Q 500 3759 670 3923 
Q 841 4088 1055 4175 
Q 1269 4263 1509 4263 
Q 1875 4263 2190 4108 
Q 2506 3953 2690 3670 
Q 2875 3388 2875 3009 
Q 2875 2731 2753 2481 
Q 2631 2231 2440 2026 
Q 2250 1822 1953 1562 
Q 1656 1303 1563 1216 
L 838 519 
L 1453 519 
Q 1906 519 2211 526 
Q 2516 534 2534 550 
Q 2609 631 2688 1141 
L 2875 1141 
L 2694 0 
L 319 0 
z
" transform="scale(0.015625)"/>
       </defs>
       <use xlink:href="#Cmr10-32" transform="translate(0 0.390625)"/>
       <use xlink:href="#Cmr10-30" transform="translate(50 0.390625)"/>
      </g>
     </g>
    </g>
    <g id="xtick_4">
     <g id="line2d_5">
      <g>
       <use xlink:href="#m75b250a7a5" x="966.723853" y="291.745354" style="stroke: #000000"/>
      </g>
     </g>
     <g id="text_4">
      <!-- $30$ -->
      <g transform="translate(952.723853 316.520979) scale(0.28 -0.28)">
       <defs>
        <path id="Cmr10-33" d="M 609 494 
Q 759 275 1012 169 
Q 1266 63 1556 63 
Q 1928 63 2084 380 
Q 2241 697 2241 1100 
Q 2241 1281 2208 1462 
Q 2175 1644 2097 1800 
Q 2019 1956 1883 2050 
Q 1747 2144 1550 2144 
L 1125 2144 
Q 1069 2144 1069 2203 
L 1069 2259 
Q 1069 2309 1125 2309 
L 1478 2338 
Q 1703 2338 1851 2506 
Q 2000 2675 2069 2917 
Q 2138 3159 2138 3378 
Q 2138 3684 1994 3881 
Q 1850 4078 1556 4078 
Q 1313 4078 1091 3986 
Q 869 3894 738 3706 
Q 750 3709 759 3711 
Q 769 3713 781 3713 
Q 925 3713 1022 3613 
Q 1119 3513 1119 3372 
Q 1119 3234 1022 3134 
Q 925 3034 781 3034 
Q 641 3034 541 3134 
Q 441 3234 441 3372 
Q 441 3647 606 3850 
Q 772 4053 1033 4158 
Q 1294 4263 1556 4263 
Q 1750 4263 1965 4205 
Q 2181 4147 2356 4039 
Q 2531 3931 2642 3762 
Q 2753 3594 2753 3378 
Q 2753 3109 2633 2881 
Q 2513 2653 2303 2487 
Q 2094 2322 1844 2241 
Q 2122 2188 2372 2031 
Q 2622 1875 2773 1631 
Q 2925 1388 2925 1106 
Q 2925 753 2731 467 
Q 2538 181 2222 20 
Q 1906 -141 1556 -141 
Q 1256 -141 954 -26 
Q 653 88 461 316 
Q 269 544 269 863 
Q 269 1022 375 1128 
Q 481 1234 641 1234 
Q 744 1234 830 1186 
Q 916 1138 964 1050 
Q 1013 963 1013 863 
Q 1013 706 903 600 
Q 794 494 641 494 
L 609 494 
z
" transform="scale(0.015625)"/>
       </defs>
       <use xlink:href="#Cmr10-33" transform="translate(0 0.390625)"/>
       <use xlink:href="#Cmr10-30" transform="translate(50 0.390625)"/>
      </g>
     </g>
    </g>
   </g>
   <g id="matplotlib.axis_2">
    <g id="ytick_1">
     <g id="line2d_6">
      <defs>
       <path id="m2dd19e265b" d="M 0 0 
L 5 0 
" style="stroke: #000000"/>
      </defs>
      <g>
       <use xlink:href="#m2dd19e265b" x="42.418977" y="282.922444" style="stroke: #000000"/>
      </g>
     </g>
     <g id="text_5">
      <!-- $1.0$ -->
      <g transform="translate(3.078977 293.560256) scale(0.28 -0.28)">
       <defs>
        <path id="Cmmi10-3a" d="M 538 353 
Q 538 497 644 600 
Q 750 703 891 703 
Q 978 703 1062 656 
Q 1147 609 1194 525 
Q 1241 441 1241 353 
Q 1241 213 1137 106 
Q 1034 0 891 0 
Q 750 0 644 106 
Q 538 213 538 353 
z
" transform="scale(0.015625)"/>
       </defs>
       <use xlink:href="#Cmr10-31" transform="translate(0 0.390625)"/>
       <use xlink:href="#Cmmi10-3a" transform="translate(50 0.390625)"/>
       <use xlink:href="#Cmr10-30" transform="translate(77.685547 0.390625)"/>
      </g>
     </g>
    </g>
    <g id="ytick_2">
     <g id="line2d_7">
      <g>
       <use xlink:href="#m2dd19e265b" x="42.418977" y="218.18171" style="stroke: #000000"/>
      </g>
     </g>
     <g id="text_6">
      <!-- $1.5$ -->
      <g transform="translate(3.078977 228.819523) scale(0.28 -0.28)">
       <defs>
        <path id="Cmr10-35" d="M 556 728 
Q 622 541 758 387 
Q 894 234 1080 148 
Q 1266 63 1466 63 
Q 1928 63 2103 422 
Q 2278 781 2278 1294 
Q 2278 1516 2270 1667 
Q 2263 1819 2228 1959 
Q 2169 2184 2020 2353 
Q 1872 2522 1656 2522 
Q 1441 2522 1286 2456 
Q 1131 2391 1034 2303 
Q 938 2216 863 2119 
Q 788 2022 769 2016 
L 697 2016 
Q 681 2016 657 2036 
Q 634 2056 634 2075 
L 634 4213 
Q 634 4228 654 4245 
Q 675 4263 697 4263 
L 716 4263 
Q 1147 4056 1631 4056 
Q 2106 4056 2547 4263 
L 2566 4263 
Q 2588 4263 2606 4247 
Q 2625 4231 2625 4213 
L 2625 4153 
Q 2625 4122 2613 4122 
Q 2394 3831 2064 3668 
Q 1734 3506 1381 3506 
Q 1125 3506 856 3578 
L 856 2369 
Q 1069 2541 1236 2614 
Q 1403 2688 1663 2688 
Q 2016 2688 2295 2484 
Q 2575 2281 2725 1954 
Q 2875 1628 2875 1288 
Q 2875 903 2686 575 
Q 2497 247 2172 53 
Q 1847 -141 1466 -141 
Q 1150 -141 886 21 
Q 622 184 470 459 
Q 319 734 319 1044 
Q 319 1188 412 1278 
Q 506 1369 647 1369 
Q 788 1369 883 1276 
Q 978 1184 978 1044 
Q 978 906 883 811 
Q 788 716 647 716 
Q 625 716 597 720 
Q 569 725 556 728 
z
" transform="scale(0.015625)"/>
       </defs>
       <use xlink:href="#Cmr10-31" transform="translate(0 0.390625)"/>
       <use xlink:href="#Cmmi10-3a" transform="translate(50 0.390625)"/>
       <use xlink:href="#Cmr10-35" transform="translate(77.685547 0.390625)"/>
      </g>
     </g>
    </g>
    <g id="ytick_3">
     <g id="line2d_8">
      <g>
       <use xlink:href="#m2dd19e265b" x="42.418977" y="153.440977" style="stroke: #000000"/>
      </g>
     </g>
     <g id="text_7">
      <!-- $2.0$ -->
      <g transform="translate(3.078977 164.07879) scale(0.28 -0.28)">
       <use xlink:href="#Cmr10-32" transform="translate(0 0.390625)"/>
       <use xlink:href="#Cmmi10-3a" transform="translate(50 0.390625)"/>
       <use xlink:href="#Cmr10-30" transform="translate(77.685547 0.390625)"/>
      </g>
     </g>
    </g>
    <g id="ytick_4">
     <g id="line2d_9">
      <g>
       <use xlink:href="#m2dd19e265b" x="42.418977" y="88.700244" style="stroke: #000000"/>
      </g>
     </g>
     <g id="text_8">
      <!-- $2.5$ -->
      <g transform="translate(3.078977 99.338056) scale(0.28 -0.28)">
       <use xlink:href="#Cmr10-32" transform="translate(0 0.390625)"/>
       <use xlink:href="#Cmmi10-3a" transform="translate(50 0.390625)"/>
       <use xlink:href="#Cmr10-35" transform="translate(77.685547 0.390625)"/>
      </g>
     </g>
    </g>
    <g id="ytick_5">
     <g id="line2d_10">
      <g>
       <use xlink:href="#m2dd19e265b" x="42.418977" y="23.95951" style="stroke: #000000"/>
      </g>
     </g>
     <g id="text_9">
      <!-- $3.0$ -->
      <g transform="translate(3.078977 34.597323) scale(0.28 -0.28)">
       <use xlink:href="#Cmr10-33" transform="translate(0 0.390625)"/>
       <use xlink:href="#Cmmi10-3a" transform="translate(50 0.390625)"/>
       <use xlink:href="#Cmr10-30" transform="translate(77.685547 0.390625)"/>
      </g>
     </g>
    </g>
   </g>
   <g id="line2d_11">
    <path d="M 69.340478 282.922444 
L 966.723853 127.544684 
L 966.723853 127.544684 
" clip-path="url(#pcacee28abb)" style="fill: none; stroke: #ff0000; stroke-width: 4"/>
   </g>
   <g id="patch_3">
    <path d="M 42.418977 291.745354 
L 42.418977 2.834646 
" style="fill: none; stroke: #000000; stroke-width: 2; stroke-linejoin: miter; stroke-linecap: square"/>
   </g>
   <g id="patch_4">
    <path d="M 42.418977 291.745354 
L 993.645354 291.745354 
" style="fill: none; stroke: #000000; stroke-width: 2; stroke-linejoin: miter; stroke-linecap: square"/>
   </g>
   <g id="line2d_12">
    <path d="M 69.340478 282.922444 
L 74.42565 283.340149 
L 79.510823 283.543578 
L 84.895123 283.539292 
L 90.578551 283.309541 
L 96.561107 282.843429 
L 103.141918 282.098165 
L 110.320985 281.048157 
L 118.098308 279.67816 
L 126.773014 277.916014 
L 136.345103 275.736392 
L 146.814576 273.116624 
L 158.181432 270.034988 
L 170.445672 266.475304 
L 184.504678 262.153393 
L 201.554962 256.66582 
L 227.878208 247.925949 
L 272.747376 233.038539 
L 299.968005 224.259769 
L 325.992123 216.097668 
L 350.81973 208.539383 
L 372.356931 202.206762 
L 389.407215 197.415831 
L 402.26971 194.020465 
L 412.140927 191.630711 
L 419.91825 189.962321 
L 426.199933 188.828211 
L 431.285106 188.116387 
L 435.772023 187.706778 
L 439.660684 187.581252 
L 442.95109 187.699843 
L 445.942368 188.043415 
L 448.33539 188.524756 
L 450.728412 189.23593 
L 452.822307 190.088618 
L 454.916201 191.201083 
L 456.710968 192.398329 
L 458.505735 193.855162 
L 460.300502 195.603348 
L 462.095268 197.668285 
L 463.890035 200.060726 
L 465.98393 203.243897 
L 468.67608 207.806337 
L 473.162997 215.515683 
L 474.957764 218.192727 
L 476.75253 220.454215 
L 478.248169 221.978876 
L 479.743808 223.168447 
L 481.239447 224.035848 
L 482.735086 224.607274 
L 484.230725 224.916819 
L 485.726364 225.002317 
L 487.521131 224.863703 
L 489.615025 224.451801 
L 492.307175 223.676549 
L 498.289731 221.88066 
L 500.383626 221.523701 
L 502.178393 221.450344 
L 503.674032 221.605453 
L 505.16967 222.002284 
L 506.366182 222.522865 
L 507.562693 223.246915 
L 508.759204 224.192428 
L 510.254843 225.703082 
L 511.750482 227.577998 
L 513.545249 230.252502 
L 516.536527 235.280073 
L 518.929549 239.102029 
L 520.425188 241.09316 
L 521.621699 242.383566 
L 522.81821 243.382495 
L 524.014721 244.091753 
L 525.211233 244.529395 
L 526.407744 244.724428 
L 527.604255 244.712253 
L 529.099894 244.464299 
L 530.894661 243.926541 
L 537.176344 241.772254 
L 538.671983 241.599234 
L 539.868494 241.660734 
L 541.065005 241.940389 
L 542.261517 242.472518 
L 543.458028 243.28464 
L 544.654539 244.391697 
L 545.85105 245.788603 
L 547.346689 247.889208 
L 550.038839 252.196416 
L 551.833606 254.917305 
L 553.329245 256.77981 
L 554.525756 257.907747 
L 555.722267 258.687047 
L 556.619651 259.047812 
L 557.816162 259.255664 
L 559.012673 259.193419 
L 560.209184 258.914913 
L 561.704823 258.350175 
L 567.388251 255.906801 
L 568.584762 255.704551 
L 569.781273 255.731641 
L 570.977785 256.03601 
L 571.875168 256.469788 
L 573.071679 257.340783 
L 574.26819 258.544304 
L 575.763829 260.455513 
L 580.849002 267.526831 
L 582.045513 268.586134 
L 582.942896 269.126993 
L 583.84028 269.450456 
L 584.737663 269.56936 
L 585.635046 269.504862 
L 586.831558 269.179774 
L 588.327197 268.488666 
L 590.720219 267.061041 
L 592.814113 265.878288 
L 594.309752 265.287488 
L 595.506264 265.06633 
L 596.403647 265.086879 
L 597.30103 265.291134 
L 598.198414 265.694427 
L 599.095797 266.303269 
L 600.292308 267.422816 
L 601.787947 269.227711 
L 605.676608 274.231045 
L 606.87312 275.270204 
L 607.770503 275.78683 
L 608.667886 276.070157 
L 609.56527 276.130041 
L 610.462653 275.987854 
L 611.659164 275.534613 
L 613.154803 274.657439 
L 618.539104 271.070802 
L 619.735615 270.676932 
L 620.632998 270.577466 
L 621.530381 270.672727 
L 622.427765 270.97936 
L 623.325148 271.503446 
L 624.521659 272.523422 
L 626.017298 274.205143 
L 629.307704 278.118628 
L 630.504215 279.093347 
L 631.401599 279.557181 
L 632.298982 279.778929 
L 633.196365 279.766867 
L 634.093749 279.543018 
L 635.29026 278.96984 
L 636.785899 277.936498 
L 641.571943 274.296359 
L 642.768455 273.770619 
L 643.665838 273.57884 
L 644.563221 273.590325 
L 645.460605 273.823347 
L 646.357988 274.284233 
L 647.255372 274.962958 
L 648.451883 276.151642 
L 652.639672 280.698177 
L 653.537055 281.268831 
L 654.434439 281.59486 
L 655.331822 281.67216 
L 656.229205 281.51529 
L 657.126589 281.152294 
L 658.3231 280.41172 
L 660.117867 278.953877 
L 663.109145 276.451425 
L 664.305656 275.711885 
L 665.502167 275.257416 
L 666.39955 275.149432 
L 667.296934 275.267441 
L 668.194317 275.622591 
L 669.0917 276.209255 
L 670.288212 277.30181 
L 672.382106 279.664429 
L 673.877745 281.21462 
L 675.074256 282.098017 
L 675.97164 282.479704 
L 676.869023 282.604009 
L 677.766406 282.480348 
L 678.66379 282.13493 
L 679.860301 281.394943 
L 681.35594 280.170023 
L 684.646346 277.322848 
L 685.842857 276.571691 
L 686.74024 276.204962 
L 687.637623 276.045317 
L 688.535007 276.118614 
L 689.43239 276.437821 
L 690.329774 276.99767 
L 691.526285 278.06567 
L 693.919307 280.714418 
L 695.115818 281.878869 
L 696.013202 282.526069 
L 696.910585 282.926135 
L 697.807968 283.061387 
L 698.705352 282.939141 
L 699.602735 282.585875 
L 700.799246 281.824603 
L 702.294885 280.566491 
L 705.585291 277.702158 
L 706.781802 276.989706 
L 707.679185 276.673344 
L 708.576569 276.582343 
L 709.473952 276.739663 
L 710.371336 277.151689 
L 711.268719 277.802354 
L 712.46523 278.963012 
L 715.456508 282.12192 
L 716.353891 282.769754 
L 717.251275 283.16471 
L 718.148658 283.287215 
L 719.046042 283.144927 
L 719.943425 282.766367 
L 721.139936 281.96868 
L 722.934703 280.394575 
L 725.327725 278.270879 
L 726.524236 277.479778 
L 727.42162 277.098027 
L 728.319003 276.941309 
L 729.216386 277.037181 
L 730.11377 277.396271 
L 731.011153 278.00581 
L 732.207664 279.132392 
L 735.49807 282.513026 
L 736.395453 283.071827 
L 737.292837 283.360265 
L 738.19022 283.368646 
L 739.087604 283.11444 
L 739.984987 282.634801 
L 741.181498 281.731231 
L 745.967543 277.71326 
L 746.864926 277.339182 
L 747.76231 277.200264 
L 748.659693 277.324032 
L 749.557076 277.718578 
L 750.45446 278.365583 
L 751.650971 279.530544 
L 754.343121 282.346218 
L 755.240504 282.986818 
L 756.137888 283.360845 
L 757.035271 283.447232 
L 757.932654 283.25635 
L 758.830038 282.822368 
L 760.026549 281.952854 
L 762.120444 280.031313 
L 763.91521 278.488917 
L 765.111721 277.763013 
L 766.009105 277.464575 
L 766.906488 277.420788 
L 767.803872 277.65337 
L 768.701255 278.159755 
L 769.897766 279.197402 
L 773.4873 282.797314 
L 774.384683 283.280791 
L 775.282066 283.473854 
L 776.17945 283.375321 
L 777.076833 283.012986 
L 778.273344 282.203826 
L 780.068111 280.588858 
L 782.162006 278.727651 
L 783.358517 277.969501 
L 784.2559 277.64861 
L 785.153284 277.5874 
L 786.050667 277.809583 
L 786.94805 278.31285 
L 787.845434 279.061368 
L 789.341073 280.642881 
L 790.836712 282.198732 
L 791.734095 282.905349 
L 792.631478 283.345679 
L 793.528862 283.486264 
L 794.426245 283.331296 
L 795.323628 282.914467 
L 796.52014 282.04539 
L 798.614034 280.108165 
L 800.109673 278.815235 
L 801.306184 278.072623 
L 802.203568 277.775634 
L 803.100951 277.749383 
L 803.998334 278.015281 
L 804.895718 278.565328 
L 806.092229 279.657491 
L 809.083507 282.69643 
L 809.98089 283.235861 
L 810.878274 283.476118 
L 811.775657 283.408827 
L 812.67304 283.060433 
L 813.570424 282.481789 
L 815.066063 281.186788 
L 817.459085 279.011392 
L 818.655596 278.238503 
L 819.55298 277.919924 
L 820.450363 277.876733 
L 821.347746 278.132405 
L 822.24513 278.679165 
L 823.441641 279.773704 
L 826.133791 282.550831 
L 827.031174 283.150724 
L 827.928558 283.452499 
L 828.825941 283.43858 
L 829.723324 283.13041 
L 830.620708 282.577622 
L 831.817219 281.577069 
L 834.808497 278.889858 
L 835.70588 278.342045 
L 836.603264 278.031632 
L 837.500647 278.005111 
L 838.39803 278.284946 
L 839.295414 278.859376 
L 840.491925 279.983857 
L 842.884947 282.469567 
L 843.782331 283.101551 
L 844.679714 283.434427 
L 845.577097 283.444879 
L 846.474481 283.151971 
L 847.371864 282.605826 
L 848.568375 281.605106 
L 851.559653 278.927171 
L 852.457037 278.399652 
L 853.35442 278.121661 
L 854.251803 278.138961 
L 855.149187 278.469965 
L 856.04657 279.094903 
L 857.243081 280.265907 
L 859.336976 282.441151 
L 860.234359 283.085213 
L 861.131743 283.426444 
L 862.029126 283.43885 
L 862.926509 283.14156 
L 863.823893 282.586851 
L 865.020404 281.574168 
L 867.712554 279.133313 
L 868.609937 278.567137 
L 869.507321 278.246732 
L 870.404704 278.223032 
L 871.302088 278.519196 
L 872.199471 279.119029 
L 873.395982 280.273703 
L 875.489877 282.449247 
L 876.38726 283.092103 
L 877.284643 283.426125 
L 878.182027 283.424999 
L 879.07941 283.109846 
L 879.976793 282.536412 
L 881.472432 281.220557 
L 883.566327 279.314226 
L 884.46371 278.717471 
L 885.361094 278.363712 
L 886.258477 278.30852 
L 887.15586 278.579003 
L 888.053244 279.161479 
L 889.249755 280.305966 
L 891.34365 282.476699 
L 892.241033 283.110913 
L 893.138416 283.428976 
L 893.736672 283.450785 
L 894.634055 283.211014 
L 895.531439 282.691251 
L 896.72795 281.695792 
L 899.4201 279.253125 
L 900.317483 278.701145 
L 901.214867 278.411839 
L 902.11225 278.43699 
L 903.009633 278.794864 
L 903.907017 279.457385 
L 905.103528 280.665998 
L 906.898295 282.507479 
L 907.795678 283.131168 
L 908.693061 283.431152 
L 909.291317 283.437444 
L 910.1887 283.171709 
L 911.086084 282.626687 
L 912.282595 281.606836 
L 914.974745 279.197525 
L 915.872128 278.69449 
L 916.769512 278.473368 
L 917.367767 278.507067 
L 918.265151 278.840847 
L 919.162534 279.487844 
L 920.359045 280.68842 
L 922.153812 282.527313 
L 923.051195 283.144132 
L 923.948579 283.43046 
L 924.546834 283.424312 
L 925.444218 283.137076 
L 926.341601 282.570788 
L 927.538112 281.530811 
L 929.931135 279.365569 
L 930.828518 278.825483 
L 931.725901 278.563865 
L 932.324157 278.571451 
L 932.922413 278.733225 
L 933.819796 279.254391 
L 934.717179 280.051764 
L 937.409329 282.762933 
L 938.306713 283.276677 
L 938.904968 283.425962 
L 939.503224 283.414673 
L 940.400607 283.11593 
L 941.297991 282.536372 
L 942.79363 281.194835 
L 944.588396 279.562239 
L 945.48578 278.976289 
L 946.383163 278.661195 
L 946.981419 278.632436 
L 947.579674 278.759902 
L 948.477058 279.238067 
L 949.374441 280.007611 
L 952.365719 282.941125 
L 953.263102 283.357776 
L 953.861358 283.434194 
L 954.459614 283.349657 
L 955.356997 282.950628 
L 956.25438 282.293664 
L 958.348275 280.329214 
L 959.544786 279.350867 
L 960.442169 278.871096 
L 961.339553 278.697434 
L 961.937808 278.775835 
L 962.835192 279.189119 
L 963.732575 279.913186 
L 966.723853 282.87334 
L 966.723853 282.87334 
" clip-path="url(#pcacee28abb)" style="fill: none; stroke: #1c86ee; stroke-width: 4"/>
   </g>
   <g id="line2d_13">
    <path d="M 69.340478 282.922444 
L 966.723853 11.011364 
L 966.723853 11.011364 
" clip-path="url(#pcacee28abb)" style="fill: none; stroke: #191970; stroke-width: 4"/>
   </g>
  </g>
 </g>
 <defs>
  <clipPath id="pcacee28abb">
   <rect x="42.418977" y="2.834646" width="951.226378" height="288.910709"/>
  </clipPath>
 </defs>
</svg>
