<?xml version="1.0" encoding="utf-8" standalone="no"?>
<!DOCTYPE svg PUBLIC "-//W3C//DTD SVG 1.1//EN"
  "http://www.w3.org/Graphics/SVG/1.1/DTD/svg11.dtd">
<svg xmlns:xlink="http://www.w3.org/1999/xlink" width="662.4pt" height="230.4pt" viewBox="0 0 662.4 230.4" xmlns="http://www.w3.org/2000/svg" version="1.1">
 <metadata>
  <rdf:RDF xmlns:dc="http://purl.org/dc/elements/1.1/" xmlns:cc="http://creativecommons.org/ns#" xmlns:rdf="http://www.w3.org/1999/02/22-rdf-syntax-ns#">
   <cc:Work>
    <dc:type rdf:resource="http://purl.org/dc/dcmitype/StillImage"/>
    <dc:date>2024-08-16T13:36:45.782903</dc:date>
    <dc:format>image/svg+xml</dc:format>
    <dc:creator>
     <cc:Agent>
      <dc:title>Matplotlib v3.8.4, https://matplotlib.org/</dc:title>
     </cc:Agent>
    </dc:creator>
   </cc:Work>
  </rdf:RDF>
 </metadata>
 <defs>
  <style type="text/css">*{stroke-linejoin: round; stroke-linecap: butt}</style>
 </defs>
 <g id="figure_1">
  <g id="patch_1">
   <path d="M 0 230.4 
L 662.4 230.4 
L 662.4 0 
L 0 0 
L 0 230.4 
z
" style="fill: none"/>
  </g>
  <g id="axes_1">
   <g id="patch_2">
    <path d="M 64.170808 196.705354 
L 659.565354 196.705354 
L 659.565354 2.834646 
L 64.170808 2.834646 
L 64.170808 196.705354 
z
" style="fill: none"/>
   </g>
   <g id="line2d_1">
    <path d="M 81.021597 62.289485 
L 82.566252 54.271823 
L 83.900273 48.49489 
L 85.023659 44.536519 
L 86.006622 41.796262 
L 86.919373 39.881617 
L 87.691701 38.748585 
L 88.323605 38.160618 
L 88.885298 37.899279 
L 89.446991 37.889687 
L 89.938473 38.093678 
L 90.500166 38.57794 
L 91.13207 39.455831 
L 91.834186 40.863689 
L 92.606514 42.9609 
L 93.449054 45.924666 
L 94.432016 50.279895 
L 95.555402 56.401618 
L 96.819212 64.614904 
L 98.363867 76.230998 
L 100.400004 93.388318 
L 107.070108 151.028761 
L 108.825399 163.586787 
L 110.299843 172.581692 
L 111.563652 178.999054 
L 112.687038 183.619255 
L 113.670001 186.784749 
L 114.51254 188.82891 
L 115.284868 190.152957 
L 115.916772 190.84348 
L 116.478465 191.160958 
L 116.969947 191.211142 
L 117.461428 191.050527 
L 118.023121 190.611579 
L 118.655026 189.796961 
L 119.357142 188.50167 
L 120.199681 186.420919 
L 121.112432 183.54441 
L 122.165607 179.464932 
L 123.359204 173.929412 
L 124.763437 166.304781 
L 126.378304 156.268952 
L 128.414441 142.118135 
L 131.363329 119.862685 
L 135.997296 84.961942 
L 138.103645 70.810751 
L 139.858935 60.477994 
L 141.333379 53.070216 
L 142.597188 47.775842 
L 143.720574 43.961468 
L 144.703537 41.353398 
L 145.546077 39.680976 
L 146.318404 38.616491 
L 146.950309 38.085712 
L 147.512002 37.876299 
L 148.073695 37.920038 
L 148.635388 38.224879 
L 149.197081 38.800635 
L 149.828985 39.785949 
L 150.531102 41.31854 
L 151.30343 43.558094 
L 152.145969 46.680039 
L 153.128932 51.21737 
L 154.252318 57.534183 
L 155.586338 66.441338 
L 157.201206 78.874943 
L 159.377766 97.517924 
L 165.064907 147.019306 
L 166.890409 160.582235 
L 168.435065 170.444884 
L 169.769086 177.569292 
L 170.892472 182.471988 
L 171.945646 186.106738 
L 172.858397 188.480288 
L 173.630725 189.916207 
L 174.332841 190.76348 
L 174.894534 191.127358 
L 175.386016 191.217891 
L 175.877497 191.097282 
L 176.43919 190.703508 
L 177.071094 189.938839 
L 177.773211 188.697736 
L 178.545538 186.869536 
L 179.45829 184.106965 
L 180.511464 180.150866 
L 181.705061 174.743301 
L 183.109294 167.251163 
L 184.724161 157.341204 
L 186.690087 143.812103 
L 189.498551 122.747877 
L 194.624 84.13482 
L 196.730348 70.076251 
L 198.415427 60.223899 
L 199.889871 52.856091 
L 201.15368 47.599728 
L 202.277066 43.821571 
L 203.260029 41.246698 
L 204.102569 39.603605 
L 204.874896 38.566598 
L 205.506801 38.058753 
L 206.068494 37.87018 
L 206.559975 37.913062 
L 207.121668 38.206833 
L 207.683361 38.771078 
L 208.315266 39.742879 
L 209.017382 41.259794 
L 209.78971 43.481494 
L 210.632249 46.583656 
L 211.615212 51.098297 
L 212.738598 57.39091 
L 214.072619 66.273321 
L 215.687486 78.684324 
L 217.864046 97.310417 
L 223.551188 146.833987 
L 225.37669 160.420619 
L 226.921345 170.307914 
L 228.255366 177.456245 
L 229.378752 182.380513 
L 230.431926 186.036329 
L 231.344678 188.428561 
L 232.117005 189.88045 
L 232.819122 190.742272 
L 233.380815 191.117754 
L 233.872296 191.218382 
L 234.363777 191.107784 
L 234.92547 190.725319 
L 235.557375 189.973159 
L 236.259491 188.745634 
L 237.031819 186.931902 
L 237.94457 184.185695 
L 238.997744 180.247336 
L 240.191342 174.858199 
L 241.595574 167.385181 
L 243.210441 157.493447 
L 245.176367 143.980659 
L 247.984832 122.927926 
L 253.180492 83.805157 
L 255.28684 69.784158 
L 256.971919 59.970993 
L 258.446363 52.643315 
L 259.710172 47.425079 
L 260.833558 43.683223 
L 261.816521 41.141604 
L 262.659061 39.527879 
L 263.431388 38.518383 
L 264.063293 38.033509 
L 264.624986 37.86582 
L 265.116467 37.927463 
L 265.67816 38.243381 
L 266.239853 38.830655 
L 266.871758 39.829491 
L 267.573874 41.377766 
L 268.346202 43.635179 
L 269.258953 47.070864 
L 270.241916 51.698762 
L 271.365302 58.111909 
L 272.699322 67.11725 
L 274.31419 79.640112 
L 276.560961 98.973338 
L 281.897045 145.529351 
L 283.722547 159.279573 
L 285.267202 169.337839 
L 286.601223 176.652611 
L 287.794821 182.009971 
L 288.847995 185.749909 
L 289.760746 188.216802 
L 290.533074 189.732552 
L 291.23519 190.652581 
L 291.796883 191.074509 
L 292.358576 191.218393 
L 292.850058 191.117814 
L 293.411751 190.746665 
L 294.043655 190.007026 
L 294.745771 188.793091 
L 295.518099 186.993846 
L 296.43085 184.264026 
L 297.484025 180.343438 
L 298.677622 174.972767 
L 300.011643 167.918346 
L 301.62651 158.100119 
L 303.592436 144.653371 
L 306.330689 124.187228 
L 311.736984 83.476181 
L 313.843332 69.493048 
L 315.528411 59.719281 
L 317.002855 52.431893 
L 318.266664 47.251901 
L 319.39005 43.546429 
L 320.373013 41.038123 
L 321.215552 39.453804 
L 321.917669 38.542277 
L 322.549573 38.045914 
L 323.111266 37.867779 
L 323.602748 37.920038 
L 324.164441 38.224879 
L 324.726134 38.800635 
L 325.358038 39.785949 
L 326.060154 41.31854 
L 326.832482 43.558094 
L 327.675022 46.680039 
L 328.657984 51.21737 
L 329.78137 57.534183 
L 331.115391 66.441338 
L 332.730258 78.874943 
L 334.906819 97.517924 
L 340.59396 147.019306 
L 342.419462 160.582235 
L 343.964118 170.444884 
L 345.298138 177.569292 
L 346.421524 182.471988 
L 347.474699 186.106738 
L 348.38745 188.480288 
L 349.159778 189.916207 
L 349.861894 190.76348 
L 350.423587 191.127358 
L 350.915068 191.217891 
L 351.40655 191.097282 
L 351.968242 190.703508 
L 352.600147 189.938839 
L 353.302263 188.697736 
L 354.074591 186.869536 
L 354.987342 184.106965 
L 356.040517 180.150866 
L 357.234114 174.743301 
L 358.638346 167.251163 
L 360.253214 157.341204 
L 362.219139 143.812103 
L 365.027604 122.747877 
L 370.153052 84.13482 
L 372.259401 70.076251 
L 373.94448 60.223899 
L 375.418924 52.856091 
L 376.682733 47.599728 
L 377.806119 43.821571 
L 378.789082 41.246698 
L 379.631621 39.603605 
L 380.403949 38.566598 
L 381.035854 38.058753 
L 381.597547 37.87018 
L 382.089028 37.913062 
L 382.650721 38.206833 
L 383.212414 38.771078 
L 383.844318 39.742879 
L 384.546435 41.259794 
L 385.318762 43.481494 
L 386.161302 46.583656 
L 387.144265 51.098297 
L 388.267651 57.39091 
L 389.601671 66.273321 
L 391.216539 78.684324 
L 393.393099 97.310417 
L 399.08024 146.833987 
L 400.905742 160.420619 
L 402.450398 170.307914 
L 403.784419 177.456245 
L 404.907805 182.380513 
L 405.960979 186.036329 
L 406.87373 188.428561 
L 407.646058 189.88045 
L 408.348174 190.742272 
L 408.909867 191.117754 
L 409.401349 191.218382 
L 409.89283 191.107784 
L 410.454523 190.725319 
L 411.086427 189.973159 
L 411.788544 188.745634 
L 412.560871 186.931902 
L 413.473623 184.185695 
L 414.526797 180.247336 
L 415.720394 174.858199 
L 417.124627 167.385181 
L 418.739494 157.493447 
L 420.705419 143.980659 
L 423.513884 122.927926 
L 428.709544 83.805157 
L 430.815893 69.784158 
L 432.500972 59.970993 
L 433.975416 52.643315 
L 435.239225 47.425079 
L 436.362611 43.683223 
L 437.345574 41.141604 
L 438.188113 39.527879 
L 438.960441 38.518383 
L 439.592346 38.033509 
L 440.154039 37.86582 
L 440.64552 37.927463 
L 441.207213 38.243381 
L 441.768906 38.830655 
L 442.40081 39.829491 
L 443.102927 41.377766 
L 443.875254 43.635179 
L 444.788006 47.070864 
L 445.770968 51.698762 
L 446.894354 58.111909 
L 448.228375 67.11725 
L 449.843242 79.640112 
L 452.090014 98.973338 
L 457.426097 145.529351 
L 459.251599 159.279573 
L 460.796255 169.337839 
L 462.130276 176.652611 
L 463.323873 182.009971 
L 464.377048 185.749909 
L 465.289799 188.216802 
L 466.062127 189.732552 
L 466.764243 190.652581 
L 467.325936 191.074509 
L 467.887629 191.218393 
L 468.37911 191.117814 
L 468.940803 190.746665 
L 469.572708 190.007026 
L 470.274824 188.793091 
L 471.047152 186.993846 
L 471.959903 184.264026 
L 473.013077 180.343438 
L 474.206675 174.972767 
L 475.540696 167.918346 
L 477.155563 158.100119 
L 479.121488 144.653371 
L 481.859741 124.187228 
L 487.266036 83.476181 
L 489.372385 69.493048 
L 491.057464 59.719281 
L 492.531908 52.431893 
L 493.795717 47.251901 
L 494.919103 43.546429 
L 495.902066 41.038123 
L 496.744605 39.453804 
L 497.446721 38.542277 
L 498.078626 38.045914 
L 498.640319 37.867779 
L 499.1318 37.920038 
L 499.693493 38.224879 
L 500.255186 38.800635 
L 500.887091 39.785949 
L 501.589207 41.31854 
L 502.361535 43.558094 
L 503.204074 46.680039 
L 504.187037 51.21737 
L 505.310423 57.534183 
L 506.644444 66.441339 
L 508.259311 78.874943 
L 510.435871 97.517924 
L 516.123013 147.019306 
L 517.948515 160.582235 
L 519.49317 170.444884 
L 520.827191 177.569292 
L 521.950577 182.471988 
L 523.003751 186.106738 
L 523.916502 188.480288 
L 524.68883 189.916207 
L 525.390946 190.76348 
L 525.952639 191.127358 
L 526.444121 191.217891 
L 526.935602 191.097282 
L 527.497295 190.703508 
L 528.1292 189.938839 
L 528.831316 188.697736 
L 529.603644 186.869536 
L 530.516395 184.106965 
L 531.569569 180.150866 
L 532.763167 174.743301 
L 534.167399 167.251163 
L 535.782266 157.341204 
L 537.748192 143.812103 
L 540.556657 122.747877 
L 545.682105 84.13482 
L 547.788454 70.076251 
L 549.473533 60.223899 
L 550.947977 52.856091 
L 552.211786 47.599728 
L 553.335172 43.821571 
L 554.318134 41.246698 
L 555.160674 39.603605 
L 555.933002 38.566598 
L 556.564906 38.058753 
L 557.126599 37.87018 
L 557.618081 37.913062 
L 558.179774 38.206833 
L 558.741466 38.771078 
L 559.373371 39.742879 
L 560.075487 41.259794 
L 560.847815 43.481494 
L 561.690355 46.583656 
L 562.673317 51.098297 
L 563.796703 57.39091 
L 565.130724 66.273321 
L 566.745591 78.684324 
L 568.922152 97.310417 
L 574.609293 146.833987 
L 576.434795 160.420619 
L 577.979451 170.307914 
L 579.313471 177.456245 
L 580.436857 182.380513 
L 581.490032 186.036329 
L 582.402783 188.428561 
L 583.175111 189.88045 
L 583.877227 190.742272 
L 584.43892 191.117754 
L 584.930401 191.218382 
L 585.421882 191.107784 
L 585.983575 190.725319 
L 586.61548 189.973159 
L 587.317596 188.745634 
L 588.089924 186.931902 
L 589.002675 184.185694 
L 590.055849 180.247336 
L 591.249447 174.858199 
L 592.653679 167.385181 
L 594.268547 157.493447 
L 596.234472 143.980659 
L 599.042937 122.927926 
L 604.238597 83.805157 
L 606.344946 69.784158 
L 608.030024 59.970993 
L 609.504469 52.643315 
L 610.768278 47.425079 
L 611.891664 43.683223 
L 612.874626 41.141604 
L 613.717166 39.527879 
L 614.489494 38.518383 
L 615.121398 38.033509 
L 615.683091 37.86582 
L 616.174573 37.927463 
L 616.736265 38.243381 
L 617.297958 38.830655 
L 617.929863 39.829491 
L 618.631979 41.377766 
L 619.404307 43.635179 
L 620.317058 47.070864 
L 621.300021 51.698762 
L 622.423407 58.111909 
L 623.757428 67.11725 
L 625.372295 79.640112 
L 627.619067 98.973338 
L 632.95515 145.529351 
L 634.780652 159.279573 
L 636.325308 169.337839 
L 637.659329 176.652611 
L 638.852926 182.009971 
L 639.9061 185.749909 
L 640.818852 188.216802 
L 641.591179 189.732552 
L 642.293296 190.652581 
L 642.714565 190.980235 
L 642.714565 190.980235 
" clip-path="url(#pff7430ae17)" style="fill: none; stroke: #2477d0; stroke-width: 4"/>
   </g>
   <g id="matplotlib.axis_1">
    <g id="xtick_1">
     <g id="line2d_2">
      <defs>
       <path id="m403c49ec66" d="M 0 0 
L 0 -5 
" style="stroke: #000000"/>
      </defs>
      <g>
       <use xlink:href="#m403c49ec66" x="81.021597" y="196.705354" style="stroke: #000000"/>
      </g>
     </g>
     <g id="text_1">
      <!-- $0$ -->
      <g transform="translate(74.021597 221.480979) scale(0.28 -0.28)">
       <defs>
        <path id="Cmr10-30" d="M 1600 -141 
Q 816 -141 533 504 
Q 250 1150 250 2041 
Q 250 2597 351 3087 
Q 453 3578 754 3920 
Q 1056 4263 1600 4263 
Q 2022 4263 2290 4056 
Q 2559 3850 2700 3523 
Q 2841 3197 2892 2823 
Q 2944 2450 2944 2041 
Q 2944 1491 2842 1011 
Q 2741 531 2444 195 
Q 2147 -141 1600 -141 
z
M 1600 25 
Q 1956 25 2131 390 
Q 2306 756 2347 1200 
Q 2388 1644 2388 2144 
Q 2388 2625 2347 3031 
Q 2306 3438 2132 3767 
Q 1959 4097 1600 4097 
Q 1238 4097 1063 3765 
Q 888 3434 847 3029 
Q 806 2625 806 2144 
Q 806 1788 823 1472 
Q 841 1156 916 820 
Q 991 484 1158 254 
Q 1325 25 1600 25 
z
" transform="scale(0.015625)"/>
       </defs>
       <use xlink:href="#Cmr10-30" transform="translate(0 0.390625)"/>
      </g>
     </g>
    </g>
    <g id="xtick_2">
     <g id="line2d_3">
      <g>
       <use xlink:href="#m403c49ec66" x="221.444839" y="196.705354" style="stroke: #000000"/>
      </g>
     </g>
     <g id="text_2">
      <!-- $2$ -->
      <g transform="translate(214.444839 221.480979) scale(0.28 -0.28)">
       <defs>
        <path id="Cmr10-32" d="M 319 0 
L 319 172 
Q 319 188 331 206 
L 1325 1306 
Q 1550 1550 1690 1715 
Q 1831 1881 1968 2097 
Q 2106 2313 2186 2536 
Q 2266 2759 2266 3009 
Q 2266 3272 2169 3511 
Q 2072 3750 1880 3894 
Q 1688 4038 1416 4038 
Q 1138 4038 916 3870 
Q 694 3703 603 3438 
Q 628 3444 672 3444 
Q 816 3444 917 3347 
Q 1019 3250 1019 3097 
Q 1019 2950 917 2848 
Q 816 2747 672 2747 
Q 522 2747 420 2851 
Q 319 2956 319 3097 
Q 319 3338 409 3548 
Q 500 3759 670 3923 
Q 841 4088 1055 4175 
Q 1269 4263 1509 4263 
Q 1875 4263 2190 4108 
Q 2506 3953 2690 3670 
Q 2875 3388 2875 3009 
Q 2875 2731 2753 2481 
Q 2631 2231 2440 2026 
Q 2250 1822 1953 1562 
Q 1656 1303 1563 1216 
L 838 519 
L 1453 519 
Q 1906 519 2211 526 
Q 2516 534 2534 550 
Q 2609 631 2688 1141 
L 2875 1141 
L 2694 0 
L 319 0 
z
" transform="scale(0.015625)"/>
       </defs>
       <use xlink:href="#Cmr10-32" transform="translate(0 0.390625)"/>
      </g>
     </g>
    </g>
    <g id="xtick_3">
     <g id="line2d_4">
      <g>
       <use xlink:href="#m403c49ec66" x="361.868081" y="196.705354" style="stroke: #000000"/>
      </g>
     </g>
     <g id="text_3">
      <!-- $4$ -->
      <g transform="translate(354.868081 221.480979) scale(0.28 -0.28)">
       <defs>
        <path id="Cmr10-34" d="M 178 1056 
L 178 1281 
L 2156 4231 
Q 2178 4263 2222 4263 
L 2316 4263 
Q 2388 4263 2388 4191 
L 2388 1281 
L 3016 1281 
L 3016 1056 
L 2388 1056 
L 2388 428 
Q 2388 297 2575 261 
Q 2763 225 3009 225 
L 3009 0 
L 1247 0 
L 1247 225 
Q 1494 225 1681 261 
Q 1869 297 1869 428 
L 1869 1056 
L 178 1056 
z
M 391 1281 
L 1906 1281 
L 1906 3547 
L 391 1281 
z
" transform="scale(0.015625)"/>
       </defs>
       <use xlink:href="#Cmr10-34" transform="translate(0 0.390625)"/>
      </g>
     </g>
    </g>
    <g id="xtick_4">
     <g id="line2d_5">
      <g>
       <use xlink:href="#m403c49ec66" x="502.291323" y="196.705354" style="stroke: #000000"/>
      </g>
     </g>
     <g id="text_4">
      <!-- $6$ -->
      <g transform="translate(495.291323 221.480979) scale(0.28 -0.28)">
       <defs>
        <path id="Cmr10-36" d="M 1600 -141 
Q 1203 -141 937 70 
Q 672 281 526 617 
Q 381 953 325 1322 
Q 269 1691 269 2069 
Q 269 2575 466 3084 
Q 663 3594 1045 3928 
Q 1428 4263 1953 4263 
Q 2172 4263 2361 4180 
Q 2550 4097 2658 3936 
Q 2766 3775 2766 3547 
Q 2766 3416 2677 3327 
Q 2588 3238 2456 3238 
Q 2331 3238 2240 3328 
Q 2150 3419 2150 3547 
Q 2150 3672 2240 3762 
Q 2331 3853 2456 3853 
L 2491 3853 
Q 2409 3969 2261 4023 
Q 2113 4078 1953 4078 
Q 1759 4078 1595 3993 
Q 1431 3909 1300 3765 
Q 1169 3622 1081 3448 
Q 994 3275 945 3053 
Q 897 2831 884 2637 
Q 872 2444 872 2150 
Q 984 2413 1190 2580 
Q 1397 2747 1656 2747 
Q 1941 2747 2175 2631 
Q 2409 2516 2578 2311 
Q 2747 2106 2836 1843 
Q 2925 1581 2925 1313 
Q 2925 938 2758 598 
Q 2591 259 2287 59 
Q 1984 -141 1600 -141 
z
M 1600 63 
Q 1847 63 1997 175 
Q 2147 288 2217 473 
Q 2288 659 2305 848 
Q 2322 1038 2322 1313 
Q 2322 1675 2287 1931 
Q 2253 2188 2100 2383 
Q 1947 2578 1631 2578 
Q 1372 2578 1205 2403 
Q 1038 2228 961 1961 
Q 884 1694 884 1447 
Q 884 1363 891 1319 
Q 891 1309 889 1303 
Q 888 1297 884 1288 
Q 884 1013 940 731 
Q 997 450 1156 256 
Q 1316 63 1600 63 
z
" transform="scale(0.015625)"/>
       </defs>
       <use xlink:href="#Cmr10-36" transform="translate(0 0.390625)"/>
      </g>
     </g>
    </g>
    <g id="xtick_5">
     <g id="line2d_6">
      <g>
       <use xlink:href="#m403c49ec66" x="642.714565" y="196.705354" style="stroke: #000000"/>
      </g>
     </g>
     <g id="text_5">
      <!-- $8$ -->
      <g transform="translate(635.714565 221.480979) scale(0.28 -0.28)">
       <defs>
        <path id="Cmr10-38" d="M 269 972 
Q 269 1356 522 1651 
Q 775 1947 1172 2144 
L 934 2297 
Q 716 2441 578 2680 
Q 441 2919 441 3181 
Q 441 3488 602 3734 
Q 763 3981 1030 4122 
Q 1297 4263 1600 4263 
Q 1884 4263 2148 4147 
Q 2413 4031 2583 3815 
Q 2753 3600 2753 3303 
Q 2753 3088 2651 2903 
Q 2550 2719 2373 2572 
Q 2197 2425 1997 2322 
L 2363 2088 
Q 2616 1922 2770 1653 
Q 2925 1384 2925 1088 
Q 2925 741 2739 456 
Q 2553 172 2247 15 
Q 1941 -141 1600 -141 
Q 1269 -141 961 -6 
Q 653 128 461 383 
Q 269 638 269 972 
z
M 616 972 
Q 616 719 755 509 
Q 894 300 1122 181 
Q 1350 63 1600 63 
Q 1972 63 2275 280 
Q 2578 497 2578 856 
Q 2578 978 2529 1098 
Q 2481 1219 2395 1317 
Q 2309 1416 2203 1478 
L 1344 2034 
Q 1144 1928 976 1765 
Q 809 1603 712 1400 
Q 616 1197 616 972 
z
M 1056 2925 
L 1831 2425 
Q 2100 2581 2272 2803 
Q 2444 3025 2444 3303 
Q 2444 3519 2323 3698 
Q 2203 3878 2009 3978 
Q 1816 4078 1594 4078 
Q 1400 4078 1203 4003 
Q 1006 3928 878 3779 
Q 750 3631 750 3431 
Q 750 3131 1056 2925 
z
" transform="scale(0.015625)"/>
       </defs>
       <use xlink:href="#Cmr10-38" transform="translate(0 0.390625)"/>
      </g>
     </g>
    </g>
   </g>
   <g id="matplotlib.axis_2">
    <g id="ytick_1">
     <g id="line2d_7">
      <defs>
       <path id="m658a66fe0a" d="M 0 0 
L 5 0 
" style="stroke: #000000"/>
      </defs>
      <g>
       <use xlink:href="#m658a66fe0a" x="64.170808" y="191.218447" style="stroke: #000000"/>
      </g>
     </g>
     <g id="text_6">
      <!-- $-1.0$ -->
      <g transform="translate(2.990808 201.85626) scale(0.28 -0.28)">
       <defs>
        <path id="Cmsy10-a1" d="M 653 1472 
Q 600 1472 565 1512 
Q 531 1553 531 1600 
Q 531 1647 565 1687 
Q 600 1728 653 1728 
L 4325 1728 
Q 4375 1728 4408 1687 
Q 4441 1647 4441 1600 
Q 4441 1553 4408 1512 
Q 4375 1472 4325 1472 
L 653 1472 
z
" transform="scale(0.015625)"/>
        <path id="Cmr10-31" d="M 594 0 
L 594 225 
Q 1394 225 1394 428 
L 1394 3788 
Q 1063 3628 556 3628 
L 556 3853 
Q 1341 3853 1741 4263 
L 1831 4263 
Q 1853 4263 1873 4245 
Q 1894 4228 1894 4206 
L 1894 428 
Q 1894 225 2694 225 
L 2694 0 
L 594 0 
z
" transform="scale(0.015625)"/>
        <path id="Cmmi10-3a" d="M 538 353 
Q 538 497 644 600 
Q 750 703 891 703 
Q 978 703 1062 656 
Q 1147 609 1194 525 
Q 1241 441 1241 353 
Q 1241 213 1137 106 
Q 1034 0 891 0 
Q 750 0 644 106 
Q 538 213 538 353 
z
" transform="scale(0.015625)"/>
       </defs>
       <use xlink:href="#Cmsy10-a1" transform="translate(0 0.390625)"/>
       <use xlink:href="#Cmr10-31" transform="translate(77.685547 0.390625)"/>
       <use xlink:href="#Cmmi10-3a" transform="translate(127.685547 0.390625)"/>
       <use xlink:href="#Cmr10-30" transform="translate(155.371094 0.390625)"/>
      </g>
     </g>
    </g>
    <g id="ytick_2">
     <g id="line2d_8">
      <g>
       <use xlink:href="#m658a66fe0a" x="64.170808" y="152.879435" style="stroke: #000000"/>
      </g>
     </g>
     <g id="text_7">
      <!-- $-0.5$ -->
      <g transform="translate(2.990808 163.517248) scale(0.28 -0.28)">
       <defs>
        <path id="Cmr10-35" d="M 556 728 
Q 622 541 758 387 
Q 894 234 1080 148 
Q 1266 63 1466 63 
Q 1928 63 2103 422 
Q 2278 781 2278 1294 
Q 2278 1516 2270 1667 
Q 2263 1819 2228 1959 
Q 2169 2184 2020 2353 
Q 1872 2522 1656 2522 
Q 1441 2522 1286 2456 
Q 1131 2391 1034 2303 
Q 938 2216 863 2119 
Q 788 2022 769 2016 
L 697 2016 
Q 681 2016 657 2036 
Q 634 2056 634 2075 
L 634 4213 
Q 634 4228 654 4245 
Q 675 4263 697 4263 
L 716 4263 
Q 1147 4056 1631 4056 
Q 2106 4056 2547 4263 
L 2566 4263 
Q 2588 4263 2606 4247 
Q 2625 4231 2625 4213 
L 2625 4153 
Q 2625 4122 2613 4122 
Q 2394 3831 2064 3668 
Q 1734 3506 1381 3506 
Q 1125 3506 856 3578 
L 856 2369 
Q 1069 2541 1236 2614 
Q 1403 2688 1663 2688 
Q 2016 2688 2295 2484 
Q 2575 2281 2725 1954 
Q 2875 1628 2875 1288 
Q 2875 903 2686 575 
Q 2497 247 2172 53 
Q 1847 -141 1466 -141 
Q 1150 -141 886 21 
Q 622 184 470 459 
Q 319 734 319 1044 
Q 319 1188 412 1278 
Q 506 1369 647 1369 
Q 788 1369 883 1276 
Q 978 1184 978 1044 
Q 978 906 883 811 
Q 788 716 647 716 
Q 625 716 597 720 
Q 569 725 556 728 
z
" transform="scale(0.015625)"/>
       </defs>
       <use xlink:href="#Cmsy10-a1" transform="translate(0 0.390625)"/>
       <use xlink:href="#Cmr10-30" transform="translate(77.685547 0.390625)"/>
       <use xlink:href="#Cmmi10-3a" transform="translate(127.685547 0.390625)"/>
       <use xlink:href="#Cmr10-35" transform="translate(155.371094 0.390625)"/>
      </g>
     </g>
    </g>
    <g id="ytick_3">
     <g id="line2d_9">
      <g>
       <use xlink:href="#m658a66fe0a" x="64.170808" y="114.540423" style="stroke: #000000"/>
      </g>
     </g>
     <g id="text_8">
      <!-- $0.0$ -->
      <g transform="translate(24.830808 125.178236) scale(0.28 -0.28)">
       <use xlink:href="#Cmr10-30" transform="translate(0 0.390625)"/>
       <use xlink:href="#Cmmi10-3a" transform="translate(50 0.390625)"/>
       <use xlink:href="#Cmr10-30" transform="translate(77.685547 0.390625)"/>
      </g>
     </g>
    </g>
    <g id="ytick_4">
     <g id="line2d_10">
      <g>
       <use xlink:href="#m658a66fe0a" x="64.170808" y="76.201411" style="stroke: #000000"/>
      </g>
     </g>
     <g id="text_9">
      <!-- $0.5$ -->
      <g transform="translate(24.830808 86.839224) scale(0.28 -0.28)">
       <use xlink:href="#Cmr10-30" transform="translate(0 0.390625)"/>
       <use xlink:href="#Cmmi10-3a" transform="translate(50 0.390625)"/>
       <use xlink:href="#Cmr10-35" transform="translate(77.685547 0.390625)"/>
      </g>
     </g>
    </g>
    <g id="ytick_5">
     <g id="line2d_11">
      <g>
       <use xlink:href="#m658a66fe0a" x="64.170808" y="37.862399" style="stroke: #000000"/>
      </g>
     </g>
     <g id="text_10">
      <!-- $1.0$ -->
      <g transform="translate(24.830808 48.500211) scale(0.28 -0.28)">
       <use xlink:href="#Cmr10-31" transform="translate(0 0.390625)"/>
       <use xlink:href="#Cmmi10-3a" transform="translate(50 0.390625)"/>
       <use xlink:href="#Cmr10-30" transform="translate(77.685547 0.390625)"/>
      </g>
     </g>
    </g>
   </g>
   <g id="line2d_12">
    <path d="M 81.021597 37.862641 
L 81.513078 37.979579 
L 82.074771 38.37426 
L 82.706676 39.149308 
L 83.408792 40.417267 
L 84.18112 42.298139 
L 85.093871 45.160072 
L 86.147045 49.287848 
L 87.340643 54.970624 
L 88.674664 62.473636 
L 90.219319 72.482714 
L 92.115033 86.31336 
L 94.783075 107.612221 
L 99.697888 147.013863 
L 101.663813 160.848705 
L 103.278681 170.699432 
L 104.612702 177.577756 
L 105.806299 182.640971 
L 106.859473 186.18292 
L 107.772224 188.513479 
L 108.544552 189.931539 
L 109.246668 190.77111 
L 109.808361 191.131041 
L 110.299843 191.217479 
L 110.791324 191.090375 
L 111.353017 190.684115 
L 111.984922 189.896142 
L 112.687038 188.614014 
L 113.459366 186.717884 
L 114.372117 183.838502 
L 115.425291 179.691585 
L 116.618889 173.988693 
L 117.95291 166.465573 
L 119.497565 156.436862 
L 121.393279 142.588218 
L 124.061321 121.27668 
L 128.905922 82.416547 
L 130.871848 68.539923 
L 132.486715 58.644549 
L 133.890947 51.393571 
L 135.084545 46.351523 
L 136.137719 42.829467 
L 137.05047 40.516867 
L 137.822798 39.114387 
L 138.524914 38.289191 
L 139.086607 37.940849 
L 139.578089 37.864578 
L 140.06957 38.001847 
L 140.631263 38.419683 
L 141.263168 39.220578 
L 141.965284 40.516866 
L 142.737612 42.428241 
L 143.650363 45.325055 
L 144.703537 49.491087 
L 145.897135 55.214058 
L 147.231155 62.757238 
L 148.775811 72.805519 
L 150.671525 86.672075 
L 153.339567 107.996156 
L 158.184168 146.839183 
L 160.150094 160.69496 
L 161.764961 170.568042 
L 163.098982 177.467839 
L 164.292579 182.552189 
L 165.345754 186.114009 
L 166.258505 188.46251 
L 167.030833 189.896142 
L 167.732949 190.750084 
L 168.294642 191.1216 
L 168.786123 191.218205 
L 169.277604 191.101267 
L 169.839297 190.706586 
L 170.471202 189.931539 
L 171.173318 188.663579 
L 171.945646 186.782708 
L 172.858397 183.920774 
L 173.911571 179.792999 
L 175.105169 174.110222 
L 176.43919 166.60721 
L 177.983846 156.598132 
L 179.879559 142.767487 
L 182.547601 121.468626 
L 187.462414 82.066983 
L 189.42834 68.232141 
L 191.043207 58.381414 
L 192.377228 51.50309 
L 193.570825 46.439875 
L 194.624 42.897926 
L 195.536751 40.567368 
L 196.309079 39.149308 
L 197.011195 38.309736 
L 197.572888 37.949806 
L 198.064369 37.863368 
L 198.55585 37.990471 
L 199.117543 38.396731 
L 199.749448 39.184705 
L 200.451564 40.466833 
L 201.223892 42.362962 
L 202.136643 45.242345 
L 203.189817 49.389262 
L 204.383415 55.092153 
L 205.717436 62.615273 
L 207.262091 72.643984 
L 209.157805 86.492629 
L 211.825847 107.804167 
L 216.670449 146.664299 
L 218.636374 160.540923 
L 220.251241 170.436297 
L 221.655474 177.687276 
L 222.849071 182.729323 
L 223.902246 186.251379 
L 224.814997 188.56398 
L 225.587325 189.966459 
L 226.289441 190.791656 
L 226.851134 191.139998 
L 227.342615 191.216268 
L 227.834096 191.079 
L 228.395789 190.661164 
L 229.027694 189.860269 
L 229.72981 188.56398 
L 230.502138 186.652605 
L 231.414889 183.755792 
L 232.468063 179.589759 
L 233.661661 173.866789 
L 234.995682 166.323609 
L 236.540337 156.275328 
L 238.436051 142.408772 
L 241.104093 121.084691 
L 245.948695 82.241663 
L 247.91462 68.385886 
L 249.529487 58.512805 
L 250.863508 51.613008 
L 252.057106 46.528657 
L 253.11028 42.966837 
L 254.023031 40.618336 
L 254.795359 39.184705 
L 255.497475 38.330763 
L 256.059168 37.959247 
L 256.550649 37.862641 
L 257.042131 37.979579 
L 257.603824 38.37426 
L 258.235728 39.149308 
L 258.937845 40.417267 
L 259.710172 42.298139 
L 260.622923 45.160072 
L 261.676098 49.287848 
L 262.869695 54.970624 
L 264.203716 62.473636 
L 265.748372 72.482714 
L 267.644086 86.31336 
L 270.312127 107.612221 
L 275.226941 147.013863 
L 277.192866 160.848705 
L 278.807733 170.699432 
L 280.141754 177.577756 
L 281.335352 182.640971 
L 282.388526 186.18292 
L 283.301277 188.513479 
L 284.073605 189.931539 
L 284.775721 190.77111 
L 285.337414 191.131041 
L 285.828895 191.217479 
L 286.320377 191.090375 
L 286.88207 190.684115 
L 287.513974 189.896142 
L 288.216091 188.614014 
L 288.988418 186.717884 
L 289.901169 183.838502 
L 290.954344 179.691585 
L 292.147941 173.988693 
L 293.481962 166.465573 
L 295.026618 156.436862 
L 296.922332 142.588218 
L 299.590373 121.27668 
L 304.434975 82.416547 
L 306.4009 68.539923 
L 308.015768 58.644549 
L 309.42 51.393571 
L 310.613598 46.351523 
L 311.666772 42.829467 
L 312.579523 40.516867 
L 313.351851 39.114387 
L 314.053967 38.289191 
L 314.61566 37.940849 
L 315.107141 37.864578 
L 315.598623 38.001847 
L 316.160316 38.419683 
L 316.79222 39.220578 
L 317.494337 40.516866 
L 318.266664 42.428241 
L 319.179415 45.325055 
L 320.23259 49.491087 
L 321.426187 55.214058 
L 322.760208 62.757238 
L 324.304864 72.805519 
L 326.200578 86.672075 
L 328.868619 107.996156 
L 333.713221 146.839183 
L 335.679146 160.69496 
L 337.294014 170.568042 
L 338.628034 177.467839 
L 339.821632 182.552189 
L 340.874806 186.114009 
L 341.787557 188.46251 
L 342.559885 189.896142 
L 343.262001 190.750084 
L 343.823694 191.1216 
L 344.315176 191.218205 
L 344.806657 191.101267 
L 345.36835 190.706586 
L 346.000255 189.931539 
L 346.702371 188.663579 
L 347.474699 186.782708 
L 348.38745 183.920774 
L 349.440624 179.792999 
L 350.634222 174.110222 
L 351.968242 166.60721 
L 353.512898 156.598132 
L 355.408612 142.767487 
L 358.076654 121.468626 
L 362.991467 82.066983 
L 364.957392 68.232141 
L 366.57226 58.381414 
L 367.90628 51.50309 
L 369.099878 46.439875 
L 370.153052 42.897926 
L 371.065803 40.567368 
L 371.838131 39.149308 
L 372.540247 38.309736 
L 373.10194 37.949806 
L 373.593422 37.863368 
L 374.084903 37.990471 
L 374.646596 38.396731 
L 375.278501 39.184705 
L 375.980617 40.466833 
L 376.752945 42.362962 
L 377.665696 45.242345 
L 378.71887 49.389262 
L 379.912468 55.092153 
L 381.246488 62.615273 
L 382.791144 72.643984 
L 384.686858 86.492629 
L 387.354899 107.804167 
L 392.199501 146.664299 
L 394.165427 160.540923 
L 395.780294 170.436297 
L 397.184526 177.687276 
L 398.378124 182.729323 
L 399.431298 186.251379 
L 400.344049 188.56398 
L 401.116377 189.966459 
L 401.818493 190.791656 
L 402.380186 191.139998 
L 402.871668 191.216268 
L 403.363149 191.079 
L 403.924842 190.661164 
L 404.556747 189.860269 
L 405.258863 188.56398 
L 406.031191 186.652605 
L 406.943942 183.755792 
L 407.997116 179.589759 
L 409.190714 173.866789 
L 410.524734 166.323609 
L 412.06939 156.275328 
L 413.965104 142.408772 
L 416.633145 121.084691 
L 421.477747 82.241663 
L 423.443673 68.385886 
L 425.05854 58.512805 
L 426.392561 51.613008 
L 427.586158 46.528657 
L 428.639333 42.966837 
L 429.552084 40.618336 
L 430.324412 39.184705 
L 431.026528 38.330763 
L 431.588221 37.959247 
L 432.079702 37.862641 
L 432.571183 37.979579 
L 433.132876 38.37426 
L 433.764781 39.149308 
L 434.466897 40.417267 
L 435.239225 42.298139 
L 436.151976 45.160072 
L 437.20515 49.287848 
L 438.398748 54.970624 
L 439.732769 62.473636 
L 441.277424 72.482714 
L 443.173138 86.31336 
L 445.84118 107.612221 
L 450.755993 147.013863 
L 452.721919 160.848705 
L 454.336786 170.699432 
L 455.670807 177.577756 
L 456.864404 182.640971 
L 457.917579 186.18292 
L 458.83033 188.513479 
L 459.602658 189.931539 
L 460.304774 190.77111 
L 460.866467 191.131041 
L 461.357948 191.217479 
L 461.849429 191.090375 
L 462.411122 190.684115 
L 463.043027 189.896142 
L 463.745143 188.614014 
L 464.517471 186.717884 
L 465.430222 183.838502 
L 466.483396 179.691585 
L 467.676994 173.988693 
L 469.011015 166.465573 
L 470.55567 156.436862 
L 472.451384 142.588218 
L 475.119426 121.27668 
L 479.964028 82.416547 
L 481.929953 68.539923 
L 483.54482 58.644549 
L 484.949053 51.393571 
L 486.14265 46.351523 
L 487.195825 42.829467 
L 488.108576 40.516867 
L 488.880904 39.114387 
L 489.58302 38.289191 
L 490.144713 37.940849 
L 490.636194 37.864578 
L 491.127675 38.001847 
L 491.689368 38.419683 
L 492.321273 39.220578 
L 493.023389 40.516866 
L 493.795717 42.428241 
L 494.708468 45.325055 
L 495.761642 49.491087 
L 496.95524 55.214058 
L 498.289261 62.757238 
L 499.833916 72.805519 
L 501.72963 86.672075 
L 504.397672 107.996156 
L 509.242274 146.839183 
L 511.208199 160.69496 
L 512.823066 170.568042 
L 514.157087 177.467839 
L 515.350685 182.552189 
L 516.403859 186.114009 
L 517.31661 188.46251 
L 518.088938 189.896142 
L 518.791054 190.750084 
L 519.352747 191.1216 
L 519.844228 191.218205 
L 520.33571 191.101267 
L 520.897403 190.706586 
L 521.529307 189.931539 
L 522.231424 188.663579 
L 523.003751 186.782708 
L 523.916502 183.920774 
L 524.969677 179.792999 
L 526.163274 174.110222 
L 527.497295 166.60721 
L 529.041951 156.598132 
L 530.937665 142.767487 
L 533.605706 121.468626 
L 538.52052 82.066983 
L 540.486445 68.232141 
L 542.101312 58.381414 
L 543.435333 51.50309 
L 544.628931 46.439875 
L 545.682105 42.897926 
L 546.594856 40.567368 
L 547.367184 39.149308 
L 548.0693 38.309736 
L 548.630993 37.949806 
L 549.122474 37.863368 
L 549.613956 37.990471 
L 550.175649 38.396731 
L 550.807553 39.184705 
L 551.50967 40.466833 
L 552.281997 42.362962 
L 553.194748 45.242345 
L 554.247923 49.389262 
L 555.44152 55.092153 
L 556.775541 62.615273 
L 558.320197 72.643984 
L 560.215911 86.492629 
L 562.883952 107.804167 
L 567.728554 146.664299 
L 569.694479 160.540923 
L 571.309347 170.436297 
L 572.713579 177.687276 
L 573.907177 182.729323 
L 574.960351 186.251379 
L 575.873102 188.56398 
L 576.64543 189.966459 
L 577.347546 190.791656 
L 577.909239 191.139998 
L 578.40072 191.216268 
L 578.892202 191.079 
L 579.453895 190.661164 
L 580.085799 189.860269 
L 580.787916 188.56398 
L 581.560243 186.652605 
L 582.472994 183.755792 
L 583.526169 179.589759 
L 584.719766 173.866789 
L 586.053787 166.323609 
L 587.598443 156.275328 
L 589.494157 142.408772 
L 592.162198 121.084691 
L 597.0068 82.241663 
L 598.972725 68.385886 
L 600.587593 58.512805 
L 601.921613 51.613008 
L 603.115211 46.528657 
L 604.168385 42.966837 
L 605.081136 40.618336 
L 605.853464 39.184705 
L 606.55558 38.330763 
L 607.117273 37.959247 
L 607.608755 37.862641 
L 608.100236 37.979579 
L 608.661929 38.37426 
L 609.293834 39.149308 
L 609.99595 40.417267 
L 610.768278 42.298139 
L 611.681029 45.160072 
L 612.734203 49.287848 
L 613.927801 54.970624 
L 615.261821 62.473636 
L 616.806477 72.482714 
L 618.702191 86.31336 
L 621.370232 107.612221 
L 626.285046 147.013863 
L 628.250971 160.848705 
L 629.865839 170.699432 
L 631.199859 177.577756 
L 632.393457 182.640971 
L 633.446631 186.18292 
L 634.359382 188.513479 
L 635.13171 189.931539 
L 635.833826 190.77111 
L 636.395519 191.131041 
L 636.887001 191.217479 
L 637.378482 191.090375 
L 637.940175 190.684115 
L 638.57208 189.896142 
L 639.274196 188.614014 
L 640.046524 186.717884 
L 640.959275 183.838502 
L 642.012449 179.691585 
L 642.714565 176.574248 
L 642.714565 176.574248 
" clip-path="url(#pff7430ae17)" style="fill: none; stroke: #ffa231; stroke-width: 4"/>
   </g>
   <g id="patch_3">
    <path d="M 64.170808 196.705354 
L 64.170808 2.834646 
" style="fill: none; stroke: #000000; stroke-width: 2; stroke-linejoin: miter; stroke-linecap: square"/>
   </g>
   <g id="patch_4">
    <path d="M 64.170808 196.705354 
L 659.565354 196.705354 
" style="fill: none; stroke: #000000; stroke-width: 2; stroke-linejoin: miter; stroke-linecap: square"/>
   </g>
   <g id="line2d_13">
    <path d="M 81.021597 34.734573 
L 82.706676 35.449618 
L 83.75985 35.671028 
L 84.60239 35.62339 
L 85.304506 35.365822 
L 86.006622 34.85416 
L 86.708738 34.038861 
L 87.410854 32.881448 
L 88.253394 31.016378 
L 89.236356 28.216418 
L 90.570377 23.617916 
L 93.097996 14.760295 
L 94.080958 12.121956 
L 94.923498 10.427036 
L 95.695826 9.344223 
L 96.397942 8.72233 
L 97.100058 8.399967 
L 97.802174 8.323654 
L 98.574502 8.458808 
L 99.557465 8.862847 
L 100.961697 9.699688 
L 103.840374 11.736633 
L 112.265768 17.719568 
L 119.778412 22.764587 
L 127.431478 27.633699 
L 135.154757 32.284936 
L 139.718512 34.826982 
L 141.263168 35.464297 
L 142.316342 35.674427 
L 143.158881 35.612956 
L 143.860998 35.340062 
L 144.563114 34.809597 
L 145.26523 33.972497 
L 146.037558 32.653415 
L 146.880097 30.716542 
L 147.86306 27.843638 
L 149.267292 22.930942 
L 151.514064 15.045293 
L 152.567239 12.176931 
L 153.409778 10.466983 
L 154.182106 9.370847 
L 154.884222 8.738104 
L 155.586338 8.406565 
L 156.288455 8.322914 
L 157.060782 8.45204 
L 158.043745 8.851035 
L 159.447978 9.684265 
L 162.326654 11.719641 
L 170.82226 17.751843 
L 178.334904 22.79518 
L 185.98797 27.662669 
L 193.711249 32.312317 
L 198.204792 34.815585 
L 199.81966 35.478722 
L 200.872834 35.677395 
L 201.645162 35.618421 
L 202.347278 35.353255 
L 203.049394 34.832252 
L 203.75151 34.0061 
L 204.453627 32.836836 
L 205.296166 30.957362 
L 206.279129 28.1426 
L 207.61315 23.532362 
L 210.140768 14.689798 
L 211.123731 12.06743 
L 211.96627 10.387543 
L 212.738598 9.318015 
L 213.440714 8.706916 
L 214.14283 8.393665 
L 214.844947 8.324623 
L 215.687486 8.487593 
L 216.74066 8.948218 
L 218.285316 9.903361 
L 221.93632 12.518004 
L 229.589387 17.929172 
L 237.10203 22.96327 
L 244.755097 27.821841 
L 252.478375 32.46269 
L 256.761284 34.838392 
L 258.30594 35.471563 
L 259.359114 35.676001 
L 260.201654 35.60756 
L 260.90377 35.326956 
L 261.605886 34.787043 
L 262.308002 33.939007 
L 263.08033 32.606819 
L 263.92287 30.655632 
L 264.905832 27.768353 
L 266.310065 22.844786 
L 268.556837 14.973431 
L 269.610011 12.121956 
L 270.45255 10.427036 
L 271.224878 9.344223 
L 271.926994 8.72233 
L 272.629111 8.399967 
L 273.331227 8.323654 
L 274.103555 8.458808 
L 275.086517 8.862847 
L 276.49075 9.699688 
L 279.369426 11.736633 
L 287.794821 17.719568 
L 295.307464 22.764587 
L 302.960531 27.633699 
L 310.683809 32.284936 
L 315.247565 34.826982 
L 316.79222 35.464297 
L 317.845395 35.674427 
L 318.687934 35.612956 
L 319.39005 35.340062 
L 320.092167 34.809597 
L 320.794283 33.972497 
L 321.566611 32.653415 
L 322.40915 30.716542 
L 323.392113 27.843638 
L 324.796345 22.930942 
L 327.043117 15.045293 
L 328.096291 12.176931 
L 328.938831 10.466983 
L 329.711159 9.370847 
L 330.413275 8.738104 
L 331.115391 8.406565 
L 331.817507 8.322914 
L 332.589835 8.45204 
L 333.572798 8.851035 
L 334.97703 9.684265 
L 337.855707 11.719641 
L 346.351313 17.751843 
L 353.863956 22.79518 
L 361.517023 27.662669 
L 369.240301 32.312317 
L 373.733845 34.815585 
L 375.348712 35.478722 
L 376.401887 35.677395 
L 377.174214 35.618421 
L 377.876331 35.353255 
L 378.578447 34.832252 
L 379.280563 34.0061 
L 379.982679 32.836836 
L 380.825219 30.957362 
L 381.808181 28.1426 
L 383.142202 23.532362 
L 385.669821 14.689798 
L 386.652783 12.06743 
L 387.495323 10.387543 
L 388.267651 9.318015 
L 388.969767 8.706916 
L 389.671883 8.393665 
L 390.373999 8.324623 
L 391.216539 8.487593 
L 392.269713 8.948218 
L 393.814369 9.903361 
L 397.465373 12.518004 
L 405.11844 17.929172 
L 412.631083 22.96327 
L 420.28415 27.821841 
L 428.007428 32.46269 
L 432.290337 34.838392 
L 433.834993 35.471563 
L 434.888167 35.676001 
L 435.730706 35.60756 
L 436.432823 35.326956 
L 437.134939 34.787043 
L 437.837055 33.939007 
L 438.609383 32.606819 
L 439.451922 30.655632 
L 440.434885 27.768353 
L 441.839117 22.844786 
L 444.085889 14.973431 
L 445.139064 12.121956 
L 445.981603 10.427036 
L 446.753931 9.344223 
L 447.456047 8.72233 
L 448.158163 8.399967 
L 448.86028 8.323654 
L 449.632607 8.458808 
L 450.61557 8.862847 
L 452.019802 9.699688 
L 454.898479 11.736633 
L 463.323873 17.719568 
L 470.836517 22.764587 
L 478.489584 27.633699 
L 486.212862 32.284936 
L 490.776617 34.826982 
L 492.321273 35.464297 
L 493.374447 35.674427 
L 494.216987 35.612956 
L 494.919103 35.340062 
L 495.621219 34.809597 
L 496.323335 33.972497 
L 497.095663 32.653415 
L 497.938203 30.716542 
L 498.921165 27.843638 
L 500.325398 22.930942 
L 502.57217 15.045293 
L 503.625344 12.176931 
L 504.467883 10.466983 
L 505.240211 9.370847 
L 505.942327 8.738104 
L 506.644444 8.406565 
L 507.34656 8.322914 
L 508.118888 8.45204 
L 509.10185 8.851035 
L 510.506083 9.684265 
L 513.384759 11.719641 
L 521.880365 17.751843 
L 529.393009 22.79518 
L 537.046076 27.662669 
L 544.769354 32.312317 
L 549.262898 34.815585 
L 550.877765 35.478722 
L 551.930939 35.677395 
L 552.703267 35.618421 
L 553.405383 35.353255 
L 554.1075 34.832252 
L 554.809616 34.0061 
L 555.511732 32.836836 
L 556.354271 30.957362 
L 557.337234 28.1426 
L 558.671255 23.532362 
L 561.198873 14.689798 
L 562.181836 12.06743 
L 563.024375 10.387543 
L 563.796703 9.318015 
L 564.498819 8.706916 
L 565.200936 8.393665 
L 565.903052 8.324623 
L 566.745591 8.487593 
L 567.798766 8.948218 
L 569.343421 9.903361 
L 572.994426 12.518004 
L 580.647492 17.929172 
L 588.160136 22.96327 
L 595.813202 27.821841 
L 603.536481 32.46269 
L 607.81939 34.838392 
L 609.364045 35.471563 
L 610.41722 35.676001 
L 611.259759 35.60756 
L 611.961875 35.326956 
L 612.663991 34.787043 
L 613.366108 33.939007 
L 614.138436 32.606819 
L 614.980975 30.655632 
L 615.963938 27.768353 
L 617.36817 22.844786 
L 619.614942 14.973431 
L 620.668116 12.121956 
L 621.510656 10.427036 
L 622.282984 9.344223 
L 622.9851 8.72233 
L 623.687216 8.399967 
L 624.389332 8.323654 
L 625.16166 8.458808 
L 626.144623 8.862847 
L 627.548855 9.699688 
L 630.427532 11.736633 
L 638.852926 17.719568 
L 642.714565 20.330806 
L 642.714565 20.330806 
" clip-path="url(#pff7430ae17)" style="fill: none; stroke: #4eba88; stroke-width: 4"/>
   </g>
  </g>
 </g>
 <defs>
  <clipPath id="pff7430ae17">
   <rect x="64.170808" y="2.834646" width="595.394547" height="193.870709"/>
  </clipPath>
 </defs>
</svg>
