<?xml version="1.0" encoding="utf-8" standalone="no"?>
<!DOCTYPE svg PUBLIC "-//W3C//DTD SVG 1.1//EN"
  "http://www.w3.org/Graphics/SVG/1.1/DTD/svg11.dtd">
<svg xmlns:xlink="http://www.w3.org/1999/xlink" width="662.4pt" height="100.8pt" viewBox="0 0 662.4 100.8" xmlns="http://www.w3.org/2000/svg" version="1.1">
 <metadata>
  <rdf:RDF xmlns:dc="http://purl.org/dc/elements/1.1/" xmlns:cc="http://creativecommons.org/ns#" xmlns:rdf="http://www.w3.org/1999/02/22-rdf-syntax-ns#">
   <cc:Work>
    <dc:type rdf:resource="http://purl.org/dc/dcmitype/StillImage"/>
    <dc:date>2024-08-20T09:35:27.172935</dc:date>
    <dc:format>image/svg+xml</dc:format>
    <dc:creator>
     <cc:Agent>
      <dc:title>Matplotlib v3.8.4, https://matplotlib.org/</dc:title>
     </cc:Agent>
    </dc:creator>
   </cc:Work>
  </rdf:RDF>
 </metadata>
 <defs>
  <style type="text/css">*{stroke-linejoin: round; stroke-linecap: butt}</style>
 </defs>
 <g id="figure_1">
  <g id="patch_1">
   <path d="M 0 100.8 
L 662.4 100.8 
L 662.4 0 
L 0 0 
L 0 100.8 
z
" style="fill: none"/>
  </g>
  <g id="axes_1">
   <g id="patch_2">
    <path d="M 21.004646 67.105354 
L 659.565354 67.105354 
L 659.565354 11.604935 
L 21.004646 11.604935 
L 21.004646 67.105354 
z
" style="fill: none"/>
   </g>
   <g id="line2d_1">
    <path d="M 39.077119 65.531911 
L 41.306057 65.425756 
L 41.848231 65.178036 
L 42.239801 64.753461 
L 42.601251 64.01434 
L 42.9627 62.739209 
L 43.35427 60.465154 
L 43.775962 56.609218 
L 44.288015 49.567728 
L 44.980793 36.353959 
L 45.974779 17.633797 
L 46.366349 13.86919 
L 46.607316 13.195281 
L 46.697678 13.286268 
L 46.848282 13.852655 
L 47.089248 15.79157 
L 47.450698 20.765602 
L 48.113355 33.756462 
L 49.07722 51.871178 
L 49.649515 58.714423 
L 50.131448 62.137324 
L 50.58326 63.923224 
L 51.004951 64.793197 
L 51.456762 65.237843 
L 51.998937 65.445546 
L 52.962802 65.524967 
L 58.745993 65.526022 
L 59.950825 65.395779 
L 60.462878 65.115981 
L 60.854448 64.628977 
L 61.215898 63.793201 
L 61.577347 62.371549 
L 61.968918 59.87448 
L 62.420729 55.348059 
L 62.932783 47.749744 
L 63.715923 32.181692 
L 64.529185 17.40158 
L 64.920755 13.775829 
L 65.1316 13.197723 
L 65.221963 13.262552 
L 65.372567 13.786053 
L 65.613533 15.660958 
L 65.974982 20.558126 
L 66.607519 32.857256 
L 67.631626 52.130846 
L 68.203921 58.873678 
L 68.685853 62.229068 
L 69.137665 63.972273 
L 69.559356 64.818164 
L 70.011168 65.248895 
L 70.553342 65.449283 
L 71.517207 65.525504 
L 77.932935 65.5323 
L 81.487188 65.423223 
L 82.029362 65.169706 
L 82.420933 64.736275 
L 82.782382 63.983338 
L 83.143832 62.687101 
L 83.535402 60.38063 
L 83.957093 56.479626 
L 84.469146 49.377932 
L 85.161924 36.111196 
L 86.15591 17.47999 
L 86.547481 13.806981 
L 86.758326 13.200259 
L 86.848689 13.252684 
L 86.999292 13.755817 
L 87.240259 15.600245 
L 87.601708 20.460642 
L 88.234245 32.732057 
L 89.258352 52.04339 
L 89.830647 58.820245 
L 90.312579 62.198442 
L 90.764391 63.956042 
L 91.186082 64.81004 
L 91.637894 65.245448 
L 92.180068 65.448291 
L 93.143933 65.525584 
L 99.469299 65.532494 
L 102.662102 65.424602 
L 103.204277 65.173433 
L 103.595847 64.743586 
L 103.957296 63.996235 
L 104.318746 62.708526 
L 104.710316 60.415142 
L 105.132007 56.532312 
L 105.64406 49.454854 
L 106.336838 36.209327 
L 107.330824 17.541999 
L 107.722395 13.832034 
L 107.93324 13.202882 
L 108.023603 13.245572 
L 108.174207 13.732708 
L 108.415173 15.553164 
L 108.776622 20.384558 
L 109.409159 32.633896 
L 110.433266 51.974557 
L 111.005561 58.77813 
L 111.487493 62.174287 
L 111.939305 63.943244 
L 112.360996 64.803646 
L 112.812808 65.242755 
L 113.354982 65.447543 
L 114.318847 65.525687 
L 120.55385 65.532688 
L 123.9575 65.427146 
L 124.499674 65.180648 
L 124.891244 64.757943 
L 125.252693 64.021743 
L 125.614143 62.751083 
L 126.005713 60.483906 
L 126.427404 56.637557 
L 126.909337 50.095809 
L 127.571994 37.663312 
L 128.656342 17.271132 
L 129.047913 13.725801 
L 129.258758 13.196224 
L 129.349121 13.282056 
L 129.499725 13.839998 
L 129.740691 15.766324 
L 130.10214 20.725277 
L 130.764798 33.705041 
L 131.728663 51.835102 
L 132.300958 58.692533 
L 132.78289 62.125021 
L 133.234702 63.917004 
L 133.656393 64.790418 
L 134.108205 65.237057 
L 134.650379 65.445811 
L 135.614245 65.525694 
L 141.728765 65.532882 
L 146.969782 65.421841 
L 147.511956 65.164442 
L 147.903526 64.725093 
L 148.264976 63.962945 
L 148.626425 62.652666 
L 149.017995 60.324687 
L 149.439686 56.393875 
L 149.95174 49.252567 
L 150.644518 35.951522 
L 151.638504 17.380346 
L 152.030074 13.768002 
L 152.24092 13.198 
L 152.331282 13.266339 
L 152.481886 13.795599 
L 152.722852 15.679113 
L 153.084302 20.586645 
L 153.716838 32.893526 
L 154.740945 52.156356 
L 155.31324 58.889567 
L 155.795173 62.23852 
L 156.246984 63.977668 
L 156.668675 64.821277 
L 157.120487 65.250693 
L 157.662661 65.450392 
L 158.626527 65.526313 
L 165.072375 65.533076 
L 177.331536 65.422599 
L 177.87371 65.166779 
L 178.265281 64.729834 
L 178.62673 63.971426 
L 178.988179 62.666846 
L 179.37975 60.347592 
L 179.801441 56.428862 
L 180.313494 49.303593 
L 181.006272 36.016389 
L 182.000258 17.420773 
L 182.391829 13.783832 
L 182.602674 13.198955 
L 182.693036 13.26085 
L 182.84364 13.779535 
L 183.084607 15.647237 
L 183.446056 20.535722 
L 184.078593 32.828329 
L 185.102699 52.110874 
L 185.674994 58.861752 
L 186.156927 62.22253 
L 186.608739 63.969134 
L 187.03043 64.816938 
L 187.482242 65.248772 
L 188.024416 65.449739 
L 188.988281 65.526213 
L 195.373888 65.533035 
L 200.855872 65.424925 
L 201.398046 65.173324 
L 201.789616 64.742816 
L 202.151066 63.994435 
L 202.512515 62.705152 
L 202.904085 60.409352 
L 203.325776 56.523163 
L 203.83783 49.44122 
L 204.530608 36.191754 
L 205.524594 17.531068 
L 205.916164 13.82793 
L 206.12701 13.202926 
L 206.217372 13.247418 
L 206.367976 13.737514 
L 206.608942 15.56241 
L 206.970392 20.399182 
L 207.602928 32.652632 
L 208.627035 51.987891 
L 209.19933 58.786518 
L 209.681263 62.179347 
L 210.133074 63.946198 
L 210.554765 64.805411 
L 211.006577 65.243833 
L 211.548751 65.44826 
L 212.512617 65.526245 
L 218.777741 65.533229 
L 222.633202 65.429086 
L 223.175376 65.185376 
L 223.566946 64.766943 
L 223.928395 64.037422 
L 224.289845 62.776992 
L 224.681415 60.525573 
L 225.103106 56.701214 
L 225.585039 50.187337 
L 226.247696 37.782018 
L 227.332044 17.345385 
L 227.723615 13.754626 
L 227.93446 13.197661 
L 228.024823 13.271645 
L 228.175427 13.810164 
L 228.416393 15.70751 
L 228.777842 20.631678 
L 229.410379 32.95096 
L 230.434486 52.196429 
L 231.006781 58.914171 
L 231.488713 62.252786 
L 231.940525 63.985422 
L 232.362216 64.825371 
L 232.814028 65.252679 
L 233.356202 65.451272 
L 234.350188 65.527258 
L 241.338211 65.533423 
L 244.440652 65.429133 
L 244.982826 65.185127 
L 245.374397 64.766243 
L 245.735846 64.036015 
L 246.097295 62.774501 
L 246.488866 60.521411 
L 246.910557 56.694718 
L 247.392489 50.177879 
L 248.055147 37.769658 
L 249.139495 17.33771 
L 249.531065 13.751771 
L 249.741911 13.197716 
L 249.832273 13.272959 
L 249.982877 13.813545 
L 250.223843 15.713975 
L 250.585293 20.641853 
L 251.217829 32.963894 
L 252.241936 52.205482 
L 252.814231 58.919773 
L 253.296164 62.256083 
L 253.747976 63.987267 
L 254.169667 64.8264 
L 254.621479 65.253238 
L 255.163653 65.451585 
L 256.157639 65.527462 
L 263.175782 65.533617 
L 269.290302 65.429381 
L 269.832477 65.185484 
L 270.224047 64.766766 
L 270.585496 64.036799 
L 270.946946 62.775684 
L 271.338516 60.523209 
L 271.760207 56.697376 
L 272.24214 50.181628 
L 272.904797 37.774476 
L 273.989145 17.340802 
L 274.380716 13.753088 
L 274.591561 13.197961 
L 274.681923 13.27274 
L 274.832527 13.812565 
L 275.073494 15.711859 
L 275.434943 20.638371 
L 276.06748 32.959396 
L 277.091586 52.202414 
L 277.663881 58.917976 
L 278.145814 62.255134 
L 278.597626 63.986853 
L 279.019317 64.826286 
L 279.471129 65.253297 
L 280.013303 65.451736 
L 281.007289 65.527652 
L 287.995312 65.533811 
L 299.350849 65.425989 
L 299.893023 65.174958 
L 300.284593 64.745322 
L 300.646043 63.9983 
L 301.007492 62.711093 
L 301.399063 60.41848 
L 301.820754 56.536722 
L 302.332807 49.460695 
L 303.025585 36.216425 
L 304.019571 17.546978 
L 304.411141 13.834835 
L 304.621987 13.204359 
L 304.712349 13.246475 
L 304.862953 13.732666 
L 305.103919 15.551705 
L 305.465369 20.381382 
L 306.097905 32.629409 
L 307.122012 51.971793 
L 307.694307 58.776943 
L 308.17624 62.174163 
L 308.628052 63.943792 
L 309.049743 64.804573 
L 309.501555 65.243901 
L 310.043729 65.448805 
L 311.007594 65.526999 
L 317.242597 65.534006 
L 322.212527 65.427813 
L 322.754701 65.180019 
L 323.146272 64.755331 
L 323.507721 64.016033 
L 323.86917 62.740631 
L 324.260741 60.46616 
L 324.682432 56.609645 
L 325.194485 49.567379 
L 325.887263 36.352923 
L 326.881249 17.633894 
L 327.27282 13.870463 
L 327.513786 13.197375 
L 327.604148 13.288672 
L 327.754752 13.855569 
L 327.995718 15.795242 
L 328.357168 20.770182 
L 329.019825 33.761706 
L 329.98369 51.875491 
L 330.555985 58.717881 
L 331.037918 62.140205 
L 331.48973 63.925739 
L 331.911421 64.795505 
L 332.363233 65.24003 
L 332.905407 65.447671 
L 333.869272 65.527064 
L 340.013913 65.5342 
L 344.321186 65.427954 
L 344.86336 65.180054 
L 345.25493 64.755205 
L 345.61638 64.015656 
L 345.977829 62.739869 
L 346.369399 60.464806 
L 346.79109 56.607466 
L 347.303144 49.564097 
L 347.995922 36.348662 
L 348.989908 17.631244 
L 349.381478 13.869488 
L 349.622444 13.197566 
L 349.712807 13.289307 
L 349.863411 13.856929 
L 350.104377 15.797681 
L 350.465826 20.773912 
L 351.128484 33.766383 
L 352.092349 51.878845 
L 352.664644 58.720017 
L 353.146577 62.141519 
L 353.598388 63.926531 
L 354.020079 64.796003 
L 354.471891 65.240358 
L 355.014065 65.447908 
L 355.977931 65.527263 
L 362.122571 65.534394 
L 368.869628 65.427032 
L 369.411802 65.176915 
L 369.803372 64.748675 
L 370.164822 64.003831 
L 370.526271 62.719951 
L 370.917842 60.432448 
L 371.339533 56.557792 
L 371.851586 49.491252 
L 372.544364 36.255324 
L 373.53835 17.571847 
L 373.92992 13.845267 
L 374.140766 13.206018 
L 374.231128 13.244324 
L 374.381732 13.724251 
L 374.622698 15.533895 
L 374.984148 20.35219 
L 375.616684 32.591505 
L 376.640791 51.945306 
L 377.213086 58.760917 
L 377.695019 62.16518 
L 378.146831 63.939266 
L 378.568522 64.802564 
L 379.020334 65.243347 
L 379.562508 65.449016 
L 380.526373 65.527545 
L 386.731255 65.534588 
L 399.683194 65.428076 
L 400.225368 65.18283 
L 400.616939 64.762044 
L 400.978388 64.028843 
L 401.339838 62.762773 
L 401.731408 60.502665 
L 402.153099 56.666175 
L 402.635031 50.136913 
L 403.297689 37.716565 
L 404.382037 17.304384 
L 404.773607 13.738682 
L 404.984453 13.196833 
L 405.074815 13.277357 
L 405.225419 13.8266 
L 405.466386 15.739953 
L 405.827835 20.683347 
L 406.460372 33.016884 
L 407.454358 51.797406 
L 408.026653 58.669447 
L 408.508585 62.111817 
L 408.960397 63.910078 
L 409.382088 64.787045 
L 409.8339 65.235743 
L 410.376074 65.445584 
L 411.309818 65.525308 
L 416.942406 65.533183 
L 422.785839 65.42753 
L 423.328013 65.180809 
L 423.719583 64.757765 
L 424.081033 64.021034 
L 424.442482 62.74956 
L 424.834052 60.481132 
L 425.255743 56.633038 
L 425.767797 49.602062 
L 426.460575 36.397644 
L 427.454561 17.66223 
L 427.846131 13.881701 
L 428.087097 13.196678 
L 428.17746 13.283449 
L 428.328064 13.842929 
L 428.56903 15.771549 
L 428.93048 20.733252 
L 429.593137 33.715043 
L 430.557002 51.842313 
L 431.129297 58.697161 
L 431.61123 62.127901 
L 432.063041 63.918776 
L 432.484733 64.791562 
L 432.936544 65.237837 
L 433.478719 65.4464 
L 434.442584 65.526198 
L 440.557104 65.533377 
L 445.286067 65.426877 
L 445.828242 65.178472 
L 446.219812 64.75285 
L 446.581261 64.012093 
L 446.942711 62.73446 
L 447.334281 60.456556 
L 447.755972 56.595261 
L 448.268025 49.546594 
L 448.960804 36.326459 
L 449.95479 17.616764 
L 450.34636 13.863041 
L 450.587326 13.196723 
L 450.677689 13.290588 
L 450.828292 13.86169 
L 451.069259 15.807626 
L 451.430708 20.790061 
L 452.093366 33.787077 
L 453.057231 51.893193 
L 453.629526 58.728519 
L 454.111458 62.146074 
L 454.56327 63.928584 
L 454.984961 64.796641 
L 455.436773 65.240177 
L 455.978947 65.447296 
L 456.942812 65.526461 
L 463.087453 65.533571 
L 473.418884 65.42682 
L 473.961058 65.177916 
L 474.352628 64.75153 
L 474.714077 64.009579 
L 475.075527 62.730122 
L 475.467097 60.449413 
L 475.888788 56.584212 
L 476.400842 49.530315 
L 477.09362 36.305547 
L 478.087606 17.60349 
L 478.479176 13.857701 
L 478.720142 13.196914 
L 478.810505 13.292876 
L 478.961109 13.867412 
L 479.202075 15.818464 
L 479.563524 20.807016 
L 480.226182 33.808509 
L 481.190047 51.908353 
L 481.762342 58.73791 
L 482.244275 62.151572 
L 482.696086 63.931613 
L 483.117777 64.798275 
L 483.569589 65.241003 
L 484.111763 65.447696 
L 485.075629 65.526675 
L 491.25039 65.533765 
L 501.340854 65.425853 
L 501.883028 65.174644 
L 502.274599 64.744736 
L 502.636048 63.997291 
L 502.997498 62.709437 
L 503.389068 60.41583 
L 503.810759 56.532691 
L 504.322812 49.454819 
L 505.01559 36.208928 
L 506.009576 17.542212 
L 506.401147 13.832877 
L 506.611992 13.204107 
L 506.702354 13.246964 
L 506.852958 13.734373 
L 507.093925 15.555238 
L 507.455374 20.387128 
L 508.087911 32.636846 
L 509.112018 51.977009 
L 509.684313 58.780125 
L 510.166245 62.175976 
L 510.618057 63.944738 
L 511.039748 64.805031 
L 511.49156 65.244076 
L 512.033734 65.448831 
L 512.997599 65.52696 
L 519.232602 65.533959 
L 524.021808 65.425918 
L 524.563982 65.174452 
L 524.955552 64.74415 
L 525.317002 63.996092 
L 525.678451 62.707302 
L 526.070021 60.412257 
L 526.491712 56.527119 
L 527.003766 49.446579 
L 527.696544 36.198344 
L 528.69053 17.53558 
L 529.0821 13.830306 
L 529.292946 13.204004 
L 529.383308 13.247933 
L 529.533912 13.737103 
L 529.774878 15.56061 
L 530.136328 20.395701 
L 530.768864 32.647865 
L 531.792971 51.984814 
L 532.365266 58.784988 
L 532.847199 62.178859 
L 533.29901 63.946368 
L 533.720701 64.805953 
L 534.172513 65.244589 
L 534.714687 65.449129 
L 535.678553 65.527164 
L 541.943677 65.534154 
L 547.395539 65.427388 
L 547.937713 65.178457 
L 548.329284 64.752028 
L 548.690733 64.010012 
L 549.052183 62.730454 
L 549.443753 60.449591 
L 549.865444 56.584175 
L 550.377497 49.52999 
L 551.070275 36.304968 
L 552.064261 17.603332 
L 552.455832 13.85798 
L 552.696798 13.197497 
L 552.78716 13.293575 
L 552.937764 13.8683 
L 553.178731 15.819633 
L 553.54018 20.808522 
L 554.202837 33.810261 
L 555.166703 51.909758 
L 555.738998 58.738998 
L 556.22093 62.152446 
L 556.672742 63.932351 
L 557.094433 64.798936 
L 557.546245 65.24162 
L 558.088419 65.44829 
L 559.052284 65.527258 
L 565.227046 65.534348 
L 579.022367 65.426093 
L 579.594662 65.199115 
L 579.986232 64.816362 
L 580.347682 64.14297 
L 580.709131 62.969043 
L 581.100701 60.851828 
L 581.522392 57.216467 
L 582.004325 50.945388 
L 582.636861 39.403308 
L 583.841693 16.808861 
L 584.203142 13.681245 
L 584.413988 13.175701 
L 584.50435 13.271919 
L 584.654954 13.846873 
L 584.895921 15.798547 
L 585.25737 20.787844 
L 585.920027 33.78988 
L 586.883893 51.888959 
L 587.456188 58.717813 
L 587.93812 62.131001 
L 588.389932 63.910743 
L 588.811623 64.777234 
L 589.263435 65.219864 
L 589.805609 65.426506 
L 590.769474 65.505462 
L 596.944236 65.51255 
L 603.118997 65.408835 
L 603.661172 65.165979 
L 604.052742 64.748857 
L 604.414191 64.021387 
L 604.775641 62.764099 
L 605.167211 60.517526 
L 605.588902 56.699936 
L 606.070835 50.194654 
L 606.733492 37.797752 
L 607.81784 17.347534 
L 608.209411 13.742796 
L 608.420256 13.177391 
L 608.510618 13.247721 
L 608.661222 13.780248 
L 608.902189 15.668644 
L 609.263638 20.582053 
L 609.896175 32.893328 
L 610.920281 52.150051 
L 611.492576 58.877804 
L 611.974509 62.223107 
L 612.426321 63.959955 
L 612.848012 64.80227 
L 613.299824 65.230941 
L 613.841998 65.430249 
L 614.835984 65.506548 
L 621.793886 65.512744 
L 625.76983 65.408504 
L 626.312004 65.164601 
L 626.703574 64.745872 
L 627.065024 64.015889 
L 627.426473 62.754749 
L 627.818044 60.502236 
L 628.239735 56.676349 
L 628.721667 50.160533 
L 629.384325 37.753315 
L 630.468673 17.319748 
L 630.860243 13.732145 
L 631.071089 13.177084 
L 631.161451 13.251893 
L 631.312055 13.791765 
L 631.553021 15.69113 
L 631.914471 20.617727 
L 632.547007 32.938815 
L 633.571114 52.181744 
L 634.143409 58.897227 
L 634.625342 62.234332 
L 635.077154 63.966018 
L 635.498845 64.805432 
L 635.950656 65.232433 
L 636.492831 65.430865 
L 637.486817 65.506779 
L 641.492881 65.512938 
L 641.492881 65.512938 
" clip-path="url(#pa4587bbd54)" style="fill: none; stroke: #f61067; stroke-width: 4"/>
   </g>
   <g id="matplotlib.axis_1">
    <g id="xtick_1">
     <g id="line2d_2">
      <defs>
       <path id="mfe0bde3d73" d="M 0 0 
L 0 -5 
" style="stroke: #000000"/>
      </defs>
      <g>
       <use xlink:href="#mfe0bde3d73" x="39.077119" y="67.105354" style="stroke: #000000"/>
      </g>
     </g>
     <g id="text_1">
      <!-- $0$ -->
      <g transform="translate(32.077119 91.880979) scale(0.28 -0.28)">
       <defs>
        <path id="Cmr10-30" d="M 1600 -141 
Q 816 -141 533 504 
Q 250 1150 250 2041 
Q 250 2597 351 3087 
Q 453 3578 754 3920 
Q 1056 4263 1600 4263 
Q 2022 4263 2290 4056 
Q 2559 3850 2700 3523 
Q 2841 3197 2892 2823 
Q 2944 2450 2944 2041 
Q 2944 1491 2842 1011 
Q 2741 531 2444 195 
Q 2147 -141 1600 -141 
z
M 1600 25 
Q 1956 25 2131 390 
Q 2306 756 2347 1200 
Q 2388 1644 2388 2144 
Q 2388 2625 2347 3031 
Q 2306 3438 2132 3767 
Q 1959 4097 1600 4097 
Q 1238 4097 1063 3765 
Q 888 3434 847 3029 
Q 806 2625 806 2144 
Q 806 1788 823 1472 
Q 841 1156 916 820 
Q 991 484 1158 254 
Q 1325 25 1600 25 
z
" transform="scale(0.015625)"/>
       </defs>
       <use xlink:href="#Cmr10-30" transform="translate(0 0.390625)"/>
      </g>
     </g>
    </g>
    <g id="xtick_2">
     <g id="line2d_3">
      <g>
       <use xlink:href="#mfe0bde3d73" x="189.681059" y="67.105354" style="stroke: #000000"/>
      </g>
     </g>
     <g id="text_2">
      <!-- $5$ -->
      <g transform="translate(182.681059 91.880979) scale(0.28 -0.28)">
       <defs>
        <path id="Cmr10-35" d="M 556 728 
Q 622 541 758 387 
Q 894 234 1080 148 
Q 1266 63 1466 63 
Q 1928 63 2103 422 
Q 2278 781 2278 1294 
Q 2278 1516 2270 1667 
Q 2263 1819 2228 1959 
Q 2169 2184 2020 2353 
Q 1872 2522 1656 2522 
Q 1441 2522 1286 2456 
Q 1131 2391 1034 2303 
Q 938 2216 863 2119 
Q 788 2022 769 2016 
L 697 2016 
Q 681 2016 657 2036 
Q 634 2056 634 2075 
L 634 4213 
Q 634 4228 654 4245 
Q 675 4263 697 4263 
L 716 4263 
Q 1147 4056 1631 4056 
Q 2106 4056 2547 4263 
L 2566 4263 
Q 2588 4263 2606 4247 
Q 2625 4231 2625 4213 
L 2625 4153 
Q 2625 4122 2613 4122 
Q 2394 3831 2064 3668 
Q 1734 3506 1381 3506 
Q 1125 3506 856 3578 
L 856 2369 
Q 1069 2541 1236 2614 
Q 1403 2688 1663 2688 
Q 2016 2688 2295 2484 
Q 2575 2281 2725 1954 
Q 2875 1628 2875 1288 
Q 2875 903 2686 575 
Q 2497 247 2172 53 
Q 1847 -141 1466 -141 
Q 1150 -141 886 21 
Q 622 184 470 459 
Q 319 734 319 1044 
Q 319 1188 412 1278 
Q 506 1369 647 1369 
Q 788 1369 883 1276 
Q 978 1184 978 1044 
Q 978 906 883 811 
Q 788 716 647 716 
Q 625 716 597 720 
Q 569 725 556 728 
z
" transform="scale(0.015625)"/>
       </defs>
       <use xlink:href="#Cmr10-35" transform="translate(0 0.390625)"/>
      </g>
     </g>
    </g>
    <g id="xtick_3">
     <g id="line2d_4">
      <g>
       <use xlink:href="#mfe0bde3d73" x="340.285" y="67.105354" style="stroke: #000000"/>
      </g>
     </g>
     <g id="text_3">
      <!-- $10$ -->
      <g transform="translate(326.285 91.880979) scale(0.28 -0.28)">
       <defs>
        <path id="Cmr10-31" d="M 594 0 
L 594 225 
Q 1394 225 1394 428 
L 1394 3788 
Q 1063 3628 556 3628 
L 556 3853 
Q 1341 3853 1741 4263 
L 1831 4263 
Q 1853 4263 1873 4245 
Q 1894 4228 1894 4206 
L 1894 428 
Q 1894 225 2694 225 
L 2694 0 
L 594 0 
z
" transform="scale(0.015625)"/>
       </defs>
       <use xlink:href="#Cmr10-31" transform="translate(0 0.390625)"/>
       <use xlink:href="#Cmr10-30" transform="translate(50 0.390625)"/>
      </g>
     </g>
    </g>
    <g id="xtick_4">
     <g id="line2d_5">
      <g>
       <use xlink:href="#mfe0bde3d73" x="490.888941" y="67.105354" style="stroke: #000000"/>
      </g>
     </g>
     <g id="text_4">
      <!-- $15$ -->
      <g transform="translate(476.888941 91.880979) scale(0.28 -0.28)">
       <use xlink:href="#Cmr10-31" transform="translate(0 0.390625)"/>
       <use xlink:href="#Cmr10-35" transform="translate(50 0.390625)"/>
      </g>
     </g>
    </g>
    <g id="xtick_5">
     <g id="line2d_6">
      <g>
       <use xlink:href="#mfe0bde3d73" x="641.492881" y="67.105354" style="stroke: #000000"/>
      </g>
     </g>
     <g id="text_5">
      <!-- $20$ -->
      <g transform="translate(627.492881 91.880979) scale(0.28 -0.28)">
       <defs>
        <path id="Cmr10-32" d="M 319 0 
L 319 172 
Q 319 188 331 206 
L 1325 1306 
Q 1550 1550 1690 1715 
Q 1831 1881 1968 2097 
Q 2106 2313 2186 2536 
Q 2266 2759 2266 3009 
Q 2266 3272 2169 3511 
Q 2072 3750 1880 3894 
Q 1688 4038 1416 4038 
Q 1138 4038 916 3870 
Q 694 3703 603 3438 
Q 628 3444 672 3444 
Q 816 3444 917 3347 
Q 1019 3250 1019 3097 
Q 1019 2950 917 2848 
Q 816 2747 672 2747 
Q 522 2747 420 2851 
Q 319 2956 319 3097 
Q 319 3338 409 3548 
Q 500 3759 670 3923 
Q 841 4088 1055 4175 
Q 1269 4263 1509 4263 
Q 1875 4263 2190 4108 
Q 2506 3953 2690 3670 
Q 2875 3388 2875 3009 
Q 2875 2731 2753 2481 
Q 2631 2231 2440 2026 
Q 2250 1822 1953 1562 
Q 1656 1303 1563 1216 
L 838 519 
L 1453 519 
Q 1906 519 2211 526 
Q 2516 534 2534 550 
Q 2609 631 2688 1141 
L 2875 1141 
L 2694 0 
L 319 0 
z
" transform="scale(0.015625)"/>
       </defs>
       <use xlink:href="#Cmr10-32" transform="translate(0 0.390625)"/>
       <use xlink:href="#Cmr10-30" transform="translate(50 0.390625)"/>
      </g>
     </g>
    </g>
   </g>
   <g id="matplotlib.axis_2">
    <g id="ytick_1">
     <g id="line2d_7">
      <defs>
       <path id="mef88ee9fe5" d="M 0 0 
L 5 0 
" style="stroke: #000000"/>
      </defs>
      <g>
       <use xlink:href="#mef88ee9fe5" x="21.004646" y="65.531911" style="stroke: #000000"/>
      </g>
     </g>
     <g id="text_6">
      <!-- $0$ -->
      <g transform="translate(3.504646 76.169724) scale(0.28 -0.28)">
       <use xlink:href="#Cmr10-30" transform="translate(0 0.390625)"/>
      </g>
     </g>
    </g>
    <g id="ytick_2">
     <g id="line2d_8">
      <g>
       <use xlink:href="#mef88ee9fe5" x="21.004646" y="39.29411" style="stroke: #000000"/>
      </g>
     </g>
     <g id="text_7">
      <!-- $4$ -->
      <g transform="translate(3.504646 49.931922) scale(0.28 -0.28)">
       <defs>
        <path id="Cmr10-34" d="M 178 1056 
L 178 1281 
L 2156 4231 
Q 2178 4263 2222 4263 
L 2316 4263 
Q 2388 4263 2388 4191 
L 2388 1281 
L 3016 1281 
L 3016 1056 
L 2388 1056 
L 2388 428 
Q 2388 297 2575 261 
Q 2763 225 3009 225 
L 3009 0 
L 1247 0 
L 1247 225 
Q 1494 225 1681 261 
Q 1869 297 1869 428 
L 1869 1056 
L 178 1056 
z
M 391 1281 
L 1906 1281 
L 1906 3547 
L 391 1281 
z
" transform="scale(0.015625)"/>
       </defs>
       <use xlink:href="#Cmr10-34" transform="translate(0 0.390625)"/>
      </g>
     </g>
    </g>
    <g id="ytick_3">
     <g id="line2d_9">
      <g>
       <use xlink:href="#mef88ee9fe5" x="21.004646" y="13.056308" style="stroke: #000000"/>
      </g>
     </g>
     <g id="text_8">
      <!-- $8$ -->
      <g transform="translate(3.504646 23.694121) scale(0.28 -0.28)">
       <defs>
        <path id="Cmr10-38" d="M 269 972 
Q 269 1356 522 1651 
Q 775 1947 1172 2144 
L 934 2297 
Q 716 2441 578 2680 
Q 441 2919 441 3181 
Q 441 3488 602 3734 
Q 763 3981 1030 4122 
Q 1297 4263 1600 4263 
Q 1884 4263 2148 4147 
Q 2413 4031 2583 3815 
Q 2753 3600 2753 3303 
Q 2753 3088 2651 2903 
Q 2550 2719 2373 2572 
Q 2197 2425 1997 2322 
L 2363 2088 
Q 2616 1922 2770 1653 
Q 2925 1384 2925 1088 
Q 2925 741 2739 456 
Q 2553 172 2247 15 
Q 1941 -141 1600 -141 
Q 1269 -141 961 -6 
Q 653 128 461 383 
Q 269 638 269 972 
z
M 616 972 
Q 616 719 755 509 
Q 894 300 1122 181 
Q 1350 63 1600 63 
Q 1972 63 2275 280 
Q 2578 497 2578 856 
Q 2578 978 2529 1098 
Q 2481 1219 2395 1317 
Q 2309 1416 2203 1478 
L 1344 2034 
Q 1144 1928 976 1765 
Q 809 1603 712 1400 
Q 616 1197 616 972 
z
M 1056 2925 
L 1831 2425 
Q 2100 2581 2272 2803 
Q 2444 3025 2444 3303 
Q 2444 3519 2323 3698 
Q 2203 3878 2009 3978 
Q 1816 4078 1594 4078 
Q 1400 4078 1203 4003 
Q 1006 3928 878 3779 
Q 750 3631 750 3431 
Q 750 3131 1056 2925 
z
" transform="scale(0.015625)"/>
       </defs>
       <use xlink:href="#Cmr10-38" transform="translate(0 0.390625)"/>
      </g>
     </g>
    </g>
   </g>
   <g id="patch_3">
    <path d="M 21.004646 67.105354 
L 21.004646 11.604935 
" style="fill: none; stroke: #000000; stroke-width: 2; stroke-linejoin: miter; stroke-linecap: square"/>
   </g>
   <g id="patch_4">
    <path d="M 21.004646 67.105354 
L 659.565354 67.105354 
" style="fill: none; stroke: #000000; stroke-width: 2; stroke-linejoin: miter; stroke-linecap: square"/>
   </g>
  </g>
 </g>
 <defs>
  <clipPath id="pa4587bbd54">
   <rect x="21.004646" y="11.604935" width="638.560709" height="55.50042"/>
  </clipPath>
 </defs>
</svg>
