<?xml version="1.0" encoding="utf-8" standalone="no"?>
<!DOCTYPE svg PUBLIC "-//W3C//DTD SVG 1.1//EN"
  "http://www.w3.org/Graphics/SVG/1.1/DTD/svg11.dtd">
<svg xmlns:xlink="http://www.w3.org/1999/xlink" width="835.2pt" height="100.8pt" viewBox="0 0 835.2 100.8" xmlns="http://www.w3.org/2000/svg" version="1.1">
 <metadata>
  <rdf:RDF xmlns:dc="http://purl.org/dc/elements/1.1/" xmlns:cc="http://creativecommons.org/ns#" xmlns:rdf="http://www.w3.org/1999/02/22-rdf-syntax-ns#">
   <cc:Work>
    <dc:type rdf:resource="http://purl.org/dc/dcmitype/StillImage"/>
    <dc:date>2024-08-16T15:10:58.134705</dc:date>
    <dc:format>image/svg+xml</dc:format>
    <dc:creator>
     <cc:Agent>
      <dc:title>Matplotlib v3.8.4, https://matplotlib.org/</dc:title>
     </cc:Agent>
    </dc:creator>
   </cc:Work>
  </rdf:RDF>
 </metadata>
 <defs>
  <style type="text/css">*{stroke-linejoin: round; stroke-linecap: butt}</style>
 </defs>
 <g id="figure_1">
  <g id="patch_1">
   <path d="M 0 100.8 
L 835.2 100.8 
L 835.2 0 
L 0 0 
L 0 100.8 
z
" style="fill: none"/>
  </g>
  <g id="axes_1">
   <g id="patch_2">
    <path d="M 41.316477 83.601959 
L 832.365354 83.601959 
L 832.365354 11.438039 
L 41.316477 11.438039 
L 41.316477 83.601959 
z
" style="fill: none"/>
   </g>
   <g id="line2d_1">
    <path d="M 63.704653 37.050977 
L 75.645013 55.816416 
L 78.630103 60.127592 
L 81.615193 64.148263 
L 84.600283 67.827768 
L 87.585373 71.124951 
L 90.570463 74.00712 
L 93.555554 76.448861 
L 96.540644 78.430734 
L 99.525734 79.937916 
L 101.018279 80.509804 
L 102.510824 80.9589 
L 104.003369 81.284116 
L 105.495914 81.484475 
L 106.988459 81.559126 
L 108.481004 81.507372 
L 109.973549 81.328731 
L 111.466094 81.023005 
L 112.958639 80.590374 
L 114.451184 80.031488 
L 115.943729 79.347559 
L 118.928819 77.612631 
L 121.91391 75.408666 
L 124.899 72.769821 
L 127.88409 69.740309 
L 130.86918 66.372571 
L 133.85427 62.725191 
L 138.331905 56.867586 
L 154.749901 34.727024 
L 157.734991 31.110101 
L 160.720081 27.747443 
L 163.705171 24.679387 
L 166.690261 21.940218 
L 169.675351 19.557933 
L 172.660441 17.554119 
L 175.645531 15.943933 
L 178.630622 14.736185 
L 181.615712 13.933521 
L 184.600802 13.532688 
L 186.093347 13.480414 
L 187.585892 13.622764 
L 189.078437 14.06506 
L 190.570982 14.794525 
L 192.063527 15.796223 
L 193.556072 17.053487 
L 195.048617 18.548203 
L 196.541162 20.261081 
L 199.526252 24.25981 
L 202.511342 28.881339 
L 205.496432 33.953684 
L 211.466613 44.780558 
L 217.436793 55.498812 
L 220.421883 60.488959 
L 223.406973 65.091846 
L 226.392063 69.223945 
L 229.377153 72.819446 
L 232.362243 75.829404 
L 233.854788 77.103807 
L 235.347333 78.220436 
L 236.839879 79.177276 
L 238.332424 79.973064 
L 239.824969 80.607224 
L 241.317514 81.079802 
L 242.810059 81.391403 
L 244.302604 81.543131 
L 245.795149 81.536539 
L 247.287694 81.373582 
L 248.780239 81.056592 
L 250.272784 80.588268 
L 251.765329 79.971683 
L 253.257874 79.210321 
L 254.750419 78.308127 
L 257.735509 76.099748 
L 260.720599 73.389883 
L 263.705689 70.232867 
L 266.69078 66.693884 
L 269.67587 62.847005 
L 274.153505 56.674747 
L 286.093865 39.767373 
L 290.5715 33.945619 
L 293.556591 30.375666 
L 296.541681 27.10216 
L 299.526771 24.155738 
L 302.511861 21.558404 
L 305.496951 19.324032 
L 308.482041 17.459036 
L 311.467131 15.963158 
L 314.452221 14.830334 
L 317.437311 14.049612 
L 320.422401 13.606068 
L 323.407492 13.485293 
L 324.900037 13.670371 
L 326.392582 14.114787 
L 327.885127 14.80633 
L 329.377672 15.731348 
L 330.870217 16.874992 
L 332.362762 18.221439 
L 333.855307 19.754114 
L 336.840397 23.30932 
L 339.825487 27.400526 
L 342.810577 31.887507 
L 347.288212 39.065225 
L 356.243483 53.556299 
L 360.721118 60.214242 
L 363.706208 64.267918 
L 366.691298 67.953967 
L 369.676388 71.234901 
L 372.661478 74.083904 
L 375.646568 76.483266 
L 378.631658 78.422684 
L 381.616749 79.89749 
L 384.601839 80.906895 
L 386.094384 81.237487 
L 387.586929 81.452394 
L 389.079474 81.551966 
L 390.572019 81.536591 
L 392.064564 81.406706 
L 393.557109 81.16284 
L 396.542199 80.336057 
L 399.527289 79.064694 
L 402.512379 77.36318 
L 405.497469 75.253771 
L 408.48256 72.767058 
L 411.46765 69.941203 
L 414.45274 66.820417 
L 418.930375 61.693162 
L 423.40801 56.185723 
L 439.826006 35.544282 
L 444.303641 30.492217 
L 447.288731 27.395918 
L 450.273821 24.554791 
L 453.258911 21.996779 
L 456.244001 19.745719 
L 459.229091 17.821231 
L 462.214181 16.238638 
L 465.199272 15.008916 
L 468.184362 14.138683 
L 471.169452 13.630228 
L 474.154542 13.484455 
L 475.647087 13.679121 
L 477.139632 14.157292 
L 478.632177 14.906418 
L 480.124722 15.912223 
L 481.617267 17.158958 
L 483.109812 18.629648 
L 484.602357 20.30632 
L 487.587447 24.202094 
L 490.572537 28.690855 
L 493.557628 33.614293 
L 498.035263 41.474979 
L 505.497988 54.653734 
L 508.483078 59.588388 
L 511.468168 64.175642 
L 514.453258 68.33335 
L 517.438348 71.994667 
L 520.423438 75.107394 
L 521.915983 76.445477 
L 523.408529 77.632931 
L 524.901074 78.666832 
L 526.393619 79.544924 
L 527.886164 80.265569 
L 529.378709 80.827688 
L 530.871254 81.230716 
L 532.363799 81.474557 
L 533.856344 81.559548 
L 535.348889 81.486433 
L 536.841434 81.256366 
L 538.333979 80.870916 
L 539.826524 80.332115 
L 541.319069 79.642508 
L 542.811614 78.805235 
L 544.304159 77.824108 
L 547.289249 75.449326 
L 550.274339 72.564406 
L 553.25943 69.22857 
L 556.24452 65.512461 
L 560.722155 59.399951 
L 566.692335 50.691492 
L 574.15506 39.845522 
L 578.632695 33.804511 
L 581.617786 30.099156 
L 584.602876 26.707345 
L 587.587966 23.666493 
L 590.573056 21.004653 
L 593.558146 18.740788 
L 596.543236 16.88524 
L 599.528326 15.440366 
L 602.513416 14.401309 
L 605.498506 13.75685 
L 608.483597 13.490338 
L 609.976142 13.520725 
L 611.468687 13.817403 
L 612.961232 14.392162 
L 614.453777 15.231257 
L 615.946322 16.319266 
L 617.438867 17.639364 
L 618.931412 19.173579 
L 620.423957 20.903054 
L 623.409047 24.869364 
L 626.394137 29.378567 
L 630.871772 36.811822 
L 641.319588 54.742917 
L 644.304678 59.469974 
L 647.289768 63.850125 
L 650.274858 67.817769 
L 653.259948 71.323462 
L 656.245038 74.33264 
L 659.230128 76.823977 
L 662.215218 78.787472 
L 663.707763 79.570742 
L 665.200308 80.222373 
L 666.692854 80.743361 
L 668.185399 81.13501 
L 669.677944 81.398871 
L 671.170489 81.536684 
L 672.663034 81.550331 
L 674.155579 81.441798 
L 675.648124 81.213155 
L 677.140669 80.866552 
L 680.125759 79.828601 
L 683.110849 78.347932 
L 686.095939 76.448738 
L 689.081029 74.161386 
L 692.066119 71.523391 
L 695.05121 68.578945 
L 698.0363 65.377324 
L 702.513935 60.207431 
L 708.484115 52.906505 
L 717.439385 41.886784 
L 721.91702 36.662303 
L 726.394656 31.78882 
L 729.379746 28.78327 
L 732.364836 26.001128 
L 735.349926 23.463167 
L 738.335016 21.187013 
L 741.320106 19.187336 
L 744.305196 17.476028 
L 747.290286 16.062333 
L 750.275376 14.952968 
L 753.260467 14.152195 
L 756.245557 13.661869 
L 759.230647 13.481465 
L 760.723192 13.573595 
L 762.215737 13.928598 
L 763.708282 14.538412 
L 765.200827 15.390591 
L 766.693372 16.471407 
L 768.185917 17.766049 
L 769.678462 19.258829 
L 772.663552 22.772787 
L 775.648642 26.877134 
L 778.633732 31.43262 
L 783.111368 38.81114 
L 793.559183 56.371415 
L 796.544273 60.989538 
L 799.529363 65.269494 
L 802.514453 69.143663 
L 805.499543 72.556377 
L 808.484633 75.46317 
L 809.977179 76.715765 
L 809.977179 76.715765 
" clip-path="url(#p943afd1443)" style="fill: none; stroke: #2477d0; stroke-opacity: 0.33; stroke-width: 4"/>
   </g>
   <g id="matplotlib.axis_1">
    <g id="xtick_1"/>
    <g id="xtick_2"/>
    <g id="xtick_3"/>
    <g id="xtick_4"/>
    <g id="xtick_5"/>
    <g id="xtick_6"/>
   </g>
   <g id="matplotlib.axis_2">
    <g id="ytick_1">
     <g id="line2d_2">
      <defs>
       <path id="mcdad798f53" d="M 0 0 
L 5 0 
" style="stroke: #000000"/>
      </defs>
      <g>
       <use xlink:href="#mcdad798f53" x="41.316477" y="81.559653" style="stroke: #000000"/>
      </g>
     </g>
     <g id="text_1">
      <!-- $-1$ -->
      <g transform="translate(1.976477 92.197466) scale(0.28 -0.28)">
       <defs>
        <path id="Cmsy10-a1" d="M 653 1472 
Q 600 1472 565 1512 
Q 531 1553 531 1600 
Q 531 1647 565 1687 
Q 600 1728 653 1728 
L 4325 1728 
Q 4375 1728 4408 1687 
Q 4441 1647 4441 1600 
Q 4441 1553 4408 1512 
Q 4375 1472 4325 1472 
L 653 1472 
z
" transform="scale(0.015625)"/>
        <path id="Cmr10-31" d="M 594 0 
L 594 225 
Q 1394 225 1394 428 
L 1394 3788 
Q 1063 3628 556 3628 
L 556 3853 
Q 1341 3853 1741 4263 
L 1831 4263 
Q 1853 4263 1873 4245 
Q 1894 4228 1894 4206 
L 1894 428 
Q 1894 225 2694 225 
L 2694 0 
L 594 0 
z
" transform="scale(0.015625)"/>
       </defs>
       <use xlink:href="#Cmsy10-a1" transform="translate(0 0.390625)"/>
       <use xlink:href="#Cmr10-31" transform="translate(77.685547 0.390625)"/>
      </g>
     </g>
    </g>
    <g id="ytick_2">
     <g id="line2d_3">
      <g>
       <use xlink:href="#mcdad798f53" x="41.316477" y="47.52" style="stroke: #000000"/>
      </g>
     </g>
     <g id="text_2">
      <!-- $0$ -->
      <g transform="translate(23.816477 58.157812) scale(0.28 -0.28)">
       <defs>
        <path id="Cmr10-30" d="M 1600 -141 
Q 816 -141 533 504 
Q 250 1150 250 2041 
Q 250 2597 351 3087 
Q 453 3578 754 3920 
Q 1056 4263 1600 4263 
Q 2022 4263 2290 4056 
Q 2559 3850 2700 3523 
Q 2841 3197 2892 2823 
Q 2944 2450 2944 2041 
Q 2944 1491 2842 1011 
Q 2741 531 2444 195 
Q 2147 -141 1600 -141 
z
M 1600 25 
Q 1956 25 2131 390 
Q 2306 756 2347 1200 
Q 2388 1644 2388 2144 
Q 2388 2625 2347 3031 
Q 2306 3438 2132 3767 
Q 1959 4097 1600 4097 
Q 1238 4097 1063 3765 
Q 888 3434 847 3029 
Q 806 2625 806 2144 
Q 806 1788 823 1472 
Q 841 1156 916 820 
Q 991 484 1158 254 
Q 1325 25 1600 25 
z
" transform="scale(0.015625)"/>
       </defs>
       <use xlink:href="#Cmr10-30" transform="translate(0 0.390625)"/>
      </g>
     </g>
    </g>
    <g id="ytick_3">
     <g id="line2d_4">
      <g>
       <use xlink:href="#mcdad798f53" x="41.316477" y="13.480347" style="stroke: #000000"/>
      </g>
     </g>
     <g id="text_3">
      <!-- $1$ -->
      <g transform="translate(23.816477 24.118159) scale(0.28 -0.28)">
       <use xlink:href="#Cmr10-31" transform="translate(0 0.390625)"/>
      </g>
     </g>
    </g>
   </g>
   <g id="line2d_5">
    <path d="M 63.704653 32.542113 
L 68.182288 39.561509 
L 77.137558 53.758834 
L 81.615193 60.336399 
L 84.600283 64.367498 
L 87.585373 68.053289 
L 90.570463 71.351168 
L 93.555554 74.226956 
L 96.540644 76.65377 
L 99.525734 78.610766 
L 102.510824 80.081831 
L 104.003369 80.631089 
L 105.495914 81.05435 
L 106.988459 81.35043 
L 108.481004 81.518288 
L 109.973549 81.557039 
L 111.466094 81.465997 
L 112.958639 81.244739 
L 114.451184 80.893183 
L 115.943729 80.411682 
L 117.436274 79.80112 
L 118.928819 79.062999 
L 121.91391 77.213541 
L 124.899 74.889549 
L 127.88409 72.128728 
L 130.86918 68.978976 
L 133.85427 65.496383 
L 138.331905 59.785305 
L 144.302085 51.611942 
L 153.257356 39.246129 
L 157.734991 33.473567 
L 160.720081 29.902942 
L 163.705171 26.608275 
L 166.690261 23.628676 
L 169.675351 20.996708 
L 172.660441 18.738202 
L 175.645531 16.872196 
L 178.630622 15.410993 
L 181.615712 14.360323 
L 184.600802 13.719606 
L 187.585892 13.482307 
L 189.078437 13.579256 
L 190.570982 13.975288 
L 192.063527 14.662075 
L 193.556072 15.624887 
L 195.048617 16.847198 
L 196.541162 18.310967 
L 198.033707 19.996916 
L 199.526252 21.884798 
L 202.511342 26.182011 
L 205.496432 31.030458 
L 209.974068 38.95938 
L 218.929338 55.197814 
L 221.914428 60.214595 
L 224.899518 64.847006 
L 227.884608 69.010403 
L 230.869698 72.638187 
L 233.854788 75.680966 
L 235.347333 76.971932 
L 236.839879 78.105236 
L 238.332424 79.078897 
L 239.824969 79.8917 
L 241.317514 80.543135 
L 242.810059 81.033324 
L 244.302604 81.362965 
L 245.795149 81.533259 
L 247.287694 81.545864 
L 248.780239 81.402837 
L 250.272784 81.106607 
L 251.765329 80.659955 
L 253.257874 80.066013 
L 254.750419 79.328292 
L 256.242964 78.450726 
L 259.228054 76.294292 
L 262.213144 73.639071 
L 265.198235 70.537866 
L 268.183325 67.05407 
L 271.168415 63.259975 
L 275.64605 57.158922 
L 289.078955 38.375367 
L 293.556591 32.727413 
L 296.541681 29.287622 
L 299.526771 26.150324 
L 302.511861 23.341871 
L 305.496951 20.880415 
L 308.482041 18.776497 
L 311.467131 17.033784 
L 314.452221 15.649888 
L 317.437311 14.617255 
L 320.422401 13.924061 
L 323.407492 13.55511 
L 326.392582 13.525446 
L 327.885127 13.809076 
L 329.377672 14.343637 
L 330.870217 15.116543 
L 332.362762 16.113913 
L 333.855307 17.320804 
L 335.347852 18.721427 
L 338.332942 22.037705 
L 341.318032 25.92707 
L 344.303122 30.252252 
L 348.780757 37.265523 
L 359.228573 54.014784 
L 363.706208 60.579255 
L 366.691298 64.572856 
L 369.676388 68.203266 
L 372.661478 71.434412 
L 375.646568 74.240142 
L 378.631658 76.602713 
L 381.616749 78.51114 
L 384.601839 79.95951 
L 387.586929 80.945317 
L 389.079474 81.264539 
L 390.572019 81.467999 
L 392.064564 81.555769 
L 393.557109 81.52797 
L 395.049654 81.384792 
L 396.542199 81.126545 
L 399.527289 80.267084 
L 402.512379 78.957217 
L 405.497469 77.211326 
L 408.48256 75.052213 
L 411.46765 72.511376 
L 414.45274 69.628073 
L 417.43783 66.447734 
L 421.915465 61.23014 
L 426.3931 55.635627 
L 441.318551 36.574324 
L 445.796186 31.373061 
L 448.781276 28.172026 
L 451.766366 25.225055 
L 454.751456 22.562466 
L 457.736546 20.210169 
L 460.721636 18.189518 
L 463.706726 16.517216 
L 466.691817 15.20526 
L 469.676907 14.260938 
L 472.661997 13.686869 
L 475.647087 13.481102 
L 477.139632 13.592583 
L 478.632177 13.992105 
L 480.124722 14.669278 
L 481.617267 15.610126 
L 483.109812 16.799085 
L 484.602357 18.219255 
L 486.094902 19.852646 
L 489.079992 23.68307 
L 492.065082 28.133203 
L 495.050173 33.042078 
L 499.527808 40.918743 
L 506.990533 54.194199 
L 509.975623 59.181539 
L 512.960713 63.824707 
L 515.945803 68.038979 
L 518.930893 71.75545 
L 521.915983 74.92041 
L 523.408529 76.283195 
L 524.901074 77.494306 
L 526.393619 78.550783 
L 527.886164 79.45037 
L 529.378709 80.191452 
L 530.871254 80.773006 
L 532.363799 81.194549 
L 533.856344 81.456084 
L 535.348889 81.558064 
L 536.841434 81.50136 
L 538.333979 81.287251 
L 539.826524 80.917428 
L 541.319069 80.394021 
L 542.811614 79.719654 
L 544.304159 78.897511 
L 545.796704 77.931413 
L 548.781794 75.586259 
L 551.766885 72.72995 
L 554.751975 69.421037 
L 557.737065 65.72954 
L 560.722155 61.734165 
L 565.19979 55.35563 
L 575.647605 40.144643 
L 580.125241 34.103886 
L 583.110331 30.393457 
L 586.095421 26.992032 
L 589.080511 23.936717 
L 592.065601 21.255276 
L 595.050691 18.966424 
L 598.035781 17.080329 
L 601.020871 15.599273 
L 604.005961 14.518436 
L 606.991051 13.826779 
L 609.976142 13.507973 
L 611.468687 13.486231 
L 612.961232 13.68767 
L 614.453777 14.167408 
L 615.946322 14.912442 
L 617.438867 15.908061 
L 618.931412 17.138107 
L 620.423957 18.585242 
L 621.916502 20.231196 
L 624.901592 24.043249 
L 627.886682 28.418285 
L 630.871772 33.199352 
L 636.841953 43.378995 
L 642.812133 53.490073 
L 645.797223 58.239593 
L 648.782313 62.668084 
L 651.767403 66.708482 
L 654.752493 70.309528 
L 657.737583 73.43457 
L 660.722673 76.06 
L 663.707763 78.173418 
L 665.200308 79.036821 
L 666.692854 79.771627 
L 668.185399 80.378527 
L 669.677944 80.858527 
L 671.170489 81.212881 
L 672.663034 81.443036 
L 674.155579 81.550581 
L 675.648124 81.537208 
L 677.140669 81.404682 
L 678.633214 81.154834 
L 681.618304 80.310913 
L 684.603394 79.022314 
L 687.588484 77.309549 
L 690.573574 75.198859 
L 693.558664 72.723552 
L 696.543755 69.923933 
L 699.528845 66.846011 
L 704.00648 61.816849 
L 709.97666 54.613291 
L 721.91702 39.970298 
L 726.394656 34.840654 
L 730.872291 30.093506 
L 733.857381 27.188449 
L 736.842471 24.519326 
L 739.827561 22.106691 
L 742.812651 19.968032 
L 745.797741 18.117891 
L 748.782831 16.567941 
L 751.767922 15.327062 
L 754.753012 14.401378 
L 757.738102 13.794283 
L 760.723192 13.506455 
L 762.215737 13.48522 
L 763.708282 13.673548 
L 765.200827 14.127735 
L 766.693372 14.836103 
L 768.185917 15.785501 
L 769.678462 16.961522 
L 771.171007 18.348713 
L 772.663552 19.930777 
L 775.648642 23.611273 
L 778.633732 27.862799 
L 781.618823 32.542718 
L 786.096458 40.059545 
L 795.051728 55.292602 
L 798.036818 60.020013 
L 801.021908 64.419251 
L 804.006998 68.417818 
L 806.992088 71.955847 
L 809.977179 74.985418 
L 809.977179 74.985418 
" clip-path="url(#p943afd1443)" style="fill: none; stroke: #2477d0; stroke-opacity: 0.66; stroke-width: 4"/>
   </g>
   <g id="patch_3">
    <path d="M 41.316477 83.601959 
L 41.316477 11.438039 
" style="fill: none; stroke: #000000; stroke-width: 2; stroke-linejoin: miter; stroke-linecap: square"/>
   </g>
   <g id="line2d_6">
    <path d="M 63.704653 32.10092 
L 68.182288 39.099753 
L 77.137558 53.323464 
L 81.615193 59.940312 
L 84.600283 64.004524 
L 87.585373 67.727638 
L 90.570463 71.065998 
L 93.555554 73.984485 
L 96.540644 76.455398 
L 99.525734 78.457218 
L 102.510824 79.973305 
L 104.003369 80.545022 
L 105.495914 80.990653 
L 106.988459 81.30898 
L 108.481004 81.49893 
L 109.973549 81.559584 
L 111.466094 81.490216 
L 112.958639 81.290354 
L 114.451184 80.959854 
L 115.943729 80.498996 
L 117.436274 79.908578 
L 118.928819 79.190002 
L 121.91391 77.377428 
L 124.899 75.086688 
L 127.88409 72.354757 
L 130.86918 69.228986 
L 133.85427 65.765126 
L 138.331905 60.072046 
L 144.302085 51.904374 
L 153.257356 39.512976 
L 157.734991 33.715537 
L 160.720081 30.125004 
L 163.705171 26.808366 
L 166.690261 23.805227 
L 169.675351 21.148618 
L 172.660441 18.864808 
L 175.645531 16.973243 
L 178.630622 15.486589 
L 181.615712 14.410901 
L 184.600802 13.745882 
L 187.585892 13.485241 
L 189.078437 13.552772 
L 190.570982 13.91437 
L 192.063527 14.56842 
L 193.556072 15.500408 
L 195.048617 16.693993 
L 196.541162 18.13128 
L 198.033707 19.79311 
L 199.526252 21.659316 
L 202.511342 25.920704 
L 205.496432 30.743418 
L 209.974068 38.652045 
L 218.929338 54.907261 
L 221.914428 59.943213 
L 224.899518 64.59986 
L 227.884608 68.791534 
L 230.869698 72.450673 
L 233.854788 75.527008 
L 235.347333 76.835332 
L 236.839879 77.986263 
L 238.332424 78.977743 
L 239.824969 79.808488 
L 241.317514 80.477926 
L 242.810059 80.986125 
L 244.302604 81.333737 
L 245.795149 81.521924 
L 247.287694 81.55231 
L 248.780239 81.426923 
L 250.272784 81.148167 
L 251.765329 80.718792 
L 253.257874 80.141901 
L 254.750419 79.420969 
L 256.242964 78.559884 
L 259.228054 76.435239 
L 262.213144 73.809739 
L 265.198235 70.735485 
L 268.183325 67.275175 
L 271.168415 63.500524 
L 275.64605 57.420251 
L 289.078955 38.637679 
L 293.556591 32.972052 
L 296.541681 29.516543 
L 299.526771 26.360879 
L 302.511861 23.531851 
L 305.496951 21.048041 
L 308.482041 18.920414 
L 311.467131 17.15304 
L 314.452221 15.743912 
L 317.437311 14.685828 
L 320.422401 13.96729 
L 323.407492 13.573395 
L 326.392582 13.503562 
L 327.885127 13.744418 
L 329.377672 14.237768 
L 330.870217 14.971279 
L 332.362762 15.931295 
L 333.855307 17.103064 
L 335.347852 18.470954 
L 336.840397 20.018665 
L 339.825487 23.586169 
L 342.810577 27.668931 
L 345.795667 32.130801 
L 350.273303 39.249237 
L 359.228573 53.596241 
L 363.706208 60.192972 
L 366.691298 64.21537 
L 369.676388 67.87922 
L 372.661478 71.147484 
L 375.646568 73.993117 
L 378.631658 76.397577 
L 381.616749 78.349193 
L 384.601839 79.841482 
L 387.586929 80.871489 
L 389.079474 81.212806 
L 390.572019 81.438307 
L 392.064564 81.54803 
L 393.557109 81.542058 
L 395.049654 81.420542 
L 396.542199 81.183742 
L 398.034744 80.832093 
L 401.019834 79.787337 
L 404.004924 78.296305 
L 406.990014 76.376666 
L 409.975105 74.054841 
L 412.960195 71.36572 
L 415.945285 68.351378 
L 418.930375 65.059376 
L 423.40801 59.71367 
L 429.37819 52.108296 
L 439.826006 38.684353 
L 444.303641 33.320647 
L 448.781276 28.402206 
L 451.766366 25.43147 
L 454.751456 22.743835 
L 457.736546 20.365637 
L 460.721636 18.318633 
L 463.706726 16.619894 
L 466.691817 15.281753 
L 469.676907 14.311793 
L 472.661997 13.712897 
L 475.647087 13.483336 
L 477.139632 13.562308 
L 478.632177 13.925849 
L 480.124722 14.568967 
L 481.617267 15.477889 
L 483.109812 16.637218 
L 484.602357 18.030184 
L 486.094902 19.638897 
L 487.587447 21.444576 
L 490.572537 25.568604 
L 493.557628 30.242449 
L 498.035263 37.932622 
L 508.483078 56.434412 
L 511.468168 61.283444 
L 514.453258 65.748383 
L 517.438348 69.751451 
L 520.423438 73.230516 
L 523.408529 76.138275 
L 524.901074 77.366898 
L 526.393619 78.441052 
L 527.886164 79.358413 
L 529.378709 80.117307 
L 530.871254 80.71666 
L 532.363799 81.155946 
L 533.856344 81.435131 
L 535.348889 81.554637 
L 536.841434 81.515306 
L 538.333979 81.318391 
L 539.826524 80.96555 
L 541.319069 80.458882 
L 542.811614 79.800964 
L 544.304159 78.994927 
L 545.796704 78.044526 
L 548.781794 75.729226 
L 551.766885 72.900134 
L 554.751975 69.615104 
L 557.737065 65.943569 
L 560.722155 61.963822 
L 565.19979 55.600163 
L 577.14015 38.312697 
L 581.617786 32.429963 
L 584.602876 28.852758 
L 587.587966 25.601909 
L 590.573056 22.710265 
L 593.558146 20.20144 
L 596.543236 18.090214 
L 599.528326 16.383105 
L 602.513416 15.079099 
L 605.498506 14.17048 
L 608.483597 13.643741 
L 611.468687 13.480997 
L 612.961232 13.643946 
L 614.453777 14.0864 
L 615.946322 14.795622 
L 617.438867 15.757134 
L 618.931412 16.954982 
L 620.423957 18.372001 
L 621.916502 19.990064 
L 624.901592 23.75345 
L 627.886682 28.089767 
L 630.871772 32.842286 
L 636.841953 42.994624 
L 642.812133 53.114501 
L 645.797223 57.879988 
L 648.782313 62.33092 
L 651.767403 66.399265 
L 654.752493 70.032807 
L 657.737583 73.193977 
L 660.722673 75.858315 
L 663.707763 78.012655 
L 666.692854 79.65313 
L 668.185399 80.281489 
L 669.677944 80.783081 
L 671.170489 81.159109 
L 672.663034 81.410973 
L 674.155579 81.540219 
L 675.648124 81.548498 
L 677.140669 81.437541 
L 678.633214 81.209138 
L 681.618304 80.407559 
L 684.603394 79.160198 
L 687.588484 77.486971 
L 690.573574 75.413382 
L 693.558664 72.971952 
L 696.543755 70.202266 
L 699.528845 67.149757 
L 704.00648 62.149418 
L 709.97666 54.966189 
L 721.91702 40.305609 
L 726.394656 35.152611 
L 730.872291 30.375185 
L 733.857381 27.446862 
L 736.842471 24.752547 
L 739.827561 22.313241 
L 742.812651 20.146866 
L 745.797741 18.26837 
L 748.782831 16.689812 
L 751.767922 15.420421 
L 754.753012 14.466642 
L 757.738102 13.832154 
L 760.723192 13.517888 
L 762.215737 13.48045 
L 763.708282 13.62541 
L 765.200827 14.038333 
L 766.693372 14.707781 
L 768.185917 15.620803 
L 769.678462 16.763152 
L 771.171007 18.119497 
L 772.663552 19.673631 
L 775.648642 23.307199 
L 778.633732 27.523737 
L 781.618823 32.180297 
L 786.096458 39.682439 
L 795.051728 54.947159 
L 798.036818 59.698981 
L 801.021908 64.127583 
L 804.006998 68.159353 
L 806.992088 71.733394 
L 809.977179 74.800875 
L 809.977179 74.800875 
" clip-path="url(#p943afd1443)" style="fill: none; stroke: #2477d0; stroke-opacity: 0.99; stroke-width: 4"/>
   </g>
  </g>
 </g>
 <defs>
  <clipPath id="p943afd1443">
   <rect x="41.316477" y="11.438039" width="791.048878" height="72.16392"/>
  </clipPath>
 </defs>
</svg>
