<?xml version="1.0" encoding="utf-8" standalone="no"?>
<!DOCTYPE svg PUBLIC "-//W3C//DTD SVG 1.1//EN"
  "http://www.w3.org/Graphics/SVG/1.1/DTD/svg11.dtd">
<svg xmlns:xlink="http://www.w3.org/1999/xlink" width="720pt" height="181.44pt" viewBox="0 0 720 181.44" xmlns="http://www.w3.org/2000/svg" version="1.1">
 <metadata>
  <rdf:RDF xmlns:dc="http://purl.org/dc/elements/1.1/" xmlns:cc="http://creativecommons.org/ns#" xmlns:rdf="http://www.w3.org/1999/02/22-rdf-syntax-ns#">
   <cc:Work>
    <dc:type rdf:resource="http://purl.org/dc/dcmitype/StillImage"/>
    <dc:date>2024-08-16T15:11:13.097832</dc:date>
    <dc:format>image/svg+xml</dc:format>
    <dc:creator>
     <cc:Agent>
      <dc:title>Matplotlib v3.8.4, https://matplotlib.org/</dc:title>
     </cc:Agent>
    </dc:creator>
   </cc:Work>
  </rdf:RDF>
 </metadata>
 <defs>
  <style type="text/css">*{stroke-linejoin: round; stroke-linecap: butt}</style>
 </defs>
 <g id="figure_1">
  <g id="patch_1">
   <path d="M 0 181.44 
L 720 181.44 
L 720 0 
L 0 0 
L 0 181.44 
z
" style="fill: none"/>
  </g>
  <g id="axes_1">
   <g id="patch_2">
    <path d="M 64.170808 165.999376 
L 717.165354 165.999376 
L 717.165354 2.834646 
L 64.170808 2.834646 
L 64.170808 165.999376 
z
" style="fill: none"/>
   </g>
   <g id="line2d_1">
    <path d="M 82.651786 47.672709 
L 82.959802 47.784898 
L 83.29862 48.166911 
L 83.729843 49.041939 
L 84.25347 50.6802 
L 84.869503 53.390585 
L 85.608742 57.699354 
L 86.501989 64.302868 
L 87.610848 74.310405 
L 89.027723 89.302145 
L 91.122234 114.015337 
L 93.370753 140.508609 
L 94.387206 149.802264 
L 95.21885 155.484915 
L 95.896486 158.727548 
L 96.450916 160.429999 
L 96.882138 161.161701 
L 97.220956 161.376236 
L 97.498171 161.318996 
L 97.806187 161.013631 
L 98.206608 160.244397 
L 98.699435 158.738581 
L 99.284665 156.188099 
L 100.023905 151.87038 
L 100.917152 145.202809 
L 102.026011 135.104224 
L 103.53529 119.086333 
L 107.970725 70.636193 
L 109.141187 60.858348 
L 110.065236 54.825386 
L 110.835277 51.114301 
L 111.482111 48.99718 
L 111.974937 48.032271 
L 112.344556 47.703201 
L 112.652573 47.708187 
L 112.929787 47.945229 
L 113.268605 48.553084 
L 113.699828 49.860318 
L 114.223456 52.27717 
L 114.839488 56.267004 
L 115.609529 62.837607 
L 116.595181 73.31157 
L 118.042858 91.346787 
L 121.246227 131.837302 
L 122.447491 143.970421 
L 123.402341 151.57398 
L 124.203184 156.353973 
L 124.88082 159.182642 
L 125.435249 160.642455 
L 125.866472 161.240778 
L 126.20529 161.381484 
L 126.513306 161.259444 
L 126.852124 160.85304 
L 127.283347 159.929962 
L 127.806974 158.213517 
L 128.453809 155.228471 
L 129.223849 150.509416 
L 130.147898 143.344689 
L 131.287559 132.62145 
L 132.82764 115.788123 
L 136.893455 70.225673 
L 138.033115 60.414229 
L 138.957164 54.275894 
L 139.696403 50.728727 
L 140.312436 48.780783 
L 140.77446 47.94771 
L 141.14408 47.68179 
L 141.421295 47.726497 
L 141.729311 48.034997 
L 142.098931 48.786014 
L 142.530153 50.217827 
L 143.053781 52.792046 
L 143.700615 57.225583 
L 144.501458 64.460988 
L 145.517911 75.852269 
L 147.088795 96.333057 
L 149.768536 131.224586 
L 150.9698 143.915319 
L 151.92465 151.823223 
L 152.725493 156.719769 
L 153.372327 159.428304 
L 153.895955 160.775673 
L 154.296376 161.288815 
L 154.604392 161.377939 
L 154.881607 161.231812 
L 155.220425 160.764325 
L 155.651648 159.71617 
L 156.175275 157.777745 
L 156.822109 154.417066 
L 157.59215 149.118264 
L 158.516199 141.102146 
L 159.686661 128.833288 
L 161.380751 108.404058 
L 164.214501 74.210604 
L 165.415764 62.496495 
L 166.339813 55.492642 
L 167.079052 51.389877 
L 167.695085 49.091681 
L 168.187911 48.027911 
L 168.55753 47.694304 
L 168.834745 47.709542 
L 169.11196 47.957446 
L 169.450778 48.587562 
L 169.882 49.936348 
L 170.374826 52.268067 
L 170.960057 56.161408 
L 171.668495 62.444195 
L 172.592544 72.835299 
L 173.917014 90.615054 
L 177.151185 135.007862 
L 178.229242 146.451406 
L 179.091688 153.491106 
L 179.800125 157.671911 
L 180.385356 159.965056 
L 180.847381 161.012577 
L 181.186198 161.349086 
L 181.463413 161.352918 
L 181.740628 161.113786 
L 182.079446 160.494922 
L 182.510669 159.196875 
L 183.034296 156.875397 
L 183.68113 152.936358 
L 184.481973 146.556309 
L 185.467625 136.740339 
L 186.761293 121.387202 
L 191.319935 65.015449 
L 192.274785 56.855314 
L 193.044826 52.01591 
L 193.660858 49.39437 
L 194.153684 48.146133 
L 194.523304 47.720038 
L 194.800519 47.691359 
L 195.077733 47.914985 
L 195.416551 48.538004 
L 195.816972 49.788505 
L 196.309799 52.131753 
L 196.89503 56.115434 
L 197.603467 62.660813 
L 198.465913 72.862908 
L 199.697978 90.349944 
L 202.839744 136.036014 
L 203.886999 147.588301 
L 204.718643 154.476758 
L 205.396279 158.397321 
L 205.950709 160.409752 
L 206.35113 161.179609 
L 206.659146 161.380127 
L 206.905559 161.29632 
L 207.182774 160.944759 
L 207.552393 160.058299 
L 208.014418 158.295583 
L 208.599649 155.06382 
L 209.308086 149.765804 
L 210.170532 141.511858 
L 211.279391 128.581423 
L 213.004282 105.426792 
L 215.314404 74.883056 
L 216.454064 62.650083 
L 217.347312 55.275044 
L 218.055749 51.088095 
L 218.64098 48.849079 
L 219.072203 47.940214 
L 219.411021 47.677505 
L 219.657434 47.739155 
L 219.934648 48.066289 
L 220.273466 48.844584 
L 220.704689 50.459346 
L 221.228317 53.407133 
L 221.844349 58.312467 
L 222.583589 66.19198 
L 223.538439 79.056668 
L 225.109322 103.834457 
L 227.019023 133.044037 
L 228.066279 145.868783 
L 228.897923 153.577158 
L 229.575558 157.986642 
L 230.129988 160.261649 
L 230.530409 161.14045 
L 230.838425 161.378454 
L 231.084838 161.296004 
L 231.362053 160.916245 
L 231.731673 159.945032 
L 232.193697 158.005404 
L 232.778928 154.448935 
L 233.487365 148.636212 
L 234.380613 139.282335 
L 235.551075 124.445471 
L 240.109716 63.853614 
L 241.002963 55.990984 
L 241.711401 51.487096 
L 242.296631 49.04221 
L 242.758656 47.970753 
L 243.097474 47.679956 
L 243.343887 47.736049 
L 243.621102 48.072916 
L 243.959919 48.887057 
L 244.391142 50.586317 
L 244.91477 53.6965 
L 245.530803 58.882244 
L 246.270042 67.234028 
L 247.224892 80.896849 
L 248.918982 109.147879 
L 250.551468 134.876621 
L 251.53712 147.189005 
L 252.337963 154.611407 
L 252.984797 158.678006 
L 253.477623 160.553106 
L 253.847243 161.252286 
L 254.124457 161.378735 
L 254.340069 161.242937 
L 254.617283 160.770831 
L 254.986903 159.630706 
L 255.448927 157.412479 
L 256.034158 153.410959 
L 256.773397 146.639008 
L 257.697446 135.927992 
L 258.991115 118.037085 
L 262.286889 71.238625 
L 263.303343 60.363104 
L 264.104185 53.932116 
L 264.751019 50.314142 
L 265.274647 48.492968 
L 265.675068 47.79553 
L 265.952283 47.674033 
L 266.198696 47.818729 
L 266.475911 48.271048 
L 266.84553 49.363316 
L 267.307555 51.54518 
L 267.831182 55.166081 
L 268.478017 61.371197 
L 269.248057 71.138676 
L 270.264511 87.138223 
L 273.591087 141.893798 
L 274.453533 151.630384 
L 275.131169 157.051157 
L 275.685598 159.894114 
L 276.116821 161.081135 
L 276.424837 161.37672 
L 276.640448 161.311261 
L 276.886861 160.96474 
L 277.225679 160.023185 
L 277.656902 158.06959 
L 278.211332 154.381603 
L 278.888967 148.240477 
L 279.751413 138.228766 
L 280.921875 121.812297 
L 284.587269 68.468433 
L 285.542119 58.563367 
L 286.31216 52.732344 
L 286.928193 49.612989 
L 287.390217 48.225414 
L 287.759837 47.721036 
L 288.00625 47.689947 
L 288.252663 47.907216 
L 288.560679 48.534702 
L 288.9611 49.957938 
L 289.423125 52.486768 
L 289.977554 56.829571 
L 290.624388 63.730777 
L 291.425231 74.821255 
L 292.564891 94.11302 
L 295.059823 137.186771 
L 295.983872 149.080348 
L 296.692309 155.683627 
L 297.27754 159.285211 
L 297.739565 160.88708 
L 298.047581 161.338612 
L 298.263192 161.362121 
L 298.478804 161.14682 
L 298.756018 160.523947 
L 299.125638 159.102174 
L 299.618464 156.200106 
L 300.234497 151.076034 
L 301.004537 142.63338 
L 302.020991 128.809803 
L 303.807486 100.815827 
L 305.532377 75.083201 
L 306.579632 62.546111 
L 307.411276 55.045499 
L 308.088912 50.788089 
L 308.61254 48.716994 
L 309.012961 47.874544 
L 309.290176 47.675269 
L 309.536589 47.766007 
L 309.813803 48.174209 
L 310.152621 49.122432 
L 310.583844 51.065878 
L 311.107472 54.580149 
L 311.723505 60.393194 
L 312.462744 69.725112 
L 313.417594 84.974752 
L 317.021385 146.03048 
L 317.791426 154.179375 
L 318.407458 158.5714 
L 318.900284 160.633314 
L 319.239102 161.287178 
L 319.485515 161.371987 
L 319.701127 161.178581 
L 319.978341 160.56808 
L 320.347961 159.135981 
L 320.840787 156.175458 
L 321.456819 150.915457 
L 322.22686 142.228039 
L 323.243314 128.015131 
L 325.183817 96.939412 
L 326.7547 73.537375 
L 327.771154 61.513275 
L 328.571996 54.453808 
L 329.21883 50.514298 
L 329.742458 48.546328 
L 330.142879 47.799791 
L 330.420094 47.674811 
L 330.666507 47.836804 
L 330.943721 48.330984 
L 331.313341 49.514601 
L 331.775365 51.864325 
L 332.329795 56.012906 
L 332.976629 62.736935 
L 333.74667 73.279799 
L 334.793925 91.069912 
L 337.627675 140.891112 
L 338.490121 151.496361 
L 339.167756 157.278719 
L 339.691384 160.055567 
L 340.091805 161.149478 
L 340.36902 161.381152 
L 340.584631 161.265917 
L 340.831044 160.821555 
L 341.169862 159.676986 
L 341.601085 157.358584 
L 342.155515 153.049516 
L 342.863952 145.608305 
L 343.788001 133.276667 
L 345.204876 110.868084 
L 347.453395 75.521436 
L 348.50065 62.576728 
L 349.301493 55.145669 
L 349.948327 50.934624 
L 350.471954 48.770239 
L 350.872376 47.888032 
L 351.14959 47.676092 
L 351.365202 47.739618 
L 351.611615 48.059838 
L 351.950433 48.938366 
L 352.381656 50.80905 
L 352.874482 54.016466 
L 353.459713 59.361136 
L 354.16815 68.063316 
L 355.061397 82.118351 
L 356.570677 110.188373 
L 358.079957 136.747688 
L 358.973204 148.919444 
L 359.681642 155.855905 
L 360.236071 159.384899 
L 360.667294 160.918526 
L 360.97531 161.356677 
L 361.190922 161.338484 
L 361.406533 161.05534 
L 361.714549 160.198703 
L 362.11497 158.31292 
L 362.638598 154.600366 
L 363.285432 148.246397 
L 364.117076 137.676411 
L 365.287538 119.632759 
L 368.3369 71.246544 
L 369.29175 60.079683 
L 370.061791 53.489924 
L 370.677823 49.951026 
L 371.17065 48.283432 
L 371.509467 47.750287 
L 371.755881 47.680555 
L 371.971492 47.841483 
L 372.248707 48.356253 
L 372.618326 49.590385 
L 373.080351 52.036837 
L 373.63478 56.345474 
L 374.281614 63.313572 
L 375.051655 74.229632 
L 376.09891 92.642582 
L 378.74785 140.68105 
L 379.579494 151.329155 
L 380.226329 157.117489 
L 380.749956 160.03797 
L 381.150378 161.16568 
L 381.396791 161.380075 
L 381.5816 161.302344 
L 381.828013 160.884077 
L 382.13603 159.864715 
L 382.567252 157.542281 
L 383.121682 153.116596 
L 383.799318 145.748685 
L 384.692565 133.38359 
L 386.047837 111.101007 
L 388.265554 74.857038 
L 389.282008 61.923465 
L 390.052048 54.648622 
L 390.698883 50.464165 
L 391.191709 48.527379 
L 391.561328 47.803731 
L 391.838543 47.676472 
L 392.054154 47.82596 
L 392.331369 48.340581 
L 392.700989 49.598293 
L 393.163013 52.108341 
L 393.717442 56.536279 
L 394.364277 63.695893 
L 395.134317 74.910961 
L 396.181573 93.82792 
L 398.676505 140.242624 
L 399.508149 151.246104 
L 400.154983 157.183122 
L 400.678611 160.128672 
L 401.04823 161.168561 
L 401.294643 161.380948 
L 401.479453 161.289209 
L 401.725866 160.835979 
L 402.064684 159.607654 
L 402.495907 157.068954 
L 403.050336 152.308796 
L 403.758774 144.070791 
L 404.682823 130.476021 
L 406.253706 103.432304 
L 407.978597 74.872715 
L 408.964249 61.972485 
L 409.73429 54.511531 
L 410.350322 50.441321 
L 410.843148 48.475383 
L 411.212768 47.773342 
L 411.459181 47.677553 
L 411.674792 47.839763 
L 411.952007 48.387923 
L 412.321627 49.718539 
L 412.783651 52.360124 
L 413.33808 56.995157 
L 413.984915 64.448743 
L 414.754955 76.064755 
L 415.833012 96.160057 
L 418.112333 139.504599 
L 418.943977 150.899446 
L 419.590811 157.046078 
L 420.083637 159.961615 
L 420.453257 161.108715 
L 420.730471 161.38105 
L 420.915281 161.284508 
L 421.161694 160.814214 
L 421.500512 159.544 
L 421.931735 156.924878 
L 422.486164 152.025792 
L 423.194602 143.572837 
L 424.149452 129.175413 
L 425.905145 98.417336 
L 427.445227 73.18112 
L 428.400077 60.917655 
L 429.139316 53.949298 
L 429.755349 50.054369 
L 430.217373 48.337904 
L 430.556191 47.750993 
L 430.802604 47.684985 
L 431.018216 47.878066 
L 431.29543 48.472328 
L 431.66505 49.875099 
L 432.127074 52.62245 
L 432.681504 57.402783 
L 433.328338 65.040013 
L 434.12918 77.396347 
L 435.238039 98.410971 
L 437.301748 137.873579 
L 438.164194 150.042571 
L 438.84183 156.694099 
L 439.365457 159.880281 
L 439.765879 161.12586 
L 440.043093 161.381429 
L 440.227903 161.278461 
L 440.474316 160.805957 
L 440.813134 159.545203 
L 441.244357 156.959773 
L 441.798786 152.139246 
L 442.507224 143.83847 
L 443.462074 129.711003 
L 445.156164 100.532893 
L 446.757848 74.400254 
L 447.743501 61.682406 
L 448.513541 54.345905 
L 449.129574 50.354574 
L 449.6224 48.436445 
L 449.99202 47.761595 
L 450.238433 47.68027 
L 450.454044 47.853098 
L 450.731259 48.412678 
L 451.100878 49.755884 
L 451.562903 52.411413 
L 452.117332 57.062948 
L 452.764166 64.531714 
L 453.565009 76.656339 
L 454.673867 97.321985 
L 456.829981 137.907778 
L 457.692427 149.851872 
L 458.370063 156.448697 
L 458.893691 159.682585 
L 459.294112 161.02048 
L 459.571326 161.368097 
L 459.756136 161.338911 
L 459.971748 161.044352 
L 460.279764 160.146202 
L 460.680185 158.167264 
L 461.203813 154.27845 
L 461.850647 147.646981 
L 462.682291 136.6744 
L 463.883555 117.573159 
L 466.655701 72.589679 
L 467.610552 60.901648 
L 468.380592 53.942228 
L 468.996625 50.169506 
L 469.489451 48.367495 
L 469.859071 47.745608 
L 470.105484 47.684238 
L 470.321095 47.865212 
L 470.59831 48.423696 
L 470.967929 49.748068 
L 471.429954 52.358358 
L 471.984383 56.933462 
L 472.631217 64.289867 
L 473.43206 76.233753 
L 474.540918 96.558293 
L 476.727834 137.126033 
L 477.621081 149.411235 
L 478.298717 156.032873 
L 478.853146 159.522832 
L 479.284369 160.992531 
L 479.592386 161.372123 
L 479.777195 161.333983 
L 479.992807 161.040703 
L 480.300823 160.165707 
L 480.701244 158.252416 
L 481.224872 154.503924 
L 481.871706 148.115082 
L 482.70335 137.526886 
L 483.904614 119.005639 
L 486.923173 71.248504 
L 487.878024 60.073034 
L 488.648065 53.465963 
L 489.264097 49.918579 
L 489.756923 48.256499 
L 490.095741 47.737927 
L 490.342154 47.686287 
L 490.557766 47.869326 
L 490.83498 48.422555 
L 491.2046 49.728218 
L 491.666624 52.300763 
L 492.221054 56.816006 
L 492.867888 64.086619 
L 493.66873 75.894585 
L 494.777589 95.97092 
L 497.026108 137.160938 
L 497.919355 149.288589 
L 498.627793 156.112308 
L 499.182222 159.533089 
L 499.613445 160.984112 
L 499.921461 161.369191 
L 500.137072 161.31842 
L 500.383486 160.941906 
L 500.691502 160.003355 
L 501.122725 157.847013 
L 501.646352 153.987334 
L 502.323988 147.181552 
L 503.186434 136.087727 
L 504.449301 116.587911 
L 507.221447 73.030795 
L 508.207099 61.232896 
L 509.007942 54.121555 
L 509.654776 50.222936 
L 510.147602 48.429807 
L 510.517222 47.775428 
L 510.763635 47.675028 
L 510.979246 47.811335 
L 511.256461 48.299271 
L 511.62608 49.509589 
L 512.057303 51.7559 
L 512.580931 55.737023 
L 513.196963 62.223177 
L 513.936203 72.481324 
L 514.952656 90.076023 
L 517.755605 140.560879 
L 518.587249 151.041622 
L 519.264884 157.017689 
L 519.788512 159.916331 
L 520.188933 161.091855 
L 520.466148 161.376013 
L 520.681759 161.300035 
L 520.928172 160.899418 
L 521.26699 159.813939 
L 521.698213 157.570432 
L 522.252643 153.359003 
L 522.96108 146.045092 
L 523.854327 134.319885 
L 525.209599 113.172985 
L 527.673729 74.567126 
L 528.690183 62.148202 
L 529.491025 54.803922 
L 530.13786 50.679558 
L 530.661487 48.605919 
L 531.061909 47.812099 
L 531.339123 47.674295 
L 531.554735 47.804438 
L 531.831949 48.282546 
L 532.170767 49.352552 
L 532.60199 51.511686 
L 533.125618 55.380114 
L 533.74165 61.728996 
L 534.480889 71.828927 
L 535.466542 88.683318 
L 538.4543 142.015687 
L 539.285944 152.073354 
L 539.932778 157.475817 
L 540.456406 160.172489 
L 540.826025 161.15049 
L 541.10324 161.381188 
L 541.318851 161.265473 
L 541.565264 160.821585 
L 541.904082 159.680612 
L 542.335305 157.37363 
L 542.889734 153.093016 
L 543.598172 145.711659 
L 544.522221 133.489016 
L 545.908294 111.763071 
L 548.249218 75.125557 
L 549.296473 62.267108 
L 550.097316 54.896958 
L 550.74415 50.74455 
L 551.267778 48.64415 
L 551.668199 47.827652 
L 551.945413 47.673073 
L 552.161025 47.789562 
L 552.438239 48.249323 
L 552.777057 49.295678 
L 553.20828 51.422775 
L 553.731908 55.249756 
L 554.347941 61.548029 
L 555.08718 71.589987 
L 556.072832 88.385982 
L 559.091391 142.200341 
L 559.923035 152.203268 
L 560.56987 157.560049 
L 561.093497 160.219013 
L 561.463117 161.170477 
L 561.740332 161.381496 
L 561.955943 161.250683 
L 562.202356 160.789829 
L 562.541174 159.626147 
L 562.972397 157.291538 
L 563.526826 152.977979 
L 564.235264 145.55964 
L 565.159312 133.299065 
L 566.576187 111.036119 
L 568.855508 75.352064 
L 569.902763 62.437512 
L 570.703606 55.017743 
L 571.35044 50.823289 
L 571.874068 48.68847 
L 572.274489 47.845609 
L 572.551704 47.672719 
L 572.767315 47.774879 
L 573.04453 48.216019 
L 573.383348 49.239153 
L 573.81457 51.335696 
L 574.338198 55.124014 
L 574.954231 61.37606 
L 575.69347 71.367335 
L 576.679122 88.119328 
L 579.728483 142.448048 
L 580.529326 152.078849 
L 581.17616 157.481901 
L 581.699788 160.177224 
L 582.069407 161.153013 
L 582.346622 161.381287 
L 582.562233 161.263208 
L 582.808646 160.816095 
L 583.147464 159.66977 
L 583.578687 157.354468 
L 584.133116 153.06086 
L 584.841554 145.659818 
L 585.765603 133.408487 
L 587.151676 111.641441 
L 589.4926 74.977032 
L 590.539855 62.135819 
L 591.340698 54.792874 
L 591.987532 50.671008 
L 592.51116 48.600553 
L 592.911581 47.809873 
L 593.188795 47.674552 
L 593.404407 47.806758 
L 593.681621 48.287621 
L 594.020439 49.361025 
L 594.451662 51.524277 
L 594.97529 55.397038 
L 595.591322 61.749904 
L 596.330562 71.853659 
L 597.316214 88.714024 
L 600.303972 142.072022 
L 601.135616 152.125862 
L 601.78245 157.517286 
L 602.306078 160.199011 
L 602.675697 161.163076 
L 602.952912 161.381493 
L 603.168523 161.255171 
L 603.414936 160.798074 
L 603.753754 159.637158 
L 604.184977 157.302129 
L 604.739406 152.981924 
L 605.447844 145.546422 
L 606.371893 133.252885 
L 607.788768 110.931542 
L 610.068088 75.193839 
L 611.115344 62.290646 
L 611.916186 54.898081 
L 612.56302 50.737085 
L 613.086648 48.636387 
L 613.487069 47.823562 
L 613.764284 47.67334 
L 613.979895 47.794134 
L 614.25711 48.260455 
L 614.595928 49.316103 
L 615.027151 51.456469 
L 615.550778 55.300806 
L 616.166811 61.620372 
L 616.90605 71.689087 
L 617.891702 88.523286 
L 620.910262 142.392017 
L 621.711104 152.054393 
L 622.357939 157.474732 
L 622.881566 160.177326 
L 623.251186 161.154331 
L 623.5284 161.381352 
L 623.744012 161.261028 
L 623.990425 160.810017 
L 624.329243 159.656102 
L 624.760466 157.327675 
L 625.314895 153.012247 
L 626.023332 145.577232 
L 626.947381 133.276505 
L 628.333455 111.441174 
L 630.643577 75.16373 
L 631.690832 62.256537 
L 632.491675 54.867622 
L 633.138509 50.713999 
L 633.662137 48.622072 
L 634.062558 47.817542 
L 634.339772 47.673816 
L 634.555384 47.800062 
L 634.832599 48.273869 
L 635.171416 49.339333 
L 635.602639 51.493106 
L 636.126267 55.354763 
L 636.7423 61.69542 
L 637.481539 71.788785 
L 638.467191 88.650431 
L 641.454949 142.085598 
L 642.286593 152.150376 
L 642.933427 157.541043 
L 643.457055 160.215674 
L 643.826674 161.171246 
L 644.103889 161.381472 
L 644.3195 161.247753 
L 644.565913 160.781166 
L 644.904731 159.605542 
L 645.335954 157.249376 
L 645.890384 152.898919 
L 646.598821 145.421879 
L 647.52287 133.074423 
L 648.939745 110.686755 
L 651.188264 75.358431 
L 652.235519 62.398794 
L 653.036362 54.966208 
L 653.683196 50.77702 
L 654.206824 48.656834 
L 654.607245 47.831146 
L 654.884459 47.672963 
L 655.100071 47.788026 
L 655.377285 48.247465 
L 655.716103 49.295251 
L 656.147326 51.426112 
L 656.670954 55.259239 
L 657.286986 61.566363 
L 658.026226 71.623867 
L 659.011878 88.456424 
L 662.030437 142.390633 
L 662.83128 152.064443 
L 663.478114 157.487279 
L 664.001742 160.187011 
L 664.371361 161.159344 
L 664.648576 161.381464 
L 664.864187 161.256538 
L 665.1106 160.799465 
L 665.449418 159.635918 
L 665.880641 157.293324 
L 666.43507 152.957196 
L 667.143508 145.49324 
L 668.067557 133.154331 
L 669.484432 110.763728 
L 671.732951 75.40638 
L 672.780206 62.430186 
L 673.581049 54.985924 
L 674.227883 50.788551 
L 674.75151 48.662732 
L 675.151932 47.833346 
L 675.429146 47.672886 
L 675.644758 47.786318 
L 675.921972 48.24381 
L 676.26079 49.289391 
L 676.692013 51.417618 
L 677.215641 55.247684 
L 677.831673 61.551467 
L 678.570912 71.606056 
L 679.556565 88.438489 
L 682.575124 142.39121 
L 683.375967 152.067948 
L 684.022801 157.491222 
L 684.546429 160.189943 
L 684.916048 161.160829 
L 685.193263 161.381484 
L 685.408874 161.255204 
L 685.655287 160.796369 
L 685.994105 159.630054 
L 686.425328 157.283437 
L 686.979757 152.9415 
L 687.688195 145.469524 
L 688.612244 133.120182 
L 690.029119 110.716788 
L 692.277638 75.356312 
L 693.324893 62.387854 
L 694.125735 54.953346 
L 694.77257 50.765984 
L 695.296197 48.649482 
L 695.696619 47.827878 
L 695.973833 47.673122 
L 696.189445 47.791166 
L 696.466659 48.254812 
L 696.805477 49.308256 
L 697.2367 51.447013 
L 697.760328 55.290524 
L 698.37636 61.610515 
L 698.684377 65.491876 
L 698.684377 65.491876 
" clip-path="url(#pdd22f14a20)" style="fill: none; stroke: #2477d0; stroke-width: 4"/>
   </g>
   <g id="matplotlib.axis_1">
    <g id="xtick_1"/>
    <g id="xtick_2"/>
    <g id="xtick_3"/>
    <g id="xtick_4"/>
    <g id="xtick_5"/>
   </g>
   <g id="matplotlib.axis_2">
    <g id="ytick_1">
     <g id="line2d_2">
      <defs>
       <path id="m1c77b9d543" d="M 0 0 
L 5 0 
" style="stroke: #000000"/>
      </defs>
      <g>
       <use xlink:href="#m1c77b9d543" x="64.170808" y="161.381507" style="stroke: #000000"/>
      </g>
     </g>
     <g id="text_1">
      <!-- $-1.0$ -->
      <g transform="translate(2.990808 172.01932) scale(0.28 -0.28)">
       <defs>
        <path id="Cmsy10-a1" d="M 653 1472 
Q 600 1472 565 1512 
Q 531 1553 531 1600 
Q 531 1647 565 1687 
Q 600 1728 653 1728 
L 4325 1728 
Q 4375 1728 4408 1687 
Q 4441 1647 4441 1600 
Q 4441 1553 4408 1512 
Q 4375 1472 4325 1472 
L 653 1472 
z
" transform="scale(0.015625)"/>
        <path id="Cmr10-31" d="M 594 0 
L 594 225 
Q 1394 225 1394 428 
L 1394 3788 
Q 1063 3628 556 3628 
L 556 3853 
Q 1341 3853 1741 4263 
L 1831 4263 
Q 1853 4263 1873 4245 
Q 1894 4228 1894 4206 
L 1894 428 
Q 1894 225 2694 225 
L 2694 0 
L 594 0 
z
" transform="scale(0.015625)"/>
        <path id="Cmmi10-3a" d="M 538 353 
Q 538 497 644 600 
Q 750 703 891 703 
Q 978 703 1062 656 
Q 1147 609 1194 525 
Q 1241 441 1241 353 
Q 1241 213 1137 106 
Q 1034 0 891 0 
Q 750 0 644 106 
Q 538 213 538 353 
z
" transform="scale(0.015625)"/>
        <path id="Cmr10-30" d="M 1600 -141 
Q 816 -141 533 504 
Q 250 1150 250 2041 
Q 250 2597 351 3087 
Q 453 3578 754 3920 
Q 1056 4263 1600 4263 
Q 2022 4263 2290 4056 
Q 2559 3850 2700 3523 
Q 2841 3197 2892 2823 
Q 2944 2450 2944 2041 
Q 2944 1491 2842 1011 
Q 2741 531 2444 195 
Q 2147 -141 1600 -141 
z
M 1600 25 
Q 1956 25 2131 390 
Q 2306 756 2347 1200 
Q 2388 1644 2388 2144 
Q 2388 2625 2347 3031 
Q 2306 3438 2132 3767 
Q 1959 4097 1600 4097 
Q 1238 4097 1063 3765 
Q 888 3434 847 3029 
Q 806 2625 806 2144 
Q 806 1788 823 1472 
Q 841 1156 916 820 
Q 991 484 1158 254 
Q 1325 25 1600 25 
z
" transform="scale(0.015625)"/>
       </defs>
       <use xlink:href="#Cmsy10-a1" transform="translate(0 0.390625)"/>
       <use xlink:href="#Cmr10-31" transform="translate(77.685547 0.390625)"/>
       <use xlink:href="#Cmmi10-3a" transform="translate(127.685547 0.390625)"/>
       <use xlink:href="#Cmr10-30" transform="translate(155.371094 0.390625)"/>
      </g>
     </g>
    </g>
    <g id="ytick_2">
     <g id="line2d_3">
      <g>
       <use xlink:href="#m1c77b9d543" x="64.170808" y="132.954308" style="stroke: #000000"/>
      </g>
     </g>
     <g id="text_2">
      <!-- $-0.5$ -->
      <g transform="translate(2.990808 143.59212) scale(0.28 -0.28)">
       <defs>
        <path id="Cmr10-35" d="M 556 728 
Q 622 541 758 387 
Q 894 234 1080 148 
Q 1266 63 1466 63 
Q 1928 63 2103 422 
Q 2278 781 2278 1294 
Q 2278 1516 2270 1667 
Q 2263 1819 2228 1959 
Q 2169 2184 2020 2353 
Q 1872 2522 1656 2522 
Q 1441 2522 1286 2456 
Q 1131 2391 1034 2303 
Q 938 2216 863 2119 
Q 788 2022 769 2016 
L 697 2016 
Q 681 2016 657 2036 
Q 634 2056 634 2075 
L 634 4213 
Q 634 4228 654 4245 
Q 675 4263 697 4263 
L 716 4263 
Q 1147 4056 1631 4056 
Q 2106 4056 2547 4263 
L 2566 4263 
Q 2588 4263 2606 4247 
Q 2625 4231 2625 4213 
L 2625 4153 
Q 2625 4122 2613 4122 
Q 2394 3831 2064 3668 
Q 1734 3506 1381 3506 
Q 1125 3506 856 3578 
L 856 2369 
Q 1069 2541 1236 2614 
Q 1403 2688 1663 2688 
Q 2016 2688 2295 2484 
Q 2575 2281 2725 1954 
Q 2875 1628 2875 1288 
Q 2875 903 2686 575 
Q 2497 247 2172 53 
Q 1847 -141 1466 -141 
Q 1150 -141 886 21 
Q 622 184 470 459 
Q 319 734 319 1044 
Q 319 1188 412 1278 
Q 506 1369 647 1369 
Q 788 1369 883 1276 
Q 978 1184 978 1044 
Q 978 906 883 811 
Q 788 716 647 716 
Q 625 716 597 720 
Q 569 725 556 728 
z
" transform="scale(0.015625)"/>
       </defs>
       <use xlink:href="#Cmsy10-a1" transform="translate(0 0.390625)"/>
       <use xlink:href="#Cmr10-30" transform="translate(77.685547 0.390625)"/>
       <use xlink:href="#Cmmi10-3a" transform="translate(127.685547 0.390625)"/>
       <use xlink:href="#Cmr10-35" transform="translate(155.371094 0.390625)"/>
      </g>
     </g>
    </g>
    <g id="ytick_3">
     <g id="line2d_4">
      <g>
       <use xlink:href="#m1c77b9d543" x="64.170808" y="104.527108" style="stroke: #000000"/>
      </g>
     </g>
     <g id="text_3">
      <!-- $0.0$ -->
      <g transform="translate(24.830808 115.164921) scale(0.28 -0.28)">
       <use xlink:href="#Cmr10-30" transform="translate(0 0.390625)"/>
       <use xlink:href="#Cmmi10-3a" transform="translate(50 0.390625)"/>
       <use xlink:href="#Cmr10-30" transform="translate(77.685547 0.390625)"/>
      </g>
     </g>
    </g>
    <g id="ytick_4">
     <g id="line2d_5">
      <g>
       <use xlink:href="#m1c77b9d543" x="64.170808" y="76.099909" style="stroke: #000000"/>
      </g>
     </g>
     <g id="text_4">
      <!-- $0.5$ -->
      <g transform="translate(24.830808 86.737721) scale(0.28 -0.28)">
       <use xlink:href="#Cmr10-30" transform="translate(0 0.390625)"/>
       <use xlink:href="#Cmmi10-3a" transform="translate(50 0.390625)"/>
       <use xlink:href="#Cmr10-35" transform="translate(77.685547 0.390625)"/>
      </g>
     </g>
    </g>
    <g id="ytick_5">
     <g id="line2d_6">
      <g>
       <use xlink:href="#m1c77b9d543" x="64.170808" y="47.672709" style="stroke: #000000"/>
      </g>
     </g>
     <g id="text_5">
      <!-- $1.0$ -->
      <g transform="translate(24.830808 58.310522) scale(0.28 -0.28)">
       <use xlink:href="#Cmr10-31" transform="translate(0 0.390625)"/>
       <use xlink:href="#Cmmi10-3a" transform="translate(50 0.390625)"/>
       <use xlink:href="#Cmr10-30" transform="translate(77.685547 0.390625)"/>
      </g>
     </g>
    </g>
    <g id="ytick_6">
     <g id="line2d_7">
      <g>
       <use xlink:href="#m1c77b9d543" x="64.170808" y="19.245509" style="stroke: #000000"/>
      </g>
     </g>
     <g id="text_6">
      <!-- $1.5$ -->
      <g transform="translate(24.830808 29.883322) scale(0.28 -0.28)">
       <use xlink:href="#Cmr10-31" transform="translate(0 0.390625)"/>
       <use xlink:href="#Cmmi10-3a" transform="translate(50 0.390625)"/>
       <use xlink:href="#Cmr10-35" transform="translate(77.685547 0.390625)"/>
      </g>
     </g>
    </g>
   </g>
   <g id="line2d_8">
    <path d="M 82.651786 47.672709 
L 82.959802 47.784978 
L 83.29862 48.167645 
L 83.729843 49.045349 
L 84.25347 50.691464 
L 84.869503 53.420867 
L 85.608742 57.772386 
L 86.501989 64.466069 
L 87.580046 74.33909 
L 88.996921 89.529876 
L 93.678769 141.471729 
L 94.756826 150.209398 
L 95.619272 155.556949 
L 96.327709 158.712395 
L 96.91294 160.41779 
L 97.374964 161.16663 
L 97.713782 161.374707 
L 98.021799 161.311639 
L 98.329815 161.00809 
L 98.730236 160.255381 
L 99.223062 158.779652 
L 99.808293 156.259035 
L 100.516731 152.141877 
L 101.379176 145.677532 
L 102.426432 135.974621 
L 103.781703 121.14058 
L 108.648361 65.754301 
L 109.664815 57.611474 
L 110.496459 52.609888 
L 111.174094 49.771484 
L 111.728524 48.327445 
L 112.159747 47.768211 
L 112.467763 47.675107 
L 112.744978 47.810599 
L 113.083796 48.258109 
L 113.484217 49.184302 
L 114.007844 51.034858 
L 114.623877 54.111089 
L 115.363116 59.013592 
L 116.256363 66.529987 
L 117.365222 77.878333 
L 118.936105 96.536036 
L 122.201078 135.853642 
L 123.37154 147.035157 
L 124.295589 153.873195 
L 125.034828 157.850783 
L 125.65086 160.058293 
L 126.112885 161.022274 
L 126.482504 161.356864 
L 126.759719 161.350796 
L 127.036934 161.123952 
L 127.375752 160.547671 
L 127.806974 159.342776 
L 128.330602 157.183905 
L 128.977436 153.503872 
L 129.747477 147.762117 
L 130.702328 138.832315 
L 131.903591 125.354067 
L 133.905697 99.929909 
L 135.969406 74.66658 
L 137.139868 62.897492 
L 138.063917 55.666805 
L 138.803156 51.44676 
L 139.419189 49.096849 
L 139.881213 48.065332 
L 140.250833 47.702096 
L 140.528047 47.701755 
L 140.805262 47.935162 
L 141.14408 48.536972 
L 141.575303 49.801679 
L 142.098931 52.072583 
L 142.745765 55.945784 
L 143.515806 61.984596 
L 144.470656 71.355559 
L 145.702721 85.821612 
L 148.228455 118.967873 
L 149.799338 137.864541 
L 150.877395 148.382958 
L 151.739841 154.801846 
L 152.448278 158.529562 
L 153.002707 160.394507 
L 153.43393 161.179871 
L 153.741947 161.378019 
L 154.019161 161.296126 
L 154.327177 160.915927 
L 154.696797 160.060034 
L 155.158821 158.385756 
L 155.744052 155.329373 
L 156.45249 150.308044 
L 157.314936 142.435299 
L 158.392993 130.356253 
L 159.933074 110.298734 
L 162.736022 73.636135 
L 163.844881 62.081129 
L 164.738128 54.940844 
L 165.446566 50.909384 
L 166.000995 48.853556 
L 166.432218 47.951973 
L 166.771036 47.680529 
L 167.017449 47.72649 
L 167.294664 48.023415 
L 167.633481 48.737462 
L 168.064704 50.198283 
L 168.619134 52.961616 
L 169.296769 57.623938 
L 170.097612 64.793501 
L 171.114066 76.071519 
L 172.500139 94.182073 
L 175.795913 138.113031 
L 176.843169 148.778572 
L 177.674813 155.166877 
L 178.352449 158.78929 
L 178.876076 160.537238 
L 179.276497 161.231727 
L 179.584514 161.380974 
L 179.830927 161.258067 
L 180.138943 160.801822 
L 180.508563 159.813559 
L 181.001389 157.760976 
L 181.58662 154.271215 
L 182.295057 148.618246 
L 183.188304 139.52087 
L 184.327965 125.405937 
L 186.299269 97.618003 
L 188.116565 73.254829 
L 189.194622 61.574853 
L 190.057068 54.492727 
L 190.734704 50.596104 
L 191.258331 48.678984 
L 191.658753 47.883472 
L 191.966769 47.674264 
L 192.213182 47.760651 
L 192.490397 48.127441 
L 192.860016 49.057929 
L 193.322041 50.919426 
L 193.87647 54.144269 
L 194.554106 59.465469 
L 195.38575 67.848524 
L 196.463807 81.161588 
L 198.157896 105.319679 
L 200.283209 134.952204 
L 201.361266 147.046837 
L 202.19291 154.16207 
L 202.870546 158.262349 
L 203.424975 160.378875 
L 203.825396 161.183492 
L 204.133412 161.381256 
L 204.379826 161.274145 
L 204.65704 160.871874 
L 205.02666 159.874497 
L 205.488684 157.899378 
L 206.073915 154.277234 
L 206.782353 148.330134 
L 207.644798 139.060646 
L 208.784459 124.162103 
L 211.063779 90.485094 
L 212.542257 70.506309 
L 213.558711 59.587099 
L 214.359553 53.238209 
L 214.975586 49.91886 
L 215.468412 48.316159 
L 215.838032 47.749378 
L 216.084445 47.678174 
L 216.330858 47.853181 
L 216.638874 48.417407 
L 217.039295 49.719315 
L 217.532121 52.183958 
L 218.148154 56.542236 
L 218.887393 63.490275 
L 219.811442 74.416749 
L 221.10511 92.680319 
L 224.339281 139.570215 
L 225.324934 150.15276 
L 226.094974 156.202665 
L 226.711007 159.432759 
L 227.173031 160.850381 
L 227.511849 161.32525 
L 227.758262 161.366891 
L 228.004675 161.152069 
L 228.312692 160.523975 
L 228.713113 159.116584 
L 229.205939 156.489917 
L 229.821972 151.886066 
L 230.592012 144.254404 
L 231.546863 132.373331 
L 232.902134 112.431898 
L 235.64348 71.662566 
L 236.659933 60.080527 
L 237.429974 53.582366 
L 238.046007 50.032672 
L 238.538833 48.330977 
L 238.908452 47.742721 
L 239.154865 47.682822 
L 239.401278 47.889639 
L 239.709295 48.522144 
L 240.109716 49.958868 
L 240.602542 52.656779 
L 241.218574 57.399416 
L 241.988615 65.268629 
L 242.943466 77.508053 
L 244.360341 98.947737 
L 246.824471 136.361161 
L 247.840925 148.376699 
L 248.610966 155.149981 
L 249.226998 158.867858 
L 249.719824 160.663931 
L 250.089444 161.297386 
L 250.335857 161.374773 
L 250.551468 161.215278 
L 250.828683 160.699277 
L 251.198302 159.471978 
L 251.660327 157.089682 
L 252.245558 152.778869 
L 252.953995 145.785789 
L 253.847243 134.615339 
L 255.110109 115.678393 
L 258.097867 69.7629 
L 259.052718 58.878665 
L 259.791957 52.754934 
L 260.377188 49.54777 
L 260.839212 48.112039 
L 261.147229 47.708691 
L 261.36284 47.692851 
L 261.578452 47.896923 
L 261.886468 48.568652 
L 262.286889 50.102877 
L 262.779715 52.989148 
L 263.395748 58.06191 
L 264.165788 66.460643 
L 265.151441 79.916771 
L 266.691522 104.527459 
L 268.693628 135.858629 
L 269.710082 148.372549 
L 270.480123 155.351611 
L 271.096155 159.100163 
L 271.55818 160.753587 
L 271.896997 161.312315 
L 272.143411 161.366472 
L 272.359022 161.16983 
L 272.636237 160.583318 
L 273.005856 159.223372 
L 273.467881 156.616907 
L 274.053112 151.939868 
L 274.792351 144.037619 
L 275.7164 131.567471 
L 277.102473 109.403154 
L 279.412595 72.465755 
L 280.398247 60.27004 
L 281.168288 53.317574 
L 281.753519 49.808508 
L 282.215543 48.206626 
L 282.554361 47.709602 
L 282.769973 47.695563 
L 282.985584 47.917128 
L 283.262799 48.546988 
L 283.632418 49.983789 
L 284.125244 52.932771 
L 284.741277 58.188914 
L 285.480516 66.562214 
L 286.435367 80.075163 
L 287.975448 105.584558 
L 289.885149 136.371141 
L 290.870801 148.793513 
L 291.61004 155.606231 
L 292.195271 159.209112 
L 292.657296 160.846979 
L 292.996114 161.347808 
L 293.211725 161.354165 
L 293.427337 161.11708 
L 293.735353 160.35784 
L 294.135774 158.641003 
L 294.6286 155.430105 
L 295.244633 149.816574 
L 296.014673 140.58395 
L 297.031127 125.445885 
L 299.033233 91.263396 
L 300.419306 69.687703 
L 301.343355 58.536183 
L 302.051793 52.423487 
L 302.606222 49.330224 
L 303.037445 48.017036 
L 303.345461 47.679864 
L 303.561073 47.744071 
L 303.807486 48.119904 
L 304.146304 49.15927 
L 304.577526 51.339844 
L 305.101154 55.225876 
L 305.77879 62.111125 
L 306.610434 73.007358 
L 307.780896 91.593632 
L 310.799456 140.898047 
L 311.692703 151.343493 
L 312.370339 156.981668 
L 312.924768 159.931244 
L 313.325189 161.07532 
L 313.602404 161.371238 
L 313.818015 161.318812 
L 314.064428 160.956392 
L 314.372445 160.052879 
L 314.772866 158.14324 
L 315.296494 154.439077 
L 315.943328 148.111343 
L 316.774972 137.517578 
L 317.88383 120.225964 
L 321.241208 65.875316 
L 322.072852 56.624103 
L 322.750488 51.346157 
L 323.274116 48.819822 
L 323.674537 47.848674 
L 323.92095 47.673018 
L 324.136561 47.784338 
L 324.382974 48.213789 
L 324.721792 49.325946 
L 325.153015 51.596473 
L 325.707444 55.860454 
L 326.38508 62.953878 
L 327.247526 74.509184 
L 328.479591 94.391683 
L 331.190134 138.941524 
L 332.114183 150.200968 
L 332.822621 156.41399 
L 333.37705 159.5931 
L 333.808273 160.975788 
L 334.116289 161.363327 
L 334.331901 161.334462 
L 334.578314 160.998881 
L 334.88633 160.128558 
L 335.286751 158.26102 
L 335.810379 154.609152 
L 336.457213 148.339868 
L 337.258055 138.240818 
L 338.336112 121.594216 
L 341.847498 64.967818 
L 342.679142 55.962321 
L 343.325976 51.097717 
L 343.849604 48.681431 
L 344.219224 47.834911 
L 344.465637 47.67271 
L 344.681248 47.795805 
L 344.927661 48.23865 
L 345.266479 49.368978 
L 345.697702 51.661938 
L 346.252131 55.953036 
L 346.929767 63.075922 
L 347.792213 74.661021 
L 349.024278 94.567485 
L 351.70402 138.656497 
L 352.628069 149.987336 
L 353.336506 156.266935 
L 353.890935 159.503121 
L 354.322158 160.932073 
L 354.630174 161.353172 
L 354.845786 161.34787 
L 355.061397 161.095346 
L 355.369414 160.308148 
L 355.769835 158.546179 
L 356.262661 155.269616 
L 356.878693 149.565599 
L 357.648734 140.221075 
L 358.665188 124.965809 
L 362.6694 61.533379 
L 363.439441 54.036749 
L 364.055473 50.033474 
L 364.517498 48.292667 
L 364.856315 47.728084 
L 365.071927 47.68626 
L 365.287538 47.891746 
L 365.564753 48.517775 
L 365.934373 49.977771 
L 366.396397 52.77988 
L 366.981628 57.802121 
L 367.720867 66.256781 
L 368.675718 79.988878 
L 370.215799 105.946937 
L 372.063897 136.180519 
L 373.049549 148.780508 
L 373.788788 155.658349 
L 374.374019 159.268685 
L 374.836043 160.886132 
L 375.14406 161.340773 
L 375.359671 161.359035 
L 375.575283 161.130025 
L 375.852497 160.473974 
L 376.222117 158.974683 
L 376.714943 155.89803 
L 377.330975 150.423342 
L 378.101016 141.321895 
L 379.086668 126.786641 
L 380.873163 96.348299 
L 382.413244 71.69685 
L 383.368095 59.718511 
L 384.107334 53.011692 
L 384.692565 49.551096 
L 385.123788 48.122143 
L 385.431804 47.701044 
L 385.647415 47.706346 
L 385.863027 47.95887 
L 386.171043 48.746068 
L 386.571464 50.508037 
L 387.06429 53.7846 
L 387.680323 59.488617 
L 388.450364 68.833141 
L 389.466818 84.088408 
L 393.471029 147.520837 
L 394.24107 155.017467 
L 394.857103 159.020742 
L 395.319127 160.761549 
L 395.657945 161.326132 
L 395.873556 161.367956 
L 396.089168 161.16247 
L 396.366383 160.536442 
L 396.736002 159.076446 
L 397.198027 156.274336 
L 397.783257 151.252095 
L 398.522497 142.797435 
L 399.477347 129.065339 
L 401.017429 103.10728 
L 402.865526 72.873698 
L 403.851179 60.273708 
L 404.590418 53.395867 
L 405.175649 49.785531 
L 405.637673 48.168084 
L 405.945689 47.713443 
L 406.161301 47.695182 
L 406.376912 47.924191 
L 406.654127 48.580242 
L 407.023746 50.079533 
L 407.516572 53.156186 
L 408.132605 58.630875 
L 408.902646 67.732322 
L 409.888298 82.267575 
L 411.674792 112.705917 
L 413.214874 137.357366 
L 414.169724 149.335705 
L 414.908964 156.042525 
L 415.494194 159.503121 
L 415.925417 160.932073 
L 416.233434 161.353172 
L 416.449045 161.34787 
L 416.664656 161.095346 
L 416.972673 160.308148 
L 417.373094 158.546179 
L 417.86592 155.269616 
L 418.481953 149.565599 
L 419.251993 140.221075 
L 420.268447 124.965809 
L 424.272659 61.533379 
L 425.0427 54.036749 
L 425.658732 50.033474 
L 426.120757 48.292667 
L 426.459575 47.728084 
L 426.675186 47.68626 
L 426.890797 47.891746 
L 427.168012 48.517775 
L 427.537632 49.977771 
L 427.999656 52.77988 
L 428.584887 57.802121 
L 429.324126 66.256781 
L 430.278977 79.988878 
L 431.819058 105.946937 
L 433.667156 136.180519 
L 434.652808 148.780508 
L 435.392047 155.658349 
L 435.977278 159.268685 
L 436.439303 160.886132 
L 436.747319 161.340773 
L 436.96293 161.359035 
L 437.178542 161.130025 
L 437.455756 160.473974 
L 437.825376 158.974683 
L 438.318202 155.89803 
L 438.934235 150.423342 
L 439.704275 141.321895 
L 440.689927 126.786641 
L 442.476422 96.348299 
L 444.016503 71.69685 
L 444.971354 59.718511 
L 445.710593 53.011692 
L 446.295824 49.551096 
L 446.727047 48.122143 
L 447.035063 47.701044 
L 447.250675 47.706346 
L 447.466286 47.95887 
L 447.774302 48.746068 
L 448.174723 50.508037 
L 448.66755 53.7846 
L 449.283582 59.488617 
L 450.053623 68.833141 
L 451.070077 84.088408 
L 455.074288 147.520837 
L 455.844329 155.017467 
L 456.460362 159.020742 
L 456.922386 160.761549 
L 457.261204 161.326132 
L 457.476816 161.367956 
L 457.692427 161.16247 
L 457.969642 160.536442 
L 458.339261 159.076446 
L 458.801286 156.274336 
L 459.386517 151.252095 
L 460.125756 142.797435 
L 461.080606 129.065339 
L 462.620688 103.10728 
L 464.468785 72.873698 
L 465.454438 60.273708 
L 466.193677 53.395867 
L 466.778908 49.785531 
L 467.240932 48.168084 
L 467.548948 47.713443 
L 467.76456 47.695182 
L 467.980171 47.924191 
L 468.257386 48.580242 
L 468.627005 50.079533 
L 469.119832 53.156186 
L 469.735864 58.630875 
L 470.505905 67.732322 
L 471.491557 82.267575 
L 473.278052 112.705917 
L 474.818133 137.357366 
L 475.772984 149.335705 
L 476.512223 156.042525 
L 477.097454 159.503121 
L 477.528676 160.932073 
L 477.836693 161.353172 
L 478.052304 161.34787 
L 478.267916 161.095346 
L 478.575932 160.308148 
L 478.976353 158.546179 
L 479.469179 155.269616 
L 480.085212 149.565599 
L 480.855252 140.221075 
L 481.871706 124.965809 
L 485.875918 61.533379 
L 486.645959 54.036749 
L 487.261991 50.033474 
L 487.724016 48.292667 
L 488.062834 47.728084 
L 488.278445 47.68626 
L 488.494057 47.891746 
L 488.771271 48.517775 
L 489.140891 49.977771 
L 489.602915 52.77988 
L 490.188146 57.802121 
L 490.927385 66.256781 
L 491.882236 79.988878 
L 493.422317 105.946937 
L 495.270415 136.180519 
L 496.256067 148.780508 
L 496.995306 155.658349 
L 497.580537 159.268685 
L 498.042562 160.886132 
L 498.350578 161.340773 
L 498.566189 161.359035 
L 498.781801 161.130025 
L 499.059015 160.473974 
L 499.428635 158.974683 
L 499.921461 155.89803 
L 500.537494 150.423342 
L 501.307534 141.321895 
L 502.293187 126.786641 
L 504.079681 96.348299 
L 505.619763 71.69685 
L 506.574613 59.718511 
L 507.313852 53.011692 
L 507.899083 49.551096 
L 508.330306 48.122143 
L 508.638322 47.701044 
L 508.853934 47.706346 
L 509.069545 47.95887 
L 509.377561 48.746068 
L 509.777983 50.508037 
L 510.270809 53.7846 
L 510.886841 59.488617 
L 511.656882 68.833141 
L 512.673336 84.088408 
L 516.677548 147.520837 
L 517.447588 155.017467 
L 518.063621 159.020742 
L 518.525645 160.761549 
L 518.864463 161.326132 
L 519.080075 161.367956 
L 519.295686 161.16247 
L 519.572901 160.536442 
L 519.94252 159.076446 
L 520.404545 156.274336 
L 520.989776 151.252095 
L 521.729015 142.797435 
L 522.683865 129.065339 
L 524.223947 103.10728 
L 526.072045 72.873698 
L 527.057697 60.273708 
L 527.796936 53.395867 
L 528.382167 49.785531 
L 528.844191 48.168084 
L 529.152208 47.713443 
L 529.367819 47.695182 
L 529.58343 47.924191 
L 529.860645 48.580242 
L 530.230265 50.079533 
L 530.723091 53.156186 
L 531.339123 58.630875 
L 532.109164 67.732322 
L 533.094816 82.267575 
L 534.881311 112.705917 
L 536.421392 137.357366 
L 537.376243 149.335705 
L 538.115482 156.042525 
L 538.700713 159.503121 
L 539.131936 160.932073 
L 539.439952 161.353172 
L 539.655563 161.34787 
L 539.871175 161.095346 
L 540.179191 160.308148 
L 540.579612 158.546179 
L 541.072438 155.269616 
L 541.688471 149.565599 
L 542.458511 140.221075 
L 543.474965 124.965809 
L 547.479177 61.533379 
L 548.249218 54.036749 
L 548.86525 50.033474 
L 549.327275 48.292667 
L 549.666093 47.728084 
L 549.881704 47.68626 
L 550.097316 47.891746 
L 550.37453 48.517775 
L 550.74415 49.977771 
L 551.206174 52.77988 
L 551.791405 57.802121 
L 552.530644 66.256781 
L 553.485495 79.988878 
L 555.025576 105.946937 
L 556.873674 136.180519 
L 557.859326 148.780508 
L 558.598565 155.658349 
L 559.183796 159.268685 
L 559.645821 160.886132 
L 559.953837 161.340773 
L 560.169448 161.359035 
L 560.38506 161.130025 
L 560.662275 160.473974 
L 561.031894 158.974683 
L 561.52472 155.89803 
L 562.140753 150.423342 
L 562.910794 141.321895 
L 563.896446 126.786641 
L 565.68294 96.348299 
L 567.223022 71.69685 
L 568.177872 59.718511 
L 568.917111 53.011692 
L 569.502342 49.551096 
L 569.933565 48.122143 
L 570.241581 47.701044 
L 570.457193 47.706346 
L 570.672804 47.95887 
L 570.98082 48.746068 
L 571.381242 50.508037 
L 571.874068 53.7846 
L 572.4901 59.488617 
L 573.260141 68.833141 
L 574.276595 84.088408 
L 578.280807 147.520837 
L 579.050847 155.017467 
L 579.66688 159.020742 
L 580.128904 160.761549 
L 580.467722 161.326132 
L 580.683334 161.367956 
L 580.898945 161.16247 
L 581.17616 160.536442 
L 581.545779 159.076446 
L 582.007804 156.274336 
L 582.593035 151.252095 
L 583.332274 142.797435 
L 584.287124 129.065339 
L 585.827206 103.10728 
L 587.675304 72.873698 
L 588.660956 60.273708 
L 589.400195 53.395867 
L 589.985426 49.785531 
L 590.44745 48.168084 
L 590.755467 47.713443 
L 590.971078 47.695182 
L 591.186689 47.924191 
L 591.463904 48.580242 
L 591.833524 50.079533 
L 592.32635 53.156186 
L 592.942382 58.630875 
L 593.712423 67.732322 
L 594.698075 82.267575 
L 596.48457 112.705917 
L 598.024651 137.357366 
L 598.979502 149.335705 
L 599.718741 156.042525 
L 600.303972 159.503121 
L 600.735195 160.932073 
L 601.043211 161.353172 
L 601.258822 161.34787 
L 601.474434 161.095346 
L 601.78245 160.308148 
L 602.182871 158.546179 
L 602.675697 155.269616 
L 603.29173 149.565599 
L 604.061771 140.221075 
L 605.078224 124.965809 
L 609.082436 61.533379 
L 609.852477 54.036749 
L 610.46851 50.033474 
L 610.930534 48.292667 
L 611.269352 47.728084 
L 611.484963 47.68626 
L 611.700575 47.891746 
L 611.977789 48.517775 
L 612.347409 49.977771 
L 612.809433 52.77988 
L 613.394664 57.802121 
L 614.133903 66.256781 
L 615.088754 79.988878 
L 616.628835 105.946937 
L 618.476933 136.180519 
L 619.462585 148.780508 
L 620.201824 155.658349 
L 620.787055 159.268685 
L 621.24908 160.886132 
L 621.557096 161.340773 
L 621.772708 161.359035 
L 621.988319 161.130025 
L 622.265534 160.473974 
L 622.635153 158.974683 
L 623.127979 155.89803 
L 623.744012 150.423342 
L 624.514053 141.321895 
L 625.499705 126.786641 
L 627.286199 96.348299 
L 628.826281 71.69685 
L 629.781131 59.718511 
L 630.52037 53.011692 
L 631.105601 49.551096 
L 631.536824 48.122143 
L 631.84484 47.701044 
L 632.060452 47.706346 
L 632.276063 47.95887 
L 632.58408 48.746068 
L 632.984501 50.508037 
L 633.477327 53.7846 
L 634.093359 59.488617 
L 634.8634 68.833141 
L 635.879854 84.088408 
L 639.884066 147.520837 
L 640.654107 155.017467 
L 641.270139 159.020742 
L 641.732164 160.761549 
L 642.070981 161.326132 
L 642.286593 161.367956 
L 642.502204 161.16247 
L 642.779419 160.536442 
L 643.149039 159.076446 
L 643.611063 156.274336 
L 644.196294 151.252095 
L 644.935533 142.797435 
L 645.890384 129.065339 
L 647.430465 103.10728 
L 649.278563 72.873698 
L 650.264215 60.273708 
L 651.003454 53.395867 
L 651.588685 49.785531 
L 652.050709 48.168084 
L 652.358726 47.713443 
L 652.574337 47.695182 
L 652.789949 47.924191 
L 653.067163 48.580242 
L 653.436783 50.079533 
L 653.929609 53.156186 
L 654.545641 58.630875 
L 655.315682 67.732322 
L 656.301334 82.267575 
L 658.087829 112.705917 
L 659.62791 137.357366 
L 660.582761 149.335705 
L 661.322 156.042525 
L 661.907231 159.503121 
L 662.338454 160.932073 
L 662.64647 161.353172 
L 662.862081 161.34787 
L 663.077693 161.095346 
L 663.385709 160.308148 
L 663.78613 158.546179 
L 664.278956 155.269616 
L 664.894989 149.565599 
L 665.66503 140.221075 
L 666.681483 124.965809 
L 670.685695 61.533379 
L 671.455736 54.036749 
L 672.071769 50.033474 
L 672.533793 48.292667 
L 672.872611 47.728084 
L 673.088222 47.68626 
L 673.303834 47.891746 
L 673.581049 48.517775 
L 673.950668 49.977771 
L 674.412693 52.77988 
L 674.997923 57.802121 
L 675.737163 66.256781 
L 676.692013 79.988878 
L 678.232095 105.946937 
L 680.080192 136.180519 
L 681.065844 148.780508 
L 681.805084 155.658349 
L 682.390315 159.268685 
L 682.852339 160.886132 
L 683.160355 161.340773 
L 683.375967 161.359035 
L 683.591578 161.130025 
L 683.868793 160.473974 
L 684.238412 158.974683 
L 684.731238 155.89803 
L 685.347271 150.423342 
L 686.117312 141.321895 
L 687.102964 126.786641 
L 688.889458 96.348299 
L 690.42954 71.69685 
L 691.38439 59.718511 
L 692.12363 53.011692 
L 692.70886 49.551096 
L 693.140083 48.122143 
L 693.4481 47.701044 
L 693.663711 47.706346 
L 693.879322 47.95887 
L 694.187339 48.746068 
L 694.58776 50.508037 
L 695.080586 53.7846 
L 695.696619 59.488617 
L 696.466659 68.833141 
L 697.483113 84.088408 
L 698.684377 104.518178 
L 698.684377 104.518178 
" clip-path="url(#pdd22f14a20)" style="fill: none; stroke: #ffa231; stroke-width: 4"/>
   </g>
   <g id="patch_3">
    <path d="M 64.170808 165.999376 
L 64.170808 2.834646 
" style="fill: none; stroke: #000000; stroke-width: 2; stroke-linejoin: miter; stroke-linecap: square"/>
   </g>
   <g id="line2d_9">
    <path d="M 82.651786 47.672709 
L 86.009163 50.620885 
L 86.810006 51.082338 
L 87.302832 51.137118 
L 87.703253 50.949343 
L 88.072872 50.513586 
L 88.473293 49.680595 
L 88.935318 48.178831 
L 89.520549 45.436559 
L 90.475399 39.652249 
L 91.461052 34.128846 
L 92.046283 31.960644 
L 92.539109 30.898926 
L 92.93953 30.487172 
L 93.309149 30.389319 
L 93.740372 30.522668 
L 94.325603 30.968374 
L 95.434462 32.155072 
L 101.563986 38.997026 
L 105.937817 43.488173 
L 108.401948 45.774658 
L 109.110385 46.169842 
L 109.57241 46.194094 
L 109.942029 45.992602 
L 110.311649 45.522664 
L 110.71207 44.63863 
L 111.204896 42.943216 
L 111.820929 39.913365 
L 114.069448 27.805092 
L 114.562274 26.592399 
L 114.993497 26.059207 
L 115.363116 25.918908 
L 115.763537 26.011586 
L 116.287165 26.38559 
L 117.180412 27.344028 
L 126.266893 37.898837 
L 130.640724 42.465523 
L 135.076159 46.776561 
L 137.417083 48.815809 
L 138.12552 49.161034 
L 138.556743 49.153591 
L 138.926363 48.932041 
L 139.295982 48.441483 
L 139.727205 47.446974 
L 140.220031 45.680498 
L 140.866865 42.394786 
L 142.961376 30.854339 
L 143.485004 29.432348 
L 143.916227 28.819318 
L 144.285846 28.622165 
L 144.686267 28.665613 
L 145.179094 28.966475 
L 145.979936 29.757298 
L 148.813686 33.069979 
L 153.125914 37.901012 
L 157.499745 42.467549 
L 161.93518 46.778865 
L 165.107748 49.601301 
L 165.90859 50.051524 
L 166.370615 50.088725 
L 166.740234 49.913213 
L 167.109854 49.483924 
L 167.510275 48.65796 
L 167.972299 47.164293 
L 168.55753 44.432142 
L 169.512381 38.663614 
L 170.498033 33.155336 
L 171.083264 30.99577 
L 171.57609 29.941281 
L 171.976511 29.535425 
L 172.346131 29.443049 
L 172.777354 29.582824 
L 173.362585 30.037282 
L 174.471443 31.240512 
L 180.570166 38.135888 
L 184.943997 42.686326 
L 189.379432 46.981967 
L 191.658753 48.962126 
L 192.36719 49.313781 
L 192.829214 49.305572 
L 193.198834 49.075039 
L 193.568454 48.573234 
L 193.999676 47.563301 
L 194.492502 45.778144 
L 195.139337 42.47213 
L 197.203046 31.063371 
L 197.726674 29.612656 
L 198.157896 28.979137 
L 198.558318 28.761883 
L 198.958739 28.811465 
L 199.451565 29.116618 
L 200.283209 29.943606 
L 203.671388 33.890738 
L 207.983616 38.666305 
L 212.357448 43.180389 
L 216.17685 46.828204 
L 217.1317 47.499874 
L 217.655328 47.6294 
L 218.055749 47.504596 
L 218.425369 47.139154 
L 218.82579 46.394083 
L 219.287814 45.002171 
L 219.842244 42.550014 
L 220.673888 37.686811 
L 221.875151 30.860572 
L 222.460382 28.717878 
L 222.953208 27.677658 
L 223.353629 27.28387 
L 223.723249 27.203126 
L 224.154472 27.357035 
L 224.739703 27.831399 
L 225.879363 29.110067 
L 231.762474 35.967501 
L 236.105504 40.634621 
L 239.986509 44.501763 
L 241.002963 45.269794 
L 241.526591 45.4268 
L 241.927012 45.326709 
L 242.296631 44.987306 
L 242.697053 44.273636 
L 243.159077 42.920392 
L 243.713506 40.513153 
L 244.514349 35.890158 
L 245.746414 28.882441 
L 246.331645 26.729658 
L 246.824471 25.682005 
L 247.224892 25.285529 
L 247.594512 25.205665 
L 248.025735 25.364504 
L 248.610966 25.85081 
L 249.719824 27.123956 
L 255.726142 34.301488 
L 260.03837 39.049284 
L 263.272541 42.328353 
L 264.104185 42.904223 
L 264.597011 42.998988 
L 264.966631 42.855362 
L 265.33625 42.454509 
L 265.736672 41.655947 
L 266.198696 40.191464 
L 266.783927 37.498432 
L 267.769579 31.630674 
L 268.72443 26.449457 
L 269.309661 24.3823 
L 269.771685 23.445945 
L 270.172106 23.070323 
L 270.541726 23.008229 
L 270.972949 23.186075 
L 271.588981 23.728078 
L 272.759443 25.125508 
L 278.303736 31.949112 
L 282.585163 36.822068 
L 285.542119 39.906097 
L 286.31216 40.434705 
L 286.774185 40.51947 
L 287.143804 40.372564 
L 287.513424 39.962964 
L 287.913845 39.149658 
L 288.375869 37.664801 
L 288.9611 34.950892 
L 289.977554 28.911017 
L 290.901603 24.005883 
L 291.486834 22.010901 
L 291.948858 21.128977 
L 292.34928 20.794639 
L 292.718899 20.764735 
L 293.150122 20.973291 
L 293.766154 21.549201 
L 295.029021 23.114309 
L 300.172893 29.628395 
L 304.423518 34.622148 
L 307.134062 37.530686 
L 307.873301 38.047533 
L 308.335325 38.133073 
L 308.704945 37.980499 
L 309.074564 37.559388 
L 309.474986 36.728111 
L 309.93701 35.219291 
L 310.522241 32.48112 
L 311.6311 25.908059 
L 312.462744 21.644154 
L 313.017173 19.800405 
L 313.479197 18.936188 
L 313.879619 18.616906 
L 314.249238 18.600627 
L 314.680461 18.824762 
L 315.327295 19.457645 
L 316.651765 21.154349 
L 321.580026 27.558127 
L 325.799849 32.653863 
L 328.325583 35.430074 
L 329.064822 35.948593 
L 329.526846 36.021061 
L 329.896466 35.847814 
L 330.266085 35.396718 
L 330.666507 34.524484 
L 331.159333 32.838767 
L 331.775365 29.834519 
L 333.900678 18.58185 
L 334.393504 17.34165 
L 334.824727 16.797077 
L 335.194346 16.661077 
L 335.594767 16.773493 
L 336.118395 17.19322 
L 336.980841 18.221348 
L 346.590949 30.650248 
L 349.178286 33.582047 
L 349.917525 34.132045 
L 350.37955 34.229637 
L 350.749169 34.080441 
L 351.118789 33.656974 
L 351.51921 32.817863 
L 351.981234 31.297152 
L 352.566465 28.550528 
L 354.907389 16.508589 
L 355.400215 15.468883 
L 355.800636 15.088746 
L 356.170256 15.034261 
L 356.570677 15.213186 
L 357.155908 15.759493 
L 358.233965 17.148504 
L 364.425093 25.486227 
L 368.552511 30.601167 
L 370.061791 32.216251 
L 370.677823 32.596399 
L 371.109046 32.618687 
L 371.447864 32.42171 
L 371.817484 31.92582 
L 372.217905 30.99342 
L 372.710731 29.229263 
L 373.357565 25.979092 
L 375.236465 15.90498 
L 375.760092 14.424793 
L 376.191315 13.782294 
L 376.560935 13.582928 
L 376.930554 13.636288 
L 377.392579 13.954523 
L 378.101016 14.753402 
L 379.856709 17.189942 
L 384.168937 23.09318 
L 388.327157 28.406377 
L 390.206057 30.542896 
L 390.883692 31.010569 
L 391.314915 31.063394 
L 391.653733 30.896006 
L 392.023353 30.437864 
L 392.423774 29.551144 
L 392.9166 27.844604 
L 393.563434 24.656751 
L 395.534739 14.236254 
L 396.058366 12.859128 
L 396.489589 12.292838 
L 396.859209 12.147582 
L 397.228828 12.243648 
L 397.721654 12.631406 
L 398.522497 13.601339 
L 401.202238 17.412258 
L 405.360458 23.098522 
L 409.17986 27.962736 
L 410.257917 29.064541 
L 410.812347 29.355835 
L 411.212768 29.328339 
L 411.551586 29.080222 
L 411.921205 28.511639 
L 412.352428 27.38911 
L 412.876056 25.326458 
L 413.615295 21.356294 
L 415.03217 13.645117 
L 415.586599 11.798452 
L 416.048624 10.935115 
L 416.449045 10.625421 
L 416.818665 10.627022 
L 417.249887 10.882475 
L 417.86592 11.539946 
L 419.128787 13.297508 
L 424.180254 20.471102 
L 428.184466 25.747343 
L 429.508936 27.228295 
L 430.124969 27.618368 
L 430.52539 27.636862 
L 430.864208 27.437182 
L 431.233827 26.930637 
L 431.66505 25.888452 
L 432.157876 24.058417 
L 432.835512 20.580272 
L 434.4988 11.654497 
L 435.053229 9.97831 
L 435.484452 9.279392 
L 435.854072 9.045391 
L 436.223691 9.078747 
L 436.654914 9.363137 
L 437.301748 10.08984 
L 438.687822 12.074702 
L 443.369669 18.835206 
L 447.404683 24.258537 
L 448.852359 25.932805 
L 449.468392 26.348355 
L 449.868813 26.388803 
L 450.207631 26.21157 
L 450.577251 25.733338 
L 450.977672 24.816681 
L 451.470498 23.070846 
L 452.117332 19.853561 
L 453.934628 10.223409 
L 454.458256 8.73211 
L 454.889479 8.085117 
L 455.259098 7.888853 
L 455.628718 7.952649 
L 456.090742 8.29341 
L 456.79918 9.14166 
L 458.524071 11.682713 
L 462.805497 17.914692 
L 466.902114 23.481513 
L 468.503799 25.390663 
L 469.150633 25.859746 
L 469.581856 25.919404 
L 469.920674 25.748819 
L 470.290293 25.278848 
L 470.690715 24.371992 
L 471.183541 22.638364 
L 471.830375 19.434365 
L 473.678473 9.694962 
L 474.2021 8.244982 
L 474.633323 7.628971 
L 475.002943 7.454803 
L 475.372562 7.535989 
L 475.834587 7.892371 
L 476.573826 8.797315 
L 478.483527 11.63587 
L 482.672549 17.741734 
L 486.769165 23.322403 
L 488.586461 25.522582 
L 489.264097 26.025768 
L 489.69532 26.091178 
L 490.034138 25.927081 
L 490.403758 25.466087 
L 490.804179 24.57058 
L 491.297005 22.851297 
L 491.943839 19.661292 
L 493.822738 9.785526 
L 494.346366 8.363856 
L 494.777589 7.768617 
L 495.147209 7.608697 
L 495.516828 7.70043 
L 495.978853 8.065233 
L 496.718092 8.975698 
L 498.689396 11.904482 
L 502.878418 17.992869 
L 507.005836 23.598924 
L 508.946339 25.960713 
L 509.623974 26.483508 
L 510.055197 26.573655 
L 510.394015 26.437133 
L 510.732833 26.061834 
L 511.133254 25.247675 
L 511.595279 23.75368 
L 512.18051 21.045802 
L 514.45983 9.50553 
L 514.921855 8.513431 
L 515.322276 8.11238 
L 515.691895 8.051802 
L 516.092317 8.238554 
L 516.646746 8.781738 
L 517.632398 10.126238 
L 524.778376 20.439751 
L 528.62858 25.509125 
L 529.76824 26.739756 
L 530.353471 27.078008 
L 530.753892 27.066513 
L 531.09271 26.832195 
L 531.46233 26.278906 
L 531.893553 25.174385 
L 532.41718 23.133381 
L 533.156419 19.192012 
L 534.573294 11.526786 
L 535.127724 9.695957 
L 535.589748 8.845823 
L 535.959368 8.558209 
L 536.328987 8.550778 
L 536.76021 8.803187 
L 537.376243 9.467342 
L 538.577506 11.167225 
L 543.844585 18.806871 
L 547.972003 24.360976 
L 550.066514 26.905307 
L 550.774951 27.456818 
L 551.206174 27.550319 
L 551.575794 27.396654 
L 551.945413 26.956631 
L 552.345835 26.088907 
L 552.838661 24.405378 
L 553.454693 21.418336 
L 555.487601 10.840769 
L 555.980427 9.597658 
L 556.41165 9.057637 
L 556.781269 8.934152 
L 557.150889 9.051255 
L 557.643715 9.466028 
L 558.444557 10.478006 
L 561.278307 14.647239 
L 565.405726 20.47199 
L 569.440739 25.79171 
L 570.888416 27.43278 
L 571.504448 27.83719 
L 571.904869 27.872137 
L 572.243687 27.691495 
L 572.613307 27.210786 
L 573.013728 26.292516 
L 573.506554 24.544981 
L 574.153388 21.322483 
L 576.001486 11.52541 
L 576.525114 10.058446 
L 576.956337 9.428672 
L 577.325956 9.24296 
L 577.695576 9.312855 
L 578.1576 9.655459 
L 578.866038 10.497402 
L 580.621731 13.050805 
L 584.903157 19.191161 
L 589.061377 24.760625 
L 591.279094 27.451038 
L 591.987532 28.00766 
L 592.449556 28.107492 
L 592.788374 27.968608 
L 593.127192 27.592436 
L 593.527613 26.778769 
L 593.989638 25.286115 
L 594.574869 22.577647 
L 596.884991 10.873117 
L 597.347015 9.898002 
L 597.747437 9.508204 
L 598.117056 9.454015 
L 598.517477 9.64327 
L 599.071907 10.183582 
L 600.057559 11.512173 
L 607.111132 21.550689 
L 611.022939 26.633215 
L 612.193401 27.886166 
L 612.778632 28.22304 
L 613.179053 28.214657 
L 613.517871 27.98587 
L 613.88749 27.441391 
L 614.318713 26.349517 
L 614.842341 24.32343 
L 615.550778 20.570824 
L 617.029257 12.543965 
L 617.583686 10.72557 
L 618.04571 9.88489 
L 618.41533 9.602576 
L 618.78495 9.597903 
L 619.216172 9.850398 
L 619.832205 10.510054 
L 621.06427 12.238511 
L 626.238944 19.664264 
L 630.397164 25.202412 
L 632.491675 27.71314 
L 633.169311 28.230268 
L 633.600533 28.323845 
L 633.970153 28.172148 
L 634.339772 27.735828 
L 634.740194 26.873608 
L 635.23302 25.197417 
L 635.849052 22.216273 
L 637.88196 11.593087 
L 638.374786 10.330447 
L 638.806009 9.774856 
L 639.175628 9.639889 
L 639.545248 9.747374 
L 640.038074 10.151899 
L 640.838916 11.151561 
L 643.54946 15.110693 
L 647.676878 20.905391 
L 651.742693 26.23763 
L 653.221171 27.908571 
L 653.837204 28.31243 
L 654.237625 28.348886 
L 654.576443 28.170868 
L 654.946063 27.694372 
L 655.346484 26.781823 
L 655.83931 25.041613 
L 656.486144 21.82535 
L 658.365044 11.889096 
L 658.888671 10.453149 
L 659.319894 9.845945 
L 659.689514 9.675417 
L 660.059133 9.756166 
L 660.521158 10.106766 
L 661.260397 10.993785 
L 663.200899 13.814109 
L 667.389921 19.776895 
L 671.548141 25.30755 
L 673.61185 27.773693 
L 674.289486 28.284864 
L 674.720709 28.371924 
L 675.090328 28.212546 
L 675.459948 27.766632 
L 675.860369 26.892384 
L 676.353195 25.200813 
L 677.000029 22.034061 
L 678.940532 11.809439 
L 679.46416 10.413521 
L 679.895383 9.835578 
L 680.265002 9.685226 
L 680.634622 9.78113 
L 681.127448 10.175503 
L 681.897488 11.125073 
L 684.269214 14.585574 
L 688.396632 20.41418 
L 692.524051 25.861143 
L 694.21814 27.835423 
L 694.864975 28.300053 
L 695.296197 28.367451 
L 695.635015 28.21015 
L 696.004635 27.761671 
L 696.405056 26.884198 
L 696.897882 25.188507 
L 697.544716 22.017511 
L 698.684377 15.400777 
L 698.684377 15.400777 
" clip-path="url(#pdd22f14a20)" style="fill: none; stroke: #4eba88; stroke-width: 4"/>
   </g>
   <g id="line2d_10">
    <path d="M 82.651786 47.672709 
L 299.094836 19.245509 
L 698.684377 19.245509 
L 698.684377 19.245509 
" clip-path="url(#pdd22f14a20)" style="fill: none; stroke: #710068; stroke-width: 4"/>
   </g>
  </g>
 </g>
 <defs>
  <clipPath id="pdd22f14a20">
   <rect x="64.170808" y="2.834646" width="652.994547" height="163.164731"/>
  </clipPath>
 </defs>
</svg>
