<?xml version="1.0" encoding="utf-8" standalone="no"?>
<!DOCTYPE svg PUBLIC "-//W3C//DTD SVG 1.1//EN"
  "http://www.w3.org/Graphics/SVG/1.1/DTD/svg11.dtd">
<svg xmlns:xlink="http://www.w3.org/1999/xlink" width="979.2pt" height="264.96pt" viewBox="0 0 979.2 264.96" xmlns="http://www.w3.org/2000/svg" version="1.1">
 <metadata>
  <rdf:RDF xmlns:dc="http://purl.org/dc/elements/1.1/" xmlns:cc="http://creativecommons.org/ns#" xmlns:rdf="http://www.w3.org/1999/02/22-rdf-syntax-ns#">
   <cc:Work>
    <dc:type rdf:resource="http://purl.org/dc/dcmitype/StillImage"/>
    <dc:date>2024-08-20T13:38:05.350989</dc:date>
    <dc:format>image/svg+xml</dc:format>
    <dc:creator>
     <cc:Agent>
      <dc:title>Matplotlib v3.8.4, https://matplotlib.org/</dc:title>
     </cc:Agent>
    </dc:creator>
   </cc:Work>
  </rdf:RDF>
 </metadata>
 <defs>
  <style type="text/css">*{stroke-linejoin: round; stroke-linecap: butt}</style>
 </defs>
 <g id="figure_1">
  <g id="patch_1">
   <path d="M 0 264.96 
L 979.2 264.96 
L 979.2 0 
L 0 0 
L 0 264.96 
z
" style="fill: none"/>
  </g>
  <g id="axes_1">
   <g id="patch_2">
    <path d="M 63.788308 231.265354 
L 976.365354 231.265354 
L 976.365354 7.670345 
L 63.788308 7.670345 
L 63.788308 231.265354 
z
" style="fill: none"/>
   </g>
   <g id="line2d_1">
    <path d="M 106.834395 13.998505 
L 115.443612 25.233538 
L 124.05283 31.51782 
L 132.662047 36.334199 
L 141.271265 40.346069 
L 149.880482 43.828164 
L 158.489699 46.926751 
L 167.098917 49.731107 
L 175.708134 52.300727 
L 184.317352 54.677776 
L 192.926569 56.893553 
L 201.535787 58.972141 
L 210.145004 60.932624 
L 218.754221 62.790505 
L 227.363439 64.558646 
L 235.972656 66.247925 
L 244.581874 67.867709 
L 253.191091 69.4262 
L 261.800308 70.930695 
L 270.409526 72.3878 
L 279.018743 73.803593 
L 287.627961 75.183766 
L 296.237178 76.53375 
L 304.846396 77.858826 
L 313.455613 79.164233 
L 322.06483 80.455282 
L 330.674048 81.737466 
L 339.283265 83.016595 
L 347.892483 84.298945 
L 356.5017 85.591441 
L 365.110917 86.901876 
L 373.720135 88.239201 
L 382.329352 89.613884 
L 390.93857 91.0384 
L 399.547787 92.527871 
L 408.157005 94.100948 
L 416.766222 95.781019 
L 425.375439 97.597905 
L 433.984657 99.590245 
L 442.593874 101.808897 
L 451.203092 104.321751 
L 459.812309 107.220446 
L 468.421527 110.629189 
L 477.030744 114.71457 
L 485.639961 119.690651 
L 494.249179 125.801174 
L 502.858396 133.237408 
L 511.467614 141.94494 
L 520.076831 151.39801 
L 528.686048 160.670294 
L 537.295266 168.930545 
L 545.904483 175.828525 
L 554.513701 181.423944 
L 563.122918 185.944462 
L 571.732136 189.630664 
L 580.341353 192.681743 
L 588.95057 195.249064 
L 597.559788 197.444346 
L 606.169005 199.349656 
L 614.778223 201.025653 
L 623.38744 202.517679 
L 631.996658 203.860073 
L 640.605875 205.079192 
L 649.215092 206.195539 
L 657.82431 207.225267 
L 666.433527 208.181253 
L 675.042745 209.073876 
L 683.651962 209.911591 
L 692.261179 210.70135 
L 700.870397 211.448922 
L 709.479614 212.159131 
L 718.088832 212.836047 
L 726.698049 213.483123 
L 735.307267 214.103311 
L 743.916484 214.699153 
L 752.525701 215.272845 
L 761.134919 215.826299 
L 769.744136 216.361187 
L 778.353354 216.878979 
L 786.962571 217.380972 
L 795.571789 217.868315 
L 804.181006 218.342034 
L 812.790223 218.803044 
L 821.399441 219.252166 
L 830.008658 219.690139 
L 838.617876 220.117631 
L 847.227093 220.535248 
L 855.83631 220.94354 
L 864.445528 221.343009 
L 873.054745 221.734112 
L 881.663963 222.117271 
L 890.27318 222.492871 
L 898.882398 222.861268 
L 907.491615 223.222791 
L 916.100832 223.577743 
L 924.71005 223.926406 
L 933.319267 224.269043 
L 941.928485 224.605896 
L 950.537702 224.937194 
" clip-path="url(#p262f739519)" style="fill: none; stroke: #377eb8; stroke-width: 4"/>
   </g>
   <g id="matplotlib.axis_1">
    <g id="xtick_1">
     <g id="line2d_2">
      <defs>
       <path id="m5d6f629acd" d="M 0 0 
L 0 -5 
" style="stroke: #000000"/>
      </defs>
      <g>
       <use xlink:href="#m5d6f629acd" x="175.708134" y="231.265354" style="stroke: #000000"/>
      </g>
     </g>
     <g id="text_1">
      <!-- $0.6$ -->
      <g transform="translate(157.788134 256.040979) scale(0.28 -0.28)">
       <defs>
        <path id="Cmr10-30" d="M 1600 -141 
Q 816 -141 533 504 
Q 250 1150 250 2041 
Q 250 2597 351 3087 
Q 453 3578 754 3920 
Q 1056 4263 1600 4263 
Q 2022 4263 2290 4056 
Q 2559 3850 2700 3523 
Q 2841 3197 2892 2823 
Q 2944 2450 2944 2041 
Q 2944 1491 2842 1011 
Q 2741 531 2444 195 
Q 2147 -141 1600 -141 
z
M 1600 25 
Q 1956 25 2131 390 
Q 2306 756 2347 1200 
Q 2388 1644 2388 2144 
Q 2388 2625 2347 3031 
Q 2306 3438 2132 3767 
Q 1959 4097 1600 4097 
Q 1238 4097 1063 3765 
Q 888 3434 847 3029 
Q 806 2625 806 2144 
Q 806 1788 823 1472 
Q 841 1156 916 820 
Q 991 484 1158 254 
Q 1325 25 1600 25 
z
" transform="scale(0.015625)"/>
        <path id="Cmmi10-3a" d="M 538 353 
Q 538 497 644 600 
Q 750 703 891 703 
Q 978 703 1062 656 
Q 1147 609 1194 525 
Q 1241 441 1241 353 
Q 1241 213 1137 106 
Q 1034 0 891 0 
Q 750 0 644 106 
Q 538 213 538 353 
z
" transform="scale(0.015625)"/>
        <path id="Cmr10-36" d="M 1600 -141 
Q 1203 -141 937 70 
Q 672 281 526 617 
Q 381 953 325 1322 
Q 269 1691 269 2069 
Q 269 2575 466 3084 
Q 663 3594 1045 3928 
Q 1428 4263 1953 4263 
Q 2172 4263 2361 4180 
Q 2550 4097 2658 3936 
Q 2766 3775 2766 3547 
Q 2766 3416 2677 3327 
Q 2588 3238 2456 3238 
Q 2331 3238 2240 3328 
Q 2150 3419 2150 3547 
Q 2150 3672 2240 3762 
Q 2331 3853 2456 3853 
L 2491 3853 
Q 2409 3969 2261 4023 
Q 2113 4078 1953 4078 
Q 1759 4078 1595 3993 
Q 1431 3909 1300 3765 
Q 1169 3622 1081 3448 
Q 994 3275 945 3053 
Q 897 2831 884 2637 
Q 872 2444 872 2150 
Q 984 2413 1190 2580 
Q 1397 2747 1656 2747 
Q 1941 2747 2175 2631 
Q 2409 2516 2578 2311 
Q 2747 2106 2836 1843 
Q 2925 1581 2925 1313 
Q 2925 938 2758 598 
Q 2591 259 2287 59 
Q 1984 -141 1600 -141 
z
M 1600 63 
Q 1847 63 1997 175 
Q 2147 288 2217 473 
Q 2288 659 2305 848 
Q 2322 1038 2322 1313 
Q 2322 1675 2287 1931 
Q 2253 2188 2100 2383 
Q 1947 2578 1631 2578 
Q 1372 2578 1205 2403 
Q 1038 2228 961 1961 
Q 884 1694 884 1447 
Q 884 1363 891 1319 
Q 891 1309 889 1303 
Q 888 1297 884 1288 
Q 884 1013 940 731 
Q 997 450 1156 256 
Q 1316 63 1600 63 
z
" transform="scale(0.015625)"/>
       </defs>
       <use xlink:href="#Cmr10-30" transform="translate(0 0.390625)"/>
       <use xlink:href="#Cmmi10-3a" transform="translate(50 0.390625)"/>
       <use xlink:href="#Cmr10-36" transform="translate(77.685547 0.390625)"/>
      </g>
     </g>
    </g>
    <g id="xtick_2">
     <g id="line2d_3">
      <g>
       <use xlink:href="#m5d6f629acd" x="347.892483" y="231.265354" style="stroke: #000000"/>
      </g>
     </g>
     <g id="text_2">
      <!-- $0.8$ -->
      <g transform="translate(329.972483 256.040979) scale(0.28 -0.28)">
       <defs>
        <path id="Cmr10-38" d="M 269 972 
Q 269 1356 522 1651 
Q 775 1947 1172 2144 
L 934 2297 
Q 716 2441 578 2680 
Q 441 2919 441 3181 
Q 441 3488 602 3734 
Q 763 3981 1030 4122 
Q 1297 4263 1600 4263 
Q 1884 4263 2148 4147 
Q 2413 4031 2583 3815 
Q 2753 3600 2753 3303 
Q 2753 3088 2651 2903 
Q 2550 2719 2373 2572 
Q 2197 2425 1997 2322 
L 2363 2088 
Q 2616 1922 2770 1653 
Q 2925 1384 2925 1088 
Q 2925 741 2739 456 
Q 2553 172 2247 15 
Q 1941 -141 1600 -141 
Q 1269 -141 961 -6 
Q 653 128 461 383 
Q 269 638 269 972 
z
M 616 972 
Q 616 719 755 509 
Q 894 300 1122 181 
Q 1350 63 1600 63 
Q 1972 63 2275 280 
Q 2578 497 2578 856 
Q 2578 978 2529 1098 
Q 2481 1219 2395 1317 
Q 2309 1416 2203 1478 
L 1344 2034 
Q 1144 1928 976 1765 
Q 809 1603 712 1400 
Q 616 1197 616 972 
z
M 1056 2925 
L 1831 2425 
Q 2100 2581 2272 2803 
Q 2444 3025 2444 3303 
Q 2444 3519 2323 3698 
Q 2203 3878 2009 3978 
Q 1816 4078 1594 4078 
Q 1400 4078 1203 4003 
Q 1006 3928 878 3779 
Q 750 3631 750 3431 
Q 750 3131 1056 2925 
z
" transform="scale(0.015625)"/>
       </defs>
       <use xlink:href="#Cmr10-30" transform="translate(0 0.390625)"/>
       <use xlink:href="#Cmmi10-3a" transform="translate(50 0.390625)"/>
       <use xlink:href="#Cmr10-38" transform="translate(77.685547 0.390625)"/>
      </g>
     </g>
    </g>
    <g id="xtick_3">
     <g id="line2d_4">
      <g>
       <use xlink:href="#m5d6f629acd" x="520.076831" y="231.265354" style="stroke: #000000"/>
      </g>
     </g>
     <g id="text_3">
      <!-- $1.0$ -->
      <g transform="translate(502.156831 256.040979) scale(0.28 -0.28)">
       <defs>
        <path id="Cmr10-31" d="M 594 0 
L 594 225 
Q 1394 225 1394 428 
L 1394 3788 
Q 1063 3628 556 3628 
L 556 3853 
Q 1341 3853 1741 4263 
L 1831 4263 
Q 1853 4263 1873 4245 
Q 1894 4228 1894 4206 
L 1894 428 
Q 1894 225 2694 225 
L 2694 0 
L 594 0 
z
" transform="scale(0.015625)"/>
       </defs>
       <use xlink:href="#Cmr10-31" transform="translate(0 0.390625)"/>
       <use xlink:href="#Cmmi10-3a" transform="translate(50 0.390625)"/>
       <use xlink:href="#Cmr10-30" transform="translate(77.685547 0.390625)"/>
      </g>
     </g>
    </g>
    <g id="xtick_4">
     <g id="line2d_5">
      <g>
       <use xlink:href="#m5d6f629acd" x="692.261179" y="231.265354" style="stroke: #000000"/>
      </g>
     </g>
     <g id="text_4">
      <!-- $1.2$ -->
      <g transform="translate(674.341179 256.040979) scale(0.28 -0.28)">
       <defs>
        <path id="Cmr10-32" d="M 319 0 
L 319 172 
Q 319 188 331 206 
L 1325 1306 
Q 1550 1550 1690 1715 
Q 1831 1881 1968 2097 
Q 2106 2313 2186 2536 
Q 2266 2759 2266 3009 
Q 2266 3272 2169 3511 
Q 2072 3750 1880 3894 
Q 1688 4038 1416 4038 
Q 1138 4038 916 3870 
Q 694 3703 603 3438 
Q 628 3444 672 3444 
Q 816 3444 917 3347 
Q 1019 3250 1019 3097 
Q 1019 2950 917 2848 
Q 816 2747 672 2747 
Q 522 2747 420 2851 
Q 319 2956 319 3097 
Q 319 3338 409 3548 
Q 500 3759 670 3923 
Q 841 4088 1055 4175 
Q 1269 4263 1509 4263 
Q 1875 4263 2190 4108 
Q 2506 3953 2690 3670 
Q 2875 3388 2875 3009 
Q 2875 2731 2753 2481 
Q 2631 2231 2440 2026 
Q 2250 1822 1953 1562 
Q 1656 1303 1563 1216 
L 838 519 
L 1453 519 
Q 1906 519 2211 526 
Q 2516 534 2534 550 
Q 2609 631 2688 1141 
L 2875 1141 
L 2694 0 
L 319 0 
z
" transform="scale(0.015625)"/>
       </defs>
       <use xlink:href="#Cmr10-31" transform="translate(0 0.390625)"/>
       <use xlink:href="#Cmmi10-3a" transform="translate(50 0.390625)"/>
       <use xlink:href="#Cmr10-32" transform="translate(77.685547 0.390625)"/>
      </g>
     </g>
    </g>
    <g id="xtick_5">
     <g id="line2d_6">
      <g>
       <use xlink:href="#m5d6f629acd" x="864.445528" y="231.265354" style="stroke: #000000"/>
      </g>
     </g>
     <g id="text_5">
      <!-- $1.4$ -->
      <g transform="translate(846.525528 256.040979) scale(0.28 -0.28)">
       <defs>
        <path id="Cmr10-34" d="M 178 1056 
L 178 1281 
L 2156 4231 
Q 2178 4263 2222 4263 
L 2316 4263 
Q 2388 4263 2388 4191 
L 2388 1281 
L 3016 1281 
L 3016 1056 
L 2388 1056 
L 2388 428 
Q 2388 297 2575 261 
Q 2763 225 3009 225 
L 3009 0 
L 1247 0 
L 1247 225 
Q 1494 225 1681 261 
Q 1869 297 1869 428 
L 1869 1056 
L 178 1056 
z
M 391 1281 
L 1906 1281 
L 1906 3547 
L 391 1281 
z
" transform="scale(0.015625)"/>
       </defs>
       <use xlink:href="#Cmr10-31" transform="translate(0 0.390625)"/>
       <use xlink:href="#Cmmi10-3a" transform="translate(50 0.390625)"/>
       <use xlink:href="#Cmr10-34" transform="translate(77.685547 0.390625)"/>
      </g>
     </g>
    </g>
   </g>
   <g id="matplotlib.axis_2">
    <g id="ytick_1">
     <g id="line2d_7">
      <defs>
       <path id="m96274afc44" d="M 0 0 
L 5 0 
" style="stroke: #000000"/>
      </defs>
      <g>
       <use xlink:href="#m96274afc44" x="63.788308" y="197.128371" style="stroke: #000000"/>
      </g>
     </g>
     <g id="text_6">
      <!-- $-0.5$ -->
      <g transform="translate(2.608308 207.766184) scale(0.28 -0.28)">
       <defs>
        <path id="Cmsy10-a1" d="M 653 1472 
Q 600 1472 565 1512 
Q 531 1553 531 1600 
Q 531 1647 565 1687 
Q 600 1728 653 1728 
L 4325 1728 
Q 4375 1728 4408 1687 
Q 4441 1647 4441 1600 
Q 4441 1553 4408 1512 
Q 4375 1472 4325 1472 
L 653 1472 
z
" transform="scale(0.015625)"/>
        <path id="Cmr10-35" d="M 556 728 
Q 622 541 758 387 
Q 894 234 1080 148 
Q 1266 63 1466 63 
Q 1928 63 2103 422 
Q 2278 781 2278 1294 
Q 2278 1516 2270 1667 
Q 2263 1819 2228 1959 
Q 2169 2184 2020 2353 
Q 1872 2522 1656 2522 
Q 1441 2522 1286 2456 
Q 1131 2391 1034 2303 
Q 938 2216 863 2119 
Q 788 2022 769 2016 
L 697 2016 
Q 681 2016 657 2036 
Q 634 2056 634 2075 
L 634 4213 
Q 634 4228 654 4245 
Q 675 4263 697 4263 
L 716 4263 
Q 1147 4056 1631 4056 
Q 2106 4056 2547 4263 
L 2566 4263 
Q 2588 4263 2606 4247 
Q 2625 4231 2625 4213 
L 2625 4153 
Q 2625 4122 2613 4122 
Q 2394 3831 2064 3668 
Q 1734 3506 1381 3506 
Q 1125 3506 856 3578 
L 856 2369 
Q 1069 2541 1236 2614 
Q 1403 2688 1663 2688 
Q 2016 2688 2295 2484 
Q 2575 2281 2725 1954 
Q 2875 1628 2875 1288 
Q 2875 903 2686 575 
Q 2497 247 2172 53 
Q 1847 -141 1466 -141 
Q 1150 -141 886 21 
Q 622 184 470 459 
Q 319 734 319 1044 
Q 319 1188 412 1278 
Q 506 1369 647 1369 
Q 788 1369 883 1276 
Q 978 1184 978 1044 
Q 978 906 883 811 
Q 788 716 647 716 
Q 625 716 597 720 
Q 569 725 556 728 
z
" transform="scale(0.015625)"/>
       </defs>
       <use xlink:href="#Cmsy10-a1" transform="translate(0 0.390625)"/>
       <use xlink:href="#Cmr10-30" transform="translate(77.685547 0.390625)"/>
       <use xlink:href="#Cmmi10-3a" transform="translate(127.685547 0.390625)"/>
       <use xlink:href="#Cmr10-35" transform="translate(155.371094 0.390625)"/>
      </g>
     </g>
    </g>
    <g id="ytick_2">
     <g id="line2d_8">
      <g>
       <use xlink:href="#m96274afc44" x="63.788308" y="151.39801" style="stroke: #000000"/>
      </g>
     </g>
     <g id="text_7">
      <!-- $0.0$ -->
      <g transform="translate(24.448308 162.035822) scale(0.28 -0.28)">
       <use xlink:href="#Cmr10-30" transform="translate(0 0.390625)"/>
       <use xlink:href="#Cmmi10-3a" transform="translate(50 0.390625)"/>
       <use xlink:href="#Cmr10-30" transform="translate(77.685547 0.390625)"/>
      </g>
     </g>
    </g>
    <g id="ytick_3">
     <g id="line2d_9">
      <g>
       <use xlink:href="#m96274afc44" x="63.788308" y="105.667648" style="stroke: #000000"/>
      </g>
     </g>
     <g id="text_8">
      <!-- $0.5$ -->
      <g transform="translate(24.448308 116.305461) scale(0.28 -0.28)">
       <use xlink:href="#Cmr10-30" transform="translate(0 0.390625)"/>
       <use xlink:href="#Cmmi10-3a" transform="translate(50 0.390625)"/>
       <use xlink:href="#Cmr10-35" transform="translate(77.685547 0.390625)"/>
      </g>
     </g>
    </g>
    <g id="ytick_4">
     <g id="line2d_10">
      <g>
       <use xlink:href="#m96274afc44" x="63.788308" y="59.937287" style="stroke: #000000"/>
      </g>
     </g>
     <g id="text_9">
      <!-- $1.0$ -->
      <g transform="translate(24.448308 70.575099) scale(0.28 -0.28)">
       <use xlink:href="#Cmr10-31" transform="translate(0 0.390625)"/>
       <use xlink:href="#Cmmi10-3a" transform="translate(50 0.390625)"/>
       <use xlink:href="#Cmr10-30" transform="translate(77.685547 0.390625)"/>
      </g>
     </g>
    </g>
    <g id="ytick_5">
     <g id="line2d_11">
      <g>
       <use xlink:href="#m96274afc44" x="63.788308" y="14.206925" style="stroke: #000000"/>
      </g>
     </g>
     <g id="text_10">
      <!-- $1.5$ -->
      <g transform="translate(24.448308 24.844738) scale(0.28 -0.28)">
       <use xlink:href="#Cmr10-31" transform="translate(0 0.390625)"/>
       <use xlink:href="#Cmmi10-3a" transform="translate(50 0.390625)"/>
       <use xlink:href="#Cmr10-35" transform="translate(77.685547 0.390625)"/>
      </g>
     </g>
    </g>
   </g>
   <g id="line2d_12">
    <path d="M 89.61596 91.125335 
L 98.225177 91.200735 
L 106.834395 91.279214 
L 115.443612 91.360965 
L 124.05283 91.446196 
L 132.662047 91.535135 
L 141.271265 91.628027 
L 149.880482 91.725143 
L 158.489699 91.826775 
L 167.098917 91.933246 
L 175.708134 92.044908 
L 184.317352 92.162151 
L 192.926569 92.285401 
L 201.535787 92.41513 
L 210.145004 92.551863 
L 218.754221 92.69618 
L 227.363439 92.848726 
L 235.972656 93.010225 
L 244.581874 93.181485 
L 253.191091 93.363413 
L 261.800308 93.557034 
L 270.409526 93.763506 
L 279.018743 93.984146 
L 287.627961 94.220454 
L 296.237178 94.47415 
L 304.846396 94.747212 
L 313.455613 95.041927 
L 322.06483 95.360955 
L 330.674048 95.707404 
L 339.283265 96.084931 
L 347.892483 96.497864 
L 356.5017 96.951364 
L 365.110917 97.451628 
L 373.720135 98.00616 
L 382.329352 98.624129 
L 390.93857 99.31684 
L 399.547787 100.098379 
L 408.157005 100.986494 
L 416.766222 102.003805 
L 425.375439 103.179513 
L 433.984657 104.551807 
L 442.593874 106.171289 
L 451.203092 108.105843 
L 459.812309 110.447403 
L 468.421527 113.320858 
L 477.030744 116.893949 
L 485.639961 121.382362 
L 494.249179 127.031675 
L 502.858396 134.034246 
L 511.467614 142.333911 
L 520.076831 151.39801 
L 528.686048 160.289099 
L 537.295266 168.165944 
L 545.904483 174.673609 
L 554.513701 179.871724 
L 563.122918 183.989914 
L 571.732136 187.271057 
L 580.341353 189.916302 
L 588.95057 192.078511 
L 597.559788 193.870502 
L 606.169005 195.375127 
L 614.778223 196.653606 
L 623.38744 197.751673 
L 631.996658 198.703941 
L 640.605875 199.536951 
L 649.215092 200.271331 
L 657.82431 200.923307 
L 666.433527 201.505794 
L 675.042745 202.029186 
L 683.651962 202.50193 
L 692.261179 202.930957 
L 700.870397 203.322002 
L 709.479614 203.679849 
L 718.088832 204.008519 
L 726.698049 204.311413 
L 735.307267 204.591427 
L 743.916484 204.851044 
L 752.525701 205.092399 
L 761.134919 205.317345 
L 769.744136 205.52749 
L 778.353354 205.724242 
L 786.962571 205.908836 
L 795.571789 206.08236 
L 804.181006 206.245778 
L 812.790223 206.399944 
L 821.399441 206.545618 
L 830.008658 206.683483 
L 838.617876 206.814147 
L 847.227093 206.938158 
L 855.83631 207.056011 
L 864.445528 207.168152 
L 873.054745 207.274985 
L 881.663963 207.376878 
L 890.27318 207.474164 
L 898.882398 207.567149 
L 907.491615 207.656111 
L 916.100832 207.741305 
L 924.71005 207.822965 
L 933.319267 207.901306 
L 941.928485 207.976526 
L 950.537702 208.048808 
" clip-path="url(#p262f739519)" style="fill: none; stroke: #4daf4a; stroke-width: 4"/>
   </g>
   <g id="patch_3">
    <path d="M 63.788308 231.265354 
L 63.788308 7.670345 
" style="fill: none; stroke: #000000; stroke-width: 2; stroke-linejoin: miter; stroke-linecap: square"/>
   </g>
   <g id="patch_4">
    <path d="M 63.788308 231.265354 
L 976.365354 231.265354 
" style="fill: none; stroke: #000000; stroke-width: 2; stroke-linejoin: miter; stroke-linecap: square"/>
   </g>
   <g id="line2d_13">
    <path d="M 89.61596 133.592861 
L 98.225177 132.11992 
L 106.834395 130.703726 
L 115.443612 129.34132 
L 124.05283 128.030019 
L 132.662047 126.76739 
L 141.271265 125.551231 
L 149.880482 124.37955 
L 158.489699 123.250548 
L 167.098917 122.16261 
L 175.708134 121.11429 
L 184.317352 120.104303 
L 192.926569 119.131521 
L 201.535787 118.194965 
L 210.145004 117.293801 
L 218.754221 116.427344 
L 227.363439 115.595056 
L 235.972656 114.796548 
L 244.581874 114.031588 
L 253.191091 113.300107 
L 261.800308 112.602214 
L 270.409526 111.938204 
L 279.018743 111.308585 
L 287.627961 110.714097 
L 296.237178 110.155746 
L 304.846396 109.634837 
L 313.455613 109.15303 
L 322.06483 108.712395 
L 330.674048 108.315488 
L 339.283265 107.965454 
L 347.892483 107.666145 
L 356.5017 107.422283 
L 365.110917 107.239668 
L 373.720135 107.125446 
L 382.329352 107.088472 
L 390.93857 107.139786 
L 399.547787 107.293267 
L 408.157005 107.566516 
L 416.766222 107.982092 
L 425.375439 108.56923 
L 433.984657 109.366281 
L 442.593874 110.424174 
L 451.203092 111.81134 
L 459.812309 113.620554 
L 468.421527 115.977936 
L 477.030744 119.052939 
L 485.639961 123.063483 
L 494.249179 128.257674 
L 502.858396 134.829753 
L 511.467614 142.722718 
L 520.076831 151.39801 
L 528.686048 159.90806 
L 537.295266 167.402526 
L 545.904483 173.522475 
L 554.513701 178.327935 
L 563.122918 182.050795 
L 571.732136 184.936374 
L 580.341353 187.187832 
L 588.95057 188.959526 
L 597.559788 190.365321 
L 606.169005 191.48879 
L 614.778223 192.391627 
L 623.38744 193.11987 
L 631.996658 193.70831 
L 640.605875 194.18358 
L 649.215092 194.566334 
L 657.82431 194.872782 
L 666.433527 195.115787 
L 675.042745 195.305671 
L 683.651962 195.450791 
L 692.261179 195.557975 
L 700.870397 195.632849 
L 709.479614 195.680083 
L 718.088832 195.703578 
L 726.698049 195.706616 
L 735.307267 195.691976 
L 743.916484 195.662018 
L 752.525701 195.618761 
L 761.134919 195.56394 
L 769.744136 195.49905 
L 778.353354 195.425386 
L 786.962571 195.344072 
L 795.571789 195.25609 
L 804.181006 195.162297 
L 812.790223 195.063447 
L 821.399441 194.960201 
L 830.008658 194.853143 
L 838.617876 194.742788 
L 847.227093 194.629594 
L 855.83631 194.513964 
L 864.445528 194.39626 
L 873.054745 194.276801 
L 881.663963 194.155873 
L 890.27318 194.033732 
L 898.882398 193.910605 
L 907.491615 193.786696 
L 916.100832 193.662187 
L 924.71005 193.537242 
L 933.319267 193.412007 
L 941.928485 193.286615 
L 950.537702 193.161182 
" clip-path="url(#p262f739519)" style="fill: none; stroke: #984ea3; stroke-width: 4"/>
   </g>
  </g>
 </g>
 <defs>
  <clipPath id="p262f739519">
   <rect x="63.788308" y="7.670345" width="912.577047" height="223.59501"/>
  </clipPath>
 </defs>
</svg>
