<?xml version="1.0" encoding="utf-8" standalone="no"?>
<!DOCTYPE svg PUBLIC "-//W3C//DTD SVG 1.1//EN"
  "http://www.w3.org/Graphics/SVG/1.1/DTD/svg11.dtd">
<svg xmlns:xlink="http://www.w3.org/1999/xlink" width="1002.24pt" height="357.12pt" viewBox="0 0 1002.24 357.12" xmlns="http://www.w3.org/2000/svg" version="1.1">
 <metadata>
  <rdf:RDF xmlns:dc="http://purl.org/dc/elements/1.1/" xmlns:cc="http://creativecommons.org/ns#" xmlns:rdf="http://www.w3.org/1999/02/22-rdf-syntax-ns#">
   <cc:Work>
    <dc:type rdf:resource="http://purl.org/dc/dcmitype/StillImage"/>
    <dc:date>2024-08-16T13:36:36.135081</dc:date>
    <dc:format>image/svg+xml</dc:format>
    <dc:creator>
     <cc:Agent>
      <dc:title>Matplotlib v3.8.4, https://matplotlib.org/</dc:title>
     </cc:Agent>
    </dc:creator>
   </cc:Work>
  </rdf:RDF>
 </metadata>
 <defs>
  <style type="text/css">*{stroke-linejoin: round; stroke-linecap: butt}</style>
 </defs>
 <g id="figure_1">
  <g id="patch_1">
   <path d="M 0 357.12 
L 1002.24 357.12 
L 1002.24 0 
L 0 0 
L 0 357.12 
z
" style="fill: none"/>
  </g>
  <g id="axes_1">
   <g id="patch_2">
    <path d="M 21.004646 323.425354 
L 999.405354 323.425354 
L 999.405354 2.834646 
L 21.004646 2.834646 
L 21.004646 323.425354 
z
" style="fill: none"/>
   </g>
   <g id="line2d_1">
    <path d="M 48.695232 252.269239 
L 53.18726 256.792217 
L 57.617754 260.940411 
L 62.232852 264.954609 
L 66.971019 268.773536 
L 71.647651 272.264655 
L 76.508887 275.622271 
L 81.493193 278.799708 
L 86.662102 281.833239 
L 91.954081 284.68543 
L 97.430663 287.389211 
L 103.09185 289.941861 
L 109.122244 292.413996 
L 115.275708 294.698326 
L 121.736844 296.862738 
L 128.505654 298.89865 
L 135.643672 300.815794 
L 140.074166 301.898336 
L 140.135701 269.891197 
L 140.197235 269.937773 
L 144.935402 273.386622 
L 149.919708 276.738354 
L 155.088617 279.938431 
L 160.380596 282.947079 
L 165.918713 285.829902 
L 171.641434 288.54778 
L 177.42569 291.049079 
L 183.456084 293.417682 
L 189.917221 295.710046 
L 196.686031 297.866314 
L 203.824049 299.896747 
L 211.208205 301.762955 
L 219.023104 303.50817 
L 227.330279 305.135128 
L 236.191267 306.644206 
L 245.729135 308.04268 
L 256.00542 309.325062 
L 267.327793 310.510311 
L 269.54304 310.717722 
L 269.604574 278.692413 
L 269.666109 278.730149 
L 274.773484 281.734713 
L 280.250066 284.690402 
L 285.788183 287.422819 
L 291.510904 289.998847 
L 297.41823 292.417758 
L 303.571693 294.701729 
L 310.03283 296.865801 
L 316.80164 298.901393 
L 323.939658 300.818235 
L 331.569952 302.635134 
L 339.569455 304.312356 
L 348.122769 305.879627 
L 357.29143 307.334002 
L 367.260041 308.687251 
L 377.967068 309.915641 
L 389.720183 311.038902 
L 402.642457 312.049335 
L 417.103096 312.954413 
L 429.040815 313.556568 
L 429.10235 281.543319 
L 429.163885 281.578225 
L 434.455863 284.45148 
L 439.932446 287.175231 
L 445.593632 289.746736 
L 451.624027 292.237128 
L 457.77749 294.538329 
L 464.177092 296.699015 
L 470.945902 298.752022 
L 478.08392 300.685253 
L 485.591146 302.489954 
L 493.713718 304.209276 
L 502.267032 305.789979 
L 511.558762 307.275016 
L 521.465838 308.629358 
L 532.11133 309.860513 
L 543.92598 310.998749 
L 556.786719 312.012445 
L 571.185824 312.921824 
L 587.615572 313.729566 
L 599.67636 314.199065 
L 599.737895 282.178357 
L 599.79943 282.212617 
L 605.091408 285.033467 
L 610.567991 287.707542 
L 616.290712 290.258318 
L 622.382641 292.724606 
L 628.659174 295.022087 
L 635.181845 297.173401 
L 642.01219 299.194114 
L 649.211742 301.094121 
L 657.026641 302.919254 
L 665.087678 304.573596 
L 673.764062 306.127446 
L 683.117326 307.573882 
L 693.209007 308.906141 
L 704.285241 310.137053 
L 716.407564 311.252539 
L 729.637511 312.24311 
L 744.405824 313.123784 
L 761.143245 313.896492 
L 772.957895 314.328067 
L 773.019429 282.309158 
L 773.080964 282.343289 
L 778.372943 285.153346 
L 783.91106 287.845822 
L 789.633781 290.384212 
L 795.602641 292.791416 
L 801.817639 295.061126 
L 808.401845 297.227646 
L 815.293724 299.259806 
L 822.493277 301.15254 
L 830.308175 302.970691 
L 838.430747 304.630479 
L 847.2302 306.1972 
L 856.52193 307.625054 
L 866.552076 308.942098 
L 877.505241 310.154655 
L 889.566029 311.26188 
L 902.98058 312.262984 
L 917.810427 313.14264 
L 934.732452 313.918201 
L 946.731706 314.352032 
L 946.793241 282.314878 
L 946.854775 282.348968 
L 952.208289 285.189847 
L 957.746406 287.879175 
L 963.530662 290.440602 
L 969.499521 292.842581 
L 971.714768 293.67621 
L 971.714768 293.67621 
" clip-path="url(#p1bf460d849)" style="fill: none; stroke: #780004; stroke-width: 4"/>
   </g>
   <g id="matplotlib.axis_1">
    <g id="xtick_1">
     <g id="line2d_2">
      <defs>
       <path id="m03611dc959" d="M 0 0 
L 0 -5 
" style="stroke: #000000"/>
      </defs>
      <g>
       <use xlink:href="#m03611dc959" x="48.695232" y="323.425354" style="stroke: #000000"/>
      </g>
     </g>
     <g id="text_1">
      <!-- $0$ -->
      <g transform="translate(41.695232 348.200979) scale(0.28 -0.28)">
       <defs>
        <path id="Cmr10-30" d="M 1600 -141 
Q 816 -141 533 504 
Q 250 1150 250 2041 
Q 250 2597 351 3087 
Q 453 3578 754 3920 
Q 1056 4263 1600 4263 
Q 2022 4263 2290 4056 
Q 2559 3850 2700 3523 
Q 2841 3197 2892 2823 
Q 2944 2450 2944 2041 
Q 2944 1491 2842 1011 
Q 2741 531 2444 195 
Q 2147 -141 1600 -141 
z
M 1600 25 
Q 1956 25 2131 390 
Q 2306 756 2347 1200 
Q 2388 1644 2388 2144 
Q 2388 2625 2347 3031 
Q 2306 3438 2132 3767 
Q 1959 4097 1600 4097 
Q 1238 4097 1063 3765 
Q 888 3434 847 3029 
Q 806 2625 806 2144 
Q 806 1788 823 1472 
Q 841 1156 916 820 
Q 991 484 1158 254 
Q 1325 25 1600 25 
z
" transform="scale(0.015625)"/>
       </defs>
       <use xlink:href="#Cmr10-30" transform="translate(0 0.390625)"/>
      </g>
     </g>
    </g>
    <g id="xtick_2">
     <g id="line2d_3">
      <g>
       <use xlink:href="#m03611dc959" x="356.368411" y="323.425354" style="stroke: #000000"/>
      </g>
     </g>
     <g id="text_2">
      <!-- $5$ -->
      <g transform="translate(349.368411 348.200979) scale(0.28 -0.28)">
       <defs>
        <path id="Cmr10-35" d="M 556 728 
Q 622 541 758 387 
Q 894 234 1080 148 
Q 1266 63 1466 63 
Q 1928 63 2103 422 
Q 2278 781 2278 1294 
Q 2278 1516 2270 1667 
Q 2263 1819 2228 1959 
Q 2169 2184 2020 2353 
Q 1872 2522 1656 2522 
Q 1441 2522 1286 2456 
Q 1131 2391 1034 2303 
Q 938 2216 863 2119 
Q 788 2022 769 2016 
L 697 2016 
Q 681 2016 657 2036 
Q 634 2056 634 2075 
L 634 4213 
Q 634 4228 654 4245 
Q 675 4263 697 4263 
L 716 4263 
Q 1147 4056 1631 4056 
Q 2106 4056 2547 4263 
L 2566 4263 
Q 2588 4263 2606 4247 
Q 2625 4231 2625 4213 
L 2625 4153 
Q 2625 4122 2613 4122 
Q 2394 3831 2064 3668 
Q 1734 3506 1381 3506 
Q 1125 3506 856 3578 
L 856 2369 
Q 1069 2541 1236 2614 
Q 1403 2688 1663 2688 
Q 2016 2688 2295 2484 
Q 2575 2281 2725 1954 
Q 2875 1628 2875 1288 
Q 2875 903 2686 575 
Q 2497 247 2172 53 
Q 1847 -141 1466 -141 
Q 1150 -141 886 21 
Q 622 184 470 459 
Q 319 734 319 1044 
Q 319 1188 412 1278 
Q 506 1369 647 1369 
Q 788 1369 883 1276 
Q 978 1184 978 1044 
Q 978 906 883 811 
Q 788 716 647 716 
Q 625 716 597 720 
Q 569 725 556 728 
z
" transform="scale(0.015625)"/>
       </defs>
       <use xlink:href="#Cmr10-35" transform="translate(0 0.390625)"/>
      </g>
     </g>
    </g>
    <g id="xtick_3">
     <g id="line2d_4">
      <g>
       <use xlink:href="#m03611dc959" x="664.041589" y="323.425354" style="stroke: #000000"/>
      </g>
     </g>
     <g id="text_3">
      <!-- $10$ -->
      <g transform="translate(650.041589 348.200979) scale(0.28 -0.28)">
       <defs>
        <path id="Cmr10-31" d="M 594 0 
L 594 225 
Q 1394 225 1394 428 
L 1394 3788 
Q 1063 3628 556 3628 
L 556 3853 
Q 1341 3853 1741 4263 
L 1831 4263 
Q 1853 4263 1873 4245 
Q 1894 4228 1894 4206 
L 1894 428 
Q 1894 225 2694 225 
L 2694 0 
L 594 0 
z
" transform="scale(0.015625)"/>
       </defs>
       <use xlink:href="#Cmr10-31" transform="translate(0 0.390625)"/>
       <use xlink:href="#Cmr10-30" transform="translate(50 0.390625)"/>
      </g>
     </g>
    </g>
    <g id="xtick_4">
     <g id="line2d_5">
      <g>
       <use xlink:href="#m03611dc959" x="971.714768" y="323.425354" style="stroke: #000000"/>
      </g>
     </g>
     <g id="text_4">
      <!-- $15$ -->
      <g transform="translate(957.714768 348.200979) scale(0.28 -0.28)">
       <use xlink:href="#Cmr10-31" transform="translate(0 0.390625)"/>
       <use xlink:href="#Cmr10-35" transform="translate(50 0.390625)"/>
      </g>
     </g>
    </g>
   </g>
   <g id="matplotlib.axis_2">
    <g id="ytick_1">
     <g id="line2d_6">
      <defs>
       <path id="md39d6a142c" d="M 0 0 
L 5 0 
" style="stroke: #000000"/>
      </defs>
      <g>
       <use xlink:href="#md39d6a142c" x="21.004646" y="316.361382" style="stroke: #000000"/>
      </g>
     </g>
     <g id="text_5">
      <!-- $0$ -->
      <g transform="translate(3.504646 326.999195) scale(0.28 -0.28)">
       <use xlink:href="#Cmr10-30" transform="translate(0 0.390625)"/>
      </g>
     </g>
    </g>
    <g id="ytick_2">
     <g id="line2d_7">
      <g>
       <use xlink:href="#md39d6a142c" x="21.004646" y="252.269239" style="stroke: #000000"/>
      </g>
     </g>
     <g id="text_6">
      <!-- $1$ -->
      <g transform="translate(3.504646 262.907052) scale(0.28 -0.28)">
       <use xlink:href="#Cmr10-31" transform="translate(0 0.390625)"/>
      </g>
     </g>
    </g>
    <g id="ytick_3">
     <g id="line2d_8">
      <g>
       <use xlink:href="#md39d6a142c" x="21.004646" y="188.177096" style="stroke: #000000"/>
      </g>
     </g>
     <g id="text_7">
      <!-- $2$ -->
      <g transform="translate(3.504646 198.814909) scale(0.28 -0.28)">
       <defs>
        <path id="Cmr10-32" d="M 319 0 
L 319 172 
Q 319 188 331 206 
L 1325 1306 
Q 1550 1550 1690 1715 
Q 1831 1881 1968 2097 
Q 2106 2313 2186 2536 
Q 2266 2759 2266 3009 
Q 2266 3272 2169 3511 
Q 2072 3750 1880 3894 
Q 1688 4038 1416 4038 
Q 1138 4038 916 3870 
Q 694 3703 603 3438 
Q 628 3444 672 3444 
Q 816 3444 917 3347 
Q 1019 3250 1019 3097 
Q 1019 2950 917 2848 
Q 816 2747 672 2747 
Q 522 2747 420 2851 
Q 319 2956 319 3097 
Q 319 3338 409 3548 
Q 500 3759 670 3923 
Q 841 4088 1055 4175 
Q 1269 4263 1509 4263 
Q 1875 4263 2190 4108 
Q 2506 3953 2690 3670 
Q 2875 3388 2875 3009 
Q 2875 2731 2753 2481 
Q 2631 2231 2440 2026 
Q 2250 1822 1953 1562 
Q 1656 1303 1563 1216 
L 838 519 
L 1453 519 
Q 1906 519 2211 526 
Q 2516 534 2534 550 
Q 2609 631 2688 1141 
L 2875 1141 
L 2694 0 
L 319 0 
z
" transform="scale(0.015625)"/>
       </defs>
       <use xlink:href="#Cmr10-32" transform="translate(0 0.390625)"/>
      </g>
     </g>
    </g>
    <g id="ytick_4">
     <g id="line2d_9">
      <g>
       <use xlink:href="#md39d6a142c" x="21.004646" y="124.084953" style="stroke: #000000"/>
      </g>
     </g>
     <g id="text_8">
      <!-- $3$ -->
      <g transform="translate(3.504646 134.722766) scale(0.28 -0.28)">
       <defs>
        <path id="Cmr10-33" d="M 609 494 
Q 759 275 1012 169 
Q 1266 63 1556 63 
Q 1928 63 2084 380 
Q 2241 697 2241 1100 
Q 2241 1281 2208 1462 
Q 2175 1644 2097 1800 
Q 2019 1956 1883 2050 
Q 1747 2144 1550 2144 
L 1125 2144 
Q 1069 2144 1069 2203 
L 1069 2259 
Q 1069 2309 1125 2309 
L 1478 2338 
Q 1703 2338 1851 2506 
Q 2000 2675 2069 2917 
Q 2138 3159 2138 3378 
Q 2138 3684 1994 3881 
Q 1850 4078 1556 4078 
Q 1313 4078 1091 3986 
Q 869 3894 738 3706 
Q 750 3709 759 3711 
Q 769 3713 781 3713 
Q 925 3713 1022 3613 
Q 1119 3513 1119 3372 
Q 1119 3234 1022 3134 
Q 925 3034 781 3034 
Q 641 3034 541 3134 
Q 441 3234 441 3372 
Q 441 3647 606 3850 
Q 772 4053 1033 4158 
Q 1294 4263 1556 4263 
Q 1750 4263 1965 4205 
Q 2181 4147 2356 4039 
Q 2531 3931 2642 3762 
Q 2753 3594 2753 3378 
Q 2753 3109 2633 2881 
Q 2513 2653 2303 2487 
Q 2094 2322 1844 2241 
Q 2122 2188 2372 2031 
Q 2622 1875 2773 1631 
Q 2925 1388 2925 1106 
Q 2925 753 2731 467 
Q 2538 181 2222 20 
Q 1906 -141 1556 -141 
Q 1256 -141 954 -26 
Q 653 88 461 316 
Q 269 544 269 863 
Q 269 1022 375 1128 
Q 481 1234 641 1234 
Q 744 1234 830 1186 
Q 916 1138 964 1050 
Q 1013 963 1013 863 
Q 1013 706 903 600 
Q 794 494 641 494 
L 609 494 
z
" transform="scale(0.015625)"/>
       </defs>
       <use xlink:href="#Cmr10-33" transform="translate(0 0.390625)"/>
      </g>
     </g>
    </g>
    <g id="ytick_5">
     <g id="line2d_10">
      <g>
       <use xlink:href="#md39d6a142c" x="21.004646" y="59.992811" style="stroke: #000000"/>
      </g>
     </g>
     <g id="text_9">
      <!-- $4$ -->
      <g transform="translate(3.504646 70.630623) scale(0.28 -0.28)">
       <defs>
        <path id="Cmr10-34" d="M 178 1056 
L 178 1281 
L 2156 4231 
Q 2178 4263 2222 4263 
L 2316 4263 
Q 2388 4263 2388 4191 
L 2388 1281 
L 3016 1281 
L 3016 1056 
L 2388 1056 
L 2388 428 
Q 2388 297 2575 261 
Q 2763 225 3009 225 
L 3009 0 
L 1247 0 
L 1247 225 
Q 1494 225 1681 261 
Q 1869 297 1869 428 
L 1869 1056 
L 178 1056 
z
M 391 1281 
L 1906 1281 
L 1906 3547 
L 391 1281 
z
" transform="scale(0.015625)"/>
       </defs>
       <use xlink:href="#Cmr10-34" transform="translate(0 0.390625)"/>
      </g>
     </g>
    </g>
   </g>
   <g id="line2d_11">
    <path d="M 48.695232 252.269239 
L 53.18726 256.792217 
L 57.617754 260.940411 
L 62.232852 264.954609 
L 66.971019 268.773536 
L 71.647651 272.264655 
L 76.508887 275.622271 
L 81.493193 278.799708 
L 86.662102 281.833239 
L 91.954081 284.68543 
L 97.430663 287.389211 
L 103.09185 289.941861 
L 109.122244 292.413996 
L 115.275708 294.698326 
L 121.736844 296.862738 
L 128.505654 298.89865 
L 135.643672 300.815794 
L 140.074166 301.898336 
L 140.135701 244.27391 
L 140.197235 244.346162 
L 144.38159 249.091976 
L 148.812084 253.77634 
L 153.181043 258.076249 
L 157.611537 262.13507 
L 162.288169 266.113055 
L 166.964802 269.799308 
L 171.702969 273.258444 
L 176.687274 276.620173 
L 181.856184 279.829795 
L 187.148162 282.847417 
L 192.686279 285.738838 
L 198.409001 288.464822 
L 204.193256 290.973581 
L 210.223651 293.349249 
L 216.684787 295.648451 
L 221.915231 297.340356 
L 221.976766 239.713828 
L 222.038301 239.790637 
L 226.222656 244.836681 
L 230.591615 249.750596 
L 234.960574 254.327028 
L 239.329533 258.5891 
L 243.760027 262.612225 
L 248.498194 266.605112 
L 253.113292 270.20901 
L 257.851459 273.637711 
L 262.835764 276.969869 
L 268.066208 280.187507 
L 273.419722 283.2088 
L 278.773235 285.977864 
L 284.434421 288.654753 
L 290.280212 291.171727 
L 296.372141 293.551741 
L 299.510407 294.688605 
L 299.571942 237.078023 
L 299.633476 237.157501 
L 303.756297 242.302883 
L 308.063722 247.321819 
L 312.432681 252.065053 
L 316.924709 256.602415 
L 321.355203 260.763849 
L 326.031835 264.842434 
L 330.646933 268.574005 
L 335.3851 272.124152 
L 340.246336 275.492466 
L 345.230642 278.680027 
L 350.338016 281.688467 
L 355.629995 284.552591 
L 361.106578 287.267734 
L 366.829299 289.857685 
L 372.859693 292.337694 
L 374.828801 293.096207 
L 374.890336 235.47837 
L 374.951871 235.559433 
L 379.074691 240.80864 
L 383.382116 245.92884 
L 387.751075 250.767798 
L 392.243103 255.396678 
L 396.612062 259.585246 
L 401.165625 263.644731 
L 405.719188 267.41395 
L 410.395821 271.004809 
L 415.195522 274.416315 
L 420.179828 277.687773 
L 425.225668 280.739871 
L 430.579181 283.71501 
L 436.055764 286.50171 
L 441.84002 289.187061 
L 447.747345 291.680419 
L 448.854968 292.121822 
L 448.916503 234.484686 
L 448.978037 234.566695 
L 453.100858 239.880397 
L 457.346748 244.991912 
L 461.592638 249.761815 
L 465.900062 254.27526 
L 470.269021 258.540879 
L 474.699515 262.567398 
L 479.437682 266.56359 
L 484.114314 270.216823 
L 488.852481 273.644906 
L 493.898322 277.015899 
L 498.944162 280.121022 
L 504.174606 283.081263 
L 509.589654 285.891414 
L 515.127771 288.520214 
L 520.912027 291.024032 
L 522.142719 291.526996 
L 522.204254 233.886197 
L 522.265789 233.968793 
L 526.388609 239.321335 
L 530.572964 244.398039 
L 534.818854 249.207734 
L 539.187813 253.821424 
L 543.556773 258.11822 
L 547.987266 262.174181 
L 552.663899 266.149293 
L 557.402066 269.879514 
L 562.140233 273.332661 
L 567.186073 276.728292 
L 572.231913 279.856112 
L 577.462357 282.837991 
L 582.877405 285.668685 
L 588.415522 288.316701 
L 594.199778 290.838825 
L 594.999728 291.169352 
L 595.061263 233.548198 
L 595.122797 233.631183 
L 599.245618 239.00566 
L 603.491508 244.175648 
L 607.737398 249.000095 
L 612.044822 253.565161 
L 616.413781 257.879577 
L 620.844275 261.952114 
L 625.520907 265.943514 
L 630.19754 269.642196 
L 634.935707 273.113006 
L 639.920012 276.486089 
L 645.088922 279.70653 
L 650.319366 282.700628 
L 655.734414 285.542919 
L 661.272531 288.201786 
L 666.995252 290.708569 
L 667.549064 290.939014 
L 667.610598 233.309932 
L 667.672133 233.393136 
L 671.794954 238.783079 
L 676.040843 243.967936 
L 680.225199 248.738523 
L 684.594158 253.384472 
L 688.963117 257.711298 
L 693.393611 261.795573 
L 698.070243 265.798455 
L 702.746875 269.507766 
L 707.485042 272.988564 
L 712.407813 276.331258 
L 717.453653 279.490265 
L 722.684097 282.502028 
L 728.099145 285.361214 
L 733.698797 288.064136 
L 739.606122 290.660495 
L 739.913795 290.789008 
L 739.97533 233.139465 
L 740.036865 233.222779 
L 744.159685 238.623777 
L 748.34404 243.746456 
L 752.58993 248.599724 
L 756.958889 253.255163 
L 761.327849 257.590855 
L 765.758342 261.683556 
L 770.434975 265.694672 
L 775.173142 269.458642 
L 779.911309 272.943068 
L 784.957149 276.369439 
L 790.002989 279.525575 
L 795.171898 282.500485 
L 800.463877 285.297557 
L 806.001994 287.977592 
L 811.78625 290.530168 
L 812.216992 290.710857 
L 812.278527 233.082539 
L 812.340062 233.165972 
L 816.462882 238.570673 
L 820.708772 243.769726 
L 824.893127 248.553373 
L 829.262086 253.212044 
L 833.631046 257.550716 
L 838.061539 261.646173 
L 842.738172 265.660014 
L 847.414804 269.379483 
L 852.152971 272.869811 
L 857.075742 276.221657 
L 862.121582 279.389312 
L 867.352026 282.409322 
L 872.767074 285.276337 
L 878.366726 287.986658 
L 884.274051 290.590132 
L 884.458655 290.667573 
L 884.520189 233.064464 
L 884.581724 233.147971 
L 888.64301 238.475729 
L 892.827365 243.60818 
L 897.073255 248.47072 
L 901.503749 253.19838 
L 905.872708 257.538 
L 910.303202 261.634272 
L 914.979834 265.64901 
L 919.656466 269.369317 
L 924.394633 272.860391 
L 929.378939 276.25315 
L 934.547848 279.492428 
L 939.839827 282.537904 
L 945.316409 285.425063 
L 950.977596 288.150649 
L 956.577248 290.610416 
L 956.638782 232.955384 
L 956.700317 233.038864 
L 960.823138 238.451801 
L 965.007493 243.58582 
L 969.253383 248.449839 
L 971.714768 251.119235 
L 971.714768 251.119235 
" clip-path="url(#p1bf460d849)" style="fill: none; stroke: #d21f01; stroke-width: 4"/>
   </g>
   <g id="patch_3">
    <path d="M 21.004646 323.425354 
L 21.004646 2.834646 
" style="fill: none; stroke: #000000; stroke-width: 2; stroke-linejoin: miter; stroke-linecap: square"/>
   </g>
   <g id="patch_4">
    <path d="M 21.004646 323.425354 
L 999.405354 323.425354 
" style="fill: none; stroke: #000000; stroke-width: 2; stroke-linejoin: miter; stroke-linecap: square"/>
   </g>
   <g id="line2d_12">
    <path d="M 48.695232 252.269239 
L 53.18726 256.792217 
L 57.617754 260.940411 
L 62.232852 264.954609 
L 66.971019 268.773536 
L 71.647651 272.264655 
L 76.508887 275.622271 
L 81.493193 278.799708 
L 86.662102 281.833239 
L 91.954081 284.68543 
L 97.430663 287.389211 
L 103.09185 289.941861 
L 109.122244 292.413996 
L 115.275708 294.698326 
L 121.736844 296.862738 
L 128.505654 298.89865 
L 135.643672 300.815794 
L 140.074166 301.898336 
L 140.135701 237.869589 
L 140.197235 237.94826 
L 144.320056 243.042278 
L 148.62748 248.011105 
L 152.996439 252.706999 
L 157.488468 257.199037 
L 161.918962 261.318945 
L 166.595594 265.3568 
L 171.272226 269.098533 
L 176.010393 272.609729 
L 180.994699 276.022054 
L 186.163608 279.279981 
L 191.394052 282.308921 
L 196.8091 285.18429 
L 202.285683 287.845516 
L 208.069938 290.410043 
L 214.161867 292.861998 
L 216.069441 293.58106 
L 216.130976 229.564026 
L 216.19251 229.651028 
L 220.253796 235.202677 
L 224.376617 240.474907 
L 228.684041 245.617724 
L 233.053001 250.477992 
L 237.42196 255.004465 
L 241.790919 259.219997 
L 246.282947 263.252347 
L 250.898045 267.099089 
L 255.636212 270.758804 
L 260.435913 274.188807 
L 265.358684 277.439 
L 270.466059 280.546664 
L 275.819572 283.537937 
L 281.23462 286.30966 
L 285.726649 288.430339 
L 285.788183 224.428165 
L 285.849718 224.520334 
L 289.849469 230.314155 
L 293.910755 235.823348 
L 298.033576 241.05522 
L 302.341 246.15871 
L 306.70996 250.981829 
L 311.078919 255.473699 
L 315.447878 259.656993 
L 319.939906 263.658494 
L 324.555004 267.475818 
L 329.231636 271.062111 
L 334.031338 274.469395 
L 339.077178 277.775379 
L 344.123018 280.820556 
L 349.476531 283.788951 
L 351.937917 285.069288 
L 351.999451 221.057055 
L 352.060986 221.152576 
L 356.060737 227.158853 
L 360.122023 232.870062 
L 364.244844 238.293838 
L 368.552268 243.584466 
L 372.921228 248.584418 
L 377.228652 253.177655 
L 381.597611 257.518645 
L 386.028105 261.616396 
L 390.643203 265.581632 
L 395.38137 269.353899 
L 400.181071 272.889738 
L 405.165377 276.280225 
L 410.334286 279.517301 
L 415.626265 282.560736 
L 416.057007 282.797108 
L 416.118542 218.740198 
L 416.180077 218.837903 
L 420.179828 224.990202 
L 424.241114 230.840213 
L 428.3024 236.315726 
L 432.486755 241.590507 
L 436.67111 246.517991 
L 441.040069 251.316428 
L 445.470563 255.845942 
L 449.839522 260.003661 
L 454.331551 263.980694 
L 458.946648 267.774682 
L 463.684815 271.384219 
L 468.546052 274.808873 
L 473.468822 278.011278 
L 478.514663 281.037836 
L 478.945405 281.28479 
L 479.00694 217.268988 
L 479.068474 217.368288 
L 483.068226 223.613298 
L 487.067977 229.464339 
L 491.129263 235.027936 
L 495.252084 240.311557 
L 499.621043 245.536358 
L 503.928467 250.336161 
L 508.297426 254.872363 
L 512.666385 259.096967 
L 517.158414 263.138017 
L 521.773512 266.99304 
L 526.511678 270.660618 
L 531.31138 274.09802 
L 536.295686 277.394297 
L 540.910783 280.216768 
L 540.972318 216.184315 
L 541.033853 216.284653 
L 545.033604 222.598024 
L 549.033355 228.513114 
L 553.094641 234.1376 
L 557.217462 239.47911 
L 561.524886 244.689413 
L 565.893845 249.613445 
L 570.262805 254.199268 
L 574.631764 258.470109 
L 579.062257 262.501557 
L 583.800424 266.502639 
L 588.477057 270.160344 
L 593.215224 273.592623 
L 598.261064 276.967741 
L 602.32235 279.489958 
L 602.383884 215.474381 
L 602.445419 215.575475 
L 606.44517 221.933585 
L 610.444922 227.890592 
L 614.506208 233.554947 
L 618.629028 238.934262 
L 622.936453 244.181488 
L 627.305412 249.140415 
L 631.674371 253.758767 
L 636.04333 258.05988 
L 640.473824 262.119864 
L 645.211991 266.149323 
L 649.827089 269.786234 
L 654.565256 273.246344 
L 659.549561 276.609029 
L 663.303174 278.967116 
L 663.364708 214.938102 
L 663.426243 215.039695 
L 667.425994 221.431604 
L 671.425746 227.420279 
L 675.487032 233.114735 
L 679.609852 238.522688 
L 683.917277 243.797807 
L 688.286236 248.783093 
L 692.655195 253.425969 
L 697.024154 257.749941 
L 701.454648 261.831536 
L 706.13128 265.831781 
L 710.869447 269.585602 
L 715.607614 273.060576 
L 720.653454 276.477683 
L 724.037859 278.617286 
L 724.099394 214.608152 
L 724.160929 214.710129 
L 728.099145 221.027286 
L 732.160431 227.130983 
L 736.221717 232.843975 
L 740.344538 238.269457 
L 744.651962 243.561738 
L 749.020921 248.563248 
L 753.328346 253.157919 
L 757.75884 257.559307 
L 762.189333 261.654135 
L 766.865966 265.667398 
L 771.542598 269.386341 
L 776.280765 272.876157 
L 781.265071 276.267707 
L 784.526406 278.342441 
L 784.587941 214.298843 
L 784.649476 214.401025 
L 788.649227 220.833226 
L 792.648978 226.859649 
L 796.710264 232.589982 
L 800.77155 237.953464 
L 804.955905 243.120313 
L 809.201795 248.015425 
L 813.570754 252.711012 
L 817.939713 257.084092 
L 822.370207 261.21208 
L 827.04684 265.25778 
L 831.785007 269.054211 
L 836.523173 272.568681 
L 841.507479 275.984172 
L 844.953419 278.188495 
L 845.014953 214.187618 
L 845.076488 214.290034 
L 849.014705 220.633281 
L 853.07599 226.76222 
L 857.137276 232.498825 
L 861.260097 237.9467 
L 865.567522 243.260854 
L 869.936481 248.283046 
L 874.243905 252.896706 
L 878.612864 257.257004 
L 883.043358 261.372973 
L 887.658456 265.355841 
L 892.396623 269.144878 
L 897.196324 272.696442 
L 902.18063 276.101998 
L 905.195827 278.031913 
L 905.257362 213.98093 
L 905.318896 214.083403 
L 909.318648 220.535641 
L 913.318399 226.580837 
L 917.379685 232.32901 
L 921.440971 237.709202 
L 925.625326 242.892156 
L 929.871216 247.802536 
L 934.240175 252.512731 
L 938.609134 256.899426 
L 943.039628 261.040284 
L 947.71626 265.098599 
L 952.454427 268.906836 
L 957.192594 272.432262 
L 962.1769 275.858402 
L 965.438235 277.95435 
L 965.49977 213.923239 
L 965.561305 214.025838 
L 969.561056 220.481707 
L 971.714768 223.787453 
L 971.714768 223.787453 
" clip-path="url(#p1bf460d849)" style="fill: none; stroke: #f76008; stroke-width: 4"/>
   </g>
   <g id="line2d_13">
    <path d="M 48.695232 252.269239 
L 53.18726 256.792217 
L 57.617754 260.940411 
L 62.232852 264.954609 
L 66.971019 268.773536 
L 71.647651 272.264655 
L 76.508887 275.622271 
L 81.493193 278.799708 
L 86.662102 281.833239 
L 91.954081 284.68543 
L 97.430663 287.389211 
L 103.09185 289.941861 
L 109.122244 292.413996 
L 115.275708 294.698326 
L 121.736844 296.862738 
L 128.505654 298.89865 
L 135.643672 300.815794 
L 140.074166 301.898336 
L 140.135701 231.465267 
L 140.197235 231.550357 
L 144.258521 236.980399 
L 148.381342 242.137158 
L 152.750301 247.236544 
L 157.057725 251.921126 
L 161.426684 256.348445 
L 165.857178 260.527688 
L 170.472276 264.57178 
L 175.148908 268.371057 
L 180.010144 272.025222 
L 184.932915 275.44216 
L 189.978755 278.671316 
L 195.147665 281.715315 
L 200.624247 284.672677 
L 206.223899 287.435618 
L 211.085136 289.638143 
L 211.14667 219.224628 
L 211.208205 219.322001 
L 215.207956 225.44376 
L 219.207707 231.179326 
L 223.268993 236.633126 
L 227.391814 241.81242 
L 231.760773 246.934127 
L 236.068198 251.639204 
L 240.437157 256.085901 
L 244.806116 260.227133 
L 249.298144 264.188408 
L 253.913242 267.96735 
L 258.651409 271.562565 
L 263.451111 274.932109 
L 268.435416 278.163346 
L 273.542791 281.213132 
L 274.158137 281.563735 
L 274.219672 211.147882 
L 274.281206 211.253329 
L 278.219423 217.785308 
L 282.280709 224.096572 
L 286.28046 229.917126 
L 290.341746 235.451735 
L 294.464567 240.707809 
L 298.833526 245.905391 
L 303.140951 250.680185 
L 307.50991 255.192758 
L 311.878869 259.395352 
L 316.370897 263.415336 
L 320.985995 267.250273 
L 325.724162 270.898748 
L 330.523864 274.318232 
L 332.86218 275.889878 
L 332.923714 205.466229 
L 332.985249 205.577335 
L 336.923466 212.462084 
L 340.984752 219.114133 
L 344.984503 225.249005 
L 349.045789 231.082484 
L 353.107075 236.542472 
L 357.29143 241.802291 
L 361.475785 246.715784 
L 365.906279 251.565581 
L 370.213704 255.956784 
L 374.582663 260.106881 
L 379.074691 264.076675 
L 383.751324 267.9123 
L 388.427956 271.466595 
L 388.797164 271.735917 
L 388.858698 201.29375 
L 388.920233 201.408964 
L 392.85845 208.552827 
L 396.919736 215.455099 
L 400.919487 221.820803 
L 404.919238 227.784924 
L 408.980524 233.45602 
L 413.103345 238.841832 
L 417.410769 244.095323 
L 421.779728 249.060181 
L 426.148688 253.683995 
L 430.517647 257.990229 
L 434.94814 262.055112 
L 439.624773 266.038965 
L 442.886108 268.64306 
L 442.947643 198.228782 
L 443.009178 198.347146 
L 446.88586 205.570399 
L 451.00868 212.767406 
L 454.946897 219.205318 
L 459.008183 225.425643 
L 463.069469 231.247815 
L 467.130755 236.697215 
L 471.31511 241.946837 
L 475.499465 246.8508 
L 479.929959 251.691199 
L 484.237384 256.07389 
L 488.667877 260.272257 
L 493.221441 264.282614 
L 495.621291 266.279439 
L 495.682826 195.896665 
L 495.744361 196.017439 
L 499.621043 203.383158 
L 503.682329 210.616352 
L 507.68208 217.28731 
L 511.681831 223.537428 
L 515.743117 229.480447 
L 519.804403 235.043019 
L 523.927224 240.325582 
L 528.234648 245.478519 
L 532.603607 250.348369 
L 536.911032 254.822063 
L 541.341526 259.107587 
L 545.833554 263.147857 
L 547.310385 264.412972 
L 547.37192 194.022436 
L 547.433455 194.145066 
L 551.310137 201.625436 
L 555.371423 208.971136 
L 559.371174 215.745883 
L 563.370925 222.093243 
L 567.432211 228.128709 
L 571.493497 233.777825 
L 575.616318 239.142612 
L 579.923742 244.375719 
L 584.292701 249.321317 
L 588.600126 253.864615 
L 593.03062 258.216802 
L 597.461114 262.265823 
L 598.199529 262.912711 
L 598.261064 192.485903 
L 598.322598 192.60996 
L 602.19928 200.184414 
L 606.260566 207.622354 
L 610.321852 214.584218 
L 614.321604 221.004861 
L 618.321355 227.020457 
L 622.382641 232.740505 
L 626.443927 238.094347 
L 630.628282 243.251905 
L 634.812637 248.069891 
L 639.243131 252.825372 
L 643.61209 257.190603 
L 648.042584 261.311161 
L 648.534861 261.750886 
L 648.596396 191.347698 
L 648.65793 191.472969 
L 652.534613 199.116953 
L 656.595898 206.623228 
L 660.59565 213.546093 
L 664.595401 220.032227 
L 668.656687 226.199619 
L 672.717973 231.972239 
L 676.840794 237.454371 
L 681.148218 242.80189 
L 685.517177 247.855598 
L 689.824602 252.498227 
L 694.255096 256.945544 
L 698.377916 260.805352 
L 698.439451 190.413915 
L 698.500985 190.540152 
L 702.377667 198.241185 
L 706.438953 205.803544 
L 710.438705 212.77812 
L 714.438456 219.312702 
L 718.499742 225.526182 
L 722.561028 231.341924 
L 726.683849 236.864968 
L 730.991273 242.25243 
L 735.360232 247.343898 
L 739.667657 252.021204 
L 744.036616 256.441648 
L 747.790229 259.996278 
L 747.851763 189.567973 
L 747.913298 189.694935 
L 751.78998 197.447816 
L 755.851266 205.060968 
L 759.912552 212.186807 
L 763.912303 218.758692 
L 767.912055 224.915988 
L 771.973341 230.77077 
L 776.034627 236.250726 
L 780.218982 241.529776 
L 784.403337 246.461256 
L 788.833831 251.328751 
L 793.141255 255.736005 
L 796.956403 259.38963 
L 797.017937 189.004755 
L 797.079472 189.132418 
L 800.956154 196.919588 
L 805.01744 204.566571 
L 808.955657 211.514283 
L 813.078477 218.325245 
L 817.078229 224.509885 
L 821.07798 230.304365 
L 825.139266 235.814184 
L 829.262086 241.046683 
L 833.631046 246.220996 
L 837.93847 250.974401 
L 842.307429 255.466771 
L 845.814903 258.849064 
L 845.876438 188.452926 
L 845.937973 188.58111 
L 849.814655 196.402078 
L 853.875941 204.08217 
L 857.875692 211.165339 
L 861.875443 217.801663 
L 865.936729 224.111874 
L 869.936481 229.931463 
L 873.997767 235.465153 
L 878.120587 240.720364 
L 882.489546 245.917081 
L 886.796971 250.691083 
L 891.16593 255.202903 
L 894.427266 258.367705 
L 894.4888 187.924883 
L 894.550335 188.053425 
L 898.427017 195.90679 
L 902.426768 203.505705 
L 906.488054 210.731059 
L 910.54934 217.493828 
L 914.549092 223.730918 
L 918.610378 229.661553 
L 922.671664 235.212529 
L 926.794484 240.48407 
L 931.101909 245.626267 
L 935.470868 250.485972 
L 939.778292 254.950341 
L 942.916559 258.011366 
L 942.978093 187.586461 
L 943.039628 187.715413 
L 946.91631 195.589453 
L 950.977596 203.321579 
L 954.977347 210.45273 
L 959.038633 217.233374 
L 963.038385 223.486895 
L 967.099671 229.433176 
L 971.160957 234.998771 
L 971.714768 235.72925 
L 971.714768 235.72925 
" clip-path="url(#p1bf460d849)" style="fill: none; stroke: #ffa514; stroke-width: 4"/>
   </g>
   <g id="line2d_14">
    <path d="M 48.695232 252.269239 
L 53.18726 256.792217 
L 57.617754 260.940411 
L 62.232852 264.954609 
L 66.971019 268.773536 
L 71.647651 272.264655 
L 76.508887 275.622271 
L 81.493193 278.799708 
L 86.662102 281.833239 
L 91.954081 284.68543 
L 97.430663 287.389211 
L 103.09185 289.941861 
L 109.122244 292.413996 
L 115.275708 294.698326 
L 121.736844 296.862738 
L 128.505654 298.89865 
L 135.643672 300.815794 
L 140.074166 301.898336 
L 140.135701 225.060945 
L 140.197235 225.152454 
L 144.196986 230.906398 
L 148.258272 236.37767 
L 152.381093 241.573583 
L 156.750052 246.711688 
L 161.057477 251.431839 
L 165.426436 255.892774 
L 169.795395 260.047274 
L 174.287423 264.02125 
L 178.902521 267.8123 
L 183.640688 271.419025 
L 188.44039 274.799373 
L 193.424695 278.040957 
L 198.470535 281.065181 
L 203.824049 284.013149 
L 206.716176 285.502042 
L 206.777711 208.684669 
L 206.839246 208.792599 
L 210.777462 215.477487 
L 214.777214 221.841779 
L 218.8385 227.893342 
L 222.899786 233.557527 
L 227.022606 238.936631 
L 231.330031 244.183697 
L 235.69899 249.142485 
L 240.006414 253.697902 
L 244.436908 258.061697 
L 248.867402 262.121523 
L 253.544034 266.100505 
L 258.220667 269.787682 
L 262.958833 273.24768 
L 264.189526 274.103534 
L 264.251061 197.286698 
L 264.312595 197.406028 
L 268.189278 204.686857 
L 272.312098 211.941285 
L 276.250315 218.430518 
L 280.311601 224.700466 
L 284.311352 230.482923 
L 288.372638 235.981306 
L 292.495459 241.202988 
L 296.864418 246.366547 
L 301.171842 251.110089 
L 305.540801 255.59312 
L 309.909761 259.768206 
L 314.401789 263.761884 
L 316.493967 265.524633 
L 316.555501 188.720676 
L 316.617036 188.848601 
L 320.493718 196.653182 
L 324.555004 204.317203 
L 328.554755 211.385545 
L 332.554507 218.007978 
L 336.615793 224.304986 
L 340.615544 230.112392 
L 344.67683 235.6345 
L 348.79965 240.878699 
L 353.16861 246.064542 
L 357.476034 250.82855 
L 361.844993 255.33093 
L 365.229398 258.605009 
L 365.290933 181.777721 
L 365.352467 181.91251 
L 369.229149 190.141718 
L 373.290435 198.222614 
L 377.290187 205.675434 
L 381.289938 212.658091 
L 385.351224 219.297555 
L 389.350975 225.420856 
L 393.412261 231.243321 
L 397.473547 236.693019 
L 401.657903 241.94292 
L 405.842258 246.847166 
L 410.272752 251.687795 
L 411.195771 252.653061 
L 411.257306 175.881218 
L 411.31884 176.022059 
L 415.133988 184.479609 
L 419.133739 192.799411 
L 423.13349 200.594356 
L 427.194776 208.006112 
L 431.256062 214.943333 
L 435.255814 221.341321 
L 439.3171 227.424946 
L 443.378386 233.119121 
L 447.501206 238.526662 
L 451.808631 243.801512 
L 454.516155 246.932708 
L 454.577689 170.128681 
L 454.639224 170.275179 
L 458.454371 179.079101 
L 462.392588 187.610449 
L 466.26927 195.490533 
L 470.207487 203.002326 
L 474.330307 210.366141 
L 478.268524 216.953294 
L 482.32981 223.31779 
L 486.329561 229.187474 
L 490.390847 234.76879 
L 494.513668 240.069277 
L 495.436687 241.207947 
L 495.498222 164.410336 
L 495.559757 164.562566 
L 499.374904 173.71076 
L 503.251586 182.441394 
L 507.128268 190.638201 
L 511.189554 198.687302 
L 515.189305 206.110808 
L 519.189057 213.065999 
L 523.250343 219.679376 
L 527.250094 225.778591 
L 531.31138 231.578161 
L 534.080439 235.318055 
L 534.141973 158.54327 
L 534.203508 158.701436 
L 538.018655 168.202845 
L 541.956872 177.410116 
L 545.833554 185.914437 
L 549.771771 194.021345 
L 553.833057 201.853861 
L 557.771273 208.970179 
L 561.894094 215.946371 
L 565.893845 222.281083 
L 569.893597 228.216167 
L 570.570478 229.18299 
L 570.632012 152.428239 
L 570.693547 152.592576 
L 574.508694 162.462117 
L 578.446911 172.026169 
L 582.262058 180.724252 
L 586.26181 189.280962 
L 590.261561 197.297869 
L 594.322847 204.920643 
L 598.261064 211.846342 
L 602.383884 218.635748 
L 605.029874 222.759072 
L 605.091408 146.007265 
L 605.152943 146.178028 
L 608.906556 156.273615 
L 612.721703 165.921018 
L 616.721455 175.411594 
L 620.721206 184.303455 
L 624.720957 192.63437 
L 628.782243 200.555704 
L 632.72046 207.75268 
L 636.84328 214.807999 
L 637.581696 216.022642 
L 637.643231 139.247931 
L 637.704765 139.425359 
L 641.458378 149.9215 
L 645.273526 159.951868 
L 649.273277 169.819011 
L 653.273028 179.063681 
L 657.272779 187.725149 
L 661.334065 195.960751 
L 665.333817 203.556262 
L 668.410549 209.071313 
L 668.472083 132.321477 
L 668.533618 132.505918 
L 672.287231 143.412552 
L 676.102378 153.835079 
L 680.040595 163.935448 
L 683.917277 173.264366 
L 687.732424 181.888138 
L 691.670641 190.244939 
L 695.547323 197.963726 
L 697.577966 201.816906 
L 697.639501 125.066789 
L 697.701035 125.25847 
L 701.454648 136.595028 
L 705.208261 147.259063 
L 709.084943 157.608619 
L 712.90009 167.175893 
L 716.776772 176.306481 
L 720.59192 184.746924 
L 724.530136 192.926057 
L 725.207017 194.280004 
L 725.268552 117.515416 
L 725.330087 117.714557 
L 729.083699 129.498598 
L 732.837312 140.583632 
L 736.65246 151.176319 
L 740.529142 161.286693 
L 744.405824 170.777722 
L 748.220971 179.551352 
L 751.420772 186.500431 
L 751.482307 109.726164 
L 751.543841 109.933004 
L 755.297454 122.178615 
L 759.051067 133.697893 
L 762.866214 144.705642 
L 766.804431 155.373508 
L 770.742648 165.378116 
L 774.557795 174.476737 
L 776.3423 178.542558 
L 776.403834 101.790968 
L 776.465369 102.005841 
L 780.218982 114.721741 
L 783.972595 126.683367 
L 787.787742 138.113726 
L 791.664424 149.023598 
L 795.479571 159.107692 
L 799.356253 168.732601 
L 800.033134 170.351698 
L 800.094669 93.614452 
L 800.156204 93.83755 
L 803.909817 107.038019 
L 807.663429 119.455451 
L 811.478577 131.321341 
L 815.355259 142.646984 
L 819.170406 153.115312 
L 822.616346 162.02749 
L 822.67788 85.340598 
L 822.739415 85.572191 
L 826.493028 99.263029 
L 830.246641 112.141603 
L 834.123323 124.640485 
L 837.876935 136.01372 
L 841.692083 146.882019 
L 844.091934 153.380683 
L 844.153468 76.679226 
L 844.215003 76.919393 
L 847.968616 91.123509 
L 851.722228 104.484989 
L 855.537376 117.252932 
L 859.352523 129.252069 
L 863.106136 140.3517 
L 864.582967 144.536078 
L 864.644502 67.815658 
L 864.706037 68.064535 
L 868.459649 82.793877 
L 872.213262 96.649524 
L 875.966875 109.683046 
L 879.905092 122.527133 
L 883.720239 134.207973 
L 884.212516 135.6634 
L 884.274051 58.987122 
L 884.335585 59.245058 
L 888.027664 74.254787 
L 891.719742 88.388291 
L 895.473355 101.912061 
L 899.226967 114.633531 
L 902.98058 126.600077 
L 903.042115 49.952427 
L 903.103649 50.219512 
L 906.795728 65.756128 
L 910.487806 80.385759 
L 914.179884 94.161354 
L 917.933497 107.342667 
L 920.887159 117.162389 
L 920.948694 40.455319 
L 921.010228 40.73148 
L 924.763841 57.082211 
L 928.455919 72.218201 
L 932.147997 86.470595 
L 935.90161 100.108138 
L 938.116857 107.773771 
L 938.178392 31.08277 
L 938.239926 31.36837 
L 941.993539 48.274559 
L 945.685617 63.924716 
L 949.377695 78.66126 
L 953.069774 92.537526 
L 954.669674 98.296685 
L 954.731209 21.636711 
L 954.792743 21.931939 
L 958.484822 39.119903 
L 962.1769 55.304482 
L 965.868978 70.544252 
L 969.622591 85.126528 
L 970.54561 88.578097 
L 970.607145 11.907968 
L 970.668679 12.212778 
L 971.714768 17.351839 
L 971.714768 17.351839 
" clip-path="url(#p1bf460d849)" style="fill: none; stroke: #ffd120; stroke-width: 4"/>
   </g>
  </g>
 </g>
 <defs>
  <clipPath id="p1bf460d849">
   <rect x="21.004646" y="2.834646" width="978.400709" height="320.590709"/>
  </clipPath>
 </defs>
</svg>
