<?xml version="1.0" encoding="utf-8" standalone="no"?>
<!DOCTYPE svg PUBLIC "-//W3C//DTD SVG 1.1//EN"
  "http://www.w3.org/Graphics/SVG/1.1/DTD/svg11.dtd">
<svg xmlns:xlink="http://www.w3.org/1999/xlink" width="233.28pt" height="106.56pt" viewBox="0 0 233.28 106.56" xmlns="http://www.w3.org/2000/svg" version="1.1">
 <metadata>
  <rdf:RDF xmlns:dc="http://purl.org/dc/elements/1.1/" xmlns:cc="http://creativecommons.org/ns#" xmlns:rdf="http://www.w3.org/1999/02/22-rdf-syntax-ns#">
   <cc:Work>
    <dc:type rdf:resource="http://purl.org/dc/dcmitype/StillImage"/>
    <dc:date>2024-08-16T15:11:12.288887</dc:date>
    <dc:format>image/svg+xml</dc:format>
    <dc:creator>
     <cc:Agent>
      <dc:title>Matplotlib v3.8.4, https://matplotlib.org/</dc:title>
     </cc:Agent>
    </dc:creator>
   </cc:Work>
  </rdf:RDF>
 </metadata>
 <defs>
  <style type="text/css">*{stroke-linejoin: round; stroke-linecap: butt}</style>
 </defs>
 <g id="figure_1">
  <g id="patch_1">
   <path d="M 0 106.56 
L 233.28 106.56 
L 233.28 0 
L 0 0 
L 0 106.56 
z
" style="fill: none"/>
  </g>
  <g id="axes_1">
   <g id="patch_2">
    <path d="M 41.316477 72.865354 
L 228.452109 72.865354 
L 228.452109 4.283712 
L 41.316477 4.283712 
L 41.316477 72.865354 
z
" style="fill: none"/>
   </g>
   <g id="line2d_1">
    <path d="M 46.612768 62.404001 
L 48.08396 65.392561 
L 49.378609 67.532919 
L 50.496715 68.981298 
L 51.497126 69.94568 
L 52.438689 70.557271 
L 53.321404 70.864318 
L 54.145272 70.915856 
L 54.969139 70.74003 
L 55.793007 70.338256 
L 56.675722 69.660777 
L 57.676133 68.592046 
L 58.735391 67.125962 
L 59.971192 65.007242 
L 61.324689 62.227259 
L 62.913576 58.43291 
L 64.85555 53.179064 
L 67.621391 44.968316 
L 72.564596 30.236809 
L 74.683113 24.681213 
L 76.389696 20.79149 
L 77.919736 17.833421 
L 79.273232 15.674314 
L 80.509034 14.105406 
L 81.568292 13.093478 
L 82.509855 12.478782 
L 83.39257 12.164655 
L 84.216438 12.106419 
L 85.040305 12.27851 
L 85.864173 12.689279 
L 86.68804 13.347763 
L 87.629603 14.40808 
L 88.630014 15.886579 
L 89.74812 17.940833 
L 91.042769 20.792216 
L 92.631656 24.872374 
L 94.57363 30.515069 
L 97.574862 40.019253 
L 101.576504 52.564248 
L 103.636173 58.295522 
L 105.342756 62.414107 
L 106.813948 65.400926 
L 108.108597 67.539591 
L 109.226703 68.98641 
L 110.227114 69.949337 
L 111.168677 70.559521 
L 112.051392 70.865228 
L 112.875259 70.915508 
L 113.699127 70.738428 
L 114.522995 70.335411 
L 115.40571 69.656626 
L 116.40612 68.586465 
L 117.465379 67.118939 
L 118.70118 64.99866 
L 120.054677 62.217154 
L 121.643564 58.421305 
L 123.585538 53.166105 
L 126.351379 44.95442 
L 131.294584 30.224143 
L 133.413101 24.670071 
L 135.119684 20.781907 
L 136.649723 17.825414 
L 138.00322 15.667805 
L 139.239021 14.100372 
L 140.29828 13.089836 
L 141.239843 12.476498 
L 142.122558 12.163707 
L 142.946425 12.106732 
L 143.770293 12.280116 
L 144.594161 12.692233 
L 145.418028 13.352104 
L 146.359591 14.414003 
L 147.360002 15.894113 
L 148.478108 17.950016 
L 149.772757 20.80306 
L 151.361644 24.88486 
L 153.303618 30.52895 
L 156.30485 40.033962 
L 160.306492 52.577676 
L 162.366161 58.307352 
L 164.072744 62.424208 
L 165.543936 65.409285 
L 166.838585 67.546257 
L 167.956691 68.991516 
L 168.957101 69.952988 
L 169.898664 70.561764 
L 170.78138 70.866131 
L 171.605247 70.915154 
L 172.429115 70.736818 
L 173.252982 70.332559 
L 174.135698 69.65247 
L 175.136108 68.580877 
L 176.195366 67.111911 
L 177.431168 64.990073 
L 178.784664 62.207044 
L 180.373552 58.409696 
L 182.315525 53.153143 
L 185.081367 44.940524 
L 190.024572 30.211479 
L 192.143089 24.658935 
L 193.849671 20.772329 
L 195.379711 17.817411 
L 196.733208 15.661301 
L 197.969009 14.095342 
L 199.028267 13.0862 
L 199.96983 12.474221 
L 200.852546 12.162766 
L 201.676413 12.107052 
L 202.500281 12.28173 
L 203.324148 12.695195 
L 204.148016 13.356454 
L 205.089579 14.419935 
L 206.089989 15.901655 
L 207.208095 17.959207 
L 208.502744 20.81391 
L 210.091632 24.897349 
L 212.033605 30.542834 
L 215.034837 40.048671 
L 218.977632 52.417493 
L 221.037301 58.166118 
L 222.743884 62.303522 
L 223.155818 63.201102 
L 223.155818 63.201102 
" clip-path="url(#p09415d24db)" style="fill: none; stroke: #2477d0; stroke-width: 4"/>
   </g>
   <g id="matplotlib.axis_1">
    <g id="xtick_1">
     <g id="line2d_2">
      <defs>
       <path id="md018e01c0a" d="M 0 0 
L 0 -5 
" style="stroke: #000000"/>
      </defs>
      <g>
       <use xlink:href="#md018e01c0a" x="46.612768" y="72.865354" style="stroke: #000000"/>
      </g>
     </g>
     <g id="text_1">
      <!-- $0$ -->
      <g transform="translate(39.612768 97.640979) scale(0.28 -0.28)">
       <defs>
        <path id="Cmr10-30" d="M 1600 -141 
Q 816 -141 533 504 
Q 250 1150 250 2041 
Q 250 2597 351 3087 
Q 453 3578 754 3920 
Q 1056 4263 1600 4263 
Q 2022 4263 2290 4056 
Q 2559 3850 2700 3523 
Q 2841 3197 2892 2823 
Q 2944 2450 2944 2041 
Q 2944 1491 2842 1011 
Q 2741 531 2444 195 
Q 2147 -141 1600 -141 
z
M 1600 25 
Q 1956 25 2131 390 
Q 2306 756 2347 1200 
Q 2388 1644 2388 2144 
Q 2388 2625 2347 3031 
Q 2306 3438 2132 3767 
Q 1959 4097 1600 4097 
Q 1238 4097 1063 3765 
Q 888 3434 847 3029 
Q 806 2625 806 2144 
Q 806 1788 823 1472 
Q 841 1156 916 820 
Q 991 484 1158 254 
Q 1325 25 1600 25 
z
" transform="scale(0.015625)"/>
       </defs>
       <use xlink:href="#Cmr10-30" transform="translate(0 0.390625)"/>
      </g>
     </g>
    </g>
    <g id="xtick_2">
     <g id="line2d_3">
      <g>
       <use xlink:href="#md018e01c0a" x="105.460451" y="72.865354" style="stroke: #000000"/>
      </g>
     </g>
     <g id="text_2">
      <!-- $1$ -->
      <g transform="translate(98.460451 97.640979) scale(0.28 -0.28)">
       <defs>
        <path id="Cmr10-31" d="M 594 0 
L 594 225 
Q 1394 225 1394 428 
L 1394 3788 
Q 1063 3628 556 3628 
L 556 3853 
Q 1341 3853 1741 4263 
L 1831 4263 
Q 1853 4263 1873 4245 
Q 1894 4228 1894 4206 
L 1894 428 
Q 1894 225 2694 225 
L 2694 0 
L 594 0 
z
" transform="scale(0.015625)"/>
       </defs>
       <use xlink:href="#Cmr10-31" transform="translate(0 0.390625)"/>
      </g>
     </g>
    </g>
    <g id="xtick_3">
     <g id="line2d_4">
      <g>
       <use xlink:href="#md018e01c0a" x="164.308134" y="72.865354" style="stroke: #000000"/>
      </g>
     </g>
     <g id="text_3">
      <!-- $2$ -->
      <g transform="translate(157.308134 97.640979) scale(0.28 -0.28)">
       <defs>
        <path id="Cmr10-32" d="M 319 0 
L 319 172 
Q 319 188 331 206 
L 1325 1306 
Q 1550 1550 1690 1715 
Q 1831 1881 1968 2097 
Q 2106 2313 2186 2536 
Q 2266 2759 2266 3009 
Q 2266 3272 2169 3511 
Q 2072 3750 1880 3894 
Q 1688 4038 1416 4038 
Q 1138 4038 916 3870 
Q 694 3703 603 3438 
Q 628 3444 672 3444 
Q 816 3444 917 3347 
Q 1019 3250 1019 3097 
Q 1019 2950 917 2848 
Q 816 2747 672 2747 
Q 522 2747 420 2851 
Q 319 2956 319 3097 
Q 319 3338 409 3548 
Q 500 3759 670 3923 
Q 841 4088 1055 4175 
Q 1269 4263 1509 4263 
Q 1875 4263 2190 4108 
Q 2506 3953 2690 3670 
Q 2875 3388 2875 3009 
Q 2875 2731 2753 2481 
Q 2631 2231 2440 2026 
Q 2250 1822 1953 1562 
Q 1656 1303 1563 1216 
L 838 519 
L 1453 519 
Q 1906 519 2211 526 
Q 2516 534 2534 550 
Q 2609 631 2688 1141 
L 2875 1141 
L 2694 0 
L 319 0 
z
" transform="scale(0.015625)"/>
       </defs>
       <use xlink:href="#Cmr10-32" transform="translate(0 0.390625)"/>
      </g>
     </g>
    </g>
    <g id="xtick_4">
     <g id="line2d_5">
      <g>
       <use xlink:href="#md018e01c0a" x="223.155818" y="72.865354" style="stroke: #000000"/>
      </g>
     </g>
     <g id="text_4">
      <!-- $3$ -->
      <g transform="translate(216.155818 97.640979) scale(0.28 -0.28)">
       <defs>
        <path id="Cmr10-33" d="M 609 494 
Q 759 275 1012 169 
Q 1266 63 1556 63 
Q 1928 63 2084 380 
Q 2241 697 2241 1100 
Q 2241 1281 2208 1462 
Q 2175 1644 2097 1800 
Q 2019 1956 1883 2050 
Q 1747 2144 1550 2144 
L 1125 2144 
Q 1069 2144 1069 2203 
L 1069 2259 
Q 1069 2309 1125 2309 
L 1478 2338 
Q 1703 2338 1851 2506 
Q 2000 2675 2069 2917 
Q 2138 3159 2138 3378 
Q 2138 3684 1994 3881 
Q 1850 4078 1556 4078 
Q 1313 4078 1091 3986 
Q 869 3894 738 3706 
Q 750 3709 759 3711 
Q 769 3713 781 3713 
Q 925 3713 1022 3613 
Q 1119 3513 1119 3372 
Q 1119 3234 1022 3134 
Q 925 3034 781 3034 
Q 641 3034 541 3134 
Q 441 3234 441 3372 
Q 441 3647 606 3850 
Q 772 4053 1033 4158 
Q 1294 4263 1556 4263 
Q 1750 4263 1965 4205 
Q 2181 4147 2356 4039 
Q 2531 3931 2642 3762 
Q 2753 3594 2753 3378 
Q 2753 3109 2633 2881 
Q 2513 2653 2303 2487 
Q 2094 2322 1844 2241 
Q 2122 2188 2372 2031 
Q 2622 1875 2773 1631 
Q 2925 1388 2925 1106 
Q 2925 753 2731 467 
Q 2538 181 2222 20 
Q 1906 -141 1556 -141 
Q 1256 -141 954 -26 
Q 653 88 461 316 
Q 269 544 269 863 
Q 269 1022 375 1128 
Q 481 1234 641 1234 
Q 744 1234 830 1186 
Q 916 1138 964 1050 
Q 1013 963 1013 863 
Q 1013 706 903 600 
Q 794 494 641 494 
L 609 494 
z
" transform="scale(0.015625)"/>
       </defs>
       <use xlink:href="#Cmr10-33" transform="translate(0 0.390625)"/>
      </g>
     </g>
    </g>
   </g>
   <g id="matplotlib.axis_2">
    <g id="ytick_1">
     <g id="line2d_6">
      <defs>
       <path id="mcbac345667" d="M 0 0 
L 5 0 
" style="stroke: #000000"/>
      </defs>
      <g>
       <use xlink:href="#mcbac345667" x="41.316477" y="70.924365" style="stroke: #000000"/>
      </g>
     </g>
     <g id="text_5">
      <!-- $-1$ -->
      <g transform="translate(1.976477 81.562177) scale(0.28 -0.28)">
       <defs>
        <path id="Cmsy10-a1" d="M 653 1472 
Q 600 1472 565 1512 
Q 531 1553 531 1600 
Q 531 1647 565 1687 
Q 600 1728 653 1728 
L 4325 1728 
Q 4375 1728 4408 1687 
Q 4441 1647 4441 1600 
Q 4441 1553 4408 1512 
Q 4375 1472 4325 1472 
L 653 1472 
z
" transform="scale(0.015625)"/>
       </defs>
       <use xlink:href="#Cmsy10-a1" transform="translate(0 0.390625)"/>
       <use xlink:href="#Cmr10-31" transform="translate(77.685547 0.390625)"/>
      </g>
     </g>
    </g>
    <g id="ytick_2">
     <g id="line2d_7">
      <g>
       <use xlink:href="#mcbac345667" x="41.316477" y="41.511979" style="stroke: #000000"/>
      </g>
     </g>
     <g id="text_6">
      <!-- $0$ -->
      <g transform="translate(23.816477 52.149791) scale(0.28 -0.28)">
       <use xlink:href="#Cmr10-30" transform="translate(0 0.390625)"/>
      </g>
     </g>
    </g>
    <g id="ytick_3">
     <g id="line2d_8">
      <g>
       <use xlink:href="#mcbac345667" x="41.316477" y="12.099593" style="stroke: #000000"/>
      </g>
     </g>
     <g id="text_7">
      <!-- $1$ -->
      <g transform="translate(23.816477 22.737405) scale(0.28 -0.28)">
       <use xlink:href="#Cmr10-31" transform="translate(0 0.390625)"/>
      </g>
     </g>
    </g>
   </g>
   <g id="line2d_9">
    <path d="M 46.612768 10.407848 
L 56.852265 13.000155 
L 67.562543 15.480771 
L 75.565828 17.14098 
L 77.272411 17.291218 
L 78.331669 17.179394 
L 79.214385 16.873886 
L 80.038252 16.353592 
L 80.86212 15.569556 
L 81.803683 14.350369 
L 83.098332 12.252261 
L 85.275696 8.693436 
L 86.276107 7.503892 
L 87.158822 6.795365 
L 87.982689 6.40908 
L 88.865405 6.237975 
L 89.924663 6.268364 
L 91.454703 6.563046 
L 94.985564 7.547899 
L 105.225061 10.377926 
L 115.464557 12.972727 
L 126.174836 15.455729 
L 134.295816 17.141681 
L 136.002399 17.291179 
L 137.061657 17.178377 
L 137.944372 16.871673 
L 138.76824 16.349993 
L 139.592108 15.564456 
L 140.53367 14.343705 
L 141.828319 12.244386 
L 144.005684 8.687154 
L 145.006094 7.499411 
L 145.88881 6.79254 
L 146.712677 6.407612 
L 147.595392 6.237631 
L 148.654651 6.268899 
L 150.18469 6.564167 
L 153.774399 7.566137 
L 163.955048 10.379131 
L 174.194545 12.973832 
L 184.904824 15.456738 
L 193.025804 17.142379 
L 194.732387 17.291129 
L 195.791645 17.177343 
L 196.67436 16.869437 
L 197.498228 16.346368 
L 198.322095 15.559329 
L 199.263658 14.337019 
L 200.558307 12.236507 
L 202.735672 8.680896 
L 203.736082 7.494959 
L 204.618797 6.78974 
L 205.442665 6.406165 
L 206.32538 6.237304 
L 207.384638 6.269443 
L 208.914678 6.565291 
L 212.504387 7.567447 
L 222.685036 10.380337 
L 223.155818 10.504645 
L 223.155818 10.504645 
" clip-path="url(#p09415d24db)" style="fill: none; stroke: #4eba88; stroke-width: 4"/>
   </g>
   <g id="patch_3">
    <path d="M 41.316477 72.865354 
L 41.316477 4.283712 
" style="fill: none; stroke: #000000; stroke-width: 2; stroke-linejoin: miter; stroke-linecap: square"/>
   </g>
   <g id="patch_4">
    <path d="M 41.316477 72.865354 
L 228.452109 72.865354 
" style="fill: none; stroke: #000000; stroke-width: 2; stroke-linejoin: miter; stroke-linecap: square"/>
   </g>
  </g>
 </g>
 <defs>
  <clipPath id="p09415d24db">
   <rect x="41.316477" y="4.283712" width="187.135632" height="68.581642"/>
  </clipPath>
 </defs>
</svg>
